<?xml version="1.0" standalone="no"?>
 <!DOCTYPE svg PUBLIC "-//W3C//DTD SVG 1.1//EN" 
 "http://www.w3.org/Graphics/SVG/1.1/DTD/svg11.dtd"> 
<svg xmlns="http://www.w3.org/2000/svg" version="1.1" 
    width="29.7002cm" height="21.0007cm" viewBox="0 0 116930 82680 ">
<title>SVG Picture created as nano-F.Cu.svg date 2019/03/18 12:32:55 </title>
  <desc>Picture generated by PCBNEW </desc>
<g style="fill:#000000; fill-opacity:1;stroke:#000000; stroke-opacity:1;
stroke-linecap:round; stroke-linejoin:round; "
 transform="translate(0 0) scale(1 1)">
</g>
<g style="fill:#000000; fill-opacity:0.0; 
stroke:#000000; stroke-width:-0.000393701; stroke-opacity:1; 
stroke-linecap:round; stroke-linejoin:round;">
</g>
<g style="fill:#000000; fill-opacity:0.0; 
stroke:#000000; stroke-width:39.3701; stroke-opacity:1; 
stroke-linecap:round; stroke-linejoin:round;">
<path d="M32600 67750
L32100 67250
" />
<path d="M32600 12600
L32100 13100
" />
<path d="M63525 67250
L63025 67750
" />
<path d="M63525 13075
L63025 12575
" />
<circle cx="42500" cy="58276.1" r="1101.14" /> 
<circle cx="55675" cy="58275" r="1100" /> 
<circle cx="42475" cy="16879.5" r="1104.54" /> 
<circle cx="55700" cy="16880" r="1004.99" /> 
<path d="M32100 67250
L32100 13100
" />
<path d="M63025 67750
L32600 67750
" />
<path d="M63525 13075
L63525 67250
" />
<path d="M32600 12600
L63025 12575
" />
</g>
<g style="fill:#000000; fill-opacity:0.0; 
stroke:#000000; stroke-width:708.661; stroke-opacity:1; 
stroke-linecap:round; stroke-linejoin:round;">
<path d="M36354 66445
L35645 66445
" />
<path d="M36354 65067
L35645 65067
" />
<path d="M36354 63689
L35645 63689
" />
<path d="M36354 62311
L35645 62311
" />
<path d="M36354 60933
L35645 60933
" />
<path d="M36354 59555
L35645 59555
" />
<path d="M36354 58177
L35645 58177
" />
</g>
<g style="fill:#000000; fill-opacity:0.0; 
stroke:#000000; stroke-width:0; stroke-opacity:1; 
stroke-linecap:round; stroke-linejoin:round;">
</g>
<g style="fill:#000000; fill-opacity:1.0; 
stroke:#000000; stroke-width:0; stroke-opacity:1; 
stroke-linecap:round; stroke-linejoin:round;">
<polyline style="fill-rule:evenodd;"
points="36619,56446
36629,56447
36638,56449
36647,56453
36656,56457
36664,56462
36672,56468
36679,56474
36686,56481
36692,56489
36697,56497
36701,56506
36704,56515
36706,56524
36708,56534
36708,56544
36708,57055
36708,57065
36706,57075
36704,57084
36701,57093
36697,57102
36692,57110
36686,57118
36679,57125
36672,57131
36664,57137
36656,57142
36647,57146
36638,57150
36629,57152
36619,57153
36610,57154
35389,57154
35380,57153
35370,57152
35361,57150
35352,57146
35343,57142
35335,57137
35327,57131
35320,57125
35313,57118
35307,57110
35302,57102
35298,57093
35295,57084
35293,57075
35291,57065
35291,57055
35291,56544
35291,56534
35293,56524
35295,56515
35298,56506
35302,56497
35307,56489
35313,56481
35320,56474
35327,56468
35335,56462
35343,56457
35352,56453
35361,56449
35370,56447
35380,56446
35389,56445
36610,56445
36619,56446
" /> 
<polyline style="fill-rule:evenodd;"
points="59677,20755
59686,20757
59696,20759
59705,20763
59714,20767
59722,20772
59730,20777
59737,20784
59743,20791
59749,20799
59754,20807
59758,20816
59761,20825
59764,20834
59765,20844
59766,20853
59766,21346
59765,21355
59764,21365
59761,21374
59758,21383
59754,21392
59749,21400
59743,21408
59737,21415
59730,21422
59722,21427
59714,21432
59705,21436
59696,21440
59686,21442
59677,21444
59667,21444
59303,21444
59293,21444
59284,21442
59274,21440
59265,21436
59257,21432
59248,21427
59241,21422
59233,21415
59227,21408
59221,21400
59216,21392
59212,21383
59209,21374
59207,21365
59205,21355
59205,21346
59205,20853
59205,20844
59207,20834
59209,20825
59212,20816
59216,20807
59221,20799
59227,20791
59233,20784
59241,20777
59248,20772
59257,20767
59265,20763
59274,20759
59284,20757
59293,20755
59303,20755
59667,20755
59677,20755
" /> 
<polyline style="fill-rule:evenodd;"
points="58506,20755
58515,20757
58525,20759
58534,20763
58542,20767
58551,20772
58558,20777
58566,20784
58572,20791
58578,20799
58583,20807
58587,20816
58590,20825
58592,20834
58594,20844
58594,20853
58594,21346
58594,21355
58592,21365
58590,21374
58587,21383
58583,21392
58578,21400
58572,21408
58566,21415
58558,21422
58551,21427
58542,21432
58534,21436
58525,21440
58515,21442
58506,21444
58496,21444
58132,21444
58122,21444
58113,21442
58103,21440
58094,21436
58085,21432
58077,21427
58069,21422
58062,21415
58056,21408
58050,21400
58045,21392
58041,21383
58038,21374
58035,21365
58034,21355
58033,21346
58033,20853
58034,20844
58035,20834
58038,20825
58041,20816
58045,20807
58050,20799
58056,20791
58062,20784
58069,20777
58077,20772
58085,20767
58094,20763
58103,20759
58113,20757
58122,20755
58132,20755
58496,20755
58506,20755
" /> 
</g>
<g style="fill:#000000; fill-opacity:1.0; 
stroke:#000000; stroke-width:708.661; stroke-opacity:1; 
stroke-linecap:round; stroke-linejoin:round;">
</g>
<g style="fill:#000000; fill-opacity:0.0; 
stroke:#000000; stroke-width:708.661; stroke-opacity:1; 
stroke-linecap:round; stroke-linejoin:round;">
<path d="M36404 54195
L35695 54195
" />
<path d="M36404 52817
L35695 52817
" />
<path d="M36404 51439
L35695 51439
" />
<path d="M36404 50061
L35695 50061
" />
<path d="M36404 48683
L35695 48683
" />
<path d="M36404 47305
L35695 47305
" />
<path d="M36404 45927
L35695 45927
" />
</g>
<g style="fill:#000000; fill-opacity:0.0; 
stroke:#000000; stroke-width:0; stroke-opacity:1; 
stroke-linecap:round; stroke-linejoin:round;">
</g>
<g style="fill:#000000; fill-opacity:1.0; 
stroke:#000000; stroke-width:0; stroke-opacity:1; 
stroke-linecap:round; stroke-linejoin:round;">
<polyline style="fill-rule:evenodd;"
points="36669,44196
36679,44197
36688,44199
36697,44203
36706,44207
36714,44212
36722,44218
36729,44224
36736,44231
36742,44239
36747,44247
36751,44256
36754,44265
36756,44274
36758,44284
36758,44294
36758,44805
36758,44815
36756,44825
36754,44834
36751,44843
36747,44852
36742,44860
36736,44868
36729,44875
36722,44881
36714,44887
36706,44892
36697,44896
36688,44900
36679,44902
36669,44903
36660,44904
35439,44904
35430,44903
35420,44902
35411,44900
35402,44896
35393,44892
35385,44887
35377,44881
35370,44875
35363,44868
35357,44860
35352,44852
35348,44843
35345,44834
35343,44825
35341,44815
35341,44805
35341,44294
35341,44284
35343,44274
35345,44265
35348,44256
35352,44247
35357,44239
35363,44231
35370,44224
35377,44218
35385,44212
35393,44207
35402,44203
35411,44199
35420,44197
35430,44196
35439,44195
36660,44195
36669,44196
" /> 
</g>
<g style="fill:#000000; fill-opacity:1.0; 
stroke:#000000; stroke-width:708.661; stroke-opacity:1; 
stroke-linecap:round; stroke-linejoin:round;">
</g>
<g style="fill:#000000; fill-opacity:0.0; 
stroke:#000000; stroke-width:708.661; stroke-opacity:1; 
stroke-linecap:round; stroke-linejoin:round;">
<path d="M36404 15227
L35695 15227
" />
</g>
<g style="fill:#000000; fill-opacity:0.0; 
stroke:#000000; stroke-width:0; stroke-opacity:1; 
stroke-linecap:round; stroke-linejoin:round;">
</g>
<g style="fill:#000000; fill-opacity:1.0; 
stroke:#000000; stroke-width:0; stroke-opacity:1; 
stroke-linecap:round; stroke-linejoin:round;">
<polyline style="fill-rule:evenodd;"
points="36669,13496
36679,13497
36688,13499
36697,13503
36706,13507
36714,13512
36722,13518
36729,13524
36736,13531
36742,13539
36747,13547
36751,13556
36754,13565
36756,13574
36758,13584
36758,13594
36758,14105
36758,14115
36756,14125
36754,14134
36751,14143
36747,14152
36742,14160
36736,14168
36729,14175
36722,14181
36714,14187
36706,14192
36697,14196
36688,14200
36679,14202
36669,14203
36660,14204
35439,14204
35430,14203
35420,14202
35411,14200
35402,14196
35393,14192
35385,14187
35377,14181
35370,14175
35363,14168
35357,14160
35352,14152
35348,14143
35345,14134
35343,14125
35341,14115
35341,14105
35341,13594
35341,13584
35343,13574
35345,13565
35348,13556
35352,13547
35357,13539
35363,13531
35370,13524
35377,13518
35385,13512
35393,13507
35402,13503
35411,13499
35420,13497
35430,13496
35439,13495
36660,13495
36669,13496
" /> 
</g>
<g style="fill:#000000; fill-opacity:1.0; 
stroke:#000000; stroke-width:708.661; stroke-opacity:1; 
stroke-linecap:round; stroke-linejoin:round;">
</g>
<g style="fill:#000000; fill-opacity:0.0; 
stroke:#000000; stroke-width:708.661; stroke-opacity:1; 
stroke-linecap:round; stroke-linejoin:round;">
<path d="M42254 40495
L41545 40495
" />
<path d="M42254 39117
L41545 39117
" />
<path d="M42254 37739
L41545 37739
" />
<path d="M42254 36361
L41545 36361
" />
<path d="M42254 34983
L41545 34983
" />
<path d="M42254 33605
L41545 33605
" />
<path d="M42254 32227
L41545 32227
" />
</g>
<g style="fill:#000000; fill-opacity:0.0; 
stroke:#000000; stroke-width:0; stroke-opacity:1; 
stroke-linecap:round; stroke-linejoin:round;">
</g>
<g style="fill:#000000; fill-opacity:1.0; 
stroke:#000000; stroke-width:0; stroke-opacity:1; 
stroke-linecap:round; stroke-linejoin:round;">
<polyline style="fill-rule:evenodd;"
points="42519,30496
42529,30497
42538,30499
42547,30503
42556,30507
42564,30512
42572,30518
42579,30524
42586,30531
42592,30539
42597,30547
42601,30556
42604,30565
42606,30574
42608,30584
42608,30594
42608,31105
42608,31115
42606,31125
42604,31134
42601,31143
42597,31152
42592,31160
42586,31168
42579,31175
42572,31181
42564,31187
42556,31192
42547,31196
42538,31200
42529,31202
42519,31203
42510,31204
41289,31204
41280,31203
41270,31202
41261,31200
41252,31196
41243,31192
41235,31187
41227,31181
41220,31175
41213,31168
41207,31160
41202,31152
41198,31143
41195,31134
41193,31125
41191,31115
41191,31105
41191,30594
41191,30584
41193,30574
41195,30565
41198,30556
41202,30547
41207,30539
41213,30531
41220,30524
41227,30518
41235,30512
41243,30507
41252,30503
41261,30499
41270,30497
41280,30496
41289,30495
42510,30495
42519,30496
" /> 
</g>
<g style="fill:#000000; fill-opacity:1.0; 
stroke:#000000; stroke-width:708.661; stroke-opacity:1; 
stroke-linecap:round; stroke-linejoin:round;">
</g>
<g style="fill:#000000; fill-opacity:0.0; 
stroke:#000000; stroke-width:708.661; stroke-opacity:1; 
stroke-linecap:round; stroke-linejoin:round;">
<path d="M36404 40515
L35695 40515
" />
<path d="M36404 39137
L35695 39137
" />
<path d="M36404 37759
L35695 37759
" />
<path d="M36404 36381
L35695 36381
" />
<path d="M36404 35004
L35695 35004
" />
<path d="M36404 33626
L35695 33626
" />
<path d="M36404 32248
L35695 32248
" />
</g>
<g style="fill:#000000; fill-opacity:0.0; 
stroke:#000000; stroke-width:0; stroke-opacity:1; 
stroke-linecap:round; stroke-linejoin:round;">
</g>
<g style="fill:#000000; fill-opacity:1.0; 
stroke:#000000; stroke-width:0; stroke-opacity:1; 
stroke-linecap:round; stroke-linejoin:round;">
<polyline style="fill-rule:evenodd;"
points="36669,30516
36679,30517
36688,30520
36697,30523
36706,30527
36714,30532
36722,30538
36729,30544
36736,30551
36742,30559
36747,30567
36751,30576
36754,30585
36756,30595
36758,30604
36758,30614
36758,31126
36758,31135
36756,31145
36754,31154
36751,31163
36747,31172
36742,31180
36736,31188
36729,31195
36722,31202
36714,31207
36706,31212
36697,31217
36688,31220
36679,31222
36669,31224
36660,31224
35439,31224
35430,31224
35420,31222
35411,31220
35402,31217
35393,31212
35385,31207
35377,31202
35370,31195
35363,31188
35357,31180
35352,31172
35348,31163
35345,31154
35343,31145
35341,31135
35341,31126
35341,30614
35341,30604
35343,30595
35345,30585
35348,30576
35352,30567
35357,30559
35363,30551
35370,30544
35377,30538
35385,30532
35393,30527
35402,30523
35411,30520
35420,30517
35430,30516
35439,30515
36660,30515
36669,30516
" /> 
</g>
<g style="fill:#000000; fill-opacity:1.0; 
stroke:#000000; stroke-width:708.661; stroke-opacity:1; 
stroke-linecap:round; stroke-linejoin:round;">
</g>
<g style="fill:#000000; fill-opacity:0.0; 
stroke:#000000; stroke-width:708.661; stroke-opacity:1; 
stroke-linecap:round; stroke-linejoin:round;">
<path d="M36404 27445
L35695 27445
" />
<path d="M36404 26067
L35695 26067
" />
<path d="M36404 24689
L35695 24689
" />
<path d="M36404 23311
L35695 23311
" />
<path d="M36404 21933
L35695 21933
" />
<path d="M36404 20555
L35695 20555
" />
<path d="M36404 19177
L35695 19177
" />
</g>
<g style="fill:#000000; fill-opacity:0.0; 
stroke:#000000; stroke-width:0; stroke-opacity:1; 
stroke-linecap:round; stroke-linejoin:round;">
</g>
<g style="fill:#000000; fill-opacity:1.0; 
stroke:#000000; stroke-width:0; stroke-opacity:1; 
stroke-linecap:round; stroke-linejoin:round;">
<polyline style="fill-rule:evenodd;"
points="36669,17446
36679,17447
36688,17449
36697,17453
36706,17457
36714,17462
36722,17468
36729,17474
36736,17481
36742,17489
36747,17497
36751,17506
36754,17515
36756,17524
36758,17534
36758,17544
36758,18055
36758,18065
36756,18075
36754,18084
36751,18093
36747,18102
36742,18110
36736,18118
36729,18125
36722,18131
36714,18137
36706,18142
36697,18146
36688,18150
36679,18152
36669,18153
36660,18154
35439,18154
35430,18153
35420,18152
35411,18150
35402,18146
35393,18142
35385,18137
35377,18131
35370,18125
35363,18118
35357,18110
35352,18102
35348,18093
35345,18084
35343,18075
35341,18065
35341,18055
35341,17544
35341,17534
35343,17524
35345,17515
35348,17506
35352,17497
35357,17489
35363,17481
35370,17474
35377,17468
35385,17462
35393,17457
35402,17453
35411,17449
35420,17447
35430,17446
35439,17445
36660,17445
36669,17446
" /> 
<circle cx="42475" cy="58300" r="1771.65" /> 
</g>
<g style="fill:#000000; fill-opacity:1.0; 
stroke:#000000; stroke-width:39.3701; stroke-opacity:1; 
stroke-linecap:round; stroke-linejoin:round;">
</g>
<g style="fill:#000000; fill-opacity:1.0; 
stroke:#000000; stroke-width:0; stroke-opacity:1; 
stroke-linecap:round; stroke-linejoin:round;">
<circle cx="55700" cy="58275" r="1771.65" /> 
</g>
<g style="fill:#000000; fill-opacity:1.0; 
stroke:#000000; stroke-width:39.3701; stroke-opacity:1; 
stroke-linecap:round; stroke-linejoin:round;">
</g>
<g style="fill:#000000; fill-opacity:1.0; 
stroke:#000000; stroke-width:0; stroke-opacity:1; 
stroke-linecap:round; stroke-linejoin:round;">
<circle cx="42500" cy="16850" r="1771.65" /> 
</g>
<g style="fill:#000000; fill-opacity:1.0; 
stroke:#000000; stroke-width:39.3701; stroke-opacity:1; 
stroke-linecap:round; stroke-linejoin:round;">
</g>
<g style="fill:#000000; fill-opacity:1.0; 
stroke:#000000; stroke-width:0; stroke-opacity:1; 
stroke-linecap:round; stroke-linejoin:round;">
<circle cx="55725" cy="16850" r="1771.65" /> 
</g>
<g style="fill:#000000; fill-opacity:1.0; 
stroke:#000000; stroke-width:39.3701; stroke-opacity:1; 
stroke-linecap:round; stroke-linejoin:round;">
</g>
<g style="fill:#000000; fill-opacity:1.0; 
stroke:#000000; stroke-width:680; stroke-opacity:1; 
stroke-linecap:round; stroke-linejoin:round;">
</g>
<g style="fill:#000000; fill-opacity:0.0; 
stroke:#000000; stroke-width:680; stroke-opacity:1; 
stroke-linecap:round; stroke-linejoin:round;">
<path d="M54960 28050
L54840 28050
" />
<path d="M54960 29050
L54840 29050
" />
<path d="M54960 30050
L54840 30050
" />
<path d="M54960 31050
L54840 31050
" />
<path d="M54960 32050
L54840 32050
" />
<path d="M54960 33050
L54840 33050
" />
<path d="M54960 34050
L54840 34050
" />
<path d="M54960 35050
L54840 35050
" />
<path d="M54960 36050
L54840 36050
" />
<path d="M54960 37050
L54840 37050
" />
<path d="M54960 38050
L54840 38050
" />
<path d="M54960 39050
L54840 39050
" />
<path d="M54960 40050
L54840 40050
" />
<path d="M54960 41050
L54840 41050
" />
<path d="M54960 42050
L54840 42050
" />
<path d="M60960 28050
L60840 28050
" />
<path d="M60960 29050
L60840 29050
" />
<path d="M60960 30050
L60840 30050
" />
<path d="M60960 31050
L60840 31050
" />
<path d="M60960 32050
L60840 32050
" />
<path d="M60960 33050
L60840 33050
" />
<path d="M60960 34050
L60840 34050
" />
<path d="M60960 35050
L60840 35050
" />
<path d="M60960 36050
L60840 36050
" />
<path d="M60960 37050
L60840 37050
" />
<path d="M60960 38050
L60840 38050
" />
<path d="M60960 39050
L60840 39050
" />
<path d="M60960 40050
L60840 40050
" />
<path d="M60960 41050
L60840 41050
" />
<path d="M60960 42050
L60840 42050
" />
</g>
<g style="fill:#000000; fill-opacity:1.0; 
stroke:#000000; stroke-width:0; stroke-opacity:1; 
stroke-linecap:round; stroke-linejoin:round;">
<circle cx="38850" cy="26050" r="393.701" /> 
</g>
<g style="fill:#000000; fill-opacity:1.0; 
stroke:#000000; stroke-width:39.3701; stroke-opacity:1; 
stroke-linecap:round; stroke-linejoin:round;">
</g>
<g style="fill:#000000; fill-opacity:1.0; 
stroke:#000000; stroke-width:0; stroke-opacity:1; 
stroke-linecap:round; stroke-linejoin:round;">
<circle cx="38700" cy="39150" r="393.701" /> 
</g>
<g style="fill:#000000; fill-opacity:1.0; 
stroke:#000000; stroke-width:39.3701; stroke-opacity:1; 
stroke-linecap:round; stroke-linejoin:round;">
</g>
<g style="fill:#000000; fill-opacity:1.0; 
stroke:#000000; stroke-width:0; stroke-opacity:1; 
stroke-linecap:round; stroke-linejoin:round;">
<circle cx="38700" cy="52800" r="393.701" /> 
</g>
<g style="fill:#000000; fill-opacity:1.0; 
stroke:#000000; stroke-width:39.3701; stroke-opacity:1; 
stroke-linecap:round; stroke-linejoin:round;">
</g>
<g style="fill:#000000; fill-opacity:1.0; 
stroke:#000000; stroke-width:0; stroke-opacity:1; 
stroke-linecap:round; stroke-linejoin:round;">
<circle cx="38500" cy="16050" r="393.701" /> 
</g>
<g style="fill:#000000; fill-opacity:1.0; 
stroke:#000000; stroke-width:39.3701; stroke-opacity:1; 
stroke-linecap:round; stroke-linejoin:round;">
</g>
<g style="fill:#000000; fill-opacity:1.0; 
stroke:#000000; stroke-width:0; stroke-opacity:1; 
stroke-linecap:round; stroke-linejoin:round;">
<circle cx="39900" cy="37800" r="393.701" /> 
</g>
<g style="fill:#000000; fill-opacity:1.0; 
stroke:#000000; stroke-width:39.3701; stroke-opacity:1; 
stroke-linecap:round; stroke-linejoin:round;">
</g>
<g style="fill:#000000; fill-opacity:1.0; 
stroke:#000000; stroke-width:0; stroke-opacity:1; 
stroke-linecap:round; stroke-linejoin:round;">
<circle cx="38550" cy="13850" r="393.701" /> 
</g>
<g style="fill:#000000; fill-opacity:1.0; 
stroke:#000000; stroke-width:39.3701; stroke-opacity:1; 
stroke-linecap:round; stroke-linejoin:round;">
</g>
<g style="fill:#000000; fill-opacity:1.0; 
stroke:#000000; stroke-width:0; stroke-opacity:1; 
stroke-linecap:round; stroke-linejoin:round;">
<circle cx="39950" cy="24700" r="393.701" /> 
</g>
<g style="fill:#000000; fill-opacity:1.0; 
stroke:#000000; stroke-width:39.3701; stroke-opacity:1; 
stroke-linecap:round; stroke-linejoin:round;">
</g>
<g style="fill:#000000; fill-opacity:1.0; 
stroke:#000000; stroke-width:0; stroke-opacity:1; 
stroke-linecap:round; stroke-linejoin:round;">
<circle cx="39900" cy="51450" r="393.701" /> 
</g>
<g style="fill:#000000; fill-opacity:1.0; 
stroke:#000000; stroke-width:39.3701; stroke-opacity:1; 
stroke-linecap:round; stroke-linejoin:round;">
</g>
<g style="fill:#000000; fill-opacity:1.0; 
stroke:#000000; stroke-width:0; stroke-opacity:1; 
stroke-linecap:round; stroke-linejoin:round;">
<circle cx="58300" cy="37750" r="295.276" /> 
</g>
<g style="fill:#000000; fill-opacity:1.0; 
stroke:#000000; stroke-width:39.3701; stroke-opacity:1; 
stroke-linecap:round; stroke-linejoin:round;">
</g>
<g style="fill:#000000; fill-opacity:1.0; 
stroke:#000000; stroke-width:0; stroke-opacity:1; 
stroke-linecap:round; stroke-linejoin:round;">
<circle cx="44400" cy="40150" r="393.701" /> 
</g>
<g style="fill:#000000; fill-opacity:1.0; 
stroke:#000000; stroke-width:39.3701; stroke-opacity:1; 
stroke-linecap:round; stroke-linejoin:round;">
</g>
<g style="fill:#000000; fill-opacity:1.0; 
stroke:#000000; stroke-width:0; stroke-opacity:1; 
stroke-linecap:round; stroke-linejoin:round;">
<circle cx="34150" cy="27450" r="393.701" /> 
</g>
<g style="fill:#000000; fill-opacity:1.0; 
stroke:#000000; stroke-width:39.3701; stroke-opacity:1; 
stroke-linecap:round; stroke-linejoin:round;">
</g>
<g style="fill:#000000; fill-opacity:1.0; 
stroke:#000000; stroke-width:0; stroke-opacity:1; 
stroke-linecap:round; stroke-linejoin:round;">
<circle cx="59500" cy="34600" r="295.276" /> 
</g>
<g style="fill:#000000; fill-opacity:1.0; 
stroke:#000000; stroke-width:39.3701; stroke-opacity:1; 
stroke-linecap:round; stroke-linejoin:round;">
</g>
<g style="fill:#000000; fill-opacity:1.0; 
stroke:#000000; stroke-width:137.795; stroke-opacity:1; 
stroke-linecap:round; stroke-linejoin:round;">
</g>
<g style="fill:#000000; fill-opacity:0.0; 
stroke:#000000; stroke-width:137.795; stroke-opacity:1; 
stroke-linecap:round; stroke-linejoin:round;">
<path d="M60900 29050
L60840 29050
" />
</g>
<g style="fill:#000000; fill-opacity:0.0; 
stroke:#000000; stroke-width:787.402; stroke-opacity:1; 
stroke-linecap:round; stroke-linejoin:round;">
<path d="M38600 16050
L38850 15800
" />
<path d="M38500 16050
L38600 16050
" />
<path d="M36300 15350
L36050 15350
" />
<path d="M36450 15500
L36300 15350
" />
<path d="M38850 15800
L38550 15500
" />
<path d="M38550 15500
L36450 15500
" />
<path d="M38850 26650
L38750 26750
" />
<path d="M38850 15800
L38850 26650
" />
<path d="M38750 26750
L38750 39850
" />
<path d="M38750 39850
L38700 39900
" />
<path d="M38700 39900
L38700 52750
" />
<path d="M36050 13850
L38550 13850
" />
<path d="M39900 50750
L39900 51450
" />
<path d="M39900 50750
L39900 51300
" />
<path d="M39600 13850
L39950 14200
" />
<path d="M38550 13850
L39600 13850
" />
<path d="M39950 14200
L39950 38300
" />
<path d="M39900 38350
L39900 50750
" />
<path d="M39950 38300
L39900 38350
" />
</g>
<g style="fill:#000000; fill-opacity:0.0; 
stroke:#000000; stroke-width:137.795; stroke-opacity:1; 
stroke-linecap:round; stroke-linejoin:round;">
<path d="M58300 21164
L58364 21100
" />
<path d="M58300 21114
L58314 21100
" />
<path d="M58300 37750
L58300 21114
" />
<path d="M34700 55350
L34549 55199
" />
<path d="M33946 27453
L33950 27450
" />
<path d="M34700 55350
L33946 54596
" />
<path d="M33946 54596
L33946 27453
" />
<path d="M34950 55600
L34700 55350
" />
<path d="M40975 55600
L34950 55600
" />
<path d="M44400 40150
L44400 52175
" />
<path d="M44400 52175
L40975 55600
" />
<path d="M59514 32185
L59514 21100
" />
<path d="M59500 34600
L59514 32185
" />
</g>
<g style="fill:#000000; fill-opacity:1.0; 
stroke:#000000; stroke-width:137.795; stroke-opacity:1; 
stroke-linecap:round; stroke-linejoin:round;">
<polyline style="fill-rule:evenodd;"
points="48386,13071
48413,13260
48477,20261
48449,20468
48366,20655
48231,20814
45369,23339
45362,23346
45219,23514
45209,23530
45117,23731
45112,23750
45080,23968
45080,23978
45032,39290
44995,39518
44942,39620
44829,39507
44550,39392
44249,39392
43970,39507
43757,39720
43642,39999
43642,40300
43757,40579
43966,40788
43966,51995
40795,55166
39212,55166
39155,55091
39084,54917
39060,54726
39069,53467
39129,53442
39342,53229
39457,52950
39457,40154
39463,40145
39507,39924
39507,39924
39522,39850
39507,39775
39507,39117
40813,39117
40868,39398
41027,39635
41265,39794
41326,39806
41265,39818
41027,39977
40868,40215
40813,40495
40868,40776
41027,41013
41265,41172
41474,41214
42325,41214
42534,41172
42772,41013
42931,40776
42986,40495
42931,40215
42772,39977
42534,39818
42473,39806
42534,39794
42772,39635
42931,39398
42986,39117
42931,38837
42772,38599
42534,38440
42325,38399
41474,38399
41265,38440
41027,38599
40868,38837
40813,39117
39507,39117
39507,37862
40958,37862
40979,37942
41100,38143
41288,38283
41516,38340
41870,38340
41870,37769
41929,37769
41929,38340
42283,38340
42511,38283
42699,38143
42820,37942
42841,37862
42792,37769
41929,37769
41870,37769
41007,37769
40958,37862
39507,37862
39507,37616
40958,37616
41007,37710
41870,37710
41870,37139
41929,37139
41929,37710
42792,37710
42841,37616
42820,37537
42699,37336
42511,37196
42283,37139
41929,37139
41870,37139
41516,37139
41288,37196
41100,37336
40979,37537
40958,37616
39507,37616
39507,32227
40813,32227
40868,32508
41027,32745
41265,32904
41326,32916
41265,32929
41027,33087
40868,33325
40813,33605
40868,33886
41027,34123
41265,34282
41326,34294
41265,34307
41027,34465
40868,34703
40813,34983
40868,35264
41027,35501
41265,35660
41326,35672
41265,35684
41027,35843
40868,36081
40813,36361
40868,36642
41027,36879
41265,37038
41474,37080
42325,37080
42534,37038
42772,36879
42931,36642
42986,36361
42931,36081
42772,35843
42534,35684
42473,35672
42534,35660
42772,35501
42931,35264
42986,34983
42931,34703
42772,34465
42534,34307
42473,34294
42534,34282
42772,34123
42931,33886
42986,33605
42931,33325
42772,33087
42534,32929
42473,32916
42534,32904
42772,32745
42931,32508
42986,32227
42931,31947
42772,31709
42557,31566
42689,31539
42842,31438
42944,31285
42979,31105
42979,30594
42944,30414
42842,30261
42689,30160
42510,30124
41289,30124
41110,30160
40957,30261
40855,30414
40820,30594
40820,31105
40855,31285
40957,31438
41110,31539
41242,31566
41027,31709
40868,31947
40813,32227
39507,32227
39507,27029
39563,26945
39607,26724
39607,26724
39622,26650
39607,26575
39607,16425
40364,16425
40364,17274
40689,18059
41290,18660
42075,18985
42924,18985
43709,18660
44310,18059
44635,17274
44635,16425
44310,15640
43709,15039
42924,14714
42075,14714
41290,15039
40689,15640
40364,16425
39607,16425
39607,15874
39622,15800
39563,15504
39460,15350
39396,15253
39333,15211
39138,15016
39096,14953
38845,14786
38624,14742
38624,14742
38550,14727
38475,14742
36943,14742
36922,14709
36795,14625
36792,14618
36763,14450
36807,14450
36898,14412
36967,14343
37004,14253
37004,13941
36943,13879
36745,13879
36744,13820
36943,13820
37004,13758
37004,13446
36967,13356
36898,13287
36807,13249
36737,13249
36756,13087
36798,12980
48344,12970
48386,13071
" /> 
<polyline style="fill-rule:evenodd;"
points="63141,13233
63141,67091
62866,67366
32758,67366
32483,67091
32483,58177
34913,58177
34968,58458
35127,58695
35365,58854
35426,58866
35365,58879
35127,59037
34968,59275
34913,59555
34968,59836
35127,60073
35365,60232
35426,60244
35365,60257
35127,60415
34968,60653
34913,60933
34968,61214
35127,61451
35365,61610
35426,61622
35365,61634
35127,61793
34968,62031
34913,62311
34968,62592
35127,62829
35365,62988
35426,63000
35365,63012
35127,63171
34968,63409
34913,63689
34968,63970
35127,64207
35365,64366
35426,64378
35365,64390
35127,64549
34968,64787
34913,65067
34968,65348
35127,65585
35365,65744
35426,65756
35365,65768
35127,65927
34968,66165
34913,66445
34968,66726
35127,66963
35365,67122
35574,67164
36425,67164
36634,67122
36872,66963
37031,66726
37086,66445
37031,66165
36872,65927
36634,65768
36573,65756
36634,65744
36872,65585
37031,65348
37086,65067
37031,64787
36872,64549
36634,64390
36573,64378
36634,64366
36872,64207
37031,63970
37086,63689
37031,63409
36872,63171
36634,63012
36573,63000
36634,62988
36872,62829
37031,62592
37086,62311
37031,62031
36872,61793
36634,61634
36573,61622
36634,61610
36872,61451
37031,61214
37086,60933
37031,60653
36872,60415
36634,60257
36573,60244
36634,60232
36872,60073
37031,59836
37086,59555
37031,59275
36872,59037
36634,58879
36573,58866
36634,58854
36872,58695
37031,58458
37086,58177
37031,57897
37016,57875
40339,57875
40339,58724
40664,59509
41265,60110
42050,60435
42899,60435
43684,60110
44285,59509
44610,58724
44610,57875
44600,57850
53564,57850
53564,58699
53889,59484
54490,60085
55275,60410
56124,60410
56909,60085
57510,59484
57835,58699
57835,57850
57510,57065
56909,56464
56124,56139
55275,56139
54490,56464
53889,57065
53564,57850
44600,57850
44285,57090
43684,56489
42899,56164
42050,56164
41265,56489
40664,57090
40339,57875
37016,57875
36872,57659
36657,57516
36789,57489
36942,57388
37044,57235
37079,57055
37079,56544
37044,56364
36942,56211
36789,56110
36610,56074
35389,56074
35210,56110
35057,56211
34955,56364
34920,56544
34920,57055
34955,57235
35057,57388
35210,57489
35342,57516
35127,57659
34968,57897
34913,58177
32483,58177
32483,26190
35108,26190
35129,26270
35250,26471
35438,26611
35666,26668
36020,26668
36020,26097
36079,26097
36079,26668
36433,26668
36661,26611
36849,26471
36970,26270
36991,26190
36942,26097
36079,26097
36020,26097
35157,26097
35108,26190
32483,26190
32483,25944
35108,25944
35157,26038
36020,26038
36020,25467
36079,25467
36079,26038
36942,26038
36991,25944
36970,25865
36849,25664
36661,25524
36433,25467
36079,25467
36020,25467
35666,25467
35438,25524
35250,25664
35129,25865
35108,25944
32483,25944
32483,19177
34963,19177
35018,19458
35177,19695
35415,19854
35476,19866
35415,19879
35177,20037
35018,20275
34963,20555
35018,20836
35177,21073
35415,21232
35476,21244
35415,21257
35177,21415
35018,21653
34963,21933
35018,22214
35177,22451
35415,22610
35476,22622
35415,22634
35177,22793
35018,23031
34963,23311
35018,23592
35177,23829
35415,23988
35476,24000
35415,24012
35177,24171
35018,24409
34963,24689
35018,24970
35177,25207
35415,25366
35624,25408
36475,25408
36684,25366
36922,25207
37081,24970
37136,24689
37081,24409
36922,24171
36684,24012
36623,24000
36684,23988
36922,23829
37081,23592
37136,23311
37081,23031
36922,22793
36684,22634
36623,22622
36684,22610
36922,22451
37081,22214
37136,21933
37081,21653
36922,21415
36684,21257
36623,21244
36684,21232
36922,21073
37081,20836
37136,20555
37081,20275
36922,20037
36684,19879
36623,19866
36684,19854
36922,19695
37081,19458
37136,19177
37081,18897
36922,18659
36707,18516
36839,18489
36992,18388
37094,18235
37129,18055
37129,17544
37094,17364
36992,17211
36839,17110
36660,17074
35439,17074
35260,17110
35107,17211
35005,17364
34970,17544
34970,18055
35005,18235
35107,18388
35260,18489
35392,18516
35177,18659
35018,18897
34963,19177
32483,19177
32483,15350
35108,15350
35129,15430
35250,15631
35438,15771
35666,15828
36020,15828
36020,15257
35157,15257
35108,15350
32483,15350
32483,15104
35108,15104
35157,15198
36020,15198
36020,14627
35666,14627
35438,14684
35250,14824
35129,15025
35108,15104
32483,15104
32483,13258
32759,12983
36338,12980
36326,13029
36319,13092
35975,13092
35813,13124
35439,13124
35260,13160
35107,13261
35005,13414
34970,13594
34970,14105
35005,14285
35107,14438
35260,14539
35439,14575
35813,14575
35975,14607
36351,14607
36354,14627
36079,14627
36079,15198
36087,15198
36087,15257
36079,15257
36079,15828
36433,15828
36661,15771
36849,15631
36970,15430
36973,15420
37037,15454
37140,15491
37373,15536
37428,15542
38470,15583
38624,15613
38737,15674
38825,15767
38882,15883
38905,16038
38627,54727
38629,54775
38655,54980
38679,55072
38717,55166
35129,55166
35036,55073
35036,55073
34379,54416
34379,54195
34963,54195
35018,54476
35177,54713
35415,54872
35624,54914
36475,54914
36684,54872
36922,54713
37081,54476
37136,54195
37081,53915
36922,53677
36684,53518
36475,53477
35624,53477
35415,53518
35177,53677
35018,53915
34963,54195
34379,54195
34379,52940
35108,52940
35129,53020
35250,53221
35438,53361
35666,53418
36020,53418
36020,52847
36079,52847
36079,53418
36433,53418
36661,53361
36849,53221
36970,53020
36991,52940
36942,52847
36079,52847
36020,52847
35157,52847
35108,52940
34379,52940
34379,52694
35108,52694
35157,52788
36020,52788
36020,52217
36079,52217
36079,52788
36942,52788
36991,52694
36970,52615
36849,52414
36661,52274
36433,52217
36079,52217
36020,52217
35666,52217
35438,52274
35250,52414
35129,52615
35108,52694
34379,52694
34379,45927
34963,45927
35018,46208
35177,46445
35415,46604
35476,46616
35415,46629
35177,46787
35018,47025
34963,47305
35018,47586
35177,47823
35415,47982
35476,47994
35415,48007
35177,48165
35018,48403
34963,48683
35018,48964
35177,49201
35415,49360
35476,49372
35415,49384
35177,49543
35018,49781
34963,50061
35018,50342
35177,50579
35415,50738
35476,50750
35415,50762
35177,50921
35018,51159
34963,51439
35018,51720
35177,51957
35415,52116
35624,52158
36475,52158
36684,52116
36922,51957
37081,51720
37136,51439
37081,51159
36922,50921
36684,50762
36623,50750
36684,50738
36922,50579
37081,50342
37136,50061
37081,49781
36922,49543
36684,49384
36623,49372
36684,49360
36922,49201
37081,48964
37136,48683
37081,48403
36922,48165
36684,48007
36623,47994
36684,47982
36922,47823
37081,47586
37136,47305
37081,47025
36922,46787
36684,46629
36623,46616
36684,46604
36922,46445
37081,46208
37136,45927
37081,45647
36922,45409
36707,45266
36839,45239
36992,45138
37094,44985
37129,44805
37129,44294
37094,44114
36992,43961
36839,43860
36660,43824
35439,43824
35260,43860
35107,43961
35005,44114
34970,44294
34970,44805
35005,44985
35107,45138
35260,45239
35392,45266
35177,45409
35018,45647
34963,45927
34379,45927
34379,40515
34963,40515
35018,40796
35177,41033
35415,41192
35624,41234
36475,41234
36684,41192
36922,41033
37081,40796
37136,40515
37081,40235
36922,39997
36684,39839
36475,39797
35624,39797
35415,39839
35177,39997
35018,40235
34963,40515
34379,40515
34379,39260
35108,39260
35129,39340
35250,39541
35438,39681
35666,39738
36020,39738
36020,39167
36079,39167
36079,39738
36433,39738
36661,39681
36849,39541
36970,39340
36991,39260
36942,39167
36079,39167
36020,39167
35157,39167
35108,39260
34379,39260
34379,39014
35108,39014
35157,39108
36020,39108
36020,38537
36079,38537
36079,39108
36942,39108
36991,39014
36970,38935
36849,38734
36661,38594
36433,38537
36079,38537
36020,38537
35666,38537
35438,38594
35250,38734
35129,38935
35108,39014
34379,39014
34379,32248
34963,32248
35018,32528
35177,32766
35415,32924
35476,32937
35415,32949
35177,33108
35018,33345
34963,33626
35018,33906
35177,34144
35415,34302
35476,34315
35415,34327
35177,34486
35018,34723
34963,35004
35018,35284
35177,35522
35415,35680
35476,35693
35415,35705
35177,35863
35018,36101
34963,36381
35018,36662
35177,36900
35415,37058
35476,37070
35415,37083
35177,37241
35018,37479
34963,37759
35018,38040
35177,38277
35415,38436
35624,38478
36475,38478
36684,38436
36922,38277
37081,38040
37136,37759
37081,37479
36922,37241
36684,37083
36623,37070
36684,37058
36922,36900
37081,36662
37136,36381
37081,36101
36922,35863
36684,35705
36623,35693
36684,35680
36922,35522
37081,35284
37136,35004
37081,34723
36922,34486
36684,34327
36623,34315
36684,34302
36922,34144
37081,33906
37136,33626
37081,33345
36922,33108
36684,32949
36623,32937
36684,32924
36922,32766
37081,32528
37136,32248
37081,31967
36922,31730
36707,31586
36839,31560
36992,31458
37094,31305
37129,31126
37129,30614
37094,30434
36992,30282
36839,30180
36660,30144
35439,30144
35260,30180
35107,30282
35005,30434
34970,30614
34970,31126
35005,31305
35107,31458
35260,31560
35392,31586
35177,31730
35018,31967
34963,32248
34379,32248
34379,28175
34579,28092
34792,27879
34907,27600
34907,27445
34963,27445
35018,27726
35177,27963
35415,28122
35624,28164
36475,28164
36684,28122
36922,27963
37081,27726
37136,27445
37081,27165
36922,26927
36684,26768
36475,26727
35624,26727
35415,26768
35177,26927
35018,27165
34963,27445
34907,27445
34907,27299
34792,27020
34579,26807
34300,26692
33999,26692
33720,26807
33507,27020
33392,27299
33392,27600
33507,27879
33512,27884
33512,54553
33504,54596
33512,54638
33538,54765
33633,54908
33670,54932
34423,55686
34423,55686
34613,55876
34637,55912
34781,56007
34907,56033
34950,56041
34992,56033
40932,56033
40975,56041
41017,56033
41143,56007
41287,55912
41311,55876
44676,52511
44712,52487
44807,52343
44833,52217
44841,52175
44833,52132
44833,40788
45042,40579
45157,40300
45157,40065
45203,40020
45271,39927
45385,39707
45421,39599
45460,39354
45465,39297
45500,28050
54122,28050
54176,28324
54327,28550
54176,28775
54122,29050
54176,29324
54327,29550
54176,29775
54122,30050
54176,30324
54327,30550
54176,30775
54122,31050
54176,31324
54327,31550
54176,31775
54122,32050
54176,32324
54327,32550
54176,32775
54122,33050
54176,33324
54327,33550
54176,33775
54122,34050
54176,34324
54327,34550
54176,34775
54122,35050
54176,35324
54327,35550
54176,35775
54122,36050
54176,36324
54327,36550
54176,36775
54122,37050
54176,37324
54327,37550
54176,37775
54122,38050
54176,38324
54327,38550
54176,38775
54122,39050
54176,39324
54327,39550
54176,39775
54122,40050
54176,40324
54327,40550
54176,40775
54122,41050
54176,41324
54327,41550
54176,41775
54122,42050
54176,42324
54332,42557
54565,42713
54770,42754
55029,42754
55234,42713
55467,42557
55623,42324
55677,42050
55623,41775
55472,41550
55623,41324
55677,41050
55623,40775
55472,40550
55623,40324
55677,40050
55623,39775
55472,39550
55623,39324
55677,39050
55623,38775
55472,38550
55623,38324
55677,38050
55623,37775
55518,37618
57640,37618
57640,37881
57740,38123
57926,38309
58168,38409
58431,38409
58673,38309
58859,38123
58959,37881
58959,37618
58859,37376
58733,37250
58733,21742
58828,21678
58900,21571
58971,21678
59081,21751
59081,32184
59069,34097
58940,34226
58840,34468
58840,34731
58940,34973
59126,35159
59368,35259
59631,35259
59873,35159
60059,34973
60159,34731
60159,34468
60059,34226
59936,34103
59947,32229
59947,32228
59947,32186
59947,32145
59947,32144
59947,28050
60122,28050
60176,28324
60327,28550
60176,28775
60122,29050
60176,29324
60327,29550
60176,29775
60122,30050
60176,30324
60327,30550
60176,30775
60122,31050
60176,31324
60327,31550
60176,31775
60122,32050
60176,32324
60327,32550
60176,32775
60122,33050
60176,33324
60327,33550
60176,33775
60122,34050
60176,34324
60327,34550
60176,34775
60122,35050
60176,35324
60327,35550
60176,35775
60122,36050
60176,36324
60327,36550
60176,36775
60122,37050
60176,37324
60327,37550
60176,37775
60122,38050
60176,38324
60327,38550
60176,38775
60122,39050
60176,39324
60327,39550
60176,39775
60122,40050
60176,40324
60327,40550
60176,40775
60122,41050
60176,41324
60327,41550
60176,41775
60122,42050
60176,42324
60332,42557
60565,42713
60770,42754
61029,42754
61234,42713
61467,42557
61623,42324
61677,42050
61623,41775
61472,41550
61623,41324
61677,41050
61623,40775
61472,40550
61623,40324
61677,40050
61623,39775
61472,39550
61623,39324
61677,39050
61623,38775
61472,38550
61623,38324
61677,38050
61623,37775
61472,37550
61623,37324
61677,37050
61623,36775
61472,36550
61623,36324
61677,36050
61623,35775
61472,35550
61623,35324
61677,35050
61623,34775
61472,34550
61623,34324
61677,34050
61623,33775
61472,33550
61623,33324
61677,33050
61623,32775
61472,32550
61623,32324
61677,32050
61623,31775
61472,31550
61623,31324
61677,31050
61623,30775
61472,30550
61623,30324
61677,30050
61623,29775
61472,29550
61623,29324
61677,29050
61623,28775
61472,28550
61623,28324
61677,28050
61623,27775
61467,27542
61234,27386
61029,27345
60770,27345
60565,27386
60332,27542
60176,27775
60122,28050
59947,28050
59947,21713
59999,21678
60101,21525
60137,21346
60137,20853
60101,20674
59999,20521
59847,20419
59667,20384
59303,20384
59123,20419
58971,20521
58900,20628
58828,20521
58676,20419
58496,20384
58132,20384
57952,20419
57800,20521
57698,20674
57662,20853
57662,21346
57698,21525
57800,21678
57866,21722
57866,37250
57740,37376
57640,37618
55518,37618
55472,37550
55623,37324
55677,37050
55623,36775
55472,36550
55623,36324
55677,36050
55623,35775
55472,35550
55623,35324
55677,35050
55623,34775
55472,34550
55623,34324
55677,34050
55623,33775
55472,33550
55623,33324
55677,33050
55623,32775
55472,32550
55623,32324
55677,32050
55623,31775
55472,31550
55623,31324
55677,31050
55623,30775
55472,30550
55623,30324
55677,30050
55623,29775
55472,29550
55623,29324
55677,29050
55623,28775
55472,28550
55623,28324
55677,28050
55623,27775
55467,27542
55234,27386
55029,27345
54770,27345
54565,27386
54332,27542
54176,27775
54122,28050
45500,28050
45512,24005
45533,23863
45582,23756
45675,23646
48521,21136
48557,21098
48702,20928
48758,20840
48849,20635
48877,20536
48907,20313
48910,20261
48875,16425
53589,16425
53589,17274
53914,18059
54515,18660
55300,18985
56149,18985
56934,18660
57535,18059
57860,17274
57860,16425
57535,15640
56934,15039
56149,14714
55300,14714
54515,15039
53914,15640
53589,16425
48875,16425
48846,13251
48842,13204
48814,13002
48805,12970
62866,12958
63141,13233
" /> 
</g>
<g style="fill:#FFFFFF; fill-opacity:1.0; 
stroke:#FFFFFF; stroke-width:137.795; stroke-opacity:1; 
stroke-linecap:round; stroke-linejoin:round;">
</g>
<g style="fill:#FFFFFF; fill-opacity:1.0; 
stroke:#FFFFFF; stroke-width:0; stroke-opacity:1; 
stroke-linecap:round; stroke-linejoin:round;">
<circle cx="38850" cy="26050" r="196.85" /> 
</g>
<g style="fill:#FFFFFF; fill-opacity:1.0; 
stroke:#FFFFFF; stroke-width:39.3701; stroke-opacity:1; 
stroke-linecap:round; stroke-linejoin:round;">
</g>
<g style="fill:#FFFFFF; fill-opacity:1.0; 
stroke:#FFFFFF; stroke-width:0; stroke-opacity:1; 
stroke-linecap:round; stroke-linejoin:round;">
<circle cx="38700" cy="39150" r="196.85" /> 
</g>
<g style="fill:#FFFFFF; fill-opacity:1.0; 
stroke:#FFFFFF; stroke-width:39.3701; stroke-opacity:1; 
stroke-linecap:round; stroke-linejoin:round;">
</g>
<g style="fill:#FFFFFF; fill-opacity:1.0; 
stroke:#FFFFFF; stroke-width:0; stroke-opacity:1; 
stroke-linecap:round; stroke-linejoin:round;">
<circle cx="38700" cy="52800" r="196.85" /> 
</g>
<g style="fill:#FFFFFF; fill-opacity:1.0; 
stroke:#FFFFFF; stroke-width:39.3701; stroke-opacity:1; 
stroke-linecap:round; stroke-linejoin:round;">
</g>
<g style="fill:#FFFFFF; fill-opacity:1.0; 
stroke:#FFFFFF; stroke-width:0; stroke-opacity:1; 
stroke-linecap:round; stroke-linejoin:round;">
<circle cx="38500" cy="16050" r="196.85" /> 
</g>
<g style="fill:#FFFFFF; fill-opacity:1.0; 
stroke:#FFFFFF; stroke-width:39.3701; stroke-opacity:1; 
stroke-linecap:round; stroke-linejoin:round;">
</g>
<g style="fill:#FFFFFF; fill-opacity:1.0; 
stroke:#FFFFFF; stroke-width:0; stroke-opacity:1; 
stroke-linecap:round; stroke-linejoin:round;">
<circle cx="39900" cy="37800" r="196.85" /> 
</g>
<g style="fill:#FFFFFF; fill-opacity:1.0; 
stroke:#FFFFFF; stroke-width:39.3701; stroke-opacity:1; 
stroke-linecap:round; stroke-linejoin:round;">
</g>
<g style="fill:#FFFFFF; fill-opacity:1.0; 
stroke:#FFFFFF; stroke-width:0; stroke-opacity:1; 
stroke-linecap:round; stroke-linejoin:round;">
<circle cx="38550" cy="13850" r="196.85" /> 
</g>
<g style="fill:#FFFFFF; fill-opacity:1.0; 
stroke:#FFFFFF; stroke-width:39.3701; stroke-opacity:1; 
stroke-linecap:round; stroke-linejoin:round;">
</g>
<g style="fill:#FFFFFF; fill-opacity:1.0; 
stroke:#FFFFFF; stroke-width:0; stroke-opacity:1; 
stroke-linecap:round; stroke-linejoin:round;">
<circle cx="39950" cy="24700" r="196.85" /> 
</g>
<g style="fill:#FFFFFF; fill-opacity:1.0; 
stroke:#FFFFFF; stroke-width:39.3701; stroke-opacity:1; 
stroke-linecap:round; stroke-linejoin:round;">
</g>
<g style="fill:#FFFFFF; fill-opacity:1.0; 
stroke:#FFFFFF; stroke-width:0; stroke-opacity:1; 
stroke-linecap:round; stroke-linejoin:round;">
<circle cx="39900" cy="51450" r="196.85" /> 
</g>
<g style="fill:#FFFFFF; fill-opacity:1.0; 
stroke:#FFFFFF; stroke-width:39.3701; stroke-opacity:1; 
stroke-linecap:round; stroke-linejoin:round;">
</g>
<g style="fill:#FFFFFF; fill-opacity:1.0; 
stroke:#FFFFFF; stroke-width:0; stroke-opacity:1; 
stroke-linecap:round; stroke-linejoin:round;">
<circle cx="58300" cy="37750" r="196.85" /> 
</g>
<g style="fill:#FFFFFF; fill-opacity:1.0; 
stroke:#FFFFFF; stroke-width:39.3701; stroke-opacity:1; 
stroke-linecap:round; stroke-linejoin:round;">
</g>
<g style="fill:#FFFFFF; fill-opacity:1.0; 
stroke:#FFFFFF; stroke-width:0; stroke-opacity:1; 
stroke-linecap:round; stroke-linejoin:round;">
<circle cx="44400" cy="40150" r="196.85" /> 
</g>
<g style="fill:#FFFFFF; fill-opacity:1.0; 
stroke:#FFFFFF; stroke-width:39.3701; stroke-opacity:1; 
stroke-linecap:round; stroke-linejoin:round;">
</g>
<g style="fill:#FFFFFF; fill-opacity:1.0; 
stroke:#FFFFFF; stroke-width:0; stroke-opacity:1; 
stroke-linecap:round; stroke-linejoin:round;">
<circle cx="34150" cy="27450" r="196.85" /> 
</g>
<g style="fill:#FFFFFF; fill-opacity:1.0; 
stroke:#FFFFFF; stroke-width:39.3701; stroke-opacity:1; 
stroke-linecap:round; stroke-linejoin:round;">
</g>
<g style="fill:#FFFFFF; fill-opacity:1.0; 
stroke:#FFFFFF; stroke-width:0; stroke-opacity:1; 
stroke-linecap:round; stroke-linejoin:round;">
<circle cx="59500" cy="34600" r="196.85" /> 
</g>
<g style="fill:#FFFFFF; fill-opacity:1.0; 
stroke:#FFFFFF; stroke-width:39.3701; stroke-opacity:1; 
stroke-linecap:round; stroke-linejoin:round;">
</g>
<g style="fill:#FFFFFF; fill-opacity:1.0; 
stroke:#FFFFFF; stroke-width:0; stroke-opacity:1; 
stroke-linecap:round; stroke-linejoin:round;">
<circle cx="36000" cy="66445.7" r="236.22" /> 
</g>
<g style="fill:#FFFFFF; fill-opacity:1.0; 
stroke:#FFFFFF; stroke-width:39.3701; stroke-opacity:1; 
stroke-linecap:round; stroke-linejoin:round;">
</g>
<g style="fill:#FFFFFF; fill-opacity:1.0; 
stroke:#FFFFFF; stroke-width:0; stroke-opacity:1; 
stroke-linecap:round; stroke-linejoin:round;">
<circle cx="36000" cy="65067.7" r="236.22" /> 
</g>
<g style="fill:#FFFFFF; fill-opacity:1.0; 
stroke:#FFFFFF; stroke-width:39.3701; stroke-opacity:1; 
stroke-linecap:round; stroke-linejoin:round;">
</g>
<g style="fill:#FFFFFF; fill-opacity:1.0; 
stroke:#FFFFFF; stroke-width:0; stroke-opacity:1; 
stroke-linecap:round; stroke-linejoin:round;">
<circle cx="36000" cy="63689.8" r="236.22" /> 
</g>
<g style="fill:#FFFFFF; fill-opacity:1.0; 
stroke:#FFFFFF; stroke-width:39.3701; stroke-opacity:1; 
stroke-linecap:round; stroke-linejoin:round;">
</g>
<g style="fill:#FFFFFF; fill-opacity:1.0; 
stroke:#FFFFFF; stroke-width:0; stroke-opacity:1; 
stroke-linecap:round; stroke-linejoin:round;">
<circle cx="36000" cy="62311.8" r="236.22" /> 
</g>
<g style="fill:#FFFFFF; fill-opacity:1.0; 
stroke:#FFFFFF; stroke-width:39.3701; stroke-opacity:1; 
stroke-linecap:round; stroke-linejoin:round;">
</g>
<g style="fill:#FFFFFF; fill-opacity:1.0; 
stroke:#FFFFFF; stroke-width:0; stroke-opacity:1; 
stroke-linecap:round; stroke-linejoin:round;">
<circle cx="36000" cy="60933.9" r="236.22" /> 
</g>
<g style="fill:#FFFFFF; fill-opacity:1.0; 
stroke:#FFFFFF; stroke-width:39.3701; stroke-opacity:1; 
stroke-linecap:round; stroke-linejoin:round;">
</g>
<g style="fill:#FFFFFF; fill-opacity:1.0; 
stroke:#FFFFFF; stroke-width:0; stroke-opacity:1; 
stroke-linecap:round; stroke-linejoin:round;">
<circle cx="36000" cy="59555.9" r="236.22" /> 
</g>
<g style="fill:#FFFFFF; fill-opacity:1.0; 
stroke:#FFFFFF; stroke-width:39.3701; stroke-opacity:1; 
stroke-linecap:round; stroke-linejoin:round;">
</g>
<g style="fill:#FFFFFF; fill-opacity:1.0; 
stroke:#FFFFFF; stroke-width:0; stroke-opacity:1; 
stroke-linecap:round; stroke-linejoin:round;">
<circle cx="36000" cy="58178" r="236.22" /> 
</g>
<g style="fill:#FFFFFF; fill-opacity:1.0; 
stroke:#FFFFFF; stroke-width:39.3701; stroke-opacity:1; 
stroke-linecap:round; stroke-linejoin:round;">
</g>
<g style="fill:#FFFFFF; fill-opacity:1.0; 
stroke:#FFFFFF; stroke-width:0; stroke-opacity:1; 
stroke-linecap:round; stroke-linejoin:round;">
<circle cx="36000" cy="56800" r="236.22" /> 
</g>
<g style="fill:#FFFFFF; fill-opacity:1.0; 
stroke:#FFFFFF; stroke-width:39.3701; stroke-opacity:1; 
stroke-linecap:round; stroke-linejoin:round;">
</g>
<g style="fill:#FFFFFF; fill-opacity:1.0; 
stroke:#FFFFFF; stroke-width:0; stroke-opacity:1; 
stroke-linecap:round; stroke-linejoin:round;">
<circle cx="36050" cy="54195.7" r="236.22" /> 
</g>
<g style="fill:#FFFFFF; fill-opacity:1.0; 
stroke:#FFFFFF; stroke-width:39.3701; stroke-opacity:1; 
stroke-linecap:round; stroke-linejoin:round;">
</g>
<g style="fill:#FFFFFF; fill-opacity:1.0; 
stroke:#FFFFFF; stroke-width:0; stroke-opacity:1; 
stroke-linecap:round; stroke-linejoin:round;">
<circle cx="36050" cy="52817.7" r="236.22" /> 
</g>
<g style="fill:#FFFFFF; fill-opacity:1.0; 
stroke:#FFFFFF; stroke-width:39.3701; stroke-opacity:1; 
stroke-linecap:round; stroke-linejoin:round;">
</g>
<g style="fill:#FFFFFF; fill-opacity:1.0; 
stroke:#FFFFFF; stroke-width:0; stroke-opacity:1; 
stroke-linecap:round; stroke-linejoin:round;">
<circle cx="36050" cy="51439.8" r="236.22" /> 
</g>
<g style="fill:#FFFFFF; fill-opacity:1.0; 
stroke:#FFFFFF; stroke-width:39.3701; stroke-opacity:1; 
stroke-linecap:round; stroke-linejoin:round;">
</g>
<g style="fill:#FFFFFF; fill-opacity:1.0; 
stroke:#FFFFFF; stroke-width:0; stroke-opacity:1; 
stroke-linecap:round; stroke-linejoin:round;">
<circle cx="36050" cy="50061.8" r="236.22" /> 
</g>
<g style="fill:#FFFFFF; fill-opacity:1.0; 
stroke:#FFFFFF; stroke-width:39.3701; stroke-opacity:1; 
stroke-linecap:round; stroke-linejoin:round;">
</g>
<g style="fill:#FFFFFF; fill-opacity:1.0; 
stroke:#FFFFFF; stroke-width:0; stroke-opacity:1; 
stroke-linecap:round; stroke-linejoin:round;">
<circle cx="36050" cy="48683.9" r="236.22" /> 
</g>
<g style="fill:#FFFFFF; fill-opacity:1.0; 
stroke:#FFFFFF; stroke-width:39.3701; stroke-opacity:1; 
stroke-linecap:round; stroke-linejoin:round;">
</g>
<g style="fill:#FFFFFF; fill-opacity:1.0; 
stroke:#FFFFFF; stroke-width:0; stroke-opacity:1; 
stroke-linecap:round; stroke-linejoin:round;">
<circle cx="36050" cy="47305.9" r="236.22" /> 
</g>
<g style="fill:#FFFFFF; fill-opacity:1.0; 
stroke:#FFFFFF; stroke-width:39.3701; stroke-opacity:1; 
stroke-linecap:round; stroke-linejoin:round;">
</g>
<g style="fill:#FFFFFF; fill-opacity:1.0; 
stroke:#FFFFFF; stroke-width:0; stroke-opacity:1; 
stroke-linecap:round; stroke-linejoin:round;">
<circle cx="36050" cy="45928" r="236.22" /> 
</g>
<g style="fill:#FFFFFF; fill-opacity:1.0; 
stroke:#FFFFFF; stroke-width:39.3701; stroke-opacity:1; 
stroke-linecap:round; stroke-linejoin:round;">
</g>
<g style="fill:#FFFFFF; fill-opacity:1.0; 
stroke:#FFFFFF; stroke-width:0; stroke-opacity:1; 
stroke-linecap:round; stroke-linejoin:round;">
<circle cx="36050" cy="44550" r="236.22" /> 
</g>
<g style="fill:#FFFFFF; fill-opacity:1.0; 
stroke:#FFFFFF; stroke-width:39.3701; stroke-opacity:1; 
stroke-linecap:round; stroke-linejoin:round;">
</g>
<g style="fill:#FFFFFF; fill-opacity:1.0; 
stroke:#FFFFFF; stroke-width:0; stroke-opacity:1; 
stroke-linecap:round; stroke-linejoin:round;">
<circle cx="36050" cy="15228" r="236.22" /> 
</g>
<g style="fill:#FFFFFF; fill-opacity:1.0; 
stroke:#FFFFFF; stroke-width:39.3701; stroke-opacity:1; 
stroke-linecap:round; stroke-linejoin:round;">
</g>
<g style="fill:#FFFFFF; fill-opacity:1.0; 
stroke:#FFFFFF; stroke-width:0; stroke-opacity:1; 
stroke-linecap:round; stroke-linejoin:round;">
<circle cx="36050" cy="13850" r="236.22" /> 
</g>
<g style="fill:#FFFFFF; fill-opacity:1.0; 
stroke:#FFFFFF; stroke-width:39.3701; stroke-opacity:1; 
stroke-linecap:round; stroke-linejoin:round;">
</g>
<g style="fill:#FFFFFF; fill-opacity:1.0; 
stroke:#FFFFFF; stroke-width:0; stroke-opacity:1; 
stroke-linecap:round; stroke-linejoin:round;">
<circle cx="41900" cy="40495.7" r="236.22" /> 
</g>
<g style="fill:#FFFFFF; fill-opacity:1.0; 
stroke:#FFFFFF; stroke-width:39.3701; stroke-opacity:1; 
stroke-linecap:round; stroke-linejoin:round;">
</g>
<g style="fill:#FFFFFF; fill-opacity:1.0; 
stroke:#FFFFFF; stroke-width:0; stroke-opacity:1; 
stroke-linecap:round; stroke-linejoin:round;">
<circle cx="41900" cy="39117.7" r="236.22" /> 
</g>
<g style="fill:#FFFFFF; fill-opacity:1.0; 
stroke:#FFFFFF; stroke-width:39.3701; stroke-opacity:1; 
stroke-linecap:round; stroke-linejoin:round;">
</g>
<g style="fill:#FFFFFF; fill-opacity:1.0; 
stroke:#FFFFFF; stroke-width:0; stroke-opacity:1; 
stroke-linecap:round; stroke-linejoin:round;">
<circle cx="41900" cy="37739.8" r="236.22" /> 
</g>
<g style="fill:#FFFFFF; fill-opacity:1.0; 
stroke:#FFFFFF; stroke-width:39.3701; stroke-opacity:1; 
stroke-linecap:round; stroke-linejoin:round;">
</g>
<g style="fill:#FFFFFF; fill-opacity:1.0; 
stroke:#FFFFFF; stroke-width:0; stroke-opacity:1; 
stroke-linecap:round; stroke-linejoin:round;">
<circle cx="41900" cy="36361.8" r="236.22" /> 
</g>
<g style="fill:#FFFFFF; fill-opacity:1.0; 
stroke:#FFFFFF; stroke-width:39.3701; stroke-opacity:1; 
stroke-linecap:round; stroke-linejoin:round;">
</g>
<g style="fill:#FFFFFF; fill-opacity:1.0; 
stroke:#FFFFFF; stroke-width:0; stroke-opacity:1; 
stroke-linecap:round; stroke-linejoin:round;">
<circle cx="41900" cy="34983.9" r="236.22" /> 
</g>
<g style="fill:#FFFFFF; fill-opacity:1.0; 
stroke:#FFFFFF; stroke-width:39.3701; stroke-opacity:1; 
stroke-linecap:round; stroke-linejoin:round;">
</g>
<g style="fill:#FFFFFF; fill-opacity:1.0; 
stroke:#FFFFFF; stroke-width:0; stroke-opacity:1; 
stroke-linecap:round; stroke-linejoin:round;">
<circle cx="41900" cy="33605.9" r="236.22" /> 
</g>
<g style="fill:#FFFFFF; fill-opacity:1.0; 
stroke:#FFFFFF; stroke-width:39.3701; stroke-opacity:1; 
stroke-linecap:round; stroke-linejoin:round;">
</g>
<g style="fill:#FFFFFF; fill-opacity:1.0; 
stroke:#FFFFFF; stroke-width:0; stroke-opacity:1; 
stroke-linecap:round; stroke-linejoin:round;">
<circle cx="41900" cy="32228" r="236.22" /> 
</g>
<g style="fill:#FFFFFF; fill-opacity:1.0; 
stroke:#FFFFFF; stroke-width:39.3701; stroke-opacity:1; 
stroke-linecap:round; stroke-linejoin:round;">
</g>
<g style="fill:#FFFFFF; fill-opacity:1.0; 
stroke:#FFFFFF; stroke-width:0; stroke-opacity:1; 
stroke-linecap:round; stroke-linejoin:round;">
<circle cx="41900" cy="30850" r="236.22" /> 
</g>
<g style="fill:#FFFFFF; fill-opacity:1.0; 
stroke:#FFFFFF; stroke-width:39.3701; stroke-opacity:1; 
stroke-linecap:round; stroke-linejoin:round;">
</g>
<g style="fill:#FFFFFF; fill-opacity:1.0; 
stroke:#FFFFFF; stroke-width:0; stroke-opacity:1; 
stroke-linecap:round; stroke-linejoin:round;">
<circle cx="36050" cy="40515.9" r="236.22" /> 
</g>
<g style="fill:#FFFFFF; fill-opacity:1.0; 
stroke:#FFFFFF; stroke-width:39.3701; stroke-opacity:1; 
stroke-linecap:round; stroke-linejoin:round;">
</g>
<g style="fill:#FFFFFF; fill-opacity:1.0; 
stroke:#FFFFFF; stroke-width:0; stroke-opacity:1; 
stroke-linecap:round; stroke-linejoin:round;">
<circle cx="36050" cy="39137.9" r="236.22" /> 
</g>
<g style="fill:#FFFFFF; fill-opacity:1.0; 
stroke:#FFFFFF; stroke-width:39.3701; stroke-opacity:1; 
stroke-linecap:round; stroke-linejoin:round;">
</g>
<g style="fill:#FFFFFF; fill-opacity:1.0; 
stroke:#FFFFFF; stroke-width:0; stroke-opacity:1; 
stroke-linecap:round; stroke-linejoin:round;">
<circle cx="36050" cy="37760" r="236.22" /> 
</g>
<g style="fill:#FFFFFF; fill-opacity:1.0; 
stroke:#FFFFFF; stroke-width:39.3701; stroke-opacity:1; 
stroke-linecap:round; stroke-linejoin:round;">
</g>
<g style="fill:#FFFFFF; fill-opacity:1.0; 
stroke:#FFFFFF; stroke-width:0; stroke-opacity:1; 
stroke-linecap:round; stroke-linejoin:round;">
<circle cx="36050" cy="36382" r="236.22" /> 
</g>
<g style="fill:#FFFFFF; fill-opacity:1.0; 
stroke:#FFFFFF; stroke-width:39.3701; stroke-opacity:1; 
stroke-linecap:round; stroke-linejoin:round;">
</g>
<g style="fill:#FFFFFF; fill-opacity:1.0; 
stroke:#FFFFFF; stroke-width:0; stroke-opacity:1; 
stroke-linecap:round; stroke-linejoin:round;">
<circle cx="36050" cy="35004" r="236.22" /> 
</g>
<g style="fill:#FFFFFF; fill-opacity:1.0; 
stroke:#FFFFFF; stroke-width:39.3701; stroke-opacity:1; 
stroke-linecap:round; stroke-linejoin:round;">
</g>
<g style="fill:#FFFFFF; fill-opacity:1.0; 
stroke:#FFFFFF; stroke-width:0; stroke-opacity:1; 
stroke-linecap:round; stroke-linejoin:round;">
<circle cx="36050" cy="33626.1" r="236.22" /> 
</g>
<g style="fill:#FFFFFF; fill-opacity:1.0; 
stroke:#FFFFFF; stroke-width:39.3701; stroke-opacity:1; 
stroke-linecap:round; stroke-linejoin:round;">
</g>
<g style="fill:#FFFFFF; fill-opacity:1.0; 
stroke:#FFFFFF; stroke-width:0; stroke-opacity:1; 
stroke-linecap:round; stroke-linejoin:round;">
<circle cx="36050" cy="32248.1" r="236.22" /> 
</g>
<g style="fill:#FFFFFF; fill-opacity:1.0; 
stroke:#FFFFFF; stroke-width:39.3701; stroke-opacity:1; 
stroke-linecap:round; stroke-linejoin:round;">
</g>
<g style="fill:#FFFFFF; fill-opacity:1.0; 
stroke:#FFFFFF; stroke-width:0; stroke-opacity:1; 
stroke-linecap:round; stroke-linejoin:round;">
<circle cx="36050" cy="30870.2" r="236.22" /> 
</g>
<g style="fill:#FFFFFF; fill-opacity:1.0; 
stroke:#FFFFFF; stroke-width:39.3701; stroke-opacity:1; 
stroke-linecap:round; stroke-linejoin:round;">
</g>
<g style="fill:#FFFFFF; fill-opacity:1.0; 
stroke:#FFFFFF; stroke-width:0; stroke-opacity:1; 
stroke-linecap:round; stroke-linejoin:round;">
<circle cx="36050" cy="27445.7" r="236.22" /> 
</g>
<g style="fill:#FFFFFF; fill-opacity:1.0; 
stroke:#FFFFFF; stroke-width:39.3701; stroke-opacity:1; 
stroke-linecap:round; stroke-linejoin:round;">
</g>
<g style="fill:#FFFFFF; fill-opacity:1.0; 
stroke:#FFFFFF; stroke-width:0; stroke-opacity:1; 
stroke-linecap:round; stroke-linejoin:round;">
<circle cx="36050" cy="26067.7" r="236.22" /> 
</g>
<g style="fill:#FFFFFF; fill-opacity:1.0; 
stroke:#FFFFFF; stroke-width:39.3701; stroke-opacity:1; 
stroke-linecap:round; stroke-linejoin:round;">
</g>
<g style="fill:#FFFFFF; fill-opacity:1.0; 
stroke:#FFFFFF; stroke-width:0; stroke-opacity:1; 
stroke-linecap:round; stroke-linejoin:round;">
<circle cx="36050" cy="24689.8" r="236.22" /> 
</g>
<g style="fill:#FFFFFF; fill-opacity:1.0; 
stroke:#FFFFFF; stroke-width:39.3701; stroke-opacity:1; 
stroke-linecap:round; stroke-linejoin:round;">
</g>
<g style="fill:#FFFFFF; fill-opacity:1.0; 
stroke:#FFFFFF; stroke-width:0; stroke-opacity:1; 
stroke-linecap:round; stroke-linejoin:round;">
<circle cx="36050" cy="23311.8" r="236.22" /> 
</g>
<g style="fill:#FFFFFF; fill-opacity:1.0; 
stroke:#FFFFFF; stroke-width:39.3701; stroke-opacity:1; 
stroke-linecap:round; stroke-linejoin:round;">
</g>
<g style="fill:#FFFFFF; fill-opacity:1.0; 
stroke:#FFFFFF; stroke-width:0; stroke-opacity:1; 
stroke-linecap:round; stroke-linejoin:round;">
<circle cx="36050" cy="21933.9" r="236.22" /> 
</g>
<g style="fill:#FFFFFF; fill-opacity:1.0; 
stroke:#FFFFFF; stroke-width:39.3701; stroke-opacity:1; 
stroke-linecap:round; stroke-linejoin:round;">
</g>
<g style="fill:#FFFFFF; fill-opacity:1.0; 
stroke:#FFFFFF; stroke-width:0; stroke-opacity:1; 
stroke-linecap:round; stroke-linejoin:round;">
<circle cx="36050" cy="20555.9" r="236.22" /> 
</g>
<g style="fill:#FFFFFF; fill-opacity:1.0; 
stroke:#FFFFFF; stroke-width:39.3701; stroke-opacity:1; 
stroke-linecap:round; stroke-linejoin:round;">
</g>
<g style="fill:#FFFFFF; fill-opacity:1.0; 
stroke:#FFFFFF; stroke-width:0; stroke-opacity:1; 
stroke-linecap:round; stroke-linejoin:round;">
<circle cx="36050" cy="19178" r="236.22" /> 
</g>
<g style="fill:#FFFFFF; fill-opacity:1.0; 
stroke:#FFFFFF; stroke-width:39.3701; stroke-opacity:1; 
stroke-linecap:round; stroke-linejoin:round;">
</g>
<g style="fill:#FFFFFF; fill-opacity:1.0; 
stroke:#FFFFFF; stroke-width:0; stroke-opacity:1; 
stroke-linecap:round; stroke-linejoin:round;">
<circle cx="36050" cy="17800" r="236.22" /> 
</g>
<g style="fill:#FFFFFF; fill-opacity:1.0; 
stroke:#FFFFFF; stroke-width:39.3701; stroke-opacity:1; 
stroke-linecap:round; stroke-linejoin:round;">
</g>
<g style="fill:#FFFFFF; fill-opacity:1.0; 
stroke:#FFFFFF; stroke-width:0; stroke-opacity:1; 
stroke-linecap:round; stroke-linejoin:round;">
<circle cx="42475" cy="58300" r="885.827" /> 
</g>
<g style="fill:#FFFFFF; fill-opacity:1.0; 
stroke:#FFFFFF; stroke-width:39.3701; stroke-opacity:1; 
stroke-linecap:round; stroke-linejoin:round;">
</g>
<g style="fill:#FFFFFF; fill-opacity:1.0; 
stroke:#FFFFFF; stroke-width:0; stroke-opacity:1; 
stroke-linecap:round; stroke-linejoin:round;">
<circle cx="55700" cy="58275" r="885.827" /> 
</g>
<g style="fill:#FFFFFF; fill-opacity:1.0; 
stroke:#FFFFFF; stroke-width:39.3701; stroke-opacity:1; 
stroke-linecap:round; stroke-linejoin:round;">
</g>
<g style="fill:#FFFFFF; fill-opacity:1.0; 
stroke:#FFFFFF; stroke-width:0; stroke-opacity:1; 
stroke-linecap:round; stroke-linejoin:round;">
<circle cx="42500" cy="16850" r="885.827" /> 
</g>
<g style="fill:#FFFFFF; fill-opacity:1.0; 
stroke:#FFFFFF; stroke-width:39.3701; stroke-opacity:1; 
stroke-linecap:round; stroke-linejoin:round;">
</g>
<g style="fill:#FFFFFF; fill-opacity:1.0; 
stroke:#FFFFFF; stroke-width:0; stroke-opacity:1; 
stroke-linecap:round; stroke-linejoin:round;">
<circle cx="55725" cy="16850" r="885.827" /> 
</g>
<g style="fill:#FFFFFF; fill-opacity:1.0; 
stroke:#FFFFFF; stroke-width:39.3701; stroke-opacity:1; 
stroke-linecap:round; stroke-linejoin:round;">
</g>
<g style="fill:#FFFFFF; fill-opacity:1.0; 
stroke:#FFFFFF; stroke-width:0; stroke-opacity:1; 
stroke-linecap:round; stroke-linejoin:round;">
<circle cx="54900" cy="28050" r="200" /> 
</g>
<g style="fill:#FFFFFF; fill-opacity:1.0; 
stroke:#FFFFFF; stroke-width:39.3701; stroke-opacity:1; 
stroke-linecap:round; stroke-linejoin:round;">
</g>
<g style="fill:#FFFFFF; fill-opacity:1.0; 
stroke:#FFFFFF; stroke-width:0; stroke-opacity:1; 
stroke-linecap:round; stroke-linejoin:round;">
<circle cx="54900" cy="29050" r="200" /> 
</g>
<g style="fill:#FFFFFF; fill-opacity:1.0; 
stroke:#FFFFFF; stroke-width:39.3701; stroke-opacity:1; 
stroke-linecap:round; stroke-linejoin:round;">
</g>
<g style="fill:#FFFFFF; fill-opacity:1.0; 
stroke:#FFFFFF; stroke-width:0; stroke-opacity:1; 
stroke-linecap:round; stroke-linejoin:round;">
<circle cx="54900" cy="30050" r="200" /> 
</g>
<g style="fill:#FFFFFF; fill-opacity:1.0; 
stroke:#FFFFFF; stroke-width:39.3701; stroke-opacity:1; 
stroke-linecap:round; stroke-linejoin:round;">
</g>
<g style="fill:#FFFFFF; fill-opacity:1.0; 
stroke:#FFFFFF; stroke-width:0; stroke-opacity:1; 
stroke-linecap:round; stroke-linejoin:round;">
<circle cx="54900" cy="31050" r="200" /> 
</g>
<g style="fill:#FFFFFF; fill-opacity:1.0; 
stroke:#FFFFFF; stroke-width:39.3701; stroke-opacity:1; 
stroke-linecap:round; stroke-linejoin:round;">
</g>
<g style="fill:#FFFFFF; fill-opacity:1.0; 
stroke:#FFFFFF; stroke-width:0; stroke-opacity:1; 
stroke-linecap:round; stroke-linejoin:round;">
<circle cx="54900" cy="32050" r="200" /> 
</g>
<g style="fill:#FFFFFF; fill-opacity:1.0; 
stroke:#FFFFFF; stroke-width:39.3701; stroke-opacity:1; 
stroke-linecap:round; stroke-linejoin:round;">
</g>
<g style="fill:#FFFFFF; fill-opacity:1.0; 
stroke:#FFFFFF; stroke-width:0; stroke-opacity:1; 
stroke-linecap:round; stroke-linejoin:round;">
<circle cx="54900" cy="33050" r="200" /> 
</g>
<g style="fill:#FFFFFF; fill-opacity:1.0; 
stroke:#FFFFFF; stroke-width:39.3701; stroke-opacity:1; 
stroke-linecap:round; stroke-linejoin:round;">
</g>
<g style="fill:#FFFFFF; fill-opacity:1.0; 
stroke:#FFFFFF; stroke-width:0; stroke-opacity:1; 
stroke-linecap:round; stroke-linejoin:round;">
<circle cx="54900" cy="34050" r="200" /> 
</g>
<g style="fill:#FFFFFF; fill-opacity:1.0; 
stroke:#FFFFFF; stroke-width:39.3701; stroke-opacity:1; 
stroke-linecap:round; stroke-linejoin:round;">
</g>
<g style="fill:#FFFFFF; fill-opacity:1.0; 
stroke:#FFFFFF; stroke-width:0; stroke-opacity:1; 
stroke-linecap:round; stroke-linejoin:round;">
<circle cx="54900" cy="35050" r="200" /> 
</g>
<g style="fill:#FFFFFF; fill-opacity:1.0; 
stroke:#FFFFFF; stroke-width:39.3701; stroke-opacity:1; 
stroke-linecap:round; stroke-linejoin:round;">
</g>
<g style="fill:#FFFFFF; fill-opacity:1.0; 
stroke:#FFFFFF; stroke-width:0; stroke-opacity:1; 
stroke-linecap:round; stroke-linejoin:round;">
<circle cx="54900" cy="36050" r="200" /> 
</g>
<g style="fill:#FFFFFF; fill-opacity:1.0; 
stroke:#FFFFFF; stroke-width:39.3701; stroke-opacity:1; 
stroke-linecap:round; stroke-linejoin:round;">
</g>
<g style="fill:#FFFFFF; fill-opacity:1.0; 
stroke:#FFFFFF; stroke-width:0; stroke-opacity:1; 
stroke-linecap:round; stroke-linejoin:round;">
<circle cx="54900" cy="37050" r="200" /> 
</g>
<g style="fill:#FFFFFF; fill-opacity:1.0; 
stroke:#FFFFFF; stroke-width:39.3701; stroke-opacity:1; 
stroke-linecap:round; stroke-linejoin:round;">
</g>
<g style="fill:#FFFFFF; fill-opacity:1.0; 
stroke:#FFFFFF; stroke-width:0; stroke-opacity:1; 
stroke-linecap:round; stroke-linejoin:round;">
<circle cx="54900" cy="38050" r="200" /> 
</g>
<g style="fill:#FFFFFF; fill-opacity:1.0; 
stroke:#FFFFFF; stroke-width:39.3701; stroke-opacity:1; 
stroke-linecap:round; stroke-linejoin:round;">
</g>
<g style="fill:#FFFFFF; fill-opacity:1.0; 
stroke:#FFFFFF; stroke-width:0; stroke-opacity:1; 
stroke-linecap:round; stroke-linejoin:round;">
<circle cx="54900" cy="39050" r="200" /> 
</g>
<g style="fill:#FFFFFF; fill-opacity:1.0; 
stroke:#FFFFFF; stroke-width:39.3701; stroke-opacity:1; 
stroke-linecap:round; stroke-linejoin:round;">
</g>
<g style="fill:#FFFFFF; fill-opacity:1.0; 
stroke:#FFFFFF; stroke-width:0; stroke-opacity:1; 
stroke-linecap:round; stroke-linejoin:round;">
<circle cx="54900" cy="40050" r="200" /> 
</g>
<g style="fill:#FFFFFF; fill-opacity:1.0; 
stroke:#FFFFFF; stroke-width:39.3701; stroke-opacity:1; 
stroke-linecap:round; stroke-linejoin:round;">
</g>
<g style="fill:#FFFFFF; fill-opacity:1.0; 
stroke:#FFFFFF; stroke-width:0; stroke-opacity:1; 
stroke-linecap:round; stroke-linejoin:round;">
<circle cx="54900" cy="41050" r="200" /> 
</g>
<g style="fill:#FFFFFF; fill-opacity:1.0; 
stroke:#FFFFFF; stroke-width:39.3701; stroke-opacity:1; 
stroke-linecap:round; stroke-linejoin:round;">
</g>
<g style="fill:#FFFFFF; fill-opacity:1.0; 
stroke:#FFFFFF; stroke-width:0; stroke-opacity:1; 
stroke-linecap:round; stroke-linejoin:round;">
<circle cx="54900" cy="42050" r="200" /> 
</g>
<g style="fill:#FFFFFF; fill-opacity:1.0; 
stroke:#FFFFFF; stroke-width:39.3701; stroke-opacity:1; 
stroke-linecap:round; stroke-linejoin:round;">
</g>
<g style="fill:#FFFFFF; fill-opacity:1.0; 
stroke:#FFFFFF; stroke-width:0; stroke-opacity:1; 
stroke-linecap:round; stroke-linejoin:round;">
<circle cx="60900" cy="28050" r="200" /> 
</g>
<g style="fill:#FFFFFF; fill-opacity:1.0; 
stroke:#FFFFFF; stroke-width:39.3701; stroke-opacity:1; 
stroke-linecap:round; stroke-linejoin:round;">
</g>
<g style="fill:#FFFFFF; fill-opacity:1.0; 
stroke:#FFFFFF; stroke-width:0; stroke-opacity:1; 
stroke-linecap:round; stroke-linejoin:round;">
<circle cx="60900" cy="29050" r="200" /> 
</g>
<g style="fill:#FFFFFF; fill-opacity:1.0; 
stroke:#FFFFFF; stroke-width:39.3701; stroke-opacity:1; 
stroke-linecap:round; stroke-linejoin:round;">
</g>
<g style="fill:#FFFFFF; fill-opacity:1.0; 
stroke:#FFFFFF; stroke-width:0; stroke-opacity:1; 
stroke-linecap:round; stroke-linejoin:round;">
<circle cx="60900" cy="30050" r="200" /> 
</g>
<g style="fill:#FFFFFF; fill-opacity:1.0; 
stroke:#FFFFFF; stroke-width:39.3701; stroke-opacity:1; 
stroke-linecap:round; stroke-linejoin:round;">
</g>
<g style="fill:#FFFFFF; fill-opacity:1.0; 
stroke:#FFFFFF; stroke-width:0; stroke-opacity:1; 
stroke-linecap:round; stroke-linejoin:round;">
<circle cx="60900" cy="31050" r="200" /> 
</g>
<g style="fill:#FFFFFF; fill-opacity:1.0; 
stroke:#FFFFFF; stroke-width:39.3701; stroke-opacity:1; 
stroke-linecap:round; stroke-linejoin:round;">
</g>
<g style="fill:#FFFFFF; fill-opacity:1.0; 
stroke:#FFFFFF; stroke-width:0; stroke-opacity:1; 
stroke-linecap:round; stroke-linejoin:round;">
<circle cx="60900" cy="32050" r="200" /> 
</g>
<g style="fill:#FFFFFF; fill-opacity:1.0; 
stroke:#FFFFFF; stroke-width:39.3701; stroke-opacity:1; 
stroke-linecap:round; stroke-linejoin:round;">
</g>
<g style="fill:#FFFFFF; fill-opacity:1.0; 
stroke:#FFFFFF; stroke-width:0; stroke-opacity:1; 
stroke-linecap:round; stroke-linejoin:round;">
<circle cx="60900" cy="33050" r="200" /> 
</g>
<g style="fill:#FFFFFF; fill-opacity:1.0; 
stroke:#FFFFFF; stroke-width:39.3701; stroke-opacity:1; 
stroke-linecap:round; stroke-linejoin:round;">
</g>
<g style="fill:#FFFFFF; fill-opacity:1.0; 
stroke:#FFFFFF; stroke-width:0; stroke-opacity:1; 
stroke-linecap:round; stroke-linejoin:round;">
<circle cx="60900" cy="34050" r="200" /> 
</g>
<g style="fill:#FFFFFF; fill-opacity:1.0; 
stroke:#FFFFFF; stroke-width:39.3701; stroke-opacity:1; 
stroke-linecap:round; stroke-linejoin:round;">
</g>
<g style="fill:#FFFFFF; fill-opacity:1.0; 
stroke:#FFFFFF; stroke-width:0; stroke-opacity:1; 
stroke-linecap:round; stroke-linejoin:round;">
<circle cx="60900" cy="35050" r="200" /> 
</g>
<g style="fill:#FFFFFF; fill-opacity:1.0; 
stroke:#FFFFFF; stroke-width:39.3701; stroke-opacity:1; 
stroke-linecap:round; stroke-linejoin:round;">
</g>
<g style="fill:#FFFFFF; fill-opacity:1.0; 
stroke:#FFFFFF; stroke-width:0; stroke-opacity:1; 
stroke-linecap:round; stroke-linejoin:round;">
<circle cx="60900" cy="36050" r="200" /> 
</g>
<g style="fill:#FFFFFF; fill-opacity:1.0; 
stroke:#FFFFFF; stroke-width:39.3701; stroke-opacity:1; 
stroke-linecap:round; stroke-linejoin:round;">
</g>
<g style="fill:#FFFFFF; fill-opacity:1.0; 
stroke:#FFFFFF; stroke-width:0; stroke-opacity:1; 
stroke-linecap:round; stroke-linejoin:round;">
<circle cx="60900" cy="37050" r="200" /> 
</g>
<g style="fill:#FFFFFF; fill-opacity:1.0; 
stroke:#FFFFFF; stroke-width:39.3701; stroke-opacity:1; 
stroke-linecap:round; stroke-linejoin:round;">
</g>
<g style="fill:#FFFFFF; fill-opacity:1.0; 
stroke:#FFFFFF; stroke-width:0; stroke-opacity:1; 
stroke-linecap:round; stroke-linejoin:round;">
<circle cx="60900" cy="38050" r="200" /> 
</g>
<g style="fill:#FFFFFF; fill-opacity:1.0; 
stroke:#FFFFFF; stroke-width:39.3701; stroke-opacity:1; 
stroke-linecap:round; stroke-linejoin:round;">
</g>
<g style="fill:#FFFFFF; fill-opacity:1.0; 
stroke:#FFFFFF; stroke-width:0; stroke-opacity:1; 
stroke-linecap:round; stroke-linejoin:round;">
<circle cx="60900" cy="39050" r="200" /> 
</g>
<g style="fill:#FFFFFF; fill-opacity:1.0; 
stroke:#FFFFFF; stroke-width:39.3701; stroke-opacity:1; 
stroke-linecap:round; stroke-linejoin:round;">
</g>
<g style="fill:#FFFFFF; fill-opacity:1.0; 
stroke:#FFFFFF; stroke-width:0; stroke-opacity:1; 
stroke-linecap:round; stroke-linejoin:round;">
<circle cx="60900" cy="40050" r="200" /> 
</g>
<g style="fill:#FFFFFF; fill-opacity:1.0; 
stroke:#FFFFFF; stroke-width:39.3701; stroke-opacity:1; 
stroke-linecap:round; stroke-linejoin:round;">
</g>
<g style="fill:#FFFFFF; fill-opacity:1.0; 
stroke:#FFFFFF; stroke-width:0; stroke-opacity:1; 
stroke-linecap:round; stroke-linejoin:round;">
<circle cx="60900" cy="41050" r="200" /> 
</g>
<g style="fill:#FFFFFF; fill-opacity:1.0; 
stroke:#FFFFFF; stroke-width:39.3701; stroke-opacity:1; 
stroke-linecap:round; stroke-linejoin:round;">
</g>
<g style="fill:#FFFFFF; fill-opacity:1.0; 
stroke:#FFFFFF; stroke-width:0; stroke-opacity:1; 
stroke-linecap:round; stroke-linejoin:round;">
<circle cx="60900" cy="42050" r="200" /> 
</g>
<g style="fill:#FFFFFF; fill-opacity:1.0; 
stroke:#FFFFFF; stroke-width:39.3701; stroke-opacity:1; 
stroke-linecap:round; stroke-linejoin:round;">
</g>
<g style="fill:#000000; fill-opacity:1.0; 
stroke:#000000; stroke-width:39.3701; stroke-opacity:1; 
stroke-linecap:round; stroke-linejoin:round;">
</g> 
</svg>
