<?xml version="1.0" encoding="UTF-8" standalone="no"?>
<svg
   xmlns:dc="http://purl.org/dc/elements/1.1/"
   xmlns:cc="http://creativecommons.org/ns#"
   xmlns:rdf="http://www.w3.org/1999/02/22-rdf-syntax-ns#"
   xmlns:svg="http://www.w3.org/2000/svg"
   xmlns="http://www.w3.org/2000/svg"
   xmlns:sodipodi="http://sodipodi.sourceforge.net/DTD/sodipodi-0.dtd"
   xmlns:inkscape="http://www.inkscape.org/namespaces/inkscape"
   width="130mm"
   height="40mm"
   viewBox="0 0 368.50394 113.38583"
   overflow="visible"
   version="1.1"
   id="svg26"
   sodipodi:docname="cnc-friendly-rack-and-pinion-joined-and-filled.svg"
   style="overflow:visible"
   inkscape:version="0.92.3 (2405546, 2018-03-11)">
  <metadata
     id="metadata32">
    <rdf:RDF>
      <cc:Work
         rdf:about="">
        <dc:format>image/svg+xml</dc:format>
        <dc:type
           rdf:resource="http://purl.org/dc/dcmitype/StillImage" />
        <dc:title></dc:title>
      </cc:Work>
    </rdf:RDF>
  </metadata>
  <defs
     id="defs30" />
  <sodipodi:namedview
     pagecolor="#ffffff"
     bordercolor="#666666"
     borderopacity="1"
     objecttolerance="10"
     gridtolerance="10"
     guidetolerance="10"
     inkscape:pageopacity="0"
     inkscape:pageshadow="2"
     inkscape:window-width="3840"
     inkscape:window-height="2055"
     id="namedview28"
     showgrid="false"
     units="mm"
     inkscape:document-units="mm"
     inkscape:zoom="5.6568543"
     inkscape:cx="246.42488"
     inkscape:cy="87.071068"
     inkscape:window-x="-13"
     inkscape:window-y="-13"
     inkscape:window-maximized="1"
     inkscape:current-layer="svg26" />
  <path
     style="fill:#5c5c5c;fill-opacity:1;stroke:none;stroke-width:0.23999999"
     d="m 179.14088,17.873917 c -1.01065,0 -2.02218,0.07232 -3.01758,0.215332 -0.4103,0.05029 -0.82293,0.327326 -1.02393,0.688477 -0.9096,1.42732 -0.82467,3.65697 0.19044,5.01123 0.4349,0.58728 0.49924,1.525704 0.14794,2.166504 -0.42049,1.07034 -2.04665,1.721148 -3.08935,1.236328 -0.6764,-0.22149 -1.26156,-0.912012 -1.36816,-1.615722 -0.2393,-1.675911 -1.75579,-3.313548 -3.4087,-3.679688 -0.3975,-0.11325 -0.88572,-0.01869 -1.21142,0.23584 -1.6099,1.20543 -3.06169,2.65714 -4.26709,4.26709 -0.2545,0.32565 -0.34914,0.813925 -0.23584,1.211425 0.3661,1.65243 2.00282,3.168902 3.67822,3.408692 0.7228,0.10776 1.43154,0.725258 1.63623,1.426758 0.45951,1.05416 -0.23083,2.665528 -1.31104,3.060058 -0.63489,0.32167 -1.53637,0.246429 -2.10937,-0.175781 -1.3543,-1.01583 -3.58499,-1.101725 -5.01269,-0.191894 -0.36111,0.200989 -0.63818,0.613675 -0.68848,1.023925 -0.2861,1.99077 -0.2861,4.042922 0,6.033692 0.0503,0.41025 0.32737,0.822936 0.68848,1.023925 1.4273,0.90957 3.65693,0.82472 5.01123,-0.190429 0.58719,-0.43488 1.5257,-0.49922 2.1665,-0.14795 1.0704,0.42047 1.72123,2.048051 1.23633,3.090821 -0.2215,0.6764 -0.91202,1.260089 -1.61573,1.366699 -1.67589,0.23931 -3.31358,1.757316 -3.67968,3.410156 -0.1133,0.3975 -0.0187,0.885776 0.23584,1.211426 1.2054,1.60995 2.65719,3.060195 4.26709,4.265625 0.3257,0.25453 0.81392,0.350565 1.21142,0.237304 1.65251,-0.366099 3.16899,-2.004267 3.4087,-3.679687 0.1078,-0.72278 0.72526,-1.430036 1.42675,-1.634765 1.05411,-0.459531 2.66546,0.2294 3.06006,1.30957 0.3216,0.63492 0.24642,1.536385 -0.17578,2.109375 -1.0158,1.35427 -1.10169,3.58653 -0.1919,5.01416 0.201,0.36115 0.61363,0.638177 1.02394,0.688476 1.9908,0.286031 4.04288,0.286031 6.03369,0 0.41019,-0.0503 0.82292,-0.327326 1.02392,-0.688476 0.9096,-1.42732 0.82477,-3.658425 -0.19043,-5.012695 -0.4349,-0.58728 -0.49915,-1.52423 -0.14795,-2.165039 0.4205,-1.07034 2.04803,-1.721148 3.09083,-1.236328 0.67639,0.22149 1.25999,0.912002 1.36669,1.615722 0.2393,1.67591 1.75736,3.313558 3.41016,3.679687 0.3975,0.113261 0.88583,0.01723 1.21142,-0.237304 1.61,-1.20543 3.06013,-2.655675 4.26563,-4.265625 0.2545,-0.32565 0.3505,-0.813926 0.23731,-1.211426 -0.36611,-1.65243 -2.0043,-3.170366 -3.67969,-3.410156 -0.72281,-0.10776 -1.43007,-0.725258 -1.63477,-1.426758 -0.4596,-1.05416 0.22947,-2.664064 1.30957,-3.058594 0.6349,-0.321669 1.53648,-0.246429 2.10937,0.175782 1.35431,1.01583 3.5851,1.100259 5.0127,0.190429 0.3612,-0.200989 0.63964,-0.613675 0.68994,-1.023925 0.286,-1.99077 0.286,-4.042922 0,-6.033692 -0.0503,-0.41025 -0.32874,-0.822936 -0.68994,-1.023925 -1.4273,-0.90957 -3.65703,-0.824721 -5.01123,0.190429 -0.5873,0.43488 -1.52424,0.49922 -2.16504,0.147949 -1.0703,-0.42047 -1.72113,-2.046585 -1.23633,-3.089355 0.2215,-0.6764 0.91202,-1.261554 1.61573,-1.368164 1.67589,-0.23931 3.31348,-1.755852 3.67968,-3.408692 0.1132,-0.3975 0.0172,-0.885775 -0.2373,-1.211425 -1.2055,-1.60995 -2.65563,-3.06166 -4.26563,-4.26709 -0.3256,-0.254531 -0.81392,-0.34909 -1.21142,-0.23584 -1.6524,0.3661 -3.17036,2.002802 -3.41016,3.678223 -0.1078,0.722779 -0.72526,1.4315 -1.42676,1.63623 -1.0542,0.45953 -2.66409,-0.230865 -3.05859,-1.311035 -0.3217,-0.63492 -0.24642,-1.536385 0.17578,-2.109375 1.0159,-1.35427 1.10033,-3.585055 0.19043,-5.012695 -0.201,-0.361151 -0.61373,-0.638187 -1.02393,-0.688477 -0.9954,-0.14302 -2.00546,-0.215332 -3.01611,-0.215332 z m -0.15967,9.924316 c 4.01357,-7.5e-4 8.42794,2.415532 10.08106,5.891602 v 10.979004 c -2.0346,4.27824 -8.25027,6.952579 -12.75586,5.488769 -4.65101,-0.90042 -8.79578,-6.249079 -8.50489,-10.977539 -0.29089,-4.72845 3.85388,-10.078583 8.50489,-10.979003 0.8448,-0.274463 1.74859,-0.402656 2.6748,-0.402833 z"
     id="path20"
     inkscape:connector-curvature="0" />
  <path
     style="fill:#484848;fill-opacity:1;stroke:none;stroke-width:0.69847405px;stroke-linecap:butt;stroke-linejoin:miter;stroke-opacity:1"
     d="m 349.21838,90.249195 -325.983437,10e-7 V 61.902742 c 2.24049,0.20988 4.78469,-2.22567 4.67272,-4.47318 l 0.0084,-0.13248 0.08355,-0.51606 0.31642,-1.24299 0.65225,-1.80664 0.33155,-0.76229 c 0.15461,-0.38 0.61179,-0.67425 1.0217,-0.65756 0.4099,-0.01669 0.86708,0.27756 1.02169,0.65756 l 0.33155,0.76229 0.65225,1.80664 0.31642,1.24299 0.08355,0.51606 0.0084,0.13248 c -0.11196,2.24751 2.43223,4.68306 4.67275,4.47318 2.24052,0.20988 4.78472,-2.22567 4.67275,-4.47318 l 0.0084,-0.13248 0.08354,-0.51606 0.31643,-1.24299 0.65225,-1.80664 0.33155,-0.76229 c 0.15461,-0.38 0.61179,-0.67425 1.0217,-0.65756 0.4099,-0.01669 0.86708,0.27756 1.02169,0.65756 l 0.33155,0.76229 0.65226,1.80664 0.31642,1.24299 0.08354,0.51606 0.0084,0.13248 c -0.11198,2.24751 2.43222,4.68306 4.672745,4.47318 2.240525,0.20988 4.784725,-2.22567 4.672755,-4.47318 l 0.0084,-0.13248 0.08355,-0.51606 0.31642,-1.24299 0.65224,-1.80664 0.33156,-0.76229 c 0.1546,-0.38 0.61179,-0.67425 1.02169,-0.65756 0.40991,-0.01669 0.86709,0.27756 1.0217,0.65756 l 0.33155,0.76229 0.65225,1.80664 0.31642,1.24299 0.08355,0.51606 0.0084,0.13248 c -0.11197,2.24751 2.43223,4.68306 4.67272,4.47318 2.24048,0.20988 4.78468,-2.22567 4.67271,-4.47318 l 0.0084,-0.13248 0.08354,-0.51606 0.31642,-1.24299 0.65226,-1.80664 0.33155,-0.76229 c 0.15461,-0.38 0.61178,-0.67425 1.02169,-0.65756 0.40991,-0.01669 0.86709,0.27756 1.02169,0.65756 l 0.33156,0.76229 0.65225,1.80664 0.31642,1.24299 0.08355,0.51606 0.0084,0.13248 c -0.11197,2.24751 2.43223,4.68306 4.672775,4.47318 2.240595,0.20988 4.784795,-2.22567 4.672795,-4.47318 l 0.008,-0.13248 0.0836,-0.51606 0.3164,-1.24299 0.6522,-1.80664 0.3316,-0.76229 c 0.1546,-0.38 0.6118,-0.67425 1.0217,-0.65756 0.4099,-0.01669 0.8671,0.27756 1.0217,0.65756 l 0.3315,0.76229 0.6523,1.80664 0.3164,1.24299 0.0836,0.51606 0.008,0.13248 c -0.112,2.24751 2.4322,4.68306 4.6731,4.47318 2.2409,0.20988 4.7851,-2.22567 4.6731,-4.47318 l 0.008,-0.13248 0.0835,-0.51606 0.3164,-1.24299 0.6523,-1.80664 0.331497,-0.76229 c 0.1546,-0.38 0.6118,-0.67425 1.0217,-0.65756 0.4099,-0.01669 0.8671,0.27756 1.0217,0.65756 l 0.3316,0.76229 0.6522,1.80664 0.3164,1.24299 0.0836,0.51606 0.008,0.13248 c -0.112,2.24751 2.4322,4.68306 4.6727,4.47318 2.2405,0.20988 4.7847,-2.22567 4.6728,-4.47318 l 0.008,-0.13248 0.0835,-0.51606 0.3165,-1.24299 0.6522,-1.80664 0.3315,-0.76229 c 0.1547,-0.38 0.6118,-0.67425 1.0217,-0.65756 0.41,-0.01669 0.8671,0.27756 1.0217,0.65756 l 0.3316,0.76229 0.6522,1.80664 0.3165,1.24299 0.0835,0.51606 0.008,0.13248 c -0.1119,2.24751 2.4323,4.68306 4.6728,4.47318 2.2405,0.20988 4.7846,-2.22567 4.6727,-4.47318 l 0.008,-0.13248 0.0836,-0.51606 0.3164,-1.24299 0.6522,-1.80664 0.3316,-0.76229 c 0.1546,-0.38 0.6118,-0.67425 1.0217,-0.65756 0.4099,-0.01669 0.8671,0.27756 1.0217,0.65756 l 0.3315,0.76229 0.6523,1.80664 0.3164,1.24299 0.0835,0.51606 0.008,0.13248 c -0.112,2.24751 2.4322,4.68306 4.6727,4.47318 2.2405,0.20988 4.7847,-2.22567 4.6727,-4.47318 l 0.008,-0.13248 0.0836,-0.51606 0.3164,-1.24299 0.6523,-1.80664 0.3315,-0.76229 c 0.1546,-0.38 0.6118,-0.67425 1.0217,-0.65756 0.4099,-0.01669 0.8671,0.27756 1.0217,0.65756 l 0.3316,0.76229 0.6522,1.80664 0.3164,1.24299 0.0836,0.51606 0.008,0.13248 c -0.112,2.24751 2.4322,4.68306 4.6727,4.47318 2.2405,0.20988 4.7847,-2.22567 4.6727,-4.47318 l 0.008,-0.13248 0.0835,-0.51606 0.3164,-1.24299 0.6523,-1.80664 0.3315,-0.76229 c 0.1547,-0.38 0.6118,-0.67425 1.0217,-0.65756 0.4099,-0.01669 0.8671,0.27756 1.0217,0.65756 l 0.3316,0.76229 0.6522,1.80664 0.3164,1.24299 0.0836,0.51606 0.008,0.13248 c -0.1119,2.24751 2.4323,4.68306 4.67485,4.47318 2.24265,0.20988 4.78685,-2.22567 4.67495,-4.47318 l 0.008,-0.13248 0.0835,-0.51606 0.3165,-1.24299 0.6522,-1.80664 0.3316,-0.76229 c 0.1546,-0.38 0.6118,-0.67425 1.0217,-0.65756 0.4099,-0.01669 0.867,0.27756 1.0217,0.65756 l 0.3315,0.76229 0.6523,1.80664 0.3164,1.24299 0.0835,0.51606 0.008,0.13248 c -0.112,2.24751 2.4322,4.68306 4.67315,4.47318 2.24095,0.20988 4.78515,-2.22567 4.67315,-4.47318 l 0.008,-0.13248 0.0836,-0.51606 0.3164,-1.24299 0.6522,-1.80664 0.3316,-0.76229 c 0.1546,-0.38 0.6118,-0.67425 1.0217,-0.65756 0.4099,-0.01669 0.8671,0.27756 1.0217,0.65756 l 0.3315,0.76229 0.6523,1.80664 0.3164,1.24299 0.0836,0.51606 0.008,0.13248 c -0.112,2.24751 2.4322,4.68306 4.6727,4.47318 2.2405,0.20988 4.7847,-2.22567 4.6727,-4.47318 l 0.008,-0.13248 0.0835,-0.51606 0.3164,-1.24299 0.6523,-1.80664 0.3315,-0.76229 c 0.1546,-0.38 0.6118,-0.67425 1.0217,-0.65756 0.4099,-0.01669 0.8671,0.27756 1.0217,0.65756 l 0.3316,0.76229 0.6522,1.80664 0.3164,1.24299 0.0836,0.51606 0.008,0.13248 c -0.112,2.24751 2.4322,4.68306 4.6727,4.47318 2.2405,0.20988 4.7847,-2.22567 4.6727,-4.47318 l 0.009,-0.13248 0.0835,-0.51606 0.3164,-1.24299 0.6523,-1.80664 0.3316,-0.76229 c 0.1546,-0.38 0.6117,-0.67425 1.0216,-0.65756 0.4099,-0.01669 0.8671,0.27756 1.0217,0.65756 l 0.3316,0.76229 0.6522,1.80664 0.3165,1.24299 0.0835,0.51606 0.008,0.13248 c -0.1119,2.24751 2.4323,4.68306 4.6728,4.47318 2.2405,0.20988 4.7846,-2.22567 4.6727,-4.47318 l 0.008,-0.13248 0.0836,-0.51606 0.3164,-1.24299 0.6522,-1.80664 0.3316,-0.76229 c 0.1546,-0.38 0.6118,-0.67425 1.0217,-0.65756 0.4099,-0.01669 0.8671,0.27756 1.0217,0.65756 l 0.3315,0.76229 0.6523,1.80664 0.3164,1.24299 0.0835,0.51606 0.008,0.13248 c -0.112,2.24751 2.4322,4.68306 4.6727,4.47318 2.2405,0.20988 4.7847,-2.22567 4.6727,-4.47318 l 0.008,-0.13248 0.0836,-0.51606 0.3164,-1.24299 0.6522,-1.80664 0.3316,-0.76229 c 0.1546,-0.38 0.6118,-0.67425 1.0217,-0.65756 0.4099,-0.01669 0.8671,0.27756 1.0217,0.65756 l 0.3316,0.76229 0.6522,1.80664 0.3164,1.24299 0.0836,0.51606 0.008,0.13248 c -0.112,2.24751 2.4322,4.68306 4.6727,4.47318 2.2405,0.20988 4.7847,-2.22567 4.6727,-4.47318 l 0.009,-0.13248 0.0835,-0.51606 0.3164,-1.24299 0.6523,-1.80664 0.3315,-0.76229 c 0.1546,-0.38 0.6118,-0.67425 1.0217,-0.65756 0.4099,-0.01669 0.8671,0.27756 1.0217,0.65756 l 0.3316,0.76229 0.6522,1.80664 0.3165,1.24299 0.0835,0.51606 0.008,0.13248 c -0.1119,2.24751 2.4323,4.68306 4.6727,4.47318 2.2405,0.20988 4.7847,-2.22567 4.6728,-4.47318 l 0.008,-0.13248 0.0836,-0.51606 0.3164,-1.24299 0.6522,-1.80664 0.3316,-0.76229 c 0.1546,-0.38 0.6117,-0.67425 1.0217,-0.65756 0.4099,-0.01669 0.867,0.27756 1.0216,0.65756 l 0.3316,0.76229 0.6522,1.80664 0.3165,1.24299 0.0835,0.51606 0.008,0.13248 c -0.112,2.24751 2.4322,4.68306 4.6727,4.47318 2.2405,0.20988 4.7847,-2.22567 4.6727,-4.47318 l 0.008,-0.13248 0.0836,-0.51606 0.3164,-1.24299 0.6522,-1.80664 0.3316,-0.76229 c 0.1546,-0.38 0.6118,-0.67425 1.0217,-0.65756 0.4099,-0.01669 0.8671,0.27756 1.0217,0.65756 l 0.3315,0.76229 0.6523,1.80664 0.3164,1.24299 0.0836,0.51606 0.008,0.13248 c -0.112,2.24751 2.4322,4.68306 4.6727,4.47318 2.2405,0.20988 4.7847,-2.22567 4.6727,-4.47318 l 0.009,-0.13248 0.0835,-0.51606 0.3164,-1.24299 0.6523,-1.80664 0.3315,-0.76229 c 0.1546,-0.38 0.6118,-0.67425 1.0217,-0.65756 0.4099,-0.01669 0.8671,0.27756 1.0217,0.65756 l 0.3316,0.76229 0.6522,1.80664 0.3164,1.24299 0.0836,0.51606 0.008,0.13248 c -0.1119,2.24751 2.4322,4.68306 4.6727,4.47318 2.2405,0.20988 4.7847,-2.22567 4.6728,-4.47318 l 0.008,-0.13248 0.0835,-0.51606 0.3164,-1.24299 0.6523,-1.80664 0.3315,-0.76229 c 0.1547,-0.38 0.6119,-0.67425 1.0217,-0.65756 0.4099,-0.01669 0.8671,0.27756 1.0217,0.65756 l 0.3316,0.76229 0.6522,1.80664 0.3165,1.24299 0.0835,0.51606 0.008,0.13248 c -0.1119,2.24751 2.4323,4.68306 4.6727,4.47318 2.2406,0.20988 4.7847,-2.22567 4.6728,-4.47318 l 0.008,-0.13248 0.0836,-0.51606 0.3164,-1.24299 0.6522,-1.80664 0.3316,-0.76229 c 0.1546,-0.38 0.6118,-0.67425 1.0217,-0.65756 0.4099,-0.01669 0.867,0.27756 1.0217,0.65756 l 0.3315,0.76229 0.6523,1.80664 0.3164,1.24299 0.0835,0.51606 0.009,0.13248 c -0.112,2.24751 2.4322,4.68306 4.67545,4.47318 2.24325,0.20988 4.78745,-2.22567 4.67545,-4.47318 l 0.008,-0.13248 0.0836,-0.51606 0.3164,-1.24299 0.6523,-1.80664 0.3315,-0.76229 c 0.1546,-0.38 0.6118,-0.67425 1.0217,-0.65756 0.4099,-0.01669 0.8671,0.27756 1.0217,0.65756 l 0.3315,0.76229 0.6523,1.80664 0.3164,1.24299 0.0836,0.51606 0.008,0.13248 c -0.112,2.24751 2.4322,4.68306 4.6727,4.47318 z"
     id="path4543"
     inkscape:connector-curvature="0"
     sodipodi:nodetypes="cccccccccccccccccccccccccccccccccccccccccccccccccccccccccccccccccccccccccccccccccccccccccccccccccccccccccccccccccccccccccccccccccccccccccccccccccccccccccccccccccccccccccccccccccccccccccccccccccccccccccccccccccccccccccccccccccccccccccccccccccccccccccccccccccccccccccccccccccccccccccccccccccccccccccccccccccccccccccccccccccccccc" />
  <text
     xml:space="preserve"
     style="font-style:normal;font-weight:normal;font-size:3.5px;line-height:1.25;font-family:sans-serif;text-align:end;letter-spacing:0px;word-spacing:0px;text-anchor:end;fill:#000000;fill-opacity:1;stroke:none;stroke-width:0.75"
     x="349.05026"
     y="97.210762"
     id="text4570"><tspan
       sodipodi:role="line"
       x="349.05026"
       y="97.210762"
       style="font-style:normal;font-size:3.5px;text-align:end;text-anchor:end;stroke-width:0.75"
       id="tspan4576">CNC friendly rack and pinion, 5 steps per mm</tspan><tspan
       sodipodi:role="line"
       x="349.05026"
       y="101.58576"
       style="font-style:italic;font-size:3.5px;text-align:end;text-anchor:end;stroke-width:0.75"
       id="tspan4580">by Fabricatable Machines</tspan></text>
</svg>
