<?xml version="1.0" encoding="UTF-8" standalone="no"?>
<!DOCTYPE svg PUBLIC "-//W3C//DTD SVG 1.1//EN" "http://www.w3.org/Graphics/SVG/1.1/DTD/svg11.dtd">
<svg width="120pt" height="120pt" viewBox="0 0 120 120" overflow="visible" version="1.1" xmlns="http://www.w3.org/2000/svg">
  <path d="M38.67302,101.9737 C38.96997,99.04451 35.64942,95.72396 32.72026,96.02091 C29.7911,95.72396 26.47055,99.04451 26.7675,101.9737 C26.47055,104.9028 29.7911,108.2234 32.72026,107.9264 C35.64942,108.2234 38.96997,104.9028 38.67302,101.9737 z" stroke="#000000" stroke-width="0.24" fill-opacity="0" />
  <path d="M76.3468,65.95785 C76.63284,63.96707 76.63284,61.91524 76.3468,59.92447 C76.29652,59.51422 76.01889,59.10178 75.65774,58.90079 C74.23042,57.99122 72.00025,58.07587 70.64599,59.09101 C70.05871,59.5259 69.12095,59.58975 68.48015,59.23848 C67.40981,58.81801 66.75892,57.19141 67.24374,56.14864 C67.46523,55.47224 68.15569,54.88789 68.8594,54.78128 C70.53531,54.54197 72.17294,53.02454 72.53909,51.3717 C72.65234,50.97421 72.55701,50.48626 72.30248,50.16061 C71.09705,48.55066 69.64619,47.0998 68.03624,45.89437 C67.71059,45.63984 67.22264,45.54451 66.82515,45.65776 C65.17272,46.02386 63.65561,47.66069 63.41582,49.33611 C63.30806,50.05889 62.69011,50.76714 61.98861,50.97187 C60.93445,51.4314 59.32402,50.74147 58.92949,49.6613 C58.60782,49.02639 58.68285,48.12497 59.10506,47.55198 C60.12089,46.19771 60.20589,43.96674 59.29605,42.53911 C59.09507,42.17796 58.68262,41.90033 58.27238,41.85004 C56.28161,41.56401 54.22978,41.56401 52.239,41.85004 C51.82876,41.90033 51.41632,42.17796 51.21533,42.53911 C50.30576,43.96643 50.39041,46.1966 51.40556,47.55086 C51.84044,48.13814 51.90429,49.0759 51.55302,49.7167 C51.13255,50.78704 49.50595,51.43793 48.46318,50.95311 C47.78677,50.73162 47.20243,50.04116 47.09581,49.33745 C46.8565,47.66154 45.33908,46.0239 43.68624,45.65776 C43.28874,45.54451 42.80079,45.63984 42.47515,45.89437 C40.8652,47.0998 39.41434,48.55066 38.2089,50.16061 C37.95438,50.48626 37.85905,50.97421 37.9723,51.3717 C38.3384,53.02413 39.97522,54.54124 41.65065,54.78103 C42.37343,54.88879 43.08168,55.50674 43.28641,56.20824 C43.74593,57.2624 43.056,58.87283 41.97583,59.26736 C41.34092,59.58903 40.43951,59.514 39.86652,59.09179 C38.51225,58.07596 36.28128,57.99096 34.85365,58.90079 C34.4925,59.10178 34.21487,59.51422 34.16459,59.92447 C33.87855,61.91524 33.87855,63.96707 34.16459,65.95785 C34.21487,66.36809 34.4925,66.78053 34.85365,66.98152 C36.28096,67.89109 38.51114,67.80644 39.8654,66.79129 C40.45267,66.35641 41.39043,66.29256 42.03124,66.64383 C43.10158,67.0643 43.75247,68.6909 43.26765,69.73367 C43.04615,70.41007 42.3557,70.99442 41.65199,71.10104 C39.97608,71.34035 38.33844,72.85777 37.9723,74.51061 C37.85905,74.9081 37.95438,75.39606 38.2089,75.7217 C39.41434,77.33165 40.8652,78.78251 42.47515,79.98795 C42.80079,80.24247 43.28874,80.3378 43.68624,80.22455 C45.33867,79.85844 46.85578,78.22163 47.09557,76.5462 C47.20333,75.82342 47.82127,75.11517 48.52278,74.91044 C49.57694,74.45091 51.18737,75.14085 51.5819,76.22102 C51.90357,76.85593 51.82854,77.75734 51.40633,78.33034 C50.3905,79.6846 50.3055,81.91557 51.21533,83.3432 C51.41632,83.70435 51.82876,83.98197 52.239,84.03226 C54.22978,84.3183 56.28161,84.3183 58.27238,84.03226 C58.68262,83.98197 59.09507,83.70435 59.29605,83.3432 C60.20563,81.91589 60.12098,79.68571 59.10583,78.33145 C58.67094,77.74417 58.6071,76.80641 58.95837,76.16561 C59.37884,75.09527 61.00543,74.44438 62.04821,74.9292 C62.72461,75.1507 63.30895,75.84115 63.41557,76.54486 C63.65488,78.22077 65.17231,79.85841 66.82515,80.22455 C67.22264,80.3378 67.71059,80.24247 68.03624,79.98795 C69.64619,78.78251 71.09705,77.33165 72.30248,75.7217 C72.55701,75.39606 72.65234,74.9081 72.53909,74.51061 C72.17298,72.85818 70.53616,71.34106 68.86073,71.10128 C68.13795,70.99352 67.42971,70.37557 67.22498,69.67407 C66.76545,68.61991 67.45538,67.00948 68.53555,66.61495 C69.17046,66.29328 70.07188,66.36831 70.64487,66.79052 C71.99914,67.80635 74.2301,67.89135 75.65774,66.98152 C76.01889,66.78053 76.29652,66.36809 76.3468,65.95785 z" stroke="#000000" stroke-width="0.24" fill-opacity="0" />
  <path d="M65.17696,68.43042 C63.14236,72.70866 56.92662,75.38349 52.42105,73.91969 C47.77001,73.01927 43.62618,67.66961 43.91711,62.94115 C43.62618,58.2127 47.77001,52.86304 52.42105,51.96262 C56.92662,50.49881 63.14236,53.17365 65.17696,57.45189 z" stroke="#000000" stroke-width="0.24" fill-opacity="0" />
  <path d="M97.77538,62.94115 C98.03905,53.02316 93.53799,41.09154 85.32165,32.8752 C77.10532,24.65886 65.17369,20.1578 55.25569,20.42147 C45.3377,20.1578 33.40607,24.65886 25.18974,32.8752 C16.9734,41.09154 12.47234,53.02316 12.73601,62.94115 C12.47234,72.85915 16.9734,84.79077 25.18974,93.00711 C33.40607,101.2234 45.3377,105.7245 55.25569,105.4608 C65.17369,105.7245 77.10532,101.2234 85.32165,93.00711 C93.53799,84.79077 98.03905,72.85915 97.77538,62.94115 z" stroke="#000000" stroke-width="0.24" fill-opacity="0" />
  <path d="M99.1927,62.94115 C99.46516,52.69256 94.81406,40.36322 86.32385,31.873 C77.83363,23.38278 65.50429,18.73169 55.25569,19.00415 C45.0071,18.73169 32.67775,23.38278 24.18754,31.873 C15.69732,40.36322 11.04623,52.69256 11.31869,62.94115 C11.04623,73.18975 15.69732,85.5191 24.18754,94.00931 C32.67775,102.4995 45.0071,107.1506 55.25569,106.8782 C65.50429,107.1506 77.83363,102.4995 86.32385,94.00931 C94.81406,85.5191 99.46516,73.18975 99.1927,62.94115 z" stroke="#000000" stroke-width="0.24" fill-opacity="0" />
  <path d="M106.2793,62.94115 C106.5763,60.012 103.2557,56.69144 100.3266,56.9884 C97.3974,56.69144 94.07685,60.012 94.3738,62.94115 C94.07685,65.87032 97.3974,69.19086 100.3266,68.89391 C103.2557,69.19086 106.5763,65.87032 106.2793,62.94115 z" stroke="#000000" stroke-width="0.24" fill-opacity="0" />
  <path d="M38.67302,23.90864 C38.96997,20.97948 35.64942,17.65893 32.72026,17.95588 C29.7911,17.65893 26.47055,20.97948 26.7675,23.90864 C26.47055,26.8378 29.7911,30.15835 32.72026,29.8614 C35.64942,30.15835 38.96997,26.8378 38.67302,23.90864 z" stroke="#000000" stroke-width="0.24" fill-opacity="0" />
</svg>