<?xml version="1.0" standalone="no"?><!DOCTYPE svg PUBLIC "-//W3C//DTD SVG 1.1//EN" "http://www.w3.org/Graphics/SVG/1.1/DTD/svg11.dtd"><svg xmlns="http://www.w3.org/2000/svg" viewBox="0 0 300 300" version="1.1"><clipPath id="box"><rect x="0" y="0" width="300" height="300" style="fill:none;stroke:none;" /></clipPath><g clip-path="url(#box)"><rect x="0.00" y="0.00" width="300.00" height="300.00" style="fill:#FFFFFF;stroke:none;" /><path d="M150.00 300.00 L149.99 298.50 L149.97 297.00 L149.93 295.50 L149.88 294.00 L149.81 292.50 L149.73 291.01 L149.63 289.51 L149.52 288.01 L149.39 286.52 L149.25 285.02 L149.09 283.53 L148.92 282.04 L148.73 280.55 L148.53 279.07 L148.32 277.58 L148.08 276.10 L147.84 274.62 L147.58 273.15 L147.30 271.67 L147.01 270.20 L146.70 268.73 L146.38 267.27 L146.05 265.80 L145.70 264.34 L145.34 262.89 L144.96 261.44 L144.57 259.99 L144.16 258.55 L143.74 257.11 L143.30 255.67 L142.85 254.24 L142.39 252.82 L141.91 251.39 L141.41 249.98 L140.91 248.57 L140.38 247.16 L139.85 245.76 L139.30 244.36 L138.74 242.97 L138.16 241.59 L137.57 240.21 L136.96 238.84 L136.34 237.47 L135.71 236.11 L135.07 234.76 L134.41 233.41 L133.74 232.07 L133.05 230.73 L132.35 229.41 L131.64 228.09 L130.91 226.77 L130.17 225.47 L129.42 224.17 L128.66 222.88 L127.88 221.60 L127.09 220.32 L126.29 219.06 L125.47 217.80 L124.64 216.55 L123.80 215.30 L122.95 214.07 L122.08 212.84 L121.20 211.63 L120.31 210.42 L119.41 209.22 L118.50 208.03 L117.57 206.85 L116.64 205.68 L115.69 204.52 L114.73 203.37 L113.75 202.22 L112.77 201.09 L111.78 199.97 L110.77 198.86 L109.75 197.75 L108.73 196.66 L107.69 195.58 L106.64 194.51 L105.58 193.45 L104.51 192.40 L103.42 191.36 L102.33 190.33 L101.23 189.31 L100.12 188.30 L99.00 187.31 L97.87 186.32 L96.72 185.35 L95.57 184.39 L94.41 183.44 L93.24 182.50 L92.06 181.57 L90.87 180.66 L89.68 179.76 L88.47 178.87 L87.25 177.99 L86.03 177.12 L84.79 176.27 L83.55 175.43 L82.30 174.60 L81.05 173.78 L79.78 172.98 L78.50 172.18 L77.22 171.41 L75.93 170.64 L74.64 169.89 L73.33 169.15 L72.02 168.42 L70.70 167.71 L69.37 167.01 L68.04 166.32 L66.70 165.65 L65.35 164.98 L64.00 164.34 L62.64 163.70 L61.27 163.09 L59.90 162.48 L58.52 161.89 L57.14 161.31 L55.75 160.74 L54.35 160.19 L52.95 159.66 L51.55 159.14 L50.14 158.63 L48.72 158.13 L47.30 157.65 L45.87 157.19 L44.44 156.73 L43.01 156.30 L41.57 155.87 L40.12 155.47 L38.68 155.07 L37.23 154.69 L35.77 154.33 L34.31 153.98 L32.85 153.64 L31.39 153.32 L29.92 153.01 L28.45 152.72 L26.97 152.44 L25.50 152.18 L24.02 151.93 L22.53 151.70 L21.05 151.48 L19.56 151.28 L18.08 151.09 L16.59 150.92 L15.09 150.76 L13.60 150.62 L12.11 150.49 L10.61 150.38 L9.11 150.28 L7.62 150.19 L6.12 150.12 L4.62 150.07 L3.12 150.03 L1.62 150.01 L0.12 150.00 L-1.38 150.01 " style="fill:none;stroke:#ff0000;stroke-width:1;" /><path d="M150.00 300.00 L150.01 300.00 L150.03 300.00 L150.07 300.00 L150.12 300.00 L150.19 299.99 L150.27 299.99 L150.37 299.98 L150.48 299.97 L150.61 299.96 L150.75 299.95 L150.90 299.93 L151.08 299.91 L151.26 299.89 L151.46 299.86 L151.68 299.83 L151.91 299.80 L152.15 299.76 L152.41 299.71 L152.68 299.66 L152.97 299.60 L153.27 299.54 L153.59 299.47 L153.92 299.39 L154.26 299.31 L154.61 299.22 L154.98 299.13 L155.37 299.02 L155.77 298.91 L156.18 298.79 L156.60 298.66 L157.04 298.52 L157.48 298.38 L157.95 298.22 L158.42 298.06 L158.91 297.88 L159.41 297.70 L159.92 297.50 L160.44 297.30 L160.98 297.08 L161.52 296.85 L162.08 296.61 L162.65 296.36 L163.23 296.10 L163.82 295.82 L164.43 295.54 L165.04 295.24 L165.66 294.92 L166.30 294.60 L166.94 294.26 L167.59 293.90 L168.26 293.54 L168.93 293.16 L169.61 292.76 L170.30 292.35 L171.00 291.93 L171.71 291.49 L172.42 291.04 L173.15 290.57 L173.88 290.08 L174.62 289.58 L175.36 289.07 L176.12 288.54 L176.88 287.99 L177.65 287.42 L178.42 286.84 L179.20 286.24 L179.98 285.63 L180.77 284.99 L181.57 284.34 L182.37 283.68 L183.17 282.99 L183.98 282.29 L184.80 281.57 L185.62 280.83 L186.44 280.07 L187.26 279.29 L188.09 278.50 L188.92 277.68 L189.75 276.85 L190.59 276.00 L191.43 275.13 L192.26 274.24 L193.10 273.33 L193.94 272.40 L194.79 271.46 L195.63 270.49 L196.47 269.50 L197.31 268.49 L198.15 267.47 L198.99 266.42 L199.83 265.35 L200.67 264.26 L201.50 263.15 L202.33 262.03 L203.16 260.88 L203.99 259.71 L204.82 258.52 L205.64 257.31 L206.45 256.08 L207.27 254.82 L208.07 253.55 L208.88 252.26 L209.68 250.94 L210.47 249.61 L211.25 248.25 L212.04 246.88 L212.81 245.48 L213.58 244.06 L214.34 242.62 L215.09 241.16 L215.83 239.68 L216.57 238.18 L217.30 236.66 L218.02 235.11 L218.72 233.55 L219.42 231.96 L220.11 230.36 L220.79 228.73 L221.46 227.09 L222.12 225.42 L222.77 223.73 L223.40 222.02 L224.02 220.29 L224.64 218.54 L225.23 216.78 L225.82 214.99 L226.39 213.18 L226.95 211.35 L227.49 209.50 L228.02 207.63 L228.53 205.74 L229.03 203.83 L229.52 201.90 L229.98 199.96 L230.43 197.99 L230.87 196.00 L231.29 194.00 L231.69 191.98 L232.07 189.94 L232.44 187.88 L232.79 185.80 L233.12 183.70 L233.43 181.59 L233.72 179.45 L233.99 177.30 L234.24 175.13 L234.47 172.95 L234.69 170.75 L234.88 168.53 L235.05 166.29 L235.20 164.04 L235.32 161.77 L235.43 159.48 L235.51 157.18 L235.57 154.87 L235.61 152.54 L235.62 150.19 L235.61 147.83 L235.58 145.45 L235.52 143.06 L235.44 140.65 L235.33 138.23 L235.20 135.80 L235.04 133.35 L234.86 130.89 L234.65 128.41 L234.41 125.93 L234.15 123.43 L233.86 120.92 L233.55 118.39 L233.21 115.86 L232.84 113.31 L232.44 110.76 L232.01 108.19 L231.56 105.61 L231.08 103.02 L230.57 100.43 L230.03 97.82 L229.46 95.20 L228.86 92.58 L228.23 89.94 L227.57 87.30 L226.88 84.65 L226.16 82.00 L225.42 79.33 L224.64 76.66 L223.82 73.98 L222.98 71.30 L222.11 68.61 L221.20 65.92 L220.26 63.22 L219.30 60.51 L218.29 57.81 L217.26 55.09 L216.19 52.38 L215.09 49.66 L213.96 46.94 L212.80 44.21 L211.60 41.49 " style="fill:none;stroke:#ff0000;stroke-width:1;" /></g></svg>