  0
SECTION
  2
HEADER
  9
$ANGBASE
  50
0.0
  9
$ANGDIR
  70
  1
  9
$MEASUREMENT
  70
0
  0
ENDSEC
  0
SECTION
  2
TABLES
  0
TABLE
  2
LTYPE
  70
4
  0
LTYPE
  5
40F
  2
CONTINUOUS
  70
0
  3
Solid line
  72
65
  73
0
  40
0.0
  0
LTYPE
  5
410
  2
DASHDOT
 70
0
  3
Dash Dot ____ _ ____ _
 72
65
 73
4
 40
2.0
 49
1.25
 49
-0.25
 49
0.25
 49
-0.25
  0
LTYPE
  5
411
  2
DASHED
 70
0
  3
Dashed __ __ __ __ __
 72
65
 73
2
 40
0.75
 49
0.5
 49
-0.25
  0
LTYPE
  5
43B
  2
DOTTED
 70
0
  3
Dotted .  .  .  .
 72
65
 73
2
 40
0.2
 49
0.0
 49
-0.2
  0
ENDTAB
  0
TABLE
  2
STYLE
  70
4
  0
STYLE
  2
KICAD
  70
0
  40
0
  41
1
  42
1
  50
0
  71
0
  3
isocp.shx
  0
STYLE
  2
KICADB
  70
0
  40
0
  41
1
  42
1
  50
0
  71
0
  3
isocp.shx
  0
STYLE
  2
KICADI
  70
0
  40
0
  41
1
  42
1
  50
15
  71
0
  3
isocp.shx
  0
STYLE
  2
KICADBI
  70
0
  40
0
  41
1
  42
1
  50
15
  71
0
  3
isocp.shx
  0
ENDTAB
  0
TABLE
  2
LAYER
  70
30
  0
LAYER
  2
BLACK
  70
0
  62
7
  6
CONTINUOUS
  0
LAYER
  2
GRAY1
  70
0
  62
251
  6
CONTINUOUS
  0
LAYER
  2
GRAY2
  70
0
  62
8
  6
CONTINUOUS
  0
LAYER
  2
GRAY3
  70
0
  62
9
  6
CONTINUOUS
  0
LAYER
  2
WHITE
  70
0
  62
7
  6
CONTINUOUS
  0
LAYER
  2
LYELLOW
  70
0
  62
51
  6
CONTINUOUS
  0
LAYER
  2
BLUE1
  70
0
  62
178
  6
CONTINUOUS
  0
LAYER
  2
GREEN1
  70
0
  62
98
  6
CONTINUOUS
  0
LAYER
  2
CYAN1
  70
0
  62
138
  6
CONTINUOUS
  0
LAYER
  2
RED1
  70
0
  62
18
  6
CONTINUOUS
  0
LAYER
  2
MAGENTA1
  70
0
  62
228
  6
CONTINUOUS
  0
LAYER
  2
BROWN1
  70
0
  62
58
  6
CONTINUOUS
  0
LAYER
  2
BLUE2
  70
0
  62
5
  6
CONTINUOUS
  0
LAYER
  2
GREEN2
  70
0
  62
3
  6
CONTINUOUS
  0
LAYER
  2
CYAN2
  70
0
  62
4
  6
CONTINUOUS
  0
LAYER
  2
RED2
  70
0
  62
1
  6
CONTINUOUS
  0
LAYER
  2
MAGENTA2
  70
0
  62
6
  6
CONTINUOUS
  0
LAYER
  2
BROWN2
  70
0
  62
54
  6
CONTINUOUS
  0
LAYER
  2
BLUE3
  70
0
  62
171
  6
CONTINUOUS
  0
LAYER
  2
GREEN3
  70
0
  62
91
  6
CONTINUOUS
  0
LAYER
  2
CYAN3
  70
0
  62
131
  6
CONTINUOUS
  0
LAYER
  2
RED3
  70
0
  62
11
  6
CONTINUOUS
  0
LAYER
  2
MAGENTA3
  70
0
  62
221
  6
CONTINUOUS
  0
LAYER
  2
YELLOW3
  70
0
  62
2
  6
CONTINUOUS
  0
LAYER
  2
BLUE4
  70
0
  62
5
  6
CONTINUOUS
  0
LAYER
  2
GREEN4
  70
0
  62
3
  6
CONTINUOUS
  0
LAYER
  2
CYAN4
  70
0
  62
4
  6
CONTINUOUS
  0
LAYER
  2
RED4
  70
0
  62
1
  6
CONTINUOUS
  0
LAYER
  2
MAGENTA4
  70
0
  62
6
  6
CONTINUOUS
  0
LAYER
  2
YELLOW4
  70
0
  62
2
  6
CONTINUOUS
  0
ENDTAB
  0
ENDSEC
  0
SECTION
  2
ENTITIES
0
LINE
8
BLACK
6
CONTINUOUS
10
92.7796
20
-167.614
11
93.0544
21
-167.773
0
LINE
8
BLACK
6
CONTINUOUS
10
93.0544
20
-167.773
11
93.2584
21
-168.016
0
LINE
8
BLACK
6
CONTINUOUS
10
93.2584
20
-168.016
11
93.367
21
-168.314
0
LINE
8
BLACK
6
CONTINUOUS
10
93.367
20
-168.314
11
93.367
21
-168.632
0
LINE
8
BLACK
6
CONTINUOUS
10
93.367
20
-168.632
11
93.2584
21
-168.93
0
LINE
8
BLACK
6
CONTINUOUS
10
93.2584
20
-168.93
11
93.0544
21
-169.173
0
LINE
8
BLACK
6
CONTINUOUS
10
93.0544
20
-169.173
11
92.7796
21
-169.332
0
LINE
8
BLACK
6
CONTINUOUS
10
92.7796
20
-169.332
11
92.5457
21
-169.373
0
LINE
8
BLACK
6
CONTINUOUS
10
92.5457
20
-169.373
11
90.5883
21
-169.373
0
LINE
8
BLACK
6
CONTINUOUS
10
90.5883
20
-169.373
11
90.3544
21
-169.332
0
LINE
8
BLACK
6
CONTINUOUS
10
90.3544
20
-169.332
11
90.0796
21
-169.173
0
LINE
8
BLACK
6
CONTINUOUS
10
90.0796
20
-169.173
11
89.8756
21
-168.93
0
LINE
8
BLACK
6
CONTINUOUS
10
89.8756
20
-168.93
11
89.767
21
-168.632
0
LINE
8
BLACK
6
CONTINUOUS
10
89.767
20
-168.632
11
89.767
21
-168.314
0
LINE
8
BLACK
6
CONTINUOUS
10
89.767
20
-168.314
11
89.8756
21
-168.016
0
LINE
8
BLACK
6
CONTINUOUS
10
89.8756
20
-168.016
11
90.0796
21
-167.773
0
LINE
8
BLACK
6
CONTINUOUS
10
90.0796
20
-167.773
11
90.3544
21
-167.614
0
LINE
8
BLACK
6
CONTINUOUS
10
90.3544
20
-167.614
11
90.5883
21
-167.573
0
LINE
8
BLACK
6
CONTINUOUS
10
90.5883
20
-167.573
11
92.5457
21
-167.573
0
LINE
8
BLACK
6
CONTINUOUS
10
92.5457
20
-167.573
11
92.7796
21
-167.614
0
LINE
8
BLACK
6
CONTINUOUS
10
93.2025
20
-164.088
11
93.2777
21
-164.131
0
LINE
8
BLACK
6
CONTINUOUS
10
93.2777
20
-164.131
11
93.3335
21
-164.198
0
LINE
8
BLACK
6
CONTINUOUS
10
93.3335
20
-164.198
11
93.367
21
-164.323
0
LINE
8
BLACK
6
CONTINUOUS
10
93.367
20
-164.323
11
93.367
21
-165.623
0
LINE
8
BLACK
6
CONTINUOUS
10
93.367
20
-165.623
11
93.3519
21
-165.709
0
LINE
8
BLACK
6
CONTINUOUS
10
93.3519
20
-165.709
11
93.3085
21
-165.784
0
LINE
8
BLACK
6
CONTINUOUS
10
93.3085
20
-165.784
11
93.242
21
-165.84
0
LINE
8
BLACK
6
CONTINUOUS
10
93.242
20
-165.84
11
93.117
21
-165.873
0
LINE
8
BLACK
6
CONTINUOUS
10
93.117
20
-165.873
11
90.017
21
-165.873
0
LINE
8
BLACK
6
CONTINUOUS
10
90.017
20
-165.873
11
89.9315
21
-165.858
0
LINE
8
BLACK
6
CONTINUOUS
10
89.9315
20
-165.858
11
89.8563
21
-165.815
0
LINE
8
BLACK
6
CONTINUOUS
10
89.8563
20
-165.815
11
89.8005
21
-165.748
0
LINE
8
BLACK
6
CONTINUOUS
10
89.8005
20
-165.748
11
89.767
21
-165.623
0
LINE
8
BLACK
6
CONTINUOUS
10
89.767
20
-165.623
11
89.767
21
-164.323
0
LINE
8
BLACK
6
CONTINUOUS
10
89.767
20
-164.323
11
89.7821
21
-164.237
0
LINE
8
BLACK
6
CONTINUOUS
10
89.7821
20
-164.237
11
89.8255
21
-164.162
0
LINE
8
BLACK
6
CONTINUOUS
10
89.8255
20
-164.162
11
89.892
21
-164.106
0
LINE
8
BLACK
6
CONTINUOUS
10
89.892
20
-164.106
11
90.017
21
-164.073
0
LINE
8
BLACK
6
CONTINUOUS
10
90.017
20
-164.073
11
93.117
21
-164.073
0
LINE
8
BLACK
6
CONTINUOUS
10
93.117
20
-164.073
11
93.2025
21
-164.088
0
LINE
8
BLACK
6
CONTINUOUS
10
92.7796
20
-155.31
11
93.0544
21
-155.469
0
LINE
8
BLACK
6
CONTINUOUS
10
93.0544
20
-155.469
11
93.2584
21
-155.712
0
LINE
8
BLACK
6
CONTINUOUS
10
93.2584
20
-155.712
11
93.367
21
-156.01
0
LINE
8
BLACK
6
CONTINUOUS
10
93.367
20
-156.01
11
93.367
21
-156.328
0
LINE
8
BLACK
6
CONTINUOUS
10
93.367
20
-156.328
11
93.2584
21
-156.626
0
LINE
8
BLACK
6
CONTINUOUS
10
93.2584
20
-156.626
11
93.0544
21
-156.869
0
LINE
8
BLACK
6
CONTINUOUS
10
93.0544
20
-156.869
11
92.7796
21
-157.028
0
LINE
8
BLACK
6
CONTINUOUS
10
92.7796
20
-157.028
11
92.5457
21
-157.069
0
LINE
8
BLACK
6
CONTINUOUS
10
92.5457
20
-157.069
11
90.5883
21
-157.069
0
LINE
8
BLACK
6
CONTINUOUS
10
90.5883
20
-157.069
11
90.3544
21
-157.028
0
LINE
8
BLACK
6
CONTINUOUS
10
90.3544
20
-157.028
11
90.0796
21
-156.869
0
LINE
8
BLACK
6
CONTINUOUS
10
90.0796
20
-156.869
11
89.8756
21
-156.626
0
LINE
8
BLACK
6
CONTINUOUS
10
89.8756
20
-156.626
11
89.767
21
-156.328
0
LINE
8
BLACK
6
CONTINUOUS
10
89.767
20
-156.328
11
89.767
21
-156.01
0
LINE
8
BLACK
6
CONTINUOUS
10
89.767
20
-156.01
11
89.8756
21
-155.712
0
LINE
8
BLACK
6
CONTINUOUS
10
89.8756
20
-155.712
11
90.0796
21
-155.469
0
LINE
8
BLACK
6
CONTINUOUS
10
90.0796
20
-155.469
11
90.3544
21
-155.31
0
LINE
8
BLACK
6
CONTINUOUS
10
90.3544
20
-155.31
11
90.5883
21
-155.269
0
LINE
8
BLACK
6
CONTINUOUS
10
90.5883
20
-155.269
11
92.5457
21
-155.269
0
LINE
8
BLACK
6
CONTINUOUS
10
92.5457
20
-155.269
11
92.7796
21
-155.31
0
LINE
8
BLACK
6
CONTINUOUS
10
92.7796
20
-151.81
11
93.0544
21
-151.969
0
LINE
8
BLACK
6
CONTINUOUS
10
93.0544
20
-151.969
11
93.2584
21
-152.212
0
LINE
8
BLACK
6
CONTINUOUS
10
93.2584
20
-152.212
11
93.367
21
-152.51
0
LINE
8
BLACK
6
CONTINUOUS
10
93.367
20
-152.51
11
93.367
21
-152.828
0
LINE
8
BLACK
6
CONTINUOUS
10
93.367
20
-152.828
11
93.2584
21
-153.126
0
LINE
8
BLACK
6
CONTINUOUS
10
93.2584
20
-153.126
11
93.0544
21
-153.369
0
LINE
8
BLACK
6
CONTINUOUS
10
93.0544
20
-153.369
11
92.7796
21
-153.528
0
LINE
8
BLACK
6
CONTINUOUS
10
92.7796
20
-153.528
11
92.5457
21
-153.569
0
LINE
8
BLACK
6
CONTINUOUS
10
92.5457
20
-153.569
11
90.5883
21
-153.569
0
LINE
8
BLACK
6
CONTINUOUS
10
90.5883
20
-153.569
11
90.3544
21
-153.528
0
LINE
8
BLACK
6
CONTINUOUS
10
90.3544
20
-153.528
11
90.0796
21
-153.369
0
LINE
8
BLACK
6
CONTINUOUS
10
90.0796
20
-153.369
11
89.8756
21
-153.126
0
LINE
8
BLACK
6
CONTINUOUS
10
89.8756
20
-153.126
11
89.767
21
-152.828
0
LINE
8
BLACK
6
CONTINUOUS
10
89.767
20
-152.828
11
89.767
21
-152.51
0
LINE
8
BLACK
6
CONTINUOUS
10
89.767
20
-152.51
11
89.8756
21
-152.212
0
LINE
8
BLACK
6
CONTINUOUS
10
89.8756
20
-152.212
11
90.0796
21
-151.969
0
LINE
8
BLACK
6
CONTINUOUS
10
90.0796
20
-151.969
11
90.3544
21
-151.81
0
LINE
8
BLACK
6
CONTINUOUS
10
90.3544
20
-151.81
11
90.5883
21
-151.769
0
LINE
8
BLACK
6
CONTINUOUS
10
90.5883
20
-151.769
11
92.5457
21
-151.769
0
LINE
8
BLACK
6
CONTINUOUS
10
92.5457
20
-151.769
11
92.7796
21
-151.81
0
LINE
8
BLACK
6
CONTINUOUS
10
109.449
20
-143.788
11
110.824
21
-144.582
0
LINE
8
BLACK
6
CONTINUOUS
10
110.824
20
-144.582
11
111.844
21
-145.797
0
LINE
8
BLACK
6
CONTINUOUS
10
111.844
20
-145.797
11
112.386
21
-147.289
0
LINE
8
BLACK
6
CONTINUOUS
10
112.386
20
-147.289
11
112.386
21
-148.875
0
LINE
8
BLACK
6
CONTINUOUS
10
112.386
20
-148.875
11
111.844
21
-150.367
0
LINE
8
BLACK
6
CONTINUOUS
10
111.844
20
-150.367
11
110.824
21
-151.582
0
LINE
8
BLACK
6
CONTINUOUS
10
110.824
20
-151.582
11
109.449
21
-152.376
0
LINE
8
BLACK
6
CONTINUOUS
10
109.449
20
-152.376
11
107.886
21
-152.651
0
LINE
8
BLACK
6
CONTINUOUS
10
107.886
20
-152.651
11
106.324
21
-152.376
0
LINE
8
BLACK
6
CONTINUOUS
10
106.324
20
-152.376
11
104.949
21
-151.582
0
LINE
8
BLACK
6
CONTINUOUS
10
104.949
20
-151.582
11
103.929
21
-150.367
0
LINE
8
BLACK
6
CONTINUOUS
10
103.929
20
-150.367
11
103.386
21
-148.875
0
LINE
8
BLACK
6
CONTINUOUS
10
103.386
20
-148.875
11
103.386
21
-147.289
0
LINE
8
BLACK
6
CONTINUOUS
10
103.386
20
-147.289
11
103.929
21
-145.797
0
LINE
8
BLACK
6
CONTINUOUS
10
103.929
20
-145.797
11
104.949
21
-144.582
0
LINE
8
BLACK
6
CONTINUOUS
10
104.949
20
-144.582
11
106.324
21
-143.788
0
LINE
8
BLACK
6
CONTINUOUS
10
106.324
20
-143.788
11
107.886
21
-143.513
0
LINE
8
BLACK
6
CONTINUOUS
10
107.886
20
-143.513
11
109.449
21
-143.788
0
LINE
8
BLACK
6
CONTINUOUS
10
143.041
20
-143.725
11
144.415
21
-144.518
0
LINE
8
BLACK
6
CONTINUOUS
10
144.415
20
-144.518
11
145.435
21
-145.734
0
LINE
8
BLACK
6
CONTINUOUS
10
145.435
20
-145.734
11
145.978
21
-147.225
0
LINE
8
BLACK
6
CONTINUOUS
10
145.978
20
-147.225
11
145.978
21
-148.812
0
LINE
8
BLACK
6
CONTINUOUS
10
145.978
20
-148.812
11
145.435
21
-150.303
0
LINE
8
BLACK
6
CONTINUOUS
10
145.435
20
-150.303
11
144.415
21
-151.519
0
LINE
8
BLACK
6
CONTINUOUS
10
144.415
20
-151.519
11
143.041
21
-152.312
0
LINE
8
BLACK
6
CONTINUOUS
10
143.041
20
-152.312
11
141.478
21
-152.588
0
LINE
8
BLACK
6
CONTINUOUS
10
141.478
20
-152.588
11
139.915
21
-152.312
0
LINE
8
BLACK
6
CONTINUOUS
10
139.915
20
-152.312
11
138.541
21
-151.519
0
LINE
8
BLACK
6
CONTINUOUS
10
138.541
20
-151.519
11
137.521
21
-150.303
0
LINE
8
BLACK
6
CONTINUOUS
10
137.521
20
-150.303
11
136.978
21
-148.812
0
LINE
8
BLACK
6
CONTINUOUS
10
136.978
20
-148.812
11
136.978
21
-147.225
0
LINE
8
BLACK
6
CONTINUOUS
10
136.978
20
-147.225
11
137.521
21
-145.734
0
LINE
8
BLACK
6
CONTINUOUS
10
137.521
20
-145.734
11
138.541
21
-144.518
0
LINE
8
BLACK
6
CONTINUOUS
10
138.541
20
-144.518
11
139.915
21
-143.725
0
LINE
8
BLACK
6
CONTINUOUS
10
139.915
20
-143.725
11
141.478
21
-143.449
0
LINE
8
BLACK
6
CONTINUOUS
10
141.478
20
-143.449
11
143.041
21
-143.725
0
LINE
8
BLACK
6
CONTINUOUS
10
92.7796
20
-148.31
11
93.0544
21
-148.469
0
LINE
8
BLACK
6
CONTINUOUS
10
93.0544
20
-148.469
11
93.2584
21
-148.712
0
LINE
8
BLACK
6
CONTINUOUS
10
93.2584
20
-148.712
11
93.367
21
-149.01
0
LINE
8
BLACK
6
CONTINUOUS
10
93.367
20
-149.01
11
93.367
21
-149.328
0
LINE
8
BLACK
6
CONTINUOUS
10
93.367
20
-149.328
11
93.2584
21
-149.626
0
LINE
8
BLACK
6
CONTINUOUS
10
93.2584
20
-149.626
11
93.0544
21
-149.869
0
LINE
8
BLACK
6
CONTINUOUS
10
93.0544
20
-149.869
11
92.7796
21
-150.028
0
LINE
8
BLACK
6
CONTINUOUS
10
92.7796
20
-150.028
11
92.5457
21
-150.069
0
LINE
8
BLACK
6
CONTINUOUS
10
92.5457
20
-150.069
11
90.5883
21
-150.069
0
LINE
8
BLACK
6
CONTINUOUS
10
90.5883
20
-150.069
11
90.3544
21
-150.028
0
LINE
8
BLACK
6
CONTINUOUS
10
90.3544
20
-150.028
11
90.0796
21
-149.869
0
LINE
8
BLACK
6
CONTINUOUS
10
90.0796
20
-149.869
11
89.8756
21
-149.626
0
LINE
8
BLACK
6
CONTINUOUS
10
89.8756
20
-149.626
11
89.767
21
-149.328
0
LINE
8
BLACK
6
CONTINUOUS
10
89.767
20
-149.328
11
89.767
21
-149.01
0
LINE
8
BLACK
6
CONTINUOUS
10
89.767
20
-149.01
11
89.8756
21
-148.712
0
LINE
8
BLACK
6
CONTINUOUS
10
89.8756
20
-148.712
11
90.0796
21
-148.469
0
LINE
8
BLACK
6
CONTINUOUS
10
90.0796
20
-148.469
11
90.3544
21
-148.31
0
LINE
8
BLACK
6
CONTINUOUS
10
90.3544
20
-148.31
11
90.5883
21
-148.269
0
LINE
8
BLACK
6
CONTINUOUS
10
90.5883
20
-148.269
11
92.5457
21
-148.269
0
LINE
8
BLACK
6
CONTINUOUS
10
92.5457
20
-148.269
11
92.7796
21
-148.31
0
LINE
8
BLACK
6
CONTINUOUS
10
93.2025
20
-144.784
11
93.2777
21
-144.827
0
LINE
8
BLACK
6
CONTINUOUS
10
93.2777
20
-144.827
11
93.3335
21
-144.894
0
LINE
8
BLACK
6
CONTINUOUS
10
93.3335
20
-144.894
11
93.367
21
-145.019
0
LINE
8
BLACK
6
CONTINUOUS
10
93.367
20
-145.019
11
93.367
21
-146.319
0
LINE
8
BLACK
6
CONTINUOUS
10
93.367
20
-146.319
11
93.3519
21
-146.405
0
LINE
8
BLACK
6
CONTINUOUS
10
93.3519
20
-146.405
11
93.3085
21
-146.48
0
LINE
8
BLACK
6
CONTINUOUS
10
93.3085
20
-146.48
11
93.242
21
-146.536
0
LINE
8
BLACK
6
CONTINUOUS
10
93.242
20
-146.536
11
93.117
21
-146.569
0
LINE
8
BLACK
6
CONTINUOUS
10
93.117
20
-146.569
11
90.017
21
-146.569
0
LINE
8
BLACK
6
CONTINUOUS
10
90.017
20
-146.569
11
89.9315
21
-146.554
0
LINE
8
BLACK
6
CONTINUOUS
10
89.9315
20
-146.554
11
89.8563
21
-146.511
0
LINE
8
BLACK
6
CONTINUOUS
10
89.8563
20
-146.511
11
89.8005
21
-146.444
0
LINE
8
BLACK
6
CONTINUOUS
10
89.8005
20
-146.444
11
89.767
21
-146.319
0
LINE
8
BLACK
6
CONTINUOUS
10
89.767
20
-146.319
11
89.767
21
-145.019
0
LINE
8
BLACK
6
CONTINUOUS
10
89.767
20
-145.019
11
89.7821
21
-144.933
0
LINE
8
BLACK
6
CONTINUOUS
10
89.7821
20
-144.933
11
89.8255
21
-144.858
0
LINE
8
BLACK
6
CONTINUOUS
10
89.8255
20
-144.858
11
89.892
21
-144.802
0
LINE
8
BLACK
6
CONTINUOUS
10
89.892
20
-144.802
11
90.017
21
-144.769
0
LINE
8
BLACK
6
CONTINUOUS
10
90.017
20
-144.769
11
93.117
21
-144.769
0
LINE
8
BLACK
6
CONTINUOUS
10
93.117
20
-144.769
11
93.2025
21
-144.784
0
LINE
8
BLACK
6
CONTINUOUS
10
92.7796
20
-136.798
11
93.0544
21
-136.957
0
LINE
8
BLACK
6
CONTINUOUS
10
93.0544
20
-136.957
11
93.2584
21
-137.2
0
LINE
8
BLACK
6
CONTINUOUS
10
93.2584
20
-137.2
11
93.367
21
-137.498
0
LINE
8
BLACK
6
CONTINUOUS
10
93.367
20
-137.498
11
93.367
21
-137.816
0
LINE
8
BLACK
6
CONTINUOUS
10
93.367
20
-137.816
11
93.2584
21
-138.114
0
LINE
8
BLACK
6
CONTINUOUS
10
93.2584
20
-138.114
11
93.0544
21
-138.357
0
LINE
8
BLACK
6
CONTINUOUS
10
93.0544
20
-138.357
11
92.7796
21
-138.516
0
LINE
8
BLACK
6
CONTINUOUS
10
92.7796
20
-138.516
11
92.5457
21
-138.557
0
LINE
8
BLACK
6
CONTINUOUS
10
92.5457
20
-138.557
11
90.5883
21
-138.557
0
LINE
8
BLACK
6
CONTINUOUS
10
90.5883
20
-138.557
11
90.3544
21
-138.516
0
LINE
8
BLACK
6
CONTINUOUS
10
90.3544
20
-138.516
11
90.0796
21
-138.357
0
LINE
8
BLACK
6
CONTINUOUS
10
90.0796
20
-138.357
11
89.8756
21
-138.114
0
LINE
8
BLACK
6
CONTINUOUS
10
89.8756
20
-138.114
11
89.767
21
-137.816
0
LINE
8
BLACK
6
CONTINUOUS
10
89.767
20
-137.816
11
89.767
21
-137.498
0
LINE
8
BLACK
6
CONTINUOUS
10
89.767
20
-137.498
11
89.8756
21
-137.2
0
LINE
8
BLACK
6
CONTINUOUS
10
89.8756
20
-137.2
11
90.0796
21
-136.957
0
LINE
8
BLACK
6
CONTINUOUS
10
90.0796
20
-136.957
11
90.3544
21
-136.798
0
LINE
8
BLACK
6
CONTINUOUS
10
90.3544
20
-136.798
11
90.5883
21
-136.757
0
LINE
8
BLACK
6
CONTINUOUS
10
90.5883
20
-136.757
11
92.5457
21
-136.757
0
LINE
8
BLACK
6
CONTINUOUS
10
92.5457
20
-136.757
11
92.7796
21
-136.798
0
LINE
8
BLACK
6
CONTINUOUS
10
92.7796
20
-133.298
11
93.0544
21
-133.457
0
LINE
8
BLACK
6
CONTINUOUS
10
93.0544
20
-133.457
11
93.2584
21
-133.7
0
LINE
8
BLACK
6
CONTINUOUS
10
93.2584
20
-133.7
11
93.367
21
-133.998
0
LINE
8
BLACK
6
CONTINUOUS
10
93.367
20
-133.998
11
93.367
21
-134.316
0
LINE
8
BLACK
6
CONTINUOUS
10
93.367
20
-134.316
11
93.2584
21
-134.614
0
LINE
8
BLACK
6
CONTINUOUS
10
93.2584
20
-134.614
11
93.0544
21
-134.857
0
LINE
8
BLACK
6
CONTINUOUS
10
93.0544
20
-134.857
11
92.7796
21
-135.016
0
LINE
8
BLACK
6
CONTINUOUS
10
92.7796
20
-135.016
11
92.5457
21
-135.057
0
LINE
8
BLACK
6
CONTINUOUS
10
92.5457
20
-135.057
11
90.5883
21
-135.057
0
LINE
8
BLACK
6
CONTINUOUS
10
90.5883
20
-135.057
11
90.3544
21
-135.016
0
LINE
8
BLACK
6
CONTINUOUS
10
90.3544
20
-135.016
11
90.0796
21
-134.857
0
LINE
8
BLACK
6
CONTINUOUS
10
90.0796
20
-134.857
11
89.8756
21
-134.614
0
LINE
8
BLACK
6
CONTINUOUS
10
89.8756
20
-134.614
11
89.767
21
-134.316
0
LINE
8
BLACK
6
CONTINUOUS
10
89.767
20
-134.316
11
89.767
21
-133.998
0
LINE
8
BLACK
6
CONTINUOUS
10
89.767
20
-133.998
11
89.8756
21
-133.7
0
LINE
8
BLACK
6
CONTINUOUS
10
89.8756
20
-133.7
11
90.0796
21
-133.457
0
LINE
8
BLACK
6
CONTINUOUS
10
90.0796
20
-133.457
11
90.3544
21
-133.298
0
LINE
8
BLACK
6
CONTINUOUS
10
90.3544
20
-133.298
11
90.5883
21
-133.257
0
LINE
8
BLACK
6
CONTINUOUS
10
90.5883
20
-133.257
11
92.5457
21
-133.257
0
LINE
8
BLACK
6
CONTINUOUS
10
92.5457
20
-133.257
11
92.7796
21
-133.298
0
LINE
8
BLACK
6
CONTINUOUS
10
92.7796
20
-129.798
11
93.0544
21
-129.957
0
LINE
8
BLACK
6
CONTINUOUS
10
93.0544
20
-129.957
11
93.2584
21
-130.2
0
LINE
8
BLACK
6
CONTINUOUS
10
93.2584
20
-130.2
11
93.367
21
-130.498
0
LINE
8
BLACK
6
CONTINUOUS
10
93.367
20
-130.498
11
93.367
21
-130.816
0
LINE
8
BLACK
6
CONTINUOUS
10
93.367
20
-130.816
11
93.2584
21
-131.114
0
LINE
8
BLACK
6
CONTINUOUS
10
93.2584
20
-131.114
11
93.0544
21
-131.357
0
LINE
8
BLACK
6
CONTINUOUS
10
93.0544
20
-131.357
11
92.7796
21
-131.516
0
LINE
8
BLACK
6
CONTINUOUS
10
92.7796
20
-131.516
11
92.5457
21
-131.557
0
LINE
8
BLACK
6
CONTINUOUS
10
92.5457
20
-131.557
11
90.5883
21
-131.557
0
LINE
8
BLACK
6
CONTINUOUS
10
90.5883
20
-131.557
11
90.3544
21
-131.516
0
LINE
8
BLACK
6
CONTINUOUS
10
90.3544
20
-131.516
11
90.0796
21
-131.357
0
LINE
8
BLACK
6
CONTINUOUS
10
90.0796
20
-131.357
11
89.8756
21
-131.114
0
LINE
8
BLACK
6
CONTINUOUS
10
89.8756
20
-131.114
11
89.767
21
-130.816
0
LINE
8
BLACK
6
CONTINUOUS
10
89.767
20
-130.816
11
89.767
21
-130.498
0
LINE
8
BLACK
6
CONTINUOUS
10
89.767
20
-130.498
11
89.8756
21
-130.2
0
LINE
8
BLACK
6
CONTINUOUS
10
89.8756
20
-130.2
11
90.0796
21
-129.957
0
LINE
8
BLACK
6
CONTINUOUS
10
90.0796
20
-129.957
11
90.3544
21
-129.798
0
LINE
8
BLACK
6
CONTINUOUS
10
90.3544
20
-129.798
11
90.5883
21
-129.757
0
LINE
8
BLACK
6
CONTINUOUS
10
90.5883
20
-129.757
11
92.5457
21
-129.757
0
LINE
8
BLACK
6
CONTINUOUS
10
92.5457
20
-129.757
11
92.7796
21
-129.798
0
LINE
8
BLACK
6
CONTINUOUS
10
92.7796
20
-126.298
11
93.0544
21
-126.457
0
LINE
8
BLACK
6
CONTINUOUS
10
93.0544
20
-126.457
11
93.2584
21
-126.7
0
LINE
8
BLACK
6
CONTINUOUS
10
93.2584
20
-126.7
11
93.367
21
-126.998
0
LINE
8
BLACK
6
CONTINUOUS
10
93.367
20
-126.998
11
93.367
21
-127.316
0
LINE
8
BLACK
6
CONTINUOUS
10
93.367
20
-127.316
11
93.2584
21
-127.614
0
LINE
8
BLACK
6
CONTINUOUS
10
93.2584
20
-127.614
11
93.0544
21
-127.857
0
LINE
8
BLACK
6
CONTINUOUS
10
93.0544
20
-127.857
11
92.7796
21
-128.016
0
LINE
8
BLACK
6
CONTINUOUS
10
92.7796
20
-128.016
11
92.5457
21
-128.057
0
LINE
8
BLACK
6
CONTINUOUS
10
92.5457
20
-128.057
11
90.5883
21
-128.057
0
LINE
8
BLACK
6
CONTINUOUS
10
90.5883
20
-128.057
11
90.3544
21
-128.016
0
LINE
8
BLACK
6
CONTINUOUS
10
90.3544
20
-128.016
11
90.0796
21
-127.857
0
LINE
8
BLACK
6
CONTINUOUS
10
90.0796
20
-127.857
11
89.8756
21
-127.614
0
LINE
8
BLACK
6
CONTINUOUS
10
89.8756
20
-127.614
11
89.767
21
-127.316
0
LINE
8
BLACK
6
CONTINUOUS
10
89.767
20
-127.316
11
89.767
21
-126.998
0
LINE
8
BLACK
6
CONTINUOUS
10
89.767
20
-126.998
11
89.8756
21
-126.7
0
LINE
8
BLACK
6
CONTINUOUS
10
89.8756
20
-126.7
11
90.0796
21
-126.457
0
LINE
8
BLACK
6
CONTINUOUS
10
90.0796
20
-126.457
11
90.3544
21
-126.298
0
LINE
8
BLACK
6
CONTINUOUS
10
90.3544
20
-126.298
11
90.5883
21
-126.257
0
LINE
8
BLACK
6
CONTINUOUS
10
90.5883
20
-126.257
11
92.5457
21
-126.257
0
LINE
8
BLACK
6
CONTINUOUS
10
92.5457
20
-126.257
11
92.7796
21
-126.298
0
LINE
8
BLACK
6
CONTINUOUS
10
92.7796
20
-122.798
11
93.0544
21
-122.957
0
LINE
8
BLACK
6
CONTINUOUS
10
93.0544
20
-122.957
11
93.2584
21
-123.2
0
LINE
8
BLACK
6
CONTINUOUS
10
93.2584
20
-123.2
11
93.367
21
-123.498
0
LINE
8
BLACK
6
CONTINUOUS
10
93.367
20
-123.498
11
93.367
21
-123.816
0
LINE
8
BLACK
6
CONTINUOUS
10
93.367
20
-123.816
11
93.2584
21
-124.114
0
LINE
8
BLACK
6
CONTINUOUS
10
93.2584
20
-124.114
11
93.0544
21
-124.357
0
LINE
8
BLACK
6
CONTINUOUS
10
93.0544
20
-124.357
11
92.7796
21
-124.516
0
LINE
8
BLACK
6
CONTINUOUS
10
92.7796
20
-124.516
11
92.5457
21
-124.557
0
LINE
8
BLACK
6
CONTINUOUS
10
92.5457
20
-124.557
11
90.5883
21
-124.557
0
LINE
8
BLACK
6
CONTINUOUS
10
90.5883
20
-124.557
11
90.3544
21
-124.516
0
LINE
8
BLACK
6
CONTINUOUS
10
90.3544
20
-124.516
11
90.0796
21
-124.357
0
LINE
8
BLACK
6
CONTINUOUS
10
90.0796
20
-124.357
11
89.8756
21
-124.114
0
LINE
8
BLACK
6
CONTINUOUS
10
89.8756
20
-124.114
11
89.767
21
-123.816
0
LINE
8
BLACK
6
CONTINUOUS
10
89.767
20
-123.816
11
89.767
21
-123.498
0
LINE
8
BLACK
6
CONTINUOUS
10
89.767
20
-123.498
11
89.8756
21
-123.2
0
LINE
8
BLACK
6
CONTINUOUS
10
89.8756
20
-123.2
11
90.0796
21
-122.957
0
LINE
8
BLACK
6
CONTINUOUS
10
90.0796
20
-122.957
11
90.3544
21
-122.798
0
LINE
8
BLACK
6
CONTINUOUS
10
90.3544
20
-122.798
11
90.5883
21
-122.757
0
LINE
8
BLACK
6
CONTINUOUS
10
90.5883
20
-122.757
11
92.5457
21
-122.757
0
LINE
8
BLACK
6
CONTINUOUS
10
92.5457
20
-122.757
11
92.7796
21
-122.798
0
LINE
8
BLACK
6
CONTINUOUS
10
92.7796
20
-119.298
11
93.0544
21
-119.457
0
LINE
8
BLACK
6
CONTINUOUS
10
93.0544
20
-119.457
11
93.2584
21
-119.7
0
LINE
8
BLACK
6
CONTINUOUS
10
93.2584
20
-119.7
11
93.367
21
-119.998
0
LINE
8
BLACK
6
CONTINUOUS
10
93.367
20
-119.998
11
93.367
21
-120.316
0
LINE
8
BLACK
6
CONTINUOUS
10
93.367
20
-120.316
11
93.2584
21
-120.614
0
LINE
8
BLACK
6
CONTINUOUS
10
93.2584
20
-120.614
11
93.0544
21
-120.857
0
LINE
8
BLACK
6
CONTINUOUS
10
93.0544
20
-120.857
11
92.7796
21
-121.016
0
LINE
8
BLACK
6
CONTINUOUS
10
92.7796
20
-121.016
11
92.5457
21
-121.057
0
LINE
8
BLACK
6
CONTINUOUS
10
92.5457
20
-121.057
11
90.5883
21
-121.057
0
LINE
8
BLACK
6
CONTINUOUS
10
90.5883
20
-121.057
11
90.3544
21
-121.016
0
LINE
8
BLACK
6
CONTINUOUS
10
90.3544
20
-121.016
11
90.0796
21
-120.857
0
LINE
8
BLACK
6
CONTINUOUS
10
90.0796
20
-120.857
11
89.8756
21
-120.614
0
LINE
8
BLACK
6
CONTINUOUS
10
89.8756
20
-120.614
11
89.767
21
-120.316
0
LINE
8
BLACK
6
CONTINUOUS
10
89.767
20
-120.316
11
89.767
21
-119.998
0
LINE
8
BLACK
6
CONTINUOUS
10
89.767
20
-119.998
11
89.8756
21
-119.7
0
LINE
8
BLACK
6
CONTINUOUS
10
89.8756
20
-119.7
11
90.0796
21
-119.457
0
LINE
8
BLACK
6
CONTINUOUS
10
90.0796
20
-119.457
11
90.3544
21
-119.298
0
LINE
8
BLACK
6
CONTINUOUS
10
90.3544
20
-119.298
11
90.5883
21
-119.257
0
LINE
8
BLACK
6
CONTINUOUS
10
90.5883
20
-119.257
11
92.5457
21
-119.257
0
LINE
8
BLACK
6
CONTINUOUS
10
92.5457
20
-119.257
11
92.7796
21
-119.298
0
LINE
8
BLACK
6
CONTINUOUS
10
92.7796
20
-115.798
11
93.0544
21
-115.957
0
LINE
8
BLACK
6
CONTINUOUS
10
93.0544
20
-115.957
11
93.2584
21
-116.2
0
LINE
8
BLACK
6
CONTINUOUS
10
93.2584
20
-116.2
11
93.367
21
-116.498
0
LINE
8
BLACK
6
CONTINUOUS
10
93.367
20
-116.498
11
93.367
21
-116.816
0
LINE
8
BLACK
6
CONTINUOUS
10
93.367
20
-116.816
11
93.2584
21
-117.114
0
LINE
8
BLACK
6
CONTINUOUS
10
93.2584
20
-117.114
11
93.0544
21
-117.357
0
LINE
8
BLACK
6
CONTINUOUS
10
93.0544
20
-117.357
11
92.7796
21
-117.516
0
LINE
8
BLACK
6
CONTINUOUS
10
92.7796
20
-117.516
11
92.5457
21
-117.557
0
LINE
8
BLACK
6
CONTINUOUS
10
92.5457
20
-117.557
11
90.5883
21
-117.557
0
LINE
8
BLACK
6
CONTINUOUS
10
90.5883
20
-117.557
11
90.3544
21
-117.516
0
LINE
8
BLACK
6
CONTINUOUS
10
90.3544
20
-117.516
11
90.0796
21
-117.357
0
LINE
8
BLACK
6
CONTINUOUS
10
90.0796
20
-117.357
11
89.8756
21
-117.114
0
LINE
8
BLACK
6
CONTINUOUS
10
89.8756
20
-117.114
11
89.767
21
-116.816
0
LINE
8
BLACK
6
CONTINUOUS
10
89.767
20
-116.816
11
89.767
21
-116.498
0
LINE
8
BLACK
6
CONTINUOUS
10
89.767
20
-116.498
11
89.8756
21
-116.2
0
LINE
8
BLACK
6
CONTINUOUS
10
89.8756
20
-116.2
11
90.0796
21
-115.957
0
LINE
8
BLACK
6
CONTINUOUS
10
90.0796
20
-115.957
11
90.3544
21
-115.798
0
LINE
8
BLACK
6
CONTINUOUS
10
90.3544
20
-115.798
11
90.5883
21
-115.757
0
LINE
8
BLACK
6
CONTINUOUS
10
90.5883
20
-115.757
11
92.5457
21
-115.757
0
LINE
8
BLACK
6
CONTINUOUS
10
92.5457
20
-115.757
11
92.7796
21
-115.798
0
LINE
8
BLACK
6
CONTINUOUS
10
93.2025
20
-112.272
11
93.2777
21
-112.315
0
LINE
8
BLACK
6
CONTINUOUS
10
93.2777
20
-112.315
11
93.3335
21
-112.382
0
LINE
8
BLACK
6
CONTINUOUS
10
93.3335
20
-112.382
11
93.367
21
-112.507
0
LINE
8
BLACK
6
CONTINUOUS
10
93.367
20
-112.507
11
93.367
21
-113.807
0
LINE
8
BLACK
6
CONTINUOUS
10
93.367
20
-113.807
11
93.3519
21
-113.893
0
LINE
8
BLACK
6
CONTINUOUS
10
93.3519
20
-113.893
11
93.3085
21
-113.968
0
LINE
8
BLACK
6
CONTINUOUS
10
93.3085
20
-113.968
11
93.242
21
-114.024
0
LINE
8
BLACK
6
CONTINUOUS
10
93.242
20
-114.024
11
93.117
21
-114.057
0
LINE
8
BLACK
6
CONTINUOUS
10
93.117
20
-114.057
11
90.017
21
-114.057
0
LINE
8
BLACK
6
CONTINUOUS
10
90.017
20
-114.057
11
89.9315
21
-114.042
0
LINE
8
BLACK
6
CONTINUOUS
10
89.9315
20
-114.042
11
89.8563
21
-113.999
0
LINE
8
BLACK
6
CONTINUOUS
10
89.8563
20
-113.999
11
89.8005
21
-113.932
0
LINE
8
BLACK
6
CONTINUOUS
10
89.8005
20
-113.932
11
89.767
21
-113.807
0
LINE
8
BLACK
6
CONTINUOUS
10
89.767
20
-113.807
11
89.767
21
-112.507
0
LINE
8
BLACK
6
CONTINUOUS
10
89.767
20
-112.507
11
89.7821
21
-112.421
0
LINE
8
BLACK
6
CONTINUOUS
10
89.7821
20
-112.421
11
89.8255
21
-112.346
0
LINE
8
BLACK
6
CONTINUOUS
10
89.8255
20
-112.346
11
89.892
21
-112.29
0
LINE
8
BLACK
6
CONTINUOUS
10
89.892
20
-112.29
11
90.017
21
-112.257
0
LINE
8
BLACK
6
CONTINUOUS
10
90.017
20
-112.257
11
93.117
21
-112.257
0
LINE
8
BLACK
6
CONTINUOUS
10
93.117
20
-112.257
11
93.2025
21
-112.272
0
LINE
8
BLACK
6
CONTINUOUS
10
139.887
20
-108.135
11
140.275
21
-108.359
0
LINE
8
BLACK
6
CONTINUOUS
10
140.275
20
-108.359
11
140.563
21
-108.702
0
LINE
8
BLACK
6
CONTINUOUS
10
140.563
20
-108.702
11
140.716
21
-109.123
0
LINE
8
BLACK
6
CONTINUOUS
10
140.716
20
-109.123
11
140.716
21
-109.571
0
LINE
8
BLACK
6
CONTINUOUS
10
140.716
20
-109.571
11
140.563
21
-109.992
0
LINE
8
BLACK
6
CONTINUOUS
10
140.563
20
-109.992
11
140.275
21
-110.335
0
LINE
8
BLACK
6
CONTINUOUS
10
140.275
20
-110.335
11
139.887
21
-110.559
0
LINE
8
BLACK
6
CONTINUOUS
10
139.887
20
-110.559
11
139.446
21
-110.637
0
LINE
8
BLACK
6
CONTINUOUS
10
139.446
20
-110.637
11
139.005
21
-110.559
0
LINE
8
BLACK
6
CONTINUOUS
10
139.005
20
-110.559
11
138.617
21
-110.335
0
LINE
8
BLACK
6
CONTINUOUS
10
138.617
20
-110.335
11
138.329
21
-109.992
0
LINE
8
BLACK
6
CONTINUOUS
10
138.329
20
-109.992
11
138.176
21
-109.571
0
LINE
8
BLACK
6
CONTINUOUS
10
138.176
20
-109.571
11
138.176
21
-109.123
0
LINE
8
BLACK
6
CONTINUOUS
10
138.176
20
-109.123
11
138.329
21
-108.702
0
LINE
8
BLACK
6
CONTINUOUS
10
138.329
20
-108.702
11
138.617
21
-108.359
0
LINE
8
BLACK
6
CONTINUOUS
10
138.617
20
-108.359
11
139.005
21
-108.135
0
LINE
8
BLACK
6
CONTINUOUS
10
139.005
20
-108.135
11
139.446
21
-108.057
0
LINE
8
BLACK
6
CONTINUOUS
10
139.446
20
-108.057
11
139.887
21
-108.135
0
LINE
8
BLACK
6
CONTINUOUS
10
155.127
20
-108.135
11
155.515
21
-108.359
0
LINE
8
BLACK
6
CONTINUOUS
10
155.515
20
-108.359
11
155.803
21
-108.702
0
LINE
8
BLACK
6
CONTINUOUS
10
155.803
20
-108.702
11
155.956
21
-109.123
0
LINE
8
BLACK
6
CONTINUOUS
10
155.956
20
-109.123
11
155.956
21
-109.571
0
LINE
8
BLACK
6
CONTINUOUS
10
155.956
20
-109.571
11
155.803
21
-109.992
0
LINE
8
BLACK
6
CONTINUOUS
10
155.803
20
-109.992
11
155.515
21
-110.335
0
LINE
8
BLACK
6
CONTINUOUS
10
155.515
20
-110.335
11
155.127
21
-110.559
0
LINE
8
BLACK
6
CONTINUOUS
10
155.127
20
-110.559
11
154.686
21
-110.637
0
LINE
8
BLACK
6
CONTINUOUS
10
154.686
20
-110.637
11
154.245
21
-110.559
0
LINE
8
BLACK
6
CONTINUOUS
10
154.245
20
-110.559
11
153.857
21
-110.335
0
LINE
8
BLACK
6
CONTINUOUS
10
153.857
20
-110.335
11
153.569
21
-109.992
0
LINE
8
BLACK
6
CONTINUOUS
10
153.569
20
-109.992
11
153.416
21
-109.571
0
LINE
8
BLACK
6
CONTINUOUS
10
153.416
20
-109.571
11
153.416
21
-109.123
0
LINE
8
BLACK
6
CONTINUOUS
10
153.416
20
-109.123
11
153.569
21
-108.702
0
LINE
8
BLACK
6
CONTINUOUS
10
153.569
20
-108.702
11
153.857
21
-108.359
0
LINE
8
BLACK
6
CONTINUOUS
10
153.857
20
-108.359
11
154.245
21
-108.135
0
LINE
8
BLACK
6
CONTINUOUS
10
154.245
20
-108.135
11
154.686
21
-108.057
0
LINE
8
BLACK
6
CONTINUOUS
10
154.686
20
-108.057
11
155.127
21
-108.135
0
LINE
8
BLACK
6
CONTINUOUS
10
155.138
20
-105.983
11
155.402
21
-106.135
0
LINE
8
BLACK
6
CONTINUOUS
10
155.402
20
-106.135
11
155.598
21
-106.369
0
LINE
8
BLACK
6
CONTINUOUS
10
155.598
20
-106.369
11
155.702
21
-106.655
0
LINE
8
BLACK
6
CONTINUOUS
10
155.702
20
-106.655
11
155.702
21
-106.959
0
LINE
8
BLACK
6
CONTINUOUS
10
155.702
20
-106.959
11
155.598
21
-107.245
0
LINE
8
BLACK
6
CONTINUOUS
10
155.598
20
-107.245
11
155.402
21
-107.479
0
LINE
8
BLACK
6
CONTINUOUS
10
155.402
20
-107.479
11
155.138
21
-107.631
0
LINE
8
BLACK
6
CONTINUOUS
10
155.138
20
-107.631
11
154.914
21
-107.671
0
LINE
8
BLACK
6
CONTINUOUS
10
154.914
20
-107.671
11
154.458
21
-107.671
0
LINE
8
BLACK
6
CONTINUOUS
10
154.458
20
-107.671
11
154.234
21
-107.631
0
LINE
8
BLACK
6
CONTINUOUS
10
154.234
20
-107.631
11
153.97
21
-107.479
0
LINE
8
BLACK
6
CONTINUOUS
10
153.97
20
-107.479
11
153.774
21
-107.245
0
LINE
8
BLACK
6
CONTINUOUS
10
153.774
20
-107.245
11
153.67
21
-106.959
0
LINE
8
BLACK
6
CONTINUOUS
10
153.67
20
-106.959
11
153.67
21
-106.655
0
LINE
8
BLACK
6
CONTINUOUS
10
153.67
20
-106.655
11
153.774
21
-106.369
0
LINE
8
BLACK
6
CONTINUOUS
10
153.774
20
-106.369
11
153.97
21
-106.135
0
LINE
8
BLACK
6
CONTINUOUS
10
153.97
20
-106.135
11
154.234
21
-105.983
0
LINE
8
BLACK
6
CONTINUOUS
10
154.234
20
-105.983
11
154.458
21
-105.943
0
LINE
8
BLACK
6
CONTINUOUS
10
154.458
20
-105.943
11
154.914
21
-105.943
0
LINE
8
BLACK
6
CONTINUOUS
10
154.914
20
-105.943
11
155.138
21
-105.983
0
LINE
8
BLACK
6
CONTINUOUS
10
139.898
20
-105.983
11
140.162
21
-106.135
0
LINE
8
BLACK
6
CONTINUOUS
10
140.162
20
-106.135
11
140.358
21
-106.369
0
LINE
8
BLACK
6
CONTINUOUS
10
140.358
20
-106.369
11
140.462
21
-106.655
0
LINE
8
BLACK
6
CONTINUOUS
10
140.462
20
-106.655
11
140.462
21
-106.959
0
LINE
8
BLACK
6
CONTINUOUS
10
140.462
20
-106.959
11
140.358
21
-107.245
0
LINE
8
BLACK
6
CONTINUOUS
10
140.358
20
-107.245
11
140.162
21
-107.479
0
LINE
8
BLACK
6
CONTINUOUS
10
140.162
20
-107.479
11
139.898
21
-107.631
0
LINE
8
BLACK
6
CONTINUOUS
10
139.898
20
-107.631
11
139.674
21
-107.671
0
LINE
8
BLACK
6
CONTINUOUS
10
139.674
20
-107.671
11
139.218
21
-107.671
0
LINE
8
BLACK
6
CONTINUOUS
10
139.218
20
-107.671
11
138.994
21
-107.631
0
LINE
8
BLACK
6
CONTINUOUS
10
138.994
20
-107.631
11
138.73
21
-107.479
0
LINE
8
BLACK
6
CONTINUOUS
10
138.73
20
-107.479
11
138.534
21
-107.245
0
LINE
8
BLACK
6
CONTINUOUS
10
138.534
20
-107.245
11
138.43
21
-106.959
0
LINE
8
BLACK
6
CONTINUOUS
10
138.43
20
-106.959
11
138.43
21
-106.655
0
LINE
8
BLACK
6
CONTINUOUS
10
138.43
20
-106.655
11
138.534
21
-106.369
0
LINE
8
BLACK
6
CONTINUOUS
10
138.534
20
-106.369
11
138.73
21
-106.135
0
LINE
8
BLACK
6
CONTINUOUS
10
138.73
20
-106.135
11
138.994
21
-105.983
0
LINE
8
BLACK
6
CONTINUOUS
10
138.994
20
-105.983
11
139.218
21
-105.943
0
LINE
8
BLACK
6
CONTINUOUS
10
139.218
20
-105.943
11
139.674
21
-105.943
0
LINE
8
BLACK
6
CONTINUOUS
10
139.674
20
-105.943
11
139.898
21
-105.983
0
LINE
8
BLACK
6
CONTINUOUS
10
139.898
20
-103.443
11
140.162
21
-103.595
0
LINE
8
BLACK
6
CONTINUOUS
10
140.162
20
-103.595
11
140.358
21
-103.829
0
LINE
8
BLACK
6
CONTINUOUS
10
140.358
20
-103.829
11
140.462
21
-104.115
0
LINE
8
BLACK
6
CONTINUOUS
10
140.462
20
-104.115
11
140.462
21
-104.419
0
LINE
8
BLACK
6
CONTINUOUS
10
140.462
20
-104.419
11
140.358
21
-104.705
0
LINE
8
BLACK
6
CONTINUOUS
10
140.358
20
-104.705
11
140.162
21
-104.939
0
LINE
8
BLACK
6
CONTINUOUS
10
140.162
20
-104.939
11
139.898
21
-105.091
0
LINE
8
BLACK
6
CONTINUOUS
10
139.898
20
-105.091
11
139.674
21
-105.131
0
LINE
8
BLACK
6
CONTINUOUS
10
139.674
20
-105.131
11
139.218
21
-105.131
0
LINE
8
BLACK
6
CONTINUOUS
10
139.218
20
-105.131
11
138.994
21
-105.091
0
LINE
8
BLACK
6
CONTINUOUS
10
138.994
20
-105.091
11
138.73
21
-104.939
0
LINE
8
BLACK
6
CONTINUOUS
10
138.73
20
-104.939
11
138.534
21
-104.705
0
LINE
8
BLACK
6
CONTINUOUS
10
138.534
20
-104.705
11
138.43
21
-104.419
0
LINE
8
BLACK
6
CONTINUOUS
10
138.43
20
-104.419
11
138.43
21
-104.115
0
LINE
8
BLACK
6
CONTINUOUS
10
138.43
20
-104.115
11
138.534
21
-103.829
0
LINE
8
BLACK
6
CONTINUOUS
10
138.534
20
-103.829
11
138.73
21
-103.595
0
LINE
8
BLACK
6
CONTINUOUS
10
138.73
20
-103.595
11
138.994
21
-103.443
0
LINE
8
BLACK
6
CONTINUOUS
10
138.994
20
-103.443
11
139.218
21
-103.403
0
LINE
8
BLACK
6
CONTINUOUS
10
139.218
20
-103.403
11
139.674
21
-103.403
0
LINE
8
BLACK
6
CONTINUOUS
10
139.674
20
-103.403
11
139.898
21
-103.443
0
LINE
8
BLACK
6
CONTINUOUS
10
155.138
20
-103.443
11
155.402
21
-103.595
0
LINE
8
BLACK
6
CONTINUOUS
10
155.402
20
-103.595
11
155.598
21
-103.829
0
LINE
8
BLACK
6
CONTINUOUS
10
155.598
20
-103.829
11
155.702
21
-104.115
0
LINE
8
BLACK
6
CONTINUOUS
10
155.702
20
-104.115
11
155.702
21
-104.419
0
LINE
8
BLACK
6
CONTINUOUS
10
155.702
20
-104.419
11
155.598
21
-104.705
0
LINE
8
BLACK
6
CONTINUOUS
10
155.598
20
-104.705
11
155.402
21
-104.939
0
LINE
8
BLACK
6
CONTINUOUS
10
155.402
20
-104.939
11
155.138
21
-105.091
0
LINE
8
BLACK
6
CONTINUOUS
10
155.138
20
-105.091
11
154.914
21
-105.131
0
LINE
8
BLACK
6
CONTINUOUS
10
154.914
20
-105.131
11
154.458
21
-105.131
0
LINE
8
BLACK
6
CONTINUOUS
10
154.458
20
-105.131
11
154.234
21
-105.091
0
LINE
8
BLACK
6
CONTINUOUS
10
154.234
20
-105.091
11
153.97
21
-104.939
0
LINE
8
BLACK
6
CONTINUOUS
10
153.97
20
-104.939
11
153.774
21
-104.705
0
LINE
8
BLACK
6
CONTINUOUS
10
153.774
20
-104.705
11
153.67
21
-104.419
0
LINE
8
BLACK
6
CONTINUOUS
10
153.67
20
-104.419
11
153.67
21
-104.115
0
LINE
8
BLACK
6
CONTINUOUS
10
153.67
20
-104.115
11
153.774
21
-103.829
0
LINE
8
BLACK
6
CONTINUOUS
10
153.774
20
-103.829
11
153.97
21
-103.595
0
LINE
8
BLACK
6
CONTINUOUS
10
153.97
20
-103.595
11
154.234
21
-103.443
0
LINE
8
BLACK
6
CONTINUOUS
10
154.234
20
-103.443
11
154.458
21
-103.403
0
LINE
8
BLACK
6
CONTINUOUS
10
154.458
20
-103.403
11
154.914
21
-103.403
0
LINE
8
BLACK
6
CONTINUOUS
10
154.914
20
-103.403
11
155.138
21
-103.443
0
LINE
8
BLACK
6
CONTINUOUS
10
92.7796
20
-102.052
11
93.0544
21
-102.21
0
LINE
8
BLACK
6
CONTINUOUS
10
93.0544
20
-102.21
11
93.2584
21
-102.453
0
LINE
8
BLACK
6
CONTINUOUS
10
93.2584
20
-102.453
11
93.367
21
-102.752
0
LINE
8
BLACK
6
CONTINUOUS
10
93.367
20
-102.752
11
93.367
21
-103.069
0
LINE
8
BLACK
6
CONTINUOUS
10
93.367
20
-103.069
11
93.2584
21
-103.367
0
LINE
8
BLACK
6
CONTINUOUS
10
93.2584
20
-103.367
11
93.0544
21
-103.61
0
LINE
8
BLACK
6
CONTINUOUS
10
93.0544
20
-103.61
11
92.7796
21
-103.769
0
LINE
8
BLACK
6
CONTINUOUS
10
92.7796
20
-103.769
11
92.5457
21
-103.81
0
LINE
8
BLACK
6
CONTINUOUS
10
92.5457
20
-103.81
11
90.5883
21
-103.81
0
LINE
8
BLACK
6
CONTINUOUS
10
90.5883
20
-103.81
11
90.3544
21
-103.769
0
LINE
8
BLACK
6
CONTINUOUS
10
90.3544
20
-103.769
11
90.0796
21
-103.61
0
LINE
8
BLACK
6
CONTINUOUS
10
90.0796
20
-103.61
11
89.8756
21
-103.367
0
LINE
8
BLACK
6
CONTINUOUS
10
89.8756
20
-103.367
11
89.767
21
-103.069
0
LINE
8
BLACK
6
CONTINUOUS
10
89.767
20
-103.069
11
89.767
21
-102.752
0
LINE
8
BLACK
6
CONTINUOUS
10
89.767
20
-102.752
11
89.8756
21
-102.453
0
LINE
8
BLACK
6
CONTINUOUS
10
89.8756
20
-102.453
11
90.0796
21
-102.21
0
LINE
8
BLACK
6
CONTINUOUS
10
90.0796
20
-102.21
11
90.3544
21
-102.052
0
LINE
8
BLACK
6
CONTINUOUS
10
90.3544
20
-102.052
11
90.5883
21
-102.01
0
LINE
8
BLACK
6
CONTINUOUS
10
90.5883
20
-102.01
11
92.5457
21
-102.01
0
LINE
8
BLACK
6
CONTINUOUS
10
92.5457
20
-102.01
11
92.7796
21
-102.052
0
LINE
8
BLACK
6
CONTINUOUS
10
107.639
20
-102
11
107.913
21
-102.159
0
LINE
8
BLACK
6
CONTINUOUS
10
107.913
20
-102.159
11
108.117
21
-102.402
0
LINE
8
BLACK
6
CONTINUOUS
10
108.117
20
-102.402
11
108.226
21
-102.7
0
LINE
8
BLACK
6
CONTINUOUS
10
108.226
20
-102.7
11
108.226
21
-103.018
0
LINE
8
BLACK
6
CONTINUOUS
10
108.226
20
-103.018
11
108.117
21
-103.316
0
LINE
8
BLACK
6
CONTINUOUS
10
108.117
20
-103.316
11
107.913
21
-103.559
0
LINE
8
BLACK
6
CONTINUOUS
10
107.913
20
-103.559
11
107.639
21
-103.718
0
LINE
8
BLACK
6
CONTINUOUS
10
107.639
20
-103.718
11
107.405
21
-103.759
0
LINE
8
BLACK
6
CONTINUOUS
10
107.405
20
-103.759
11
105.447
21
-103.759
0
LINE
8
BLACK
6
CONTINUOUS
10
105.447
20
-103.759
11
105.213
21
-103.718
0
LINE
8
BLACK
6
CONTINUOUS
10
105.213
20
-103.718
11
104.939
21
-103.559
0
LINE
8
BLACK
6
CONTINUOUS
10
104.939
20
-103.559
11
104.735
21
-103.316
0
LINE
8
BLACK
6
CONTINUOUS
10
104.735
20
-103.316
11
104.626
21
-103.018
0
LINE
8
BLACK
6
CONTINUOUS
10
104.626
20
-103.018
11
104.626
21
-102.7
0
LINE
8
BLACK
6
CONTINUOUS
10
104.626
20
-102.7
11
104.735
21
-102.402
0
LINE
8
BLACK
6
CONTINUOUS
10
104.735
20
-102.402
11
104.939
21
-102.159
0
LINE
8
BLACK
6
CONTINUOUS
10
104.939
20
-102.159
11
105.213
21
-102
0
LINE
8
BLACK
6
CONTINUOUS
10
105.213
20
-102
11
105.447
21
-101.959
0
LINE
8
BLACK
6
CONTINUOUS
10
105.447
20
-101.959
11
107.405
21
-101.959
0
LINE
8
BLACK
6
CONTINUOUS
10
107.405
20
-101.959
11
107.639
21
-102
0
LINE
8
BLACK
6
CONTINUOUS
10
139.898
20
-100.903
11
140.162
21
-101.055
0
LINE
8
BLACK
6
CONTINUOUS
10
140.162
20
-101.055
11
140.358
21
-101.289
0
LINE
8
BLACK
6
CONTINUOUS
10
140.358
20
-101.289
11
140.462
21
-101.575
0
LINE
8
BLACK
6
CONTINUOUS
10
140.462
20
-101.575
11
140.462
21
-101.879
0
LINE
8
BLACK
6
CONTINUOUS
10
140.462
20
-101.879
11
140.358
21
-102.165
0
LINE
8
BLACK
6
CONTINUOUS
10
140.358
20
-102.165
11
140.162
21
-102.399
0
LINE
8
BLACK
6
CONTINUOUS
10
140.162
20
-102.399
11
139.898
21
-102.551
0
LINE
8
BLACK
6
CONTINUOUS
10
139.898
20
-102.551
11
139.674
21
-102.591
0
LINE
8
BLACK
6
CONTINUOUS
10
139.674
20
-102.591
11
139.218
21
-102.591
0
LINE
8
BLACK
6
CONTINUOUS
10
139.218
20
-102.591
11
138.994
21
-102.551
0
LINE
8
BLACK
6
CONTINUOUS
10
138.994
20
-102.551
11
138.73
21
-102.399
0
LINE
8
BLACK
6
CONTINUOUS
10
138.73
20
-102.399
11
138.534
21
-102.165
0
LINE
8
BLACK
6
CONTINUOUS
10
138.534
20
-102.165
11
138.43
21
-101.879
0
LINE
8
BLACK
6
CONTINUOUS
10
138.43
20
-101.879
11
138.43
21
-101.575
0
LINE
8
BLACK
6
CONTINUOUS
10
138.43
20
-101.575
11
138.534
21
-101.289
0
LINE
8
BLACK
6
CONTINUOUS
10
138.534
20
-101.289
11
138.73
21
-101.055
0
LINE
8
BLACK
6
CONTINUOUS
10
138.73
20
-101.055
11
138.994
21
-100.903
0
LINE
8
BLACK
6
CONTINUOUS
10
138.994
20
-100.903
11
139.218
21
-100.863
0
LINE
8
BLACK
6
CONTINUOUS
10
139.218
20
-100.863
11
139.674
21
-100.863
0
LINE
8
BLACK
6
CONTINUOUS
10
139.674
20
-100.863
11
139.898
21
-100.903
0
LINE
8
BLACK
6
CONTINUOUS
10
155.138
20
-100.903
11
155.402
21
-101.055
0
LINE
8
BLACK
6
CONTINUOUS
10
155.402
20
-101.055
11
155.598
21
-101.289
0
LINE
8
BLACK
6
CONTINUOUS
10
155.598
20
-101.289
11
155.702
21
-101.575
0
LINE
8
BLACK
6
CONTINUOUS
10
155.702
20
-101.575
11
155.702
21
-101.879
0
LINE
8
BLACK
6
CONTINUOUS
10
155.702
20
-101.879
11
155.598
21
-102.165
0
LINE
8
BLACK
6
CONTINUOUS
10
155.598
20
-102.165
11
155.402
21
-102.399
0
LINE
8
BLACK
6
CONTINUOUS
10
155.402
20
-102.399
11
155.138
21
-102.551
0
LINE
8
BLACK
6
CONTINUOUS
10
155.138
20
-102.551
11
154.914
21
-102.591
0
LINE
8
BLACK
6
CONTINUOUS
10
154.914
20
-102.591
11
154.458
21
-102.591
0
LINE
8
BLACK
6
CONTINUOUS
10
154.458
20
-102.591
11
154.234
21
-102.551
0
LINE
8
BLACK
6
CONTINUOUS
10
154.234
20
-102.551
11
153.97
21
-102.399
0
LINE
8
BLACK
6
CONTINUOUS
10
153.97
20
-102.399
11
153.774
21
-102.165
0
LINE
8
BLACK
6
CONTINUOUS
10
153.774
20
-102.165
11
153.67
21
-101.879
0
LINE
8
BLACK
6
CONTINUOUS
10
153.67
20
-101.879
11
153.67
21
-101.575
0
LINE
8
BLACK
6
CONTINUOUS
10
153.67
20
-101.575
11
153.774
21
-101.289
0
LINE
8
BLACK
6
CONTINUOUS
10
153.774
20
-101.289
11
153.97
21
-101.055
0
LINE
8
BLACK
6
CONTINUOUS
10
153.97
20
-101.055
11
154.234
21
-100.903
0
LINE
8
BLACK
6
CONTINUOUS
10
154.234
20
-100.903
11
154.458
21
-100.863
0
LINE
8
BLACK
6
CONTINUOUS
10
154.458
20
-100.863
11
154.914
21
-100.863
0
LINE
8
BLACK
6
CONTINUOUS
10
154.914
20
-100.863
11
155.138
21
-100.903
0
LINE
8
BLACK
6
CONTINUOUS
10
92.7796
20
-98.5515
11
93.0544
21
-98.7102
0
LINE
8
BLACK
6
CONTINUOUS
10
93.0544
20
-98.7102
11
93.2584
21
-98.9533
0
LINE
8
BLACK
6
CONTINUOUS
10
93.2584
20
-98.9533
11
93.367
21
-99.2516
0
LINE
8
BLACK
6
CONTINUOUS
10
93.367
20
-99.2516
11
93.367
21
-99.569
0
LINE
8
BLACK
6
CONTINUOUS
10
93.367
20
-99.569
11
93.2584
21
-99.8672
0
LINE
8
BLACK
6
CONTINUOUS
10
93.2584
20
-99.8672
11
93.0544
21
-100.11
0
LINE
8
BLACK
6
CONTINUOUS
10
93.0544
20
-100.11
11
92.7796
21
-100.269
0
LINE
8
BLACK
6
CONTINUOUS
10
92.7796
20
-100.269
11
92.5457
21
-100.31
0
LINE
8
BLACK
6
CONTINUOUS
10
92.5457
20
-100.31
11
90.5883
21
-100.31
0
LINE
8
BLACK
6
CONTINUOUS
10
90.5883
20
-100.31
11
90.3544
21
-100.269
0
LINE
8
BLACK
6
CONTINUOUS
10
90.3544
20
-100.269
11
90.0796
21
-100.11
0
LINE
8
BLACK
6
CONTINUOUS
10
90.0796
20
-100.11
11
89.8756
21
-99.8672
0
LINE
8
BLACK
6
CONTINUOUS
10
89.8756
20
-99.8672
11
89.767
21
-99.569
0
LINE
8
BLACK
6
CONTINUOUS
10
89.767
20
-99.569
11
89.767
21
-99.2516
0
LINE
8
BLACK
6
CONTINUOUS
10
89.767
20
-99.2516
11
89.8756
21
-98.9533
0
LINE
8
BLACK
6
CONTINUOUS
10
89.8756
20
-98.9533
11
90.0796
21
-98.7102
0
LINE
8
BLACK
6
CONTINUOUS
10
90.0796
20
-98.7102
11
90.3544
21
-98.5515
0
LINE
8
BLACK
6
CONTINUOUS
10
90.3544
20
-98.5515
11
90.5883
21
-98.5103
0
LINE
8
BLACK
6
CONTINUOUS
10
90.5883
20
-98.5103
11
92.5457
21
-98.5103
0
LINE
8
BLACK
6
CONTINUOUS
10
92.5457
20
-98.5103
11
92.7796
21
-98.5515
0
LINE
8
BLACK
6
CONTINUOUS
10
107.639
20
-98.5002
11
107.913
21
-98.6589
0
LINE
8
BLACK
6
CONTINUOUS
10
107.913
20
-98.6589
11
108.117
21
-98.9021
0
LINE
8
BLACK
6
CONTINUOUS
10
108.117
20
-98.9021
11
108.226
21
-99.2003
0
LINE
8
BLACK
6
CONTINUOUS
10
108.226
20
-99.2003
11
108.226
21
-99.5177
0
LINE
8
BLACK
6
CONTINUOUS
10
108.226
20
-99.5177
11
108.117
21
-99.8159
0
LINE
8
BLACK
6
CONTINUOUS
10
108.117
20
-99.8159
11
107.913
21
-100.059
0
LINE
8
BLACK
6
CONTINUOUS
10
107.913
20
-100.059
11
107.639
21
-100.218
0
LINE
8
BLACK
6
CONTINUOUS
10
107.639
20
-100.218
11
107.405
21
-100.259
0
LINE
8
BLACK
6
CONTINUOUS
10
107.405
20
-100.259
11
105.447
21
-100.259
0
LINE
8
BLACK
6
CONTINUOUS
10
105.447
20
-100.259
11
105.213
21
-100.218
0
LINE
8
BLACK
6
CONTINUOUS
10
105.213
20
-100.218
11
104.939
21
-100.059
0
LINE
8
BLACK
6
CONTINUOUS
10
104.939
20
-100.059
11
104.735
21
-99.8159
0
LINE
8
BLACK
6
CONTINUOUS
10
104.735
20
-99.8159
11
104.626
21
-99.5177
0
LINE
8
BLACK
6
CONTINUOUS
10
104.626
20
-99.5177
11
104.626
21
-99.2003
0
LINE
8
BLACK
6
CONTINUOUS
10
104.626
20
-99.2003
11
104.735
21
-98.9021
0
LINE
8
BLACK
6
CONTINUOUS
10
104.735
20
-98.9021
11
104.939
21
-98.6589
0
LINE
8
BLACK
6
CONTINUOUS
10
104.939
20
-98.6589
11
105.213
21
-98.5002
0
LINE
8
BLACK
6
CONTINUOUS
10
105.213
20
-98.5002
11
105.447
21
-98.459
0
LINE
8
BLACK
6
CONTINUOUS
10
105.447
20
-98.459
11
107.405
21
-98.459
0
LINE
8
BLACK
6
CONTINUOUS
10
107.405
20
-98.459
11
107.639
21
-98.5002
0
LINE
8
BLACK
6
CONTINUOUS
10
139.898
20
-98.363
11
140.162
21
-98.5152
0
LINE
8
BLACK
6
CONTINUOUS
10
140.162
20
-98.5152
11
140.358
21
-98.7485
0
LINE
8
BLACK
6
CONTINUOUS
10
140.358
20
-98.7485
11
140.462
21
-99.0347
0
LINE
8
BLACK
6
CONTINUOUS
10
140.462
20
-99.0347
11
140.462
21
-99.3393
0
LINE
8
BLACK
6
CONTINUOUS
10
140.462
20
-99.3393
11
140.358
21
-99.6255
0
LINE
8
BLACK
6
CONTINUOUS
10
140.358
20
-99.6255
11
140.162
21
-99.8588
0
LINE
8
BLACK
6
CONTINUOUS
10
140.162
20
-99.8588
11
139.898
21
-100.011
0
LINE
8
BLACK
6
CONTINUOUS
10
139.898
20
-100.011
11
139.674
21
-100.051
0
LINE
8
BLACK
6
CONTINUOUS
10
139.674
20
-100.051
11
139.218
21
-100.051
0
LINE
8
BLACK
6
CONTINUOUS
10
139.218
20
-100.051
11
138.994
21
-100.011
0
LINE
8
BLACK
6
CONTINUOUS
10
138.994
20
-100.011
11
138.73
21
-99.8588
0
LINE
8
BLACK
6
CONTINUOUS
10
138.73
20
-99.8588
11
138.534
21
-99.6255
0
LINE
8
BLACK
6
CONTINUOUS
10
138.534
20
-99.6255
11
138.43
21
-99.3393
0
LINE
8
BLACK
6
CONTINUOUS
10
138.43
20
-99.3393
11
138.43
21
-99.0347
0
LINE
8
BLACK
6
CONTINUOUS
10
138.43
20
-99.0347
11
138.534
21
-98.7485
0
LINE
8
BLACK
6
CONTINUOUS
10
138.534
20
-98.7485
11
138.73
21
-98.5152
0
LINE
8
BLACK
6
CONTINUOUS
10
138.73
20
-98.5152
11
138.994
21
-98.363
0
LINE
8
BLACK
6
CONTINUOUS
10
138.994
20
-98.363
11
139.218
21
-98.3234
0
LINE
8
BLACK
6
CONTINUOUS
10
139.218
20
-98.3234
11
139.674
21
-98.3234
0
LINE
8
BLACK
6
CONTINUOUS
10
139.674
20
-98.3234
11
139.898
21
-98.363
0
LINE
8
BLACK
6
CONTINUOUS
10
155.138
20
-98.363
11
155.402
21
-98.5152
0
LINE
8
BLACK
6
CONTINUOUS
10
155.402
20
-98.5152
11
155.598
21
-98.7485
0
LINE
8
BLACK
6
CONTINUOUS
10
155.598
20
-98.7485
11
155.702
21
-99.0347
0
LINE
8
BLACK
6
CONTINUOUS
10
155.702
20
-99.0347
11
155.702
21
-99.3393
0
LINE
8
BLACK
6
CONTINUOUS
10
155.702
20
-99.3393
11
155.598
21
-99.6255
0
LINE
8
BLACK
6
CONTINUOUS
10
155.598
20
-99.6255
11
155.402
21
-99.8588
0
LINE
8
BLACK
6
CONTINUOUS
10
155.402
20
-99.8588
11
155.138
21
-100.011
0
LINE
8
BLACK
6
CONTINUOUS
10
155.138
20
-100.011
11
154.914
21
-100.051
0
LINE
8
BLACK
6
CONTINUOUS
10
154.914
20
-100.051
11
154.458
21
-100.051
0
LINE
8
BLACK
6
CONTINUOUS
10
154.458
20
-100.051
11
154.234
21
-100.011
0
LINE
8
BLACK
6
CONTINUOUS
10
154.234
20
-100.011
11
153.97
21
-99.8588
0
LINE
8
BLACK
6
CONTINUOUS
10
153.97
20
-99.8588
11
153.774
21
-99.6255
0
LINE
8
BLACK
6
CONTINUOUS
10
153.774
20
-99.6255
11
153.67
21
-99.3393
0
LINE
8
BLACK
6
CONTINUOUS
10
153.67
20
-99.3393
11
153.67
21
-99.0347
0
LINE
8
BLACK
6
CONTINUOUS
10
153.67
20
-99.0347
11
153.774
21
-98.7485
0
LINE
8
BLACK
6
CONTINUOUS
10
153.774
20
-98.7485
11
153.97
21
-98.5152
0
LINE
8
BLACK
6
CONTINUOUS
10
153.97
20
-98.5152
11
154.234
21
-98.363
0
LINE
8
BLACK
6
CONTINUOUS
10
154.234
20
-98.363
11
154.458
21
-98.3234
0
LINE
8
BLACK
6
CONTINUOUS
10
154.458
20
-98.3234
11
154.914
21
-98.3234
0
LINE
8
BLACK
6
CONTINUOUS
10
154.914
20
-98.3234
11
155.138
21
-98.363
0
LINE
8
BLACK
6
CONTINUOUS
10
139.898
20
-95.823
11
140.162
21
-95.9752
0
LINE
8
BLACK
6
CONTINUOUS
10
140.162
20
-95.9752
11
140.358
21
-96.2085
0
LINE
8
BLACK
6
CONTINUOUS
10
140.358
20
-96.2085
11
140.462
21
-96.4947
0
LINE
8
BLACK
6
CONTINUOUS
10
140.462
20
-96.4947
11
140.462
21
-96.7993
0
LINE
8
BLACK
6
CONTINUOUS
10
140.462
20
-96.7993
11
140.358
21
-97.0855
0
LINE
8
BLACK
6
CONTINUOUS
10
140.358
20
-97.0855
11
140.162
21
-97.3188
0
LINE
8
BLACK
6
CONTINUOUS
10
140.162
20
-97.3188
11
139.898
21
-97.471
0
LINE
8
BLACK
6
CONTINUOUS
10
139.898
20
-97.471
11
139.674
21
-97.5106
0
LINE
8
BLACK
6
CONTINUOUS
10
139.674
20
-97.5106
11
139.218
21
-97.5106
0
LINE
8
BLACK
6
CONTINUOUS
10
139.218
20
-97.5106
11
138.994
21
-97.471
0
LINE
8
BLACK
6
CONTINUOUS
10
138.994
20
-97.471
11
138.73
21
-97.3188
0
LINE
8
BLACK
6
CONTINUOUS
10
138.73
20
-97.3188
11
138.534
21
-97.0855
0
LINE
8
BLACK
6
CONTINUOUS
10
138.534
20
-97.0855
11
138.43
21
-96.7993
0
LINE
8
BLACK
6
CONTINUOUS
10
138.43
20
-96.7993
11
138.43
21
-96.4947
0
LINE
8
BLACK
6
CONTINUOUS
10
138.43
20
-96.4947
11
138.534
21
-96.2085
0
LINE
8
BLACK
6
CONTINUOUS
10
138.534
20
-96.2085
11
138.73
21
-95.9752
0
LINE
8
BLACK
6
CONTINUOUS
10
138.73
20
-95.9752
11
138.994
21
-95.823
0
LINE
8
BLACK
6
CONTINUOUS
10
138.994
20
-95.823
11
139.218
21
-95.7834
0
LINE
8
BLACK
6
CONTINUOUS
10
139.218
20
-95.7834
11
139.674
21
-95.7834
0
LINE
8
BLACK
6
CONTINUOUS
10
139.674
20
-95.7834
11
139.898
21
-95.823
0
LINE
8
BLACK
6
CONTINUOUS
10
155.138
20
-95.823
11
155.402
21
-95.9752
0
LINE
8
BLACK
6
CONTINUOUS
10
155.402
20
-95.9752
11
155.598
21
-96.2085
0
LINE
8
BLACK
6
CONTINUOUS
10
155.598
20
-96.2085
11
155.702
21
-96.4947
0
LINE
8
BLACK
6
CONTINUOUS
10
155.702
20
-96.4947
11
155.702
21
-96.7993
0
LINE
8
BLACK
6
CONTINUOUS
10
155.702
20
-96.7993
11
155.598
21
-97.0855
0
LINE
8
BLACK
6
CONTINUOUS
10
155.598
20
-97.0855
11
155.402
21
-97.3188
0
LINE
8
BLACK
6
CONTINUOUS
10
155.402
20
-97.3188
11
155.138
21
-97.471
0
LINE
8
BLACK
6
CONTINUOUS
10
155.138
20
-97.471
11
154.914
21
-97.5106
0
LINE
8
BLACK
6
CONTINUOUS
10
154.914
20
-97.5106
11
154.458
21
-97.5106
0
LINE
8
BLACK
6
CONTINUOUS
10
154.458
20
-97.5106
11
154.234
21
-97.471
0
LINE
8
BLACK
6
CONTINUOUS
10
154.234
20
-97.471
11
153.97
21
-97.3188
0
LINE
8
BLACK
6
CONTINUOUS
10
153.97
20
-97.3188
11
153.774
21
-97.0855
0
LINE
8
BLACK
6
CONTINUOUS
10
153.774
20
-97.0855
11
153.67
21
-96.7993
0
LINE
8
BLACK
6
CONTINUOUS
10
153.67
20
-96.7993
11
153.67
21
-96.4947
0
LINE
8
BLACK
6
CONTINUOUS
10
153.67
20
-96.4947
11
153.774
21
-96.2085
0
LINE
8
BLACK
6
CONTINUOUS
10
153.774
20
-96.2085
11
153.97
21
-95.9752
0
LINE
8
BLACK
6
CONTINUOUS
10
153.97
20
-95.9752
11
154.234
21
-95.823
0
LINE
8
BLACK
6
CONTINUOUS
10
154.234
20
-95.823
11
154.458
21
-95.7834
0
LINE
8
BLACK
6
CONTINUOUS
10
154.458
20
-95.7834
11
154.914
21
-95.7834
0
LINE
8
BLACK
6
CONTINUOUS
10
154.914
20
-95.7834
11
155.138
21
-95.823
0
LINE
8
BLACK
6
CONTINUOUS
10
92.7796
20
-95.0515
11
93.0544
21
-95.2102
0
LINE
8
BLACK
6
CONTINUOUS
10
93.0544
20
-95.2102
11
93.2584
21
-95.4533
0
LINE
8
BLACK
6
CONTINUOUS
10
93.2584
20
-95.4533
11
93.367
21
-95.7516
0
LINE
8
BLACK
6
CONTINUOUS
10
93.367
20
-95.7516
11
93.367
21
-96.069
0
LINE
8
BLACK
6
CONTINUOUS
10
93.367
20
-96.069
11
93.2584
21
-96.3672
0
LINE
8
BLACK
6
CONTINUOUS
10
93.2584
20
-96.3672
11
93.0544
21
-96.6104
0
LINE
8
BLACK
6
CONTINUOUS
10
93.0544
20
-96.6104
11
92.7796
21
-96.769
0
LINE
8
BLACK
6
CONTINUOUS
10
92.7796
20
-96.769
11
92.5457
21
-96.8103
0
LINE
8
BLACK
6
CONTINUOUS
10
92.5457
20
-96.8103
11
90.5883
21
-96.8103
0
LINE
8
BLACK
6
CONTINUOUS
10
90.5883
20
-96.8103
11
90.3544
21
-96.769
0
LINE
8
BLACK
6
CONTINUOUS
10
90.3544
20
-96.769
11
90.0796
21
-96.6104
0
LINE
8
BLACK
6
CONTINUOUS
10
90.0796
20
-96.6104
11
89.8756
21
-96.3672
0
LINE
8
BLACK
6
CONTINUOUS
10
89.8756
20
-96.3672
11
89.767
21
-96.069
0
LINE
8
BLACK
6
CONTINUOUS
10
89.767
20
-96.069
11
89.767
21
-95.7516
0
LINE
8
BLACK
6
CONTINUOUS
10
89.767
20
-95.7516
11
89.8756
21
-95.4533
0
LINE
8
BLACK
6
CONTINUOUS
10
89.8756
20
-95.4533
11
90.0796
21
-95.2102
0
LINE
8
BLACK
6
CONTINUOUS
10
90.0796
20
-95.2102
11
90.3544
21
-95.0515
0
LINE
8
BLACK
6
CONTINUOUS
10
90.3544
20
-95.0515
11
90.5883
21
-95.0103
0
LINE
8
BLACK
6
CONTINUOUS
10
90.5883
20
-95.0103
11
92.5457
21
-95.0103
0
LINE
8
BLACK
6
CONTINUOUS
10
92.5457
20
-95.0103
11
92.7796
21
-95.0515
0
LINE
8
BLACK
6
CONTINUOUS
10
107.639
20
-95.0002
11
107.913
21
-95.1589
0
LINE
8
BLACK
6
CONTINUOUS
10
107.913
20
-95.1589
11
108.117
21
-95.4021
0
LINE
8
BLACK
6
CONTINUOUS
10
108.117
20
-95.4021
11
108.226
21
-95.7003
0
LINE
8
BLACK
6
CONTINUOUS
10
108.226
20
-95.7003
11
108.226
21
-96.0177
0
LINE
8
BLACK
6
CONTINUOUS
10
108.226
20
-96.0177
11
108.117
21
-96.3159
0
LINE
8
BLACK
6
CONTINUOUS
10
108.117
20
-96.3159
11
107.913
21
-96.5591
0
LINE
8
BLACK
6
CONTINUOUS
10
107.913
20
-96.5591
11
107.639
21
-96.7178
0
LINE
8
BLACK
6
CONTINUOUS
10
107.639
20
-96.7178
11
107.405
21
-96.759
0
LINE
8
BLACK
6
CONTINUOUS
10
107.405
20
-96.759
11
105.447
21
-96.759
0
LINE
8
BLACK
6
CONTINUOUS
10
105.447
20
-96.759
11
105.213
21
-96.7178
0
LINE
8
BLACK
6
CONTINUOUS
10
105.213
20
-96.7178
11
104.939
21
-96.5591
0
LINE
8
BLACK
6
CONTINUOUS
10
104.939
20
-96.5591
11
104.735
21
-96.3159
0
LINE
8
BLACK
6
CONTINUOUS
10
104.735
20
-96.3159
11
104.626
21
-96.0177
0
LINE
8
BLACK
6
CONTINUOUS
10
104.626
20
-96.0177
11
104.626
21
-95.7003
0
LINE
8
BLACK
6
CONTINUOUS
10
104.626
20
-95.7003
11
104.735
21
-95.4021
0
LINE
8
BLACK
6
CONTINUOUS
10
104.735
20
-95.4021
11
104.939
21
-95.1589
0
LINE
8
BLACK
6
CONTINUOUS
10
104.939
20
-95.1589
11
105.213
21
-95.0002
0
LINE
8
BLACK
6
CONTINUOUS
10
105.213
20
-95.0002
11
105.447
21
-94.959
0
LINE
8
BLACK
6
CONTINUOUS
10
105.447
20
-94.959
11
107.405
21
-94.959
0
LINE
8
BLACK
6
CONTINUOUS
10
107.405
20
-94.959
11
107.639
21
-95.0002
0
LINE
8
BLACK
6
CONTINUOUS
10
139.898
20
-93.283
11
140.162
21
-93.4352
0
LINE
8
BLACK
6
CONTINUOUS
10
140.162
20
-93.4352
11
140.358
21
-93.6685
0
LINE
8
BLACK
6
CONTINUOUS
10
140.358
20
-93.6685
11
140.462
21
-93.9547
0
LINE
8
BLACK
6
CONTINUOUS
10
140.462
20
-93.9547
11
140.462
21
-94.2593
0
LINE
8
BLACK
6
CONTINUOUS
10
140.462
20
-94.2593
11
140.358
21
-94.5455
0
LINE
8
BLACK
6
CONTINUOUS
10
140.358
20
-94.5455
11
140.162
21
-94.7788
0
LINE
8
BLACK
6
CONTINUOUS
10
140.162
20
-94.7788
11
139.898
21
-94.931
0
LINE
8
BLACK
6
CONTINUOUS
10
139.898
20
-94.931
11
139.674
21
-94.9706
0
LINE
8
BLACK
6
CONTINUOUS
10
139.674
20
-94.9706
11
139.218
21
-94.9706
0
LINE
8
BLACK
6
CONTINUOUS
10
139.218
20
-94.9706
11
138.994
21
-94.931
0
LINE
8
BLACK
6
CONTINUOUS
10
138.994
20
-94.931
11
138.73
21
-94.7788
0
LINE
8
BLACK
6
CONTINUOUS
10
138.73
20
-94.7788
11
138.534
21
-94.5455
0
LINE
8
BLACK
6
CONTINUOUS
10
138.534
20
-94.5455
11
138.43
21
-94.2593
0
LINE
8
BLACK
6
CONTINUOUS
10
138.43
20
-94.2593
11
138.43
21
-93.9547
0
LINE
8
BLACK
6
CONTINUOUS
10
138.43
20
-93.9547
11
138.534
21
-93.6685
0
LINE
8
BLACK
6
CONTINUOUS
10
138.534
20
-93.6685
11
138.73
21
-93.4352
0
LINE
8
BLACK
6
CONTINUOUS
10
138.73
20
-93.4352
11
138.994
21
-93.283
0
LINE
8
BLACK
6
CONTINUOUS
10
138.994
20
-93.283
11
139.218
21
-93.2434
0
LINE
8
BLACK
6
CONTINUOUS
10
139.218
20
-93.2434
11
139.674
21
-93.2434
0
LINE
8
BLACK
6
CONTINUOUS
10
139.674
20
-93.2434
11
139.898
21
-93.283
0
LINE
8
BLACK
6
CONTINUOUS
10
155.138
20
-93.283
11
155.402
21
-93.4352
0
LINE
8
BLACK
6
CONTINUOUS
10
155.402
20
-93.4352
11
155.598
21
-93.6685
0
LINE
8
BLACK
6
CONTINUOUS
10
155.598
20
-93.6685
11
155.702
21
-93.9547
0
LINE
8
BLACK
6
CONTINUOUS
10
155.702
20
-93.9547
11
155.702
21
-94.2593
0
LINE
8
BLACK
6
CONTINUOUS
10
155.702
20
-94.2593
11
155.598
21
-94.5455
0
LINE
8
BLACK
6
CONTINUOUS
10
155.598
20
-94.5455
11
155.402
21
-94.7788
0
LINE
8
BLACK
6
CONTINUOUS
10
155.402
20
-94.7788
11
155.138
21
-94.931
0
LINE
8
BLACK
6
CONTINUOUS
10
155.138
20
-94.931
11
154.914
21
-94.9706
0
LINE
8
BLACK
6
CONTINUOUS
10
154.914
20
-94.9706
11
154.458
21
-94.9706
0
LINE
8
BLACK
6
CONTINUOUS
10
154.458
20
-94.9706
11
154.234
21
-94.931
0
LINE
8
BLACK
6
CONTINUOUS
10
154.234
20
-94.931
11
153.97
21
-94.7788
0
LINE
8
BLACK
6
CONTINUOUS
10
153.97
20
-94.7788
11
153.774
21
-94.5455
0
LINE
8
BLACK
6
CONTINUOUS
10
153.774
20
-94.5455
11
153.67
21
-94.2593
0
LINE
8
BLACK
6
CONTINUOUS
10
153.67
20
-94.2593
11
153.67
21
-93.9547
0
LINE
8
BLACK
6
CONTINUOUS
10
153.67
20
-93.9547
11
153.774
21
-93.6685
0
LINE
8
BLACK
6
CONTINUOUS
10
153.774
20
-93.6685
11
153.97
21
-93.4352
0
LINE
8
BLACK
6
CONTINUOUS
10
153.97
20
-93.4352
11
154.234
21
-93.283
0
LINE
8
BLACK
6
CONTINUOUS
10
154.234
20
-93.283
11
154.458
21
-93.2434
0
LINE
8
BLACK
6
CONTINUOUS
10
154.458
20
-93.2434
11
154.914
21
-93.2434
0
LINE
8
BLACK
6
CONTINUOUS
10
154.914
20
-93.2434
11
155.138
21
-93.283
0
LINE
8
BLACK
6
CONTINUOUS
10
92.7796
20
-91.5515
11
93.0544
21
-91.7102
0
LINE
8
BLACK
6
CONTINUOUS
10
93.0544
20
-91.7102
11
93.2584
21
-91.9533
0
LINE
8
BLACK
6
CONTINUOUS
10
93.2584
20
-91.9533
11
93.367
21
-92.2516
0
LINE
8
BLACK
6
CONTINUOUS
10
93.367
20
-92.2516
11
93.367
21
-92.569
0
LINE
8
BLACK
6
CONTINUOUS
10
93.367
20
-92.569
11
93.2584
21
-92.8672
0
LINE
8
BLACK
6
CONTINUOUS
10
93.2584
20
-92.8672
11
93.0544
21
-93.1104
0
LINE
8
BLACK
6
CONTINUOUS
10
93.0544
20
-93.1104
11
92.7796
21
-93.269
0
LINE
8
BLACK
6
CONTINUOUS
10
92.7796
20
-93.269
11
92.5457
21
-93.3103
0
LINE
8
BLACK
6
CONTINUOUS
10
92.5457
20
-93.3103
11
90.5883
21
-93.3103
0
LINE
8
BLACK
6
CONTINUOUS
10
90.5883
20
-93.3103
11
90.3544
21
-93.269
0
LINE
8
BLACK
6
CONTINUOUS
10
90.3544
20
-93.269
11
90.0796
21
-93.1104
0
LINE
8
BLACK
6
CONTINUOUS
10
90.0796
20
-93.1104
11
89.8756
21
-92.8672
0
LINE
8
BLACK
6
CONTINUOUS
10
89.8756
20
-92.8672
11
89.767
21
-92.569
0
LINE
8
BLACK
6
CONTINUOUS
10
89.767
20
-92.569
11
89.767
21
-92.2516
0
LINE
8
BLACK
6
CONTINUOUS
10
89.767
20
-92.2516
11
89.8756
21
-91.9533
0
LINE
8
BLACK
6
CONTINUOUS
10
89.8756
20
-91.9533
11
90.0796
21
-91.7102
0
LINE
8
BLACK
6
CONTINUOUS
10
90.0796
20
-91.7102
11
90.3544
21
-91.5515
0
LINE
8
BLACK
6
CONTINUOUS
10
90.3544
20
-91.5515
11
90.5883
21
-91.5103
0
LINE
8
BLACK
6
CONTINUOUS
10
90.5883
20
-91.5103
11
92.5457
21
-91.5103
0
LINE
8
BLACK
6
CONTINUOUS
10
92.5457
20
-91.5103
11
92.7796
21
-91.5515
0
LINE
8
BLACK
6
CONTINUOUS
10
107.639
20
-91.5002
11
107.913
21
-91.6589
0
LINE
8
BLACK
6
CONTINUOUS
10
107.913
20
-91.6589
11
108.117
21
-91.9021
0
LINE
8
BLACK
6
CONTINUOUS
10
108.117
20
-91.9021
11
108.226
21
-92.2003
0
LINE
8
BLACK
6
CONTINUOUS
10
108.226
20
-92.2003
11
108.226
21
-92.5177
0
LINE
8
BLACK
6
CONTINUOUS
10
108.226
20
-92.5177
11
108.117
21
-92.8159
0
LINE
8
BLACK
6
CONTINUOUS
10
108.117
20
-92.8159
11
107.913
21
-93.0591
0
LINE
8
BLACK
6
CONTINUOUS
10
107.913
20
-93.0591
11
107.639
21
-93.2178
0
LINE
8
BLACK
6
CONTINUOUS
10
107.639
20
-93.2178
11
107.405
21
-93.259
0
LINE
8
BLACK
6
CONTINUOUS
10
107.405
20
-93.259
11
105.447
21
-93.259
0
LINE
8
BLACK
6
CONTINUOUS
10
105.447
20
-93.259
11
105.213
21
-93.2178
0
LINE
8
BLACK
6
CONTINUOUS
10
105.213
20
-93.2178
11
104.939
21
-93.0591
0
LINE
8
BLACK
6
CONTINUOUS
10
104.939
20
-93.0591
11
104.735
21
-92.8159
0
LINE
8
BLACK
6
CONTINUOUS
10
104.735
20
-92.8159
11
104.626
21
-92.5177
0
LINE
8
BLACK
6
CONTINUOUS
10
104.626
20
-92.5177
11
104.626
21
-92.2003
0
LINE
8
BLACK
6
CONTINUOUS
10
104.626
20
-92.2003
11
104.735
21
-91.9021
0
LINE
8
BLACK
6
CONTINUOUS
10
104.735
20
-91.9021
11
104.939
21
-91.6589
0
LINE
8
BLACK
6
CONTINUOUS
10
104.939
20
-91.6589
11
105.213
21
-91.5002
0
LINE
8
BLACK
6
CONTINUOUS
10
105.213
20
-91.5002
11
105.447
21
-91.459
0
LINE
8
BLACK
6
CONTINUOUS
10
105.447
20
-91.459
11
107.405
21
-91.459
0
LINE
8
BLACK
6
CONTINUOUS
10
107.405
20
-91.459
11
107.639
21
-91.5002
0
LINE
8
BLACK
6
CONTINUOUS
10
139.898
20
-90.743
11
140.162
21
-90.8952
0
LINE
8
BLACK
6
CONTINUOUS
10
140.162
20
-90.8952
11
140.358
21
-91.1285
0
LINE
8
BLACK
6
CONTINUOUS
10
140.358
20
-91.1285
11
140.462
21
-91.4147
0
LINE
8
BLACK
6
CONTINUOUS
10
140.462
20
-91.4147
11
140.462
21
-91.7193
0
LINE
8
BLACK
6
CONTINUOUS
10
140.462
20
-91.7193
11
140.358
21
-92.0055
0
LINE
8
BLACK
6
CONTINUOUS
10
140.358
20
-92.0055
11
140.162
21
-92.2388
0
LINE
8
BLACK
6
CONTINUOUS
10
140.162
20
-92.2388
11
139.898
21
-92.391
0
LINE
8
BLACK
6
CONTINUOUS
10
139.898
20
-92.391
11
139.674
21
-92.4306
0
LINE
8
BLACK
6
CONTINUOUS
10
139.674
20
-92.4306
11
139.218
21
-92.4306
0
LINE
8
BLACK
6
CONTINUOUS
10
139.218
20
-92.4306
11
138.994
21
-92.391
0
LINE
8
BLACK
6
CONTINUOUS
10
138.994
20
-92.391
11
138.73
21
-92.2388
0
LINE
8
BLACK
6
CONTINUOUS
10
138.73
20
-92.2388
11
138.534
21
-92.0055
0
LINE
8
BLACK
6
CONTINUOUS
10
138.534
20
-92.0055
11
138.43
21
-91.7193
0
LINE
8
BLACK
6
CONTINUOUS
10
138.43
20
-91.7193
11
138.43
21
-91.4147
0
LINE
8
BLACK
6
CONTINUOUS
10
138.43
20
-91.4147
11
138.534
21
-91.1285
0
LINE
8
BLACK
6
CONTINUOUS
10
138.534
20
-91.1285
11
138.73
21
-90.8952
0
LINE
8
BLACK
6
CONTINUOUS
10
138.73
20
-90.8952
11
138.994
21
-90.743
0
LINE
8
BLACK
6
CONTINUOUS
10
138.994
20
-90.743
11
139.218
21
-90.7034
0
LINE
8
BLACK
6
CONTINUOUS
10
139.218
20
-90.7034
11
139.674
21
-90.7034
0
LINE
8
BLACK
6
CONTINUOUS
10
139.674
20
-90.7034
11
139.898
21
-90.743
0
LINE
8
BLACK
6
CONTINUOUS
10
155.138
20
-90.743
11
155.402
21
-90.8952
0
LINE
8
BLACK
6
CONTINUOUS
10
155.402
20
-90.8952
11
155.598
21
-91.1285
0
LINE
8
BLACK
6
CONTINUOUS
10
155.598
20
-91.1285
11
155.702
21
-91.4147
0
LINE
8
BLACK
6
CONTINUOUS
10
155.702
20
-91.4147
11
155.702
21
-91.7193
0
LINE
8
BLACK
6
CONTINUOUS
10
155.702
20
-91.7193
11
155.598
21
-92.0055
0
LINE
8
BLACK
6
CONTINUOUS
10
155.598
20
-92.0055
11
155.402
21
-92.2388
0
LINE
8
BLACK
6
CONTINUOUS
10
155.402
20
-92.2388
11
155.138
21
-92.391
0
LINE
8
BLACK
6
CONTINUOUS
10
155.138
20
-92.391
11
154.914
21
-92.4306
0
LINE
8
BLACK
6
CONTINUOUS
10
154.914
20
-92.4306
11
154.458
21
-92.4306
0
LINE
8
BLACK
6
CONTINUOUS
10
154.458
20
-92.4306
11
154.234
21
-92.391
0
LINE
8
BLACK
6
CONTINUOUS
10
154.234
20
-92.391
11
153.97
21
-92.2388
0
LINE
8
BLACK
6
CONTINUOUS
10
153.97
20
-92.2388
11
153.774
21
-92.0055
0
LINE
8
BLACK
6
CONTINUOUS
10
153.774
20
-92.0055
11
153.67
21
-91.7193
0
LINE
8
BLACK
6
CONTINUOUS
10
153.67
20
-91.7193
11
153.67
21
-91.4147
0
LINE
8
BLACK
6
CONTINUOUS
10
153.67
20
-91.4147
11
153.774
21
-91.1285
0
LINE
8
BLACK
6
CONTINUOUS
10
153.774
20
-91.1285
11
153.97
21
-90.8952
0
LINE
8
BLACK
6
CONTINUOUS
10
153.97
20
-90.8952
11
154.234
21
-90.743
0
LINE
8
BLACK
6
CONTINUOUS
10
154.234
20
-90.743
11
154.458
21
-90.7034
0
LINE
8
BLACK
6
CONTINUOUS
10
154.458
20
-90.7034
11
154.914
21
-90.7034
0
LINE
8
BLACK
6
CONTINUOUS
10
154.914
20
-90.7034
11
155.138
21
-90.743
0
LINE
8
BLACK
6
CONTINUOUS
10
139.898
20
-88.203
11
140.162
21
-88.3552
0
LINE
8
BLACK
6
CONTINUOUS
10
140.162
20
-88.3552
11
140.358
21
-88.5885
0
LINE
8
BLACK
6
CONTINUOUS
10
140.358
20
-88.5885
11
140.462
21
-88.8747
0
LINE
8
BLACK
6
CONTINUOUS
10
140.462
20
-88.8747
11
140.462
21
-89.1793
0
LINE
8
BLACK
6
CONTINUOUS
10
140.462
20
-89.1793
11
140.358
21
-89.4655
0
LINE
8
BLACK
6
CONTINUOUS
10
140.358
20
-89.4655
11
140.162
21
-89.6988
0
LINE
8
BLACK
6
CONTINUOUS
10
140.162
20
-89.6988
11
139.898
21
-89.851
0
LINE
8
BLACK
6
CONTINUOUS
10
139.898
20
-89.851
11
139.674
21
-89.8906
0
LINE
8
BLACK
6
CONTINUOUS
10
139.674
20
-89.8906
11
139.218
21
-89.8906
0
LINE
8
BLACK
6
CONTINUOUS
10
139.218
20
-89.8906
11
138.994
21
-89.851
0
LINE
8
BLACK
6
CONTINUOUS
10
138.994
20
-89.851
11
138.73
21
-89.6988
0
LINE
8
BLACK
6
CONTINUOUS
10
138.73
20
-89.6988
11
138.534
21
-89.4655
0
LINE
8
BLACK
6
CONTINUOUS
10
138.534
20
-89.4655
11
138.43
21
-89.1793
0
LINE
8
BLACK
6
CONTINUOUS
10
138.43
20
-89.1793
11
138.43
21
-88.8747
0
LINE
8
BLACK
6
CONTINUOUS
10
138.43
20
-88.8747
11
138.534
21
-88.5885
0
LINE
8
BLACK
6
CONTINUOUS
10
138.534
20
-88.5885
11
138.73
21
-88.3552
0
LINE
8
BLACK
6
CONTINUOUS
10
138.73
20
-88.3552
11
138.994
21
-88.203
0
LINE
8
BLACK
6
CONTINUOUS
10
138.994
20
-88.203
11
139.218
21
-88.1634
0
LINE
8
BLACK
6
CONTINUOUS
10
139.218
20
-88.1634
11
139.674
21
-88.1634
0
LINE
8
BLACK
6
CONTINUOUS
10
139.674
20
-88.1634
11
139.898
21
-88.203
0
LINE
8
BLACK
6
CONTINUOUS
10
155.138
20
-88.203
11
155.402
21
-88.3552
0
LINE
8
BLACK
6
CONTINUOUS
10
155.402
20
-88.3552
11
155.598
21
-88.5885
0
LINE
8
BLACK
6
CONTINUOUS
10
155.598
20
-88.5885
11
155.702
21
-88.8747
0
LINE
8
BLACK
6
CONTINUOUS
10
155.702
20
-88.8747
11
155.702
21
-89.1793
0
LINE
8
BLACK
6
CONTINUOUS
10
155.702
20
-89.1793
11
155.598
21
-89.4655
0
LINE
8
BLACK
6
CONTINUOUS
10
155.598
20
-89.4655
11
155.402
21
-89.6988
0
LINE
8
BLACK
6
CONTINUOUS
10
155.402
20
-89.6988
11
155.138
21
-89.851
0
LINE
8
BLACK
6
CONTINUOUS
10
155.138
20
-89.851
11
154.914
21
-89.8906
0
LINE
8
BLACK
6
CONTINUOUS
10
154.914
20
-89.8906
11
154.458
21
-89.8906
0
LINE
8
BLACK
6
CONTINUOUS
10
154.458
20
-89.8906
11
154.234
21
-89.851
0
LINE
8
BLACK
6
CONTINUOUS
10
154.234
20
-89.851
11
153.97
21
-89.6988
0
LINE
8
BLACK
6
CONTINUOUS
10
153.97
20
-89.6988
11
153.774
21
-89.4655
0
LINE
8
BLACK
6
CONTINUOUS
10
153.774
20
-89.4655
11
153.67
21
-89.1793
0
LINE
8
BLACK
6
CONTINUOUS
10
153.67
20
-89.1793
11
153.67
21
-88.8747
0
LINE
8
BLACK
6
CONTINUOUS
10
153.67
20
-88.8747
11
153.774
21
-88.5885
0
LINE
8
BLACK
6
CONTINUOUS
10
153.774
20
-88.5885
11
153.97
21
-88.3552
0
LINE
8
BLACK
6
CONTINUOUS
10
153.97
20
-88.3552
11
154.234
21
-88.203
0
LINE
8
BLACK
6
CONTINUOUS
10
154.234
20
-88.203
11
154.458
21
-88.1634
0
LINE
8
BLACK
6
CONTINUOUS
10
154.458
20
-88.1634
11
154.914
21
-88.1634
0
LINE
8
BLACK
6
CONTINUOUS
10
154.914
20
-88.1634
11
155.138
21
-88.203
0
LINE
8
BLACK
6
CONTINUOUS
10
92.7796
20
-88.0515
11
93.0544
21
-88.2102
0
LINE
8
BLACK
6
CONTINUOUS
10
93.0544
20
-88.2102
11
93.2584
21
-88.4533
0
LINE
8
BLACK
6
CONTINUOUS
10
93.2584
20
-88.4533
11
93.367
21
-88.7516
0
LINE
8
BLACK
6
CONTINUOUS
10
93.367
20
-88.7516
11
93.367
21
-89.069
0
LINE
8
BLACK
6
CONTINUOUS
10
93.367
20
-89.069
11
93.2584
21
-89.3672
0
LINE
8
BLACK
6
CONTINUOUS
10
93.2584
20
-89.3672
11
93.0544
21
-89.6104
0
LINE
8
BLACK
6
CONTINUOUS
10
93.0544
20
-89.6104
11
92.7796
21
-89.769
0
LINE
8
BLACK
6
CONTINUOUS
10
92.7796
20
-89.769
11
92.5457
21
-89.8103
0
LINE
8
BLACK
6
CONTINUOUS
10
92.5457
20
-89.8103
11
90.5883
21
-89.8103
0
LINE
8
BLACK
6
CONTINUOUS
10
90.5883
20
-89.8103
11
90.3544
21
-89.769
0
LINE
8
BLACK
6
CONTINUOUS
10
90.3544
20
-89.769
11
90.0796
21
-89.6104
0
LINE
8
BLACK
6
CONTINUOUS
10
90.0796
20
-89.6104
11
89.8756
21
-89.3672
0
LINE
8
BLACK
6
CONTINUOUS
10
89.8756
20
-89.3672
11
89.767
21
-89.069
0
LINE
8
BLACK
6
CONTINUOUS
10
89.767
20
-89.069
11
89.767
21
-88.7516
0
LINE
8
BLACK
6
CONTINUOUS
10
89.767
20
-88.7516
11
89.8756
21
-88.4533
0
LINE
8
BLACK
6
CONTINUOUS
10
89.8756
20
-88.4533
11
90.0796
21
-88.2102
0
LINE
8
BLACK
6
CONTINUOUS
10
90.0796
20
-88.2102
11
90.3544
21
-88.0515
0
LINE
8
BLACK
6
CONTINUOUS
10
90.3544
20
-88.0515
11
90.5883
21
-88.0103
0
LINE
8
BLACK
6
CONTINUOUS
10
90.5883
20
-88.0103
11
92.5457
21
-88.0103
0
LINE
8
BLACK
6
CONTINUOUS
10
92.5457
20
-88.0103
11
92.7796
21
-88.0515
0
LINE
8
BLACK
6
CONTINUOUS
10
107.639
20
-88.0002
11
107.913
21
-88.1589
0
LINE
8
BLACK
6
CONTINUOUS
10
107.913
20
-88.1589
11
108.117
21
-88.4021
0
LINE
8
BLACK
6
CONTINUOUS
10
108.117
20
-88.4021
11
108.226
21
-88.7003
0
LINE
8
BLACK
6
CONTINUOUS
10
108.226
20
-88.7003
11
108.226
21
-89.0177
0
LINE
8
BLACK
6
CONTINUOUS
10
108.226
20
-89.0177
11
108.117
21
-89.3159
0
LINE
8
BLACK
6
CONTINUOUS
10
108.117
20
-89.3159
11
107.913
21
-89.5591
0
LINE
8
BLACK
6
CONTINUOUS
10
107.913
20
-89.5591
11
107.639
21
-89.7178
0
LINE
8
BLACK
6
CONTINUOUS
10
107.639
20
-89.7178
11
107.405
21
-89.759
0
LINE
8
BLACK
6
CONTINUOUS
10
107.405
20
-89.759
11
105.447
21
-89.759
0
LINE
8
BLACK
6
CONTINUOUS
10
105.447
20
-89.759
11
105.213
21
-89.7178
0
LINE
8
BLACK
6
CONTINUOUS
10
105.213
20
-89.7178
11
104.939
21
-89.5591
0
LINE
8
BLACK
6
CONTINUOUS
10
104.939
20
-89.5591
11
104.735
21
-89.3159
0
LINE
8
BLACK
6
CONTINUOUS
10
104.735
20
-89.3159
11
104.626
21
-89.0177
0
LINE
8
BLACK
6
CONTINUOUS
10
104.626
20
-89.0177
11
104.626
21
-88.7003
0
LINE
8
BLACK
6
CONTINUOUS
10
104.626
20
-88.7003
11
104.735
21
-88.4021
0
LINE
8
BLACK
6
CONTINUOUS
10
104.735
20
-88.4021
11
104.939
21
-88.1589
0
LINE
8
BLACK
6
CONTINUOUS
10
104.939
20
-88.1589
11
105.213
21
-88.0002
0
LINE
8
BLACK
6
CONTINUOUS
10
105.213
20
-88.0002
11
105.447
21
-87.959
0
LINE
8
BLACK
6
CONTINUOUS
10
105.447
20
-87.959
11
107.405
21
-87.959
0
LINE
8
BLACK
6
CONTINUOUS
10
107.405
20
-87.959
11
107.639
21
-88.0002
0
LINE
8
BLACK
6
CONTINUOUS
10
155.138
20
-85.663
11
155.402
21
-85.8152
0
LINE
8
BLACK
6
CONTINUOUS
10
155.402
20
-85.8152
11
155.598
21
-86.0485
0
LINE
8
BLACK
6
CONTINUOUS
10
155.598
20
-86.0485
11
155.702
21
-86.3347
0
LINE
8
BLACK
6
CONTINUOUS
10
155.702
20
-86.3347
11
155.702
21
-86.6393
0
LINE
8
BLACK
6
CONTINUOUS
10
155.702
20
-86.6393
11
155.598
21
-86.9255
0
LINE
8
BLACK
6
CONTINUOUS
10
155.598
20
-86.9255
11
155.402
21
-87.1588
0
LINE
8
BLACK
6
CONTINUOUS
10
155.402
20
-87.1588
11
155.138
21
-87.311
0
LINE
8
BLACK
6
CONTINUOUS
10
155.138
20
-87.311
11
154.914
21
-87.3506
0
LINE
8
BLACK
6
CONTINUOUS
10
154.914
20
-87.3506
11
154.458
21
-87.3506
0
LINE
8
BLACK
6
CONTINUOUS
10
154.458
20
-87.3506
11
154.234
21
-87.311
0
LINE
8
BLACK
6
CONTINUOUS
10
154.234
20
-87.311
11
153.97
21
-87.1588
0
LINE
8
BLACK
6
CONTINUOUS
10
153.97
20
-87.1588
11
153.774
21
-86.9255
0
LINE
8
BLACK
6
CONTINUOUS
10
153.774
20
-86.9255
11
153.67
21
-86.6393
0
LINE
8
BLACK
6
CONTINUOUS
10
153.67
20
-86.6393
11
153.67
21
-86.3347
0
LINE
8
BLACK
6
CONTINUOUS
10
153.67
20
-86.3347
11
153.774
21
-86.0485
0
LINE
8
BLACK
6
CONTINUOUS
10
153.774
20
-86.0485
11
153.97
21
-85.8152
0
LINE
8
BLACK
6
CONTINUOUS
10
153.97
20
-85.8152
11
154.234
21
-85.663
0
LINE
8
BLACK
6
CONTINUOUS
10
154.234
20
-85.663
11
154.458
21
-85.6234
0
LINE
8
BLACK
6
CONTINUOUS
10
154.458
20
-85.6234
11
154.914
21
-85.6234
0
LINE
8
BLACK
6
CONTINUOUS
10
154.914
20
-85.6234
11
155.138
21
-85.663
0
LINE
8
BLACK
6
CONTINUOUS
10
139.898
20
-85.663
11
140.162
21
-85.8152
0
LINE
8
BLACK
6
CONTINUOUS
10
140.162
20
-85.8152
11
140.358
21
-86.0485
0
LINE
8
BLACK
6
CONTINUOUS
10
140.358
20
-86.0485
11
140.462
21
-86.3347
0
LINE
8
BLACK
6
CONTINUOUS
10
140.462
20
-86.3347
11
140.462
21
-86.6393
0
LINE
8
BLACK
6
CONTINUOUS
10
140.462
20
-86.6393
11
140.358
21
-86.9255
0
LINE
8
BLACK
6
CONTINUOUS
10
140.358
20
-86.9255
11
140.162
21
-87.1588
0
LINE
8
BLACK
6
CONTINUOUS
10
140.162
20
-87.1588
11
139.898
21
-87.311
0
LINE
8
BLACK
6
CONTINUOUS
10
139.898
20
-87.311
11
139.674
21
-87.3506
0
LINE
8
BLACK
6
CONTINUOUS
10
139.674
20
-87.3506
11
139.218
21
-87.3506
0
LINE
8
BLACK
6
CONTINUOUS
10
139.218
20
-87.3506
11
138.994
21
-87.311
0
LINE
8
BLACK
6
CONTINUOUS
10
138.994
20
-87.311
11
138.73
21
-87.1588
0
LINE
8
BLACK
6
CONTINUOUS
10
138.73
20
-87.1588
11
138.534
21
-86.9255
0
LINE
8
BLACK
6
CONTINUOUS
10
138.534
20
-86.9255
11
138.43
21
-86.6393
0
LINE
8
BLACK
6
CONTINUOUS
10
138.43
20
-86.6393
11
138.43
21
-86.3347
0
LINE
8
BLACK
6
CONTINUOUS
10
138.43
20
-86.3347
11
138.534
21
-86.0485
0
LINE
8
BLACK
6
CONTINUOUS
10
138.534
20
-86.0485
11
138.73
21
-85.8152
0
LINE
8
BLACK
6
CONTINUOUS
10
138.73
20
-85.8152
11
138.994
21
-85.663
0
LINE
8
BLACK
6
CONTINUOUS
10
138.994
20
-85.663
11
139.218
21
-85.6234
0
LINE
8
BLACK
6
CONTINUOUS
10
139.218
20
-85.6234
11
139.674
21
-85.6234
0
LINE
8
BLACK
6
CONTINUOUS
10
139.674
20
-85.6234
11
139.898
21
-85.663
0
LINE
8
BLACK
6
CONTINUOUS
10
92.7796
20
-84.5515
11
93.0544
21
-84.7102
0
LINE
8
BLACK
6
CONTINUOUS
10
93.0544
20
-84.7102
11
93.2584
21
-84.9533
0
LINE
8
BLACK
6
CONTINUOUS
10
93.2584
20
-84.9533
11
93.367
21
-85.2516
0
LINE
8
BLACK
6
CONTINUOUS
10
93.367
20
-85.2516
11
93.367
21
-85.569
0
LINE
8
BLACK
6
CONTINUOUS
10
93.367
20
-85.569
11
93.2584
21
-85.8672
0
LINE
8
BLACK
6
CONTINUOUS
10
93.2584
20
-85.8672
11
93.0544
21
-86.1104
0
LINE
8
BLACK
6
CONTINUOUS
10
93.0544
20
-86.1104
11
92.7796
21
-86.269
0
LINE
8
BLACK
6
CONTINUOUS
10
92.7796
20
-86.269
11
92.5457
21
-86.3103
0
LINE
8
BLACK
6
CONTINUOUS
10
92.5457
20
-86.3103
11
90.5883
21
-86.3103
0
LINE
8
BLACK
6
CONTINUOUS
10
90.5883
20
-86.3103
11
90.3544
21
-86.269
0
LINE
8
BLACK
6
CONTINUOUS
10
90.3544
20
-86.269
11
90.0796
21
-86.1104
0
LINE
8
BLACK
6
CONTINUOUS
10
90.0796
20
-86.1104
11
89.8756
21
-85.8672
0
LINE
8
BLACK
6
CONTINUOUS
10
89.8756
20
-85.8672
11
89.767
21
-85.569
0
LINE
8
BLACK
6
CONTINUOUS
10
89.767
20
-85.569
11
89.767
21
-85.2516
0
LINE
8
BLACK
6
CONTINUOUS
10
89.767
20
-85.2516
11
89.8756
21
-84.9533
0
LINE
8
BLACK
6
CONTINUOUS
10
89.8756
20
-84.9533
11
90.0796
21
-84.7102
0
LINE
8
BLACK
6
CONTINUOUS
10
90.0796
20
-84.7102
11
90.3544
21
-84.5515
0
LINE
8
BLACK
6
CONTINUOUS
10
90.3544
20
-84.5515
11
90.5883
21
-84.5103
0
LINE
8
BLACK
6
CONTINUOUS
10
90.5883
20
-84.5103
11
92.5457
21
-84.5103
0
LINE
8
BLACK
6
CONTINUOUS
10
92.5457
20
-84.5103
11
92.7796
21
-84.5515
0
LINE
8
BLACK
6
CONTINUOUS
10
107.639
20
-84.5002
11
107.913
21
-84.6589
0
LINE
8
BLACK
6
CONTINUOUS
10
107.913
20
-84.6589
11
108.117
21
-84.9021
0
LINE
8
BLACK
6
CONTINUOUS
10
108.117
20
-84.9021
11
108.226
21
-85.2003
0
LINE
8
BLACK
6
CONTINUOUS
10
108.226
20
-85.2003
11
108.226
21
-85.5177
0
LINE
8
BLACK
6
CONTINUOUS
10
108.226
20
-85.5177
11
108.117
21
-85.8159
0
LINE
8
BLACK
6
CONTINUOUS
10
108.117
20
-85.8159
11
107.913
21
-86.0591
0
LINE
8
BLACK
6
CONTINUOUS
10
107.913
20
-86.0591
11
107.639
21
-86.2178
0
LINE
8
BLACK
6
CONTINUOUS
10
107.639
20
-86.2178
11
107.405
21
-86.259
0
LINE
8
BLACK
6
CONTINUOUS
10
107.405
20
-86.259
11
105.447
21
-86.259
0
LINE
8
BLACK
6
CONTINUOUS
10
105.447
20
-86.259
11
105.213
21
-86.2178
0
LINE
8
BLACK
6
CONTINUOUS
10
105.213
20
-86.2178
11
104.939
21
-86.0591
0
LINE
8
BLACK
6
CONTINUOUS
10
104.939
20
-86.0591
11
104.735
21
-85.8159
0
LINE
8
BLACK
6
CONTINUOUS
10
104.735
20
-85.8159
11
104.626
21
-85.5177
0
LINE
8
BLACK
6
CONTINUOUS
10
104.626
20
-85.5177
11
104.626
21
-85.2003
0
LINE
8
BLACK
6
CONTINUOUS
10
104.626
20
-85.2003
11
104.735
21
-84.9021
0
LINE
8
BLACK
6
CONTINUOUS
10
104.735
20
-84.9021
11
104.939
21
-84.6589
0
LINE
8
BLACK
6
CONTINUOUS
10
104.939
20
-84.6589
11
105.213
21
-84.5002
0
LINE
8
BLACK
6
CONTINUOUS
10
105.213
20
-84.5002
11
105.447
21
-84.459
0
LINE
8
BLACK
6
CONTINUOUS
10
105.447
20
-84.459
11
107.405
21
-84.459
0
LINE
8
BLACK
6
CONTINUOUS
10
107.405
20
-84.459
11
107.639
21
-84.5002
0
LINE
8
BLACK
6
CONTINUOUS
10
155.138
20
-83.123
11
155.402
21
-83.2752
0
LINE
8
BLACK
6
CONTINUOUS
10
155.402
20
-83.2752
11
155.598
21
-83.5085
0
LINE
8
BLACK
6
CONTINUOUS
10
155.598
20
-83.5085
11
155.702
21
-83.7947
0
LINE
8
BLACK
6
CONTINUOUS
10
155.702
20
-83.7947
11
155.702
21
-84.0993
0
LINE
8
BLACK
6
CONTINUOUS
10
155.702
20
-84.0993
11
155.598
21
-84.3855
0
LINE
8
BLACK
6
CONTINUOUS
10
155.598
20
-84.3855
11
155.402
21
-84.6188
0
LINE
8
BLACK
6
CONTINUOUS
10
155.402
20
-84.6188
11
155.138
21
-84.771
0
LINE
8
BLACK
6
CONTINUOUS
10
155.138
20
-84.771
11
154.914
21
-84.8106
0
LINE
8
BLACK
6
CONTINUOUS
10
154.914
20
-84.8106
11
154.458
21
-84.8106
0
LINE
8
BLACK
6
CONTINUOUS
10
154.458
20
-84.8106
11
154.234
21
-84.771
0
LINE
8
BLACK
6
CONTINUOUS
10
154.234
20
-84.771
11
153.97
21
-84.6188
0
LINE
8
BLACK
6
CONTINUOUS
10
153.97
20
-84.6188
11
153.774
21
-84.3855
0
LINE
8
BLACK
6
CONTINUOUS
10
153.774
20
-84.3855
11
153.67
21
-84.0993
0
LINE
8
BLACK
6
CONTINUOUS
10
153.67
20
-84.0993
11
153.67
21
-83.7947
0
LINE
8
BLACK
6
CONTINUOUS
10
153.67
20
-83.7947
11
153.774
21
-83.5085
0
LINE
8
BLACK
6
CONTINUOUS
10
153.774
20
-83.5085
11
153.97
21
-83.2752
0
LINE
8
BLACK
6
CONTINUOUS
10
153.97
20
-83.2752
11
154.234
21
-83.123
0
LINE
8
BLACK
6
CONTINUOUS
10
154.234
20
-83.123
11
154.458
21
-83.0834
0
LINE
8
BLACK
6
CONTINUOUS
10
154.458
20
-83.0834
11
154.914
21
-83.0834
0
LINE
8
BLACK
6
CONTINUOUS
10
154.914
20
-83.0834
11
155.138
21
-83.123
0
LINE
8
BLACK
6
CONTINUOUS
10
139.898
20
-83.123
11
140.162
21
-83.2752
0
LINE
8
BLACK
6
CONTINUOUS
10
140.162
20
-83.2752
11
140.358
21
-83.5085
0
LINE
8
BLACK
6
CONTINUOUS
10
140.358
20
-83.5085
11
140.462
21
-83.7947
0
LINE
8
BLACK
6
CONTINUOUS
10
140.462
20
-83.7947
11
140.462
21
-84.0993
0
LINE
8
BLACK
6
CONTINUOUS
10
140.462
20
-84.0993
11
140.358
21
-84.3855
0
LINE
8
BLACK
6
CONTINUOUS
10
140.358
20
-84.3855
11
140.162
21
-84.6188
0
LINE
8
BLACK
6
CONTINUOUS
10
140.162
20
-84.6188
11
139.898
21
-84.771
0
LINE
8
BLACK
6
CONTINUOUS
10
139.898
20
-84.771
11
139.674
21
-84.8106
0
LINE
8
BLACK
6
CONTINUOUS
10
139.674
20
-84.8106
11
139.218
21
-84.8106
0
LINE
8
BLACK
6
CONTINUOUS
10
139.218
20
-84.8106
11
138.994
21
-84.771
0
LINE
8
BLACK
6
CONTINUOUS
10
138.994
20
-84.771
11
138.73
21
-84.6188
0
LINE
8
BLACK
6
CONTINUOUS
10
138.73
20
-84.6188
11
138.534
21
-84.3855
0
LINE
8
BLACK
6
CONTINUOUS
10
138.534
20
-84.3855
11
138.43
21
-84.0993
0
LINE
8
BLACK
6
CONTINUOUS
10
138.43
20
-84.0993
11
138.43
21
-83.7947
0
LINE
8
BLACK
6
CONTINUOUS
10
138.43
20
-83.7947
11
138.534
21
-83.5085
0
LINE
8
BLACK
6
CONTINUOUS
10
138.534
20
-83.5085
11
138.73
21
-83.2752
0
LINE
8
BLACK
6
CONTINUOUS
10
138.73
20
-83.2752
11
138.994
21
-83.123
0
LINE
8
BLACK
6
CONTINUOUS
10
138.994
20
-83.123
11
139.218
21
-83.0834
0
LINE
8
BLACK
6
CONTINUOUS
10
139.218
20
-83.0834
11
139.674
21
-83.0834
0
LINE
8
BLACK
6
CONTINUOUS
10
139.674
20
-83.0834
11
139.898
21
-83.123
0
LINE
8
BLACK
6
CONTINUOUS
10
92.7796
20
-81.0515
11
93.0544
21
-81.2102
0
LINE
8
BLACK
6
CONTINUOUS
10
93.0544
20
-81.2102
11
93.2584
21
-81.4533
0
LINE
8
BLACK
6
CONTINUOUS
10
93.2584
20
-81.4533
11
93.367
21
-81.7516
0
LINE
8
BLACK
6
CONTINUOUS
10
93.367
20
-81.7516
11
93.367
21
-82.069
0
LINE
8
BLACK
6
CONTINUOUS
10
93.367
20
-82.069
11
93.2584
21
-82.3672
0
LINE
8
BLACK
6
CONTINUOUS
10
93.2584
20
-82.3672
11
93.0544
21
-82.6104
0
LINE
8
BLACK
6
CONTINUOUS
10
93.0544
20
-82.6104
11
92.7796
21
-82.769
0
LINE
8
BLACK
6
CONTINUOUS
10
92.7796
20
-82.769
11
92.5457
21
-82.8103
0
LINE
8
BLACK
6
CONTINUOUS
10
92.5457
20
-82.8103
11
90.5883
21
-82.8103
0
LINE
8
BLACK
6
CONTINUOUS
10
90.5883
20
-82.8103
11
90.3544
21
-82.769
0
LINE
8
BLACK
6
CONTINUOUS
10
90.3544
20
-82.769
11
90.0796
21
-82.6104
0
LINE
8
BLACK
6
CONTINUOUS
10
90.0796
20
-82.6104
11
89.8756
21
-82.3672
0
LINE
8
BLACK
6
CONTINUOUS
10
89.8756
20
-82.3672
11
89.767
21
-82.069
0
LINE
8
BLACK
6
CONTINUOUS
10
89.767
20
-82.069
11
89.767
21
-81.7516
0
LINE
8
BLACK
6
CONTINUOUS
10
89.767
20
-81.7516
11
89.8756
21
-81.4533
0
LINE
8
BLACK
6
CONTINUOUS
10
89.8756
20
-81.4533
11
90.0796
21
-81.2102
0
LINE
8
BLACK
6
CONTINUOUS
10
90.0796
20
-81.2102
11
90.3544
21
-81.0515
0
LINE
8
BLACK
6
CONTINUOUS
10
90.3544
20
-81.0515
11
90.5883
21
-81.0103
0
LINE
8
BLACK
6
CONTINUOUS
10
90.5883
20
-81.0103
11
92.5457
21
-81.0103
0
LINE
8
BLACK
6
CONTINUOUS
10
92.5457
20
-81.0103
11
92.7796
21
-81.0515
0
LINE
8
BLACK
6
CONTINUOUS
10
107.639
20
-81.0002
11
107.913
21
-81.1589
0
LINE
8
BLACK
6
CONTINUOUS
10
107.913
20
-81.1589
11
108.117
21
-81.4021
0
LINE
8
BLACK
6
CONTINUOUS
10
108.117
20
-81.4021
11
108.226
21
-81.7003
0
LINE
8
BLACK
6
CONTINUOUS
10
108.226
20
-81.7003
11
108.226
21
-82.0177
0
LINE
8
BLACK
6
CONTINUOUS
10
108.226
20
-82.0177
11
108.117
21
-82.3159
0
LINE
8
BLACK
6
CONTINUOUS
10
108.117
20
-82.3159
11
107.913
21
-82.5591
0
LINE
8
BLACK
6
CONTINUOUS
10
107.913
20
-82.5591
11
107.639
21
-82.7178
0
LINE
8
BLACK
6
CONTINUOUS
10
107.639
20
-82.7178
11
107.405
21
-82.759
0
LINE
8
BLACK
6
CONTINUOUS
10
107.405
20
-82.759
11
105.447
21
-82.759
0
LINE
8
BLACK
6
CONTINUOUS
10
105.447
20
-82.759
11
105.213
21
-82.7178
0
LINE
8
BLACK
6
CONTINUOUS
10
105.213
20
-82.7178
11
104.939
21
-82.5591
0
LINE
8
BLACK
6
CONTINUOUS
10
104.939
20
-82.5591
11
104.735
21
-82.3159
0
LINE
8
BLACK
6
CONTINUOUS
10
104.735
20
-82.3159
11
104.626
21
-82.0177
0
LINE
8
BLACK
6
CONTINUOUS
10
104.626
20
-82.0177
11
104.626
21
-81.7003
0
LINE
8
BLACK
6
CONTINUOUS
10
104.626
20
-81.7003
11
104.735
21
-81.4021
0
LINE
8
BLACK
6
CONTINUOUS
10
104.735
20
-81.4021
11
104.939
21
-81.1589
0
LINE
8
BLACK
6
CONTINUOUS
10
104.939
20
-81.1589
11
105.213
21
-81.0002
0
LINE
8
BLACK
6
CONTINUOUS
10
105.213
20
-81.0002
11
105.447
21
-80.959
0
LINE
8
BLACK
6
CONTINUOUS
10
105.447
20
-80.959
11
107.405
21
-80.959
0
LINE
8
BLACK
6
CONTINUOUS
10
107.405
20
-80.959
11
107.639
21
-81.0002
0
LINE
8
BLACK
6
CONTINUOUS
10
155.138
20
-80.583
11
155.402
21
-80.7352
0
LINE
8
BLACK
6
CONTINUOUS
10
155.402
20
-80.7352
11
155.598
21
-80.9685
0
LINE
8
BLACK
6
CONTINUOUS
10
155.598
20
-80.9685
11
155.702
21
-81.2547
0
LINE
8
BLACK
6
CONTINUOUS
10
155.702
20
-81.2547
11
155.702
21
-81.5593
0
LINE
8
BLACK
6
CONTINUOUS
10
155.702
20
-81.5593
11
155.598
21
-81.8455
0
LINE
8
BLACK
6
CONTINUOUS
10
155.598
20
-81.8455
11
155.402
21
-82.0788
0
LINE
8
BLACK
6
CONTINUOUS
10
155.402
20
-82.0788
11
155.138
21
-82.231
0
LINE
8
BLACK
6
CONTINUOUS
10
155.138
20
-82.231
11
154.914
21
-82.2706
0
LINE
8
BLACK
6
CONTINUOUS
10
154.914
20
-82.2706
11
154.458
21
-82.2706
0
LINE
8
BLACK
6
CONTINUOUS
10
154.458
20
-82.2706
11
154.234
21
-82.231
0
LINE
8
BLACK
6
CONTINUOUS
10
154.234
20
-82.231
11
153.97
21
-82.0788
0
LINE
8
BLACK
6
CONTINUOUS
10
153.97
20
-82.0788
11
153.774
21
-81.8455
0
LINE
8
BLACK
6
CONTINUOUS
10
153.774
20
-81.8455
11
153.67
21
-81.5593
0
LINE
8
BLACK
6
CONTINUOUS
10
153.67
20
-81.5593
11
153.67
21
-81.2547
0
LINE
8
BLACK
6
CONTINUOUS
10
153.67
20
-81.2547
11
153.774
21
-80.9685
0
LINE
8
BLACK
6
CONTINUOUS
10
153.774
20
-80.9685
11
153.97
21
-80.7352
0
LINE
8
BLACK
6
CONTINUOUS
10
153.97
20
-80.7352
11
154.234
21
-80.583
0
LINE
8
BLACK
6
CONTINUOUS
10
154.234
20
-80.583
11
154.458
21
-80.5434
0
LINE
8
BLACK
6
CONTINUOUS
10
154.458
20
-80.5434
11
154.914
21
-80.5434
0
LINE
8
BLACK
6
CONTINUOUS
10
154.914
20
-80.5434
11
155.138
21
-80.583
0
LINE
8
BLACK
6
CONTINUOUS
10
139.898
20
-80.583
11
140.162
21
-80.7352
0
LINE
8
BLACK
6
CONTINUOUS
10
140.162
20
-80.7352
11
140.358
21
-80.9685
0
LINE
8
BLACK
6
CONTINUOUS
10
140.358
20
-80.9685
11
140.462
21
-81.2547
0
LINE
8
BLACK
6
CONTINUOUS
10
140.462
20
-81.2547
11
140.462
21
-81.5593
0
LINE
8
BLACK
6
CONTINUOUS
10
140.462
20
-81.5593
11
140.358
21
-81.8455
0
LINE
8
BLACK
6
CONTINUOUS
10
140.358
20
-81.8455
11
140.162
21
-82.0788
0
LINE
8
BLACK
6
CONTINUOUS
10
140.162
20
-82.0788
11
139.898
21
-82.231
0
LINE
8
BLACK
6
CONTINUOUS
10
139.898
20
-82.231
11
139.674
21
-82.2706
0
LINE
8
BLACK
6
CONTINUOUS
10
139.674
20
-82.2706
11
139.218
21
-82.2706
0
LINE
8
BLACK
6
CONTINUOUS
10
139.218
20
-82.2706
11
138.994
21
-82.231
0
LINE
8
BLACK
6
CONTINUOUS
10
138.994
20
-82.231
11
138.73
21
-82.0788
0
LINE
8
BLACK
6
CONTINUOUS
10
138.73
20
-82.0788
11
138.534
21
-81.8455
0
LINE
8
BLACK
6
CONTINUOUS
10
138.534
20
-81.8455
11
138.43
21
-81.5593
0
LINE
8
BLACK
6
CONTINUOUS
10
138.43
20
-81.5593
11
138.43
21
-81.2547
0
LINE
8
BLACK
6
CONTINUOUS
10
138.43
20
-81.2547
11
138.534
21
-80.9685
0
LINE
8
BLACK
6
CONTINUOUS
10
138.534
20
-80.9685
11
138.73
21
-80.7352
0
LINE
8
BLACK
6
CONTINUOUS
10
138.73
20
-80.7352
11
138.994
21
-80.583
0
LINE
8
BLACK
6
CONTINUOUS
10
138.994
20
-80.583
11
139.218
21
-80.5434
0
LINE
8
BLACK
6
CONTINUOUS
10
139.218
20
-80.5434
11
139.674
21
-80.5434
0
LINE
8
BLACK
6
CONTINUOUS
10
139.674
20
-80.5434
11
139.898
21
-80.583
0
LINE
8
BLACK
6
CONTINUOUS
10
139.898
20
-78.043
11
140.162
21
-78.1952
0
LINE
8
BLACK
6
CONTINUOUS
10
140.162
20
-78.1952
11
140.358
21
-78.4285
0
LINE
8
BLACK
6
CONTINUOUS
10
140.358
20
-78.4285
11
140.462
21
-78.7147
0
LINE
8
BLACK
6
CONTINUOUS
10
140.462
20
-78.7147
11
140.462
21
-79.0193
0
LINE
8
BLACK
6
CONTINUOUS
10
140.462
20
-79.0193
11
140.358
21
-79.3055
0
LINE
8
BLACK
6
CONTINUOUS
10
140.358
20
-79.3055
11
140.162
21
-79.5388
0
LINE
8
BLACK
6
CONTINUOUS
10
140.162
20
-79.5388
11
139.898
21
-79.691
0
LINE
8
BLACK
6
CONTINUOUS
10
139.898
20
-79.691
11
139.674
21
-79.7306
0
LINE
8
BLACK
6
CONTINUOUS
10
139.674
20
-79.7306
11
139.218
21
-79.7306
0
LINE
8
BLACK
6
CONTINUOUS
10
139.218
20
-79.7306
11
138.994
21
-79.691
0
LINE
8
BLACK
6
CONTINUOUS
10
138.994
20
-79.691
11
138.73
21
-79.5388
0
LINE
8
BLACK
6
CONTINUOUS
10
138.73
20
-79.5388
11
138.534
21
-79.3055
0
LINE
8
BLACK
6
CONTINUOUS
10
138.534
20
-79.3055
11
138.43
21
-79.0193
0
LINE
8
BLACK
6
CONTINUOUS
10
138.43
20
-79.0193
11
138.43
21
-78.7147
0
LINE
8
BLACK
6
CONTINUOUS
10
138.43
20
-78.7147
11
138.534
21
-78.4285
0
LINE
8
BLACK
6
CONTINUOUS
10
138.534
20
-78.4285
11
138.73
21
-78.1952
0
LINE
8
BLACK
6
CONTINUOUS
10
138.73
20
-78.1952
11
138.994
21
-78.043
0
LINE
8
BLACK
6
CONTINUOUS
10
138.994
20
-78.043
11
139.218
21
-78.0034
0
LINE
8
BLACK
6
CONTINUOUS
10
139.218
20
-78.0034
11
139.674
21
-78.0034
0
LINE
8
BLACK
6
CONTINUOUS
10
139.674
20
-78.0034
11
139.898
21
-78.043
0
LINE
8
BLACK
6
CONTINUOUS
10
155.138
20
-78.043
11
155.402
21
-78.1952
0
LINE
8
BLACK
6
CONTINUOUS
10
155.402
20
-78.1952
11
155.598
21
-78.4285
0
LINE
8
BLACK
6
CONTINUOUS
10
155.598
20
-78.4285
11
155.702
21
-78.7147
0
LINE
8
BLACK
6
CONTINUOUS
10
155.702
20
-78.7147
11
155.702
21
-79.0193
0
LINE
8
BLACK
6
CONTINUOUS
10
155.702
20
-79.0193
11
155.598
21
-79.3055
0
LINE
8
BLACK
6
CONTINUOUS
10
155.598
20
-79.3055
11
155.402
21
-79.5388
0
LINE
8
BLACK
6
CONTINUOUS
10
155.402
20
-79.5388
11
155.138
21
-79.691
0
LINE
8
BLACK
6
CONTINUOUS
10
155.138
20
-79.691
11
154.914
21
-79.7306
0
LINE
8
BLACK
6
CONTINUOUS
10
154.914
20
-79.7306
11
154.458
21
-79.7306
0
LINE
8
BLACK
6
CONTINUOUS
10
154.458
20
-79.7306
11
154.234
21
-79.691
0
LINE
8
BLACK
6
CONTINUOUS
10
154.234
20
-79.691
11
153.97
21
-79.5388
0
LINE
8
BLACK
6
CONTINUOUS
10
153.97
20
-79.5388
11
153.774
21
-79.3055
0
LINE
8
BLACK
6
CONTINUOUS
10
153.774
20
-79.3055
11
153.67
21
-79.0193
0
LINE
8
BLACK
6
CONTINUOUS
10
153.67
20
-79.0193
11
153.67
21
-78.7147
0
LINE
8
BLACK
6
CONTINUOUS
10
153.67
20
-78.7147
11
153.774
21
-78.4285
0
LINE
8
BLACK
6
CONTINUOUS
10
153.774
20
-78.4285
11
153.97
21
-78.1952
0
LINE
8
BLACK
6
CONTINUOUS
10
153.97
20
-78.1952
11
154.234
21
-78.043
0
LINE
8
BLACK
6
CONTINUOUS
10
154.234
20
-78.043
11
154.458
21
-78.0034
0
LINE
8
BLACK
6
CONTINUOUS
10
154.458
20
-78.0034
11
154.914
21
-78.0034
0
LINE
8
BLACK
6
CONTINUOUS
10
154.914
20
-78.0034
11
155.138
21
-78.043
0
LINE
8
BLACK
6
CONTINUOUS
10
93.2025
20
-77.5254
11
93.2777
21
-77.5688
0
LINE
8
BLACK
6
CONTINUOUS
10
93.2777
20
-77.5688
11
93.3335
21
-77.6353
0
LINE
8
BLACK
6
CONTINUOUS
10
93.3335
20
-77.6353
11
93.367
21
-77.7603
0
LINE
8
BLACK
6
CONTINUOUS
10
93.367
20
-77.7603
11
93.367
21
-79.0603
0
LINE
8
BLACK
6
CONTINUOUS
10
93.367
20
-79.0603
11
93.3519
21
-79.1458
0
LINE
8
BLACK
6
CONTINUOUS
10
93.3519
20
-79.1458
11
93.3085
21
-79.221
0
LINE
8
BLACK
6
CONTINUOUS
10
93.3085
20
-79.221
11
93.242
21
-79.2768
0
LINE
8
BLACK
6
CONTINUOUS
10
93.242
20
-79.2768
11
93.117
21
-79.3103
0
LINE
8
BLACK
6
CONTINUOUS
10
93.117
20
-79.3103
11
90.017
21
-79.3103
0
LINE
8
BLACK
6
CONTINUOUS
10
90.017
20
-79.3103
11
89.9315
21
-79.2952
0
LINE
8
BLACK
6
CONTINUOUS
10
89.9315
20
-79.2952
11
89.8563
21
-79.2518
0
LINE
8
BLACK
6
CONTINUOUS
10
89.8563
20
-79.2518
11
89.8005
21
-79.1853
0
LINE
8
BLACK
6
CONTINUOUS
10
89.8005
20
-79.1853
11
89.767
21
-79.0603
0
LINE
8
BLACK
6
CONTINUOUS
10
89.767
20
-79.0603
11
89.767
21
-77.7603
0
LINE
8
BLACK
6
CONTINUOUS
10
89.767
20
-77.7603
11
89.7821
21
-77.6748
0
LINE
8
BLACK
6
CONTINUOUS
10
89.7821
20
-77.6748
11
89.8255
21
-77.5996
0
LINE
8
BLACK
6
CONTINUOUS
10
89.8255
20
-77.5996
11
89.892
21
-77.5438
0
LINE
8
BLACK
6
CONTINUOUS
10
89.892
20
-77.5438
11
90.017
21
-77.5103
0
LINE
8
BLACK
6
CONTINUOUS
10
90.017
20
-77.5103
11
93.117
21
-77.5103
0
LINE
8
BLACK
6
CONTINUOUS
10
93.117
20
-77.5103
11
93.2025
21
-77.5254
0
LINE
8
BLACK
6
CONTINUOUS
10
108.062
20
-77.4741
11
108.137
21
-77.5175
0
LINE
8
BLACK
6
CONTINUOUS
10
108.137
20
-77.5175
11
108.193
21
-77.584
0
LINE
8
BLACK
6
CONTINUOUS
10
108.193
20
-77.584
11
108.226
21
-77.709
0
LINE
8
BLACK
6
CONTINUOUS
10
108.226
20
-77.709
11
108.226
21
-79.009
0
LINE
8
BLACK
6
CONTINUOUS
10
108.226
20
-79.009
11
108.211
21
-79.0945
0
LINE
8
BLACK
6
CONTINUOUS
10
108.211
20
-79.0945
11
108.168
21
-79.1697
0
LINE
8
BLACK
6
CONTINUOUS
10
108.168
20
-79.1697
11
108.101
21
-79.2255
0
LINE
8
BLACK
6
CONTINUOUS
10
108.101
20
-79.2255
11
107.976
21
-79.259
0
LINE
8
BLACK
6
CONTINUOUS
10
107.976
20
-79.259
11
104.876
21
-79.259
0
LINE
8
BLACK
6
CONTINUOUS
10
104.876
20
-79.259
11
104.79
21
-79.2439
0
LINE
8
BLACK
6
CONTINUOUS
10
104.79
20
-79.2439
11
104.715
21
-79.2005
0
LINE
8
BLACK
6
CONTINUOUS
10
104.715
20
-79.2005
11
104.659
21
-79.134
0
LINE
8
BLACK
6
CONTINUOUS
10
104.659
20
-79.134
11
104.626
21
-79.009
0
LINE
8
BLACK
6
CONTINUOUS
10
104.626
20
-79.009
11
104.626
21
-77.709
0
LINE
8
BLACK
6
CONTINUOUS
10
104.626
20
-77.709
11
104.641
21
-77.6235
0
LINE
8
BLACK
6
CONTINUOUS
10
104.641
20
-77.6235
11
104.684
21
-77.5483
0
LINE
8
BLACK
6
CONTINUOUS
10
104.684
20
-77.5483
11
104.751
21
-77.4925
0
LINE
8
BLACK
6
CONTINUOUS
10
104.751
20
-77.4925
11
104.876
21
-77.459
0
LINE
8
BLACK
6
CONTINUOUS
10
104.876
20
-77.459
11
107.976
21
-77.459
0
LINE
8
BLACK
6
CONTINUOUS
10
107.976
20
-77.459
11
108.062
21
-77.4741
0
LINE
8
BLACK
6
CONTINUOUS
10
155.138
20
-75.503
11
155.402
21
-75.6552
0
LINE
8
BLACK
6
CONTINUOUS
10
155.402
20
-75.6552
11
155.598
21
-75.8885
0
LINE
8
BLACK
6
CONTINUOUS
10
155.598
20
-75.8885
11
155.702
21
-76.1747
0
LINE
8
BLACK
6
CONTINUOUS
10
155.702
20
-76.1747
11
155.702
21
-76.4793
0
LINE
8
BLACK
6
CONTINUOUS
10
155.702
20
-76.4793
11
155.598
21
-76.7655
0
LINE
8
BLACK
6
CONTINUOUS
10
155.598
20
-76.7655
11
155.402
21
-76.9988
0
LINE
8
BLACK
6
CONTINUOUS
10
155.402
20
-76.9988
11
155.138
21
-77.151
0
LINE
8
BLACK
6
CONTINUOUS
10
155.138
20
-77.151
11
154.914
21
-77.1906
0
LINE
8
BLACK
6
CONTINUOUS
10
154.914
20
-77.1906
11
154.458
21
-77.1906
0
LINE
8
BLACK
6
CONTINUOUS
10
154.458
20
-77.1906
11
154.234
21
-77.151
0
LINE
8
BLACK
6
CONTINUOUS
10
154.234
20
-77.151
11
153.97
21
-76.9988
0
LINE
8
BLACK
6
CONTINUOUS
10
153.97
20
-76.9988
11
153.774
21
-76.7655
0
LINE
8
BLACK
6
CONTINUOUS
10
153.774
20
-76.7655
11
153.67
21
-76.4793
0
LINE
8
BLACK
6
CONTINUOUS
10
153.67
20
-76.4793
11
153.67
21
-76.1747
0
LINE
8
BLACK
6
CONTINUOUS
10
153.67
20
-76.1747
11
153.774
21
-75.8885
0
LINE
8
BLACK
6
CONTINUOUS
10
153.774
20
-75.8885
11
153.97
21
-75.6552
0
LINE
8
BLACK
6
CONTINUOUS
10
153.97
20
-75.6552
11
154.234
21
-75.503
0
LINE
8
BLACK
6
CONTINUOUS
10
154.234
20
-75.503
11
154.458
21
-75.4634
0
LINE
8
BLACK
6
CONTINUOUS
10
154.458
20
-75.4634
11
154.914
21
-75.4634
0
LINE
8
BLACK
6
CONTINUOUS
10
154.914
20
-75.4634
11
155.138
21
-75.503
0
LINE
8
BLACK
6
CONTINUOUS
10
139.898
20
-75.503
11
140.162
21
-75.6552
0
LINE
8
BLACK
6
CONTINUOUS
10
140.162
20
-75.6552
11
140.358
21
-75.8885
0
LINE
8
BLACK
6
CONTINUOUS
10
140.358
20
-75.8885
11
140.462
21
-76.1747
0
LINE
8
BLACK
6
CONTINUOUS
10
140.462
20
-76.1747
11
140.462
21
-76.4793
0
LINE
8
BLACK
6
CONTINUOUS
10
140.462
20
-76.4793
11
140.358
21
-76.7655
0
LINE
8
BLACK
6
CONTINUOUS
10
140.358
20
-76.7655
11
140.162
21
-76.9988
0
LINE
8
BLACK
6
CONTINUOUS
10
140.162
20
-76.9988
11
139.898
21
-77.151
0
LINE
8
BLACK
6
CONTINUOUS
10
139.898
20
-77.151
11
139.674
21
-77.1906
0
LINE
8
BLACK
6
CONTINUOUS
10
139.674
20
-77.1906
11
139.218
21
-77.1906
0
LINE
8
BLACK
6
CONTINUOUS
10
139.218
20
-77.1906
11
138.994
21
-77.151
0
LINE
8
BLACK
6
CONTINUOUS
10
138.994
20
-77.151
11
138.73
21
-76.9988
0
LINE
8
BLACK
6
CONTINUOUS
10
138.73
20
-76.9988
11
138.534
21
-76.7655
0
LINE
8
BLACK
6
CONTINUOUS
10
138.534
20
-76.7655
11
138.43
21
-76.4793
0
LINE
8
BLACK
6
CONTINUOUS
10
138.43
20
-76.4793
11
138.43
21
-76.1747
0
LINE
8
BLACK
6
CONTINUOUS
10
138.43
20
-76.1747
11
138.534
21
-75.8885
0
LINE
8
BLACK
6
CONTINUOUS
10
138.534
20
-75.8885
11
138.73
21
-75.6552
0
LINE
8
BLACK
6
CONTINUOUS
10
138.73
20
-75.6552
11
138.994
21
-75.503
0
LINE
8
BLACK
6
CONTINUOUS
10
138.994
20
-75.503
11
139.218
21
-75.4634
0
LINE
8
BLACK
6
CONTINUOUS
10
139.218
20
-75.4634
11
139.674
21
-75.4634
0
LINE
8
BLACK
6
CONTINUOUS
10
139.674
20
-75.4634
11
139.898
21
-75.503
0
LINE
8
BLACK
6
CONTINUOUS
10
155.138
20
-72.963
11
155.402
21
-73.1152
0
LINE
8
BLACK
6
CONTINUOUS
10
155.402
20
-73.1152
11
155.598
21
-73.3485
0
LINE
8
BLACK
6
CONTINUOUS
10
155.598
20
-73.3485
11
155.702
21
-73.6347
0
LINE
8
BLACK
6
CONTINUOUS
10
155.702
20
-73.6347
11
155.702
21
-73.9393
0
LINE
8
BLACK
6
CONTINUOUS
10
155.702
20
-73.9393
11
155.598
21
-74.2255
0
LINE
8
BLACK
6
CONTINUOUS
10
155.598
20
-74.2255
11
155.402
21
-74.4588
0
LINE
8
BLACK
6
CONTINUOUS
10
155.402
20
-74.4588
11
155.138
21
-74.611
0
LINE
8
BLACK
6
CONTINUOUS
10
155.138
20
-74.611
11
154.914
21
-74.6506
0
LINE
8
BLACK
6
CONTINUOUS
10
154.914
20
-74.6506
11
154.458
21
-74.6506
0
LINE
8
BLACK
6
CONTINUOUS
10
154.458
20
-74.6506
11
154.234
21
-74.611
0
LINE
8
BLACK
6
CONTINUOUS
10
154.234
20
-74.611
11
153.97
21
-74.4588
0
LINE
8
BLACK
6
CONTINUOUS
10
153.97
20
-74.4588
11
153.774
21
-74.2255
0
LINE
8
BLACK
6
CONTINUOUS
10
153.774
20
-74.2255
11
153.67
21
-73.9393
0
LINE
8
BLACK
6
CONTINUOUS
10
153.67
20
-73.9393
11
153.67
21
-73.6347
0
LINE
8
BLACK
6
CONTINUOUS
10
153.67
20
-73.6347
11
153.774
21
-73.3485
0
LINE
8
BLACK
6
CONTINUOUS
10
153.774
20
-73.3485
11
153.97
21
-73.1152
0
LINE
8
BLACK
6
CONTINUOUS
10
153.97
20
-73.1152
11
154.234
21
-72.963
0
LINE
8
BLACK
6
CONTINUOUS
10
154.234
20
-72.963
11
154.458
21
-72.9234
0
LINE
8
BLACK
6
CONTINUOUS
10
154.458
20
-72.9234
11
154.914
21
-72.9234
0
LINE
8
BLACK
6
CONTINUOUS
10
154.914
20
-72.9234
11
155.138
21
-72.963
0
LINE
8
BLACK
6
CONTINUOUS
10
139.898
20
-72.963
11
140.162
21
-73.1152
0
LINE
8
BLACK
6
CONTINUOUS
10
140.162
20
-73.1152
11
140.358
21
-73.3485
0
LINE
8
BLACK
6
CONTINUOUS
10
140.358
20
-73.3485
11
140.462
21
-73.6347
0
LINE
8
BLACK
6
CONTINUOUS
10
140.462
20
-73.6347
11
140.462
21
-73.9393
0
LINE
8
BLACK
6
CONTINUOUS
10
140.462
20
-73.9393
11
140.358
21
-74.2255
0
LINE
8
BLACK
6
CONTINUOUS
10
140.358
20
-74.2255
11
140.162
21
-74.4588
0
LINE
8
BLACK
6
CONTINUOUS
10
140.162
20
-74.4588
11
139.898
21
-74.611
0
LINE
8
BLACK
6
CONTINUOUS
10
139.898
20
-74.611
11
139.674
21
-74.6506
0
LINE
8
BLACK
6
CONTINUOUS
10
139.674
20
-74.6506
11
139.218
21
-74.6506
0
LINE
8
BLACK
6
CONTINUOUS
10
139.218
20
-74.6506
11
138.994
21
-74.611
0
LINE
8
BLACK
6
CONTINUOUS
10
138.994
20
-74.611
11
138.73
21
-74.4588
0
LINE
8
BLACK
6
CONTINUOUS
10
138.73
20
-74.4588
11
138.534
21
-74.2255
0
LINE
8
BLACK
6
CONTINUOUS
10
138.534
20
-74.2255
11
138.43
21
-73.9393
0
LINE
8
BLACK
6
CONTINUOUS
10
138.43
20
-73.9393
11
138.43
21
-73.6347
0
LINE
8
BLACK
6
CONTINUOUS
10
138.43
20
-73.6347
11
138.534
21
-73.3485
0
LINE
8
BLACK
6
CONTINUOUS
10
138.534
20
-73.3485
11
138.73
21
-73.1152
0
LINE
8
BLACK
6
CONTINUOUS
10
138.73
20
-73.1152
11
138.994
21
-72.963
0
LINE
8
BLACK
6
CONTINUOUS
10
138.994
20
-72.963
11
139.218
21
-72.9234
0
LINE
8
BLACK
6
CONTINUOUS
10
139.218
20
-72.9234
11
139.674
21
-72.9234
0
LINE
8
BLACK
6
CONTINUOUS
10
139.674
20
-72.9234
11
139.898
21
-72.963
0
LINE
8
BLACK
6
CONTINUOUS
10
155.138
20
-70.423
11
155.402
21
-70.5752
0
LINE
8
BLACK
6
CONTINUOUS
10
155.402
20
-70.5752
11
155.598
21
-70.8085
0
LINE
8
BLACK
6
CONTINUOUS
10
155.598
20
-70.8085
11
155.702
21
-71.0947
0
LINE
8
BLACK
6
CONTINUOUS
10
155.702
20
-71.0947
11
155.702
21
-71.3993
0
LINE
8
BLACK
6
CONTINUOUS
10
155.702
20
-71.3993
11
155.598
21
-71.6855
0
LINE
8
BLACK
6
CONTINUOUS
10
155.598
20
-71.6855
11
155.402
21
-71.9188
0
LINE
8
BLACK
6
CONTINUOUS
10
155.402
20
-71.9188
11
155.138
21
-72.071
0
LINE
8
BLACK
6
CONTINUOUS
10
155.138
20
-72.071
11
154.914
21
-72.1106
0
LINE
8
BLACK
6
CONTINUOUS
10
154.914
20
-72.1106
11
154.458
21
-72.1106
0
LINE
8
BLACK
6
CONTINUOUS
10
154.458
20
-72.1106
11
154.234
21
-72.071
0
LINE
8
BLACK
6
CONTINUOUS
10
154.234
20
-72.071
11
153.97
21
-71.9188
0
LINE
8
BLACK
6
CONTINUOUS
10
153.97
20
-71.9188
11
153.774
21
-71.6855
0
LINE
8
BLACK
6
CONTINUOUS
10
153.774
20
-71.6855
11
153.67
21
-71.3993
0
LINE
8
BLACK
6
CONTINUOUS
10
153.67
20
-71.3993
11
153.67
21
-71.0947
0
LINE
8
BLACK
6
CONTINUOUS
10
153.67
20
-71.0947
11
153.774
21
-70.8085
0
LINE
8
BLACK
6
CONTINUOUS
10
153.774
20
-70.8085
11
153.97
21
-70.5752
0
LINE
8
BLACK
6
CONTINUOUS
10
153.97
20
-70.5752
11
154.234
21
-70.423
0
LINE
8
BLACK
6
CONTINUOUS
10
154.234
20
-70.423
11
154.458
21
-70.3834
0
LINE
8
BLACK
6
CONTINUOUS
10
154.458
20
-70.3834
11
154.914
21
-70.3834
0
LINE
8
BLACK
6
CONTINUOUS
10
154.914
20
-70.3834
11
155.138
21
-70.423
0
LINE
8
BLACK
6
CONTINUOUS
10
139.898
20
-70.423
11
140.162
21
-70.5752
0
LINE
8
BLACK
6
CONTINUOUS
10
140.162
20
-70.5752
11
140.358
21
-70.8085
0
LINE
8
BLACK
6
CONTINUOUS
10
140.358
20
-70.8085
11
140.462
21
-71.0947
0
LINE
8
BLACK
6
CONTINUOUS
10
140.462
20
-71.0947
11
140.462
21
-71.3993
0
LINE
8
BLACK
6
CONTINUOUS
10
140.462
20
-71.3993
11
140.358
21
-71.6855
0
LINE
8
BLACK
6
CONTINUOUS
10
140.358
20
-71.6855
11
140.162
21
-71.9188
0
LINE
8
BLACK
6
CONTINUOUS
10
140.162
20
-71.9188
11
139.898
21
-72.071
0
LINE
8
BLACK
6
CONTINUOUS
10
139.898
20
-72.071
11
139.674
21
-72.1106
0
LINE
8
BLACK
6
CONTINUOUS
10
139.674
20
-72.1106
11
139.218
21
-72.1106
0
LINE
8
BLACK
6
CONTINUOUS
10
139.218
20
-72.1106
11
138.994
21
-72.071
0
LINE
8
BLACK
6
CONTINUOUS
10
138.994
20
-72.071
11
138.73
21
-71.9188
0
LINE
8
BLACK
6
CONTINUOUS
10
138.73
20
-71.9188
11
138.534
21
-71.6855
0
LINE
8
BLACK
6
CONTINUOUS
10
138.534
20
-71.6855
11
138.43
21
-71.3993
0
LINE
8
BLACK
6
CONTINUOUS
10
138.43
20
-71.3993
11
138.43
21
-71.0947
0
LINE
8
BLACK
6
CONTINUOUS
10
138.43
20
-71.0947
11
138.534
21
-70.8085
0
LINE
8
BLACK
6
CONTINUOUS
10
138.534
20
-70.8085
11
138.73
21
-70.5752
0
LINE
8
BLACK
6
CONTINUOUS
10
138.73
20
-70.5752
11
138.994
21
-70.423
0
LINE
8
BLACK
6
CONTINUOUS
10
138.994
20
-70.423
11
139.218
21
-70.3834
0
LINE
8
BLACK
6
CONTINUOUS
10
139.218
20
-70.3834
11
139.674
21
-70.3834
0
LINE
8
BLACK
6
CONTINUOUS
10
139.674
20
-70.3834
11
139.898
21
-70.423
0
LINE
8
BLACK
6
CONTINUOUS
10
92.7796
20
-68.8532
11
93.0544
21
-69.0119
0
LINE
8
BLACK
6
CONTINUOUS
10
93.0544
20
-69.0119
11
93.2584
21
-69.2551
0
LINE
8
BLACK
6
CONTINUOUS
10
93.2584
20
-69.2551
11
93.367
21
-69.5533
0
LINE
8
BLACK
6
CONTINUOUS
10
93.367
20
-69.5533
11
93.367
21
-69.8707
0
LINE
8
BLACK
6
CONTINUOUS
10
93.367
20
-69.8707
11
93.2584
21
-70.1689
0
LINE
8
BLACK
6
CONTINUOUS
10
93.2584
20
-70.1689
11
93.0544
21
-70.4121
0
LINE
8
BLACK
6
CONTINUOUS
10
93.0544
20
-70.4121
11
92.7796
21
-70.5708
0
LINE
8
BLACK
6
CONTINUOUS
10
92.7796
20
-70.5708
11
92.5457
21
-70.612
0
LINE
8
BLACK
6
CONTINUOUS
10
92.5457
20
-70.612
11
90.5883
21
-70.612
0
LINE
8
BLACK
6
CONTINUOUS
10
90.5883
20
-70.612
11
90.3544
21
-70.5708
0
LINE
8
BLACK
6
CONTINUOUS
10
90.3544
20
-70.5708
11
90.0796
21
-70.4121
0
LINE
8
BLACK
6
CONTINUOUS
10
90.0796
20
-70.4121
11
89.8756
21
-70.1689
0
LINE
8
BLACK
6
CONTINUOUS
10
89.8756
20
-70.1689
11
89.767
21
-69.8707
0
LINE
8
BLACK
6
CONTINUOUS
10
89.767
20
-69.8707
11
89.767
21
-69.5533
0
LINE
8
BLACK
6
CONTINUOUS
10
89.767
20
-69.5533
11
89.8756
21
-69.2551
0
LINE
8
BLACK
6
CONTINUOUS
10
89.8756
20
-69.2551
11
90.0796
21
-69.0119
0
LINE
8
BLACK
6
CONTINUOUS
10
90.0796
20
-69.0119
11
90.3544
21
-68.8532
0
LINE
8
BLACK
6
CONTINUOUS
10
90.3544
20
-68.8532
11
90.5883
21
-68.812
0
LINE
8
BLACK
6
CONTINUOUS
10
90.5883
20
-68.812
11
92.5457
21
-68.812
0
LINE
8
BLACK
6
CONTINUOUS
10
92.5457
20
-68.812
11
92.7796
21
-68.8532
0
LINE
8
BLACK
6
CONTINUOUS
10
139.887
20
-67.4952
11
140.275
21
-67.7191
0
LINE
8
BLACK
6
CONTINUOUS
10
140.275
20
-67.7191
11
140.563
21
-68.0622
0
LINE
8
BLACK
6
CONTINUOUS
10
140.563
20
-68.0622
11
140.716
21
-68.4831
0
LINE
8
BLACK
6
CONTINUOUS
10
140.716
20
-68.4831
11
140.716
21
-68.9309
0
LINE
8
BLACK
6
CONTINUOUS
10
140.716
20
-68.9309
11
140.563
21
-69.3518
0
LINE
8
BLACK
6
CONTINUOUS
10
140.563
20
-69.3518
11
140.275
21
-69.6949
0
LINE
8
BLACK
6
CONTINUOUS
10
140.275
20
-69.6949
11
139.887
21
-69.9188
0
LINE
8
BLACK
6
CONTINUOUS
10
139.887
20
-69.9188
11
139.446
21
-69.9966
0
LINE
8
BLACK
6
CONTINUOUS
10
139.446
20
-69.9966
11
139.005
21
-69.9188
0
LINE
8
BLACK
6
CONTINUOUS
10
139.005
20
-69.9188
11
138.617
21
-69.6949
0
LINE
8
BLACK
6
CONTINUOUS
10
138.617
20
-69.6949
11
138.329
21
-69.3518
0
LINE
8
BLACK
6
CONTINUOUS
10
138.329
20
-69.3518
11
138.176
21
-68.9309
0
LINE
8
BLACK
6
CONTINUOUS
10
138.176
20
-68.9309
11
138.176
21
-68.4831
0
LINE
8
BLACK
6
CONTINUOUS
10
138.176
20
-68.4831
11
138.329
21
-68.0622
0
LINE
8
BLACK
6
CONTINUOUS
10
138.329
20
-68.0622
11
138.617
21
-67.7191
0
LINE
8
BLACK
6
CONTINUOUS
10
138.617
20
-67.7191
11
139.005
21
-67.4952
0
LINE
8
BLACK
6
CONTINUOUS
10
139.005
20
-67.4952
11
139.446
21
-67.4174
0
LINE
8
BLACK
6
CONTINUOUS
10
139.446
20
-67.4174
11
139.887
21
-67.4952
0
LINE
8
BLACK
6
CONTINUOUS
10
155.127
20
-67.4952
11
155.515
21
-67.7191
0
LINE
8
BLACK
6
CONTINUOUS
10
155.515
20
-67.7191
11
155.803
21
-68.0622
0
LINE
8
BLACK
6
CONTINUOUS
10
155.803
20
-68.0622
11
155.956
21
-68.4831
0
LINE
8
BLACK
6
CONTINUOUS
10
155.956
20
-68.4831
11
155.956
21
-68.9309
0
LINE
8
BLACK
6
CONTINUOUS
10
155.956
20
-68.9309
11
155.803
21
-69.3518
0
LINE
8
BLACK
6
CONTINUOUS
10
155.803
20
-69.3518
11
155.515
21
-69.6949
0
LINE
8
BLACK
6
CONTINUOUS
10
155.515
20
-69.6949
11
155.127
21
-69.9188
0
LINE
8
BLACK
6
CONTINUOUS
10
155.127
20
-69.9188
11
154.686
21
-69.9966
0
LINE
8
BLACK
6
CONTINUOUS
10
154.686
20
-69.9966
11
154.245
21
-69.9188
0
LINE
8
BLACK
6
CONTINUOUS
10
154.245
20
-69.9188
11
153.857
21
-69.6949
0
LINE
8
BLACK
6
CONTINUOUS
10
153.857
20
-69.6949
11
153.569
21
-69.3518
0
LINE
8
BLACK
6
CONTINUOUS
10
153.569
20
-69.3518
11
153.416
21
-68.9309
0
LINE
8
BLACK
6
CONTINUOUS
10
153.416
20
-68.9309
11
153.416
21
-68.4831
0
LINE
8
BLACK
6
CONTINUOUS
10
153.416
20
-68.4831
11
153.569
21
-68.0622
0
LINE
8
BLACK
6
CONTINUOUS
10
153.569
20
-68.0622
11
153.857
21
-67.7191
0
LINE
8
BLACK
6
CONTINUOUS
10
153.857
20
-67.7191
11
154.245
21
-67.4952
0
LINE
8
BLACK
6
CONTINUOUS
10
154.245
20
-67.4952
11
154.686
21
-67.4174
0
LINE
8
BLACK
6
CONTINUOUS
10
154.686
20
-67.4174
11
155.127
21
-67.4952
0
LINE
8
BLACK
6
CONTINUOUS
10
92.7796
20
-65.3532
11
93.0544
21
-65.5119
0
LINE
8
BLACK
6
CONTINUOUS
10
93.0544
20
-65.5119
11
93.2584
21
-65.7551
0
LINE
8
BLACK
6
CONTINUOUS
10
93.2584
20
-65.7551
11
93.367
21
-66.0533
0
LINE
8
BLACK
6
CONTINUOUS
10
93.367
20
-66.0533
11
93.367
21
-66.3707
0
LINE
8
BLACK
6
CONTINUOUS
10
93.367
20
-66.3707
11
93.2584
21
-66.6689
0
LINE
8
BLACK
6
CONTINUOUS
10
93.2584
20
-66.6689
11
93.0544
21
-66.9121
0
LINE
8
BLACK
6
CONTINUOUS
10
93.0544
20
-66.9121
11
92.7796
21
-67.0708
0
LINE
8
BLACK
6
CONTINUOUS
10
92.7796
20
-67.0708
11
92.5457
21
-67.112
0
LINE
8
BLACK
6
CONTINUOUS
10
92.5457
20
-67.112
11
90.5883
21
-67.112
0
LINE
8
BLACK
6
CONTINUOUS
10
90.5883
20
-67.112
11
90.3544
21
-67.0708
0
LINE
8
BLACK
6
CONTINUOUS
10
90.3544
20
-67.0708
11
90.0796
21
-66.9121
0
LINE
8
BLACK
6
CONTINUOUS
10
90.0796
20
-66.9121
11
89.8756
21
-66.6689
0
LINE
8
BLACK
6
CONTINUOUS
10
89.8756
20
-66.6689
11
89.767
21
-66.3707
0
LINE
8
BLACK
6
CONTINUOUS
10
89.767
20
-66.3707
11
89.767
21
-66.0533
0
LINE
8
BLACK
6
CONTINUOUS
10
89.767
20
-66.0533
11
89.8756
21
-65.7551
0
LINE
8
BLACK
6
CONTINUOUS
10
89.8756
20
-65.7551
11
90.0796
21
-65.5119
0
LINE
8
BLACK
6
CONTINUOUS
10
90.0796
20
-65.5119
11
90.3544
21
-65.3532
0
LINE
8
BLACK
6
CONTINUOUS
10
90.3544
20
-65.3532
11
90.5883
21
-65.312
0
LINE
8
BLACK
6
CONTINUOUS
10
90.5883
20
-65.312
11
92.5457
21
-65.312
0
LINE
8
BLACK
6
CONTINUOUS
10
92.5457
20
-65.312
11
92.7796
21
-65.3532
0
LINE
8
BLACK
6
CONTINUOUS
10
92.7796
20
-61.8532
11
93.0544
21
-62.0119
0
LINE
8
BLACK
6
CONTINUOUS
10
93.0544
20
-62.0119
11
93.2584
21
-62.2551
0
LINE
8
BLACK
6
CONTINUOUS
10
93.2584
20
-62.2551
11
93.367
21
-62.5533
0
LINE
8
BLACK
6
CONTINUOUS
10
93.367
20
-62.5533
11
93.367
21
-62.8707
0
LINE
8
BLACK
6
CONTINUOUS
10
93.367
20
-62.8707
11
93.2584
21
-63.1689
0
LINE
8
BLACK
6
CONTINUOUS
10
93.2584
20
-63.1689
11
93.0544
21
-63.4121
0
LINE
8
BLACK
6
CONTINUOUS
10
93.0544
20
-63.4121
11
92.7796
21
-63.5708
0
LINE
8
BLACK
6
CONTINUOUS
10
92.7796
20
-63.5708
11
92.5457
21
-63.612
0
LINE
8
BLACK
6
CONTINUOUS
10
92.5457
20
-63.612
11
90.5883
21
-63.612
0
LINE
8
BLACK
6
CONTINUOUS
10
90.5883
20
-63.612
11
90.3544
21
-63.5708
0
LINE
8
BLACK
6
CONTINUOUS
10
90.3544
20
-63.5708
11
90.0796
21
-63.4121
0
LINE
8
BLACK
6
CONTINUOUS
10
90.0796
20
-63.4121
11
89.8756
21
-63.1689
0
LINE
8
BLACK
6
CONTINUOUS
10
89.8756
20
-63.1689
11
89.767
21
-62.8707
0
LINE
8
BLACK
6
CONTINUOUS
10
89.767
20
-62.8707
11
89.767
21
-62.5533
0
LINE
8
BLACK
6
CONTINUOUS
10
89.767
20
-62.5533
11
89.8756
21
-62.2551
0
LINE
8
BLACK
6
CONTINUOUS
10
89.8756
20
-62.2551
11
90.0796
21
-62.0119
0
LINE
8
BLACK
6
CONTINUOUS
10
90.0796
20
-62.0119
11
90.3544
21
-61.8532
0
LINE
8
BLACK
6
CONTINUOUS
10
90.3544
20
-61.8532
11
90.5883
21
-61.812
0
LINE
8
BLACK
6
CONTINUOUS
10
90.5883
20
-61.812
11
92.5457
21
-61.812
0
LINE
8
BLACK
6
CONTINUOUS
10
92.5457
20
-61.812
11
92.7796
21
-61.8532
0
LINE
8
BLACK
6
CONTINUOUS
10
92.7796
20
-58.3532
11
93.0544
21
-58.5119
0
LINE
8
BLACK
6
CONTINUOUS
10
93.0544
20
-58.5119
11
93.2584
21
-58.7551
0
LINE
8
BLACK
6
CONTINUOUS
10
93.2584
20
-58.7551
11
93.367
21
-59.0533
0
LINE
8
BLACK
6
CONTINUOUS
10
93.367
20
-59.0533
11
93.367
21
-59.3707
0
LINE
8
BLACK
6
CONTINUOUS
10
93.367
20
-59.3707
11
93.2584
21
-59.6689
0
LINE
8
BLACK
6
CONTINUOUS
10
93.2584
20
-59.6689
11
93.0544
21
-59.9121
0
LINE
8
BLACK
6
CONTINUOUS
10
93.0544
20
-59.9121
11
92.7796
21
-60.0708
0
LINE
8
BLACK
6
CONTINUOUS
10
92.7796
20
-60.0708
11
92.5457
21
-60.112
0
LINE
8
BLACK
6
CONTINUOUS
10
92.5457
20
-60.112
11
90.5883
21
-60.112
0
LINE
8
BLACK
6
CONTINUOUS
10
90.5883
20
-60.112
11
90.3544
21
-60.0708
0
LINE
8
BLACK
6
CONTINUOUS
10
90.3544
20
-60.0708
11
90.0796
21
-59.9121
0
LINE
8
BLACK
6
CONTINUOUS
10
90.0796
20
-59.9121
11
89.8756
21
-59.6689
0
LINE
8
BLACK
6
CONTINUOUS
10
89.8756
20
-59.6689
11
89.767
21
-59.3707
0
LINE
8
BLACK
6
CONTINUOUS
10
89.767
20
-59.3707
11
89.767
21
-59.0533
0
LINE
8
BLACK
6
CONTINUOUS
10
89.767
20
-59.0533
11
89.8756
21
-58.7551
0
LINE
8
BLACK
6
CONTINUOUS
10
89.8756
20
-58.7551
11
90.0796
21
-58.5119
0
LINE
8
BLACK
6
CONTINUOUS
10
90.0796
20
-58.5119
11
90.3544
21
-58.3532
0
LINE
8
BLACK
6
CONTINUOUS
10
90.3544
20
-58.3532
11
90.5883
21
-58.312
0
LINE
8
BLACK
6
CONTINUOUS
10
90.5883
20
-58.312
11
92.5457
21
-58.312
0
LINE
8
BLACK
6
CONTINUOUS
10
92.5457
20
-58.312
11
92.7796
21
-58.3532
0
LINE
8
BLACK
6
CONTINUOUS
10
92.7796
20
-54.8532
11
93.0544
21
-55.0119
0
LINE
8
BLACK
6
CONTINUOUS
10
93.0544
20
-55.0119
11
93.2584
21
-55.2551
0
LINE
8
BLACK
6
CONTINUOUS
10
93.2584
20
-55.2551
11
93.367
21
-55.5533
0
LINE
8
BLACK
6
CONTINUOUS
10
93.367
20
-55.5533
11
93.367
21
-55.8707
0
LINE
8
BLACK
6
CONTINUOUS
10
93.367
20
-55.8707
11
93.2584
21
-56.1689
0
LINE
8
BLACK
6
CONTINUOUS
10
93.2584
20
-56.1689
11
93.0544
21
-56.4121
0
LINE
8
BLACK
6
CONTINUOUS
10
93.0544
20
-56.4121
11
92.7796
21
-56.5708
0
LINE
8
BLACK
6
CONTINUOUS
10
92.7796
20
-56.5708
11
92.5457
21
-56.612
0
LINE
8
BLACK
6
CONTINUOUS
10
92.5457
20
-56.612
11
90.5883
21
-56.612
0
LINE
8
BLACK
6
CONTINUOUS
10
90.5883
20
-56.612
11
90.3544
21
-56.5708
0
LINE
8
BLACK
6
CONTINUOUS
10
90.3544
20
-56.5708
11
90.0796
21
-56.4121
0
LINE
8
BLACK
6
CONTINUOUS
10
90.0796
20
-56.4121
11
89.8756
21
-56.1689
0
LINE
8
BLACK
6
CONTINUOUS
10
89.8756
20
-56.1689
11
89.767
21
-55.8707
0
LINE
8
BLACK
6
CONTINUOUS
10
89.767
20
-55.8707
11
89.767
21
-55.5533
0
LINE
8
BLACK
6
CONTINUOUS
10
89.767
20
-55.5533
11
89.8756
21
-55.2551
0
LINE
8
BLACK
6
CONTINUOUS
10
89.8756
20
-55.2551
11
90.0796
21
-55.0119
0
LINE
8
BLACK
6
CONTINUOUS
10
90.0796
20
-55.0119
11
90.3544
21
-54.8532
0
LINE
8
BLACK
6
CONTINUOUS
10
90.3544
20
-54.8532
11
90.5883
21
-54.812
0
LINE
8
BLACK
6
CONTINUOUS
10
90.5883
20
-54.812
11
92.5457
21
-54.812
0
LINE
8
BLACK
6
CONTINUOUS
10
92.5457
20
-54.812
11
92.7796
21
-54.8532
0
LINE
8
BLACK
6
CONTINUOUS
10
92.7796
20
-51.3532
11
93.0544
21
-51.5119
0
LINE
8
BLACK
6
CONTINUOUS
10
93.0544
20
-51.5119
11
93.2584
21
-51.7551
0
LINE
8
BLACK
6
CONTINUOUS
10
93.2584
20
-51.7551
11
93.367
21
-52.0533
0
LINE
8
BLACK
6
CONTINUOUS
10
93.367
20
-52.0533
11
93.367
21
-52.3707
0
LINE
8
BLACK
6
CONTINUOUS
10
93.367
20
-52.3707
11
93.2584
21
-52.6689
0
LINE
8
BLACK
6
CONTINUOUS
10
93.2584
20
-52.6689
11
93.0544
21
-52.9121
0
LINE
8
BLACK
6
CONTINUOUS
10
93.0544
20
-52.9121
11
92.7796
21
-53.0708
0
LINE
8
BLACK
6
CONTINUOUS
10
92.7796
20
-53.0708
11
92.5457
21
-53.112
0
LINE
8
BLACK
6
CONTINUOUS
10
92.5457
20
-53.112
11
90.5883
21
-53.112
0
LINE
8
BLACK
6
CONTINUOUS
10
90.5883
20
-53.112
11
90.3544
21
-53.0708
0
LINE
8
BLACK
6
CONTINUOUS
10
90.3544
20
-53.0708
11
90.0796
21
-52.9121
0
LINE
8
BLACK
6
CONTINUOUS
10
90.0796
20
-52.9121
11
89.8756
21
-52.6689
0
LINE
8
BLACK
6
CONTINUOUS
10
89.8756
20
-52.6689
11
89.767
21
-52.3707
0
LINE
8
BLACK
6
CONTINUOUS
10
89.767
20
-52.3707
11
89.767
21
-52.0533
0
LINE
8
BLACK
6
CONTINUOUS
10
89.767
20
-52.0533
11
89.8756
21
-51.7551
0
LINE
8
BLACK
6
CONTINUOUS
10
89.8756
20
-51.7551
11
90.0796
21
-51.5119
0
LINE
8
BLACK
6
CONTINUOUS
10
90.0796
20
-51.5119
11
90.3544
21
-51.3532
0
LINE
8
BLACK
6
CONTINUOUS
10
90.3544
20
-51.3532
11
90.5883
21
-51.312
0
LINE
8
BLACK
6
CONTINUOUS
10
90.5883
20
-51.312
11
92.5457
21
-51.312
0
LINE
8
BLACK
6
CONTINUOUS
10
92.5457
20
-51.312
11
92.7796
21
-51.3532
0
LINE
8
BLACK
6
CONTINUOUS
10
92.7796
20
-47.8532
11
93.0544
21
-48.0119
0
LINE
8
BLACK
6
CONTINUOUS
10
93.0544
20
-48.0119
11
93.2584
21
-48.2551
0
LINE
8
BLACK
6
CONTINUOUS
10
93.2584
20
-48.2551
11
93.367
21
-48.5533
0
LINE
8
BLACK
6
CONTINUOUS
10
93.367
20
-48.5533
11
93.367
21
-48.8707
0
LINE
8
BLACK
6
CONTINUOUS
10
93.367
20
-48.8707
11
93.2584
21
-49.1689
0
LINE
8
BLACK
6
CONTINUOUS
10
93.2584
20
-49.1689
11
93.0544
21
-49.4121
0
LINE
8
BLACK
6
CONTINUOUS
10
93.0544
20
-49.4121
11
92.7796
21
-49.5708
0
LINE
8
BLACK
6
CONTINUOUS
10
92.7796
20
-49.5708
11
92.5457
21
-49.612
0
LINE
8
BLACK
6
CONTINUOUS
10
92.5457
20
-49.612
11
90.5883
21
-49.612
0
LINE
8
BLACK
6
CONTINUOUS
10
90.5883
20
-49.612
11
90.3544
21
-49.5708
0
LINE
8
BLACK
6
CONTINUOUS
10
90.3544
20
-49.5708
11
90.0796
21
-49.4121
0
LINE
8
BLACK
6
CONTINUOUS
10
90.0796
20
-49.4121
11
89.8756
21
-49.1689
0
LINE
8
BLACK
6
CONTINUOUS
10
89.8756
20
-49.1689
11
89.767
21
-48.8707
0
LINE
8
BLACK
6
CONTINUOUS
10
89.767
20
-48.8707
11
89.767
21
-48.5533
0
LINE
8
BLACK
6
CONTINUOUS
10
89.767
20
-48.5533
11
89.8756
21
-48.2551
0
LINE
8
BLACK
6
CONTINUOUS
10
89.8756
20
-48.2551
11
90.0796
21
-48.0119
0
LINE
8
BLACK
6
CONTINUOUS
10
90.0796
20
-48.0119
11
90.3544
21
-47.8532
0
LINE
8
BLACK
6
CONTINUOUS
10
90.3544
20
-47.8532
11
90.5883
21
-47.812
0
LINE
8
BLACK
6
CONTINUOUS
10
90.5883
20
-47.812
11
92.5457
21
-47.812
0
LINE
8
BLACK
6
CONTINUOUS
10
92.5457
20
-47.812
11
92.7796
21
-47.8532
0
LINE
8
BLACK
6
CONTINUOUS
10
143.104
20
-38.5052
11
144.479
21
-39.2986
0
LINE
8
BLACK
6
CONTINUOUS
10
144.479
20
-39.2986
11
145.499
21
-40.5143
0
LINE
8
BLACK
6
CONTINUOUS
10
145.499
20
-40.5143
11
146.041
21
-42.0055
0
LINE
8
BLACK
6
CONTINUOUS
10
146.041
20
-42.0055
11
146.041
21
-43.5925
0
LINE
8
BLACK
6
CONTINUOUS
10
146.041
20
-43.5925
11
145.499
21
-45.0837
0
LINE
8
BLACK
6
CONTINUOUS
10
145.499
20
-45.0837
11
144.479
21
-46.2994
0
LINE
8
BLACK
6
CONTINUOUS
10
144.479
20
-46.2994
11
143.104
21
-47.0928
0
LINE
8
BLACK
6
CONTINUOUS
10
143.104
20
-47.0928
11
141.541
21
-47.3684
0
LINE
8
BLACK
6
CONTINUOUS
10
141.541
20
-47.3684
11
139.979
21
-47.0928
0
LINE
8
BLACK
6
CONTINUOUS
10
139.979
20
-47.0928
11
138.604
21
-46.2994
0
LINE
8
BLACK
6
CONTINUOUS
10
138.604
20
-46.2994
11
137.584
21
-45.0837
0
LINE
8
BLACK
6
CONTINUOUS
10
137.584
20
-45.0837
11
137.041
21
-43.5925
0
LINE
8
BLACK
6
CONTINUOUS
10
137.041
20
-43.5925
11
137.041
21
-42.0055
0
LINE
8
BLACK
6
CONTINUOUS
10
137.041
20
-42.0055
11
137.584
21
-40.5143
0
LINE
8
BLACK
6
CONTINUOUS
10
137.584
20
-40.5143
11
138.604
21
-39.2986
0
LINE
8
BLACK
6
CONTINUOUS
10
138.604
20
-39.2986
11
139.979
21
-38.5052
0
LINE
8
BLACK
6
CONTINUOUS
10
139.979
20
-38.5052
11
141.541
21
-38.2296
0
LINE
8
BLACK
6
CONTINUOUS
10
141.541
20
-38.2296
11
143.104
21
-38.5052
0
LINE
8
BLACK
6
CONTINUOUS
10
109.513
20
-38.5052
11
110.887
21
-39.2986
0
LINE
8
BLACK
6
CONTINUOUS
10
110.887
20
-39.2986
11
111.907
21
-40.5143
0
LINE
8
BLACK
6
CONTINUOUS
10
111.907
20
-40.5143
11
112.45
21
-42.0055
0
LINE
8
BLACK
6
CONTINUOUS
10
112.45
20
-42.0055
11
112.45
21
-43.5925
0
LINE
8
BLACK
6
CONTINUOUS
10
112.45
20
-43.5925
11
111.907
21
-45.0837
0
LINE
8
BLACK
6
CONTINUOUS
10
111.907
20
-45.0837
11
110.887
21
-46.2994
0
LINE
8
BLACK
6
CONTINUOUS
10
110.887
20
-46.2994
11
109.513
21
-47.0928
0
LINE
8
BLACK
6
CONTINUOUS
10
109.513
20
-47.0928
11
107.95
21
-47.3684
0
LINE
8
BLACK
6
CONTINUOUS
10
107.95
20
-47.3684
11
106.387
21
-47.0928
0
LINE
8
BLACK
6
CONTINUOUS
10
106.387
20
-47.0928
11
105.013
21
-46.2994
0
LINE
8
BLACK
6
CONTINUOUS
10
105.013
20
-46.2994
11
103.993
21
-45.0837
0
LINE
8
BLACK
6
CONTINUOUS
10
103.993
20
-45.0837
11
103.45
21
-43.5925
0
LINE
8
BLACK
6
CONTINUOUS
10
103.45
20
-43.5925
11
103.45
21
-42.0055
0
LINE
8
BLACK
6
CONTINUOUS
10
103.45
20
-42.0055
11
103.993
21
-40.5143
0
LINE
8
BLACK
6
CONTINUOUS
10
103.993
20
-40.5143
11
105.013
21
-39.2986
0
LINE
8
BLACK
6
CONTINUOUS
10
105.013
20
-39.2986
11
106.387
21
-38.5052
0
LINE
8
BLACK
6
CONTINUOUS
10
106.387
20
-38.5052
11
107.95
21
-38.2296
0
LINE
8
BLACK
6
CONTINUOUS
10
107.95
20
-38.2296
11
109.513
21
-38.5052
0
LINE
8
BLACK
6
CONTINUOUS
10
93.2025
20
-44.3271
11
93.2777
21
-44.3705
0
LINE
8
BLACK
6
CONTINUOUS
10
93.2777
20
-44.3705
11
93.3335
21
-44.437
0
LINE
8
BLACK
6
CONTINUOUS
10
93.3335
20
-44.437
11
93.367
21
-44.562
0
LINE
8
BLACK
6
CONTINUOUS
10
93.367
20
-44.562
11
93.367
21
-45.862
0
LINE
8
BLACK
6
CONTINUOUS
10
93.367
20
-45.862
11
93.3519
21
-45.9475
0
LINE
8
BLACK
6
CONTINUOUS
10
93.3519
20
-45.9475
11
93.3085
21
-46.0227
0
LINE
8
BLACK
6
CONTINUOUS
10
93.3085
20
-46.0227
11
93.242
21
-46.0785
0
LINE
8
BLACK
6
CONTINUOUS
10
93.242
20
-46.0785
11
93.117
21
-46.112
0
LINE
8
BLACK
6
CONTINUOUS
10
93.117
20
-46.112
11
90.017
21
-46.112
0
LINE
8
BLACK
6
CONTINUOUS
10
90.017
20
-46.112
11
89.9315
21
-46.0969
0
LINE
8
BLACK
6
CONTINUOUS
10
89.9315
20
-46.0969
11
89.8563
21
-46.0535
0
LINE
8
BLACK
6
CONTINUOUS
10
89.8563
20
-46.0535
11
89.8005
21
-45.987
0
LINE
8
BLACK
6
CONTINUOUS
10
89.8005
20
-45.987
11
89.767
21
-45.862
0
LINE
8
BLACK
6
CONTINUOUS
10
89.767
20
-45.862
11
89.767
21
-44.562
0
LINE
8
BLACK
6
CONTINUOUS
10
89.767
20
-44.562
11
89.7821
21
-44.4765
0
LINE
8
BLACK
6
CONTINUOUS
10
89.7821
20
-44.4765
11
89.8255
21
-44.4013
0
LINE
8
BLACK
6
CONTINUOUS
10
89.8255
20
-44.4013
11
89.892
21
-44.3455
0
LINE
8
BLACK
6
CONTINUOUS
10
89.892
20
-44.3455
11
90.017
21
-44.312
0
LINE
8
BLACK
6
CONTINUOUS
10
90.017
20
-44.312
11
93.117
21
-44.312
0
LINE
8
BLACK
6
CONTINUOUS
10
93.117
20
-44.312
11
93.2025
21
-44.3271
0
LINE
8
BLACK
6
CONTINUOUS
10
92.7796
20
-37.8202
11
93.0544
21
-37.9789
0
LINE
8
BLACK
6
CONTINUOUS
10
93.0544
20
-37.9789
11
93.2584
21
-38.2221
0
LINE
8
BLACK
6
CONTINUOUS
10
93.2584
20
-38.2221
11
93.367
21
-38.5203
0
LINE
8
BLACK
6
CONTINUOUS
10
93.367
20
-38.5203
11
93.367
21
-38.8377
0
LINE
8
BLACK
6
CONTINUOUS
10
93.367
20
-38.8377
11
93.2584
21
-39.1359
0
LINE
8
BLACK
6
CONTINUOUS
10
93.2584
20
-39.1359
11
93.0544
21
-39.3791
0
LINE
8
BLACK
6
CONTINUOUS
10
93.0544
20
-39.3791
11
92.7796
21
-39.5378
0
LINE
8
BLACK
6
CONTINUOUS
10
92.7796
20
-39.5378
11
92.5457
21
-39.579
0
LINE
8
BLACK
6
CONTINUOUS
10
92.5457
20
-39.579
11
90.5883
21
-39.579
0
LINE
8
BLACK
6
CONTINUOUS
10
90.5883
20
-39.579
11
90.3544
21
-39.5378
0
LINE
8
BLACK
6
CONTINUOUS
10
90.3544
20
-39.5378
11
90.0796
21
-39.3791
0
LINE
8
BLACK
6
CONTINUOUS
10
90.0796
20
-39.3791
11
89.8756
21
-39.1359
0
LINE
8
BLACK
6
CONTINUOUS
10
89.8756
20
-39.1359
11
89.767
21
-38.8377
0
LINE
8
BLACK
6
CONTINUOUS
10
89.767
20
-38.8377
11
89.767
21
-38.5203
0
LINE
8
BLACK
6
CONTINUOUS
10
89.767
20
-38.5203
11
89.8756
21
-38.2221
0
LINE
8
BLACK
6
CONTINUOUS
10
89.8756
20
-38.2221
11
90.0796
21
-37.9789
0
LINE
8
BLACK
6
CONTINUOUS
10
90.0796
20
-37.9789
11
90.3544
21
-37.8202
0
LINE
8
BLACK
6
CONTINUOUS
10
90.3544
20
-37.8202
11
90.5883
21
-37.779
0
LINE
8
BLACK
6
CONTINUOUS
10
90.5883
20
-37.779
11
92.5457
21
-37.779
0
LINE
8
BLACK
6
CONTINUOUS
10
92.5457
20
-37.779
11
92.7796
21
-37.8202
0
LINE
8
BLACK
6
CONTINUOUS
10
93.2025
20
-34.2941
11
93.2777
21
-34.3375
0
LINE
8
BLACK
6
CONTINUOUS
10
93.2777
20
-34.3375
11
93.3335
21
-34.404
0
LINE
8
BLACK
6
CONTINUOUS
10
93.3335
20
-34.404
11
93.367
21
-34.529
0
LINE
8
BLACK
6
CONTINUOUS
10
93.367
20
-34.529
11
93.367
21
-35.829
0
LINE
8
BLACK
6
CONTINUOUS
10
93.367
20
-35.829
11
93.3519
21
-35.9145
0
LINE
8
BLACK
6
CONTINUOUS
10
93.3519
20
-35.9145
11
93.3085
21
-35.9897
0
LINE
8
BLACK
6
CONTINUOUS
10
93.3085
20
-35.9897
11
93.242
21
-36.0455
0
LINE
8
BLACK
6
CONTINUOUS
10
93.242
20
-36.0455
11
93.117
21
-36.079
0
LINE
8
BLACK
6
CONTINUOUS
10
93.117
20
-36.079
11
90.017
21
-36.079
0
LINE
8
BLACK
6
CONTINUOUS
10
90.017
20
-36.079
11
89.9315
21
-36.0639
0
LINE
8
BLACK
6
CONTINUOUS
10
89.9315
20
-36.0639
11
89.8563
21
-36.0205
0
LINE
8
BLACK
6
CONTINUOUS
10
89.8563
20
-36.0205
11
89.8005
21
-35.954
0
LINE
8
BLACK
6
CONTINUOUS
10
89.8005
20
-35.954
11
89.767
21
-35.829
0
LINE
8
BLACK
6
CONTINUOUS
10
89.767
20
-35.829
11
89.767
21
-34.529
0
LINE
8
BLACK
6
CONTINUOUS
10
89.767
20
-34.529
11
89.7821
21
-34.4435
0
LINE
8
BLACK
6
CONTINUOUS
10
89.7821
20
-34.4435
11
89.8255
21
-34.3683
0
LINE
8
BLACK
6
CONTINUOUS
10
89.8255
20
-34.3683
11
89.892
21
-34.3125
0
LINE
8
BLACK
6
CONTINUOUS
10
89.892
20
-34.3125
11
90.017
21
-34.279
0
LINE
8
BLACK
6
CONTINUOUS
10
90.017
20
-34.279
11
93.117
21
-34.279
0
LINE
8
BLACK
6
CONTINUOUS
10
93.117
20
-34.279
11
93.2025
21
-34.2941
0
LINE
8
BLACK
6
CONTINUOUS
10
160.094
20
-31.8916
11
160.101
21
-31.8928
0
LINE
8
BLACK
6
CONTINUOUS
10
160.101
20
-31.8928
11
160.103
21
-31.8939
0
LINE
8
BLACK
6
CONTINUOUS
10
160.103
20
-31.8939
11
160.105
21
-31.8945
0
LINE
8
BLACK
6
CONTINUOUS
10
160.105
20
-31.8945
11
160.11
21
-31.8983
0
LINE
8
BLACK
6
CONTINUOUS
10
160.11
20
-31.8983
11
160.116
21
-31.9016
0
LINE
8
BLACK
6
CONTINUOUS
10
160.116
20
-31.9016
11
160.12
21
-31.9067
0
LINE
8
BLACK
6
CONTINUOUS
10
160.12
20
-31.9067
11
161.387
21
-33.1736
0
LINE
8
BLACK
6
CONTINUOUS
10
161.387
20
-33.1736
11
161.392
21
-33.1779
0
LINE
8
BLACK
6
CONTINUOUS
10
161.392
20
-33.1779
11
161.396
21
-33.1836
0
LINE
8
BLACK
6
CONTINUOUS
10
161.396
20
-33.1836
11
161.4
21
-33.189
0
LINE
8
BLACK
6
CONTINUOUS
10
161.4
20
-33.189
11
161.4
21
-33.1912
0
LINE
8
BLACK
6
CONTINUOUS
10
161.4
20
-33.1912
11
161.401
21
-33.1931
0
LINE
8
BLACK
6
CONTINUOUS
10
161.401
20
-33.1931
11
161.402
21
-33.1997
0
LINE
8
BLACK
6
CONTINUOUS
10
161.402
20
-33.1997
11
161.404
21
-33.2061
0
LINE
8
BLACK
6
CONTINUOUS
10
161.404
20
-33.2061
11
161.403
21
-33.2127
0
LINE
8
BLACK
6
CONTINUOUS
10
161.403
20
-33.2127
11
161.403
21
-170.813
0
LINE
8
BLACK
6
CONTINUOUS
10
161.403
20
-170.813
11
161.404
21
-170.819
0
LINE
8
BLACK
6
CONTINUOUS
10
161.404
20
-170.819
11
161.402
21
-170.826
0
LINE
8
BLACK
6
CONTINUOUS
10
161.402
20
-170.826
11
161.401
21
-170.832
0
LINE
8
BLACK
6
CONTINUOUS
10
161.401
20
-170.832
11
161.4
21
-170.834
0
LINE
8
BLACK
6
CONTINUOUS
10
161.4
20
-170.834
11
161.4
21
-170.836
0
LINE
8
BLACK
6
CONTINUOUS
10
161.4
20
-170.836
11
161.396
21
-170.842
0
LINE
8
BLACK
6
CONTINUOUS
10
161.396
20
-170.842
11
161.392
21
-170.848
0
LINE
8
BLACK
6
CONTINUOUS
10
161.392
20
-170.848
11
161.387
21
-170.852
0
LINE
8
BLACK
6
CONTINUOUS
10
161.387
20
-170.852
11
160.12
21
-172.119
0
LINE
8
BLACK
6
CONTINUOUS
10
160.12
20
-172.119
11
160.116
21
-172.124
0
LINE
8
BLACK
6
CONTINUOUS
10
160.116
20
-172.124
11
160.11
21
-172.127
0
LINE
8
BLACK
6
CONTINUOUS
10
160.11
20
-172.127
11
160.105
21
-172.131
0
LINE
8
BLACK
6
CONTINUOUS
10
160.105
20
-172.131
11
160.103
21
-172.132
0
LINE
8
BLACK
6
CONTINUOUS
10
160.103
20
-172.132
11
160.101
21
-172.133
0
LINE
8
BLACK
6
CONTINUOUS
10
160.101
20
-172.133
11
160.094
21
-172.134
0
LINE
8
BLACK
6
CONTINUOUS
10
160.094
20
-172.134
11
160.088
21
-172.136
0
LINE
8
BLACK
6
CONTINUOUS
10
160.088
20
-172.136
11
160.081
21
-172.135
0
LINE
8
BLACK
6
CONTINUOUS
10
160.081
20
-172.135
11
82.8062
21
-172.135
0
LINE
8
BLACK
6
CONTINUOUS
10
82.8062
20
-172.135
11
82.7996
21
-172.136
0
LINE
8
BLACK
6
CONTINUOUS
10
82.7996
20
-172.136
11
82.7932
21
-172.134
0
LINE
8
BLACK
6
CONTINUOUS
10
82.7932
20
-172.134
11
82.7866
21
-172.133
0
LINE
8
BLACK
6
CONTINUOUS
10
82.7866
20
-172.133
11
82.7847
21
-172.132
0
LINE
8
BLACK
6
CONTINUOUS
10
82.7847
20
-172.132
11
82.7825
21
-172.131
0
LINE
8
BLACK
6
CONTINUOUS
10
82.7825
20
-172.131
11
82.7771
21
-172.127
0
LINE
8
BLACK
6
CONTINUOUS
10
82.7771
20
-172.127
11
82.7714
21
-172.124
0
LINE
8
BLACK
6
CONTINUOUS
10
82.7714
20
-172.124
11
82.7671
21
-172.119
0
LINE
8
BLACK
6
CONTINUOUS
10
82.7671
20
-172.119
11
81.5002
21
-170.852
0
LINE
8
BLACK
6
CONTINUOUS
10
81.5002
20
-170.852
11
81.4951
21
-170.848
0
LINE
8
BLACK
6
CONTINUOUS
10
81.4951
20
-170.848
11
81.4918
21
-170.842
0
LINE
8
BLACK
6
CONTINUOUS
10
81.4918
20
-170.842
11
81.488
21
-170.836
0
LINE
8
BLACK
6
CONTINUOUS
10
81.488
20
-170.836
11
81.4874
21
-170.834
0
LINE
8
BLACK
6
CONTINUOUS
10
81.4874
20
-170.834
11
81.4863
21
-170.832
0
LINE
8
BLACK
6
CONTINUOUS
10
81.4863
20
-170.832
11
81.4851
21
-170.826
0
LINE
8
BLACK
6
CONTINUOUS
10
81.4851
20
-170.826
11
81.4834
21
-170.819
0
LINE
8
BLACK
6
CONTINUOUS
10
81.4834
20
-170.819
11
81.484
21
-170.813
0
LINE
8
BLACK
6
CONTINUOUS
10
81.484
20
-170.813
11
81.484
21
-33.2762
0
LINE
8
BLACK
6
CONTINUOUS
10
81.484
20
-33.2762
11
81.4834
21
-33.2696
0
LINE
8
BLACK
6
CONTINUOUS
10
81.4834
20
-33.2696
11
81.4851
21
-33.2632
0
LINE
8
BLACK
6
CONTINUOUS
10
81.4851
20
-33.2632
11
81.4863
21
-33.2566
0
LINE
8
BLACK
6
CONTINUOUS
10
81.4863
20
-33.2566
11
81.4874
21
-33.2547
0
LINE
8
BLACK
6
CONTINUOUS
10
81.4874
20
-33.2547
11
81.488
21
-33.2525
0
LINE
8
BLACK
6
CONTINUOUS
10
81.488
20
-33.2525
11
81.4918
21
-33.2471
0
LINE
8
BLACK
6
CONTINUOUS
10
81.4918
20
-33.2471
11
81.4951
21
-33.2414
0
LINE
8
BLACK
6
CONTINUOUS
10
81.4951
20
-33.2414
11
81.5002
21
-33.2371
0
LINE
8
BLACK
6
CONTINUOUS
10
81.5002
20
-33.2371
11
82.7671
21
-31.9702
0
LINE
8
BLACK
6
CONTINUOUS
10
82.7671
20
-31.9702
11
82.7713
21
-31.9651
0
LINE
8
BLACK
6
CONTINUOUS
10
82.7713
20
-31.9651
11
82.7771
21
-31.9618
0
LINE
8
BLACK
6
CONTINUOUS
10
82.7771
20
-31.9618
11
82.7825
21
-31.958
0
LINE
8
BLACK
6
CONTINUOUS
10
82.7825
20
-31.958
11
82.7847
21
-31.9574
0
LINE
8
BLACK
6
CONTINUOUS
10
82.7847
20
-31.9574
11
82.7866
21
-31.9563
0
LINE
8
BLACK
6
CONTINUOUS
10
82.7866
20
-31.9563
11
82.7931
21
-31.9551
0
LINE
8
BLACK
6
CONTINUOUS
10
82.7931
20
-31.9551
11
82.7996
21
-31.9534
0
LINE
8
BLACK
6
CONTINUOUS
10
82.7996
20
-31.9534
11
82.8062
21
-31.954
0
LINE
8
BLACK
6
CONTINUOUS
10
82.8062
20
-31.954
11
160.081
21
-31.8905
0
LINE
8
BLACK
6
CONTINUOUS
10
160.081
20
-31.8905
11
160.088
21
-31.8899
0
LINE
8
BLACK
6
CONTINUOUS
10
160.088
20
-31.8899
11
160.094
21
-31.8916
0
LINE
8
BLACK
6
CONTINUOUS
10
82.8247
20
-32.054
11
81.584
21
-33.2947
0
LINE
8
BLACK
6
CONTINUOUS
10
81.584
20
-33.2947
11
81.584
21
-170.794
0
LINE
8
BLACK
6
CONTINUOUS
10
81.584
20
-170.794
11
82.8247
21
-172.035
0
LINE
8
BLACK
6
CONTINUOUS
10
82.8247
20
-172.035
11
160.063
21
-172.035
0
LINE
8
BLACK
6
CONTINUOUS
10
160.063
20
-172.035
11
161.304
21
-170.794
0
LINE
8
BLACK
6
CONTINUOUS
10
161.304
20
-170.794
11
161.303
21
-33.2312
0
LINE
8
BLACK
6
CONTINUOUS
10
161.303
20
-33.2312
11
160.063
21
-31.9905
0
LINE
8
BLACK
6
CONTINUOUS
10
160.063
20
-31.9905
11
82.8247
21
-32.054
0
LINE
8
BLACK
6
CONTINUOUS
10
110.491
20
-149.35
11
110.1
21
-149.917
0
LINE
8
BLACK
6
CONTINUOUS
10
110.1
20
-149.917
11
109.586
21
-150.376
0
LINE
8
BLACK
6
CONTINUOUS
10
109.586
20
-150.376
11
108.977
21
-150.698
0
LINE
8
BLACK
6
CONTINUOUS
10
108.977
20
-150.698
11
108.309
21
-150.866
0
LINE
8
BLACK
6
CONTINUOUS
10
108.309
20
-150.866
11
107.62
21
-150.869
0
LINE
8
BLACK
6
CONTINUOUS
10
107.62
20
-150.869
11
106.951
21
-150.708
0
LINE
8
BLACK
6
CONTINUOUS
10
106.951
20
-150.708
11
106.339
21
-150.393
0
LINE
8
BLACK
6
CONTINUOUS
10
106.339
20
-150.393
11
105.819
21
-149.94
0
LINE
8
BLACK
6
CONTINUOUS
10
105.819
20
-149.94
11
105.423
21
-149.376
0
LINE
8
BLACK
6
CONTINUOUS
10
105.423
20
-149.376
11
105.173
21
-148.734
0
LINE
8
BLACK
6
CONTINUOUS
10
105.173
20
-148.734
11
105.083
21
-148.051
0
LINE
8
BLACK
6
CONTINUOUS
10
105.083
20
-148.051
11
105.159
21
-147.367
0
LINE
8
BLACK
6
CONTINUOUS
10
105.159
20
-147.367
11
105.396
21
-146.72
0
LINE
8
BLACK
6
CONTINUOUS
10
105.396
20
-146.72
11
105.78
21
-146.148
0
LINE
8
BLACK
6
CONTINUOUS
10
105.78
20
-146.148
11
106.289
21
-145.685
0
LINE
8
BLACK
6
CONTINUOUS
10
106.289
20
-145.685
11
106.895
21
-145.356
0
LINE
8
BLACK
6
CONTINUOUS
10
106.895
20
-145.356
11
107.561
21
-145.181
0
LINE
8
BLACK
6
CONTINUOUS
10
107.561
20
-145.181
11
108.25
21
-145.17
0
LINE
8
BLACK
6
CONTINUOUS
10
108.25
20
-145.17
11
108.921
21
-145.324
0
LINE
8
BLACK
6
CONTINUOUS
10
108.921
20
-145.324
11
109.537
21
-145.633
0
LINE
8
BLACK
6
CONTINUOUS
10
109.537
20
-145.633
11
110.06
21
-146.081
0
LINE
8
BLACK
6
CONTINUOUS
10
110.06
20
-146.081
11
110.462
21
-146.64
0
LINE
8
BLACK
6
CONTINUOUS
10
110.462
20
-146.64
11
110.719
21
-147.279
0
LINE
8
BLACK
6
CONTINUOUS
10
110.719
20
-147.279
11
110.816
21
-147.961
0
LINE
8
BLACK
6
CONTINUOUS
10
110.816
20
-147.961
11
110.817
21
-148.021
0
LINE
8
BLACK
6
CONTINUOUS
10
110.817
20
-148.021
11
110.734
21
-148.705
0
LINE
8
BLACK
6
CONTINUOUS
10
110.734
20
-148.705
11
110.491
21
-149.35
0
LINE
8
BLACK
6
CONTINUOUS
10
110.384
20
-146.749
11
110.01
21
-146.205
0
LINE
8
BLACK
6
CONTINUOUS
10
110.01
20
-146.205
11
109.518
21
-145.766
0
LINE
8
BLACK
6
CONTINUOUS
10
109.518
20
-145.766
11
108.934
21
-145.457
0
LINE
8
BLACK
6
CONTINUOUS
10
108.934
20
-145.457
11
108.294
21
-145.296
0
LINE
8
BLACK
6
CONTINUOUS
10
108.294
20
-145.296
11
107.634
21
-145.293
0
LINE
8
BLACK
6
CONTINUOUS
10
107.634
20
-145.293
11
106.993
21
-145.447
0
LINE
8
BLACK
6
CONTINUOUS
10
106.993
20
-145.447
11
106.406
21
-145.749
0
LINE
8
BLACK
6
CONTINUOUS
10
106.406
20
-145.749
11
105.909
21
-146.183
0
LINE
8
BLACK
6
CONTINUOUS
10
105.909
20
-146.183
11
105.529
21
-146.723
0
LINE
8
BLACK
6
CONTINUOUS
10
105.529
20
-146.723
11
105.289
21
-147.338
0
LINE
8
BLACK
6
CONTINUOUS
10
105.289
20
-147.338
11
105.203
21
-147.993
0
LINE
8
BLACK
6
CONTINUOUS
10
105.203
20
-147.993
11
105.276
21
-148.649
0
LINE
8
BLACK
6
CONTINUOUS
10
105.276
20
-148.649
11
105.503
21
-149.268
0
LINE
8
BLACK
6
CONTINUOUS
10
105.503
20
-149.268
11
105.871
21
-149.816
0
LINE
8
BLACK
6
CONTINUOUS
10
105.871
20
-149.816
11
106.359
21
-150.26
0
LINE
8
BLACK
6
CONTINUOUS
10
106.359
20
-150.26
11
106.939
21
-150.575
0
LINE
8
BLACK
6
CONTINUOUS
10
106.939
20
-150.575
11
107.577
21
-150.743
0
LINE
8
BLACK
6
CONTINUOUS
10
107.577
20
-150.743
11
108.237
21
-150.753
0
LINE
8
BLACK
6
CONTINUOUS
10
108.237
20
-150.753
11
108.88
21
-150.606
0
LINE
8
BLACK
6
CONTINUOUS
10
108.88
20
-150.606
11
109.47
21
-150.309
0
LINE
8
BLACK
6
CONTINUOUS
10
109.47
20
-150.309
11
109.972
21
-149.881
0
LINE
8
BLACK
6
CONTINUOUS
10
109.972
20
-149.881
11
110.357
21
-149.345
0
LINE
8
BLACK
6
CONTINUOUS
10
110.357
20
-149.345
11
110.603
21
-148.732
0
LINE
8
BLACK
6
CONTINUOUS
10
110.603
20
-148.732
11
110.696
21
-148.079
0
LINE
8
BLACK
6
CONTINUOUS
10
110.696
20
-148.079
11
110.697
21
-148.021
0
LINE
8
BLACK
6
CONTINUOUS
10
110.697
20
-148.021
11
110.618
21
-147.366
0
LINE
8
BLACK
6
CONTINUOUS
10
110.618
20
-147.366
11
110.384
21
-146.749
0
LINE
8
BLACK
6
CONTINUOUS
10
143.953
20
-149.345
11
143.563
21
-149.912
0
LINE
8
BLACK
6
CONTINUOUS
10
143.563
20
-149.912
11
143.049
21
-150.37
0
LINE
8
BLACK
6
CONTINUOUS
10
143.049
20
-150.37
11
142.441
21
-150.692
0
LINE
8
BLACK
6
CONTINUOUS
10
142.441
20
-150.692
11
141.773
21
-150.86
0
LINE
8
BLACK
6
CONTINUOUS
10
141.773
20
-150.86
11
141.085
21
-150.864
0
LINE
8
BLACK
6
CONTINUOUS
10
141.085
20
-150.864
11
140.416
21
-150.703
0
LINE
8
BLACK
6
CONTINUOUS
10
140.416
20
-150.703
11
139.805
21
-150.387
0
LINE
8
BLACK
6
CONTINUOUS
10
139.805
20
-150.387
11
139.286
21
-149.935
0
LINE
8
BLACK
6
CONTINUOUS
10
139.286
20
-149.935
11
138.89
21
-149.372
0
LINE
8
BLACK
6
CONTINUOUS
10
138.89
20
-149.372
11
138.64
21
-148.731
0
LINE
8
BLACK
6
CONTINUOUS
10
138.64
20
-148.731
11
138.551
21
-148.048
0
LINE
8
BLACK
6
CONTINUOUS
10
138.551
20
-148.048
11
138.626
21
-147.365
0
LINE
8
BLACK
6
CONTINUOUS
10
138.626
20
-147.365
11
138.863
21
-146.718
0
LINE
8
BLACK
6
CONTINUOUS
10
138.863
20
-146.718
11
139.246
21
-146.147
0
LINE
8
BLACK
6
CONTINUOUS
10
139.246
20
-146.147
11
139.755
21
-145.684
0
LINE
8
BLACK
6
CONTINUOUS
10
139.755
20
-145.684
11
140.36
21
-145.356
0
LINE
8
BLACK
6
CONTINUOUS
10
140.36
20
-145.356
11
141.026
21
-145.181
0
LINE
8
BLACK
6
CONTINUOUS
10
141.026
20
-145.181
11
141.714
21
-145.17
0
LINE
8
BLACK
6
CONTINUOUS
10
141.714
20
-145.17
11
142.385
21
-145.324
0
LINE
8
BLACK
6
CONTINUOUS
10
142.385
20
-145.324
11
142.999
21
-145.633
0
LINE
8
BLACK
6
CONTINUOUS
10
142.999
20
-145.633
11
143.523
21
-146.08
0
LINE
8
BLACK
6
CONTINUOUS
10
143.523
20
-146.08
11
143.924
21
-146.639
0
LINE
8
BLACK
6
CONTINUOUS
10
143.924
20
-146.639
11
144.181
21
-147.277
0
LINE
8
BLACK
6
CONTINUOUS
10
144.181
20
-147.277
11
144.278
21
-147.959
0
LINE
8
BLACK
6
CONTINUOUS
10
144.278
20
-147.959
11
144.278
21
-148.018
0
LINE
8
BLACK
6
CONTINUOUS
10
144.278
20
-148.018
11
144.196
21
-148.702
0
LINE
8
BLACK
6
CONTINUOUS
10
144.196
20
-148.702
11
143.953
21
-149.345
0
LINE
8
BLACK
6
CONTINUOUS
10
143.846
20
-146.747
11
143.473
21
-146.204
0
LINE
8
BLACK
6
CONTINUOUS
10
143.473
20
-146.204
11
142.981
21
-145.765
0
LINE
8
BLACK
6
CONTINUOUS
10
142.981
20
-145.765
11
142.398
21
-145.457
0
LINE
8
BLACK
6
CONTINUOUS
10
142.398
20
-145.457
11
141.758
21
-145.296
0
LINE
8
BLACK
6
CONTINUOUS
10
141.758
20
-145.296
11
141.099
21
-145.293
0
LINE
8
BLACK
6
CONTINUOUS
10
141.099
20
-145.293
11
140.458
21
-145.447
0
LINE
8
BLACK
6
CONTINUOUS
10
140.458
20
-145.447
11
139.872
21
-145.749
0
LINE
8
BLACK
6
CONTINUOUS
10
139.872
20
-145.749
11
139.375
21
-146.182
0
LINE
8
BLACK
6
CONTINUOUS
10
139.375
20
-146.182
11
138.996
21
-146.722
0
LINE
8
BLACK
6
CONTINUOUS
10
138.996
20
-146.722
11
138.757
21
-147.336
0
LINE
8
BLACK
6
CONTINUOUS
10
138.757
20
-147.336
11
138.671
21
-147.99
0
LINE
8
BLACK
6
CONTINUOUS
10
138.671
20
-147.99
11
138.743
21
-148.645
0
LINE
8
BLACK
6
CONTINUOUS
10
138.743
20
-148.645
11
138.97
21
-149.264
0
LINE
8
BLACK
6
CONTINUOUS
10
138.97
20
-149.264
11
139.337
21
-149.811
0
LINE
8
BLACK
6
CONTINUOUS
10
139.337
20
-149.811
11
139.825
21
-150.255
0
LINE
8
BLACK
6
CONTINUOUS
10
139.825
20
-150.255
11
140.404
21
-150.57
0
LINE
8
BLACK
6
CONTINUOUS
10
140.404
20
-150.57
11
141.042
21
-150.737
0
LINE
8
BLACK
6
CONTINUOUS
10
141.042
20
-150.737
11
141.701
21
-150.747
0
LINE
8
BLACK
6
CONTINUOUS
10
141.701
20
-150.747
11
142.344
21
-150.6
0
LINE
8
BLACK
6
CONTINUOUS
10
142.344
20
-150.6
11
142.933
21
-150.304
0
LINE
8
BLACK
6
CONTINUOUS
10
142.933
20
-150.304
11
143.434
21
-149.876
0
LINE
8
BLACK
6
CONTINUOUS
10
143.434
20
-149.876
11
143.819
21
-149.34
0
LINE
8
BLACK
6
CONTINUOUS
10
143.819
20
-149.34
11
144.065
21
-148.729
0
LINE
8
BLACK
6
CONTINUOUS
10
144.065
20
-148.729
11
144.158
21
-148.076
0
LINE
8
BLACK
6
CONTINUOUS
10
144.158
20
-148.076
11
144.159
21
-148.018
0
LINE
8
BLACK
6
CONTINUOUS
10
144.159
20
-148.018
11
144.079
21
-147.364
0
LINE
8
BLACK
6
CONTINUOUS
10
144.079
20
-147.364
11
143.846
21
-146.747
0
LINE
8
BLACK
6
CONTINUOUS
10
110.435
20
-44.2062
11
110.043
21
-44.7756
0
LINE
8
BLACK
6
CONTINUOUS
10
110.043
20
-44.7756
11
109.528
21
-45.2353
0
LINE
8
BLACK
6
CONTINUOUS
10
109.528
20
-45.2353
11
108.917
21
-45.5586
0
LINE
8
BLACK
6
CONTINUOUS
10
108.917
20
-45.5586
11
108.247
21
-45.7269
0
LINE
8
BLACK
6
CONTINUOUS
10
108.247
20
-45.7269
11
107.556
21
-45.7305
0
LINE
8
BLACK
6
CONTINUOUS
10
107.556
20
-45.7305
11
106.884
21
-45.5692
0
LINE
8
BLACK
6
CONTINUOUS
10
106.884
20
-45.5692
11
106.27
21
-45.2523
0
LINE
8
BLACK
6
CONTINUOUS
10
106.27
20
-45.2523
11
105.75
21
-44.7981
0
LINE
8
BLACK
6
CONTINUOUS
10
105.75
20
-44.7981
11
105.352
21
-44.2329
0
LINE
8
BLACK
6
CONTINUOUS
10
105.352
20
-44.2329
11
105.101
21
-43.5891
0
LINE
8
BLACK
6
CONTINUOUS
10
105.101
20
-43.5891
11
105.011
21
-42.9041
0
LINE
8
BLACK
6
CONTINUOUS
10
105.011
20
-42.9041
11
105.087
21
-42.2174
0
LINE
8
BLACK
6
CONTINUOUS
10
105.087
20
-42.2174
11
105.324
21
-41.5686
0
LINE
8
BLACK
6
CONTINUOUS
10
105.324
20
-41.5686
11
105.71
21
-40.9951
0
LINE
8
BLACK
6
CONTINUOUS
10
105.71
20
-40.9951
11
106.221
21
-40.5301
0
LINE
8
BLACK
6
CONTINUOUS
10
106.221
20
-40.5301
11
106.828
21
-40.2004
0
LINE
8
BLACK
6
CONTINUOUS
10
106.828
20
-40.2004
11
107.496
21
-40.0251
0
LINE
8
BLACK
6
CONTINUOUS
10
107.496
20
-40.0251
11
108.187
21
-40.0143
0
LINE
8
BLACK
6
CONTINUOUS
10
108.187
20
-40.0143
11
108.861
21
-40.1685
0
LINE
8
BLACK
6
CONTINUOUS
10
108.861
20
-40.1685
11
109.478
21
-40.4789
0
LINE
8
BLACK
6
CONTINUOUS
10
109.478
20
-40.4789
11
110.003
21
-40.9276
0
LINE
8
BLACK
6
CONTINUOUS
10
110.003
20
-40.9276
11
110.406
21
-41.4887
0
LINE
8
BLACK
6
CONTINUOUS
10
110.406
20
-41.4887
11
110.664
21
-42.1298
0
LINE
8
BLACK
6
CONTINUOUS
10
110.664
20
-42.1298
11
110.761
21
-42.8138
0
LINE
8
BLACK
6
CONTINUOUS
10
110.761
20
-42.8138
11
110.762
21
-42.874
0
LINE
8
BLACK
6
CONTINUOUS
10
110.762
20
-42.874
11
110.679
21
-43.5599
0
LINE
8
BLACK
6
CONTINUOUS
10
110.679
20
-43.5599
11
110.435
21
-44.2062
0
LINE
8
BLACK
6
CONTINUOUS
10
110.328
20
-41.5974
11
109.953
21
-41.0518
0
LINE
8
BLACK
6
CONTINUOUS
10
109.953
20
-41.0518
11
109.459
21
-40.6113
0
LINE
8
BLACK
6
CONTINUOUS
10
109.459
20
-40.6113
11
108.874
21
-40.3015
0
LINE
8
BLACK
6
CONTINUOUS
10
108.874
20
-40.3015
11
108.232
21
-40.1402
0
LINE
8
BLACK
6
CONTINUOUS
10
108.232
20
-40.1402
11
107.57
21
-40.1368
0
LINE
8
BLACK
6
CONTINUOUS
10
107.57
20
-40.1368
11
106.926
21
-40.2913
0
LINE
8
BLACK
6
CONTINUOUS
10
106.926
20
-40.2913
11
106.338
21
-40.595
0
LINE
8
BLACK
6
CONTINUOUS
10
106.338
20
-40.595
11
105.839
21
-41.0302
0
LINE
8
BLACK
6
CONTINUOUS
10
105.839
20
-41.0302
11
105.458
21
-41.5719
0
LINE
8
BLACK
6
CONTINUOUS
10
105.458
20
-41.5719
11
105.218
21
-42.1888
0
LINE
8
BLACK
6
CONTINUOUS
10
105.218
20
-42.1888
11
105.131
21
-42.8452
0
LINE
8
BLACK
6
CONTINUOUS
10
105.131
20
-42.8452
11
105.204
21
-43.5032
0
LINE
8
BLACK
6
CONTINUOUS
10
105.204
20
-43.5032
11
105.431
21
-44.125
0
LINE
8
BLACK
6
CONTINUOUS
10
105.431
20
-44.125
11
105.801
21
-44.6745
0
LINE
8
BLACK
6
CONTINUOUS
10
105.801
20
-44.6745
11
106.29
21
-45.1201
0
LINE
8
BLACK
6
CONTINUOUS
10
106.29
20
-45.1201
11
106.872
21
-45.436
0
LINE
8
BLACK
6
CONTINUOUS
10
106.872
20
-45.436
11
107.513
21
-45.604
0
LINE
8
BLACK
6
CONTINUOUS
10
107.513
20
-45.604
11
108.175
21
-45.6144
0
LINE
8
BLACK
6
CONTINUOUS
10
108.175
20
-45.6144
11
108.82
21
-45.4666
0
LINE
8
BLACK
6
CONTINUOUS
10
108.82
20
-45.4666
11
109.411
21
-45.1692
0
LINE
8
BLACK
6
CONTINUOUS
10
109.411
20
-45.1692
11
109.915
21
-44.7392
0
LINE
8
BLACK
6
CONTINUOUS
10
109.915
20
-44.7392
11
110.301
21
-44.2015
0
LINE
8
BLACK
6
CONTINUOUS
10
110.301
20
-44.2015
11
110.548
21
-43.5872
0
LINE
8
BLACK
6
CONTINUOUS
10
110.548
20
-43.5872
11
110.641
21
-42.9317
0
LINE
8
BLACK
6
CONTINUOUS
10
110.641
20
-42.9317
11
110.642
21
-42.874
0
LINE
8
BLACK
6
CONTINUOUS
10
110.642
20
-42.874
11
110.562
21
-42.2167
0
LINE
8
BLACK
6
CONTINUOUS
10
110.562
20
-42.2167
11
110.328
21
-41.5974
0
LINE
8
BLACK
6
CONTINUOUS
10
143.776
20
-44.1386
11
143.39
21
-44.6705
0
LINE
8
BLACK
6
CONTINUOUS
10
143.39
20
-44.6705
11
142.883
21
-45.0896
0
LINE
8
BLACK
6
CONTINUOUS
10
142.883
20
-45.0896
11
142.288
21
-45.3695
0
LINE
8
BLACK
6
CONTINUOUS
10
142.288
20
-45.3695
11
141.643
21
-45.4927
0
LINE
8
BLACK
6
CONTINUOUS
10
141.643
20
-45.4927
11
140.987
21
-45.4514
0
LINE
8
BLACK
6
CONTINUOUS
10
140.987
20
-45.4514
11
140.361
21
-45.2482
0
LINE
8
BLACK
6
CONTINUOUS
10
140.361
20
-45.2482
11
139.806
21
-44.896
0
LINE
8
BLACK
6
CONTINUOUS
10
139.806
20
-44.896
11
139.356
21
-44.4167
0
LINE
8
BLACK
6
CONTINUOUS
10
139.356
20
-44.4167
11
139.04
21
-43.8406
0
LINE
8
BLACK
6
CONTINUOUS
10
139.04
20
-43.8406
11
138.876
21
-43.2039
0
LINE
8
BLACK
6
CONTINUOUS
10
138.876
20
-43.2039
11
138.876
21
-42.5465
0
LINE
8
BLACK
6
CONTINUOUS
10
138.876
20
-42.5465
11
139.04
21
-41.9097
0
LINE
8
BLACK
6
CONTINUOUS
10
139.04
20
-41.9097
11
139.356
21
-41.3336
0
LINE
8
BLACK
6
CONTINUOUS
10
139.356
20
-41.3336
11
139.806
21
-40.8544
0
LINE
8
BLACK
6
CONTINUOUS
10
139.806
20
-40.8544
11
140.361
21
-40.5021
0
LINE
8
BLACK
6
CONTINUOUS
10
140.361
20
-40.5021
11
140.987
21
-40.299
0
LINE
8
BLACK
6
CONTINUOUS
10
140.987
20
-40.299
11
141.643
21
-40.2577
0
LINE
8
BLACK
6
CONTINUOUS
10
141.643
20
-40.2577
11
142.288
21
-40.3809
0
LINE
8
BLACK
6
CONTINUOUS
10
142.288
20
-40.3809
11
142.883
21
-40.6608
0
LINE
8
BLACK
6
CONTINUOUS
10
142.883
20
-40.6608
11
143.39
21
-41.0798
0
LINE
8
BLACK
6
CONTINUOUS
10
143.39
20
-41.0798
11
143.776
21
-41.6117
0
LINE
8
BLACK
6
CONTINUOUS
10
143.776
20
-41.6117
11
144.018
21
-42.2229
0
LINE
8
BLACK
6
CONTINUOUS
10
144.018
20
-42.2229
11
144.101
21
-42.8752
0
LINE
8
BLACK
6
CONTINUOUS
10
144.101
20
-42.8752
11
144.018
21
-43.5274
0
LINE
8
BLACK
6
CONTINUOUS
10
144.018
20
-43.5274
11
143.776
21
-44.1386
0
LINE
8
BLACK
6
CONTINUOUS
10
143.671
20
-41.6695
11
143.302
21
-41.162
0
LINE
8
BLACK
6
CONTINUOUS
10
143.302
20
-41.162
11
142.819
21
-40.7621
0
LINE
8
BLACK
6
CONTINUOUS
10
142.819
20
-40.7621
11
142.251
21
-40.495
0
LINE
8
BLACK
6
CONTINUOUS
10
142.251
20
-40.495
11
141.635
21
-40.3774
0
LINE
8
BLACK
6
CONTINUOUS
10
141.635
20
-40.3774
11
141.009
21
-40.4168
0
LINE
8
BLACK
6
CONTINUOUS
10
141.009
20
-40.4168
11
140.412
21
-40.6107
0
LINE
8
BLACK
6
CONTINUOUS
10
140.412
20
-40.6107
11
139.883
21
-40.9468
0
LINE
8
BLACK
6
CONTINUOUS
10
139.883
20
-40.9468
11
139.453
21
-41.4041
0
LINE
8
BLACK
6
CONTINUOUS
10
139.453
20
-41.4041
11
139.151
21
-41.9539
0
LINE
8
BLACK
6
CONTINUOUS
10
139.151
20
-41.9539
11
138.995
21
-42.5615
0
LINE
8
BLACK
6
CONTINUOUS
10
138.995
20
-42.5615
11
138.995
21
-43.1888
0
LINE
8
BLACK
6
CONTINUOUS
10
138.995
20
-43.1888
11
139.151
21
-43.7965
0
LINE
8
BLACK
6
CONTINUOUS
10
139.151
20
-43.7965
11
139.453
21
-44.3462
0
LINE
8
BLACK
6
CONTINUOUS
10
139.453
20
-44.3462
11
139.883
21
-44.8035
0
LINE
8
BLACK
6
CONTINUOUS
10
139.883
20
-44.8035
11
140.412
21
-45.1396
0
LINE
8
BLACK
6
CONTINUOUS
10
140.412
20
-45.1396
11
141.009
21
-45.3335
0
LINE
8
BLACK
6
CONTINUOUS
10
141.009
20
-45.3335
11
141.635
21
-45.3729
0
LINE
8
BLACK
6
CONTINUOUS
10
141.635
20
-45.3729
11
142.251
21
-45.2553
0
LINE
8
BLACK
6
CONTINUOUS
10
142.251
20
-45.2553
11
142.819
21
-44.9882
0
LINE
8
BLACK
6
CONTINUOUS
10
142.819
20
-44.9882
11
143.302
21
-44.5884
0
LINE
8
BLACK
6
CONTINUOUS
10
143.302
20
-44.5884
11
143.671
21
-44.0808
0
LINE
8
BLACK
6
CONTINUOUS
10
143.671
20
-44.0808
11
143.902
21
-43.4976
0
LINE
8
BLACK
6
CONTINUOUS
10
143.902
20
-43.4976
11
143.981
21
-42.8752
0
LINE
8
BLACK
6
CONTINUOUS
10
143.981
20
-42.8752
11
143.902
21
-42.2528
0
LINE
8
BLACK
6
CONTINUOUS
10
143.902
20
-42.2528
11
143.671
21
-41.6695
  0
ENDSEC
  0
EOF
