  0
SECTION
  2
HEADER
  9
$ANGBASE
  50
0.0
  9
$ANGDIR
  70
  1
  9
$MEASUREMENT
  70
0
  0
ENDSEC
  0
SECTION
  2
TABLES
  0
TABLE
  2
LTYPE
  70
4
  0
LTYPE
  5
40F
  2
CONTINUOUS
  70
0
  3
Solid line
  72
65
  73
0
  40
0.0
  0
LTYPE
  5
410
  2
DASHDOT
 70
0
  3
Dash Dot ____ _ ____ _
 72
65
 73
4
 40
2.0
 49
1.25
 49
-0.25
 49
0.25
 49
-0.25
  0
LTYPE
  5
411
  2
DASHED
 70
0
  3
Dashed __ __ __ __ __
 72
65
 73
2
 40
0.75
 49
0.5
 49
-0.25
  0
LTYPE
  5
43B
  2
DOTTED
 70
0
  3
Dotted .  .  .  .
 72
65
 73
2
 40
0.2
 49
0.0
 49
-0.2
  0
ENDTAB
  0
TABLE
  2
STYLE
  70
4
  0
STYLE
  2
KICAD
  70
0
  40
0
  41
1
  42
1
  50
0
  71
0
  3
isocp.shx
  0
STYLE
  2
KICADB
  70
0
  40
0
  41
1
  42
1
  50
0
  71
0
  3
isocp.shx
  0
STYLE
  2
KICADI
  70
0
  40
0
  41
1
  42
1
  50
15
  71
0
  3
isocp.shx
  0
STYLE
  2
KICADBI
  70
0
  40
0
  41
1
  42
1
  50
15
  71
0
  3
isocp.shx
  0
ENDTAB
  0
TABLE
  2
LAYER
  70
30
  0
LAYER
  2
BLACK
  70
0
  62
7
  6
CONTINUOUS
  0
LAYER
  2
GRAY1
  70
0
  62
251
  6
CONTINUOUS
  0
LAYER
  2
GRAY2
  70
0
  62
8
  6
CONTINUOUS
  0
LAYER
  2
GRAY3
  70
0
  62
9
  6
CONTINUOUS
  0
LAYER
  2
WHITE
  70
0
  62
7
  6
CONTINUOUS
  0
LAYER
  2
LYELLOW
  70
0
  62
51
  6
CONTINUOUS
  0
LAYER
  2
BLUE1
  70
0
  62
178
  6
CONTINUOUS
  0
LAYER
  2
GREEN1
  70
0
  62
98
  6
CONTINUOUS
  0
LAYER
  2
CYAN1
  70
0
  62
138
  6
CONTINUOUS
  0
LAYER
  2
RED1
  70
0
  62
18
  6
CONTINUOUS
  0
LAYER
  2
MAGENTA1
  70
0
  62
228
  6
CONTINUOUS
  0
LAYER
  2
BROWN1
  70
0
  62
58
  6
CONTINUOUS
  0
LAYER
  2
BLUE2
  70
0
  62
5
  6
CONTINUOUS
  0
LAYER
  2
GREEN2
  70
0
  62
3
  6
CONTINUOUS
  0
LAYER
  2
CYAN2
  70
0
  62
4
  6
CONTINUOUS
  0
LAYER
  2
RED2
  70
0
  62
1
  6
CONTINUOUS
  0
LAYER
  2
MAGENTA2
  70
0
  62
6
  6
CONTINUOUS
  0
LAYER
  2
BROWN2
  70
0
  62
54
  6
CONTINUOUS
  0
LAYER
  2
BLUE3
  70
0
  62
171
  6
CONTINUOUS
  0
LAYER
  2
GREEN3
  70
0
  62
91
  6
CONTINUOUS
  0
LAYER
  2
CYAN3
  70
0
  62
131
  6
CONTINUOUS
  0
LAYER
  2
RED3
  70
0
  62
11
  6
CONTINUOUS
  0
LAYER
  2
MAGENTA3
  70
0
  62
221
  6
CONTINUOUS
  0
LAYER
  2
YELLOW3
  70
0
  62
2
  6
CONTINUOUS
  0
LAYER
  2
BLUE4
  70
0
  62
5
  6
CONTINUOUS
  0
LAYER
  2
GREEN4
  70
0
  62
3
  6
CONTINUOUS
  0
LAYER
  2
CYAN4
  70
0
  62
4
  6
CONTINUOUS
  0
LAYER
  2
RED4
  70
0
  62
1
  6
CONTINUOUS
  0
LAYER
  2
MAGENTA4
  70
0
  62
6
  6
CONTINUOUS
  0
LAYER
  2
YELLOW4
  70
0
  62
2
  6
CONTINUOUS
  0
ENDTAB
  0
ENDSEC
  0
SECTION
  2
ENTITIES
0
LINE
8
BLACK
6
CONTINUOUS
10
160.094
20
-31.8916
11
160.101
21
-31.8928
0
LINE
8
BLACK
6
CONTINUOUS
10
160.101
20
-31.8928
11
160.103
21
-31.8939
0
LINE
8
BLACK
6
CONTINUOUS
10
160.103
20
-31.8939
11
160.105
21
-31.8945
0
LINE
8
BLACK
6
CONTINUOUS
10
160.105
20
-31.8945
11
160.11
21
-31.8983
0
LINE
8
BLACK
6
CONTINUOUS
10
160.11
20
-31.8983
11
160.116
21
-31.9016
0
LINE
8
BLACK
6
CONTINUOUS
10
160.116
20
-31.9016
11
160.12
21
-31.9067
0
LINE
8
BLACK
6
CONTINUOUS
10
160.12
20
-31.9067
11
161.387
21
-33.1736
0
LINE
8
BLACK
6
CONTINUOUS
10
161.387
20
-33.1736
11
161.392
21
-33.1779
0
LINE
8
BLACK
6
CONTINUOUS
10
161.392
20
-33.1779
11
161.396
21
-33.1836
0
LINE
8
BLACK
6
CONTINUOUS
10
161.396
20
-33.1836
11
161.4
21
-33.189
0
LINE
8
BLACK
6
CONTINUOUS
10
161.4
20
-33.189
11
161.4
21
-33.1912
0
LINE
8
BLACK
6
CONTINUOUS
10
161.4
20
-33.1912
11
161.401
21
-33.1931
0
LINE
8
BLACK
6
CONTINUOUS
10
161.401
20
-33.1931
11
161.402
21
-33.1997
0
LINE
8
BLACK
6
CONTINUOUS
10
161.402
20
-33.1997
11
161.404
21
-33.2061
0
LINE
8
BLACK
6
CONTINUOUS
10
161.404
20
-33.2061
11
161.403
21
-33.2127
0
LINE
8
BLACK
6
CONTINUOUS
10
161.403
20
-33.2127
11
161.403
21
-170.813
0
LINE
8
BLACK
6
CONTINUOUS
10
161.403
20
-170.813
11
161.404
21
-170.819
0
LINE
8
BLACK
6
CONTINUOUS
10
161.404
20
-170.819
11
161.402
21
-170.826
0
LINE
8
BLACK
6
CONTINUOUS
10
161.402
20
-170.826
11
161.401
21
-170.832
0
LINE
8
BLACK
6
CONTINUOUS
10
161.401
20
-170.832
11
161.4
21
-170.834
0
LINE
8
BLACK
6
CONTINUOUS
10
161.4
20
-170.834
11
161.4
21
-170.836
0
LINE
8
BLACK
6
CONTINUOUS
10
161.4
20
-170.836
11
161.396
21
-170.842
0
LINE
8
BLACK
6
CONTINUOUS
10
161.396
20
-170.842
11
161.392
21
-170.848
0
LINE
8
BLACK
6
CONTINUOUS
10
161.392
20
-170.848
11
161.387
21
-170.852
0
LINE
8
BLACK
6
CONTINUOUS
10
161.387
20
-170.852
11
160.12
21
-172.119
0
LINE
8
BLACK
6
CONTINUOUS
10
160.12
20
-172.119
11
160.116
21
-172.124
0
LINE
8
BLACK
6
CONTINUOUS
10
160.116
20
-172.124
11
160.11
21
-172.127
0
LINE
8
BLACK
6
CONTINUOUS
10
160.11
20
-172.127
11
160.105
21
-172.131
0
LINE
8
BLACK
6
CONTINUOUS
10
160.105
20
-172.131
11
160.103
21
-172.132
0
LINE
8
BLACK
6
CONTINUOUS
10
160.103
20
-172.132
11
160.101
21
-172.133
0
LINE
8
BLACK
6
CONTINUOUS
10
160.101
20
-172.133
11
160.094
21
-172.134
0
LINE
8
BLACK
6
CONTINUOUS
10
160.094
20
-172.134
11
160.088
21
-172.136
0
LINE
8
BLACK
6
CONTINUOUS
10
160.088
20
-172.136
11
160.081
21
-172.135
0
LINE
8
BLACK
6
CONTINUOUS
10
160.081
20
-172.135
11
82.8062
21
-172.135
0
LINE
8
BLACK
6
CONTINUOUS
10
82.8062
20
-172.135
11
82.7996
21
-172.136
0
LINE
8
BLACK
6
CONTINUOUS
10
82.7996
20
-172.136
11
82.7932
21
-172.134
0
LINE
8
BLACK
6
CONTINUOUS
10
82.7932
20
-172.134
11
82.7866
21
-172.133
0
LINE
8
BLACK
6
CONTINUOUS
10
82.7866
20
-172.133
11
82.7847
21
-172.132
0
LINE
8
BLACK
6
CONTINUOUS
10
82.7847
20
-172.132
11
82.7825
21
-172.131
0
LINE
8
BLACK
6
CONTINUOUS
10
82.7825
20
-172.131
11
82.7771
21
-172.127
0
LINE
8
BLACK
6
CONTINUOUS
10
82.7771
20
-172.127
11
82.7714
21
-172.124
0
LINE
8
BLACK
6
CONTINUOUS
10
82.7714
20
-172.124
11
82.7671
21
-172.119
0
LINE
8
BLACK
6
CONTINUOUS
10
82.7671
20
-172.119
11
81.5002
21
-170.852
0
LINE
8
BLACK
6
CONTINUOUS
10
81.5002
20
-170.852
11
81.4951
21
-170.848
0
LINE
8
BLACK
6
CONTINUOUS
10
81.4951
20
-170.848
11
81.4918
21
-170.842
0
LINE
8
BLACK
6
CONTINUOUS
10
81.4918
20
-170.842
11
81.488
21
-170.836
0
LINE
8
BLACK
6
CONTINUOUS
10
81.488
20
-170.836
11
81.4874
21
-170.834
0
LINE
8
BLACK
6
CONTINUOUS
10
81.4874
20
-170.834
11
81.4863
21
-170.832
0
LINE
8
BLACK
6
CONTINUOUS
10
81.4863
20
-170.832
11
81.4851
21
-170.826
0
LINE
8
BLACK
6
CONTINUOUS
10
81.4851
20
-170.826
11
81.4834
21
-170.819
0
LINE
8
BLACK
6
CONTINUOUS
10
81.4834
20
-170.819
11
81.484
21
-170.813
0
LINE
8
BLACK
6
CONTINUOUS
10
81.484
20
-170.813
11
81.484
21
-33.2762
0
LINE
8
BLACK
6
CONTINUOUS
10
81.484
20
-33.2762
11
81.4834
21
-33.2696
0
LINE
8
BLACK
6
CONTINUOUS
10
81.4834
20
-33.2696
11
81.4851
21
-33.2632
0
LINE
8
BLACK
6
CONTINUOUS
10
81.4851
20
-33.2632
11
81.4863
21
-33.2566
0
LINE
8
BLACK
6
CONTINUOUS
10
81.4863
20
-33.2566
11
81.4874
21
-33.2547
0
LINE
8
BLACK
6
CONTINUOUS
10
81.4874
20
-33.2547
11
81.488
21
-33.2525
0
LINE
8
BLACK
6
CONTINUOUS
10
81.488
20
-33.2525
11
81.4918
21
-33.2471
0
LINE
8
BLACK
6
CONTINUOUS
10
81.4918
20
-33.2471
11
81.4951
21
-33.2414
0
LINE
8
BLACK
6
CONTINUOUS
10
81.4951
20
-33.2414
11
81.5002
21
-33.2371
0
LINE
8
BLACK
6
CONTINUOUS
10
81.5002
20
-33.2371
11
82.7671
21
-31.9702
0
LINE
8
BLACK
6
CONTINUOUS
10
82.7671
20
-31.9702
11
82.7713
21
-31.9651
0
LINE
8
BLACK
6
CONTINUOUS
10
82.7713
20
-31.9651
11
82.7771
21
-31.9618
0
LINE
8
BLACK
6
CONTINUOUS
10
82.7771
20
-31.9618
11
82.7825
21
-31.958
0
LINE
8
BLACK
6
CONTINUOUS
10
82.7825
20
-31.958
11
82.7847
21
-31.9574
0
LINE
8
BLACK
6
CONTINUOUS
10
82.7847
20
-31.9574
11
82.7866
21
-31.9563
0
LINE
8
BLACK
6
CONTINUOUS
10
82.7866
20
-31.9563
11
82.7931
21
-31.9551
0
LINE
8
BLACK
6
CONTINUOUS
10
82.7931
20
-31.9551
11
82.7996
21
-31.9534
0
LINE
8
BLACK
6
CONTINUOUS
10
82.7996
20
-31.9534
11
82.8062
21
-31.954
0
LINE
8
BLACK
6
CONTINUOUS
10
82.8062
20
-31.954
11
160.081
21
-31.8905
0
LINE
8
BLACK
6
CONTINUOUS
10
160.081
20
-31.8905
11
160.088
21
-31.8899
0
LINE
8
BLACK
6
CONTINUOUS
10
160.088
20
-31.8899
11
160.094
21
-31.8916
0
LINE
8
BLACK
6
CONTINUOUS
10
82.8247
20
-32.054
11
81.584
21
-33.2947
0
LINE
8
BLACK
6
CONTINUOUS
10
81.584
20
-33.2947
11
81.584
21
-170.794
0
LINE
8
BLACK
6
CONTINUOUS
10
81.584
20
-170.794
11
82.8247
21
-172.035
0
LINE
8
BLACK
6
CONTINUOUS
10
82.8247
20
-172.035
11
160.063
21
-172.035
0
LINE
8
BLACK
6
CONTINUOUS
10
160.063
20
-172.035
11
161.304
21
-170.794
0
LINE
8
BLACK
6
CONTINUOUS
10
161.304
20
-170.794
11
161.303
21
-33.2312
0
LINE
8
BLACK
6
CONTINUOUS
10
161.303
20
-33.2312
11
160.063
21
-31.9905
0
LINE
8
BLACK
6
CONTINUOUS
10
160.063
20
-31.9905
11
82.8247
21
-32.054
0
LINE
8
BLACK
6
CONTINUOUS
10
110.491
20
-149.35
11
110.1
21
-149.917
0
LINE
8
BLACK
6
CONTINUOUS
10
110.1
20
-149.917
11
109.586
21
-150.376
0
LINE
8
BLACK
6
CONTINUOUS
10
109.586
20
-150.376
11
108.977
21
-150.698
0
LINE
8
BLACK
6
CONTINUOUS
10
108.977
20
-150.698
11
108.309
21
-150.866
0
LINE
8
BLACK
6
CONTINUOUS
10
108.309
20
-150.866
11
107.62
21
-150.869
0
LINE
8
BLACK
6
CONTINUOUS
10
107.62
20
-150.869
11
106.951
21
-150.708
0
LINE
8
BLACK
6
CONTINUOUS
10
106.951
20
-150.708
11
106.339
21
-150.393
0
LINE
8
BLACK
6
CONTINUOUS
10
106.339
20
-150.393
11
105.819
21
-149.94
0
LINE
8
BLACK
6
CONTINUOUS
10
105.819
20
-149.94
11
105.423
21
-149.376
0
LINE
8
BLACK
6
CONTINUOUS
10
105.423
20
-149.376
11
105.173
21
-148.734
0
LINE
8
BLACK
6
CONTINUOUS
10
105.173
20
-148.734
11
105.083
21
-148.051
0
LINE
8
BLACK
6
CONTINUOUS
10
105.083
20
-148.051
11
105.159
21
-147.367
0
LINE
8
BLACK
6
CONTINUOUS
10
105.159
20
-147.367
11
105.396
21
-146.72
0
LINE
8
BLACK
6
CONTINUOUS
10
105.396
20
-146.72
11
105.78
21
-146.148
0
LINE
8
BLACK
6
CONTINUOUS
10
105.78
20
-146.148
11
106.289
21
-145.685
0
LINE
8
BLACK
6
CONTINUOUS
10
106.289
20
-145.685
11
106.895
21
-145.356
0
LINE
8
BLACK
6
CONTINUOUS
10
106.895
20
-145.356
11
107.561
21
-145.181
0
LINE
8
BLACK
6
CONTINUOUS
10
107.561
20
-145.181
11
108.25
21
-145.17
0
LINE
8
BLACK
6
CONTINUOUS
10
108.25
20
-145.17
11
108.921
21
-145.324
0
LINE
8
BLACK
6
CONTINUOUS
10
108.921
20
-145.324
11
109.537
21
-145.633
0
LINE
8
BLACK
6
CONTINUOUS
10
109.537
20
-145.633
11
110.06
21
-146.081
0
LINE
8
BLACK
6
CONTINUOUS
10
110.06
20
-146.081
11
110.462
21
-146.64
0
LINE
8
BLACK
6
CONTINUOUS
10
110.462
20
-146.64
11
110.719
21
-147.279
0
LINE
8
BLACK
6
CONTINUOUS
10
110.719
20
-147.279
11
110.816
21
-147.961
0
LINE
8
BLACK
6
CONTINUOUS
10
110.816
20
-147.961
11
110.817
21
-148.021
0
LINE
8
BLACK
6
CONTINUOUS
10
110.817
20
-148.021
11
110.734
21
-148.705
0
LINE
8
BLACK
6
CONTINUOUS
10
110.734
20
-148.705
11
110.491
21
-149.35
0
LINE
8
BLACK
6
CONTINUOUS
10
110.384
20
-146.749
11
110.01
21
-146.205
0
LINE
8
BLACK
6
CONTINUOUS
10
110.01
20
-146.205
11
109.518
21
-145.766
0
LINE
8
BLACK
6
CONTINUOUS
10
109.518
20
-145.766
11
108.934
21
-145.457
0
LINE
8
BLACK
6
CONTINUOUS
10
108.934
20
-145.457
11
108.294
21
-145.296
0
LINE
8
BLACK
6
CONTINUOUS
10
108.294
20
-145.296
11
107.634
21
-145.293
0
LINE
8
BLACK
6
CONTINUOUS
10
107.634
20
-145.293
11
106.993
21
-145.447
0
LINE
8
BLACK
6
CONTINUOUS
10
106.993
20
-145.447
11
106.406
21
-145.749
0
LINE
8
BLACK
6
CONTINUOUS
10
106.406
20
-145.749
11
105.909
21
-146.183
0
LINE
8
BLACK
6
CONTINUOUS
10
105.909
20
-146.183
11
105.529
21
-146.723
0
LINE
8
BLACK
6
CONTINUOUS
10
105.529
20
-146.723
11
105.289
21
-147.338
0
LINE
8
BLACK
6
CONTINUOUS
10
105.289
20
-147.338
11
105.203
21
-147.993
0
LINE
8
BLACK
6
CONTINUOUS
10
105.203
20
-147.993
11
105.276
21
-148.649
0
LINE
8
BLACK
6
CONTINUOUS
10
105.276
20
-148.649
11
105.503
21
-149.268
0
LINE
8
BLACK
6
CONTINUOUS
10
105.503
20
-149.268
11
105.871
21
-149.816
0
LINE
8
BLACK
6
CONTINUOUS
10
105.871
20
-149.816
11
106.359
21
-150.26
0
LINE
8
BLACK
6
CONTINUOUS
10
106.359
20
-150.26
11
106.939
21
-150.575
0
LINE
8
BLACK
6
CONTINUOUS
10
106.939
20
-150.575
11
107.577
21
-150.743
0
LINE
8
BLACK
6
CONTINUOUS
10
107.577
20
-150.743
11
108.237
21
-150.753
0
LINE
8
BLACK
6
CONTINUOUS
10
108.237
20
-150.753
11
108.88
21
-150.606
0
LINE
8
BLACK
6
CONTINUOUS
10
108.88
20
-150.606
11
109.47
21
-150.309
0
LINE
8
BLACK
6
CONTINUOUS
10
109.47
20
-150.309
11
109.972
21
-149.881
0
LINE
8
BLACK
6
CONTINUOUS
10
109.972
20
-149.881
11
110.357
21
-149.345
0
LINE
8
BLACK
6
CONTINUOUS
10
110.357
20
-149.345
11
110.603
21
-148.732
0
LINE
8
BLACK
6
CONTINUOUS
10
110.603
20
-148.732
11
110.696
21
-148.079
0
LINE
8
BLACK
6
CONTINUOUS
10
110.696
20
-148.079
11
110.697
21
-148.021
0
LINE
8
BLACK
6
CONTINUOUS
10
110.697
20
-148.021
11
110.618
21
-147.366
0
LINE
8
BLACK
6
CONTINUOUS
10
110.618
20
-147.366
11
110.384
21
-146.749
0
LINE
8
BLACK
6
CONTINUOUS
10
143.953
20
-149.345
11
143.563
21
-149.912
0
LINE
8
BLACK
6
CONTINUOUS
10
143.563
20
-149.912
11
143.049
21
-150.37
0
LINE
8
BLACK
6
CONTINUOUS
10
143.049
20
-150.37
11
142.441
21
-150.692
0
LINE
8
BLACK
6
CONTINUOUS
10
142.441
20
-150.692
11
141.773
21
-150.86
0
LINE
8
BLACK
6
CONTINUOUS
10
141.773
20
-150.86
11
141.085
21
-150.864
0
LINE
8
BLACK
6
CONTINUOUS
10
141.085
20
-150.864
11
140.416
21
-150.703
0
LINE
8
BLACK
6
CONTINUOUS
10
140.416
20
-150.703
11
139.805
21
-150.387
0
LINE
8
BLACK
6
CONTINUOUS
10
139.805
20
-150.387
11
139.286
21
-149.935
0
LINE
8
BLACK
6
CONTINUOUS
10
139.286
20
-149.935
11
138.89
21
-149.372
0
LINE
8
BLACK
6
CONTINUOUS
10
138.89
20
-149.372
11
138.64
21
-148.731
0
LINE
8
BLACK
6
CONTINUOUS
10
138.64
20
-148.731
11
138.551
21
-148.048
0
LINE
8
BLACK
6
CONTINUOUS
10
138.551
20
-148.048
11
138.626
21
-147.365
0
LINE
8
BLACK
6
CONTINUOUS
10
138.626
20
-147.365
11
138.863
21
-146.718
0
LINE
8
BLACK
6
CONTINUOUS
10
138.863
20
-146.718
11
139.246
21
-146.147
0
LINE
8
BLACK
6
CONTINUOUS
10
139.246
20
-146.147
11
139.755
21
-145.684
0
LINE
8
BLACK
6
CONTINUOUS
10
139.755
20
-145.684
11
140.36
21
-145.356
0
LINE
8
BLACK
6
CONTINUOUS
10
140.36
20
-145.356
11
141.026
21
-145.181
0
LINE
8
BLACK
6
CONTINUOUS
10
141.026
20
-145.181
11
141.714
21
-145.17
0
LINE
8
BLACK
6
CONTINUOUS
10
141.714
20
-145.17
11
142.385
21
-145.324
0
LINE
8
BLACK
6
CONTINUOUS
10
142.385
20
-145.324
11
142.999
21
-145.633
0
LINE
8
BLACK
6
CONTINUOUS
10
142.999
20
-145.633
11
143.523
21
-146.08
0
LINE
8
BLACK
6
CONTINUOUS
10
143.523
20
-146.08
11
143.924
21
-146.639
0
LINE
8
BLACK
6
CONTINUOUS
10
143.924
20
-146.639
11
144.181
21
-147.277
0
LINE
8
BLACK
6
CONTINUOUS
10
144.181
20
-147.277
11
144.278
21
-147.959
0
LINE
8
BLACK
6
CONTINUOUS
10
144.278
20
-147.959
11
144.278
21
-148.018
0
LINE
8
BLACK
6
CONTINUOUS
10
144.278
20
-148.018
11
144.196
21
-148.702
0
LINE
8
BLACK
6
CONTINUOUS
10
144.196
20
-148.702
11
143.953
21
-149.345
0
LINE
8
BLACK
6
CONTINUOUS
10
143.846
20
-146.747
11
143.473
21
-146.204
0
LINE
8
BLACK
6
CONTINUOUS
10
143.473
20
-146.204
11
142.981
21
-145.765
0
LINE
8
BLACK
6
CONTINUOUS
10
142.981
20
-145.765
11
142.398
21
-145.457
0
LINE
8
BLACK
6
CONTINUOUS
10
142.398
20
-145.457
11
141.758
21
-145.296
0
LINE
8
BLACK
6
CONTINUOUS
10
141.758
20
-145.296
11
141.099
21
-145.293
0
LINE
8
BLACK
6
CONTINUOUS
10
141.099
20
-145.293
11
140.458
21
-145.447
0
LINE
8
BLACK
6
CONTINUOUS
10
140.458
20
-145.447
11
139.872
21
-145.749
0
LINE
8
BLACK
6
CONTINUOUS
10
139.872
20
-145.749
11
139.375
21
-146.182
0
LINE
8
BLACK
6
CONTINUOUS
10
139.375
20
-146.182
11
138.996
21
-146.722
0
LINE
8
BLACK
6
CONTINUOUS
10
138.996
20
-146.722
11
138.757
21
-147.336
0
LINE
8
BLACK
6
CONTINUOUS
10
138.757
20
-147.336
11
138.671
21
-147.99
0
LINE
8
BLACK
6
CONTINUOUS
10
138.671
20
-147.99
11
138.743
21
-148.645
0
LINE
8
BLACK
6
CONTINUOUS
10
138.743
20
-148.645
11
138.97
21
-149.264
0
LINE
8
BLACK
6
CONTINUOUS
10
138.97
20
-149.264
11
139.337
21
-149.811
0
LINE
8
BLACK
6
CONTINUOUS
10
139.337
20
-149.811
11
139.825
21
-150.255
0
LINE
8
BLACK
6
CONTINUOUS
10
139.825
20
-150.255
11
140.404
21
-150.57
0
LINE
8
BLACK
6
CONTINUOUS
10
140.404
20
-150.57
11
141.042
21
-150.737
0
LINE
8
BLACK
6
CONTINUOUS
10
141.042
20
-150.737
11
141.701
21
-150.747
0
LINE
8
BLACK
6
CONTINUOUS
10
141.701
20
-150.747
11
142.344
21
-150.6
0
LINE
8
BLACK
6
CONTINUOUS
10
142.344
20
-150.6
11
142.933
21
-150.304
0
LINE
8
BLACK
6
CONTINUOUS
10
142.933
20
-150.304
11
143.434
21
-149.876
0
LINE
8
BLACK
6
CONTINUOUS
10
143.434
20
-149.876
11
143.819
21
-149.34
0
LINE
8
BLACK
6
CONTINUOUS
10
143.819
20
-149.34
11
144.065
21
-148.729
0
LINE
8
BLACK
6
CONTINUOUS
10
144.065
20
-148.729
11
144.158
21
-148.076
0
LINE
8
BLACK
6
CONTINUOUS
10
144.158
20
-148.076
11
144.159
21
-148.018
0
LINE
8
BLACK
6
CONTINUOUS
10
144.159
20
-148.018
11
144.079
21
-147.364
0
LINE
8
BLACK
6
CONTINUOUS
10
144.079
20
-147.364
11
143.846
21
-146.747
0
LINE
8
BLACK
6
CONTINUOUS
10
110.435
20
-44.2062
11
110.043
21
-44.7756
0
LINE
8
BLACK
6
CONTINUOUS
10
110.043
20
-44.7756
11
109.528
21
-45.2353
0
LINE
8
BLACK
6
CONTINUOUS
10
109.528
20
-45.2353
11
108.917
21
-45.5586
0
LINE
8
BLACK
6
CONTINUOUS
10
108.917
20
-45.5586
11
108.247
21
-45.7269
0
LINE
8
BLACK
6
CONTINUOUS
10
108.247
20
-45.7269
11
107.556
21
-45.7305
0
LINE
8
BLACK
6
CONTINUOUS
10
107.556
20
-45.7305
11
106.884
21
-45.5692
0
LINE
8
BLACK
6
CONTINUOUS
10
106.884
20
-45.5692
11
106.27
21
-45.2523
0
LINE
8
BLACK
6
CONTINUOUS
10
106.27
20
-45.2523
11
105.75
21
-44.7981
0
LINE
8
BLACK
6
CONTINUOUS
10
105.75
20
-44.7981
11
105.352
21
-44.2329
0
LINE
8
BLACK
6
CONTINUOUS
10
105.352
20
-44.2329
11
105.101
21
-43.5891
0
LINE
8
BLACK
6
CONTINUOUS
10
105.101
20
-43.5891
11
105.011
21
-42.9041
0
LINE
8
BLACK
6
CONTINUOUS
10
105.011
20
-42.9041
11
105.087
21
-42.2174
0
LINE
8
BLACK
6
CONTINUOUS
10
105.087
20
-42.2174
11
105.324
21
-41.5686
0
LINE
8
BLACK
6
CONTINUOUS
10
105.324
20
-41.5686
11
105.71
21
-40.9951
0
LINE
8
BLACK
6
CONTINUOUS
10
105.71
20
-40.9951
11
106.221
21
-40.5301
0
LINE
8
BLACK
6
CONTINUOUS
10
106.221
20
-40.5301
11
106.828
21
-40.2004
0
LINE
8
BLACK
6
CONTINUOUS
10
106.828
20
-40.2004
11
107.496
21
-40.0251
0
LINE
8
BLACK
6
CONTINUOUS
10
107.496
20
-40.0251
11
108.187
21
-40.0143
0
LINE
8
BLACK
6
CONTINUOUS
10
108.187
20
-40.0143
11
108.861
21
-40.1685
0
LINE
8
BLACK
6
CONTINUOUS
10
108.861
20
-40.1685
11
109.478
21
-40.4789
0
LINE
8
BLACK
6
CONTINUOUS
10
109.478
20
-40.4789
11
110.003
21
-40.9276
0
LINE
8
BLACK
6
CONTINUOUS
10
110.003
20
-40.9276
11
110.406
21
-41.4887
0
LINE
8
BLACK
6
CONTINUOUS
10
110.406
20
-41.4887
11
110.664
21
-42.1298
0
LINE
8
BLACK
6
CONTINUOUS
10
110.664
20
-42.1298
11
110.761
21
-42.8138
0
LINE
8
BLACK
6
CONTINUOUS
10
110.761
20
-42.8138
11
110.762
21
-42.874
0
LINE
8
BLACK
6
CONTINUOUS
10
110.762
20
-42.874
11
110.679
21
-43.5599
0
LINE
8
BLACK
6
CONTINUOUS
10
110.679
20
-43.5599
11
110.435
21
-44.2062
0
LINE
8
BLACK
6
CONTINUOUS
10
110.328
20
-41.5974
11
109.953
21
-41.0518
0
LINE
8
BLACK
6
CONTINUOUS
10
109.953
20
-41.0518
11
109.459
21
-40.6113
0
LINE
8
BLACK
6
CONTINUOUS
10
109.459
20
-40.6113
11
108.874
21
-40.3015
0
LINE
8
BLACK
6
CONTINUOUS
10
108.874
20
-40.3015
11
108.232
21
-40.1402
0
LINE
8
BLACK
6
CONTINUOUS
10
108.232
20
-40.1402
11
107.57
21
-40.1368
0
LINE
8
BLACK
6
CONTINUOUS
10
107.57
20
-40.1368
11
106.926
21
-40.2913
0
LINE
8
BLACK
6
CONTINUOUS
10
106.926
20
-40.2913
11
106.338
21
-40.595
0
LINE
8
BLACK
6
CONTINUOUS
10
106.338
20
-40.595
11
105.839
21
-41.0302
0
LINE
8
BLACK
6
CONTINUOUS
10
105.839
20
-41.0302
11
105.458
21
-41.5719
0
LINE
8
BLACK
6
CONTINUOUS
10
105.458
20
-41.5719
11
105.218
21
-42.1888
0
LINE
8
BLACK
6
CONTINUOUS
10
105.218
20
-42.1888
11
105.131
21
-42.8452
0
LINE
8
BLACK
6
CONTINUOUS
10
105.131
20
-42.8452
11
105.204
21
-43.5032
0
LINE
8
BLACK
6
CONTINUOUS
10
105.204
20
-43.5032
11
105.431
21
-44.125
0
LINE
8
BLACK
6
CONTINUOUS
10
105.431
20
-44.125
11
105.801
21
-44.6745
0
LINE
8
BLACK
6
CONTINUOUS
10
105.801
20
-44.6745
11
106.29
21
-45.1201
0
LINE
8
BLACK
6
CONTINUOUS
10
106.29
20
-45.1201
11
106.872
21
-45.436
0
LINE
8
BLACK
6
CONTINUOUS
10
106.872
20
-45.436
11
107.513
21
-45.604
0
LINE
8
BLACK
6
CONTINUOUS
10
107.513
20
-45.604
11
108.175
21
-45.6144
0
LINE
8
BLACK
6
CONTINUOUS
10
108.175
20
-45.6144
11
108.82
21
-45.4666
0
LINE
8
BLACK
6
CONTINUOUS
10
108.82
20
-45.4666
11
109.411
21
-45.1692
0
LINE
8
BLACK
6
CONTINUOUS
10
109.411
20
-45.1692
11
109.915
21
-44.7392
0
LINE
8
BLACK
6
CONTINUOUS
10
109.915
20
-44.7392
11
110.301
21
-44.2015
0
LINE
8
BLACK
6
CONTINUOUS
10
110.301
20
-44.2015
11
110.548
21
-43.5872
0
LINE
8
BLACK
6
CONTINUOUS
10
110.548
20
-43.5872
11
110.641
21
-42.9317
0
LINE
8
BLACK
6
CONTINUOUS
10
110.641
20
-42.9317
11
110.642
21
-42.874
0
LINE
8
BLACK
6
CONTINUOUS
10
110.642
20
-42.874
11
110.562
21
-42.2167
0
LINE
8
BLACK
6
CONTINUOUS
10
110.562
20
-42.2167
11
110.328
21
-41.5974
0
LINE
8
BLACK
6
CONTINUOUS
10
143.776
20
-44.1386
11
143.39
21
-44.6705
0
LINE
8
BLACK
6
CONTINUOUS
10
143.39
20
-44.6705
11
142.883
21
-45.0896
0
LINE
8
BLACK
6
CONTINUOUS
10
142.883
20
-45.0896
11
142.288
21
-45.3695
0
LINE
8
BLACK
6
CONTINUOUS
10
142.288
20
-45.3695
11
141.643
21
-45.4927
0
LINE
8
BLACK
6
CONTINUOUS
10
141.643
20
-45.4927
11
140.987
21
-45.4514
0
LINE
8
BLACK
6
CONTINUOUS
10
140.987
20
-45.4514
11
140.361
21
-45.2482
0
LINE
8
BLACK
6
CONTINUOUS
10
140.361
20
-45.2482
11
139.806
21
-44.896
0
LINE
8
BLACK
6
CONTINUOUS
10
139.806
20
-44.896
11
139.356
21
-44.4167
0
LINE
8
BLACK
6
CONTINUOUS
10
139.356
20
-44.4167
11
139.04
21
-43.8406
0
LINE
8
BLACK
6
CONTINUOUS
10
139.04
20
-43.8406
11
138.876
21
-43.2039
0
LINE
8
BLACK
6
CONTINUOUS
10
138.876
20
-43.2039
11
138.876
21
-42.5465
0
LINE
8
BLACK
6
CONTINUOUS
10
138.876
20
-42.5465
11
139.04
21
-41.9097
0
LINE
8
BLACK
6
CONTINUOUS
10
139.04
20
-41.9097
11
139.356
21
-41.3336
0
LINE
8
BLACK
6
CONTINUOUS
10
139.356
20
-41.3336
11
139.806
21
-40.8544
0
LINE
8
BLACK
6
CONTINUOUS
10
139.806
20
-40.8544
11
140.361
21
-40.5021
0
LINE
8
BLACK
6
CONTINUOUS
10
140.361
20
-40.5021
11
140.987
21
-40.299
0
LINE
8
BLACK
6
CONTINUOUS
10
140.987
20
-40.299
11
141.643
21
-40.2577
0
LINE
8
BLACK
6
CONTINUOUS
10
141.643
20
-40.2577
11
142.288
21
-40.3809
0
LINE
8
BLACK
6
CONTINUOUS
10
142.288
20
-40.3809
11
142.883
21
-40.6608
0
LINE
8
BLACK
6
CONTINUOUS
10
142.883
20
-40.6608
11
143.39
21
-41.0798
0
LINE
8
BLACK
6
CONTINUOUS
10
143.39
20
-41.0798
11
143.776
21
-41.6117
0
LINE
8
BLACK
6
CONTINUOUS
10
143.776
20
-41.6117
11
144.018
21
-42.2229
0
LINE
8
BLACK
6
CONTINUOUS
10
144.018
20
-42.2229
11
144.101
21
-42.8752
0
LINE
8
BLACK
6
CONTINUOUS
10
144.101
20
-42.8752
11
144.018
21
-43.5274
0
LINE
8
BLACK
6
CONTINUOUS
10
144.018
20
-43.5274
11
143.776
21
-44.1386
0
LINE
8
BLACK
6
CONTINUOUS
10
143.671
20
-41.6695
11
143.302
21
-41.162
0
LINE
8
BLACK
6
CONTINUOUS
10
143.302
20
-41.162
11
142.819
21
-40.7621
0
LINE
8
BLACK
6
CONTINUOUS
10
142.819
20
-40.7621
11
142.251
21
-40.495
0
LINE
8
BLACK
6
CONTINUOUS
10
142.251
20
-40.495
11
141.635
21
-40.3774
0
LINE
8
BLACK
6
CONTINUOUS
10
141.635
20
-40.3774
11
141.009
21
-40.4168
0
LINE
8
BLACK
6
CONTINUOUS
10
141.009
20
-40.4168
11
140.412
21
-40.6107
0
LINE
8
BLACK
6
CONTINUOUS
10
140.412
20
-40.6107
11
139.883
21
-40.9468
0
LINE
8
BLACK
6
CONTINUOUS
10
139.883
20
-40.9468
11
139.453
21
-41.4041
0
LINE
8
BLACK
6
CONTINUOUS
10
139.453
20
-41.4041
11
139.151
21
-41.9539
0
LINE
8
BLACK
6
CONTINUOUS
10
139.151
20
-41.9539
11
138.995
21
-42.5615
0
LINE
8
BLACK
6
CONTINUOUS
10
138.995
20
-42.5615
11
138.995
21
-43.1888
0
LINE
8
BLACK
6
CONTINUOUS
10
138.995
20
-43.1888
11
139.151
21
-43.7965
0
LINE
8
BLACK
6
CONTINUOUS
10
139.151
20
-43.7965
11
139.453
21
-44.3462
0
LINE
8
BLACK
6
CONTINUOUS
10
139.453
20
-44.3462
11
139.883
21
-44.8035
0
LINE
8
BLACK
6
CONTINUOUS
10
139.883
20
-44.8035
11
140.412
21
-45.1396
0
LINE
8
BLACK
6
CONTINUOUS
10
140.412
20
-45.1396
11
141.009
21
-45.3335
0
LINE
8
BLACK
6
CONTINUOUS
10
141.009
20
-45.3335
11
141.635
21
-45.3729
0
LINE
8
BLACK
6
CONTINUOUS
10
141.635
20
-45.3729
11
142.251
21
-45.2553
0
LINE
8
BLACK
6
CONTINUOUS
10
142.251
20
-45.2553
11
142.819
21
-44.9882
0
LINE
8
BLACK
6
CONTINUOUS
10
142.819
20
-44.9882
11
143.302
21
-44.5884
0
LINE
8
BLACK
6
CONTINUOUS
10
143.302
20
-44.5884
11
143.671
21
-44.0808
0
LINE
8
BLACK
6
CONTINUOUS
10
143.671
20
-44.0808
11
143.902
21
-43.4976
0
LINE
8
BLACK
6
CONTINUOUS
10
143.902
20
-43.4976
11
143.981
21
-42.8752
0
LINE
8
BLACK
6
CONTINUOUS
10
143.981
20
-42.8752
11
143.902
21
-42.2528
0
LINE
8
BLACK
6
CONTINUOUS
10
143.902
20
-42.2528
11
143.671
21
-41.6695
  0
ENDSEC
  0
EOF
