0
SECTION
2
HEADER
9
$INSUNITS
70
4
9
$ACADVER
1
AC1014
9
$HANDSEED
5
FFFF
0
ENDSEC
0
SECTION
2
TABLES
0
TABLE
2
VPORT
5
8
100
AcDbSymbolTable
0
ENDTAB
0
TABLE
2
LTYPE
5
5
100
AcDbSymbolTable
0
LTYPE
5
14
100
AcDbSymbolTableRecord
100
AcDbLinetypeTableRecord
2
BYBLOCK
70
0
0
LTYPE
5
15
100
AcDbSymbolTableRecord
100
AcDbLinetypeTableRecord
2
BYLAYER
70
0
0
ENDTAB
0
TABLE
2
LAYER
5
2
100
AcDbSymbolTable
70
2
0
LAYER
5
50
100
AcDbSymbolTableRecord
100
AcDbLayerTableRecord
2
0
70
0
6
CONTINUOUS
0
ENDTAB
0
TABLE
2
STYLE
5
3
100
AcDbSymbolTable
70
1
0
STYLE
5
11
100
AcDbSymbolTableRecord
100
AcDbTextStyleTableRecord
2
STANDARD
70
0
0
ENDTAB
0
TABLE
2
VIEW
5
6
100
AcDbSymbolTable
70
0
0
ENDTAB
0
TABLE
2
UCS
5
7
100
AcDbSymbolTable
70
0
0
ENDTAB
0
TABLE
2
APPID
5
9
100
AcDbSymbolTable
70
2
0
APPID
5
12
100
AcDbSymbolTableRecord
100
AcDbRegAppTableRecord
2
ACAD
70
0
0
ENDTAB
0
TABLE
2
DIMSTYLE
5
A
100
AcDbSymbolTable
70
1
0
ENDTAB
0
TABLE
2
BLOCK_RECORD
5
1
100
AcDbSymbolTable
70
1
0
BLOCK_RECORD
5
1F
100
AcDbSymbolTableRecord
100
AcDbBlockTableRecord
2
*MODEL_SPACE
0
BLOCK_RECORD
5
1B
100
AcDbSymbolTableRecord
100
AcDbBlockTableRecord
2
*PAPER_SPACE
0
ENDTAB
0
ENDSEC
0
SECTION
2
BLOCKS
0
BLOCK
5
20
100
AcDbEntity
100
AcDbBlockBegin
2
*MODEL_SPACE
0
ENDBLK
5
21
100
AcDbEntity
100
AcDbBlockEnd
0
BLOCK
5
1C
100
AcDbEntity
100
AcDbBlockBegin
2
*PAPER_SPACE
0
ENDBLK
5
1D
100
AcDbEntity
100
AcDbBlockEnd
0
ENDSEC
0
SECTION
2
ENTITIES
0
LWPOLYLINE
5
100
100
AcDbEntity
8
0
100
AcDbPolyline
90
8
70
1
43
0.0
10
754.61341485528374
20
420.19997319044455
42
-0.99999578579820725
10
752.20924166764007
20
417.79582026610512
10
749.01756777970888
20
417.79582026610274
42
-0.99999999999999989
10
746.61340472367669
20
420.1999833221393
10
746.61340472367726
20
431.39165721006793
42
-0.99999999999999989
10
749.01756777970832
20
433.79582026610507
10
752.20924166764848
20
433.79582026611081
42
-0.99999578578503501
10
754.61341485530693
20
431.39166734178622
0
LWPOLYLINE
5
101
100
AcDbEntity
8
0
100
AcDbPolyline
90
9
70
1
43
0.0
10
749.01756777970854
20
296.79582026610336
42
-0.99999999999999989
10
746.61340472367669
20
299.19998332214004
10
746.61340472367658
20
310.3916572100693
42
-0.99999999999999989
10
749.01756777970877
20
312.79582026610552
10
752.20924695415704
20
312.79582026610547
42
-0.4142140713976295
10
754.61341209930868
20
312.79581780756024
42
-0.41421178279846504
10
754.61341485530693
20
310.39166205520769
10
754.61341485544608
20
299.19998265513254
42
-0.99999987622166642
10
752.20925113240492
20
296.79582026610552
0
LWPOLYLINE
5
102
100
AcDbEntity
8
0
100
AcDbPolyline
90
10
70
1
43
0.0
10
749.01756777970786
20
54.795600246044344
42
-0.99999999999999989
10
746.61340472367658
20
57.199763302081273
10
746.61340472367556
20
68.391437190011018
42
-0.99999999999999989
10
749.01756777970922
20
70.795600246046064
10
752.20924673345621
20
70.795600246046135
42
-0.41421417952760581
10
754.6134123223901
20
70.79559771314031
42
-0.41421171090551967
10
754.61341485530647
20
68.391442255849071
10
754.61341485530647
20
57.19975823624231
42
-0.41421171090541681
10
754.61341232239033
20
54.795602778951569
42
-0.41421417952789252
10
752.20924673345553
20
54.795600246046092
0
ARC
5
103
100
AcDbEntity
8
0
100
AcDbCircle
10
747.81548625169216
20
-65.002318225936492
30
0
40
1.7000000000000481
100
AcDbArc
50
134.99999999993278
51
314.99999999993804
0
LINE
5
104
100
AcDbEntity
8
0
100
AcDbLine
10
746.61340472367647
20
-63.800236697917974
30
0
11
746.61340472367658
21
-52.608562809989451
31
0
0
ARC
5
105
100
AcDbEntity
8
0
100
AcDbCircle
10
747.81548625169205
20
-51.406481281970869
30
0
40
1.7000000000000419
100
AcDbArc
50
45.00000000000135
51
225.00000000007418
0
LINE
5
106
100
AcDbEntity
8
0
100
AcDbLine
10
749.01756777970922
20
-50.204399753953638
30
0
11
752.20924166764109
21
-50.204399753953659
31
0
0
ARC
5
107
100
AcDbEntity
8
0
100
AcDbCircle
10
753.41132319565816
20
-51.406481281970862
30
0
40
1.6999999999999762
100
AcDbArc
50
-44.999517085875937
51
134.99999999999662
0
LINE
5
108
100
AcDbEntity
8
0
100
AcDbLine
10
754.61341485530636
20
-52.608552678271465
30
0
11
754.61341485530636
21
-63.80024682963591
31
0
0
ARC
5
109
100
AcDbEntity
8
0
100
AcDbCircle
10
753.41132319565816
20
-65.002318225936534
30
0
40
1.7000000000000419
100
AcDbArc
50
-135.00000000000205
51
44.999517085876434
0
LINE
5
110
100
AcDbEntity
8
0
100
AcDbLine
10
752.20924166764098
20
-66.204399753953624
30
0
11
749.01756777970809
21
-66.204399753955016
31
0
0
ARC
5
111
100
AcDbEntity
8
0
100
AcDbCircle
10
585.01610512331763
20
432.59373873808664
30
0
40
1.6999999999999826
100
AcDbArc
50
-44.999517085871666
51
134.9999999988932
0
LINE
5
112
100
AcDbEntity
8
0
100
AcDbLine
10
586.21819678296595
20
431.3916673417861
30
0
11
586.21819678296583
21
420.19997319042159
31
0
0
ARC
5
113
100
AcDbEntity
8
0
100
AcDbCircle
10
585.01610512331752
20
418.99790179412105
30
0
40
1.6999999999999917
100
AcDbArc
50
-135.0000000000569
51
44.999517085871688
0
LINE
5
114
100
AcDbEntity
8
0
100
AcDbLine
10
583.8140235952992
20
417.79582026610512
30
0
11
580.62234970737018
21
417.79582026610512
31
0
0
ARC
5
115
100
AcDbEntity
8
0
100
AcDbCircle
10
579.42026817935198
20
418.99790179412099
30
0
40
1.7000000000000419
100
AcDbArc
50
134.99999999996072
51
315.00000000005554
0
LINE
5
116
100
AcDbEntity
8
0
100
AcDbLine
10
578.2181866513356
20
420.19998332213902
30
0
11
578.2181866513356
21
431.39165721006873
31
0
0
ARC
5
117
100
AcDbEntity
8
0
100
AcDbCircle
10
579.42026817935198
20
432.5937387380867
30
0
40
1.6999999999999413
100
AcDbArc
50
45.000000000060972
51
225.00000000003791
0
LINE
5
118
100
AcDbEntity
8
0
100
AcDbLine
10
580.62234970736779
20
433.79582026610507
30
0
11
583.81402359532376
21
433.79582026612695
31
0
0
ARC
5
119
100
AcDbEntity
8
0
100
AcDbCircle
10
579.42026817935209
20
297.99790179412167
30
0
40
1.7000000000000419
100
AcDbArc
50
134.99999999996751
51
314.99999999996749
0
LINE
5
120
100
AcDbEntity
8
0
100
AcDbLine
10
578.2181866513356
20
299.19998332213953
30
0
11
578.2181866513356
21
310.39165721006947
31
0
0
ARC
5
121
100
AcDbEntity
8
0
100
AcDbCircle
10
579.42026817935198
20
311.59373873808744
30
0
40
1.6999999999999664
100
AcDbArc
50
45.0000000000447
51
225.00000000003791
0
LINE
5
122
100
AcDbEntity
8
0
100
AcDbLine
10
580.62234970736813
20
312.79582026610547
30
0
11
583.81402888181617
21
312.79582026610547
31
0
0
ARC
5
123
100
AcDbEntity
8
0
100
AcDbCircle
10
585.01611022512157
20
311.59373855337668
30
0
40
1.6999999999998678
100
AcDbArc
50
44.999891620555864
51
134.99999119593781
0
ARC
5
124
100
AcDbEntity
8
0
100
AcDbCircle
10
585.01611022512157
20
311.59373855337668
30
0
40
1.7000000000001019
100
AcDbArc
50
-44.999760258805217
51
44.999891620555864
0
LINE
5
125
100
AcDbEntity
8
0
100
AcDbLine
10
586.21819678296572
20
310.39166205520758
30
0
11
586.21819678296572
21
299.19998265527221
31
0
0
ARC
5
126
100
AcDbEntity
8
0
100
AcDbCircle
10
585.016114772793
20
297.9979016094108
30
0
40
1.7000000000000117
100
AcDbArc
50
-135.00000880406492
51
44.999977018626851
0
LINE
5
127
100
AcDbEntity
8
0
100
AcDbLine
10
583.81403306006416
20
296.79582026610547
30
0
11
580.62234970736858
21
296.79582026610382
31
0
0
ARC
5
128
100
AcDbEntity
8
0
100
AcDbCircle
10
579.42026817935175
20
55.997681774062826
30
0
40
1.699999999999998
100
AcDbArc
50
134.99999999995546
51
314.99999999995816
0
LINE
5
129
100
AcDbEntity
8
0
100
AcDbLine
10
578.2181866513356
20
57.199763302080846
30
0
11
578.21818665133549
21
68.391437190010521
31
0
0
ARC
5
130
100
AcDbEntity
8
0
100
AcDbCircle
10
579.42026817935187
20
69.593518718028463
30
0
40
1.7000000000000168
100
AcDbArc
50
45.000000000019973
51
225.00000000003723
0
LINE
5
131
100
AcDbEntity
8
0
100
AcDbLine
10
580.62234970736858
20
70.795600246046021
30
0
11
583.81402866111546
21
70.795600246046007
31
0
0
ARC
5
132
100
AcDbEntity
8
0
100
AcDbCircle
10
585.01611018913229
20
69.593518718028392
30
0
40
1.7000000000000477
100
AcDbArc
50
44.999879272230608
51
134.99999999998138
0
ARC
5
133
100
AcDbEntity
8
0
100
AcDbCircle
10
585.01611018913229
20
69.593518718028392
30
0
40
1.6999999999999202
100
AcDbArc
50
-44.999758543418793
51
44.999879272230608
0
LINE
5
134
100
AcDbEntity
8
0
100
AcDbLine
10
586.21819678296549
20
68.391442255848816
30
0
11
586.21819678296549
21
57.199758236242445
31
0
0
ARC
5
135
100
AcDbEntity
8
0
100
AcDbCircle
10
585.01611018913229
20
55.997681774062819
30
0
40
1.6999999999999722
100
AcDbArc
50
-44.999879272208773
51
44.999758543419986
0
ARC
5
136
100
AcDbEntity
8
0
100
AcDbCircle
10
585.01611018913229
20
55.997681774062819
30
0
40
1.700000000000067
100
AcDbArc
50
224.99999999997948
51
315.00012072779123
0
LINE
5
137
100
AcDbEntity
8
0
100
AcDbLine
10
583.81402866111466
20
54.79560024604605
30
0
11
580.62234970736802
21
54.795600246044806
31
0
0
LWPOLYLINE
5
138
100
AcDbEntity
8
0
100
AcDbPolyline
90
8
70
1
43
0.0
10
580.6223497073679
20
-66.204399753954689
42
-0.99999999999999989
10
578.2181866513356
20
-63.800236697918493
10
578.21818665133469
20
-52.608562809988193
42
-0.99999999999999989
10
580.6223497073687
20
-50.20439975395373
10
583.81402359530784
20
-50.204399753946156
42
-0.99999578578503501
10
586.21819678296538
20
-52.608552678271778
10
586.21819678295731
20
-63.800246829627632
42
-0.99999578579162118
10
583.81402359530011
20
-66.204399753953709
0
ARC
5
139
100
AcDbEntity
8
0
100
AcDbCircle
10
673.21371415948749
20
29.108859156263549
30
0
40
1.7000000000001267
100
AcDbArc
50
-44.999999999931759
51
135.00000000006833
0
LINE
5
140
100
AcDbEntity
8
0
100
AcDbLine
10
674.41579568750615
20
27.90677762824776
30
0
11
674.41579568750603
21
24.715103740313793
31
0
0
ARC
5
141
100
AcDbEntity
8
0
100
AcDbCircle
10
673.21371415948749
20
23.513022212297923
30
0
40
1.6999999999999225
100
AcDbArc
50
-135.00000000000873
51
44.999999999936414
0
LINE
5
142
100
AcDbEntity
8
0
100
AcDbLine
10
672.01163263147021
20
22.310940684281
30
0
11
660.81995874353925
21
22.310940684281025
31
0
0
ARC
5
143
100
AcDbEntity
8
0
100
AcDbCircle
10
659.61787721552184
20
23.513022212297898
30
0
40
1.7000000000000011
100
AcDbArc
50
134.9999999999371
51
315.00000000001262
0
LINE
5
144
100
AcDbEntity
8
0
100
AcDbLine
10
658.41579568750603
20
24.715103740316348
30
0
11
658.41579568750603
21
27.90677762824517
31
0
0
ARC
5
145
100
AcDbEntity
8
0
100
AcDbCircle
10
659.61787721552184
20
29.108859156263627
30
0
40
1.6999999999999447
100
AcDbArc
50
45.000000000012946
51
225.00000000006307
0
LINE
5
146
100
AcDbEntity
8
0
100
AcDbLine
10
660.81995874353868
20
30.310940684281004
30
0
11
672.01163263146884
21
30.310940684279334
31
0
0
ARC
5
147
100
AcDbEntity
8
0
100
AcDbCircle
10
673.21371415948772
20
181.10930122466797
30
0
40
1.7000000000000419
100
AcDbArc
50
-44.999999999947178
51
135.00000000005014
0
LINE
5
148
100
AcDbEntity
8
0
100
AcDbLine
10
674.41579568750603
20
179.90721969665188
30
0
11
674.41579568750603
21
176.71554580871813
31
0
0
ARC
5
149
100
AcDbEntity
8
0
100
AcDbCircle
10
673.21371415948761
20
175.51346428070218
30
0
40
1.7000000000000168
100
AcDbArc
50
-135.00000000002981
51
44.999999999941082
0
LINE
5
150
100
AcDbEntity
8
0
100
AcDbLine
10
672.01163263146987
20
174.31138275268569
30
0
11
660.81995874353981
21
174.31138275268569
31
0
0
ARC
5
151
100
AcDbEntity
8
0
100
AcDbCircle
10
659.61787721552196
20
175.51346428070229
30
0
40
1.7000000000000168
100
AcDbArc
50
134.9999999999431
51
315.00000000002984
0
LINE
5
152
100
AcDbEntity
8
0
100
AcDbLine
10
658.41579568750603
20
176.71554580872061
30
0
11
658.41579568750603
21
179.90721969664952
31
0
0
ARC
5
153
100
AcDbEntity
8
0
100
AcDbCircle
10
659.61787721552196
20
181.10930122466789
30
0
40
1.6999999999999664
100
AcDbArc
50
45.000000000035229
51
225.00000000005826
0
LINE
5
154
100
AcDbEntity
8
0
100
AcDbLine
10
660.81995874353834
20
182.31138275268574
30
0
11
672.01163263146952
21
182.31138275268407
31
0
0
ARC
5
155
100
AcDbEntity
8
0
100
AcDbCircle
10
673.21371415948829
20
465.51346428070082
30
0
40
1.7000000000000419
100
AcDbArc
50
-135.0000000000623
51
44.999999999934978
0
LINE
5
156
100
AcDbEntity
8
0
100
AcDbLine
10
672.01163263146987
20
464.31138275268501
30
0
11
660.81995874354095
21
464.31138275268501
31
0
0
ARC
5
157
100
AcDbEntity
8
0
100
AcDbCircle
10
659.61787721552253
20
465.51346428070087
30
0
40
1.7000000000000921
100
AcDbArc
50
134.99999999995396
51
315.00000000006094
0
LINE
5
158
100
AcDbEntity
8
0
100
AcDbLine
10
658.41579568750626
20
466.71554580871907
30
0
11
658.41579568750626
21
469.90721969664827
31
0
0
ARC
5
159
100
AcDbEntity
8
0
100
AcDbCircle
10
659.61787721552241
20
471.10930122466647
30
0
40
1.7000000000000419
100
AcDbArc
50
45.000000000065022
51
224.99999914629126
0
LINE
5
160
100
AcDbEntity
8
0
100
AcDbLine
10
660.81995874353822
20
472.31138275268501
30
0
11
672.01163263147248
21
472.31138275268501
31
0
0
ARC
5
161
100
AcDbEntity
8
0
100
AcDbCircle
10
673.21371415948818
20
471.10930122466647
30
0
40
1.7000000000001423
100
AcDbArc
50
-44.999999999952571
51
134.99999999993227
0
LINE
5
162
100
AcDbEntity
8
0
100
AcDbLine
10
674.41579568750637
20
469.90721969665026
30
0
11
674.41579568750683
21
466.71554580871663
31
0
0
ARC
5
163
100
AcDbEntity
8
0
100
AcDbCircle
10
673.21371415948784
20
-109.48653571929637
30
0
40
1.7000000000000293
100
AcDbArc
50
-134.99999999999662
51
45.000000000001016
0
LINE
5
164
100
AcDbEntity
8
0
100
AcDbLine
10
672.01163263147077
20
-110.68861724731357
30
0
11
660.81995874353902
21
-110.6886172473136
31
0
0
ARC
5
165
100
AcDbEntity
8
0
100
AcDbCircle
10
659.61787721552196
20
-109.48653571929638
30
0
40
1.700000000000004
100
AcDbArc
50
134.9999999999367
51
314.99999999999631
0
LINE
5
166
100
AcDbEntity
8
0
100
AcDbLine
10
658.41579568750615
20
-108.28445419127792
30
0
11
658.41579568750615
21
-105.09278030334919
31
0
0
ARC
5
167
100
AcDbEntity
8
0
100
AcDbCircle
10
659.61787721552196
20
-103.89069877533068
30
0
40
1.6999999999999664
100
AcDbArc
50
44.999999999992887
51
225.00000000006435
0
LINE
5
168
100
AcDbEntity
8
0
100
AcDbLine
10
660.81995874353925
20
-102.68861724731369
30
0
11
672.01163263147066
21
-102.68861724731366
31
0
0
ARC
5
169
100
AcDbEntity
8
0
100
AcDbCircle
10
673.21371415948806
20
-103.89069877533063
30
0
40
1.6999999999998785
100
AcDbArc
50
-44.999999999950532
51
135.00000000001017
0
LINE
5
170
100
AcDbEntity
8
0
100
AcDbLine
10
674.41579568750615
20
-105.09278030334664
30
0
11
674.41579568750501
21
-108.28445419127915
31
0
0
LWPOLYLINE
5
171
100
AcDbEntity
8
0
100
AcDbPolyline
90
16
70
1
43
0.0
10
763.50158212513281
20
-115.61861145506253
42
-0.19891236737956833
10
762.08736856275982
20
-116.20439789268949
10
570.74422281225236
20
-116.2043978926895
42
-0.19891236737967219
10
569.33000924987925
20
-115.61861145506262
10
565.50158212513304
20
-111.79018433031641
42
-0.19891236737960744
10
564.91579568750603
20
-110.37597076794327
10
564.91579568750626
20
477.96739353458071
42
-0.19891236737960802
10
565.50158212513327
20
479.38160709695381
10
569.33000924987937
20
483.21003422169986
42
-0.19891236737960144
10
570.74422281225236
20
483.79582065932681
10
762.08736856275982
20
483.79582065932681
42
-0.19891236737966458
10
763.50158212513293
20
483.21003422169986
10
767.33000924987891
20
479.38160709695376
42
-0.1989123673796738
10
767.91579568750592
20
477.96739353458065
10
767.91579568750581
20
-110.3759707679433
42
-0.19891236737953993
10
767.33000924987891
20
-111.79018433031636
0
LWPOLYLINE
5
172
100
AcDbEntity
8
0
100
AcDbPolyline
90
3
70
1
43
0.0
10
675.98779568750399
20
272.31150008773989
10
689.84379568750398
20
272.31150008774
10
682.91579568750399
20
284.31114808257706
0
LWPOLYLINE
5
173
100
AcDbEntity
8
0
100
AcDbPolyline
90
3
70
1
43
0.0
10
689.84379568750501
20
199.31126541763061
10
675.98779568750501
20
199.31126541763047
10
682.91579568750512
20
187.3116174227934
0
LWPOLYLINE
5
174
100
AcDbEntity
8
0
100
AcDbPolyline
90
3
70
1
43
0.0
10
642.98759245722874
20
272.31138275268404
10
656.84399891777969
20
272.31138275268421
10
649.91579568750399
20
284.31138275268404
0
LWPOLYLINE
5
175
100
AcDbEntity
8
0
100
AcDbPolyline
90
3
70
1
43
0.0
10
656.84379568750785
20
199.31126541763024
10
642.98779568750786
20
199.3112654176301
10
649.91579568750797
20
187.31161742279301
0
LWPOLYLINE
5
176
100
AcDbEntity
8
0
100
AcDbPolyline
90
4
70
1
43
0.0
10
659.41579568750626
20
216.49788791545615
10
673.41579568750615
20
216.49788791545629
42
0.99999999999999989
10
673.41579568750581
20
255.12487758991401
10
659.41579568750569
20
255.12487758991386
42
0.99999999999999989
0
LWPOLYLINE
5
177
100
AcDbEntity
8
0
100
AcDbPolyline
90
3
70
1
43
0.0
10
404.32512104099379
20
112.82374129968704
10
411.2533242712675
20
124.82374129968372
10
397.39691781072025
20
124.82374129968383
0
CIRCLE
5
178
100
AcDbEntity
8
0
100
AcDbCircle
10
395.32512104099408
20
156.12574142708559
30
0
40
3.0000000000000244
0
CIRCLE
5
179
100
AcDbEntity
8
0
100
AcDbCircle
10
363.32512104099396
20
156.12574142708564
30
0
40
3.0000000000000244
0
CIRCLE
5
180
100
AcDbEntity
8
0
100
AcDbCircle
10
363.32512104099419
20
-214.87347690005836
30
0
40
3.0000000000000244
0
CIRCLE
5
181
100
AcDbEntity
8
0
100
AcDbCircle
10
395.32512104099442
20
-214.87347690005845
30
0
40
3.0000000000000244
0
CIRCLE
5
182
100
AcDbEntity
8
0
100
AcDbCircle
10
404.32512104099385
20
70.82374129968494
30
0
40
3.0000000000000155
0
LWPOLYLINE
5
183
100
AcDbEntity
8
0
100
AcDbPolyline
90
3
70
1
43
0.0
10
404.32512104099385
20
12.823741299687315
10
411.25332427126756
20
24.823741299683981
10
397.39691781072025
20
24.823741299684073
0
LWPOLYLINE
5
184
100
AcDbEntity
8
0
100
AcDbPolyline
90
3
70
1
43
0.0
10
404.32512104099396
20
-87.176258700312431
10
411.25332427126762
20
-75.176258700315771
10
397.39691781072031
20
-75.176258700315671
0
LWPOLYLINE
5
185
100
AcDbEntity
8
0
100
AcDbPolyline
90
3
70
1
43
0.0
10
404.32512104099402
20
-187.17625870031219
10
411.25332427126773
20
-175.17625870031554
10
397.39691781072042
20
-175.1762587003154
0
CIRCLE
5
186
100
AcDbEntity
8
0
100
AcDbCircle
10
404.32512104099396
20
-29.176258700314811
30
0
40
3.0000000000000155
0
CIRCLE
5
187
100
AcDbEntity
8
0
100
AcDbCircle
10
404.32512104099402
20
-129.17625870031455
30
0
40
3.0000000000000155
0
ARC
5
188
100
AcDbEntity
8
0
100
AcDbCircle
10
354.12303951225022
20
-193.07594903785673
30
0
40
1.6999999999999915
100
AcDbArc
50
-44.999999965359997
51
134.99999832709454
0
LINE
5
189
100
AcDbEntity
8
0
100
AcDbLine
10
355.32512104099408
20
-194.27803056514708
30
0
11
355.32512104099408
21
-229.87347690005831
31
0
0
LINE
5
190
100
AcDbEntity
8
0
100
AcDbLine
10
355.32512104099408
20
-229.87347690005831
30
0
11
403.32512104099453
21
-229.87347690530513
31
0
0
LINE
5
191
100
AcDbEntity
8
0
100
AcDbLine
10
403.32512104099453
20
-229.87347690530513
30
0
11
403.32512104099442
21
-194.27803056680887
31
0
0
ARC
5
192
100
AcDbEntity
8
0
100
AcDbCircle
10
404.52720256890996
20
-193.0759490386902
30
0
40
1.700000000000067
100
AcDbArc
50
44.999999906898481
51
224.99999990690048
0
LINE
5
193
100
AcDbEntity
8
0
100
AcDbLine
10
405.72928409888044
20
-191.8738675126263
30
0
11
442.82512104099465
21
-191.87386751741491
31
0
0
LINE
5
194
100
AcDbEntity
8
0
100
AcDbLine
10
442.82512104099465
20
-191.87386751741491
30
0
11
442.82512104099465
21
-166.87386773648637
31
0
0
LINE
5
195
100
AcDbEntity
8
0
100
AcDbLine
10
442.82512104099465
20
-166.87386773648637
30
0
11
447.82512104099465
21
-161.87386773648637
31
0
0
LINE
5
196
100
AcDbEntity
8
0
100
AcDbLine
10
447.82512104099465
20
-161.87386773648637
30
0
11
489.82512265839148
21
-161.87386773648643
31
0
0
ARC
5
197
100
AcDbEntity
8
0
100
AcDbCircle
10
489.82512265839148
20
-160.87386773648649
30
0
40
0.99999999999994316
100
AcDbArc
50
-90
51
0
0
LINE
5
198
100
AcDbEntity
8
0
100
AcDbLine
10
490.82512265839142
20
-160.87386773648646
30
0
11
490.82512265839159
21
-151.87386657809083
31
0
0
ARC
5
199
100
AcDbEntity
8
0
100
AcDbCircle
10
489.82512265839142
20
-151.87386657809094
30
0
40
1.0000000000001563
100
AcDbArc
50
0
51
89.999999999996746
0
LINE
5
200
100
AcDbEntity
8
0
100
AcDbLine
10
489.82512265839148
20
-150.87386657809083
30
0
11
485.22928402453937
21
-150.87386657809083
31
0
0
ARC
5
201
100
AcDbEntity
8
0
100
AcDbCircle
10
484.02720249652384
20
-149.6717850500722
30
0
40
1.700000000000067
100
AcDbArc
50
134.99999999998914
51
314.99999999992616
0
LINE
5
202
100
AcDbEntity
8
0
100
AcDbLine
10
482.82512096850689
20
-148.4697035220548
30
0
11
482.82512096850672
21
89.72196804908171
31
0
0
ARC
5
203
100
AcDbEntity
8
0
100
AcDbCircle
10
484.02720249652361
20
90.924049577099112
30
0
40
1.7000000000000168
100
AcDbArc
50
45.000000000069761
51
225.00000000001219
0
LINE
5
204
100
AcDbEntity
8
0
100
AcDbLine
10
485.22928402453931
20
92.126131105117736
30
0
11
489.82512265839142
21
92.12613110511775
31
0
0
ARC
5
205
100
AcDbEntity
8
0
100
AcDbCircle
10
489.82512265839136
20
93.126131105117736
30
0
40
0.99999999999997868
100
AcDbArc
50
-89.999999999996746
51
0
0
LINE
5
206
100
AcDbEntity
8
0
100
AcDbLine
10
490.82512265839136
20
93.126131105117736
30
0
11
490.82512265839136
21
102.12613226351337
31
0
0
ARC
5
207
100
AcDbEntity
8
0
100
AcDbCircle
10
489.82512265839136
20
102.12613226351337
30
0
40
1.0000000000000142
100
AcDbArc
50
0
51
90
0
LINE
5
208
100
AcDbEntity
8
0
100
AcDbLine
10
489.82512265839136
20
103.12613226351337
30
0
11
447.82512104099453
21
103.12613226351343
31
0
0
LINE
5
209
100
AcDbEntity
8
0
100
AcDbLine
10
447.82512104099453
20
103.12613226351343
30
0
11
442.82512104099453
21
108.12613226351343
31
0
0
LINE
5
210
100
AcDbEntity
8
0
100
AcDbLine
10
442.82512104099453
20
108.12613226351343
30
0
11
442.82512104099447
21
133.12613204444202
31
0
0
LINE
5
211
100
AcDbEntity
8
0
100
AcDbLine
10
442.82512104099447
20
133.12613204444202
30
0
11
405.72928409887965
21
133.12613203965344
31
0
0
ARC
5
212
100
AcDbEntity
8
0
100
AcDbCircle
10
404.52720256890899
20
134.32821356571714
30
0
40
1.7000000000000293
100
AcDbArc
50
134.9999999951238
51
315.00000084889825
0
LINE
5
213
100
AcDbEntity
8
0
100
AcDbLine
10
403.32512104099413
20
135.5302950938366
30
0
11
403.32512104099419
21
171.12574143233229
31
0
0
LINE
5
214
100
AcDbEntity
8
0
100
AcDbLine
10
403.32512104099419
20
171.12574143233229
30
0
11
355.32512104099396
21
171.12574142708567
31
0
0
LINE
5
215
100
AcDbEntity
8
0
100
AcDbLine
10
355.32512104099396
20
171.12574142708567
30
0
11
355.32512104099391
21
135.53029509217328
31
0
0
ARC
5
216
100
AcDbEntity
8
0
100
AcDbCircle
10
354.12303951224897
20
134.32821356488381
30
0
40
1.6999999999999802
100
AcDbArc
50
-134.99999797887025
51
44.999999929818422
0
LINE
5
217
100
AcDbEntity
8
0
100
AcDbLine
10
352.92095802663573
20
133.12613199446284
30
0
11
315.82512104099368
21
133.12613198967429
31
0
0
LINE
5
218
100
AcDbEntity
8
0
100
AcDbLine
10
315.82512104099368
20
133.12613198967429
30
0
11
315.82512104099374
21
108.12613226351363
31
0
0
LINE
5
219
100
AcDbEntity
8
0
100
AcDbLine
10
315.82512104099374
20
108.12613226351363
30
0
11
310.82512104099368
21
103.12613226351365
31
0
0
LINE
5
220
100
AcDbEntity
8
0
100
AcDbLine
10
310.82512104099368
20
103.12613226351365
30
0
11
268.82511942359685
21
103.12613226351374
31
0
0
ARC
5
221
100
AcDbEntity
8
0
100
AcDbCircle
10
268.82511942359685
20
102.12613226351377
30
0
40
0.99999999999997868
100
AcDbArc
50
90
51
180
0
LINE
5
222
100
AcDbEntity
8
0
100
AcDbLine
10
267.82511942359685
20
102.12613226351377
30
0
11
267.82511942359685
21
93.126131105118134
31
0
0
ARC
5
223
100
AcDbEntity
8
0
100
AcDbCircle
10
268.82511942359685
20
93.12613110511812
30
0
40
1.0000000000000142
100
AcDbArc
50
180
51
270
0
LINE
5
224
100
AcDbEntity
8
0
100
AcDbLine
10
268.82511942359685
20
92.12613110511812
30
0
11
273.42095805744856
21
92.12613110511812
31
0
0
ARC
5
225
100
AcDbEntity
8
0
100
AcDbCircle
10
274.62303958546408
20
90.924049577099339
30
0
40
1.7000000000000293
100
AcDbArc
50
-44.999999999986819
51
134.99999999992244
0
LINE
5
226
100
AcDbEntity
8
0
100
AcDbLine
10
275.82512111348149
20
89.721968049082491
30
0
11
275.82512111348166
21
-148.46970352205483
31
0
0
ARC
5
227
100
AcDbEntity
8
0
100
AcDbCircle
10
274.6230395854642
20
-149.67178505007172
30
0
40
1.700000000000004
100
AcDbArc
50
-134.99999999992346
51
44.99999999998645
0
LINE
5
228
100
AcDbEntity
8
0
100
AcDbLine
10
273.42095805744867
20
-150.87386657809046
30
0
11
268.82511942359702
21
-150.87386657809046
31
0
0
ARC
5
229
100
AcDbEntity
8
0
100
AcDbCircle
10
268.82511942359702
20
-151.87386657809046
30
0
40
1.0000000000000142
100
AcDbArc
50
90
51
180
0
LINE
5
230
100
AcDbEntity
8
0
100
AcDbLine
10
267.82511942359702
20
-151.87386657809046
30
0
11
267.82511942359702
21
-160.87386773648606
31
0
0
ARC
5
231
100
AcDbEntity
8
0
100
AcDbCircle
10
268.82511942359707
20
-160.87386773648606
30
0
40
1.0000000000000497
100
AcDbArc
50
180
51
269.99999999999676
0
LINE
5
232
100
AcDbEntity
8
0
100
AcDbLine
10
268.82511942359702
20
-161.87386773648612
30
0
11
310.82512104099385
21
-161.87386773648615
31
0
0
LINE
5
233
100
AcDbEntity
8
0
100
AcDbLine
10
310.82512104099385
20
-161.87386773648615
30
0
11
315.82512104099391
21
-166.87386773648615
31
0
0
LINE
5
234
100
AcDbEntity
8
0
100
AcDbLine
10
315.82512104099391
20
-166.87386773648615
30
0
11
315.82512104099391
21
-191.87386746264679
31
0
0
LINE
5
235
100
AcDbEntity
8
0
100
AcDbLine
10
315.82512104099391
20
-191.87386746264679
30
0
11
352.92095802663709
21
-191.87386746743553
31
0
0
ARC
5
236
100
AcDbEntity
8
0
100
AcDbCircle
10
263.43467968768954
20
558.41411986876165
30
0
40
1.7000000000000419
100
AcDbArc
50
-44.999999999947178
51
135.0000000000542
0
LINE
5
237
100
AcDbEntity
8
0
100
AcDbLine
10
264.63676121570779
20
557.21203834074561
30
0
11
264.63676121570785
21
546.02036445281203
31
0
0
ARC
5
238
100
AcDbEntity
8
0
100
AcDbCircle
10
263.4346796876896
20
544.81828292479599
30
0
40
1.7000000000000921
100
AcDbArc
50
-134.99999999990789
51
44.999999999947164
0
LINE
5
239
100
AcDbEntity
8
0
100
AcDbLine
10
262.23259815967435
20
543.61620139677689
30
0
11
259.0409242717389
21
543.61620139677689
31
0
0
ARC
5
240
100
AcDbEntity
8
0
100
AcDbCircle
10
257.83884274372349
20
544.81828292479577
30
0
40
1.7000000000000168
100
AcDbArc
50
134.99999999992821
51
314.99999999991735
0
LINE
5
241
100
AcDbEntity
8
0
100
AcDbLine
10
256.63676121570785
20
546.02036445281442
30
0
11
256.63676121570779
21
557.21203834074333
31
0
0
ARC
5
242
100
AcDbEntity
8
0
100
AcDbCircle
10
257.83884274372377
20
558.41411986876165
30
0
40
1.7000000000000168
100
AcDbArc
50
44.99999999991465
51
225.00000000005554
0
LINE
5
243
100
AcDbEntity
8
0
100
AcDbLine
10
259.04092427174271
20
559.616201396777
30
0
11
262.23259815967123
21
559.61620139677768
31
0
0
ARC
5
244
100
AcDbEntity
8
0
100
AcDbCircle
10
257.83884274372502
20
349.01890154161561
30
0
40
1.6999999999999413
100
AcDbArc
50
44.999999999939043
51
224.99999999993901
0
LINE
5
245
100
AcDbEntity
8
0
100
AcDbLine
10
259.04092427174339
20
350.22098306963142
30
0
11
262.23259815967276
21
350.22098306963142
31
0
0
ARC
5
246
100
AcDbEntity
8
0
100
AcDbCircle
10
263.43467968769107
20
349.01890154161549
30
0
40
1.7000000000000921
100
AcDbArc
50
-45
51
135.0000000000569
0
LINE
5
247
100
AcDbEntity
8
0
100
AcDbLine
10
264.63676121570825
20
347.81682001359832
30
0
11
264.63676121570836
21
336.6251461256669
31
0
0
ARC
5
248
100
AcDbEntity
8
0
100
AcDbCircle
10
263.43467968769124
20
335.42306459764967
30
0
40
1.7000000000000168
100
AcDbArc
50
-134.99999999994856
51
45.000000000002707
0
LINE
5
249
100
AcDbEntity
8
0
100
AcDbLine
10
262.23259815967515
20
334.22098306963142
30
0
11
259.0409242717414
21
334.22098306963142
31
0
0
ARC
5
250
100
AcDbEntity
8
0
100
AcDbCircle
10
257.83884274372542
20
335.42306459764973
30
0
40
1.7000000000000168
100
AcDbArc
50
134.99999999999594
51
314.99999914622077
0
LINE
5
251
100
AcDbEntity
8
0
100
AcDbLine
10
256.63676121570836
20
336.62514612566696
30
0
11
256.63676121570666
21
347.81682001359979
31
0
0
ARC
5
252
100
AcDbEntity
8
0
100
AcDbCircle
10
478.43556396947804
20
558.41411986876017
30
0
40
1.7000000000000419
100
AcDbArc
50
-44.999999999983764
51
135.00000000001626
0
LINE
5
253
100
AcDbEntity
8
0
100
AcDbLine
10
479.63764549749555
20
557.21203834074333
30
0
11
479.63764549749555
21
546.02036445281112
31
0
0
ARC
5
254
100
AcDbEntity
8
0
100
AcDbCircle
10
478.43556396947798
20
544.8182829247944
30
0
40
1.6999999999999917
100
AcDbArc
50
-134.99999999990789
51
44.999999999979678
0
LINE
5
255
100
AcDbEntity
8
0
100
AcDbLine
10
477.23348244146274
20
543.6162013967753
30
0
11
474.0418085535274
21
543.61620139677541
31
0
0
ARC
5
256
100
AcDbEntity
8
0
100
AcDbCircle
10
472.83972702551205
20
544.8182829247944
30
0
40
1.7000000000000419
100
AcDbArc
50
134.99999999997155
51
314.99999999991326
0
LINE
5
257
100
AcDbEntity
8
0
100
AcDbLine
10
471.6376454974955
20
546.02036445281215
30
0
11
471.6376454974955
21
557.21203834074277
31
0
0
ARC
5
258
100
AcDbEntity
8
0
100
AcDbCircle
10
472.83972702551239
20
558.41411986876017
30
0
40
1.6999999999999915
100
AcDbArc
50
44.99999999991465
51
225.00000000001219
0
LINE
5
259
100
AcDbEntity
8
0
100
AcDbLine
10
474.04180855353133
20
559.61620139677552
30
0
11
477.23348244146052
21
559.616201396777
31
0
0
ARC
5
260
100
AcDbEntity
8
0
100
AcDbCircle
10
472.83972702551353
20
349.01890154161407
30
0
40
1.7000000000000419
100
AcDbArc
50
44.999999999939043
51
225.00000085371278
0
LINE
5
261
100
AcDbEntity
8
0
100
AcDbLine
10
474.04180855353195
20
350.22098306962994
30
0
11
477.23348244146132
21
350.22098306962994
31
0
0
ARC
5
262
100
AcDbEntity
8
0
100
AcDbCircle
10
478.43556396947952
20
349.0189015416139
30
0
40
1.7000000000000921
100
AcDbArc
50
-45.000000000027072
51
135.0000000000515
0
LINE
5
263
100
AcDbEntity
8
0
100
AcDbLine
10
479.63764549749612
20
347.81682001359616
30
0
11
479.63764549749612
21
336.62514612566611
31
0
0
ARC
5
264
100
AcDbEntity
8
0
100
AcDbCircle
10
478.43556396947974
20
335.42306459764814
30
0
40
1.7000000000000419
100
AcDbArc
50
-134.99999999994986
51
45.000000000037936
0
LINE
5
265
100
AcDbEntity
8
0
100
AcDbLine
10
477.23348244146365
20
334.22098306962994
30
0
11
474.04180855352985
21
334.22098306962988
31
0
0
ARC
5
266
100
AcDbEntity
8
0
100
AcDbCircle
10
472.83972702551398
20
335.42306459764831
30
0
40
1.7000000000000419
100
AcDbArc
50
135.00000000003794
51
314.99999914626147
0
LINE
5
267
100
AcDbEntity
8
0
100
AcDbLine
10
471.63764549749601
20
336.62514612566468
30
0
11
471.63764549749595
21
347.81682001359735
31
0
0
ARC
5
268
100
AcDbEntity
8
0
100
AcDbCircle
10
374.93512182858353
20
610.81828279739511
30
0
40
1.6999999999999915
100
AcDbArc
50
-134.99999999986184
51
45.000000000138172
0
LINE
5
269
100
AcDbEntity
8
0
100
AcDbLine
10
373.73304030056931
20
609.6162012693751
30
0
11
362.54136641263278
21
609.61620126937521
31
0
0
ARC
5
270
100
AcDbEntity
8
0
100
AcDbCircle
10
361.33928488461771
20
610.81828279739443
30
0
40
1.6999999999999915
100
AcDbArc
50
134.99999999994176
51
314.99999999990109
0
LINE
5
271
100
AcDbEntity
8
0
100
AcDbLine
10
360.13720335660184
20
612.02036432541274
30
0
11
360.13720335660173
21
615.21203821334166
31
0
0
ARC
5
272
100
AcDbEntity
8
0
100
AcDbCircle
10
361.33928488461748
20
616.41411974136008
30
0
40
1.7000000000000419
100
AcDbArc
50
44.999999999898407
51
225.00000000006366
0
LINE
5
273
100
AcDbEntity
8
0
100
AcDbLine
10
362.54136641263676
20
617.6162012693751
30
0
11
373.73304030056323
21
617.6162012693751
31
0
0
ARC
5
274
100
AcDbEntity
8
0
100
AcDbCircle
10
374.93512182858342
20
616.41411974136099
30
0
40
1.6999999999999917
100
AcDbArc
50
-44.999999999934964
51
135.00000000014495
0
LINE
5
275
100
AcDbEntity
8
0
100
AcDbLine
10
376.13720335660184
20
615.21203821334529
30
0
11
376.13720335659775
21
612.02036432541513
31
0
0
ARC
5
276
100
AcDbEntity
8
0
100
AcDbCircle
10
374.93512182858575
20
277.42306472505129
30
0
40
1.7000000000000168
100
AcDbArc
50
-134.99999999990925
51
45.000000000090772
0
LINE
5
277
100
AcDbEntity
8
0
100
AcDbLine
10
373.73304030057051
20
276.22098319703224
30
0
11
362.54136641263619
21
276.22098319703224
31
0
0
ARC
5
278
100
AcDbEntity
8
0
100
AcDbCircle
10
361.33928488461999
20
277.42306472505038
30
0
40
1.7000000000000168
100
AcDbArc
50
135.00000000001222
51
314.99999914623572
0
LINE
5
279
100
AcDbEntity
8
0
100
AcDbLine
10
360.13720335660258
20
278.62514625306727
30
0
11
360.13720335660253
21
281.81682014099914
31
0
0
ARC
5
280
100
AcDbEntity
8
0
100
AcDbCircle
10
361.33928488461999
20
283.01890166901615
30
0
40
1.6999999999999915
100
AcDbArc
50
44.999999999953943
51
224.99999999998917
0
LINE
5
281
100
AcDbEntity
8
0
100
AcDbLine
10
362.54136641263807
20
284.2209831970323
30
0
11
373.73304030056653
21
284.2209831970323
31
0
0
ARC
5
282
100
AcDbEntity
8
0
100
AcDbCircle
10
374.93512182858575
20
283.01890166901723
30
0
40
1.7000000000000419
100
AcDbArc
50
-45.000000000017607
51
135.00000000009888
0
LINE
5
283
100
AcDbEntity
8
0
100
AcDbLine
10
376.13720335660253
20
281.81682014099971
30
0
11
376.13720335660099
21
278.62514625307034
31
0
0
LWPOLYLINE
5
284
100
AcDbEntity
8
0
100
AcDbPolyline
90
16
70
1
43
0.0
10
489.72298979422681
20
246.80676963465984
42
-0.19891236737970208
10
488.3087762318537
20
246.22098319703295
10
247.9656304813453
20
246.22098319703122
42
-0.19891236737964635
10
246.55141691897211
20
246.80676963465811
10
242.7229897942259
20
250.63519675940427
42
-0.19891236737971316
10
242.137203356599
20
252.04941032177743
10
242.13720335659468
20
641.78778527248278
42
-0.19891236737966667
10
242.72298979422143
20
643.20199883485589
10
246.55141691896756
20
647.0304259596021
42
-0.19891236737968304
10
247.96563048134064
20
647.61621239722899
10
488.30877623184932
20
647.6162123972307
42
-0.19891236737965257
10
489.72298979422237
20
647.03042595960369
10
493.55141691896858
20
643.20199883485759
42
-0.19891236737959497
10
494.13720335659553
20
641.7877852724846
10
494.13720335659997
20
252.04941032177916
42
-0.19891236737967566
10
493.55141691897302
20
250.63519675940611
0
ARC
5
285
100
AcDbEntity
8
0
100
AcDbCircle
10
-3.5227894136946079
20
579.84589972682545
30
0
40
1.700000000000004
100
AcDbArc
50
-45.000000000007681
51
134.9999999999923
0
LINE
5
286
100
AcDbEntity
8
0
100
AcDbLine
10
-2.3207078856776429
20
578.64381819880816
30
0
11
-2.3207078856776335
21
573.04798125484365
31
0
0
LINE
5
287
100
AcDbEntity
8
0
100
AcDbLine
10
-2.3207078856776335
20
573.04798125484365
30
0
11
13.679292114322401
21
573.04798125484365
31
0
0
LINE
5
288
100
AcDbEntity
8
0
100
AcDbLine
10
13.679292114322401
20
573.04798125484365
30
0
11
13.679292114322397
21
578.64381819880862
31
0
0
ARC
5
289
100
AcDbEntity
8
0
100
AcDbCircle
10
14.881373642339799
20
579.84589972682545
30
0
40
1.7000000000000151
100
AcDbArc
50
45.00000000005106
51
224.99999999998641
0
LINE
5
290
100
AcDbEntity
8
0
100
AcDbLine
10
16.083455170355855
20
581.04798125484365
30
0
11
85.876901277894575
21
581.04798125484365
31
0
0
LINE
5
291
100
AcDbEntity
8
0
100
AcDbLine
10
85.876901277894575
20
581.04798125484365
30
0
11
85.876901277894589
21
594.44281812632198
31
0
0
ARC
5
292
100
AcDbEntity
8
0
100
AcDbCircle
10
87.07898280591192
20
595.64489965433904
30
0
40
1.6999999999999664
100
AcDbArc
50
44.999999999961055
51
224.99999999999355
0
LINE
5
293
100
AcDbEntity
8
0
100
AcDbLine
10
88.28106433392982
20
596.84698118235531
30
0
11
92.876901150493225
21
596.84698118235531
31
0
0
ARC
5
294
100
AcDbEntity
8
0
100
AcDbCircle
10
92.876901150493183
20
597.84698118235531
30
0
40
1.0000000000000142
100
AcDbArc
50
270.00000000000244
51
360
0
LINE
5
295
100
AcDbEntity
8
0
100
AcDbLine
10
93.876901150493211
20
597.84698118235519
30
0
11
93.876901150493211
21
603.84698118235531
31
0
0
ARC
5
296
100
AcDbEntity
8
0
100
AcDbCircle
10
92.876901150493154
20
603.84698118235531
30
0
40
1.0000000000000497
100
AcDbArc
50
0
51
89.999999999996746
0
LINE
5
297
100
AcDbEntity
8
0
100
AcDbLine
10
92.876901150493211
20
604.84698118235531
30
0
11
88.281064333928256
21
604.84698118235531
31
0
0
ARC
5
298
100
AcDbEntity
8
0
100
AcDbCircle
10
87.078982805911863
20
606.04906271037316
30
0
40
1.6999999999999791
100
AcDbArc
50
135.00000000000813
51
314.99999999996515
0
LINE
5
299
100
AcDbEntity
8
0
100
AcDbLine
10
85.876901277894575
20
607.25114423839011
30
0
11
85.876901277894575
21
629.44281812632175
31
0
0
ARC
5
300
100
AcDbEntity
8
0
100
AcDbCircle
10
87.078982805911863
20
630.64489965433859
30
0
40
1.700000000000004
100
AcDbArc
50
44.999999999968502
51
224.99999999998917
0
LINE
5
301
100
AcDbEntity
8
0
100
AcDbLine
10
88.281064333929677
20
631.84698118235508
30
0
11
92.876901150493211
21
631.84698118235519
31
0
0
ARC
5
302
100
AcDbEntity
8
0
100
AcDbCircle
10
92.876901150493126
20
632.84698118235519
30
0
40
1.0000000000000142
100
AcDbArc
50
270.00000000000489
51
360
0
LINE
5
303
100
AcDbEntity
8
0
100
AcDbLine
10
93.876901150493211
20
632.84698118235508
30
0
11
93.876901150493211
21
638.84698118235508
31
0
0
ARC
5
304
100
AcDbEntity
8
0
100
AcDbCircle
10
92.876901150493183
20
638.84698118235508
30
0
40
1.0000000000000142
100
AcDbArc
50
0
51
89.999999999997556
0
LINE
5
305
100
AcDbEntity
8
0
100
AcDbLine
10
92.876901150493225
20
639.84698118235519
30
0
11
88.281064333928398
21
639.84698118235519
31
0
0
ARC
5
306
100
AcDbEntity
8
0
100
AcDbCircle
10
87.078982805911863
20
641.04906271037282
30
0
40
1.6999999999999791
100
AcDbArc
50
135.00000000000813
51
314.99999999997397
0
LINE
5
307
100
AcDbEntity
8
0
100
AcDbLine
10
85.876901277894575
20
642.25114423838977
30
0
11
85.876901277894589
21
643.84698118235508
31
0
0
LINE
5
308
100
AcDbEntity
8
0
100
AcDbLine
10
85.876901277894589
20
643.84698118235508
30
0
11
-74.518317049249902
21
643.84698118235508
31
0
0
LINE
5
309
100
AcDbEntity
8
0
100
AcDbLine
10
-74.518317049249902
20
643.84698118235508
30
0
11
-74.518317049249873
21
642.25114423838977
31
0
0
ARC
5
310
100
AcDbEntity
8
0
100
AcDbCircle
10
-75.72039857726719
20
641.04906271037282
30
0
40
1.699999999999998
100
AcDbArc
50
-134.9999999999709
51
44.999999999991189
0
LINE
5
311
100
AcDbEntity
8
0
100
AcDbLine
10
-76.922480105283711
20
639.84698118235508
30
0
11
-81.518316921848538
21
639.84698118235508
31
0
0
ARC
5
312
100
AcDbEntity
8
0
100
AcDbCircle
10
-81.518316921848538
20
638.84698118235508
30
0
40
1.0000000000000142
100
AcDbArc
50
90
51
180
0
LINE
5
313
100
AcDbEntity
8
0
100
AcDbLine
10
-82.518316921848523
20
638.84698118235508
30
0
11
-82.518316921848509
21
632.84698118235508
31
0
0
ARC
5
314
100
AcDbEntity
8
0
100
AcDbCircle
10
-81.518316921848509
20
632.84698118235508
30
0
40
0.99999999999999645
100
AcDbArc
50
180
51
270
0
LINE
5
315
100
AcDbEntity
8
0
100
AcDbLine
10
-81.518316921848509
20
631.84698118235508
30
0
11
-76.922480105284961
21
631.84698118235508
31
0
0
ARC
5
316
100
AcDbEntity
8
0
100
AcDbCircle
10
-75.72039857726719
20
630.64489965433859
30
0
40
1.699999999999998
100
AcDbArc
50
-44.999999999988503
51
135.0000000000305
0
LINE
5
317
100
AcDbEntity
8
0
100
AcDbLine
10
-74.518317049249873
20
629.44281812632175
30
0
11
-74.518317049249873
21
607.25114423839
31
0
0
ARC
5
318
100
AcDbEntity
8
0
100
AcDbCircle
10
-75.720398577267161
20
606.04906271037305
30
0
40
1.699999999999998
100
AcDbArc
50
-134.9999999999651
51
44.999999999991878
0
LINE
5
319
100
AcDbEntity
8
0
100
AcDbLine
10
-76.922480105283555
20
604.84698118235519
30
0
11
-81.518316921848495
21
604.84698118235519
31
0
0
ARC
5
320
100
AcDbEntity
8
0
100
AcDbCircle
10
-81.518316921848509
20
603.84698118235519
30
0
40
1.0000000000000142
100
AcDbArc
50
89.99999999999919
51
180
0
LINE
5
321
100
AcDbEntity
8
0
100
AcDbLine
10
-82.518316921848509
20
603.84698118235519
30
0
11
-82.518316921848509
21
597.84698118235519
31
0
0
ARC
5
322
100
AcDbEntity
8
0
100
AcDbCircle
10
-81.518316921848538
20
597.84698118235519
30
0
40
0.99999999999997868
100
AcDbArc
50
180
51
270
0
LINE
5
323
100
AcDbEntity
8
0
100
AcDbLine
10
-81.518316921848538
20
596.84698118235519
30
0
11
-76.922480105285103
21
596.84698118235519
31
0
0
ARC
5
324
100
AcDbEntity
8
0
100
AcDbCircle
10
-75.720398577267161
20
595.64489965433893
30
0
40
1.699999999999998
100
AcDbArc
50
-44.999999999991552
51
135.00000000003999
0
LINE
5
325
100
AcDbEntity
8
0
100
AcDbLine
10
-74.518317049249859
20
594.44281812632198
30
0
11
-74.518317049249859
21
581.04798125484365
31
0
0
LINE
5
326
100
AcDbEntity
8
0
100
AcDbLine
10
-74.518317049249859
20
581.04798125484365
30
0
11
-4.7248709417115728
21
581.04798125484274
31
0
0
ARC
5
327
100
AcDbEntity
8
0
100
AcDbCircle
10
0.37108699513265675
20
473.22116075835453
30
0
40
1.7000000000000124
100
AcDbArc
50
-45.000000000007425
51
134.99999999999258
0
LINE
5
328
100
AcDbEntity
8
0
100
AcDbLine
10
1.5731685231496331
20
472.01907923033724
30
0
11
1.57316852314964
21
466.42324228637273
31
0
0
LINE
5
329
100
AcDbEntity
8
0
100
AcDbLine
10
1.57316852314964
20
466.42324228637273
30
0
11
17.573168523149729
21
466.42324228637278
31
0
0
LINE
5
330
100
AcDbEntity
8
0
100
AcDbLine
10
17.573168523149729
20
466.42324228637278
30
0
11
17.573168523149729
21
472.01907923033775
31
0
0
ARC
5
331
100
AcDbEntity
8
0
100
AcDbCircle
10
18.775250051167134
20
473.22116075835453
30
0
40
1.7000000000000184
100
AcDbArc
50
45.000000000052239
51
224.99999999998502
0
LINE
5
332
100
AcDbEntity
8
0
100
AcDbLine
10
19.977331579183197
20
474.42324228637278
30
0
11
89.770777686722155
21
474.42324228637278
31
0
0
LINE
5
333
100
AcDbEntity
8
0
100
AcDbLine
10
89.770777686722155
20
474.42324228637278
30
0
11
89.770777686722155
21
487.81807915785112
31
0
0
ARC
5
334
100
AcDbEntity
8
0
100
AcDbCircle
10
90.972859214739429
20
489.02016068586812
30
0
40
1.6999999999999917
100
AcDbArc
50
44.999999999961389
51
224.99999999999355
0
LINE
5
335
100
AcDbEntity
8
0
100
AcDbLine
10
92.174940742757371
20
490.22224221388444
30
0
11
96.770777559320834
21
490.22224221388444
31
0
0
ARC
5
336
100
AcDbEntity
8
0
100
AcDbCircle
10
96.770777559320877
20
491.22224221388444
30
0
40
1.0000000000000142
100
AcDbArc
50
269.99999999999756
51
360
0
LINE
5
337
100
AcDbEntity
8
0
100
AcDbLine
10
97.770777559320891
20
491.22224221388433
30
0
11
97.77077755932082
21
497.22224221388439
31
0
0
ARC
5
338
100
AcDbEntity
8
0
100
AcDbCircle
10
96.770777559320862
20
497.22224221388439
30
0
40
0.99999999999996092
100
AcDbArc
50
0
51
90.000000000002444
0
LINE
5
339
100
AcDbEntity
8
0
100
AcDbLine
10
96.77077755932082
20
498.22224221388439
30
0
11
92.174940742755851
21
498.22224221388439
31
0
0
ARC
5
340
100
AcDbEntity
8
0
100
AcDbCircle
10
90.972859214739429
20
499.42432374190224
30
0
40
1.6999999999999791
100
AcDbArc
50
135.00000000000779
51
314.99999999996584
0
LINE
5
341
100
AcDbEntity
8
0
100
AcDbLine
10
89.770777686722155
20
500.62640526991919
30
0
11
89.770777686722155
21
522.81807915785089
31
0
0
ARC
5
342
100
AcDbEntity
8
0
100
AcDbCircle
10
90.972859214739429
20
524.02016068586795
30
0
40
1.699999999999954
100
AcDbArc
50
44.999999999965453
51
224.99999999999488
0
LINE
5
343
100
AcDbEntity
8
0
100
AcDbLine
10
92.174940742757258
20
525.22224221388433
30
0
11
96.77077755932082
21
525.22224221388433
31
0
0
ARC
5
344
100
AcDbEntity
8
0
100
AcDbCircle
10
96.770777559320862
20
526.22224221388433
30
0
40
0.99999999999994316
100
AcDbArc
50
269.99999999999756
51
360
0
LINE
5
345
100
AcDbEntity
8
0
100
AcDbLine
10
97.770777559320862
20
526.22224221388421
30
0
11
97.77077755932082
21
532.22224221388433
31
0
0
ARC
5
346
100
AcDbEntity
8
0
100
AcDbCircle
10
96.770777559320834
20
532.22224221388433
30
0
40
0.99999999999997868
100
AcDbArc
50
0
51
90
0
LINE
5
347
100
AcDbEntity
8
0
100
AcDbLine
10
96.770777559320834
20
533.22224221388433
30
0
11
92.174940742755993
21
533.22224221388433
31
0
0
ARC
5
348
100
AcDbEntity
8
0
100
AcDbCircle
10
90.972859214739472
20
534.42432374190207
30
0
40
1.7000000000000293
100
AcDbArc
50
135.00000000000981
51
314.9999999999709
0
LINE
5
349
100
AcDbEntity
8
0
100
AcDbLine
10
89.770777686722113
20
535.62640526991902
30
0
11
89.77077768672217
21
537.22224221388433
31
0
0
LINE
5
350
100
AcDbEntity
8
0
100
AcDbLine
10
89.77077768672217
20
537.22224221388433
30
0
11
-70.62444064042289
21
537.22224221388421
31
0
0
LINE
5
351
100
AcDbEntity
8
0
100
AcDbLine
10
-70.62444064042289
20
537.22224221388421
30
0
11
-70.624440640422847
21
535.62640526991891
31
0
0
ARC
5
352
100
AcDbEntity
8
0
100
AcDbCircle
10
-71.826522168440164
20
534.42432374190196
30
0
40
1.700000000000004
100
AcDbArc
50
-134.99999999997124
51
44.999999999991189
0
LINE
5
353
100
AcDbEntity
8
0
100
AcDbLine
10
-73.028603696456699
20
533.22224221388421
30
0
11
-77.624440513021526
21
533.22224221388421
31
0
0
ARC
5
354
100
AcDbEntity
8
0
100
AcDbCircle
10
-77.624440513021526
20
532.22224221388421
30
0
40
1.0000000000000142
100
AcDbArc
50
90
51
180
0
LINE
5
355
100
AcDbEntity
8
0
100
AcDbLine
10
-78.62444051302154
20
532.22224221388421
30
0
11
-78.624440513021511
21
526.22224221388421
31
0
0
ARC
5
356
100
AcDbEntity
8
0
100
AcDbCircle
10
-77.624440513021511
20
526.22224221388433
30
0
40
1.0000000000000053
100
AcDbArc
50
180
51
270
0
LINE
5
357
100
AcDbEntity
8
0
100
AcDbLine
10
-77.624440513021511
20
525.22224221388433
30
0
11
-73.028603696457935
21
525.22224221388433
31
0
0
ARC
5
358
100
AcDbEntity
8
0
100
AcDbCircle
10
-71.826522168440164
20
524.02016068586784
30
0
40
1.7000000000000104
100
AcDbArc
50
-44.999999999990834
51
135.0000000000305
0
LINE
5
359
100
AcDbEntity
8
0
100
AcDbLine
10
-70.624440640422833
20
522.81807915785089
30
0
11
-70.624440640422847
21
500.62640526991919
31
0
0
ARC
5
360
100
AcDbEntity
8
0
100
AcDbCircle
10
-71.826522168440164
20
499.42432374190219
30
0
40
1.7000000000000104
100
AcDbArc
50
-134.9999999999651
51
44.999999999992554
0
LINE
5
361
100
AcDbEntity
8
0
100
AcDbLine
10
-73.028603696456557
20
498.22224221388433
30
0
11
-77.624440513021511
21
498.22224221388433
31
0
0
ARC
5
362
100
AcDbEntity
8
0
100
AcDbCircle
10
-77.624440513021511
20
497.22224221388439
30
0
40
0.99999999999994316
100
AcDbArc
50
90
51
180
0
LINE
5
363
100
AcDbEntity
8
0
100
AcDbLine
10
-78.624440513021511
20
497.22224221388439
30
0
11
-78.624440513021511
21
491.22224221388444
31
0
0
ARC
5
364
100
AcDbEntity
8
0
100
AcDbCircle
10
-77.624440513021526
20
491.22224221388433
30
0
40
0.99999999999998757
100
AcDbArc
50
180
51
270
0
LINE
5
365
100
AcDbEntity
8
0
100
AcDbLine
10
-77.624440513021526
20
490.22224221388433
30
0
11
-73.028603696458077
21
490.22224221388433
31
0
0
ARC
5
366
100
AcDbEntity
8
0
100
AcDbCircle
10
-71.826522168440164
20
489.02016068586806
30
0
40
1.7000000000000104
100
AcDbArc
50
-44.999999999990834
51
135.00000000003931
0
LINE
5
367
100
AcDbEntity
8
0
100
AcDbLine
10
-70.624440640422833
20
487.81807915785112
30
0
11
-70.624440640422847
21
474.42324228637278
31
0
0
LINE
5
368
100
AcDbEntity
8
0
100
AcDbLine
10
-70.624440640422847
20
474.42324228637278
30
0
11
-0.83099453288431946
21
474.42324228637182
31
0
0
ARC
5
369
100
AcDbEntity
8
0
100
AcDbCircle
10
137.18928437559975
20
417.75079383750722
30
0
40
1.7000000000000544
100
AcDbArc
50
44.999999999976289
51
224.99999999997561
0
LINE
5
370
100
AcDbEntity
8
0
100
AcDbLine
10
138.39136590361741
20
418.95287536552388
30
0
11
141.58303979154783
21
418.95287536552394
31
0
0
ARC
5
371
100
AcDbEntity
8
0
100
AcDbCircle
10
142.78512131956563
20
417.75079383750744
30
0
40
1.700000000000004
100
AcDbArc
50
-45.000000000110383
51
135.00000000003115
0
LINE
5
372
100
AcDbEntity
8
0
100
AcDbLine
10
143.98720284758045
20
416.548712309488
30
0
11
143.98720284758036
21
413.35703842156113
31
0
0
ARC
5
373
100
AcDbEntity
8
0
100
AcDbCircle
10
142.78512131956558
20
412.15495689354179
30
0
40
1.7000000000000794
100
AcDbArc
50
-134.99999999996345
51
45.000000000108372
0
LINE
5
374
100
AcDbEntity
8
0
100
AcDbLine
10
141.58303979154914
20
410.95287536552382
30
0
11
138.39136590361625
21
410.95287536552394
31
0
0
ARC
5
375
100
AcDbEntity
8
0
100
AcDbCircle
10
137.1892843755997
20
412.15495689354157
30
0
40
1.7000000000000293
100
AcDbArc
50
135.00000000010772
51
314.99999999997425
0
LINE
5
376
100
AcDbEntity
8
0
100
AcDbLine
10
135.98720284758028
20
413.35703842155647
30
0
11
135.98720284758207
21
416.54871230949055
31
0
0
ARC
5
377
100
AcDbEntity
8
0
100
AcDbCircle
10
-86.059555689407205
20
417.75079383750824
30
0
40
1.7000000000000168
100
AcDbArc
50
-44.999999999943768
51
135.00000000005724
0
LINE
5
378
100
AcDbEntity
8
0
100
AcDbLine
10
-84.857474161388865
20
416.54871230949226
30
0
11
-84.857474161388907
21
413.35703842155846
31
0
0
ARC
5
379
100
AcDbEntity
8
0
100
AcDbCircle
10
-86.059555689407219
20
412.15495689354248
30
0
40
1.7000000000000168
100
AcDbArc
50
-134.99999999997192
51
44.99999999994445
0
LINE
5
380
100
AcDbEntity
8
0
100
AcDbLine
10
-87.261637217423782
20
410.95287536552473
30
0
11
-90.45331110535669
21
410.95287536552473
31
0
0
ARC
5
381
100
AcDbEntity
8
0
100
AcDbCircle
10
-91.655392633373197
20
412.15495689354242
30
0
40
1.7000000000000168
100
AcDbArc
50
134.99999999993835
51
314.99999999997192
0
LINE
5
382
100
AcDbEntity
8
0
100
AcDbLine
10
-92.857474161389035
20
413.35703842156084
30
0
11
-92.857474161389007
21
416.54871230948982
31
0
0
ARC
5
383
100
AcDbEntity
8
0
100
AcDbCircle
10
-91.65539263337314
20
417.75079383750824
30
0
40
1.7000000000000546
100
AcDbArc
50
44.999999999968168
51
225.00000000006096
0
LINE
5
384
100
AcDbEntity
8
0
100
AcDbLine
10
-90.453311105355311
20
418.95287536552473
30
0
11
-87.26163721742553
21
418.95287536552416
31
0
0
ARC
5
385
100
AcDbEntity
8
0
100
AcDbCircle
10
16.36278281507871
20
382.22126914457328
30
0
40
1.7000000000000122
100
AcDbArc
50
-45.000000000014907
51
134.99999999998647
0
LINE
5
386
100
AcDbEntity
8
0
100
AcDbLine
10
17.564864343095543
20
381.01918761655583
30
0
11
17.564864343095479
21
375.42335067258983
31
0
0
LINE
5
387
100
AcDbEntity
8
0
100
AcDbLine
10
17.564864343095479
20
375.42335067258983
30
0
11
33.564864343095728
21
375.42335067258978
31
0
0
LINE
5
388
100
AcDbEntity
8
0
100
AcDbLine
10
33.564864343095728
20
375.42335067258978
30
0
11
33.564864343095763
21
381.01918761655674
31
0
0
ARC
5
389
100
AcDbEntity
8
0
100
AcDbCircle
10
34.766945871113599
20
382.22126914457328
30
0
40
1.699999999999976
100
AcDbArc
50
44.999999999971045
51
224.99999999996933
0
LINE
5
390
100
AcDbEntity
8
0
100
AcDbLine
10
35.969027399131306
20
383.42335067258978
30
0
11
147.98720284758025
21
383.42335067258938
31
0
0
LINE
5
391
100
AcDbEntity
8
0
100
AcDbLine
10
147.98720284758025
20
383.42335067258938
30
0
11
147.98720284758059
21
445.95287683602862
31
0
0
LINE
5
392
100
AcDbEntity
8
0
100
AcDbLine
10
147.98720284758059
20
445.95287683602862
30
0
11
116.06486434309718
21
445.95287683602874
31
0
0
LINE
5
393
100
AcDbEntity
8
0
100
AcDbLine
10
116.06486434309718
20
445.95287683602874
30
0
11
116.06486434309713
21
430.95287529303573
31
0
0
LINE
5
394
100
AcDbEntity
8
0
100
AcDbLine
10
116.06486434309713
20
430.95287529303573
30
0
11
126.66070128706315
21
430.95287529303567
31
0
0
ARC
5
395
100
AcDbEntity
8
0
100
AcDbCircle
10
127.86278281508135
20
429.75079376501969
30
0
40
1.7000000000000293
100
AcDbArc
50
-45.000000000054861
51
135.00000000005284
0
LINE
5
396
100
AcDbEntity
8
0
100
AcDbLine
10
129.06486434309736
20
428.54871223700138
30
0
11
129.06486434309733
21
421.35703834907224
31
0
0
ARC
5
397
100
AcDbEntity
8
0
100
AcDbCircle
10
127.86278281508135
20
420.15495682105387
30
0
40
1.700000000000004
100
AcDbArc
50
-134.99999999995157
51
45.0000000000569
0
LINE
5
398
100
AcDbEntity
8
0
100
AcDbLine
10
126.66070128706524
20
418.95287529303573
30
0
11
-75.530972600871593
21
418.95287529303641
31
0
0
ARC
5
399
100
AcDbEntity
8
0
100
AcDbCircle
10
-76.733054128888227
20
420.1549568210541
30
0
40
1.6999999999999855
100
AcDbArc
50
135.00000000002473
51
314.99999999997488
0
LINE
5
400
100
AcDbEntity
8
0
100
AcDbLine
10
-77.935135656905871
20
421.35703834907071
30
0
11
-77.935135656905814
21
428.54871223700331
31
0
0
ARC
5
401
100
AcDbEntity
8
0
100
AcDbCircle
10
-76.733054128888199
20
429.75079376502003
30
0
40
1.6999999999999791
100
AcDbArc
50
44.99999999996782
51
225.00000085374259
0
LINE
5
402
100
AcDbEntity
8
0
100
AcDbLine
10
-75.530972600870413
20
430.95287529303647
30
0
11
-64.935135656905615
21
430.95287529303641
31
0
0
LINE
5
403
100
AcDbEntity
8
0
100
AcDbLine
10
-64.935135656905615
20
430.95287529303641
30
0
11
-64.935135656905544
21
445.95287683602942
31
0
0
LINE
5
404
100
AcDbEntity
8
0
100
AcDbLine
10
-64.935135656905544
20
445.95287683602942
30
0
11
-96.857474161388922
21
445.95287683602965
31
0
0
LINE
5
405
100
AcDbEntity
8
0
100
AcDbLine
10
-96.857474161388922
20
445.95287683602965
30
0
11
-96.85747416138922
21
383.42335067259029
31
0
0
LINE
5
406
100
AcDbEntity
8
0
100
AcDbLine
10
-96.85747416138922
20
383.42335067259029
30
0
11
15.160701287061876
21
383.42335067259069
31
0
0
ARC
5
407
100
AcDbEntity
8
0
100
AcDbCircle
10
130.26738801200855
20
406.02010950990484
30
0
40
1.700000000000004
100
AcDbArc
50
44.999999999949878
51
224.99999999995052
0
LINE
5
408
100
AcDbEntity
8
0
100
AcDbLine
10
131.46946954002675
20
407.22219103792094
30
0
11
134.66114342795623
21
407.22219103792094
31
0
0
ARC
5
409
100
AcDbEntity
8
0
100
AcDbCircle
10
135.86322495597443
20
406.02010950990484
30
0
40
1.7000000000000419
100
AcDbArc
50
-45.000000000057561
51
135.00000000005014
0
LINE
5
410
100
AcDbEntity
8
0
100
AcDbLine
10
137.06530648399038
20
404.81802798188647
30
0
11
137.06530648399033
21
401.62635409395739
31
0
0
ARC
5
411
100
AcDbEntity
8
0
100
AcDbCircle
10
135.86322495597437
20
400.42427256593908
30
0
40
1.700000000000067
100
AcDbArc
50
-134.99999999995126
51
45.000000000056225
0
LINE
5
412
100
AcDbEntity
8
0
100
AcDbLine
10
134.66114342795822
20
399.22219103792088
30
0
11
131.46946954002465
21
399.22219103792088
31
0
0
ARC
5
413
100
AcDbEntity
8
0
100
AcDbCircle
10
130.2673880120085
20
400.42427256593902
30
0
40
1.7000000000000419
100
AcDbArc
50
135.0000000000542
51
314.99999999995259
0
LINE
5
414
100
AcDbEntity
8
0
100
AcDbLine
10
129.06530648399018
20
401.62635409395506
30
0
11
129.06530648399038
21
404.81802798188875
31
0
0
ARC
5
415
100
AcDbEntity
8
0
100
AcDbCircle
10
135.86322495597454
20
435.42427256593925
30
0
40
1.700000000000004
100
AcDbArc
50
-134.99999999994719
51
45.000000000052829
0
LINE
5
416
100
AcDbEntity
8
0
100
AcDbLine
10
134.66114342795851
20
434.22219103792099
30
0
11
131.46946954002468
21
434.22219103792094
31
0
0
ARC
5
417
100
AcDbEntity
8
0
100
AcDbCircle
10
130.26738801200867
20
435.42427256593925
30
0
40
1.7000000000000419
100
AcDbArc
50
135.00000000005352
51
314.99999999994515
0
LINE
5
418
100
AcDbEntity
8
0
100
AcDbLine
10
129.06530648399038
20
436.62635409395529
30
0
11
129.06530648399044
21
439.81802798188909
31
0
0
ARC
5
419
100
AcDbEntity
8
0
100
AcDbCircle
10
130.26738801200875
20
441.02010950990496
30
0
40
1.7000000000000546
100
AcDbArc
50
44.999999999945821
51
224.99999999994174
0
LINE
5
420
100
AcDbEntity
8
0
100
AcDbLine
10
131.46946954002706
20
442.22219103792099
30
0
11
134.66114342795626
21
442.22219103792099
31
0
0
ARC
5
421
100
AcDbEntity
8
0
100
AcDbCircle
10
135.8632249559746
20
441.02010950990507
30
0
40
1.7000000000000293
100
AcDbArc
50
-45.000000000058932
51
135.00000000005758
0
LINE
5
422
100
AcDbEntity
8
0
100
AcDbLine
10
137.06530648399055
20
439.81802798188664
30
0
11
137.06530648399058
21
436.6263540939575
31
0
0
ARC
5
423
100
AcDbEntity
8
0
100
AcDbCircle
10
48.362782815079854
20
404.15495689354225
30
0
40
1.7000000000000419
100
AcDbArc
50
-134.99999999995902
51
45.000000853814051
0
LINE
5
424
100
AcDbEntity
8
0
100
AcDbLine
10
47.160701287063546
20
402.95287536552422
30
0
11
3.9690273991295744
21
402.95287536552439
31
0
0
ARC
5
425
100
AcDbEntity
8
0
100
AcDbCircle
10
2.766945871113053
20
404.15495689354208
30
0
40
1.7000000000000191
100
AcDbArc
50
135.00000000003342
51
314.99999999997226
0
LINE
5
426
100
AcDbEntity
8
0
100
AcDbLine
10
1.564864343095214
20
405.35703842155851
30
0
11
1.5648643430952682
21
408.54871230949152
31
0
0
ARC
5
427
100
AcDbEntity
8
0
100
AcDbCircle
10
2.766945871113121
20
409.75079383750796
30
0
40
1.6999999999999988
100
AcDbArc
50
44.999999999967244
51
224.99999999996621
0
LINE
5
428
100
AcDbEntity
8
0
100
AcDbLine
10
3.9690273991309311
20
410.95287536552439
30
0
11
47.160701287061819
21
410.95287536552428
31
0
0
ARC
5
429
100
AcDbEntity
8
0
100
AcDbCircle
10
48.362782815079825
20
409.75079383750801
30
0
40
1.7000000000000293
100
AcDbArc
50
-45.00000000004453
51
135.0000000000415
0
LINE
5
430
100
AcDbEntity
8
0
100
AcDbLine
10
49.56486434309604
20
408.54871230948993
30
0
11
49.564864343096005
21
405.35703842156033
31
0
0
LWPOLYLINE
5
431
100
AcDbEntity
8
0
100
AcDbPolyline
90
8
70
1
43
0.0
10
-80.339740853832211
20
407.22219103792293
42
-0.99999999999999989
10
-77.935577797798899
20
404.81802798188744
10
-77.935577797798814
20
401.62635409395682
42
-0.99999999999999989
10
-80.339740853832325
20
399.22219103792179
10
-83.531414741763825
20
399.22219103792258
42
-0.99999999999999989
10
-85.93557779779907
20
401.62635409395602
10
-85.935577797799155
20
404.81802798188852
42
-0.99999999999999989
10
-83.531414741763811
20
407.22219103792168
0
ARC
5
432
100
AcDbEntity
8
0
100
AcDbCircle
10
-84.733496269781284
20
441.02010950990541
30
0
40
1.699999999999954
100
AcDbArc
50
44.999999999965794
51
224.99999999996544
0
LINE
5
433
100
AcDbEntity
8
0
100
AcDbLine
10
-83.53141474176347
20
442.22219103792179
30
0
11
-80.339740853833192
21
442.22219103792179
31
0
0
ARC
5
434
100
AcDbEntity
8
0
100
AcDbCircle
10
-79.137659325815392
20
441.0201095099053
30
0
40
1.7000000000000293
100
AcDbArc
50
-45.000000000023363
51
135.00000000003115
0
LINE
5
435
100
AcDbEntity
8
0
100
AcDbLine
10
-77.935577797798743
20
439.81802798188767
30
0
11
-77.935577797798771
21
436.6263540939571
31
0
0
ARC
5
436
100
AcDbEntity
8
0
100
AcDbCircle
10
-79.137659325815434
20
435.42427256593959
30
0
40
1.7000000000000921
100
AcDbArc
50
-134.99999999996817
51
45.000000000020322
0
LINE
5
437
100
AcDbEntity
8
0
100
AcDbLine
10
-80.339740853831955
20
434.22219103792173
30
0
11
-83.531414741764749
21
434.22219103792173
31
0
0
ARC
5
438
100
AcDbEntity
8
0
100
AcDbCircle
10
-84.733496269781313
20
435.42427256593953
30
0
40
1.700000000000004
100
AcDbArc
50
135.00000000002237
51
314.9999999999705
0
LINE
5
439
100
AcDbEntity
8
0
100
AcDbLine
10
-85.935577797798913
20
436.62635409395619
30
0
11
-85.935577797799112
21
439.81802798188903
31
0
0
ARC
5
440
100
AcDbEntity
8
0
100
AcDbCircle
10
125.36621418164692
20
326.36256967328444
30
0
40
1.6999999999999791
100
AcDbArc
50
44.999999999973916
51
224.99999914620085
0
LINE
5
441
100
AcDbEntity
8
0
100
AcDbLine
10
126.56829570966457
20
327.56465120130099
30
0
11
129.75996959759496
21
327.56465120130093
31
0
0
ARC
5
442
100
AcDbEntity
8
0
100
AcDbCircle
10
130.96205112561276
20
326.3625696732845
30
0
40
1.6999999999999664
100
AcDbArc
50
-45.000000000111747
51
135.00000000003251
0
LINE
5
443
100
AcDbEntity
8
0
100
AcDbLine
10
132.16413265362752
20
325.16048814526505
30
0
11
132.16413265362752
21
321.96881425733818
31
0
0
ARC
5
444
100
AcDbEntity
8
0
100
AcDbCircle
10
130.96205112561276
20
320.76673272931879
30
0
40
1.700000000000004
100
AcDbArc
50
-134.99999999996615
51
45.000000000110404
0
LINE
5
445
100
AcDbEntity
8
0
100
AcDbLine
10
129.75996959759632
20
319.56465120130093
30
0
11
126.56829570966346
21
319.56465120130093
31
0
0
ARC
5
446
100
AcDbEntity
8
0
100
AcDbCircle
10
125.36621418164692
20
320.76673272931873
30
0
40
1.6999999999999664
100
AcDbArc
50
135.00000000011008
51
314.99999999996987
0
LINE
5
447
100
AcDbEntity
8
0
100
AcDbLine
10
124.16413265362752
20
321.96881425733352
30
0
11
124.16413265362752
21
325.16048814526954
31
0
0
ARC
5
448
100
AcDbEntity
8
0
100
AcDbCircle
10
-97.882625883357463
20
326.36256967328501
30
0
40
1.699999999999954
100
AcDbArc
50
-44.999999999941728
51
135.00000000005826
0
LINE
5
449
100
AcDbEntity
8
0
100
AcDbLine
10
-96.680544355339151
20
325.16048814526914
30
0
11
-96.680544355339151
21
321.96881425733528
31
0
0
ARC
5
450
100
AcDbEntity
8
0
100
AcDbCircle
10
-97.882625883357491
20
320.76673272931936
30
0
40
1.7000000000000168
100
AcDbArc
50
-134.99999999996885
51
44.999999999942425
0
LINE
5
451
100
AcDbEntity
8
0
100
AcDbLine
10
-99.084707411373984
20
319.56465120130156
30
0
11
-102.27638129930689
21
319.56465120130156
31
0
0
ARC
5
452
100
AcDbEntity
8
0
100
AcDbCircle
10
-103.4784628273234
20
320.76673272931936
30
0
40
1.6999999999999664
100
AcDbArc
50
134.9999999999367
51
314.99999999996913
0
LINE
5
453
100
AcDbEntity
8
0
100
AcDbLine
10
-104.68054435533917
20
321.96881425733778
30
0
11
-104.68054435533918
21
325.1604881452667
31
0
0
ARC
5
454
100
AcDbEntity
8
0
100
AcDbCircle
10
-103.47846282732331
20
326.36256967328507
30
0
40
1.7000000000000419
100
AcDbArc
50
44.999999999972907
51
225.0000000000596
0
LINE
5
455
100
AcDbEntity
8
0
100
AcDbLine
10
-102.27638129930557
20
327.56465120130167
30
0
11
-99.084707411375774
21
327.56465120130088
31
0
0
ARC
5
456
100
AcDbEntity
8
0
100
AcDbCircle
10
4.5397126211273715
20
290.83304498035011
30
0
40
1.7000000000000011
100
AcDbArc
50
-45.00000000001608
51
134.99999999998255
0
LINE
5
457
100
AcDbEntity
8
0
100
AcDbLine
10
5.7417941491441553
20
289.63096345233265
30
0
11
5.7417941491441322
21
284.03512650836672
31
0
0
LINE
5
458
100
AcDbEntity
8
0
100
AcDbLine
10
5.7417941491441322
20
284.03512650836672
30
0
11
21.741794149144198
21
284.03512650836666
31
0
0
LINE
5
459
100
AcDbEntity
8
0
100
AcDbLine
10
21.741794149144198
20
284.03512650836666
30
0
11
21.741794149144212
21
289.63096345233367
31
0
0
ARC
5
460
100
AcDbEntity
8
0
100
AcDbCircle
10
22.943875677162055
20
290.83304498035011
30
0
40
1.7000000000000104
100
AcDbArc
50
44.99999999997511
51
224.99999999996646
0
LINE
5
461
100
AcDbEntity
8
0
100
AcDbLine
10
24.145957205179705
20
292.03512650836672
30
0
11
136.16413265362746
21
292.03512650836637
31
0
0
LINE
5
462
100
AcDbEntity
8
0
100
AcDbLine
10
136.16413265362746
20
292.03512650836637
30
0
11
136.16413265362763
21
354.56465267180579
31
0
0
LINE
5
463
100
AcDbEntity
8
0
100
AcDbLine
10
136.16413265362763
20
354.56465267180579
30
0
11
104.24179414914461
21
354.56465267180585
31
0
0
LINE
5
464
100
AcDbEntity
8
0
100
AcDbLine
10
104.24179414914461
20
354.56465267180585
30
0
11
104.24179414914455
21
339.56465112881278
31
0
0
LINE
5
465
100
AcDbEntity
8
0
100
AcDbLine
10
104.24179414914455
20
339.56465112881278
30
0
11
114.83763109311045
21
339.56465112881278
31
0
0
ARC
5
466
100
AcDbEntity
8
0
100
AcDbCircle
10
116.03971262112867
20
338.36256960079675
30
0
40
1.7000000000000293
100
AcDbArc
50
-45.000000000057909
51
135.00000000005215
0
LINE
5
467
100
AcDbEntity
8
0
100
AcDbLine
10
117.24179414914461
20
337.16048807277838
30
0
11
117.24179414914465
21
329.96881418484924
31
0
0
ARC
5
468
100
AcDbEntity
8
0
100
AcDbCircle
10
116.03971262112866
20
328.76673265683087
30
0
40
1.6999999999999915
100
AcDbArc
50
-134.99999999995126
51
45.000000000056552
0
LINE
5
469
100
AcDbEntity
8
0
100
AcDbLine
10
114.83763109311256
20
327.56465112881273
30
0
11
-87.354042794822035
21
327.5646511288133
31
0
0
ARC
5
470
100
AcDbEntity
8
0
100
AcDbCircle
10
-88.556124322838627
20
328.76673265683087
30
0
40
1.6999999999999915
100
AcDbArc
50
135.00000000002203
51
314.99999999997664
0
LINE
5
471
100
AcDbEntity
8
0
100
AcDbLine
10
-89.758205850856214
20
329.96881418484753
30
0
11
-89.7582058508562
21
337.16048807278014
31
0
0
ARC
5
472
100
AcDbEntity
8
0
100
AcDbCircle
10
-88.556124322838556
20
338.3625696007968
30
0
40
1.7000000000000293
100
AcDbArc
50
44.999999999973596
51
224.99999999997661
0
LINE
5
473
100
AcDbEntity
8
0
100
AcDbLine
10
-87.354042794820842
20
339.56465112881341
30
0
11
-76.758205850856129
21
339.56465112881335
31
0
0
LINE
5
474
100
AcDbEntity
8
0
100
AcDbLine
10
-76.758205850856129
20
339.56465112881335
30
0
11
-76.758205850856086
21
354.56465267180641
31
0
0
LINE
5
475
100
AcDbEntity
8
0
100
AcDbLine
10
-76.758205850856086
20
354.56465267180641
30
0
11
-108.68054435533909
21
354.56465267180647
31
0
0
LINE
5
476
100
AcDbEntity
8
0
100
AcDbLine
10
-108.68054435533909
20
354.56465267180647
30
0
11
-108.68054435533928
21
292.03512650836706
31
0
0
LINE
5
477
100
AcDbEntity
8
0
100
AcDbLine
10
-108.68054435533928
20
292.03512650836706
30
0
11
3.337631093110589
21
292.03512650836763
31
0
0
LWPOLYLINE
5
478
100
AcDbEntity
8
0
100
AcDbPolyline
90
8
70
1
43
0.0
10
117.24223629003777
20
313.42980381766569
42
-0.99999999999999989
10
119.64639934607405
20
315.83396687369793
10
122.83807323400579
20
315.83396687370021
42
-0.99999999999999989
10
125.24223629003755
20
313.42980381766347
10
125.24223629003778
20
310.23812992973421
42
-0.99999999999999989
10
122.83807323400552
20
307.83396687369793
10
119.64639934607416
20
307.83396687370009
42
-0.99999999999999989
10
117.24223629003757
20
310.238129929732
0
ARC
5
479
100
AcDbEntity
8
0
100
AcDbCircle
10
124.04015476202176
20
344.0360484017163
30
0
40
1.6999999999999917
100
AcDbArc
50
-134.99999999994819
51
45.00000000005317
0
LINE
5
480
100
AcDbEntity
8
0
100
AcDbLine
10
122.83807323400573
20
342.8339668736981
30
0
11
119.6463993460719
21
342.83396687369805
31
0
0
ARC
5
481
100
AcDbEntity
8
0
100
AcDbCircle
10
118.44431781805596
20
344.03604840171636
30
0
40
1.6999999999999664
100
AcDbArc
50
135.0000000000542
51
314.99999999994344
0
LINE
5
482
100
AcDbEntity
8
0
100
AcDbLine
10
117.24223629003771
20
345.23812992973234
30
0
11
117.24223629003771
21
348.4298038176662
31
0
0
ARC
5
483
100
AcDbEntity
8
0
100
AcDbCircle
10
118.44431781805599
20
349.63188534568212
30
0
40
1.6999999999999917
100
AcDbArc
50
44.999999999943107
51
224.99999999994375
0
LINE
5
484
100
AcDbEntity
8
0
100
AcDbLine
10
119.6463993460743
20
350.83396687369805
30
0
11
122.83807323400345
21
350.83396687369805
31
0
0
ARC
5
485
100
AcDbEntity
8
0
100
AcDbCircle
10
124.04015476202174
20
349.63188534568212
30
0
40
1.7000000000000168
100
AcDbArc
50
-45.00000000005857
51
135.00000000005656
0
LINE
5
486
100
AcDbEntity
8
0
100
AcDbLine
10
125.24223629003765
20
348.42980381766375
30
0
11
125.24223629003778
21
345.23812992973455
31
0
0
LWPOLYLINE
5
487
100
AcDbEntity
8
0
100
AcDbPolyline
90
8
70
1
43
0.0
10
37.74179414914444
20
313.96881425733704
42
-0.99999999999999989
10
35.33763109311181
20
311.56465120130122
10
-7.8540427948203728
20
311.56465120130264
42
-0.99999999999999989
10
-10.258205850855974
20
313.96881425733557
10
-10.258205850855916
20
317.1604881452684
42
-0.99999999999999989
10
-7.8540427948203417
20
319.56465120130139
10
35.337631093111931
20
319.56465120130309
42
-0.99999999999999989
10
37.741794149144255
20
317.16048814526681
0
ARC
5
488
100
AcDbEntity
8
0
100
AcDbCircle
10
-90.960729519765835
20
314.63188534568195
30
0
40
1.6999999999999791
100
AcDbArc
50
-45.000000000024372
51
134.99999999997729
0
LINE
5
489
100
AcDbEntity
8
0
100
AcDbLine
10
-89.758647991749228
20
313.42980381766432
30
0
11
-89.758647991749228
21
310.2381299297337
31
0
0
ARC
5
490
100
AcDbEntity
8
0
100
AcDbCircle
10
-90.960729519765891
20
309.03604840171613
30
0
40
1.6999999999999915
100
AcDbArc
50
-134.99999999997698
51
45.000000000021679
0
LINE
5
491
100
AcDbEntity
8
0
100
AcDbLine
10
-92.162811047782554
20
307.8339668736985
30
0
11
-95.354484935714993
21
307.83396687369856
31
0
0
ARC
5
492
100
AcDbEntity
8
0
100
AcDbCircle
10
-96.556566463731684
20
309.03604840171613
30
0
40
1.7000000000000419
100
AcDbArc
50
135.00000000002066
51
314.99999999997897
0
LINE
5
493
100
AcDbEntity
8
0
100
AcDbLine
10
-97.758647991749271
20
310.23812992973285
30
0
11
-97.758647991749271
21
313.42980381766517
31
0
0
ARC
5
494
100
AcDbEntity
8
0
100
AcDbCircle
10
-96.55656646373167
20
314.63188534568184
30
0
40
1.7000000000000419
100
AcDbArc
50
44.99999999997867
51
224.99999999997763
0
LINE
5
495
100
AcDbEntity
8
0
100
AcDbLine
10
-95.354484935714055
20
315.83396687369856
30
0
11
-92.162811047782455
21
315.83396687369952
31
0
0
ARC
5
496
100
AcDbEntity
8
0
100
AcDbCircle
10
-96.556566463731599
20
349.63188534568224
30
0
40
1.6999999999999413
100
AcDbArc
50
44.999999999966128
51
224.99999999996612
0
LINE
5
497
100
AcDbEntity
8
0
100
AcDbLine
10
-95.354484935713799
20
350.83396687369861
30
0
11
-92.162811047783549
21
350.83396687369873
31
0
0
ARC
5
498
100
AcDbEntity
8
0
100
AcDbCircle
10
-90.960729519765778
20
349.63188534568212
30
0
40
1.699999999999954
100
AcDbArc
50
-45.000000000024073
51
135.0000008537514
0
LINE
5
499
100
AcDbEntity
8
0
100
AcDbLine
10
-89.758647991749157
20
348.42980381766449
30
0
11
-89.758647991749143
21
345.23812992973399
31
0
0
ARC
5
500
100
AcDbEntity
8
0
100
AcDbCircle
10
-90.960729519765806
20
344.03604840171636
30
0
40
1.700000000000004
100
AcDbArc
50
-134.99999999996953
51
45.000000000023036
0
LINE
5
501
100
AcDbEntity
8
0
100
AcDbLine
10
-92.16281104778227
20
342.83396687369861
30
0
11
-95.35448493571505
21
342.83396687369867
31
0
0
ARC
5
502
100
AcDbEntity
8
0
100
AcDbCircle
10
-96.556566463731599
20
344.03604840171636
30
0
40
1.7000000000000293
100
AcDbArc
50
135.00000000001899
51
314.99999999997289
0
LINE
5
503
100
AcDbEntity
8
0
100
AcDbLine
10
-97.758647991749172
20
345.23812992973313
30
0
11
-97.758647991749399
21
348.42980381766586
31
0
0
CIRCLE
5
504
100
AcDbEntity
8
0
100
AcDbCircle
10
83.379923804274512
20
197.26810653490935
30
0
40
3.0000000000000098
0
CIRCLE
5
505
100
AcDbEntity
8
0
100
AcDbCircle
10
83.379923804274512
20
221.26810653490946
30
0
40
4.5000000000000195
0
ARC
5
506
100
AcDbEntity
8
0
100
AcDbCircle
10
67.079037694471367
20
188.4701881354155
30
0
40
1.6999999999999729
100
AcDbArc
50
-134.99999999996547
51
45.000000000034206
0
LINE
5
507
100
AcDbEntity
8
0
100
AcDbLine
10
65.876956166454988
20
187.26810660739767
30
0
11
59.685282278521939
21
187.26810660739767
31
0
0
ARC
5
508
100
AcDbEntity
8
0
100
AcDbCircle
10
58.483200750505574
20
188.4701881354155
30
0
40
1.7000000000000233
100
AcDbArc
50
135.00000000000136
51
314.99999999996515
0
LINE
5
509
100
AcDbEntity
8
0
100
AcDbLine
10
57.2811192224884
20
189.67226966343262
30
0
11
57.2811192224884
21
192.86394347887583
31
0
0
ARC
5
510
100
AcDbEntity
8
0
100
AcDbCircle
10
58.483200750505588
20
194.06602500689289
30
0
40
1.7000000000000233
100
AcDbArc
50
44.999999999968672
51
224.99999999999696
0
LINE
5
511
100
AcDbEntity
8
0
100
AcDbLine
10
59.685282278523395
20
195.26810653490938
30
0
11
65.876956166453539
21
195.26810653490938
31
0
0
ARC
5
512
100
AcDbEntity
8
0
100
AcDbCircle
10
67.07903769447141
20
194.06602500689297
30
0
40
1.700000000000004
100
AcDbArc
50
-45.00000000000712
51
135.00000000003487
0
LINE
5
513
100
AcDbEntity
8
0
100
AcDbLine
10
68.2811192224884
20
192.86394347887568
30
0
11
68.28111922248776
21
189.67226966343333
31
0
0
ARC
5
514
100
AcDbEntity
8
0
100
AcDbCircle
10
-30.516799249494699
20
188.47018813541558
30
0
40
1.6999999999999948
100
AcDbArc
50
134.99999999999653
51
314.99999999996453
0
LINE
5
515
100
AcDbEntity
8
0
100
AcDbLine
10
-31.718880777511757
20
189.67226966343279
30
0
11
-31.718880777511764
21
192.86394347887577
31
0
0
ARC
5
516
100
AcDbEntity
8
0
100
AcDbCircle
10
-30.516799249494735
20
194.066025006893
30
0
40
1.700000000000004
100
AcDbArc
50
44.999999999965532
51
225.0000000000048
0
LINE
5
517
100
AcDbEntity
8
0
100
AcDbLine
10
-29.314717721476882
20
195.26810653490941
30
0
11
-23.123043833546735
21
195.26810653490941
31
0
0
ARC
5
518
100
AcDbEntity
8
0
100
AcDbCircle
10
-21.92096230552891
20
194.06602500689297
30
0
40
1.7000000000000011
100
AcDbArc
50
-44.999999999998629
51
135.00000000003311
0
LINE
5
519
100
AcDbEntity
8
0
100
AcDbLine
10
-20.718880777511735
20
192.86394347887585
30
0
11
-20.718880777511728
21
189.67226966343264
31
0
0
ARC
5
520
100
AcDbEntity
8
0
100
AcDbCircle
10
-21.920962305528917
20
188.47018813541555
30
0
40
1.700000000000004
100
AcDbArc
50
-134.99999999996371
51
44.999999999997634
0
LINE
5
521
100
AcDbEntity
8
0
100
AcDbLine
10
-23.123043833545278
20
187.26810660739767
30
0
11
-29.314717721478331
21
187.26810660739773
31
0
0
CIRCLE
5
522
100
AcDbEntity
8
0
100
AcDbCircle
10
-46.817685359297833
20
221.26810653490952
30
0
40
4.5000000000000195
0
CIRCLE
5
523
100
AcDbEntity
8
0
100
AcDbCircle
10
-46.81768535929784
20
197.26810653490944
30
0
40
3.0000000000000098
0
ARC
5
524
100
AcDbEntity
8
0
100
AcDbCircle
10
27.483200750505262
20
166.53634082426549
30
0
40
1.700000000000004
100
AcDbArc
50
45.000000000012868
51
225.00000000001302
0
LINE
5
525
100
AcDbEntity
8
0
100
AcDbLine
10
28.685282278522124
20
167.7384223522829
30
0
11
98.47872838606051
21
167.73842235228284
31
0
0
LINE
5
526
100
AcDbEntity
8
0
100
AcDbLine
10
98.47872838606051
20
167.73842235228284
30
0
11
98.47872838606051
21
181.13325922376129
31
0
0
ARC
5
527
100
AcDbEntity
8
0
100
AcDbCircle
10
99.680809914077827
20
182.33534075177826
30
0
40
1.700000000000004
100
AcDbArc
50
44.999999999962405
51
224.99999999999184
0
LINE
5
528
100
AcDbEntity
8
0
100
AcDbLine
10
100.88289144209575
20
183.53742227979461
30
0
11
105.47872825865917
21
183.53742227979461
31
0
0
ARC
5
529
100
AcDbEntity
8
0
100
AcDbCircle
10
105.4787282586592
20
184.53742227979458
30
0
40
0.99999999999997868
100
AcDbArc
50
-90.000000000001634
51
0
0
LINE
5
530
100
AcDbEntity
8
0
100
AcDbLine
10
106.47872825865917
20
184.53742227979461
30
0
11
106.47872825865916
21
190.53742227979461
31
0
0
ARC
5
531
100
AcDbEntity
8
0
100
AcDbCircle
10
105.4787282586592
20
190.53742227979467
30
0
40
0.99999999999996092
100
AcDbArc
50
0
51
90.000000000002444
0
LINE
5
532
100
AcDbEntity
8
0
100
AcDbLine
10
105.47872825865916
20
191.53742227979464
30
0
11
100.88289144209421
21
191.53742227979464
31
0
0
ARC
5
533
100
AcDbEntity
8
0
100
AcDbCircle
10
99.680809914077827
20
192.73950380781253
30
0
40
1.6999999999999915
100
AcDbArc
50
135.00000000000847
51
314.99999999996413
0
LINE
5
534
100
AcDbEntity
8
0
100
AcDbLine
10
98.478728386060524
20
193.94158533582947
30
0
11
98.478728386060524
21
216.13325922376131
31
0
0
ARC
5
535
100
AcDbEntity
8
0
100
AcDbCircle
10
99.680809914077827
20
217.33534075177829
30
0
40
1.6999999999999664
100
AcDbArc
50
44.999999999966818
51
224.99999999999221
0
LINE
5
536
100
AcDbEntity
8
0
100
AcDbLine
10
100.88289144209563
20
218.5374222797947
30
0
11
105.47872825865917
21
218.53742227979473
31
0
0
ARC
5
537
100
AcDbEntity
8
0
100
AcDbCircle
10
105.4787282586592
20
219.53742227979473
30
0
40
0.99999999999997868
100
AcDbArc
50
-90.000000000001634
51
0
0
LINE
5
538
100
AcDbEntity
8
0
100
AcDbLine
10
106.47872825865917
20
219.53742227979475
30
0
11
106.47872825865917
21
225.53742227979481
31
0
0
ARC
5
539
100
AcDbEntity
8
0
100
AcDbCircle
10
105.47872825865923
20
225.53742227979481
30
0
40
0.99999999999994316
100
AcDbArc
50
0
51
90.000000000001634
0
LINE
5
540
100
AcDbEntity
8
0
100
AcDbLine
10
105.4787282586592
20
226.53742227979478
30
0
11
100.88289144209438
21
226.53742227979478
31
0
0
ARC
5
541
100
AcDbEntity
8
0
100
AcDbCircle
10
99.680809914077855
20
227.73950380781253
30
0
40
1.6999999999999915
100
AcDbArc
50
135.00000000000881
51
314.99999914623402
0
LINE
5
542
100
AcDbEntity
8
0
100
AcDbLine
10
98.478728386060538
20
228.94158533582947
30
0
11
98.478728386060538
21
230.53742227979481
31
0
0
LINE
5
543
100
AcDbEntity
8
0
100
AcDbLine
10
98.478728386060538
20
230.53742227979481
30
0
11
-61.916489941083896
21
230.53742227979487
31
0
0
LINE
5
544
100
AcDbEntity
8
0
100
AcDbLine
10
-61.916489941083896
20
230.53742227979487
30
0
11
-61.916489941083846
21
228.94158533582956
31
0
0
ARC
5
545
100
AcDbEntity
8
0
100
AcDbCircle
10
-63.118571469101148
20
227.73950380781258
30
0
40
1.700000000000004
100
AcDbArc
50
-134.99999999997141
51
44.999999999992212
0
LINE
5
546
100
AcDbEntity
8
0
100
AcDbLine
10
-64.320652997117691
20
226.53742227979484
30
0
11
-68.916489813682517
21
226.53742227979484
31
0
0
ARC
5
547
100
AcDbEntity
8
0
100
AcDbCircle
10
-68.916489813682503
20
225.53742227979484
30
0
40
1.0000000000000142
100
AcDbArc
50
90.00000000000081
51
180
0
LINE
5
548
100
AcDbEntity
8
0
100
AcDbLine
10
-69.916489813682517
20
225.53742227979484
30
0
11
-69.916489813682489
21
219.53742227979484
31
0
0
ARC
5
549
100
AcDbEntity
8
0
100
AcDbCircle
10
-68.916489813682503
20
219.53742227979484
30
0
40
0.99999999999998757
100
AcDbArc
50
180
51
270
0
LINE
5
550
100
AcDbEntity
8
0
100
AcDbLine
10
-68.916489813682503
20
218.53742227979481
30
0
11
-64.320652997118941
21
218.53742227979481
31
0
0
ARC
5
551
100
AcDbEntity
8
0
100
AcDbCircle
10
-63.118571469101155
20
217.33534075177832
30
0
40
1.6999999999999915
100
AcDbArc
50
-44.999999999991552
51
135.00000000003084
0
LINE
5
552
100
AcDbEntity
8
0
100
AcDbLine
10
-61.916489941083853
20
216.13325922376137
30
0
11
-61.916489941083867
21
193.94158533582956
31
0
0
ARC
5
553
100
AcDbEntity
8
0
100
AcDbCircle
10
-63.11857146910117
20
192.73950380781258
30
0
40
1.6999999999999915
100
AcDbArc
50
-134.99999999996479
51
44.999999999992212
0
LINE
5
554
100
AcDbEntity
8
0
100
AcDbLine
10
-64.320652997117548
20
191.53742227979473
30
0
11
-68.916489813682517
21
191.53742227979473
31
0
0
ARC
5
555
100
AcDbEntity
8
0
100
AcDbCircle
10
-68.916489813682503
20
190.5374222797947
30
0
40
1.0000000000000142
100
AcDbArc
50
90.00000000000081
51
180
0
LINE
5
556
100
AcDbEntity
8
0
100
AcDbLine
10
-69.916489813682517
20
190.5374222797947
30
0
11
-69.916489813682503
21
184.53742227979467
31
0
0
ARC
5
557
100
AcDbEntity
8
0
100
AcDbCircle
10
-68.916489813682531
20
184.53742227979467
30
0
40
0.9999999999999698
100
AcDbArc
50
180
51
270
0
LINE
5
558
100
AcDbEntity
8
0
100
AcDbLine
10
-68.916489813682531
20
183.53742227979467
30
0
11
-64.320652997119097
21
183.53742227979467
31
0
0
ARC
5
559
100
AcDbEntity
8
0
100
AcDbCircle
10
-63.118571469101177
20
182.33534075177832
30
0
40
1.6999999999999915
100
AcDbArc
50
-44.999999999991552
51
135.00000000003743
0
LINE
5
560
100
AcDbEntity
8
0
100
AcDbLine
10
-61.916489941083874
20
181.13325922376137
30
0
11
-61.916489941083881
21
167.73842235228295
31
0
0
LINE
5
561
100
AcDbEntity
8
0
100
AcDbLine
10
-61.916489941083881
20
167.73842235228295
30
0
11
7.8769561664542298
21
167.7384223522829
31
0
0
ARC
5
562
100
AcDbEntity
8
0
100
AcDbCircle
10
9.079037694471106
20
166.53634082426549
30
0
40
1.7000000000000073
100
AcDbArc
50
-44.999999999996234
51
134.99999999998747
0
LINE
5
563
100
AcDbEntity
8
0
100
AcDbLine
10
10.281119222488325
20
165.33425929624843
30
0
11
10.281119222488327
21
159.73842235228284
31
0
0
LINE
5
564
100
AcDbEntity
8
0
100
AcDbLine
10
10.281119222488327
20
159.73842235228284
30
0
11
26.28111922248835
21
159.73842235228287
31
0
0
LINE
5
565
100
AcDbEntity
8
0
100
AcDbLine
10
26.28111922248835
20
159.73842235228287
30
0
11
26.281119222488407
21
165.33425929624809
31
0
0
CIRCLE
5
566
100
AcDbEntity
8
0
100
AcDbCircle
10
85.210203318853672
20
102.53403845385523
30
0
40
2.9999999999999853
0
CIRCLE
5
567
100
AcDbEntity
8
0
100
AcDbCircle
10
85.210203318853686
20
126.53403845385513
30
0
40
4.4999999999999831
0
ARC
5
568
100
AcDbEntity
8
0
100
AcDbCircle
10
68.90931720905067
20
93.736120054361464
30
0
40
1.6999999999999855
100
AcDbArc
50
-134.99999999996345
51
45.00000000003692
0
LINE
5
569
100
AcDbEntity
8
0
100
AcDbLine
10
67.707235681034319
20
92.534038526343579
30
0
11
61.515561793101334
21
92.534038526343579
31
0
0
ARC
5
570
100
AcDbEntity
8
0
100
AcDbCircle
10
60.313480265084969
20
93.736120054361464
30
0
40
1.699999999999998
100
AcDbArc
50
135.00000000000188
51
314.99999999996373
0
LINE
5
571
100
AcDbEntity
8
0
100
AcDbLine
10
59.111398737067802
20
94.938201582378554
30
0
11
59.111398737067802
21
98.129875397821735
31
0
0
ARC
5
572
100
AcDbEntity
8
0
100
AcDbCircle
10
60.313480265084976
20
99.33195692583881
30
0
40
1.6999999999999855
100
AcDbArc
50
44.999999999967152
51
224.99999999999764
0
LINE
5
573
100
AcDbEntity
8
0
100
AcDbLine
10
61.51556179310279
20
100.53403845385525
30
0
11
67.70723568103287
21
100.53403845385525
31
0
0
ARC
5
574
100
AcDbEntity
8
0
100
AcDbCircle
10
68.909317209050712
20
99.331956925838853
30
0
40
1.699999999999998
100
AcDbArc
50
-45.000000000005748
51
135.00000000003456
0
LINE
5
575
100
AcDbEntity
8
0
100
AcDbLine
10
70.111398737067731
20
98.129875397821593
30
0
11
70.11139873706702
21
94.938201582379364
31
0
0
LWPOLYLINE
5
576
100
AcDbEntity
8
0
100
AcDbPolyline
90
8
70
1
43
0.0
10
-27.484438206897416
20
92.53403852634429
42
-0.99999999999999989
10
-29.888601262931505
20
94.938201582378682
10
-29.88860126293234
20
98.129875397822474
42
-0.99999999999999989
10
-27.484438206896641
20
100.53403845385526
10
-21.292764318965919
20
100.5340384538559
42
-0.99999999999999989
10
-18.888601262931587
20
98.129875397821763
10
-18.888601262932401
20
94.938201582379378
42
-0.99999999999999989
10
-21.292764318965112
20
92.534038526343608
0
CIRCLE
5
577
100
AcDbEntity
8
0
100
AcDbCircle
10
-44.987405844717415
20
126.53403845385515
30
0
40
4.4999999999999831
0
CIRCLE
5
578
100
AcDbEntity
8
0
100
AcDbCircle
10
-44.987405844717443
20
102.53403845385526
30
0
40
2.9999999999999853
0
ARC
5
579
100
AcDbEntity
8
0
100
AcDbCircle
10
29.313480265084941
20
71.80227274321156
30
0
40
1.699999999999998
100
AcDbArc
50
45.000000000013713
51
225.0000000000137
0
LINE
5
580
100
AcDbEntity
8
0
100
AcDbLine
10
30.515561793101782
20
73.004354271228976
30
0
11
100.30900790063951
21
73.004354271228948
31
0
0
LINE
5
581
100
AcDbEntity
8
0
100
AcDbLine
10
100.30900790063951
20
73.004354271228948
30
0
11
100.30900790063953
21
86.399191142707309
31
0
0
ARC
5
582
100
AcDbEntity
8
0
100
AcDbCircle
10
101.51108942865683
20
87.601272670724256
30
0
40
1.6999999999999917
100
AcDbArc
50
44.99999999996173
51
224.99999999999153
0
LINE
5
583
100
AcDbEntity
8
0
100
AcDbLine
10
102.71317095667476
20
88.803354198740578
30
0
11
107.30900777323812
21
88.803354198740578
31
0
0
ARC
5
584
100
AcDbEntity
8
0
100
AcDbCircle
10
107.30900777323812
20
89.803354198740593
30
0
40
1.0000000000000142
100
AcDbArc
50
-90
51
0
0
LINE
5
585
100
AcDbEntity
8
0
100
AcDbLine
10
108.30900777323812
20
89.803354198740593
30
0
11
108.30900777323811
21
95.80335419874055
31
0
0
ARC
5
586
100
AcDbEntity
8
0
100
AcDbCircle
10
107.30900777323812
20
95.80335419874055
30
0
40
0.99999999999997868
100
AcDbArc
50
0
51
90
0
LINE
5
587
100
AcDbEntity
8
0
100
AcDbLine
10
107.30900777323812
20
96.80335419874055
30
0
11
102.71317095667321
21
96.80335419874055
31
0
0
ARC
5
588
100
AcDbEntity
8
0
100
AcDbCircle
10
101.51108942865687
20
98.005435726758421
30
0
40
1.6999999999999915
100
AcDbArc
50
135.00000000000881
51
314.9999991462347
0
LINE
5
589
100
AcDbEntity
8
0
100
AcDbLine
10
100.30900790063956
20
99.207517254775368
30
0
11
100.30900790063956
21
121.399191142707
31
0
0
ARC
5
590
100
AcDbEntity
8
0
100
AcDbCircle
10
101.51108942865687
20
122.60127267072393
30
0
40
1.700000000000004
100
AcDbArc
50
44.999999999969525
51
224.99999999999085
0
LINE
5
591
100
AcDbEntity
8
0
100
AcDbLine
10
102.71317095667465
20
123.80335419874042
30
0
11
107.30900777323814
21
123.80335419874044
31
0
0
ARC
5
592
100
AcDbEntity
8
0
100
AcDbCircle
10
107.30900777323816
20
124.80335419874039
30
0
40
0.99999999999996092
100
AcDbArc
50
-90.000000000001634
51
0
0
LINE
5
593
100
AcDbEntity
8
0
100
AcDbLine
10
108.30900777323814
20
124.80335419874041
30
0
11
108.30900777323814
21
130.80335419874041
31
0
0
ARC
5
594
100
AcDbEntity
8
0
100
AcDbCircle
10
107.30900777323818
20
130.80335419874041
30
0
40
0.99999999999996092
100
AcDbArc
50
0
51
90
0
LINE
5
595
100
AcDbEntity
8
0
100
AcDbLine
10
107.30900777323818
20
131.80335419874041
30
0
11
102.71317095667339
21
131.80335419874041
31
0
0
ARC
5
596
100
AcDbEntity
8
0
100
AcDbCircle
10
101.51108942865689
20
133.00543572675815
30
0
40
1.6999999999999915
100
AcDbArc
50
135.00000000000847
51
314.9999991462347
0
LINE
5
597
100
AcDbEntity
8
0
100
AcDbLine
10
100.30900790063959
20
134.2075172547751
30
0
11
100.3090079006396
21
135.80335419874041
31
0
0
LINE
5
598
100
AcDbEntity
8
0
100
AcDbLine
10
100.3090079006396
20
135.80335419874041
30
0
11
-60.086210426503328
21
135.80335419874044
31
0
0
LINE
5
599
100
AcDbEntity
8
0
100
AcDbLine
10
-60.086210426503328
20
135.80335419874044
30
0
11
-60.086210426503285
21
134.20751725477513
31
0
0
ARC
5
600
100
AcDbEntity
8
0
100
AcDbCircle
10
-61.288291954520574
20
133.00543572675818
30
0
40
1.6999999999999855
100
AcDbArc
50
-134.99999999997073
51
44.999999999991878
0
LINE
5
601
100
AcDbEntity
8
0
100
AcDbLine
10
-62.490373482537088
20
131.80335419874044
30
0
11
-67.086210299101879
21
131.80335419874044
31
0
0
ARC
5
602
100
AcDbEntity
8
0
100
AcDbCircle
10
-67.086210299101893
20
130.80335419874044
30
0
40
0.99999999999999645
100
AcDbArc
50
89.99999999999919
51
180
0
LINE
5
603
100
AcDbEntity
8
0
100
AcDbLine
10
-68.086210299101879
20
130.80335419874044
30
0
11
-68.086210299101865
21
124.80335419874046
31
0
0
ARC
5
604
100
AcDbEntity
8
0
100
AcDbCircle
10
-67.086210299101879
20
124.80335419874045
30
0
40
0.99999999999999645
100
AcDbArc
50
180
51
270
0
LINE
5
605
100
AcDbEntity
8
0
100
AcDbLine
10
-67.086210299101879
20
123.80335419874045
30
0
11
-62.490373482538359
21
123.80335419874046
31
0
0
ARC
5
606
100
AcDbEntity
8
0
100
AcDbCircle
10
-61.288291954520595
20
122.60127267072399
30
0
40
1.6999999999999855
100
AcDbArc
50
-44.999999999991708
51
135.00000000003067
0
LINE
5
607
100
AcDbEntity
8
0
100
AcDbLine
10
-60.0862104265033
20
121.39919114270704
30
0
11
-60.086210426503328
21
99.207517254775411
31
0
0
ARC
5
608
100
AcDbEntity
8
0
100
AcDbCircle
10
-61.288291954520624
20
98.005435726758463
30
0
40
1.6999999999999855
100
AcDbArc
50
-134.9999999999639
51
44.999999999991708
0
LINE
5
609
100
AcDbEntity
8
0
100
AcDbLine
10
-62.490373482536995
20
96.803354198740578
30
0
11
-67.086210299101907
21
96.803354198740578
31
0
0
ARC
5
610
100
AcDbEntity
8
0
100
AcDbCircle
10
-67.086210299101907
20
95.803354198740593
30
0
40
0.99999999999999645
100
AcDbArc
50
90
51
180
0
LINE
5
611
100
AcDbEntity
8
0
100
AcDbLine
10
-68.086210299101907
20
95.803354198740593
30
0
11
-68.086210299101907
21
89.803354198740635
31
0
0
ARC
5
612
100
AcDbEntity
8
0
100
AcDbCircle
10
-67.086210299101936
20
89.803354198740635
30
0
40
0.9999999999999698
100
AcDbArc
50
180
51
270
0
LINE
5
613
100
AcDbEntity
8
0
100
AcDbLine
10
-67.086210299101936
20
88.803354198740635
30
0
11
-62.490373482538544
21
88.803354198740607
31
0
0
ARC
5
614
100
AcDbEntity
8
0
100
AcDbCircle
10
-61.288291954520631
20
87.601272670724271
30
0
40
1.6999999999999855
100
AcDbArc
50
-44.999999999991708
51
135.0000000000376
0
LINE
5
615
100
AcDbEntity
8
0
100
AcDbLine
10
-60.086210426503335
20
86.399191142707323
30
0
11
-60.086210426503357
21
73.004354271228976
31
0
0
LINE
5
616
100
AcDbEntity
8
0
100
AcDbLine
10
-60.086210426503357
20
73.004354271228976
30
0
11
9.7072356810340921
21
73.004354271228976
31
0
0
ARC
5
617
100
AcDbEntity
8
0
100
AcDbCircle
10
10.90931720905095
20
71.802272743211574
30
0
40
1.6999999999999855
100
AcDbArc
50
-44.999999999995367
51
134.99999999998707
0
LINE
5
618
100
AcDbEntity
8
0
100
AcDbLine
10
12.111398737068164
20
70.600191215194556
30
0
11
12.111398737068161
21
65.004354271229005
31
0
0
LINE
5
619
100
AcDbEntity
8
0
100
AcDbLine
10
12.111398737068161
20
65.004354271229005
30
0
11
28.111398737068036
21
65.004354271229005
31
0
0
LINE
5
620
100
AcDbEntity
8
0
100
AcDbLine
10
28.111398737068036
20
65.004354271229005
30
0
11
28.1113987370681
21
70.600191215194144
31
0
0
LWPOLYLINE
5
621
100
AcDbEntity
8
0
100
AcDbPolyline
90
3
70
1
43
0.0
10
87.37739218971646
20
-42.508838785135694
10
80.449188959440775
20
-54.508838785135509
10
94.305595419991732
20
-54.508838785135708
0
LWPOLYLINE
5
622
100
AcDbEntity
8
0
100
AcDbPolyline
90
3
70
1
43
0.0
10
33.309188959440917
20
-54.508838785135097
10
47.165595419991853
20
-54.508838785135154
10
40.237392189716488
20
-42.508838785135197
0
LWPOLYLINE
5
623
100
AcDbEntity
8
0
100
AcDbPolyline
90
3
70
1
43
0.0
10
33.309188959441698
20
0.63116121486514132
10
40.23739218971695
20
-11.36883878513494
10
47.16559541999267
20
0.63116121486475119
0
LWPOLYLINE
5
624
100
AcDbEntity
8
0
100
AcDbPolyline
90
3
70
1
43
0.0
10
80.449188959441571
20
0.63116121486421761
10
87.3773921897169
20
-11.368838785135793
10
94.305595419992514
20
0.63116121486404064
0
CIRCLE
5
625
100
AcDbEntity
8
0
100
AcDbCircle
10
63.807392189716658
20
-26.938838785135388
30
0
40
20.499999999999957
0
LWPOLYLINE
5
626
100
AcDbEntity
8
0
100
AcDbPolyline
90
4
70
1
43
0.0
10
26.057392189717589
20
-15.938838785135268
42
-0.99999999999999989
10
20.557392189717607
20
-15.938838785135193
10
20.557392189717749
20
-4.9388387851351858
42
-0.99999999999999989
10
26.057392189717756
20
-4.9388387851352533
0
LWPOLYLINE
5
627
100
AcDbEntity
8
0
100
AcDbPolyline
90
4
70
1
43
0.0
10
101.55739218971726
20
-37.938838785136909
42
-0.99999999999999989
10
107.05739218971721
20
-37.938838785135587
10
107.05739218971708
20
-48.938838785137023
42
-0.99999999999999989
10
101.55739218971704
20
-48.93883878513553
0
LWPOLYLINE
5
628
100
AcDbEntity
8
0
100
AcDbPolyline
90
4
70
1
43
0.0
10
26.057392189717117
20
-48.93883878513445
10
26.057392189717227
20
-37.938838785134479
42
0.99999999999999989
10
20.557392189717298
20
-37.9388387851358
10
20.557392189717085
20
-48.938838785134394
42
0.99999999999999989
0
LWPOLYLINE
5
629
100
AcDbEntity
8
0
100
AcDbPolyline
90
4
70
1
43
0.0
10
101.55739218971772
20
-4.9388387851363049
42
-0.99999999999999989
10
107.05739218971772
20
-4.9388387851363902
10
107.05739218971756
20
-15.938838785136383
42
-0.99999999999999989
10
101.55739218971755
20
-15.93883878513633
0
LWPOLYLINE
5
630
100
AcDbEntity
8
0
100
AcDbPolyline
90
8
70
1
43
0.0
10
112.30739218971698
20
-53.938838785136383
42
-0.41421356237309731
10
104.30739218971684
20
-61.938838785136241
10
23.307392189716907
20
-61.938838785135104
42
-0.41421356237310025
10
15.307392189717039
20
-53.938838785134926
10
15.307392189717897
20
0.061161214864885308
42
-0.41421356237309809
10
23.307392189717948
20
8.0611612148646845
10
104.30739218971793
20
8.0611612148636187
42
-0.41421356237310003
10
112.30739218971779
20
0.06116121486344106
0
LWPOLYLINE
5
631
100
AcDbEntity
8
0
100
AcDbPolyline
90
3
70
1
43
0.0
10
82.012056300537353
20
-137.12214248590101
10
94.01205630053731
20
-144.05034571617654
10
94.012056300537211
20
-130.19393925562557
0
LWPOLYLINE
5
632
100
AcDbEntity
8
0
100
AcDbPolyline
90
3
70
1
43
0.0
10
94.012056300537537
20
-191.19034571617644
10
94.012056300537381
20
-177.33393925562549
10
82.012056300537566
20
-184.26214248590099
0
LWPOLYLINE
5
633
100
AcDbEntity
8
0
100
AcDbPolyline
90
3
70
1
43
0.0
10
38.872056300537317
20
-191.19034571617644
10
50.872056300537309
20
-184.26214248590099
10
38.872056300537395
20
-177.33393925562541
0
LWPOLYLINE
5
634
100
AcDbEntity
8
0
100
AcDbPolyline
90
3
70
1
43
0.0
10
38.872056300537388
20
-144.05034571617645
10
50.872056300537309
20
-137.12214248590095
10
38.872056300537395
20
-130.19393925562551
0
CIRCLE
5
635
100
AcDbEntity
8
0
100
AcDbCircle
10
66.442056300537331
20
-160.69214248590103
30
0
40
20.499999999999986
0
LWPOLYLINE
5
636
100
AcDbEntity
8
0
100
AcDbPolyline
90
4
70
1
43
0.0
10
55.4420563005378
20
-198.44214248590038
42
-0.99999999999999989
10
55.442056300537828
20
-203.94214248590029
10
44.442056300537814
20
-203.94214248590032
42
-0.99999999999999989
10
44.442056300537786
20
-198.44214248590026
0
LWPOLYLINE
5
637
100
AcDbEntity
8
0
100
AcDbPolyline
90
4
70
1
43
0.0
10
77.442056300538354
20
-122.94214248590023
42
-0.99999999999999989
10
77.442056300536905
20
-117.44214248590029
10
88.442056300538354
20
-117.44214248590025
42
-0.99999999999999989
10
88.442056300536933
20
-122.94214248590032
0
LWPOLYLINE
5
638
100
AcDbEntity
8
0
100
AcDbPolyline
90
4
70
1
43
0.0
10
88.442056300537061
20
-198.44214248590032
10
77.442056300537061
20
-198.44214248590035
42
0.99999999999999989
10
77.442056300538496
20
-203.94214248590029
10
88.442056300537075
20
-203.94214248590035
42
0.99999999999999989
0
LWPOLYLINE
5
639
100
AcDbEntity
8
0
100
AcDbPolyline
90
4
70
1
43
0.0
10
44.442056300537672
20
-122.94214248590022
42
-0.99999999999999989
10
44.442056300537644
20
-117.44214248590021
10
55.442056300537658
20
-117.44214248590023
42
-0.99999999999999989
10
55.442056300537686
20
-122.94214248590023
0
LWPOLYLINE
5
640
100
AcDbEntity
8
0
100
AcDbPolyline
90
8
70
1
43
0.0
10
93.442056300537587
20
-112.19214248590026
42
-0.41421356237309892
10
101.44205630053763
20
-120.19214248590026
10
101.44205630053781
20
-201.19214248590032
42
-0.4142135623730957
10
93.442056300537757
20
-209.19214248590038
10
39.442056300537836
20
-209.19214248590023
42
-0.41421356237309848
10
31.442056300537832
20
-201.19214248590026
10
31.442056300537672
20
-120.19214248590015
42
-0.4142135623730952
10
39.442056300537686
20
-112.19214248590021
0
ARC
5
641
100
AcDbEntity
8
0
100
AcDbCircle
10
-60.732914922311885
20
-27.139839027023687
30
0
40
1.700000000000004
100
AcDbArc
50
-134.99999999998681
51
45.000000000013209
0
LINE
5
642
100
AcDbEntity
8
0
100
AcDbLine
10
-61.93499645032874
20
-28.341920555041096
30
0
11
-67.53083339429412
21
-28.341920555041135
31
0
0
LINE
5
643
100
AcDbEntity
8
0
100
AcDbLine
10
-67.53083339429412
20
-28.341920555041135
30
0
11
-67.530833394294191
21
-36.341920555041078
31
0
0
LINE
5
644
100
AcDbEntity
8
0
100
AcDbLine
10
-67.530833394294191
20
-36.341920555041078
30
0
11
-61.934996450329592
21
-36.341920555041042
31
0
0
ARC
5
645
100
AcDbEntity
8
0
100
AcDbCircle
10
-60.732914922312069
20
-37.544002083057777
30
0
40
1.6999999999999726
100
AcDbArc
50
-44.999999999963919
51
135.00000000001882
0
LINE
5
646
100
AcDbEntity
8
0
100
AcDbLine
10
-59.530833394294199
20
-38.746083611074134
30
0
11
-59.530833394295385
21
-191.7824345079724
31
0
0
ARC
5
647
100
AcDbEntity
8
0
100
AcDbCircle
10
-60.73291492231558
20
-192.98451603598639
30
0
40
1.699999999999998
100
AcDbArc
50
-134.9999999999153
51
44.999999999852164
0
LINE
5
648
100
AcDbEntity
8
0
100
AcDbLine
10
-61.934996450330935
20
-194.1865975640053
30
0
11
-67.530833394295399
21
-194.18659756400535
31
0
0
LINE
5
649
100
AcDbEntity
8
0
100
AcDbLine
10
-67.530833394295399
20
-194.18659756400535
30
0
11
-67.53083339429547
21
-202.1865975640053
31
0
0
LINE
5
650
100
AcDbEntity
8
0
100
AcDbLine
10
-67.53083339429547
20
-202.1865975640053
30
0
11
-61.934996450334822
21
-202.18659756400527
31
0
0
ARC
5
651
100
AcDbEntity
8
0
100
AcDbCircle
10
-60.732914922315828
20
-203.38867909202048
30
0
40
1.7000000000000104
100
AcDbArc
50
-44.999999999847084
51
135.0000000000901
0
LINE
5
652
100
AcDbEntity
8
0
100
AcDbLine
10
-59.530833394295477
20
-204.59076062003442
30
0
11
-59.530833394295477
21
-206.18659756400518
31
0
0
LINE
5
653
100
AcDbEntity
8
0
100
AcDbLine
10
-59.530833394295477
20
-206.18659756400518
30
0
11
-35.35926051904169
21
-206.18659756400504
31
0
0
ARC
5
654
100
AcDbEntity
8
0
100
AcDbCircle
10
-35.359260519041634
20
-204.1865975640053
30
0
40
1.9999999999997442
100
AcDbArc
50
269.99999999999835
51
315.00000000000517
0
LINE
5
655
100
AcDbEntity
8
0
100
AcDbLine
10
-33.945046956668556
20
-205.60081112637812
30
0
11
-30.116619831922364
21
-201.77238400163193
31
0
0
ARC
5
656
100
AcDbEntity
8
0
100
AcDbCircle
10
-31.530833394295318
20
-200.35817043925888
30
0
40
1.9999999999998734
100
AcDbArc
50
-45.00000000000194
51
0
0
LINE
5
657
100
AcDbEntity
8
0
100
AcDbLine
10
-29.530833394295406
20
-200.3581704392588
30
0
11
-29.530833394294135
21
-30.170347679787071
31
0
0
ARC
5
658
100
AcDbEntity
8
0
100
AcDbCircle
10
-31.530833394294099
20
-30.170347679787032
30
0
40
1.9999999999999662
100
AcDbArc
50
0
51
44.999999999999424
0
LINE
5
659
100
AcDbEntity
8
0
100
AcDbLine
10
-30.116619831921014
20
-28.756134117413975
30
0
11
-33.945046956667227
21
-24.927706992667858
31
0
0
ARC
5
660
100
AcDbEntity
8
0
100
AcDbCircle
10
-35.359260519040284
20
-26.34192055504089
30
0
40
1.9999999999999272
100
AcDbArc
50
44.999999999999496
51
90.000000000000199
0
LINE
5
661
100
AcDbEntity
8
0
100
AcDbLine
10
-35.359260519040291
20
-24.341920555040957
30
0
11
-59.530833394294092
21
-24.341920555041124
31
0
0
LINE
5
662
100
AcDbEntity
8
0
100
AcDbLine
10
-59.530833394294092
20
-24.341920555041124
30
0
11
-59.53083339429503
21
-25.937757499006278
31
0
0
CIRCLE
5
663
100
AcDbEntity
8
0
100
AcDbCircle
10
-44.530833394294206
20
-37.264259059523788
30
0
40
4.4999999999999911
0
CIRCLE
5
664
100
AcDbEntity
8
0
100
AcDbCircle
10
-44.530833394295385
20
-193.26425905952235
30
0
40
3.4999999999999947
0
CIRCLE
5
665
100
AcDbEntity
8
0
100
AcDbCircle
10
-44.530833394294888
20
-131.26425905952291
30
0
40
3.0000000000000062
0
CIRCLE
5
666
100
AcDbEntity
8
0
100
AcDbCircle
10
-44.530833394294632
20
-99.264259059523212
30
0
40
3.0000000000000062
0
CIRCLE
5
667
100
AcDbEntity
8
0
100
AcDbCircle
10
-125.46976219190026
20
-71.941213351978419
30
0
40
3.0000000000000164
0
CIRCLE
5
668
100
AcDbEntity
8
0
100
AcDbCircle
10
-125.46976219190023
20
-103.9412133519785
30
0
40
3.0000000000000164
0
CIRCLE
5
669
100
AcDbEntity
8
0
100
AcDbCircle
10
-125.46976219190017
20
-165.94121335197858
30
0
40
3.5000000000000075
0
CIRCLE
5
670
100
AcDbEntity
8
0
100
AcDbCircle
10
-125.46976219190022
20
-9.9412133519783197
30
0
40
4.5000000000000071
0
LWPOLYLINE
5
671
100
AcDbEntity
8
0
100
AcDbPolyline
90
22
70
1
43
0.0
10
-108.06559913586469
20
-1.0188748474944924
42
-0.99999999999999989
10
-110.46976219190017
20
1.3852882085385114
10
-110.46976219190017
20
2.9811251525045734
10
-134.64133506715405
20
2.9811251525045761
42
0.19891236737965967
10
-136.05554862952712
20
2.3953387148776741
10
-139.88397575427337
20
-1.4330884098685543
42
0.19891236737964729
10
-140.46976219190029
20
-2.8473019722416382
10
-140.4697621919002
20
-173.03512473171523
42
0.19891236737966267
10
-139.88397575427331
20
-174.44933829408839
10
-136.0555486295271
20
-178.27776541883458
42
0.19891236737965731
10
-134.64133506715402
20
-178.86355185646153
10
-110.46976219190013
20
-178.86355185646147
10
-110.46976219189879
20
-177.26771491249195
42
-0.99999999999999989
10
-108.06559913586074
20
-174.86355185646147
10
-102.4697621919001
20
-174.86355185646147
10
-102.4697621919001
20
-166.86355185646147
10
-108.0655991358597
20
-166.86355185645664
42
-0.99999999999999989
10
-110.46976219190013
20
-164.45938880042848
10
-110.46976219189978
20
-11.423037903528986
42
-0.99999999999999989
10
-108.06559913586477
20
-9.0188748474954412
10
-102.46976219190016
20
-9.0188748474954359
10
-102.46976219190016
20
-1.0188748474954024
0
LWPOLYLINE
5
672
100
AcDbEntity
8
0
100
AcDbPolyline
90
12
70
1
43
0.0
10
-215.89368988917454
20
21.059868361699472
42
-0.41421356237318485
10
-213.48952683313991
20
21.059868361699795
10
-210.29785294520846
20
21.059868361699792
42
-0.4142135623730161
10
-207.89368988917445
20
21.059868361700225
42
-0.41421356237335771
10
-207.89368988917485
20
18.655705305664803
10
-207.89368988917488
20
15.464031417734748
42
-0.41421356237335472
10
-207.89368988917445
20
13.059868361699392
42
-0.41421356237303286
10
-210.29785294520852
20
13.059868361699806
10
-213.48952683313982
20
13.05986836169982
42
-0.41421356237321405
10
-215.8936898891746
20
13.059868361700078
42
-0.41421356237283508
10
-215.89368988917488
20
15.464031417733338
10
-215.89368988917485
20
18.655705305666213
42
-0.41421356237284862
0
LWPOLYLINE
5
673
100
AcDbEntity
8
0
100
AcDbPolyline
90
12
70
1
43
0.0
10
-215.89368988917408
20
178.90454537066643
42
-0.41421356237293055
10
-215.89368988917488
20
181.30870842669998
10
-215.89368988917488
20
184.50038231463296
42
-0.41421356237272283
10
-215.89368988917496
20
186.90454537066572
42
-0.41421356237351054
10
-213.48952683313897
20
186.9045453706656
10
-210.29785294520934
20
186.90454537066563
42
-0.41421356237332013
10
-207.89368988917414
20
186.90454537066643
42
-0.4142135623732725
10
-207.89368988917491
20
184.50038231463145
10
-207.89368988917488
20
181.30870842670149
42
-0.41421356237347595
10
-207.89368988917491
20
178.90454537066563
42
-0.41421356237270551
10
-210.29785294520761
20
178.90454537066563
10
-213.4895268331407
20
178.90454537066569
42
-0.41421356237287865
0
ARC
5
674
100
AcDbEntity
8
0
100
AcDbCircle
10
-244.62529611012582
20
432.66916804851519
30
0
40
1.7000000000000168
100
AcDbArc
50
225.00000000010562
51
314.99999999992821
0
LINE
5
675
100
AcDbEntity
8
0
100
AcDbLine
10
-245.82737763814072
20
431.46708652049585
30
0
11
-251.42321458210938
21
431.46708652049585
31
0
0
LINE
5
676
100
AcDbEntity
8
0
100
AcDbLine
10
-251.42321458210938
20
431.46708652049585
30
0
11
-251.42321458210938
21
415.4670865204958
31
0
0
LINE
5
677
100
AcDbEntity
8
0
100
AcDbLine
10
-251.42321458210938
20
415.4670865204958
30
0
11
-245.82737763814504
21
415.4670865204958
31
0
0
ARC
5
678
100
AcDbEntity
8
0
100
AcDbCircle
10
-244.62529611012576
20
414.26500499248084
30
0
40
1.6999999999999664
100
AcDbArc
50
44.999999999965453
51
135.00000000010294
0
ARC
5
679
100
AcDbEntity
8
0
100
AcDbCircle
10
-244.62529611012576
20
414.26500499248084
30
0
40
1.7000000000001172
100
AcDbArc
50
-45.000000000037247
51
44.999999999965453
0
LINE
5
680
100
AcDbEntity
8
0
100
AcDbLine
10
-243.42321458210935
20
413.06292346446287
30
0
11
-243.42321458210938
21
312.87124957653242
31
0
0
ARC
5
681
100
AcDbEntity
8
0
100
AcDbCircle
10
-244.62529611012576
20
311.66916804851451
30
0
40
1.7000000000000168
100
AcDbArc
50
-45.00000000005349
51
45.000000000036579
0
ARC
5
682
100
AcDbEntity
8
0
100
AcDbCircle
10
-244.62529611012576
20
311.66916804851451
30
0
40
1.7000000000000168
100
AcDbArc
50
225.00000000006705
51
314.99999999994651
0
LINE
5
683
100
AcDbEntity
8
0
100
AcDbLine
10
-245.82737763814148
20
310.46708652049597
30
0
11
-251.42321458210938
21
310.46708652049591
31
0
0
LINE
5
684
100
AcDbEntity
8
0
100
AcDbLine
10
-251.42321458210938
20
310.46708652049591
30
0
11
-251.42321458210938
21
294.46708652049597
31
0
0
LINE
5
685
100
AcDbEntity
8
0
100
AcDbLine
10
-251.42321458210938
20
294.46708652049597
30
0
11
-245.82737763814436
21
294.46708652049597
31
0
0
ARC
5
686
100
AcDbEntity
8
0
100
AcDbCircle
10
-244.62529611012576
20
293.26500499248027
30
0
40
1.7000000000000419
100
AcDbArc
50
-45.000000000035875
51
135.00000000006906
0
LINE
5
687
100
AcDbEntity
8
0
100
AcDbLine
10
-243.42321458210935
20
292.06292346446236
30
0
11
-243.42321458210932
21
70.871029556471001
31
0
0
ARC
5
688
100
AcDbEntity
8
0
100
AcDbCircle
10
-244.62529611012576
20
69.668948028453158
30
0
40
1.7000000000000104
100
AcDbArc
50
-45.000000000022702
51
45.000000000033523
0
ARC
5
689
100
AcDbEntity
8
0
100
AcDbCircle
10
-244.62529611012576
20
69.668948028453158
30
0
40
1.7000000000000357
100
AcDbArc
50
225.00000000001017
51
314.99999999997732
0
LINE
5
690
100
AcDbEntity
8
0
100
AcDbLine
10
-245.82737763814271
20
68.466866500435785
30
0
11
-251.4232145821093
21
68.466866500435771
31
0
0
LINE
5
691
100
AcDbEntity
8
0
100
AcDbLine
10
-251.4232145821093
20
68.466866500435771
30
0
11
-251.4232145821093
21
52.466866500435785
31
0
0
LINE
5
692
100
AcDbEntity
8
0
100
AcDbLine
10
-251.4232145821093
20
52.466866500435785
30
0
11
-245.82737763814308
21
52.466866500435785
31
0
0
ARC
5
693
100
AcDbEntity
8
0
100
AcDbCircle
10
-244.62529611012582
20
51.264784972418845
30
0
40
1.6999999999999917
100
AcDbArc
50
45.000000000011518
51
135.00000000000762
0
ARC
5
694
100
AcDbEntity
8
0
100
AcDbCircle
10
-244.62529611012582
20
51.264784972418845
30
0
40
1.700000000000067
100
AcDbArc
50
-45.00000000003282
51
45.000000000011518
0
LINE
5
695
100
AcDbEntity
8
0
100
AcDbLine
10
-243.42321458210932
20
50.062703444400974
30
0
11
-243.42321458210932
21
-50.128970443529752
31
0
0
ARC
5
696
100
AcDbEntity
8
0
100
AcDbCircle
10
-244.62529611012573
20
-51.331051971547524
30
0
40
1.6999999999999855
100
AcDbArc
50
-45.000000000006771
51
45.000000000032514
0
ARC
5
697
100
AcDbEntity
8
0
100
AcDbCircle
10
-244.62529611012573
20
-51.331051971547524
30
0
40
1.7000000000000546
100
AcDbArc
50
224.99999999997831
51
314.99999999999324
0
LINE
5
698
100
AcDbEntity
8
0
100
AcDbLine
10
-245.82737763814336
20
-52.533133499564244
30
0
11
-251.4232145821093
21
-52.533133499564251
31
0
0
LINE
5
699
100
AcDbEntity
8
0
100
AcDbLine
10
-251.4232145821093
20
-52.533133499564251
30
0
11
-251.4232145821093
21
-68.533133499564244
31
0
0
LINE
5
700
100
AcDbEntity
8
0
100
AcDbLine
10
-251.4232145821093
20
-68.533133499564244
30
0
11
-245.82737763814242
21
-68.533133499564244
31
0
0
ARC
5
701
100
AcDbEntity
8
0
100
AcDbCircle
10
-244.62529611012576
20
-69.735215027581887
30
0
40
1.7000000000000419
100
AcDbArc
50
45.000000000027434
51
134.99999999997664
0
ARC
5
702
100
AcDbEntity
8
0
100
AcDbCircle
10
-244.62529611012576
20
-69.735215027581887
30
0
40
1.7000000000000168
100
AcDbArc
50
-45.000000000031854
51
45.000000000027434
0
LINE
5
703
100
AcDbEntity
8
0
100
AcDbLine
10
-243.4232145821093
20
-70.937296555599687
30
0
11
-243.4232145821093
21
-118.53313349956412
31
0
0
LINE
5
704
100
AcDbEntity
8
0
100
AcDbLine
10
-243.4232145821093
20
-118.53313349956412
30
0
11
-180.89368841867014
21
-118.53313349956414
31
0
0
LINE
5
705
100
AcDbEntity
8
0
100
AcDbLine
10
-180.89368841867014
20
-118.53313349956414
30
0
11
-180.89368841867017
21
40.982206866182693
31
0
0
LINE
5
706
100
AcDbEntity
8
0
100
AcDbLine
10
-180.89368841867017
20
40.982206866182693
30
0
11
-195.89368996166317
21
40.982206866182693
31
0
0
LINE
5
707
100
AcDbEntity
8
0
100
AcDbLine
10
-195.89368996166317
20
40.982206866182693
30
0
11
-195.89368996166317
21
30.386369922218044
31
0
0
ARC
5
708
100
AcDbEntity
8
0
100
AcDbCircle
10
-197.09577148967969
20
29.184288394200308
30
0
40
1.699999999999982
100
AcDbArc
50
-134.99999999997681
51
45.000000000028962
0
LINE
5
709
100
AcDbEntity
8
0
100
AcDbLine
10
-198.29785301769633
20
27.9822068661827
30
0
11
-205.48952690562882
21
27.982206866182693
31
0
0
ARC
5
710
100
AcDbEntity
8
0
100
AcDbCircle
10
-206.69160843364548
20
29.184288394200294
30
0
40
1.700000000000004
100
AcDbArc
50
135.00000000002652
51
314.99999999997766
0
LINE
5
711
100
AcDbEntity
8
0
100
AcDbLine
10
-207.89368996166317
20
30.386369922216868
30
0
11
-207.8936899616632
21
169.57804381015075
31
0
0
ARC
5
712
100
AcDbEntity
8
0
100
AcDbCircle
10
-206.691608433645
20
170.78012533816684
30
0
40
1.6999999999999917
100
AcDbArc
50
44.999999999942425
51
224.99999999994986
0
LINE
5
713
100
AcDbEntity
8
0
100
AcDbLine
10
-205.48952690562669
20
171.98220686618274
30
0
11
-198.29785301769749
21
171.98220686618271
31
0
0
ARC
5
714
100
AcDbEntity
8
0
100
AcDbCircle
10
-197.09577148967921
20
170.78012533816678
30
0
40
1.7000000000000168
100
AcDbArc
50
-45.000000000052829
51
135.00000000005622
0
LINE
5
715
100
AcDbEntity
8
0
100
AcDbLine
10
-195.89368996166317
20
169.57804381014853
30
0
11
-195.89368996166317
21
158.98220686618271
31
0
0
LINE
5
716
100
AcDbEntity
8
0
100
AcDbLine
10
-195.89368996166317
20
158.98220686618271
30
0
11
-180.89368841867017
21
158.98220686618276
31
0
0
LINE
5
717
100
AcDbEntity
8
0
100
AcDbLine
10
-180.89368841867017
20
158.98220686618276
30
0
11
-180.89368841867019
21
461.98264900707579
31
0
0
LINE
5
718
100
AcDbEntity
8
0
100
AcDbLine
10
-180.89368841867019
20
461.98264900707579
30
0
11
-182.22022141986159
21
461.98264900707568
31
0
0
LINE
5
719
100
AcDbEntity
8
0
100
AcDbLine
10
-182.22022141986159
20
461.98264900707568
30
0
11
-182.22022141986162
21
469.98264900707534
31
0
0
LINE
5
720
100
AcDbEntity
8
0
100
AcDbLine
10
-182.22022141986162
20
469.98264900707534
30
0
11
-180.89368841867025
21
469.98264900707568
31
0
0
LINE
5
721
100
AcDbEntity
8
0
100
AcDbLine
10
-180.89368841867025
20
469.98264900707568
30
0
11
-180.89368841867025
21
475.6386593957493
31
0
0
ARC
5
722
100
AcDbEntity
8
0
100
AcDbCircle
10
-182.89368841867008
20
475.63865939574941
30
0
40
1.9999999999998508
100
AcDbArc
50
0
51
45.000000000001151
0
LINE
5
723
100
AcDbEntity
8
0
100
AcDbLine
10
-181.47947485629714
20
477.05287295812241
30
0
11
-185.30790198104336
21
480.88130008286862
31
0
0
ARC
5
724
100
AcDbEntity
8
0
100
AcDbCircle
10
-186.72211554341644
20
479.46708652049563
30
0
40
1.9999999999998954
100
AcDbArc
50
44.999999999998273
51
90.00000000000081
0
LINE
5
725
100
AcDbEntity
8
0
100
AcDbLine
10
-186.72211554341646
20
481.46708652049551
30
0
11
-243.42321458210938
21
481.46708652049551
31
0
0
LINE
5
726
100
AcDbEntity
8
0
100
AcDbLine
10
-243.42321458210938
20
481.46708652049551
30
0
11
-243.42321458210938
21
469.98264900707568
31
0
0
LINE
5
727
100
AcDbEntity
8
0
100
AcDbLine
10
-243.42321458210938
20
469.98264900707568
30
0
11
-243.42321458210938
21
461.98264900707568
31
0
0
LINE
5
728
100
AcDbEntity
8
0
100
AcDbLine
10
-243.42321458210938
20
461.98264900707568
30
0
11
-243.42321458210938
21
433.87124957653316
31
0
0
ARC
5
729
100
AcDbEntity
8
0
100
AcDbCircle
10
-244.62529611012582
20
432.66916804851519
30
0
40
1.7000000000000168
100
AcDbArc
50
-45.000000000071807
51
45.000000000036579
0
ARC
5
730
100
AcDbEntity
8
0
100
AcDbCircle
10
-220.8264454856731
20
463.18473053509513
30
0
40
1.7000000000000168
100
AcDbArc
50
-134.99999999989029
51
45.000000000109054
0
LINE
5
731
100
AcDbEntity
8
0
100
AcDbLine
10
-222.02852701368795
20
461.98264900707568
30
0
11
-225.22022141986292
21
461.98264900707568
31
0
0
ARC
5
732
100
AcDbEntity
8
0
100
AcDbCircle
10
-226.42230294787777
20
463.18473053509513
30
0
40
1.7000000000000168
100
AcDbArc
50
135.00000000003661
51
314.99999999989029
0
LINE
5
733
100
AcDbEntity
8
0
100
AcDbLine
10
-227.62438447589568
20
464.38681206311151
30
0
11
-227.62438447589568
21
467.57849608284738
31
0
0
ARC
5
734
100
AcDbEntity
8
0
100
AcDbCircle
10
-226.42229281616
20
468.78056747906055
30
0
40
1.7000000000000395
100
AcDbArc
50
135.00024145716847
51
224.99951708170738
0
ARC
5
735
100
AcDbEntity
8
0
100
AcDbCircle
10
-226.42229281616
20
468.78056747906055
30
0
40
1.7000000000000168
100
AcDbArc
50
44.999999999903821
51
135.00024145716847
0
LINE
5
736
100
AcDbEntity
8
0
100
AcDbLine
10
-225.22021128814083
20
469.98264900707568
30
0
11
-222.02853714540996
21
469.98264900707568
31
0
0
ARC
5
737
100
AcDbEntity
8
0
100
AcDbCircle
10
-220.82645561739074
20
468.78056747906055
30
0
40
1.7000000000000146
100
AcDbArc
50
44.999758542870822
51
135.00000000009754
0
ARC
5
738
100
AcDbEntity
8
0
100
AcDbCircle
10
-220.82645561739074
20
468.78056747906055
30
0
40
1.7000000000000086
100
AcDbArc
50
-44.999517081786607
51
44.999758542870822
0
LINE
5
739
100
AcDbEntity
8
0
100
AcDbLine
10
-219.62436395765673
20
467.57849608284573
30
0
11
-219.62436395765823
21
464.38681206311458
31
0
0
ARC
5
740
100
AcDbEntity
8
0
100
AcDbCircle
10
-185.82645561739088
20
468.78056747906055
30
0
40
1.700000000000059
100
AcDbArc
50
-44.999517081784582
51
44.999758542872854
0
LINE
5
741
100
AcDbEntity
8
0
100
AcDbLine
10
-184.62436395765678
20
467.57849608284573
30
0
11
-184.62436395765681
21
464.3868120631131
31
0
0
ARC
5
742
100
AcDbEntity
8
0
100
AcDbCircle
10
-185.82644548567316
20
463.18473053509513
30
0
40
1.7000000000000168
100
AcDbArc
50
-134.99999999989029
51
45.000000000038611
0
LINE
5
743
100
AcDbEntity
8
0
100
AcDbLine
10
-187.02852701368801
20
461.98264900707568
30
0
11
-190.22022141986287
21
461.98264900707568
31
0
0
ARC
5
744
100
AcDbEntity
8
0
100
AcDbCircle
10
-191.42230294787777
20
463.18473053509507
30
0
40
1.7000000000000419
100
AcDbArc
50
135.00000000004471
51
314.99999999989296
0
LINE
5
745
100
AcDbEntity
8
0
100
AcDbLine
10
-192.62438447589585
20
464.38681206311128
30
0
11
-192.62438447589585
21
467.57849608284749
31
0
0
ARC
5
746
100
AcDbEntity
8
0
100
AcDbCircle
10
-191.42229281615994
20
468.78056747906066
30
0
40
1.7000000000000899
100
AcDbArc
50
135.0002414571739
51
224.99951708170195
0
ARC
5
747
100
AcDbEntity
8
0
100
AcDbCircle
10
-191.42229281615994
20
468.78056747906066
30
0
40
1.6999999999998909
100
AcDbArc
50
44.999999999903139
51
135.0002414571739
0
LINE
5
748
100
AcDbEntity
8
0
100
AcDbLine
10
-190.22021128814086
20
469.98264900707568
30
0
11
-187.02853714541004
21
469.98264900707568
31
0
0
ARC
5
749
100
AcDbEntity
8
0
100
AcDbCircle
10
-185.82645561739088
20
468.78056747906055
30
0
40
1.7000000000000395
100
AcDbArc
50
44.999758542872854
51
135.00000000009618
0
ARC
5
750
100
AcDbEntity
8
0
100
AcDbCircle
10
-220.82645574479329
20
-111.81526946490818
30
0
40
1.7000000000000293
100
AcDbArc
50
-135.00000000003624
51
44.999999999963762
0
LINE
5
751
100
AcDbEntity
8
0
100
AcDbLine
10
-222.02853727281121
20
-113.01735099292458
30
0
11
-225.22021116074114
21
-113.01735099292458
31
0
0
ARC
5
752
100
AcDbEntity
8
0
100
AcDbCircle
10
-226.42229268875906
20
-111.81526946490817
30
0
40
1.7000000000000168
100
AcDbArc
50
135.00000000003251
51
315.00000000003587
0
LINE
5
753
100
AcDbEntity
8
0
100
AcDbLine
10
-227.62437421677689
20
-110.61318793689171
30
0
11
-227.62437421677686
21
-107.42151417636012
31
0
0
ARC
5
754
100
AcDbEntity
8
0
100
AcDbCircle
10
-226.42229281616011
20
-106.21943252094258
30
0
40
1.7000000000000168
100
AcDbArc
50
45.000000000041318
51
225.00000603713266
0
LINE
5
755
100
AcDbEntity
8
0
100
AcDbLine
10
-225.22021128814384
20
-105.01735099292458
30
0
11
-222.02853714540703
21
-105.01735099292459
31
0
0
ARC
5
756
100
AcDbEntity
8
0
100
AcDbCircle
10
-220.82645561739071
20
-106.21943252094256
30
0
40
1.7000000000000262
100
AcDbArc
50
-45.000006072525522
51
134.99999996456648
0
LINE
5
757
100
AcDbEntity
8
0
100
AcDbLine
10
-219.62437421677686
20
-107.42151417636299
30
0
11
-219.62437421677538
21
-110.61318793689179
31
0
0
ARC
5
758
100
AcDbEntity
8
0
100
AcDbCircle
10
-191.42229281616008
20
-111.81526946490794
30
0
40
1.7000000000000388
100
AcDbArc
50
134.99999392761501
51
314.99999990403057
0
LINE
5
759
100
AcDbEntity
8
0
100
AcDbLine
10
-192.62437421677689
20
-110.61318780949046
30
0
11
-192.62437421677689
21
-107.42151404895871
31
0
0
ARC
5
760
100
AcDbEntity
8
0
100
AcDbCircle
10
-191.42229268875894
20
-106.21943252094238
30
0
40
1.700000000000004
100
AcDbArc
50
45.000000000030823
51
224.99999999996174
0
LINE
5
761
100
AcDbEntity
8
0
100
AcDbLine
10
-190.22021116074245
20
-105.01735099292459
30
0
11
-187.02853727280967
21
-105.01735099292459
31
0
0
ARC
5
762
100
AcDbEntity
8
0
100
AcDbCircle
10
-185.82645574479318
20
-106.21943252094239
30
0
40
1.7000000000000293
100
AcDbArc
50
-45.000000000038931
51
134.99999999996885
0
LINE
5
763
100
AcDbEntity
8
0
100
AcDbLine
10
-184.62437421677686
20
-107.42151404896035
30
0
11
-184.62437421677689
21
-110.61318780948764
31
0
0
ARC
5
764
100
AcDbEntity
8
0
100
AcDbCircle
10
-185.82645561739082
20
-111.81526946490793
30
0
40
1.7000000000000168
100
AcDbArc
50
-135.00000000002436
51
45.000006037065944
0
LINE
5
765
100
AcDbEntity
8
0
100
AcDbLine
10
-187.02853714540848
20
-113.01735099292456
30
0
11
-190.22021128814242
21
-113.01735099292458
31
0
0
LWPOLYLINE
5
766
100
AcDbEntity
8
0
100
AcDbPolyline
90
4
70
1
43
0.0
10
-230.02852701369093
20
461.98264900707568
10
-230.02852701369093
20
469.98264900707522
10
-243.42337414428866
20
469.98264900707568
10
-243.42337414428866
20
461.98264900707568
0
LWPOLYLINE
5
767
100
AcDbEntity
8
0
100
AcDbPolyline
90
4
70
1
43
0.0
10
-217.22022141986145
20
469.98264900707522
10
-217.22022141986142
20
461.98264900707568
10
-195.02852701369108
20
461.98264900707568
10
-195.02852701369105
20
469.98264900707534
0
LWPOLYLINE
5
768
100
AcDbEntity
8
0
100
AcDbPolyline
90
4
70
1
43
0.0
10
-238.42321465459747
20
-38.632327056514555
10
-238.42321465459747
20
-73.632327056514569
42
0.99999999999999989
10
-232.4232146545975
20
-73.632327056514583
10
-232.4232146545975
20
-38.632327056514569
42
0.99999999999999989
0
ARC
5
769
100
AcDbEntity
8
0
100
AcDbCircle
10
-191.42229268875965
20
178.78056747905975
30
0
40
1.7000000000000168
100
AcDbArc
50
44.99999999994175
51
224.99999999994174
0
LINE
5
770
100
AcDbEntity
8
0
100
AcDbLine
10
-190.22021116074129
20
179.98264900707568
30
0
11
-187.0285372728122
21
179.98264900707568
31
0
0
ARC
5
771
100
AcDbEntity
8
0
100
AcDbCircle
10
-185.82645574479383
20
178.78056747905975
30
0
40
1.6999999999999917
100
AcDbArc
50
-45.0000000000569
51
135.00000085371619
0
LINE
5
772
100
AcDbEntity
8
0
100
AcDbLine
10
-184.62437421677791
20
177.57848595104144
30
0
11
-184.62437421677788
21
174.38681206311233
31
0
0
ARC
5
773
100
AcDbEntity
8
0
100
AcDbCircle
10
-185.82645574479386
20
173.18473053509399
30
0
40
1.6999999999999664
100
AcDbArc
50
-134.99999999994378
51
45.000000000056225
0
LINE
5
774
100
AcDbEntity
8
0
100
AcDbLine
10
-187.02853727280979
20
171.98264900707571
30
0
11
-190.22021116074367
21
171.98264900707571
31
0
0
ARC
5
775
100
AcDbEntity
8
0
100
AcDbCircle
10
-191.42229268875963
20
173.18473053509399
30
0
40
1.6999999999999915
100
AcDbArc
50
135.00000000005352
51
314.99999914628046
0
LINE
5
776
100
AcDbEntity
8
0
100
AcDbLine
10
-192.62437421677788
20
174.38681206311
30
0
11
-192.62437421677802
21
177.57848595104383
31
0
0
ARC
5
777
100
AcDbEntity
8
0
100
AcDbCircle
10
-220.826455744794
20
173.18473053509405
30
0
40
1.7000000000000168
100
AcDbArc
50
-134.99999999994174
51
45.000000000058257
0
LINE
5
778
100
AcDbEntity
8
0
100
AcDbLine
10
-222.02853727280993
20
171.98264900707568
30
0
11
-225.22021116074382
21
171.98264900707571
31
0
0
ARC
5
779
100
AcDbEntity
8
0
100
AcDbCircle
10
-226.42229268875977
20
173.18473053509399
30
0
40
1.6999999999999915
100
AcDbArc
50
135.00000000004539
51
314.99999999994446
0
LINE
5
780
100
AcDbEntity
8
0
100
AcDbLine
10
-227.62437421677785
20
174.38681206311017
30
0
11
-227.62437421677788
21
177.57848595104372
31
0
0
ARC
5
781
100
AcDbEntity
8
0
100
AcDbCircle
10
-226.42229268875974
20
178.78056747905984
30
0
40
1.6999999999999413
100
AcDbArc
50
44.99999999994175
51
224.99999999995191
0
LINE
5
782
100
AcDbEntity
8
0
100
AcDbLine
10
-225.22021116074143
20
179.98264900707571
30
0
11
-222.02853727281234
21
179.98264900707568
31
0
0
ARC
5
783
100
AcDbEntity
8
0
100
AcDbCircle
10
-220.826455744794
20
178.78056747905981
30
0
40
1.7000000000000419
100
AcDbArc
50
-45.000000000049461
51
135.00000000005892
0
LINE
5
784
100
AcDbEntity
8
0
100
AcDbLine
10
-219.62437421677788
20
177.57848595104161
30
0
11
-219.62437421677808
21
174.38681206311242
31
0
0
LINE
5
785
100
AcDbEntity
8
0
100
AcDbLine
10
-225.22021116074268
20
27.981764725289715
30
0
11
-222.02853727281212
21
27.981764725289715
31
0
0
ARC
5
786
100
AcDbEntity
8
0
100
AcDbCircle
10
-220.82645574479449
20
26.779683197273073
30
0
40
1.6999999999999948
100
AcDbArc
50
-45.000000000024372
51
135.00000000002353
0
LINE
5
787
100
AcDbEntity
8
0
100
AcDbLine
10
-219.62437421677788
20
25.577601669255444
30
0
11
-219.62437421677788
21
22.385927781324884
31
0
0
ARC
5
788
100
AcDbEntity
8
0
100
AcDbCircle
10
-220.82645574479449
20
21.18384625330728
30
0
40
1.7000000000000215
100
AcDbArc
50
-134.9999999999807
51
45.000000000023796
0
LINE
5
789
100
AcDbEntity
8
0
100
AcDbLine
10
-222.02853727281123
20
19.981764725289722
30
0
11
-225.22021116074359
21
19.981764725289722
31
0
0
ARC
5
790
100
AcDbEntity
8
0
100
AcDbCircle
10
-226.42229268876031
20
21.18384625330728
30
0
40
1.6999999999999917
100
AcDbArc
50
135.00000000002015
51
314.99999914624641
0
LINE
5
791
100
AcDbEntity
8
0
100
AcDbLine
10
-227.62437421677785
20
22.385927781323979
30
0
11
-227.62437421677785
21
25.577601669256389
31
0
0
ARC
5
792
100
AcDbEntity
8
0
100
AcDbCircle
10
-226.42229268876025
20
26.779683197273059
30
0
40
1.6999999999999855
100
AcDbArc
50
44.999999999978151
51
224.9999999999778
0
LWPOLYLINE
5
793
100
AcDbEntity
8
0
100
AcDbPolyline
90
8
70
1
43
0.0
10
-215.89368988917485
20
78.386369922218293
42
-0.99999999999999989
10
-218.29785294520781
20
75.982206866182693
10
-221.48952683313928
20
75.982206866184015
42
-0.99999999999999989
10
-223.89368988917488
20
78.386369922216971
10
-223.89368988917499
20
121.57804381015042
42
-0.99999999999999989
10
-221.48952683313877
20
123.98220686618272
10
-218.29785294520735
20
123.98220686618457
42
-0.99999999999999989
10
-215.89368988917488
20
121.57804381014854
0
ARC
5
794
100
AcDbEntity
8
0
100
AcDbCircle
10
-185.82645574479437
20
21.183846253307294
30
0
40
1.6999999999999855
100
AcDbArc
50
-134.99999999997817
51
45.000000000021757
0
LINE
5
795
100
AcDbEntity
8
0
100
AcDbLine
10
-187.02853727281104
20
19.981764725289715
30
0
11
-190.22021116074342
21
19.981764725289722
31
0
0
ARC
5
796
100
AcDbEntity
8
0
100
AcDbCircle
10
-191.42229268876014
20
21.183846253307284
30
0
40
1.700000000000004
100
AcDbArc
50
135.00000000002871
51
314.99999999997993
0
LINE
5
797
100
AcDbEntity
8
0
100
AcDbLine
10
-192.62437421677788
20
22.385927781323822
30
0
11
-192.62437421677788
21
25.577601669256566
31
0
0
ARC
5
798
100
AcDbEntity
8
0
100
AcDbCircle
10
-191.42229268876011
20
26.779683197273076
30
0
40
1.7000000000000197
100
AcDbArc
50
44.999999999975529
51
224.99999999996993
0
LINE
5
799
100
AcDbEntity
8
0
100
AcDbLine
10
-190.22021116074245
20
27.981764725289707
30
0
11
-187.02853727281197
21
27.981764725289715
31
0
0
ARC
5
800
100
AcDbEntity
8
0
100
AcDbCircle
10
-185.82645574479437
20
26.779683197273076
30
0
40
1.6999999999999948
100
AcDbArc
50
-45.000000000030383
51
135.00000000002296
0
LINE
5
801
100
AcDbEntity
8
0
100
AcDbLine
10
-184.62437421677788
20
25.577601669255309
30
0
11
-184.62437421677771
21
22.38592778132487
31
0
0
LWPOLYLINE
5
802
100
AcDbEntity
8
0
100
AcDbPolyline
90
4
70
1
43
0.0
10
-238.42321465459759
20
265.56528210705812
42
-0.99999999999999989
10
-232.42321465459756
20
265.56528210705801
10
-232.42321465459756
20
220.56528210705795
42
-0.99999999999999989
10
-238.42321465459759
20
220.56528210705804
0
LWPOLYLINE
5
803
100
AcDbEntity
8
0
100
AcDbPolyline
90
4
70
1
43
0.0
10
-232.42321465459759
20
383.56528210705841
42
-0.99999999999999989
10
-238.42321465459761
20
383.56528210705824
10
-238.42321465459764
20
428.56528210705824
42
-0.99999999999999989
10
-232.42321465459764
20
428.56528210705824
0
LWPOLYLINE
5
804
100
AcDbEntity
8
0
100
AcDbPolyline
90
4
70
1
43
0.0
10
-275.97848294553074
20
379.61250609814812
42
-0.99999999999999989
10
-281.97848294553074
20
379.61250609814829
10
-281.97848294553074
20
424.61250609814846
42
-0.99999999999999989
10
-275.97848294553074
20
424.61250609814846
0
LWPOLYLINE
5
805
100
AcDbEntity
8
0
100
AcDbPolyline
90
4
70
1
43
0.0
10
-281.9784829455308
20
261.61250609814726
42
-0.99999999999999989
10
-275.9784829455308
20
261.61250609814738
10
-275.97848294553086
20
216.61250609814715
42
-0.99999999999999989
10
-281.97848294553086
20
216.61250609814715
0
LWPOLYLINE
5
806
100
AcDbEntity
8
0
100
AcDbPolyline
90
4
70
1
43
0.0
10
-275.97848294553097
20
-77.585103065426992
10
-275.97848294553097
20
-42.585103065426793
42
0.99999999999999989
10
-281.97848294553103
20
-42.585103065426779
10
-281.97848294553103
20
-77.585103065426978
42
0.99999999999999989
0
ARC
5
807
100
AcDbEntity
8
0
100
AcDbCircle
10
-293.57524185533441
20
169.23195452618296
30
0
40
1.7000000000000168
100
AcDbArc
50
134.99999999995327
51
314.99999999995259
0
LINE
5
808
100
AcDbEntity
8
0
100
AcDbLine
10
-294.77732338335056
20
170.43403605420107
30
0
11
-294.77732338335056
21
173.62570994213047
31
0
0
ARC
5
809
100
AcDbEntity
8
0
100
AcDbCircle
10
-293.57524185533453
20
174.8277914701487
30
0
40
1.7000000000000168
100
AcDbArc
50
44.999999999940393
51
225.00000000005218
0
LINE
5
810
100
AcDbEntity
8
0
100
AcDbLine
10
-292.3731603273161
20
176.02987299816462
30
0
11
-289.18148643938707
21
176.02987299816459
31
0
0
ARC
5
811
100
AcDbEntity
8
0
100
AcDbCircle
10
-287.97940491136876
20
174.82779147014867
30
0
40
1.7000000000000168
100
AcDbArc
50
-44.999999999950532
51
135.0000000000569
0
LINE
5
812
100
AcDbEntity
8
0
100
AcDbLine
10
-286.77732338335056
20
173.62570994213254
30
0
11
-286.77732338335056
21
170.434036054199
31
0
0
ARC
5
813
100
AcDbEntity
8
0
100
AcDbCircle
10
-287.9794049113687
20
169.2319545261829
30
0
40
1.7000000000000168
100
AcDbArc
50
-134.99999999994444
51
44.999999999951228
0
LINE
5
814
100
AcDbEntity
8
0
100
AcDbLine
10
-289.18148643938468
20
168.02987299816459
30
0
11
-292.37316032731826
21
168.02987299816482
31
0
0
ARC
5
815
100
AcDbEntity
8
0
100
AcDbCircle
10
-322.97940491136893
20
174.8277914701487
30
0
40
1.7000000000000168
100
AcDbArc
50
-44.999999999947839
51
135.00000000005082
0
LINE
5
816
100
AcDbEntity
8
0
100
AcDbLine
10
-321.77732338335068
20
173.62570994213263
30
0
11
-321.77732338335062
21
170.43403605419888
31
0
0
ARC
5
817
100
AcDbEntity
8
0
100
AcDbCircle
10
-322.97940491136893
20
169.2319545261829
30
0
40
1.7000000000000419
100
AcDbArc
50
-134.99999999994174
51
44.99999999994445
0
LINE
5
818
100
AcDbEntity
8
0
100
AcDbLine
10
-324.18148643938486
20
168.02987299816454
30
0
11
-327.37316032731877
21
168.02987299816462
31
0
0
ARC
5
819
100
AcDbEntity
8
0
100
AcDbCircle
10
-328.5752418553347
20
169.2319545261829
30
0
40
1.7000000000000168
100
AcDbArc
50
134.99999999994378
51
314.99999999994378
0
LINE
5
820
100
AcDbEntity
8
0
100
AcDbLine
10
-329.77732338335068
20
170.43403605420124
30
0
11
-329.77732338335068
21
173.62570994213033
31
0
0
ARC
5
821
100
AcDbEntity
8
0
100
AcDbCircle
10
-328.5752418553347
20
174.82779147014867
30
0
40
1.7000000000000168
100
AcDbArc
50
44.99999999994175
51
225.00000000005619
0
LINE
5
822
100
AcDbEntity
8
0
100
AcDbLine
10
-327.37316032731633
20
176.02987299816459
30
0
11
-324.18148643938713
21
176.02987299816476
31
0
0
ARC
5
823
100
AcDbEntity
8
0
100
AcDbCircle
10
-291.71008923897159
20
118.82734932925523
30
0
40
1.700000000000004
100
AcDbArc
50
-44.999999999960707
51
135.00000085381203
0
LINE
5
824
100
AcDbEntity
8
0
100
AcDbLine
10
-290.50800771095362
20
117.62526780123891
30
0
11
-290.50800771095362
21
74.433593913305359
31
0
0
ARC
5
825
100
AcDbEntity
8
0
100
AcDbCircle
10
-291.71008923897136
20
73.231512385288866
30
0
40
1.700000000000004
100
AcDbArc
50
-134.99999999996714
51
44.999999999970193
0
LINE
5
826
100
AcDbEntity
8
0
100
AcDbLine
10
-292.9121707669878
20
72.029430857271052
30
0
11
-296.10384465492069
21
72.029430857271052
31
0
0
ARC
5
827
100
AcDbEntity
8
0
100
AcDbCircle
10
-297.30592618293718
20
73.231512385288909
30
0
40
1.700000000000004
100
AcDbArc
50
134.99999999996817
51
314.99999914619474
0
LINE
5
828
100
AcDbEntity
8
0
100
AcDbLine
10
-298.50800771095362
20
74.43359391330668
30
0
11
-298.50800771095362
21
117.62526780123714
31
0
0
ARC
5
829
100
AcDbEntity
8
0
100
AcDbCircle
10
-297.30592618293736
20
118.82734932925516
30
0
40
1.700000000000004
100
AcDbArc
50
44.999999999954611
51
225.0000008537277
0
LINE
5
830
100
AcDbEntity
8
0
100
AcDbLine
10
-296.10384465491927
20
120.02943085727134
30
0
11
-292.91217076698968
21
120.02943085727132
31
0
0
ARC
5
831
100
AcDbEntity
8
0
100
AcDbCircle
10
-293.57524185533401
20
22.826907188361215
30
0
40
1.7000000000000233
100
AcDbArc
50
44.999999999976289
51
224.99999999997502
0
LINE
5
832
100
AcDbEntity
8
0
100
AcDbLine
10
-292.37316032731638
20
24.028988716377849
30
0
11
-289.18148643938582
21
24.028988716377839
31
0
0
ARC
5
833
100
AcDbEntity
8
0
100
AcDbCircle
10
-287.97940491136825
20
22.826907188361183
30
0
40
1.7000000000000293
100
AcDbArc
50
-44.999999999977405
51
135.00000000002186
0
LINE
5
834
100
AcDbEntity
8
0
100
AcDbLine
10
-286.77732338335062
20
21.624825660344502
30
0
11
-286.77732338335062
21
18.433151772412081
31
0
0
ARC
5
835
100
AcDbEntity
8
0
100
AcDbCircle
10
-287.97940491136819
20
17.231070244395376
30
0
40
1.6999999999999884
100
AcDbArc
50
-134.99999999997817
51
44.999999999979345
0
LINE
5
836
100
AcDbEntity
8
0
100
AcDbLine
10
-289.18148643938486
20
16.028988716377796
30
0
11
-292.37316032731729
21
16.028988716377807
31
0
0
ARC
5
837
100
AcDbEntity
8
0
100
AcDbCircle
10
-293.57524185533396
20
17.231070244395386
30
0
40
1.7000000000000279
100
AcDbArc
50
134.999999999979
51
314.99999999997817
0
LINE
5
838
100
AcDbEntity
8
0
100
AcDbLine
10
-294.77732338335068
20
18.433151772412987
30
0
11
-294.7773233833517
21
21.624825660344577
31
0
0
ARC
5
839
100
AcDbEntity
8
0
100
AcDbCircle
10
-328.5752418553343
20
17.23107024439539
30
0
40
1.6999999999999507
100
AcDbArc
50
134.99999999996581
51
314.99999999996584
0
LINE
5
840
100
AcDbEntity
8
0
100
AcDbLine
10
-329.77732338335068
20
18.433151772413204
30
0
11
-329.77732338335073
21
21.624825660343454
31
0
0
ARC
5
841
100
AcDbEntity
8
0
100
AcDbCircle
10
-328.57524185533413
20
22.826907188361201
30
0
40
1.699999999999982
100
AcDbArc
50
44.99999999997798
51
225.00000000002717
0
LINE
5
842
100
AcDbEntity
8
0
100
AcDbLine
10
-327.37316032731655
20
24.028988716377849
30
0
11
-324.18148643938605
21
24.02898871637786
31
0
0
ARC
5
843
100
AcDbEntity
8
0
100
AcDbCircle
10
-322.97940491136842
20
22.826907188361218
30
0
40
1.7000000000000357
100
AcDbArc
50
-44.999999999969369
51
135.00000000002353
0
LINE
5
844
100
AcDbEntity
8
0
100
AcDbLine
10
-321.77732338335062
20
21.624825660344705
30
0
11
-321.77732338335068
21
18.433151772411946
31
0
0
ARC
5
845
100
AcDbEntity
8
0
100
AcDbCircle
10
-322.97940491136848
20
17.231070244395422
30
0
40
1.6999999999999995
100
AcDbArc
50
-134.99999999997775
51
44.999999999969603
0
LINE
5
846
100
AcDbEntity
8
0
100
AcDbLine
10
-324.18148643938514
20
16.028988716377825
30
0
11
-327.37316032731792
21
16.028988716377576
31
0
0
ARC
5
847
100
AcDbEntity
8
0
100
AcDbCircle
10
-322.97940478396856
20
-115.76804547382054
30
0
40
1.7000000000000168
100
AcDbArc
50
-135.00000000002981
51
45.000006037058846
0
LINE
5
848
100
AcDbEntity
8
0
100
AcDbLine
10
-324.1814863119863
20
-116.97012700183703
30
0
11
-327.37316045471999
21
-116.97012700183699
31
0
0
ARC
5
849
100
AcDbEntity
8
0
100
AcDbCircle
10
-328.57524198273779
20
-115.76804547382054
30
0
40
1.7000000000000137
100
AcDbArc
50
134.99999392747819
51
314.99999996456916
0
LINE
5
850
100
AcDbEntity
8
0
100
AcDbLine
10
-329.7773233833517
20
-114.56596381840021
30
0
11
-329.77732338335181
21
-111.37429005787286
31
0
0
ARC
5
851
100
AcDbEntity
8
0
100
AcDbCircle
10
-328.57524185533543
20
-110.17220852985491
30
0
40
1.7000000000000293
100
AcDbArc
50
45.000000000036579
51
225.00000000003723
0
LINE
5
852
100
AcDbEntity
8
0
100
AcDbLine
10
-327.37316032731906
20
-108.970127001837
30
0
11
-324.18148643938605
21
-108.97012700183697
31
0
0
ARC
5
853
100
AcDbEntity
8
0
100
AcDbCircle
10
-322.97940491136967
20
-110.17220852985494
30
0
40
1.7000000000000293
100
AcDbArc
50
-44.999999999960053
51
134.99999999996209
0
LINE
5
854
100
AcDbEntity
8
0
100
AcDbLine
10
-321.7773233833517
20
-111.37429005787124
30
0
11
-321.77732338335176
21
-114.56596381840302
31
0
0
ARC
5
855
100
AcDbEntity
8
0
100
AcDbCircle
10
-293.57524185533526
20
-115.76804547382081
30
0
40
1.7000000000000293
100
AcDbArc
50
134.99999999996615
51
314.99999999996783
0
LINE
5
856
100
AcDbEntity
8
0
100
AcDbLine
10
-294.7773233833517
20
-114.56596394580295
30
0
11
-294.7773233833517
21
-111.37429018527554
31
0
0
ARC
5
857
100
AcDbEntity
8
0
100
AcDbCircle
10
-293.57524198273785
20
-110.17220852985511
30
0
40
1.7000000000000293
100
AcDbArc
50
45.000000000045048
51
225.00000603713673
0
LINE
5
858
100
AcDbEntity
8
0
100
AcDbLine
10
-292.37316045472164
20
-108.97012700183701
30
0
11
-289.18148631198454
21
-108.97012700183697
31
0
0
ARC
5
859
100
AcDbEntity
8
0
100
AcDbCircle
10
-287.97940478396845
20
-110.17220852985517
30
0
40
1.7000000000000262
100
AcDbArc
50
-45.00000607238772
51
134.99999999994986
0
LINE
5
860
100
AcDbEntity
8
0
100
AcDbLine
10
-286.7773233833517
20
-111.37429018527271
30
0
11
-286.7773233833517
21
-114.56596394580427
31
0
0
ARC
5
861
100
AcDbEntity
8
0
100
AcDbCircle
10
-287.9794049113695
20
-115.76804547382079
30
0
40
1.7000000000000168
100
AcDbArc
50
-135.00000000004269
51
44.999999999969525
0
LINE
5
862
100
AcDbEntity
8
0
100
AcDbLine
10
-289.18148643938753
20
-116.97012700183703
30
0
11
-292.37316032731877
21
-116.97012700183865
31
0
0
ARC
5
863
100
AcDbEntity
8
0
100
AcDbCircle
10
-328.57524198273757
20
464.82779147015094
30
0
40
1.7000000000000419
100
AcDbArc
50
44.99999999991195
51
225.00000085368566
0
LINE
5
864
100
AcDbEntity
8
0
100
AcDbLine
10
-327.37316045471857
20
466.02987299816624
30
0
11
-324.18148631198744
21
466.02987299816624
31
0
0
ARC
5
865
100
AcDbEntity
8
0
100
AcDbCircle
10
-322.97940478396845
20
464.82779147015094
30
0
40
1.7000000000000419
100
AcDbArc
50
-44.999999999956643
51
135.00000085381848
0
LINE
5
866
100
AcDbEntity
8
0
100
AcDbLine
10
-321.77732325595036
20
463.62570994213468
30
0
11
-321.77732325595036
21
460.43404618583418
31
0
0
ARC
5
867
100
AcDbEntity
8
0
100
AcDbCircle
10
-322.97939465225068
20
459.23195452618552
30
0
40
1.7000000000000148
100
AcDbArc
50
-45.000241459157145
51
45.00048291414187
0
ARC
5
868
100
AcDbEntity
8
0
100
AcDbCircle
10
-322.97939465225068
20
459.23195452618552
30
0
40
1.7000000000000419
100
AcDbArc
50
225.00000000010161
51
314.99975854084283
0
LINE
5
869
100
AcDbEntity
8
0
100
AcDbLine
10
-324.18147618026575
20
458.02987299816618
30
0
11
-327.37317058644032
21
458.02987299816618
31
0
0
ARC
5
870
100
AcDbEntity
8
0
100
AcDbCircle
10
-328.57525211445528
20
459.23195452618558
30
0
40
1.700000000000115
100
AcDbArc
50
225.00024145919781
51
314.99999999989433
0
ARC
5
871
100
AcDbEntity
8
0
100
AcDbCircle
10
-328.57525211445528
20
459.23195452618558
30
0
40
1.7000000000000326
100
AcDbArc
50
134.99951708578229
51
225.00024145919781
0
LINE
5
872
100
AcDbEntity
8
0
100
AcDbLine
10
-329.77732351075394
20
460.43404618583577
30
0
11
-329.77732351075389
21
463.62570994213297
31
0
0
LWPOLYLINE
5
873
100
AcDbEntity
8
0
100
AcDbPolyline
90
10
70
1
43
0.0
10
-292.37317058644027
20
458.02987299816618
42
-0.41421232804551289
10
-294.77732857658003
20
458.02986793229741
42
-0.41421726533935738
10
-294.777323510754
20
460.43404618583571
10
-294.77732351075667
20
463.62570994213593
42
-0.99999999999999989
10
-292.37316045471857
20
466.02987299816624
10
-289.1814863119863
20
466.02987299816738
42
-0.99999999999999989
10
-286.77732325595048
20
463.62570994213462
10
-286.77732325595053
20
460.43404618583423
42
-0.41421726533882069
10
-286.77731819012513
20
458.02986793229809
42
-0.41421232804571195
10
-289.18147618026563
20
458.02987299816613
0
ARC
5
874
100
AcDbEntity
8
0
100
AcDbCircle
10
-269.77640149000257
20
428.71639203960541
30
0
40
1.7000000000000419
100
AcDbArc
50
134.99999999996345
51
314.99999999996339
0
LINE
5
875
100
AcDbEntity
8
0
100
AcDbLine
10
-270.97848301801895
20
429.91847356762332
30
0
11
-270.97848301801895
21
477.51431051158602
31
0
0
LINE
5
876
100
AcDbEntity
8
0
100
AcDbLine
10
-270.97848301801895
20
477.51431051158602
30
0
11
-327.67958205671209
21
477.51431051158613
31
0
0
ARC
5
877
100
AcDbEntity
8
0
100
AcDbCircle
10
-327.67958205671209
20
475.51431051158636
30
0
40
1.9999999999997442
100
AcDbArc
50
90
51
135.00000000000347
0
LINE
5
878
100
AcDbEntity
8
0
100
AcDbLine
10
-329.09379561908503
20
476.92852407395912
30
0
11
-332.92222274383136
21
473.10009694921291
31
0
0
ARC
5
879
100
AcDbEntity
8
0
100
AcDbCircle
10
-331.50800918145842
20
471.68588338683975
30
0
40
1.9999999999999458
100
AcDbArc
50
134.99999999999542
51
180
0
LINE
5
880
100
AcDbEntity
8
0
100
AcDbLine
10
-333.50800918145831
20
471.68588338683975
30
0
11
-333.50800918145836
21
155.02943085727151
31
0
0
LINE
5
881
100
AcDbEntity
8
0
100
AcDbLine
10
-333.50800918145836
20
155.02943085727151
30
0
11
-318.5080076384653
21
155.02943085727156
31
0
0
LINE
5
882
100
AcDbEntity
8
0
100
AcDbLine
10
-318.5080076384653
20
155.02943085727156
30
0
11
-318.50800763846536
21
165.62526780123738
31
0
0
ARC
5
883
100
AcDbEntity
8
0
100
AcDbCircle
10
-317.30592611044932
20
166.82734932925567
30
0
40
1.6999999999999917
100
AcDbArc
50
44.999999999943782
51
225.00000085371889
0
LINE
5
884
100
AcDbEntity
8
0
100
AcDbLine
10
-316.10384458243101
20
168.02943085727162
30
0
11
-308.91217069450187
21
168.02943085727162
31
0
0
ARC
5
885
100
AcDbEntity
8
0
100
AcDbCircle
10
-307.71008916648356
20
166.8273493292557
30
0
40
1.700000000000067
100
AcDbArc
50
-44.99999999994921
51
135.0000000000569
0
LINE
5
886
100
AcDbEntity
8
0
100
AcDbLine
10
-306.5080076384653
20
165.62526780123957
30
0
11
-306.50800763846541
21
26.433593913305042
31
0
0
ARC
5
887
100
AcDbEntity
8
0
100
AcDbCircle
10
-307.71008916648304
20
25.23151238528845
30
0
40
1.7000000000000135
100
AcDbArc
50
-134.99999999997723
51
44.999999999975273
0
LINE
5
888
100
AcDbEntity
8
0
100
AcDbLine
10
-308.91217069449971
20
24.029430857270832
30
0
11
-316.10384458243226
21
24.029430857270839
31
0
0
ARC
5
889
100
AcDbEntity
8
0
100
AcDbCircle
10
-317.30592611044887
20
25.231512385288468
30
0
40
1.700000000000004
100
AcDbArc
50
134.99999999997146
51
314.99999999997561
0
LINE
5
890
100
AcDbEntity
8
0
100
AcDbLine
10
-318.50800763846541
20
26.433593913306215
30
0
11
-318.50800763846541
21
37.029430857270896
31
0
0
LINE
5
891
100
AcDbEntity
8
0
100
AcDbLine
10
-318.50800763846541
20
37.029430857270896
30
0
11
-333.50800918145842
21
37.02943085727091
31
0
0
LINE
5
892
100
AcDbEntity
8
0
100
AcDbLine
10
-333.50800918145842
20
37.02943085727091
30
0
11
-333.50800918145853
21
-122.48590950847674
31
0
0
LINE
5
893
100
AcDbEntity
8
0
100
AcDbLine
10
-333.50800918145853
20
-122.48590950847674
30
0
11
-270.97848301801923
21
-122.48590950847678
31
0
0
LINE
5
894
100
AcDbEntity
8
0
100
AcDbLine
10
-270.97848301801923
20
-122.48590950847678
30
0
11
-270.97848301801918
21
-74.890072564512067
31
0
0
ARC
5
895
100
AcDbEntity
8
0
100
AcDbCircle
10
-269.77640149000268
20
-73.687991036494267
30
0
40
1.7000000000000293
100
AcDbArc
50
45.00000000002337
51
225.00000000003115
0
LINE
5
896
100
AcDbEntity
8
0
100
AcDbLine
10
-268.57431996198602
20
-72.485909508476624
30
0
11
-262.97848301801918
21
-72.485909508476652
31
0
0
LINE
5
897
100
AcDbEntity
8
0
100
AcDbLine
10
-262.97848301801918
20
-72.485909508476652
30
0
11
-262.97848301801918
21
-56.485909508476567
31
0
0
LINE
5
898
100
AcDbEntity
8
0
100
AcDbLine
10
-262.97848301801918
20
-56.485909508476567
30
0
11
-268.57431996198511
21
-56.48590950847656
31
0
0
ARC
5
899
100
AcDbEntity
8
0
100
AcDbCircle
10
-269.77640149000263
20
-55.283827980459819
30
0
40
1.700000000000067
100
AcDbArc
50
134.99999999997155
51
315.00000000001847
0
LINE
5
900
100
AcDbEntity
8
0
100
AcDbLine
10
-270.97848301801923
20
-54.081746452442019
30
0
11
-270.97848301801912
21
46.10992743548919
31
0
0
ARC
5
901
100
AcDbEntity
8
0
100
AcDbCircle
10
-269.77640149000263
20
47.312008963507026
30
0
40
1.7000000000000233
100
AcDbArc
50
44.999999999992887
51
225.00000085376598
0
LINE
5
902
100
AcDbEntity
8
0
100
AcDbLine
10
-268.57431996198534
20
48.514090491524016
30
0
11
-262.97848301801912
21
48.514090491524016
31
0
0
LINE
5
903
100
AcDbEntity
8
0
100
AcDbLine
10
-262.97848301801912
20
48.514090491524016
30
0
11
-262.97848301801912
21
64.514090491524087
31
0
0
LINE
5
904
100
AcDbEntity
8
0
100
AcDbLine
10
-262.97848301801912
20
64.514090491524087
30
0
11
-268.57431996198579
21
64.514090491524087
31
0
0
ARC
5
905
100
AcDbEntity
8
0
100
AcDbCircle
10
-269.77640149000263
20
65.716172019541474
30
0
40
1.7000000000000293
100
AcDbArc
50
134.99999999996751
51
315.00000085374057
0
LINE
5
906
100
AcDbEntity
8
0
100
AcDbLine
10
-270.97848301801912
20
66.918253547559331
30
0
11
-270.97848301801901
21
288.11014745555178
31
0
0
ARC
5
907
100
AcDbEntity
8
0
100
AcDbCircle
10
-269.77640149000263
20
289.3122289835697
30
0
40
1.7000000000000419
100
AcDbArc
50
44.99999999992955
51
225.00000000003655
0
LINE
5
908
100
AcDbEntity
8
0
100
AcDbLine
10
-268.57431996198397
20
290.51431051158539
30
0
11
-262.97848301801901
21
290.51431051158539
31
0
0
LINE
5
909
100
AcDbEntity
8
0
100
AcDbLine
10
-262.97848301801901
20
290.51431051158539
30
0
11
-262.97848301801901
21
306.51431051158545
31
0
0
LINE
5
910
100
AcDbEntity
8
0
100
AcDbLine
10
-262.97848301801901
20
306.51431051158545
30
0
11
-268.57431996198693
21
306.51431051158545
31
0
0
ARC
5
911
100
AcDbEntity
8
0
100
AcDbCircle
10
-269.77640149000257
20
307.71639203960405
30
0
40
1.7000000000000419
100
AcDbArc
50
134.99999999996479
51
314.99999999992957
0
LINE
5
912
100
AcDbEntity
8
0
100
AcDbLine
10
-270.97848301801901
20
308.91847356762196
30
0
11
-270.97848301801901
21
409.11014745555298
31
0
0
ARC
5
913
100
AcDbEntity
8
0
100
AcDbCircle
10
-269.77640149000257
20
410.31222898357095
30
0
40
1.7000000000000419
100
AcDbArc
50
44.999999999898407
51
225.00000000003655
0
LINE
5
914
100
AcDbEntity
8
0
100
AcDbLine
10
-268.57431996198329
20
411.51431051158596
30
0
11
-262.97848301801895
21
411.51431051158596
31
0
0
LINE
5
915
100
AcDbEntity
8
0
100
AcDbLine
10
-262.97848301801895
20
411.51431051158596
30
0
11
-262.97848301801895
21
427.51431051158602
31
0
0
LINE
5
916
100
AcDbEntity
8
0
100
AcDbLine
10
-262.97848301801895
20
427.51431051158602
30
0
11
-268.57431996198619
21
427.5143105115875
31
0
0
ARC
5
917
100
AcDbEntity
8
0
100
AcDbCircle
10
-299.71008923897142
20
176.15385088977249
30
0
40
1.7000000000000419
100
AcDbArc
50
-134.99999999996277
51
45.000000000037247
0
LINE
5
918
100
AcDbEntity
8
0
100
AcDbLine
10
-300.9121707669878
20
174.95176936175454
30
0
11
-304.10384465492086
21
174.95176936175454
31
0
0
ARC
5
919
100
AcDbEntity
8
0
100
AcDbCircle
10
-305.30592618293724
20
176.15385088977249
30
0
40
1.6999999999999915
100
AcDbArc
50
134.99999999996209
51
314.99999999996277
0
LINE
5
920
100
AcDbEntity
8
0
100
AcDbLine
10
-306.50800771095356
20
177.3559324177904
30
0
11
-306.50800771095356
21
180.54760630572042
31
0
0
ARC
5
921
100
AcDbEntity
8
0
100
AcDbCircle
10
-305.30592618293724
20
181.74968783373834
30
0
40
1.7000000000000419
100
AcDbArc
50
44.99999999995665
51
225.00000000003791
0
LINE
5
922
100
AcDbEntity
8
0
100
AcDbLine
10
-304.10384465491916
20
182.9517693617546
30
0
11
-300.9121707669895
21
182.9517693617546
31
0
0
ARC
5
923
100
AcDbEntity
8
0
100
AcDbCircle
10
-299.71008923897148
20
181.74968783373828
30
0
40
1.7000000000000419
100
AcDbArc
50
-44.999999999964118
51
135.00000000004064
0
LINE
5
924
100
AcDbEntity
8
0
100
AcDbLine
10
-298.50800771095356
20
180.54760630572187
30
0
11
-298.50800771095504
21
177.35593241779043
31
0
0
ARC
5
925
100
AcDbEntity
8
0
100
AcDbCircle
10
-299.71008923897148
20
15.905010824770752
30
0
40
1.7000000000000262
100
AcDbArc
50
-44.999999999966818
51
135.00000000003328
0
LINE
5
926
100
AcDbEntity
8
0
100
AcDbLine
10
-298.50800771095362
20
14.702929296754288
30
0
11
-298.50800771095362
21
11.511255408821402
31
0
0
ARC
5
927
100
AcDbEntity
8
0
100
AcDbCircle
10
-299.71008923897153
20
10.309173880804941
30
0
40
1.7000000000000144
100
AcDbArc
50
-135.0000000000021
51
44.999999999965368
0
LINE
5
928
100
AcDbEntity
8
0
100
AcDbLine
10
-300.91217076698871
20
9.1070923527878538
30
0
11
-304.10384465492001
21
9.1070923527878591
31
0
0
ARC
5
929
100
AcDbEntity
8
0
100
AcDbCircle
10
-305.3059261829373
20
10.309173880804943
30
0
40
1.7000000000000137
100
AcDbArc
50
134.99999999996459
51
315.00000000000489
0
LINE
5
930
100
AcDbEntity
8
0
100
AcDbLine
10
-306.50800771095368
20
11.511255408822809
30
0
11
-306.50800771095368
21
14.702929296752878
31
0
0
ARC
5
931
100
AcDbEntity
8
0
100
AcDbCircle
10
-305.3059261829373
20
15.905010824770752
30
0
40
1.7000000000000388
100
AcDbArc
50
44.999999999999574
51
225.00000000003564
0
LINE
5
932
100
AcDbEntity
8
0
100
AcDbLine
10
-304.10384465492012
20
17.107092352787909
30
0
11
-300.91217076698933
21
17.107092352787213
31
0
0
CIRCLE
5
933
100
AcDbEntity
8
0
100
AcDbCircle
10
-422.29827295137216
20
-43.207847162180855
30
0
40
2.9999999999999978
0
CIRCLE
5
934
100
AcDbEntity
8
0
100
AcDbCircle
10
-398.29827295137221
20
-43.207847162180855
30
0
40
4.5000000000000009
0
ARC
5
935
100
AcDbEntity
8
0
100
AcDbCircle
10
-431.09619135086587
20
-26.906961052377785
30
0
40
1.7000000000000073
100
AcDbArc
50
135.00000000003607
51
315.00000000003473
0
LINE
5
936
100
AcDbEntity
8
0
100
AcDbLine
10
-432.29827287888378
20
-25.704879524361385
30
0
11
-432.29827287888384
21
-19.513205636428381
31
0
0
ARC
5
937
100
AcDbEntity
8
0
100
AcDbCircle
10
-431.09619135086587
20
-18.311124108411995
30
0
40
1.6999999999999695
100
AcDbArc
50
45.000000000004739
51
224.99999999996226
0
LINE
5
938
100
AcDbEntity
8
0
100
AcDbLine
10
-429.89410982284886
20
-17.109042580394792
30
0
11
-426.70243600740571
21
-17.109042580394803
31
0
0
ARC
5
939
100
AcDbEntity
8
0
100
AcDbCircle
10
-425.50035447938859
20
-18.311124108411985
30
0
40
1.700000000000004
100
AcDbArc
50
-45.000000000032919
51
135.00000085374151
0
LINE
5
940
100
AcDbEntity
8
0
100
AcDbLine
10
-424.29827295137216
20
-19.513205636429802
30
0
11
-424.29827295137216
21
-25.704879524359932
31
0
0
ARC
5
941
100
AcDbEntity
8
0
100
AcDbCircle
10
-425.50035447938848
20
-26.906961052377802
30
0
40
1.7000000000000326
100
AcDbArc
50
-135.00000000000676
51
45.00000000003692
0
LINE
5
942
100
AcDbEntity
8
0
100
AcDbLine
10
-426.70243600740577
20
-28.109042580394807
30
0
11
-429.89410982284801
21
-28.109042580394185
31
0
0
LWPOLYLINE
5
943
100
AcDbEntity
8
0
100
AcDbPolyline
90
8
70
1
43
0.0
10
-432.29827287888332
20
234.48679436357099
42
-0.99999999999999989
10
-429.89410982284903
20
236.89095741960526
10
-426.70243600740525
20
236.89095741960602
42
-0.99999999999999989
10
-424.29827295137238
20
234.48679436357037
10
-424.2982729513717
20
228.29512047563955
42
-0.99999999999999989
10
-426.70243600740594
20
225.89095741960523
10
-429.89410982284829
20
225.89095741960597
42
-0.99999999999999989
10
-432.29827287888406
20
228.29512047563873
0
CIRCLE
5
944
100
AcDbEntity
8
0
100
AcDbCircle
10
-398.2982729513725
20
251.98976200139128
30
0
40
4.5000000000000009
0
CIRCLE
5
945
100
AcDbEntity
8
0
100
AcDbCircle
10
-422.29827295137238
20
251.98976200139128
30
0
40
2.9999999999999978
0
ARC
5
946
100
AcDbEntity
8
0
100
AcDbCircle
10
-453.03003866201499
20
-9.5087332719836972
30
0
40
1.7000000000000011
100
AcDbArc
50
-45.000000000029821
51
134.99999999997161
0
LINE
5
947
100
AcDbEntity
8
0
100
AcDbLine
10
-451.8279571339985
20
-10.71081480000144
30
0
11
-451.82795713399844
21
-58.306651743966917
31
0
0
LINE
5
948
100
AcDbEntity
8
0
100
AcDbLine
10
-451.82795713399844
20
-58.306651743966917
30
0
11
-438.43312026252011
21
-58.306651743966867
31
0
0
ARC
5
949
100
AcDbEntity
8
0
100
AcDbCircle
10
-437.23103873450322
20
-59.508733271984212
30
0
40
1.7000000000000544
100
AcDbArc
50
-45.000000000034554
51
134.99999999998914
0
LINE
5
950
100
AcDbEntity
8
0
100
AcDbLine
10
-436.02895720648678
20
-60.710814800002098
30
0
11
-436.02895720648678
21
-65.306651616565546
31
0
0
ARC
5
951
100
AcDbEntity
8
0
100
AcDbCircle
10
-435.02895720648678
20
-65.306651616565588
30
0
40
0.99999999999994316
100
AcDbArc
50
180
51
270.00000000000324
0
LINE
5
952
100
AcDbEntity
8
0
100
AcDbLine
10
-435.02895720648672
20
-66.306651616565532
30
0
11
-429.02895720648678
21
-66.306651616565503
31
0
0
ARC
5
953
100
AcDbEntity
8
0
100
AcDbCircle
10
-429.02895720648672
20
-65.306651616565546
30
0
40
0.99999999999996092
100
AcDbArc
50
-90.000000000003254
51
0
0
LINE
5
954
100
AcDbEntity
8
0
100
AcDbLine
10
-428.02895720648678
20
-65.30665161656546
30
0
11
-428.02895720648678
21
-60.71081480000057
31
0
0
ARC
5
955
100
AcDbEntity
8
0
100
AcDbCircle
10
-426.82687567846892
20
-59.50873327198417
30
0
40
1.6999999999999855
100
AcDbArc
50
45.000000000008129
51
224.99999999996527
0
LINE
5
956
100
AcDbEntity
8
0
100
AcDbLine
10
-425.62479415045198
20
-58.306651743966881
30
0
11
-403.43312026252028
21
-58.30665174396686
31
0
0
ARC
5
957
100
AcDbEntity
8
0
100
AcDbCircle
10
-402.23103873450333
20
-59.508733271984184
30
0
40
1.700000000000004
100
AcDbArc
50
-45.000000000029821
51
134.99999999999105
0
LINE
5
958
100
AcDbEntity
8
0
100
AcDbLine
10
-401.02895720648684
20
-60.710814800001927
30
0
11
-401.02895720648689
21
-65.30665161656546
31
0
0
ARC
5
959
100
AcDbEntity
8
0
100
AcDbCircle
10
-400.02895720648695
20
-65.306651616565517
30
0
40
0.99999999999994316
100
AcDbArc
50
180
51
270.00000000000324
0
LINE
5
960
100
AcDbEntity
8
0
100
AcDbLine
10
-400.02895720648689
20
-66.30665161656546
30
0
11
-394.02895720648689
21
-66.306651616565475
31
0
0
ARC
5
961
100
AcDbEntity
8
0
100
AcDbCircle
10
-394.02895720648689
20
-65.306651616565517
30
0
40
0.99999999999996092
100
AcDbArc
50
-90
51
0
0
LINE
5
962
100
AcDbEntity
8
0
100
AcDbLine
10
-393.02895720648684
20
-65.30665161656546
30
0
11
-393.02895720648684
21
-60.710814800000676
31
0
0
ARC
5
963
100
AcDbEntity
8
0
100
AcDbCircle
10
-391.82687567846915
20
-59.508733271984141
30
0
40
1.6999999999999855
100
AcDbArc
50
45.000000000008299
51
224.99999999997257
0
LINE
5
964
100
AcDbEntity
8
0
100
AcDbLine
10
-390.6247941504522
20
-58.306651743966846
30
0
11
-389.02895720648689
21
-58.306651743966889
31
0
0
LINE
5
965
100
AcDbEntity
8
0
100
AcDbLine
10
-389.02895720648689
20
-58.306651743966889
30
0
11
-389.02895720648723
21
267.08856658317734
31
0
0
LINE
5
966
100
AcDbEntity
8
0
100
AcDbLine
10
-389.02895720648723
20
267.08856658317734
30
0
11
-390.62479415045254
21
267.08856658317734
31
0
0
ARC
5
967
100
AcDbEntity
8
0
100
AcDbCircle
10
-391.82687567846949
20
268.29064811119463
30
0
40
1.7000000000000168
100
AcDbArc
50
135.00000000002845
51
314.99999999999187
0
LINE
5
968
100
AcDbEntity
8
0
100
AcDbLine
10
-393.02895720648723
20
269.49272963921118
30
0
11
-393.02895720648723
21
274.08856645577595
31
0
0
ARC
5
969
100
AcDbEntity
8
0
100
AcDbCircle
10
-394.02895720648723
20
274.08856645577595
30
0
40
1.0000000000000142
100
AcDbArc
50
0
51
90
0
LINE
5
970
100
AcDbEntity
8
0
100
AcDbLine
10
-394.02895720648723
20
275.088566455776
30
0
11
-400.02895720648723
21
275.08856645577595
31
0
0
ARC
5
971
100
AcDbEntity
8
0
100
AcDbCircle
10
-400.02895720648723
20
274.08856645577595
30
0
40
1.0000000000000142
100
AcDbArc
50
90
51
180
0
LINE
5
972
100
AcDbEntity
8
0
100
AcDbLine
10
-401.02895720648723
20
274.08856645577595
30
0
11
-401.02895720648718
21
269.49272963921237
31
0
0
ARC
5
973
100
AcDbEntity
8
0
100
AcDbCircle
10
-402.23103873450373
20
268.29064811119457
30
0
40
1.7000000000000168
100
AcDbArc
50
-134.99999999999051
51
45.0000000000298
0
LINE
5
974
100
AcDbEntity
8
0
100
AcDbLine
10
-403.43312026252067
20
267.08856658317723
30
0
11
-425.62479415045232
21
267.08856658317723
31
0
0
ARC
5
975
100
AcDbEntity
8
0
100
AcDbCircle
10
-426.82687567846926
20
268.29064811119457
30
0
40
1.6999999999999915
100
AcDbArc
50
135.00000000003521
51
314.99999999999051
0
LINE
5
976
100
AcDbEntity
8
0
100
AcDbLine
10
-428.02895720648712
20
269.49272963921095
30
0
11
-428.02895720648712
21
274.08856645577589
31
0
0
ARC
5
977
100
AcDbEntity
8
0
100
AcDbCircle
10
-429.02895720648712
20
274.08856645577589
30
0
40
1.0000000000000142
100
AcDbArc
50
0
51
90
0
LINE
5
978
100
AcDbEntity
8
0
100
AcDbLine
10
-429.02895720648712
20
275.08856645577589
30
0
11
-435.02895720648712
21
275.08856645577589
31
0
0
ARC
5
979
100
AcDbEntity
8
0
100
AcDbCircle
10
-435.02895720648712
20
274.08856645577595
30
0
40
0.99999999999997868
100
AcDbArc
50
90
51
180
0
LINE
5
980
100
AcDbEntity
8
0
100
AcDbLine
10
-436.02895720648712
20
274.08856645577595
30
0
11
-436.02895720648712
21
269.49272963921248
31
0
0
ARC
5
981
100
AcDbEntity
8
0
100
AcDbCircle
10
-437.23103873450339
20
268.29064811119457
30
0
40
1.7000000000000168
100
AcDbArc
50
-134.99999999999051
51
45.000000000039286
0
LINE
5
982
100
AcDbEntity
8
0
100
AcDbLine
10
-438.43312026252033
20
267.08856658317723
30
0
11
-451.82795713399867
21
267.08856658317728
31
0
0
LINE
5
983
100
AcDbEntity
8
0
100
AcDbLine
10
-451.82795713399867
20
267.08856658317728
30
0
11
-451.82795713399867
21
219.49272963921283
31
0
0
ARC
5
984
100
AcDbEntity
8
0
100
AcDbCircle
10
-453.03003866201539
20
218.29064811119525
30
0
40
1.7000000000000168
100
AcDbArc
50
-135.00000000000273
51
45.000000000020322
0
LINE
5
985
100
AcDbEntity
8
0
100
AcDbLine
10
-454.23212019003256
20
217.08856658317819
30
0
11
-459.82795713399867
21
217.08856658317819
31
0
0
LINE
5
986
100
AcDbEntity
8
0
100
AcDbLine
10
-459.82795713399867
20
217.08856658317819
30
0
11
-459.82795713399867
21
201.08856658317819
31
0
0
LINE
5
987
100
AcDbEntity
8
0
100
AcDbLine
10
-459.82795713399867
20
201.08856658317819
30
0
11
-454.2321201900325
21
201.08856658317814
31
0
0
ARC
5
988
100
AcDbEntity
8
0
100
AcDbCircle
10
-453.03003866201539
20
199.8864850551609
30
0
40
1.6999999999999413
100
AcDbArc
50
-45.000000000018979
51
135.00000085375345
0
LINE
5
989
100
AcDbEntity
8
0
100
AcDbLine
10
-451.82795713399867
20
198.68440352714339
30
0
11
-451.8279571339985
21
10.097511312068299
31
0
0
ARC
5
990
100
AcDbEntity
8
0
100
AcDbCircle
10
-453.03003866201499
20
8.8954297840505419
30
0
40
1.7000000000000357
100
AcDbArc
50
-134.99999999999753
51
45.000000000030148
0
LINE
5
991
100
AcDbEntity
8
0
100
AcDbLine
10
-454.23212019003211
20
7.6933482560333193
30
0
11
-459.82795713399844
21
7.6933482560333157
31
0
0
LINE
5
992
100
AcDbEntity
8
0
100
AcDbLine
10
-459.82795713399844
20
7.6933482560333157
30
0
11
-459.82795713399844
21
-8.3066517439666736
31
0
0
LINE
5
993
100
AcDbEntity
8
0
100
AcDbLine
10
-459.82795713399844
20
-8.3066517439666736
30
0
11
-454.23212019003154
21
-8.306651743965956
31
0
0
CIRCLE
5
994
100
AcDbEntity
8
0
100
AcDbCircle
10
-538.99044607752307
20
-41.56410325318879
30
0
40
2.9999999999999942
0
CIRCLE
5
995
100
AcDbEntity
8
0
100
AcDbCircle
10
-514.99044607752307
20
-41.56410325318879
30
0
40
4.4999999999999964
0
ARC
5
996
100
AcDbEntity
8
0
100
AcDbCircle
10
-547.7883644770169
20
-25.263217143385717
30
0
40
1.6999999999999571
100
AcDbArc
50
135.00000000003473
51
315.000000000032
0
LINE
5
997
100
AcDbEntity
8
0
100
AcDbLine
10
-548.99044600503476
20
-24.061135615369317
30
0
11
-548.99044600503476
21
-17.86946172743632
31
0
0
ARC
5
998
100
AcDbEntity
8
0
100
AcDbCircle
10
-547.78836447701678
20
-16.667380199419949
30
0
40
1.6999999999999571
100
AcDbArc
50
45.00000000000292
51
224.99999999996189
0
LINE
5
999
100
AcDbEntity
8
0
100
AcDbLine
10
-546.58628294899972
20
-15.465298671402765
30
0
11
-543.39460913355663
21
-15.465298671402737
31
0
0
ARC
5
1000
100
AcDbEntity
8
0
100
AcDbCircle
10
-542.19252760553945
20
-16.667380199419977
30
0
40
1.7000000000000086
100
AcDbArc
50
-45.00000000003007
51
134.99999999999847
0
LINE
5
1001
100
AcDbEntity
8
0
100
AcDbLine
10
-540.99044607752296
20
-17.869461727437731
30
0
11
-540.99044607752307
21
-24.061135615367853
31
0
0
ARC
5
1002
100
AcDbEntity
8
0
100
AcDbCircle
10
-542.19252760553934
20
-25.263217143385731
30
0
40
1.7000000000000357
100
AcDbArc
50
-135.00000000000668
51
45.00000000003844
0
LINE
5
1003
100
AcDbEntity
8
0
100
AcDbLine
10
-543.39460913355663
20
-26.465298671402739
30
0
11
-546.58628294899916
21
-26.465298671402117
31
0
0
ARC
5
1004
100
AcDbEntity
8
0
100
AcDbCircle
10
-547.78836447701724
20
237.33261980057995
30
0
40
1.6999999999999917
100
AcDbArc
50
44.99999999999865
51
224.99999999996479
0
LINE
5
1005
100
AcDbEntity
8
0
100
AcDbLine
10
-546.58628294900006
20
238.53470132859707
30
0
11
-543.39460913355697
21
238.53470132859707
31
0
0
ARC
5
1006
100
AcDbEntity
8
0
100
AcDbCircle
10
-542.19252760553979
20
237.33261980058003
30
0
40
1.6999999999999915
100
AcDbArc
50
-45.000000000031143
51
135.00000000000338
0
LINE
5
1007
100
AcDbEntity
8
0
100
AcDbLine
10
-540.9904460775233
20
236.13053827256223
30
0
11
-540.99044607752342
21
229.93886438463204
31
0
0
ARC
5
1008
100
AcDbEntity
8
0
100
AcDbCircle
10
-542.19252760553979
20
228.73678285661424
30
0
40
1.6999999999999917
100
AcDbArc
50
-134.9999999999973
51
45.000000000033864
0
LINE
5
1009
100
AcDbEntity
8
0
100
AcDbLine
10
-543.39460913355686
20
227.53470132859707
30
0
11
-546.58628294900006
21
227.53470132859704
31
0
0
ARC
5
1010
100
AcDbEntity
8
0
100
AcDbCircle
10
-547.78836447701713
20
228.73678285661424
30
0
40
1.6999999999999915
100
AcDbArc
50
135.00000000003521
51
314.99999999999659
0
LINE
5
1011
100
AcDbEntity
8
0
100
AcDbLine
10
-548.99044600503498
20
229.93886438463062
30
0
11
-548.9904460050351
21
236.13053827256357
31
0
0
CIRCLE
5
1012
100
AcDbEntity
8
0
100
AcDbCircle
10
-514.99044607752342
20
253.63350591038312
30
0
40
4.4999999999999964
0
CIRCLE
5
1013
100
AcDbEntity
8
0
100
AcDbCircle
10
-538.99044607752342
20
253.63350591038312
30
0
40
2.9999999999999942
0
ARC
5
1014
100
AcDbEntity
8
0
100
AcDbCircle
10
-569.72221178816596
20
-7.8649893629915848
30
0
40
1.7000000000000317
100
AcDbArc
50
-45.000000000026411
51
134.9999999999736
0
LINE
5
1015
100
AcDbEntity
8
0
100
AcDbLine
10
-568.52013026014936
20
-9.0670708910092994
30
0
11
-568.52013026014936
21
-56.662907834974767
31
0
0
LINE
5
1016
100
AcDbEntity
8
0
100
AcDbLine
10
-568.52013026014936
20
-56.662907834974767
30
0
11
-555.12529338867103
21
-56.66290783497481
31
0
0
ARC
5
1017
100
AcDbEntity
8
0
100
AcDbCircle
10
-553.92321186065408
20
-57.864989362992105
30
0
40
1.7000000000000544
100
AcDbArc
50
-45.000000000033175
51
134.9999999999917
0
LINE
5
1018
100
AcDbEntity
8
0
100
AcDbLine
10
-552.72113033263759
20
-59.06707089100999
30
0
11
-552.7211303326377
21
-63.662907707573424
31
0
0
ARC
5
1019
100
AcDbEntity
8
0
100
AcDbCircle
10
-551.7211303326377
20
-63.66290770757341
30
0
40
1.0000000000000142
100
AcDbArc
50
180
51
270
0
LINE
5
1020
100
AcDbEntity
8
0
100
AcDbLine
10
-551.7211303326377
20
-64.662907707573424
30
0
11
-545.7211303326377
21
-64.662907707573382
31
0
0
ARC
5
1021
100
AcDbEntity
8
0
100
AcDbCircle
10
-545.72113033263759
20
-63.66290770757341
30
0
40
0.9999999999999698
100
AcDbArc
50
-90.000000000006523
51
0
0
LINE
5
1022
100
AcDbEntity
8
0
100
AcDbLine
10
-544.7211303326377
20
-63.662907707573325
30
0
11
-544.7211303326377
21
-59.067070891008441
31
0
0
ARC
5
1023
100
AcDbEntity
8
0
100
AcDbCircle
10
-543.51904880461996
20
-57.86498936299207
30
0
40
1.7000000000000357
100
AcDbArc
50
45.000000000005592
51
224.99999999996732
0
LINE
5
1024
100
AcDbEntity
8
0
100
AcDbLine
10
-542.3169672766029
20
-56.662907834974774
30
0
11
-520.12529338867114
21
-56.662907834974774
31
0
0
ARC
5
1025
100
AcDbEntity
8
0
100
AcDbCircle
10
-518.92321186065419
20
-57.864989362992112
30
0
40
1.700000000000004
100
AcDbArc
50
-45.000000000029971
51
134.99999999999071
0
LINE
5
1026
100
AcDbEntity
8
0
100
AcDbLine
10
-517.7211303326377
20
-59.067070891009863
30
0
11
-517.72113033263781
21
-63.662907707573389
31
0
0
ARC
5
1027
100
AcDbEntity
8
0
100
AcDbCircle
10
-516.72113033263781
20
-63.66290770757341
30
0
40
0.99999999999994316
100
AcDbArc
50
180
51
270
0
LINE
5
1028
100
AcDbEntity
8
0
100
AcDbLine
10
-516.72113033263781
20
-64.662907707573353
30
0
11
-510.72113033263776
21
-64.662907707573382
31
0
0
ARC
5
1029
100
AcDbEntity
8
0
100
AcDbCircle
10
-510.72113033263776
20
-63.66290770757341
30
0
40
0.9999999999999698
100
AcDbArc
50
-90
51
0
0
LINE
5
1030
100
AcDbEntity
8
0
100
AcDbLine
10
-509.72113033263776
20
-63.662907707573368
30
0
11
-509.72113033263776
21
-59.067070891008584
31
0
0
ARC
5
1031
100
AcDbEntity
8
0
100
AcDbCircle
10
-508.51904880462001
20
-57.86498936299207
30
0
40
1.6999999999999855
100
AcDbArc
50
45.000000000008299
51
224.9999999999707
0
LINE
5
1032
100
AcDbEntity
8
0
100
AcDbLine
10
-507.31696727660307
20
-56.662907834974774
30
0
11
-505.72113033263776
21
-56.662907834974817
31
0
0
LINE
5
1033
100
AcDbEntity
8
0
100
AcDbLine
10
-505.72113033263776
20
-56.662907834974817
30
0
11
-505.72113033263815
21
268.73231049216912
31
0
0
LINE
5
1034
100
AcDbEntity
8
0
100
AcDbLine
10
-505.72113033263815
20
268.73231049216912
30
0
11
-507.31696727660346
21
268.73231049216906
31
0
0
ARC
5
1035
100
AcDbEntity
8
0
100
AcDbCircle
10
-508.51904880462041
20
269.93439202018641
30
0
40
1.7000000000000168
100
AcDbArc
50
135.00000000002845
51
314.99999999999051
0
LINE
5
1036
100
AcDbEntity
8
0
100
AcDbLine
10
-509.72113033263815
20
271.13647354820296
30
0
11
-509.72113033263815
21
275.73231036476773
31
0
0
ARC
5
1037
100
AcDbEntity
8
0
100
AcDbCircle
10
-510.72113033263815
20
275.73231036476773
30
0
40
1.0000000000000142
100
AcDbArc
50
0
51
90
0
LINE
5
1038
100
AcDbEntity
8
0
100
AcDbLine
10
-510.72113033263815
20
276.73231036476773
30
0
11
-516.72113033263815
21
276.73231036476773
31
0
0
ARC
5
1039
100
AcDbEntity
8
0
100
AcDbCircle
10
-516.72113033263815
20
275.73231036476773
30
0
40
1.0000000000000142
100
AcDbArc
50
90
51
180
0
LINE
5
1040
100
AcDbEntity
8
0
100
AcDbLine
10
-517.72113033263827
20
275.73231036476773
30
0
11
-517.72113033263815
21
271.13647354820415
31
0
0
ARC
5
1041
100
AcDbEntity
8
0
100
AcDbCircle
10
-518.92321186065465
20
269.93439202018641
30
0
40
1.6999999999999664
100
AcDbArc
50
-134.9999999999919
51
45.0000000000298
0
LINE
5
1042
100
AcDbEntity
8
0
100
AcDbLine
10
-520.12529338867159
20
268.73231049216912
30
0
11
-542.31696727660324
21
268.73231049216906
31
0
0
ARC
5
1043
100
AcDbEntity
8
0
100
AcDbCircle
10
-543.51904880462018
20
269.93439202018635
30
0
40
1.6999999999999915
100
AcDbArc
50
135.00000000003521
51
314.99999999999187
0
LINE
5
1044
100
AcDbEntity
8
0
100
AcDbLine
10
-544.72113033263804
20
271.13647354820273
30
0
11
-544.72113033263804
21
275.73231036476767
31
0
0
ARC
5
1045
100
AcDbEntity
8
0
100
AcDbCircle
10
-545.72113033263815
20
275.73231036476773
30
0
40
1.0000000000000142
100
AcDbArc
50
0
51
90
0
LINE
5
1046
100
AcDbEntity
8
0
100
AcDbLine
10
-545.72113033263815
20
276.73231036476773
30
0
11
-551.72113033263815
21
276.73231036476773
31
0
0
ARC
5
1047
100
AcDbEntity
8
0
100
AcDbCircle
10
-551.72113033263815
20
275.73231036476773
30
0
40
1.0000000000000142
100
AcDbArc
50
90
51
180
0
LINE
5
1048
100
AcDbEntity
8
0
100
AcDbLine
10
-552.72113033263815
20
275.73231036476773
30
0
11
-552.72113033263815
21
271.13647354820426
31
0
0
ARC
5
1049
100
AcDbEntity
8
0
100
AcDbCircle
10
-553.92321186065442
20
269.93439202018635
30
0
40
1.7000000000000168
100
AcDbArc
50
-134.99999999999051
51
45.000000000039286
0
LINE
5
1050
100
AcDbEntity
8
0
100
AcDbLine
10
-555.12529338867137
20
268.73231049216901
30
0
11
-568.52013026014981
21
268.73231049216906
31
0
0
LINE
5
1051
100
AcDbEntity
8
0
100
AcDbLine
10
-568.52013026014981
20
268.73231049216906
30
0
11
-568.5201302601497
21
221.13647354820466
31
0
0
ARC
5
1052
100
AcDbEntity
8
0
100
AcDbCircle
10
-569.72221178816642
20
219.93439202018706
30
0
40
1.6999999999999915
100
AcDbArc
50
-135.00000000000338
51
45.000000000020989
0
LINE
5
1053
100
AcDbEntity
8
0
100
AcDbLine
10
-570.92429331618359
20
218.73231049217003
30
0
11
-576.5201302601497
21
218.73231049217009
31
0
0
LINE
5
1054
100
AcDbEntity
8
0
100
AcDbLine
10
-576.5201302601497
20
218.73231049217009
30
0
11
-576.5201302601497
21
202.73231049217009
31
0
0
LINE
5
1055
100
AcDbEntity
8
0
100
AcDbLine
10
-576.5201302601497
20
202.73231049217009
30
0
11
-570.92429331618359
21
202.73231049217
31
0
0
ARC
5
1056
100
AcDbEntity
8
0
100
AcDbCircle
10
-569.72221178816642
20
201.53022896415277
30
0
40
1.6999999999999413
100
AcDbArc
50
-45.000000000018979
51
135.00000085375478
0
LINE
5
1057
100
AcDbEntity
8
0
100
AcDbLine
10
-568.5201302601497
20
200.32814743613525
30
0
11
-568.52013026014947
21
11.741255221060349
31
0
0
ARC
5
1058
100
AcDbEntity
8
0
100
AcDbCircle
10
-569.72221178816608
20
10.539173693042605
30
0
40
1.6999999999999791
100
AcDbArc
50
-134.99999999999366
51
45.000000000027136
0
LINE
5
1059
100
AcDbEntity
8
0
100
AcDbLine
10
-570.92429331618303
20
9.3370921650253909
30
0
11
-576.52013026014947
21
9.3370921650253855
31
0
0
LINE
5
1060
100
AcDbEntity
8
0
100
AcDbLine
10
-576.52013026014947
20
9.3370921650253855
30
0
11
-576.52013026014947
21
-6.6629078349746074
31
0
0
LINE
5
1061
100
AcDbEntity
8
0
100
AcDbLine
10
-576.52013026014947
20
-6.6629078349746074
30
0
11
-570.92429331618257
21
-6.6629078349738702
31
0
0
ARC
5
1062
100
AcDbEntity
8
0
100
AcDbCircle
10
-633.28537885816456
20
85.941699785922069
30
0
40
1.7000000000000293
100
AcDbArc
50
45.000000171561254
51
224.99999791268738
0
LINE
5
1063
100
AcDbEntity
8
0
100
AcDbLine
10
-632.08329733374683
20
87.143781317538611
30
0
11
-596.48785099309112
21
87.143781317538625
31
0
0
LINE
5
1064
100
AcDbEntity
8
0
100
AcDbLine
10
-596.48785099309112
20
87.143781317538625
30
0
11
-596.48785098784435
21
135.14378131753915
31
0
0
LINE
5
1065
100
AcDbEntity
8
0
100
AcDbLine
10
-596.48785098784435
20
135.14378131753915
30
0
11
-632.08329732551999
21
135.14378131753909
31
0
0
ARC
5
1066
100
AcDbEntity
8
0
100
AcDbCircle
10
-633.2853788540499
20
136.3458628450434
30
0
40
1.7000000000000921
100
AcDbArc
50
134.99999992641611
51
314.99999992641409
0
LINE
5
1067
100
AcDbEntity
8
0
100
AcDbLine
10
-634.48746038052332
20
137.54794437460444
30
0
11
-634.4874603757346
21
143.14378131753921
31
0
0
LINE
5
1068
100
AcDbEntity
8
0
100
AcDbLine
10
-634.4874603757346
20
143.14378131753921
30
0
11
-659.48746015666325
21
143.14378131753918
31
0
0
LINE
5
1069
100
AcDbEntity
8
0
100
AcDbLine
10
-659.48746015666325
20
143.14378131753918
30
0
11
-664.48746015666325
21
148.14378131753924
31
0
0
LINE
5
1070
100
AcDbEntity
8
0
100
AcDbLine
10
-664.48746015666325
20
148.14378131753924
30
0
11
-664.48746015666325
21
190.14378293493627
31
0
0
ARC
5
1071
100
AcDbEntity
8
0
100
AcDbCircle
10
-665.48746015666325
20
190.14378293493652
30
0
40
0.99999999999994316
100
AcDbArc
50
0
51
90.000000000006523
0
LINE
5
1072
100
AcDbEntity
8
0
100
AcDbLine
10
-665.48746015666336
20
191.14378293493633
30
0
11
-674.48746131505902
21
191.1437829349363
31
0
0
ARC
5
1073
100
AcDbEntity
8
0
100
AcDbCircle
10
-674.48746131505914
20
190.14378293493652
30
0
40
0.99999999999976552
100
AcDbArc
50
89.999999999993491
51
180
0
LINE
5
1074
100
AcDbEntity
8
0
100
AcDbLine
10
-675.48746131505891
20
190.14378293493627
30
0
11
-675.48746131505891
21
185.54794430108413
31
0
0
ARC
5
1075
100
AcDbEntity
8
0
100
AcDbCircle
10
-676.68954284307756
20
184.34586277306849
30
0
40
1.7000000000000168
100
AcDbArc
50
-135.00000000001151
51
44.999999999928207
0
LINE
5
1076
100
AcDbEntity
8
0
100
AcDbLine
10
-677.89162437109496
20
183.14378124505157
30
0
11
-751.08329594223176
21
183.14378124505154
31
0
0
ARC
5
1077
100
AcDbEntity
8
0
100
AcDbCircle
10
-752.28537747024916
20
184.3458627730684
30
0
40
1.7000000000000419
100
AcDbArc
50
135.00000000007046
51
315.00000000001285
0
LINE
5
1078
100
AcDbEntity
8
0
100
AcDbLine
10
-753.48745899826781
20
185.5479443010841
30
0
11
-753.48745899826781
21
190.14378293493624
31
0
0
ARC
5
1079
100
AcDbEntity
8
0
100
AcDbCircle
10
-754.48745899826793
20
190.14378293493624
30
0
40
1.0000000000000853
100
AcDbArc
50
0
51
90
0
LINE
5
1080
100
AcDbEntity
8
0
100
AcDbLine
10
-754.48745899826793
20
191.14378293493627
30
0
11
-763.48746015666347
21
191.14378293493627
31
0
0
ARC
5
1081
100
AcDbEntity
8
0
100
AcDbCircle
10
-763.48746015666347
20
190.14378293493624
30
0
40
1.0000000000000142
100
AcDbArc
50
90
51
180
0
LINE
5
1082
100
AcDbEntity
8
0
100
AcDbLine
10
-764.48746015666347
20
190.14378293493624
30
0
11
-764.48746015666347
21
148.14378131753921
31
0
0
LINE
5
1083
100
AcDbEntity
8
0
100
AcDbLine
10
-764.48746015666347
20
148.14378131753921
30
0
11
-769.48746015666347
21
143.14378131753915
31
0
0
LINE
5
1084
100
AcDbEntity
8
0
100
AcDbLine
10
-769.48746015666347
20
143.14378131753915
30
0
11
-794.48745993759201
21
143.14378131753909
31
0
0
LINE
5
1085
100
AcDbEntity
8
0
100
AcDbLine
10
-794.48745993759201
20
143.14378131753909
30
0
11
-794.4874599328034
21
137.54794437460231
31
0
0
ARC
5
1086
100
AcDbEntity
8
0
100
AcDbCircle
10
-795.68954145927876
20
136.34586284504331
30
0
40
1.7000000000000794
100
AcDbArc
50
-135.00000002444804
51
44.999999975551965
0
LINE
5
1087
100
AcDbEntity
8
0
100
AcDbLine
10
-796.89162298780889
20
135.14378131753904
30
0
11
-832.48706932548225
21
135.14378131753904
31
0
0
LINE
5
1088
100
AcDbEntity
8
0
100
AcDbLine
10
-832.48706932548225
20
135.14378131753904
30
0
11
-832.48706932023549
21
87.143781317538497
31
0
0
LINE
5
1089
100
AcDbEntity
8
0
100
AcDbLine
10
-832.48706932023549
20
87.143781317538497
30
0
11
-796.89162297958183
21
87.143781317538526
31
0
0
ARC
5
1090
100
AcDbEntity
8
0
100
AcDbCircle
10
-795.68954145516398
20
85.941699785921926
30
0
40
1.7000000000000175
100
AcDbArc
50
-44.999998115654677
51
135.00000017679918
0
LINE
5
1091
100
AcDbEntity
8
0
100
AcDbLine
10
-794.48745988761277
20
84.739618297438909
30
0
11
-794.48745988282417
21
79.143781317538441
31
0
0
LINE
5
1092
100
AcDbEntity
8
0
100
AcDbLine
10
-794.48745988282417
20
79.143781317538441
30
0
11
-769.48746015666347
21
79.143781317538455
31
0
0
LINE
5
1093
100
AcDbEntity
8
0
100
AcDbLine
10
-769.48746015666347
20
79.143781317538455
30
0
11
-764.48746015666347
21
74.143781317538398
31
0
0
LINE
5
1094
100
AcDbEntity
8
0
100
AcDbLine
10
-764.48746015666347
20
74.143781317538398
30
0
11
-764.48746015666347
21
32.143779700141366
31
0
0
ARC
5
1095
100
AcDbEntity
8
0
100
AcDbCircle
10
-763.48746015666336
20
32.143779700141366
30
0
40
1.0000000000000853
100
AcDbArc
50
180
51
270
0
LINE
5
1096
100
AcDbEntity
8
0
100
AcDbLine
10
-763.48746015666336
20
31.143779700141355
30
0
11
-754.48745899826781
21
31.143779700141355
31
0
0
ARC
5
1097
100
AcDbEntity
8
0
100
AcDbCircle
10
-754.48745899826781
20
32.143779700141366
30
0
40
1.0000000000000098
100
AcDbArc
50
270
51
360
0
LINE
5
1098
100
AcDbEntity
8
0
100
AcDbLine
10
-753.48745899826781
20
32.143779700141359
30
0
11
-753.4874589982677
21
36.739618333993086
31
0
0
ARC
5
1099
100
AcDbEntity
8
0
100
AcDbCircle
10
-752.28537747024893
20
37.941699862008605
30
0
40
1.7000000000000197
100
AcDbArc
50
45.000000000015582
51
224.99999999992258
0
LINE
5
1100
100
AcDbEntity
8
0
100
AcDbLine
10
-751.0832959422321
20
39.143781390026092
30
0
11
-677.89162437109451
21
39.143781390026085
31
0
0
ARC
5
1101
100
AcDbEntity
8
0
100
AcDbCircle
10
-676.68954284307756
20
37.941699862008676
30
0
40
1.6999999999999884
100
AcDbArc
50
-44.999999999927027
51
134.999999999989
0
LINE
5
1102
100
AcDbEntity
8
0
100
AcDbLine
10
-675.48746131505891
20
36.739618333993086
30
0
11
-675.48746131505879
21
32.143779700141401
31
0
0
ARC
5
1103
100
AcDbEntity
8
0
100
AcDbCircle
10
-674.48746131505891
20
32.143779700141351
30
0
40
0.99999999999994316
100
AcDbArc
50
180
51
270
0
LINE
5
1104
100
AcDbEntity
8
0
100
AcDbLine
10
-674.48746131505891
20
31.143779700141408
30
0
11
-665.48746015666325
21
31.143779700141398
31
0
0
ARC
5
1105
100
AcDbEntity
8
0
100
AcDbCircle
10
-665.48746015666325
20
32.143779700141351
30
0
40
0.99999999999995648
100
AcDbArc
50
-90
51
0
0
LINE
5
1106
100
AcDbEntity
8
0
100
AcDbLine
10
-664.48746015666325
20
32.143779700141401
30
0
11
-664.48746015666325
21
74.143781317538455
31
0
0
LINE
5
1107
100
AcDbEntity
8
0
100
AcDbLine
10
-664.48746015666325
20
74.143781317538455
30
0
11
-659.48746015666325
21
79.143781317538512
31
0
0
LINE
5
1108
100
AcDbEntity
8
0
100
AcDbLine
10
-659.48746015666325
20
79.143781317538512
30
0
11
-634.48746043050255
21
79.143781317538512
31
0
0
LINE
5
1109
100
AcDbEntity
8
0
100
AcDbLine
10
-634.48746043050255
20
79.143781317538512
30
0
11
-634.48746042571395
21
84.739618297437119
31
0
0
CIRCLE
5
1110
100
AcDbEntity
8
0
100
AcDbCircle
10
-817.48706932023561
20
127.14378131753892
30
0
40
3.0000000000000382
0
CIRCLE
5
1111
100
AcDbEntity
8
0
100
AcDbCircle
10
-817.48706932023561
20
95.143781317538597
30
0
40
3.0000000000000382
0
CIRCLE
5
1112
100
AcDbEntity
8
0
100
AcDbCircle
10
-747.48746015666347
20
95.643781317538668
30
0
40
3.0000000000000315
0
LWPOLYLINE
5
1113
100
AcDbEntity
8
0
100
AcDbPolyline
90
3
70
1
43
0.0
10
-773.55946015666336
20
91.643898652592881
10
-780.48746015666336
20
103.64354664743018
10
-787.41546015666347
20
91.643898652592867
0
LWPOLYLINE
5
1114
100
AcDbEntity
8
0
100
AcDbPolyline
90
3
70
1
43
0.0
10
-721.41566338693895
20
91.643781317538625
10
-707.55925692638789
20
91.643781317538625
10
-714.48746015666347
20
103.64378131753875
0
LWPOLYLINE
5
1115
100
AcDbEntity
8
0
100
AcDbPolyline
90
3
70
1
43
0.0
10
-648.48746015666325
20
103.64354664743024
10
-655.41546015666324
20
91.643898652592938
10
-641.55946015666314
20
91.643898652592952
0
CIRCLE
5
1116
100
AcDbEntity
8
0
100
AcDbCircle
10
-681.48746015666336
20
95.643781317538696
30
0
40
3.0000000000000315
0
CIRCLE
5
1117
100
AcDbEntity
8
0
100
AcDbCircle
10
-611.48785099309112
20
95.143781317538711
30
0
40
3.0000000000000382
0
CIRCLE
5
1118
100
AcDbEntity
8
0
100
AcDbCircle
10
-611.48785099309112
20
127.14378131753904
30
0
40
3.0000000000000382
0
CIRCLE
5
1119
100
AcDbEntity
8
0
100
AcDbCircle
10
-602.68636326354158
20
-110.09213094566701
30
0
40
4.5000000000000195
0
CIRCLE
5
1120
100
AcDbEntity
8
0
100
AcDbCircle
10
-821.68636326354294
20
-110.09213094566682
30
0
40
3.5000000000000169
0
CIRCLE
5
1121
100
AcDbEntity
8
0
100
AcDbCircle
10
-728.18636326354238
20
-110.09213094566695
30
0
40
3.0000000000000244
0
CIRCLE
5
1122
100
AcDbEntity
8
0
100
AcDbCircle
10
-696.18636326354226
20
-110.09213094566698
30
0
40
3.0000000000000244
0
ARC
5
1123
100
AcDbEntity
8
0
100
AcDbCircle
10
-592.56194323104523
20
-93.890049417649834
30
0
40
1.7000000000000293
100
AcDbArc
50
134.99999999982185
51
314.99999999982151
0
LINE
5
1124
100
AcDbEntity
8
0
100
AcDbLine
10
-593.76402475905866
20
-92.687967889628936
30
0
11
-593.76402475905866
21
-87.092130945667009
31
0
0
LINE
5
1125
100
AcDbEntity
8
0
100
AcDbLine
10
-593.76402475905866
20
-87.092130945667009
30
0
11
-601.76402475905866
21
-87.092130945666995
31
0
0
LINE
5
1126
100
AcDbEntity
8
0
100
AcDbLine
10
-601.76402475905866
20
-87.092130945666995
30
0
11
-601.76402475905866
21
-92.687967889636553
31
0
0
ARC
5
1127
100
AcDbEntity
8
0
100
AcDbCircle
10
-602.9661062870797
20
-93.890049417649806
30
0
40
1.7000000000000293
100
AcDbArc
50
-134.99999999999898
51
44.999999999814406
0
LINE
5
1128
100
AcDbEntity
8
0
100
AcDbLine
10
-604.16818781509687
20
-95.092130945667023
30
0
11
-820.20453871199663
21
-95.09213094566681
31
0
0
ARC
5
1129
100
AcDbEntity
8
0
100
AcDbCircle
10
-821.40662024001369
20
-93.890049417649664
30
0
40
1.7000000000000293
100
AcDbArc
50
134.99999999975242
51
314.99999999999795
0
LINE
5
1130
100
AcDbEntity
8
0
100
AcDbLine
10
-822.60870176802564
20
-92.68796788962733
30
0
11
-822.60870176802587
21
-87.092130945666796
31
0
0
LINE
5
1131
100
AcDbEntity
8
0
100
AcDbLine
10
-822.60870176802587
20
-87.092130945666796
30
0
11
-830.60870176802587
21
-87.092130945666781
31
0
0
LINE
5
1132
100
AcDbEntity
8
0
100
AcDbLine
10
-830.60870176802587
20
-87.092130945666781
30
0
11
-830.60870176802587
21
-92.68796788963742
31
0
0
ARC
5
1133
100
AcDbEntity
8
0
100
AcDbCircle
10
-831.81078329604804
20
-93.890049417649607
30
0
40
1.7000000000000794
100
AcDbArc
50
-135.00000000000068
51
44.999999999761911
0
LINE
5
1134
100
AcDbEntity
8
0
100
AcDbLine
10
-833.01286482406522
20
-95.092130945666753
30
0
11
-834.60870176802587
21
-95.092130945666781
31
0
0
LINE
5
1135
100
AcDbEntity
8
0
100
AcDbLine
10
-834.60870176802587
20
-95.092130945666781
30
0
11
-834.60870176802598
21
-119.26370382092065
31
0
0
ARC
5
1136
100
AcDbEntity
8
0
100
AcDbCircle
10
-832.60870176802655
20
-119.26370382092087
30
0
40
1.99999999999946
100
AcDbArc
50
180
51
225.00000000000347
0
LINE
5
1137
100
AcDbEntity
8
0
100
AcDbLine
10
-834.0229153303992
20
-120.67791738329369
30
0
11
-830.19448820565276
21
-124.50634450803992
31
0
0
ARC
5
1138
100
AcDbEntity
8
0
100
AcDbCircle
10
-828.78027464327965
20
-123.0921309456669
30
0
40
1.9999999999998954
100
AcDbArc
50
224.99999999999827
51
270
0
LINE
5
1139
100
AcDbEntity
8
0
100
AcDbLine
10
-828.78027464327965
20
-125.09213094566681
30
0
11
-595.59245188380498
21
-125.09213094566707
31
0
0
ARC
5
1140
100
AcDbEntity
8
0
100
AcDbCircle
10
-595.59245188380498
20
-123.09213094566717
30
0
40
1.9999999999999041
100
AcDbArc
50
270
51
315.00000000000205
0
LINE
5
1141
100
AcDbEntity
8
0
100
AcDbLine
10
-594.17823832143188
20
-124.50634450804017
30
0
11
-590.34981119668555
21
-120.67791738329396
31
0
0
ARC
5
1142
100
AcDbEntity
8
0
100
AcDbCircle
10
-591.76402475905843
20
-119.26370382092097
30
0
40
1.9999999999997198
100
AcDbArc
50
-45.000000000002288
51
0
0
LINE
5
1143
100
AcDbEntity
8
0
100
AcDbLine
10
-589.76402475905866
20
-119.26370382092088
30
0
11
-589.76402475905866
21
-95.092130945667023
31
0
0
LINE
5
1144
100
AcDbEntity
8
0
100
AcDbLine
10
-589.76402475905866
20
-95.092130945667023
30
0
11
-591.35986170303181
21
-95.092130945670746
31
0
0
ARC
5
1145
100
AcDbEntity
8
0
100
AcDbCircle
10
-590.77277225404396
20
-178.42816907238347
30
0
40
1.7000000000000168
100
AcDbArc
50
45.000000000069093
51
225.00000085384553
0
LINE
5
1146
100
AcDbEntity
8
0
100
AcDbLine
10
-589.57069072602826
20
-177.22608754436487
30
0
11
-587.97485378205681
21
-177.22608754436487
31
0
0
LINE
5
1147
100
AcDbEntity
8
0
100
AcDbLine
10
-587.97485378205681
20
-177.22608754436487
30
0
11
-587.97485378205681
21
-153.05451466911083
31
0
0
ARC
5
1148
100
AcDbEntity
8
0
100
AcDbCircle
10
-589.97485378205647
20
-153.05451466911072
30
0
40
1.9999999999996732
100
AcDbArc
50
0
51
45.000000000005173
0
LINE
5
1149
100
AcDbEntity
8
0
100
AcDbLine
10
-588.56064021968371
20
-151.6403011067377
30
0
11
-592.38906734443003
21
-147.81187398199143
31
0
0
ARC
5
1150
100
AcDbEntity
8
0
100
AcDbCircle
10
-593.80328090680314
20
-149.22608754436456
30
0
40
1.9999999999999585
100
AcDbArc
50
45.000000000000568
51
90
0
LINE
5
1151
100
AcDbEntity
8
0
100
AcDbLine
10
-593.80328090680314
20
-147.22608754436453
30
0
11
-826.99110366627792
21
-147.22608754436442
31
0
0
ARC
5
1152
100
AcDbEntity
8
0
100
AcDbCircle
10
-826.99110366627804
20
-149.22608754436453
30
0
40
2.0000000000000995
100
AcDbArc
50
89.999999999996746
51
135.00000000000117
0
LINE
5
1153
100
AcDbEntity
8
0
100
AcDbLine
10
-828.40531722865126
20
-147.81187398199137
30
0
11
-832.23374435339736
21
-151.64030110673755
31
0
0
ARC
5
1154
100
AcDbEntity
8
0
100
AcDbCircle
10
-830.81953079102448
20
-153.05451466911049
30
0
40
1.9999999999997322
100
AcDbArc
50
134.99999999999886
51
180
0
LINE
5
1155
100
AcDbEntity
8
0
100
AcDbLine
10
-832.81953079102425
20
-153.05451466911066
30
0
11
-832.81953079102425
21
-177.2260875443647
31
0
0
LINE
5
1156
100
AcDbEntity
8
0
100
AcDbLine
10
-832.81953079102425
20
-177.2260875443647
30
0
11
-831.2236938470628
21
-177.2260875443647
31
0
0
ARC
5
1157
100
AcDbEntity
8
0
100
AcDbCircle
10
-830.02161231904711
20
-178.42816907238335
30
0
40
1.700000000000067
100
AcDbArc
50
-44.999999999725652
51
134.99999999992957
0
LINE
5
1158
100
AcDbEntity
8
0
100
AcDbLine
10
-828.81953079102414
20
-179.63025060039482
30
0
11
-828.81953079102436
21
-185.22608754436479
31
0
0
LINE
5
1159
100
AcDbEntity
8
0
100
AcDbLine
10
-828.81953079102436
20
-185.22608754436479
30
0
11
-820.81953079102414
21
-185.22608754436476
31
0
0
LINE
5
1160
100
AcDbEntity
8
0
100
AcDbLine
10
-820.81953079102414
20
-185.22608754436476
30
0
11
-820.81953079102414
21
-179.63025060040619
31
0
0
ARC
5
1161
100
AcDbEntity
8
0
100
AcDbCircle
10
-819.61744926301299
20
-178.42816907238335
30
0
40
1.700000000000067
100
AcDbArc
50
45.000000000071118
51
225.00000000027839
0
LINE
5
1162
100
AcDbEntity
8
0
100
AcDbLine
10
-818.41536773499729
20
-177.22608754436467
30
0
11
-602.37901683809389
21
-177.22608754436482
31
0
0
ARC
5
1163
100
AcDbEntity
8
0
100
AcDbCircle
10
-601.17693531007831
20
-178.42816907238353
30
0
40
1.7000000000000168
100
AcDbArc
50
-44.99999999979817
51
134.99999999992551
0
LINE
5
1164
100
AcDbEntity
8
0
100
AcDbLine
10
-599.97485378205693
20
-179.63025060039644
30
0
11
-599.97485378205693
21
-185.2260875443649
31
0
0
LINE
5
1165
100
AcDbEntity
8
0
100
AcDbLine
10
-599.97485378205693
20
-185.2260875443649
30
0
11
-591.97485378205693
21
-185.2260875443649
31
0
0
LINE
5
1166
100
AcDbEntity
8
0
100
AcDbLine
10
-591.97485378205693
20
-185.2260875443649
30
0
11
-591.97485378205693
21
-179.63025060040476
31
0
0
CIRCLE
5
1167
100
AcDbEntity
8
0
100
AcDbCircle
10
-600.89719228653973
20
-162.2260875443647
30
0
40
4.5000000000000329
0
CIRCLE
5
1168
100
AcDbEntity
8
0
100
AcDbCircle
10
-819.89719228654121
20
-162.22608754436459
30
0
40
3.5000000000000275
0
CIRCLE
5
1169
100
AcDbEntity
8
0
100
AcDbCircle
10
-726.39719228654076
20
-162.22608754436459
30
0
40
3.0000000000000338
0
CIRCLE
5
1170
100
AcDbEntity
8
0
100
AcDbCircle
10
-694.39719228654042
20
-162.22608754436459
30
0
40
3.0000000000000338
0
CIRCLE
5
1171
100
AcDbEntity
8
0
100
AcDbCircle
10
682.9157956875041
20
276.31138275268569
30
0
40
2.7499999999999942
0
LWPOLYLINE
5
1172
100
AcDbEntity
8
0
100
AcDbPolyline
90
3
70
1
43
0.0
10
675.98779568750399
20
272.31150008773989
10
682.91579568750399
20
284.31114808257712
10
689.84379568750398
20
272.31150008774
0
CIRCLE
5
1173
100
AcDbEntity
8
0
100
AcDbCircle
10
649.9157956875041
20
276.31138275268415
30
0
40
2.7499999999999987
0
LWPOLYLINE
5
1174
100
AcDbEntity
8
0
100
AcDbPolyline
90
3
70
1
43
0.0
10
642.98759245722874
20
272.3113827526841
10
649.9157956875041
20
284.3113827526841
10
656.84399891777957
20
272.31138275268421
0
CIRCLE
5
1175
100
AcDbEntity
8
0
100
AcDbCircle
10
682.91579568750774
20
195.31138275268597
30
0
40
2.7499999999999987
0
LWPOLYLINE
5
1176
100
AcDbEntity
8
0
100
AcDbPolyline
90
3
70
1
43
0.0
10
689.84379568750501
20
199.31126541763058
10
682.91579568750512
20
187.31161742279338
10
675.98779568750501
20
199.31126541763041
0
CIRCLE
5
1177
100
AcDbEntity
8
0
100
AcDbCircle
10
649.91579568750797
20
195.31138275268438
30
0
40
2.7499999999999898
0
LWPOLYLINE
5
1178
100
AcDbEntity
8
0
100
AcDbPolyline
90
3
70
1
43
0.0
10
656.84379568750785
20
199.31126541763021
10
649.91579568750797
20
187.31161742279298
10
642.98779568750786
20
199.31126541763007
0
CIRCLE
5
1179
100
AcDbEntity
8
0
100
AcDbCircle
10
404.32512104099396
20
20.823741299685071
30
0
40
2.7500000000000195
0
LWPOLYLINE
5
1180
100
AcDbEntity
8
0
100
AcDbPolyline
90
3
70
1
43
0.0
10
404.32512104099385
20
12.823741299687315
10
397.39691781072025
20
24.823741299684077
10
411.25332427126756
20
24.823741299683974
0
CIRCLE
5
1181
100
AcDbEntity
8
0
100
AcDbCircle
10
404.32512104099402
20
-79.17625870031469
30
0
40
2.7500000000000195
0
LWPOLYLINE
5
1182
100
AcDbEntity
8
0
100
AcDbPolyline
90
3
70
1
43
0.0
10
404.32512104099402
20
-87.176258700312431
10
397.39691781072042
20
-75.176258700315671
10
411.25332427126762
20
-75.176258700315771
0
CIRCLE
5
1183
100
AcDbEntity
8
0
100
AcDbCircle
10
404.32512104099402
20
-179.17625870031443
30
0
40
2.7500000000000195
0
LWPOLYLINE
5
1184
100
AcDbEntity
8
0
100
AcDbPolyline
90
3
70
1
43
0.0
10
404.32512104099402
20
-187.17625870031219
10
397.39691781072042
20
-175.17625870031543
10
411.25332427126773
20
-175.17625870031551
0
CIRCLE
5
1185
100
AcDbEntity
8
0
100
AcDbCircle
10
90.012056300537537
20
-137.12214248590107
30
0
40
2.7499999999999876
0
LWPOLYLINE
5
1186
100
AcDbEntity
8
0
100
AcDbPolyline
90
3
70
1
43
0.0
10
82.012056300537523
20
-137.12214248590098
10
94.012056300537452
20
-130.19393925562554
10
94.012056300537452
20
-144.05034571617654
0
LWPOLYLINE
5
1187
100
AcDbEntity
8
0
100
AcDbPolyline
90
3
70
1
43
0.0
10
38.872056300537594
20
-144.05034571617645
10
38.872056300537565
20
-130.19393925562551
10
50.872056300537558
20
-137.12214248590098
0
CIRCLE
5
1188
100
AcDbEntity
8
0
100
AcDbCircle
10
42.872056300537551
20
-137.12214248590098
30
0
40
2.7499999999999876
0
LWPOLYLINE
5
1189
100
AcDbEntity
8
0
100
AcDbPolyline
90
3
70
1
43
0.0
10
38.872056300537452
20
-191.19034571617641
10
38.872056300537565
20
-177.33393925562541
10
50.872056300537487
20
-184.26214248590097
0
CIRCLE
5
1190
100
AcDbEntity
8
0
100
AcDbCircle
10
42.872056300537693
20
-184.26214248590105
30
0
40
2.7499999999999876
0
LWPOLYLINE
5
1191
100
AcDbEntity
8
0
100
AcDbPolyline
90
3
70
1
43
0.0
10
94.012056300537807
20
-191.19034571617647
10
82.012056300537779
20
-184.26214248590102
10
94.012056300537651
20
-177.33393925562552
0
CIRCLE
5
1192
100
AcDbEntity
8
0
100
AcDbCircle
10
90.012056300537608
20
-184.26214248590114
30
0
40
2.7499999999999876
0
LWPOLYLINE
5
1193
100
AcDbEntity
8
0
100
AcDbPolyline
90
3
70
1
43
0.0
10
33.309188959441833
20
0.6311612148650696
10
47.165595419992805
20
0.63116121486473276
10
40.237392189717092
20
-11.368838785134994
0
CIRCLE
5
1194
100
AcDbEntity
8
0
100
AcDbCircle
10
40.237392189717141
20
-3.3688387851351109
30
0
40
2.7499999999999836
0
LWPOLYLINE
5
1195
100
AcDbEntity
8
0
100
AcDbPolyline
90
3
70
1
43
0.0
10
80.449188959441713
20
0.63116121486421695
10
94.305595419992656
20
0.63116121486402221
10
87.377392189717042
20
-11.368838785135775
0
CIRCLE
5
1196
100
AcDbEntity
8
0
100
AcDbCircle
10
87.377392189717128
20
-3.3688387851358215
30
0
40
2.7499999999999836
0
LWPOLYLINE
5
1197
100
AcDbEntity
8
0
100
AcDbPolyline
90
3
70
1
43
0.0
10
33.309188959441059
20
-54.508838785135012
10
40.23739218971663
20
-42.508838785135126
10
47.165595419991995
20
-54.50883878513514
0
CIRCLE
5
1198
100
AcDbEntity
8
0
100
AcDbCircle
10
40.237392189716417
20
-50.508838785134955
30
0
40
2.7499999999999836
0
CIRCLE
5
1199
100
AcDbEntity
8
0
100
AcDbCircle
10
87.377392189716403
20
-50.508838785135737
30
0
40
2.7499999999999836
0
LWPOLYLINE
5
1200
100
AcDbEntity
8
0
100
AcDbPolyline
90
3
70
1
43
0.0
10
87.377392189716574
20
-42.508838785135708
10
94.305595419991874
20
-54.508838785135723
10
80.449188959440903
20
-54.508838785135509
0
CIRCLE
5
1201
100
AcDbEntity
8
0
100
AcDbCircle
10
-648.48746015666325
20
95.643781317538696
30
0
40
2.7500000000000324
0
LWPOLYLINE
5
1202
100
AcDbEntity
8
0
100
AcDbPolyline
90
3
70
1
43
0.0
10
-648.48746015666336
20
103.64354664743021
10
-641.55946015666336
20
91.643898652592924
10
-655.41546015666324
20
91.643898652592938
0
LWPOLYLINE
5
1203
100
AcDbEntity
8
0
100
AcDbPolyline
90
3
70
1
43
0.0
10
-707.55925692638789
20
91.643781317538611
10
-721.41566338693895
20
91.643781317538611
10
-714.48746015666325
20
103.64378131753872
0
CIRCLE
5
1204
100
AcDbEntity
8
0
100
AcDbCircle
10
-714.48746015666325
20
95.643781317538668
30
0
40
2.750000000000028
0
CIRCLE
5
1205
100
AcDbEntity
8
0
100
AcDbCircle
10
-780.48746015666336
20
95.643781317538625
30
0
40
2.7500000000000324
0
LWPOLYLINE
5
1206
100
AcDbEntity
8
0
100
AcDbPolyline
90
3
70
1
43
0.0
10
-787.41546015666347
20
91.643898652592839
10
-780.48746015666336
20
103.64354664743017
10
-773.55946015666348
20
91.643898652592867
0
ENDSEC
0
SECTION
2
OBJECTS
0
DICTIONARY
5
C
100
AcDbDictionary
3
ACAD_GROUP
350
D
3
ACAD_MLINESTYLE
350
17
0
DICTIONARY
5
D
100
AcDbDictionary
0
DICTIONARY
5
1A
330
C
100
AcDbDictionary
0
DICTIONARY
5
17
100
AcDbDictionary
0
ENDSEC
0
EOF
