0
SECTION
2
HEADER
9
$INSUNITS
70
4
9
$ACADVER
1
AC1014
9
$HANDSEED
5
FFFF
0
ENDSEC
0
SECTION
2
TABLES
0
TABLE
2
VPORT
5
8
100
AcDbSymbolTable
0
ENDTAB
0
TABLE
2
LTYPE
5
5
100
AcDbSymbolTable
0
LTYPE
5
14
100
AcDbSymbolTableRecord
100
AcDbLinetypeTableRecord
2
BYBLOCK
70
0
0
LTYPE
5
15
100
AcDbSymbolTableRecord
100
AcDbLinetypeTableRecord
2
BYLAYER
70
0
0
ENDTAB
0
TABLE
2
LAYER
5
2
100
AcDbSymbolTable
70
2
0
LAYER
5
50
100
AcDbSymbolTableRecord
100
AcDbLayerTableRecord
2
0
70
0
6
CONTINUOUS
0
ENDTAB
0
TABLE
2
STYLE
5
3
100
AcDbSymbolTable
70
1
0
STYLE
5
11
100
AcDbSymbolTableRecord
100
AcDbTextStyleTableRecord
2
STANDARD
70
0
0
ENDTAB
0
TABLE
2
VIEW
5
6
100
AcDbSymbolTable
70
0
0
ENDTAB
0
TABLE
2
UCS
5
7
100
AcDbSymbolTable
70
0
0
ENDTAB
0
TABLE
2
APPID
5
9
100
AcDbSymbolTable
70
2
0
APPID
5
12
100
AcDbSymbolTableRecord
100
AcDbRegAppTableRecord
2
ACAD
70
0
0
ENDTAB
0
TABLE
2
DIMSTYLE
5
A
100
AcDbSymbolTable
70
1
0
ENDTAB
0
TABLE
2
BLOCK_RECORD
5
1
100
AcDbSymbolTable
70
1
0
BLOCK_RECORD
5
1F
100
AcDbSymbolTableRecord
100
AcDbBlockTableRecord
2
*MODEL_SPACE
0
BLOCK_RECORD
5
1B
100
AcDbSymbolTableRecord
100
AcDbBlockTableRecord
2
*PAPER_SPACE
0
ENDTAB
0
ENDSEC
0
SECTION
2
BLOCKS
0
BLOCK
5
20
100
AcDbEntity
100
AcDbBlockBegin
2
*MODEL_SPACE
0
ENDBLK
5
21
100
AcDbEntity
100
AcDbBlockEnd
0
BLOCK
5
1C
100
AcDbEntity
100
AcDbBlockBegin
2
*PAPER_SPACE
0
ENDBLK
5
1D
100
AcDbEntity
100
AcDbBlockEnd
0
ENDSEC
0
SECTION
2
ENTITIES
0
ARC
5
100
100
AcDbEntity
8
0
100
AcDbCircle
10
400.442020714656
20
495.20230185090617
30
1.068490079047673e-43
40
1.5000000000000568
100
AcDbArc
50
180
51
269.99999999999562
0
LINE
5
101
100
AcDbEntity
8
0
100
AcDbLine
10
400.44202071465588
20
493.70230185090611
30
1.1832913578313587e-30
11
404.53785765862347
21
493.70230185090622
31
5.4067478737919051e-26
0
ARC
5
102
100
AcDbEntity
8
0
100
AcDbCircle
10
405.73993918663746
20
492.50022032288592
30
-3.0653403907105373e-45
40
1.6999999999999915
100
AcDbArc
50
-44.999999999928193
51
134.99999999984962
0
LINE
5
103
100
AcDbEntity
8
0
100
AcDbLine
10
406.94202071465611
20
491.29813879487028
30
1.005797654162127e-29
11
406.94202071465583
21
473.70230185090634
31
-3.5527136788093583e-14
0
LINE
5
104
100
AcDbEntity
8
0
100
AcDbLine
10
406.94202071465583
20
473.70230185090634
30
-3.5527136788093583e-14
11
477.03785765862199
21
473.70230185090531
31
-3.5527136787964973e-14
0
ARC
5
105
100
AcDbEntity
8
0
100
AcDbCircle
10
478.23993918663609
20
472.5002203228853
30
-3.5527136788005009e-14
40
1.7000000000000921
100
AcDbArc
50
-44.999999999903821
51
134.99999999985914
0
LINE
5
106
100
AcDbEntity
8
0
100
AcDbLine
10
479.44202071465531
20
471.29813879487011
30
-3.5527136788005016e-14
11
479.4420207146552
21
467.20230185090531
31
5.9547165430608076e-26
0
ARC
5
107
100
AcDbEntity
8
0
100
AcDbCircle
10
480.9420207146552
20
467.20230185090531
30
-5.824146742350021e-44
40
1.4999999999999858
100
AcDbArc
50
180
51
270
0
LINE
5
108
100
AcDbEntity
8
0
100
AcDbLine
10
480.9420207146552
20
465.70230185090531
30
1.1832913578315962e-30
11
493.94202071465509
21
465.70230185090509
31
1.7459710503835457e-28
0
ARC
5
109
100
AcDbEntity
8
0
100
AcDbCircle
10
493.94202071465509
20
467.20230185090509
30
-4.4666388550353544e-43
40
1.4999999999999858
100
AcDbArc
50
270
51
360
0
LINE
5
110
100
AcDbEntity
8
0
100
AcDbLine
10
495.44202071465509
20
467.20230185090509
30
9.46633086265208e-30
11
495.4420207146552
21
471.29813879486568
31
-3.5527136788046188e-14
0
ARC
5
111
100
AcDbEntity
8
0
100
AcDbCircle
10
496.64410224267016
20
472.5002203228849
30
-3.5527136788005003e-14
40
1.7000000000000921
100
AcDbArc
50
45.000000000147665
51
225.00000000010161
0
LINE
5
112
100
AcDbEntity
8
0
100
AcDbLine
10
497.84618377068426
20
473.7023018509052
30
-3.5527136788005003e-14
11
567.94202071465475
21
473.70230185090429
31
-3.5527136787935918e-14
0
LINE
5
113
100
AcDbEntity
8
0
100
AcDbLine
10
567.94202071465475
20
473.70230185090429
30
-3.5527136787935918e-14
11
567.94202071465497
21
491.29813879486403
31
-3.5527136787897989e-14
0
ARC
5
114
100
AcDbEntity
8
0
100
AcDbCircle
10
569.14410224266942
20
492.50022032288376
30
-3.5527136788005016e-14
40
1.7000000000000419
100
AcDbArc
50
45.000000000147665
51
225.00000000012597
0
LINE
5
115
100
AcDbEntity
8
0
100
AcDbLine
10
570.34618377068352
20
493.70230185090406
30
-3.5527136788005003e-14
11
574.44202071465475
21
493.70230185090401
31
-3.5527136787889394e-14
0
ARC
5
116
100
AcDbEntity
8
0
100
AcDbCircle
10
574.44202071465463
20
495.20230185090406
30
-4.4666388550353544e-43
40
1.5000000000000568
100
AcDbArc
50
-89.99999999999568
51
0
0
LINE
5
117
100
AcDbEntity
8
0
100
AcDbLine
10
575.94202071465463
20
495.20230185090406
30
9.46633086265208e-30
11
575.94202071465497
21
508.20230185090395
31
0
0
ARC
5
118
100
AcDbEntity
8
0
100
AcDbCircle
10
574.44202071465486
20
508.20230185090389
30
-3.5527136788005009e-14
40
1.5000000000000568
100
AcDbArc
50
0
51
90
0
LINE
5
119
100
AcDbEntity
8
0
100
AcDbLine
10
574.44202071465486
20
509.70230185090384
30
-3.5527136788005016e-14
11
570.34618377069035
21
509.70230185090401
31
-3.552713678795906e-14
0
ARC
5
120
100
AcDbEntity
8
0
100
AcDbCircle
10
569.14410224266987
20
510.90438337891783
30
5.5176127032789672e-44
40
1.6999999999999917
100
AcDbArc
50
134.9999999998781
51
315.00000000015854
0
LINE
5
121
100
AcDbEntity
8
0
100
AcDbLine
10
567.94202071465531
20
512.1064649069375
30
-4.023190616588098e-30
11
567.94202071465622
21
573.26813879486303
31
0
0
ARC
5
122
100
AcDbEntity
8
0
100
AcDbCircle
10
569.14410224267067
20
574.47022032288282
30
-3.5527136788005016e-14
40
1.6999999999999917
100
AcDbArc
50
45.000000000176115
51
225.00000000012733
0
LINE
5
123
100
AcDbEntity
8
0
100
AcDbLine
10
570.34618377068409
20
575.67230185090364
30
-3.5527136788005003e-14
11
574.44202071465588
21
575.67230185090352
31
-3.5527136787921106e-14
0
ARC
5
124
100
AcDbEntity
8
0
100
AcDbCircle
10
574.44202071465588
20
577.17230185090352
30
-4.6418011630759565e-43
40
1.4999999999999858
100
AcDbArc
50
-90
51
0
0
LINE
5
125
100
AcDbEntity
8
0
100
AcDbLine
10
575.94202071465588
20
577.17230185090352
30
1.0074443242592469e-29
11
575.94202071465611
21
590.17230185090341
31
0
0
ARC
5
126
100
AcDbEntity
8
0
100
AcDbCircle
10
574.442020714656
20
590.17230185090352
30
-3.5527136788005003e-14
40
1.5000000000001279
100
AcDbArc
50
0
51
89.999999999995666
0
LINE
5
127
100
AcDbEntity
8
0
100
AcDbLine
10
574.44202071465611
20
591.67230185090352
30
-3.5527136788005009e-14
11
570.34618377069228
21
591.67230185090352
31
3.8180867812303542e-27
0
ARC
5
128
100
AcDbEntity
8
0
100
AcDbCircle
10
569.14410224267135
20
592.87438337891672
30
-1.1429340599649289e-43
40
1.7000000000000419
100
AcDbArc
50
134.99999999989163
51
315.00000000018423
0
LINE
5
129
100
AcDbEntity
8
0
100
AcDbLine
10
567.94202071465645
20
594.07646490693617
30
-2.0115953082898903e-30
11
567.94202071465679
21
611.67230185090341
31
-3.5527136787930288e-14
0
LINE
5
130
100
AcDbEntity
8
0
100
AcDbLine
10
567.94202071465679
20
611.67230185090341
30
-3.5527136787930288e-14
11
497.8461837706937
21
611.6723018509042
31
-3.5527136787957999e-14
0
ARC
5
131
100
AcDbEntity
8
0
100
AcDbCircle
10
496.64410224267266
20
612.87438337891729
30
-1.2655476755933504e-43
40
1.7000000000001423
100
AcDbArc
50
134.99999999991198
51
315.00000000018969
0
LINE
5
132
100
AcDbEntity
8
0
100
AcDbLine
10
495.44202071465725
20
614.07646490693639
30
-7.3758494637647984e-30
11
495.44202071465736
21
618.1723018509042
31
-3.5527136788077976e-14
0
ARC
5
133
100
AcDbEntity
8
0
100
AcDbCircle
10
493.94202071465725
20
618.17230185090409
30
-3.5527136788005016e-14
40
1.5000000000000568
100
AcDbArc
50
0
51
89.999999999995666
0
LINE
5
134
100
AcDbEntity
8
0
100
AcDbLine
10
493.94202071465736
20
619.6723018509042
30
-3.5527136788005009e-14
11
480.94202071465747
21
619.67230185090432
31
-3.5527136788005136e-14
0
ARC
5
135
100
AcDbEntity
8
0
100
AcDbCircle
10
480.94202071465747
20
618.17230185090443
30
2.382207389352189e-43
40
1.4999999999999858
100
AcDbArc
50
90
51
180
0
LINE
5
136
100
AcDbEntity
8
0
100
AcDbLine
10
479.44202071465747
20
618.17230185090443
30
-1.0074443242592693e-29
11
479.44202071465736
21
614.07646490693321
31
-3.5527136787917269e-14
0
ARC
5
137
100
AcDbEntity
8
0
100
AcDbCircle
10
478.23993918663859
20
612.87438337891763
30
2.9777592366902363e-44
40
1.6999999999999917
100
AcDbArc
50
-135.00000000018696
51
44.999999999924135
0
LINE
5
138
100
AcDbEntity
8
0
100
AcDbLine
10
477.03785765861755
20
611.67230185090443
30
-4.0231906166474346e-30
11
406.94202071465787
21
611.67230185090534
31
-3.552713678788054e-14
0
LINE
5
139
100
AcDbEntity
8
0
100
AcDbLine
10
406.94202071465787
20
611.67230185090534
30
-3.552713678788054e-14
11
406.94202071465759
21
594.07646490693492
31
-3.5527136788065228e-14
0
ARC
5
140
100
AcDbEntity
8
0
100
AcDbCircle
10
405.73993918663928
20
592.87438337891899
30
1.2786848486963956e-43
40
1.7000000000000419
100
AcDbArc
50
-135.00000000017883
51
44.999999999943107
0
LINE
5
141
100
AcDbEntity
8
0
100
AcDbLine
10
404.53785765861835
20
591.67230185090557
30
-1.2069571849901317e-29
11
400.44202071465719
21
591.67230185090557
31
1.1609350089630686e-25
0
ARC
5
142
100
AcDbEntity
8
0
100
AcDbCircle
10
400.44202071465725
20
590.17230185090557
30
1.5326701953552687e-43
40
1.4999999999999858
100
AcDbArc
50
90.000000000002174
51
180
0
LINE
5
143
100
AcDbEntity
8
0
100
AcDbLine
10
398.94202071465725
20
590.17230185090557
30
-3.8922081211008987e-30
11
398.94202071465719
21
577.17230185090568
31
-3.5527136788005009e-14
0
ARC
5
144
100
AcDbEntity
8
0
100
AcDbCircle
10
400.44202071465713
20
577.1723018509058
30
-5.4738221262688167e-45
40
1.4999999999999147
100
AcDbArc
50
180
51
270
0
LINE
5
145
100
AcDbEntity
8
0
100
AcDbLine
10
400.44202071465713
20
575.6723018509058
30
2.3665827156631608e-30
11
404.5378576586254
21
575.67230185090568
31
1.368989523065399e-26
0
ARC
5
146
100
AcDbEntity
8
0
100
AcDbCircle
10
405.73993918663905
20
574.47022032288487
30
-3.7221990458627953e-45
40
1.6999999999999413
100
AcDbArc
50
-44.999999999944478
51
134.99999999982933
0
LINE
5
147
100
AcDbEntity
8
0
100
AcDbLine
10
406.9420207146573
20
573.26813879486895
30
-1.3410635388675559e-30
11
406.94202071465639
21
512.10646490693557
31
-3.5527136788004978e-14
0
ARC
5
148
100
AcDbEntity
8
0
100
AcDbCircle
10
405.73993918663791
20
510.90438337891999
30
2.1895288505075267e-46
40
1.7000000000000419
100
AcDbArc
50
-135.00000000015581
51
44.999999999930907
0
LINE
5
149
100
AcDbEntity
8
0
100
AcDbLine
10
404.53785765861744
20
509.70230185090605
30
-3.3526588471893338e-30
11
400.44202071465611
21
509.70230185090622
31
1.2566658990763628e-25
0
ARC
5
150
100
AcDbEntity
8
0
100
AcDbCircle
10
400.44202071465611
20
508.20230185090617
30
-3.5527136788005003e-14
40
1.5000000000000568
100
AcDbArc
50
90
51
180
0
LINE
5
151
100
AcDbEntity
8
0
100
AcDbLine
10
398.94202071465611
20
508.20230185090617
30
-3.5527136788005016e-14
11
398.94202071465594
21
495.20230185090617
31
-9.4663308626523883e-30
0
ARC
5
152
100
AcDbEntity
8
0
100
AcDbCircle
10
400.67804896333712
20
333.85790799983482
30
3.0215498137003868e-44
40
1.4999999999999858
100
AcDbArc
50
180
51
270
0
LINE
5
153
100
AcDbEntity
8
0
100
AcDbLine
10
400.67804896333712
20
332.35790799983482
30
-1.7749370367473095e-30
11
404.7738859073047
21
332.35790799983482
31
-1.2405392402446696e-26
0
ARC
5
154
100
AcDbEntity
8
0
100
AcDbCircle
10
405.97596743531869
20
331.15582647181463
30
-4.1601048159643007e-45
40
1.7000000000000419
100
AcDbArc
50
-44.999999999929571
51
134.99999999985235
0
LINE
5
155
100
AcDbEntity
8
0
100
AcDbLine
10
407.17804896333735
20
329.95374494379894
30
2.3468611930406511e-29
11
407.17804896333712
21
312.35790799983494
31
2.4296915880807164e-26
0
LINE
5
156
100
AcDbEntity
8
0
100
AcDbLine
10
407.17804896333712
20
312.35790799983494
30
2.4296915880807164e-26
11
477.27388590730322
21
312.35790799983403
31
9.3013479998939265e-26
0
ARC
5
157
100
AcDbEntity
8
0
100
AcDbCircle
10
478.47596743531739
20
311.1558264718139
30
1.6290094647775998e-43
40
1.7000000000000419
100
AcDbArc
50
-44.999999999905199
51
134.99999999985775
0
LINE
5
158
100
AcDbEntity
8
0
100
AcDbLine
10
479.67804896333655
20
309.95374494379871
30
-5.3642541554477916e-30
11
479.67804896333638
21
305.85790799983391
31
6.6412227458293931e-26
0
ARC
5
159
100
AcDbEntity
8
0
100
AcDbCircle
10
481.17804896333644
20
305.85790799983397
30
-3.5527136788005009e-14
40
1.5000000000000568
100
AcDbArc
50
180
51
270
0
LINE
5
160
100
AcDbEntity
8
0
100
AcDbLine
10
481.17804896333644
20
304.35790799983397
30
-3.5527136788005009e-14
11
494.17804896333627
21
304.3579079998338
31
-3.552713678800494e-14
0
ARC
5
161
100
AcDbEntity
8
0
100
AcDbCircle
10
494.17804896333632
20
305.85790799983374
30
-3.5527136788005009e-14
40
1.4999999999999503
100
AcDbArc
50
-90.000000000002188
51
0
0
LINE
5
162
100
AcDbEntity
8
0
100
AcDbLine
10
495.67804896333627
20
305.85790799983374
30
-3.5527136788005009e-14
11
495.67804896333644
21
309.95374494379439
31
-5.2581523637506542e-26
0
ARC
5
163
100
AcDbEntity
8
0
100
AcDbCircle
10
496.88013049135134
20
311.15582647181361
30
-3.5527136788005009e-14
40
1.7000000000000168
100
AcDbArc
50
45.000000000144958
51
225.00000000010294
0
LINE
5
164
100
AcDbEntity
8
0
100
AcDbLine
10
498.08221201936544
20
312.3579079998338
30
-3.5527136788005016e-14
11
568.17804896333587
21
312.357907999833
31
7.7186649939196177e-26
0
LINE
5
165
100
AcDbEntity
8
0
100
AcDbLine
10
568.17804896333587
20
312.357907999833
30
7.7186649939196177e-26
11
568.1780489633361
21
329.9537449437928
31
-3.5527136788015416e-14
0
ARC
5
166
100
AcDbEntity
8
0
100
AcDbCircle
10
569.38013049135066
20
331.15582647181247
30
-3.5527136788005009e-14
40
1.6999999999999915
100
AcDbArc
50
45.000000000150379
51
225.0000000001219
0
LINE
5
167
100
AcDbEntity
8
0
100
AcDbLine
10
570.58221201936465
20
332.35790799983278
30
-3.5527136788005003e-14
11
574.67804896333587
21
332.35790799983272
31
1.0381409512730817e-26
0
ARC
5
168
100
AcDbEntity
8
0
100
AcDbCircle
10
574.67804896333575
20
333.85790799983283
30
-1.6130055600216079e-56
40
1.5000000000001279
100
AcDbArc
50
270.00000000000432
51
360
0
LINE
5
169
100
AcDbEntity
8
0
100
AcDbLine
10
576.17804896333587
20
333.85790799983278
30
1.5793672896338379e-43
11
576.17804896333598
21
346.85790799983266
31
7.8886090522101181e-30
0
ARC
5
170
100
AcDbEntity
8
0
100
AcDbCircle
10
574.6780489633361
20
346.85790799983266
30
-3.1310262562257631e-44
40
1.4999999999999147
100
AcDbArc
50
0
51
90
0
LINE
5
171
100
AcDbEntity
8
0
100
AcDbLine
10
574.6780489633361
20
348.35790799983266
30
1.7749370367473095e-30
11
570.58221201937135
21
348.35790799983272
31
8.1198562310024373e-26
0
ARC
5
172
100
AcDbEntity
8
0
100
AcDbCircle
10
569.38013049135088
20
349.55998952784654
30
-3.5527136788005003e-14
40
1.6999999999999917
100
AcDbArc
50
134.99999999987944
51
315.00000000015854
0
LINE
5
173
100
AcDbEntity
8
0
100
AcDbLine
10
568.17804896333632
20
350.76207105586616
30
-3.5527136788005003e-14
11
568.17804896333712
21
411.92374494379175
31
-3.5527136788004978e-14
0
ARC
5
174
100
AcDbEntity
8
0
100
AcDbCircle
10
569.38013049135168
20
413.12582647181154
30
-3.5527136788005009e-14
40
1.6999999999999917
100
AcDbArc
50
45.000000000174751
51
225.00000000012463
0
LINE
5
175
100
AcDbEntity
8
0
100
AcDbLine
10
570.5822120193651
20
414.32790799983229
30
-3.5527136788005009e-14
11
574.67804896333689
21
414.32790799983223
31
-3.5527136788032588e-14
0
ARC
5
176
100
AcDbEntity
8
0
100
AcDbCircle
10
574.67804896333689
20
415.82790799983229
30
-2.6520668201772417e-44
40
1.5000000000000568
100
AcDbArc
50
270
51
360
0
LINE
5
177
100
AcDbEntity
8
0
100
AcDbLine
10
576.17804896333701
20
415.82790799983223
30
4.5788984427833236e-31
11
576.17804896333712
21
428.82790799983212
31
0
0
ARC
5
178
100
AcDbEntity
8
0
100
AcDbCircle
10
574.67804896333712
20
428.82790799983206
30
-9.1741258836265368e-44
40
1.4999999999999858
100
AcDbArc
50
0
51
90
0
LINE
5
179
100
AcDbEntity
8
0
100
AcDbLine
10
574.67804896333712
20
430.32790799983206
30
2.3665827156630302e-30
11
570.58221201937317
21
430.32790799983223
31
3.0702466431179475e-26
0
ARC
5
180
100
AcDbEntity
8
0
100
AcDbCircle
10
569.38013049135225
20
431.52998952784543
30
-3.5527136788005009e-14
40
1.7000000000000419
100
AcDbArc
50
134.99999999988893
51
315.00000000018423
0
LINE
5
181
100
AcDbEntity
8
0
100
AcDbLine
10
568.17804896333746
20
432.73207105586488
30
-3.5527136788005016e-14
11
568.17804896333757
21
450.32790799983206
31
-3.5527136788039744e-14
0
LINE
5
182
100
AcDbEntity
8
0
100
AcDbLine
10
568.17804896333757
20
450.32790799983206
30
-3.5527136788039744e-14
11
498.08221201937471
21
450.32790799983286
31
-3.5527136788045348e-14
0
ARC
5
183
100
AcDbEntity
8
0
100
AcDbCircle
10
496.88013049135355
20
451.529989527846
30
-8.7581154020301067e-44
40
1.7000000000000419
100
AcDbArc
50
134.99999999991198
51
315.00000000019099
0
LINE
5
184
100
AcDbEntity
8
0
100
AcDbLine
10
495.67804896333826
20
452.73207105586499
30
1.3410635389113022e-30
11
495.67804896333831
21
456.82790799983286
31
-3.5527136788081529e-14
0
ARC
5
185
100
AcDbEntity
8
0
100
AcDbCircle
10
494.17804896333826
20
456.82790799983286
30
-3.5527136788005009e-14
40
1.5000000000000568
100
AcDbArc
50
0
51
89.999999999995666
0
LINE
5
186
100
AcDbEntity
8
0
100
AcDbLine
10
494.17804896333837
20
458.32790799983292
30
-3.5527136788005009e-14
11
481.17804896333843
21
458.32790799983297
31
-3.5527136788005136e-14
0
ARC
5
187
100
AcDbEntity
8
0
100
AcDbCircle
10
481.17804896333848
20
456.82790799983297
30
-3.5527136788005009e-14
40
1.5000000000000568
100
AcDbArc
50
90.000000000002174
51
180
0
LINE
5
188
100
AcDbEntity
8
0
100
AcDbLine
10
479.67804896333848
20
456.82790799983303
30
-3.5527136788005009e-14
11
479.67804896333837
21
452.73207105586181
31
8.7644418722317464e-26
0
ARC
5
189
100
AcDbEntity
8
0
100
AcDbCircle
10
478.47596743531966
20
451.52998952784634
30
1.2261361562842149e-44
40
1.7000000000000419
100
AcDbArc
50
-135.00000000019102
51
44.999999999922778
0
LINE
5
190
100
AcDbEntity
8
0
100
AcDbLine
10
477.27388590729851
20
450.3279079998332
30
-1.4081167158205322e-29
11
407.17804896333888
21
450.327907999834
31
1.3387832378438296e-27
0
LINE
5
191
100
AcDbEntity
8
0
100
AcDbLine
10
407.17804896333888
20
450.327907999834
30
1.3387832378438296e-27
11
407.17804896333865
21
432.73207105586357
31
4.5643491976087743e-26
0
ARC
5
192
100
AcDbEntity
8
0
100
AcDbCircle
10
405.9759674353204
20
431.52998952784765
30
-3.5527136788005009e-14
40
1.7000000000000419
100
AcDbArc
50
-135.00000000017883
51
44.99999999994445
0
LINE
5
193
100
AcDbEntity
8
0
100
AcDbLine
10
404.77388590729947
20
430.32790799983422
30
-3.5527136788005016e-14
11
400.67804896333831
21
430.32790799983434
31
1.1418310165097413e-25
0
ARC
5
194
100
AcDbEntity
8
0
100
AcDbCircle
10
400.67804896333831
20
428.82790799983417
30
1.3294819180281702e-42
40
1.5000000000001279
100
AcDbArc
50
90
51
180
0
LINE
5
195
100
AcDbEntity
8
0
100
AcDbLine
10
399.17804896333826
20
428.82790799983422
30
-1.6961568723710963e-29
11
399.17804896333826
21
415.82790799983434
31
-3.5527136788005009e-14
0
ARC
5
196
100
AcDbEntity
8
0
100
AcDbCircle
10
400.67804896333831
20
415.82790799983434
30
1.2918220217994407e-43
40
1.5000000000000568
100
AcDbArc
50
180
51
269.99999999999784
0
LINE
5
197
100
AcDbEntity
8
0
100
AcDbLine
10
400.67804896333826
20
414.32790799983428
30
-2.3665827156630473e-30
11
404.77388590730652
21
414.32790799983428
31
-6.072988671319836e-26
0
ARC
5
198
100
AcDbEntity
8
0
100
AcDbCircle
10
405.97596743532006
20
413.12582647181358
30
-3.5527136788005009e-14
40
1.7000000000000419
100
AcDbArc
50
-44.999999999941728
51
134.99999999982933
0
LINE
5
199
100
AcDbEntity
8
0
100
AcDbLine
10
407.17804896333848
20
411.9237449437976
30
-3.5527136788005016e-14
11
407.17804896333769
21
350.76207105586434
31
-3.5527136788005041e-14
0
ARC
5
200
100
AcDbEntity
8
0
100
AcDbCircle
10
405.97596743531909
20
349.55998952784853
30
-3.5527136788005009e-14
40
1.6999999999999917
100
AcDbArc
50
-135.00000000015714
51
44.999999999933614
0
LINE
5
201
100
AcDbEntity
8
0
100
AcDbLine
10
404.77388590729868
20
348.35790799983471
30
-3.5527136788005022e-14
11
400.67804896333735
21
348.35790799983477
31
-3.5527136787879353e-14
0
ARC
5
202
100
AcDbEntity
8
0
100
AcDbCircle
10
400.67804896333735
20
346.85790799983471
30
-3.5527136788005009e-14
40
1.5000000000000568
100
AcDbArc
50
90
51
180
0
LINE
5
203
100
AcDbEntity
8
0
100
AcDbLine
10
399.17804896333729
20
346.85790799983477
30
-3.5527136788005009e-14
11
399.17804896333712
21
333.85790799983482
31
-3.9654481523785129e-43
0
LWPOLYLINE
5
204
100
AcDbEntity
8
0
100
AcDbPolyline
90
16
70
1
43
0.0
10
169.1586938134331
20
586.42939068418809
42
-0.19891236737969009
10
169.74448025106005
20
587.8436042465612
10
173.57290737580615
20
591.6720313713073
42
-0.19891236737969609
10
174.98712093817926
20
592.25781780893419
10
366.33026668868553
20
592.25781780893271
42
-0.19891236737967116
10
367.74448025105858
20
591.67203137130582
10
371.57290737580468
20
587.84360424655938
42
-0.19891236737967116
10
372.15869381343163
20
586.42939068418639
10
372.15869381342975
20
323.08624493367978
42
-0.19891236737969609
10
371.57290737580286
20
321.67203137130662
10
367.7444802510567
20
317.84360424656057
42
-0.19891236737962914
10
366.33026668868359
20
317.25781780893374
10
174.98712093817738
20
317.25781780893521
42
-0.19891236737965476
10
173.57290737580428
20
317.84360424656211
10
169.74448025105815
20
321.67203137130832
42
-0.19891236737965801
10
169.15869381343126
20
323.08624493368143
0
ARC
5
205
100
AcDbEntity
8
0
100
AcDbCircle
10
357.9566122854169
20
510.45989933697678
30
0
40
1.6999999999999917
100
AcDbArc
50
-134.99999999990925
51
45.000000000008129
0
LINE
5
206
100
AcDbEntity
8
0
100
AcDbLine
10
356.75453075740165
20
509.25781780895772
30
-1.3410635388757314e-30
11
353.56285686946671
21
509.25781780895738
31
0
0
ARC
5
207
100
AcDbEntity
8
0
100
AcDbCircle
10
352.36077534145119
20
510.45989933697615
30
-4.4408920985006262e-15
40
1.6999999999999915
100
AcDbArc
50
135.00000000000543
51
314.99999999992281
0
LINE
5
208
100
AcDbEntity
8
0
100
AcDbLine
10
351.15869381343396
20
511.66198086499315
30
-4.4408920985006262e-15
11
351.15869381343259
21
522.8536547529244
31
0
0
ARC
5
209
100
AcDbEntity
8
0
100
AcDbCircle
10
352.3607753414496
20
524.05573628094169
30
-8.8817841970012523e-15
40
1.7000000000000419
100
AcDbArc
50
44.99999999992955
51
225.00000000000676
0
LINE
5
210
100
AcDbEntity
8
0
100
AcDbLine
10
353.56285686946825
20
525.25781780895738
30
-8.8817841970012507e-15
11
356.75453075739648
21
525.25781780895772
31
-3.944304526105059e-30
0
ARC
5
211
100
AcDbEntity
8
0
100
AcDbCircle
10
357.9566122854153
20
524.05573628094226
30
-4.4408920985006262e-15
40
1.6999999999999915
100
AcDbArc
50
-44.999999999991857
51
135.00000000007992
0
LINE
5
212
100
AcDbEntity
8
0
100
AcDbLine
10
359.15869381343259
20
522.85365475292531
30
-4.4408920985006262e-15
11
359.15869381343384
21
511.66198086499406
31
1.3410635388738591e-30
0
ARC
5
213
100
AcDbEntity
8
0
100
AcDbCircle
10
183.36077534144863
20
367.05573628091599
30
-4.4408920985006254e-15
40
1.6999999999999915
100
AcDbArc
50
45.0000000000867
51
225.00000000008671
0
LINE
5
214
100
AcDbEntity
8
0
100
AcDbLine
10
184.56285686946393
20
368.25781780893493
30
-4.4408920985006262e-15
11
187.75453075739904
21
368.25781780893499
31
4.4408920985006262e-15
0
ARC
5
215
100
AcDbEntity
8
0
100
AcDbCircle
10
188.95661228541428
20
367.05573628091599
30
0
40
1.6999999999999917
100
AcDbArc
50
-45.000000000002039
51
134.99999999991059
0
LINE
5
216
100
AcDbEntity
8
0
100
AcDbLine
10
190.15869381343137
20
365.85365475289882
30
0
11
190.15869381343134
21
354.6619808649674
31
-1.9721522630525295e-30
0
ARC
5
217
100
AcDbEntity
8
0
100
AcDbCircle
10
188.95661228541411
20
353.45989933695029
30
-2.0034188982143869e-44
40
1.7000000000000168
100
AcDbArc
50
-135.00000000008805
51
44.999999999997286
0
LINE
5
218
100
AcDbEntity
8
0
100
AcDbLine
10
187.75453075739512
20
352.25781780893499
30
-2.0015676424446803e-42
11
184.56285686946745
21
352.25781780893499
31
4.4408920985006262e-15
0
ARC
5
219
100
AcDbEntity
8
0
100
AcDbCircle
10
183.36077534144849
20
353.45989933695034
30
-1.9815236097093116e-44
40
1.6999999999999917
100
AcDbArc
50
135.00000000000068
51
315.000000000086
0
LINE
5
220
100
AcDbEntity
8
0
100
AcDbLine
10
182.15869381343134
20
354.66198086496746
30
1.3410635388757335e-30
11
182.15869381343333
21
365.85365475289706
31
-4.4408920985006254e-15
0
ARC
5
221
100
AcDbEntity
8
0
100
AcDbCircle
10
183.36077534144874
20
385.45989933695017
30
-4.4408920985006254e-15
40
1.7000000000000168
100
AcDbArc
50
134.99999999999866
51
315
0
LINE
5
222
100
AcDbEntity
8
0
100
AcDbLine
10
182.15869381343163
20
386.66198086496735
30
-4.4408920985006246e-15
11
182.15869381343168
21
397.85365475289871
31
1.9721522630525295e-30
0
ARC
5
223
100
AcDbEntity
8
0
100
AcDbCircle
10
183.36077534144886
20
399.05573628091582
30
-8.210733189403225e-45
40
1.7000000000000168
100
AcDbArc
50
45.000000000096179
51
224.99999999999861
0
LINE
5
224
100
AcDbEntity
8
0
100
AcDbLine
10
184.56285686946399
20
400.25781780893499
30
-2.3155876989088673e-42
11
187.75453075739935
21
400.25781780893499
31
0
0
ARC
5
225
100
AcDbEntity
8
0
100
AcDbCircle
10
188.95661228541454
20
399.05573628091582
30
4.1710524602168383e-44
40
1.6999999999999917
100
AcDbArc
50
-45.000000000002039
51
134.99999999990521
0
LINE
5
226
100
AcDbEntity
8
0
100
AcDbLine
10
190.15869381343163
20
397.85365475289865
30
2.1470465261121982e-42
11
190.15869381343157
21
386.66198086496735
31
0
0
ARC
5
227
100
AcDbEntity
8
0
100
AcDbCircle
10
188.95661228541442
20
385.45989933695017
30
-1.4779319740925805e-44
40
1.6999999999999917
100
AcDbArc
50
-135.0000000000928
51
45.000000000000668
0
LINE
5
228
100
AcDbEntity
8
0
100
AcDbLine
10
187.75453075739534
20
384.25781780893499
30
-2.1945264409822089e-42
11
184.56285686946586
21
384.25781780893305
31
-4.4408920985006262e-15
0
ARC
5
229
100
AcDbEntity
8
0
100
AcDbCircle
10
183.36077534144977
20
542.45989933694932
30
-4.4408920985006262e-15
40
1.7000000000000419
100
AcDbArc
50
134.99999999999528
51
315.00000085377104
0
LINE
5
230
100
AcDbEntity
8
0
100
AcDbLine
10
182.15869381343268
20
543.66198086496661
30
-4.4408920985006262e-15
11
182.15869381343282
21
554.85365475289791
31
-4.4408920985006246e-15
0
ARC
5
231
100
AcDbEntity
8
0
100
AcDbCircle
10
183.36077534145005
20
556.05573628091497
30
0
40
1.6999999999999664
100
AcDbArc
50
45.00000000010499
51
224.99999999999594
0
LINE
5
232
100
AcDbEntity
8
0
100
AcDbLine
10
184.56285686946498
20
557.25781780893431
30
0
11
187.75453075740063
21
557.25781780893431
31
-3.944304526105059e-30
0
ARC
5
233
100
AcDbEntity
8
0
100
AcDbCircle
10
188.95661228541564
20
556.05573628091497
30
-8.8817841970012523e-15
40
1.7000000000000168
100
AcDbArc
50
-45.000000000001378
51
134.99999999989706
0
LINE
5
234
100
AcDbEntity
8
0
100
AcDbLine
10
190.15869381343276
20
554.8536547528978
30
-8.8817841970012523e-15
11
190.15869381343268
21
543.66198086496649
31
0
0
ARC
5
235
100
AcDbEntity
8
0
100
AcDbCircle
10
188.95661228541545
20
542.45989933694943
30
-4.4408920985006254e-15
40
1.6999999999999917
100
AcDbArc
50
-135.00000000009553
51
44.999999999995936
0
LINE
5
236
100
AcDbEntity
8
0
100
AcDbLine
10
187.75453075739631
20
541.25781780893431
30
-4.4408920985006262e-15
11
184.56285688737927
21
541.25781782684453
31
-4.4408920985006262e-15
0
ARC
5
237
100
AcDbEntity
8
0
100
AcDbCircle
10
352.36077534144738
20
367.05573628091497
30
-4.4408920985006262e-15
40
1.6999999999999917
100
AcDbArc
50
45.000000000066379
51
225.00000000006636
0
LINE
5
238
100
AcDbEntity
8
0
100
AcDbLine
10
353.56285686946313
20
368.25781780893351
30
-4.4408920985006262e-15
11
356.75453075739722
21
368.25781780893351
31
-4.4408920985006262e-15
0
ARC
5
239
100
AcDbEntity
8
0
100
AcDbCircle
10
357.95661228541303
20
367.05573628091497
30
-1.0947644252537633e-46
40
1.6999999999999917
100
AcDbArc
50
-45
51
134.99999999993497
0
LINE
5
240
100
AcDbEntity
8
0
100
AcDbLine
10
359.15869381343015
20
365.85365475289785
30
-1.3410635388757335e-30
11
359.15869381343009
21
354.66198086496655
31
0
0
ARC
5
241
100
AcDbEntity
8
0
100
AcDbCircle
10
357.95661228541303
20
353.45989933694921
30
-8.8817841970012523e-15
40
1.6999999999999917
100
AcDbArc
50
-135.00000000006639
51
45.000000000006779
0
LINE
5
242
100
AcDbEntity
8
0
100
AcDbLine
10
356.75453075739455
20
352.25781780893351
30
-8.8817841970012539e-15
11
353.56285686946569
21
352.25781780893351
31
-4.4408920985006262e-15
0
ARC
5
243
100
AcDbEntity
8
0
100
AcDbCircle
10
352.36077534144727
20
353.45989933694932
30
0
40
1.7000000000000419
100
AcDbArc
50
135
51
315.00000000006236
0
LINE
5
244
100
AcDbEntity
8
0
100
AcDbLine
10
351.15869381343009
20
354.66198086496649
30
0
11
351.15869381343168
21
365.85365475289649
31
-4.4408920985006262e-15
0
ARC
5
245
100
AcDbEntity
8
0
100
AcDbCircle
10
352.36077534144755
20
385.45989933694926
30
1.0290785597385375e-44
40
1.7000000000000419
100
AcDbArc
50
135
51
315
0
LINE
5
246
100
AcDbEntity
8
0
100
AcDbLine
10
351.15869381343038
20
386.66198086496644
30
1.6454276377365244e-42
11
351.15869381343043
21
397.85365475289768
31
-4.4408920985006262e-15
0
ARC
5
247
100
AcDbEntity
8
0
100
AcDbCircle
10
352.36077534144755
20
399.05573628091486
30
0
40
1.7000000000000419
100
AcDbArc
50
45.000000000071807
51
225.00000000000134
0
LINE
5
248
100
AcDbEntity
8
0
100
AcDbLine
10
353.56285686946319
20
400.25781780893351
30
0
11
356.75453075739773
21
400.25781780893345
31
0
0
ARC
5
249
100
AcDbEntity
8
0
100
AcDbCircle
10
357.95661228541337
20
399.05573628091474
30
-4.4408920985006262e-15
40
1.6999999999999917
100
AcDbArc
50
-45.0000000000027
51
134.99999999992684
0
LINE
5
250
100
AcDbEntity
8
0
100
AcDbLine
10
359.15869381343043
20
397.85365475289757
30
-4.4408920985006246e-15
11
359.15869381343038
21
386.66198086496638
31
-4.4408920985006277e-15
0
ARC
5
251
100
AcDbEntity
8
0
100
AcDbCircle
10
357.9566122854132
20
385.45989933694909
30
1.9815236097093116e-44
40
1.6999999999999413
100
AcDbArc
50
-135.00000000007182
51
45.000000000002714
0
LINE
5
252
100
AcDbEntity
8
0
100
AcDbLine
10
356.7545307573946
20
384.25781780893351
30
1.3410635388757335e-30
11
353.56285686946472
21
384.25781780893209
31
-1.6250102994587874e-42
0
ARC
5
253
100
AcDbEntity
8
0
100
AcDbCircle
10
352.36077534144863
20
542.45989933694841
30
-4.4408920985006262e-15
40
1.6999999999999917
100
AcDbArc
50
135.00000000000273
51
315.00000000000267
0
LINE
5
254
100
AcDbEntity
8
0
100
AcDbLine
10
351.15869381343146
20
543.66198086496547
30
-4.4408920985006262e-15
11
351.15869381343151
21
554.85365475289677
31
-4.4408920985006262e-15
0
ARC
5
255
100
AcDbEntity
8
0
100
AcDbCircle
10
352.36077534144869
20
556.05573628091395
30
4.8169634711165587e-45
40
1.7000000000000419
100
AcDbArc
50
45.000000000081279
51
225
0
LINE
5
256
100
AcDbEntity
8
0
100
AcDbLine
10
353.56285686946416
20
557.25781780893283
30
1.9171635130397105e-42
11
356.75453075739904
21
557.25781780893283
31
0
0
ARC
5
257
100
AcDbEntity
8
0
100
AcDbCircle
10
357.95661228541439
20
556.05573628091395
30
-4.4408920985006262e-15
40
1.6999999999999917
100
AcDbArc
50
-45.000000000001378
51
134.99999999991601
0
LINE
5
258
100
AcDbEntity
8
0
100
AcDbLine
10
359.15869381343151
20
554.85365475289677
30
-4.4408920985006262e-15
11
359.15869381343146
21
543.66198086496547
31
-1.9721522630525295e-30
0
ARC
5
259
100
AcDbEntity
8
0
100
AcDbCircle
10
357.95661228541439
20
542.45989933694818
30
-4.4408920985006254e-15
40
1.6999999999999917
100
AcDbArc
50
-135.00000000007859
51
45.000000000005414
0
LINE
5
260
100
AcDbEntity
8
0
100
AcDbLine
10
356.75453075739563
20
541.25781780893271
30
-4.4408920985006246e-15
11
353.5628568694658
21
541.25781780893135
31
-4.4408920985006262e-15
0
LWPOLYLINE
5
261
100
AcDbEntity
8
0
100
AcDbPolyline
90
4
70
1
43
0.0
10
255.40869381343143
20
432.9879854286574
10
269.40869381343134
20
432.98798542865723
42
0.99999999999999989
10
269.40869381343163
20
471.61497510311483
10
255.40869381343171
20
471.614975103115
42
0.99999999999999989
0
LWPOLYLINE
5
262
100
AcDbEntity
8
0
100
AcDbPolyline
90
3
70
1
43
0.0
10
252.83669381343276
20
415.8013629308316
10
238.98069381343282
20
415.80136293083166
10
245.90869381343268
20
403.80171493599443
0
LWPOLYLINE
5
263
100
AcDbEntity
8
0
100
AcDbPolyline
90
3
70
1
43
0.0
10
238.98049058315505
20
488.80148026588552
10
252.83689704370596
20
488.8014802658854
10
245.9086938134306
20
500.8014802658854
0
LWPOLYLINE
5
264
100
AcDbEntity
8
0
100
AcDbPolyline
90
3
70
1
43
0.0
10
285.83669381342969
20
415.8013629308312
10
271.98069381342981
20
415.80136293083137
10
278.90869381342964
20
403.8017149359942
0
LWPOLYLINE
5
265
100
AcDbEntity
8
0
100
AcDbPolyline
90
3
70
1
43
0.0
10
271.98069381343026
20
488.80159760094068
10
285.83669381343014
20
488.80159760094057
10
278.90869381343032
20
500.8012455957778
0
CIRCLE
5
266
100
AcDbEntity
8
0
100
AcDbCircle
10
186.15869381343197
20
376.25781780893641
30
-4.4408920985006262e-15
40
1.9999999999999787
0
CIRCLE
5
267
100
AcDbEntity
8
0
100
AcDbCircle
10
355.15869381343055
20
533.25781780893453
30
0
40
2.0000000000000142
0
CIRCLE
5
268
100
AcDbEntity
8
0
100
AcDbCircle
10
355.15869381342964
20
376.25781780893487
30
0
40
2.0000000000000142
0
CIRCLE
5
269
100
AcDbEntity
8
0
100
AcDbCircle
10
186.15869381343231
20
533.25781780893601
30
0
40
2.0000000000000142
0
ARC
5
270
100
AcDbEntity
8
0
100
AcDbCircle
10
188.9566122854165
20
524.05573628092179
30
-4.4408920985006262e-15
40
1.7000000000000168
100
AcDbArc
50
-44.999999999988503
51
135.00000000010297
0
LINE
5
271
100
AcDbEntity
8
0
100
AcDbLine
10
190.15869381343381
20
522.85365475290496
30
-4.4408920985006262e-15
11
190.15869381343506
21
511.6619808649736
31
0
0
ARC
5
272
100
AcDbEntity
8
0
100
AcDbCircle
10
188.95661228541809
20
510.45989933695625
30
-4.4408920985006262e-15
40
1.7000000000000086
100
AcDbArc
50
-173.17302262285574
51
45.000000000008804
0
LINE
5
273
100
AcDbEntity
8
0
100
AcDbLine
10
187.26866588341557
20
510.25781780893635
30
-4.4408920985006262e-15
11
185.04872174345502
21
510.25781780893635
31
0
0
ARC
5
274
100
AcDbEntity
8
0
100
AcDbCircle
10
183.36077534145247
20
510.45989933695574
30
-4.4408920985006262e-15
40
1.7000000000000419
100
AcDbArc
50
135.00000000001017
51
353.17302262287291
0
LINE
5
275
100
AcDbEntity
8
0
100
AcDbLine
10
182.15869381343509
20
511.66198086497269
30
-4.440892098500627e-15
11
182.15869381343384
21
522.85365475290394
31
1.9721522630525295e-30
0
ARC
5
276
100
AcDbEntity
8
0
100
AcDbCircle
10
183.36077534145079
20
524.05573628092134
30
0
40
1.6999999999999917
100
AcDbArc
50
44.9999999999011
51
225.00000000001086
0
LINE
5
277
100
AcDbEntity
8
0
100
AcDbLine
10
184.56285686946995
20
525.25781780893635
30
-2.4634937555060833e-46
11
187.75453075739716
21
525.25781780893681
31
-4.4408920985006262e-15
0
LWPOLYLINE
5
278
100
AcDbEntity
8
0
100
AcDbPolyline
90
4
70
1
43
0.0
10
262.65869381341639
20
584.25781780893635
10
262.65869381341633
20
576.25781780893635
10
278.65869381341622
20
576.25781780893612
10
278.65869381341628
20
584.25781780893612
0
LWPOLYLINE
5
279
100
AcDbEntity
8
0
100
AcDbPolyline
90
4
70
1
43
0.0
10
262.65869381342969
20
333.25781780893777
10
262.65869381342964
20
325.25781780893783
10
278.65869381342958
20
325.25781780893766
10
278.65869381342964
20
333.2578178089376
0
LWPOLYLINE
5
280
100
AcDbEntity
8
0
100
AcDbPolyline
90
8
70
1
43
0.0
10
12.009733113997553
20
524.51060343275924
42
-0.91649449412534412
10
14.404784767145154
20
526.90565508589907
10
25.814681460744914
20
526.90565508590032
42
-0.91649449412576145
10
28.209733113892291
20
524.51060343276004
10
28.209733113892565
20
521.10070673915322
42
-0.91649449412291273
10
25.814681460753832
20
518.70565508600555
10
14.404784767138107
20
518.7056550860043
42
-0.91649449412260431
10
12.009733113997946
20
521.10070673915038
0
LWPOLYLINE
5
281
100
AcDbEntity
8
0
100
AcDbPolyline
90
8
70
1
43
0.0
10
12.009673637515137
20
356.31299403646045
42
-0.91649449412497452
10
14.404725290661416
20
358.70804568960148
10
25.81462198426383
20
358.70804568960267
42
-0.91649449412523476
10
28.209673637409868
20
356.31299403646119
10
28.209673637410116
20
352.90309734285415
42
-0.91649449412335415
10
25.814621984270019
20
350.50804568970773
10
14.404725290656792
20
350.50804568970653
42
-0.91649449412307704
10
12.009673637515482
20
352.90309734285182
0
LWPOLYLINE
5
282
100
AcDbEntity
8
0
100
AcDbPolyline
90
8
70
1
43
0.0
10
131.71017525479593
20
432.90309770299211
42
-0.91649449412327266
10
129.31512360165684
20
430.50804604984472
10
125.90522690804255
20
430.50804604984444
42
-0.91649449412269623
10
123.51017525490138
20
432.90309770298956
10
123.51017525490013
20
444.31299439659892
42
-0.91649449412500639
10
125.90522690804744
20
446.70804604973898
10
129.31512360164848
20
446.70804604973915
42
-0.91649449412557249
10
131.71017525479476
20
444.31299439659813
0
LWPOLYLINE
5
283
100
AcDbEntity
8
0
100
AcDbPolyline
90
8
70
1
43
0.0
10
-83.290827979997829
20
432.90309770296795
42
-0.91649449412297634
10
-85.685879633137688
20
430.50804604982142
10
-89.095776326751974
20
430.50804604982119
42
-0.91649449412295114
10
-91.490827979892501
20
432.90309770296693
10
-91.490827979893623
20
444.31299439657488
42
-0.91649449412533412
10
-89.095776326747085
20
446.70804604971568
10
-85.685879633146058
20
446.70804604971602
42
-0.91649449412532613
10
-83.290827979999108
20
444.31299439657556
0
LWPOLYLINE
5
284
100
AcDbEntity
8
0
100
AcDbPolyline
90
3
70
1
43
0.0
10
-11.890296624301453
20
479.6454010481026
10
3.1097033756976744
20
488.30565508594873
10
-11.890296624303327
20
496.9659091237915
0
LWPOLYLINE
5
285
100
AcDbEntity
8
0
100
AcDbPolyline
90
3
70
1
43
0.0
10
-11.890296624308229
20
529.64540104810362
10
3.1097033756922565
20
538.30565508594748
10
-11.890296624307393
20
546.9659091237927
0
LWPOLYLINE
5
286
100
AcDbEntity
8
0
100
AcDbPolyline
90
3
70
1
43
0.0
10
52.109703375696824
20
496.96590912379855
10
37.109703375697684
20
488.30565508595242
10
52.109703375698693
20
479.64540104810953
0
LWPOLYLINE
5
287
100
AcDbEntity
8
0
100
AcDbPolyline
90
3
70
1
43
0.0
10
52.109703375690664
20
546.96590912379929
10
37.109703375692256
20
538.30565508595191
10
52.109703375694011
20
529.64540104811033
0
LWPOLYLINE
5
288
100
AcDbEntity
8
0
100
AcDbPolyline
90
16
70
1
43
0.0
10
138.11779857957862
20
321.19383212729269
42
-0.19891236737968432
10
136.70358501720554
20
320.60804568966557
10
-96.484178265766474
20
320.60804568964033
42
-0.19891236737969298
10
-97.898391828139609
20
321.19383212726711
10
-101.72681895288619
20
325.02225925201282
42
-0.19891236737967058
10
-102.31260539051328
20
326.43647281438587
10
-102.31260539053748
20
550.97722796119183
42
-0.19891236737965801
10
-101.72681895291075
20
552.39144152356494
10
-97.898391828165018
20
556.2198686483116
42
-0.19891236737961865
10
-96.484178265791982
20
556.80565508593872
10
136.7035850171801
20
556.80565508596396
42
-0.19891236737969042
10
138.11779857955318
20
556.2198686483373
10
141.94622570429982
20
552.39144152359142
42
-0.19891236737964391
10
142.53201214192683
20
550.97722796121843
10
142.53201214195101
20
326.43647281441241
42
-0.19891236737965801
10
141.94622570432426
20
325.02225925203925
0
CIRCLE
5
289
100
AcDbEntity
8
0
100
AcDbCircle
10
-204.41008793044278
20
454.95516949439832
30
-1.1102230246251565e-15
40
10.000000000000002
0
CIRCLE
5
290
100
AcDbEntity
8
0
100
AcDbCircle
10
-258.41008793044324
20
454.95516949439923
30
2.2204460492503131e-15
40
10.000000000000002
0
ARC
5
291
100
AcDbEntity
8
0
100
AcDbCircle
10
-206.2079766605751
20
486.45964117752987
30
-3.3306690738754692e-15
40
1.6999999999999917
100
AcDbArc
50
135.00000017155824
51
314.99999808024961
0
LINE
5
292
100
AcDbEntity
8
0
100
AcDbLine
10
-207.41005819219157
20
487.66172270194767
30
-3.3306690738754673e-15
11
-207.41005819219106
21
523.25716904260344
31
2.2204460492503131e-15
0
LINE
5
293
100
AcDbEntity
8
0
100
AcDbLine
10
-207.41005819219106
20
523.25716904260344
30
2.2204460492503131e-15
11
-255.41005819219109
21
523.25716904785077
31
3.3306690738754696e-15
0
LINE
5
294
100
AcDbEntity
8
0
100
AcDbLine
10
-255.41005819219109
20
523.25716904785077
30
3.3306690738754696e-15
11
-255.41005819219157
21
487.66172271017524
31
1.1102230246251408e-15
0
ARC
5
295
100
AcDbEntity
8
0
100
AcDbCircle
10
-256.61213971969585
20
486.45964118164528
30
-4.4408920985006262e-15
40
1.7000000000000424
100
AcDbArc
50
-134.999998788742
51
45.00000002444397
0
LINE
5
296
100
AcDbEntity
8
0
100
AcDbLine
10
-257.81422122230049
20
485.25755962821557
30
-4.4408920985006262e-15
11
-294.91055819219162
21
485.2575596599612
31
-3.1554436208840472e-29
0
LINE
5
297
100
AcDbEntity
8
0
100
AcDbLine
10
-294.91055819219162
20
485.2575596599612
30
-3.1554436208840472e-29
11
-294.91055819219201
21
460.25755987903267
31
2.2204460492503289e-15
0
LINE
5
298
100
AcDbEntity
8
0
100
AcDbLine
10
-294.91055819219201
20
460.25755987903267
30
2.2204460492503289e-15
11
-299.91055819219207
21
455.25755987903267
31
3.3306690738754696e-15
0
LINE
5
299
100
AcDbEntity
8
0
100
AcDbLine
10
-299.91055819219207
20
455.25755987903267
30
3.3306690738754696e-15
11
-341.91055980958868
21
455.25755987903324
31
2.2204460492503131e-15
0
ARC
5
300
100
AcDbEntity
8
0
100
AcDbCircle
10
-341.91055980958873
20
454.25755987903335
30
3.33066907387547e-15
40
0.9999999999998721
100
AcDbArc
50
89.999999999996746
51
180
0
LINE
5
301
100
AcDbEntity
8
0
100
AcDbLine
10
-342.91055980958868
20
454.25755987903329
30
3.3306690738754696e-15
11
-342.91055980958879
21
445.25755872063769
31
0
0
ARC
5
302
100
AcDbEntity
8
0
100
AcDbCircle
10
-341.91055980958885
20
445.25755872063758
30
0
40
0.99999999999994316
100
AcDbArc
50
180
51
270.00000000000324
0
LINE
5
303
100
AcDbEntity
8
0
100
AcDbLine
10
-341.91055980958879
20
444.25755872063758
30
0
11
-337.31472117573668
21
444.25755872063758
31
3.3306690738754696e-15
0
ARC
5
304
100
AcDbEntity
8
0
100
AcDbCircle
10
-336.11263964772098
20
443.05547719261904
30
-3.3306690738754696e-15
40
1.6999999999999915
100
AcDbArc
50
-45.000000000018979
51
134.99999999993227
0
LINE
5
305
100
AcDbEntity
8
0
100
AcDbLine
10
-334.91055811970426
20
441.85339566460152
30
-3.330669073875472e-15
11
-334.9105581197054
21
368.66172409346484
31
1.1102230246251881e-15
0
ARC
5
306
100
AcDbEntity
8
0
100
AcDbCircle
10
-336.11263964772218
20
367.45964256544738
30
-3.3306690738754696e-15
40
1.7000000000000419
100
AcDbArc
50
-134.99999999992957
51
45.00000000001625
0
LINE
5
307
100
AcDbEntity
8
0
100
AcDbLine
10
-337.31472117573787
20
366.25756103742873
30
-3.33066907387547e-15
11
-341.91055980958998
21
366.2575610374289
31
1.1102230246251565e-15
0
ARC
5
308
100
AcDbEntity
8
0
100
AcDbCircle
10
-341.91055980959004
20
365.25756103742884
30
2.2204460492503131e-15
40
1.0000000000000142
100
AcDbArc
50
89.999999999996746
51
180
0
LINE
5
309
100
AcDbEntity
8
0
100
AcDbLine
10
-342.9105598095901
20
365.25756103742884
30
2.2204460492503131e-15
11
-342.91055980959015
21
356.25755987903324
31
4.4408920985006262e-15
0
ARC
5
310
100
AcDbEntity
8
0
100
AcDbCircle
10
-341.91055980959021
20
356.25755987903318
30
3.3306690738754696e-15
40
0.99999999999994316
100
AcDbArc
50
180
51
270
0
LINE
5
311
100
AcDbEntity
8
0
100
AcDbLine
10
-341.91055980959021
20
355.25755987903318
30
3.3306690738754696e-15
11
-299.91055819219361
21
355.25755987903267
31
2.2204460492503131e-15
0
LINE
5
312
100
AcDbEntity
8
0
100
AcDbLine
10
-299.91055819219361
20
355.25755987903267
30
2.2204460492503131e-15
11
-294.91055819219366
21
350.25755987903256
31
1.1102230246251565e-15
0
LINE
5
313
100
AcDbEntity
8
0
100
AcDbLine
10
-294.91055819219366
20
350.25755987903256
30
1.1102230246251565e-15
11
-294.91055819219406
21
325.25756009810391
31
1.1102230246251723e-15
0
LINE
5
314
100
AcDbEntity
8
0
100
AcDbLine
10
-294.91055819219406
20
325.25756009810391
30
1.1102230246251723e-15
11
-257.81422122230072
21
325.25756012984851
31
2.2204460492503131e-15
0
ARC
5
315
100
AcDbEntity
8
0
100
AcDbCircle
10
-256.61213971969835
20
324.05547857641659
30
-4.440892098500627e-15
40
1.7000000000000419
100
AcDbArc
50
-45.000000024445335
51
134.999998788635
0
LINE
5
316
100
AcDbEntity
8
0
100
AcDbLine
10
-255.41005819219407
20
322.85339704788657
30
-4.4408920985006238e-15
11
-255.41005819219464
21
287.25795071021298
31
-4.2286099963467117e-25
0
LINE
5
317
100
AcDbEntity
8
0
100
AcDbLine
10
-255.41005819219464
20
287.25795071021298
30
-4.2286099963467117e-25
11
-207.41005819219458
21
287.25795071545906
31
3.3306690738754696e-15
0
LINE
5
318
100
AcDbEntity
8
0
100
AcDbLine
10
-207.41005819219458
20
287.25795071545906
30
3.3306690738754696e-15
11
-207.4100581921941
21
322.85339705611284
31
8.6695813483789197e-26
0
ARC
5
319
100
AcDbEntity
8
0
100
AcDbCircle
10
-206.20797666057754
20
324.05547858053069
30
-3.3306690738754696e-15
40
1.6999999999999926
100
AcDbArc
50
45.000001884344293
51
224.99999982844108
0
LINE
5
320
100
AcDbEntity
8
0
100
AcDbLine
10
-205.00589517209448
20
325.25756014808189
30
-3.3306690738754692e-15
11
-167.90955819219405
21
325.25756015286993
31
1.1102230252092607e-15
0
LINE
5
321
100
AcDbEntity
8
0
100
AcDbLine
10
-167.90955819219405
20
325.25756015286993
30
1.1102230252092607e-15
11
-167.90955819219366
21
350.25755987903062
31
4.4408920985006262e-15
0
LINE
5
322
100
AcDbEntity
8
0
100
AcDbLine
10
-167.90955819219366
20
350.25755987903062
30
4.4408920985006262e-15
11
-162.9095581921936
21
355.25755987903062
31
3.3306690738754696e-15
0
LINE
5
323
100
AcDbEntity
8
0
100
AcDbLine
10
-162.9095581921936
20
355.25755987903062
30
3.3306690738754696e-15
11
-120.90955657479697
21
355.25755987903005
31
4.4408920985006262e-15
0
ARC
5
324
100
AcDbEntity
8
0
100
AcDbCircle
10
-120.90955657479695
20
356.25755987903
30
3.3306690738754696e-15
40
0.99999999999994316
100
AcDbArc
50
-90.00000000000081
51
0
0
LINE
5
325
100
AcDbEntity
8
0
100
AcDbLine
10
-119.90955657479695
20
356.25755987903
30
3.3306690738754696e-15
11
-119.90955657479681
21
365.2575610374256
31
1.1102230246251565e-15
0
ARC
5
326
100
AcDbEntity
8
0
100
AcDbCircle
10
-120.90955657479681
20
365.2575610374256
30
2.2204460492503131e-15
40
0.99999999999999645
100
AcDbArc
50
0
51
89.99999999999919
0
LINE
5
327
100
AcDbEntity
8
0
100
AcDbLine
10
-120.9095565747968
20
366.2575610374256
30
2.2204460492503131e-15
11
-125.50539520864847
21
366.25756103742566
31
2.2204460492503091e-15
0
ARC
5
328
100
AcDbEntity
8
0
100
AcDbCircle
10
-126.70747673666396
20
367.45964256544448
30
-3.3306690738754696e-15
40
1.7000000000000168
100
AcDbArc
50
135.00000000001356
51
314.99999999992076
0
LINE
5
329
100
AcDbEntity
8
0
100
AcDbLine
10
-127.90955826468137
20
368.66172409346132
30
-3.3306690738754673e-15
11
-127.90955826468024
21
441.85339566459891
31
-3.3306690738755012e-15
0
ARC
5
330
100
AcDbEntity
8
0
100
AcDbCircle
10
-126.70747673666281
20
443.05547719261568
30
-3.3306690738754696e-15
40
1.700000000000004
100
AcDbArc
50
45.00000000007519
51
224.99999999998442
0
LINE
5
331
100
AcDbEntity
8
0
100
AcDbLine
10
-125.50539520864726
20
444.25755872063439
30
-3.3306690738754712e-15
11
-120.9095565747956
21
444.25755872063439
31
1.1102230246251605e-15
0
ARC
5
332
100
AcDbEntity
8
0
100
AcDbCircle
10
-120.90955657479557
20
445.25755872063434
30
3.3306690738754696e-15
40
0.99999999999994316
100
AcDbArc
50
-90.000000000001634
51
0
0
LINE
5
333
100
AcDbEntity
8
0
100
AcDbLine
10
-119.90955657479563
20
445.25755872063439
30
3.3306690738754696e-15
11
-119.90955657479546
21
454.25755987903011
31
2.2204460492503131e-15
0
ARC
5
334
100
AcDbEntity
8
0
100
AcDbCircle
10
-120.90955657479553
20
454.25755987902994
30
2.2204460492503135e-15
40
1.0000000000000675
100
AcDbArc
50
0
51
89.999999999994301
0
LINE
5
335
100
AcDbEntity
8
0
100
AcDbLine
10
-120.90955657479543
20
455.25755987903005
30
2.2204460492503139e-15
11
-162.90955819219207
21
455.25755987903062
31
3.3306690738754696e-15
0
LINE
5
336
100
AcDbEntity
8
0
100
AcDbLine
10
-162.90955819219207
20
455.25755987903062
30
3.3306690738754696e-15
11
-167.90955819219198
21
460.25755987903068
31
1.1102230246251565e-15
0
LINE
5
337
100
AcDbEntity
8
0
100
AcDbLine
10
-167.90955819219198
20
460.25755987903068
30
1.1102230246251565e-15
11
-167.90955819219161
21
485.25755960519132
31
0
0
LINE
5
338
100
AcDbEntity
8
0
100
AcDbLine
10
-167.90955819219161
20
485.25755960519132
30
0
11
-205.00589517283487
21
485.25755960923584
31
-3.3306690738754712e-15
0
CIRCLE
5
339
100
AcDbEntity
8
0
100
AcDbCircle
10
-247.41005819219438
20
302.25795071545963
30
3.3306690738754696e-15
40
3.0000000000000075
0
CIRCLE
5
340
100
AcDbEntity
8
0
100
AcDbCircle
10
-215.41005819219438
20
302.25795071545912
30
4.4408920985006262e-15
40
3.0000000000000075
0
CIRCLE
5
341
100
AcDbEntity
8
0
100
AcDbCircle
10
-215.91005819219333
20
372.25755987903136
30
2.2204460492503131e-15
40
3.0000000000000009
0
LWPOLYLINE
5
342
100
AcDbEntity
8
0
100
AcDbPolyline
90
3
70
1
43
0.0
10
-211.91017552724801
20
346.1855598790313
10
-223.90982352208533
20
339.25755987903142
10
-211.91017552724821
20
332.32955987903131
0
LWPOLYLINE
5
343
100
AcDbEntity
8
0
100
AcDbPolyline
90
3
70
1
43
0.0
10
-211.91005819219296
20
398.32935664875583
10
-211.91005819219274
20
412.18576310930689
10
-223.91005819219285
20
405.25755987903148
0
LWPOLYLINE
5
344
100
AcDbEntity
8
0
100
AcDbPolyline
90
3
70
1
43
0.0
10
-223.90982352208334
20
471.25755987903153
10
-211.91017552724622
20
464.32955987903136
10
-211.91017552724603
20
478.18555987903142
0
CIRCLE
5
345
100
AcDbEntity
8
0
100
AcDbCircle
10
-215.91005819219234
20
438.25755987903136
30
2.2204460492503131e-15
40
3.0000000000000009
0
CIRCLE
5
346
100
AcDbEntity
8
0
100
AcDbCircle
10
-215.41005819219126
20
508.25716904260355
30
3.3306690738754696e-15
40
3.0000000000000075
0
CIRCLE
5
347
100
AcDbEntity
8
0
100
AcDbCircle
10
-247.41005819219126
20
508.257169042604
30
2.2204460492503131e-15
40
3.0000000000000075
0
ARC
5
348
100
AcDbEntity
8
0
100
AcDbCircle
10
-89.841492761540508
20
151.42603726147453
30
1.7763568394002505e-14
40
1.700000000000004
100
AcDbArc
50
134.99999999995126
51
314.99999999995157
0
LINE
5
349
100
AcDbEntity
8
0
100
AcDbLine
10
-91.043574289556631
20
152.6281187894927
30
1.7763568394002505e-14
11
-91.043574289556517
21
163.8197926774219
31
3.944304526105059e-30
0
ARC
5
350
100
AcDbEntity
8
0
100
AcDbCircle
10
-89.841492761540451
20
165.0218742054401
30
0
40
1.700000000000004
100
AcDbArc
50
45.00000000006807
51
225.00000000005082
0
LINE
5
351
100
AcDbEntity
8
0
100
AcDbLine
10
-88.63941123352474
20
166.22395573345867
30
0
11
-85.44773734559044
21
166.22395573345858
31
1.2325951644078561e-31
0
ARC
5
352
100
AcDbEntity
8
0
100
AcDbCircle
10
-84.2456558175748
20
165.02187420544001
30
5.0085472455359673e-45
40
1.6999999999999917
100
AcDbArc
50
-44.999999999942752
51
134.99999999993022
0
LINE
5
353
100
AcDbEntity
8
0
100
AcDbLine
10
-83.043574289556474
20
163.81979267742409
30
-7.4073813924133298e-43
11
-83.043574289556545
21
152.6281187894906
31
-3.944304526105059e-30
0
ARC
5
354
100
AcDbEntity
8
0
100
AcDbCircle
10
-84.2456558175748
20
151.42603726147451
30
1.7763568394002505e-14
40
1.6999999999999917
100
AcDbArc
50
-135.00000000006165
51
44.999999999948521
0
LINE
5
355
100
AcDbEntity
8
0
100
AcDbLine
10
-85.447737345593225
20
150.22395573345867
30
1.7763568394002505e-14
11
-88.639411233524399
21
150.22395573345639
31
1.7763568394002505e-14
0
LWPOLYLINE
5
356
100
AcDbEntity
8
0
100
AcDbPolyline
90
8
70
1
43
0.0
10
-91.043574289554684
20
245.78979267741971
42
-0.99999999999999989
10
-88.639411233524527
20
248.19395573345815
10
-85.44773734559206
20
248.193955733455
42
-0.99999999999999989
10
-83.04357428955575
20
245.78979267742281
10
-83.043574289554968
20
234.59811878948864
42
-0.99999999999999989
10
-85.447737345593154
20
232.19395573345821
10
-88.639411233523589
20
232.19395573345531
42
-0.99999999999999989
10
-91.043574289555877
20
234.59811878949159
0
ARC
5
357
100
AcDbEntity
8
0
100
AcDbCircle
10
-340.84149276153892
20
165.02187420544286
30
1.4888796183451181e-44
40
1.6999999999999664
100
AcDbArc
50
45.000000000065697
51
225.00000000006503
0
LINE
5
358
100
AcDbEntity
8
0
100
AcDbLine
10
-339.63941123352322
20
166.22395573346131
30
-3.3526588471852376e-31
11
-336.44773734558885
21
166.22395573346128
31
1.2325951644078561e-31
0
ARC
5
359
100
AcDbEntity
8
0
100
AcDbCircle
10
-335.24565581757315
20
165.02187420544271
30
0
40
1.7000000000000168
100
AcDbArc
50
-44.999999999993236
51
134.99999999993159
0
LINE
5
360
100
AcDbEntity
8
0
100
AcDbLine
10
-334.04357428955586
20
163.81979267742571
30
0
11
-334.04357428955598
21
152.62811878949427
31
0
0
ARC
5
361
100
AcDbEntity
8
0
100
AcDbCircle
10
-335.24565581757315
20
151.42603726147715
30
1.7763568394002505e-14
40
1.6999999999999664
100
AcDbArc
50
-135.00000000006031
51
44.99999999999865
0
LINE
5
362
100
AcDbEntity
8
0
100
AcDbLine
10
-336.44773734559152
20
150.22395573346131
30
1.7763568394002505e-14
11
-339.63941123352049
21
150.22395573346134
31
1.7763568394002505e-14
0
ARC
5
363
100
AcDbEntity
8
0
100
AcDbCircle
10
-340.84149276153892
20
151.42603726147723
30
1.7763568394002505e-14
40
1.699999999999954
100
AcDbArc
50
135.00000000000813
51
315.00000000006031
0
LINE
5
364
100
AcDbEntity
8
0
100
AcDbLine
10
-342.0435742895562
20
152.62811878949418
30
1.7763568394002505e-14
11
-342.04357428955467
21
163.81979267742437
31
3.3526588471855363e-31
0
ARC
5
365
100
AcDbEntity
8
0
100
AcDbCircle
10
-340.84149276153818
20
233.39603726147607
30
-1.0509738482436128e-44
40
1.6999999999999664
100
AcDbArc
50
135.00000000000136
51
315.00000000000341
0
LINE
5
366
100
AcDbEntity
8
0
100
AcDbLine
10
-342.04357428955529
20
234.59811878949313
30
5.0962296424490499e-43
11
-342.04357428955529
21
245.7897926774246
31
0
0
ARC
5
367
100
AcDbEntity
8
0
100
AcDbCircle
10
-340.84149276153795
20
246.9918742054416
30
1.7763568394002505e-14
40
1.6999999999999413
100
AcDbArc
50
45.000000000101601
51
224.99999999999184
0
LINE
5
368
100
AcDbEntity
8
0
100
AcDbLine
10
-339.63941123352299
20
248.19395573346083
30
1.7763568394002505e-14
11
-336.44773734558737
21
248.19395573346077
31
1.7763568394002508e-14
0
ARC
5
369
100
AcDbEntity
8
0
100
AcDbCircle
10
-335.24565581757236
20
246.99187420544155
30
1.7763568394002505e-14
40
1.6999999999999664
100
AcDbArc
50
-44.999999999996589
51
134.99999999989976
0
LINE
5
370
100
AcDbEntity
8
0
100
AcDbLine
10
-334.04357428955518
20
245.78979267742451
30
1.7763568394002505e-14
11
-334.04357428955529
21
234.5981187894931
31
1.7763568394002505e-14
0
ARC
5
371
100
AcDbEntity
8
0
100
AcDbCircle
10
-335.24565581757253
20
233.39603726147604
30
4.1053665947016125e-46
40
1.6999999999999917
100
AcDbArc
50
-135.0000000000928
51
44.999999999995936
0
LINE
5
372
100
AcDbEntity
8
0
100
AcDbLine
10
-336.44773734559158
20
232.19395573346088
30
5.1602514660378864e-43
11
-339.639411233521
21
232.19395573345903
31
-5.3068349943903568e-43
0
LINE
5
373
100
AcDbEntity
8
0
100
AcDbLine
10
-160.44773734559323
20
268.19395573345872
30
0
11
-264.63941123352555
21
268.1939557334598
31
-1.9228484564785578e-29
0
ARC
5
374
100
AcDbEntity
8
0
100
AcDbCircle
10
-265.84149276154346
20
269.39603726147624
30
1.7763568394002505e-14
40
1.6999999999999917
100
AcDbArc
50
134.99999999997425
51
315.00000000003524
0
LINE
5
375
100
AcDbEntity
8
0
100
AcDbLine
10
-267.04357428956007
20
270.59811878949392
30
1.7763568394002505e-14
11
-267.04357428956007
21
275.1939557334598
31
1.7763568394002486e-14
0
ARC
5
376
100
AcDbEntity
8
0
100
AcDbCircle
10
-268.04357428956001
20
275.19395573345986
30
1.7763568394002505e-14
40
0.99999999999994316
100
AcDbArc
50
0
51
90
0
LINE
5
377
100
AcDbEntity
8
0
100
AcDbLine
10
-268.04357428956001
20
276.1939557334598
30
1.7763568394002505e-14
11
-282.04357428956001
21
276.19395573345997
31
1.7763568394002505e-14
0
ARC
5
378
100
AcDbEntity
8
0
100
AcDbCircle
10
-282.04357428956007
20
275.19395573345997
30
-2.0184719090616262e-45
40
0.99999999999997868
100
AcDbArc
50
89.999999999996746
51
180
0
LINE
5
379
100
AcDbEntity
8
0
100
AcDbLine
10
-283.04357428956001
20
275.19395573345997
30
-3.6207482954422477e-32
11
-283.04357428956007
21
270.59811878949307
31
-2.6624055551209148e-29
0
ARC
5
380
100
AcDbEntity
8
0
100
AcDbCircle
10
-284.24565581757781
20
269.39603726147647
30
1.7763568394002505e-14
40
1.6999999999999917
100
AcDbArc
50
-135.00000000003388
51
44.999999999972907
0
LINE
5
381
100
AcDbEntity
8
0
100
AcDbLine
10
-285.44773734559561
20
268.19395573346009
30
1.7763568394002505e-14
11
-296.63941123352549
21
268.1939557334602
31
-3.7963931063777112e-29
0
ARC
5
382
100
AcDbEntity
8
0
100
AcDbCircle
10
-297.84149276154335
20
269.39603726147658
30
-4.9538090242732791e-45
40
1.7000000000000168
100
AcDbArc
50
134.99999999998508
51
315.00000000003524
0
LINE
5
383
100
AcDbEntity
8
0
100
AcDbLine
10
-299.04357428956018
20
270.59811878949404
30
-3.1204863889051068e-43
11
-299.04357428956013
21
275.19395573346014
31
-7.8886090522101181e-30
0
ARC
5
384
100
AcDbEntity
8
0
100
AcDbCircle
10
-300.04357428956007
20
275.1939557334602
30
2.8155972561995226e-45
40
0.99999999999994316
100
AcDbArc
50
0
51
90.000000000003254
0
LINE
5
385
100
AcDbEntity
8
0
100
AcDbLine
10
-300.04357428956013
20
276.19395573346014
30
-1.6396183893630511e-45
11
-314.04357428956013
21
276.19395573346031
31
-1.1035025121435049e-44
0
ARC
5
386
100
AcDbEntity
8
0
100
AcDbCircle
10
-314.04357428956013
20
275.19395573346037
30
-2.4974313451101476e-45
40
0.99999999999997868
100
AcDbArc
50
90
51
180
0
LINE
5
387
100
AcDbEntity
8
0
100
AcDbLine
10
-315.04357428956013
20
275.19395573346037
30
-4.9303806576315011e-32
11
-315.04357428956018
21
270.5981187894937
31
-1.9721522630525295e-30
0
ARC
5
388
100
AcDbEntity
8
0
100
AcDbCircle
10
-316.24565581757759
20
269.39603726147686
30
1.7763568394002505e-14
40
1.6999999999999917
100
AcDbArc
50
-135.00000000003251
51
44.99999999998645
0
LINE
5
389
100
AcDbEntity
8
0
100
AcDbLine
10
-317.44773734559539
20
268.19395573346043
30
1.7763568394002505e-14
11
-350.04357428956018
21
268.19395573346077
31
1.7763568394002505e-14
0
LINE
5
390
100
AcDbEntity
8
0
100
AcDbLine
10
-350.04357428956018
20
268.19395573346077
30
1.7763568394002505e-14
11
-350.04357428956132
21
130.22395573346157
31
3.1554436208840472e-29
0
LINE
5
391
100
AcDbEntity
8
0
100
AcDbLine
10
-350.04357428956132
20
130.22395573346157
30
3.1554436208840472e-29
11
-317.44773734559533
21
130.22395573346122
31
1.7763568394002505e-14
0
ARC
5
392
100
AcDbEntity
8
0
100
AcDbCircle
10
-316.24565581757884
20
129.02187420544334
30
1.7763568394002505e-14
40
1.6999999999999791
100
AcDbArc
50
-44.999999999986819
51
134.99999999996683
0
LINE
5
393
100
AcDbEntity
8
0
100
AcDbLine
10
-315.04357428956143
20
127.81979267742649
30
1.7763568394002505e-14
11
-315.04357428956149
21
123.22395573346121
31
1.7763568394002501e-14
0
ARC
5
394
100
AcDbEntity
8
0
100
AcDbCircle
10
-314.04357428956143
20
123.2239557334612
30
1.7763568394002505e-14
40
1.0000000000000142
100
AcDbArc
50
180
51
270
0
LINE
5
395
100
AcDbEntity
8
0
100
AcDbLine
10
-314.04357428956143
20
122.22395573346118
30
1.7763568394002505e-14
11
-300.04357428956149
21
122.22395573346105
31
1.1035025121435049e-44
0
ARC
5
396
100
AcDbEntity
8
0
100
AcDbCircle
10
-300.04357428956143
20
123.22395573346103
30
-2.1484751845605105e-45
40
0.99999999999997868
100
AcDbArc
50
-90.000000000003254
51
0
0
LINE
5
397
100
AcDbEntity
8
0
100
AcDbLine
10
-299.04357428956143
20
123.22395573346103
30
-3.620748295442119e-32
11
-299.04357428956143
21
127.81979267742564
31
2.9582283945787943e-30
0
ARC
5
398
100
AcDbEntity
8
0
100
AcDbCircle
10
-297.8414927615446
20
129.02187420544305
30
1.7763568394002505e-14
40
1.7000000000000293
100
AcDbArc
50
45.000000000037247
51
225.0000000000139
0
LINE
5
399
100
AcDbEntity
8
0
100
AcDbLine
10
-296.63941123352822
20
130.223955733461
30
1.7763568394002505e-14
11
-285.44773734559556
21
130.22395573346085
31
1.7763568394002584e-14
0
ARC
5
400
100
AcDbEntity
8
0
100
AcDbCircle
10
-284.24565581757912
20
129.02187420544297
30
1.7763568394002505e-14
40
1.700000000000004
100
AcDbArc
50
-44.999999999968146
51
134.99999999996547
0
LINE
5
401
100
AcDbEntity
8
0
100
AcDbLine
10
-283.04357428956132
20
127.81979267742651
30
1.7763568394002505e-14
11
-283.04357428956138
21
123.22395573346085
31
1.776356839400246e-14
0
ARC
5
402
100
AcDbEntity
8
0
100
AcDbCircle
10
-282.04357428956138
20
123.22395573346087
30
1.7763568394002505e-14
40
1.0000000000000142
100
AcDbArc
50
180
51
270
0
LINE
5
403
100
AcDbEntity
8
0
100
AcDbLine
10
-282.04357428956138
20
122.22395573346085
30
1.7763568394002505e-14
11
-268.04357428956143
21
122.22395573346071
31
1.1035025121435049e-44
0
ARC
5
404
100
AcDbEntity
8
0
100
AcDbCircle
10
-268.04357428956143
20
123.22395573346071
30
1.7763568394002505e-14
40
0.99999999999999645
100
AcDbArc
50
270
51
360
0
LINE
5
405
100
AcDbEntity
8
0
100
AcDbLine
10
-267.04357428956138
20
123.22395573346068
30
1.7763568394002505e-14
11
-267.04357428956138
21
127.819792677425
31
1.7763568394002552e-14
0
ARC
5
406
100
AcDbEntity
8
0
100
AcDbCircle
10
-265.84149276154483
20
129.02187420544271
30
1.7763568394002505e-14
40
1.7000000000000293
100
AcDbArc
50
45.000000000036579
51
225.00000000002774
0
LINE
5
407
100
AcDbEntity
8
0
100
AcDbLine
10
-264.63941123352845
20
130.22395573346063
30
1.7763568394002505e-14
11
-160.44773734559311
21
130.22395573345955
31
1.776356839400252e-14
0
ARC
5
408
100
AcDbEntity
8
0
100
AcDbCircle
10
-159.24565581757673
20
129.02187420544161
30
1.7763568394002505e-14
40
1.7000000000000168
100
AcDbArc
50
-45.000000000029466
51
134.99999999996277
0
LINE
5
409
100
AcDbEntity
8
0
100
AcDbLine
10
-158.04357428956021
20
127.81979267742385
30
1.7763568394002505e-14
11
-158.04357428956027
21
123.22395573345955
31
1.776356839400246e-14
0
ARC
5
410
100
AcDbEntity
8
0
100
AcDbCircle
10
-157.04357428956027
20
123.22395573345952
30
1.7763568394002505e-14
40
1.0000000000000142
100
AcDbArc
50
180
51
270
0
LINE
5
411
100
AcDbEntity
8
0
100
AcDbLine
10
-157.04357428956027
20
122.22395573345952
30
1.7763568394002505e-14
11
-143.04357428956027
21
122.22395573345941
31
1.1035025121435049e-44
0
ARC
5
412
100
AcDbEntity
8
0
100
AcDbCircle
10
-143.04357428956027
20
123.22395573345938
30
1.7763568394002505e-14
40
0.99999999999997868
100
AcDbArc
50
-90
51
0
0
LINE
5
413
100
AcDbEntity
8
0
100
AcDbLine
10
-142.04357428956027
20
123.22395573345938
30
1.7763568394002505e-14
11
-142.04357428956021
21
127.81979267742503
31
1.7763568394002552e-14
0
ARC
5
414
100
AcDbEntity
8
0
100
AcDbCircle
10
-140.84149276154241
20
129.02187420544149
30
1.7763568394002505e-14
40
1.7000000000000168
100
AcDbArc
50
45.000000000032514
51
224.99999999996814
0
LINE
5
415
100
AcDbEntity
8
0
100
AcDbLine
10
-139.63941123352595
20
130.22395573345932
30
1.7763568394002505e-14
11
-128.44773734559328
21
130.22395573345921
31
1.7763568394002524e-14
0
ARC
5
416
100
AcDbEntity
8
0
100
AcDbCircle
10
-127.24565581757695
20
129.02187420544129
30
0
40
1.700000000000004
100
AcDbArc
50
-45.000000000015568
51
134.99999999996243
0
LINE
5
417
100
AcDbEntity
8
0
100
AcDbLine
10
-126.04357428956014
20
127.81979267742383
30
6.1587343887652092e-47
11
-126.0435742895602
21
123.22395573345926
31
4.9303806576313238e-30
0
ARC
5
418
100
AcDbEntity
8
0
100
AcDbCircle
10
-125.04357428956018
20
123.22395573345923
30
0
40
1.0000000000000142
100
AcDbArc
50
180
51
269.9999999999992
0
LINE
5
419
100
AcDbEntity
8
0
100
AcDbLine
10
-125.0435742895602
20
122.22395573345923
30
0
11
-111.0435742895602
21
122.22395573345912
31
-3.0240020860129552e-41
0
ARC
5
420
100
AcDbEntity
8
0
100
AcDbCircle
10
-111.04357428956018
20
123.22395573345908
30
0
40
0.99999999999996092
100
AcDbArc
50
269.9999999999992
51
360
0
LINE
5
421
100
AcDbEntity
8
0
100
AcDbLine
10
-110.04357428956018
20
123.22395573345906
30
3.3125995043165133e-32
11
-110.04357428956011
21
127.81979267742436
31
2.9582283945787943e-30
0
ARC
5
422
100
AcDbEntity
8
0
100
AcDbCircle
10
-108.84149276154268
20
129.02187420544118
30
1.7763568394002505e-14
40
1.700000000000004
100
AcDbArc
50
45.000000000032848
51
224.99999999998545
0
LINE
5
423
100
AcDbEntity
8
0
100
AcDbLine
10
-107.63941123352623
20
130.22395573345901
30
1.7763568394002505e-14
11
-75.043574289560112
21
130.22395573345869
31
1.7763568394002501e-14
0
LINE
5
424
100
AcDbEntity
8
0
100
AcDbLine
10
-75.043574289560112
20
130.22395573345869
30
1.7763568394002501e-14
11
-75.043574289558691
21
268.19395573345787
31
3.5527136788004978e-14
0
LINE
5
425
100
AcDbEntity
8
0
100
AcDbLine
10
-75.043574289558691
20
268.19395573345787
30
3.5527136788004978e-14
11
-107.63941123352345
21
268.19395573345821
31
1.7763568394002505e-14
0
ARC
5
426
100
AcDbEntity
8
0
100
AcDbCircle
10
-108.84149276154126
20
269.3960372614747
30
1.7763568394002505e-14
40
1.700000000000004
100
AcDbArc
50
135.00000000001324
51
315.00000000003149
0
LINE
5
427
100
AcDbEntity
8
0
100
AcDbLine
10
-110.04357428955865
20
270.59811878949154
30
1.7763568394002505e-14
11
-110.04357428955858
21
275.19395573345821
31
1.7763568394002501e-14
0
ARC
5
428
100
AcDbEntity
8
0
100
AcDbCircle
10
-111.04357428955862
20
275.19395573345821
30
0
40
1.000000000000032
100
AcDbArc
50
0
51
89.99999999999838
0
LINE
5
429
100
AcDbEntity
8
0
100
AcDbLine
10
-111.04357428955859
20
276.19395573345821
30
1.9721522630525295e-31
11
-125.04357428955859
21
276.19395573345832
31
-2.4651903287779582e-31
0
ARC
5
430
100
AcDbEntity
8
0
100
AcDbCircle
10
-125.04357428955859
20
275.19395573345838
30
0
40
0.99999999999997868
100
AcDbArc
50
90
51
180
0
LINE
5
431
100
AcDbEntity
8
0
100
AcDbLine
10
-126.04357428955859
20
275.19395573345838
30
-2.00296714212729e-32
11
-126.04357428955866
21
270.59811878949228
31
2.9582283945787943e-30
0
ARC
5
432
100
AcDbEntity
8
0
100
AcDbCircle
10
-127.24565581757544
20
269.39603726147476
30
0
40
1.700000000000004
100
AcDbArc
50
-135.00000000003826
51
45.000000000017614
0
LINE
5
433
100
AcDbEntity
8
0
100
AcDbLine
10
-128.44773734559337
20
268.19395573345844
30
-3.3526588471893338e-31
11
-139.63941123352328
21
268.19395573345855
31
3.352658847191725e-29
0
ARC
5
434
100
AcDbEntity
8
0
100
AcDbCircle
10
-140.84149276154108
20
269.39603726147493
30
1.7763568394002505e-14
40
1.7000000000000168
100
AcDbArc
50
135.0000000000237
51
315.00000000003388
0
LINE
5
435
100
AcDbEntity
8
0
100
AcDbLine
10
-142.04357428955873
20
270.59811878949159
30
1.7763568394002505e-14
11
-142.04357428955868
21
275.19395573345849
31
1.776356839400253e-14
0
ARC
5
436
100
AcDbEntity
8
0
100
AcDbCircle
10
-143.04357428955871
20
275.19395573345855
30
1.7763568394002505e-14
40
1.0000000000000142
100
AcDbArc
50
0
51
89.99999999999838
0
LINE
5
437
100
AcDbEntity
8
0
100
AcDbLine
10
-143.04357428955868
20
276.19395573345849
30
1.7763568394002505e-14
11
-157.04357428955868
21
276.19395573345867
31
1.7763568394002505e-14
0
ARC
5
438
100
AcDbEntity
8
0
100
AcDbCircle
10
-157.04357428955868
20
275.19395573345867
30
0
40
1.0000000000000142
100
AcDbArc
50
90
51
180
0
LINE
5
439
100
AcDbEntity
8
0
100
AcDbLine
10
-158.04357428955868
20
275.19395573345867
30
-3.2355623062514811e-32
11
-158.04357428955876
21
270.59811878949279
31
1.7749370367472766e-29
0
ARC
5
440
100
AcDbEntity
8
0
100
AcDbCircle
10
-159.24565581757534
20
269.39603726147504
30
1.7763568394002505e-14
40
1.6999999999999664
100
AcDbArc
50
-135.00000000003726
51
45.000000000027768
0
LWPOLYLINE
5
441
100
AcDbEntity
8
0
100
AcDbPolyline
90
8
70
1
43
0.0
10
250.18794881584256
20
149.818725502316
42
-0.99999999999999989
10
247.78378575981037
20
152.22288855835231
10
247.78378575981088
20
163.41456244628117
42
-0.99999999999999989
10
250.18794881584228
20
165.81872550231824
10
253.37962270377372
20
165.81872550231543
42
-0.99999999999999989
10
255.78378575981046
20
163.41456244628361
10
255.7837857598106
20
152.22288855834995
42
-0.99999999999999989
10
253.37962270377372
20
149.81872550231824
0
ARC
5
442
100
AcDbEntity
8
0
100
AcDbCircle
10
248.98586728782749
20
246.58664397429828
30
1.7763568394002505e-14
40
1.7000000000000168
100
AcDbArc
50
45.00000000010025
51
225.00000000010161
0
LINE
5
443
100
AcDbEntity
8
0
100
AcDbLine
10
250.18794881584253
20
247.78872550231753
30
1.7763568394002505e-14
11
253.37962270377813
21
247.78872550231745
31
1.7763568394002505e-14
0
ARC
5
444
100
AcDbEntity
8
0
100
AcDbCircle
10
254.58170423179311
20
246.58664397429823
30
1.3684555315672042e-45
40
1.6999999999999915
100
AcDbArc
50
-44.999999999950532
51
134.99999999989907
0
LINE
5
445
100
AcDbEntity
8
0
100
AcDbLine
10
255.78378575981128
20
245.38456244628213
30
8.3816471181261549e-32
11
255.78378575981122
21
234.19288855834881
31
0
0
ARC
5
446
100
AcDbEntity
8
0
100
AcDbCircle
10
254.58170423179294
20
232.9908070303328
30
-6.226472668630779e-46
40
1.7000000000000168
100
AcDbArc
50
-135.00000000009211
51
44.999999999945821
0
LINE
5
447
100
AcDbEntity
8
0
100
AcDbLine
10
253.37962270377386
20
231.78872550231759
30
-8.3816471179733345e-32
11
250.18794881584637
21
231.78872550231767
31
-4.7271620670702323e-31
0
ARC
5
448
100
AcDbEntity
8
0
100
AcDbCircle
10
248.98586728782735
20
232.99080703033283
30
2.2442670717702148e-45
40
1.7000000000000419
100
AcDbArc
50
134.99999999995191
51
315.00000000009209
0
LINE
5
449
100
AcDbEntity
8
0
100
AcDbLine
10
247.7837857598112
20
234.192888558351
30
8.2243657205922242e-43
11
247.78378575981247
21
245.38456244627901
31
1.7763568394002505e-14
0
ARC
5
450
100
AcDbEntity
8
0
100
AcDbCircle
10
-2.0141327121709489
20
164.61664397430266
30
2.7369110631344083e-47
40
1.6999999999999569
100
AcDbArc
50
45.000000000065
51
225.00000000006571
0
LINE
5
451
100
AcDbEntity
8
0
100
AcDbLine
10
-0.81205118415522304
20
165.81872550232112
30
3.3526588471893023e-31
11
2.3796227037790496
21
165.81872550232109
31
4.9303806576313317e-31
0
ARC
5
452
100
AcDbEntity
8
0
100
AcDbCircle
10
3.5817042317947099
20
164.61664397430252
30
1.7763568394002505e-14
40
1.6999999999999624
100
AcDbArc
50
-44.999999999992518
51
134.99999999993074
0
LINE
5
453
100
AcDbEntity
8
0
100
AcDbLine
10
4.7837857598119715
20
163.41456244628557
30
1.7763568394002505e-14
11
4.7837857598118525
21
152.2228885583541
31
1.7763568394002505e-14
0
ARC
5
454
100
AcDbEntity
8
0
100
AcDbCircle
10
3.5817042317946814
20
151.02080703033704
30
1.7763568394002505e-14
40
1.7000000000000046
100
AcDbArc
50
-135.00000000006048
51
44.999999999997378
0
LINE
5
455
100
AcDbEntity
8
0
100
AcDbLine
10
2.3796227037762767
20
149.81872550232117
30
1.7763568394002505e-14
11
-0.8120511841526179
21
149.81872550232123
31
1.7763568394002505e-14
0
ARC
5
456
100
AcDbEntity
8
0
100
AcDbCircle
10
-2.0141327121709738
20
151.0208070303371
30
1.7763568394002505e-14
40
1.6999999999999851
100
AcDbArc
50
135.00000000000713
51
315.00000000005929
0
LINE
5
457
100
AcDbEntity
8
0
100
AcDbLine
10
-3.2162142401882492
20
152.22288855835407
30
1.7763568394002505e-14
11
-3.2162142401866745
21
163.41456244628418
31
-3.352658847189301e-31
0
LWPOLYLINE
5
458
100
AcDbEntity
8
0
100
AcDbPolyline
90
8
70
1
43
0.0
10
-0.81205118415295752
20
231.78872550231875
42
-0.99999999999999989
10
-3.2162142401873721
20
234.19288855835279
10
-3.2162142401850202
20
245.38456244628202
42
-0.99999999999999989
10
-0.81205118415498401
20
247.78872550232046
10
2.3796227037784625
20
247.7887255023183
42
-0.99999999999999989
10
4.7837857598128339
20
245.38456244628412
10
4.7837857598145757
20
234.19288855835089
42
-0.99999999999999989
10
2.3796227037764233
20
231.78872550232055
0
LINE
5
459
100
AcDbEntity
8
0
100
AcDbLine
10
178.37962270377417
20
267.78872550231813
30
0
11
74.187948815842205
21
267.78872550231932
31
9.2511055435783221e-31
0
ARC
5
460
100
AcDbEntity
8
0
100
AcDbCircle
10
72.985867287824306
20
268.99080703033576
30
1.7763568394002505e-14
40
1.6999999999999855
100
AcDbArc
50
134.99999999997496
51
315.00000000003485
0
LINE
5
461
100
AcDbEntity
8
0
100
AcDbLine
10
71.783785759807728
20
270.19288855835339
30
1.7763568394002505e-14
11
71.783785759807785
21
274.78872550231932
31
1.7763568394002543e-14
0
ARC
5
462
100
AcDbEntity
8
0
100
AcDbCircle
10
70.783785759807813
20
274.78872550231938
30
1.7763568394002505e-14
40
0.9999999999999698
100
AcDbArc
50
0
51
90.00000000000081
0
LINE
5
463
100
AcDbEntity
8
0
100
AcDbLine
10
70.783785759807799
20
275.78872550231932
30
1.7763568394002505e-14
11
56.783785759807863
21
275.78872550231949
31
1.7763568394002501e-14
0
ARC
5
464
100
AcDbEntity
8
0
100
AcDbCircle
10
56.783785759807841
20
274.78872550231949
30
3.5100884384698787e-45
40
1.0000000000000142
100
AcDbArc
50
89.999999999998778
51
180
0
LINE
5
465
100
AcDbEntity
8
0
100
AcDbLine
10
55.783785759807863
20
274.78872550231949
30
-5.9930249741007983e-32
11
55.783785759807792
21
270.19288855835259
31
0
0
ARC
5
466
100
AcDbEntity
8
0
100
AcDbCircle
10
54.581704231790127
20
268.99080703033599
30
-9.85287982728387e-46
40
1.6999999999999791
100
AcDbArc
50
-135.00000000003521
51
44.999999999974769
0
LINE
5
467
100
AcDbEntity
8
0
100
AcDbLine
10
53.37962270377227
20
267.78872550231961
30
-1.0057976541568243e-30
11
42.187948815842404
21
267.78872550231972
31
5.1235315121253627e-29
0
ARC
5
468
100
AcDbEntity
8
0
100
AcDbCircle
10
40.985867287824519
20
268.9908070303361
30
3.28429327576129e-45
40
1.6999999999999917
100
AcDbArc
50
134.99999999998207
51
315.00000000003587
0
LINE
5
469
100
AcDbEntity
8
0
100
AcDbLine
10
39.783785759807756
20
270.19288855835362
30
5.4608511805839361e-43
11
39.783785759807827
21
274.78872550231972
31
3.4512664603419266e-30
0
ARC
5
470
100
AcDbEntity
8
0
100
AcDbCircle
10
38.783785759807834
20
274.78872550231972
30
1.642146637880645e-46
40
0.99999999999999201
100
AcDbArc
50
0
51
90.000000000000398
0
LINE
5
471
100
AcDbEntity
8
0
100
AcDbLine
10
38.783785759807827
20
275.78872550231972
30
9.860761315262537e-32
11
24.783785759807905
21
275.78872550231989
31
-1.972152263052533e-30
0
ARC
5
472
100
AcDbEntity
8
0
100
AcDbCircle
10
24.783785759807881
20
274.78872550231983
30
1.7763568394002505e-14
40
1.0000000000000497
100
AcDbArc
50
89.999999999998579
51
180
0
LINE
5
473
100
AcDbEntity
8
0
100
AcDbLine
10
23.783785759807866
20
274.78872550231989
30
1.7763568394002505e-14
11
23.78378575980782
21
270.19288855835322
31
1.7763568394002505e-14
0
ARC
5
474
100
AcDbEntity
8
0
100
AcDbCircle
10
22.581704231790411
20
268.99080703033638
30
1.7763568394002505e-14
40
1.699999999999998
100
AcDbArc
50
-135.00000000003496
51
44.999999999986279
0
LINE
5
475
100
AcDbEntity
8
0
100
AcDbLine
10
21.379622703772565
20
267.78872550232001
30
1.7763568394002505e-14
11
-11.216214240192063
21
267.78872550232035
31
1.7763568394002498e-14
0
LINE
5
476
100
AcDbEntity
8
0
100
AcDbLine
10
-11.216214240192063
20
267.78872550232035
30
1.7763568394002498e-14
11
-11.216214240193498
21
129.81872550232148
31
-1.5777218104420236e-29
0
LINE
5
477
100
AcDbEntity
8
0
100
AcDbLine
10
-11.216214240193498
20
129.81872550232148
30
-1.5777218104420236e-29
11
21.379622703772473
21
129.81872550232112
31
3.9443045261050786e-30
0
ARC
5
478
100
AcDbEntity
8
0
100
AcDbCircle
10
22.581704231788894
20
128.61664397430326
30
-1.9089954665362498e-45
40
1.7000000000000168
100
AcDbArc
50
-44.999999999986876
51
134.99999999996581
0
LINE
5
479
100
AcDbEntity
8
0
100
AcDbLine
10
23.783785759806321
20
127.41456244628638
30
4.1908235589894541e-31
11
23.783785759806271
21
122.81872550232112
31
0
0
ARC
5
480
100
AcDbEntity
8
0
100
AcDbCircle
10
24.783785759806293
20
122.81872550232112
30
1.7763568394002505e-14
40
1.0000000000000187
100
AcDbArc
50
180
51
269.99999999999881
0
LINE
5
481
100
AcDbEntity
8
0
100
AcDbLine
10
24.783785759806271
20
121.81872550232112
30
1.7763568394002505e-14
11
38.7837857598062
21
121.81872550232097
31
1.7763568394002508e-14
0
ARC
5
482
100
AcDbEntity
8
0
100
AcDbCircle
10
38.7837857598062
20
122.81872550232094
30
1.7763568394002505e-14
40
0.99999999999997868
100
AcDbArc
50
270
51
360
0
LINE
5
483
100
AcDbEntity
8
0
100
AcDbLine
10
39.7837857598062
20
122.81872550232093
30
1.7763568394002505e-14
11
39.783785759806257
21
127.41456244628553
31
1.7763568394002511e-14
0
ARC
5
484
100
AcDbEntity
8
0
100
AcDbCircle
10
40.985867287823091
20
128.61664397430297
30
5.4738221262688167e-47
40
1.700000000000004
100
AcDbArc
50
45.000000000036245
51
225.00000000001455
0
LINE
5
485
100
AcDbEntity
8
0
100
AcDbLine
10
42.187948815839455
20
129.81872550232086
30
-5.0289882707840007e-31
11
53.379622703772107
21
129.81872550232072
31
-7.8479653340977071e-30
0
ARC
5
486
100
AcDbEntity
8
0
100
AcDbCircle
10
54.581704231788507
20
128.61664397430286
30
-1.7763568394002505e-14
40
1.7000000000000233
100
AcDbArc
50
-44.999999999969006
51
134.9999999999653
0
LINE
5
487
100
AcDbEntity
8
0
100
AcDbLine
10
55.7837857598063
20
127.41456244628637
30
-1.7763568394002505e-14
11
55.783785759806229
21
122.81872550232073
31
-1.7763568394002445e-14
0
ARC
5
488
100
AcDbEntity
8
0
100
AcDbCircle
10
56.783785759806264
20
122.81872550232075
30
4.0779974840702684e-45
40
1.000000000000032
100
AcDbArc
50
180
51
269.99999999999835
0
LINE
5
489
100
AcDbEntity
8
0
100
AcDbLine
10
56.783785759806236
20
121.81872550232075
30
4.6350481151392761e-46
11
70.783785759806165
21
121.81872550232059
31
1.972152263052533e-30
0
ARC
5
490
100
AcDbEntity
8
0
100
AcDbCircle
10
70.783785759806122
20
122.8187255023206
30
1.7763568394002505e-14
40
1.0000000000000142
100
AcDbArc
50
270.00000000000244
51
360
0
LINE
5
491
100
AcDbEntity
8
0
100
AcDbLine
10
71.78378575980615
20
122.81872550232055
30
1.7763568394002505e-14
11
71.783785759806221
21
127.41456244628486
31
1.7763568394002568e-14
0
ARC
5
492
100
AcDbEntity
8
0
100
AcDbCircle
10
72.985867287822771
20
128.61664397430258
30
-8.210733189403225e-47
40
1.700000000000004
100
AcDbArc
50
45.00000000003692
51
225.00000000002774
0
LINE
5
493
100
AcDbEntity
8
0
100
AcDbLine
10
74.187948815839135
20
129.81872550232049
30
-2.5144941353921186e-31
11
178.37962270377406
21
129.81872550231927
31
9.9014050333749647e-30
0
ARC
5
494
100
AcDbEntity
8
0
100
AcDbCircle
10
179.58170423179041
20
128.61664397430135
30
0
40
1.700000000000004
100
AcDbArc
50
-45.000000000029466
51
134.99999999996277
0
LINE
5
495
100
AcDbEntity
8
0
100
AcDbLine
10
180.78378575980693
20
127.4145624462836
30
1.6942745261826814e-45
11
180.7837857598069
21
122.8187255023193
31
-5.5713301431233959e-29
0
ARC
5
496
100
AcDbEntity
8
0
100
AcDbCircle
10
181.78378575980688
20
122.81872550231927
30
1.7763568394002505e-14
40
0.99999999999997868
100
AcDbArc
50
180
51
270
0
LINE
5
497
100
AcDbEntity
8
0
100
AcDbLine
10
181.78378575980688
20
121.81872550231928
30
1.7763568394002505e-14
11
195.78378575980679
21
121.81872550231915
31
1.7763568394002508e-14
0
ARC
5
498
100
AcDbEntity
8
0
100
AcDbCircle
10
195.78378575980679
20
122.81872550231911
30
0
40
0.99999999999996092
100
AcDbArc
50
270
51
360
0
LINE
5
499
100
AcDbEntity
8
0
100
AcDbLine
10
196.78378575980676
20
122.81872550231911
30
2.7800509143552332e-31
11
196.78378575980685
21
127.41456244628473
31
1.7763568394002448e-14
0
ARC
5
500
100
AcDbEntity
8
0
100
AcDbCircle
10
197.98586728782468
20
128.61664397430121
30
0
40
1.7000000000000168
100
AcDbArc
50
45.000000000032514
51
224.99999999996783
0
LINE
5
501
100
AcDbEntity
8
0
100
AcDbLine
10
199.18794881584114
20
129.81872550231904
30
5.0289882707839998e-31
11
210.37962270377378
21
129.81872550231893
31
-2.7650775400847817e-29
0
ARC
5
502
100
AcDbEntity
8
0
100
AcDbCircle
10
211.58170423179007
20
128.61664397430098
30
0
40
1.700000000000004
100
AcDbArc
50
-45.000000000014907
51
134.99999999996072
0
LINE
5
503
100
AcDbEntity
8
0
100
AcDbLine
10
212.7837857598069
20
127.41456244628353
30
6.7053176943786676e-31
11
212.78378575980685
21
122.81872550231896
31
-1.4791141972893971e-30
0
ARC
5
504
100
AcDbEntity
8
0
100
AcDbCircle
10
213.78378575980685
20
122.81872550231894
30
1.7763568394002505e-14
40
0.99999999999997868
100
AcDbArc
50
180
51
270
0
LINE
5
505
100
AcDbEntity
8
0
100
AcDbLine
10
213.78378575980685
20
121.81872550231894
30
1.7763568394002505e-14
11
227.78378575980673
21
121.81872550231881
31
1.7763568394002505e-14
0
ARC
5
506
100
AcDbEntity
8
0
100
AcDbCircle
10
227.78378575980682
20
122.81872550231878
30
1.7763568394002505e-14
40
0.99999999999996092
100
AcDbArc
50
269.99999999999511
51
360
0
LINE
5
507
100
AcDbEntity
8
0
100
AcDbLine
10
228.78378575980679
20
122.81872550231876
30
1.7763568394002505e-14
11
228.78378575980679
21
127.41456244628407
31
1.7763568394002505e-14
0
ARC
5
508
100
AcDbEntity
8
0
100
AcDbCircle
10
229.98586728782428
20
128.61664397430087
30
-1.7763568394002505e-14
40
1.700000000000004
100
AcDbArc
50
45.000000000031839
51
224.99999999998374
0
LINE
5
509
100
AcDbEntity
8
0
100
AcDbLine
10
231.18794881584074
20
129.81872550231867
30
-1.7763568394002505e-14
11
263.78378575980668
21
129.81872550231833
31
-1.7763568394002501e-14
0
LINE
5
510
100
AcDbEntity
8
0
100
AcDbLine
10
263.78378575980668
20
129.81872550231833
30
-1.7763568394002501e-14
11
263.78378575980838
21
267.78872550231716
31
0
0
LINE
5
511
100
AcDbEntity
8
0
100
AcDbLine
10
263.78378575980838
20
267.78872550231716
30
0
11
231.18794881584378
21
267.78872550231756
31
-4.406859803284023e-30
0
ARC
5
512
100
AcDbEntity
8
0
100
AcDbCircle
10
229.9858672878259
20
268.990807030334
30
0
40
1.6999999999999917
100
AcDbArc
50
135.00000000001083
51
315.00000000003456
0
LINE
5
513
100
AcDbEntity
8
0
100
AcDbLine
10
228.78378575980855
20
270.19288855835089
30
3.0793671943826046e-47
11
228.78378575980858
21
274.78872550231756
31
1.7763568394002505e-14
0
ARC
5
514
100
AcDbEntity
8
0
100
AcDbCircle
10
227.78378575980861
20
274.78872550231756
30
1.7763568394002505e-14
40
0.99999999999997868
100
AcDbArc
50
0
51
90
0
LINE
5
515
100
AcDbEntity
8
0
100
AcDbLine
10
227.78378575980861
20
275.78872550231756
30
1.7763568394002505e-14
11
213.78378575980875
21
275.78872550231767
31
1.7763568394002501e-14
0
ARC
5
516
100
AcDbEntity
8
0
100
AcDbCircle
10
213.78378575980867
20
274.78872550231767
30
0
40
0.99999999999997868
100
AcDbArc
50
89.999999999995111
51
180
0
LINE
5
517
100
AcDbEntity
8
0
100
AcDbLine
10
212.78378575980869
20
274.78872550231767
30
-1.6236627214078262e-31
11
212.78378575980864
21
270.19288855835163
31
-1.9721522630525295e-30
0
ARC
5
518
100
AcDbEntity
8
0
100
AcDbCircle
10
211.58170423179183
20
268.99080703033411
30
0
40
1.6999999999999915
100
AcDbArc
50
-135.00000000003794
51
45.000000000016939
0
LINE
5
519
100
AcDbEntity
8
0
100
AcDbLine
10
210.37962270377392
20
267.78872550231779
30
-1.0057976541568001e-30
11
199.18794881584404
21
267.7887255023179
31
7.5988827704690894e-29
0
ARC
5
520
100
AcDbEntity
8
0
100
AcDbCircle
10
197.98586728782624
20
268.99080703033434
30
1.7763568394002505e-14
40
1.7000000000000168
100
AcDbArc
50
135.0000000000251
51
315.00000000003251
0
LINE
5
521
100
AcDbEntity
8
0
100
AcDbLine
10
196.78378575980858
20
270.19288855835094
30
1.7763568394002505e-14
11
196.78378575980861
21
274.7887255023179
31
1.7763568394002498e-14
0
ARC
5
522
100
AcDbEntity
8
0
100
AcDbCircle
10
195.78378575980864
20
274.7887255023179
30
0
40
0.99999999999997868
100
AcDbArc
50
0
51
90
0
LINE
5
523
100
AcDbEntity
8
0
100
AcDbLine
10
195.78378575980864
20
275.78872550231785
30
9.8607613152627111e-32
11
181.78378575980872
21
275.78872550231802
31
1.7763568394002501e-14
0
ARC
5
524
100
AcDbEntity
8
0
100
AcDbCircle
10
181.78378575980872
20
274.78872550231802
30
1.7763568394002505e-14
40
0.99999999999997868
100
AcDbArc
50
90
51
180
0
LINE
5
525
100
AcDbEntity
8
0
100
AcDbLine
10
180.78378575980875
20
274.78872550231802
30
1.7763568394002505e-14
11
180.78378575980867
21
270.19288855835214
31
1.776356839400246e-14
0
ARC
5
526
100
AcDbEntity
8
0
100
AcDbCircle
10
179.58170423179206
20
268.99080703033451
30
1.7763568394002505e-14
40
1.6999999999999915
100
AcDbArc
50
-135.0000000000359
51
45.000000000024393
0
CIRCLE
5
527
100
AcDbEntity
8
0
100
AcDbCircle
10
308.82564182183245
20
242.85325646067307
30
-1.7763568394002505e-14
40
2.999999999999996
0
CIRCLE
5
528
100
AcDbEntity
8
0
100
AcDbCircle
10
308.82564182183074
20
218.85325646067309
30
-1.7763568394002505e-14
40
4.4999999999999991
0
ARC
5
529
100
AcDbEntity
8
0
100
AcDbCircle
10
325.12652793163619
20
251.6511748601657
30
-1.7763568394002501e-14
40
1.7000000000000168
100
AcDbArc
50
45.000000000033197
51
224.99999914625874
0
LINE
5
530
100
AcDbEntity
8
0
100
AcDbLine
10
326.32860945965263
20
252.85325638818352
30
-1.7763568394002505e-14
11
332.52028334758563
21
252.8532563881831
31
-1.7763568394002505e-14
0
ARC
5
531
100
AcDbEntity
8
0
100
AcDbCircle
10
333.72236487560195
20
251.65117486016516
30
-3.5527136788005009e-14
40
1.7000000000000168
100
AcDbArc
50
-45.0000000000027
51
134.9999999999614
0
LINE
5
532
100
AcDbEntity
8
0
100
AcDbLine
10
334.92444640361902
20
250.44909333214798
30
-3.5527136788005009e-14
11
334.92444640361884
21
247.25741951670474
31
-1.7763568394002505e-14
0
ARC
5
533
100
AcDbEntity
8
0
100
AcDbCircle
10
333.72236487560167
20
246.05533798868777
30
-1.7763568394002501e-14
40
1.7000000000000168
100
AcDbArc
50
-135.00000000003863
51
44.999999999995254
0
LINE
5
534
100
AcDbEntity
8
0
100
AcDbLine
10
332.5202833475837
20
244.85325646067142
30
-1.7763568394002508e-14
11
326.32860945965353
21
244.85325646067182
31
-1.7763568394002508e-14
0
ARC
5
535
100
AcDbEntity
8
0
100
AcDbCircle
10
325.12652793163579
20
246.05533798868836
30
-1.7763568394002501e-14
40
1.7000000000000419
100
AcDbArc
50
134.99999999999258
51
315.00000000002848
0
LINE
5
536
100
AcDbEntity
8
0
100
AcDbLine
10
323.92444640361879
20
247.25741951670568
30
-1.7763568394002505e-14
11
323.92444638570731
21
250.44909335006028
31
-1.7763568394002501e-14
0
ARC
5
537
100
AcDbEntity
8
0
100
AcDbCircle
10
422.7223648756019
20
251.65117486015887
30
-3.5527136788005009e-14
40
1.6999999999999915
100
AcDbArc
50
-45.000000000008804
51
134.99999999995802
0
LINE
5
538
100
AcDbEntity
8
0
100
AcDbLine
10
423.92444640361884
20
250.44909333214156
30
-3.5527136788005009e-14
11
423.92444640361867
21
247.2574195166986
31
0
0
ARC
5
539
100
AcDbEntity
8
0
100
AcDbCircle
10
422.72236487560156
20
246.05533798868149
30
-1.7763568394002505e-14
40
1.6999999999999917
100
AcDbArc
50
-135.00000000003794
51
45
0
LINE
5
540
100
AcDbEntity
8
0
100
AcDbLine
10
421.52028334758364
20
244.85325646066516
30
-1.7763568394002508e-14
11
415.32860945965348
21
244.85325646066559
31
-1.7763568394002517e-14
0
ARC
5
541
100
AcDbEntity
8
0
100
AcDbCircle
10
414.12652793163574
20
246.05533798868211
30
-1.7763568394002505e-14
40
1.6999999999999917
100
AcDbArc
50
134.99999999999866
51
315.0000000000291
0
LINE
5
542
100
AcDbEntity
8
0
100
AcDbLine
10
412.92444640361862
20
247.25741951669929
30
-1.7763568394002505e-14
11
412.92444640361884
21
250.4490933321425
31
-1.7763568394002505e-14
0
ARC
5
543
100
AcDbEntity
8
0
100
AcDbCircle
10
414.12652793163613
20
251.65117486015947
30
-3.5527136788005009e-14
40
1.6999999999999915
100
AcDbArc
50
45.000000000031157
51
224.99999999999255
0
LINE
5
544
100
AcDbEntity
8
0
100
AcDbLine
10
415.32860945965263
20
252.85325638817727
30
-3.5527136788005003e-14
11
421.52028334758569
21
252.85325638817685
31
-3.5527136788005009e-14
0
CIRCLE
5
545
100
AcDbEntity
8
0
100
AcDbCircle
10
439.02325098540257
20
218.85325646066394
30
-1.7763568394002505e-14
40
4.4999999999999991
0
CIRCLE
5
546
100
AcDbEntity
8
0
100
AcDbCircle
10
439.02325098540439
20
242.85325646066394
30
-1.7763568394002505e-14
40
2.999999999999996
0
ARC
5
547
100
AcDbEntity
8
0
100
AcDbCircle
10
380.424446403621
20
278.88294064329443
30
-1.7763568394002511e-14
40
1.4999999999999858
100
AcDbArc
50
0
51
89.999999999997826
0
LINE
5
548
100
AcDbEntity
8
0
100
AcDbLine
10
380.42444640362106
20
280.38294064329443
30
-1.7763568394002505e-14
11
367.42444640362112
21
280.38294064329534
31
-1.7763568394002505e-14
0
ARC
5
549
100
AcDbEntity
8
0
100
AcDbCircle
10
367.424446403621
20
278.88294064329534
30
-1.7763568394002505e-14
40
1.4999999999999858
100
AcDbArc
50
89.999999999995666
51
180
0
LINE
5
550
100
AcDbEntity
8
0
100
AcDbLine
10
365.924446403621
20
278.88294064329546
30
-1.7763568394002505e-14
11
365.92444640362066
21
274.7871036993302
31
2.1991272670072451e-25
0
ARC
5
551
100
AcDbEntity
8
0
100
AcDbCircle
10
364.72236487560383
20
273.58502217131291
30
-1.7763568394002501e-14
40
1.7000000000000419
100
AcDbArc
50
-134.9999999999946
51
45.000000000010843
0
LINE
5
552
100
AcDbEntity
8
0
100
AcDbLine
10
363.52028334758677
20
272.38294064329563
30
-1.7763568394002508e-14
11
293.72683724004867
21
272.38294064330051
31
-3.5527136787528171e-14
0
LINE
5
553
100
AcDbEntity
8
0
100
AcDbLine
10
293.72683724004867
20
272.38294064330051
30
-3.5527136787528171e-14
11
293.7268372400477
21
258.98810377182213
31
-3.5527136788005009e-14
0
ARC
5
554
100
AcDbEntity
8
0
100
AcDbCircle
10
292.5247557120303
20
257.78602224380523
30
-3.5527136788005009e-14
40
1.6999999999999915
100
AcDbArc
50
-135.00000000004064
51
44.999999999987807
0
LINE
5
555
100
AcDbEntity
8
0
100
AcDbLine
10
291.32267418401233
20
256.58394071578897
30
-3.5527136788005009e-14
11
286.72683736744887
21
256.58394071578931
31
-1.7763568394002511e-14
0
ARC
5
556
100
AcDbEntity
8
0
100
AcDbCircle
10
286.72683736744881
20
255.58394071578928
30
-1.7763568394002505e-14
40
1.0000000000000142
100
AcDbArc
50
89.999999999996746
51
180
0
LINE
5
557
100
AcDbEntity
8
0
100
AcDbLine
10
285.72683736744875
20
255.58394071578937
30
-1.7763568394002505e-14
11
285.72683736744841
21
249.5839407157894
31
-1.7763568394002505e-14
0
ARC
5
558
100
AcDbEntity
8
0
100
AcDbCircle
10
286.72683736744841
20
249.58394071578937
30
-1.4647422210265662e-57
40
1.0000000000000142
100
AcDbArc
50
180
51
269.99999999999346
0
LINE
5
559
100
AcDbEntity
8
0
100
AcDbLine
10
286.7268373674483
20
248.58394071578931
30
-5.4572641608598198e-59
11
291.32267418401324
21
248.583940715789
31
-6.6538616730776894e-44
0
ARC
5
560
100
AcDbEntity
8
0
100
AcDbCircle
10
292.5247557120295
20
247.38185918777103
30
-1.7763568394002505e-14
40
1.7000000000000168
100
AcDbArc
50
-44.999999999995929
51
134.99999999995939
0
LINE
5
561
100
AcDbEntity
8
0
100
AcDbLine
10
293.72683724004673
20
246.17977765975397
30
-1.7763568394002505e-14
11
293.72683724004514
21
223.98810377182227
31
-1.7763568394002505e-14
0
ARC
5
562
100
AcDbEntity
8
0
100
AcDbCircle
10
292.5247557120278
20
222.78602224380541
30
-3.5527136788005009e-14
40
1.7000000000000168
100
AcDbArc
50
-135.00000000003661
51
44.999999999988482
0
LINE
5
563
100
AcDbEntity
8
0
100
AcDbLine
10
291.32267418400988
20
221.58394071578903
30
-3.5527136788005009e-14
11
286.72683736744636
21
221.58394071578931
31
-1.7763568394002505e-14
0
ARC
5
564
100
AcDbEntity
8
0
100
AcDbCircle
10
286.72683736744636
20
220.58394071578931
30
-1.7763568394002505e-14
40
1.0000000000000142
100
AcDbArc
50
90
51
180
0
LINE
5
565
100
AcDbEntity
8
0
100
AcDbLine
10
285.72683736744631
20
220.58394071578942
30
-1.7763568394002505e-14
11
285.72683736744585
21
214.5839407157894
31
-3.5527136788005009e-14
0
ARC
5
566
100
AcDbEntity
8
0
100
AcDbCircle
10
286.72683736744585
20
214.58394071578937
30
-1.4631864672071009e-57
40
0.99999999999997868
100
AcDbArc
50
180
51
269.99999999999346
0
LINE
5
567
100
AcDbEntity
8
0
100
AcDbLine
10
286.72683736744574
20
213.58394071578931
30
-5.5364339020800537e-59
11
291.32267418401057
21
213.583940715789
31
7.8886090522100508e-30
0
ARC
5
568
100
AcDbEntity
8
0
100
AcDbCircle
10
292.524755712027
20
212.3818591877712
30
-1.7763568394002505e-14
40
1.7000000000000168
100
AcDbArc
50
-44.999999999995929
51
134.99999999996751
0
LINE
5
569
100
AcDbEntity
8
0
100
AcDbLine
10
293.72683724004423
20
211.17977765975414
30
-1.7763568394002505e-14
11
293.72683724004412
21
209.58394071578883
31
-1.7763568394002505e-14
0
LINE
5
570
100
AcDbEntity
8
0
100
AcDbLine
10
293.72683724004412
20
209.58394071578883
30
-1.7763568394002505e-14
11
454.122055567188
21
209.58394071577757
31
-1.7763568394002252e-14
0
LINE
5
571
100
AcDbEntity
8
0
100
AcDbLine
10
454.122055567188
20
209.58394071577757
30
-1.7763568394002252e-14
11
454.122055567188
21
211.17977765974291
31
-1.7763568394002505e-14
0
ARC
5
572
100
AcDbEntity
8
0
100
AcDbCircle
10
455.3241370952054
20
212.38185918775974
30
-1.7763568394002505e-14
40
1.6999999999999917
100
AcDbArc
50
45.000000000025743
51
224.99999999998641
0
LINE
5
573
100
AcDbEntity
8
0
100
AcDbLine
10
456.52621862322201
20
213.58394071577743
30
-1.7763568394002505e-14
11
461.12205543978689
21
213.58394071577709
31
-1.7763568394002498e-14
0
ARC
5
574
100
AcDbEntity
8
0
100
AcDbCircle
10
461.12205543978695
20
214.58394071577712
30
-1.7763568394002505e-14
40
1.0000000000000142
100
AcDbArc
50
269.99999999999676
51
360
0
LINE
5
575
100
AcDbEntity
8
0
100
AcDbLine
10
462.122055439787
20
214.58394071577703
30
-1.7763568394002505e-14
11
462.12205543978735
21
220.58394071577706
31
-1.7763568394002505e-14
0
ARC
5
576
100
AcDbEntity
8
0
100
AcDbCircle
10
461.12205543978735
20
220.58394071577712
30
-3.5527136788005009e-14
40
1.0000000000000142
100
AcDbArc
50
0
51
89.999999999996746
0
LINE
5
577
100
AcDbEntity
8
0
100
AcDbLine
10
461.1220554397874
20
221.58394071577715
30
-3.5527136788005009e-14
11
456.52621862322383
21
221.58394071577743
31
-3.5527136788005009e-14
0
ARC
5
578
100
AcDbEntity
8
0
100
AcDbCircle
10
455.3241370952062
20
222.78602224379398
30
-1.7763568394002505e-14
40
1.7000000000000168
100
AcDbArc
50
135.00000000000406
51
315.00000000002575
0
LINE
5
579
100
AcDbEntity
8
0
100
AcDbLine
10
454.12205556718897
20
223.98810377181104
30
-1.7763568394002508e-14
11
454.1220555671905
21
246.17977765974274
31
-1.7763568394002505e-14
0
ARC
5
580
100
AcDbEntity
8
0
100
AcDbCircle
10
455.32413709520796
20
247.38185918775963
30
0
40
1.6999999999999915
100
AcDbArc
50
45.000000000032514
51
224.99999999998641
0
LINE
5
581
100
AcDbEntity
8
0
100
AcDbLine
10
456.52621862322439
20
248.58394071577743
30
-1.1734305965162547e-30
11
461.12205543978939
21
248.58394071577709
31
-1.7763568394002505e-14
0
ARC
5
582
100
AcDbEntity
8
0
100
AcDbCircle
10
461.12205543978945
20
249.58394071577709
30
-1.7763568394002505e-14
40
0.99999999999997868
100
AcDbArc
50
269.99999999999676
51
360
0
LINE
5
583
100
AcDbEntity
8
0
100
AcDbLine
10
462.12205543978945
20
249.583940715777
30
-1.7763568394002505e-14
11
462.12205543978985
21
255.58394071577698
31
-1.7763568394002505e-14
0
ARC
5
584
100
AcDbEntity
8
0
100
AcDbCircle
10
461.12205543978985
20
255.58394071577709
30
-3.5527136788005009e-14
40
0.99999999999994316
100
AcDbArc
50
0
51
89.999999999993491
0
LINE
5
585
100
AcDbEntity
8
0
100
AcDbLine
10
461.12205543978996
20
256.58394071577709
30
-3.5527136788005009e-14
11
456.52621862322655
21
256.58394071577737
31
-3.5527136788005016e-14
0
ARC
5
586
100
AcDbEntity
8
0
100
AcDbCircle
10
455.3241370952087
20
257.78602224379381
30
0
40
1.7000000000000168
100
AcDbArc
50
135.00000000000543
51
315.00000000003388
0
LINE
5
587
100
AcDbEntity
8
0
100
AcDbLine
10
454.12205556719141
20
258.98810377181087
30
-1.1734305965162547e-30
11
454.12205556719249
21
272.38294064328926
31
-1.7763568394002505e-14
0
LINE
5
588
100
AcDbEntity
8
0
100
AcDbLine
10
454.12205556719249
20
272.38294064328926
30
-1.7763568394002505e-14
11
384.32860945965456
21
272.38294064329415
31
-1.7763568393522499e-14
0
ARC
5
589
100
AcDbEntity
8
0
100
AcDbCircle
10
383.12652793163778
20
273.58502217131161
30
-1.7763568394002505e-14
40
1.7000000000000168
100
AcDbArc
50
135.00000000000136
51
314.99999999998374
0
LINE
5
590
100
AcDbEntity
8
0
100
AcDbLine
10
381.92444640362061
20
274.78710369932872
30
-1.7763568394002508e-14
11
381.924446403621
21
278.88294064329432
31
-1.7763568394002508e-14
0
CIRCLE
5
591
100
AcDbEntity
8
0
100
AcDbCircle
10
324.76397348393499
20
136.55892359025174
30
0
40
2.9999999999999947
0
CIRCLE
5
592
100
AcDbEntity
8
0
100
AcDbCircle
10
324.76397348393323
20
112.55892359025177
30
0
40
4.4999999999999964
0
ARC
5
593
100
AcDbEntity
8
0
100
AcDbCircle
10
341.06485959373879
20
145.3568419897444
30
-4.269581258489677e-45
40
1.7000000000000293
100
AcDbArc
50
45.000000000033864
51
224.99999914625943
0
LINE
5
594
100
AcDbEntity
8
0
100
AcDbLine
10
342.26694112175522
20
146.55892351776225
30
-3.3526588471883424e-31
11
348.45861500968823
21
146.55892351776183
31
4.9303806576312196e-31
0
ARC
5
595
100
AcDbEntity
8
0
100
AcDbCircle
10
349.66069653770455
20
145.35684198974388
30
-1.9158377441940858e-45
40
1.700000000000004
100
AcDbArc
50
-45.000000000003411
51
134.9999999999614
0
LINE
5
596
100
AcDbEntity
8
0
100
AcDbLine
10
350.86277806572161
20
144.15476046172668
30
3.3526588471881685e-31
11
350.86277806572139
21
140.9630866462835
31
4.9303806576313238e-31
0
ARC
5
597
100
AcDbEntity
8
0
100
AcDbCircle
10
349.6606965377041
20
139.7610051182665
30
1.373929353693473e-44
40
1.7000000000000419
100
AcDbArc
50
-135.00000000003661
51
44.999999999993236
0
LINE
5
598
100
AcDbEntity
8
0
100
AcDbLine
10
348.45861500968618
20
138.55892359025012
30
5.0289882707848432e-31
11
342.26694112175613
21
138.55892359025057
31
6.0613665267580003e-31
0
ARC
5
599
100
AcDbEntity
8
0
100
AcDbCircle
10
341.06485959373828
20
139.76100511826704
30
-1.7763568394002505e-14
40
1.700000000000004
100
AcDbArc
50
134.99999999999119
51
315.00000000003314
0
LINE
5
600
100
AcDbEntity
8
0
100
AcDbLine
10
339.86277806572133
20
140.96308664628435
30
-1.7763568394002505e-14
11
339.86277804780991
21
144.15476047963895
31
3.3526588721675118e-31
0
ARC
5
601
100
AcDbEntity
8
0
100
AcDbCircle
10
438.66069653770455
20
145.35684198973786
30
0
40
1.6999999999999791
100
AcDbArc
50
-45.000000000008143
51
134.99999999995939
0
LINE
5
602
100
AcDbEntity
8
0
100
AcDbLine
10
439.8627780657215
20
144.15476046172057
30
5.0289882707839482e-31
11
439.86277806572127
21
140.96308664627765
31
0
0
ARC
5
603
100
AcDbEntity
8
0
100
AcDbCircle
10
438.6606965377041
20
139.76100511826047
30
0
40
1.700000000000004
100
AcDbArc
50
-135.00000000003931
51
45
0
LINE
5
604
100
AcDbEntity
8
0
100
AcDbLine
10
437.45861500968613
20
138.55892359024415
30
1.6763294235946494e-31
11
431.26694112175608
21
138.55892359024455
31
-1.5922127842020708e-30
0
ARC
5
605
100
AcDbEntity
8
0
100
AcDbCircle
10
430.06485959373833
20
139.76100511826107
30
0
40
1.6999999999999917
100
AcDbArc
50
134.9999999999973
51
315.0000000000291
0
LINE
5
606
100
AcDbEntity
8
0
100
AcDbLine
10
428.86277806572127
20
140.96308664627824
30
-6.1587343887651431e-47
11
428.86277806572144
21
144.15476046172142
31
-4.9303806576313238e-31
0
ARC
5
607
100
AcDbEntity
8
0
100
AcDbCircle
10
430.06485959373879
20
145.35684198973843
30
0
40
1.700000000000004
100
AcDbArc
50
45.000000000033197
51
224.99999999999184
0
LINE
5
608
100
AcDbEntity
8
0
100
AcDbLine
10
431.26694112175522
20
146.55892351775626
30
-3.3526588471892992e-31
11
437.45861500968829
21
146.55892351775583
31
-5.0289882707849045e-31
0
CIRCLE
5
609
100
AcDbEntity
8
0
100
AcDbCircle
10
454.96158264750505
20
112.558923590243
30
-1.7763568394002505e-14
40
4.4999999999999964
0
CIRCLE
5
610
100
AcDbEntity
8
0
100
AcDbCircle
10
454.96158264750693
20
136.55892359024296
30
-1.7763568394002505e-14
40
2.9999999999999947
0
ARC
5
611
100
AcDbEntity
8
0
100
AcDbCircle
10
396.36277806572372
20
172.58860777287325
30
-1.7763568394002505e-14
40
1.4999999999999858
100
AcDbArc
50
0
51
89.999999999997826
0
LINE
5
612
100
AcDbEntity
8
0
100
AcDbLine
10
396.36277806572377
20
174.08860777287322
30
-1.7763568394002505e-14
11
383.36277806572383
21
174.08860777287416
31
-1.7763568394002505e-14
0
ARC
5
613
100
AcDbEntity
8
0
100
AcDbCircle
10
383.3627780657236
20
172.58860777287421
30
1.3794031758197418e-44
40
1.4999999999999503
100
AcDbArc
50
89.999999999991317
51
180
0
LINE
5
614
100
AcDbEntity
8
0
100
AcDbLine
10
381.86277806572366
20
172.58860777287427
30
1.4791141972894337e-31
11
381.86277806572343
21
168.49277082890899
31
2.4462428759483847e-25
0
ARC
5
615
100
AcDbEntity
8
0
100
AcDbCircle
10
380.66069653770637
20
167.29068930089173
30
7.4991363129882789e-45
40
1.6999999999999915
100
AcDbArc
50
-134.9999999999919
51
45.000000000004739
0
LINE
5
616
100
AcDbEntity
8
0
100
AcDbLine
10
379.45861500968942
20
166.08860777287444
30
5.0289882707839482e-31
11
309.66516890215127
21
166.08860777287913
31
9.0905986754671961e-25
0
LINE
5
617
100
AcDbEntity
8
0
100
AcDbLine
10
309.66516890215127
20
166.08860777287913
30
9.0905986754671961e-25
11
309.6651689021503
21
152.69377090140074
31
-1.7763568394002505e-14
0
ARC
5
618
100
AcDbEntity
8
0
100
AcDbCircle
10
308.4630873741329
20
151.49168937338388
30
-1.7763568394002505e-14
40
1.7000000000000168
100
AcDbArc
50
-135.00000000004201
51
44.999999999987125
0
LINE
5
619
100
AcDbEntity
8
0
100
AcDbLine
10
307.26100584611487
20
150.28960784536761
30
-1.7763568394002505e-14
11
302.66516902955146
21
150.2896078453679
31
4.9303806576313028e-31
0
ARC
5
620
100
AcDbEntity
8
0
100
AcDbCircle
10
302.66516902955141
20
149.28960784536784
30
1.7763568394002505e-14
40
1.0000000000000675
100
AcDbArc
50
89.999999999996746
51
180
0
LINE
5
621
100
AcDbEntity
8
0
100
AcDbLine
10
301.66516902955141
20
149.28960784536798
30
1.7763568394002505e-14
11
301.6651690295509
21
143.28960784536801
31
1.7763568394002505e-14
0
ARC
5
622
100
AcDbEntity
8
0
100
AcDbCircle
10
302.6651690295509
20
143.28960784536798
30
1.7763568394002505e-14
40
0.99999999999997868
100
AcDbArc
50
180
51
269.99999999999676
0
LINE
5
623
100
AcDbEntity
8
0
100
AcDbLine
10
302.66516902955084
20
142.28960784536795
30
1.7763568394002505e-14
11
307.26100584611578
21
142.28960784536761
31
1.7763568394002505e-14
0
ARC
5
624
100
AcDbEntity
8
0
100
AcDbCircle
10
308.46308737413216
20
141.08752631734967
30
-1.7763568394002505e-14
40
1.6999999999999664
100
AcDbArc
50
-44.999999999998629
51
134.99999999996277
0
LINE
5
625
100
AcDbEntity
8
0
100
AcDbLine
10
309.66516890214928
20
139.88544478933261
30
-1.7763568394002505e-14
11
309.66516890214757
21
117.69377090140094
31
-1.7763568394002505e-14
0
ARC
5
626
100
AcDbEntity
8
0
100
AcDbCircle
10
308.46308737413017
20
116.49168937338405
30
-1.7763568394002505e-14
40
1.7000000000000168
100
AcDbArc
50
-135.0000000000359
51
44.999999999987807
0
LINE
5
627
100
AcDbEntity
8
0
100
AcDbLine
10
307.26100584611225
20
115.28960784536764
30
-1.7763568394002505e-14
11
302.66516902954879
21
115.28960784536794
31
-1.7763568394002505e-14
0
ARC
5
628
100
AcDbEntity
8
0
100
AcDbCircle
10
302.66516902954868
20
114.28960784536791
30
-1.7283593363693789e-44
40
1.000000000000032
100
AcDbArc
50
89.999999999993491
51
180
0
LINE
5
629
100
AcDbEntity
8
0
100
AcDbLine
10
301.66516902954862
20
114.28960784536804
30
9.860761315262595e-32
11
301.66516902954822
21
108.28960784536804
31
0
0
ARC
5
630
100
AcDbEntity
8
0
100
AcDbCircle
10
302.66516902954822
20
108.28960784536797
30
1.7763568394002505e-14
40
0.99999999999997868
100
AcDbArc
50
180
51
269.99999999999346
0
LINE
5
631
100
AcDbEntity
8
0
100
AcDbLine
10
302.66516902954811
20
107.28960784536795
30
1.7763568394002505e-14
11
307.26100584611294
21
107.28960784536766
31
1.7763568394002505e-14
0
ARC
5
632
100
AcDbEntity
8
0
100
AcDbCircle
10
308.46308737412937
20
106.08752631734986
30
-4.6253796966971501e-45
40
1.6999999999999917
100
AcDbArc
50
-44.999999999995929
51
134.99999999996751
0
LINE
5
633
100
AcDbEntity
8
0
100
AcDbLine
10
309.6651689021466
20
104.88544478933279
30
-2.1709917746934739e-43
11
309.66516890214643
21
103.28960784536748
31
0
0
LINE
5
634
100
AcDbEntity
8
0
100
AcDbLine
10
309.66516890214643
20
103.28960784536748
30
0
11
470.06038722929043
21
103.28960784535668
31
-1.5777218104420163e-29
0
LINE
5
635
100
AcDbEntity
8
0
100
AcDbLine
10
470.06038722929043
20
103.28960784535668
30
-1.5777218104420163e-29
11
470.06038722929043
21
104.88544478932199
31
0
0
ARC
5
636
100
AcDbEntity
8
0
100
AcDbCircle
10
471.26246875730783
20
106.08752631733886
30
1.7763568394002505e-14
40
1.6999999999999917
100
AcDbArc
50
45.000000000025061
51
224.99999999998712
0
LINE
5
637
100
AcDbEntity
8
0
100
AcDbLine
10
472.46455028532444
20
107.28960784535651
30
1.7763568394002505e-14
11
477.06038710188932
21
107.28960784535622
31
1.7763568394002505e-14
0
ARC
5
638
100
AcDbEntity
8
0
100
AcDbCircle
10
477.06038710188932
20
108.28960784535622
30
1.7763568394002505e-14
40
0.99999999999999645
100
AcDbArc
50
270
51
360
0
LINE
5
639
100
AcDbEntity
8
0
100
AcDbLine
10
478.06038710188938
20
108.28960784535613
30
1.7763568394002505e-14
11
478.06038710188977
21
114.28960784535616
31
1.7763568394002505e-14
0
ARC
5
640
100
AcDbEntity
8
0
100
AcDbCircle
10
477.06038710188983
20
114.2896078453562
30
0
40
0.99999999999994316
100
AcDbArc
50
0
51
89.999999999996746
0
LINE
5
641
100
AcDbEntity
8
0
100
AcDbLine
10
477.06038710188989
20
115.2896078453562
30
9.8607613152626476e-32
11
472.46455028532637
21
115.2896078453565
31
-2.084691570700242e-45
0
ARC
5
642
100
AcDbEntity
8
0
100
AcDbCircle
10
471.26246875730862
20
116.49168937337308
30
0
40
1.700000000000004
100
AcDbArc
50
135.00000000000475
51
315.0000000000278
0
LINE
5
643
100
AcDbEntity
8
0
100
AcDbLine
10
470.06038722929139
20
117.69377090139011
30
-3.3526588471892992e-31
11
470.06038722929316
21
139.88544478932181
31
0
0
ARC
5
644
100
AcDbEntity
8
0
100
AcDbCircle
10
471.26246875731056
20
141.08752631733867
30
0
40
1.6999999999999915
100
AcDbArc
50
45.000000000032514
51
224.99999999998712
0
LINE
5
645
100
AcDbEntity
8
0
100
AcDbLine
10
472.46455028532699
20
142.28960784535647
30
0
11
477.06038710189199
21
142.28960784535619
31
-4.9303806576313028e-31
0
ARC
5
646
100
AcDbEntity
8
0
100
AcDbCircle
10
477.06038710189205
20
143.28960784535616
30
0
40
0.99999999999999645
100
AcDbArc
50
269.99999999999676
51
360
0
LINE
5
647
100
AcDbEntity
8
0
100
AcDbLine
10
478.06038710189205
20
143.2896078453561
30
-9.860761315262606e-32
11
478.0603871018925
21
149.28960784535607
31
1.7763568394002505e-14
0
ARC
5
648
100
AcDbEntity
8
0
100
AcDbCircle
10
477.06038710189256
20
149.28960784535616
30
1.7763568394002505e-14
40
0.99999999999994316
100
AcDbArc
50
0
51
89.999999999996746
0
LINE
5
649
100
AcDbEntity
8
0
100
AcDbLine
10
477.06038710189262
20
150.28960784535616
30
1.7763568394002505e-14
11
472.46455028532921
21
150.28960784535647
31
1.7763568394002505e-14
0
ARC
5
650
100
AcDbEntity
8
0
100
AcDbCircle
10
471.26246875731135
20
151.49168937337291
30
0
40
1.700000000000004
100
AcDbArc
50
135.00000000000475
51
315.00000000003388
0
LINE
5
651
100
AcDbEntity
8
0
100
AcDbLine
10
470.06038722929412
20
152.69377090138994
30
5.028988270783949e-31
11
470.0603872292952
21
166.08860777286833
31
-1.9721522630525295e-30
0
LINE
5
652
100
AcDbEntity
8
0
100
AcDbLine
10
470.0603872292952
20
166.08860777286833
30
-1.9721522630525295e-30
11
400.26694112175733
21
166.08860777287299
31
9.0889398055943251e-25
0
ARC
5
653
100
AcDbEntity
8
0
100
AcDbCircle
10
399.06485959374049
20
167.29068930089051
30
1.0400262039910752e-45
40
1.7000000000000168
100
AcDbArc
50
135
51
314.99999999998374
0
LINE
5
654
100
AcDbEntity
8
0
100
AcDbLine
10
397.86277806572338
20
168.49277082890762
30
1.0126434316209735e-43
11
397.86277806572372
21
172.58860777287313
31
-1.7763568394002505e-14
0
CIRCLE
5
655
100
AcDbEntity
8
0
100
AcDbCircle
10
380.63549062914763
20
32.587246245595374
30
0
40
3.2499999999999964
0
CIRCLE
5
656
100
AcDbEntity
8
0
100
AcDbCircle
10
434.63549062914751
20
32.587246245601484
30
0
40
3.249999999999992
0
CIRCLE
5
657
100
AcDbEntity
8
0
100
AcDbCircle
10
380.6354906291532
20
-17.41275375440452
30
1.1102230246251565e-15
40
3.2499999999999876
0
CIRCLE
5
658
100
AcDbEntity
8
0
100
AcDbCircle
10
434.63549062915314
20
-17.412753754398409
30
1.1102230246251565e-15
40
3.249999999999992
0
LWPOLYLINE
5
659
100
AcDbEntity
8
0
100
AcDbPolyline
90
16
70
1
43
0.0
10
447.22127706678373
20
-35.32696731676937
42
-0.19891236737967946
10
445.80706350441068
20
-35.912753754396441
10
369.46391775390344
20
-35.912753754405308
42
-0.19891236737965351
10
368.04970419153028
20
-35.326967316778571
10
364.22127706678367
20
-31.498540192032802
42
-0.19891236737969561
10
363.63549062915666
20
-30.084326629659792
10
363.63549062914785
20
45.258819120847505
42
-0.1989123673796056
10
364.22127706677463
20
46.673032683220683
10
368.04970419152039
20
50.501459807967287
42
-0.19891236737967716
10
369.46391775389344
20
51.087246245594343
10
445.80706350440067
20
51.087246245602856
42
-0.19891236737965465
10
447.22127706677378
20
50.501459807976133
10
451.04970419152045
20
46.673032683230403
42
-0.19891236737969539
10
451.63549062914745
20
45.258819120857396
10
451.63549062915621
20
-30.08432662964962
42
-0.19891236737961554
10
451.04970419152943
20
-31.498540192022759
0
LWPOLYLINE
5
660
100
AcDbEntity
8
0
100
AcDbPolyline
90
3
70
1
43
0.0
10
270.59781216373432
20
6.0660528908868478
10
277.5260153940099
20
18.066052890886439
10
263.66960893345907
20
18.066052890886585
0
LWPOLYLINE
5
661
100
AcDbEntity
8
0
100
AcDbPolyline
90
3
70
1
43
0.0
10
324.66601539400932
20
18.066052890886073
10
310.80960893345855
20
18.066052890886084
10
317.73781216373385
20
6.0660528908864215
0
LWPOLYLINE
5
662
100
AcDbEntity
8
0
100
AcDbPolyline
90
3
70
1
43
0.0
10
324.66601539400864
20
-37.07394710911295
10
317.73781216373345
20
-25.073947109113135
10
310.80960893345787
20
-37.073947109112652
0
LWPOLYLINE
5
663
100
AcDbEntity
8
0
100
AcDbPolyline
90
3
70
1
43
0.0
10
277.52601539400922
20
-37.073947109112169
10
270.59781216373392
20
-25.073947109112424
10
263.66960893345845
20
-37.073947109112012
0
CIRCLE
5
664
100
AcDbEntity
8
0
100
AcDbCircle
10
294.16781216373397
20
-9.5039471091131134
30
0
40
20.499999999999762
0
LWPOLYLINE
5
665
100
AcDbEntity
8
0
100
AcDbPolyline
90
4
70
1
43
0.0
10
331.91781216373266
20
-20.503947109113088
42
-0.99999999999999989
10
337.41781216373261
20
-20.503947109112946
10
337.41781216373249
20
-31.503947109112506
42
-0.99999999999999989
10
331.91781216373249
20
-31.503947109112612
0
LWPOLYLINE
5
666
100
AcDbEntity
8
0
100
AcDbPolyline
90
4
70
1
43
0.0
10
256.41781216373369
20
1.496052890888246
42
-0.99999999999999989
10
250.9178121637338
20
1.4960528908867898
10
250.9178121637338
20
12.496052890887896
42
-0.99999999999999989
10
256.41781216373386
20
12.496052890886457
0
LWPOLYLINE
5
667
100
AcDbEntity
8
0
100
AcDbPolyline
90
4
70
1
43
0.0
10
331.91781216373306
20
12.496052890885656
10
331.917812163733
20
1.4960528908859061
42
0.99999999999999989
10
337.41781216373283
20
1.4960528908872361
10
337.41781216373306
20
12.496052890885604
42
0.99999999999999989
0
LWPOLYLINE
5
668
100
AcDbEntity
8
0
100
AcDbPolyline
90
4
70
1
43
0.0
10
256.41781216373329
20
-31.503947109111724
42
-0.99999999999999989
10
250.91781216373334
20
-31.50394710911176
10
250.91781216373349
20
-20.503947109112129
42
-0.99999999999999989
10
256.41781216373346
20
-20.503947109112094
0
LWPOLYLINE
5
669
100
AcDbEntity
8
0
100
AcDbPolyline
90
8
70
1
43
0.0
10
245.667812163734
20
17.496052890887142
42
-0.41421356237308343
10
253.66781216373403
20
25.496052890886865
10
334.66781216373317
20
25.496052890885966
42
-0.41421356237311147
10
342.66781216373306
20
17.496052890886116
10
342.66781216373238
20
-36.503947109112588
42
-0.41421356237308593
10
334.66781216373238
20
-44.503947109112374
10
253.66781216373315
20
-44.503947109111493
42
-0.41421356237310675
10
245.66781216373332
20
-36.503947109111564
0
ARC
5
670
100
AcDbEntity
8
0
100
AcDbCircle
10
-55.613333262732922
20
1.398233870832486
30
2.2204460492503131e-15
40
1.5000000000000169
100
AcDbArc
50
90
51
180
0
LINE
5
671
100
AcDbEntity
8
0
100
AcDbLine
10
-57.113333262732944
20
1.3982338708325182
30
2.2204460492503131e-15
11
-57.113333262732979
21
-2.6976030731381417
31
2.2204460492503131e-15
0
ARC
5
672
100
AcDbEntity
8
0
100
AcDbCircle
10
-58.315414790755128
20
-3.8996846011502861
30
2.2204460492503131e-15
40
1.7000000000000191
100
AcDbArc
50
-134.99999999999832
51
44.999999999761584
0
LINE
5
673
100
AcDbEntity
8
0
100
AcDbLine
10
-59.517496318772238
20
-5.1017661291674674
30
2.2204460492503119e-15
11
-61.113333262733036
21
-5.1017661291674488
31
0
0
LINE
5
674
100
AcDbEntity
8
0
100
AcDbLine
10
-61.113333262733036
20
-5.1017661291674488
30
0
11
-61.113333262733249
21
-29.273339004421217
31
9.8607613152626476e-31
0
ARC
5
675
100
AcDbEntity
8
0
100
AcDbCircle
10
-59.113333262733093
20
-29.273339004421164
30
2.2204460492503111e-15
40
2.0000000000001528
100
AcDbArc
50
180
51
224.99999999999739
0
LINE
5
676
100
AcDbEntity
8
0
100
AcDbLine
10
-60.52754682510637
20
-30.687552566794313
30
2.2204460492503115e-15
11
-56.699119700360157
21
-34.515979691540515
31
2.2204460492503131e-15
0
ARC
5
677
100
AcDbEntity
8
0
100
AcDbCircle
10
-55.284906137987129
20
-33.101766129167615
30
6.5412174408912359e-44
40
1.9999999999998139
100
AcDbArc
50
224.99999999999739
51
270.00000000000142
0
LINE
5
678
100
AcDbEntity
8
0
100
AcDbLine
10
-55.284906137987079
20
-35.101766129167451
30
9.8607613152626016e-32
11
177.90291662148832
21
-35.101766129169356
31
0
0
ARC
5
679
100
AcDbEntity
8
0
100
AcDbCircle
10
177.90291662148829
20
-33.101766129169349
30
0
40
2.0000000000000018
100
AcDbArc
50
270.0000000000008
51
314.99999999999955
0
LINE
5
680
100
AcDbEntity
8
0
100
AcDbLine
10
179.31713018386137
20
-34.515979691542448
30
0
11
183.14555730860772
21
-30.687552566796267
31
-3.944304526105059e-30
0
ARC
5
681
100
AcDbEntity
8
0
100
AcDbCircle
10
181.73134374623419
20
-29.273339004422997
30
5.2023205488058834e-43
40
2.0000000000004232
100
AcDbArc
50
315.00000000000534
51
360
0
LINE
5
682
100
AcDbEntity
8
0
100
AcDbLine
10
183.73134374623461
20
-29.273339004423189
30
-1.5777218104420282e-30
11
183.73134374623481
21
-5.1017661291694161
31
2.2204460492503123e-15
0
LINE
5
683
100
AcDbEntity
8
0
100
AcDbLine
10
183.73134374623481
20
-5.1017661291694161
30
2.2204460492503123e-15
11
182.13550680226533
21
-5.1017661291694028
31
2.2204460492503131e-15
0
ARC
5
684
100
AcDbEntity
8
0
100
AcDbCircle
10
180.93342527424824
20
-3.8996846011521988
30
-2.2204460492503135e-15
40
1.700000000000045
100
AcDbArc
50
134.99999999982194
51
314.99999999999727
0
LINE
5
685
100
AcDbEntity
8
0
100
AcDbLine
10
179.73134374623481
20
-2.6976030731313037
30
-2.2204460492503119e-15
11
179.73134374623484
21
1.3982338708306141
31
-2.4651903288156619e-31
0
ARC
5
686
100
AcDbEntity
8
0
100
AcDbCircle
10
178.23134374623496
20
1.3982338708306661
30
-2.2204460492503131e-15
40
1.4999999999998792
100
AcDbArc
50
0
51
90.000000000002174
0
LINE
5
687
100
AcDbEntity
8
0
100
AcDbLine
10
178.2313437462349
20
2.8982338708306168
30
-2.2204460492503131e-15
11
173.23134374623487
21
2.8982338708306674
31
2.2204460492503131e-15
0
ARC
5
688
100
AcDbEntity
8
0
100
AcDbCircle
10
173.23134374623487
20
1.3982338708306175
30
0
40
1.5000000000000502
100
AcDbArc
50
90
51
180
0
LINE
5
689
100
AcDbEntity
8
0
100
AcDbLine
10
171.73134374623484
20
1.3982338708306707
30
0
11
171.73134374623481
21
-2.6976030731388878
31
2.4651903288156619e-31
0
ARC
5
690
100
AcDbEntity
8
0
100
AcDbCircle
10
170.52926221821366
20
-3.8996846011521056
30
9.9623562698092464e-45
40
1.7000000000000197
100
AcDbArc
50
-134.99999999999582
51
44.999999999810875
0
LINE
5
691
100
AcDbEntity
8
0
100
AcDbLine
10
169.3271806901966
20
-5.1017661291693415
30
1.3410635388757335e-30
11
-46.709170206703838
21
-5.1017661291675562
31
2.2204460492503131e-15
0
ARC
5
692
100
AcDbEntity
8
0
100
AcDbCircle
10
-47.911251734720899
20
-3.8996846011503736
30
-1.0947644252537633e-46
40
1.7000000000000233
100
AcDbArc
50
134.99999999975509
51
314.9999999999971
0
LINE
5
693
100
AcDbEntity
8
0
100
AcDbLine
10
-49.113333262732908
20
-2.6976030731280884
30
1.3410635388757339e-30
11
-49.113333262732866
21
1.3982338708324615
31
2.2204460492503127e-15
0
ARC
5
694
100
AcDbEntity
8
0
100
AcDbCircle
10
-50.613333262732858
20
1.3982338708324862
30
0
40
1.4999999999999947
100
AcDbArc
50
0
51
90.00000000000081
0
LINE
5
695
100
AcDbEntity
8
0
100
AcDbLine
10
-50.61333326273288
20
2.8982338708324717
30
0
11
-55.613333262732922
21
2.8982338708325028
31
2.2204460492503131e-15
0
CIRCLE
5
696
100
AcDbEntity
8
0
100
AcDbCircle
10
77.309005241750882
20
-20.101766129168599
30
0
40
3.0000000000000333
0
CIRCLE
5
697
100
AcDbEntity
8
0
100
AcDbCircle
10
45.309005241750626
20
-20.101766129168332
30
-2.2204460492503131e-15
40
3.0000000000000333
0
CIRCLE
5
698
100
AcDbEntity
8
0
100
AcDbCircle
10
-48.190994758250184
20
-20.101766129167533
30
0
40
3.0000000000000266
0
CIRCLE
5
699
100
AcDbEntity
8
0
100
AcDbCircle
10
170.80900524175175
20
-20.101766129169274
30
2.2204460492503131e-15
40
4.500000000000032
0
LWPOLYLINE
5
700
100
AcDbEntity
8
0
100
AcDbPolyline
90
28
70
1
43
0.0
10
-6.1515869378946428
20
24.187034898840594
42
-0.41421356237308704
10
-7.6515869378946721
20
22.687034898840611
10
-38.073925442377792
20
22.687034898841006
10
-38.073925442377067
20
85.216561062280064
10
73.944250006072366
20
85.216561062278572
42
0.99999999999999989
10
76.348413062106943
20
87.620724118312523
10
76.348413062106999
20
91.716561062278558
42
-0.41421356237308982
10
77.848413062107028
20
93.216561062278544
10
90.848413062107113
20
93.216561062278345
42
-0.41421356237309503
10
92.348413062107113
20
91.716561062278345
10
92.348413062107056
20
87.620724118311472
42
0.99999999999999989
10
94.752576118142443
20
85.216561062278316
10
206.7707515665906
20
85.216561062276838
10
206.77075156658987
20
22.687034898837801
10
176.34841306210674
20
22.687034898838213
42
-0.41421356237309936
10
174.84841306210677
20
24.18703489883822
10
174.84841306210686
20
36.187036441831204
42
-0.41421356237307339
10
176.34841306210689
20
37.687036441831182
10
185.44425000607288
20
37.687036441831069
42
0.99999999999999989
10
187.84841306210711
20
40.091199497865361
10
187.8484130621072
20
47.282873385794488
42
0.99999999999999989
10
185.44425000607515
20
49.68703644183104
10
-16.747423881860254
20
49.687036441833683
42
0.99999999999999989
10
-19.151586937894468
20
47.282873385799377
10
-19.15158693789455
20
40.09119949786691
42
0.99999999999999989
10
-16.747423881859213
20
37.687036441833712
10
-7.6515869378944945
20
37.687036441833591
42
-0.41421356237310347
10
-6.1515869378945052
20
36.18703644183357
0
ARC
5
701
100
AcDbEntity
8
0
100
AcDbCircle
10
195.97283309460951
20
50.889117897359185
30
-8.8817841970012507e-15
40
1.6999999999999915
100
AcDbArc
50
135.00000000010434
51
315.00000000010533
0
LINE
5
702
100
AcDbEntity
8
0
100
AcDbLine
10
194.77075156659021
20
52.091199425374114
30
-8.8817841970012507e-15
11
194.77075156659023
21
55.282873313309963
31
2.4651903288156619e-31
0
ARC
5
703
100
AcDbEntity
8
0
100
AcDbCircle
10
195.97283309460963
20
56.484954841324836
30
-3.0927095013418814e-45
40
1.700000000000004
100
AcDbArc
50
45.000000000029296
51
224.99999999989231
0
LINE
5
704
100
AcDbEntity
8
0
100
AcDbLine
10
197.17491462262615
20
57.687036369342586
30
-4.1908235589866243e-31
11
200.36658851055904
21
57.687036369342543
31
4.9303806576313325e-31
0
ARC
5
705
100
AcDbEntity
8
0
100
AcDbCircle
10
201.56867003857545
20
56.484954841324694
30
-1.1631872018321235e-45
40
1.7000000000000104
100
AcDbArc
50
-45.000000000110582
51
134.99999999996561
0
LINE
5
706
100
AcDbEntity
8
0
100
AcDbLine
10
202.77075156659026
20
55.282873313305238
30
4.1908235589832551e-31
11
202.77075156659021
21
52.091199425378406
31
-2.4651903288156619e-31
0
ARC
5
707
100
AcDbEntity
8
0
100
AcDbCircle
10
201.56867003857539
20
50.889117897358972
30
2.4632199568209675e-45
40
1.699999999999998
100
AcDbArc
50
-135.00000000003354
51
45.000000000110077
0
LINE
5
708
100
AcDbEntity
8
0
100
AcDbLine
10
200.36658851055756
20
49.68703636934255
30
1.6763294235946496e-31
11
197.17491462262885
21
49.68703636934427
31
-8.8817841970012507e-15
0
LWPOLYLINE
5
709
100
AcDbEntity
8
0
100
AcDbPolyline
90
8
70
1
43
0.0
10
-26.073925442377952
20
52.091199425378548
42
-0.99999999999999989
10
-28.47808849841347
20
49.687036369345549
10
-31.669762386345738
20
49.687036369343687
42
-0.99999999999999989
10
-34.073925442377416
20
52.091199425380566
10
-34.073925442378105
20
55.282873313310105
42
-0.99999999999999989
10
-31.669762386345045
20
57.687036369345577
10
-28.478088498413982
20
57.687036369343701
42
-0.99999999999999989
10
-26.073925442377316
20
55.282873313311818
0
LWPOLYLINE
5
710
100
AcDbEntity
8
0
100
AcDbPolyline
90
8
70
1
43
0.0
10
193.44469214696826
20
34.417720696945722
42
-0.99999999999999989
10
195.84885520300003
20
32.013557640909028
10
195.8488552030025
20
28.82188375297747
42
-0.99999999999999989
10
193.44469214696571
20
26.417720696945686
10
190.25301825903657
20
26.417720696945768
42
-0.99999999999999989
10
187.84885520299991
20
28.821883752977637
10
187.84885520300224
20
32.013557640909198
42
-0.99999999999999989
10
190.25301825903429
20
34.417720696945722
0
LWPOLYLINE
5
711
100
AcDbEntity
8
0
100
AcDbPolyline
90
8
70
1
43
0.0
10
190.25301824112458
20
61.417720679033458
42
-0.9999999925494194
10
187.84885520300034
20
63.821883752977719
10
187.84885520300247
20
67.013557640909454
42
-0.99999999999999989
10
190.25301825903486
20
69.417720696945636
10
193.44469214696861
20
69.417720696945807
42
-0.99999999999999989
10
195.84885520300045
20
67.01355764090907
10
195.8488552030027
20
63.821883752977755
42
-0.99999999999999989
10
193.4446921469663
20
61.417720696945615
0
LWPOLYLINE
5
712
100
AcDbEntity
8
0
100
AcDbPolyline
90
8
70
1
43
0.0
10
-19.152029078787255
20
63.821883752982643
10
-19.152029078787219
20
67.013557640913177
42
0.99999999999999989
10
-21.556192134820527
20
69.417720696948408
10
-24.747866022752959
20
69.41772069694845
42
0.99999999999999989
10
-27.152029078787265
20
67.013557640914229
10
-27.152029078787301
20
63.821883752981854
42
0.99999999999999989
10
-24.747866022752159
20
61.417720696948479
10
-21.556192134821561
20
61.417720696948422
42
0.99999999999999989
0
LWPOLYLINE
5
713
100
AcDbEntity
8
0
100
AcDbPolyline
90
8
70
1
43
0.0
10
62.643464715303878
20
57.587036369397033
42
-0.91649449412411921
10
60.248413062158981
20
59.982088022539031
10
60.248413062159045
20
63.391984716148364
42
-0.91649449412359096
10
62.643464715302443
20
65.787036369291599
10
106.05336140891256
20
65.787036369291044
42
-0.91649449412419015
10
108.44841306205399
20
63.391984716145522
10
108.44841306205397
20
59.982088022540161
42
-0.91649449412490469
10
106.05336140891042
20
57.587036369396465
0
LWPOLYLINE
5
714
100
AcDbEntity
8
0
100
AcDbPolyline
90
8
70
1
43
0.0
10
-24.747866022752557
20
26.417720696948358
42
-0.99999999999999989
10
-27.152029078787713
20
28.821883752981744
10
-27.152029078786665
20
32.013557640913135
42
-0.99999999999999989
10
-24.747866022753534
20
34.417720696948535
10
-21.55619213482089
20
34.417720696948365
42
-0.99999999999999989
10
-19.152029078787628
20
32.013557640913092
10
-19.152029078786519
20
28.821883752981428
42
-0.99999999999999989
10
-21.556192134822119
20
26.417720696948493
0
ARC
5
715
100
AcDbEntity
8
0
100
AcDbCircle
10
-276.69399842282922
20
24.187034898846438
30
9.8595898308612464e-59
40
1.5000000000000568
100
AcDbArc
50
269.99999999999784
51
360
0
LINE
5
716
100
AcDbEntity
8
0
100
AcDbLine
10
-275.19399842282917
20
24.187034898846271
30
-1.5951689145297174e-45
11
-275.19399842282832
21
36.18703644183924
31
0
0
ARC
5
717
100
AcDbEntity
8
0
100
AcDbCircle
10
-276.69399842282826
20
36.187036441839368
30
6.3154222781826472e-45
40
1.4999999999999503
100
AcDbArc
50
0
51
89.999999999997826
0
LINE
5
718
100
AcDbEntity
8
0
100
AcDbLine
10
-276.6939984228282
20
37.687036441839354
30
7.6086633544541545e-46
11
-285.78983536679294
21
37.68703644184
31
-4.9430818195410507e-31
0
ARC
5
719
100
AcDbEntity
8
0
100
AcDbCircle
10
-286.99191689481057
20
38.889117969856613
30
-1.2667711986383962e-45
40
1.700000000000004
100
AcDbArc
50
135.00000000002032
51
315.00000000002422
0
LINE
5
720
100
AcDbEntity
8
0
100
AcDbLine
10
-288.19399842282814
20
40.091199497873333
30
1.6763294235944821e-31
11
-288.19399842282763
21
47.282873385805793
31
0
0
ARC
5
721
100
AcDbEntity
8
0
100
AcDbCircle
10
-286.99191689480989
20
48.484954913822371
30
-8.8817841970012523e-15
40
1.699999999999998
100
AcDbArc
50
45.000000000022183
51
224.9999999999722
0
LINE
5
722
100
AcDbEntity
8
0
100
AcDbLine
10
-285.78983536679323
20
49.687036441839965
30
-8.8817841970012523e-15
11
-83.598161478858373
21
49.687036441825462
31
-8.8817841970011876e-15
0
ARC
5
723
100
AcDbEntity
8
0
100
AcDbCircle
10
-82.396079950842349
20
48.484954913807179
30
4.2422121478583329e-46
40
1.699999999999998
100
AcDbArc
50
-45.000000000060098
51
134.99999999994617
0
LINE
5
724
100
AcDbEntity
8
0
100
AcDbLine
10
-81.193998422826482
20
47.28287338578879
30
-3.3526588471891359e-31
11
-81.193998422827022
21
40.091199497859655
31
-8.8817841970012523e-15
0
ARC
5
725
100
AcDbEntity
8
0
100
AcDbCircle
10
-82.39607995084306
20
38.889117969841408
30
-8.8817841970012523e-15
40
1.699999999999998
100
AcDbArc
50
-135.00000000005841
51
45.000000000052651
0
LINE
5
726
100
AcDbEntity
8
0
100
AcDbLine
10
-83.598161478861414
20
37.687036441825505
30
-8.8817841970012523e-15
11
-92.693998422827292
21
37.687036441826145
31
-8.8817841970012507e-15
0
ARC
5
727
100
AcDbEntity
8
0
100
AcDbCircle
10
-92.693998422827434
20
36.187036441826159
30
-8.8817841970012523e-15
40
1.4999999999999902
100
AcDbArc
50
89.999999999994571
51
180
0
LINE
5
728
100
AcDbEntity
8
0
100
AcDbLine
10
-94.19399842282742
20
36.187036441826251
30
-8.8817841970012523e-15
11
-94.193998422828258
21
24.187034898833279
31
-8.8817841970012523e-15
0
ARC
5
729
100
AcDbEntity
8
0
100
AcDbCircle
10
-92.693998422828301
20
24.187034898833147
30
-8.8817841970012523e-15
40
1.4999999999999503
100
AcDbArc
50
180
51
269.99999999999721
0
LINE
5
730
100
AcDbEntity
8
0
100
AcDbLine
10
-92.693998422828372
20
22.687034898833179
30
-8.8817841970012523e-15
11
-62.271659918345307
21
22.687034898830998
31
-8.8817841970012523e-15
0
LINE
5
731
100
AcDbEntity
8
0
100
AcDbLine
10
-62.271659918345307
20
22.687034898830998
30
-8.8817841970012523e-15
11
-62.271659918340845
21
85.216561062269989
31
-7.8886090522101181e-30
0
LINE
5
732
100
AcDbEntity
8
0
100
AcDbLine
10
-62.271659918340845
20
85.216561062269989
30
-7.8886090522101181e-30
11
-174.28983536678871
21
85.216561062278018
31
-8.8817841959689489e-15
0
ARC
5
733
100
AcDbEntity
8
0
100
AcDbCircle
10
-175.49191689480637
20
86.418642590294724
30
-8.8817841970012507e-15
40
1.6999999999999664
100
AcDbArc
50
135.0000000000251
51
315.00000000002268
0
LINE
5
734
100
AcDbEntity
8
0
100
AcDbLine
10
-176.693998422824
20
87.620724118311301
30
-8.8817841970012507e-15
11
-176.69399842282365
21
91.716561062278174
31
-1.3477195527635224e-26
0
ARC
5
735
100
AcDbEntity
8
0
100
AcDbCircle
10
-178.19399842282365
20
91.716561062278316
30
-4.5214095378209858e-59
40
1.4999999999999858
100
AcDbArc
50
0
51
89.999999999995666
0
LINE
5
736
100
AcDbEntity
8
0
100
AcDbLine
10
-178.19399842282354
20
93.216561062278316
30
-1.1541374571023691e-60
11
-191.19399842282363
21
93.216561062279226
31
3.9443045261050163e-30
0
ARC
5
737
100
AcDbEntity
8
0
100
AcDbCircle
10
-191.19399842282377
20
91.716561062279212
30
-2.0613738107915032e-59
40
1.5000000000000213
100
AcDbArc
50
89.999999999994571
51
180
0
LINE
5
738
100
AcDbEntity
8
0
100
AcDbLine
10
-192.6939984228238
20
91.716561062279339
30
1.5951689145297653e-45
11
-192.69399842282405
21
87.620724118313348
31
-8.8817841969885501e-15
0
ARC
5
739
100
AcDbEntity
8
0
100
AcDbCircle
10
-193.89607995084103
20
86.418642590296017
30
-8.8817841970012523e-15
40
1.6999999999999917
100
AcDbArc
50
-135.0000000000305
51
45.000000000008463
0
LINE
5
740
100
AcDbEntity
8
0
100
AcDbLine
10
-195.0981614788588
20
85.216561062279524
30
-8.8817841970012507e-15
11
-307.11633692730794
21
85.216561062287553
31
-8.8817841959706213e-15
0
LINE
5
741
100
AcDbEntity
8
0
100
AcDbLine
10
-307.11633692730794
20
85.216561062287553
30
-8.8817841959706213e-15
11
-307.11633692731232
21
22.687034898848559
31
-8.8817841970012444e-15
0
LINE
5
742
100
AcDbEntity
8
0
100
AcDbLine
10
-307.11633692731232
20
22.687034898848559
30
-8.8817841970012444e-15
11
-276.69399842282928
21
22.687034898846381
31
0
0
ARC
5
743
100
AcDbEntity
8
0
100
AcDbCircle
10
-73.069578390323954
20
50.889117897353003
30
-8.8817841970012539e-15
40
1.700000000000004
100
AcDbArc
50
135.00000000010263
51
315.00000000010243
0
LINE
5
744
100
AcDbEntity
8
0
100
AcDbLine
10
-74.271659918343246
20
52.091199425367989
30
-8.8817841970012539e-15
11
-74.271659918342991
21
55.282873313303838
31
-8.8817841970012523e-15
0
ARC
5
745
100
AcDbEntity
8
0
100
AcDbCircle
10
-73.069578390323528
20
56.48495484131864
30
-1.7763568394002505e-14
40
1.699999999999998
100
AcDbArc
50
45.000000000026077
51
224.9999999998889
0
LINE
5
746
100
AcDbEntity
8
0
100
AcDbLine
10
-71.86749686230695
20
57.687036369336312
30
-1.7763568394002505e-14
11
-68.675822974374071
21
57.687036369336084
31
-4.9303806576313579e-31
0
ARC
5
747
100
AcDbEntity
8
0
100
AcDbCircle
10
-67.473741446357707
20
56.484954841318157
30
-8.8817841970012523e-15
40
1.699999999999998
100
AcDbArc
50
-45.000000000114149
51
134.99999999996277
0
LINE
5
748
100
AcDbEntity
8
0
100
AcDbLine
10
-66.271659918342976
20
55.282873313298637
30
-8.8817841970012523e-15
11
-66.271659918343232
21
52.091199425371812
31
-8.8817841970012523e-15
0
ARC
5
749
100
AcDbEntity
8
0
100
AcDbCircle
10
-67.473741446358133
20
50.889117897352463
30
-8.8817841970012507e-15
40
1.699999999999998
100
AcDbArc
50
-135.00000000003675
51
45.000000000106006
0
LINE
5
750
100
AcDbEntity
8
0
100
AcDbLine
10
-68.675822974376032
20
49.687036369336106
30
-8.8817841970012507e-15
11
-71.867496862304677
21
49.687036369338024
31
-8.8817841970012539e-15
0
LWPOLYLINE
5
751
100
AcDbEntity
8
0
100
AcDbPolyline
90
8
70
1
43
0.0
10
-295.11633692731078
20
52.091199425385398
42
-0.99999999999999989
10
-297.52049998334644
20
49.687036369352519
10
-300.71217387127865
20
49.687036369350828
42
-0.99999999999999989
10
-303.11633692731021
20
52.091199425387849
10
-303.11633692731073
20
55.282873313317367
42
-0.99999999999999989
10
-300.71217387127751
20
57.687036369352718
10
-297.5204999833465
20
57.687036369350643
42
-0.99999999999999989
10
-295.11633692730993
20
55.282873313318646
0
LWPOLYLINE
5
752
100
AcDbEntity
8
0
100
AcDbPolyline
90
8
70
1
43
0.0
10
-75.597719337966296
20
34.417720696939682
42
-0.99999999999999989
10
-73.19355628193459
20
32.01355764090286
10
-73.193556281932374
20
28.821883752971313
42
-0.99999999999999989
10
-75.597719337969224
20
26.417720696939657
10
-78.789393225898323
20
26.417720696939924
42
-0.99999999999999989
10
-81.19355628193486
20
28.821883752971935
10
-81.193556281932331
20
32.013557640903528
42
-0.99999999999999989
10
-78.789393225900156
20
34.417720696939881
0
ARC
5
753
100
AcDbEntity
8
0
100
AcDbCircle
10
-79.991474753914105
20
62.619802224956004
30
-8.8817841970012523e-15
40
1.699999999999998
100
AcDbArc
50
135.00000000005386
51
315.00000000005366
0
LINE
5
754
100
AcDbEntity
8
0
100
AcDbLine
10
-81.193556281932359
20
63.821883752971999
30
-8.8817841970012523e-15
11
-81.193556281932132
21
67.013557640905873
31
0
0
ARC
5
755
100
AcDbEntity
8
0
100
AcDbCircle
10
-79.991474753913749
20
68.215639168921754
30
-8.8817841970012523e-15
40
1.699999999999998
100
AcDbArc
50
45.000000000042334
51
224.9999999999404
0
LINE
5
756
100
AcDbEntity
8
0
100
AcDbLine
10
-78.789393225897513
20
69.417720696939767
30
-8.8817841970012523e-15
11
-75.597719337963994
21
69.41772069693954
31
-9.8607613152628227e-31
0
ARC
5
757
100
AcDbEntity
8
0
100
AcDbCircle
10
-74.395637809947914
20
68.215639168921328
30
-8.8817841970012523e-15
40
1.7000000000000104
100
AcDbArc
50
-45.000000000063004
51
134.99999999994921
0
LINE
5
758
100
AcDbEntity
8
0
100
AcDbLine
10
-73.193556281932104
20
67.013557640902874
30
-8.8817841970012523e-15
11
-73.193556281932302
21
63.821883752973825
31
-8.8817841970012523e-15
0
ARC
5
759
100
AcDbEntity
8
0
100
AcDbCircle
10
-74.395637809948312
20
62.619802224955563
30
1.2863481996731719e-45
40
1.700000000000004
100
AcDbArc
50
-135.0000000000542
51
45.000000000053674
0
LINE
5
760
100
AcDbEntity
8
0
100
AcDbLine
10
-75.597719337966581
20
61.417720696939568
30
6.3528440403323258e-43
11
-78.78939322589585
21
61.417720696940002
31
-8.8817841970012523e-15
0
LINE
5
761
100
AcDbEntity
8
0
100
AcDbLine
10
-288.19444056371918
20
67.013557640919586
30
-8.8817841970012523e-15
11
-288.19444056371941
21
63.821883752989059
31
-8.8817841970012523e-15
0
ARC
5
762
100
AcDbEntity
8
0
100
AcDbCircle
10
-289.39652209173619
20
62.619802224971515
30
9.4423431678137088e-46
40
1.700000000000004
100
AcDbArc
50
-135.00000000002743
51
45.000000000018282
0
LINE
5
763
100
AcDbEntity
8
0
100
AcDbLine
10
-290.59860361975387
20
61.41772069695498
30
-1.3808332004419504e-43
11
-293.79027750768444
21
61.417720696955215
31
4.9303806576313579e-31
0
ARC
5
764
100
AcDbEntity
8
0
100
AcDbCircle
10
-294.99235903570201
20
62.619802224971949
30
1.2179254230948117e-45
40
1.6999999999999729
100
AcDbArc
50
135.00000000001475
51
315.00000000002001
0
LINE
5
765
100
AcDbEntity
8
0
100
AcDbLine
10
-296.19444056371941
20
63.821883752988732
30
3.3526588471892471e-31
11
-296.19444056371924
21
67.013557640921107
31
0
0
ARC
5
766
100
AcDbEntity
8
0
100
AcDbCircle
10
-294.99235903570155
20
68.215639168937713
30
1.5053010847239246e-45
40
1.700000000000004
100
AcDbArc
50
45.000000000016591
51
224.99999999997428
0
LINE
5
767
100
AcDbEntity
8
0
100
AcDbLine
10
-293.79027750768478
20
69.417720696955186
30
-1.6763294235934434e-31
11
-290.59860361975234
21
69.417720696954959
31
-4.9303806576313579e-31
0
ARC
5
768
100
AcDbEntity
8
0
100
AcDbCircle
10
-289.39652209173579
20
68.215639168937287
30
-8.8817841970012523e-15
40
1.7000000000000168
100
AcDbArc
50
-45.000000000026056
51
134.99999999997326
0
LWPOLYLINE
5
769
100
AcDbEntity
8
0
100
AcDbPolyline
90
8
70
1
43
0.0
10
-206.39894676962885
20
57.58703636939866
42
-0.91649449412412021
10
-208.7939984227736
20
59.9820880225408
10
-208.79399842277334
20
63.391984716150141
42
-0.91649449412358908
10
-206.39894676962982
20
65.787036369293219
10
-162.98905007601977
20
65.787036369290092
42
-0.91649449412419848
10
-160.59399842287849
20
63.391984716144457
10
-160.59399842287877
20
59.982088022539074
42
-0.91649449412489936
10
-162.98905007602244
20
57.587036369395534
0
LWPOLYLINE
5
770
100
AcDbEntity
8
0
100
AcDbPolyline
90
8
70
1
43
0.0
10
-293.79027750768694
20
26.417720696955133
42
-0.99999999999999989
10
-296.19444056372197
20
28.821883752988647
10
-296.19444056372066
20
32.013557640920027
42
-0.99999999999999989
10
-293.79027750768739
20
34.417720696955286
10
-290.59860361975484
20
34.417720696954937
42
-0.99999999999999989
10
-288.19444056372168
20
32.013557640919522
10
-288.19444056372078
20
28.821883752987883
42
-0.99999999999999989
10
-290.59860361975655
20
26.417720696955072
0
ARC
5
771
100
AcDbEntity
8
0
100
AcDbCircle
10
-333.61056257156179
20
6.1297059845941728
30
0
40
1.4999999999999791
100
AcDbArc
50
89.999999999995666
51
180
0
LINE
5
772
100
AcDbEntity
8
0
100
AcDbLine
10
-335.11056257156179
20
6.1297059845942545
30
0
11
-335.11056257156218
21
2.0338690406243143
31
0
0
ARC
5
773
100
AcDbEntity
8
0
100
AcDbCircle
10
-336.31264409958504
20
0.83178751261297212
30
2.627434620609032e-45
40
1.6999999999999857
100
AcDbArc
50
-134.99999999993011
51
44.999999999725524
0
LINE
5
774
100
AcDbEntity
8
0
100
AcDbLine
10
-337.51472562760068
20
-0.3702940154056007
30
2.6821270777434215e-30
11
-339.11056257156241
21
-0.3702940154054748
31
2.2204460492503151e-15
0
LINE
5
775
100
AcDbEntity
8
0
100
AcDbLine
10
-339.11056257156241
20
-0.3702940154054748
30
2.2204460492503151e-15
11
-339.11056257156423
21
-24.54186689065946
31
0
0
ARC
5
776
100
AcDbEntity
8
0
100
AcDbCircle
10
-337.11056257156429
20
-24.54186689065963
30
3.9685210415448921e-44
40
1.9999999999999574
100
AcDbArc
50
180
51
224.99999999999602
0
LINE
5
777
100
AcDbEntity
8
0
100
AcDbLine
10
-338.52477613393745
20
-25.956080453032598
30
3.5032461608120427e-45
11
-334.69634900919152
21
-29.784507577779095
31
-3.944304526105059e-30
0
ARC
5
778
100
AcDbEntity
8
0
100
AcDbCircle
10
-333.28213544681824
20
-28.370294015405836
30
0
40
2.0000000000002629
100
AcDbArc
50
224.99999999999963
51
269.99999999999511
0
LINE
5
779
100
AcDbEntity
8
0
100
AcDbLine
10
-333.28213544681842
20
-30.370294015406106
30
0
11
-100.09431268734463
21
-30.370294015423582
31
2.2204460492500606e-15
0
ARC
5
780
100
AcDbEntity
8
0
100
AcDbCircle
10
-100.09431268734443
20
-28.370294015423717
30
2.2204460492503107e-15
40
1.9999999999998641
100
AcDbArc
50
269.99999999999432
51
314.99999999999756
0
LINE
5
781
100
AcDbEntity
8
0
100
AcDbLine
10
-98.680099124971463
20
-29.784507577796802
30
2.2204460492503147e-15
11
-94.851672000224937
21
-25.956080453050827
31
2.2204460492503131e-15
0
ARC
5
782
100
AcDbEntity
8
0
100
AcDbCircle
10
-96.265885562597887
20
-24.541866890677646
30
2.2204460492503115e-15
40
1.9999999999999585
100
AcDbArc
50
314.99999999999534
51
360
0
LINE
5
783
100
AcDbEntity
8
0
100
AcDbLine
10
-94.26588556259793
20
-24.541866890677781
30
2.2204460492503115e-15
11
-94.26588556259604
21
-0.3702940154237977
31
2.2204460492503131e-15
0
LINE
5
784
100
AcDbEntity
8
0
100
AcDbLine
10
-94.26588556259604
20
-0.3702940154237977
30
2.2204460492503131e-15
11
-95.861722506567332
21
-0.37029401542368245
31
2.2204460492503151e-15
0
ARC
5
785
100
AcDbEntity
8
0
100
AcDbCircle
10
-97.063804034582859
20
0.83178751259504002
30
0
40
1.700000000000027
100
AcDbArc
50
134.99999999979994
51
314.99999999992383
0
LINE
5
786
100
AcDbEntity
8
0
100
AcDbLine
10
-98.265885562595813
20
2.0338690406163891
30
0
11
-98.265885562595514
21
6.129705984576546
31
0
0
ARC
5
787
100
AcDbEntity
8
0
100
AcDbCircle
10
-99.765885562595514
20
6.1297059845766473
30
2.2204460492503131e-15
40
1.5000000000000036
100
AcDbArc
50
0
51
89.999999999994571
0
LINE
5
788
100
AcDbEntity
8
0
100
AcDbLine
10
-99.765885562595372
20
7.6297059845766686
30
2.2204460492503131e-15
11
-104.76588556259537
21
7.6297059845770239
31
0
0
ARC
5
789
100
AcDbEntity
8
0
100
AcDbCircle
10
-104.76588556259554
20
6.129705984577031
30
1.2042408677791397e-45
40
1.4999999999999936
100
AcDbArc
50
89.999999999993491
51
180
0
LINE
5
790
100
AcDbEntity
8
0
100
AcDbLine
10
-106.26588556259554
20
6.1297059845771305
30
-9.4941092830891715e-48
11
-106.26588556259584
21
2.0338690406086823
31
2.2204460492503131e-15
0
ARC
5
791
100
AcDbEntity
8
0
100
AcDbCircle
10
-107.46796709061726
20
0.83178751259583061
30
2.2204460492503131e-15
40
1.7000000000000233
100
AcDbArc
50
-134.99999999993028
51
44.999999999795705
0
LINE
5
792
100
AcDbEntity
8
0
100
AcDbLine
10
-108.67004861863295
20
-0.37029401542277768
30
2.2204460492503131e-15
11
-324.70639951553522
21
-0.37029401540657031
31
0
0
ARC
5
793
100
AcDbEntity
8
0
100
AcDbCircle
10
-325.90848104355081
20
0.83178751261217698
30
0
40
1.6999999999999671
100
AcDbArc
50
134.99999999972144
51
314.99999999992457
0
LINE
5
794
100
AcDbEntity
8
0
100
AcDbLine
10
-327.11056257156207
20
2.0338690406351292
30
-1.3410635388757337e-30
11
-327.11056257156173
21
6.1297059845936701
31
2.2204460492503131e-15
0
ARC
5
795
100
AcDbEntity
8
0
100
AcDbCircle
10
-328.61056257156179
20
6.1297059845938335
30
2.2204460492503131e-15
40
1.5000000000000568
100
AcDbArc
50
0
51
89.999999999995666
0
LINE
5
796
100
AcDbEntity
8
0
100
AcDbLine
10
-328.61056257156167
20
7.6297059845938193
30
2.2204460492503131e-15
11
-333.61056257156167
21
7.6297059845941515
31
0
0
CIRCLE
5
797
100
AcDbEntity
8
0
100
AcDbCircle
10
-107.18822406708007
20
-15.370294015422914
30
0
40
4.5000000000000027
0
CIRCLE
5
798
100
AcDbEntity
8
0
100
AcDbCircle
10
-326.18822406708063
20
-15.370294015406536
30
0
40
3.0000000000000071
0
CIRCLE
5
799
100
AcDbEntity
8
0
100
AcDbCircle
10
-232.6882240670804
20
-15.370294015413588
30
0
40
3.0000000000000138
0
CIRCLE
5
800
100
AcDbEntity
8
0
100
AcDbCircle
10
-200.68822406708034
20
-15.370294015415986
30
2.2204460492503131e-15
40
3.0000000000000138
0
CIRCLE
5
801
100
AcDbEntity
8
0
100
AcDbCircle
10
294.16781216373397
20
-9.5039471091131134
30
0
40
20.499999999999762
0
CIRCLE
5
802
100
AcDbEntity
8
0
100
AcDbCircle
10
317.73781216373413
20
14.066052890886098
30
0
40
2.7499999999999574
0
CIRCLE
5
803
100
AcDbEntity
8
0
100
AcDbCircle
10
270.59781216373455
20
14.066052890886738
30
3.5527136788005009e-14
40
2.7499999999999574
0
CIRCLE
5
804
100
AcDbEntity
8
0
100
AcDbCircle
10
317.73781216373345
20
-33.073947109112822
30
0
40
2.7499999999999574
0
CIRCLE
5
805
100
AcDbEntity
8
0
100
AcDbCircle
10
270.59781216373392
20
-33.073947109112254
30
3.5527136788005009e-14
40
2.7499999999999574
0
LWPOLYLINE
5
806
100
AcDbEntity
8
0
100
AcDbPolyline
90
8
70
1
43
0.0
10
245.66781216373417
20
17.496052890887146
42
-0.4142135623730957
10
253.66781216373408
20
25.496052890886865
10
334.66781216373329
20
25.496052890886105
42
-0.41421356237309581
10
342.66781216373312
20
17.496052890886116
10
342.66781216373232
20
-36.503947109112701
42
-0.41421356237309048
10
334.66781216373244
20
-44.503947109112318
10
253.66781216373326
20
-44.50394710911155
42
-0.4142135623730957
10
245.66781216373343
20
-36.503947109111564
0
LWPOLYLINE
5
807
100
AcDbEntity
8
0
100
AcDbPolyline
90
4
70
1
43
0.0
10
256.41781216373334
20
-31.503947109111824
42
-0.99999999999999989
10
250.91781216373337
20
-31.50394710911176
10
250.91781216373352
20
-20.50394710911208
42
-0.99999999999999989
10
256.41781216373352
20
-20.503947109112044
0
LWPOLYLINE
5
808
100
AcDbEntity
8
0
100
AcDbPolyline
90
4
70
1
43
0.0
10
331.91781216373306
20
1.4960528908858861
10
331.91781216373317
20
12.496052890887109
42
-0.99999999999999989
10
337.41781216373312
20
12.496052890885585
10
337.41781216373289
20
1.4960528908873472
42
-0.99999999999999989
0
LWPOLYLINE
5
809
100
AcDbEntity
8
0
100
AcDbPolyline
90
4
70
1
43
0.0
10
256.41781216373374
20
1.4960528908881487
42
-0.99999999999999989
10
250.91781216373386
20
1.4960528908867898
10
250.91781216373391
20
12.49605289088789
42
-0.99999999999999989
10
256.41781216373397
20
12.496052890886507
0
LWPOLYLINE
5
810
100
AcDbEntity
8
0
100
AcDbPolyline
90
4
70
1
43
0.0
10
331.91781216373272
20
-20.503947109112882
42
-0.99999999999999989
10
337.41781216373272
20
-20.503947109112946
10
337.41781216373255
20
-31.503947109112627
42
-0.99999999999999989
10
331.91781216373261
20
-31.503947109112662
0
ARC
5
811
100
AcDbEntity
8
0
100
AcDbCircle
10
188.95661228541653
20
524.05573628092168
30
-1.9924712539618493e-44
40
1.6999999999999917
100
AcDbArc
50
-44.999999999987125
51
135.00000085378662
0
LINE
5
812
100
AcDbEntity
8
0
100
AcDbLine
10
187.75453073948671
20
525.25781779102613
30
1.3410635188945091e-30
11
184.56285686946995
21
525.25781780893635
31
0
0
ARC
5
813
100
AcDbEntity
8
0
100
AcDbCircle
10
183.36077534145085
20
524.05573628092134
30
-9.9623562698092464e-45
40
1.6999999999999664
100
AcDbArc
50
44.999999999902464
51
224.9999999999072
0
LINE
5
814
100
AcDbEntity
8
0
100
AcDbLine
10
182.15869381343171
20
522.8536547529061
30
-1.3410635388757531e-30
11
182.15869381343515
21
511.66198086497263
31
-1.9721522630525295e-30
0
ARC
5
815
100
AcDbEntity
8
0
100
AcDbCircle
10
183.3607753414525
20
510.45989933695574
30
0
40
1.6999999999999664
100
AcDbArc
50
135.00000000001083
51
353.17302262287103
0
LINE
5
816
100
AcDbEntity
8
0
100
AcDbLine
10
185.04872174345505
20
510.2578178089363
30
0
11
187.26866588341565
21
510.25781780893647
31
-4.4408920985006262e-15
0
ARC
5
817
100
AcDbEntity
8
0
100
AcDbCircle
10
188.95661228541812
20
510.45989933695631
30
-4.440892098500627e-15
40
1.6999999999999735
100
AcDbArc
50
-173.17302262285742
51
45.000000000006089
0
LINE
5
818
100
AcDbEntity
8
0
100
AcDbLine
10
190.15869381343509
20
511.66198086497354
30
-4.4408920985006277e-15
11
190.1586938134339
21
522.85365475290484
31
-1.3410635388779528e-30
0
ARC
5
819
100
AcDbEntity
8
0
100
AcDbCircle
10
183.36077534144866
20
367.05573628091599
30
0
40
1.7000000000000168
100
AcDbArc
50
45.000000000088733
51
224.99999999999798
0
LINE
5
820
100
AcDbEntity
8
0
100
AcDbLine
10
182.15869381343151
20
365.85365475289893
30
2.1202466929819871e-42
11
182.15869381343143
21
354.66198086496746
31
-4.4408920985006262e-15
0
ARC
5
821
100
AcDbEntity
8
0
100
AcDbCircle
10
183.36077534144857
20
353.45989933695034
30
0
40
1.6999999999999664
100
AcDbArc
50
135.00000000000068
51
315.000000000086
0
LINE
5
822
100
AcDbEntity
8
0
100
AcDbLine
10
184.56285686946754
20
352.25781780893499
30
0
11
187.7545307573952
21
352.25781780893504
31
0
0
ARC
5
823
100
AcDbEntity
8
0
100
AcDbCircle
10
188.95661228541417
20
353.45989933695029
30
0
40
1.6999999999999664
100
AcDbArc
50
-135.00000000008873
51
44.99999999999865
0
LINE
5
824
100
AcDbEntity
8
0
100
AcDbLine
10
190.15869381343134
20
354.6619808649674
30
1.3410635388757335e-30
11
190.15869381343146
21
365.85365475289882
31
1.9721522630525295e-30
0
ARC
5
825
100
AcDbEntity
8
0
100
AcDbCircle
10
188.95661228541434
20
367.05573628091594
30
0
40
1.6999999999999413
100
AcDbArc
50
-45
51
134.99999999991059
0
LINE
5
826
100
AcDbEntity
8
0
100
AcDbLine
10
187.7545307573991
20
368.25781780893493
30
0
11
184.56285686946393
21
368.25781780893499
31
-2.4634937555060841e-46
0
ARC
5
827
100
AcDbEntity
8
0
100
AcDbCircle
10
183.36077534144877
20
385.45989933695012
30
-4.4408920985006262e-15
40
1.6999999999999917
100
AcDbArc
50
135.00000000000205
51
315.0000000000955
0
LINE
5
828
100
AcDbEntity
8
0
100
AcDbLine
10
184.56285686946791
20
384.25781780893499
30
-4.4408920985006262e-15
11
187.75453075739537
21
384.25781780893499
31
-4.4408920985006301e-15
0
ARC
5
829
100
AcDbEntity
8
0
100
AcDbCircle
10
188.95661228541451
20
385.45989933695017
30
0
40
1.7000000000000168
100
AcDbArc
50
-135.00000000009413
51
45.000000000001357
0
LINE
5
830
100
AcDbEntity
8
0
100
AcDbLine
10
190.15869381343163
20
386.66198086496735
30
1.3410635388801128e-30
11
190.15869381343168
21
397.85365475289865
31
0
0
ARC
5
831
100
AcDbEntity
8
0
100
AcDbCircle
10
188.95661228541456
20
399.05573628091582
30
0
40
1.7000000000000168
100
AcDbArc
50
-45.000000000001378
51
134.99999999990789
0
LINE
5
832
100
AcDbEntity
8
0
100
AcDbLine
10
187.75453075739938
20
400.25781780893487
30
0
11
184.56285686946399
21
400.25781780893499
31
0
0
ARC
5
833
100
AcDbEntity
8
0
100
AcDbCircle
10
183.36077534144891
20
399.05573628091582
30
0
40
1.6999999999999664
100
AcDbArc
50
45.000000000097543
51
224.99999999999798
0
LINE
5
834
100
AcDbEntity
8
0
100
AcDbLine
10
182.15869381343171
20
397.85365475289871
30
-1.3410635388757335e-30
11
182.15869381343163
21
386.66198086496718
31
-4.4408920985006262e-15
0
ARC
5
835
100
AcDbEntity
8
0
100
AcDbCircle
10
183.36077534144982
20
542.45989933694932
30
0
40
1.6999999999999917
100
AcDbArc
50
134.9999999999973
51
315.00000000010164
0
LINE
5
836
100
AcDbEntity
8
0
100
AcDbLine
10
184.5628568694691
20
541.25781780893431
30
2.3982051727718235e-42
11
187.75453075739634
21
541.25781780893431
31
0
0
ARC
5
837
100
AcDbEntity
8
0
100
AcDbCircle
10
188.95661228541553
20
542.45989933694932
30
0
40
1.6999999999999664
100
AcDbArc
50
-135.00000000009959
51
45
0
LINE
5
838
100
AcDbEntity
8
0
100
AcDbLine
10
190.15869381343271
20
543.66198086496649
30
1.3410635388779619e-30
11
190.15869381343279
21
554.8536547528978
31
0
0
ARC
5
839
100
AcDbEntity
8
0
100
AcDbCircle
10
188.9566122854157
20
556.05573628091497
30
-4.4408920985006262e-15
40
1.6999999999999917
100
AcDbArc
50
-45.000000000002039
51
134.9999999998964
0
LINE
5
840
100
AcDbEntity
8
0
100
AcDbLine
10
187.75453075740072
20
557.25781780893431
30
-4.4408920985006262e-15
11
184.56285686946501
21
557.25781780893431
31
-4.4408920985006222e-15
0
ARC
5
841
100
AcDbEntity
8
0
100
AcDbCircle
10
183.36077534145008
20
556.05573628091497
30
0
40
1.7000000000000168
100
AcDbArc
50
45.00000000010499
51
224.99999999999594
0
LINE
5
842
100
AcDbEntity
8
0
100
AcDbLine
10
182.15869381343285
20
554.85365475289791
30
1.3410635388757339e-30
11
182.15869381343276
21
543.66198086496649
31
9.77517893295946e-45
0
ARC
5
843
100
AcDbEntity
8
0
100
AcDbCircle
10
352.36077534144738
20
367.05573628091497
30
0
40
1.7000000000000419
100
AcDbArc
50
45.000000000065022
51
225
0
LINE
5
844
100
AcDbEntity
8
0
100
AcDbLine
10
351.15869381343026
20
365.85365475289785
30
-1.3410635388727223e-30
11
351.1586938134302
21
354.66198086496649
31
0
0
ARC
5
845
100
AcDbEntity
8
0
100
AcDbCircle
10
352.36077534144732
20
353.45989933694932
30
0
40
1.7000000000000419
100
AcDbArc
50
134.99999999999866
51
315.00000000006366
0
LINE
5
846
100
AcDbEntity
8
0
100
AcDbLine
10
353.5628568694658
20
352.25781780893351
30
-1.3410635388757335e-30
11
356.75453075739455
21
352.25781780893357
31
0
0
ARC
5
847
100
AcDbEntity
8
0
100
AcDbCircle
10
357.95661228541303
20
353.45989933694932
30
-4.4408920985006262e-15
40
1.6999999999999917
100
AcDbArc
50
-135.00000000006503
51
45
0
LINE
5
848
100
AcDbEntity
8
0
100
AcDbLine
10
359.1586938134302
20
354.66198086496649
30
-4.4408920985006246e-15
11
359.1586938134302
21
365.8536547528978
31
0
0
ARC
5
849
100
AcDbEntity
8
0
100
AcDbCircle
10
357.95661228541314
20
367.05573628091497
30
0
40
1.7000000000000419
100
AcDbArc
50
-45.0000000000027
51
134.99999999993634
0
LINE
5
850
100
AcDbEntity
8
0
100
AcDbLine
10
356.75453075739733
20
368.25781780893345
30
0
11
353.56285686946319
21
368.25781780893351
31
1.3410635388757332e-30
0
ARC
5
851
100
AcDbEntity
8
0
100
AcDbCircle
10
352.36077534144749
20
385.45989933694921
30
0
40
1.6999999999999917
100
AcDbArc
50
134.99999999999866
51
315.0000000000677
0
LINE
5
852
100
AcDbEntity
8
0
100
AcDbLine
10
353.56285686946603
20
384.25781780893351
30
2.682127077751467e-30
11
356.75453075739472
21
384.25781780893351
31
-3.944304526105059e-30
0
ARC
5
853
100
AcDbEntity
8
0
100
AcDbCircle
10
357.95661228541326
20
385.45989933694921
30
0
40
1.6999999999999917
100
AcDbArc
50
-135.00000000006773
51
45.000000000001357
0
LINE
5
854
100
AcDbEntity
8
0
100
AcDbLine
10
359.15869381343038
20
386.66198086496638
30
1.3410635388740873e-30
11
359.15869381343043
21
397.85365475289757
31
1.9721522630525295e-30
0
ARC
5
855
100
AcDbEntity
8
0
100
AcDbCircle
10
357.95661228541337
20
399.05573628091474
30
-4.4408920985006262e-15
40
1.6999999999999917
100
AcDbArc
50
-45.0000000000027
51
134.99999999992821
0
LINE
5
856
100
AcDbEntity
8
0
100
AcDbLine
10
356.75453075739773
20
400.2578178089334
30
-4.4408920985006262e-15
11
353.5628568694633
21
400.2578178089334
31
0
0
ARC
5
857
100
AcDbEntity
8
0
100
AcDbCircle
10
352.36077534144761
20
399.05573628091474
30
0
40
1.7000000000000419
100
AcDbArc
50
45.000000000070443
51
224.99999999999727
0
LINE
5
858
100
AcDbEntity
8
0
100
AcDbLine
10
351.15869381343043
20
397.85365475289768
30
-1.3410635388757337e-30
11
351.15869381343038
21
386.66198086496638
31
-2.682127077751467e-30
0
ARC
5
859
100
AcDbEntity
8
0
100
AcDbCircle
10
352.36077534144869
20
542.45989933694841
30
0
40
1.7000000000000419
100
AcDbArc
50
135.00000000000273
51
315.00000000007719
0
LINE
5
860
100
AcDbEntity
8
0
100
AcDbLine
10
353.56285686946751
20
541.25781780893283
30
-1.8234976400906025e-42
11
356.75453075739563
21
541.25781780893283
31
-3.944304526105059e-30
0
ARC
5
861
100
AcDbEntity
8
0
100
AcDbCircle
10
357.95661228541439
20
542.4598993369483
30
0
40
1.6999999999999917
100
AcDbArc
50
-135.00000000007859
51
45.000000000001357
0
LINE
5
862
100
AcDbEntity
8
0
100
AcDbLine
10
359.15869381343151
20
543.66198086496547
30
1.3410635388757339e-30
11
359.15869381343157
21
554.85365475289666
31
1.9721522630525295e-30
0
ARC
5
863
100
AcDbEntity
8
0
100
AcDbCircle
10
357.95661228541451
20
556.05573628091395
30
0
40
1.7000000000000419
100
AcDbArc
50
-45.000000000005393
51
134.99999999991738
0
LINE
5
864
100
AcDbEntity
8
0
100
AcDbLine
10
356.7545307573991
20
557.25781780893283
30
0
11
353.56285686946421
21
557.25781780893271
31
0
0
ARC
5
865
100
AcDbEntity
8
0
100
AcDbCircle
10
352.36077534144874
20
556.05573628091395
30
0
40
1.6999999999999917
100
AcDbArc
50
45.000000000078565
51
225
0
LINE
5
866
100
AcDbEntity
8
0
100
AcDbLine
10
351.15869381343157
20
554.85365475289677
30
-1.3410635388757335e-30
11
351.15869381343151
21
543.66198086496547
31
-2.4634937555060837e-46
0
CIRCLE
5
867
100
AcDbEntity
8
0
100
AcDbCircle
10
245.90869381343282
20
411.80148026588586
30
0
40
2.7499999999999751
0
LWPOLYLINE
5
868
100
AcDbEntity
8
0
100
AcDbPolyline
90
4
70
1
43
0.0
10
269.4086938134314
20
432.98798542865717
10
255.40869381343151
20
432.98798542865723
42
-0.99999999999999989
10
255.4086938134318
20
471.61497510311506
10
269.40869381343168
20
471.614975103115
42
-0.99999999999999989
0
CIRCLE
5
869
100
AcDbEntity
8
0
100
AcDbCircle
10
278.90869381343254
20
411.80148026588677
30
0
40
2.749999999999984
0
CIRCLE
5
870
100
AcDbEntity
8
0
100
AcDbCircle
10
245.90869381343057
20
492.80148026588552
30
0
40
2.749999999999984
0
CIRCLE
5
871
100
AcDbEntity
8
0
100
AcDbCircle
10
278.90869381343026
20
492.80148026588631
30
0
40
2.7499999999999796
0
CIRCLE
5
872
100
AcDbEntity
8
0
100
AcDbCircle
10
186.15869381343202
20
376.25781780893641
30
-4.4408920985006262e-15
40
1.9999999999999787
0
CIRCLE
5
873
100
AcDbEntity
8
0
100
AcDbCircle
10
355.1586938134306
20
533.25781780893442
30
0
40
2.0000000000000142
0
CIRCLE
5
874
100
AcDbEntity
8
0
100
AcDbCircle
10
355.15869381342975
20
376.25781780893482
30
0
40
2.0000000000000142
0
CIRCLE
5
875
100
AcDbEntity
8
0
100
AcDbCircle
10
186.15869381343234
20
533.2578178089359
30
0
40
2.0000000000000142
0
ARC
5
876
100
AcDbEntity
8
0
100
AcDbCircle
10
357.95661228541695
20
510.45989933697678
30
0
40
1.6999999999999917
100
AcDbArc
50
-134.99999999990925
51
45.000000000089415
0
LINE
5
877
100
AcDbEntity
8
0
100
AcDbLine
10
359.15869381343219
20
511.66198086499577
30
0
11
359.15869381343265
21
522.85365475292531
31
1.9721522630525295e-30
0
ARC
5
878
100
AcDbEntity
8
0
100
AcDbCircle
10
357.95661228541542
20
524.05573628094226
30
3.492298516559505e-44
40
1.6999999999999915
100
AcDbArc
50
-44.999999999993236
51
135.00000000000543
0
LINE
5
879
100
AcDbEntity
8
0
100
AcDbLine
10
356.75453075739813
20
525.25781780895932
30
-1.7835934950433491e-42
11
353.56285686946825
21
525.25781780895738
31
3.944304526105059e-30
0
ARC
5
880
100
AcDbEntity
8
0
100
AcDbCircle
10
352.36077534144977
20
524.05573628094157
30
-4.4408920985006262e-15
40
1.6999999999999917
100
AcDbArc
50
44.999999999936328
51
224.99999999993091
0
LINE
5
881
100
AcDbEntity
8
0
100
AcDbLine
10
351.15869381343117
20
522.85365475292588
30
-4.4408920985006277e-15
11
351.15869381343396
21
511.6619808649931
31
0
0
ARC
5
882
100
AcDbEntity
8
0
100
AcDbCircle
10
352.3607753414513
20
510.45989933697615
30
-3.9630472194186233e-44
40
1.7000000000000419
100
AcDbArc
50
135.00000000000949
51
315.00000000000676
0
LINE
5
883
100
AcDbEntity
8
0
100
AcDbLine
10
353.56285686946865
20
509.25781780895909
30
-1.3410635388758134e-30
11
356.75453075740171
21
509.25781780895772
31
0
0
LWPOLYLINE
5
884
100
AcDbEntity
8
0
100
AcDbPolyline
90
4
70
1
43
0.0
10
278.65869381341633
20
584.25781780893612
10
278.65869381341622
20
576.25781780893612
10
262.65869381341639
20
576.25781780893635
10
262.65869381341645
20
584.25781780893635
0
LWPOLYLINE
5
885
100
AcDbEntity
8
0
100
AcDbPolyline
90
4
70
1
43
0.0
10
278.65869381342964
20
333.25781780893772
10
278.65869381342964
20
325.25781780893772
10
262.65869381342975
20
325.25781780893783
10
262.65869381342975
20
333.25781780893777
0
LWPOLYLINE
5
886
100
AcDbEntity
8
0
100
AcDbPolyline
90
16
70
1
43
0.0
10
169.15869381343322
20
586.42939068418809
42
-0.19891236737966123
10
169.74448025106011
20
587.8436042465612
10
173.5729073758063
20
591.67203137130718
42
-0.19891236737965801
10
174.98712093817937
20
592.25781780893408
10
366.33026668868553
20
592.2578178089326
42
-0.19891236737967105
10
367.74448025105869
20
591.67203137130571
10
371.57290737580479
20
587.84360424655938
42
-0.19891236737965154
10
372.15869381343168
20
586.42939068418639
10
372.15869381342975
20
323.08624493367978
42
-0.19891236737967369
10
371.57290737580286
20
321.67203137130662
10
367.7444802510567
20
317.84360424656063
42
-0.19891236737964829
10
366.33026668868365
20
317.25781780893374
10
174.98712093817738
20
317.25781780893521
42
-0.19891236737965201
10
173.57290737580433
20
317.84360424656211
10
169.74448025105818
20
321.67203137130832
42
-0.19891236737965801
10
169.15869381343128
20
323.08624493368143
0
LWPOLYLINE
5
887
100
AcDbEntity
8
0
100
AcDbPolyline
90
16
70
1
43
0.0
10
138.11779857957885
20
321.19383212729269
42
-0.19891236737966203
10
136.70358501720577
20
320.60804568966557
10
-96.484178265766204
20
320.60804568964033
42
-0.19891236737965545
10
-97.898391828139381
20
321.193832127267
10
-101.72681895288598
20
325.02225925201282
42
-0.19891236737965973
10
-102.31260539051304
20
326.43647281438581
10
-102.31260539053729
20
550.97722796119194
42
-0.1989123673796564
10
-101.72681895291052
20
552.39144152356505
10
-97.898391828164804
20
556.2198686483116
42
-0.19891236737966297
10
-96.484178265791741
20
556.80565508593872
10
136.7035850171803
20
556.80565508596396
42
-0.19891236737966353
10
138.11779857955349
20
556.21986864833718
10
141.94622570430019
20
552.39144152359142
42
-0.19891236737964277
10
142.53201214192711
20
550.97722796121843
10
142.53201214195133
20
326.43647281441247
42
-0.19891236737966561
10
141.94622570432458
20
325.02225925203925
0
LWPOLYLINE
5
888
100
AcDbEntity
8
0
100
AcDbPolyline
90
8
70
1
43
0.0
10
12.00973311399782
20
524.51060343275901
42
-0.91649449412546846
10
14.404784767145156
20
526.90565508589918
10
25.814681460722841
20
526.90565508592658
42
-0.91649449412567396
10
28.209733113918865
20
524.51060343273809
10
28.209733113919206
20
521.10070673917505
42
-0.91649449412281803
10
25.81468146073172
20
518.70565508597917
10
14.404784767160203
20
518.70565508597804
42
-0.91649449412268447
10
12.009733113971809
20
521.10070673917289
0
LWPOLYLINE
5
889
100
AcDbEntity
8
0
100
AcDbPolyline
90
8
70
1
43
0.0
10
12.009673637515352
20
356.31299403646017
42
-0.91649449412508033
10
14.404725290661416
20
358.70804568960148
10
25.814621984241683
20
358.70804568962899
42
-0.91649449412514961
10
28.209673637436449
20
356.31299403643931
10
28.209673637436698
20
352.90309734287604
42
-0.91649449412326267
10
25.814621984247907
20
350.50804568968152
10
14.404725290678842
20
350.50804568968027
42
-0.91649449412315032
10
12.009673637489357
20
352.90309734287416
0
LWPOLYLINE
5
890
100
AcDbEntity
8
0
100
AcDbPolyline
90
8
70
1
43
0.0
10
131.71017525479624
20
432.90309770299189
42
-0.9164944941231602
10
129.31512360165681
20
430.50804604984484
10
125.90522690806465
20
430.50804604981818
42
-0.91649449412275819
10
123.51017525487524
20
432.90309770301201
10
123.51017525487399
20
444.31299439657664
42
-0.91649449412511674
10
125.90522690806958
20
446.70804604976547
10
129.31512360162625
20
446.70804604976576
42
-0.91649449412552464
10
131.71017525482134
20
444.31299439657641
0
LWPOLYLINE
5
891
100
AcDbEntity
8
0
100
AcDbPolyline
90
8
70
1
43
0.0
10
-83.290827979997587
20
432.90309770296778
42
-0.91649449412287454
10
-85.685879633137688
20
430.50804604982153
10
-89.095776326729862
20
430.50804604979487
42
-0.91649449412305173
10
-91.490827979918578
20
432.90309770298956
10
-91.490827979919814
20
444.31299439655248
42
-0.91649449412541006
10
-89.095776326724945
20
446.70804604974217
10
-85.68587963316827
20
446.70804604974245
42
-0.91649449412525563
10
-83.290827979972505
20
444.31299439655385
0
CIRCLE
5
892
100
AcDbEntity
8
0
100
AcDbCircle
10
47.109703375697983
20
488.30565508595373
30
-8.8817841970012523e-15
40
2.9999999999999809
0
CIRCLE
5
893
100
AcDbEntity
8
0
100
AcDbCircle
10
-6.8902966243021169
20
488.30565508594788
30
-8.8817841970012523e-15
40
2.9999999999999809
0
CIRCLE
5
894
100
AcDbEntity
8
0
100
AcDbCircle
10
47.109703375692575
20
538.30565508595396
30
0
40
2.9999999999999809
0
CIRCLE
5
895
100
AcDbEntity
8
0
100
AcDbCircle
10
-6.8902966243075348
20
538.30565508594816
30
-8.8817841970012523e-15
40
2.9999999999999809
0
CIRCLE
5
896
100
AcDbEntity
8
0
100
AcDbCircle
10
-204.41008793044273
20
454.95516949439832
30
3.3306690738754696e-15
40
10.000000000000002
0
CIRCLE
5
897
100
AcDbEntity
8
0
100
AcDbCircle
10
-258.41008793044318
20
454.95516949439923
30
-2.2204460492503131e-15
40
10.000000000000002
0
CIRCLE
5
898
100
AcDbEntity
8
0
100
AcDbCircle
10
-215.91005819219225
20
438.25755987903136
30
-2.2204460492503131e-15
40
3.0000000000000009
0
CIRCLE
5
899
100
AcDbEntity
8
0
100
AcDbCircle
10
-215.91005819219177
20
471.25755987903142
30
-1.1102230246251565e-15
40
2.750000000000004
0
CIRCLE
5
900
100
AcDbEntity
8
0
100
AcDbCircle
10
-247.41005819219123
20
508.257169042604
30
-2.2204460492503131e-15
40
3.0000000000000075
0
CIRCLE
5
901
100
AcDbEntity
8
0
100
AcDbCircle
10
-215.41005819219123
20
508.25716904260355
30
-1.1102230246251565e-15
40
3.0000000000000075
0
CIRCLE
5
902
100
AcDbEntity
8
0
100
AcDbCircle
10
-215.41005819219436
20
302.25795071545912
30
0
40
3.0000000000000075
0
CIRCLE
5
903
100
AcDbEntity
8
0
100
AcDbCircle
10
-247.41005819219436
20
302.25795071545957
30
-1.1102230246251565e-15
40
3.0000000000000075
0
CIRCLE
5
904
100
AcDbEntity
8
0
100
AcDbCircle
10
-215.91005819219379
20
339.25755987903131
30
-3.3306690738754696e-15
40
2.750000000000004
0
CIRCLE
5
905
100
AcDbEntity
8
0
100
AcDbCircle
10
-215.9100581921933
20
372.25755987903131
30
-2.2204460492503131e-15
40
3.0000000000000009
0
CIRCLE
5
906
100
AcDbEntity
8
0
100
AcDbCircle
10
-215.91005819219276
20
405.25755987903131
30
-4.4408920985006262e-15
40
2.7499999999999996
0
ARC
5
907
100
AcDbEntity
8
0
100
AcDbCircle
10
-206.20797666057507
20
486.45964117752987
30
-1.1102230246251565e-15
40
1.7000000000000419
100
AcDbArc
50
135.00000017155688
51
315.00000026970531
0
LINE
5
908
100
AcDbEntity
8
0
100
AcDbLine
10
-205.00589512689945
20
485.25755965517124
30
-1.1102230246251565e-15
11
-167.90955819219153
21
485.25755960519132
31
-3.3306690738754696e-15
0
LINE
5
909
100
AcDbEntity
8
0
100
AcDbLine
10
-167.90955819219153
20
485.25755960519132
30
-3.3306690738754696e-15
11
-167.90955819219192
21
460.25755987903068
31
-1.1102230246251565e-15
0
LINE
5
910
100
AcDbEntity
8
0
100
AcDbLine
10
-167.90955819219192
20
460.25755987903068
30
-1.1102230246251565e-15
11
-162.90955819219198
21
455.25755987903062
31
-4.4408920985006262e-15
0
LINE
5
911
100
AcDbEntity
8
0
100
AcDbLine
10
-162.90955819219198
20
455.25755987903062
30
-4.4408920985006262e-15
11
-120.90955657479537
21
455.25755987903005
31
-3.3306690738754696e-15
0
ARC
5
912
100
AcDbEntity
8
0
100
AcDbCircle
10
-120.9095565747954
20
454.25755987903005
30
-2.2204460492503131e-15
40
0.99999999999999645
100
AcDbArc
50
0
51
89.99999999999838
0
LINE
5
913
100
AcDbEntity
8
0
100
AcDbLine
10
-119.9095565747954
20
454.25755987903005
30
-2.2204460492503131e-15
11
-119.90955657479553
21
445.25755872063434
31
-3.3306690738754696e-15
0
ARC
5
914
100
AcDbEntity
8
0
100
AcDbCircle
10
-120.90955657479554
20
445.25755872063434
30
-1.1102230246251565e-15
40
1.0000000000000142
100
AcDbArc
50
-90.00000000000081
51
0
0
LINE
5
915
100
AcDbEntity
8
0
100
AcDbLine
10
-120.90955657479556
20
444.25755872063434
30
-1.1102230246251565e-15
11
-125.50539520864719
21
444.25755872063451
31
-1.1102230246251605e-15
0
ARC
5
916
100
AcDbEntity
8
0
100
AcDbCircle
10
-126.70747673666273
20
443.05547719261568
30
-1.1102230246251565e-15
40
1.7000000000000546
100
AcDbArc
50
45.000000000078231
51
224.99999999998576
0
LINE
5
917
100
AcDbEntity
8
0
100
AcDbLine
10
-127.90955826468021
20
441.85339566459879
30
-1.1102230246251577e-15
11
-127.90955826468134
21
368.66172409346126
31
1.1102230246251881e-15
0
ARC
5
918
100
AcDbEntity
8
0
100
AcDbCircle
10
-126.70747673666386
20
367.45964256544448
30
-1.1102230246251565e-15
40
1.700000000000004
100
AcDbArc
50
135.0000000000166
51
315.00000000001285
0
LINE
5
919
100
AcDbEntity
8
0
100
AcDbLine
10
-125.50539520864643
20
366.25756103742759
30
-1.1102230246251565e-15
11
-120.90955657479674
21
366.2575610374256
31
3.944304526105059e-30
0
ARC
5
920
100
AcDbEntity
8
0
100
AcDbCircle
10
-120.9095565747968
20
365.2575610374256
30
-2.2204460492503135e-15
40
1.000000000000032
100
AcDbArc
50
0
51
89.999999999996746
0
LINE
5
921
100
AcDbEntity
8
0
100
AcDbLine
10
-119.90955657479675
20
365.2575610374256
30
-2.2204460492503115e-15
11
-119.90955657479688
21
356.25755987902994
31
-4.4408920985006262e-15
0
ARC
5
922
100
AcDbEntity
8
0
100
AcDbCircle
10
-120.90955657479689
20
356.25755987902983
30
-1.1102230246251565e-15
40
0.99999999999994316
100
AcDbArc
50
-90.00000000000081
51
0
0
LINE
5
923
100
AcDbEntity
8
0
100
AcDbLine
10
-120.90955657479691
20
355.25755987902988
30
-1.1102230246251565e-15
11
-162.90955819219351
21
355.25755987903051
31
-2.2204460492503131e-15
0
LINE
5
924
100
AcDbEntity
8
0
100
AcDbLine
10
-162.90955819219351
20
355.25755987903051
30
-2.2204460492503131e-15
11
-167.9095581921936
21
350.25755987903062
31
0
0
LINE
5
925
100
AcDbEntity
8
0
100
AcDbLine
10
-167.9095581921936
20
350.25755987903062
30
0
11
-167.90955819219397
21
325.25756015286993
31
-1.1102230246251565e-15
0
LINE
5
926
100
AcDbEntity
8
0
100
AcDbLine
10
-167.90955819219397
20
325.25756015286993
30
-1.1102230246251565e-15
11
-205.00589517209443
21
325.25756014808178
31
-5.8416727753426366e-25
0
ARC
5
927
100
AcDbEntity
8
0
100
AcDbCircle
10
-206.20797666057746
20
324.05547858053058
30
-1.1102230246251565e-15
40
1.7000000000000426
100
AcDbArc
50
45.000001884344982
51
224.99999982844042
0
LINE
5
928
100
AcDbEntity
8
0
100
AcDbLine
10
-207.41005819219399
20
322.85339705611278
30
-1.1102230246251559e-15
11
-207.41005819219455
21
287.257950715459
31
-3.3306690739622285e-15
0
LINE
5
929
100
AcDbEntity
8
0
100
AcDbLine
10
-207.41005819219455
20
287.257950715459
30
-3.3306690739622285e-15
11
-255.41005819219458
21
287.25795071021298
31
-4.4408920985006262e-15
0
LINE
5
930
100
AcDbEntity
8
0
100
AcDbLine
10
-255.41005819219458
20
287.25795071021298
30
-4.4408920985006262e-15
11
-255.41005819219404
21
322.85339704788663
31
-1.1102230242023586e-15
0
ARC
5
931
100
AcDbEntity
8
0
100
AcDbCircle
10
-256.61213971969835
20
324.05547857641659
30
-2.2204460492503131e-15
40
1.7000000000000168
100
AcDbArc
50
-45.000000024443295
51
134.99999878863363
0
LINE
5
932
100
AcDbEntity
8
0
100
AcDbLine
10
-257.81422122230072
20
325.25756012984857
30
-2.2204460492503131e-15
11
-294.910558192194
21
325.25756009810391
31
0
0
LINE
5
933
100
AcDbEntity
8
0
100
AcDbLine
10
-294.910558192194
20
325.25756009810391
30
0
11
-294.91055819219361
21
350.25755987903256
31
-2.2204460492503289e-15
0
LINE
5
934
100
AcDbEntity
8
0
100
AcDbLine
10
-294.91055819219361
20
350.25755987903256
30
-2.2204460492503289e-15
11
-299.91055819219355
21
355.25755987903261
31
-3.3306690738754696e-15
0
LINE
5
935
100
AcDbEntity
8
0
100
AcDbLine
10
-299.91055819219355
20
355.25755987903261
30
-3.3306690738754696e-15
11
-341.91055980959015
21
355.25755987903318
31
-3.3306690738754696e-15
0
ARC
5
936
100
AcDbEntity
8
0
100
AcDbCircle
10
-341.91055980959021
20
356.25755987903312
30
-1.1102230246251565e-15
40
0.99999999999994316
100
AcDbArc
50
180
51
270.00000000000324
0
LINE
5
937
100
AcDbEntity
8
0
100
AcDbLine
10
-342.91055980959015
20
356.25755987903318
30
-1.1102230246251565e-15
11
-342.91055980959004
21
365.25756103742879
31
-3.3306690738754696e-15
0
ARC
5
938
100
AcDbEntity
8
0
100
AcDbCircle
10
-341.91055980959004
20
365.25756103742884
30
-2.2204460492503131e-15
40
0.99999999999994316
100
AcDbArc
50
89.999999999996746
51
180
0
LINE
5
939
100
AcDbEntity
8
0
100
AcDbLine
10
-341.91055980958998
20
366.25756103742879
30
-2.2204460492503123e-15
11
-337.31472117573782
21
366.25756103742873
31
-1.1102230246251526e-15
0
ARC
5
940
100
AcDbEntity
8
0
100
AcDbCircle
10
-336.11263964772218
20
367.45964256544738
30
-1.1102230246251563e-15
40
1.6999999999999915
100
AcDbArc
50
-134.99999999992821
51
44.99999914629398
0
LINE
5
941
100
AcDbEntity
8
0
100
AcDbLine
10
-334.91055810179404
20
368.66172407555354
30
-1.1102230246251573e-15
11
-334.91055811970421
21
441.85339566460141
31
-3.3306690738755012e-15
0
ARC
5
942
100
AcDbEntity
8
0
100
AcDbCircle
10
-336.11263964772104
20
443.05547719261887
30
-1.1102230246251565e-15
40
1.7000000000000419
100
AcDbArc
50
-45.000000000014907
51
134.99999999992957
0
LINE
5
943
100
AcDbEntity
8
0
100
AcDbLine
10
-337.31472117573674
20
444.25755872063752
30
-1.1102230246251565e-15
11
-341.91055980958879
21
444.25755872063758
31
-3.3306690738754736e-15
0
ARC
5
944
100
AcDbEntity
8
0
100
AcDbCircle
10
-341.91055980958879
20
445.25755872063763
30
-4.4408920985006262e-15
40
1.0000000000000142
100
AcDbArc
50
180
51
270
0
LINE
5
945
100
AcDbEntity
8
0
100
AcDbLine
10
-342.91055980958879
20
445.25755872063763
30
-4.4408920985006262e-15
11
-342.91055980958856
21
454.25755987903324
31
-3.3306690738754696e-15
0
ARC
5
946
100
AcDbEntity
8
0
100
AcDbCircle
10
-341.91055980958868
20
454.25755987903329
30
-1.1102230246251565e-15
40
1.0000000000000142
100
AcDbArc
50
90
51
180
0
LINE
5
947
100
AcDbEntity
8
0
100
AcDbLine
10
-341.91055980958868
20
455.25755987903329
30
-1.1102230246251558e-15
11
-299.91055819219201
21
455.25755987903267
31
0
0
LINE
5
948
100
AcDbEntity
8
0
100
AcDbLine
10
-299.91055819219201
20
455.25755987903267
30
0
11
-294.91055819219196
21
460.25755987903261
31
-2.2204460492503131e-15
0
LINE
5
949
100
AcDbEntity
8
0
100
AcDbLine
10
-294.91055819219196
20
460.25755987903261
30
-2.2204460492503131e-15
11
-294.91055819219156
21
485.25755965996126
31
-1.1102230246251723e-15
0
LINE
5
950
100
AcDbEntity
8
0
100
AcDbLine
10
-294.91055819219156
20
485.25755965996126
30
-1.1102230246251723e-15
11
-257.81422124925689
21
485.25755965517197
31
-2.2204460492502815e-15
0
ARC
5
951
100
AcDbEntity
8
0
100
AcDbCircle
10
-256.61213971969585
20
486.45964118164522
30
-2.2204460492503131e-15
40
1.6999999999999917
100
AcDbArc
50
-135.00000007358796
51
45.000000024442613
0
LINE
5
952
100
AcDbEntity
8
0
100
AcDbLine
10
-255.41005819219151
20
487.66172271017518
30
-2.2204460492503123e-15
11
-255.41005819219097
21
523.25716904785077
31
-4.4408920985006104e-15
0
LINE
5
953
100
AcDbEntity
8
0
100
AcDbLine
10
-255.41005819219097
20
523.25716904785077
30
-4.4408920985006104e-15
11
-207.41005819219097
21
523.25716904260344
31
-3.3306690738754696e-15
0
LINE
5
954
100
AcDbEntity
8
0
100
AcDbLine
10
-207.41005819219097
20
523.25716904260344
30
-3.3306690738754696e-15
11
-207.41005819219154
21
487.66172270194772
31
-1.1102230246251565e-15
0
ENDSEC
0
SECTION
2
OBJECTS
0
DICTIONARY
5
C
100
AcDbDictionary
3
ACAD_GROUP
350
D
3
ACAD_MLINESTYLE
350
17
0
DICTIONARY
5
D
100
AcDbDictionary
0
DICTIONARY
5
1A
330
C
100
AcDbDictionary
0
DICTIONARY
5
17
100
AcDbDictionary
0
ENDSEC
0
EOF
