<?xml version="1.0" standalone="no"?><!DOCTYPE svg PUBLIC "-//W3C//DTD SVG 1.1//EN" "http://www.w3.org/Graphics/SVG/1.1/DTD/svg11.dtd"><svg xmlns="http://www.w3.org/2000/svg" viewBox="0 0 650 400" version="1.1"><clipPath id="box"><rect x="0" y="0" width="650" height="400" style="fill:none;stroke:none;" /></clipPath><g clip-path="url(#box)"><rect x="0.00" y="0.00" width="650.00" height="400.00" style="fill:#FFFFFF;stroke:none;" /><path d="M130.00 285.71 L130.00 285.71 L130.00 285.71 L130.00 285.69 L130.00 285.66 L130.00 285.62 L130.00 285.57 L130.00 285.51 L130.01 285.43 L130.01 285.35 L130.02 285.25 L130.02 285.14 L130.03 285.02 L130.04 284.89 L130.05 284.75 L130.06 284.60 L130.07 284.43 L130.09 284.25 L130.11 284.07 L130.13 283.87 L130.15 283.66 L130.17 283.44 L130.20 283.20 L130.23 282.96 L130.26 282.70 L130.30 282.44 L130.34 282.16 L130.38 281.87 L130.42 281.57 L130.47 281.26 L130.53 280.94 L130.58 280.61 L130.64 280.27 L130.71 279.91 L130.77 279.55 L130.85 279.17 L130.92 278.79 L131.00 278.39 L131.09 277.98 L131.18 277.56 L131.28 277.13 L131.38 276.69 L131.48 276.24 L131.59 275.78 L131.71 275.31 L131.83 274.83 L131.95 274.34 L132.09 273.83 L132.22 273.32 L132.37 272.80 L132.52 272.27 L132.67 271.72 L132.84 271.17 L133.01 270.61 L133.18 270.04 L133.36 269.45 L133.55 268.86 L133.75 268.26 L133.95 267.65 L134.16 267.02 L134.37 266.39 L134.60 265.75 L134.83 265.10 L135.07 264.44 L135.31 263.77 L135.56 263.10 L135.83 262.41 L136.09 261.71 L136.37 261.01 L136.66 260.29 L136.95 259.57 L137.25 258.84 L137.56 258.10 L137.88 257.35 L138.21 256.59 L138.54 255.82 L138.89 255.05 L139.24 254.27 L139.60 253.48 L139.97 252.68 L140.35 251.87 L140.74 251.05 L141.14 250.23 L141.55 249.40 L141.97 248.56 L142.40 247.71 L142.83 246.86 L143.28 245.99 L143.74 245.12 L144.20 244.25 L144.68 243.36 L145.17 242.47 L145.66 241.57 L146.17 240.67 L146.69 239.75 L147.22 238.83 L147.76 237.91 L148.31 236.97 L148.86 236.03 L149.44 235.09 L150.02 234.14 L150.61 233.18 L151.21 232.21 L151.83 231.24 L152.45 230.27 L153.09 229.28 L153.73 228.29 L154.39 227.30 L155.06 226.30 L155.75 225.29 L156.44 224.28 L157.14 223.27 L157.86 222.25 L158.59 221.22 L159.33 220.19 L160.08 219.15 L160.84 218.11 L161.62 217.07 L162.40 216.02 L163.20 214.96 L164.01 213.90 L164.83 212.84 L165.67 211.77 L166.52 210.70 L167.38 209.63 L168.25 208.55 L169.13 207.47 L170.03 206.38 L170.94 205.29 L171.86 204.20 L172.79 203.10 L173.74 202.00 L174.70 200.90 L175.67 199.79 L176.65 198.68 L177.65 197.57 L178.66 196.46 L179.68 195.34 L180.71 194.22 L181.76 193.10 L182.82 191.98 L183.89 190.85 L184.98 189.73 L186.08 188.60 L187.19 187.47 L188.31 186.33 L189.45 185.20 L190.60 184.07 L191.76 182.93 L192.94 181.79 L194.12 180.65 L195.33 179.51 L196.54 178.37 L197.77 177.23 L199.01 176.09 L200.26 174.95 L201.53 173.81 L202.81 172.66 L204.10 171.52 L205.41 170.38 L206.72 169.23 L208.06 168.09 L209.40 166.95 L210.76 165.81 L212.13 164.67 L213.51 163.53 L214.91 162.39 L216.32 161.25 L217.74 160.11 L219.17 158.97 L220.62 157.84 L222.08 156.70 L223.56 155.57 L225.04 154.44 L226.54 153.31 L228.06 152.18 L229.58 151.06 L231.12 149.93 L232.67 148.81 L234.23 147.69 L235.81 146.58 L237.40 145.46 L239.00 144.35 L240.62 143.24 L242.24 142.14 L243.88 141.03 L245.53 139.93 L247.20 138.84 L248.88 137.74 L250.57 136.65 L252.27 135.56 L253.98 134.48 L255.71 133.40 L257.45 132.33 L259.20 131.25 L260.96 130.19 L262.74 129.12 L264.52 128.06 L266.32 127.01 L268.13 125.96 L269.96 124.91 L271.79 123.87 L273.64 122.83 L275.50 121.80 L277.37 120.77 L279.25 119.75 L281.14 118.73 L283.05 117.72 L284.96 116.72 L286.89 115.72 L288.83 114.72 L290.78 113.73 L292.74 112.75 L294.72 111.77 L296.70 110.80 L298.70 109.83 L300.70 108.87 L302.72 107.92 L304.75 106.97 L306.79 106.03 L308.84 105.10 L310.90 104.17 L312.97 103.25 L315.05 102.34 L317.14 101.43 L319.24 100.53 L321.35 99.64 L323.47 98.75 L325.60 97.87 L327.75 97.00 L329.90 96.14 L332.06 95.28 L334.23 94.43 L336.41 93.59 L338.60 92.76 L340.80 91.94 L343.01 91.12 L345.23 90.31 L347.45 89.51 L349.69 88.72 L351.94 87.93 L354.19 87.16 L356.45 86.39 L358.72 85.63 L361.00 84.88 L363.29 84.14 L365.59 83.40 L367.90 82.68 L370.21 81.96 L372.53 81.26 L374.86 80.56 L377.20 79.87 L379.54 79.19 L381.90 78.52 L384.26 77.86 L386.63 77.21 L389.00 76.57 L391.38 75.93 L393.77 75.31 L396.17 74.70 L398.57 74.09 L400.98 73.50 L403.40 72.91 L405.83 72.34 L408.26 71.78 L410.69 71.22 L413.14 70.68 L415.59 70.14 L418.04 69.62 L420.50 69.10 L422.97 68.60 L425.44 68.11 L427.92 67.62 L430.40 67.15 L432.89 66.69 L435.38 66.24 L437.88 65.79 L440.39 65.36 L442.90 64.94 L445.41 64.53 L447.93 64.13 L450.45 63.75 L452.98 63.37 L455.51 63.00 L458.05 62.65 L460.58 62.30 L463.13 61.97 L465.67 61.64 L468.23 61.33 L470.78 61.03 L473.34 60.74 L475.90 60.46 L478.46 60.19 L481.03 59.94 L483.60 59.69 L486.17 59.46 L488.75 59.23 L491.32 59.02 L493.90 58.82 L496.48 58.63 L499.07 58.45 L501.65 58.29 L504.24 58.13 L506.83 57.99 L509.42 57.85 L512.02 57.73 L514.61 57.62 L517.20 57.52 L519.80 57.44 L522.40 57.36 L525.00 57.29 L527.59 57.24 L530.19 57.20 L532.79 57.17 L535.39 57.15 L537.99 57.14 " style="fill:none;stroke:#ff0000;stroke-width:1;" /></g></svg>