<?xml version="1.0" encoding="UTF-8" standalone="no"?>
<!-- Created with Inkscape (http://www.inkscape.org/) -->

<svg
   xmlns:dc="http://purl.org/dc/elements/1.1/"
   xmlns:cc="http://creativecommons.org/ns#"
   xmlns:rdf="http://www.w3.org/1999/02/22-rdf-syntax-ns#"
   xmlns:svg="http://www.w3.org/2000/svg"
   xmlns="http://www.w3.org/2000/svg"
   xmlns:sodipodi="http://sodipodi.sourceforge.net/DTD/sodipodi-0.dtd"
   xmlns:inkscape="http://www.inkscape.org/namespaces/inkscape"
   width="108.07975mm"
   height="60.607777mm"
   viewBox="0 0 108.07975 60.607777"
   version="1.1"
   id="svg8"
   sodipodi:docname="cycloid_radius_1_inkscape.svg"
   inkscape:version="0.92.1 r15371">
  <defs
     id="defs2" />
  <sodipodi:namedview
     id="base"
     pagecolor="#ffffff"
     bordercolor="#666666"
     borderopacity="1.0"
     inkscape:pageopacity="0.0"
     inkscape:pageshadow="2"
     inkscape:zoom="1.979899"
     inkscape:cx="75.473484"
     inkscape:cy="184.44165"
     inkscape:document-units="mm"
     inkscape:current-layer="layer2"
     showgrid="false"
     inkscape:window-width="2560"
     inkscape:window-height="1377"
     inkscape:window-x="1272"
     inkscape:window-y="-8"
     inkscape:window-maximized="1"
     fit-margin-top="0"
     fit-margin-left="0"
     fit-margin-right="0"
     fit-margin-bottom="0" />
  <metadata
     id="metadata5">
    <rdf:RDF>
      <cc:Work
         rdf:about="">
        <dc:format>image/svg+xml</dc:format>
        <dc:type
           rdf:resource="http://purl.org/dc/dcmitype/StillImage" />
        <dc:title></dc:title>
      </cc:Work>
    </rdf:RDF>
  </metadata>
  <g
     inkscape:groupmode="layer"
     id="layer2"
     inkscape:label="Layer 2"
     style="display:inline">
    <path
       style="opacity:1;vector-effect:none;fill:#808080;fill-opacity:1;stroke:#ff0000;stroke-width:1.75748026;stroke-linecap:butt;stroke-linejoin:miter;stroke-miterlimit:4;stroke-dasharray:none;stroke-dashoffset:0;stroke-opacity:1"
       d="M 0.51953125 0.5 L 0.51953125 228.5 L 0.52929688 228.37891 L 0.5390625 228.25 L 0.54882812 228.10938 L 0.55859375 227.95898 L 0.56835938 227.78906 L 0.58789062 227.60938 L 0.609375 227.42969 L 0.62890625 227.23047 L 0.6484375 227.01953 L 0.66992188 226.79883 L 0.69921875 226.55859 L 0.72851562 226.32031 L 0.7578125 226.05859 L 0.79882812 225.79883 L 0.83789062 225.51953 L 0.87890625 225.23047 L 0.91796875 224.92969 L 0.96875 224.61914 L 1.0292969 224.29883 L 1.078125 223.96875 L 1.1386719 223.62891 L 1.2089844 223.26953 L 1.2675781 222.91016 L 1.3476562 222.5293 L 1.4179688 222.15039 L 1.4980469 221.75 L 1.5878906 221.33984 L 1.6777344 220.91992 L 1.7792969 220.49023 L 1.8789062 220.04883 L 1.9785156 219.59961 L 2.0878906 219.13867 L 2.2089844 218.66992 L 2.328125 218.18945 L 2.4492188 217.69922 L 2.5878906 217.18945 L 2.71875 216.67969 L 2.8691406 216.16016 L 3.0195312 215.62891 L 3.1679688 215.08008 L 3.3378906 214.5293 L 3.5078125 213.96875 L 3.6777344 213.40039 L 3.859375 212.81055 L 4.0488281 212.21875 L 4.2480469 211.61914 L 4.4492188 211.00977 L 4.6582031 210.37891 L 4.8691406 209.75 L 5.0976562 209.10938 L 5.328125 208.45898 L 5.5683594 207.79883 L 5.8085938 207.12891 L 6.0585938 206.45898 L 6.328125 205.76953 L 6.5878906 205.07031 L 6.8691406 204.36914 L 7.1582031 203.65039 L 7.4492188 202.92969 L 7.7480469 202.19922 L 8.0585938 201.45898 L 8.3789062 200.70898 L 8.7089844 199.94922 L 9.0390625 199.17969 L 9.3886719 198.41016 L 9.7382812 197.62891 L 10.097656 196.83984 L 10.46875 196.03906 L 10.847656 195.23047 L 11.238281 194.41016 L 11.638672 193.58984 L 12.048828 192.75977 L 12.46875 191.91992 L 12.898438 191.07031 L 13.328125 190.21875 L 13.779297 189.34961 L 14.238281 188.48047 L 14.699219 187.60938 L 15.177734 186.71875 L 15.667969 185.83008 L 16.158203 184.92969 L 16.667969 184.0293 L 17.189453 183.10938 L 17.71875 182.18945 L 18.257812 181.26953 L 18.808594 180.33008 L 19.359375 179.38867 L 19.939453 178.44922 L 20.517578 177.5 L 21.109375 176.53906 L 21.708984 175.57031 L 22.328125 174.59961 L 22.949219 173.62891 L 23.587891 172.63867 L 24.228516 171.65039 L 24.888672 170.66016 L 25.558594 169.66016 L 26.248047 168.65039 L 26.939453 167.64062 L 27.638672 166.62891 L 28.359375 165.60938 L 29.087891 164.58008 L 29.828125 163.54883 L 30.578125 162.50977 L 31.337891 161.46875 L 32.119141 160.42969 L 32.898438 159.37891 L 33.699219 158.32031 L 34.507812 157.25977 L 35.328125 156.19922 L 36.167969 155.12891 L 37.017578 154.06055 L 37.878906 152.99023 L 38.748047 151.91016 L 39.628906 150.83008 L 40.529297 149.74023 L 41.439453 148.65039 L 42.359375 147.56055 L 43.289062 146.45898 L 44.238281 145.35938 L 45.199219 144.25977 L 46.167969 143.15039 L 47.148438 142.03906 L 48.148438 140.92969 L 49.158203 139.82031 L 50.177734 138.69922 L 51.208984 137.58008 L 52.257812 136.45898 L 53.318359 135.33984 L 54.388672 134.20898 L 55.478516 133.08984 L 56.578125 131.95898 L 57.689453 130.83008 L 58.808594 129.68945 L 59.949219 128.56055 L 61.097656 127.42969 L 62.257812 126.28906 L 63.439453 125.15039 L 64.619141 124.00977 L 65.828125 122.86914 L 67.039062 121.73047 L 68.267578 120.58984 L 69.507812 119.44922 L 70.757812 118.31055 L 72.029297 117.16992 L 73.308594 116.01953 L 74.597656 114.87891 L 75.908203 113.74023 L 77.21875 112.58984 L 78.558594 111.44922 L 79.898438 110.31055 L 81.257812 109.16992 L 82.628906 108.0293 L 84.007812 106.88867 L 85.408203 105.75 L 86.818359 104.60938 L 88.238281 103.46875 L 89.667969 102.33008 L 91.119141 101.19922 L 92.578125 100.06055 L 94.058594 98.929688 L 95.539062 97.798828 L 97.039062 96.669922 L 98.558594 95.539062 L 100.07812 94.419922 L 101.61914 93.289062 L 103.16797 92.169922 L 104.72852 91.048828 L 106.30859 89.939453 L 107.89844 88.820312 L 109.49805 87.708984 L 111.11914 86.599609 L 112.73828 85.5 L 114.37891 84.388672 L 116.0293 83.289062 L 117.69922 82.199219 L 119.37891 81.099609 L 121.06836 80.009766 L 122.76758 78.919922 L 124.47852 77.839844 L 126.20898 76.759766 L 127.94922 75.689453 L 129.69922 74.609375 L 131.45898 73.548828 L 133.23828 72.480469 L 135.01758 71.419922 L 136.81836 70.369141 L 138.62891 69.320312 L 140.45898 68.269531 L 142.28906 67.230469 L 144.13867 66.189453 L 145.99805 65.160156 L 147.86914 64.128906 L 149.74805 63.109375 L 151.63867 62.089844 L 153.54883 61.080078 L 155.45898 60.080078 L 157.38867 59.080078 L 159.32812 58.080078 L 161.2793 57.089844 L 163.23828 56.109375 L 165.21875 55.128906 L 167.19922 54.160156 L 169.19922 53.189453 L 171.19922 52.230469 L 173.21875 51.279297 L 175.24805 50.330078 L 177.28906 49.388672 L 179.33789 48.458984 L 181.39844 47.529297 L 183.46875 46.609375 L 185.54883 45.699219 L 187.63867 44.789062 L 189.73828 43.888672 L 191.84766 43 L 193.96875 42.109375 L 196.09766 41.230469 L 198.24805 40.359375 L 200.39844 39.5 L 202.55859 38.638672 L 204.72852 37.789062 L 206.9082 36.949219 L 209.09766 36.119141 L 211.29883 35.298828 L 213.50781 34.480469 L 215.72852 33.669922 L 217.94922 32.869141 L 220.18945 32.080078 L 222.43945 31.289062 L 224.68945 30.519531 L 226.94922 29.75 L 229.21875 28.990234 L 231.49805 28.240234 L 233.78906 27.5 L 236.08789 26.759766 L 238.39844 26.039062 L 240.70898 25.320312 L 243.0293 24.619141 L 245.35938 23.919922 L 247.69922 23.230469 L 250.03906 22.548828 L 252.39844 21.878906 L 254.75781 21.21875 L 257.12891 20.570312 L 259.49805 19.929688 L 261.87891 19.289062 L 264.26758 18.669922 L 266.66797 18.060547 L 269.06836 17.449219 L 271.47852 16.859375 L 273.89844 16.269531 L 276.32812 15.699219 L 278.75781 15.138672 L 281.18945 14.580078 L 283.63867 14.039062 L 286.08789 13.5 L 288.53906 12.980469 L 290.99805 12.458984 L 293.46875 11.958984 L 295.9375 11.46875 L 298.41797 10.980469 L 300.89844 10.509766 L 303.38867 10.048828 L 305.87891 9.5996094 L 308.37891 9.1503906 L 310.88867 8.71875 L 313.39844 8.2988281 L 315.9082 7.8886719 L 318.42773 7.4902344 L 320.94922 7.109375 L 323.47852 6.7304688 L 326.00781 6.359375 L 328.54883 6.0097656 L 331.07812 5.6601562 L 333.62891 5.3300781 L 336.16797 5 L 338.72852 4.6894531 L 341.2793 4.390625 L 343.83789 4.0996094 L 346.39844 3.8203125 L 348.95898 3.5488281 L 351.5293 3.2988281 L 354.09766 3.0488281 L 356.66797 2.8203125 L 359.24805 2.5898438 L 361.81836 2.3789062 L 364.39844 2.1796875 L 366.97852 1.9902344 L 369.56836 1.8105469 L 372.14844 1.6503906 L 374.73828 1.4902344 L 377.32812 1.3496094 L 379.91797 1.2089844 L 382.51758 1.0898438 L 385.10938 0.98046875 L 387.69922 0.87890625 L 390.29883 0.79882812 L 392.89844 0.71875 L 395.49805 0.65039062 L 398.08789 0.59960938 L 400.68945 0.56054688 L 403.28906 0.52929688 L 405.88867 0.50976562 L 408.48828 0.5 L 0.51953125 0.5 z "
       transform="scale(0.26458333)"
       id="rect4525" />
  </g>
</svg>
