<?xml version="1.0" standalone="no"?><!DOCTYPE svg PUBLIC "-//W3C//DTD SVG 1.1//EN" "http://www.w3.org/Graphics/SVG/1.1/DTD/svg11.dtd"><svg xmlns="http://www.w3.org/2000/svg" viewBox="0 0 650 400" version="1.1"><clipPath id="box"><rect x="0" y="0" width="650" height="400" style="fill:none;stroke:none;" /></clipPath><g clip-path="url(#box)"><rect x="0.00" y="0.00" width="650.00" height="400.00" style="fill:#FFFFFF;stroke:none;" /><path d="M0.00 400.00 L0.00 399.99 L0.00 399.96 L0.00 399.91 L0.00 399.84 L0.00 399.75 L0.01 399.64 L0.01 399.51 L0.02 399.36 L0.03 399.19 L0.03 399.00 L0.05 398.79 L0.06 398.56 L0.08 398.31 L0.09 398.04 L0.12 397.75 L0.14 397.45 L0.17 397.12 L0.20 396.77 L0.24 396.40 L0.28 396.01 L0.32 395.61 L0.37 395.18 L0.42 394.73 L0.48 394.27 L0.54 393.78 L0.60 393.28 L0.68 392.75 L0.75 392.21 L0.84 391.65 L0.93 391.07 L1.02 390.47 L1.12 389.85 L1.23 389.21 L1.35 388.55 L1.47 387.87 L1.60 387.18 L1.73 386.47 L1.88 385.73 L2.03 384.98 L2.19 384.21 L2.36 383.42 L2.53 382.62 L2.72 381.79 L2.91 380.95 L3.11 380.09 L3.32 379.21 L3.54 378.31 L3.77 377.40 L4.01 376.47 L4.26 375.52 L4.52 374.55 L4.78 373.56 L5.06 372.56 L5.35 371.54 L5.65 370.50 L5.96 369.45 L6.28 368.38 L6.62 367.29 L6.96 366.19 L7.32 365.07 L7.68 363.93 L8.06 362.78 L8.45 361.61 L8.86 360.42 L9.27 359.22 L9.70 358.00 L10.14 356.76 L10.59 355.51 L11.06 354.25 L11.54 352.97 L12.03 351.67 L12.54 350.36 L13.06 349.03 L13.60 347.69 L14.14 346.34 L14.71 344.97 L15.28 343.58 L15.87 342.18 L16.48 340.77 L17.10 339.34 L17.73 337.90 L18.38 336.44 L19.05 334.98 L19.73 333.49 L20.43 332.00 L21.14 330.49 L21.86 328.97 L22.61 327.43 L23.37 325.88 L24.14 324.32 L24.93 322.75 L25.74 321.16 L26.56 319.57 L27.40 317.96 L28.26 316.34 L29.13 314.70 L30.02 313.06 L30.93 311.40 L31.86 309.74 L32.80 308.06 L33.76 306.37 L34.74 304.67 L35.73 302.96 L36.74 301.24 L37.78 299.51 L38.82 297.77 L39.89 296.02 L40.98 294.27 L42.08 292.50 L43.20 290.72 L44.34 288.93 L45.50 287.14 L46.67 285.33 L47.87 283.52 L49.08 281.70 L50.32 279.87 L51.57 278.03 L52.84 276.18 L54.13 274.33 L55.44 272.47 L56.77 270.60 L58.12 268.73 L59.49 266.85 L60.87 264.96 L62.28 263.06 L63.71 261.16 L65.15 259.26 L66.62 257.34 L68.10 255.42 L69.61 253.50 L71.14 251.57 L72.68 249.64 L74.25 247.70 L75.83 245.75 L77.44 243.80 L79.06 241.85 L80.71 239.89 L82.38 237.93 L84.06 235.96 L85.77 233.99 L87.50 232.02 L89.25 230.05 L91.01 228.07 L92.80 226.08 L94.61 224.10 L96.44 222.11 L98.29 220.13 L100.16 218.13 L102.06 216.14 L103.97 214.15 L105.90 212.15 L107.86 210.15 L109.83 208.16 L111.82 206.16 L113.84 204.16 L115.88 202.16 L117.93 200.16 L120.01 198.16 L122.11 196.16 L124.23 194.16 L126.37 192.16 L128.53 190.16 L130.71 188.17 L132.91 186.17 L135.13 184.18 L137.38 182.18 L139.64 180.19 L141.93 178.20 L144.23 176.22 L146.56 174.23 L148.90 172.25 L151.27 170.27 L153.65 168.29 L156.06 166.32 L158.49 164.35 L160.94 162.38 L163.41 160.42 L165.89 158.46 L168.40 156.51 L170.93 154.56 L173.48 152.61 L176.05 150.67 L178.64 148.74 L181.25 146.81 L183.88 144.88 L186.53 142.96 L189.20 141.05 L191.89 139.14 L194.59 137.24 L197.32 135.34 L200.07 133.45 L202.84 131.57 L205.62 129.69 L208.43 127.83 L211.25 125.96 L214.10 124.11 L216.96 122.26 L219.85 120.42 L222.75 118.59 L225.67 116.77 L228.61 114.96 L231.57 113.15 L234.54 111.35 L237.54 109.56 L240.55 107.79 L243.58 106.02 L246.63 104.25 L249.70 102.50 L252.79 100.76 L255.89 99.03 L259.02 97.31 L262.16 95.60 L265.31 93.90 L268.49 92.21 L271.68 90.53 L274.89 88.86 L278.12 87.20 L281.36 85.56 L284.63 83.92 L287.90 82.30 L291.20 80.69 L294.51 79.09 L297.84 77.50 L301.18 75.93 L304.54 74.37 L307.92 72.82 L311.31 71.28 L314.72 69.75 L318.15 68.24 L321.59 66.74 L325.04 65.26 L328.51 63.79 L332.00 62.33 L335.50 60.89 L339.01 59.46 L342.54 58.04 L346.09 56.64 L349.65 55.25 L353.22 53.88 L356.81 52.52 L360.41 51.18 L364.03 49.85 L367.66 48.54 L371.30 47.24 L374.95 45.95 L378.62 44.69 L382.31 43.43 L386.00 42.20 L389.71 40.98 L393.43 39.77 L397.16 38.58 L400.91 37.41 L404.66 36.25 L408.43 35.11 L412.21 33.99 L416.01 32.88 L419.81 31.79 L423.62 30.72 L427.45 29.66 L431.29 28.62 L435.13 27.60 L438.99 26.59 L442.86 25.61 L446.74 24.64 L450.62 23.68 L454.52 22.75 L458.43 21.83 L462.35 20.93 L466.27 20.05 L470.21 19.19 L474.15 18.34 L478.10 17.51 L482.07 16.70 L486.04 15.91 L490.01 15.14 L494.00 14.39 L497.99 13.65 L501.99 12.93 L506.00 12.23 L510.01 11.56 L514.04 10.89 L518.07 10.25 L522.10 9.63 L526.14 9.03 L530.19 8.44 L534.24 7.88 L538.30 7.33 L542.37 6.80 L546.44 6.30 L550.51 5.81 L554.59 5.34 L558.68 4.89 L562.77 4.46 L566.86 4.05 L570.96 3.66 L575.06 3.29 L579.17 2.94 L583.28 2.61 L587.39 2.29 L591.51 2.00 L595.63 1.73 L599.75 1.48 L603.87 1.24 L608.00 1.03 L612.13 0.84 L616.26 0.67 L620.39 0.51 L624.52 0.38 L628.66 0.27 L632.79 0.17 L636.93 0.10 L641.07 0.05 L645.20 0.01 L649.34 0.00 " style="fill:none;stroke:#ff0000;stroke-width:1;" /></g></svg>