<?xml version="1.0" standalone="no"?><!DOCTYPE svg PUBLIC "-//W3C//DTD SVG 1.1//EN" "http://www.w3.org/Graphics/SVG/1.1/DTD/svg11.dtd"><svg xmlns="http://www.w3.org/2000/svg" viewBox="0 0 300 300" version="1.1"><clipPath id="box"><rect x="0" y="0" width="300" height="300" style="fill:none;stroke:none;" /></clipPath><g clip-path="url(#box)"><rect x="0.00" y="0.00" width="300.00" height="300.00" style="fill:#FFFFFF;stroke:none;" /><path d="M214.29 159.87 L214.29 159.87 L214.28 159.02 L214.27 158.16 L214.25 157.30 L214.22 156.45 L214.18 155.59 L214.13 154.73 L214.08 153.88 L214.01 153.02 L213.94 152.17 L213.86 151.32 L213.77 150.46 L213.67 149.61 L213.56 148.76 L213.45 147.91 L213.32 147.07 L213.19 146.22 L213.05 145.37 L212.90 144.53 L212.74 143.69 L212.58 142.85 L212.40 142.01 L212.22 141.17 L212.03 140.33 L211.83 139.50 L211.62 138.67 L211.40 137.84 L211.18 137.01 L210.95 136.19 L210.71 135.36 L210.46 134.54 L210.20 133.73 L209.93 132.91 L209.66 132.10 L209.38 131.29 L209.09 130.48 L208.79 129.68 L208.49 128.88 L208.17 128.08 L207.85 127.29 L207.52 126.50 L207.18 125.71 L206.84 124.92 L206.48 124.14 L206.12 123.37 L205.75 122.59 L205.38 121.82 L204.99 121.06 L204.60 120.29 L204.20 119.53 L203.79 118.78 L203.38 118.03 L202.96 117.28 L202.53 116.54 L202.09 115.81 L201.64 115.07 L201.19 114.34 L200.73 113.62 L200.27 112.90 L199.79 112.19 L199.31 111.48 L198.83 110.77 L198.33 110.07 L197.83 109.38 L197.32 108.69 L196.81 108.00 L196.29 107.32 L195.76 106.65 L195.22 105.98 L194.68 105.31 L194.13 104.66 L193.57 104.00 L193.01 103.36 L192.44 102.71 L191.87 102.08 L191.29 101.45 L190.70 100.82 L190.11 100.21 L189.51 99.59 L188.90 98.99 L188.29 98.39 L187.67 97.79 L187.05 97.20 L186.42 96.62 L185.78 96.05 L185.14 95.48 L184.49 94.92 L183.84 94.36 L183.18 93.81 L182.52 93.27 L181.85 92.73 L181.18 92.20 L180.50 91.68 L179.81 91.16 L179.12 90.66 L178.43 90.15 L177.73 89.66 L177.03 89.17 L176.32 88.69 L175.60 88.21 L174.88 87.75 L174.16 87.29 L173.43 86.84 L172.70 86.39 L171.96 85.95 L171.22 85.52 L170.47 85.10 L169.72 84.69 L168.97 84.28 L168.21 83.88 L167.45 83.49 L166.69 83.10 L165.92 82.72 L165.14 82.35 L164.37 81.99 L163.58 81.64 L162.80 81.29 L162.01 80.95 L161.22 80.62 L160.43 80.30 L159.63 79.99 L158.83 79.68 L158.03 79.38 L157.22 79.09 L156.41 78.81 L155.60 78.53 L154.78 78.27 L153.97 78.01 L153.15 77.76 L152.32 77.52 L151.50 77.28 L150.67 77.06 L149.84 76.84 L149.01 76.63 L148.18 76.43 L147.34 76.24 L146.51 76.06 L145.67 75.88 L144.83 75.72 L143.98 75.56 L143.14 75.41 L142.29 75.27 L141.45 75.13 L140.60 75.01 L139.75 74.89 L138.90 74.78 L138.05 74.69 L137.20 74.60 L136.34 74.51 L135.49 74.44 L134.63 74.37 L133.78 74.32 L132.92 74.27 L132.07 74.23 L131.21 74.20 L130.35 74.18 L129.50 74.16 L128.64 74.16 L127.78 74.16 L126.93 74.18 L126.07 74.20 L125.21 74.23 L124.36 74.26 L123.50 74.31 L122.64 74.37 L121.79 74.43 L120.94 74.50 L120.08 74.58 L119.23 74.67 L118.38 74.77 L117.53 74.87 L116.68 74.99 L115.83 75.11 L114.98 75.24 L114.14 75.38 L113.29 75.53 L112.45 75.69 L111.61 75.86 L110.77 76.03 L109.93 76.21 L109.10 76.40 L108.26 76.60 L107.43 76.81 L106.60 77.02 L105.77 77.25 L104.95 77.48 L104.13 77.72 L103.31 77.97 L102.49 78.22 L101.67 78.49 L100.86 78.76 L100.05 79.04 L99.24 79.33 L98.44 79.63 L97.64 79.94 L96.84 80.25 L96.05 80.57 L95.26 80.90 L94.47 81.24 L93.68 81.58 L92.90 81.93 L92.12 82.30 L91.35 82.66 L90.58 83.04 L89.81 83.42 L89.05 83.81 L88.29 84.21 L87.54 84.62 L86.79 85.03 L86.04 85.46 L85.30 85.88 L84.56 86.32 L83.83 86.77 L83.10 87.22 L82.37 87.67 L81.66 88.14 L80.94 88.61 L80.23 89.09 L79.52 89.58 L78.82 90.07 L78.13 90.57 L77.44 91.08 L76.75 91.60 L76.07 92.12 L75.40 92.65 L74.73 93.18 L74.06 93.72 L73.40 94.27 L72.75 94.83 L72.10 95.39 L71.46 95.96 L70.83 96.53 L70.20 97.11 L69.57 97.70 L68.95 98.29 L68.34 98.89 L67.73 99.50 L67.13 100.11 L66.54 100.73 L65.95 101.35 L65.37 101.98 L64.79 102.61 L64.22 103.25 L63.66 103.90 L63.10 104.55 L62.55 105.21 L62.01 105.87 L61.47 106.54 L60.94 107.21 L60.42 107.89 L59.90 108.58 L59.39 109.27 L58.89 109.96 L58.39 110.66 L57.91 111.36 L57.42 112.07 L56.95 112.79 L56.48 113.51 L56.02 114.23 L55.57 114.96 L55.12 115.69 L54.69 116.43 L54.25 117.17 L53.83 117.91 L53.42 118.66 L53.01 119.41 L52.61 120.17 L52.21 120.93 L51.83 121.70 L51.45 122.47 L51.08 123.24 L50.72 124.02 L50.36 124.80 L50.02 125.58 L49.68 126.37 L49.35 127.16 L49.02 127.95 L48.71 128.75 L48.40 129.55 L48.10 130.35 L47.81 131.16 L47.53 131.97 L47.25 132.78 L46.98 133.60 L46.73 134.41 L46.48 135.23 L46.23 136.06 L46.00 136.88 L45.77 137.71 L45.56 138.54 L45.35 139.37 L45.15 140.20 L44.95 141.04 L44.77 141.87 L44.59 142.71 L44.43 143.55 L44.27 144.39 L44.12 145.24 L43.97 146.08 L43.84 146.93 L43.71 147.78 L43.60 148.63 L43.49 149.48 L43.39 150.33 L43.30 151.18 L43.22 152.03 L43.14 152.89 L43.08 153.74 L43.02 154.60 L42.97 155.45 L42.93 156.31 L42.90 157.17 L42.88 158.02 L42.86 158.88 L42.86 159.74 L42.86 160.59 L42.87 161.45 L42.89 162.31 L42.92 163.17 L42.96 164.02 L43.00 164.88 L43.06 165.73 L43.12 166.59 L43.19 167.44 L43.27 168.30 L43.36 169.15 L43.46 170.00 L43.56 170.85 L43.68 171.70 L43.80 172.55 L43.93 173.40 L44.07 174.24 L44.22 175.09 L44.37 175.93 L44.54 176.77 L44.71 177.61 L44.89 178.45 L45.08 179.28 L45.28 180.12 L45.49 180.95 L45.70 181.78 L45.93 182.61 L46.16 183.43 L46.40 184.25 L46.65 185.07 L46.90 185.89 L47.17 186.71 L47.44 187.52 L47.72 188.33 L48.01 189.14 L48.30 189.94 L48.61 190.74 L48.92 191.54 L49.24 192.34 L49.57 193.13 L49.91 193.92 L50.25 194.70 L50.60 195.48 L50.96 196.26 L51.33 197.03 L51.71 197.80 L52.09 198.57 L52.48 199.33 L52.88 200.09 L53.28 200.85 L53.70 201.60 L54.12 202.35 L54.55 203.09 L54.98 203.83 L55.43 204.56 L55.88 205.29 L56.33 206.01 L56.80 206.73 L57.27 207.45 L57.75 208.16 L58.24 208.87 L58.73 209.57 L59.23 210.26 L59.74 210.95 L60.25 211.64 L60.77 212.32 L61.30 212.99 L61.84 213.66 L62.38 214.33 L62.93 214.99 L63.48 215.64 L64.04 216.29 L64.61 216.93 L65.18 217.57 L65.76 218.20 L66.35 218.83 L66.94 219.44 L67.54 220.06 L68.14 220.67 L68.76 221.27 L69.37 221.86 L70.00 222.45 L70.62 223.03 L71.26 223.61 L71.90 224.18 L72.54 224.74 L73.20 225.30 L73.85 225.85 L74.52 226.39 L75.18 226.93 L75.86 227.46 L76.54 227.99 L77.22 228.50 L77.91 229.01 L78.60 229.52 L79.30 230.01 L80.00 230.50 L80.71 230.98 L81.43 231.46 L82.14 231.93 L82.87 232.39 L83.60 232.84 L84.33 233.29 L85.06 233.73 L85.80 234.16 L86.55 234.58 L87.30 235.00 L88.05 235.41 L88.81 235.81 L89.57 236.20 L90.34 236.59 L91.10 236.97 L91.88 237.34 L92.65 237.70 L93.43 238.06 L94.22 238.40 L95.00 238.74 L95.79 239.07 L96.59 239.40 L97.38 239.71 L98.18 240.02 L98.99 240.32 L99.79 240.61 L100.60 240.90 L101.41 241.17 L102.23 241.44 L103.05 241.70 L103.87 241.95 L104.69 242.19 L105.51 242.43 L106.34 242.65 L107.17 242.87 L108.00 243.08 L108.83 243.28 L109.67 243.48 L110.50 243.66 L111.34 243.84 L112.18 244.01 L113.02 244.17 L113.87 244.32 L114.71 244.46 L115.56 244.60 L116.41 244.72 L117.26 244.84 L118.11 244.95 L118.96 245.05 L119.81 245.14 L120.66 245.22 L121.52 245.30 L122.37 245.36 L123.23 245.42 L124.08 245.47 L124.94 245.51 L125.80 245.54 L126.65 245.57 L127.51 245.58 L128.37 245.59 L129.22 245.59 L130.08 245.58 L130.94 245.56 L131.79 245.53 L132.65 245.49 L133.51 245.45 L134.36 245.39 L135.22 245.33 L136.07 245.26 L136.92 245.18 L137.78 245.09 L138.63 245.00 L139.48 244.89 L140.33 244.78 L141.18 244.66 L142.03 244.53 L142.87 244.39 L143.72 244.24 L144.56 244.08 L145.40 243.92 L146.24 243.75 L147.08 243.57 L147.91 243.38 L148.75 243.18 L149.58 242.97 L150.41 242.76 L151.24 242.54 L152.06 242.31 L152.89 242.07 L153.71 241.82 L154.52 241.57 L155.34 241.30 L156.15 241.03 L156.96 240.75 L157.77 240.46 L158.57 240.17 L159.38 239.86 L160.17 239.55 L160.97 239.23 L161.76 238.90 L162.55 238.57 L163.34 238.22 L164.12 237.87 L164.90 237.51 L165.67 237.14 L166.44 236.77 L167.21 236.39 L167.97 236.00 L168.73 235.60 L169.49 235.19 L170.24 234.78 L170.98 234.36 L171.73 233.93 L172.46 233.50 L173.20 233.05 L173.93 232.60 L174.65 232.15 L175.37 231.68 L176.09 231.21 L176.80 230.73 L177.51 230.25 L178.21 229.75 L178.90 229.25 L179.60 228.75 L180.28 228.23 L180.96 227.71 L181.64 227.19 L182.31 226.65 L182.97 226.11 L183.63 225.56 L184.29 225.01 L184.94 224.45 L185.58 223.88 L186.22 223.31 L186.85 222.73 L187.47 222.14 L188.09 221.55 L188.71 220.95 L189.31 220.35 L189.92 219.74 L190.51 219.12 L191.10 218.50 L191.68 217.87 L192.26 217.24 L192.83 216.60 L193.40 215.95 L193.95 215.30 L194.50 214.64 L195.05 213.98 L195.59 213.32 L196.12 212.64 L196.64 211.96 L197.16 211.28 L197.67 210.59 L198.17 209.90 L198.67 209.20 L199.16 208.50 L199.64 207.79 L200.12 207.08 L200.59 206.36 L201.05 205.64 L201.50 204.91 L201.95 204.18 L202.39 203.44 L202.82 202.70 L203.24 201.96 L203.66 201.21 L204.07 200.45 L204.47 199.70 L204.87 198.94 L205.25 198.17 L205.63 197.40 L206.00 196.63 L206.37 195.85 L206.72 195.07 L207.07 194.29 L207.41 193.50 L207.75 192.71 L208.07 191.92 L208.39 191.12 L208.69 190.32 L209.00 189.52 L209.29 188.72 L209.57 187.91 L209.85 187.10 L210.12 186.28 L210.38 185.47 L210.63 184.65 L210.87 183.82 L211.11 183.00 L211.33 182.17 L211.55 181.34 L211.76 180.51 L211.97 179.68 L212.16 178.85 L212.35 178.01 L212.52 177.17 L212.69 176.33 L212.85 175.49 L213.00 174.64 L213.15 173.80 L213.28 172.95 L213.41 172.11 L213.53 171.26 L213.64 170.41 L213.74 169.56 L213.83 168.70 L213.91 167.85 L213.99 167.00 L214.06 166.14 L214.11 165.29 L214.16 164.43 L214.21 163.57 L214.24 162.72 L214.26 161.86 L214.28 161.00 L214.29 160.15 " style="fill:none;stroke:#ff0000;stroke-width:1;" /><path d="M214.29 159.87 L214.29 159.87 L214.29 159.87 L214.30 159.87 L214.32 159.87 L214.35 159.87 L214.39 159.87 L214.44 159.87 L214.50 159.86 L214.56 159.86 L214.63 159.85 L214.71 159.85 L214.80 159.84 L214.90 159.82 L215.01 159.81 L215.12 159.80 L215.24 159.78 L215.38 159.76 L215.52 159.73 L215.66 159.71 L215.82 159.68 L215.98 159.65 L216.15 159.61 L216.33 159.57 L216.52 159.53 L216.72 159.48 L216.92 159.43 L217.13 159.38 L217.35 159.32 L217.58 159.25 L217.81 159.18 L218.06 159.11 L218.31 159.03 L218.56 158.95 L218.83 158.86 L219.10 158.76 L219.38 158.66 L219.66 158.56 L219.95 158.45 L220.25 158.33 L220.56 158.21 L220.87 158.07 L221.19 157.94 L221.52 157.79 L221.85 157.64 L222.19 157.49 L222.53 157.32 L222.88 157.15 L223.24 156.97 L223.60 156.79 L223.97 156.59 L224.34 156.39 L224.72 156.18 L225.10 155.96 L225.49 155.74 L225.89 155.51 L226.29 155.26 L226.69 155.01 L227.10 154.75 L227.51 154.48 L227.93 154.21 L228.35 153.92 L228.78 153.63 L229.21 153.32 L229.64 153.01 L230.08 152.69 L230.52 152.35 L230.97 152.01 L231.42 151.66 L231.87 151.30 L232.32 150.93 L232.78 150.55 L233.24 150.15 L233.71 149.75 L234.17 149.34 L234.64 148.92 L235.11 148.49 L235.58 148.04 L236.05 147.59 L236.53 147.12 L237.00 146.65 L237.48 146.16 L237.96 145.66 L238.44 145.16 L238.92 144.64 L239.40 144.11 L239.88 143.56 L240.36 143.01 L240.84 142.45 L241.32 141.87 L241.80 141.28 L242.28 140.68 L242.76 140.07 L243.24 139.45 L243.71 138.82 L244.19 138.18 L244.67 137.52 L245.14 136.85 L245.61 136.17 L246.08 135.48 L246.54 134.78 L247.01 134.06 L247.47 133.33 L247.93 132.59 L248.39 131.84 L248.84 131.08 L249.29 130.31 L249.73 129.52 L250.18 128.72 L250.62 127.91 L251.05 127.09 L251.48 126.25 L251.90 125.41 L252.33 124.55 L252.74 123.68 L253.15 122.80 L253.56 121.90 L253.96 121.00 L254.35 120.08 L254.74 119.15 L255.12 118.21 L255.50 117.26 L255.87 116.29 L256.23 115.32 L256.59 114.33 L256.93 113.33 L257.28 112.32 L257.61 111.29 L257.94 110.26 L258.26 109.22 L258.57 108.16 L258.87 107.09 L259.16 106.01 L259.45 104.92 L259.72 103.82 L259.99 102.71 L260.25 101.58 L260.50 100.45 L260.74 99.30 L260.97 98.15 L261.18 96.98 L261.39 95.80 L261.59 94.62 L261.78 93.42 L261.96 92.21 L262.12 90.99 L262.28 89.76 L262.42 88.52 L262.56 87.27 L262.68 86.02 L262.79 84.75 L262.88 83.47 L262.97 82.18 L263.04 80.89 L263.10 79.58 L263.15 78.27 L263.18 76.94 L263.20 75.61 L263.21 74.27 L263.21 72.92 L263.19 71.56 L263.15 70.19 L263.11 68.82 L263.04 67.43 L262.97 66.04 L262.88 64.64 L262.77 63.24 L262.66 61.83 L262.52 60.40 L262.37 58.98 L262.21 57.54 L262.03 56.10 L261.83 54.65 L261.62 53.20 L261.39 51.74 L261.15 50.27 L260.89 48.80 L260.62 47.32 L260.32 45.83 L260.02 44.34 L259.69 42.85 L259.35 41.35 L258.99 39.84 L258.61 38.33 L258.22 36.82 L257.81 35.30 L257.38 33.78 L256.93 32.25 L256.47 30.72 L255.99 29.19 L255.49 27.65 L254.97 26.11 L254.44 24.57 L253.88 23.03 L253.31 21.48 L252.72 19.93 L252.11 18.38 L251.48 16.82 L250.84 15.27 L250.17 13.71 L249.49 12.15 " style="fill:none;stroke:#ff0000;stroke-width:1;" /></g></svg>