<?xml version="1.0" encoding="UTF-8" standalone="no"?>
<!DOCTYPE svg PUBLIC "-//W3C//DTD SVG 1.1//EN" "http://www.w3.org/Graphics/SVG/1.1/DTD/svg11.dtd">
<svg width="720pt" height="120pt" viewBox="0 0 720 120" overflow="visible" version="1.1" xmlns="http://www.w3.org/2000/svg">
  <path d="M69.44882,65.87697 C71.68931,66.08685 74.23351,63.6513 74.12154,61.40379 L74.12997,61.27131 L74.21352,60.75525 L74.52994,59.51226 L75.18218,57.70562 L75.51374,56.94333 C75.66834,56.56333 76.12553,56.26908 76.53543,56.28577 C76.94534,56.26908 77.40252,56.56333 77.55713,56.94333 L77.88868,57.70562 L78.54093,59.51226 L78.85735,60.75525 L78.9409,61.27131 L78.94933,61.40379 C78.83736,63.6513 81.38156,66.08685 83.62205,65.87697 C85.86253,66.08685 88.40673,63.6513 88.29476,61.40379 L88.3032,61.27131 L88.38674,60.75525 L88.70316,59.51226 L89.35542,57.70562 L89.68697,56.94333 C89.84158,56.56333 90.29875,56.26908 90.70866,56.28577 C91.11857,56.26908 91.57575,56.56333 91.73035,56.94333 L92.06191,57.70562 L92.71416,59.51226 L93.03058,60.75525 L93.11413,61.27131 L93.12256,61.40379 C93.01059,63.6513 95.55479,66.08685 97.79527,65.87697" stroke="#000000" stroke-width="0.24" fill-opacity="0" />
  <path d="M55.27559,65.87697 C57.51608,66.08685 60.06028,63.6513 59.94831,61.40379 L59.95674,61.27131 L60.04028,60.75525 L60.35671,59.51226 L61.00896,57.70562 L61.34051,56.94333 C61.49512,56.56333 61.9523,56.26908 62.36221,56.28577 C62.77211,56.26908 63.22929,56.56333 63.3839,56.94333 L63.71545,57.70562 L64.36771,59.51226 L64.68413,60.75525 L64.76767,61.27131 L64.77611,61.40379 C64.66413,63.6513 67.20833,66.08685 69.44882,65.87697" stroke="#000000" stroke-width="0.24" fill-opacity="0" />
  <path d="M111.9685,65.87697 C114.209,66.08685 116.7532,63.6513 116.6412,61.40379 L116.6497,61.27131 L116.7332,60.75525 L117.0496,59.51226 L117.7019,57.70562 L118.0334,56.94333 C118.188,56.56333 118.6452,56.26908 119.0551,56.28577 C119.465,56.26908 119.9222,56.56333 120.0768,56.94333 L120.4084,57.70562 L121.0606,59.51226 L121.377,60.75525 L121.4606,61.27131 L121.469,61.40379 C121.357,63.6513 123.9012,66.08685 126.1417,65.87697 C128.3822,66.08685 130.9264,63.6513 130.8145,61.40379 L130.8229,61.27131 L130.9064,60.75525 L131.2229,59.51226 L131.8751,57.70562 L132.2066,56.94333 C132.3613,56.56333 132.8184,56.26908 133.2283,56.28577 C133.6383,56.26908 134.0954,56.56333 134.25,56.94333 L134.5816,57.70562 L135.2338,59.51226 L135.5503,60.75525 L135.6338,61.27131 L135.6422,61.40379 C135.5303,63.6513 138.0745,66.08685 140.315,65.87697 C142.5555,66.08685 145.0996,63.6513 144.9877,61.40379 L144.9961,61.27131 L145.0797,60.75525 L145.3961,59.51226 L146.0483,57.70562 L146.3799,56.94333 C146.5345,56.56333 146.9917,56.26908 147.4016,56.28577 C147.8115,56.26908 148.2687,56.56333 148.4233,56.94333 L148.7548,57.70562 L149.4071,59.51226 L149.7235,60.75525 L149.807,61.27131 L149.8155,61.40379 C149.7035,63.6513 152.2477,66.08685 154.4882,65.87697 C156.7287,66.08685 159.2729,63.6513 159.1609,61.40379 L159.1693,61.27131 L159.2529,60.75525 L159.5693,59.51226 L160.2216,57.70562 L160.5531,56.94333 C160.7077,56.56333 161.1649,56.26908 161.5748,56.28577 C161.9847,56.26908 162.4419,56.56333 162.5965,56.94333 L162.9281,57.70562 L163.5803,59.51226 L163.8967,60.75525 L163.9803,61.27131 L163.9887,61.40379 C163.8767,63.6513 166.4209,66.08685 168.6614,65.87697 C170.9019,66.08685 173.4461,63.6513 173.3341,61.40379 L173.3426,61.27131 L173.4261,60.75525 L173.7425,59.51226 L174.3948,57.70562 L174.7263,56.94333 C174.881,56.56333 175.3381,56.26908 175.748,56.28577 C176.1579,56.26908 176.6151,56.56333 176.7697,56.94333 L177.1013,57.70562 L177.7535,59.51226 L178.0699,60.75525 L178.1535,61.27131 L178.1619,61.40379 C178.05,63.6513 180.5942,66.08685 182.8346,65.87697" stroke="#000000" stroke-width="0.24" fill-opacity="0" />
  <path d="M97.79527,65.87697 C100.0358,66.08685 102.58,63.6513 102.468,61.40379 L102.4764,61.27131 L102.56,60.75525 L102.8764,59.51226 L103.5286,57.70562 L103.8602,56.94333 C104.0148,56.56333 104.472,56.26908 104.8819,56.28577 C105.2918,56.26908 105.749,56.56333 105.9036,56.94333 L106.2351,57.70562 L106.8874,59.51226 L107.2038,60.75525 L107.2874,61.27131 L107.2958,61.40379 C107.1838,63.6513 109.728,66.08685 111.9685,65.87697" stroke="#000000" stroke-width="0.24" fill-opacity="0" />
  <path d="M197.0079,65.87697 C199.2484,66.08685 201.7926,63.6513 201.6806,61.40379 L201.689,61.27131 L201.7726,60.75525 L202.089,59.51226 L202.7412,57.70562 L203.0728,56.94333 C203.2274,56.56333 203.6846,56.26908 204.0945,56.28577 C204.5044,56.26908 204.9616,56.56333 205.1162,56.94333 L205.4477,57.70562 L206.1,59.51226 L206.4164,60.75525 L206.5,61.27131 L206.5084,61.40379 C206.3964,63.6513 208.9406,66.08685 211.1811,65.87697 C213.4216,66.08685 215.9658,63.6513 215.8538,61.40379 L215.8623,61.27131 L215.9458,60.75525 L216.2622,59.51226 L216.9145,57.70562 L217.246,56.94333 C217.4006,56.56333 217.8578,56.26908 218.2677,56.28577 C218.6776,56.26908 219.1348,56.56333 219.2894,56.94333 L219.621,57.70562 L220.2732,59.51226 L220.5896,60.75525 L220.6732,61.27131 L220.6816,61.40379 C220.5696,63.6513 223.1138,66.08685 225.3543,65.87697 C227.5948,66.08685 230.139,63.6513 230.027,61.40379 L230.0355,61.27131 L230.119,60.75525 L230.4354,59.51226 L231.0877,57.70562 L231.4193,56.94333 C231.5739,56.56333 232.031,56.26908 232.4409,56.28577 C232.8508,56.26908 233.308,56.56333 233.4626,56.94333 L233.7942,57.70562 L234.4464,59.51226 L234.7629,60.75525 L234.8464,61.27131 L234.8548,61.40379 C234.7429,63.6513 237.2871,66.08685 239.5276,65.87697 C241.7681,66.08685 244.3122,63.6513 244.2003,61.40379 L244.2087,61.27131 L244.2923,60.75525 L244.6087,59.51226 L245.2609,57.70562 L245.5925,56.94333 C245.7471,56.56333 246.2043,56.26908 246.6142,56.28577 C247.0241,56.26908 247.4813,56.56333 247.6359,56.94333 L247.9674,57.70562 L248.6197,59.51226 L248.9361,60.75525 L249.0196,61.27131 L249.0281,61.40379 C248.9161,63.6513 251.4603,66.08685 253.7008,65.87697 C255.9413,66.08685 258.4855,63.6513 258.3735,61.40379 L258.3819,61.27131 L258.4655,60.75525 L258.7819,59.51226 L259.4341,57.70562 L259.7657,56.94333 C259.9203,56.56333 260.3775,56.26908 260.7874,56.28577 C261.1973,56.26908 261.6545,56.56333 261.8091,56.94333 L262.1407,57.70562 L262.7929,59.51226 L263.1093,60.75525 L263.1929,61.27131 L263.2013,61.40379 C263.0893,63.6513 265.6335,66.08685 267.874,65.87697 C270.1145,66.08685 272.6587,63.6513 272.5467,61.40379 L272.5552,61.27131 L272.6387,60.75525 L272.9551,59.51226 L273.6074,57.70562 L273.9389,56.94333 C274.0935,56.56333 274.5507,56.26908 274.9606,56.28577 C275.3705,56.26908 275.8277,56.56333 275.9823,56.94333 L276.3139,57.70562 L276.9661,59.51226 L277.2826,60.75525 L277.3661,61.27131 L277.3745,61.40379 C277.2626,63.6513 279.8068,66.08685 282.0472,65.87697 C284.2877,66.08685 286.8319,63.6513 286.72,61.40379 L286.7284,61.27131 L286.812,60.75525 L287.1284,59.51226 L287.7806,57.70562 L288.1122,56.94333 C288.2668,56.56333 288.7239,56.26908 289.1339,56.28577 C289.5438,56.26908 290.0009,56.56333 290.1555,56.94333 L290.4871,57.70562 L291.1393,59.51226 L291.4558,60.75525 L291.5393,61.27131 L291.5478,61.40379 C291.4358,63.6513 293.98,66.08685 296.2205,65.87697 C298.461,66.08685 301.0052,63.6513 300.8932,61.40379 L300.9016,61.27131 L300.9852,60.75525 L301.3016,59.51226 L301.9538,57.70562 L302.2854,56.94333 C302.44,56.56333 302.8972,56.26908 303.3071,56.28577 C303.717,56.26908 304.1742,56.56333 304.3288,56.94333 L304.6603,57.70562 L305.3126,59.51226 L305.629,60.75525 L305.7126,61.27131 L305.721,61.40379 C305.609,63.6513 308.1532,66.08685 310.3937,65.87697 C312.6342,66.08685 315.1784,63.6513 315.0664,61.40379 L315.0749,61.27131 L315.1584,60.75525 L315.4748,59.51226 L316.1271,57.70562 L316.4586,56.94333 C316.6132,56.56333 317.0704,56.26908 317.4803,56.28577 C317.8902,56.26908 318.3474,56.56333 318.502,56.94333 L318.8336,57.70562 L319.4858,59.51226 L319.8022,60.75525 L319.8858,61.27131 L319.8942,61.40379 C319.7823,63.6513 322.3264,66.08685 324.5669,65.87697 C326.8074,66.08685 329.3516,63.6513 329.2397,61.40379 L329.2481,61.27131 L329.3316,60.75525 L329.648,59.51226 L330.3003,57.70562 L330.6318,56.94333 C330.7865,56.56333 331.2437,56.26908 331.6535,56.28577 C332.0634,56.26908 332.5206,56.56333 332.6752,56.94333 L333.0068,57.70562 L333.659,59.51226 L333.9755,60.75525 L334.059,61.27131 L334.0674,61.40379 C333.9555,63.6513 336.4997,66.08685 338.7401,65.87697 C340.9807,66.08685 343.5248,63.6513 343.4129,61.40379 L343.4213,61.27131 L343.5049,60.75525 L343.8213,59.51226 L344.4735,57.70562 L344.8051,56.94333 C344.9597,56.56333 345.4169,56.26908 345.8268,56.28577 C346.2367,56.26908 346.6938,56.56333 346.8485,56.94333 L347.18,57.70562 L347.8323,59.51226 L348.1487,60.75525 L348.2322,61.27131 L348.2407,61.40379 C348.1287,63.6513 350.6729,66.08685 352.9134,65.87697" stroke="#000000" stroke-width="0.24" fill-opacity="0" />
  <path d="M182.8346,65.87697 C185.0751,66.08685 187.6193,63.6513 187.5074,61.40379 L187.5158,61.27131 L187.5993,60.75525 L187.9158,59.51226 L188.568,57.70562 L188.8996,56.94333 C189.0542,56.56333 189.5114,56.26908 189.9213,56.28577 C190.3312,56.26908 190.7883,56.56333 190.943,56.94333 L191.2745,57.70562 L191.9268,59.51226 L192.2432,60.75525 L192.3267,61.27131 L192.3352,61.40379 C192.2232,63.6513 194.7674,66.08685 197.0079,65.87697" stroke="#000000" stroke-width="0.24" fill-opacity="0" />
  <path d="M367.0866,65.87697 C369.3271,66.08685 371.8713,63.6513 371.7593,61.40379 L371.7678,61.27131 L371.8513,60.75525 L372.1677,59.51226 L372.82,57.70562 L373.1515,56.94333 C373.3062,56.56333 373.7633,56.26908 374.1732,56.28577 C374.5831,56.26908 375.0403,56.56333 375.1949,56.94333 L375.5265,57.70562 L376.1787,59.51226 L376.4951,60.75525 L376.5787,61.27131 L376.5871,61.40379 C376.4752,63.6513 379.0193,66.08685 381.2599,65.87697 C383.5003,66.08685 386.0445,63.6513 385.9326,61.40379 L385.941,61.27131 L386.0245,60.75525 L386.341,59.51226 L386.9932,57.70562 L387.3248,56.94333 C387.4794,56.56333 387.9366,56.26908 388.3465,56.28577 C388.7563,56.26908 389.2135,56.56333 389.3682,56.94333 L389.6997,57.70562 L390.352,59.51226 L390.6684,60.75525 L390.7519,61.27131 L390.7603,61.40379 C390.6484,63.6513 393.1926,66.08685 395.4331,65.87697 C397.6736,66.08685 400.2177,63.6513 400.1058,61.40379 L400.1142,61.27131 L400.1978,60.75525 L400.5142,59.51226 L401.1664,57.70562 L401.498,56.94333 C401.6526,56.56333 402.1098,56.26908 402.5197,56.28577 C402.9296,56.26908 403.3868,56.56333 403.5414,56.94333 L403.8729,57.70562 L404.5252,59.51226 L404.8416,60.75525 L404.9251,61.27131 L404.9336,61.40379 C404.8216,63.6513 407.3658,66.08685 409.6063,65.87697 C411.8468,66.08685 414.391,63.6513 414.279,61.40379 L414.2874,61.27131 L414.371,60.75525 L414.6874,59.51226 L415.3397,57.70562 L415.6712,56.94333 C415.8258,56.56333 416.283,56.26908 416.6929,56.28577 C417.1028,56.26908 417.56,56.56333 417.7146,56.94333 L418.0462,57.70562 L418.6984,59.51226 L419.0148,60.75525 L419.0984,61.27131 L419.1068,61.40379 C418.9948,63.6513 421.539,66.08685 423.7795,65.87697 C426.02,66.08685 428.5642,63.6513 428.4522,61.40379 L428.4607,61.27131 L428.5442,60.75525 L428.8607,59.51226 L429.5129,57.70562 L429.8445,56.94333 C429.9991,56.56333 430.4562,56.26908 430.8661,56.28577 C431.2761,56.26908 431.7332,56.56333 431.8878,56.94333 L432.2194,57.70562 L432.8716,59.51226 L433.188,60.75525 L433.2716,61.27131 L433.28,61.40379 C433.1681,63.6513 435.7123,66.08685 437.9528,65.87697 C440.1932,66.08685 442.7374,63.6513 442.6255,61.40379 L442.6339,61.27131 L442.7174,60.75525 L443.0339,59.51226 L443.6861,57.70562 L444.0177,56.94333 C444.1723,56.56333 444.6295,56.26908 445.0394,56.28577 C445.4493,56.26908 445.9065,56.56333 446.0611,56.94333 L446.3926,57.70562 L447.0449,59.51226 L447.3613,60.75525 L447.4448,61.27131 L447.4533,61.40379 C447.3413,63.6513 449.8855,66.08685 452.126,65.87697 C454.3665,66.08685 456.9107,63.6513 456.7987,61.40379 L456.8071,61.27131 L456.8907,60.75525 L457.2071,59.51226 L457.8593,57.70562 L458.1909,56.94333 C458.3455,56.56333 458.8027,56.26908 459.2126,56.28577 C459.6225,56.26908 460.0797,56.56333 460.2343,56.94333 L460.5659,57.70562 L461.2181,59.51226 L461.5345,60.75525 L461.6181,61.27131 L461.6265,61.40379 C461.5145,63.6513 464.0587,66.08685 466.2992,65.87697 C468.5397,66.08685 471.0839,63.6513 470.9719,61.40379 L470.9804,61.27131 L471.0639,60.75525 L471.3803,59.51226 L472.0326,57.70562 L472.3641,56.94333 C472.5187,56.56333 472.9759,56.26908 473.3858,56.28577 C473.7957,56.26908 474.2529,56.56333 474.4075,56.94333 L474.7391,57.70562 L475.3913,59.51226 L475.7077,60.75525 L475.7913,61.27131 L475.7997,61.40379 C475.6877,63.6513 478.232,66.08685 480.4724,65.87697 C482.7129,66.08685 485.2571,63.6513 485.1451,61.40379 L485.1536,61.27131 L485.2371,60.75525 L485.5536,59.51226 L486.2058,57.70562 L486.5374,56.94333 C486.692,56.56333 487.1491,56.26908 487.5591,56.28577 C487.969,56.26908 488.4261,56.56333 488.5807,56.94333 L488.9123,57.70562 L489.5645,59.51226 L489.881,60.75525 L489.9645,61.27131 L489.973,61.40379 C489.861,63.6513 492.4052,66.08685 494.6457,65.87697 C496.8862,66.08685 499.4304,63.6513 499.3184,61.40379 L499.3268,61.27131 L499.4104,60.75525 L499.7268,59.51226 L500.379,57.70562 L500.7106,56.94333 C500.8652,56.56333 501.3224,56.26908 501.7323,56.28577 C502.1422,56.26908 502.5994,56.56333 502.754,56.94333 L503.0855,57.70562 L503.7378,59.51226 L504.0542,60.75525 L504.1378,61.27131 L504.1462,61.40379 C504.0342,63.6513 506.5784,66.08685 508.8189,65.87697 C511.0594,66.08685 513.6036,63.6513 513.4916,61.40379 L513.5001,61.27131 L513.5836,60.75525 L513.9,59.51226 L514.5522,57.70562 L514.8838,56.94333 C515.0385,56.56333 515.4956,56.26908 515.9055,56.28577 C516.3154,56.26908 516.7726,56.56333 516.9272,56.94333 L517.2588,57.70562 L517.911,59.51226 L518.2274,60.75525 L518.311,61.27131 L518.3194,61.40379 C518.2075,63.6513 520.7516,66.08685 522.9921,65.87697 C525.2326,66.08685 527.7768,63.6513 527.6649,61.40379 L527.6733,61.27131 L527.7568,60.75525 L528.0732,59.51226 L528.7255,57.70562 L529.0571,56.94333 C529.2117,56.56333 529.6688,56.26908 530.0787,56.28577 C530.4886,56.26908 530.9458,56.56333 531.1005,56.94333 L531.432,57.70562 L532.0842,59.51226 L532.4006,60.75525 L532.4842,61.27131 L532.4926,61.40379 C532.3807,63.6513 534.9249,66.08685 537.1653,65.87697 C539.4058,66.08685 541.95,63.6513 541.8381,61.40379 L541.8465,61.27131 L541.9301,60.75525 L542.2465,59.51226 L542.8987,57.70562 L543.2303,56.94333 C543.3849,56.56333 543.842,56.26908 544.252,56.28577 C544.6619,56.26908 545.1191,56.56333 545.2737,56.94333 L545.6052,57.70562 L546.2574,59.51226 L546.5739,60.75525 L546.6574,61.27131 L546.6659,61.40379 C546.5539,63.6513 549.0981,66.08685 551.3386,65.87697 C553.579,66.08685 556.1233,63.6513 556.0113,61.40379 L556.0197,61.27131 L556.1033,60.75525 L556.4197,59.51226 L557.072,57.70562 L557.4035,56.94333 C557.5581,56.56333 558.0153,56.26908 558.4252,56.28577 C558.8351,56.26908 559.2923,56.56333 559.4469,56.94333 L559.7784,57.70562 L560.4307,59.51226 L560.7471,60.75525 L560.8307,61.27131 L560.8391,61.40379 C560.7271,63.6513 563.2713,66.08685 565.5118,65.87697 C567.7523,66.08685 570.2965,63.6513 570.1845,61.40379 L570.1929,61.27131 L570.2765,60.75525 L570.593,59.51226 L571.2452,57.70562 L571.5767,56.94333 C571.7313,56.56333 572.1885,56.26908 572.5984,56.28577 C573.0083,56.26908 573.4655,56.56333 573.6201,56.94333 L573.9517,57.70562 L574.6039,59.51226 L574.9203,60.75525 L575.0039,61.27131 L575.0123,61.40379 C574.9003,63.6513 577.4446,66.08685 579.6851,65.87697 C581.9255,66.08685 584.4697,63.6513 584.3577,61.40379 L584.3662,61.27131 L584.4497,60.75525 L584.7662,59.51226 L585.4184,57.70562 L585.7499,56.94333 C585.9045,56.56333 586.3618,56.26908 586.7717,56.28577 C587.1816,56.26908 587.6387,56.56333 587.7933,56.94333 L588.1249,57.70562 L588.7772,59.51226 L589.0936,60.75525 L589.1771,61.27131 L589.1855,61.40379 C589.0736,63.6513 591.6178,66.08685 593.8583,65.87697 C596.0988,66.08685 598.6429,63.6513 598.531,61.40379 L598.5394,61.27131 L598.623,60.75525 L598.9394,59.51226 L599.5916,57.70562 L599.9232,56.94333 C600.0778,56.56333 600.535,56.26908 600.9449,56.28577 C601.3548,56.26908 601.812,56.56333 601.9666,56.94333 L602.2982,57.70562 L602.9504,59.51226 L603.2668,60.75525 L603.3503,61.27131 L603.3588,61.40379 C603.2468,63.6513 605.791,66.08685 608.0315,65.87697 C610.272,66.08685 612.8162,63.6513 612.7042,61.40379 L612.7126,61.27131 L612.7962,60.75525 L613.1126,59.51226 L613.7648,57.70562 L614.0964,56.94333 C614.251,56.56333 614.7082,56.26908 615.1181,56.28577 C615.528,56.26908 615.9852,56.56333 616.1398,56.94333 L616.4714,57.70562 L617.1236,59.51226 L617.44,60.75525 L617.5236,61.27131 L617.532,61.40379 C617.42,63.6513 619.9642,66.08685 622.2047,65.87697 C624.4452,66.08685 626.9894,63.6513 626.8774,61.40379 L626.8859,61.27131 L626.9694,60.75525 L627.2858,59.51226 L627.9381,57.70562 L628.2697,56.94333 C628.4243,56.56333 628.8814,56.26908 629.2913,56.28577 C629.7012,56.26908 630.1584,56.56333 630.313,56.94333 L630.6446,57.70562 L631.2968,59.51226 L631.6133,60.75525 L631.6968,61.27131 L631.7053,61.40379 C631.5933,63.6513 634.1375,66.08685 636.3779,65.87697 C638.6185,66.08685 641.1627,63.6513 641.0507,61.40379 L641.0591,61.27131 L641.1426,60.75525 L641.459,59.51226 L642.1113,57.70562 L642.4429,56.94333 C642.5975,56.56333 643.0547,56.26908 643.4645,56.28577 C643.8745,56.26908 644.3317,56.56333 644.4863,56.94333 L644.8178,57.70562 L645.4701,59.51226 L645.7865,60.75525 L645.8701,61.27131 L645.8785,61.40379 C645.7665,63.6513 648.3107,66.08685 650.5512,65.87697 C652.7917,66.08685 655.3359,63.6513 655.2239,61.40379 L655.2324,61.27131 L655.3159,60.75525 L655.6323,59.51226 L656.2845,57.70562 L656.6161,56.94333 C656.7707,56.56333 657.2279,56.26908 657.6378,56.28577 C658.0477,56.26908 658.5049,56.56333 658.6595,56.94333 L658.991,57.70562 L659.6433,59.51226 L659.9597,60.75525 L660.0433,61.27131 L660.0517,61.40379 C659.9397,63.6513 662.4839,66.08685 664.7244,65.87697 C666.9649,66.08685 669.5091,63.6513 669.3971,61.40379 L669.4056,61.27131 L669.4891,60.75525 L669.8055,59.51226 L670.4578,57.70562 L670.7893,56.94333 C670.9439,56.56333 671.4011,56.26908 671.811,56.28577 C672.2209,56.26908 672.6781,56.56333 672.8327,56.94333 L673.1642,57.70562 L673.8165,59.51226 L674.1329,60.75525 L674.2165,61.27131 L674.2249,61.40379 C674.113,63.6513 676.6572,66.08685 678.8976,65.87697" stroke="#000000" stroke-width="0.24" fill-opacity="0" />
  <path d="M352.9134,65.87697 C355.1539,66.08685 357.6981,63.6513 357.5861,61.40379 L357.5945,61.27131 L357.6781,60.75525 L357.9945,59.51226 L358.6468,57.70562 L358.9783,56.94333 C359.1329,56.56333 359.5901,56.26908 360,56.28577 C360.4099,56.26908 360.8671,56.56333 361.0217,56.94333 L361.3532,57.70562 L362.0055,59.51226 L362.3219,60.75525 L362.4055,61.27131 L362.4139,61.40379 C362.3019,63.6513 364.8461,66.08685 367.0866,65.87697" stroke="#000000" stroke-width="0.24" fill-opacity="0" />
  <path d="M206.9291,48.64315 C204.8945,52.92139 198.6788,55.59623 194.1732,54.13242 C189.5222,53.232 185.3784,47.88234 185.6693,43.15388 C185.3784,38.42543 189.5222,33.07577 194.1732,32.17535 C198.6788,30.71155 204.8945,33.38638 206.9291,37.66462 z" stroke="#000000" stroke-width="0.24" fill-opacity="0" />
  <path d="M218.099,46.17057 C218.385,44.1798 218.385,42.12797 218.099,40.1372 C218.0487,39.72695 217.7711,39.31451 217.4099,39.11352 C215.9826,38.20395 213.7524,38.2886 212.3982,39.30375 C211.8109,39.73863 210.8731,39.80248 210.2323,39.45121 C209.162,39.03074 208.5111,37.40414 208.9959,36.36137 C209.2174,35.68497 209.9079,35.10062 210.6116,34.99401 C212.2875,34.7547 213.9251,33.23727 214.2913,31.58443 C214.4045,31.18693 214.3092,30.69899 214.0547,30.37334 C212.8492,28.76339 211.3984,27.31253 209.7884,26.1071 C209.4628,25.85257 208.9748,25.75724 208.5773,25.87049 C206.9249,26.23659 205.4078,27.87342 205.168,29.54884 C205.0602,30.27162 204.4423,30.97987 203.7408,31.1846 C202.6866,31.64413 201.0762,30.9542 200.6817,29.87403 C200.36,29.23911 200.435,28.3377 200.8572,27.76471 C201.8731,26.41044 201.9581,24.17948 201.0482,22.75184 C200.8472,22.39069 200.4348,22.11307 200.0246,22.06278 C198.0338,21.77674 195.982,21.77674 193.9912,22.06278 C193.5809,22.11307 193.1685,22.39069 192.9675,22.75184 C192.0579,24.17916 192.1426,26.40933 193.1577,27.76359 C193.5926,28.35087 193.6565,29.28863 193.3052,29.92943 C192.8847,30.99977 191.2581,31.65066 190.2154,31.16584 C189.539,30.94435 188.9546,30.25389 188.848,29.55018 C188.6087,27.87427 187.0913,26.23663 185.4384,25.87049 C185.0409,25.75724 184.553,25.85257 184.2273,26.1071 C182.6174,27.31253 181.1665,28.76339 179.9611,30.37334 C179.7066,30.69899 179.6112,31.18693 179.7245,31.58443 C180.0906,33.23686 181.7274,34.75397 183.4028,34.99376 C184.1256,35.10152 184.8339,35.71947 185.0386,36.42097 C185.4981,37.47513 184.8082,39.08556 183.728,39.48009 C183.0931,39.80176 182.1917,39.72673 181.6187,39.30452 C180.2644,38.28869 178.0335,38.20369 176.6058,39.11352 C176.2447,39.31451 175.9671,39.72695 175.9168,40.1372 C175.6307,42.12797 175.6307,44.1798 175.9168,46.17057 C175.9671,46.58082 176.2447,46.99326 176.6058,47.19425 C178.0331,48.10382 180.2633,48.01917 181.6176,47.00402 C182.2048,46.56914 183.1426,46.50529 183.7834,46.85656 C184.8538,47.27703 185.5047,48.90363 185.0198,49.9464 C184.7983,50.6228 184.1079,51.20715 183.4042,51.31376 C181.7283,51.55307 180.0906,53.0705 179.7245,54.72334 C179.6112,55.12084 179.7066,55.60878 179.9611,55.93443 C181.1665,57.54438 182.6174,58.99524 184.2273,60.20067 C184.553,60.4552 185.0409,60.55053 185.4384,60.43727 C187.0909,60.07117 188.608,58.43435 188.8477,56.75893 C188.9555,56.03615 189.5735,55.3279 190.275,55.12317 C191.3291,54.66364 192.9395,55.35357 193.3341,56.43374 C193.6557,57.06866 193.5807,57.97007 193.1585,58.54306 C192.1427,59.89733 192.0577,62.1283 192.9675,63.55593 C193.1685,63.91708 193.5809,64.1947 193.9912,64.245 C195.982,64.53103 198.0338,64.53103 200.0246,64.245 C200.4348,64.1947 200.8472,63.91708 201.0482,63.55593 C201.9578,62.12861 201.8732,59.89845 200.858,58.54418 C200.4231,57.9569 200.3593,57.01915 200.7105,56.37834 C201.131,55.308 202.7576,54.65711 203.8004,55.14193 C204.4768,55.36342 205.0611,56.05387 205.1678,56.75759 C205.4071,58.4335 206.9245,60.07114 208.5773,60.43727 C208.9748,60.55053 209.4628,60.4552 209.7884,60.20067 C211.3984,58.99524 212.8492,57.54438 214.0547,55.93443 C214.3092,55.60878 214.4045,55.12084 214.2913,54.72334 C213.9252,53.07091 212.2883,51.5538 210.6129,51.31401 C209.8901,51.20625 209.1819,50.5883 208.9772,49.8868 C208.5176,48.83264 209.2076,47.22221 210.2877,46.82768 C210.9226,46.50601 211.8241,46.58104 212.397,47.00325 C213.7513,48.01908 215.9823,48.10408 217.4099,47.19425 C217.7711,46.99326 218.0487,46.58082 218.099,46.17057 z" stroke="#000000" stroke-width="0.24" fill-opacity="0" />
  <text x="187.189077964518" y="94.2234503240947" font-family="Arial" font-size="19.71928">5.0 steps per mm with a 200 step motor</text>
  <path d="M41.10236,65.87697 C43.34285,66.08685 45.88705,63.6513 45.77508,61.40379 L45.78351,61.27131 L45.86706,60.75525 L46.18348,59.51226 L46.83573,57.70562 L47.16728,56.94333 C47.32189,56.56333 47.77907,56.26908 48.18898,56.28577 C48.59888,56.26908 49.05606,56.56333 49.21067,56.94333 L49.54222,57.70562 L50.19447,59.51226 L50.51089,60.75525 L50.59444,61.27131 L50.60287,61.40379 C50.49091,63.6513 53.0351,66.08685 55.27559,65.87697" stroke="#000000" stroke-width="0.24" fill-opacity="0" />
</svg>