  0
SECTION
  2
HEADER
  9
$ACADVER
  1
AC1009
  9
$DWGCODEPAGE
  3
ansi_1252
  9
$INSBASE
 10
0.0
 20
0.0
 30
0.0
  9
$EXTMIN
 10
1.000000000000000E+20
 20
1.000000000000000E+20
 30
1.000000000000000E+20
  9
$EXTMAX
 10
-1.000000000000000E+20
 20
-1.000000000000000E+20
 30
-1.000000000000000E+20
  9
$LIMMIN
 10
0.0
 20
0.0
  9
$LIMMAX
 10
12.0
 20
9.0
  9
$ORTHOMODE
 70
     0
  9
$REGENMODE
 70
     1
  9
$FILLMODE
 70
     1
  9
$QTEXTMODE
 70
     0
  9
$MIRRTEXT
 70
     1
  9
$DRAGMODE
 70
     2
  9
$LTSCALE
 40
1.0
  9
$OSMODE
 70
    37
  9
$ATTMODE
 70
     1
  9
$TEXTSIZE
 40
0.2
  9
$TRACEWID
 40
0.05
  9
$TEXTSTYLE
  7
STANDARD
  9
$CLAYER
  8
CNC_FRIENDLY_RACK_AND_PINI
  9
$CELTYPE
  6
BYLAYER
  9
$CECOLOR
 62
   256
  9
$DIMSCALE
 40
1.0
  9
$DIMASZ
 40
0.18
  9
$DIMEXO
 40
0.0625
  9
$DIMDLI
 40
0.38
  9
$DIMRND
 40
0.0
  9
$DIMDLE
 40
0.0
  9
$DIMEXE
 40
0.18
  9
$DIMTP
 40
0.0
  9
$DIMTM
 40
0.0
  9
$DIMTXT
 40
0.18
  9
$DIMCEN
 40
0.09
  9
$DIMTSZ
 40
0.0
  9
$DIMTOL
 70
     0
  9
$DIMLIM
 70
     0
  9
$DIMTIH
 70
     1
  9
$DIMTOH
 70
     1
  9
$DIMSE1
 70
     0
  9
$DIMSE2
 70
     0
  9
$DIMTAD
 70
     0
  9
$DIMZIN
 70
     0
  9
$DIMBLK
  1

  9
$DIMASO
 70
     1
  9
$DIMSHO
 70
     1
  9
$DIMPOST
  1

  9
$DIMAPOST
  1

  9
$DIMALT
 70
     0
  9
$DIMALTD
 70
     2
  9
$DIMALTF
 40
25.4
  9
$DIMLFAC
 40
1.0
  9
$DIMTOFL
 70
     0
  9
$DIMTVP
 40
0.0
  9
$DIMTIX
 70
     0
  9
$DIMSOXD
 70
     0
  9
$DIMSAH
 70
     0
  9
$DIMBLK1
  1

  9
$DIMBLK2
  1

  9
$DIMSTYLE
  2
STANDARD_ACAD
  9
$DIMCLRD
 70
     0
  9
$DIMCLRE
 70
     0
  9
$DIMCLRT
 70
     0
  9
$DIMTFAC
 40
1.0
  9
$DIMGAP
 40
0.09
  9
$LUNITS
 70
     2
  9
$LUPREC
 70
     3
  9
$SKETCHINC
 40
0.1
  9
$FILLETRAD
 40
0.5
  9
$AUNITS
 70
     0
  9
$AUPREC
 70
     0
  9
$MENU
  1
.
  9
$ELEVATION
 40
0.0
  9
$PELEVATION
 40
0.0
  9
$THICKNESS
 40
0.0
  9
$LIMCHECK
 70
     0
  9
$CHAMFERA
 40
0.0
  9
$CHAMFERB
 40
0.0
  9
$SKPOLY
 70
     0
  9
$TDCREATE
 40
2458977.775338426
  9
$TDUPDATE
 40
2458977.775356204
  9
$TDINDWG
 40
0.0000000116
  9
$TDUSRTIMER
 40
0.0000000116
  9
$USRTIMER
 70
     1
  9
$ANGBASE
 50
0.0
  9
$ANGDIR
 70
     0
  9
$PDMODE
 70
     0
  9
$PDSIZE
 40
0.0
  9
$PLINEWID
 40
0.0
  9
$COORDS
 70
     1
  9
$SPLFRAME
 70
     0
  9
$SPLINETYPE
 70
     6
  9
$SPLINESEGS
 70
     8
  9
$ATTDIA
 70
     0
  9
$ATTREQ
 70
     1
  9
$HANDLING
 70
     1
  9
$HANDSEED
  5
226
  9
$SURFTAB1
 70
     6
  9
$SURFTAB2
 70
     6
  9
$SURFTYPE
 70
     6
  9
$SURFU
 70
     6
  9
$SURFV
 70
     6
  9
$UCSNAME
  2

  9
$UCSORG
 10
0.0
 20
0.0
 30
0.0
  9
$UCSXDIR
 10
1.0
 20
0.0
 30
0.0
  9
$UCSYDIR
 10
0.0
 20
1.0
 30
0.0
  9
$PUCSNAME
  2

  9
$PUCSORG
 10
0.0
 20
0.0
 30
0.0
  9
$PUCSXDIR
 10
1.0
 20
0.0
 30
0.0
  9
$PUCSYDIR
 10
0.0
 20
1.0
 30
0.0
  9
$USERI1
 70
     0
  9
$USERI2
 70
     0
  9
$USERI3
 70
     0
  9
$USERI4
 70
     0
  9
$USERI5
 70
     0
  9
$USERR1
 40
0.0
  9
$USERR2
 40
0.0
  9
$USERR3
 40
0.0
  9
$USERR4
 40
0.0
  9
$USERR5
 40
0.0
  9
$WORLDVIEW
 70
     1
  9
$SHADEDGE
 70
     3
  9
$SHADEDIF
 70
    70
  9
$TILEMODE
 70
     1
  9
$MAXACTVP
 70
    64
  9
$PLIMCHECK
 70
     0
  9
$PEXTMIN
 10
1.000000000000000E+20
 20
1.000000000000000E+20
 30
1.000000000000000E+20
  9
$PEXTMAX
 10
-1.000000000000000E+20
 20
-1.000000000000000E+20
 30
-1.000000000000000E+20
  9
$PLIMMIN
 10
0.0
 20
0.0
  9
$PLIMMAX
 10
12.0
 20
9.0
  9
$UNITMODE
 70
     0
  9
$VISRETAIN
 70
     1
  9
$PLINEGEN
 70
     0
  9
$PSLTSCALE
 70
     1
  0
ENDSEC
  0
SECTION
  2
TABLES
  0
TABLE
  2
VPORT
 70
     1
  0
VPORT
  2
*ACTIVE
 70
     0
 10
0.0
 20
0.0
 11
1.0
 21
1.0
 12
10.42990654205607
 22
4.5
 13
0.0
 23
0.0
 14
0.5
 24
0.5
 15
0.5
 25
0.5
 16
0.0
 26
0.0
 36
1.0
 17
0.0
 27
0.0
 37
0.0
 40
9.0
 41
1.972972972850329
 42
50.0
 43
0.0
 44
0.0
 50
0.0
 51
0.0
 71
     0
 72
   100
 73
     1
 74
     3
 75
     0
 76
     0
 77
     0
 78
     0
  0
ENDTAB
  0
TABLE
  2
LTYPE
 70
     1
  0
LTYPE
  2
CONTINUOUS
 70
     0
  3
Solid line
 72
    65
 73
     0
 40
0.0
  0
ENDTAB
  0
TABLE
  2
LAYER
 70
     2
  0
LAYER
  2
0
 70
     0
 62
     7
  6
CONTINUOUS
  0
LAYER
  2
CNC_FRIENDLY_RACK_AND_PINI
 70
     0
 62
     7
  6
CONTINUOUS
  0
ENDTAB
  0
TABLE
  2
STYLE
 70
     2
  0
STYLE
  2
STANDARD
 70
     0
 40
0.0
 41
1.0
 50
0.0
 71
     0
 42
0.2
  3
txt
  4

  0
STYLE
  2
ARIAL_NORMAL
 70
     0
 40
0.0
 41
1.0
 50
0.0
 71
     0
 42
0.2
  3
arial.ttf
  4

  0
ENDTAB
  0
TABLE
  2
VIEW
 70
     0
  0
ENDTAB
  0
TABLE
  2
UCS
 70
     0
  0
ENDTAB
  0
TABLE
  2
APPID
 70
     1
  0
APPID
  2
ACAD
 70
     0
  0
ENDTAB
  0
TABLE
  2
DIMSTYLE
 70
     1
  0
DIMSTYLE
  2
STANDARD_ACAD
 70
     0
  3

  4

  5

  6

  7

 40
1.0
 41
0.18
 42
0.0625
 43
0.38
 44
0.18
 45
0.0
 46
0.0
 47
0.0
 48
0.0
140
0.18
141
0.09
142
0.0
143
25.4
144
1.0
145
0.0
146
1.0
147
0.09
 71
     0
 72
     0
 73
     1
 74
     1
 75
     0
 76
     0
 77
     0
 78
     0
170
     0
171
     2
172
     0
173
     0
174
     0
175
     0
176
     0
177
     0
178
     0
  0
ENDTAB
  0
ENDSEC
  0
SECTION
  2
BLOCKS
  0
BLOCK
  8
0
  2
$MODEL_SPACE
 70
     0
 10
0.0
 20
0.0
 30
0.0
  3
$MODEL_SPACE
  1

  0
ENDBLK
  5
21
  8
0
  0
BLOCK
 67
     1
  8
0
  2
$PAPER_SPACE
 70
     0
 10
0.0
 20
0.0
 30
0.0
  3
$PAPER_SPACE
  1

  0
ENDBLK
  5
1D
 67
     1
  8
0
  0
ENDSEC
  0
SECTION
  2
ENTITIES
  0
POLYLINE
  5
6F
  8
CNC_FRIENDLY_RACK_AND_PINI
 66
     1
 10
0.0
 20
0.0
 30
0.0
  0
VERTEX
  5
70
  8
CNC_FRIENDLY_RACK_AND_PINI
 10
-55.00000000000005
 20
-8.016198000000001
 30
0.0
 42
0.4014922245290057
  0
VERTEX
  5
71
  8
CNC_FRIENDLY_RACK_AND_PINI
 10
-53.3515700482419
 20
-6.438161144363759
 30
0.0
 42
-0.0758916822381307
  0
VERTEX
  5
72
  8
CNC_FRIENDLY_RACK_AND_PINI
 10
-52.86043147075043
 20
-4.864607494440035
 30
0.0
 42
-0.6435955454805145
  0
VERTEX
  5
73
  8
CNC_FRIENDLY_RACK_AND_PINI
 10
-52.13956853194043
 20
-4.864607488527124
 30
0.0
 42
-0.0758916831321171
  0
VERTEX
  5
74
  8
CNC_FRIENDLY_RACK_AND_PINI
 10
-51.64842995175809
 20
-6.438161144363759
 30
0.0
 42
0.40149222452896
  0
VERTEX
  5
75
  8
CNC_FRIENDLY_RACK_AND_PINI
 10
-50.0
 20
-8.016197999999916
 30
0.0
  0
SEQEND
  5
76
  8
CNC_FRIENDLY_RACK_AND_PINI
  0
POLYLINE
  5
77
  8
CNC_FRIENDLY_RACK_AND_PINI
 66
     1
 10
0.0
 20
0.0
 30
0.0
  0
VERTEX
  5
78
  8
CNC_FRIENDLY_RACK_AND_PINI
 10
-50.00000000000007
 20
-8.016198000000001
 30
0.0
 42
0.4014922245290189
  0
VERTEX
  5
79
  8
CNC_FRIENDLY_RACK_AND_PINI
 10
-48.35157004824192
 20
-6.438161144363759
 30
0.0
 42
-0.0758916822381245
  0
VERTEX
  5
7A
  8
CNC_FRIENDLY_RACK_AND_PINI
 10
-47.86043147075043
 20
-4.864607494440035
 30
0.0
 42
-0.6435955454805267
  0
VERTEX
  5
7B
  8
CNC_FRIENDLY_RACK_AND_PINI
 10
-47.13956853194043
 20
-4.864607488527124
 30
0.0
 42
-0.0758916831321336
  0
VERTEX
  5
7C
  8
CNC_FRIENDLY_RACK_AND_PINI
 10
-46.64842995175809
 20
-6.438161144363759
 30
0.0
 42
0.4014922245289721
  0
VERTEX
  5
7D
  8
CNC_FRIENDLY_RACK_AND_PINI
 10
-45.0
 20
-8.016197999999918
 30
0.0
  0
SEQEND
  5
7E
  8
CNC_FRIENDLY_RACK_AND_PINI
  0
POLYLINE
  5
7F
  8
CNC_FRIENDLY_RACK_AND_PINI
 66
     1
 10
0.0
 20
0.0
 30
0.0
  0
VERTEX
  5
80
  8
CNC_FRIENDLY_RACK_AND_PINI
 10
-45.00000000000009
 20
-8.016198000000001
 30
0.0
 42
0.401492224529011
  0
VERTEX
  5
81
  8
CNC_FRIENDLY_RACK_AND_PINI
 10
-43.35157004824192
 20
-6.438161144363758
 30
0.0
 42
-0.0758916822381245
  0
VERTEX
  5
82
  8
CNC_FRIENDLY_RACK_AND_PINI
 10
-42.86043147075043
 20
-4.864607494440035
 30
0.0
 42
-0.6435955454805267
  0
VERTEX
  5
83
  8
CNC_FRIENDLY_RACK_AND_PINI
 10
-42.13956853194042
 20
-4.864607488527124
 30
0.0
 42
-0.0758916831321139
  0
VERTEX
  5
84
  8
CNC_FRIENDLY_RACK_AND_PINI
 10
-41.64842995175809
 20
-6.438161144363759
 30
0.0
 42
0.4014922245289647
  0
VERTEX
  5
85
  8
CNC_FRIENDLY_RACK_AND_PINI
 10
-40.0
 20
-8.016197999999921
 30
0.0
  0
SEQEND
  5
86
  8
CNC_FRIENDLY_RACK_AND_PINI
  0
POLYLINE
  5
87
  8
CNC_FRIENDLY_RACK_AND_PINI
 66
     1
 10
0.0
 20
0.0
 30
0.0
  0
VERTEX
  5
88
  8
CNC_FRIENDLY_RACK_AND_PINI
 10
-40.0
 20
-8.016198000000001
 30
0.0
 42
0.4014922245290075
  0
VERTEX
  5
89
  8
CNC_FRIENDLY_RACK_AND_PINI
 10
-38.35157004824191
 20
-6.438161144363759
 30
0.0
 42
-0.0758916822381264
  0
VERTEX
  5
8A
  8
CNC_FRIENDLY_RACK_AND_PINI
 10
-37.86043147075043
 20
-4.864607494440035
 30
0.0
 42
-0.6435955454805427
  0
VERTEX
  5
8B
  8
CNC_FRIENDLY_RACK_AND_PINI
 10
-37.13956853194043
 20
-4.864607488527126
 30
0.0
 42
-0.0758916831321251
  0
VERTEX
  5
8C
  8
CNC_FRIENDLY_RACK_AND_PINI
 10
-36.64842995175809
 20
-6.438161144363759
 30
0.0
 42
0.4014922245289742
  0
VERTEX
  5
8D
  8
CNC_FRIENDLY_RACK_AND_PINI
 10
-35.0
 20
-8.016197999999916
 30
0.0
  0
SEQEND
  5
8E
  8
CNC_FRIENDLY_RACK_AND_PINI
  0
POLYLINE
  5
8F
  8
CNC_FRIENDLY_RACK_AND_PINI
 66
     1
 10
0.0
 20
0.0
 30
0.0
  0
VERTEX
  5
90
  8
CNC_FRIENDLY_RACK_AND_PINI
 10
-35.00000000000002
 20
-8.016198000000001
 30
0.0
 42
0.4014922245290033
  0
VERTEX
  5
91
  8
CNC_FRIENDLY_RACK_AND_PINI
 10
-33.35157004824191
 20
-6.438161144363759
 30
0.0
 42
-0.0758916822381264
  0
VERTEX
  5
92
  8
CNC_FRIENDLY_RACK_AND_PINI
 10
-32.86043147075043
 20
-4.864607494440035
 30
0.0
 42
-0.6435955454805369
  0
VERTEX
  5
93
  8
CNC_FRIENDLY_RACK_AND_PINI
 10
-32.13956853194042
 20
-4.864607488527124
 30
0.0
 42
-0.0758916831321224
  0
VERTEX
  5
94
  8
CNC_FRIENDLY_RACK_AND_PINI
 10
-31.64842995175809
 20
-6.438161144363759
 30
0.0
 42
0.4014922245289653
  0
VERTEX
  5
95
  8
CNC_FRIENDLY_RACK_AND_PINI
 10
-30.0
 20
-8.016197999999916
 30
0.0
  0
SEQEND
  5
96
  8
CNC_FRIENDLY_RACK_AND_PINI
  0
POLYLINE
  5
97
  8
CNC_FRIENDLY_RACK_AND_PINI
 66
     1
 10
0.0
 20
0.0
 30
0.0
  0
VERTEX
  5
98
  8
CNC_FRIENDLY_RACK_AND_PINI
 10
-30.00000000000004
 20
-8.016198000000001
 30
0.0
 42
0.4014922245290012
  0
VERTEX
  5
99
  8
CNC_FRIENDLY_RACK_AND_PINI
 10
-28.35157004824191
 20
-6.438161144363758
 30
0.0
 42
-0.0758916822381293
  0
VERTEX
  5
9A
  8
CNC_FRIENDLY_RACK_AND_PINI
 10
-27.86043147075043
 20
-4.864607494440035
 30
0.0
 42
-0.6435955454805362
  0
VERTEX
  5
9B
  8
CNC_FRIENDLY_RACK_AND_PINI
 10
-27.13956853194042
 20
-4.864607488527125
 30
0.0
 42
-0.0758916831321227
  0
VERTEX
  5
9C
  8
CNC_FRIENDLY_RACK_AND_PINI
 10
-26.64842995175809
 20
-6.438161144363759
 30
0.0
 42
0.4014922245289586
  0
VERTEX
  5
9D
  8
CNC_FRIENDLY_RACK_AND_PINI
 10
-25.0
 20
-8.016197999999914
 30
0.0
  0
SEQEND
  5
9E
  8
CNC_FRIENDLY_RACK_AND_PINI
  0
POLYLINE
  5
9F
  8
CNC_FRIENDLY_RACK_AND_PINI
 66
     1
 10
0.0
 20
0.0
 30
0.0
  0
VERTEX
  5
A0
  8
CNC_FRIENDLY_RACK_AND_PINI
 10
-25.00000000000007
 20
-8.016198000000001
 30
0.0
 42
0.4014922245290184
  0
VERTEX
  5
A1
  8
CNC_FRIENDLY_RACK_AND_PINI
 10
-23.35157004824191
 20
-6.438161144363759
 30
0.0
 42
-0.0758916822381359
  0
VERTEX
  5
A2
  8
CNC_FRIENDLY_RACK_AND_PINI
 10
-22.86043147075043
 20
-4.864607494440035
 30
0.0
 42
-0.6435955454805304
  0
VERTEX
  5
A3
  8
CNC_FRIENDLY_RACK_AND_PINI
 10
-22.13956853194043
 20
-4.864607488527127
 30
0.0
 42
-0.0758916831321259
  0
VERTEX
  5
A4
  8
CNC_FRIENDLY_RACK_AND_PINI
 10
-21.64842995175809
 20
-6.438161144363759
 30
0.0
 42
0.4014922245289687
  0
VERTEX
  5
A5
  8
CNC_FRIENDLY_RACK_AND_PINI
 10
-20.0
 20
-8.016197999999916
 30
0.0
  0
SEQEND
  5
A6
  8
CNC_FRIENDLY_RACK_AND_PINI
  0
POLYLINE
  5
A7
  8
CNC_FRIENDLY_RACK_AND_PINI
 66
     1
 10
0.0
 20
0.0
 30
0.0
  0
VERTEX
  5
A8
  8
CNC_FRIENDLY_RACK_AND_PINI
 10
-20.00000000000009
 20
-8.016198000000001
 30
0.0
 42
0.4014922245290167
  0
VERTEX
  5
A9
  8
CNC_FRIENDLY_RACK_AND_PINI
 10
-18.35157004824191
 20
-6.438161144363759
 30
0.0
 42
-0.075891682238135
  0
VERTEX
  5
AA
  8
CNC_FRIENDLY_RACK_AND_PINI
 10
-17.86043147075043
 20
-4.864607494440035
 30
0.0
 42
-0.6435955454805328
  0
VERTEX
  5
AB
  8
CNC_FRIENDLY_RACK_AND_PINI
 10
-17.13956853194042
 20
-4.864607488527124
 30
0.0
 42
-0.0758916831321238
  0
VERTEX
  5
AC
  8
CNC_FRIENDLY_RACK_AND_PINI
 10
-16.64842995175809
 20
-6.438161144363759
 30
0.0
 42
0.4014922245289636
  0
VERTEX
  5
AD
  8
CNC_FRIENDLY_RACK_AND_PINI
 10
-15.0
 20
-8.016197999999916
 30
0.0
  0
SEQEND
  5
AE
  8
CNC_FRIENDLY_RACK_AND_PINI
  0
POLYLINE
  5
AF
  8
CNC_FRIENDLY_RACK_AND_PINI
 66
     1
 10
0.0
 20
0.0
 30
0.0
  0
VERTEX
  5
B0
  8
CNC_FRIENDLY_RACK_AND_PINI
 10
-15.0
 20
-8.016198000000001
 30
0.0
 42
0.401492224529013
  0
VERTEX
  5
B1
  8
CNC_FRIENDLY_RACK_AND_PINI
 10
-13.35157004824191
 20
-6.438161144363759
 30
0.0
 42
-0.0758916822381373
  0
VERTEX
  5
B2
  8
CNC_FRIENDLY_RACK_AND_PINI
 10
-12.86043147075043
 20
-4.864607494440035
 30
0.0
 42
-0.6435955454805403
  0
VERTEX
  5
B3
  8
CNC_FRIENDLY_RACK_AND_PINI
 10
-12.13956853194043
 20
-4.864607488527125
 30
0.0
 42
-0.0758916831321273
  0
VERTEX
  5
B4
  8
CNC_FRIENDLY_RACK_AND_PINI
 10
-11.64842995175809
 20
-6.438161144363759
 30
0.0
 42
0.4014922245289743
  0
VERTEX
  5
B5
  8
CNC_FRIENDLY_RACK_AND_PINI
 10
-10.0
 20
-8.016197999999916
 30
0.0
  0
SEQEND
  5
B6
  8
CNC_FRIENDLY_RACK_AND_PINI
  0
POLYLINE
  5
B7
  8
CNC_FRIENDLY_RACK_AND_PINI
 66
     1
 10
0.0
 20
0.0
 30
0.0
  0
VERTEX
  5
B8
  8
CNC_FRIENDLY_RACK_AND_PINI
 10
-10.00000000000002
 20
-8.016198000000001
 30
0.0
 42
0.4014922245290097
  0
VERTEX
  5
B9
  8
CNC_FRIENDLY_RACK_AND_PINI
 10
-8.351570048241912
 20
-6.438161144363759
 30
0.0
 42
-0.0758916822381367
  0
VERTEX
  5
BA
  8
CNC_FRIENDLY_RACK_AND_PINI
 10
-7.860431470750427
 20
-4.864607494440035
 30
0.0
 42
-0.643595545480536
  0
VERTEX
  5
BB
  8
CNC_FRIENDLY_RACK_AND_PINI
 10
-7.139568531940425
 20
-4.864607488527126
 30
0.0
 42
-0.0758916831321257
  0
VERTEX
  5
BC
  8
CNC_FRIENDLY_RACK_AND_PINI
 10
-6.648429951758089
 20
-6.438161144363759
 30
0.0
 42
0.4014922245289675
  0
VERTEX
  5
BD
  8
CNC_FRIENDLY_RACK_AND_PINI
 10
-5.0
 20
-8.016197999999916
 30
0.0
  0
SEQEND
  5
BE
  8
CNC_FRIENDLY_RACK_AND_PINI
  0
POLYLINE
  5
BF
  8
CNC_FRIENDLY_RACK_AND_PINI
 66
     1
 10
0.0
 20
0.0
 30
0.0
  0
VERTEX
  5
C0
  8
CNC_FRIENDLY_RACK_AND_PINI
 10
-5.000000000000043
 20
-8.016198000000001
 30
0.0
 42
0.4014922245290066
  0
VERTEX
  5
C1
  8
CNC_FRIENDLY_RACK_AND_PINI
 10
-3.35157004824191
 20
-6.438161144363759
 30
0.0
 42
-0.0758916822381359
  0
VERTEX
  5
C2
  8
CNC_FRIENDLY_RACK_AND_PINI
 10
-2.860431470750428
 20
-4.864607494440035
 30
0.0
 42
-0.6435955454805353
  0
VERTEX
  5
C3
  8
CNC_FRIENDLY_RACK_AND_PINI
 10
-2.139568531940427
 20
-4.864607488527126
 30
0.0
 42
-0.0758916831321274
  0
VERTEX
  5
C4
  8
CNC_FRIENDLY_RACK_AND_PINI
 10
-1.648429951758089
 20
-6.438161144363759
 30
0.0
 42
0.4014922245289599
  0
VERTEX
  5
C5
  8
CNC_FRIENDLY_RACK_AND_PINI
 10
-0.0000000000000003
 20
-8.016197999999916
 30
0.0
  0
SEQEND
  5
C6
  8
CNC_FRIENDLY_RACK_AND_PINI
  0
POLYLINE
  5
C7
  8
CNC_FRIENDLY_RACK_AND_PINI
 66
     1
 10
0.0
 20
0.0
 30
0.0
  0
VERTEX
  5
C8
  8
CNC_FRIENDLY_RACK_AND_PINI
 10
-0.0000000000000644
 20
-8.016198000000001
 30
0.0
 42
0.401492224529003
  0
VERTEX
  5
C9
  8
CNC_FRIENDLY_RACK_AND_PINI
 10
1.648429951758087
 20
-6.438161144363759
 30
0.0
 42
-0.0758916822381393
  0
VERTEX
  5
CA
  8
CNC_FRIENDLY_RACK_AND_PINI
 10
2.139568529249573
 20
-4.864607494440035
 30
0.0
 42
-0.6435955454805353
  0
VERTEX
  5
CB
  8
CNC_FRIENDLY_RACK_AND_PINI
 10
2.860431468059574
 20
-4.864607488527126
 30
0.0
 42
-0.0758916831321275
  0
VERTEX
  5
CC
  8
CNC_FRIENDLY_RACK_AND_PINI
 10
3.35157004824191
 20
-6.438161144363758
 30
0.0
 42
0.4014922245289718
  0
VERTEX
  5
CD
  8
CNC_FRIENDLY_RACK_AND_PINI
 10
5.0
 20
-8.016197999999916
 30
0.0
  0
SEQEND
  5
CE
  8
CNC_FRIENDLY_RACK_AND_PINI
  0
POLYLINE
  5
CF
  8
CNC_FRIENDLY_RACK_AND_PINI
 66
     1
 10
0.0
 20
0.0
 30
0.0
  0
VERTEX
  5
D0
  8
CNC_FRIENDLY_RACK_AND_PINI
 10
5.000000000000027
 20
-8.016198000000001
 30
0.0
 42
0.4014922245290005
  0
VERTEX
  5
D1
  8
CNC_FRIENDLY_RACK_AND_PINI
 10
6.648429951758088
 20
-6.438161144363759
 30
0.0
 42
-0.0758916822381399
  0
VERTEX
  5
D2
  8
CNC_FRIENDLY_RACK_AND_PINI
 10
7.139568529249573
 20
-4.864607494440035
 30
0.0
 42
-0.6435955454805378
  0
VERTEX
  5
D3
  8
CNC_FRIENDLY_RACK_AND_PINI
 10
7.860431468059573
 20
-4.864607488527126
 30
0.0
 42
-0.0758916831321266
  0
VERTEX
  5
D4
  8
CNC_FRIENDLY_RACK_AND_PINI
 10
8.35157004824191
 20
-6.438161144363759
 30
0.0
 42
0.4014922245289645
  0
VERTEX
  5
D5
  8
CNC_FRIENDLY_RACK_AND_PINI
 10
10.0
 20
-8.016197999999916
 30
0.0
  0
SEQEND
  5
D6
  8
CNC_FRIENDLY_RACK_AND_PINI
  0
POLYLINE
  5
D7
  8
CNC_FRIENDLY_RACK_AND_PINI
 66
     1
 10
0.0
 20
0.0
 30
0.0
  0
VERTEX
  5
D8
  8
CNC_FRIENDLY_RACK_AND_PINI
 10
10.00000000000001
 20
-8.016198000000001
 30
0.0
 42
0.4014922245289964
  0
VERTEX
  5
D9
  8
CNC_FRIENDLY_RACK_AND_PINI
 10
11.64842995175809
 20
-6.438161144363759
 30
0.0
 42
-0.0758916822381433
  0
VERTEX
  5
DA
  8
CNC_FRIENDLY_RACK_AND_PINI
 10
12.13956852924957
 20
-4.864607494440035
 30
0.0
 42
-0.6435955454805403
  0
VERTEX
  5
DB
  8
CNC_FRIENDLY_RACK_AND_PINI
 10
12.86043146805957
 20
-4.864607488527127
 30
0.0
 42
-0.0758916831321286
  0
VERTEX
  5
DC
  8
CNC_FRIENDLY_RACK_AND_PINI
 10
13.35157004824191
 20
-6.438161144363758
 30
0.0
 42
0.4014922245289784
  0
VERTEX
  5
DD
  8
CNC_FRIENDLY_RACK_AND_PINI
 10
15.0
 20
-8.016197999999914
 30
0.0
  0
SEQEND
  5
DE
  8
CNC_FRIENDLY_RACK_AND_PINI
  0
POLYLINE
  5
DF
  8
CNC_FRIENDLY_RACK_AND_PINI
 66
     1
 10
0.0
 20
0.0
 30
0.0
  0
VERTEX
  5
E0
  8
CNC_FRIENDLY_RACK_AND_PINI
 10
14.99999999999998
 20
-8.016198000000001
 30
0.0
 42
0.4014922245290131
  0
VERTEX
  5
E1
  8
CNC_FRIENDLY_RACK_AND_PINI
 10
16.64842995175809
 20
-6.438161144363759
 30
0.0
 42
-0.0758916822381428
  0
VERTEX
  5
E2
  8
CNC_FRIENDLY_RACK_AND_PINI
 10
17.13956852924957
 20
-4.864607494440033
 30
0.0
 42
-0.6435955454805385
  0
VERTEX
  5
E3
  8
CNC_FRIENDLY_RACK_AND_PINI
 10
17.86043146805958
 20
-4.864607488527124
 30
0.0
 42
-0.0758916831321261
  0
VERTEX
  5
E4
  8
CNC_FRIENDLY_RACK_AND_PINI
 10
18.35157004824191
 20
-6.43816114436376
 30
0.0
 42
0.4014922245289706
  0
VERTEX
  5
E5
  8
CNC_FRIENDLY_RACK_AND_PINI
 10
20.0
 20
-8.016197999999914
 30
0.0
  0
SEQEND
  5
E6
  8
CNC_FRIENDLY_RACK_AND_PINI
  0
POLYLINE
  5
E7
  8
CNC_FRIENDLY_RACK_AND_PINI
 66
     1
 10
0.0
 20
0.0
 30
0.0
  0
VERTEX
  5
E8
  8
CNC_FRIENDLY_RACK_AND_PINI
 10
19.99999999999996
 20
-8.016198000000001
 30
0.0
 42
0.4014922245290076
  0
VERTEX
  5
E9
  8
CNC_FRIENDLY_RACK_AND_PINI
 10
21.64842995175809
 20
-6.438161144363759
 30
0.0
 42
-0.0758916822381474
  0
VERTEX
  5
EA
  8
CNC_FRIENDLY_RACK_AND_PINI
 10
22.13956852924957
 20
-4.864607494440035
 30
0.0
 42
-0.6435955454806414
  0
VERTEX
  5
EB
  8
CNC_FRIENDLY_RACK_AND_PINI
 10
22.86043146805946
 20
-4.864607488527127
 30
0.0
 42
-0.0758916831321901
  0
VERTEX
  5
EC
  8
CNC_FRIENDLY_RACK_AND_PINI
 10
23.3515700482419
 20
-6.438161144363759
 30
0.0
 42
0.4014922245289603
  0
VERTEX
  5
ED
  8
CNC_FRIENDLY_RACK_AND_PINI
 10
25.0
 20
-8.016197999999916
 30
0.0
  0
SEQEND
  5
EE
  8
CNC_FRIENDLY_RACK_AND_PINI
  0
POLYLINE
  5
EF
  8
CNC_FRIENDLY_RACK_AND_PINI
 66
     1
 10
0.0
 20
0.0
 30
0.0
  0
VERTEX
  5
F0
  8
CNC_FRIENDLY_RACK_AND_PINI
 10
24.99999999999994
 20
-8.016198000000001
 30
0.0
 42
0.4014922245290045
  0
VERTEX
  5
F1
  8
CNC_FRIENDLY_RACK_AND_PINI
 10
26.64842995175809
 20
-6.438161144363759
 30
0.0
 42
-0.0758916822381473
  0
VERTEX
  5
F2
  8
CNC_FRIENDLY_RACK_AND_PINI
 10
27.13956852924957
 20
-4.864607494440032
 30
0.0
 42
-0.6435955454806358
  0
VERTEX
  5
F3
  8
CNC_FRIENDLY_RACK_AND_PINI
 10
27.86043146805946
 20
-4.864607488527126
 30
0.0
 42
-0.0758916831321857
  0
VERTEX
  5
F4
  8
CNC_FRIENDLY_RACK_AND_PINI
 10
28.35157004824191
 20
-6.438161144363759
 30
0.0
 42
0.4014922245289733
  0
VERTEX
  5
F5
  8
CNC_FRIENDLY_RACK_AND_PINI
 10
30.0
 20
-8.016197999999916
 30
0.0
  0
SEQEND
  5
F6
  8
CNC_FRIENDLY_RACK_AND_PINI
  0
POLYLINE
  5
F7
  8
CNC_FRIENDLY_RACK_AND_PINI
 66
     1
 10
0.0
 20
0.0
 30
0.0
  0
VERTEX
  5
F8
  8
CNC_FRIENDLY_RACK_AND_PINI
 10
29.99999999999991
 20
-8.016198000000001
 30
0.0
 42
0.4014922245290015
  0
VERTEX
  5
F9
  8
CNC_FRIENDLY_RACK_AND_PINI
 10
31.64842995175809
 20
-6.438161144363759
 30
0.0
 42
-0.0758916822381518
  0
VERTEX
  5
FA
  8
CNC_FRIENDLY_RACK_AND_PINI
 10
32.13956852924957
 20
-4.864607494440035
 30
0.0
 42
-0.6435955454806392
  0
VERTEX
  5
FB
  8
CNC_FRIENDLY_RACK_AND_PINI
 10
32.86043146805945
 20
-4.864607488527129
 30
0.0
 42
-0.0758916831321931
  0
VERTEX
  5
FC
  8
CNC_FRIENDLY_RACK_AND_PINI
 10
33.35157004824191
 20
-6.438161144363759
 30
0.0
 42
0.4014922245289642
  0
VERTEX
  5
FD
  8
CNC_FRIENDLY_RACK_AND_PINI
 10
35.0
 20
-8.01619799999992
 30
0.0
  0
SEQEND
  5
FE
  8
CNC_FRIENDLY_RACK_AND_PINI
  0
POLYLINE
  5
FF
  8
CNC_FRIENDLY_RACK_AND_PINI
 66
     1
 10
0.0
 20
0.0
 30
0.0
  0
VERTEX
  5
100
  8
CNC_FRIENDLY_RACK_AND_PINI
 10
35.00000000000001
 20
-8.016198000000001
 30
0.0
 42
0.4014922245290161
  0
VERTEX
  5
101
  8
CNC_FRIENDLY_RACK_AND_PINI
 10
36.64842995175809
 20
-6.438161144363759
 30
0.0
 42
-0.0758916822381517
  0
VERTEX
  5
102
  8
CNC_FRIENDLY_RACK_AND_PINI
 10
37.13956852924957
 20
-4.864607494440035
 30
0.0
 42
-0.6435955454806369
  0
VERTEX
  5
103
  8
CNC_FRIENDLY_RACK_AND_PINI
 10
37.86043146805946
 20
-4.864607488527124
 30
0.0
 42
-0.0758916831321898
  0
VERTEX
  5
104
  8
CNC_FRIENDLY_RACK_AND_PINI
 10
38.35157004824191
 20
-6.438161144363759
 30
0.0
 42
0.4014922245289809
  0
VERTEX
  5
105
  8
CNC_FRIENDLY_RACK_AND_PINI
 10
40.0
 20
-8.016197999999918
 30
0.0
  0
SEQEND
  5
106
  8
CNC_FRIENDLY_RACK_AND_PINI
  0
POLYLINE
  5
107
  8
CNC_FRIENDLY_RACK_AND_PINI
 66
     1
 10
0.0
 20
0.0
 30
0.0
  0
VERTEX
  5
108
  8
CNC_FRIENDLY_RACK_AND_PINI
 10
39.99999999999999
 20
-8.016198000000001
 30
0.0
 42
0.401492224529009
  0
VERTEX
  5
109
  8
CNC_FRIENDLY_RACK_AND_PINI
 10
41.64842995175808
 20
-6.438161144363758
 30
0.0
 42
-0.0758916822381496
  0
VERTEX
  5
10A
  8
CNC_FRIENDLY_RACK_AND_PINI
 10
42.13956852924957
 20
-4.864607494440035
 30
0.0
 42
-0.6435955454806428
  0
VERTEX
  5
10B
  8
CNC_FRIENDLY_RACK_AND_PINI
 10
42.86043146805947
 20
-4.864607488527124
 30
0.0
 42
-0.0758916831321882
  0
VERTEX
  5
10C
  8
CNC_FRIENDLY_RACK_AND_PINI
 10
43.35157004824191
 20
-6.43816114436376
 30
0.0
 42
0.4014922245289751
  0
VERTEX
  5
10D
  8
CNC_FRIENDLY_RACK_AND_PINI
 10
45.0
 20
-8.016197999999909
 30
0.0
  0
SEQEND
  5
10E
  8
CNC_FRIENDLY_RACK_AND_PINI
  0
POLYLINE
  5
10F
  8
CNC_FRIENDLY_RACK_AND_PINI
 66
     1
 10
0.0
 20
0.0
 30
0.0
  0
VERTEX
  5
110
  8
CNC_FRIENDLY_RACK_AND_PINI
 10
44.99999999999996
 20
-8.016198000000001
 30
0.0
 42
0.4014922245290107
  0
VERTEX
  5
111
  8
CNC_FRIENDLY_RACK_AND_PINI
 10
46.64842995175809
 20
-6.438161144363759
 30
0.0
 42
-0.0758916822381519
  0
VERTEX
  5
112
  8
CNC_FRIENDLY_RACK_AND_PINI
 10
47.13956852924957
 20
-4.864607494440035
 30
0.0
 42
-0.6435955454806495
  0
VERTEX
  5
113
  8
CNC_FRIENDLY_RACK_AND_PINI
 10
47.86043146805945
 20
-4.864607488527129
 30
0.0
 42
-0.0758916831321841
  0
VERTEX
  5
114
  8
CNC_FRIENDLY_RACK_AND_PINI
 10
48.35157004824191
 20
-6.438161144363759
 30
0.0
 42
0.4014922245289629
  0
VERTEX
  5
115
  8
CNC_FRIENDLY_RACK_AND_PINI
 10
50.0
 20
-8.016197999999926
 30
0.0
  0
SEQEND
  5
116
  8
CNC_FRIENDLY_RACK_AND_PINI
  0
POLYLINE
  5
117
  8
CNC_FRIENDLY_RACK_AND_PINI
 66
     1
 10
0.0
 20
0.0
 30
0.0
  0
VERTEX
  5
118
  8
CNC_FRIENDLY_RACK_AND_PINI
 10
49.99999999999994
 20
-8.016198000000001
 30
0.0
 42
0.4014922245290048
  0
VERTEX
  5
119
  8
CNC_FRIENDLY_RACK_AND_PINI
 10
51.6484299517581
 20
-6.438161144363758
 30
0.0
 42
-0.0758916822381616
  0
VERTEX
  5
11A
  8
CNC_FRIENDLY_RACK_AND_PINI
 10
52.13956852924957
 20
-4.864607494440035
 30
0.0
 42
-0.6435955454806392
  0
VERTEX
  5
11B
  8
CNC_FRIENDLY_RACK_AND_PINI
 10
52.86043146805945
 20
-4.864607488527129
 30
0.0
 42
-0.0758916831321918
  0
VERTEX
  5
11C
  8
CNC_FRIENDLY_RACK_AND_PINI
 10
53.35157004824191
 20
-6.438161144363759
 30
0.0
 42
0.4014922245289572
  0
VERTEX
  5
11D
  8
CNC_FRIENDLY_RACK_AND_PINI
 10
55.0
 20
-8.016197999999914
 30
0.0
  0
SEQEND
  5
11E
  8
CNC_FRIENDLY_RACK_AND_PINI
  0
POLYLINE
  5
11F
  8
CNC_FRIENDLY_RACK_AND_PINI
 66
     1
 10
0.0
 20
0.0
 30
0.0
  0
VERTEX
  5
120
  8
CNC_FRIENDLY_RACK_AND_PINI
 10
55.00000000000004
 20
-8.016198000000001
 30
0.0
 42
0.4014922245290024
  0
VERTEX
  5
121
  8
CNC_FRIENDLY_RACK_AND_PINI
 10
56.64842995175809
 20
-6.438161144363759
 30
0.0
 42
-0.0758916822381602
  0
VERTEX
  5
122
  8
CNC_FRIENDLY_RACK_AND_PINI
 10
57.13956852924957
 20
-4.864607494440035
 30
0.0
 42
-0.6435955454806495
  0
VERTEX
  5
123
  8
CNC_FRIENDLY_RACK_AND_PINI
 10
57.86043146805945
 20
-4.86460748852713
 30
0.0
 42
-0.0758916831321926
  0
VERTEX
  5
124
  8
CNC_FRIENDLY_RACK_AND_PINI
 10
58.35157004824191
 20
-6.438161144363758
 30
0.0
 42
0.4014922245289748
  0
VERTEX
  5
125
  8
CNC_FRIENDLY_RACK_AND_PINI
 10
60.0
 20
-8.016197999999907
 30
0.0
  0
SEQEND
  5
126
  8
CNC_FRIENDLY_RACK_AND_PINI
  0
POLYLINE
  5
127
  8
CNC_FRIENDLY_RACK_AND_PINI
 66
     1
 10
0.0
 20
0.0
 30
0.0
  0
VERTEX
  5
128
  8
CNC_FRIENDLY_RACK_AND_PINI
 10
60.00000000000001
 20
-8.016198000000001
 30
0.0
 42
0.4014922245289974
  0
VERTEX
  5
129
  8
CNC_FRIENDLY_RACK_AND_PINI
 10
61.64842995175809
 20
-6.438161144363759
 30
0.0
 42
-0.0758916822381582
  0
VERTEX
  5
12A
  8
CNC_FRIENDLY_RACK_AND_PINI
 10
62.13956852924957
 20
-4.864607494440035
 30
0.0
 42
-0.6435955454806392
  0
VERTEX
  5
12B
  8
CNC_FRIENDLY_RACK_AND_PINI
 10
62.86043146805945
 20
-4.864607488527129
 30
0.0
 42
-0.0758916831321918
  0
VERTEX
  5
12C
  8
CNC_FRIENDLY_RACK_AND_PINI
 10
63.35157004824191
 20
-6.438161144363759
 30
0.0
 42
0.4014922245289844
  0
VERTEX
  5
12D
  8
CNC_FRIENDLY_RACK_AND_PINI
 10
65.0
 20
-8.016197999999909
 30
0.0
  0
SEQEND
  5
12E
  8
CNC_FRIENDLY_RACK_AND_PINI
  0
POLYLINE
  5
12F
  8
CNC_FRIENDLY_RACK_AND_PINI
 66
     1
 10
0.0
 20
0.0
 30
0.0
  0
VERTEX
  5
130
  8
CNC_FRIENDLY_RACK_AND_PINI
 10
65.0
 20
-8.016198000000001
 30
0.0
 42
0.4014922245289925
  0
VERTEX
  5
131
  8
CNC_FRIENDLY_RACK_AND_PINI
 10
66.64842995175809
 20
-6.438161144363759
 30
0.0
 42
-0.0758916822381603
  0
VERTEX
  5
132
  8
CNC_FRIENDLY_RACK_AND_PINI
 10
67.13956852924957
 20
-4.864607494440035
 30
0.0
 42
-0.643595545480632
  0
VERTEX
  5
133
  8
CNC_FRIENDLY_RACK_AND_PINI
 10
67.86043146805945
 20
-4.864607488527128
 30
0.0
 42
-0.075891683132195
  0
VERTEX
  5
134
  8
CNC_FRIENDLY_RACK_AND_PINI
 10
68.35157004824191
 20
-6.438161144363759
 30
0.0
 42
0.4014922245289797
  0
VERTEX
  5
135
  8
CNC_FRIENDLY_RACK_AND_PINI
 10
70.0
 20
-8.016197999999928
 30
0.0
  0
SEQEND
  5
136
  8
CNC_FRIENDLY_RACK_AND_PINI
  0
POLYLINE
  5
137
  8
CNC_FRIENDLY_RACK_AND_PINI
 66
     1
 10
0.0
 20
0.0
 30
0.0
  0
VERTEX
  5
138
  8
CNC_FRIENDLY_RACK_AND_PINI
 10
69.99999999999997
 20
-8.016198000000001
 30
0.0
 42
0.401492224529007
  0
VERTEX
  5
139
  8
CNC_FRIENDLY_RACK_AND_PINI
 10
71.64842995175809
 20
-6.438161144363759
 30
0.0
 42
-0.0758916822381603
  0
VERTEX
  5
13A
  8
CNC_FRIENDLY_RACK_AND_PINI
 10
72.13956852924957
 20
-4.864607494440035
 30
0.0
 42
-0.643595545480632
  0
VERTEX
  5
13B
  8
CNC_FRIENDLY_RACK_AND_PINI
 10
72.86043146805945
 20
-4.864607488527129
 30
0.0
 42
-0.0758916831321786
  0
VERTEX
  5
13C
  8
CNC_FRIENDLY_RACK_AND_PINI
 10
73.35157004824191
 20
-6.438161144363759
 30
0.0
 42
0.4014922245289677
  0
VERTEX
  5
13D
  8
CNC_FRIENDLY_RACK_AND_PINI
 10
75.0
 20
-8.016197999999921
 30
0.0
  0
SEQEND
  5
13E
  8
CNC_FRIENDLY_RACK_AND_PINI
  0
POLYLINE
  5
13F
  8
CNC_FRIENDLY_RACK_AND_PINI
 66
     1
 10
0.0
 20
0.0
 30
0.0
  0
VERTEX
  5
140
  8
CNC_FRIENDLY_RACK_AND_PINI
 10
74.99999999999996
 20
-8.016198000000001
 30
0.0
 42
0.4014922245290071
  0
VERTEX
  5
141
  8
CNC_FRIENDLY_RACK_AND_PINI
 10
76.64842995175809
 20
-6.438161144363759
 30
0.0
 42
-0.0758916822382272
  0
VERTEX
  5
142
  8
CNC_FRIENDLY_RACK_AND_PINI
 10
77.13956852924957
 20
-4.864607494440035
 30
0.0
 42
-0.643595545480589
  0
VERTEX
  5
143
  8
CNC_FRIENDLY_RACK_AND_PINI
 10
77.8604314680595
 20
-4.864607488527129
 30
0.0
 42
-0.0758916831322183
  0
VERTEX
  5
144
  8
CNC_FRIENDLY_RACK_AND_PINI
 10
78.35157004824191
 20
-6.438161144363758
 30
0.0
 42
0.4014922245289649
  0
VERTEX
  5
145
  8
CNC_FRIENDLY_RACK_AND_PINI
 10
80.0
 20
-8.01619799999991
 30
0.0
  0
SEQEND
  5
146
  8
CNC_FRIENDLY_RACK_AND_PINI
  0
POLYLINE
  5
147
  8
CNC_FRIENDLY_RACK_AND_PINI
 66
     1
 10
0.0
 20
0.0
 30
0.0
  0
VERTEX
  5
148
  8
CNC_FRIENDLY_RACK_AND_PINI
 10
79.99999999999999
 20
-8.016198000000001
 30
0.0
 42
0.4014922245289999
  0
VERTEX
  5
149
  8
CNC_FRIENDLY_RACK_AND_PINI
 10
81.64842995175808
 20
-6.438161144363759
 30
0.0
 42
-0.0758916822382389
  0
VERTEX
  5
14A
  8
CNC_FRIENDLY_RACK_AND_PINI
 10
82.13956852924957
 20
-4.864607494440035
 30
0.0
 42
-0.643595545480564
  0
VERTEX
  5
14B
  8
CNC_FRIENDLY_RACK_AND_PINI
 10
82.86043146805953
 20
-4.864607488527119
 30
0.0
 42
-0.0758916831322401
  0
VERTEX
  5
14C
  8
CNC_FRIENDLY_RACK_AND_PINI
 10
83.35157004824191
 20
-6.438161144363759
 30
0.0
 42
0.4014922245289677
  0
VERTEX
  5
14D
  8
CNC_FRIENDLY_RACK_AND_PINI
 10
85.0
 20
-8.016197999999921
 30
0.0
  0
SEQEND
  5
14E
  8
CNC_FRIENDLY_RACK_AND_PINI
  0
POLYLINE
  5
14F
  8
CNC_FRIENDLY_RACK_AND_PINI
 66
     1
 10
0.0
 20
0.0
 30
0.0
  0
VERTEX
  5
150
  8
CNC_FRIENDLY_RACK_AND_PINI
 10
85.00000000000001
 20
-8.016198000000001
 30
0.0
 42
0.4014922245290027
  0
VERTEX
  5
151
  8
CNC_FRIENDLY_RACK_AND_PINI
 10
86.6484299517581
 20
-6.438161144363759
 30
0.0
 42
-0.0758916822382319
  0
VERTEX
  5
152
  8
CNC_FRIENDLY_RACK_AND_PINI
 10
87.13956852924957
 20
-4.864607494440035
 30
0.0
 42
-0.6435955454805992
  0
VERTEX
  5
153
  8
CNC_FRIENDLY_RACK_AND_PINI
 10
87.86043146805952
 20
-4.864607488527129
 30
0.0
 42
-0.07589168313223
  0
VERTEX
  5
154
  8
CNC_FRIENDLY_RACK_AND_PINI
 10
88.35157004824191
 20
-6.43816114436376
 30
0.0
 42
0.4014922245289878
  0
VERTEX
  5
155
  8
CNC_FRIENDLY_RACK_AND_PINI
 10
90.0
 20
-8.01619799999991
 30
0.0
  0
SEQEND
  5
156
  8
CNC_FRIENDLY_RACK_AND_PINI
  0
POLYLINE
  5
157
  8
CNC_FRIENDLY_RACK_AND_PINI
 66
     1
 10
0.0
 20
0.0
 30
0.0
  0
VERTEX
  5
158
  8
CNC_FRIENDLY_RACK_AND_PINI
 10
90.0
 20
-8.016198000000001
 30
0.0
 42
0.4014922245290063
  0
VERTEX
  5
159
  8
CNC_FRIENDLY_RACK_AND_PINI
 10
91.6484299517581
 20
-6.438161144363761
 30
0.0
 42
-0.0758916822382319
  0
VERTEX
  5
15A
  8
CNC_FRIENDLY_RACK_AND_PINI
 10
92.13956852924957
 20
-4.864607494440035
 30
0.0
 42
-0.6435955454805369
  0
VERTEX
  5
15B
  8
CNC_FRIENDLY_RACK_AND_PINI
 10
92.86043146805956
 20
-4.864607488527128
 30
0.0
 42
-0.075891683132205
  0
VERTEX
  5
15C
  8
CNC_FRIENDLY_RACK_AND_PINI
 10
93.35157004824191
 20
-6.438161144363758
 30
0.0
 42
0.4014922245289808
  0
VERTEX
  5
15D
  8
CNC_FRIENDLY_RACK_AND_PINI
 10
95.0
 20
-8.016197999999934
 30
0.0
  0
SEQEND
  5
15E
  8
CNC_FRIENDLY_RACK_AND_PINI
  0
POLYLINE
  5
15F
  8
CNC_FRIENDLY_RACK_AND_PINI
 66
     1
 10
0.0
 20
0.0
 30
0.0
  0
VERTEX
  5
160
  8
CNC_FRIENDLY_RACK_AND_PINI
 10
94.99999999999997
 20
-8.016198000000001
 30
0.0
 42
0.4014922245290056
  0
VERTEX
  5
161
  8
CNC_FRIENDLY_RACK_AND_PINI
 10
96.64842995175808
 20
-6.438161144363758
 30
0.0
 42
-0.0758916822382393
  0
VERTEX
  5
162
  8
CNC_FRIENDLY_RACK_AND_PINI
 10
97.13956852924957
 20
-4.864607494440035
 30
0.0
 42
-0.6435955454805435
  0
VERTEX
  5
163
  8
CNC_FRIENDLY_RACK_AND_PINI
 10
97.86043146805959
 20
-4.86460748852712
 30
0.0
 42
-0.0758916831321962
  0
VERTEX
  5
164
  8
CNC_FRIENDLY_RACK_AND_PINI
 10
98.35157004824191
 20
-6.438161144363759
 30
0.0
 42
0.4014922245289721
  0
VERTEX
  5
165
  8
CNC_FRIENDLY_RACK_AND_PINI
 10
100.0
 20
-8.016197999999916
 30
0.0
  0
SEQEND
  5
166
  8
CNC_FRIENDLY_RACK_AND_PINI
  0
POLYLINE
  5
167
  8
CNC_FRIENDLY_RACK_AND_PINI
 66
     1
 10
0.0
 20
0.0
 30
0.0
  0
VERTEX
  5
168
  8
CNC_FRIENDLY_RACK_AND_PINI
 10
99.99999999999996
 20
-8.016198000000001
 30
0.0
 42
0.4014922245290071
  0
VERTEX
  5
169
  8
CNC_FRIENDLY_RACK_AND_PINI
 10
101.6484299517581
 20
-6.438161144363759
 30
0.0
 42
-0.0758916822382607
  0
VERTEX
  5
16A
  8
CNC_FRIENDLY_RACK_AND_PINI
 10
102.1395685292496
 20
-4.864607494440033
 30
0.0
 42
-0.6435955454805692
  0
VERTEX
  5
16B
  8
CNC_FRIENDLY_RACK_AND_PINI
 10
102.8604314680596
 20
-4.86460748852713
 30
0.0
 42
-0.0758916831322167
  0
VERTEX
  5
16C
  8
CNC_FRIENDLY_RACK_AND_PINI
 10
103.3515700482419
 20
-6.438161144363759
 30
0.0
 42
0.4014922245289613
  0
VERTEX
  5
16D
  8
CNC_FRIENDLY_RACK_AND_PINI
 10
105.0
 20
-8.016197999999921
 30
0.0
  0
SEQEND
  5
16E
  8
CNC_FRIENDLY_RACK_AND_PINI
  0
POLYLINE
  5
16F
  8
CNC_FRIENDLY_RACK_AND_PINI
 66
     1
 10
0.0
 20
0.0
 30
0.0
  0
VERTEX
  5
170
  8
CNC_FRIENDLY_RACK_AND_PINI
 10
105.0
 20
-8.016198000000001
 30
0.0
 42
0.4014922245290102
  0
VERTEX
  5
171
  8
CNC_FRIENDLY_RACK_AND_PINI
 10
106.6484299517581
 20
-6.438161144363759
 30
0.0
 42
-0.0758916822382274
  0
VERTEX
  5
172
  8
CNC_FRIENDLY_RACK_AND_PINI
 10
107.1395685292496
 20
-4.864607494440035
 30
0.0
 42
-0.6435955454805435
  0
VERTEX
  5
173
  8
CNC_FRIENDLY_RACK_AND_PINI
 10
107.8604314680596
 20
-4.864607488527119
 30
0.0
 42
-0.0758916831321951
  0
VERTEX
  5
174
  8
CNC_FRIENDLY_RACK_AND_PINI
 10
108.3515700482419
 20
-6.438161144363758
 30
0.0
 42
0.4014922245289763
  0
VERTEX
  5
175
  8
CNC_FRIENDLY_RACK_AND_PINI
 10
110.0
 20
-8.016197999999916
 30
0.0
  0
SEQEND
  5
176
  8
CNC_FRIENDLY_RACK_AND_PINI
  0
POLYLINE
  5
177
  8
CNC_FRIENDLY_RACK_AND_PINI
 66
     1
 10
0.0
 20
0.0
 30
0.0
  0
VERTEX
  5
178
  8
CNC_FRIENDLY_RACK_AND_PINI
 10
110.0
 20
-8.016198000000001
 30
0.0
 42
0.4014922245290093
  0
VERTEX
  5
179
  8
CNC_FRIENDLY_RACK_AND_PINI
 10
111.6484299517581
 20
-6.438161144363758
 30
0.0
 42
-0.0758916822382321
  0
VERTEX
  5
17A
  8
CNC_FRIENDLY_RACK_AND_PINI
 10
112.1395685292496
 20
-4.864607494440035
 30
0.0
 42
-0.6435955454805593
  0
VERTEX
  5
17B
  8
CNC_FRIENDLY_RACK_AND_PINI
 10
112.8604314680596
 20
-4.864607488527129
 30
0.0
 42
-0.0758916831321852
  0
VERTEX
  5
17C
  8
CNC_FRIENDLY_RACK_AND_PINI
 10
113.3515700482419
 20
-6.438161144363759
 30
0.0
 42
0.4014922245289929
  0
VERTEX
  5
17D
  8
CNC_FRIENDLY_RACK_AND_PINI
 10
115.0
 20
-8.01619799999991
 30
0.0
  0
SEQEND
  5
17E
  8
CNC_FRIENDLY_RACK_AND_PINI
  0
POLYLINE
  5
17F
  8
CNC_FRIENDLY_RACK_AND_PINI
 66
     1
 10
0.0
 20
0.0
 30
0.0
  0
VERTEX
  5
180
  8
CNC_FRIENDLY_RACK_AND_PINI
 10
115.0
 20
-8.016198000000001
 30
0.0
 42
0.4014922245289981
  0
VERTEX
  5
181
  8
CNC_FRIENDLY_RACK_AND_PINI
 10
116.6484299517581
 20
-6.438161144363759
 30
0.0
 42
-0.0758916822382438
  0
VERTEX
  5
182
  8
CNC_FRIENDLY_RACK_AND_PINI
 10
117.1395685292496
 20
-4.864607494440035
 30
0.0
 42
-0.6435955454805435
  0
VERTEX
  5
183
  8
CNC_FRIENDLY_RACK_AND_PINI
 10
117.8604314680596
 20
-4.864607488527119
 30
0.0
 42
-0.0758916831322113
  0
VERTEX
  5
184
  8
CNC_FRIENDLY_RACK_AND_PINI
 10
118.3515700482419
 20
-6.438161144363758
 30
0.0
 42
0.4014922245289808
  0
VERTEX
  5
185
  8
CNC_FRIENDLY_RACK_AND_PINI
 10
120.0
 20
-8.016197999999934
 30
0.0
  0
SEQEND
  5
186
  8
CNC_FRIENDLY_RACK_AND_PINI
  0
POLYLINE
  5
187
  8
CNC_FRIENDLY_RACK_AND_PINI
 66
     1
 10
0.0
 20
0.0
 30
0.0
  0
VERTEX
  5
188
  8
CNC_FRIENDLY_RACK_AND_PINI
 10
120.0
 20
-8.016198000000001
 30
0.0
 42
0.401492224528999
  0
VERTEX
  5
189
  8
CNC_FRIENDLY_RACK_AND_PINI
 10
121.6484299517581
 20
-6.438161144363759
 30
0.0
 42
-0.0758916822382605
  0
VERTEX
  5
18A
  8
CNC_FRIENDLY_RACK_AND_PINI
 10
122.1395685292496
 20
-4.864607494440035
 30
0.0
 42
-0.6435955454805435
  0
VERTEX
  5
18B
  8
CNC_FRIENDLY_RACK_AND_PINI
 10
122.8604314680596
 20
-4.86460748852712
 30
0.0
 42
-0.0758916831321959
  0
VERTEX
  5
18C
  8
CNC_FRIENDLY_RACK_AND_PINI
 10
123.3515700482419
 20
-6.438161144363759
 30
0.0
 42
0.4014922245289677
  0
VERTEX
  5
18D
  8
CNC_FRIENDLY_RACK_AND_PINI
 10
125.0
 20
-8.016197999999921
 30
0.0
  0
SEQEND
  5
18E
  8
CNC_FRIENDLY_RACK_AND_PINI
  0
POLYLINE
  5
18F
  8
CNC_FRIENDLY_RACK_AND_PINI
 66
     1
 10
0.0
 20
0.0
 30
0.0
  0
VERTEX
  5
190
  8
CNC_FRIENDLY_RACK_AND_PINI
 10
125.0
 20
-8.016198000000001
 30
0.0
 42
0.4014922245289897
  0
VERTEX
  5
191
  8
CNC_FRIENDLY_RACK_AND_PINI
 10
126.6484299517581
 20
-6.438161144363759
 30
0.0
 42
-0.0758916822382443
  0
VERTEX
  5
192
  8
CNC_FRIENDLY_RACK_AND_PINI
 10
127.1395685292496
 20
-4.864607494440038
 30
0.0
 42
-0.6435955454805562
  0
VERTEX
  5
193
  8
CNC_FRIENDLY_RACK_AND_PINI
 10
127.8604314680595
 20
-4.864607488527131
 30
0.0
 42
-0.0758916831321725
  0
VERTEX
  5
194
  8
CNC_FRIENDLY_RACK_AND_PINI
 10
128.3515700482419
 20
-6.43816114436376
 30
0.0
 42
0.4014922245289546
  0
VERTEX
  5
195
  8
CNC_FRIENDLY_RACK_AND_PINI
 10
130.0
 20
-8.016197999999925
 30
0.0
  0
SEQEND
  5
196
  8
CNC_FRIENDLY_RACK_AND_PINI
  0
POLYLINE
  5
197
  8
CNC_FRIENDLY_RACK_AND_PINI
 66
     1
 10
0.0
 20
0.0
 30
0.0
  0
VERTEX
  5
198
  8
CNC_FRIENDLY_RACK_AND_PINI
 10
130.0
 20
-8.016198000000001
 30
0.0
 42
0.4014922245289795
  0
VERTEX
  5
199
  8
CNC_FRIENDLY_RACK_AND_PINI
 10
131.6484299517581
 20
-6.438161144363759
 30
0.0
 42
-0.0758916822382611
  0
VERTEX
  5
19A
  8
CNC_FRIENDLY_RACK_AND_PINI
 10
132.1395685292496
 20
-4.864607494440035
 30
0.0
 42
-0.6435955454805689
  0
VERTEX
  5
19B
  8
CNC_FRIENDLY_RACK_AND_PINI
 10
132.8604314680596
 20
-4.86460748852712
 30
0.0
 42
-0.0758916831322334
  0
VERTEX
  5
19C
  8
CNC_FRIENDLY_RACK_AND_PINI
 10
133.3515700482419
 20
-6.438161144363759
 30
0.0
 42
0.4014922245289858
  0
VERTEX
  5
19D
  8
CNC_FRIENDLY_RACK_AND_PINI
 10
135.0
 20
-8.0161979999999
 30
0.0
  0
SEQEND
  5
19E
  8
CNC_FRIENDLY_RACK_AND_PINI
  0
POLYLINE
  5
19F
  8
CNC_FRIENDLY_RACK_AND_PINI
 66
     1
 10
0.0
 20
0.0
 30
0.0
  0
VERTEX
  5
1A0
  8
CNC_FRIENDLY_RACK_AND_PINI
 10
135.0
 20
-8.016198000000001
 30
0.0
 42
0.4014922245290187
  0
VERTEX
  5
1A1
  8
CNC_FRIENDLY_RACK_AND_PINI
 10
136.6484299517581
 20
-6.438161144363759
 30
0.0
 42
-0.0758916822382951
  0
VERTEX
  5
1A2
  8
CNC_FRIENDLY_RACK_AND_PINI
 10
137.1395685292496
 20
-4.864607494440035
 30
0.0
 42
-0.6435955454805689
  0
VERTEX
  5
1A3
  8
CNC_FRIENDLY_RACK_AND_PINI
 10
137.8604314680596
 20
-4.86460748852712
 30
0.0
 42
-0.0758916831321667
  0
VERTEX
  5
1A4
  8
CNC_FRIENDLY_RACK_AND_PINI
 10
138.3515700482419
 20
-6.438161144363759
 30
0.0
 42
0.4014922245289657
  0
VERTEX
  5
1A5
  8
CNC_FRIENDLY_RACK_AND_PINI
 10
140.0
 20
-8.016197999999914
 30
0.0
  0
SEQEND
  5
1A6
  8
CNC_FRIENDLY_RACK_AND_PINI
  0
POLYLINE
  5
1A7
  8
CNC_FRIENDLY_RACK_AND_PINI
 66
     1
 10
0.0
 20
0.0
 30
0.0
  0
VERTEX
  5
1A8
  8
CNC_FRIENDLY_RACK_AND_PINI
 10
140.0
 20
-8.016198000000001
 30
0.0
 42
0.4014922245290024
  0
VERTEX
  5
1A9
  8
CNC_FRIENDLY_RACK_AND_PINI
 10
141.6484299517581
 20
-6.438161144363759
 30
0.0
 42
-0.0758916822382274
  0
VERTEX
  5
1AA
  8
CNC_FRIENDLY_RACK_AND_PINI
 10
142.1395685292496
 20
-4.864607494440035
 30
0.0
 42
-0.6435955454805689
  0
VERTEX
  5
1AB
  8
CNC_FRIENDLY_RACK_AND_PINI
 10
142.8604314680596
 20
-4.86460748852712
 30
0.0
 42
-0.0758916831322025
  0
VERTEX
  5
1AC
  8
CNC_FRIENDLY_RACK_AND_PINI
 10
143.3515700482419
 20
-6.43816114436376
 30
0.0
 42
0.4014922245289747
  0
VERTEX
  5
1AD
  8
CNC_FRIENDLY_RACK_AND_PINI
 10
145.0
 20
-8.016197999999939
 30
0.0
  0
SEQEND
  5
1AE
  8
CNC_FRIENDLY_RACK_AND_PINI
  0
POLYLINE
  5
1AF
  8
CNC_FRIENDLY_RACK_AND_PINI
 66
     1
 10
0.0
 20
0.0
 30
0.0
  0
VERTEX
  5
1B0
  8
CNC_FRIENDLY_RACK_AND_PINI
 10
145.0
 20
-8.016198000000001
 30
0.0
 42
0.4014922245289957
  0
VERTEX
  5
1B1
  8
CNC_FRIENDLY_RACK_AND_PINI
 10
146.6484299517581
 20
-6.438161144363759
 30
0.0
 42
-0.0758916822382608
  0
VERTEX
  5
1B2
  8
CNC_FRIENDLY_RACK_AND_PINI
 10
147.1395685292495
 20
-4.864607494440018
 30
0.0
 42
-0.643595545480498
  0
VERTEX
  5
1B3
  8
CNC_FRIENDLY_RACK_AND_PINI
 10
147.8604314680596
 20
-4.86460748852712
 30
0.0
 42
-0.0758916831322091
  0
VERTEX
  5
1B4
  8
CNC_FRIENDLY_RACK_AND_PINI
 10
148.3515700482419
 20
-6.43816114436376
 30
0.0
 42
0.4014922245289866
  0
VERTEX
  5
1B5
  8
CNC_FRIENDLY_RACK_AND_PINI
 10
150.0
 20
-8.016197999999939
 30
0.0
  0
SEQEND
  5
1B6
  8
CNC_FRIENDLY_RACK_AND_PINI
  0
POLYLINE
  5
1B7
  8
CNC_FRIENDLY_RACK_AND_PINI
 66
     1
 10
0.0
 20
0.0
 30
0.0
  0
VERTEX
  5
1B8
  8
CNC_FRIENDLY_RACK_AND_PINI
 10
150.0
 20
-8.016198000000001
 30
0.0
 42
0.4014922245289917
  0
VERTEX
  5
1B9
  8
CNC_FRIENDLY_RACK_AND_PINI
 10
151.6484299517581
 20
-6.438161144363759
 30
0.0
 42
-0.0758916822383048
  0
VERTEX
  5
1BA
  8
CNC_FRIENDLY_RACK_AND_PINI
 10
152.1395685292496
 20
-4.864607494440035
 30
0.0
 42
-0.6435955454805913
  0
VERTEX
  5
1BB
  8
CNC_FRIENDLY_RACK_AND_PINI
 10
152.8604314680596
 20
-4.864607488527119
 30
0.0
 42
-0.0758916831321942
  0
VERTEX
  5
1BC
  8
CNC_FRIENDLY_RACK_AND_PINI
 10
153.3515700482419
 20
-6.438161144363759
 30
0.0
 42
0.4014922245289541
  0
VERTEX
  5
1BD
  8
CNC_FRIENDLY_RACK_AND_PINI
 10
155.0
 20
-8.016197999999916
 30
0.0
  0
SEQEND
  5
1BE
  8
CNC_FRIENDLY_RACK_AND_PINI
  0
POLYLINE
  5
1BF
  8
CNC_FRIENDLY_RACK_AND_PINI
 66
     1
 10
0.0
 20
0.0
 30
0.0
  0
VERTEX
  5
1C0
  8
CNC_FRIENDLY_RACK_AND_PINI
 10
155.0
 20
-8.016198000000001
 30
0.0
 42
0.4014922245289845
  0
VERTEX
  5
1C1
  8
CNC_FRIENDLY_RACK_AND_PINI
 10
156.6484299517581
 20
-6.43816114436376
 30
0.0
 42
-0.0758916822382254
  0
VERTEX
  5
1C2
  8
CNC_FRIENDLY_RACK_AND_PINI
 10
157.1395685292496
 20
-4.864607494440035
 30
0.0
 42
-0.643595545480548
  0
VERTEX
  5
1C3
  8
CNC_FRIENDLY_RACK_AND_PINI
 10
157.8604314680596
 20
-4.864607488527122
 30
0.0
 42
-0.0758916831322364
  0
VERTEX
  5
1C4
  8
CNC_FRIENDLY_RACK_AND_PINI
 10
158.3515700482419
 20
-6.438161144363758
 30
0.0
 42
0.4014922245289771
  0
VERTEX
  5
1C5
  8
CNC_FRIENDLY_RACK_AND_PINI
 10
160.0
 20
-8.016197999999905
 30
0.0
  0
SEQEND
  5
1C6
  8
CNC_FRIENDLY_RACK_AND_PINI
  0
POLYLINE
  5
1C7
  8
CNC_FRIENDLY_RACK_AND_PINI
 66
     1
 10
0.0
 20
0.0
 30
0.0
  0
VERTEX
  5
1C8
  8
CNC_FRIENDLY_RACK_AND_PINI
 10
160.0
 20
-8.016198000000001
 30
0.0
 42
0.4014922245289777
  0
VERTEX
  5
1C9
  8
CNC_FRIENDLY_RACK_AND_PINI
 10
161.6484299517581
 20
-6.438161144363759
 30
0.0
 42
-0.0758916822382603
  0
VERTEX
  5
1CA
  8
CNC_FRIENDLY_RACK_AND_PINI
 10
162.1395685292496
 20
-4.864607494440029
 30
0.0
 42
-0.6435955454805805
  0
VERTEX
  5
1CB
  8
CNC_FRIENDLY_RACK_AND_PINI
 10
162.8604314680596
 20
-4.864607488527122
 30
0.0
 42
-0.0758916831322268
  0
VERTEX
  5
1CC
  8
CNC_FRIENDLY_RACK_AND_PINI
 10
163.3515700482419
 20
-6.438161144363759
 30
0.0
 42
0.4014922245289541
  0
VERTEX
  5
1CD
  8
CNC_FRIENDLY_RACK_AND_PINI
 10
165.0
 20
-8.016197999999916
 30
0.0
  0
SEQEND
  5
1CE
  8
CNC_FRIENDLY_RACK_AND_PINI
  0
POLYLINE
  5
1CF
  8
CNC_FRIENDLY_RACK_AND_PINI
 66
     1
 10
0.0
 20
0.0
 30
0.0
  0
VERTEX
  5
1D0
  8
CNC_FRIENDLY_RACK_AND_PINI
 10
164.9999999999999
 20
-8.016198000000001
 30
0.0
 42
0.4014922245290084
  0
VERTEX
  5
1D1
  8
CNC_FRIENDLY_RACK_AND_PINI
 10
166.6484299517581
 20
-6.43816114436376
 30
0.0
 42
-0.0758916822382333
  0
VERTEX
  5
1D2
  8
CNC_FRIENDLY_RACK_AND_PINI
 10
167.1395685292496
 20
-4.864607494440035
 30
0.0
 42
-0.6435955454805913
  0
VERTEX
  5
1D3
  8
CNC_FRIENDLY_RACK_AND_PINI
 10
167.8604314680596
 20
-4.86460748852712
 30
0.0
 42
-0.0758916831321939
  0
VERTEX
  5
1D4
  8
CNC_FRIENDLY_RACK_AND_PINI
 10
168.3515700482419
 20
-6.438161144363759
 30
0.0
 42
0.4014922245289817
  0
VERTEX
  5
1D5
  8
CNC_FRIENDLY_RACK_AND_PINI
 10
170.0
 20
-8.016197999999928
 30
0.0
  0
SEQEND
  5
1D6
  8
CNC_FRIENDLY_RACK_AND_PINI
  0
TEXT
  5
1D8
  8
CNC_FRIENDLY_RACK_AND_PINI
  6
CONTINUOUS
 10
-3.753855421686731
 20
-16.631198
 30
0.0
 40
5.0
  1
5.0 steps per mm with a 200 step motor
  7
ARIAL_NORMAL
  0
POLYLINE
  5
1D9
  8
CNC_FRIENDLY_RACK_AND_PINI
 66
     1
 10
0.0
 20
0.0
 30
0.0
 70
     1
  0
VERTEX
  5
1DA
  8
CNC_FRIENDLY_RACK_AND_PINI
 10
3.500000000000002
 20
-1.936491673103712
 30
0.0
 42
-3.872983346207413
  0
VERTEX
  5
1DB
  8
CNC_FRIENDLY_RACK_AND_PINI
 10
3.500000000000002
 20
1.936491673103712
 30
0.0
  0
SEQEND
  5
1DC
  8
CNC_FRIENDLY_RACK_AND_PINI
  0
POLYLINE
  5
1DD
  8
CNC_FRIENDLY_RACK_AND_PINI
 66
     1
 10
0.0
 20
0.0
 30
0.0
 70
     1
  0
VERTEX
  5
1DE
  8
CNC_FRIENDLY_RACK_AND_PINI
 10
7.440474556964187
 20
-1.06422111826355
 30
0.0
 42
0.0711536027730622
  0
VERTEX
  5
1DF
  8
CNC_FRIENDLY_RACK_AND_PINI
 10
7.440474556964192
 20
1.06422111826352
 30
0.0
 42
0.2290838924109152
  0
VERTEX
  5
1E0
  8
CNC_FRIENDLY_RACK_AND_PINI
 10
7.197387613011016
 20
1.425350261468019
 30
0.0
 42
0.2907366095118673
  0
VERTEX
  5
1E1
  8
CNC_FRIENDLY_RACK_AND_PINI
 10
5.429354588124482
 20
1.358243328483656
 30
0.0
 42
-0.27451360597848
  0
VERTEX
  5
1E2
  8
CNC_FRIENDLY_RACK_AND_PINI
 10
4.66529309633426
 20
1.306220410168789
 30
0.0
 42
-0.3836588784964846
  0
VERTEX
  5
1E3
  8
CNC_FRIENDLY_RACK_AND_PINI
 10
4.229115229450706
 20
2.396247638831212
 30
0.0
 42
-0.2665867866205603
  0
VERTEX
  5
1E4
  8
CNC_FRIENDLY_RACK_AND_PINI
 10
4.799085315234358
 20
2.87862393254296
 30
0.0
 42
0.2908153320545329
  0
VERTEX
  5
1E5
  8
CNC_FRIENDLY_RACK_AND_PINI
 10
6.097196423438216
 20
4.081446752538074
 30
0.0
 42
0.2290838924109057
  0
VERTEX
  5
1E6
  8
CNC_FRIENDLY_RACK_AND_PINI
 10
6.013727983881415
 20
4.508692045069255
 30
0.0
 42
0.0711536027730656
  0
VERTEX
  5
1E7
  8
CNC_FRIENDLY_RACK_AND_PINI
 10
4.508692045069286
 20
6.013727983881424
 30
0.0
 42
0.2290838924109247
  0
VERTEX
  5
1E8
  8
CNC_FRIENDLY_RACK_AND_PINI
 10
4.081446752538094
 20
6.097196423438196
 30
0.0
 42
0.2907366095118687
  0
VERTEX
  5
1E9
  8
CNC_FRIENDLY_RACK_AND_PINI
 10
2.878710378656939
 20
4.799556514801295
 30
0.0
 42
-0.2745136059784813
  0
VERTEX
  5
1EA
  8
CNC_FRIENDLY_RACK_AND_PINI
 10
2.375223074886117
 20
4.222497694395365
 30
0.0
 42
-0.3836588784964796
  0
VERTEX
  5
1EB
  8
CNC_FRIENDLY_RACK_AND_PINI
 10
1.296033102344098
 20
4.684839011983694
 30
0.0
 42
-0.2665867866205667
  0
VERTEX
  5
1EC
  8
CNC_FRIENDLY_RACK_AND_PINI
 10
1.357971266707982
 20
5.428960273082004
 30
0.0
 42
0.2908153320545319
  0
VERTEX
  5
1ED
  8
CNC_FRIENDLY_RACK_AND_PINI
 10
1.425350261468041
 20
7.197387613011013
 30
0.0
 42
0.2290838924108969
  0
VERTEX
  5
1EE
  8
CNC_FRIENDLY_RACK_AND_PINI
 10
1.064221118263545
 20
7.440474556964164
 30
0.0
 42
0.0711536027730658
  0
VERTEX
  5
1EF
  8
CNC_FRIENDLY_RACK_AND_PINI
 10
-1.064221118263525
 20
7.440474556964195
 30
0.0
 42
0.2290838924109191
  0
VERTEX
  5
1F0
  8
CNC_FRIENDLY_RACK_AND_PINI
 10
-1.425350261468016
 20
7.197387613011012
 30
0.0
 42
0.2907366095118686
  0
VERTEX
  5
1F1
  8
CNC_FRIENDLY_RACK_AND_PINI
 10
-1.358243328483653
 20
5.429354588124484
 30
0.0
 42
-0.2745136059784777
  0
VERTEX
  5
1F2
  8
CNC_FRIENDLY_RACK_AND_PINI
 10
-1.306220410168781
 20
4.665293096334255
 30
0.0
 42
-0.3836588784964831
  0
VERTEX
  5
1F3
  8
CNC_FRIENDLY_RACK_AND_PINI
 10
-2.396247638831221
 20
4.229115229450714
 30
0.0
 42
-0.2665867866205593
  0
VERTEX
  5
1F4
  8
CNC_FRIENDLY_RACK_AND_PINI
 10
-2.878623932542959
 20
4.799085315234364
 30
0.0
 42
0.2908153320545324
  0
VERTEX
  5
1F5
  8
CNC_FRIENDLY_RACK_AND_PINI
 10
-4.081446752538073
 20
6.097196423438215
 30
0.0
 42
0.2290838924109134
  0
VERTEX
  5
1F6
  8
CNC_FRIENDLY_RACK_AND_PINI
 10
-4.508692045069251
 20
6.013727983881424
 30
0.0
 42
0.071153602773069
  0
VERTEX
  5
1F7
  8
CNC_FRIENDLY_RACK_AND_PINI
 10
-6.013727983881418
 20
4.508692045069283
 30
0.0
 42
0.2290838924109214
  0
VERTEX
  5
1F8
  8
CNC_FRIENDLY_RACK_AND_PINI
 10
-6.097196423438201
 20
4.081446752538094
 30
0.0
 42
0.2907366095118674
  0
VERTEX
  5
1F9
  8
CNC_FRIENDLY_RACK_AND_PINI
 10
-4.799556514801291
 20
2.878710378656942
 30
0.0
 42
-0.2745136059784858
  0
VERTEX
  5
1FA
  8
CNC_FRIENDLY_RACK_AND_PINI
 10
-4.222497694395361
 20
2.375223074886119
 30
0.0
 42
-0.3836588784964705
  0
VERTEX
  5
1FB
  8
CNC_FRIENDLY_RACK_AND_PINI
 10
-4.684839011983678
 20
1.296033102344105
 30
0.0
 42
-0.2665867866205739
  0
VERTEX
  5
1FC
  8
CNC_FRIENDLY_RACK_AND_PINI
 10
-5.428960273082007
 20
1.357971266707984
 30
0.0
 42
0.2908153320545322
  0
VERTEX
  5
1FD
  8
CNC_FRIENDLY_RACK_AND_PINI
 10
-7.197387613011011
 20
1.425350261468042
 30
0.0
 42
0.2290838924109172
  0
VERTEX
  5
1FE
  8
CNC_FRIENDLY_RACK_AND_PINI
 10
-7.440474556964189
 20
1.064221118263552
 30
0.0
 42
0.0711536027730642
  0
VERTEX
  5
1FF
  8
CNC_FRIENDLY_RACK_AND_PINI
 10
-7.440474556964194
 20
-1.064221118263522
 30
0.0
 42
0.2290838924109209
  0
VERTEX
  5
200
  8
CNC_FRIENDLY_RACK_AND_PINI
 10
-7.197387613011017
 20
-1.425350261468013
 30
0.0
 42
0.2907366095118686
  0
VERTEX
  5
201
  8
CNC_FRIENDLY_RACK_AND_PINI
 10
-5.429354588124486
 20
-1.358243328483649
 30
0.0
 42
-0.2745136059784907
  0
VERTEX
  5
202
  8
CNC_FRIENDLY_RACK_AND_PINI
 10
-4.665293096334254
 20
-1.306220410168785
 30
0.0
 42
-0.3836588784964811
  0
VERTEX
  5
203
  8
CNC_FRIENDLY_RACK_AND_PINI
 10
-4.229115229450711
 20
-2.396247638831215
 30
0.0
 42
-0.2665867866205588
  0
VERTEX
  5
204
  8
CNC_FRIENDLY_RACK_AND_PINI
 10
-4.799085315234358
 20
-2.878623932542959
 30
0.0
 42
0.2908153320545355
  0
VERTEX
  5
205
  8
CNC_FRIENDLY_RACK_AND_PINI
 10
-6.097196423438216
 20
-4.081446752538069
 30
0.0
 42
0.2290838924108929
  0
VERTEX
  5
206
  8
CNC_FRIENDLY_RACK_AND_PINI
 10
-6.01372798388142
 20
-4.508692045069247
 30
0.0
 42
0.0711536027730659
  0
VERTEX
  5
207
  8
CNC_FRIENDLY_RACK_AND_PINI
 10
-4.508692045069289
 20
-6.013727983881413
 30
0.0
 42
0.2290838924109221
  0
VERTEX
  5
208
  8
CNC_FRIENDLY_RACK_AND_PINI
 10
-4.081446752538096
 20
-6.097196423438197
 30
0.0
 42
0.2907366095118674
  0
VERTEX
  5
209
  8
CNC_FRIENDLY_RACK_AND_PINI
 10
-2.87871037865694
 20
-4.799556514801295
 30
0.0
 42
-0.274513605978486
  0
VERTEX
  5
20A
  8
CNC_FRIENDLY_RACK_AND_PINI
 10
-2.375223074886114
 20
-4.22249769439536
 30
0.0
 42
-0.3836588784965121
  0
VERTEX
  5
20B
  8
CNC_FRIENDLY_RACK_AND_PINI
 10
-1.296033102344059
 20
-4.684839011983777
 30
0.0
 42
-0.2665867866205378
  0
VERTEX
  5
20C
  8
CNC_FRIENDLY_RACK_AND_PINI
 10
-1.357971266707969
 20
-5.428960273082021
 30
0.0
 42
0.2908153320545399
  0
VERTEX
  5
20D
  8
CNC_FRIENDLY_RACK_AND_PINI
 10
-1.425350261468033
 20
-7.197387613011024
 30
0.0
 42
0.2290838924108994
  0
VERTEX
  5
20E
  8
CNC_FRIENDLY_RACK_AND_PINI
 10
-1.064221118263526
 20
-7.44047455696419
 30
0.0
 42
0.0711536027730619
  0
VERTEX
  5
20F
  8
CNC_FRIENDLY_RACK_AND_PINI
 10
1.064221118263517
 20
-7.440474556964191
 30
0.0
 42
0.2290838924109221
  0
VERTEX
  5
210
  8
CNC_FRIENDLY_RACK_AND_PINI
 10
1.425350261468015
 20
-7.197387613011013
 30
0.0
 42
0.2907366095118675
  0
VERTEX
  5
211
  8
CNC_FRIENDLY_RACK_AND_PINI
 10
1.358243328483651
 20
-5.429354588124482
 30
0.0
 42
-0.2745136059784841
  0
VERTEX
  5
212
  8
CNC_FRIENDLY_RACK_AND_PINI
 10
1.306220410168787
 20
-4.665293096334253
 30
0.0
 42
-0.3836588784964812
  0
VERTEX
  5
213
  8
CNC_FRIENDLY_RACK_AND_PINI
 10
2.396247638831205
 20
-4.229115229450704
 30
0.0
 42
-0.2665867866205636
  0
VERTEX
  5
214
  8
CNC_FRIENDLY_RACK_AND_PINI
 10
2.878623932542958
 20
-4.799085315234358
 30
0.0
 42
0.2908153320545323
  0
VERTEX
  5
215
  8
CNC_FRIENDLY_RACK_AND_PINI
 10
4.081446752538072
 20
-6.097196423438214
 30
0.0
 42
0.2290838924109203
  0
VERTEX
  5
216
  8
CNC_FRIENDLY_RACK_AND_PINI
 10
4.508692045069265
 20
-6.013727983881433
 30
0.0
 42
0.0711536027730629
  0
VERTEX
  5
217
  8
CNC_FRIENDLY_RACK_AND_PINI
 10
6.013727983881418
 20
-4.508692045069285
 30
0.0
 42
0.2290838924109196
  0
VERTEX
  5
218
  8
CNC_FRIENDLY_RACK_AND_PINI
 10
6.097196423438203
 20
-4.081446752538094
 30
0.0
 42
0.2907366095118677
  0
VERTEX
  5
219
  8
CNC_FRIENDLY_RACK_AND_PINI
 10
4.799556514801293
 20
-2.878710378656939
 30
0.0
 42
-0.2745136059784823
  0
VERTEX
  5
21A
  8
CNC_FRIENDLY_RACK_AND_PINI
 10
4.222497694395359
 20
-2.375223074886112
 30
0.0
 42
-0.3836588784964798
  0
VERTEX
  5
21B
  8
CNC_FRIENDLY_RACK_AND_PINI
 10
4.684839011983696
 20
-1.296033102344094
 30
0.0
 42
-0.2665867866205628
  0
VERTEX
  5
21C
  8
CNC_FRIENDLY_RACK_AND_PINI
 10
5.428960273082007
 20
-1.357971266707978
 30
0.0
 42
0.2908153320545344
  0
VERTEX
  5
21D
  8
CNC_FRIENDLY_RACK_AND_PINI
 10
7.19738761301101
 20
-1.425350261468042
 30
0.0
 42
0.2290838924109098
  0
SEQEND
  5
21E
  8
CNC_FRIENDLY_RACK_AND_PINI
  0
ENDSEC
  0
EOF
