0
SECTION
2
HEADER
9
$INSUNITS
70
4
9
$ACADVER
1
AC1014
9
$HANDSEED
5
FFFF
0
ENDSEC
0
SECTION
2
TABLES
0
TABLE
2
VPORT
5
8
100
AcDbSymbolTable
0
ENDTAB
0
TABLE
2
LTYPE
5
5
100
AcDbSymbolTable
0
LTYPE
5
14
100
AcDbSymbolTableRecord
100
AcDbLinetypeTableRecord
2
BYBLOCK
70
0
0
LTYPE
5
15
100
AcDbSymbolTableRecord
100
AcDbLinetypeTableRecord
2
BYLAYER
70
0
0
ENDTAB
0
TABLE
2
LAYER
5
2
100
AcDbSymbolTable
70
2
0
LAYER
5
50
100
AcDbSymbolTableRecord
100
AcDbLayerTableRecord
2
0
70
0
6
CONTINUOUS
0
ENDTAB
0
TABLE
2
STYLE
5
3
100
AcDbSymbolTable
70
1
0
STYLE
5
11
100
AcDbSymbolTableRecord
100
AcDbTextStyleTableRecord
2
STANDARD
70
0
0
ENDTAB
0
TABLE
2
VIEW
5
6
100
AcDbSymbolTable
70
0
0
ENDTAB
0
TABLE
2
UCS
5
7
100
AcDbSymbolTable
70
0
0
ENDTAB
0
TABLE
2
APPID
5
9
100
AcDbSymbolTable
70
2
0
APPID
5
12
100
AcDbSymbolTableRecord
100
AcDbRegAppTableRecord
2
ACAD
70
0
0
ENDTAB
0
TABLE
2
DIMSTYLE
5
A
100
AcDbSymbolTable
70
1
0
ENDTAB
0
TABLE
2
BLOCK_RECORD
5
1
100
AcDbSymbolTable
70
1
0
BLOCK_RECORD
5
1F
100
AcDbSymbolTableRecord
100
AcDbBlockTableRecord
2
*MODEL_SPACE
0
BLOCK_RECORD
5
1B
100
AcDbSymbolTableRecord
100
AcDbBlockTableRecord
2
*PAPER_SPACE
0
ENDTAB
0
ENDSEC
0
SECTION
2
BLOCKS
0
BLOCK
5
20
100
AcDbEntity
100
AcDbBlockBegin
2
*MODEL_SPACE
0
ENDBLK
5
21
100
AcDbEntity
100
AcDbBlockEnd
0
BLOCK
5
1C
100
AcDbEntity
100
AcDbBlockBegin
2
*PAPER_SPACE
0
ENDBLK
5
1D
100
AcDbEntity
100
AcDbBlockEnd
0
ENDSEC
0
SECTION
2
ENTITIES
0
LWPOLYLINE
5
100
100
AcDbEntity
8
0
100
AcDbPolyline
90
25
70
1
43
0.0
10
-14.265783630491624
20
-9.1993316223411696
42
-0.20236111049525249
10
-14.69361945961948
20
-7.7041347304444416
10
-13.371294071296409
20
3.2038934854245253
42
-0.27397540598674658
10
-12.7499524893658
20
4.0120262385275698
10
-9.6713906763541075
20
5.2434509637322453
42
-0.53059845206749645
10
-8.3000000000000043
20
4.3149742728469871
10
-8.2999999999999954
20
-4.7920072342738997
42
0.32163672675070221
10
-6.2609045224510389
20
-7.6339516367601723
10
-0.96090161797918738
20
-9.4259614241987499
42
0.08169270096126327
10
-7.5987346874006965e-15
20
-9.5840144685464868
42
0.081692700961263701
10
0.96090161797918627
20
-9.4259614241987499
10
6.2609045224513507
20
-7.633951636761096
42
0.32163672675070221
10
8.2999999999999954
20
-4.7920072342738997
10
8.3000000000000043
20
4.3149742728469862
42
-0.53059845206749778
10
9.6713906763541093
20
5.2434509637322453
10
12.749952489365802
20
4.0120262385275698
42
-0.27397540598674947
10
13.371294071296411
20
3.2038934854245249
10
14.69361945961948
20
-7.7041347304444399
42
-0.2023611104952534
10
14.265783630491624
20
-9.1993316223411696
10
11.738136004420925
20
-12.337719950248125
42
0.17114804284906496
10
9.526279441628807
20
-18.61026503190962
10
9.5262794416288195
20
-25.526279441628827
42
0.99999999999999989
10
-9.5262794416288195
20
-25.526279441628827
10
-9.526279441628807
20
-18.61026503190962
42
0.17114804284906476
10
-11.738136004420925
20
-12.337719950248118
0
CIRCLE
5
101
100
AcDbEntity
8
0
100
AcDbCircle
10
-9.0777194330285329e-15
20
-25.526279441628827
30
0
40
3.5000000000000009
0
CIRCLE
5
102
100
AcDbEntity
8
0
100
AcDbCircle
10
-1.1506147720599473e-14
20
-115.5262794416288
30
0
40
3.499999999999996
0
LWPOLYLINE
5
103
100
AcDbEntity
8
0
100
AcDbPolyline
90
25
70
1
43
0.0
10
0.96090161797918638
20
-9.4259614241987499
42
-0.081692700961264339
10
-7.0776717819853729e-15
20
-9.5840144685464868
42
-0.081692700961262452
10
-0.96090161797918627
20
-9.4259614241987499
10
-6.2609045224513507
20
-7.6339516367610933
42
-0.32163672675070215
10
-8.2999999999999954
20
-4.7920072342738989
10
-8.3000000000000043
20
4.3149742728469871
42
0.53059845206749756
10
-9.6713906763541093
20
5.2434509637322453
10
-12.7499524893658
20
4.0120262385275698
42
0.27397540598675008
10
-13.371294071296411
20
3.2038934854245249
10
-14.69361945961948
20
-7.7041347304444407
42
0.20236111049525338
10
-14.265783630491624
20
-9.1993316223411696
10
-11.73813600442093
20
-12.337719950248118
42
-0.17114804284906462
10
-9.526279441628807
20
-18.610265031909616
10
-9.5262794416288195
20
-115.5262794416288
42
0.99999999999999989
10
9.5262794416288195
20
-115.5262794416288
10
9.5262794416288052
20
-18.610265031909616
42
-0.17114804284906462
10
11.738136004420925
20
-12.337719950248118
10
14.265783630491624
20
-9.1993316223411696
42
0.20236111049525318
10
14.69361945961948
20
-7.7041347304444407
10
13.371294071296411
20
3.2038934854245253
42
0.27397540598674952
10
12.7499524893658
20
4.0120262385275698
10
9.6713906763541093
20
5.2434509637322453
42
0.53059845206749723
10
8.3000000000000043
20
4.3149742728469871
10
8.2999999999990237
20
-4.7920072342738971
42
-0.32163672675070243
10
6.2609045224510389
20
-7.6339516367601714
0
ENDSEC
0
SECTION
2
OBJECTS
0
DICTIONARY
5
C
100
AcDbDictionary
3
ACAD_GROUP
350
D
3
ACAD_MLINESTYLE
350
17
0
DICTIONARY
5
D
100
AcDbDictionary
0
DICTIONARY
5
1A
330
C
100
AcDbDictionary
0
DICTIONARY
5
17
100
AcDbDictionary
0
ENDSEC
0
EOF
