<?xml version="1.0" standalone="no"?>
 <!DOCTYPE svg PUBLIC "-//W3C//DTD SVG 1.1//EN" 
 "http://www.w3.org/Graphics/SVG/1.1/DTD/svg11.dtd"> 
<svg xmlns="http://www.w3.org/2000/svg" version="1.1" 
    width="29.7002cm" height="21.0007cm" viewBox="0 0 116930 82680 ">
<title>SVG Picture created as nano-F.SilkS.svg date 2018/10/01 14:17:15 </title>
  <desc>Picture generated by PCBNEW </desc>
<g style="fill:#000000; fill-opacity:1;stroke:#000000; stroke-opacity:1;
stroke-linecap:round; stroke-linejoin:round; "
 transform="translate(0 0) scale(1 1)">
</g>
<g style="fill:#000000; fill-opacity:0.0; 
stroke:#000000; stroke-width:-0.000393701; stroke-opacity:1; 
stroke-linecap:round; stroke-linejoin:round;">
</g>
<g style="fill:#000000; fill-opacity:0.0; 
stroke:#000000; stroke-width:39.3701; stroke-opacity:1; 
stroke-linecap:round; stroke-linejoin:round;">
<path d="M32600 67750
L32100 67250
" />
<path d="M32600 12600
L32100 13100
" />
<path d="M63525 67250
L63025 67750
" />
<path d="M63525 13075
L63025 12575
" />
</g>
<g style="fill:#000000; fill-opacity:0.0; 
stroke:#000000; stroke-width:59.0551; stroke-opacity:1; 
stroke-linecap:round; stroke-linejoin:round;">
<path d="M62134 33287
L62134 33475
" />
<path d="M62021 33250
L62415 33381
L62021 33512
" />
<path d="M62021 33868
L62209 33737
" />
<path d="M62021 33643
L62415 33643
L62415 33793
L62396 33831
L62378 33850
L62340 33868
L62284 33868
L62246 33850
L62228 33831
L62209 33793
L62209 33643
" />
<path d="M62021 34037
L62415 34037
L62415 34131
L62396 34187
L62359 34225
L62321 34243
L62246 34262
L62190 34262
L62115 34243
L62078 34225
L62040 34187
L62021 34131
L62021 34037
" />
<path d="M62415 34431
L62096 34431
L62059 34450
L62040 34468
L62021 34506
L62021 34581
L62040 34618
L62059 34637
L62096 34656
L62415 34656
" />
<path d="M62021 34843
L62415 34843
" />
<path d="M62021 35031
L62415 35031
L62021 35256
L62415 35256
" />
<path d="M62415 35518
L62415 35593
L62396 35631
L62359 35668
L62284 35687
L62153 35687
L62078 35668
L62040 35631
L62021 35593
L62021 35518
L62040 35481
L62078 35443
L62153 35425
L62284 35425
L62359 35443
L62396 35481
L62415 35518
" />
<path d="M62021 36156
L62415 36156
L62021 36381
L62415 36381
" />
<path d="M62134 36549
L62134 36737
" />
<path d="M62021 36512
L62415 36643
L62021 36774
" />
<path d="M62021 36906
L62415 36906
L62021 37131
L62415 37131
" />
<path d="M62415 37393
L62415 37468
L62396 37505
L62359 37543
L62284 37562
L62153 37562
L62078 37543
L62040 37505
L62021 37468
L62021 37393
L62040 37356
L62078 37318
L62153 37299
L62284 37299
L62359 37318
L62396 37356
L62415 37393
" />
<path d="M57253 43159
L57253 43478
L57271 43515
L57290 43534
L57328 43553
L57403 43553
L57440 43534
L57459 43515
L57478 43478
L57478 43159
" />
<path d="M57646 43534
L57703 43553
L57796 43553
L57834 43534
L57853 43515
L57871 43478
L57871 43440
L57853 43403
L57834 43384
L57796 43365
L57721 43346
L57684 43328
L57665 43309
L57646 43271
L57646 43234
L57665 43196
L57684 43178
L57721 43159
L57815 43159
L57871 43178
" />
<path d="M58171 43346
L58228 43365
L58246 43384
L58265 43421
L58265 43478
L58246 43515
L58228 43534
L58190 43553
L58040 43553
L58040 43159
L58171 43159
L58209 43178
L58228 43196
L58246 43234
L58246 43271
L58228 43309
L58209 43328
L58171 43346
L58040 43346
" />
<path d="M34446 45775
L34465 45737
L34465 45681
L34446 45625
L34409 45587
L34371 45568
L34296 45550
L34240 45550
L34165 45568
L34127 45587
L34090 45625
L34071 45681
L34071 45718
L34090 45775
L34109 45793
L34240 45793
L34240 45718
" />
<path d="M34071 45962
L34465 45962
L34071 46187
L34465 46187
" />
<path d="M34071 46374
L34465 46374
L34465 46468
L34446 46524
L34409 46562
L34371 46581
L34296 46599
L34240 46599
L34165 46581
L34127 46562
L34090 46524
L34071 46468
L34071 46374
" />
<path d="M33440 45671
L33422 45728
L33422 45821
L33440 45859
L33459 45878
L33497 45896
L33534 45896
L33572 45878
L33590 45859
L33609 45821
L33628 45746
L33647 45709
L33665 45690
L33703 45671
L33740 45671
L33778 45690
L33797 45709
L33815 45746
L33815 45840
L33797 45896
" />
<path d="M33422 46065
L33815 46065
" />
<path d="M33797 46459
L33815 46421
L33815 46365
L33797 46309
L33759 46271
L33722 46253
L33647 46234
L33590 46234
L33515 46253
L33478 46271
L33440 46309
L33422 46365
L33422 46403
L33440 46459
L33459 46478
L33590 46478
L33590 46403
" />
<path d="M34421 48475
L34440 48437
L34440 48381
L34421 48325
L34384 48287
L34346 48268
L34271 48250
L34215 48250
L34140 48268
L34102 48287
L34065 48325
L34046 48381
L34046 48418
L34065 48475
L34084 48493
L34215 48493
L34215 48418
" />
<path d="M34046 48662
L34440 48662
L34046 48887
L34440 48887
" />
<path d="M34046 49074
L34440 49074
L34440 49168
L34421 49224
L34384 49262
L34346 49281
L34271 49299
L34215 49299
L34140 49281
L34102 49262
L34065 49224
L34046 49168
L34046 49074
" />
<path d="M33415 48371
L33397 48428
L33397 48521
L33415 48559
L33434 48578
L33472 48596
L33509 48596
L33547 48578
L33565 48559
L33584 48521
L33603 48446
L33622 48409
L33640 48390
L33678 48371
L33715 48371
L33753 48390
L33772 48409
L33790 48446
L33790 48540
L33772 48596
" />
<path d="M33397 48765
L33790 48765
" />
<path d="M33772 49159
L33790 49121
L33790 49065
L33772 49009
L33734 48971
L33697 48953
L33622 48934
L33565 48934
L33490 48953
L33453 48971
L33415 49009
L33397 49065
L33397 49103
L33415 49159
L33434 49178
L33565 49178
L33565 49103
" />
<path d="M34446 52650
L34465 52612
L34465 52556
L34446 52500
L34409 52462
L34371 52443
L34296 52425
L34240 52425
L34165 52443
L34127 52462
L34090 52500
L34071 52556
L34071 52593
L34090 52650
L34109 52668
L34240 52668
L34240 52593
" />
<path d="M34071 52837
L34465 52837
L34071 53062
L34465 53062
" />
<path d="M34071 53249
L34465 53249
L34465 53343
L34446 53399
L34409 53437
L34371 53456
L34296 53474
L34240 53474
L34165 53456
L34127 53437
L34090 53399
L34071 53343
L34071 53249
" />
<path d="M33422 52425
L33815 52425
L33815 52575
L33797 52612
L33778 52631
L33740 52650
L33684 52650
L33647 52631
L33628 52612
L33609 52575
L33609 52425
" />
<path d="M33815 52781
L33422 52875
L33703 52950
L33422 53024
L33815 53118
" />
<path d="M33422 53493
L33609 53362
" />
<path d="M33422 53268
L33815 53268
L33815 53418
L33797 53456
L33778 53474
L33740 53493
L33684 53493
L33647 53474
L33628 53456
L33609 53418
L33609 53268
" />
<path d="M34046 51031
L34440 51031
L34440 51125
L34421 51181
L34384 51218
L34346 51237
L34271 51256
L34215 51256
L34140 51237
L34103 51218
L34065 51181
L34046 51125
L34046 51031
" />
<path d="M34084 51649
L34065 51631
L34046 51575
L34046 51537
L34065 51481
L34103 51443
L34140 51425
L34215 51406
L34271 51406
L34346 51425
L34384 51443
L34421 51481
L34440 51537
L34440 51575
L34421 51631
L34403 51649
" />
<path d="M34196 51818
L34196 52118
" />
<path d="M34046 51968
L34346 51968
" />
<path d="M34071 54053
L34071 53865
L34465 53865
" />
<path d="M34071 54184
L34465 54184
" />
<path d="M34071 54371
L34465 54371
L34184 54503
L34465 54634
L34071 54634
" />
<path d="M34071 47006
L34465 47006
L34465 47100
L34446 47156
L34409 47193
L34371 47212
L34296 47231
L34240 47231
L34165 47212
L34128 47193
L34090 47156
L34071 47100
L34071 47006
" />
<path d="M34071 47400
L34465 47400
" />
<path d="M34071 47812
L34259 47681
" />
<path d="M34071 47587
L34465 47587
L34465 47737
L34446 47774
L34428 47793
L34390 47812
L34334 47812
L34296 47793
L34278 47774
L34259 47737
L34259 47587
" />
<path d="M34134 49696
L34134 49884
" />
<path d="M34021 49659
L34415 49790
L34021 49921
" />
<path d="M34021 50240
L34021 50053
L34415 50053
" />
<path d="M34021 50371
L34415 50371
L34134 50503
L34415 50634
L34021 50634
" />
<path d="M34046 44206
L34440 44206
L34440 44356
L34421 44393
L34403 44412
L34365 44431
L34309 44431
L34271 44412
L34253 44393
L34234 44356
L34234 44206
" />
<path d="M34440 44600
L34121 44600
L34084 44618
L34065 44637
L34046 44675
L34046 44749
L34065 44787
L34084 44806
L34121 44824
L34440 44824
" />
<path d="M34046 45199
L34046 45012
L34440 45012
" />
<path d="M40021 40328
L40021 40140
L40415 40140
" />
<path d="M40021 40459
L40415 40459
" />
<path d="M40021 40646
L40415 40646
L40134 40778
L40415 40909
L40021 40909
" />
<path d="M39996 30481
L40390 30481
L40390 30631
L40371 30668
L40353 30687
L40315 30706
L40259 30706
L40221 30687
L40203 30668
L40184 30631
L40184 30481
" />
<path d="M40390 30875
L40071 30875
L40034 30893
L40015 30912
L39996 30950
L39996 31024
L40015 31062
L40034 31081
L40071 31099
L40390 31099
" />
<path d="M39996 31474
L39996 31287
L40390 31287
" />
<path d="M40396 32050
L40415 32012
L40415 31956
L40396 31900
L40359 31862
L40321 31843
L40246 31825
L40190 31825
L40115 31843
L40077 31862
L40040 31900
L40021 31956
L40021 31993
L40040 32050
L40059 32068
L40190 32068
L40190 31993
" />
<path d="M40021 32237
L40415 32237
L40021 32462
L40415 32462
" />
<path d="M40021 32649
L40415 32649
L40415 32743
L40396 32799
L40359 32837
L40321 32856
L40246 32874
L40190 32874
L40115 32856
L40077 32837
L40040 32799
L40021 32743
L40021 32649
" />
<path d="M39390 31946
L39372 32003
L39372 32096
L39390 32134
L39409 32153
L39447 32171
L39484 32171
L39522 32153
L39540 32134
L39559 32096
L39578 32021
L39597 31984
L39615 31965
L39653 31946
L39690 31946
L39728 31965
L39747 31984
L39765 32021
L39765 32115
L39747 32171
" />
<path d="M39372 32340
L39765 32340
" />
<path d="M39747 32734
L39765 32696
L39765 32640
L39747 32584
L39709 32546
L39672 32528
L39597 32509
L39540 32509
L39465 32528
L39428 32546
L39390 32584
L39372 32640
L39372 32678
L39390 32734
L39409 32753
L39540 32753
L39540 32678
" />
<path d="M40371 34750
L40390 34712
L40390 34656
L40371 34600
L40334 34562
L40296 34543
L40221 34525
L40165 34525
L40090 34543
L40052 34562
L40015 34600
L39996 34656
L39996 34693
L40015 34750
L40034 34768
L40165 34768
L40165 34693
" />
<path d="M39996 34937
L40390 34937
L39996 35162
L40390 35162
" />
<path d="M39996 35349
L40390 35349
L40390 35443
L40371 35499
L40334 35537
L40296 35556
L40221 35574
L40165 35574
L40090 35556
L40052 35537
L40015 35499
L39996 35443
L39996 35349
" />
<path d="M39365 34646
L39347 34703
L39347 34796
L39365 34834
L39384 34853
L39422 34871
L39459 34871
L39497 34853
L39515 34834
L39534 34796
L39553 34721
L39572 34684
L39590 34665
L39628 34646
L39665 34646
L39703 34665
L39722 34684
L39740 34721
L39740 34815
L39722 34871
" />
<path d="M39347 35040
L39740 35040
" />
<path d="M39722 35434
L39740 35396
L39740 35340
L39722 35284
L39684 35246
L39647 35228
L39572 35209
L39515 35209
L39440 35228
L39403 35246
L39365 35284
L39347 35340
L39347 35378
L39365 35434
L39384 35453
L39515 35453
L39515 35378
" />
<path d="M40396 38925
L40415 38887
L40415 38831
L40396 38775
L40359 38737
L40321 38718
L40246 38700
L40190 38700
L40115 38718
L40077 38737
L40040 38775
L40021 38831
L40021 38868
L40040 38925
L40059 38943
L40190 38943
L40190 38868
" />
<path d="M40021 39112
L40415 39112
L40021 39337
L40415 39337
" />
<path d="M40021 39524
L40415 39524
L40415 39618
L40396 39674
L40359 39712
L40321 39731
L40246 39749
L40190 39749
L40115 39731
L40077 39712
L40040 39674
L40021 39618
L40021 39524
" />
<path d="M39372 38700
L39765 38700
L39765 38850
L39747 38887
L39728 38906
L39690 38925
L39634 38925
L39597 38906
L39578 38887
L39559 38850
L39559 38700
" />
<path d="M39765 39056
L39372 39150
L39653 39225
L39372 39299
L39765 39393
" />
<path d="M39372 39768
L39559 39637
" />
<path d="M39372 39543
L39765 39543
L39765 39693
L39747 39731
L39728 39749
L39690 39768
L39634 39768
L39597 39749
L39578 39731
L39559 39693
L39559 39543
" />
<path d="M39996 37306
L40390 37306
L40390 37400
L40371 37456
L40334 37493
L40296 37512
L40221 37531
L40165 37531
L40090 37512
L40053 37493
L40015 37456
L39996 37400
L39996 37306
" />
<path d="M40034 37924
L40015 37906
L39996 37850
L39996 37812
L40015 37756
L40053 37718
L40090 37700
L40165 37681
L40221 37681
L40296 37700
L40334 37718
L40371 37756
L40390 37812
L40390 37850
L40371 37906
L40353 37924
" />
<path d="M40146 38093
L40146 38393
" />
<path d="M39996 38243
L40296 38243
" />
<path d="M40084 35971
L40084 36159
" />
<path d="M39971 35934
L40365 36065
L39971 36196
" />
<path d="M39971 36515
L39971 36328
L40365 36328
" />
<path d="M39971 36646
L40365 36646
L40084 36778
L40365 36909
L39971 36909
" />
<path d="M40021 33281
L40415 33281
L40415 33375
L40396 33431
L40359 33468
L40321 33487
L40246 33506
L40190 33506
L40115 33487
L40078 33468
L40040 33431
L40021 33375
L40021 33281
" />
<path d="M40021 33675
L40415 33675
" />
<path d="M40021 34087
L40209 33956
" />
<path d="M40021 33862
L40415 33862
L40415 34012
L40396 34049
L40378 34068
L40340 34087
L40284 34087
L40246 34068
L40228 34049
L40209 34012
L40209 33862
" />
<path d="M34096 30431
L34490 30431
L34490 30581
L34471 30618
L34453 30637
L34415 30656
L34359 30656
L34321 30637
L34303 30618
L34284 30581
L34284 30431
" />
<path d="M34490 30825
L34171 30825
L34134 30843
L34115 30862
L34096 30900
L34096 30974
L34115 31012
L34134 31031
L34171 31049
L34490 31049
" />
<path d="M34096 31424
L34096 31237
L34490 31237
" />
<path d="M34496 32000
L34515 31962
L34515 31906
L34496 31850
L34459 31812
L34421 31793
L34346 31775
L34290 31775
L34215 31793
L34177 31812
L34140 31850
L34121 31906
L34121 31943
L34140 32000
L34159 32018
L34290 32018
L34290 31943
" />
<path d="M34121 32187
L34515 32187
L34121 32412
L34515 32412
" />
<path d="M34121 32599
L34515 32599
L34515 32693
L34496 32749
L34459 32787
L34421 32806
L34346 32824
L34290 32824
L34215 32806
L34177 32787
L34140 32749
L34121 32693
L34121 32599
" />
<path d="M33490 31896
L33472 31953
L33472 32046
L33490 32084
L33509 32103
L33547 32121
L33584 32121
L33622 32103
L33640 32084
L33659 32046
L33678 31971
L33697 31934
L33715 31915
L33753 31896
L33790 31896
L33828 31915
L33847 31934
L33865 31971
L33865 32065
L33847 32121
" />
<path d="M33472 32290
L33865 32290
" />
<path d="M33847 32684
L33865 32646
L33865 32590
L33847 32534
L33809 32496
L33772 32478
L33697 32459
L33640 32459
L33565 32478
L33528 32496
L33490 32534
L33472 32590
L33472 32628
L33490 32684
L33509 32703
L33640 32703
L33640 32628
" />
<path d="M34471 34700
L34490 34662
L34490 34606
L34471 34550
L34434 34512
L34396 34493
L34321 34475
L34265 34475
L34190 34493
L34152 34512
L34115 34550
L34096 34606
L34096 34643
L34115 34700
L34134 34718
L34265 34718
L34265 34643
" />
<path d="M34096 34887
L34490 34887
L34096 35112
L34490 35112
" />
<path d="M34096 35299
L34490 35299
L34490 35393
L34471 35449
L34434 35487
L34396 35506
L34321 35524
L34265 35524
L34190 35506
L34152 35487
L34115 35449
L34096 35393
L34096 35299
" />
<path d="M33465 34596
L33447 34653
L33447 34746
L33465 34784
L33484 34803
L33522 34821
L33559 34821
L33597 34803
L33615 34784
L33634 34746
L33653 34671
L33672 34634
L33690 34615
L33728 34596
L33765 34596
L33803 34615
L33822 34634
L33840 34671
L33840 34765
L33822 34821
" />
<path d="M33447 34990
L33840 34990
" />
<path d="M33822 35384
L33840 35346
L33840 35290
L33822 35234
L33784 35196
L33747 35178
L33672 35159
L33615 35159
L33540 35178
L33503 35196
L33465 35234
L33447 35290
L33447 35328
L33465 35384
L33484 35403
L33615 35403
L33615 35328
" />
<path d="M34096 37256
L34490 37256
L34490 37350
L34471 37406
L34434 37443
L34396 37462
L34321 37481
L34265 37481
L34190 37462
L34153 37443
L34115 37406
L34096 37350
L34096 37256
" />
<path d="M34134 37874
L34115 37856
L34096 37800
L34096 37762
L34115 37706
L34153 37668
L34190 37650
L34265 37631
L34321 37631
L34396 37650
L34434 37668
L34471 37706
L34490 37762
L34490 37800
L34471 37856
L34453 37874
" />
<path d="M34246 38043
L34246 38343
" />
<path d="M34096 38193
L34396 38193
" />
<path d="M34184 35921
L34184 36109
" />
<path d="M34071 35884
L34465 36015
L34071 36146
" />
<path d="M34071 36465
L34071 36278
L34465 36278
" />
<path d="M34071 36596
L34465 36596
L34184 36728
L34465 36859
L34071 36859
" />
<path d="M34496 38875
L34515 38837
L34515 38781
L34496 38725
L34459 38687
L34421 38668
L34346 38650
L34290 38650
L34215 38668
L34177 38687
L34140 38725
L34121 38781
L34121 38818
L34140 38875
L34159 38893
L34290 38893
L34290 38818
" />
<path d="M34121 39062
L34515 39062
L34121 39287
L34515 39287
" />
<path d="M34121 39474
L34515 39474
L34515 39568
L34496 39624
L34459 39662
L34421 39681
L34346 39699
L34290 39699
L34215 39681
L34177 39662
L34140 39624
L34121 39568
L34121 39474
" />
<path d="M33472 38650
L33865 38650
L33865 38800
L33847 38837
L33828 38856
L33790 38875
L33734 38875
L33697 38856
L33678 38837
L33659 38800
L33659 38650
" />
<path d="M33865 39006
L33472 39100
L33753 39175
L33472 39249
L33865 39343
" />
<path d="M33472 39718
L33659 39587
" />
<path d="M33472 39493
L33865 39493
L33865 39643
L33847 39681
L33828 39699
L33790 39718
L33734 39718
L33697 39699
L33678 39681
L33659 39643
L33659 39493
" />
<path d="M34121 33231
L34515 33231
L34515 33325
L34496 33381
L34459 33418
L34421 33437
L34346 33456
L34290 33456
L34215 33437
L34178 33418
L34140 33381
L34121 33325
L34121 33231
" />
<path d="M34121 33625
L34515 33625
" />
<path d="M34121 34037
L34309 33906
" />
<path d="M34121 33812
L34515 33812
L34515 33962
L34496 33999
L34478 34018
L34440 34037
L34384 34037
L34346 34018
L34328 33999
L34309 33962
L34309 33812
" />
<path d="M34046 40303
L34046 40115
L34440 40115
" />
<path d="M34046 40434
L34440 40434
" />
<path d="M34046 40621
L34440 40621
L34159 40753
L34440 40884
L34046 40884
" />
<path d="M32946 27253
L32946 27065
L33340 27065
" />
<path d="M32946 27384
L33340 27384
" />
<path d="M32946 27571
L33340 27571
L33059 27703
L33340 27834
L32946 27834
" />
<path d="M34546 25775
L34565 25737
L34565 25681
L34546 25625
L34509 25587
L34471 25568
L34396 25550
L34340 25550
L34265 25568
L34227 25587
L34190 25625
L34171 25681
L34171 25718
L34190 25775
L34209 25793
L34340 25793
L34340 25718
" />
<path d="M34171 25962
L34565 25962
L34171 26187
L34565 26187
" />
<path d="M34171 26374
L34565 26374
L34565 26468
L34546 26524
L34509 26562
L34471 26581
L34396 26599
L34340 26599
L34265 26581
L34227 26562
L34190 26524
L34171 26468
L34171 26374
" />
<path d="M33522 25550
L33915 25550
L33915 25700
L33897 25737
L33878 25756
L33840 25775
L33784 25775
L33747 25756
L33728 25737
L33709 25700
L33709 25550
" />
<path d="M33915 25906
L33522 26000
L33803 26075
L33522 26149
L33915 26243
" />
<path d="M33522 26618
L33709 26487
" />
<path d="M33522 26393
L33915 26393
L33915 26543
L33897 26581
L33878 26599
L33840 26618
L33784 26618
L33747 26599
L33728 26581
L33709 26543
L33709 26393
" />
<path d="M34146 24156
L34540 24156
L34540 24250
L34521 24306
L34484 24343
L34446 24362
L34371 24381
L34315 24381
L34240 24362
L34203 24343
L34165 24306
L34146 24250
L34146 24156
" />
<path d="M34184 24774
L34165 24756
L34146 24700
L34146 24662
L34165 24606
L34203 24568
L34240 24550
L34315 24531
L34371 24531
L34446 24550
L34484 24568
L34521 24606
L34540 24662
L34540 24700
L34521 24756
L34503 24774
" />
<path d="M34296 24943
L34296 25243
" />
<path d="M34146 25093
L34446 25093
" />
<path d="M34234 22821
L34234 23009
" />
<path d="M34121 22784
L34515 22915
L34121 23046
" />
<path d="M34121 23365
L34121 23178
L34515 23178
" />
<path d="M34121 23496
L34515 23496
L34234 23628
L34515 23759
L34121 23759
" />
<path d="M34521 21600
L34540 21562
L34540 21506
L34521 21450
L34484 21412
L34446 21393
L34371 21375
L34315 21375
L34240 21393
L34202 21412
L34165 21450
L34146 21506
L34146 21543
L34165 21600
L34184 21618
L34315 21618
L34315 21543
" />
<path d="M34146 21787
L34540 21787
L34146 22012
L34540 22012
" />
<path d="M34146 22199
L34540 22199
L34540 22293
L34521 22349
L34484 22387
L34446 22406
L34371 22424
L34315 22424
L34240 22406
L34202 22387
L34165 22349
L34146 22293
L34146 22199
" />
<path d="M33515 21496
L33497 21553
L33497 21646
L33515 21684
L33534 21703
L33572 21721
L33609 21721
L33647 21703
L33665 21684
L33684 21646
L33703 21571
L33722 21534
L33740 21515
L33778 21496
L33815 21496
L33853 21515
L33872 21534
L33890 21571
L33890 21665
L33872 21721
" />
<path d="M33497 21890
L33890 21890
" />
<path d="M33872 22284
L33890 22246
L33890 22190
L33872 22134
L33834 22096
L33797 22078
L33722 22059
L33665 22059
L33590 22078
L33553 22096
L33515 22134
L33497 22190
L33497 22228
L33515 22284
L33534 22303
L33665 22303
L33665 22228
" />
<path d="M34171 20131
L34565 20131
L34565 20225
L34546 20281
L34509 20318
L34471 20337
L34396 20356
L34340 20356
L34265 20337
L34228 20318
L34190 20281
L34171 20225
L34171 20131
" />
<path d="M34171 20525
L34565 20525
" />
<path d="M34171 20937
L34359 20806
" />
<path d="M34171 20712
L34565 20712
L34565 20862
L34546 20899
L34528 20918
L34490 20937
L34434 20937
L34396 20918
L34378 20899
L34359 20862
L34359 20712
" />
<path d="M34546 18900
L34565 18862
L34565 18806
L34546 18750
L34509 18712
L34471 18693
L34396 18675
L34340 18675
L34265 18693
L34227 18712
L34190 18750
L34171 18806
L34171 18843
L34190 18900
L34209 18918
L34340 18918
L34340 18843
" />
<path d="M34171 19087
L34565 19087
L34171 19312
L34565 19312
" />
<path d="M34171 19499
L34565 19499
L34565 19593
L34546 19649
L34509 19687
L34471 19706
L34396 19724
L34340 19724
L34265 19706
L34227 19687
L34190 19649
L34171 19593
L34171 19499
" />
<path d="M33540 18796
L33522 18853
L33522 18946
L33540 18984
L33559 19003
L33597 19021
L33634 19021
L33672 19003
L33690 18984
L33709 18946
L33728 18871
L33747 18834
L33765 18815
L33803 18796
L33840 18796
L33878 18815
L33897 18834
L33915 18871
L33915 18965
L33897 19021
" />
<path d="M33522 19190
L33915 19190
" />
<path d="M33897 19584
L33915 19546
L33915 19490
L33897 19434
L33859 19396
L33822 19378
L33747 19359
L33690 19359
L33615 19378
L33578 19396
L33540 19434
L33522 19490
L33522 19528
L33540 19584
L33559 19603
L33690 19603
L33690 19528
" />
<path d="M34146 17331
L34540 17331
L34540 17481
L34521 17518
L34503 17537
L34465 17556
L34409 17556
L34371 17537
L34353 17518
L34334 17481
L34334 17331
" />
<path d="M34540 17725
L34221 17725
L34184 17743
L34165 17762
L34146 17800
L34146 17874
L34165 17912
L34184 17931
L34221 17949
L34540 17949
" />
<path d="M34146 18324
L34146 18137
L34540 18137
" />
<path d="M34371 15025
L34371 15324
" />
<path d="M34371 13650
L34371 13949
" />
<path d="M34221 13800
L34521 13800
" />
<path d="M34165 65934
L34146 65990
L34146 66084
L34165 66121
L34184 66140
L34221 66159
L34259 66159
L34296 66140
L34315 66121
L34334 66084
L34353 66009
L34371 65971
L34390 65953
L34428 65934
L34465 65934
L34503 65953
L34521 65971
L34540 66009
L34540 66103
L34521 66159
" />
<path d="M34146 66328
L34540 66328
L34540 66478
L34521 66515
L34503 66534
L34465 66553
L34409 66553
L34371 66534
L34353 66515
L34334 66478
L34334 66328
" />
<path d="M34146 66721
L34540 66721
L34146 66946
L34540 66946
" />
<path d="M34146 64065
L34540 64065
L34540 64215
L34521 64253
L34503 64271
L34465 64290
L34409 64290
L34371 64271
L34353 64253
L34334 64215
L34334 64065
" />
<path d="M34146 64646
L34146 64459
L34540 64459
" />
<path d="M34259 64759
L34259 64946
" />
<path d="M34146 64721
L34540 64853
L34146 64984
" />
<path d="M34540 65059
L34540 65284
" />
<path d="M34146 65171
L34540 65171
" />
<path d="M34353 65415
L34353 65546
" />
<path d="M34146 65603
L34146 65415
L34540 65415
L34540 65603
" />
<path d="M34384 60909
L34384 61096
" />
<path d="M34271 60871
L34665 61003
L34271 61134
" />
<path d="M34309 61490
L34290 61471
L34271 61415
L34271 61378
L34290 61321
L34327 61284
L34365 61265
L34440 61246
L34496 61246
L34571 61265
L34609 61284
L34646 61321
L34665 61378
L34665 61415
L34646 61471
L34627 61490
" />
<path d="M34271 61659
L34665 61659
L34384 61790
L34665 61921
L34271 61921
" />
<path d="M33472 60768
L33490 60750
L33547 60712
L33584 60693
L33640 60675
L33734 60656
L33809 60656
L33903 60675
L33959 60693
L33997 60712
L34053 60750
L34072 60768
" />
<path d="M33997 61125
L34015 61087
L34015 61031
L33997 60975
L33959 60937
L33922 60918
L33847 60900
L33790 60900
L33715 60918
L33678 60937
L33640 60975
L33622 61031
L33622 61068
L33640 61125
L33659 61143
L33790 61143
L33790 61068
" />
<path d="M33622 61312
L34015 61312
L33622 61537
L34015 61537
" />
<path d="M33622 61724
L34015 61724
L34015 61818
L33997 61874
L33959 61912
L33922 61931
L33847 61949
L33790 61949
L33715 61931
L33678 61912
L33640 61874
L33622 61818
L33622 61724
" />
<path d="M33472 62081
L33490 62099
L33547 62137
L33584 62156
L33640 62174
L33734 62193
L33809 62193
L33903 62174
L33959 62156
L33997 62137
L34053 62099
L34072 62081
" />
<path d="M34515 59850
L34121 59981
L34515 60112
" />
<path d="M34121 60243
L34515 60243
" />
<path d="M34146 58225
L34540 58225
L34540 58318
L34521 58375
L34484 58412
L34446 58431
L34371 58450
L34315 58450
L34240 58431
L34202 58412
L34165 58375
L34146 58318
L34146 58225
" />
<path d="M34184 58843
L34165 58824
L34146 58768
L34146 58731
L34165 58675
L34202 58637
L34240 58618
L34315 58600
L34371 58600
L34446 58618
L34484 58637
L34521 58675
L34540 58731
L34540 58768
L34521 58824
L34502 58843
" />
<path d="M34146 59012
L34540 59012
L34259 59143
L34540 59274
L34146 59274
" />
<path d="M33347 58065
L33365 58046
L33422 58009
L33459 57990
L33515 57971
L33609 57953
L33684 57953
L33778 57971
L33834 57990
L33872 58009
L33928 58046
L33947 58065
" />
<path d="M33534 58440
L33515 58421
L33497 58365
L33497 58328
L33515 58271
L33553 58234
L33590 58215
L33665 58196
L33722 58196
L33797 58215
L33834 58234
L33872 58271
L33890 58328
L33890 58365
L33872 58421
L33853 58440
" />
<path d="M33890 58684
L33890 58759
L33872 58796
L33834 58834
L33759 58853
L33628 58853
L33553 58834
L33515 58796
L33497 58759
L33497 58684
L33515 58646
L33553 58609
L33628 58590
L33759 58590
L33834 58609
L33872 58646
L33890 58684
" />
<path d="M33497 59021
L33890 59021
L33609 59153
L33890 59284
L33497 59284
" />
<path d="M33347 59434
L33365 59453
L33422 59490
L33459 59509
L33515 59528
L33609 59546
L33684 59546
L33778 59528
L33834 59509
L33872 59490
L33928 59453
L33947 59434
" />
<path d="M34378 56953
L34378 56821
" />
<path d="M34171 56821
L34565 56821
L34565 57009
" />
<path d="M34565 57234
L34565 57309
L34546 57346
L34509 57384
L34434 57403
L34303 57403
L34228 57384
L34190 57346
L34171 57309
L34171 57234
L34190 57196
L34228 57159
L34303 57140
L34434 57140
L34509 57159
L34546 57196
L34565 57234
" />
<path d="M34171 57796
L34359 57665
" />
<path d="M34171 57571
L34565 57571
L34565 57721
L34546 57759
L34528 57778
L34490 57796
L34434 57796
L34396 57778
L34378 57759
L34359 57721
L34359 57571
" />
</g>
<g style="fill:#000000; fill-opacity:0.0; 
stroke:#000000; stroke-width:39.3701; stroke-opacity:1; 
stroke-linecap:round; stroke-linejoin:round;">
<circle cx="42500" cy="58276.1" r="1101.14" /> 
<circle cx="55675" cy="58275" r="1100" /> 
<circle cx="42475" cy="16879.5" r="1104.54" /> 
<circle cx="55700" cy="16880" r="1004.99" /> 
<path d="M32100 67250
L32100 13100
" />
<path d="M63025 67750
L32600 67750
" />
<path d="M63525 13075
L63525 67250
" />
<path d="M32600 12600
L63025 12575
" />
</g>
<g style="fill:#000000; fill-opacity:0.0; 
stroke:#000000; stroke-width:59.0551; stroke-opacity:1; 
stroke-linecap:round; stroke-linejoin:round;">
<path d="M55912 28228
L55687 28228
" />
<path d="M55800 28228
L55800 27834
L55762 27890
L55725 27928
L55687 27946
" />
</g>
<g style="fill:#000000; fill-opacity:0.0; 
stroke:#000000; stroke-width:47.2441; stroke-opacity:1; 
stroke-linecap:round; stroke-linejoin:round;">
<path d="M37920 56188
L37920 56975
" />
<path d="M37427 56188
L37920 56188
" />
<path d="M35164 62074
L35164 61779
" />
<path d="M36857 62074
L35164 62074
" />
<path d="M36857 61779
L36857 62074
" />
<path d="M36994 61779
L36857 61779
" />
<path d="M36994 61975
L36994 61779
" />
<path d="M37388 62074
L36994 61975
" />
<path d="M37388 60893
L37388 62074
" />
<path d="M36994 60991
L37388 60893
" />
<path d="M36994 61188
L36994 60991
" />
<path d="M36857 61188
L36994 61188
" />
<path d="M36857 60893
L36857 61188
" />
<path d="M35164 60893
L36857 60893
" />
<path d="M35164 61188
L35164 60893
" />
<path d="M35164 60696
L35164 60401
" />
<path d="M36857 60696
L35164 60696
" />
<path d="M36857 60401
L36857 60696
" />
<path d="M36994 60401
L36857 60401
" />
<path d="M36994 60598
L36994 60401
" />
<path d="M37388 60696
L36994 60598
" />
<path d="M37388 59515
L37388 60696
" />
<path d="M36994 59613
L37388 59515
" />
<path d="M36994 59810
L36994 59613
" />
<path d="M36857 59810
L36994 59810
" />
<path d="M36857 59515
L36857 59810
" />
<path d="M35164 59515
L36857 59515
" />
<path d="M35164 59810
L35164 59515
" />
<path d="M35164 59318
L35164 59023
" />
<path d="M36857 59318
L35164 59318
" />
<path d="M36857 59023
L36857 59318
" />
<path d="M36994 59023
L36857 59023
" />
<path d="M36994 59220
L36994 59023
" />
<path d="M37388 59318
L36994 59220
" />
<path d="M37388 58137
L37388 59318
" />
<path d="M36994 58235
L37388 58137
" />
<path d="M36994 58432
L36994 58235
" />
<path d="M36857 58432
L36994 58432
" />
<path d="M36857 58137
L36857 58432
" />
<path d="M35164 58137
L36857 58137
" />
<path d="M35164 58432
L35164 58137
" />
<path d="M35164 57940
L35164 57645
" />
<path d="M36857 57940
L35164 57940
" />
<path d="M36857 57645
L36857 57940
" />
<path d="M36994 57645
L36857 57645
" />
<path d="M36994 57842
L36994 57645
" />
<path d="M37388 57940
L36994 57842
" />
<path d="M37388 56759
L37388 57940
" />
<path d="M36994 56857
L37388 56759
" />
<path d="M36994 57054
L36994 56857
" />
<path d="M36857 57054
L36994 57054
" />
<path d="M36857 56759
L36857 57054
" />
<path d="M35164 56759
L36857 56759
" />
<path d="M35164 57054
L35164 56759
" />
<path d="M37766 62491
L37766 56342
" />
<path d="M34825 62491
L37766 62491
" />
<path d="M34825 56342
L34825 62491
" />
<path d="M37766 56342
L34825 56342
" />
<path d="M35164.2 61779 A731.531 731.531 0.0 0 0 35164.2 61188.6 " />
<path d="M35164.2 60401 A731.531 731.531 0.0 0 0 35164.2 59810.6 " />
<path d="M35164.2 59023.1 A731.531 731.531 0.0 0 0 35164.2 58432.7 " />
<path d="M35164.2 57645.1 A731.531 731.531 0.0 0 0 35164.2 57054.7 " />
<path d="M37920 43388
L37920 44175
" />
<path d="M37427 43388
L37920 43388
" />
<path d="M35164 54786
L35164 54490
" />
<path d="M36857 54786
L35164 54786
" />
<path d="M36857 54490
L36857 54786
" />
<path d="M36994 54490
L36857 54490
" />
<path d="M36994 54687
L36994 54490
" />
<path d="M37388 54786
L36994 54687
" />
<path d="M37388 53605
L37388 54786
" />
<path d="M36994 53703
L37388 53605
" />
<path d="M36994 53900
L36994 53703
" />
<path d="M36857 53900
L36994 53900
" />
<path d="M36857 53605
L36857 53900
" />
<path d="M35164 53605
L36857 53605
" />
<path d="M35164 53900
L35164 53605
" />
<path d="M35164 53408
L35164 53112
" />
<path d="M36857 53408
L35164 53408
" />
<path d="M36857 53112
L36857 53408
" />
<path d="M36994 53112
L36857 53112
" />
<path d="M36994 53309
L36994 53112
" />
<path d="M37388 53408
L36994 53309
" />
<path d="M37388 52227
L37388 53408
" />
<path d="M36994 52325
L37388 52227
" />
<path d="M36994 52522
L36994 52325
" />
<path d="M36857 52522
L36994 52522
" />
<path d="M36857 52227
L36857 52522
" />
<path d="M35164 52227
L36857 52227
" />
<path d="M35164 52522
L35164 52227
" />
<path d="M35164 52030
L35164 51735
" />
<path d="M36857 52030
L35164 52030
" />
<path d="M36857 51735
L36857 52030
" />
<path d="M36994 51735
L36857 51735
" />
<path d="M36994 51931
L36994 51735
" />
<path d="M37388 52030
L36994 51931
" />
<path d="M37388 50849
L37388 52030
" />
<path d="M36994 50947
L37388 50849
" />
<path d="M36994 51144
L36994 50947
" />
<path d="M36857 51144
L36994 51144
" />
<path d="M36857 50849
L36857 51144
" />
<path d="M35164 50849
L36857 50849
" />
<path d="M35164 51144
L35164 50849
" />
<path d="M35164 50652
L35164 50357
" />
<path d="M36857 50652
L35164 50652
" />
<path d="M36857 50357
L36857 50652
" />
<path d="M36994 50357
L36857 50357
" />
<path d="M36994 50553
L36994 50357
" />
<path d="M37388 50652
L36994 50553
" />
<path d="M37388 49471
L37388 50652
" />
<path d="M36994 49569
L37388 49471
" />
<path d="M36994 49766
L36994 49569
" />
<path d="M36857 49766
L36994 49766
" />
<path d="M36857 49471
L36857 49766
" />
<path d="M35164 49471
L36857 49471
" />
<path d="M35164 49766
L35164 49471
" />
<path d="M35164 49274
L35164 48979
" />
<path d="M36857 49274
L35164 49274
" />
<path d="M36857 48979
L36857 49274
" />
<path d="M36994 48979
L36857 48979
" />
<path d="M36994 49175
L36994 48979
" />
<path d="M37388 49274
L36994 49175
" />
<path d="M37388 48093
L37388 49274
" />
<path d="M36994 48191
L37388 48093
" />
<path d="M36994 48388
L36994 48191
" />
<path d="M36857 48388
L36994 48388
" />
<path d="M36857 48093
L36857 48388
" />
<path d="M35164 48093
L36857 48093
" />
<path d="M35164 48388
L35164 48093
" />
<path d="M35164 47896
L35164 47601
" />
<path d="M36857 47896
L35164 47896
" />
<path d="M36857 47601
L36857 47896
" />
<path d="M36994 47601
L36857 47601
" />
<path d="M36994 47798
L36994 47601
" />
<path d="M37388 47896
L36994 47798
" />
<path d="M37388 46715
L37388 47896
" />
<path d="M36994 46813
L37388 46715
" />
<path d="M36994 47010
L36994 46813
" />
<path d="M36857 47010
L36994 47010
" />
<path d="M36857 46715
L36857 47010
" />
<path d="M35164 46715
L36857 46715
" />
<path d="M35164 47010
L35164 46715
" />
<path d="M35164 46518
L35164 46223
" />
<path d="M36857 46518
L35164 46518
" />
<path d="M36857 46223
L36857 46518
" />
<path d="M36994 46223
L36857 46223
" />
<path d="M36994 46420
L36994 46223
" />
<path d="M37388 46518
L36994 46420
" />
<path d="M37388 45337
L37388 46518
" />
<path d="M36994 45435
L37388 45337
" />
<path d="M36994 45632
L36994 45435
" />
<path d="M36857 45632
L36994 45632
" />
<path d="M36857 45337
L36857 45632
" />
<path d="M35164 45337
L36857 45337
" />
<path d="M35164 45632
L35164 45337
" />
<path d="M35164 45140
L35164 44845
" />
<path d="M36857 45140
L35164 45140
" />
<path d="M36857 44845
L36857 45140
" />
<path d="M36994 44845
L36857 44845
" />
<path d="M36994 45042
L36994 44845
" />
<path d="M37388 45140
L36994 45042
" />
<path d="M37388 43959
L37388 45140
" />
<path d="M36994 44057
L37388 43959
" />
<path d="M36994 44254
L36994 44057
" />
<path d="M36857 44254
L36994 44254
" />
<path d="M36857 43959
L36857 44254
" />
<path d="M35164 43959
L36857 43959
" />
<path d="M35164 44254
L35164 43959
" />
<path d="M37766 55203
L37766 43542
" />
<path d="M34825 55203
L37766 55203
" />
<path d="M34825 43542
L34825 55203
" />
<path d="M37766 43542
L34825 43542
" />
<path d="M35164.2 54490.8 A731.531 731.531 0.0 0 0 35164.2 53900.4 " />
<path d="M35164.2 53112.9 A731.531 731.531 0.0 0 0 35164.2 52522.4 " />
<path d="M35164.2 51734.9 A731.531 731.531 0.0 0 0 35164.2 51144.5 " />
<path d="M35164.2 50356.9 A731.531 731.531 0.0 0 0 35164.2 49766.5 " />
<path d="M35164.2 48979 A731.531 731.531 0.0 0 0 35164.2 48388.6 " />
<path d="M35164.2 47601 A731.531 731.531 0.0 0 0 35164.2 47010.6 " />
<path d="M35164.2 46223.1 A731.531 731.531 0.0 0 0 35164.2 45632.7 " />
<path d="M35164.2 44845.1 A731.531 731.531 0.0 0 0 35164.2 44254.7 " />
<path d="M37920 63788
L37920 64575
" />
<path d="M37427 63788
L37920 63788
" />
<path d="M35164 66918
L35164 66623
" />
<path d="M36857 66918
L35164 66918
" />
<path d="M36857 66623
L36857 66918
" />
<path d="M36994 66623
L36857 66623
" />
<path d="M36994 66820
L36994 66623
" />
<path d="M37388 66918
L36994 66820
" />
<path d="M37388 65737
L37388 66918
" />
<path d="M36994 65835
L37388 65737
" />
<path d="M36994 66032
L36994 65835
" />
<path d="M36857 66032
L36994 66032
" />
<path d="M36857 65737
L36857 66032
" />
<path d="M35164 65737
L36857 65737
" />
<path d="M35164 66032
L35164 65737
" />
<path d="M35164 65540
L35164 65245
" />
<path d="M36857 65540
L35164 65540
" />
<path d="M36857 65245
L36857 65540
" />
<path d="M36994 65245
L36857 65245
" />
<path d="M36994 65442
L36994 65245
" />
<path d="M37388 65540
L36994 65442
" />
<path d="M37388 64359
L37388 65540
" />
<path d="M36994 64457
L37388 64359
" />
<path d="M36994 64654
L36994 64457
" />
<path d="M36857 64654
L36994 64654
" />
<path d="M36857 64359
L36857 64654
" />
<path d="M35164 64359
L36857 64359
" />
<path d="M35164 64654
L35164 64359
" />
<path d="M37766 67335
L37766 63942
" />
<path d="M34825 67335
L37766 67335
" />
<path d="M34825 63942
L34825 67335
" />
<path d="M37766 63942
L34825 63942
" />
<path d="M35164.2 66623.1 A731.531 731.531 0.0 0 0 35164.2 66032.7 " />
<path d="M35164.2 65245.1 A731.531 731.531 0.0 0 0 35164.2 64654.7 " />
<path d="M37920 12688
L37920 13475
" />
<path d="M37427 12688
L37920 12688
" />
<path d="M35164 15818
L35164 15523
" />
<path d="M36857 15818
L35164 15818
" />
<path d="M36857 15523
L36857 15818
" />
<path d="M36994 15523
L36857 15523
" />
<path d="M36994 15720
L36994 15523
" />
<path d="M37388 15818
L36994 15720
" />
<path d="M37388 14637
L37388 15818
" />
<path d="M36994 14735
L37388 14637
" />
<path d="M36994 14932
L36994 14735
" />
<path d="M36857 14932
L36994 14932
" />
<path d="M36857 14637
L36857 14932
" />
<path d="M35164 14637
L36857 14637
" />
<path d="M35164 14932
L35164 14637
" />
<path d="M35164 14440
L35164 14145
" />
<path d="M36857 14440
L35164 14440
" />
<path d="M36857 14145
L36857 14440
" />
<path d="M36994 14145
L36857 14145
" />
<path d="M36994 14342
L36994 14145
" />
<path d="M37388 14440
L36994 14342
" />
<path d="M37388 13259
L37388 14440
" />
<path d="M36994 13357
L37388 13259
" />
<path d="M36994 13554
L36994 13357
" />
<path d="M36857 13554
L36994 13554
" />
<path d="M36857 13259
L36857 13554
" />
<path d="M35164 13259
L36857 13259
" />
<path d="M35164 13554
L35164 13259
" />
<path d="M37766 16235
L37766 12842
" />
<path d="M34825 16235
L37766 16235
" />
<path d="M34825 12842
L34825 16235
" />
<path d="M37766 12842
L34825 12842
" />
<path d="M35164.2 15523.1 A731.531 731.531 0.0 0 0 35164.2 14932.7 " />
<path d="M35164.2 14145.1 A731.531 731.531 0.0 0 0 35164.2 13554.7 " />
<path d="M43770 29688
L43770 30475
" />
<path d="M43277 29688
L43770 29688
" />
<path d="M41014 41086
L41014 40790
" />
<path d="M42707 41086
L41014 41086
" />
<path d="M42707 40790
L42707 41086
" />
<path d="M42844 40790
L42707 40790
" />
<path d="M42844 40987
L42844 40790
" />
<path d="M43238 41086
L42844 40987
" />
<path d="M43238 39905
L43238 41086
" />
<path d="M42844 40003
L43238 39905
" />
<path d="M42844 40200
L42844 40003
" />
<path d="M42707 40200
L42844 40200
" />
<path d="M42707 39905
L42707 40200
" />
<path d="M41014 39905
L42707 39905
" />
<path d="M41014 40200
L41014 39905
" />
<path d="M41014 39708
L41014 39412
" />
<path d="M42707 39708
L41014 39708
" />
<path d="M42707 39412
L42707 39708
" />
<path d="M42844 39412
L42707 39412
" />
<path d="M42844 39609
L42844 39412
" />
<path d="M43238 39708
L42844 39609
" />
<path d="M43238 38527
L43238 39708
" />
<path d="M42844 38625
L43238 38527
" />
<path d="M42844 38822
L42844 38625
" />
<path d="M42707 38822
L42844 38822
" />
<path d="M42707 38527
L42707 38822
" />
<path d="M41014 38527
L42707 38527
" />
<path d="M41014 38822
L41014 38527
" />
<path d="M41014 38330
L41014 38035
" />
<path d="M42707 38330
L41014 38330
" />
<path d="M42707 38035
L42707 38330
" />
<path d="M42844 38035
L42707 38035
" />
<path d="M42844 38231
L42844 38035
" />
<path d="M43238 38330
L42844 38231
" />
<path d="M43238 37149
L43238 38330
" />
<path d="M42844 37247
L43238 37149
" />
<path d="M42844 37444
L42844 37247
" />
<path d="M42707 37444
L42844 37444
" />
<path d="M42707 37149
L42707 37444
" />
<path d="M41014 37149
L42707 37149
" />
<path d="M41014 37444
L41014 37149
" />
<path d="M41014 36952
L41014 36657
" />
<path d="M42707 36952
L41014 36952
" />
<path d="M42707 36657
L42707 36952
" />
<path d="M42844 36657
L42707 36657
" />
<path d="M42844 36853
L42844 36657
" />
<path d="M43238 36952
L42844 36853
" />
<path d="M43238 35771
L43238 36952
" />
<path d="M42844 35869
L43238 35771
" />
<path d="M42844 36066
L42844 35869
" />
<path d="M42707 36066
L42844 36066
" />
<path d="M42707 35771
L42707 36066
" />
<path d="M41014 35771
L42707 35771
" />
<path d="M41014 36066
L41014 35771
" />
<path d="M41014 35574
L41014 35279
" />
<path d="M42707 35574
L41014 35574
" />
<path d="M42707 35279
L42707 35574
" />
<path d="M42844 35279
L42707 35279
" />
<path d="M42844 35475
L42844 35279
" />
<path d="M43238 35574
L42844 35475
" />
<path d="M43238 34393
L43238 35574
" />
<path d="M42844 34491
L43238 34393
" />
<path d="M42844 34688
L42844 34491
" />
<path d="M42707 34688
L42844 34688
" />
<path d="M42707 34393
L42707 34688
" />
<path d="M41014 34393
L42707 34393
" />
<path d="M41014 34688
L41014 34393
" />
<path d="M41014 34196
L41014 33901
" />
<path d="M42707 34196
L41014 34196
" />
<path d="M42707 33901
L42707 34196
" />
<path d="M42844 33901
L42707 33901
" />
<path d="M42844 34098
L42844 33901
" />
<path d="M43238 34196
L42844 34098
" />
<path d="M43238 33015
L43238 34196
" />
<path d="M42844 33113
L43238 33015
" />
<path d="M42844 33310
L42844 33113
" />
<path d="M42707 33310
L42844 33310
" />
<path d="M42707 33015
L42707 33310
" />
<path d="M41014 33015
L42707 33015
" />
<path d="M41014 33310
L41014 33015
" />
<path d="M41014 32818
L41014 32523
" />
<path d="M42707 32818
L41014 32818
" />
<path d="M42707 32523
L42707 32818
" />
<path d="M42844 32523
L42707 32523
" />
<path d="M42844 32720
L42844 32523
" />
<path d="M43238 32818
L42844 32720
" />
<path d="M43238 31637
L43238 32818
" />
<path d="M42844 31735
L43238 31637
" />
<path d="M42844 31932
L42844 31735
" />
<path d="M42707 31932
L42844 31932
" />
<path d="M42707 31637
L42707 31932
" />
<path d="M41014 31637
L42707 31637
" />
<path d="M41014 31932
L41014 31637
" />
<path d="M41014 31440
L41014 31145
" />
<path d="M42707 31440
L41014 31440
" />
<path d="M42707 31145
L42707 31440
" />
<path d="M42844 31145
L42707 31145
" />
<path d="M42844 31342
L42844 31145
" />
<path d="M43238 31440
L42844 31342
" />
<path d="M43238 30259
L43238 31440
" />
<path d="M42844 30357
L43238 30259
" />
<path d="M42844 30554
L42844 30357
" />
<path d="M42707 30554
L42844 30554
" />
<path d="M42707 30259
L42707 30554
" />
<path d="M41014 30259
L42707 30259
" />
<path d="M41014 30554
L41014 30259
" />
<path d="M43616 41503
L43616 29842
" />
<path d="M40675 41503
L43616 41503
" />
<path d="M40675 29842
L40675 41503
" />
<path d="M43616 29842
L40675 29842
" />
<path d="M41014.2 40790.8 A731.531 731.531 0.0 0 0 41014.2 40200.4 " />
<path d="M41014.2 39412.9 A731.531 731.531 0.0 0 0 41014.2 38822.4 " />
<path d="M41014.2 38034.9 A731.531 731.531 0.0 0 0 41014.2 37444.5 " />
<path d="M41014.2 36656.9 A731.531 731.531 0.0 0 0 41014.2 36066.5 " />
<path d="M41014.2 35279 A731.531 731.531 0.0 0 0 41014.2 34688.6 " />
<path d="M41014.2 33901 A731.531 731.531 0.0 0 0 41014.2 33310.6 " />
<path d="M41014.2 32523.1 A731.531 731.531 0.0 0 0 41014.2 31932.7 " />
<path d="M41014.2 31145.1 A731.531 731.531 0.0 0 0 41014.2 30554.7 " />
<path d="M37920 29708
L37920 30496
" />
<path d="M37427 29708
L37920 29708
" />
<path d="M35164 41106
L35164 40811
" />
<path d="M36857 41106
L35164 41106
" />
<path d="M36857 40811
L36857 41106
" />
<path d="M36994 40811
L36857 40811
" />
<path d="M36994 41007
L36994 40811
" />
<path d="M37388 41106
L36994 41007
" />
<path d="M37388 39925
L37388 41106
" />
<path d="M36994 40023
L37388 39925
" />
<path d="M36994 40220
L36994 40023
" />
<path d="M36857 40220
L36994 40220
" />
<path d="M36857 39925
L36857 40220
" />
<path d="M35164 39925
L36857 39925
" />
<path d="M35164 40220
L35164 39925
" />
<path d="M35164 39728
L35164 39433
" />
<path d="M36857 39728
L35164 39728
" />
<path d="M36857 39433
L36857 39728
" />
<path d="M36994 39433
L36857 39433
" />
<path d="M36994 39630
L36994 39433
" />
<path d="M37388 39728
L36994 39630
" />
<path d="M37388 38547
L37388 39728
" />
<path d="M36994 38645
L37388 38547
" />
<path d="M36994 38842
L36994 38645
" />
<path d="M36857 38842
L36994 38842
" />
<path d="M36857 38547
L36857 38842
" />
<path d="M35164 38547
L36857 38547
" />
<path d="M35164 38842
L35164 38547
" />
<path d="M35164 38350
L35164 38055
" />
<path d="M36857 38350
L35164 38350
" />
<path d="M36857 38055
L36857 38350
" />
<path d="M36994 38055
L36857 38055
" />
<path d="M36994 38252
L36994 38055
" />
<path d="M37388 38350
L36994 38252
" />
<path d="M37388 37169
L37388 38350
" />
<path d="M36994 37267
L37388 37169
" />
<path d="M36994 37464
L36994 37267
" />
<path d="M36857 37464
L36994 37464
" />
<path d="M36857 37169
L36857 37464
" />
<path d="M35164 37169
L36857 37169
" />
<path d="M35164 37464
L35164 37169
" />
<path d="M35164 36972
L35164 36677
" />
<path d="M36857 36972
L35164 36972
" />
<path d="M36857 36677
L36857 36972
" />
<path d="M36994 36677
L36857 36677
" />
<path d="M36994 36874
L36994 36677
" />
<path d="M37388 36972
L36994 36874
" />
<path d="M37388 35791
L37388 36972
" />
<path d="M36994 35889
L37388 35791
" />
<path d="M36994 36086
L36994 35889
" />
<path d="M36857 36086
L36994 36086
" />
<path d="M36857 35791
L36857 36086
" />
<path d="M35164 35791
L36857 35791
" />
<path d="M35164 36086
L35164 35791
" />
<path d="M35164 35594
L35164 35299
" />
<path d="M36857 35594
L35164 35594
" />
<path d="M36857 35299
L36857 35594
" />
<path d="M36994 35299
L36857 35299
" />
<path d="M36994 35496
L36994 35299
" />
<path d="M37388 35594
L36994 35496
" />
<path d="M37388 34413
L37388 35594
" />
<path d="M36994 34511
L37388 34413
" />
<path d="M36994 34708
L36994 34511
" />
<path d="M36857 34708
L36994 34708
" />
<path d="M36857 34413
L36857 34708
" />
<path d="M35164 34413
L36857 34413
" />
<path d="M35164 34708
L35164 34413
" />
<path d="M35164 34216
L35164 33921
" />
<path d="M36857 34216
L35164 34216
" />
<path d="M36857 33921
L36857 34216
" />
<path d="M36994 33921
L36857 33921
" />
<path d="M36994 34118
L36994 33921
" />
<path d="M37388 34216
L36994 34118
" />
<path d="M37388 33035
L37388 34216
" />
<path d="M36994 33133
L37388 33035
" />
<path d="M36994 33330
L36994 33133
" />
<path d="M36857 33330
L36994 33330
" />
<path d="M36857 33035
L36857 33330
" />
<path d="M35164 33035
L36857 33035
" />
<path d="M35164 33330
L35164 33035
" />
<path d="M35164 32838
L35164 32543
" />
<path d="M36857 32838
L35164 32838
" />
<path d="M36857 32543
L36857 32838
" />
<path d="M36994 32543
L36857 32543
" />
<path d="M36994 32740
L36994 32543
" />
<path d="M37388 32838
L36994 32740
" />
<path d="M37388 31657
L37388 32838
" />
<path d="M36994 31756
L37388 31657
" />
<path d="M36994 31952
L36994 31756
" />
<path d="M36857 31952
L36994 31952
" />
<path d="M36857 31657
L36857 31952
" />
<path d="M35164 31657
L36857 31657
" />
<path d="M35164 31952
L35164 31657
" />
<path d="M35164 31460
L35164 31165
" />
<path d="M36857 31460
L35164 31460
" />
<path d="M36857 31165
L36857 31460
" />
<path d="M36994 31165
L36857 31165
" />
<path d="M36994 31362
L36994 31165
" />
<path d="M37388 31460
L36994 31362
" />
<path d="M37388 30279
L37388 31460
" />
<path d="M36994 30378
L37388 30279
" />
<path d="M36994 30574
L36994 30378
" />
<path d="M36857 30574
L36994 30574
" />
<path d="M36857 30279
L36857 30574
" />
<path d="M35164 30279
L36857 30279
" />
<path d="M35164 30574
L35164 30279
" />
<path d="M37766 41523
L37766 29862
" />
<path d="M34825 41523
L37766 41523
" />
<path d="M34825 29862
L34825 41523
" />
<path d="M37766 29862
L34825 29862
" />
<path d="M35164.2 40811 A731.531 731.531 0.0 0 0 35164.2 40220.6 " />
<path d="M35164.2 39433 A731.531 731.531 0.0 0 0 35164.2 38842.6 " />
<path d="M35164.2 38055.1 A731.531 731.531 0.0 0 0 35164.2 37464.7 " />
<path d="M35164.2 36677.1 A731.531 731.531 0.0 0 0 35164.2 36086.7 " />
<path d="M35164.2 35299.2 A731.531 731.531 0.0 0 0 35164.2 34708.8 " />
<path d="M35164.2 33921.2 A731.531 731.531 0.0 0 0 35164.2 33330.8 " />
<path d="M35164.2 32543.3 A731.531 731.531 0.0 0 0 35164.2 31952.9 " />
<path d="M35164.2 31165.3 A731.531 731.531 0.0 0 0 35164.2 30574.9 " />
<path d="M37920 16638
L37920 17425
" />
<path d="M37427 16638
L37920 16638
" />
<path d="M35164 28036
L35164 27740
" />
<path d="M36857 28036
L35164 28036
" />
<path d="M36857 27740
L36857 28036
" />
<path d="M36994 27740
L36857 27740
" />
<path d="M36994 27937
L36994 27740
" />
<path d="M37388 28036
L36994 27937
" />
<path d="M37388 26855
L37388 28036
" />
<path d="M36994 26953
L37388 26855
" />
<path d="M36994 27150
L36994 26953
" />
<path d="M36857 27150
L36994 27150
" />
<path d="M36857 26855
L36857 27150
" />
<path d="M35164 26855
L36857 26855
" />
<path d="M35164 27150
L35164 26855
" />
<path d="M35164 26658
L35164 26362
" />
<path d="M36857 26658
L35164 26658
" />
<path d="M36857 26362
L36857 26658
" />
<path d="M36994 26362
L36857 26362
" />
<path d="M36994 26559
L36994 26362
" />
<path d="M37388 26658
L36994 26559
" />
<path d="M37388 25477
L37388 26658
" />
<path d="M36994 25575
L37388 25477
" />
<path d="M36994 25772
L36994 25575
" />
<path d="M36857 25772
L36994 25772
" />
<path d="M36857 25477
L36857 25772
" />
<path d="M35164 25477
L36857 25477
" />
<path d="M35164 25772
L35164 25477
" />
<path d="M35164 25280
L35164 24985
" />
<path d="M36857 25280
L35164 25280
" />
<path d="M36857 24985
L36857 25280
" />
<path d="M36994 24985
L36857 24985
" />
<path d="M36994 25181
L36994 24985
" />
<path d="M37388 25280
L36994 25181
" />
<path d="M37388 24099
L37388 25280
" />
<path d="M36994 24197
L37388 24099
" />
<path d="M36994 24394
L36994 24197
" />
<path d="M36857 24394
L36994 24394
" />
<path d="M36857 24099
L36857 24394
" />
<path d="M35164 24099
L36857 24099
" />
<path d="M35164 24394
L35164 24099
" />
<path d="M35164 23902
L35164 23607
" />
<path d="M36857 23902
L35164 23902
" />
<path d="M36857 23607
L36857 23902
" />
<path d="M36994 23607
L36857 23607
" />
<path d="M36994 23803
L36994 23607
" />
<path d="M37388 23902
L36994 23803
" />
<path d="M37388 22721
L37388 23902
" />
<path d="M36994 22819
L37388 22721
" />
<path d="M36994 23016
L36994 22819
" />
<path d="M36857 23016
L36994 23016
" />
<path d="M36857 22721
L36857 23016
" />
<path d="M35164 22721
L36857 22721
" />
<path d="M35164 23016
L35164 22721
" />
<path d="M35164 22524
L35164 22229
" />
<path d="M36857 22524
L35164 22524
" />
<path d="M36857 22229
L36857 22524
" />
<path d="M36994 22229
L36857 22229
" />
<path d="M36994 22425
L36994 22229
" />
<path d="M37388 22524
L36994 22425
" />
<path d="M37388 21343
L37388 22524
" />
<path d="M36994 21441
L37388 21343
" />
<path d="M36994 21638
L36994 21441
" />
<path d="M36857 21638
L36994 21638
" />
<path d="M36857 21343
L36857 21638
" />
<path d="M35164 21343
L36857 21343
" />
<path d="M35164 21638
L35164 21343
" />
<path d="M35164 21146
L35164 20851
" />
<path d="M36857 21146
L35164 21146
" />
<path d="M36857 20851
L36857 21146
" />
<path d="M36994 20851
L36857 20851
" />
<path d="M36994 21048
L36994 20851
" />
<path d="M37388 21146
L36994 21048
" />
<path d="M37388 19965
L37388 21146
" />
<path d="M36994 20063
L37388 19965
" />
<path d="M36994 20260
L36994 20063
" />
<path d="M36857 20260
L36994 20260
" />
<path d="M36857 19965
L36857 20260
" />
<path d="M35164 19965
L36857 19965
" />
<path d="M35164 20260
L35164 19965
" />
<path d="M35164 19768
L35164 19473
" />
<path d="M36857 19768
L35164 19768
" />
<path d="M36857 19473
L36857 19768
" />
<path d="M36994 19473
L36857 19473
" />
<path d="M36994 19670
L36994 19473
" />
<path d="M37388 19768
L36994 19670
" />
<path d="M37388 18587
L37388 19768
" />
<path d="M36994 18685
L37388 18587
" />
<path d="M36994 18882
L36994 18685
" />
<path d="M36857 18882
L36994 18882
" />
<path d="M36857 18587
L36857 18882
" />
<path d="M35164 18587
L36857 18587
" />
<path d="M35164 18882
L35164 18587
" />
<path d="M35164 18390
L35164 18095
" />
<path d="M36857 18390
L35164 18390
" />
<path d="M36857 18095
L36857 18390
" />
<path d="M36994 18095
L36857 18095
" />
<path d="M36994 18292
L36994 18095
" />
<path d="M37388 18390
L36994 18292
" />
<path d="M37388 17209
L37388 18390
" />
<path d="M36994 17307
L37388 17209
" />
<path d="M36994 17504
L36994 17307
" />
<path d="M36857 17504
L36994 17504
" />
<path d="M36857 17209
L36857 17504
" />
<path d="M35164 17209
L36857 17209
" />
<path d="M35164 17504
L35164 17209
" />
<path d="M37766 28453
L37766 16792
" />
<path d="M34825 28453
L37766 28453
" />
<path d="M34825 16792
L34825 28453
" />
<path d="M37766 16792
L34825 16792
" />
<path d="M35164.2 27740.8 A731.531 731.531 0.0 0 0 35164.2 27150.4 " />
<path d="M35164.2 26362.9 A731.531 731.531 0.0 0 0 35164.2 25772.4 " />
<path d="M35164.2 24984.9 A731.531 731.531 0.0 0 0 35164.2 24394.5 " />
<path d="M35164.2 23606.9 A731.531 731.531 0.0 0 0 35164.2 23016.5 " />
<path d="M35164.2 22229 A731.531 731.531 0.0 0 0 35164.2 21638.6 " />
<path d="M35164.2 20851 A731.531 731.531 0.0 0 0 35164.2 20260.6 " />
<path d="M35164.2 19473.1 A731.531 731.531 0.0 0 0 35164.2 18882.7 " />
<path d="M35164.2 18095.1 A731.531 731.531 0.0 0 0 35164.2 17504.7 " />
</g>
<g style="fill:#000000; fill-opacity:0.0; 
stroke:#000000; stroke-width:59.0551; stroke-opacity:1; 
stroke-linecap:round; stroke-linejoin:round;">
<path d="M55400 28550
L55400 27550
" />
<path d="M55400 27550
L54400 27550
" />
<path d="M54400 27550
L54400 28550
" />
<path d="M55400 28550
L55400 42550
" />
<path d="M55400 42550
L54400 42550
" />
<path d="M54400 42550
L54400 28550
" />
<path d="M54400 28550
L55400 28550
" />
<path d="M61400 28550
L61400 27550
" />
<path d="M61400 27550
L60400 27550
" />
<path d="M60400 27550
L60400 28550
" />
<path d="M61400 28550
L61400 42550
" />
<path d="M61400 42550
L60400 42550
" />
<path d="M60400 42550
L60400 28550
" />
<path d="M60400 28550
L61400 28550
" />
<path d="M38036 58085
L38017 58142
L38017 58235
L38036 58273
L38055 58292
L38092 58310
L38130 58310
L38167 58292
L38186 58273
L38205 58235
L38223 58160
L38242 58123
L38261 58104
L38298 58085
L38336 58085
L38373 58104
L38392 58123
L38411 58160
L38411 58254
L38392 58310
" />
<path d="M38017 58479
L38411 58479
L38411 58629
L38392 58667
L38373 58685
L38336 58704
L38280 58704
L38242 58685
L38223 58667
L38205 58629
L38205 58479
" />
<path d="M38017 58873
L38411 58873
" />
<path d="M38017 59060
L38411 59060
L38017 59285
L38411 59285
" />
<path d="M38017 59473
L38411 59473
L38411 59566
L38392 59623
L38355 59660
L38317 59679
L38242 59698
L38186 59698
L38111 59679
L38073 59660
L38036 59623
L38017 59566
L38017 59473
" />
<path d="M38017 60054
L38017 59866
L38411 59866
" />
<path d="M38223 60185
L38223 60316
" />
<path d="M38017 60373
L38017 60185
L38411 60185
L38411 60373
" />
<path d="M38017 60748
L38017 60523
" />
<path d="M38017 60635
L38411 60635
L38355 60598
L38317 60560
L38298 60523
" />
<path d="M38411 46879
L38411 47141
L38017 46879
L38017 47141
" />
<path d="M37980 47198
L37980 47498
" />
<path d="M38017 47591
L38411 47591
L38411 47741
L38392 47779
L38373 47798
L38336 47816
L38280 47816
L38242 47798
L38223 47779
L38205 47741
L38205 47591
" />
<path d="M38017 48172
L38017 47985
L38411 47985
" />
<path d="M38411 48304
L38092 48304
L38055 48322
L38036 48341
L38017 48379
L38017 48454
L38036 48491
L38055 48510
L38092 48529
L38411 48529
" />
<path d="M38392 48922
L38411 48885
L38411 48829
L38392 48772
L38355 48735
L38317 48716
L38242 48697
L38186 48697
L38111 48716
L38073 48735
L38036 48772
L38017 48829
L38017 48866
L38036 48922
L38055 48941
L38186 48941
L38186 48866
" />
<path d="M37980 49016
L37980 49316
" />
<path d="M38036 49391
L38017 49447
L38017 49541
L38036 49579
L38055 49597
L38092 49616
L38130 49616
L38167 49597
L38186 49579
L38205 49541
L38223 49466
L38242 49429
L38261 49410
L38298 49391
L38336 49391
L38373 49410
L38392 49429
L38411 49466
L38411 49560
L38392 49616
" />
<path d="M38411 49860
L38411 49935
L38392 49972
L38355 50010
L38280 50029
L38148 50029
L38073 50010
L38036 49972
L38017 49935
L38017 49860
L38036 49822
L38073 49785
L38148 49766
L38280 49766
L38355 49785
L38392 49822
L38411 49860
" />
<path d="M38055 50422
L38036 50403
L38017 50347
L38017 50310
L38036 50253
L38073 50216
L38111 50197
L38186 50178
L38242 50178
L38317 50197
L38355 50216
L38392 50253
L38411 50310
L38411 50347
L38392 50403
L38373 50422
" />
<path d="M38017 50591
L38411 50591
" />
<path d="M38017 50816
L38242 50647
" />
<path d="M38411 50816
L38186 50591
" />
<path d="M38223 50985
L38223 51116
" />
<path d="M38017 51172
L38017 50985
L38411 50985
L38411 51172
" />
<path d="M38411 51285
L38411 51510
" />
<path d="M38017 51397
L38411 51397
" />
<path d="M38017 51847
L38017 51622
" />
<path d="M38017 51735
L38411 51735
L38355 51697
L38317 51660
L38298 51622
" />
<path d="M38271 64781
L38665 64781
L38665 64931
L38646 64968
L38628 64987
L38590 65006
L38534 65006
L38496 64987
L38478 64968
L38459 64931
L38459 64781
" />
<path d="M38271 65400
L38459 65268
" />
<path d="M38271 65175
L38665 65175
L38665 65325
L38646 65362
L38628 65381
L38590 65400
L38534 65400
L38496 65381
L38478 65362
L38459 65325
L38459 65175
" />
<path d="M38665 65643
L38665 65718
L38646 65756
L38609 65793
L38534 65812
L38403 65812
L38328 65793
L38290 65756
L38271 65718
L38271 65643
L38290 65606
L38328 65568
L38403 65550
L38534 65550
L38609 65568
L38646 65606
L38665 65643
" />
<path d="M38478 66112
L38459 66168
L38440 66187
L38403 66206
L38346 66206
L38309 66187
L38290 66168
L38271 66131
L38271 65981
L38665 65981
L38665 66112
L38646 66149
L38628 66168
L38590 66187
L38553 66187
L38515 66168
L38496 66149
L38478 66112
L38478 65981
" />
<path d="M38478 66374
L38478 66506
" />
<path d="M38271 66562
L38271 66374
L38665 66374
L38665 66562
" />
<path d="M38271 66937
L38271 66712
" />
<path d="M38271 66824
L38665 66824
L38609 66787
L38571 66749
L38553 66712
" />
<path d="M38017 12992
L38411 12992
L38411 13142
L38392 13179
L38373 13198
L38336 13217
L38280 13217
L38242 13198
L38223 13179
L38205 13142
L38205 12992
" />
<path d="M38411 13460
L38411 13535
L38392 13573
L38355 13610
L38280 13629
L38148 13629
L38073 13610
L38036 13573
L38017 13535
L38017 13460
L38036 13423
L38073 13385
L38148 13367
L38280 13367
L38355 13385
L38392 13423
L38411 13460
" />
<path d="M38411 13760
L38017 13854
L38298 13929
L38017 14004
L38411 14098
" />
<path d="M38223 14248
L38223 14379
" />
<path d="M38017 14435
L38017 14248
L38411 14248
L38411 14435
" />
<path d="M38017 14829
L38205 14698
" />
<path d="M38017 14604
L38411 14604
L38411 14754
L38392 14792
L38373 14810
L38336 14829
L38280 14829
L38242 14810
L38223 14792
L38205 14754
L38205 14604
" />
<path d="M37980 14904
L37980 15204
" />
<path d="M38017 15298
L38411 15298
" />
<path d="M38017 15485
L38411 15485
L38017 15710
L38411 15710
" />
<path d="M38017 16104
L38017 15879
" />
<path d="M38017 15991
L38411 15991
L38355 15954
L38317 15916
L38298 15879
" />
<path d="M44055 33123
L43867 33123
" />
<path d="M44261 32991
L44055 33123
L44261 33254
" />
<path d="M44223 33366
L44242 33385
L44261 33423
L44261 33516
L44242 33554
L44223 33573
L44186 33591
L44148 33591
L44092 33573
L43867 33348
L43867 33591
" />
<path d="M43830 33666
L43830 33966
" />
<path d="M43867 34060
L44261 34060
L44261 34210
L44242 34248
L44223 34266
L44186 34285
L44130 34285
L44092 34266
L44073 34248
L44055 34210
L44055 34060
" />
<path d="M43867 34641
L43867 34454
L44261 34454
" />
<path d="M44261 34772
L43942 34772
L43905 34791
L43886 34810
L43867 34847
L43867 34922
L43886 34960
L43905 34979
L43942 34997
L44261 34997
" />
<path d="M44242 35391
L44261 35354
L44261 35297
L44242 35241
L44205 35204
L44167 35185
L44092 35166
L44036 35166
L43961 35185
L43923 35204
L43886 35241
L43867 35297
L43867 35335
L43886 35391
L43905 35410
L44036 35410
L44036 35335
" />
<path d="M43830 35485
L43830 35785
" />
<path d="M43886 35860
L43867 35916
L43867 36010
L43886 36047
L43905 36066
L43942 36085
L43980 36085
L44017 36066
L44036 36047
L44055 36010
L44073 35935
L44092 35897
L44111 35879
L44148 35860
L44186 35860
L44223 35879
L44242 35897
L44261 35935
L44261 36029
L44242 36085
" />
<path d="M44261 36329
L44261 36403
L44242 36441
L44205 36478
L44130 36497
L43998 36497
L43923 36478
L43886 36441
L43867 36403
L43867 36329
L43886 36291
L43923 36254
L43998 36235
L44130 36235
L44205 36254
L44242 36291
L44261 36329
" />
<path d="M43905 36891
L43886 36872
L43867 36816
L43867 36778
L43886 36722
L43923 36685
L43961 36666
L44036 36647
L44092 36647
L44167 36666
L44205 36685
L44242 36722
L44261 36778
L44261 36816
L44242 36872
L44223 36891
" />
<path d="M43867 37060
L44261 37060
" />
<path d="M43867 37285
L44092 37116
" />
<path d="M44261 37285
L44036 37060
" />
<path d="M44073 37453
L44073 37585
" />
<path d="M43867 37641
L43867 37453
L44261 37453
L44261 37641
" />
<path d="M44261 37753
L44261 37978
" />
<path d="M43867 37866
L44261 37866
" />
<path d="M43867 38316
L43867 38091
" />
<path d="M43867 38203
L44261 38203
L44205 38166
L44167 38128
L44148 38091
" />
<path d="M38205 33143
L38017 33143
" />
<path d="M38411 33012
L38205 33143
L38411 33274
" />
<path d="M38017 33612
L38017 33387
" />
<path d="M38017 33499
L38411 33499
L38355 33462
L38317 33424
L38298 33387
" />
<path d="M37980 33687
L37980 33986
" />
<path d="M38017 34080
L38411 34080
L38411 34230
L38392 34268
L38373 34286
L38336 34305
L38280 34305
L38242 34286
L38223 34268
L38205 34230
L38205 34080
" />
<path d="M38017 34661
L38017 34474
L38411 34474
" />
<path d="M38411 34793
L38092 34793
L38055 34811
L38036 34830
L38017 34868
L38017 34943
L38036 34980
L38055 34999
L38092 35018
L38411 35018
" />
<path d="M38392 35411
L38411 35374
L38411 35318
L38392 35261
L38355 35224
L38317 35205
L38242 35186
L38186 35186
L38111 35205
L38073 35224
L38036 35261
L38017 35318
L38017 35355
L38036 35411
L38055 35430
L38186 35430
L38186 35355
" />
<path d="M37980 35505
L37980 35805
" />
<path d="M38036 35880
L38017 35936
L38017 36030
L38036 36067
L38055 36086
L38092 36105
L38130 36105
L38167 36086
L38186 36067
L38205 36030
L38223 35955
L38242 35917
L38261 35899
L38298 35880
L38336 35880
L38373 35899
L38392 35917
L38411 35955
L38411 36049
L38392 36105
" />
<path d="M38411 36349
L38411 36424
L38392 36461
L38355 36499
L38280 36517
L38148 36517
L38073 36499
L38036 36461
L38017 36424
L38017 36349
L38036 36311
L38073 36274
L38148 36255
L38280 36255
L38355 36274
L38392 36311
L38411 36349
" />
<path d="M38055 36911
L38036 36892
L38017 36836
L38017 36799
L38036 36742
L38073 36705
L38111 36686
L38186 36667
L38242 36667
L38317 36686
L38355 36705
L38392 36742
L38411 36799
L38411 36836
L38392 36892
L38373 36911
" />
<path d="M38017 37080
L38411 37080
" />
<path d="M38017 37305
L38242 37136
" />
<path d="M38411 37305
L38186 37080
" />
<path d="M38223 37474
L38223 37605
" />
<path d="M38017 37661
L38017 37474
L38411 37474
L38411 37661
" />
<path d="M38411 37774
L38411 37998
" />
<path d="M38017 37886
L38411 37886
" />
<path d="M38017 38336
L38017 38111
" />
<path d="M38017 38223
L38411 38223
L38355 38186
L38317 38148
L38298 38111
" />
<path d="M38411 20129
L38017 20391
" />
<path d="M38411 20391
L38017 20129
" />
<path d="M37980 20448
L37980 20748
" />
<path d="M38017 20841
L38411 20841
L38411 20991
L38392 21029
L38373 21048
L38336 21066
L38280 21066
L38242 21048
L38223 21029
L38205 20991
L38205 20841
" />
<path d="M38017 21422
L38017 21235
L38411 21235
" />
<path d="M38411 21554
L38092 21554
L38055 21572
L38036 21591
L38017 21629
L38017 21704
L38036 21741
L38055 21760
L38092 21779
L38411 21779
" />
<path d="M38392 22172
L38411 22135
L38411 22079
L38392 22022
L38355 21985
L38317 21966
L38242 21947
L38186 21947
L38111 21966
L38073 21985
L38036 22022
L38017 22079
L38017 22116
L38036 22172
L38055 22191
L38186 22191
L38186 22116
" />
<path d="M37980 22266
L37980 22566
" />
<path d="M38036 22641
L38017 22697
L38017 22791
L38036 22829
L38055 22847
L38092 22866
L38130 22866
L38167 22847
L38186 22829
L38205 22791
L38223 22716
L38242 22679
L38261 22660
L38298 22641
L38336 22641
L38373 22660
L38392 22679
L38411 22716
L38411 22810
L38392 22866
" />
<path d="M38411 23110
L38411 23185
L38392 23222
L38355 23260
L38280 23279
L38148 23279
L38073 23260
L38036 23222
L38017 23185
L38017 23110
L38036 23072
L38073 23035
L38148 23016
L38280 23016
L38355 23035
L38392 23072
L38411 23110
" />
<path d="M38055 23672
L38036 23653
L38017 23597
L38017 23560
L38036 23503
L38073 23466
L38111 23447
L38186 23428
L38242 23428
L38317 23447
L38355 23466
L38392 23503
L38411 23560
L38411 23597
L38392 23653
L38373 23672
" />
<path d="M38017 23841
L38411 23841
" />
<path d="M38017 24066
L38242 23897
" />
<path d="M38411 24066
L38186 23841
" />
<path d="M38223 24235
L38223 24366
" />
<path d="M38017 24422
L38017 24235
L38411 24235
L38411 24422
" />
<path d="M38411 24535
L38411 24760
" />
<path d="M38017 24647
L38411 24647
" />
<path d="M38017 25097
L38017 24872
" />
<path d="M38017 24985
L38411 24985
L38355 24947
L38317 24910
L38298 24872
" />
<path d="M41950 56312
L41950 55919
L42081 56200
L42212 55919
L42212 56312
" />
<path d="M42400 56312
L42400 55919
" />
<path d="M42400 56106
L42624 56106
" />
<path d="M42624 56312
L42624 55919
" />
<path d="M42981 56050
L42981 56312
" />
<path d="M42887 55900
L42793 56181
L43037 56181
" />
<path d="M55175 56287
L55175 55894
L55306 56175
L55437 55894
L55437 56287
" />
<path d="M55625 56287
L55625 55894
" />
<path d="M55625 56081
L55849 56081
" />
<path d="M55849 56287
L55849 55894
" />
<path d="M55999 55894
L56243 55894
L56112 56044
L56168 56044
L56206 56062
L56224 56081
L56243 56119
L56243 56212
L56224 56250
L56206 56269
L56168 56287
L56056 56287
L56018 56269
L55999 56250
" />
<path d="M41975 14862
L41975 14469
L42106 14750
L42237 14469
L42237 14862
" />
<path d="M42425 14862
L42425 14469
" />
<path d="M42425 14656
L42649 14656
" />
<path d="M42649 14862
L42649 14469
" />
<path d="M42818 14506
L42837 14487
L42874 14469
L42968 14469
L43006 14487
L43024 14506
L43043 14544
L43043 14581
L43024 14637
L42799 14862
L43043 14862
" />
<path d="M55200 14862
L55200 14469
L55331 14750
L55462 14469
L55462 14862
" />
<path d="M55650 14862
L55650 14469
" />
<path d="M55650 14656
L55874 14656
" />
<path d="M55874 14862
L55874 14469
" />
<path d="M56268 14862
L56043 14862
" />
<path d="M56156 14862
L56156 14469
L56118 14525
L56081 14562
L56043 14581
" />
<path d="M56078 34790
L55684 34790
L55684 34640
L55703 34603
L55721 34584
L55759 34565
L55815 34565
L55853 34584
L55871 34603
L55890 34640
L55890 34790
" />
<path d="M56078 34190
L56078 34415
" />
<path d="M56078 34303
L55684 34303
L55740 34340
L55778 34378
L55796 34415
" />
<path d="M60078 34790
L59684 34790
L59684 34640
L59703 34603
L59721 34584
L59759 34565
L59815 34565
L59853 34584
L59871 34603
L59890 34640
L59890 34790
" />
<path d="M59721 34415
L59703 34396
L59684 34359
L59684 34265
L59703 34228
L59721 34209
L59759 34190
L59796 34190
L59853 34209
L60078 34434
L60078 34190
" />
<path d="M54609 26428
L54609 26034
L54759 26034
L54796 26053
L54815 26071
L54834 26109
L54834 26165
L54815 26203
L54796 26221
L54759 26240
L54609 26240
" />
<path d="M54965 26034
L55209 26034
L55078 26184
L55134 26184
L55171 26203
L55190 26221
L55209 26259
L55209 26353
L55190 26390
L55171 26409
L55134 26428
L55021 26428
L54984 26409
L54965 26390
" />
<path d="M54609 42428
L54609 42034
L54759 42034
L54796 42053
L54815 42071
L54834 42109
L54834 42165
L54815 42203
L54796 42221
L54759 42240
L54609 42240
" />
<path d="M55171 42165
L55171 42428
" />
<path d="M55078 42015
L54984 42296
L55228 42296
" />
<path d="M60609 42428
L60609 42034
L60759 42034
L60796 42053
L60815 42071
L60834 42109
L60834 42165
L60815 42203
L60796 42221
L60759 42240
L60609 42240
" />
<path d="M61190 42034
L61003 42034
L60984 42221
L61003 42203
L61040 42184
L61134 42184
L61171 42203
L61190 42221
L61209 42259
L61209 42353
L61190 42390
L61171 42409
L61134 42428
L61040 42428
L61003 42409
L60984 42390
" />
<path d="M60609 26428
L60609 26034
L60759 26034
L60796 26053
L60815 26071
L60834 26109
L60834 26165
L60815 26203
L60796 26221
L60759 26240
L60609 26240
" />
<path d="M61171 26034
L61096 26034
L61059 26053
L61040 26071
L61003 26128
L60984 26203
L60984 26353
L61003 26390
L61021 26409
L61059 26428
L61134 26428
L61171 26409
L61190 26390
L61209 26353
L61209 26259
L61190 26221
L61171 26203
L61134 26184
L61059 26184
L61021 26203
L61003 26221
L60984 26259
" />
</g> 
</svg>
