0
SECTION
2
HEADER
9
$INSUNITS
70
4
9
$ACADVER
1
AC1014
9
$HANDSEED
5
FFFF
0
ENDSEC
0
SECTION
2
TABLES
0
TABLE
2
VPORT
5
8
100
AcDbSymbolTable
0
ENDTAB
0
TABLE
2
LTYPE
5
5
100
AcDbSymbolTable
0
LTYPE
5
14
100
AcDbSymbolTableRecord
100
AcDbLinetypeTableRecord
2
BYBLOCK
70
0
0
LTYPE
5
15
100
AcDbSymbolTableRecord
100
AcDbLinetypeTableRecord
2
BYLAYER
70
0
0
ENDTAB
0
TABLE
2
LAYER
5
2
100
AcDbSymbolTable
70
2
0
LAYER
5
50
100
AcDbSymbolTableRecord
100
AcDbLayerTableRecord
2
0
70
0
6
CONTINUOUS
0
ENDTAB
0
TABLE
2
STYLE
5
3
100
AcDbSymbolTable
70
1
0
STYLE
5
11
100
AcDbSymbolTableRecord
100
AcDbTextStyleTableRecord
2
STANDARD
70
0
0
ENDTAB
0
TABLE
2
VIEW
5
6
100
AcDbSymbolTable
70
0
0
ENDTAB
0
TABLE
2
UCS
5
7
100
AcDbSymbolTable
70
0
0
ENDTAB
0
TABLE
2
APPID
5
9
100
AcDbSymbolTable
70
2
0
APPID
5
12
100
AcDbSymbolTableRecord
100
AcDbRegAppTableRecord
2
ACAD
70
0
0
ENDTAB
0
TABLE
2
DIMSTYLE
5
A
100
AcDbSymbolTable
70
1
0
ENDTAB
0
TABLE
2
BLOCK_RECORD
5
1
100
AcDbSymbolTable
70
1
0
BLOCK_RECORD
5
1F
100
AcDbSymbolTableRecord
100
AcDbBlockTableRecord
2
*MODEL_SPACE
0
BLOCK_RECORD
5
1B
100
AcDbSymbolTableRecord
100
AcDbBlockTableRecord
2
*PAPER_SPACE
0
ENDTAB
0
ENDSEC
0
SECTION
2
BLOCKS
0
BLOCK
5
20
100
AcDbEntity
100
AcDbBlockBegin
2
*MODEL_SPACE
0
ENDBLK
5
21
100
AcDbEntity
100
AcDbBlockEnd
0
BLOCK
5
1C
100
AcDbEntity
100
AcDbBlockBegin
2
*PAPER_SPACE
0
ENDBLK
5
1D
100
AcDbEntity
100
AcDbBlockEnd
0
ENDSEC
0
SECTION
2
ENTITIES
0
CIRCLE
5
100
100
AcDbEntity
8
0
100
AcDbCircle
10
199.99999999999702
20
-53.600441863582581
30
0
40
2.5
0
CIRCLE
5
101
100
AcDbEntity
8
0
100
AcDbCircle
10
199.99999999999702
20
-113.60044186358255
30
0
40
2.5
0
LWPOLYLINE
5
102
100
AcDbEntity
8
0
100
AcDbPolyline
90
16
70
1
43
0.0
10
170.249999999995
20
-47.914655425957086
42
-0.19891236737955539
10
170.54289321880827
20
-47.207548644770753
10
173.95710678118047
20
-43.793335082397448
42
-0.19891236737974721
10
174.66421356236668
20
-43.500441863584015
10
225.33578643762141
20
-43.500441863582566
42
-0.19891236737963838
10
226.04289321880793
20
-43.79333508239597
10
229.45710678118104
20
-47.207548644768941
42
-0.19891236737966123
10
229.74999999999451
20
-47.914655425955473
10
229.74999999999591
20
-119.28622830120867
42
-0.19891236737963053
10
229.45710678118249
20
-119.99333508239515
10
226.04289321880944
20
-123.40754864476904
42
-0.19891236737967161
10
225.33578643762283
20
-123.70044186358255
10
174.66421356236808
20
-123.70044186358221
42
-0.19891236737965801
10
173.95710678118155
20
-123.40754864476878
10
170.54289321880847
20
-119.9933350823957
42
-0.19891236737960283
10
170.249999999995
20
-119.28622830120915
0
CIRCLE
5
103
100
AcDbEntity
8
0
100
AcDbCircle
10
174.999999999994
20
-58.600441863584209
30
0
40
2.2500000000000009
0
LWPOLYLINE
5
104
100
AcDbEntity
8
0
100
AcDbPolyline
90
4
70
1
43
0.0
10
183.79999999999353
20
-46.750441863583383
10
178.79999999999353
20
-46.750441863583575
42
0.99999999999999989
10
178.79999999999373
20
-52.250441863583589
10
183.79999999999373
20
-52.25044186358339
42
0.99999999999999989
0
CIRCLE
5
105
100
AcDbEntity
8
0
100
AcDbCircle
10
224.99999999999471
20
-58.600441863582716
30
0
40
2.2500000000000009
0
LWPOLYLINE
5
106
100
AcDbEntity
8
0
100
AcDbPolyline
90
4
70
1
43
0.0
10
221.19999999999453
20
-46.750441863582338
10
216.19999999999453
20
-46.750441863582438
42
0.99999999999999989
10
216.19999999999465
20
-52.250441863582452
10
221.19999999999467
20
-52.250441863582338
42
0.99999999999999989
0
CIRCLE
5
107
100
AcDbEntity
8
0
100
AcDbCircle
10
224.99999999999568
20
-108.60044186358159
30
0
40
2.2500000000000009
0
LWPOLYLINE
5
108
100
AcDbEntity
8
0
100
AcDbPolyline
90
4
70
1
43
0.0
10
216.19999999999595
20
-120.45044186358224
10
221.19999999999595
20
-120.45044186358214
42
0.99999999999999989
10
221.19999999999584
20
-114.95044186358214
10
216.19999999999584
20
-114.95044186358223
42
0.99999999999999989
0
LWPOLYLINE
5
109
100
AcDbEntity
8
0
100
AcDbPolyline
90
4
70
1
43
0.0
10
178.79999999999495
20
-120.45044186358254
10
183.79999999999495
20
-120.45044186358254
42
0.99999999999999989
10
183.79999999999495
20
-114.95044186358254
10
178.79999999999495
20
-114.95044186358254
42
0.99999999999999989
0
CIRCLE
5
110
100
AcDbEntity
8
0
100
AcDbCircle
10
174.99999999999494
20
-108.60044186358215
30
0
40
2.2500000000000009
0
CIRCLE
5
111
100
AcDbEntity
8
0
100
AcDbCircle
10
199.99999999999511
20
-83.600441863582645
30
0
40
20
0
ENDSEC
0
SECTION
2
OBJECTS
0
DICTIONARY
5
C
100
AcDbDictionary
3
ACAD_GROUP
350
D
3
ACAD_MLINESTYLE
350
17
0
DICTIONARY
5
D
100
AcDbDictionary
0
DICTIONARY
5
1A
330
C
100
AcDbDictionary
0
DICTIONARY
5
17
100
AcDbDictionary
0
ENDSEC
0
EOF
