0
SECTION
2
HEADER
9
$INSUNITS
70
4
9
$ACADVER
1
AC1014
9
$HANDSEED
5
FFFF
0
ENDSEC
0
SECTION
2
TABLES
0
TABLE
2
VPORT
5
8
100
AcDbSymbolTable
0
ENDTAB
0
TABLE
2
LTYPE
5
5
100
AcDbSymbolTable
0
LTYPE
5
14
100
AcDbSymbolTableRecord
100
AcDbLinetypeTableRecord
2
BYBLOCK
70
0
0
LTYPE
5
15
100
AcDbSymbolTableRecord
100
AcDbLinetypeTableRecord
2
BYLAYER
70
0
0
ENDTAB
0
TABLE
2
LAYER
5
2
100
AcDbSymbolTable
70
2
0
LAYER
5
50
100
AcDbSymbolTableRecord
100
AcDbLayerTableRecord
2
0
70
0
6
CONTINUOUS
0
ENDTAB
0
TABLE
2
STYLE
5
3
100
AcDbSymbolTable
70
1
0
STYLE
5
11
100
AcDbSymbolTableRecord
100
AcDbTextStyleTableRecord
2
STANDARD
70
0
0
ENDTAB
0
TABLE
2
VIEW
5
6
100
AcDbSymbolTable
70
0
0
ENDTAB
0
TABLE
2
UCS
5
7
100
AcDbSymbolTable
70
0
0
ENDTAB
0
TABLE
2
APPID
5
9
100
AcDbSymbolTable
70
2
0
APPID
5
12
100
AcDbSymbolTableRecord
100
AcDbRegAppTableRecord
2
ACAD
70
0
0
ENDTAB
0
TABLE
2
DIMSTYLE
5
A
100
AcDbSymbolTable
70
1
0
ENDTAB
0
TABLE
2
BLOCK_RECORD
5
1
100
AcDbSymbolTable
70
1
0
BLOCK_RECORD
5
1F
100
AcDbSymbolTableRecord
100
AcDbBlockTableRecord
2
*MODEL_SPACE
0
BLOCK_RECORD
5
1B
100
AcDbSymbolTableRecord
100
AcDbBlockTableRecord
2
*PAPER_SPACE
0
ENDTAB
0
ENDSEC
0
SECTION
2
BLOCKS
0
BLOCK
5
20
100
AcDbEntity
100
AcDbBlockBegin
2
*MODEL_SPACE
0
ENDBLK
5
21
100
AcDbEntity
100
AcDbBlockEnd
0
BLOCK
5
1C
100
AcDbEntity
100
AcDbBlockBegin
2
*PAPER_SPACE
0
ENDBLK
5
1D
100
AcDbEntity
100
AcDbBlockEnd
0
ENDSEC
0
SECTION
2
ENTITIES
0
LWPOLYLINE
5
100
100
AcDbEntity
8
0
100
AcDbPolyline
90
4
70
1
43
0.0
10
289.93935365699537
20
84.49901789464414
10
289.93935365699537
20
68.49901789464414
10
281.93935365699537
20
68.49901789464414
10
281.93935365699537
20
84.499017894644126
0
LWPOLYLINE
5
101
100
AcDbEntity
8
0
100
AcDbPolyline
90
4
70
1
43
0.0
10
289.93935365699554
20
211.49895772180042
10
289.93935365699554
20
195.49895772180039
10
281.93935365699548
20
195.49895772180042
10
281.93935365699548
20
211.49895772180045
0
LWPOLYLINE
5
102
100
AcDbEntity
8
0
100
AcDbPolyline
90
4
70
1
43
0.0
10
289.93935365699565
20
338.4988975489569
10
289.93935365699565
20
322.4988975489569
10
281.93935365699559
20
322.49889754895696
10
281.93935365699559
20
338.49889754895696
0
LWPOLYLINE
5
103
100
AcDbEntity
8
0
100
AcDbPolyline
90
20
70
1
43
0.0
10
289.93935365699537
20
36.499017894644169
10
273.93935365699525
20
36.499017894644226
10
273.93935365699559
20
378.49889754895696
10
313.93935365699571
20
378.4988975489569
10
313.93935365699576
20
386.49889754895685
10
329.93935365699576
20
386.49889754895685
10
329.93935365699576
20
378.49889754895685
10
465.9393536569961
20
378.49889754895673
10
465.9393536569961
20
386.49889754895668
10
481.9393536569961
20
386.49889754895668
10
481.9393536569961
20
378.49889754895673
10
617.93935365699656
20
378.49889754895656
10
617.93935365699656
20
386.49889754895651
10
633.93935365699667
20
386.49889754895651
10
633.93935365699667
20
378.49889754895656
10
673.93935365699679
20
378.49889754895656
10
673.93935365699633
20
36.499017894643764
10
657.93935365699645
20
36.499017894643785
10
657.93935365699645
20
20.499017894643821
10
289.93935365699537
20
20.499017894644211
0
LWPOLYLINE
5
104
100
AcDbEntity
8
0
100
AcDbPolyline
90
4
70
1
43
0.0
10
657.93935365699656
20
84.499017894643742
10
665.93935365699645
20
84.499017894643742
10
665.93935365699633
20
68.499017894643742
10
657.93935365699645
20
68.499017894643771
0
LWPOLYLINE
5
105
100
AcDbEntity
8
0
100
AcDbPolyline
90
4
70
1
43
0.0
10
622.93935365699622
20
28.499017894645267
10
622.93935365699622
20
36.499017894645363
10
638.93935365699633
20
36.499017894645363
10
638.93935365699622
20
28.499017894645267
0
LWPOLYLINE
5
106
100
AcDbEntity
8
0
100
AcDbPolyline
90
4
70
1
43
0.0
10
465.93935365699576
20
28.499017894644716
10
465.93935365699576
20
36.499017894644808
10
481.93935365699588
20
36.49901789464483
10
481.93935365699588
20
28.499017894644716
0
LWPOLYLINE
5
107
100
AcDbEntity
8
0
100
AcDbPolyline
90
4
70
1
43
0.0
10
308.93935365699537
20
28.499017894644183
10
308.93935365699537
20
36.499017894644261
10
324.93935365699542
20
36.499017894644261
10
324.93935365699542
20
28.499017894644183
0
LWPOLYLINE
5
108
100
AcDbEntity
8
0
100
AcDbPolyline
90
4
70
1
43
0.0
10
657.93935365699656
20
211.49895772180008
10
665.93935365699645
20
211.49895772180008
10
665.93935365699645
20
195.49895772180005
10
657.93935365699656
20
195.49895772180008
0
LWPOLYLINE
5
109
100
AcDbEntity
8
0
100
AcDbPolyline
90
4
70
1
43
0.0
10
657.93935365699667
20
338.49889754895656
10
665.93935365699667
20
338.49889754895656
10
665.93935365699667
20
322.49889754895662
10
657.93935365699667
20
322.49889754895656
0
CIRCLE
5
110
100
AcDbEntity
8
0
100
AcDbCircle
10
663.903548356128
20
-495.56585996152376
30
7.1054273576010019e-14
40
1.9999999999999911
0
LWPOLYLINE
5
111
100
AcDbEntity
8
0
100
AcDbPolyline
90
4
70
1
43
0.0
10
375.90354835612811
20
-443.06585996152342
10
391.90354835612817
20
-443.06585996152342
10
391.90354835612823
20
-451.06585996152342
10
375.90354835612811
20
-451.06585996152342
0
CIRCLE
5
112
100
AcDbEntity
8
0
100
AcDbCircle
10
551.90354835612811
20
-447.0658599615237
30
7.1054273576010019e-14
40
2
0
LWPOLYLINE
5
113
100
AcDbEntity
8
0
100
AcDbPolyline
90
4
70
1
43
0.0
10
527.903548356128
20
-443.06585996152364
10
543.903548356128
20
-443.06585996152364
10
543.903548356128
20
-451.0658599615237
10
527.903548356128
20
-451.06585996152364
0
LWPOLYLINE
5
114
100
AcDbEntity
8
0
100
AcDbPolyline
90
4
70
1
43
0.0
10
291.90354835612834
20
-471.5658599615233
10
291.90354835612834
20
-487.5658599615233
10
283.90354835612834
20
-487.5658599615233
10
283.90354835612834
20
-471.5658599615233
0
LWPOLYLINE
5
115
100
AcDbEntity
8
0
100
AcDbPolyline
90
4
70
1
43
0.0
10
659.90354835612811
20
-503.56585996152381
10
667.903548356128
20
-503.56585996152381
10
667.90354835612789
20
-519.56585996152376
10
659.90354835612789
20
-519.56585996152376
0
CIRCLE
5
116
100
AcDbEntity
8
0
100
AcDbCircle
10
287.90354835612834
20
-495.5658599615233
30
0
40
1.9999999999999911
0
CIRCLE
5
117
100
AcDbEntity
8
0
100
AcDbCircle
10
399.90354835612823
20
-447.06585996152347
30
7.1054273576010019e-14
40
2
0
LWPOLYLINE
5
118
100
AcDbEntity
8
0
100
AcDbPolyline
90
4
70
1
43
0.0
10
575.90354835612811
20
-451.0658599615237
10
559.90354835612811
20
-451.0658599615237
10
559.903548356128
20
-443.0658599615237
10
575.90354835612811
20
-443.0658599615237
0
LWPOLYLINE
5
119
100
AcDbEntity
8
0
100
AcDbPolyline
90
4
70
1
43
0.0
10
407.90354835612817
20
-443.06585996152353
10
423.90354835612817
20
-443.06585996152353
10
423.90354835612817
20
-451.06585996152347
10
407.90354835612817
20
-451.06585996152353
0
LWPOLYLINE
5
120
100
AcDbEntity
8
0
100
AcDbPolyline
90
4
70
1
43
0.0
10
291.90354835612834
20
-503.5658599615233
10
291.90354835612834
20
-519.5658599615233
10
283.90354835612834
20
-519.5658599615233
10
283.90354835612834
20
-503.56585996152324
0
LWPOLYLINE
5
121
100
AcDbEntity
8
0
100
AcDbPolyline
90
4
70
1
43
0.0
10
667.90354835612789
20
-471.56585996152381
10
667.90354835612789
20
-487.56585996152381
10
659.90354835612789
20
-487.56585996152381
10
659.90354835612789
20
-471.56585996152381
0
LWPOLYLINE
5
122
100
AcDbEntity
8
0
100
AcDbPolyline
90
4
70
1
43
0.0
10
395.40354835612834
20
-46.065859961523621
10
395.40354835612834
20
-62.065859961523557
10
387.40354835612834
20
-62.06585996152355
10
387.40354835612834
20
-46.065859961523607
0
LWPOLYLINE
5
123
100
AcDbEntity
8
0
100
AcDbPolyline
90
4
70
1
43
0.0
10
564.40354835612698
20
-235.06585996152114
10
564.40354835612698
20
-251.06585996152401
10
556.40354835612868
20
-251.06585996152398
10
556.40354835612868
20
-235.06585996152114
0
CIRCLE
5
124
100
AcDbEntity
8
0
100
AcDbCircle
10
391.4035483561284
20
-227.06585996152631
30
7.1054273576010019e-14
40
2.0000000000000266
0
LWPOLYLINE
5
125
100
AcDbEntity
8
0
100
AcDbPolyline
90
4
70
1
43
0.0
10
395.40354835612811
20
-203.06585996152432
10
395.40354835612811
20
-219.06585996152427
10
387.40354835612823
20
-219.06585996152427
10
387.40354835612811
20
-203.06585996152432
0
LWPOLYLINE
5
126
100
AcDbEntity
8
0
100
AcDbPolyline
90
4
70
1
43
0.0
10
564.4035483561272
20
-46.065859961523337
10
564.4035483561272
20
-62.065859961523273
10
556.4035483561272
20
-62.065859961523266
10
556.4035483561272
20
-46.065859961523323
0
LWPOLYLINE
5
127
100
AcDbEntity
8
0
100
AcDbPolyline
90
4
70
1
43
0.0
10
395.40354835612834
20
-78.065859961523586
10
395.40354835612834
20
-94.065859961523586
10
387.40354835612834
20
-94.065859961523586
10
387.40354835612834
20
-78.065859961523557
0
CIRCLE
5
128
100
AcDbEntity
8
0
100
AcDbCircle
10
560.40354835612607
20
-70.065859961527082
30
7.1054273576010019e-14
40
2.0000000000000266
0
CIRCLE
5
129
100
AcDbEntity
8
0
100
AcDbCircle
10
560.40354835612607
20
-227.06585996152637
30
7.1054273576010019e-14
40
2.0000000000000266
0
LWPOLYLINE
5
130
100
AcDbEntity
8
0
100
AcDbPolyline
90
4
70
1
43
0.0
10
395.40354835612993
20
-235.06585996152427
10
395.40354835612993
20
-251.06585996152097
10
387.40354835612823
20
-251.06585996152097
10
387.40354835612823
20
-235.06585996152424
0
LWPOLYLINE
5
131
100
AcDbEntity
8
0
100
AcDbPolyline
90
4
70
1
43
0.0
10
564.40354835612698
20
-203.06585996152407
10
564.40354835612698
20
-219.06585996152401
10
556.40354835612629
20
-219.06585996152398
10
556.40354835612618
20
-203.06585996152407
0
LWPOLYLINE
5
132
100
AcDbEntity
8
0
100
AcDbPolyline
90
4
70
1
43
0.0
10
564.4035483561272
20
-78.065859961523302
10
564.4035483561272
20
-94.06585996152323
10
556.4035483561272
20
-94.06585996152323
10
556.4035483561272
20
-78.065859961523273
0
CIRCLE
5
133
100
AcDbEntity
8
0
100
AcDbCircle
10
391.40354835612891
20
-70.065859961527082
30
7.1054273576010019e-14
40
1.9999999999999911
0
LWPOLYLINE
5
134
100
AcDbEntity
8
0
100
AcDbPolyline
90
8
70
1
43
0.0
10
535.40354835612743
20
-68.065859961523714
42
-0.41421356237309709
10
550.40354835612754
20
-83.065859961523756
10
550.40354835612743
20
-183.06585996152333
42
-0.41421356237309576
10
535.40354835612754
20
-198.06585996152333
10
416.40354835612823
20
-198.06585996152319
42
-0.41421356237309503
10
401.40354835612823
20
-183.06585996152319
10
401.40354835612823
20
-83.065859961523572
42
-0.41421356237309709
10
416.40354835612823
20
-68.065859961523614
0
LWPOLYLINE
5
135
100
AcDbEntity
8
0
100
AcDbPolyline
90
4
70
1
43
0.0
10
675.90354835612789
20
-279.56586186887245
10
675.90354835612789
20
-263.5658618688725
10
683.90354835612789
20
-263.5658618688725
10
683.90354835612789
20
-279.5658618688725
0
LWPOLYLINE
5
136
100
AcDbEntity
8
0
100
AcDbPolyline
90
4
70
1
43
0.0
10
675.90354835612766
20
-59.065859961523934
10
675.90354835612766
20
-43.065859961523927
10
683.90354835612789
20
-43.065859961523934
10
683.90354835612789
20
-59.065859961523941
0
LWPOLYLINE
5
137
100
AcDbEntity
8
0
100
AcDbPolyline
90
4
70
1
43
0.0
10
675.903548356128
20
-500.06586377622108
10
675.903548356128
20
-484.06586377622102
10
683.903548356128
20
-484.06586377622102
10
683.903548356128
20
-500.06586377622108
0
LWPOLYLINE
5
138
100
AcDbEntity
8
0
100
AcDbPolyline
90
4
70
1
43
0.0
10
315.90354835612823
20
-210.06585996152336
10
331.90354835612823
20
-210.06585996152339
10
331.90354835612823
20
-218.06585996152339
10
315.90354835612823
20
-218.06585996152336
0
LWPOLYLINE
5
139
100
AcDbEntity
8
0
100
AcDbPolyline
90
4
70
1
43
0.0
10
467.903548356128
20
-210.06585996152359
10
483.90354835612806
20
-210.06585996152364
10
483.90354835612806
20
-218.06585996152361
10
467.903548356128
20
-218.06585996152359
0
LWPOLYLINE
5
140
100
AcDbEntity
8
0
100
AcDbPolyline
90
4
70
1
43
0.0
10
635.90354835612789
20
-218.06585996152381
10
619.90354835612789
20
-218.06585996152378
10
619.90354835612789
20
-210.06585996152381
10
635.90354835612789
20
-210.06585996152384
0
LWPOLYLINE
5
141
100
AcDbEntity
8
0
100
AcDbPolyline
90
4
70
1
43
0.0
10
479.90354835612823
20
-364.06585996152353
10
479.90354835612823
20
-380.06585996152353
10
471.90354835612817
20
-380.06585996152353
10
471.90354835612817
20
-364.06585996152359
0
LWPOLYLINE
5
142
100
AcDbEntity
8
0
100
AcDbPolyline
90
4
70
1
43
0.0
10
467.90354835612811
20
-516.06586377622057
10
483.90354835612811
20
-516.06586377622057
10
483.90354835612811
20
-524.06586377622045
10
467.90354835612811
20
-524.06586377622045
0
LWPOLYLINE
5
143
100
AcDbEntity
8
0
100
AcDbPolyline
90
4
70
1
43
0.0
10
619.90354835612811
20
-516.06586377622079
10
635.903548356128
20
-516.06586377622079
10
635.90354835612789
20
-524.06586377622068
10
619.903548356128
20
-524.06586377622068
0
LWPOLYLINE
5
144
100
AcDbEntity
8
0
100
AcDbPolyline
90
4
70
1
43
0.0
10
315.90354835612828
20
-516.06586377622034
10
331.90354835612828
20
-516.06586377622034
10
331.90354835612828
20
-524.06586377622023
10
315.90354835612828
20
-524.06586377622023
0
LWPOLYLINE
5
145
100
AcDbEntity
8
0
100
AcDbPolyline
90
4
70
1
43
0.0
10
267.90354835612823
20
-279.56586186887165
10
267.90354835612823
20
-263.56586186887165
10
275.90354835612828
20
-263.56586186887165
10
275.90354835612828
20
-279.56586186887165
0
LWPOLYLINE
5
146
100
AcDbEntity
8
0
100
AcDbPolyline
90
4
70
1
43
0.0
10
267.90354835612817
20
-59.06585996152301
10
267.90354835612817
20
-43.065859961523003
10
275.90354835612817
20
-43.065859961523081
10
275.90354835612817
20
-59.065859961523088
0
LWPOLYLINE
5
147
100
AcDbEntity
8
0
100
AcDbPolyline
90
4
70
1
43
0.0
10
267.90354835612834
20
-500.06586377622023
10
267.90354835612834
20
-484.06586377622028
10
275.90354835612834
20
-484.06586377622034
10
275.90354835612834
20
-500.06586377622028
0
LWPOLYLINE
5
148
100
AcDbEntity
8
0
100
AcDbPolyline
90
4
70
1
43
0.0
10
315.90354835612811
20
-19.065859961523493
10
331.90354835612817
20
-19.065859961523515
10
331.90354835612817
20
-27.065859961523365
10
315.90354835612811
20
-27.065859961523344
0
LWPOLYLINE
5
149
100
AcDbEntity
8
0
100
AcDbPolyline
90
4
70
1
43
0.0
10
467.90354835612794
20
-19.065859961523707
10
483.903548356128
20
-19.065859961523728
10
483.903548356128
20
-27.065859961523579
10
467.90354835612794
20
-27.065859961523557
0
LWPOLYLINE
5
150
100
AcDbEntity
8
0
100
AcDbPolyline
90
4
70
1
43
0.0
10
635.90354835612777
20
-27.065859961523792
10
619.90354835612789
20
-27.06585996152377
10
619.90354835612789
20
-19.06585996152387
10
635.90354835612789
20
-19.065859961523874
0
LWPOLYLINE
5
151
100
AcDbEntity
8
0
100
AcDbPolyline
90
16
70
1
43
0.0
10
259.90354835612794
20
-8.8942870862695873
42
-0.19891236737965431
10
260.48933479375484
20
-7.4800735238965013
10
264.31776191850088
20
-3.6516463991503105
42
-0.19891236737966583
10
265.7319754808741
20
-3.0658599615233877
10
686.07512123138179
20
-3.0658599615239757
42
-0.19891236737964554
10
687.48933479375478
20
-3.6516463991509274
10
691.31776191850076
20
-7.480073523897004
42
-0.19891236737966561
10
691.90354835612777
20
-8.894287086270154
10
691.90354835612789
20
-534.23743665147504
42
-0.19891236737964876
10
691.31776191850111
20
-535.65165021384792
10
687.48933479375501
20
-539.48007733859424
42
-0.19891236737963294
10
686.0751212313819
20
-540.06586377622114
10
265.73197548087467
20
-540.06586377622045
42
-0.19891236737966722
10
264.31776191850145
20
-539.48007733859356
10
260.48933479375529
20
-535.65165021384723
42
-0.19891236737965801
10
259.9035483561284
20
-534.23743665147424
0
LWPOLYLINE
5
152
100
AcDbEntity
8
0
100
AcDbPolyline
90
4
70
1
43
0.0
10
305.90354835612828
20
-453.0658599615233
10
355.90354835612834
20
-453.06585996152336
42
-0.99999999999999989
10
355.90354835612823
20
-473.06585996152336
10
305.90354835612823
20
-473.0658599615233
42
-0.99999999999999989
0
LWPOLYLINE
5
153
100
AcDbEntity
8
0
100
AcDbPolyline
90
4
70
1
43
0.0
10
645.903548356128
20
-473.06585996152376
10
595.903548356128
20
-473.06585996152376
42
-0.99999999999999989
10
595.903548356128
20
-453.06585996152364
10
645.903548356128
20
-453.06585996152364
42
-0.99999999999999989
0
LWPOLYLINE
5
154
100
AcDbEntity
8
0
100
AcDbPolyline
90
4
70
1
43
0.0
10
44.361022878531287
20
322.78841636559088
10
44.361022878531323
20
338.78841636559088
10
52.36102287853128
20
338.78841636559088
10
52.361022878531244
20
322.78841636559082
0
LWPOLYLINE
5
155
100
AcDbEntity
8
0
100
AcDbPolyline
90
24
70
1
43
0.0
10
248.36102287853009
20
300.78841636559014
10
-151.6389771214678
20
300.78841636559082
10
-151.63897712146772
20
322.78841636559036
10
-159.63897712146769
20
322.78841636559036
10
-159.63897712146766
20
338.78841636559036
10
-151.63897712146769
20
338.78841636559048
10
-151.6389771214676
20
360.78841636559002
10
-111.6389771214679
20
360.78841636558997
10
-111.63897712146783
20
368.78841636559002
10
-95.638977121467903
20
368.78841636558997
10
-95.638977121467946
20
360.78841636558997
10
40.361022878531301
20
360.7884163655898
10
40.361022878531323
20
368.78841636558974
10
56.361022878531244
20
368.78841636558974
10
56.361022878531237
20
360.7884163655898
10
192.36102287853049
20
360.78841636558946
10
192.36102287853055
20
368.78841636558946
10
208.36102287853041
20
368.78841636558951
10
208.36102287853041
20
360.78841636558946
10
248.36102287853024
20
360.7884163655894
10
248.36102287853015
20
338.78841636558974
10
256.36102287853015
20
338.78841636558974
10
256.36102287853009
20
322.78841636558974
10
248.36102287853009
20
322.7884163655898
0
LWPOLYLINE
5
156
100
AcDbEntity
8
0
100
AcDbPolyline
90
24
70
1
43
0.0
10
-158.10586711999326
20
263.61627306497775
10
-118.10586711999329
20
263.61627306497763
10
-118.10586711999326
20
271.61627306497763
10
-102.10586711999323
20
271.61627306497758
10
-102.10586711999321
20
263.61627306497758
10
33.89413288000695
20
263.61627306497718
10
33.894132880006957
20
271.61627306497718
10
49.894132880006978
20
271.61627306497712
10
49.894132880006978
20
263.61627306497718
10
185.89413288000719
20
263.61627306497672
10
185.89413288000719
20
271.61627306497672
10
201.89413288000722
20
271.61627306497672
10
201.89413288000722
20
263.61627306497672
10
241.89413288000731
20
263.61627306497661
10
241.89413288000731
20
241.61627306497701
10
249.89413288000731
20
241.61627306497695
10
249.89413288000733
20
225.61627306497698
10
241.89413288000733
20
225.61627306497707
10
241.89413288000736
20
203.61627306497749
10
-158.10586711999326
20
203.61627306497863
10
-158.10586711999329
20
225.6162730649782
10
-166.10586711999332
20
225.61627306497823
10
-166.10586711999332
20
241.6162730649782
10
-158.10586711999329
20
241.61627306497815
0
LWPOLYLINE
5
157
100
AcDbEntity
8
0
100
AcDbPolyline
90
4
70
1
43
0.0
10
37.101932532000653
20
149.610137081327
10
37.10193253200066
20
165.61013708132697
10
45.101932532000653
20
165.61013708132697
10
45.101932532000653
20
149.61013708132697
0
LWPOLYLINE
5
158
100
AcDbEntity
8
0
100
AcDbPolyline
90
36
70
1
43
0.0
10
-32.898067467999333
20
177.61013708132566
42
-0.41421356237309159
10
-38.898067467999347
20
171.61013708132566
10
-66.89806746799934
20
171.61013708132566
42
-0.41421356237309204
10
-72.898067467999368
20
177.61013708132566
10
-72.898067467999368
20
187.61013708132566
10
-102.89806746799928
20
187.61013708132563
10
-102.89806746799928
20
195.61013708132563
10
-118.89806746799931
20
195.6101370813256
10
-118.89806746799933
20
187.61013708132563
10
-158.89806746799928
20
187.6101370813256
10
-158.89806746799931
20
165.61013708132595
10
-166.89806746799931
20
165.61013708132595
10
-166.89806746799931
20
149.61013708132595
10
-158.89806746799931
20
149.61013708132595
10
-158.89806746799931
20
127.61013708132634
10
241.1019325320006
20
127.61013708132663
10
241.1019325320006
20
149.61013708132623
10
249.1019325320006
20
149.61013708132623
10
249.1019325320006
20
165.61013708132623
10
241.1019325320006
20
165.61013708132623
10
241.10193253200063
20
187.61013708132589
10
201.1019325320006
20
187.61013708132583
10
201.10193253200055
20
195.61013708132583
10
185.10193253200057
20
195.61013708132583
10
185.1019325320006
20
187.61013708132583
10
155.1019325320006
20
187.6101370813258
10
155.1019325320006
20
177.6101370813258
42
-0.4142135623730942
10
149.1019325320006
20
171.61013708132577
10
121.10193253200063
20
171.61013708132577
42
-0.41421356237309503
10
115.10193253200063
20
177.6101370813258
10
115.1019325320006
20
187.6101370813258
10
49.101932532000646
20
187.61013708132577
10
49.101932532000632
20
195.61013708132572
10
33.101932532000632
20
195.61013708132575
10
33.101932532000646
20
187.61013708132572
10
-32.898067467999354
20
187.61013708132566
0
LWPOLYLINE
5
159
100
AcDbEntity
8
0
100
AcDbPolyline
90
4
70
1
43
0.0
10
64.815549167528289
20
103.06005021498763
42
-0.99999999999999989
10
64.815549167528289
20
95.060050214987584
10
19.815549167527614
20
95.060050214987584
42
-0.99999999999999989
10
19.815549167527617
20
103.06005021498763
0
ARC
5
160
100
AcDbEntity
8
0
100
AcDbCircle
10
192.31554916753024
20
114.06005014249935
30
-7.1054273576010019e-14
40
0.99999999999999645
100
AcDbArc
50
90
51
180
0
LINE
5
161
100
AcDbEntity
8
0
100
AcDbLine
10
206.31554916753043
20
115.06005014249935
30
-7.1054273576010019e-14
11
192.31554916753024
21
115.06005014249935
31
-7.1054273576010019e-14
0
ARC
5
162
100
AcDbEntity
8
0
100
AcDbCircle
10
206.31554916753043
20
114.06005014249935
30
0
40
1.0000000000000142
100
AcDbArc
50
0
51
90
0
LINE
5
163
100
AcDbEntity
8
0
100
AcDbLine
10
207.31554916753043
20
109.46421319852863
30
0
11
207.31554916753043
21
114.06005014249935
31
4.8808278355789812e-31
0
ARC
5
164
100
AcDbEntity
8
0
100
AcDbCircle
10
35.315549167527884
20
114.06005014249935
30
-7.1054273576010019e-14
40
0.99999999999999645
100
AcDbArc
50
90
51
180
0
LINE
5
165
100
AcDbEntity
8
0
100
AcDbLine
10
35.315549167527884
20
115.06005014249935
30
-7.1054273576010019e-14
11
49.315549167528076
21
115.06005014249935
31
-4.35207425653063e-14
0
ARC
5
166
100
AcDbEntity
8
0
100
AcDbCircle
10
49.315549167528076
20
114.06005014249935
30
-7.1054273576010019e-14
40
1.0000000000000142
100
AcDbArc
50
0
51
90
0
LINE
5
167
100
AcDbEntity
8
0
100
AcDbLine
10
50.315549167528104
20
109.46421319852682
30
0
11
50.31554916752809
21
114.06005014249935
31
-7.1054273576010019e-14
0
ARC
5
168
100
AcDbEntity
8
0
100
AcDbCircle
10
-121.68445083247451
20
114.06005014249935
30
-7.1054273576010019e-14
40
0.99999999999999645
100
AcDbArc
50
90
51
180
0
LINE
5
169
100
AcDbEntity
8
0
100
AcDbLine
10
-121.68445083247451
20
115.06005014249935
30
-7.1054273576010019e-14
11
-107.68445083247431
21
115.06005014249936
31
-4.3520742565306452e-14
0
ARC
5
170
100
AcDbEntity
8
0
100
AcDbCircle
10
-107.6844508324743
20
114.06005014249935
30
0
40
1.0000000000000142
100
AcDbArc
50
0
51
90.00000000000081
0
LINE
5
171
100
AcDbEntity
8
0
100
AcDbLine
10
-106.68445083247428
20
114.06005014249935
30
4.8808278355789759e-31
11
-106.68445083247427
21
109.46421319852499
31
4.22542830639109e-15
0
ARC
5
172
100
AcDbEntity
8
0
100
AcDbCircle
10
49.315549167528033
20
81.060050142499193
30
-7.1054273576010019e-14
40
0.99999999999999645
100
AcDbArc
50
-90
51
0
0
LINE
5
173
100
AcDbEntity
8
0
100
AcDbLine
10
35.315549167527841
20
80.060050142499193
30
-1.4210854715202004e-13
11
49.315549167528033
21
80.060050142499207
31
-7.1054273576010019e-14
0
ARC
5
174
100
AcDbEntity
8
0
100
AcDbCircle
10
35.315549167527848
20
81.060050142499193
30
-7.1054273576010019e-14
40
1.0000000000000187
100
AcDbArc
50
180
51
269.9999999999996
0
LINE
5
175
100
AcDbEntity
8
0
100
AcDbLine
10
34.31554916752782
20
85.655887086458463
30
-7.1054273576010019e-14
11
34.315549167527827
21
81.060050142499193
31
-7.1054273576010019e-14
0
ARC
5
176
100
AcDbEntity
8
0
100
AcDbCircle
10
-107.68445083247434
20
81.060050142499193
30
0
40
0.99999999999999645
100
AcDbArc
50
-90
51
0
0
LINE
5
177
100
AcDbEntity
8
0
100
AcDbLine
10
-121.68445083247455
20
80.060050142499193
30
-7.1054273576010019e-14
11
-107.68445083247434
21
80.060050142499207
31
-6.9726111936844848e-32
0
ARC
5
178
100
AcDbEntity
8
0
100
AcDbCircle
10
-121.68445083247455
20
81.060050142499193
30
-7.1054273576010019e-14
40
1.000000000000032
100
AcDbArc
50
180
51
270
0
LINE
5
179
100
AcDbEntity
8
0
100
AcDbLine
10
-122.68445083247457
20
85.655887086456616
30
-7.1054273576010019e-14
11
-122.68445083247458
21
81.060050142499193
31
-7.1054273576010019e-14
0
ARC
5
180
100
AcDbEntity
8
0
100
AcDbCircle
10
190.11346763950661
20
86.857968614471005
30
0
40
1.7000000000000293
100
AcDbArc
50
-44.999999999692832
51
134.99999999947204
0
ARC
5
181
100
AcDbEntity
8
0
100
AcDbCircle
10
208.51763069554099
20
86.857968614471005
30
-7.1054273576010019e-14
40
1.7000000000000293
100
AcDbArc
50
45.000000000527301
51
225.00000000031361
0
ARC
5
182
100
AcDbEntity
8
0
100
AcDbCircle
10
51.517630695540475
20
108.2621316705049
30
0
40
1.7000000000000233
100
AcDbArc
50
134.99999999977243
51
315.00000000055172
0
ARC
5
183
100
AcDbEntity
8
0
100
AcDbCircle
10
33.113467639506013
20
108.2621316705049
30
-7.1054273576010019e-14
40
1.7000000000000293
100
AcDbArc
50
-135.00000000055172
51
44.999999999776811
0
ARC
5
184
100
AcDbEntity
8
0
100
AcDbCircle
10
-123.88653236049453
20
108.2621316705049
30
-7.1054273576010019e-14
40
1.7000000000000293
100
AcDbArc
50
-135.00000000055172
51
44.99999999986521
0
ARC
5
185
100
AcDbEntity
8
0
100
AcDbCircle
10
33.113467639506055
20
86.857968614471005
30
-1.4210854715202004e-13
40
1.7000000000000293
100
AcDbArc
50
-44.999999999780208
51
134.99999999947229
0
ARC
5
186
100
AcDbEntity
8
0
100
AcDbCircle
10
-123.8865323604945
20
86.857968614471005
30
-1.4210854715202004e-13
40
1.7000000000000419
100
AcDbArc
50
-44.999999999867946
51
134.99999999947269
0
ARC
5
187
100
AcDbEntity
8
0
100
AcDbCircle
10
-105.48236930446021
20
86.857968614471005
30
-7.1054273576010019e-14
40
1.7000000000000293
100
AcDbArc
50
45.000000000527301
51
225.00000000014529
0
ARC
5
188
100
AcDbEntity
8
0
100
AcDbCircle
10
-105.48236930446008
20
108.2621316705049
30
-7.1054273576010019e-14
40
1.7000000000000168
100
AcDbArc
50
134.99999999985945
51
315.00000000055172
0
ARC
5
189
100
AcDbEntity
8
0
100
AcDbCircle
10
208.51763069554102
20
108.2621316705049
30
0
40
1.7000000000000419
100
AcDbArc
50
134.99999999968674
51
315.00000000055138
0
ARC
5
190
100
AcDbEntity
8
0
100
AcDbCircle
10
190.11346763950655
20
108.2621316705049
30
0
40
1.7000000000000168
100
AcDbArc
50
-135.00000000055135
51
44.999999999689784
0
ARC
5
191
100
AcDbEntity
8
0
100
AcDbCircle
10
51.51763069554039
20
86.857968614471005
30
-7.1054273576010019e-14
40
1.7000000000000293
100
AcDbArc
50
45.000000000527656
51
225.00000000023044
0
LINE
5
192
100
AcDbEntity
8
0
100
AcDbLine
10
-157.68445083247508
20
107.06005014249932
30
0
11
-125.08861388852326
21
107.06005014249932
31
-7.1054273576010019e-14
0
LINE
5
193
100
AcDbEntity
8
0
100
AcDbLine
10
-157.68445083247511
20
88.06005014249925
30
-7.1054273576010019e-14
11
-125.08861388850059
21
88.060050142499222
31
-1.4210854715202004e-13
0
LINE
5
194
100
AcDbEntity
8
0
100
AcDbLine
10
-104.28028777645412
20
88.060050142499222
30
-7.1054273576010019e-14
11
31.911386111499983
21
88.060050142499222
31
-1.4210854715202004e-13
0
LINE
5
195
100
AcDbEntity
8
0
100
AcDbLine
10
-104.28028777643135
20
107.06005014249932
30
-7.1054273576010019e-14
11
31.911386111477285
21
107.06005014249932
31
-7.1054273576010019e-14
0
LINE
5
196
100
AcDbEntity
8
0
100
AcDbLine
10
188.91138611150055
20
88.060050142499222
30
-3.8531874918956346e-45
11
52.719712223546466
21
88.060050142499222
31
-7.1054273576010019e-14
0
LINE
5
197
100
AcDbEntity
8
0
100
AcDbLine
10
-106.68445083247433
20
81.060050142499193
30
3.4863055968420936e-31
11
-106.68445083247431
21
85.655887086450804
31
-7.1054273576010019e-14
0
LINE
5
198
100
AcDbEntity
8
0
100
AcDbLine
10
-157.68445083247508
20
107.06005014249932
30
0
11
-157.68445083247511
21
88.06005014249925
31
-7.1054273576010019e-14
0
LINE
5
199
100
AcDbEntity
8
0
100
AcDbLine
10
-122.68445083247455
20
109.46421319851922
30
-7.1054273576010019e-14
11
-122.68445083247454
21
114.06005014249935
31
-7.1054273576010019e-14
0
LINE
5
200
100
AcDbEntity
8
0
100
AcDbLine
10
34.315549167527848
20
109.46421319851737
30
-7.1054273576010019e-14
11
34.31554916752787
21
114.06005014249935
31
-7.1054273576010019e-14
0
LINE
5
201
100
AcDbEntity
8
0
100
AcDbLine
10
242.31554916753097
20
107.06005014249931
30
0
11
209.71971222356973
21
107.06005014249932
31
5.9387023324224153e-46
0
LINE
5
202
100
AcDbEntity
8
0
100
AcDbLine
10
188.91138611147784
20
107.06005014249932
30
-3.5738174412202958e-45
11
52.719712223569204
21
107.06005014249932
31
2.2700905377298968e-45
0
LINE
5
203
100
AcDbEntity
8
0
100
AcDbLine
10
191.31554916753021
20
114.06005014249935
30
-7.1054273576010019e-14
11
191.31554916753021
21
109.46421319851554
31
3.5738174412052479e-45
0
LINE
5
204
100
AcDbEntity
8
0
100
AcDbLine
10
242.31554916753095
20
88.060050142499222
30
-7.1054273576010019e-14
11
242.31554916753097
21
107.06005014249931
31
0
0
LINE
5
205
100
AcDbEntity
8
0
100
AcDbLine
10
207.31554916753041
20
80.060050142499193
30
-7.1054273576010019e-14
11
191.31554916753018
21
80.060050142499193
31
-2.1316282072802599e-14
0
LINE
5
206
100
AcDbEntity
8
0
100
AcDbLine
10
242.31554916753095
20
88.060050142499222
30
-7.1054273576010019e-14
11
209.71971222354708
21
88.060050142499222
31
-7.1054273576010019e-14
0
LINE
5
207
100
AcDbEntity
8
0
100
AcDbLine
10
207.31554916753041
20
85.655887086447265
30
-7.1054273576010019e-14
11
207.31554916753041
21
80.060050142499193
31
-7.1054273576010019e-14
0
LINE
5
208
100
AcDbEntity
8
0
100
AcDbLine
10
50.315549167528069
20
85.655887086449013
30
-7.1054273576010019e-14
11
50.315549167528047
21
81.060050142499193
31
-7.1054273576010019e-14
0
LINE
5
209
100
AcDbEntity
8
0
100
AcDbLine
10
191.31554916753018
20
80.060050142499193
30
-2.1316282072802599e-14
11
191.31554916753021
21
85.655887086460297
31
3.8531874919517842e-45
0
LWPOLYLINE
5
210
100
AcDbEntity
8
0
100
AcDbPolyline
90
16
70
1
43
0.0
10
-162.29977837312006
20
58.7041885466613
42
-0.19891236737966261
10
-161.71399193549314
20
60.118402109034406
10
-157.88556481074687
20
63.946829233780534
42
-0.19891236737965706
10
-156.47135124837379
20
64.532615671407427
10
231.87179450213389
20
64.532615671406973
42
-0.19891236737965395
10
233.28600806450692
20
63.946829233780107
10
237.11443518925313
20
60.118402109033937
42
-0.19891236737965223
10
237.70022162688002
20
58.70418854666088
10
237.70022162687908
20
-69.638957203846246
42
-0.19891236737965476
10
237.11443518925222
20
-71.053170766219267
10
233.28600806450598
20
-74.88159789096548
42
-0.1989123673796572
10
231.87179450213293
20
-75.467384328592388
10
-156.47135124837479
20
-75.467384328591976
42
-0.19891236737965406
10
-157.88556481074784
20
-74.881597890965082
10
-161.71399193549405
20
-71.053170766218898
42
-0.19891236737965315
10
-162.29977837312092
20
-69.638957203845834
0
LWPOLYLINE
5
211
100
AcDbEntity
8
0
100
AcDbPolyline
90
8
70
1
43
0.0
10
-113.70394142915812
20
51.532615671405537
42
-0.99999999999999989
10
-111.29977837312011
20
49.128452615374982
10
-111.29977837312195
20
45.936778727441634
42
-0.99999999999999989
10
-113.70394142915634
20
43.532615671407477
10
-124.89561531708956
20
43.532615671405672
42
-0.99999999999999989
10
-127.29977837312015
20
45.936778727443617
10
-127.29977837312197
20
49.128452615373092
42
-0.99999999999999989
10
-124.89561531708767
20
51.532615671407463
0
LWPOLYLINE
5
212
100
AcDbEntity
8
0
100
AcDbPolyline
90
8
70
1
43
0.0
10
29.700221626877934
20
49.12845261537295
42
-0.99999999999999989
10
32.104384682912162
20
51.532615671407285
10
43.296058570841552
20
51.532615671405217
42
-0.99999999999999989
10
45.700221626879923
20
49.128452615375018
10
45.700221626877948
20
45.936778727441514
42
-0.99999999999999989
10
43.296058570843606
20
43.532615671407314
10
32.104384682910279
20
43.532615671405338
42
-0.99999999999999989
10
29.700221626879888
20
45.936778727443496
0
ARC
5
213
100
AcDbEntity
8
0
100
AcDbCircle
10
187.90230315489498
20
50.330534143390047
30
3.5527136788005009e-14
40
1.7000000000000233
100
AcDbArc
50
44.999999999997456
51
225.00000000010093
0
LINE
5
214
100
AcDbEntity
8
0
100
AcDbLine
10
186.70022162687997
20
49.128452615370797
30
3.5527136788005009e-14
11
186.70022162687988
21
45.936778727443524
31
3.4995616586953682e-14
0
ARC
5
215
100
AcDbEntity
8
0
100
AcDbCircle
10
187.90230315489504
20
44.734697199424346
30
3.5527136788005009e-14
40
1.7000000000000419
100
AcDbArc
50
134.99999999990416
51
314.9999999999971
0
LINE
5
216
100
AcDbEntity
8
0
100
AcDbLine
10
189.1043846829121
20
43.532615671407164
30
3.5527136788005009e-14
11
200.29605857084346
21
43.532615671407157
31
3.5527134917982806e-14
0
ARC
5
217
100
AcDbEntity
8
0
100
AcDbCircle
10
201.4981400988606
20
44.734697199424254
30
3.5527136788005009e-14
40
1.699999999999998
100
AcDbArc
50
-135.00000000000119
51
44.999999999897049
0
LINE
5
218
100
AcDbEntity
8
0
100
AcDbLine
10
202.70022162687991
20
45.93677872743924
30
3.5527136788005009e-14
11
202.70022162687997
21
49.128452615374968
31
3.6058656989057737e-14
0
ARC
5
219
100
AcDbEntity
8
0
100
AcDbCircle
10
201.49814009886057
20
50.330534143389883
30
3.5527136788005009e-14
40
1.7000000000000419
100
AcDbArc
50
-44.99999999989334
51
134.99999999999562
0
LINE
5
220
100
AcDbEntity
8
0
100
AcDbLine
10
200.29605857084351
20
51.532615671407129
30
3.5527136788005009e-14
11
189.10438468291218
21
51.532615671407143
31
3.5527136788005009e-14
0
LWPOLYLINE
5
221
100
AcDbEntity
8
0
100
AcDbPolyline
90
8
70
1
43
0.0
10
-113.70394142915782
20
-54.467384328593468
42
-0.99999999999999989
10
-111.29977837312083
20
-56.871547384625046
10
-111.29977837312212
20
-60.063221272557897
42
-0.99999999999999989
10
-113.70394142915652
20
-62.467384328592097
10
-124.89561531708921
20
-62.467384328593454
42
-0.99999999999999989
10
-127.29977837312086
20
-60.063221272556504
10
-127.29977837312219
20
-56.871547384626382
42
-0.99999999999999989
10
-124.89561531708787
20
-54.467384328592118
0
LWPOLYLINE
5
222
100
AcDbEntity
8
0
100
AcDbPolyline
90
8
70
1
43
0.0
10
29.700221626877727
20
-56.871547384626467
42
-0.99999999999999989
10
32.104384682912098
20
-54.467384328592274
10
43.296058570841858
20
-54.467384328593823
42
-0.99999999999999989
10
45.700221626879213
20
-56.871547384625018
10
45.700221626877671
20
-60.06322127255806
42
-0.99999999999999989
10
43.296058570843329
20
-62.467384328592253
10
32.10438468291057
20
-62.467384328593724
42
-0.99999999999999989
10
29.700221626879188
20
-60.063221272556561
0
ARC
5
223
100
AcDbEntity
8
0
100
AcDbCircle
10
187.90230315489478
20
-55.669465856609563
30
0
40
1.7000000000000233
100
AcDbArc
50
44.999999999999829
51
225.00000000007719
0
LINE
5
224
100
AcDbEntity
8
0
100
AcDbLine
10
186.70022162687926
20
-56.871547384628329
30
-2.963362583399919e-32
11
186.70022162687923
21
-60.063221272556518
31
-5.3152020105147602e-16
0
ARC
5
225
100
AcDbEntity
8
0
100
AcDbCircle
10
187.90230315489475
20
-61.265302800575299
30
0
40
1.7000000000000293
100
AcDbArc
50
134.99999999992244
51
315.00000000000102
0
LINE
5
226
100
AcDbEntity
8
0
100
AcDbLine
10
189.1043846829119
20
-62.467384328592402
30
-2.9633569312356467e-32
11
200.2960585708432
21
-62.467384328592402
31
-1.8700222037467811e-21
0
ARC
5
227
100
AcDbEntity
8
0
100
AcDbCircle
10
201.49814009886035
20
-61.265302800575306
30
0
40
1.699999999999998
100
AcDbArc
50
-135.00000000000119
51
44.999999999917193
0
LINE
5
228
100
AcDbEntity
8
0
100
AcDbLine
10
202.70022162687923
20
-60.0632212725599
30
2.9633625833916448e-32
11
202.70022162687926
21
-56.871547384624996
31
5.3152020105259423e-16
0
ARC
5
229
100
AcDbEntity
8
0
100
AcDbCircle
10
201.4981400988604
20
-55.669465856609577
30
0
40
1.7000000000000168
100
AcDbArc
50
-44.999999999918224
51
135.00000000000102
0
LINE
5
230
100
AcDbEntity
8
0
100
AcDbLine
10
200.29605857084323
20
-54.467384328592445
30
2.9633569312357031e-32
11
189.10438468291193
21
-54.467384328592424
31
2.9633625833958925e-32
0
CIRCLE
5
231
100
AcDbEntity
8
0
100
AcDbCircle
10
-2.7561159161689153
20
1.0326156714060541
30
0
40
2.7499999999999951
0
LWPOLYLINE
5
232
100
AcDbEntity
8
0
100
AcDbPolyline
90
4
70
1
43
0.0
10
18.430389246602552
20
-22.467384328592459
10
18.430389246602658
20
-8.4673843285925283
42
-0.99999999999999989
10
57.057378921060518
20
-8.4673843285925425
10
57.05737892106044
20
-22.467384328592495
42
-0.99999999999999989
0
CIRCLE
5
233
100
AcDbEntity
8
0
100
AcDbCircle
10
-2.7561159161679827
20
-31.967384328593749
30
0
40
2.750000000000004
0
CIRCLE
5
234
100
AcDbEntity
8
0
100
AcDbCircle
10
78.243884083831063
20
1.0326156714087897
30
0
40
2.750000000000004
0
CIRCLE
5
235
100
AcDbEntity
8
0
100
AcDbCircle
10
78.243884083831986
20
-31.967384328590988
30
0
40
2.7499999999999996
0
LINE
5
236
100
AcDbEntity
8
0
100
AcDbLine
10
-152.39389548208206
20
-189.93211135193468
30
3.5527136788005009e-14
11
-168.39389548208206
21
-189.93211135193479
31
4.3520742565306136e-14
0
LINE
5
237
100
AcDbEntity
8
0
100
AcDbLine
10
-152.39389548208209
20
-181.93211135193479
30
0
11
-152.39389548208206
21
-189.93211135193468
31
3.5527136788005009e-14
0
LINE
5
238
100
AcDbEntity
8
0
100
AcDbLine
10
-133.39389548208214
20
-181.93211135193482
30
0
11
-152.39389548208209
21
-181.93211135193479
31
0
0
LINE
5
239
100
AcDbEntity
8
0
100
AcDbLine
10
-133.39389548208214
20
-189.93211135193485
30
0
11
-133.39389548208214
21
-181.93211135193482
31
0
0
LINE
5
240
100
AcDbEntity
8
0
100
AcDbLine
10
-117.39389548208216
20
-189.93211135193485
30
3.5527136788005009e-14
11
-133.39389548208214
21
-189.93211135193485
31
0
0
LINE
5
241
100
AcDbEntity
8
0
100
AcDbLine
10
-117.39389548208212
20
-181.93211135193485
30
-1.7763568394002505e-14
11
-117.39389548208216
21
-189.93211135193485
31
3.5527136788005009e-14
0
LINE
5
242
100
AcDbEntity
8
0
100
AcDbLine
10
23.606104517917672
20
-181.93211135193496
30
0
11
-117.39389548208212
21
-181.93211135193485
31
-1.7763568394002505e-14
0
LINE
5
243
100
AcDbEntity
8
0
100
AcDbLine
10
23.606104517917675
20
-189.93211135193494
30
-1.7763568394002505e-14
11
23.606104517917672
21
-181.93211135193496
31
0
0
LINE
5
244
100
AcDbEntity
8
0
100
AcDbLine
10
39.606104517917665
20
-189.93211135193496
30
3.5527136788005009e-14
11
23.606104517917675
21
-189.93211135193494
31
-1.7763568394002505e-14
0
LINE
5
245
100
AcDbEntity
8
0
100
AcDbLine
10
39.606104517917665
20
-181.93211135193496
30
1.7763568394002505e-14
11
39.606104517917665
21
-189.93211135193496
31
3.5527136788005009e-14
0
LINE
5
246
100
AcDbEntity
8
0
100
AcDbLine
10
180.60610451791746
20
-181.93211135193508
30
0
11
39.606104517917665
21
-181.93211135193496
31
1.7763568394002505e-14
0
LINE
5
247
100
AcDbEntity
8
0
100
AcDbLine
10
180.60610451791746
20
-189.93211135193513
30
1.7763568394002505e-14
11
180.60610451791746
21
-181.93211135193508
31
0
0
LINE
5
248
100
AcDbEntity
8
0
100
AcDbLine
10
196.60610451791743
20
-189.93211135193513
30
1.7763568394002505e-14
11
180.60610451791746
21
-189.93211135193513
31
1.7763568394002505e-14
0
LINE
5
249
100
AcDbEntity
8
0
100
AcDbLine
10
196.60610451791743
20
-181.93211135193511
30
0
11
196.60610451791743
21
-189.93211135193513
31
1.7763568394002505e-14
0
LINE
5
250
100
AcDbEntity
8
0
100
AcDbLine
10
215.6061045179174
20
-181.93211135193513
30
-1.7763568394002505e-14
11
196.60610451791743
21
-181.93211135193511
31
0
0
LINE
5
251
100
AcDbEntity
8
0
100
AcDbLine
10
215.6061045179174
20
-189.93211135193513
30
0
11
215.6061045179174
21
-181.93211135193513
31
-1.7763568394002505e-14
0
LINE
5
252
100
AcDbEntity
8
0
100
AcDbLine
10
231.6061045179174
20
-189.93211135193513
30
1.7763568394002505e-14
11
215.6061045179174
21
-189.93211135193513
31
0
0
LINE
5
253
100
AcDbEntity
8
0
100
AcDbLine
10
-168.39389548208206
20
-105.6826020694034
30
1.7763568394002505e-14
11
-168.39389548208206
21
-189.93211135193479
31
4.3520742565306136e-14
0
LWPOLYLINE
5
254
100
AcDbEntity
8
0
100
AcDbPolyline
90
4
70
1
43
0.0
10
9.1061045179176965
20
-117.68260199691525
42
-0.99999999999999989
10
9.1061045179176947
20
-109.68260199691525
10
54.106104517917629
20
-109.68260199691528
42
-0.99999999999999989
10
54.106104517917629
20
-117.68260199691528
0
LINE
5
255
100
AcDbEntity
8
0
100
AcDbLine
10
-135.7980585381174
20
-105.68260206940344
30
1.7763568394002505e-14
11
-168.39389548208206
21
-105.6826020694034
31
1.7763568394002505e-14
0
ARC
5
256
100
AcDbEntity
8
0
100
AcDbCircle
10
-134.59597701009957
20
-104.48052054138699
30
0
40
1.7000000000000168
100
AcDbArc
50
-135.00000000003288
51
44.999999999985782
0
LINE
5
257
100
AcDbEntity
8
0
100
AcDbLine
10
-133.39389548208214
20
-98.682602069403416
30
0
11
-133.39389548208214
21
-103.27843901337016
31
-1.7201377341298417e-31
0
ARC
5
258
100
AcDbEntity
8
0
100
AcDbCircle
10
-132.39389548208212
20
-98.68260206940343
30
0
40
0.99999999999999645
100
AcDbArc
50
90
51
180
0
LINE
5
259
100
AcDbEntity
8
0
100
AcDbLine
10
-132.39389548208212
20
-97.68260206940343
30
-5.2294583952630929e-32
11
-118.39389548208216
21
-97.68260206940343
31
1.0769163338864037e-14
0
ARC
5
260
100
AcDbEntity
8
0
100
AcDbCircle
10
-118.39389548208214
20
-98.68260206940343
30
-1.7763568394002505e-14
40
0.99999999999999645
100
AcDbArc
50
0
51
90.00000000000081
0
LINE
5
261
100
AcDbEntity
8
0
100
AcDbLine
10
-117.39389548208212
20
-103.27843901336954
30
-1.7763568394002505e-14
11
-117.39389548208214
21
-98.68260206940343
31
-1.7763568394002505e-14
0
ARC
5
262
100
AcDbEntity
8
0
100
AcDbCircle
10
-116.1918139540654
20
-104.48052054138708
30
0
40
1.7000000000000168
100
AcDbArc
50
134.99999999998036
51
315.00000000003661
0
LINE
5
263
100
AcDbEntity
8
0
100
AcDbLine
10
21.201941461882143
20
-105.68260206940357
30
0
11
-114.98973242604748
21
-105.68260206940346
31
-1.7201377341305038e-31
0
ARC
5
264
100
AcDbEntity
8
0
100
AcDbCircle
10
22.404022989899971
20
-104.48052054138712
30
-1.7763568394002505e-14
40
1.7000000000000135
100
AcDbArc
50
-135.00000000003288
51
44.999999999973838
0
LINE
5
265
100
AcDbEntity
8
0
100
AcDbLine
10
23.606104517917661
20
-98.682602069403558
30
-1.7763568394002505e-14
11
23.606104517917661
21
-103.27843901337053
31
-1.7763568394002505e-14
0
ARC
5
266
100
AcDbEntity
8
0
100
AcDbCircle
10
24.606104517917675
20
-98.682602069403558
30
0
40
0.99999999999999645
100
AcDbArc
50
89.999999999999801
51
180
0
LINE
5
267
100
AcDbEntity
8
0
100
AcDbLine
10
38.60610451791765
20
-97.682602069403558
30
0
11
24.606104517917679
21
-97.682602069403558
31
9.58734039131578e-32
0
ARC
5
268
100
AcDbEntity
8
0
100
AcDbCircle
10
38.60610451791765
20
-98.682602069403558
30
1.7763568394002505e-14
40
0.99999999999999645
100
AcDbArc
50
0
51
90
0
LINE
5
269
100
AcDbEntity
8
0
100
AcDbLine
10
39.606104517917643
20
-98.682602069403558
30
1.7763568394002505e-14
11
39.606104517917665
21
-103.27843901336948
31
1.7317108044648794e-14
0
ARC
5
270
100
AcDbEntity
8
0
100
AcDbCircle
10
40.808186045934214
20
-104.48052054138721
30
1.7763568394002505e-14
40
1.7000000000000137
100
AcDbArc
50
134.99999999997192
51
315.00000000003638
0
LINE
5
271
100
AcDbEntity
8
0
100
AcDbLine
10
42.01026757395212
20
-105.68260206940359
30
1.7763568394002505e-14
11
178.20194146188169
21
-105.68260206940369
31
3.0128641253309436e-15
0
ARC
5
272
100
AcDbEntity
8
0
100
AcDbCircle
10
179.40402298989952
20
-104.48052054138725
30
0
40
1.7000000000000168
100
AcDbArc
50
-135.0000000000332
51
44.99999999996173
0
LINE
5
273
100
AcDbEntity
8
0
100
AcDbLine
10
180.60610451791746
20
-103.27843901337091
30
-1.7201377341305789e-31
11
180.60610451791746
21
-98.682602069403686
31
1.8210028743356344e-14
0
ARC
5
274
100
AcDbEntity
8
0
100
AcDbCircle
10
181.60610451791746
20
-98.682602069403686
30
1.7763568394002505e-14
40
0.99999999999999645
100
AcDbArc
50
90
51
180
0
LINE
5
275
100
AcDbEntity
8
0
100
AcDbLine
10
195.60610451791743
20
-97.6826020694037
30
-1.7763568394002505e-14
11
181.60610451791746
21
-97.682602069403686
31
1.7763568394002505e-14
0
ARC
5
276
100
AcDbEntity
8
0
100
AcDbCircle
10
195.60610451791743
20
-98.6826020694037
30
0
40
1.0000000000000142
100
AcDbArc
50
0
51
90
0
LINE
5
277
100
AcDbEntity
8
0
100
AcDbLine
10
196.60610451791743
20
-98.6826020694037
30
1.2202069588947357e-31
11
196.60610451791743
21
-103.27843901336935
31
-4.4646034935368774e-16
0
ARC
5
278
100
AcDbEntity
8
0
100
AcDbCircle
10
197.80818604593375
20
-104.48052054138734
30
0
40
1.7000000000000168
100
AcDbArc
50
134.99999999996038
51
315.00000000003587
0
LINE
5
279
100
AcDbEntity
8
0
100
AcDbLine
10
199.01026757395164
20
-105.68260206940371
30
-1.7201377341305038e-31
11
231.6061045179174
21
-105.68260206940374
31
-1.6284891906953137e-14
0
LINE
5
280
100
AcDbEntity
8
0
100
AcDbLine
10
231.6061045179174
20
-189.93211135193513
30
1.7763568394002505e-14
11
231.6061045179174
21
-105.68260206940374
31
-1.6284891906953137e-14
0
LWPOLYLINE
5
281
100
AcDbEntity
8
0
100
AcDbPolyline
90
4
70
1
43
0.0
10
-156.57081631933929
20
-241.79934593969466
10
-156.57081631933931
20
-233.79934593969466
10
-148.57081631933931
20
-233.79934593969466
10
-148.57081631933931
20
-241.79934593969466
0
LWPOLYLINE
5
282
100
AcDbEntity
8
0
100
AcDbPolyline
90
4
70
1
43
0.0
10
219.42918368065983
20
-241.79934593969395
10
219.42918368065983
20
-233.79934593969395
10
227.42918368065978
20
-233.79934593969395
10
227.42918368065978
20
-241.79934593969392
0
LWPOLYLINE
5
283
100
AcDbEntity
8
0
100
AcDbPolyline
90
4
70
1
43
0.0
10
27.429183680660127
20
-220.04885522222571
10
43.429183680660103
20
-220.04885522222568
10
43.429183680660117
20
-228.04885522222571
10
27.429183680660138
20
-228.04885522222574
0
LWPOLYLINE
5
284
100
AcDbEntity
8
0
100
AcDbPolyline
90
4
70
1
43
0.0
10
179.42918368065989
20
-220.04885522222537
10
195.42918368065983
20
-220.04885522222534
10
195.42918368065983
20
-228.04885522222534
10
179.42918368065989
20
-228.04885522222537
0
LWPOLYLINE
5
285
100
AcDbEntity
8
0
100
AcDbPolyline
90
4
70
1
43
0.0
10
-124.57081631933943
20
-220.04885522222608
10
-108.57081631933944
20
-220.04885522222605
10
-108.57081631933943
20
-228.04885522222602
10
-124.5708163193394
20
-228.04885522222605
0
LWPOLYLINE
5
286
100
AcDbEntity
8
0
100
AcDbPolyline
90
16
70
1
43
0.0
10
229.60075655591356
20
-212.04885522222528
42
-0.19891236737965476
10
231.01497011828667
20
-212.63464165985221
10
234.84339724303285
20
-216.46306878459839
42
-0.19891236737965801
10
235.42918368065978
20
-217.87728234697147
10
235.42918368065983
20
-253.97091881494774
42
-0.19891236737965801
10
234.84339724303288
20
-255.38513237732082
10
231.01497011828667
20
-259.21355950206703
42
-0.19891236737965476
10
229.60075655591365
20
-259.79934593969392
10
-158.74238919459319
20
-259.79934593969483
42
-0.19891236737965015
10
-160.15660275696627
20
-259.21355950206794
10
-163.98502988171248
20
-255.38513237732167
42
-0.19891236737965801
10
-164.57081631933937
20
-253.97091881494859
10
-164.57081631933943
20
-217.87728234697244
42
-0.19891236737966447
10
-163.98502988171248
20
-216.46306878459933
10
-160.15660275696632
20
-212.63464165985312
42
-0.1989123673796557
10
-158.74238919459322
20
-212.04885522222622
0
LWPOLYLINE
5
287
100
AcDbEntity
8
0
100
AcDbPolyline
90
20
70
1
43
0.0
10
76.792990679257983
20
-551.68785086812181
10
76.792990679257983
20
-559.68785086812181
10
92.792990679257983
20
-559.6878508681217
10
92.792990679257983
20
-551.6878508681217
10
108.792990679258
20
-551.68785086812159
10
108.792990679258
20
-559.68785086812159
10
124.792990679258
20
-559.68785086812159
10
124.792990679258
20
-551.68785086812159
10
224.79299067925785
20
-551.68785086812147
10
224.7929906792578
20
-277.68785086812159
10
-175.20700932074192
20
-277.68785086812238
10
-175.2070093207418
20
-551.68785086812227
10
-75.207009320741903
20
-551.68785086812204
10
-75.207009320741903
20
-559.68785086812204
10
-59.207009320741903
20
-559.68785086812204
10
-59.207009320741903
20
-551.68785086812204
10
-43.207009320741903
20
-551.68785086812204
10
-43.207009320741903
20
-559.68785086812193
10
-27.207009320741907
20
-559.68785086812193
10
-27.207009320741911
20
-551.68785086812193
0
CIRCLE
5
288
100
AcDbEntity
8
0
100
AcDbCircle
10
69.795919031303711
20
-437.81956874753052
30
-3.5527136788005009e-14
40
9.9999999999999929
0
CIRCLE
5
289
100
AcDbEntity
8
0
100
AcDbCircle
10
-20.209937672789543
20
-437.81956874753064
30
-3.5527136788005009e-14
40
9.9999999999999929
0
LWPOLYLINE
5
290
100
AcDbEntity
8
0
100
AcDbPolyline
90
4
70
1
43
0.0
10
216.79299067925794
20
-494.68785086812142
10
216.79299067925794
20
-510.68785086812142
10
208.79299067925791
20
-510.68785086812147
10
208.79299067925791
20
-494.68785086812147
0
LWPOLYLINE
5
291
100
AcDbEntity
8
0
100
AcDbPolyline
90
4
70
1
43
0.0
10
208.79299067925788
20
-422.68785086812153
10
208.79299067925788
20
-406.68785086812147
10
216.79299067925791
20
-406.68785086812147
10
216.79299067925794
20
-422.68785086812153
0
LWPOLYLINE
5
292
100
AcDbEntity
8
0
100
AcDbPolyline
90
4
70
1
43
0.0
10
208.79299067925785
20
-334.68785086812159
10
216.79299067925791
20
-334.68785086812159
10
216.79299067925791
20
-318.68785086812164
10
208.79299067925785
20
-318.68785086812164
0
LWPOLYLINE
5
293
100
AcDbEntity
8
0
100
AcDbPolyline
90
4
70
1
43
0.0
10
-159.20700932074183
20
-318.68785086812238
10
-167.20700932074183
20
-318.68785086812238
10
-167.20700932074183
20
-334.68785086812238
10
-159.20700932074186
20
-334.68785086812233
0
LWPOLYLINE
5
294
100
AcDbEntity
8
0
100
AcDbPolyline
90
4
70
1
43
0.0
10
-167.20700932074183
20
-406.68785086812227
10
-159.20700932074186
20
-406.68785086812227
10
-159.2070093207418
20
-422.68785086812227
10
-167.2070093207418
20
-422.68785086812227
0
ARC
5
295
100
AcDbEntity
8
0
100
AcDbCircle
10
188.5909091512394
20
-382.48576934010475
30
-3.5527136788005009e-14
40
1.6999999999999917
100
AcDbArc
50
-135.00000000001288
51
44.999999999935653
0
LINE
5
296
100
AcDbEntity
8
0
100
AcDbLine
10
189.79299067925791
20
-381.28368781208894
30
-3.5527136788005009e-14
11
189.79299067925791
21
-378.09201392415474
31
-3.4995616312383109e-14
0
ARC
5
297
100
AcDbEntity
8
0
100
AcDbCircle
10
188.5909091512394
20
-376.88993239613899
30
-3.5527136788005009e-14
40
1.6999999999999917
100
AcDbArc
50
-44.999999999934303
51
134.99999999998914
0
LINE
5
298
100
AcDbEntity
8
0
100
AcDbLine
10
187.38882762322251
20
-375.68785086812164
30
-3.5527136788005009e-14
11
176.19715373529064
21
-375.68785086812164
31
-4.1118501103520138e-14
0
ARC
5
299
100
AcDbEntity
8
0
100
AcDbCircle
10
174.99507220727378
20
-376.8899323961391
30
-3.5527136788005009e-14
40
1.7000000000000419
100
AcDbArc
50
45.000000000014225
51
225.00000000006096
0
LINE
5
300
100
AcDbEntity
8
0
100
AcDbLine
10
173.79299067925791
20
-378.09201392415753
30
-3.5527136788005009e-14
11
173.79299067925788
21
-381.28368781208633
31
-3.6058657263626026e-14
0
ARC
5
301
100
AcDbEntity
8
0
100
AcDbCircle
10
174.99507220727378
20
-382.48576934010475
30
-3.5527136788005009e-14
40
1.6999999999999915
100
AcDbArc
50
134.99999999993972
51
315.00000000001353
0
LINE
5
302
100
AcDbEntity
8
0
100
AcDbLine
10
176.19715373529118
20
-383.68785086812159
30
-3.5527136788005009e-14
11
187.38882762322203
21
-383.68785086812159
31
-3.5527136788005009e-14
0
ARC
5
303
100
AcDbEntity
8
0
100
AcDbCircle
10
31.590909151239877
20
-382.48576934010498
30
-3.5527136788005009e-14
40
1.7000000000000073
100
AcDbArc
50
-135.00000000001202
51
44.999999999953268
0
LINE
5
304
100
AcDbEntity
8
0
100
AcDbLine
10
32.79299067925799
20
-381.28368781208883
30
-3.5527136788005009e-14
11
32.792990679257997
21
-378.09201392415554
31
-3.4995616312383235e-14
0
ARC
5
305
100
AcDbEntity
8
0
100
AcDbCircle
10
31.590909151239877
20
-376.88993239613933
30
-3.5527136788005009e-14
40
1.7000000000000168
100
AcDbArc
50
-44.999999999954447
51
134.99999999998738
0
LINE
5
306
100
AcDbEntity
8
0
100
AcDbLine
10
30.388827623223005
20
-375.68785086812193
30
-3.5527136788005009e-14
11
19.197153735291138
21
-375.68785086812193
31
-4.1118501103520138e-14
0
ARC
5
307
100
AcDbEntity
8
0
100
AcDbCircle
10
17.995072207274262
20
-376.88993239613933
30
0
40
1.7000000000000404
100
AcDbArc
50
45.000000000012534
51
225.00000000004198
0
LINE
5
308
100
AcDbEntity
8
0
100
AcDbLine
10
16.792990679257997
20
-378.09201392415736
30
-1.1853439029254599e-31
11
16.79299067925799
21
-381.28368781208707
31
-5.3152047562115906e-16
0
ARC
5
309
100
AcDbEntity
8
0
100
AcDbCircle
10
17.995072207274262
20
-382.48576934010509
30
0
40
1.7000000000000184
100
AcDbArc
50
134.99999999995816
51
315.00000000001336
0
LINE
5
310
100
AcDbEntity
8
0
100
AcDbLine
10
19.197153735291657
20
-383.68785086812193
30
1.1853439029265768e-31
11
30.388827623222483
21
-383.68785086812187
31
-3.5527136788005009e-14
0
ARC
5
311
100
AcDbEntity
8
0
100
AcDbCircle
10
-139.00492779272528
20
-382.48576934010538
30
0
40
1.7000000000000168
100
AcDbArc
50
134.99999999997425
51
315.00000000001285
0
LINE
5
312
100
AcDbEntity
8
0
100
AcDbLine
10
-137.80284626470785
20
-383.68785086812227
30
1.1853439029265876e-31
11
-126.61117237677698
21
-383.68785086812227
31
-2.9935772472490366e-14
0
ARC
5
313
100
AcDbEntity
8
0
100
AcDbCircle
10
-125.40909084875958
20
-382.48576934010538
30
0
40
1.700000000000004
100
AcDbArc
50
-135.00000000001222
51
44.999999999974598
0
LINE
5
314
100
AcDbEntity
8
0
100
AcDbLine
10
-124.2070093207419
20
-381.28368781208877
30
1.1853439029268501e-31
11
-124.20700932074189
21
-378.09201392415628
31
5.3152047562162586e-16
0
ARC
5
315
100
AcDbEntity
8
0
100
AcDbCircle
10
-125.40909084875958
20
-376.88993239613967
30
0
40
1.700000000000067
100
AcDbArc
50
-44.999999999974257
51
134.99999999998613
0
LINE
5
316
100
AcDbEntity
8
0
100
AcDbLine
10
-126.61117237677645
20
-375.68785086812221
30
-1.1853439029260612e-31
11
-137.80284626470836
21
-375.68785086812227
31
-4.1118501103520157e-14
0
ARC
5
317
100
AcDbEntity
8
0
100
AcDbCircle
10
-139.00492779272523
20
-376.88993239613973
30
0
40
1.7000000000000419
100
AcDbArc
50
45.000000000014225
51
225.00000000002302
0
LINE
5
318
100
AcDbEntity
8
0
100
AcDbLine
10
-140.20700932074189
20
-378.09201392415736
30
-1.1853439029258508e-31
11
-140.20700932074189
21
-381.28368781208769
31
-1.1853439029258182e-31
0
LWPOLYLINE
5
319
100
AcDbEntity
8
0
100
AcDbPolyline
90
8
70
1
43
0.0
10
-45.207009320741975
20
-365.68785086812215
10
-45.207009320741975
20
-287.68785086812215
42
-0.41421356237309764
10
-41.207009320741989
20
-283.68785086812215
10
90.792990679257912
20
-283.68785086812181
42
-0.41421356237309503
10
94.792990679257926
20
-287.68785086812193
10
94.792990679257869
20
-365.68785086812181
42
-0.41421356237309631
10
90.792990679257912
20
-369.68785086812176
10
-41.20700932074196
20
-369.6878508681221
42
-0.41421356237308526
0
LWPOLYLINE
5
320
100
AcDbEntity
8
0
100
AcDbPolyline
90
4
70
1
43
0.0
10
-167.2070093207418
20
-494.68785086812215
10
-159.2070093207418
20
-494.68785086812215
10
-159.20700932074175
20
-510.68785086812227
10
-167.20700932074178
20
-510.68785086812227
0
LWPOLYLINE
5
321
100
AcDbEntity
8
0
100
AcDbPolyline
90
16
70
1
43
0.0
10
-200.81112798514593
20
125.33555662669166
10
-192.8111279851459
20
125.33555662668952
10
-192.81112798514164
20
141.33555662668954
10
-200.81112798514164
20
141.33555662669167
10
-200.81112798510287
20
287.3355566266921
10
-222.81112798510247
20
287.33555662669789
10
-222.81112798510034
20
295.33555662669789
10
-238.81112798510031
20
295.33555662670216
10
-238.81112798510244
20
287.33555662670216
10
-260.8111279851027
20
287.33555662670801
10
-260.81112798518177
20
-10.664443373292745
10
-238.81112798518154
20
-10.664443373298607
10
-238.81112798518365
20
-18.664443373298596
10
-222.81112798518367
20
-18.664443373302841
10
-222.81112798518154
20
-10.664443373302852
10
-200.81112798518194
20
-10.664443373308714
0
LWPOLYLINE
5
322
100
AcDbEntity
8
0
100
AcDbPolyline
90
4
70
1
43
0.0
10
-224.38697642741946
20
-364.58772204731372
10
-240.38697642741937
20
-364.58772204731304
10
-240.38697642741906
20
-356.58772204731304
10
-224.38697642741903
20
-356.58772204731378
0
LWPOLYLINE
5
323
100
AcDbEntity
8
0
100
AcDbPolyline
90
22
70
1
43
0.0
10
-262.38697642742551
20
-515.58772204731224
10
-262.38697642741658
20
-311.08772013996344
10
-270.38697642741647
20
-311.0877201399631
10
-270.38697642741579
20
-295.08772013996315
10
-262.38697642741585
20
-295.08772013996349
10
-262.38697642740692
20
-90.587718232614662
10
-270.38697642740681
20
-90.58771823261435
10
-270.38697642740613
20
-74.587718232614321
10
-262.38697642740618
20
-74.587718232614662
10
-262.38697642740482
20
-42.587718232614655
10
-208.21540355215132
20
-42.587718232616979
42
-0.19891236737966239
10
-206.80118998977821
20
-43.173504670243929
10
-202.97276286503222
20
-47.001931794990256
42
-0.19891236737965984
10
-202.38697642740539
20
-48.416145357363405
10
-202.38697642742767
20
-557.75929492256853
42
-0.19891236737965859
10
-202.97276286505465
20
-559.17350848494164
10
-206.80118998980095
20
-563.00193560968785
42
-0.19891236737965556
10
-208.21540355217408
20
-563.58772204731463
10
-262.38697642742756
20
-563.58772204731235
10
-262.38697642742625
20
-531.58772204731224
10
-270.38697642742613
20
-531.5877220473119
10
-270.38697642742545
20
-515.5877220473119
0
LWPOLYLINE
5
324
100
AcDbEntity
8
0
100
AcDbPolyline
90
4
70
1
43
0.0
10
-240.38697642742775
20
-555.58772204731315
10
-240.38697642742738
20
-547.58772204731315
10
-224.38697642742738
20
-547.58772204731383
10
-224.38697642742781
20
-555.58772204731395
0
LWPOLYLINE
5
325
100
AcDbEntity
8
0
100
AcDbPolyline
90
4
70
1
43
0.0
10
-217.38697642741266
20
-216.587722047314
10
-217.38697642741758
20
-326.58772204731412
42
-0.99999999999999989
10
-252.38697642741724
20
-326.58772204731258
10
-252.38697642741249
20
-216.58772204731258
42
-0.99999999999999989
0
LWPOLYLINE
5
326
100
AcDbEntity
8
0
100
AcDbPolyline
90
4
70
1
43
0.0
10
-224.38697642740581
20
-58.587718232616581
10
-240.38697642740573
20
-58.587718232615877
10
-240.38697642740533
20
-50.587718232615877
10
-224.38697642740544
20
-50.587718232616595
0
LWPOLYLINE
5
327
100
AcDbEntity
8
0
100
AcDbPolyline
90
4
70
1
43
0.0
10
-313.33305349932482
20
-358.71504106856628
10
-329.33305349932482
20
-358.71504106856554
10
-329.33305349932454
20
-350.71504106856565
10
-313.33305349932448
20
-350.71504106856639
0
LWPOLYLINE
5
328
100
AcDbEntity
8
0
100
AcDbPolyline
90
22
70
1
43
0.0
10
-351.33305349933107
20
-509.71504106856366
10
-351.33305349932209
20
-305.21503916121623
10
-359.33305349932203
20
-305.21503916121583
10
-359.33305349932135
20
-289.215039161216
10
-351.33305349932135
20
-289.2150391612164
10
-351.33305349931231
20
-84.715037253868928
10
-359.33305349931231
20
-84.715037253868559
10
-359.33305349931163
20
-68.715037253868672
10
-351.33305349931163
20
-68.715037253869028
10
-351.33305349931021
20
-36.715037253869234
10
-297.16148062405659
20
-36.715037253871671
42
-0.19891236737966228
10
-295.74726706168343
20
-37.300823691498643
10
-291.91883993693745
20
-41.129250816244962
42
-0.19891236737965984
10
-291.33305349931061
20
-42.543464378618125
10
-291.33305349933318
20
-551.88661394381984
42
-0.19891236737965201
10
-291.91883993696007
20
-553.30082750619295
10
-295.74726706170645
20
-557.12925463093893
42
-0.19891236737965545
10
-297.16148062407956
20
-557.71504106856571
10
-351.33305349933323
20
-557.71504106856332
10
-351.33305349933181
20
-525.71504106856355
10
-359.33305349933175
20
-525.71504106856321
10
-359.33305349933107
20
-509.71504106856332
0
LWPOLYLINE
5
329
100
AcDbEntity
8
0
100
AcDbPolyline
90
4
70
1
43
0.0
10
-329.33305349933329
20
-549.71504106856435
10
-329.33305349933289
20
-541.71504106856446
10
-313.33305349933295
20
-541.71504106856526
10
-313.33305349933329
20
-549.71504106856514
0
LWPOLYLINE
5
330
100
AcDbEntity
8
0
100
AcDbPolyline
90
4
70
1
43
0.0
10
-306.333053499318
20
-210.71504106856753
10
-306.333053499323
20
-320.71504106856696
42
-0.99999999999999989
10
-341.33305349932272
20
-320.71504106856526
10
-341.333053499318
20
-210.71504106856597
42
-0.99999999999999989
0
LWPOLYLINE
5
331
100
AcDbEntity
8
0
100
AcDbPolyline
90
4
70
1
43
0.0
10
-313.33305349931106
20
-52.715037253871131
10
-329.33305349931106
20
-52.715037253870385
10
-329.33305349931072
20
-44.715037253870463
10
-313.33305349931078
20
-44.715037253871195
0
LWPOLYLINE
5
332
100
AcDbEntity
8
0
100
AcDbPolyline
90
42
70
1
43
0.0
10
-481.37381139919239
20
-170.9916187473473
10
-473.37381139919245
20
-170.9916187473471
10
-473.37381139919148
20
-211.99161874734722
10
-416.12430211666015
20
-211.99161874734597
10
-416.12430211665918
20
-251.99161874734597
10
-424.12430211665924
20
-251.99161874734611
10
-424.12430211665884
20
-267.99161874734614
10
-416.12430211665873
20
-267.99161874734591
10
-416.12430211665605
20
-378.99155857450233
10
-424.12430211665605
20
-378.99155857450262
10
-424.12430211665566
20
-394.99155857450268
10
-416.12430211665571
20
-394.99155857450239
10
-416.12430211665298
20
-505.99149840165887
10
-424.12430211665298
20
-505.9914984016591
10
-424.12430211665253
20
-521.9914984016591
10
-416.12430211665253
20
-521.99149840165899
10
-416.12430211665156
20
-561.99149840165899
10
-410.3738113991829
20
-561.99149840165887
10
-410.37381139918267
20
-569.99149840165887
10
-402.37381139918273
20
-569.99149840165865
10
-402.3738113991829
20
-561.99149840165865
10
-392.3738113991829
20
-561.99149840165842
10
-392.37381139919825
20
62.008381252654857
10
-404.87381139919819
20
62.008381252654587
10
-404.87381139919847
20
70.008381252654601
10
-420.87381139919842
20
70.00838125265426
10
-420.87381139919819
20
62.008381252654239
10
-436.87381139919819
20
62.008381252653905
10
-436.87381139919836
20
70.008381252653891
10
-452.87381139919836
20
70.008381252653535
10
-452.87381139919819
20
62.008381252653507
10
-473.37381139919813
20
62.008381252653052
10
-473.37381139919717
20
21.008381252652999
10
-481.37381139919711
20
21.008381252652821
10
-481.37381139919677
20
5.0083812526528071
10
-473.37381139919671
20
5.0083812526529847
10
-473.37381139919501
20
-66.991618747347061
10
-481.37381139919501
20
-66.991618747347246
10
-481.37381139919455
20
-82.991618747347246
10
-473.37381139919455
20
-82.991618747347076
10
-473.37381139919279
20
-154.9916187473471
10
-481.37381139919279
20
-154.99161874734733
0
LWPOLYLINE
5
333
100
AcDbEntity
8
0
100
AcDbPolyline
90
42
70
1
43
0.0
10
-434.86226887646416
20
-325.33001605637719
10
-442.86226887646416
20
-325.33001605637719
10
-442.8622688764641
20
-284.33001605637753
10
-500.11177815899521
20
-284.33001605637747
10
-500.11177815899521
20
-244.33001605637784
10
-492.11177815899521
20
-244.33001605637781
10
-492.11177815899521
20
-228.33001605637799
10
-500.11177815899521
20
-228.3300160563779
10
-500.11177815899498
20
-117.33007622922233
10
-492.11177815899498
20
-117.33007622922233
10
-492.11177815899498
20
-101.3300762292225
10
-500.11177815899492
20
-101.33007622922239
10
-500.11177815899475
20
9.6698635979332348
10
-492.11177815899475
20
9.6698635979332117
10
-492.11177815899475
20
25.669863597933123
10
-500.11177815899475
20
25.66986359793318
10
-500.11177815899464
20
65.669863597932917
10
-505.8622688764633
20
65.669863597932888
10
-505.8622688764633
20
73.669863597932746
10
-513.8622688764633
20
73.669863597932746
10
-513.8622688764633
20
65.669863597932846
10
-523.8622688764633
20
65.669863597932832
10
-523.86226887646433
20
-558.33001605637583
10
-511.36226887646438
20
-558.3300160563756
10
-511.36226887646438
20
-566.3300160563756
10
-495.36226887646444
20
-566.33001605637571
10
-495.36226887646433
20
-558.33001605637571
10
-479.36226887646444
20
-558.33001605637571
10
-479.3622688764645
20
-566.3300160563756
10
-463.36226887646455
20
-566.3300160563756
10
-463.36226887646444
20
-558.3300160563756
10
-442.8622688764645
20
-558.3300160563756
10
-442.8622688764645
20
-517.33001605637594
10
-434.86226887646444
20
-517.33001605637594
10
-434.86226887646444
20
-501.33001605637605
10
-442.86226887646444
20
-501.33001605637605
10
-442.86226887646427
20
-429.33001605637651
10
-434.86226887646433
20
-429.33001605637651
10
-434.86226887646433
20
-413.33001605637662
10
-442.86226887646427
20
-413.33001605637662
10
-442.86226887646416
20
-341.33001605637708
10
-434.86226887646416
20
-341.33001605637708
0
ARC
5
334
100
AcDbEntity
8
0
100
AcDbCircle
10
-112.50185990113911
20
50.33053414339026
30
3.5527136788005009e-14
40
1.7000000000000168
100
AcDbArc
50
-44.999999999911758
51
135.00000000008825
0
LINE
5
335
100
AcDbEntity
8
0
100
AcDbLine
10
-111.29977837312012
20
49.128452615374968
30
3.5527136788005009e-14
11
-111.29977837312015
21
45.936778727439851
31
3.5527136788005009e-14
0
ARC
5
336
100
AcDbEntity
8
0
100
AcDbCircle
10
-112.50185990113914
20
44.734697199424559
30
3.5527136788005009e-14
40
1.7000000000000104
100
AcDbArc
50
-135.00000000000171
51
44.999999999911779
0
LINE
5
337
100
AcDbEntity
8
0
100
AcDbLine
10
-113.70394142915632
20
43.532615671407456
30
3.5527136788005009e-14
11
-124.89561531708773
21
43.532615671407491
31
2.1278798738585048e-31
0
ARC
5
338
100
AcDbEntity
8
0
100
AcDbCircle
10
-126.09769684510488
20
44.734697199424637
30
3.5527136788005009e-14
40
1.700000000000004
100
AcDbArc
50
134.99999999991246
51
315
0
LINE
5
339
100
AcDbEntity
8
0
100
AcDbLine
10
-127.29977837312018
20
45.93677872744361
30
3.5527136788005009e-14
11
-127.29977837312012
21
49.128452615371302
31
3.5527136788005009e-14
0
ARC
5
340
100
AcDbEntity
8
0
100
AcDbCircle
10
-126.09769684510481
20
50.330534143390288
30
3.5527136788005009e-14
40
1.699999999999998
100
AcDbArc
50
45.000000000001187
51
225.00000000008754
0
LINE
5
341
100
AcDbEntity
8
0
100
AcDbLine
10
-124.8956153170877
20
51.532615671407441
30
3.5527136788005009e-14
11
-113.70394142915811
21
51.532615671405551
31
3.5527136788005009e-14
0
ARC
5
342
100
AcDbEntity
8
0
100
AcDbCircle
10
30.902303154895058
20
50.330534143390111
30
3.5527136788005009e-14
40
1.7000000000000168
100
AcDbArc
50
45.000000000001691
51
225.00000000000165
0
LINE
5
343
100
AcDbEntity
8
0
100
AcDbLine
10
32.104384682912162
20
51.532615671407285
30
3.5527136788005009e-14
11
43.296058570843655
21
51.532615671407285
31
3.5527136788005009e-14
0
ARC
5
344
100
AcDbEntity
8
0
100
AcDbCircle
10
44.498140098860766
20
50.330534143390125
30
3.5527136788005009e-14
40
1.700000000000004
100
AcDbArc
50
-44.999999999903459
51
134.99999999999883
0
LINE
5
345
100
AcDbEntity
8
0
100
AcDbLine
10
45.700221626879923
20
49.128452615375018
30
3.5527136788005009e-14
11
45.700221626879895
21
45.936778727439602
31
3.5527136788005009e-14
0
ARC
5
346
100
AcDbEntity
8
0
100
AcDbCircle
10
44.498140098860773
20
44.734697199424424
30
3.5527136788005009e-14
40
1.7000000000000233
100
AcDbArc
50
-135.00000000000136
51
44.999999999906009
0
LINE
5
347
100
AcDbEntity
8
0
100
AcDbLine
10
43.296058570843599
20
43.532615671407306
30
3.5527136788005009e-14
11
32.104384682912261
21
43.532615671407335
31
3.5527136788005009e-14
0
ARC
5
348
100
AcDbEntity
8
0
100
AcDbCircle
10
30.90230315489508
20
44.734697199424403
30
3.5527136788005009e-14
40
1.7000000000000137
100
AcDbArc
50
134.99999999990703
51
315.00000000000267
0
LINE
5
349
100
AcDbEntity
8
0
100
AcDbLine
10
29.700221626879888
20
45.936778727443496
30
3.5527136788005009e-14
11
29.700221626877948
21
49.128452615372929
31
3.5527136788005009e-14
0
ARC
5
350
100
AcDbEntity
8
0
100
AcDbCircle
10
187.90230315489504
20
50.330534143390025
30
3.5527136788005009e-14
40
1.7000000000000104
100
AcDbArc
50
44.999999999999325
51
225.00000085377289
0
LINE
5
351
100
AcDbEntity
8
0
100
AcDbLine
10
189.10438468291218
20
51.532615671407143
30
3.5527136788005009e-14
11
200.29605857084357
21
51.532615671407129
31
3.5527136788005009e-14
0
ARC
5
352
100
AcDbEntity
8
0
100
AcDbCircle
10
201.49814009886057
20
50.330534143389897
30
3.5527136788005009e-14
40
1.7000000000000233
100
AcDbArc
50
-44.999999999894349
51
134.99999999999457
0
LINE
5
353
100
AcDbEntity
8
0
100
AcDbLine
10
202.70022162687994
20
49.128452615374968
30
3.5527136788005009e-14
11
202.70022162687991
21
45.936778727439247
31
3.5527136788005009e-14
0
ARC
5
354
100
AcDbEntity
8
0
100
AcDbCircle
10
201.49814009886057
20
44.734697199424254
30
3.5527136788005009e-14
40
1.6999999999999917
100
AcDbArc
50
-135.00000000000205
51
44.999999999896538
0
LINE
5
355
100
AcDbEntity
8
0
100
AcDbLine
10
200.2960585708434
20
43.532615671407164
30
3.5527136788005009e-14
11
189.10438468291207
21
43.532615671407171
31
3.5527136788005009e-14
0
ARC
5
356
100
AcDbEntity
8
0
100
AcDbCircle
10
187.90230315489498
20
44.734697199424346
30
3.5527136788005009e-14
40
1.6999999999999791
100
AcDbArc
50
134.99999999990027
51
314.99999999999795
0
LINE
5
357
100
AcDbEntity
8
0
100
AcDbLine
10
186.70022162687997
20
45.936778727443546
30
3.5527136788005009e-14
11
186.7002216447903
21
49.128452597460502
31
3.5527136788005009e-14
0
ARC
5
358
100
AcDbEntity
8
0
100
AcDbCircle
10
-112.50185990113933
20
-55.669465856609257
30
-3.4211388289180104e-48
40
1.7000000000000168
100
AcDbArc
50
-44.999999999935469
51
135.00000000006455
0
LINE
5
359
100
AcDbEntity
8
0
100
AcDbLine
10
-111.29977837312083
20
-56.871547384625046
30
-4.1908235589866673e-32
11
-111.29977837312084
21
-60.063221272559169
31
-6.1629758220391547e-32
0
ARC
5
360
100
AcDbEntity
8
0
100
AcDbCircle
10
-112.50185990113934
20
-61.265302800574986
30
0
40
1.700000000000004
100
AcDbArc
50
-135.00000000000119
51
44.999999999936158
0
LINE
5
361
100
AcDbEntity
8
0
100
AcDbLine
10
-113.7039414291565
20
-62.467384328592097
30
0
11
-124.89561531708786
21
-62.46738432859209
31
2.1278187481522621e-31
0
ARC
5
362
100
AcDbEntity
8
0
100
AcDbCircle
10
-126.09769684510505
20
-61.265302800574979
30
0
40
1.700000000000004
100
AcDbArc
50
134.99999999993616
51
315.00000000000188
0
LINE
5
363
100
AcDbEntity
8
0
100
AcDbLine
10
-127.29977837312084
20
-60.063221272556504
30
0
11
-127.29977837312083
21
-56.871547384627746
31
6.1629758220391547e-32
0
ARC
5
364
100
AcDbEntity
8
0
100
AcDbCircle
10
-126.09769684510503
20
-55.66946585660925
30
3.1132363343153895e-46
40
1.7000000000000168
100
AcDbArc
50
44.999999999999147
51
225.00000000006435
0
LINE
5
365
100
AcDbEntity
8
0
100
AcDbLine
10
-124.89561531708787
20
-54.467384328592125
30
4.1908235589866683e-32
11
-113.70394142915782
21
-54.467384328593468
31
4.1908235589866673e-32
0
LWPOLYLINE
5
366
100
AcDbEntity
8
0
100
AcDbPolyline
90
8
70
1
43
0.0
10
29.700221626877742
20
-56.871547384626489
42
-0.99999999999999989
10
32.104384682912105
20
-54.467384328592274
10
43.296058570841893
20
-54.467384328593795
42
-0.99999999999999989
10
45.700221626879213
20
-56.871547384625025
10
45.700221626877678
20
-60.06322127255806
42
-0.99999999999999989
10
43.296058570843321
20
-62.467384328592253
10
32.104384682910563
20
-62.467384328593738
42
-0.99999999999999989
10
29.700221626879184
20
-60.063221272556561
0
LWPOLYLINE
5
367
100
AcDbEntity
8
0
100
AcDbPolyline
90
8
70
1
43
0.0
10
186.70022162687761
20
-56.871547384626709
42
-0.99999999999999989
10
189.10438468291193
20
-54.467384328592424
10
200.29605857084152
20
-54.467384328594157
42
-0.99999999999999989
10
202.70022162687926
20
-56.871547384624996
10
202.70022162687749
20
-60.063221272558202
42
-0.99999999999999989
10
200.29605857084317
20
-62.467384328592395
10
189.10438468291022
20
-62.467384328594079
42
-0.99999999999999989
10
186.70022162687926
20
-60.063221272556518
0
LWPOLYLINE
5
368
100
AcDbEntity
8
0
100
AcDbPolyline
90
4
70
1
43
0.0
10
18.430389246602662
20
-8.4673843285925159
10
18.430389246602566
20
-22.467384328592459
42
0.99999999999999989
10
57.057378921060426
20
-22.467384328592495
10
57.057378921060518
20
-8.4673843285925532
42
0.99999999999999989
0
LWPOLYLINE
5
369
100
AcDbEntity
8
0
100
AcDbPolyline
90
3
70
1
43
0.0
10
1.2437667487767774
20
-5.8953843285939334
10
1.24376674877686
20
7.9606156714060106
10
-10.755881246060381
20
1.0326156714060553
0
LWPOLYLINE
5
370
100
AcDbEntity
8
0
100
AcDbPolyline
90
3
70
1
43
0.0
10
74.243884083831091
20
7.9608189016842923
10
74.24388408383102
20
-5.895587558866664
10
86.243884083830977
20
1.0326156714087797
0
LWPOLYLINE
5
371
100
AcDbEntity
8
0
100
AcDbPolyline
90
3
70
1
43
0.0
10
1.2437667487765509
20
-38.895384328590957
10
1.2437667487766513
20
-25.039384328591012
10
-10.7558812460606
20
-31.967384328590974
0
LWPOLYLINE
5
372
100
AcDbEntity
8
0
100
AcDbPolyline
90
3
70
1
43
0.0
10
74.244001418886299
20
-25.039384328591005
10
74.244001418886228
20
-38.895384328590957
10
86.243649413723432
20
-31.967384328590988
0
LWPOLYLINE
5
373
100
AcDbEntity
8
0
100
AcDbPolyline
90
16
70
1
43
0.0
10
-162.29977837312006
20
58.704188546661285
42
-0.19891236737963769
10
-161.71399193549317
20
60.118402109034399
10
-157.8855648107469
20
63.946829233780534
42
-0.19891236737966342
10
-156.47135124837379
20
64.532615671407427
10
231.87179450213389
20
64.532615671406944
42
-0.19891236737964738
10
233.28600806450692
20
63.946829233780107
10
237.11443518925313
20
60.118402109033966
42
-0.19891236737962084
10
237.70022162688002
20
58.70418854666088
10
237.70022162687908
20
-69.638957203846246
42
-0.1989123673796564
10
237.11443518925222
20
-71.053170766219282
10
233.28600806450595
20
-74.881597890965494
42
-0.19891236737967138
10
231.87179450213284
20
-75.467384328592374
10
-156.47135124837479
20
-75.467384328591962
42
-0.19891236737965315
10
-157.88556481074784
20
-74.881597890965082
10
-161.71399193549405
20
-71.053170766218926
42
-0.19891236737961299
10
-162.29977837312092
20
-69.638957203845848
0
ENDSEC
0
SECTION
2
OBJECTS
0
DICTIONARY
5
C
100
AcDbDictionary
3
ACAD_GROUP
350
D
3
ACAD_MLINESTYLE
350
17
0
DICTIONARY
5
D
100
AcDbDictionary
0
DICTIONARY
5
1A
330
C
100
AcDbDictionary
0
DICTIONARY
5
17
100
AcDbDictionary
0
ENDSEC
0
EOF
