0
SECTION
2
HEADER
9
$INSUNITS
70
4
9
$ACADVER
1
AC1014
9
$HANDSEED
5
FFFF
0
ENDSEC
0
SECTION
2
TABLES
0
TABLE
2
VPORT
5
8
100
AcDbSymbolTable
0
ENDTAB
0
TABLE
2
LTYPE
5
5
100
AcDbSymbolTable
0
LTYPE
5
14
100
AcDbSymbolTableRecord
100
AcDbLinetypeTableRecord
2
BYBLOCK
70
0
0
LTYPE
5
15
100
AcDbSymbolTableRecord
100
AcDbLinetypeTableRecord
2
BYLAYER
70
0
0
ENDTAB
0
TABLE
2
LAYER
5
2
100
AcDbSymbolTable
70
2
0
LAYER
5
50
100
AcDbSymbolTableRecord
100
AcDbLayerTableRecord
2
0
70
0
6
CONTINUOUS
0
ENDTAB
0
TABLE
2
STYLE
5
3
100
AcDbSymbolTable
70
1
0
STYLE
5
11
100
AcDbSymbolTableRecord
100
AcDbTextStyleTableRecord
2
STANDARD
70
0
0
ENDTAB
0
TABLE
2
VIEW
5
6
100
AcDbSymbolTable
70
0
0
ENDTAB
0
TABLE
2
UCS
5
7
100
AcDbSymbolTable
70
0
0
ENDTAB
0
TABLE
2
APPID
5
9
100
AcDbSymbolTable
70
2
0
APPID
5
12
100
AcDbSymbolTableRecord
100
AcDbRegAppTableRecord
2
ACAD
70
0
0
ENDTAB
0
TABLE
2
DIMSTYLE
5
A
100
AcDbSymbolTable
70
1
0
ENDTAB
0
TABLE
2
BLOCK_RECORD
5
1
100
AcDbSymbolTable
70
1
0
BLOCK_RECORD
5
1F
100
AcDbSymbolTableRecord
100
AcDbBlockTableRecord
2
*MODEL_SPACE
0
BLOCK_RECORD
5
1B
100
AcDbSymbolTableRecord
100
AcDbBlockTableRecord
2
*PAPER_SPACE
0
ENDTAB
0
ENDSEC
0
SECTION
2
BLOCKS
0
BLOCK
5
20
100
AcDbEntity
100
AcDbBlockBegin
2
*MODEL_SPACE
0
ENDBLK
5
21
100
AcDbEntity
100
AcDbBlockEnd
0
BLOCK
5
1C
100
AcDbEntity
100
AcDbBlockBegin
2
*PAPER_SPACE
0
ENDBLK
5
1D
100
AcDbEntity
100
AcDbBlockEnd
0
ENDSEC
0
SECTION
2
ENTITIES
0
CIRCLE
5
100
100
AcDbEntity
8
0
100
AcDbCircle
10
0
20
6.366197723675814
30
0
40
15
0
LWPOLYLINE
5
101
100
AcDbEntity
8
0
100
AcDbPolyline
90
6
70
1
43
0.0
10
-5.8504248362863844
20
20.178240629595404
42
-0.49810512865823592
10
14.886792452830196
20
8.2056026454801785
42
0.5908391567007979
10
14.88679245283018
20
4.5267928018714487
42
-0.49810512865823653
10
-5.8504248362863915
20
-7.4458451822437643
42
0.59083915670079712
10
-9.0363676165438189
20
-5.6064402604394115
42
-0.49810512865823614
10
-9.0363676165438083
20
18.338835707791027
42
0.59083915670079701
0
ARC
5
102
100
AcDbEntity
8
0
100
AcDbCircle
10
0.9934259398110411
20
-0.57931416529422897
30
0
40
0.50000000000000033
100
AcDbArc
50
278.13988380581429
51
329.7514942714285
0
ARC
5
103
100
AcDbEntity
8
0
100
AcDbCircle
10
1.3877787807814457e-15
20
2.7755575615628914e-16
30
0
40
1.6499999999999992
100
AcDbArc
50
-30.248505728571512
51
34.595821857876523
0
SPLINE
5
104
100
AcDbEntity
8
0
100
AcDbSpline
70
1064
71
3
72
12
73
8
74
0
42
0.000000001
43
0.0000000001
44
0.0000000001
40
0
40
0
40
0
40
0
40
0.029298335504019706
40
0.029298335504019706
40
0.054944151829285443
40
0.054944151829285443
40
0.080589968154551175
40
0.080589968154551175
40
0.080589968154551175
40
0.080589968154551175
10
1.3062204101687866
20
1.700904627341562
30
0
10
1.2621786700662465
20
1.6137380100762648
30
0
10
1.2355835716529509
20
1.518802421996801
30
0
10
1.2212344599517946
20
1.3362182225573682
30
0
10
1.2291566855644738
20
1.2504737796368393
30
0
10
1.2735548502821485
20
1.085366950676844
30
0
10
1.3097057386251949
20
1.0072133556065042
30
0
10
1.3582433284836504
20
0.93684313555133392
30
0
0
SPLINE
5
105
100
AcDbEntity
8
0
100
AcDbSpline
70
1064
71
3
72
14
73
10
74
0
42
0.000000001
43
0.0000000001
44
0.0000000001
40
0.41350534146755602
40
0.41350534146755602
40
0.41350534146755602
40
0.41350534146755602
40
0.41552960340578082
40
0.41552960340578082
40
0.41552960340578082
40
0.5202135969680034
40
0.5202135969680034
40
0.5202135969680034
40
0.5913714822418612
40
0.5913714822418612
40
0.5913714822418612
40
0.5913714822418612
10
1.3062204101669816
20
1.7009046273379889
30
0
10
1.3081318159780075
20
1.7046876472273436
30
0
10
1.3100711276710908
20
1.7084772822898819
30
0
10
1.3120386460617275
20
1.7122735652535388
30
0
10
1.4137881670350843
20
1.9085970023658012
30
0
10
1.6418057624880247
20
2.1168921259300659
30
0
10
1.9098904099201885
20
2.1727046093127624
30
0
10
2.0921182361286128
20
2.2106425800975167
30
0
10
2.2565433620728261
20
2.1876652823345193
30
0
10
2.3962476388312046
20
2.1370824942251119
30
0
0
SPLINE
5
106
100
AcDbEntity
8
0
100
AcDbSpline
70
1064
71
3
72
12
73
8
74
0
42
0.000000001
43
0.0000000001
44
0.0000000001
40
0
40
0
40
0
40
0
40
0.029298335504019606
40
0.029298335504019606
40
0.053828535887923343
40
0.053828535887923343
40
0.078358736271827101
40
0.078358736271827101
40
0.078358736271827101
40
0.078358736271827101
10
2.8786239325429577
20
1.567112408441458
30
0
10
2.8610151159256243
20
1.6631729290213069
30
0
10
2.824811893455105
20
1.7548756652201605
30
0
10
2.7278785409822697
20
1.9058673699919935
30
0
10
2.6727483177238205
20
1.9669910795191372
30
0
10
2.5449464130721462
20
2.0690217670904252
30
0
10
2.4731306350708229
20
2.1092454344139018
30
0
10
2.3962476388311909
20
2.1370824942251163
30
0
0
ARC
5
107
100
AcDbEntity
8
0
100
AcDbCircle
10
4.5015815807855333
20
1.8646161428902848
30
0
40
1.6500000000000212
100
AcDbArc
50
190.38754279408215
51
255.24850572857085
0
ARC
5
108
100
AcDbEntity
8
0
100
AcDbCircle
10
4.2087603368554793
20
0.75252094952628756
30
0
40
0.49999999999998096
100
AcDbArc
50
255.24850572857127
51
306.86011619418559
0
ARC
5
109
100
AcDbEntity
8
0
100
AcDbCircle
10
-3.3306690738754696e-15
20
6.3661977236758061
30
0
40
7.5161977236758091
100
AcDbArc
50
306.86011619418559
51
323.13988380581435
0
ARC
5
110
100
AcDbEntity
8
0
100
AcDbCircle
10
5.6136767741495071
20
2.157437386820316
30
0
40
0.500000000000005
100
AcDbArc
50
-36.860116194185331
51
14.751494271428232
0
ARC
5
111
100
AcDbEntity
8
0
100
AcDbCircle
10
4.5015815807855333
20
1.8646161428902848
30
0
40
1.6499999999999984
100
AcDbArc
50
14.751494271428454
51
79.595821857876544
0
SPLINE
5
112
100
AcDbEntity
8
0
100
AcDbSpline
70
1064
71
3
72
12
73
8
74
0
42
0.000000001
43
0.0000000001
44
0.0000000001
40
0
40
0
40
0
40
0
40
0.029298335504019703
40
0.029298335504019703
40
0.054944151829285387
40
0.054944151829285387
40
0.080589968154551078
40
0.080589968154551078
40
0.080589968154551078
40
0.080589968154551078
10
4.2224976943953587
20
3.990974648789702
30
0
10
4.2529915874749804
20
3.8981963295465558
30
0
10
4.3013156111475386
20
3.8122611570052705
30
0
10
4.420275782520787
20
3.6730082772562396
30
0
10
4.4865081190117708
20
3.6179796596708851
30
0
10
4.634650520733695
20
3.5326257446371705
30
0
10
4.7154759960753259
20
3.5029253458821108
30
0
10
4.7995565148012913
20
3.4874873450188759
30
0
0
SPLINE
5
113
100
AcDbEntity
8
0
100
AcDbSpline
70
1064
71
3
72
14
73
10
74
0
42
0.000000001
43
0.0000000001
44
0.0000000001
40
0.41350534146755602
40
0.41350534146755602
40
0.41350534146755602
40
0.41350534146755602
40
0.41552960340578082
40
0.41552960340578082
40
0.41552960340578082
40
0.5202135969680034
40
0.5202135969680034
40
0.5202135969680034
40
0.59137148224186165
40
0.59137148224186165
40
0.59137148224186165
40
0.59137148224186165
10
4.2224976943966084
20
3.9909746487858984
30
0
10
4.2211742633900577
20
3.9950012158136006
30
0
10
4.2198658871881278
20
3.9990521929135574
30
0
10
4.2185727553573518
20
4.0031278159365904
30
0
10
4.1516988979321638
20
4.2138972258872656
30
0
10
4.1656447915464065
20
4.5224169082222723
30
0
10
4.3157438782029285
20
4.7514467658283257
30
0
10
4.4177722134294326
20
4.9071274938675451
30
0
10
4.5502857380435975
20
5.0071462123585917
30
0
10
4.6848390119836942
20
5.0701646213317186
30
0
0
SPLINE
5
114
100
AcDbEntity
8
0
100
AcDbSpline
70
1064
71
3
72
12
73
8
74
0
42
0.000000001
43
0.0000000001
44
0.0000000001
40
0
40
0
40
0
40
0
40
0.029298335504019724
40
0.029298335504019724
40
0.053828535887923329
40
0.053828535887923329
40
0.078358736271826962
40
0.078358736271826962
40
0.078358736271826962
40
0.078358736271826962
10
5.4289602730820041
20
5.0082264569678339
30
0
10
5.3485839139368965
20
5.0637001888353685
30
0
10
5.2581407432076155
20
5.1029442713452298
30
0
10
5.0828312540038478
20
5.1411692988356217
30
0
10
5.0006273097915512
20
5.1454073336191639
30
0
10
4.8381111252930129
20
5.1271843312621925
30
0
10
4.7588872737434675
20
5.104845335569892
30
0
10
4.6848390119836782
20
5.0701646213317142
30
0
0
ARC
5
115
100
AcDbEntity
8
0
100
AcDbCircle
10
6.366197723675814
20
6.3661977236758149
30
0
40
1.6500000000000192
100
AcDbArc
50
235.38754279408209
51
300.24850572857082
0
ARC
5
116
100
AcDbEntity
8
0
100
AcDbCircle
10
6.9455118889700431
20
5.3727717838647475
30
0
40
0.49999999999997713
100
AcDbArc
50
300.24850572857082
51
351.86011619418554
0
ARC
5
117
100
AcDbEntity
8
0
100
AcDbCircle
10
-3.3306690738754696e-15
20
6.3661977236758061
30
0
40
7.5161977236758162
100
AcDbArc
50
-8.1398838058144172
51
8.1398838058143141
0
ARC
5
118
100
AcDbEntity
8
0
100
AcDbCircle
10
6.945511888970044
20
7.3596236634868548
30
0
40
0.49999999999999983
100
AcDbArc
50
8.1398838058140441
51
59.751494271428584
0
ARC
5
119
100
AcDbEntity
8
0
100
AcDbCircle
10
6.366197723675814
20
6.3661977236758149
30
0
40
1.6499999999999992
100
AcDbArc
50
59.751494271428491
51
124.59582185787643
0
SPLINE
5
120
100
AcDbEntity
8
0
100
AcDbSpline
70
1064
71
3
72
12
73
8
74
0
42
0.000000001
43
0.0000000001
44
0.0000000001
40
0
40
0
40
0
40
0
40
0.029298335504019477
40
0.029298335504019477
40
0.054944151829285068
40
0.054944151829285068
40
0.080589968154550634
40
0.080589968154550634
40
0.080589968154550634
40
0.080589968154550634
10
4.6652930963342589
20
7.6724181338446016
30
0
10
4.7524597135995545
20
7.6283763937420623
30
0
10
4.8473953016790192
20
7.6017812953287667
30
0
10
5.0299795011184498
20
7.5874321836276115
30
0
10
5.1157239440389777
20
7.59535440924029
30
0
10
5.2808307729989723
20
7.6397525739579644
30
0
10
5.3589843680693114
20
7.6759034623010098
30
0
10
5.4293545881244825
20
7.7244410521594649
30
0
0
SPLINE
5
121
100
AcDbEntity
8
0
100
AcDbSpline
70
1064
71
3
72
14
73
10
74
0
42
0.000000001
43
0.0000000001
44
0.0000000001
40
0.41350534146755541
40
0.41350534146755541
40
0.41350534146755541
40
0.41350534146755541
40
0.41552960340578082
40
0.41552960340578082
40
0.41552960340578082
40
0.5202135969680034
40
0.5202135969680034
40
0.5202135969680034
40
0.5913714822418622
40
0.5913714822418622
40
0.5913714822418622
40
0.5913714822418622
10
4.6652930963378294
20
7.6724181338427941
30
0
10
4.6615100764484731
20
7.6743295396538214
30
0
10
4.6577204413859334
20
7.6762688513469035
30
0
10
4.6539241584222752
20
7.6782363697375411
30
0
10
4.4576007213100128
20
7.7799858907108987
30
0
10
4.2493055977457477
20
8.0080034861638385
30
0
10
4.1934931143630516
20
8.2760881335960015
30
0
10
4.1555551435782965
20
8.4583159598044304
30
0
10
4.1785324413412948
20
8.6227410857486433
30
0
10
4.2291152294507039
20
8.7624453625070231
30
0
0
SPLINE
5
122
100
AcDbEntity
8
0
100
AcDbSpline
70
1064
71
3
72
12
73
8
74
0
42
0.000000001
43
0.0000000001
44
0.0000000001
40
0
40
0
40
0
40
0
40
0.029298335504019508
40
0.029298335504019508
40
0.053828535887922996
40
0.053828535887922996
40
0.078358736271826546
40
0.078358736271826546
40
0.078358736271826546
40
0.078358736271826546
10
4.7990853152343558
20
9.2448216562187717
30
0
10
4.7030247946545076
20
9.2272128396014388
30
0
10
4.611322058455654
20
9.1910096171309199
30
0
10
4.4603303536838226
20
9.0940762646580851
30
0
10
4.3992066441566795
20
9.0389460413996368
30
0
10
4.2971759565853915
20
8.9111441367479642
30
0
10
4.2569522892619158
20
8.8393283587466414
30
0
10
4.2291152294507004
20
8.7624453625070107
30
0
0
ARC
5
123
100
AcDbEntity
8
0
100
AcDbCircle
10
4.5015815807855315
20
10.867779304461344
30
0
40
1.6500000000000177
100
AcDbArc
50
280.38754279408209
51
345.24850572857099
0
ARC
5
124
100
AcDbEntity
8
0
100
AcDbCircle
10
5.6136767741495284
20
10.574958060531294
30
0
40
0.49999999999997824
100
AcDbArc
50
-14.751494271428845
51
36.860116194186212
0
ARC
5
125
100
AcDbEntity
8
0
100
AcDbCircle
10
-3.3306690738754696e-15
20
6.3661977236758061
30
0
40
7.5161977236758206
100
AcDbArc
50
36.860116194185572
51
53.139883805814321
0
ARC
5
126
100
AcDbEntity
8
0
100
AcDbCircle
10
4.2087603368554989
20
11.979874497825323
30
0
40
0.50000000000000122
100
AcDbArc
50
53.13988380581452
51
104.75149427142857
0
ARC
5
127
100
AcDbEntity
8
0
100
AcDbCircle
10
4.5015815807855315
20
10.867779304461344
30
0
40
1.6499999999999992
100
AcDbArc
50
104.75149427142856
51
169.59582185787662
0
SPLINE
5
128
100
AcDbEntity
8
0
100
AcDbSpline
70
1064
71
3
72
12
73
8
74
0
42
0.000000001
43
0.0000000001
44
0.0000000001
40
0
40
0
40
0
40
0
40
0.02929833550401964
40
0.02929833550401964
40
0.054944151829285179
40
0.054944151829285179
40
0.080589968154550759
40
0.080589968154550759
40
0.080589968154550759
40
0.080589968154550759
10
2.3752230748861165
20
10.58869541807117
30
0
10
2.4680013941292613
20
10.619189311150791
30
0
10
2.553936566670548
20
10.667513334823351
30
0
10
2.6931894464195771
20
10.786473506196598
30
0
10
2.7482180640049307
20
10.852705842687584
30
0
10
2.8335719790386444
20
11.000848244409509
30
0
10
2.8632723777937032
20
11.081673719751137
30
0
10
2.8787103786569377
20
11.165754238477103
30
0
0
SPLINE
5
129
100
AcDbEntity
8
0
100
AcDbSpline
70
1064
71
3
72
14
73
10
74
0
42
0.000000001
43
0.0000000001
44
0.0000000001
40
0.41350534146755558
40
0.41350534146755558
40
0.41350534146755558
40
0.41350534146755558
40
0.41552960340578082
40
0.41552960340578082
40
0.41552960340578082
40
0.5202135969680034
40
0.5202135969680034
40
0.5202135969680034
40
0.59137148224186076
40
0.59137148224186076
40
0.59137148224186076
40
0.59137148224186076
10
2.3752230748899184
20
10.588695418072422
30
0
10
2.3711965078622157
20
10.587371987065872
30
0
10
2.3671455307622575
20
10.58606361086394
30
0
10
2.3630699077392232
20
10.584770479033166
30
0
10
2.152300497788548
20
10.517896621607978
30
0
10
1.8437808154535418
20
10.53184251522222
30
0
10
1.6147509578474879
20
10.681941601878741
30
0
10
1.4590702298082712
20
10.783969937105248
30
0
10
1.3590515113172246
20
10.916483461719409
30
0
10
1.2960331023440974
20
11.051036735659503
30
0
0
SPLINE
5
130
100
AcDbEntity
8
0
100
AcDbSpline
70
1064
71
3
72
12
73
8
74
0
42
0.000000001
43
0.0000000001
44
0.0000000001
40
0
40
0
40
0
40
0
40
0.029298335504019439
40
0.029298335504019439
40
0.053828535887923475
40
0.053828535887923475
40
0.078358736271827406
40
0.078358736271827406
40
0.078358736271827406
40
0.078358736271827406
10
1.3579712667079815
20
11.795157996757819
30
0
10
1.3024975348404477
20
11.714781637612713
30
0
10
1.2632534523305865
20
11.624338466883433
30
0
10
1.2250284248401941
20
11.449028977679664
30
0
10
1.2207903900566521
20
11.366825033467364
30
0
10
1.2390133924136244
20
11.204308848968825
30
0
10
1.2613523881059265
20
11.125084997419279
30
0
10
1.2960331023441052
20
11.051036735659491
30
0
0
ARC
5
131
100
AcDbEntity
8
0
100
AcDbCircle
10
8.3266726846886741e-16
20
12.732395447351628
30
0
40
1.6500000000000181
100
AcDbArc
50
-34.61245720591787
51
30.248505728570887
0
ARC
5
132
100
AcDbEntity
8
0
100
AcDbCircle
10
0.99342593981106553
20
13.311709612645849
30
0
40
0.49999999999998318
100
AcDbArc
50
30.248505728571697
51
81.860116194185409
0
ARC
5
133
100
AcDbEntity
8
0
100
AcDbCircle
10
-3.3306690738754696e-15
20
6.3661977236758061
30
0
40
7.5161977236758206
100
AcDbArc
50
81.86011619418548
51
98.13988380581425
0
ARC
5
134
100
AcDbEntity
8
0
100
AcDbCircle
10
-0.99342593981104621
20
13.311709612645863
30
0
40
0.49999999999999134
100
AcDbArc
50
98.139883805813454
51
149.7514942714289
0
ARC
5
135
100
AcDbEntity
8
0
100
AcDbCircle
10
8.3266726846886741e-16
20
12.732395447351628
30
0
40
1.6500000000000001
100
AcDbArc
50
149.75149427142856
51
214.5958218578765
0
SPLINE
5
136
100
AcDbEntity
8
0
100
AcDbSpline
70
1064
71
3
72
12
73
8
74
0
42
0.000000001
43
0.0000000001
44
0.0000000001
40
0
40
0
40
0
40
0
40
0.029298335504019887
40
0.029298335504019887
40
0.054944151829285262
40
0.054944151829285262
40
0.080589968154550398
40
0.080589968154550398
40
0.080589968154550398
40
0.080589968154550398
10
-1.3062204101687824
20
11.031490820010072
30
0
10
-1.262178670066243
20
11.11865743727537
30
0
10
-1.2355835716529511
20
11.213593025354836
30
0
10
-1.2212344599517964
20
11.396177224794268
30
0
10
-1.2291566855644755
20
11.481921667714797
30
0
10
-1.2735548502821501
20
11.647028496674787
30
0
10
-1.3097057386251951
20
11.725182091745125
30
0
10
-1.3582433284836499
20
11.795552311800295
30
0
0
SPLINE
5
137
100
AcDbEntity
8
0
100
AcDbSpline
70
1064
71
3
72
14
73
10
74
0
42
0.000000001
43
0.0000000001
44
0.0000000001
40
0.41350534146755424
40
0.41350534146755424
40
0.41350534146755424
40
0.41350534146755424
40
0.41552960340578082
40
0.41552960340578082
40
0.41552960340578082
40
0.5202135969680034
40
0.5202135969680034
40
0.5202135969680034
40
0.59137148224186398
40
0.59137148224186398
40
0.59137148224186398
40
0.59137148224186398
10
-1.3062204101669761
20
11.031490820013648
30
0
10
-1.3081318159780038
20
11.02770780012429
30
0
10
-1.3100711276710886
20
11.023918165061747
30
0
10
-1.312038646061727
20
11.020121882098088
30
0
10
-1.4137881670350838
20
10.823798444985826
30
0
10
-1.6418057624880242
20
10.615503321421562
30
0
10
-1.9098904099201879
20
10.559690838038867
30
0
10
-2.0921182361286195
20
10.521752867254111
30
0
10
-2.2565433620728381
20
10.544730165017114
30
0
10
-2.3962476388312197
20
10.595312953126523
30
0
0
SPLINE
5
138
100
AcDbEntity
8
0
100
AcDbSpline
70
1064
71
3
72
12
73
8
74
0
42
0.000000001
43
0.0000000001
44
0.0000000001
40
0
40
0
40
0
40
0
40
0.02929833550401939
40
0.02929833550401939
40
0.053828535887922427
40
0.053828535887922427
40
0.078358736271825324
40
0.078358736271825324
40
0.078358736271825324
40
0.078358736271825324
10
-2.8786239325429577
20
11.165283038910172
30
0
10
-2.8610151159256243
20
11.069222518330324
30
0
10
-2.824811893455105
20
10.97751978213147
30
0
10
-2.7278785409822714
20
10.82652807735964
30
0
10
-2.6727483177238245
20
10.765404367832499
30
0
10
-2.5449464130721551
20
10.663373680261213
30
0
10
-2.4731306350708331
20
10.623150012937739
30
0
10
-2.3962476388312046
20
10.595312953126523
30
0
0
ARC
5
139
100
AcDbEntity
8
0
100
AcDbCircle
10
-4.5015815807855315
20
10.867779304461344
30
0
40
1.6500000000000195
100
AcDbArc
50
10.387542794082215
51
75.248505728570919
0
ARC
5
140
100
AcDbEntity
8
0
100
AcDbCircle
10
-4.2087603368554749
20
11.979874497825334
30
0
40
0.49999999999998634
100
AcDbArc
50
75.248505728572056
51
126.86011619418542
0
ARC
5
141
100
AcDbEntity
8
0
100
AcDbCircle
10
-3.3306690738754696e-15
20
6.3661977236758061
30
0
40
7.516197723675818
100
AcDbArc
50
126.86011619418547
51
143.13988380581421
0
ARC
5
142
100
AcDbEntity
8
0
100
AcDbCircle
10
-5.6136767741495088
20
10.574958060531312
30
0
40
0.50000000000000244
100
AcDbArc
50
143.13988380581401
51
194.75149427142858
0
ARC
5
143
100
AcDbEntity
8
0
100
AcDbCircle
10
-4.5015815807855315
20
10.867779304461344
30
0
40
1.6499999999999986
100
AcDbArc
50
194.7514942714285
51
259.59582185787662
0
SPLINE
5
144
100
AcDbEntity
8
0
100
AcDbSpline
70
1064
71
3
72
12
73
8
74
0
42
0.000000001
43
0.0000000001
44
0.0000000001
40
0
40
0
40
0
40
0
40
0.029298335504019411
40
0.029298335504019411
40
0.054944151829285068
40
0.054944151829285068
40
0.080589968154550884
40
0.080589968154550884
40
0.080589968154550884
40
0.080589968154550884
10
-4.2224976943953587
20
8.7414207985619292
30
0
10
-4.2529915874749804
20
8.8341991178050723
30
0
10
-4.3013156111475368
20
8.9201342903463594
30
0
10
-4.4202757825207852
20
9.0593871700953894
30
0
10
-4.486508119011769
20
9.114415787680743
30
0
10
-4.6346505207336941
20
9.1997697027144572
30
0
10
-4.715475996075325
20
9.2294701014695164
30
0
10
-4.7995565148012904
20
9.2449081023327508
30
0
0
SPLINE
5
145
100
AcDbEntity
8
0
100
AcDbSpline
70
1064
71
3
72
14
73
10
74
0
42
0.000000001
43
0.0000000001
44
0.0000000001
40
0.41350534146755591
40
0.41350534146755591
40
0.41350534146755591
40
0.41350534146755591
40
0.41552960340578082
40
0.41552960340578082
40
0.41552960340578082
40
0.5202135969680034
40
0.5202135969680034
40
0.5202135969680034
40
0.59137148224185865
40
0.59137148224185865
40
0.59137148224185865
40
0.59137148224185865
10
-4.2224976943966084
20
8.7414207985657306
30
0
10
-4.2211742633900577
20
8.737394231538028
30
0
10
-4.2198658871881269
20
8.7333432544380702
30
0
10
-4.2185727553573509
20
8.7292676314150359
30
0
10
-4.1516988979321638
20
8.5184982214643608
30
0
10
-4.1656447915464065
20
8.2099785391293558
30
0
10
-4.3157438782029276
20
7.9809486815233015
30
0
10
-4.4177722134294282
20
7.8252679534840901
30
0
10
-4.550285738043585
20
7.7252492349930435
30
0
10
-4.6848390119836756
20
7.6622308260199157
30
0
0
SPLINE
5
146
100
AcDbEntity
8
0
100
AcDbSpline
70
1064
71
3
72
12
73
8
74
0
42
0.000000001
43
0.0000000001
44
0.0000000001
40
0
40
0
40
0
40
0
40
0.029298335504019609
40
0.029298335504019609
40
0.053828535887924259
40
0.053828535887924259
40
0.078358736271828835
40
0.078358736271828835
40
0.078358736271828835
40
0.078358736271828835
10
-5.4289602730820041
20
7.7241689903837951
30
0
10
-5.3485839139368965
20
7.6686952585162604
30
0
10
-5.2581407432076164
20
7.6294511760064001
30
0
10
-5.0828312540038461
20
7.5912261485160055
30
0
10
-5.000627309791545
20
7.5869881137324633
30
0
10
-4.8381111252930005
20
7.6052111160894373
30
0
10
-4.7588872737434524
20
7.6275501117817415
30
0
10
-4.6848390119836623
20
7.662230826019921
30
0
0
ARC
5
147
100
AcDbEntity
8
0
100
AcDbCircle
10
-6.3661977236758149
20
6.3661977236758149
30
0
40
1.650000000000019
100
AcDbArc
50
55.387542794082044
51
120.24850572857085
0
ARC
5
148
100
AcDbEntity
8
0
100
AcDbCircle
10
-6.9455118889700396
20
7.3596236634868797
30
0
40
0.49999999999998268
100
AcDbArc
50
120.24850572857115
51
171.86011619418568
0
ARC
5
149
100
AcDbEntity
8
0
100
AcDbCircle
10
-3.3306690738754696e-15
20
6.3661977236758061
30
0
40
7.5161977236758117
100
AcDbArc
50
171.86011619418548
51
188.13988380581424
0
ARC
5
150
100
AcDbEntity
8
0
100
AcDbCircle
10
-6.9455118889700449
20
5.3727717838647715
30
0
40
0.49999999999999922
100
AcDbArc
50
188.13988380581432
51
239.75149427142853
0
ARC
5
151
100
AcDbEntity
8
0
100
AcDbCircle
10
-6.3661977236758149
20
6.3661977236758149
30
0
40
1.6499999999999995
100
AcDbArc
50
239.75149427142853
51
304.59582185787656
0
SPLINE
5
152
100
AcDbEntity
8
0
100
AcDbSpline
70
1064
71
3
72
12
73
8
74
0
42
0.000000001
43
0.0000000001
44
0.0000000001
40
0
40
0
40
0
40
0
40
0.029298335504019671
40
0.029298335504019671
40
0.054944151829285526
40
0.054944151829285526
40
0.080589968154551384
40
0.080589968154551384
40
0.080589968154551384
40
0.080589968154551384
10
-4.66529309633425
20
5.0599773135070292
30
0
10
-4.7524597135995466
20
5.1040190536095684
30
0
10
-4.8473953016790103
20
5.130614152022865
30
0
10
-5.0299795011184436
20
5.1449632637240219
30
0
10
-5.1157239440389732
20
5.1370410381113434
30
0
10
-5.2808307729989687
20
5.0926428733936664
30
0
10
-5.3589843680693097
20
5.0564919850506209
30
0
10
-5.4293545881244798
20
5.007954395192165
30
0
0
SPLINE
5
153
100
AcDbEntity
8
0
100
AcDbSpline
70
1064
71
3
72
14
73
10
74
0
42
0.000000001
43
0.0000000001
44
0.0000000001
40
0.41350534146755652
40
0.41350534146755652
40
0.41350534146755652
40
0.41350534146755652
40
0.41552960340578082
40
0.41552960340578082
40
0.41552960340578082
40
0.5202135969680034
40
0.5202135969680034
40
0.5202135969680034
40
0.59137148224186253
40
0.59137148224186253
40
0.59137148224186253
40
0.59137148224186253
10
-4.6652930963378232
20
5.0599773135088295
30
0
10
-4.6615100764484696
20
5.0580659076978041
30
0
10
-4.6577204413859317
20
5.0561265960047228
30
0
10
-4.6539241584222761
20
5.0541590776140861
30
0
10
-4.4576007213100137
20
4.9524095566407302
30
0
10
-4.2493055977457486
20
4.7243919611877896
30
0
10
-4.1934931143630516
20
4.4563073137556266
30
0
10
-4.1555551435782965
20
4.2740794875471986
30
0
10
-4.1785324413412965
20
4.1096543616029821
30
0
10
-4.2291152294507048
20
3.9699500848446023
30
0
0
SPLINE
5
154
100
AcDbEntity
8
0
100
AcDbSpline
70
1064
71
3
72
12
73
8
74
0
42
0.000000001
43
0.0000000001
44
0.0000000001
40
0
40
0
40
0
40
0
40
0.029298335504019505
40
0.029298335504019505
40
0.05382853588792294
40
0.05382853588792294
40
0.078358736271826379
40
0.078358736271826379
40
0.078358736271826379
40
0.078358736271826379
10
-4.7990853152343576
20
3.4875737911328564
30
0
10
-4.7030247946545085
20
3.5051826077501897
30
0
10
-4.6113220584556549
20
3.5413858302207086
30
0
10
-4.4603303536838235
20
3.6383191826935435
30
0
10
-4.3992066441566804
20
3.6934494059519918
30
0
10
-4.2971759565853933
20
3.8212513106036639
30
0
10
-4.2569522892619176
20
3.8930670886049863
30
0
10
-4.2291152294507022
20
3.9699500848446165
30
0
0
ARC
5
155
100
AcDbEntity
8
0
100
AcDbCircle
10
-4.5015815807855315
20
1.8646161428902854
30
0
40
1.6500000000000161
100
AcDbArc
50
100.38754279408218
51
165.2485057285709
0
ARC
5
156
100
AcDbEntity
8
0
100
AcDbCircle
10
-5.6136767741495248
20
2.1574373868203383
30
0
40
0.49999999999998113
100
AcDbArc
50
165.24850572857139
51
216.86011619418554
0
ARC
5
157
100
AcDbEntity
8
0
100
AcDbCircle
10
-3.3306690738754696e-15
20
6.3661977236758061
30
0
40
7.5161977236758046
100
AcDbArc
50
216.86011619418545
51
233.13988380581426
0
ARC
5
158
100
AcDbEntity
8
0
100
AcDbCircle
10
-4.208760336855498
20
0.7525209495263061
30
0
40
0.50000000000000333
100
AcDbArc
50
233.13988380581418
51
284.7514942714285
0
ARC
5
159
100
AcDbEntity
8
0
100
AcDbCircle
10
-4.5015815807855315
20
1.8646161428902854
30
0
40
1.6500000000000015
100
AcDbArc
50
284.7514942714285
51
349.59582185787644
0
SPLINE
5
160
100
AcDbEntity
8
0
100
AcDbSpline
70
1064
71
3
72
12
73
8
74
0
42
0.000000001
43
0.0000000001
44
0.0000000001
40
0
40
0
40
0
40
0
40
0.029298335504019564
40
0.029298335504019564
40
0.054944151829285318
40
0.054944151829285318
40
0.080589968154551161
40
0.080589968154551161
40
0.080589968154551161
40
0.080589968154551161
10
-2.3752230748861125
20
2.1437000292804562
30
0
10
-2.4680013941292573
20
2.1132061362008345
30
0
10
-2.5539365666705445
20
2.0648821125282781
30
0
10
-2.6931894464195749
20
1.9459219411550297
30
0
10
-2.7482180640049285
20
1.8796896046640452
30
0
10
-2.8335719790386444
20
1.7315472029421197
30
0
10
-2.8632723777937041
20
1.6507217276004886
30
0
10
-2.878710378656939
20
1.5666412088745227
30
0
0
SPLINE
5
161
100
AcDbEntity
8
0
100
AcDbSpline
70
1064
71
3
72
14
73
10
74
0
42
0.000000001
43
0.0000000001
44
0.0000000001
40
0.41350534146755646
40
0.41350534146755646
40
0.41350534146755646
40
0.41350534146755646
40
0.41552960340578082
40
0.41552960340578082
40
0.41552960340578082
40
0.5202135969680034
40
0.5202135969680034
40
0.5202135969680034
40
0.5913714822418763
40
0.5913714822418763
40
0.5913714822418763
40
0.5913714822418763
10
-2.3752230748899135
20
2.1437000292792079
30
0
10
-2.3711965078622117
20
2.1450234602857581
30
0
10
-2.3671455307622562
20
2.1463318364876875
30
0
10
-2.3630699077392237
20
2.1476249683184632
30
0
10
-2.1523004977885485
20
2.2144988257436511
30
0
10
-1.8437808154535422
20
2.2005529321294075
30
0
10
-1.6147509578474883
20
2.050453845472886
30
0
10
-1.4590702298082374
20
1.9484255102463606
30
0
10
-1.3590515113171815
20
1.8159119856321626
30
0
10
-1.2960331023440563
20
1.681358711692037
30
0
0
SPLINE
5
162
100
AcDbEntity
8
0
100
AcDbSpline
70
1064
71
3
72
12
73
8
74
0
42
0.000000001
43
0.0000000001
44
0.0000000001
40
0
40
0
40
0
40
0
40
0.02929833550401955
40
0.02929833550401955
40
0.05382853588791936
40
0.05382853588791936
40
0.078358736271819135
40
0.078358736271819135
40
0.078358736271819135
40
0.078358736271819135
10
-1.357971266707968
20
0.93723745059379526
30
0
10
-1.3024975348404346
20
1.0176138097389034
30
0
10
-1.2632534523305747
20
1.1080569804681837
30
0
10
-1.2250284248401866
20
1.2833664696719387
30
0
10
-1.2207903900566435
20
1.3655704138842233
30
0
10
-1.2390133924136055
20
1.5280865983827367
30
0
10
-1.2613523881058983
20
1.6073104499322708
30
0
10
-1.2960331023440634
20
1.681358711692051
30
0
0
ARC
5
163
100
AcDbEntity
8
0
100
AcDbCircle
10
1.3877787807814457e-15
20
2.7755575615628914e-16
30
0
40
1.6500000000000008
100
AcDbArc
50
145.38754279408229
51
210.2485057285715
0
ARC
5
164
100
AcDbEntity
8
0
100
AcDbCircle
10
-0.9934259398110411
20
-0.57931416529422974
30
0
40
0.49999999999999967
100
AcDbArc
50
210.24850572857162
51
261.86011619418576
0
ARC
5
165
100
AcDbEntity
8
0
100
AcDbCircle
10
-3.3306690738754696e-15
20
6.3661977236758061
30
0
40
7.5161977236758073
100
AcDbArc
50
261.86011619418565
51
278.13988380581429
0
LWPOLYLINE
5
166
100
AcDbEntity
8
0
100
AcDbPolyline
90
2
70
1
43
0.0
10
3.5000000000000004
20
4.4297060505721024
42
-3.8729833462074135
10
3.5000000000000009
20
8.3026893967795221
0
ARC
5
167
100
AcDbEntity
8
0
100
AcDbCircle
10
-5.6136767741495248
20
2.1574373868203374
30
0
40
0.49999999999999978
100
AcDbArc
50
165.24850572857125
51
216.86011619418542
0
ARC
5
168
100
AcDbEntity
8
0
100
AcDbCircle
10
-4.5015815807855475
20
1.8646161428903008
30
0
40
1.649999999999999
100
AcDbArc
50
100.38754279408172
51
165.24850572857125
0
SPLINE
5
169
100
AcDbEntity
8
0
100
AcDbSpline
70
1064
71
3
72
12
73
8
74
0
42
0.000000001
43
0.0000000001
44
0.0000000001
40
0
40
0
40
0
40
0
40
0.029298335504019613
40
0.029298335504019613
40
0.053828535887922857
40
0.053828535887922857
40
0.078358736271826199
40
0.078358736271826199
40
0.078358736271826199
40
0.078358736271826199
10
-4.2291152294507031
20
3.9699500848446152
30
0
10
-4.2623632056200957
20
3.8781227135581959
30
0
10
-4.3132292405651063
20
3.7936673310619957
30
0
10
-4.4337917960391602
20
3.6607792580490561
30
0
10
-4.4982688058324429
20
3.6096112544628145
30
0
10
-4.6411805006375904
20
3.5301138612553329
30
0
10
-4.718658090333391
20
3.502316874407581
30
0
10
-4.7990853152343576
20
3.4875737911328564
30
0
0
SPLINE
5
170
100
AcDbEntity
8
0
100
AcDbSpline
70
1064
71
3
72
14
73
10
74
0
42
0.000000001
43
0.0000000001
44
0.0000000001
40
-0.59137148224186309
40
-0.59137148224186309
40
-0.59137148224186309
40
-0.59137148224186309
40
-0.5202135969680034
40
-0.5202135969680034
40
-0.5202135969680034
40
-0.41552960340578082
40
-0.41552960340578082
40
-0.41552960340578082
40
-0.41350534146755652
40
-0.41350534146755652
40
-0.41350534146755652
40
-0.41350534146755652
10
-4.2291152294507066
20
3.9699500848445988
30
0
10
-4.1785324413412965
20
4.1096543616029804
30
0
10
-4.1555551435782965
20
4.2740794875471968
30
0
10
-4.1934931143630516
20
4.4563073137556266
30
0
10
-4.2493055977457486
20
4.7243919611877896
30
0
10
-4.4576007213100137
20
4.9524095566407302
30
0
10
-4.6539241584222761
20
5.0541590776140861
30
0
10
-4.6577204413859317
20
5.0561265960047228
30
0
10
-4.6615100764484696
20
5.0580659076978041
30
0
10
-4.6652930963378232
20
5.0599773135088295
30
0
0
SPLINE
5
171
100
AcDbEntity
8
0
100
AcDbSpline
70
1064
71
3
72
12
73
8
74
0
42
0.000000001
43
0.0000000001
44
0.0000000001
40
0
40
0
40
0
40
0
40
0.029298335504019644
40
0.029298335504019644
40
0.054944151829285498
40
0.054944151829285498
40
0.080589968154551356
40
0.080589968154551356
40
0.080589968154551356
40
0.080589968154551356
10
-5.4293545881244798
20
5.007954395192165
30
0
10
-5.3489621260355698
20
5.063404788121499
30
0
10
-5.2585075649290181
20
5.10262260956313
30
0
10
-5.0795534021497346
20
5.1415879084265601
30
0
10
-4.9935264652407998
20
5.1453611399959502
30
0
10
-4.8239253978030137
20
5.1237523472604218
30
0
10
-4.741592961757453
20
5.0985285266692877
30
0
10
-4.66529309633425
20
5.0599773135070292
30
0
0
ARC
5
172
100
AcDbEntity
8
0
100
AcDbCircle
10
-6.366197723675814
20
6.366197723675814
30
0
40
1.6499999999999992
100
AcDbArc
50
239.75149427142853
51
304.59582185787656
0
ARC
5
173
100
AcDbEntity
8
0
100
AcDbCircle
10
-6.9455118889700431
20
5.3727717838647742
30
0
40
0.50000000000000022
100
AcDbArc
50
188.13988380581432
51
239.75149427142861
0
ARC
5
174
100
AcDbEntity
8
0
100
AcDbCircle
10
0
20
6.366197723675814
30
0
40
7.5161977236758135
100
AcDbArc
50
171.86011619418551
51
188.13988380581424
0
ARC
5
175
100
AcDbEntity
8
0
100
AcDbCircle
10
-6.9455118889700396
20
7.3596236634868806
30
0
40
0.50000000000000022
100
AcDbArc
50
120.24850572857132
51
171.86011619418542
0
ARC
5
176
100
AcDbEntity
8
0
100
AcDbCircle
10
-6.366197723675814
20
6.366197723675814
30
0
40
1.6500000000000192
100
AcDbArc
50
55.387542794082087
51
120.24850572857088
0
SPLINE
5
177
100
AcDbEntity
8
0
100
AcDbSpline
70
1064
71
3
72
12
73
8
74
0
42
0.000000001
43
0.0000000001
44
0.0000000001
40
0
40
0
40
0
40
0
40
0.02929833550401963
40
0.02929833550401963
40
0.053828535887924245
40
0.053828535887924245
40
0.078358736271828835
40
0.078358736271828835
40
0.078358736271828835
40
0.078358736271828835
10
-4.6848390119836623
20
7.662230826019921
30
0
10
-4.773280638328929
20
7.6208089384948625
30
0
10
-4.8689673302413841
20
7.5970576830657821
30
0
10
-5.0481839883405328
20
7.5883422260323963
30
0
10
-5.1299573615116101
20
7.5977531145722477
30
0
10
-5.2872243358428639
20
7.6425937972561666
30
0
10
-5.3616647028033562
20
7.6777232884234596
30
0
10
-5.4289602730820041
20
7.7241689903837951
30
0
0
SPLINE
5
178
100
AcDbEntity
8
0
100
AcDbSpline
70
1064
71
3
72
14
73
10
74
0
42
0.000000001
43
0.0000000001
44
0.0000000001
40
-0.59137148224185865
40
-0.59137148224185865
40
-0.59137148224185865
40
-0.59137148224185865
40
-0.5202135969680034
40
-0.5202135969680034
40
-0.5202135969680034
40
-0.41552960340578082
40
-0.41552960340578082
40
-0.41552960340578082
40
-0.41350534146755591
40
-0.41350534146755591
40
-0.41350534146755591
40
-0.41350534146755591
10
-4.6848390119836756
20
7.6622308260199157
30
0
10
-4.550285738043585
20
7.7252492349930435
30
0
10
-4.4177722134294282
20
7.8252679534840901
30
0
10
-4.3157438782029276
20
7.9809486815233015
30
0
10
-4.1656447915464065
20
8.2099785391293558
30
0
10
-4.1516988979321638
20
8.5184982214643608
30
0
10
-4.2185727553573509
20
8.7292676314150359
30
0
10
-4.2198658871881269
20
8.7333432544380702
30
0
10
-4.2211742633900577
20
8.737394231538028
30
0
10
-4.2224976943966084
20
8.7414207985657306
30
0
0
SPLINE
5
179
100
AcDbEntity
8
0
100
AcDbSpline
70
1064
71
3
72
12
73
8
74
0
42
0.000000001
43
0.0000000001
44
0.0000000001
40
0
40
0
40
0
40
0
40
0.029298335504019651
40
0.029298335504019651
40
0.05494415182928529
40
0.05494415182928529
40
0.080589968154550967
40
0.080589968154550967
40
0.080589968154550967
40
0.080589968154550967
10
-4.7995565148012895
20
9.2449081023327508
30
0
10
-4.7035011108421481
20
9.227271396093192
30
0
10
-4.611808889809712
20
9.1910415500302367
30
0
10
-4.4577165607296285
20
9.0920544750647352
30
0
10
-4.3942182526469118
20
9.0338923222414227
30
0
10
-4.2895719116417235
20
8.8986865334831418
30
0
10
-4.2491900223897225
20
8.8226327750562952
30
0
10
-4.222497694395356
20
8.7414207985619274
30
0
0
ARC
5
180
100
AcDbEntity
8
0
100
AcDbCircle
10
-4.5015815807855315
20
10.867779304461342
30
0
40
1.6499999999999981
100
AcDbArc
50
194.75149427142847
51
259.59582185787662
0
ARC
5
181
100
AcDbEntity
8
0
100
AcDbCircle
10
-5.6136767741495097
20
10.574958060531312
30
0
40
0.49999999999999933
100
AcDbArc
50
143.13988380581407
51
194.75149427142858
0
ARC
5
182
100
AcDbEntity
8
0
100
AcDbCircle
10
0
20
6.366197723675814
30
0
40
7.5161977236758135
100
AcDbArc
50
126.86011619418548
51
143.13988380581429
0
ARC
5
183
100
AcDbEntity
8
0
100
AcDbCircle
10
-4.2087603368554785
20
11.979874497825341
30
0
40
0.49999999999999956
100
AcDbArc
50
75.248505728571288
51
126.86011619418534
0
ARC
5
184
100
AcDbEntity
8
0
100
AcDbCircle
10
-4.5015815807855315
20
10.867779304461342
30
0
40
1.6500000000000208
100
AcDbArc
50
10.387542794082355
51
75.24850572857089
0
SPLINE
5
185
100
AcDbEntity
8
0
100
AcDbSpline
70
1064
71
3
72
12
73
8
74
0
42
0.000000001
43
0.0000000001
44
0.0000000001
40
0
40
0
40
0
40
0
40
0.029298335504020133
40
0.029298335504020133
40
0.053828535887923079
40
0.053828535887923079
40
0.078358736271825963
40
0.078358736271825963
40
0.078358736271825963
40
0.078358736271825963
10
-2.3962476388311984
20
10.59531295312652
30
0
10
-2.4880750101176194
20
10.628560929295912
30
0
10
-2.5725303926138201
20
10.679426964240923
30
0
10
-2.7054184656267593
20
10.799989519714979
30
0
10
-2.7565864692130009
20
10.864466529508261
30
0
10
-2.8360838624204812
20
11.007378224313406
30
0
10
-2.8638808492682326
20
11.084855814009204
30
0
10
-2.8786239325429577
20
11.16528303891017
30
0
0
SPLINE
5
186
100
AcDbEntity
8
0
100
AcDbSpline
70
1064
71
3
72
14
73
10
74
0
42
0.000000001
43
0.0000000001
44
0.0000000001
40
-0.59137148224186398
40
-0.59137148224186398
40
-0.59137148224186398
40
-0.59137148224186398
40
-0.5202135969680034
40
-0.5202135969680034
40
-0.5202135969680034
40
-0.41552960340578082
40
-0.41552960340578082
40
-0.41552960340578082
40
-0.41350534146755458
40
-0.41350534146755458
40
-0.41350534146755458
40
-0.41350534146755458
10
-2.3962476388312197
20
10.595312953126523
30
0
10
-2.2565433620728381
20
10.544730165017114
30
0
10
-2.0921182361286195
20
10.521752867254111
30
0
10
-1.9098904099201879
20
10.559690838038867
30
0
10
-1.6418057624880242
20
10.615503321421562
30
0
10
-1.4137881670350838
20
10.823798444985826
30
0
10
-1.312038646061727
20
11.020121882098088
30
0
10
-1.3100711276710888
20
11.023918165061747
30
0
10
-1.3081318159780038
20
11.02770780012429
30
0
10
-1.306220410166977
20
11.031490820013644
30
0
0
SPLINE
5
187
100
AcDbEntity
8
0
100
AcDbSpline
70
1064
71
3
72
12
73
8
74
0
42
0.000000001
43
0.0000000001
44
0.0000000001
40
0
40
0
40
0
40
0
40
0.029298335504019498
40
0.029298335504019498
40
0.054944151829284776
40
0.054944151829284776
40
0.080589968154550023
40
0.080589968154550023
40
0.080589968154550023
40
0.080589968154550023
10
-1.3582433284836501
20
11.795552311800295
30
0
10
-1.3027929355543157
20
11.715159849711386
30
0
10
-1.2635751141126852
20
11.624705288604833
30
0
10
-1.2246098152492568
20
11.445751125825552
30
0
10
-1.2208365836798678
20
11.359724188916619
30
0
10
-1.2424453764153949
20
11.190123121478837
30
0
10
-1.2676691970065279
20
11.10779068543328
30
0
10
-1.3062204101687853
20
11.031490820010077
30
0
0
ARC
5
188
100
AcDbEntity
8
0
100
AcDbCircle
10
-2.2204460492503131e-15
20
12.732395447351628
30
0
40
1.6499999999999972
100
AcDbArc
50
149.7514942714285
51
214.59582185787653
0
ARC
5
189
100
AcDbEntity
8
0
100
AcDbCircle
10
-0.99342593981104055
20
13.311709612645856
30
0
40
0.49999999999999911
100
AcDbArc
50
98.139883805814321
51
149.7514942714285
0
ARC
5
190
100
AcDbEntity
8
0
100
AcDbCircle
10
0
20
6.366197723675814
30
0
40
7.5161977236758135
100
AcDbArc
50
81.86011619418548
51
98.139883805814307
0
ARC
5
191
100
AcDbEntity
8
0
100
AcDbCircle
10
0.99342593981106653
20
13.311709612645853
30
0
40
0.50000000000000033
100
AcDbArc
50
30.248505728571288
51
81.860116194185323
0
ARC
5
192
100
AcDbEntity
8
0
100
AcDbCircle
10
-2.2204460492503131e-15
20
12.732395447351628
30
0
40
1.6500000000000199
100
AcDbArc
50
-34.612457205917771
51
30.248505728570809
0
SPLINE
5
193
100
AcDbEntity
8
0
100
AcDbSpline
70
1064
71
3
72
12
73
8
74
0
42
0.000000001
43
0.0000000001
44
0.0000000001
40
0
40
0
40
0
40
0
40
0.029298335504019529
40
0.029298335504019529
40
0.053828535887923579
40
0.053828535887923579
40
0.078358736271827406
40
0.078358736271827406
40
0.078358736271827406
40
0.078358736271827406
10
1.2960331023441052
20
11.051036735659491
30
0
10
1.254611214819048
20
11.139478362004757
30
0
10
1.2308599593899689
20
11.235165053917211
30
0
10
1.2221445023565856
20
11.414381712016359
30
0
10
1.2315553908964378
20
11.496155085187434
30
0
10
1.2763960735803561
20
11.653422059518682
30
0
10
1.3115255647476476
20
11.727862426479172
30
0
10
1.3579712667079815
20
11.795157996757819
30
0
0
SPLINE
5
194
100
AcDbEntity
8
0
100
AcDbSpline
70
1064
71
3
72
14
73
10
74
0
42
0.000000001
43
0.0000000001
44
0.0000000001
40
-0.59137148224186076
40
-0.59137148224186076
40
-0.59137148224186076
40
-0.59137148224186076
40
-0.5202135969680034
40
-0.5202135969680034
40
-0.5202135969680034
40
-0.41552960340578082
40
-0.41552960340578082
40
-0.41552960340578082
40
-0.41350534146755552
40
-0.41350534146755552
40
-0.41350534146755552
40
-0.41350534146755552
10
1.2960331023440974
20
11.051036735659503
30
0
10
1.3590515113172246
20
10.916483461719409
30
0
10
1.4590702298082712
20
10.783969937105248
30
0
10
1.6147509578474879
20
10.681941601878741
30
0
10
1.8437808154535418
20
10.53184251522222
30
0
10
2.152300497788548
20
10.517896621607978
30
0
10
2.3630699077392232
20
10.584770479033166
30
0
10
2.3671455307622575
20
10.586063610863942
30
0
10
2.3711965078622153
20
10.587371987065877
30
0
10
2.3752230748899188
20
10.588695418072426
30
0
0
SPLINE
5
195
100
AcDbEntity
8
0
100
AcDbSpline
70
1064
71
3
72
12
73
8
74
0
42
0.000000001
43
0.0000000001
44
0.0000000001
40
0
40
0
40
0
40
0
40
0.029298335504019665
40
0.029298335504019665
40
0.054944151829285026
40
0.054944151829285026
40
0.080589968154550565
40
0.080589968154550565
40
0.080589968154550565
40
0.080589968154550565
10
2.8787103786569377
20
11.165754238477103
30
0
10
2.8610736724173784
20
11.069698834517963
30
0
10
2.8248438263544235
20
10.978006613485524
30
0
10
2.7258567513889229
20
10.823914284405443
30
0
10
2.6676945985656104
20
10.760415976322726
30
0
10
2.5324888098073317
20
10.65576963531754
30
0
10
2.4564350513804851
20
10.615387746065538
30
0
10
2.3752230748861174
20
10.588695418071172
30
0
0
ARC
5
196
100
AcDbEntity
8
0
100
AcDbCircle
10
4.5015815807855297
20
10.867779304461347
30
0
40
1.6499999999999986
100
AcDbArc
50
104.75149427142851
51
169.59582185787667
0
ARC
5
197
100
AcDbEntity
8
0
100
AcDbCircle
10
4.2087603368554989
20
11.979874497825325
30
0
40
0.5
100
AcDbArc
50
53.139883805814321
51
104.75149427142857
0
ARC
5
198
100
AcDbEntity
8
0
100
AcDbCircle
10
0
20
6.366197723675814
30
0
40
7.5161977236758135
100
AcDbArc
50
36.860116194185522
51
53.139883805814293
0
ARC
5
199
100
AcDbEntity
8
0
100
AcDbCircle
10
5.6136767741495248
20
10.574958060531294
30
0
40
0.50000000000000033
100
AcDbArc
50
-14.751494271428589
51
36.860116194185615
0
ARC
5
200
100
AcDbEntity
8
0
100
AcDbCircle
10
4.5015815807855297
20
10.867779304461347
30
0
40
1.6500000000000212
100
AcDbArc
50
280.38754279408221
51
345.24850572857088
0
SPLINE
5
201
100
AcDbEntity
8
0
100
AcDbSpline
70
1064
71
3
72
12
73
8
74
0
42
0.000000001
43
0.0000000001
44
0.0000000001
40
0
40
0
40
0
40
0
40
0.029298335504019998
40
0.029298335504019998
40
0.053828535887923537
40
0.053828535887923537
40
0.078358736271826962
40
0.078358736271826962
40
0.078358736271826962
40
0.078358736271826962
10
4.2291152294506977
20
8.7624453625070071
30
0
10
4.2623632056200904
20
8.8542727337934277
30
0
10
4.3132292405651009
20
8.9387281162896297
30
0
10
4.4337917960391557
20
9.0716161893025706
30
0
10
4.4982688058324403
20
9.1227841928888136
30
0
10
4.6411805006375886
20
9.2022815860962943
30
0
10
4.7186580903333883
20
9.2300785729440467
30
0
10
4.7990853152343558
20
9.2448216562187717
30
0
0
SPLINE
5
202
100
AcDbEntity
8
0
100
AcDbSpline
70
1064
71
3
72
14
73
10
74
0
42
0.000000001
43
0.0000000001
44
0.0000000001
40
-0.59137148224186253
40
-0.59137148224186253
40
-0.59137148224186253
40
-0.59137148224186253
40
-0.5202135969680034
40
-0.5202135969680034
40
-0.5202135969680034
40
-0.41552960340578082
40
-0.41552960340578082
40
-0.41552960340578082
40
-0.41350534146755535
40
-0.41350534146755535
40
-0.41350534146755535
40
-0.41350534146755535
10
4.2291152294507048
20
8.7624453625070267
30
0
10
4.1785324413412965
20
8.6227410857486468
30
0
10
4.1555551435782965
20
8.4583159598044304
30
0
10
4.1934931143630516
20
8.2760881335960015
30
0
10
4.2493055977457477
20
8.0080034861638385
30
0
10
4.4576007213100128
20
7.7799858907108987
30
0
10
4.6539241584222752
20
7.6782363697375411
30
0
10
4.6577204413859334
20
7.6762688513469035
30
0
10
4.6615100764484731
20
7.6743295396538214
30
0
10
4.6652930963378294
20
7.672418133842795
30
0
0
SPLINE
5
203
100
AcDbEntity
8
0
100
AcDbSpline
70
1064
71
3
72
12
73
8
74
0
42
0.000000001
43
0.0000000001
44
0.0000000001
40
0
40
0
40
0
40
0
40
0.029298335504019488
40
0.029298335504019488
40
0.054944151829285047
40
0.054944151829285047
40
0.080589968154550606
40
0.080589968154550606
40
0.080589968154550606
40
0.080589968154550606
10
5.4293545881244825
20
7.7244410521594649
30
0
10
5.3489621260355724
20
7.6689906592301309
30
0
10
5.2585075649290216
20
7.6297728377885008
30
0
10
5.079553402149739
20
7.5908075389250715
30
0
10
4.9935264652408042
20
7.5870343073556823
30
0
10
4.8239253978030208
20
7.6086431000912107
30
0
10
4.741592961757461
20
7.633866920682344
30
0
10
4.6652930963342589
20
7.6724181338446016
30
0
0
ARC
5
204
100
AcDbEntity
8
0
100
AcDbCircle
10
6.3661977236758149
20
6.3661977236758123
30
0
40
1.6500000000000006
100
AcDbArc
50
59.751494271428555
51
124.59582185787643
0
ARC
5
205
100
AcDbEntity
8
0
100
AcDbCircle
10
6.9455118889700431
20
7.3596236634868548
30
0
40
0.50000000000000022
100
AcDbArc
50
8.1398838058142235
51
59.751494271428491
0
ARC
5
206
100
AcDbEntity
8
0
100
AcDbCircle
10
0
20
6.366197723675814
30
0
40
7.5161977236758135
100
AcDbArc
50
-8.1398838058145184
51
8.139883805814268
0
ARC
5
207
100
AcDbEntity
8
0
100
AcDbCircle
10
6.9455118889700396
20
5.3727717838647484
30
0
40
0.50000000000000022
100
AcDbArc
50
300.24850572857122
51
351.86011619418531
0
ARC
5
208
100
AcDbEntity
8
0
100
AcDbCircle
10
6.3661977236758149
20
6.3661977236758123
30
0
40
1.6500000000000179
100
AcDbArc
50
235.38754279408198
51
300.24850572857088
0
SPLINE
5
209
100
AcDbEntity
8
0
100
AcDbSpline
70
1064
71
3
72
12
73
8
74
0
42
0.000000001
43
0.0000000001
44
0.0000000001
40
0
40
0
40
0
40
0
40
0.029298335504019325
40
0.029298335504019325
40
0.053828535887923037
40
0.053828535887923037
40
0.078358736271826671
40
0.078358736271826671
40
0.078358736271826671
40
0.078358736271826671
10
4.6848390119836818
20
5.0701646213317142
30
0
10
4.7732806383289486
20
5.11158650885677
30
0
10
4.8689673302414036
20
5.1353377642858486
30
0
10
5.0481839883405488
20
5.14405322131923
30
0
10
5.1299573615116225
20
5.1346423327793769
30
0
10
5.2872243358428692
20
5.0898016500954588
30
0
10
5.3616647028033579
20
5.0546721589281676
30
0
10
5.4289602730820041
20
5.0082264569678339
30
0
0
SPLINE
5
210
100
AcDbEntity
8
0
100
AcDbSpline
70
1064
71
3
72
14
73
10
74
0
42
0.000000001
43
0.0000000001
44
0.0000000001
40
-0.59137148224186131
40
-0.59137148224186131
40
-0.59137148224186131
40
-0.59137148224186131
40
-0.5202135969680034
40
-0.5202135969680034
40
-0.5202135969680034
40
-0.41552960340578082
40
-0.41552960340578082
40
-0.41552960340578082
40
-0.41350534146755613
40
-0.41350534146755613
40
-0.41350534146755613
40
-0.41350534146755613
10
4.6848390119836933
20
5.0701646213317186
30
0
10
4.5502857380435975
20
5.0071462123585908
30
0
10
4.4177722134294326
20
4.9071274938675442
30
0
10
4.3157438782029285
20
4.7514467658283257
30
0
10
4.1656447915464065
20
4.5224169082222723
30
0
10
4.1516988979321638
20
4.2138972258872656
30
0
10
4.2185727553573518
20
4.0031278159365904
30
0
10
4.2198658871881278
20
3.9990521929135574
30
0
10
4.2211742633900577
20
3.995001215813601
30
0
10
4.2224976943966084
20
3.9909746487858988
30
0
0
SPLINE
5
211
100
AcDbEntity
8
0
100
AcDbSpline
70
1064
71
3
72
12
73
8
74
0
42
0.000000001
43
0.0000000001
44
0.0000000001
40
0
40
0
40
0
40
0
40
0.029298335504019498
40
0.029298335504019498
40
0.054944151829285234
40
0.054944151829285234
40
0.080589968154551037
40
0.080589968154551037
40
0.080589968154551037
40
0.080589968154551037
10
4.7995565148012922
20
3.4874873450188759
30
0
10
4.7035011108421507
20
3.5051240512584352
30
0
10
4.6118088898097156
20
3.5413538973213905
30
0
10
4.4577165607296312
20
3.6403409722868911
30
0
10
4.3942182526469145
20
3.6985031251102041
30
0
10
4.2895719116417261
20
3.8337089138684854
30
0
10
4.2491900223897261
20
3.9097626722953329
30
0
10
4.2224976943953596
20
3.990974648789702
30
0
0
ARC
5
212
100
AcDbEntity
8
0
100
AcDbCircle
10
4.5015815807855324
20
1.8646161428902854
30
0
40
1.6499999999999979
100
AcDbArc
50
14.751494271428454
51
79.595821857876516
0
ARC
5
213
100
AcDbEntity
8
0
100
AcDbCircle
10
5.6136767741495124
20
2.1574373868203152
30
0
40
0.5
100
AcDbArc
50
-36.860116194185686
51
14.751494271428555
0
ARC
5
214
100
AcDbEntity
8
0
100
AcDbCircle
10
0
20
6.366197723675814
30
0
40
7.5161977236758162
100
AcDbArc
50
306.86011619418554
51
323.13988380581429
0
ARC
5
215
100
AcDbEntity
8
0
100
AcDbCircle
10
4.2087603368554785
20
0.75252094952628845
30
0
40
0.50000000000000022
100
AcDbArc
50
255.2485057285713
51
306.86011619418571
0
ARC
5
216
100
AcDbEntity
8
0
100
AcDbCircle
10
4.5015815807855324
20
1.8646161428902854
30
0
40
1.6500000000000206
100
AcDbArc
50
190.38754279408215
51
255.24850572857085
0
SPLINE
5
217
100
AcDbEntity
8
0
100
AcDbSpline
70
1064
71
3
72
12
73
8
74
0
42
0.000000001
43
0.0000000001
44
0.0000000001
40
0
40
0
40
0
40
0
40
0.029298335504019588
40
0.029298335504019588
40
0.053828535887923357
40
0.053828535887923357
40
0.078358736271827129
40
0.078358736271827129
40
0.078358736271827129
40
0.078358736271827129
10
2.3962476388311909
20
2.1370824942251159
30
0
10
2.4880750101176101
20
2.1038345180557245
30
0
10
2.5725303926138117
20
2.0529684831107149
30
0
10
2.705418465626753
20
1.9324059276366619
30
0
10
2.756586469212996
20
1.8679289178433769
30
0
10
2.8360838624204798
20
1.7250172230382275
30
0
10
2.8638808492682322
20
1.6475396333424261
30
0
10
2.8786239325429577
20
1.567112408441458
30
0
0
SPLINE
5
218
100
AcDbEntity
8
0
100
AcDbSpline
70
1064
71
3
72
14
73
10
74
0
42
0.000000001
43
0.0000000001
44
0.0000000001
40
-0.59137148224186142
40
-0.59137148224186142
40
-0.59137148224186142
40
-0.59137148224186142
40
-0.5202135969680034
40
-0.5202135969680034
40
-0.5202135969680034
40
-0.41552960340578082
40
-0.41552960340578082
40
-0.41552960340578082
40
-0.41350534146755602
40
-0.41350534146755602
40
-0.41350534146755602
40
-0.41350534146755602
10
2.396247638831206
20
2.137082494225111
30
0
10
2.256543362072827
20
2.1876652823345188
30
0
10
2.0921182361286137
20
2.2106425800975167
30
0
10
1.9098904099201885
20
2.1727046093127624
30
0
10
1.6418057624880247
20
2.1168921259300659
30
0
10
1.4137881670350843
20
1.9085970023658012
30
0
10
1.3120386460617275
20
1.7122735652535388
30
0
10
1.3100711276710908
20
1.7084772822898819
30
0
10
1.3081318159780075
20
1.7046876472273436
30
0
10
1.3062204101669816
20
1.7009046273379889
30
0
0
SPLINE
5
219
100
AcDbEntity
8
0
100
AcDbSpline
70
1064
71
3
72
12
73
8
74
0
42
0.000000001
43
0.0000000001
44
0.0000000001
40
0
40
0
40
0
40
0
40
0.029298335504019567
40
0.029298335504019567
40
0.054944151829285276
40
0.054944151829285276
40
0.080589968154550995
40
0.080589968154550995
40
0.080589968154550995
40
0.080589968154550995
10
1.3582433284836504
20
0.93684313555133392
30
0
10
1.3027929355543157
20
1.0172355976402434
30
0
10
1.263575114112685
20
1.1076901587467949
30
0
10
1.2246098152492555
20
1.2866443215260781
30
0
10
1.2208365836798665
20
1.3726712584350125
30
0
10
1.2424453764153942
20
1.5422723258727973
30
0
10
1.2676691970065279
20
1.6246047619183577
30
0
10
1.3062204101687862
20
1.7009046273415604
30
0
0
ARC
5
220
100
AcDbEntity
8
0
100
AcDbCircle
10
1.3877787807814457e-15
20
2.7755575615628914e-16
30
0
40
1.649999999999999
100
AcDbArc
50
-30.248505728571512
51
34.595821857876523
0
ARC
5
221
100
AcDbEntity
8
0
100
AcDbCircle
10
0.99342593981104133
20
-0.57931416529422919
30
0
40
0.5
100
AcDbArc
50
278.13988380581429
51
329.7514942714285
0
ARC
5
222
100
AcDbEntity
8
0
100
AcDbCircle
10
0
20
6.366197723675814
30
0
40
7.5161977236758135
100
AcDbArc
50
261.86011619418565
51
278.13988380581429
0
ARC
5
223
100
AcDbEntity
8
0
100
AcDbCircle
10
-0.9934259398110411
20
-0.57931416529422997
30
0
40
0.49999999999999989
100
AcDbArc
50
210.2485057285715
51
261.86011619418548
0
ARC
5
224
100
AcDbEntity
8
0
100
AcDbCircle
10
1.3877787807814457e-15
20
2.7755575615628914e-16
30
0
40
1.6500000000000203
100
AcDbArc
50
145.38754279408229
51
210.2485057285715
0
SPLINE
5
225
100
AcDbEntity
8
0
100
AcDbSpline
70
1064
71
3
72
12
73
8
74
0
42
0.000000001
43
0.0000000001
44
0.0000000001
40
0
40
0
40
0
40
0
40
0.02929833550401964
40
0.02929833550401964
40
0.053828535887919457
40
0.053828535887919457
40
0.078358736271819274
40
0.078358736271819274
40
0.078358736271819274
40
0.078358736271819274
10
-1.296033102344063
20
1.6813587116920525
30
0
10
-1.2546112148190147
20
1.5929170853467809
30
0
10
-1.2308599593899454
20
1.497230393434323
30
0
10
-1.2221445023565809
20
1.3180137353351882
30
0
10
-1.2315553908964376
20
1.2362403621641291
30
0
10
-1.2763960735803552
20
1.078973387832908
30
0
10
-1.311525564747642
20
1.0045330208724312
30
0
10
-1.3579712667079678
20
0.93723745059379548
30
0
0
SPLINE
5
226
100
AcDbEntity
8
0
100
AcDbSpline
70
1064
71
3
72
14
73
10
74
0
42
0.000000001
43
0.0000000001
44
0.0000000001
40
-0.59137148224187608
40
-0.59137148224187608
40
-0.59137148224187608
40
-0.59137148224187608
40
-0.5202135969680034
40
-0.5202135969680034
40
-0.5202135969680034
40
-0.41552960340578082
40
-0.41552960340578082
40
-0.41552960340578082
40
-0.41350534146755624
40
-0.41350534146755624
40
-0.41350534146755624
40
-0.41350534146755624
10
-1.2960331023440572
20
1.6813587116920385
30
0
10
-1.3590515113171822
20
1.8159119856321635
30
0
10
-1.4590702298082381
20
1.948425510246361
30
0
10
-1.6147509578474883
20
2.050453845472886
30
0
10
-1.8437808154535422
20
2.2005529321294075
30
0
10
-2.1523004977885485
20
2.2144988257436511
30
0
10
-2.3630699077392237
20
2.1476249683184632
30
0
10
-2.3671455307622566
20
2.1463318364876871
30
0
10
-2.371196507862213
20
2.1450234602857572
30
0
10
-2.3752230748899148
20
2.1437000292792066
30
0
0
SPLINE
5
227
100
AcDbEntity
8
0
100
AcDbSpline
70
1064
71
3
72
12
73
8
74
0
42
0.000000001
43
0.0000000001
44
0.0000000001
40
0
40
0
40
0
40
0
40
0.029298335504019574
40
0.029298335504019574
40
0.054944151829285387
40
0.054944151829285387
40
0.080589968154551189
40
0.080589968154551189
40
0.080589968154551189
40
0.080589968154551189
10
-2.878710378656939
20
1.5666412088745227
30
0
10
-2.8610736724173798
20
1.6626966128336642
30
0
10
-2.8248438263544244
20
1.7543888338661002
30
0
10
-2.7258567513889229
20
1.9084811629461842
30
0
10
-2.6676945985656104
20
1.9719794710289016
30
0
10
-2.532488809807329
20
2.0766258120340901
30
0
10
-2.4564350513804816
20
2.1170077012860897
30
0
10
-2.3752230748861125
20
2.1437000292804562
30
0
0
ARC
5
228
100
AcDbEntity
8
0
100
AcDbCircle
10
-4.5015815807855475
20
1.8646161428903008
30
0
40
1.6500000000000206
100
AcDbArc
50
284.75149427142895
51
349.59582185787599
0
ARC
5
229
100
AcDbEntity
8
0
100
AcDbCircle
10
-4.208760336855498
20
0.75252094952630477
30
0
40
0.49999999999999994
100
AcDbArc
50
233.13988380581421
51
284.7514942714285
0
ARC
5
230
100
AcDbEntity
8
0
100
AcDbCircle
10
0
20
6.366197723675814
30
0
40
7.5161977236758117
100
AcDbArc
50
216.86011619418551
51
233.13988380581426
0
LWPOLYLINE
5
231
100
AcDbEntity
8
0
100
AcDbPolyline
90
2
70
1
43
0.0
10
14.886792452830186
20
4.5267928018714461
42
-0.59083915670079734
10
14.886792452830191
20
8.2056026454801909
42
-0.061545745489666327
0
LWPOLYLINE
5
232
100
AcDbEntity
8
0
100
AcDbPolyline
90
2
70
1
43
0.0
10
-5.8504248362863702
20
-7.4458451822437759
42
-0.061545745489665439
10
-9.0363676165438118
20
-5.6064402604393884
42
-0.59083915670079767
0
LWPOLYLINE
5
233
100
AcDbEntity
8
0
100
AcDbPolyline
90
2
70
1
43
0.0
10
-9.0363676165438083
20
18.338835707791027
42
-0.06154574548966666
10
-5.8504248362863809
20
20.178240629595393
42
-0.59083915670079612
0
ENDSEC
0
SECTION
2
OBJECTS
0
DICTIONARY
5
C
100
AcDbDictionary
3
ACAD_GROUP
350
D
3
ACAD_MLINESTYLE
350
17
0
DICTIONARY
5
D
100
AcDbDictionary
0
DICTIONARY
5
1A
330
C
100
AcDbDictionary
0
DICTIONARY
5
17
100
AcDbDictionary
0
ENDSEC
0
EOF
