0
SECTION
2
HEADER
9
$INSUNITS
70
4
9
$ACADVER
1
AC1014
9
$HANDSEED
5
FFFF
0
ENDSEC
0
SECTION
2
TABLES
0
TABLE
2
VPORT
5
8
100
AcDbSymbolTable
0
ENDTAB
0
TABLE
2
LTYPE
5
5
100
AcDbSymbolTable
0
LTYPE
5
14
100
AcDbSymbolTableRecord
100
AcDbLinetypeTableRecord
2
BYBLOCK
70
0
0
LTYPE
5
15
100
AcDbSymbolTableRecord
100
AcDbLinetypeTableRecord
2
BYLAYER
70
0
0
ENDTAB
0
TABLE
2
LAYER
5
2
100
AcDbSymbolTable
70
2
0
LAYER
5
50
100
AcDbSymbolTableRecord
100
AcDbLayerTableRecord
2
0
70
0
6
CONTINUOUS
0
ENDTAB
0
TABLE
2
STYLE
5
3
100
AcDbSymbolTable
70
1
0
STYLE
5
11
100
AcDbSymbolTableRecord
100
AcDbTextStyleTableRecord
2
STANDARD
70
0
0
ENDTAB
0
TABLE
2
VIEW
5
6
100
AcDbSymbolTable
70
0
0
ENDTAB
0
TABLE
2
UCS
5
7
100
AcDbSymbolTable
70
0
0
ENDTAB
0
TABLE
2
APPID
5
9
100
AcDbSymbolTable
70
2
0
APPID
5
12
100
AcDbSymbolTableRecord
100
AcDbRegAppTableRecord
2
ACAD
70
0
0
ENDTAB
0
TABLE
2
DIMSTYLE
5
A
100
AcDbSymbolTable
70
1
0
ENDTAB
0
TABLE
2
BLOCK_RECORD
5
1
100
AcDbSymbolTable
70
1
0
BLOCK_RECORD
5
1F
100
AcDbSymbolTableRecord
100
AcDbBlockTableRecord
2
*MODEL_SPACE
0
BLOCK_RECORD
5
1B
100
AcDbSymbolTableRecord
100
AcDbBlockTableRecord
2
*PAPER_SPACE
0
ENDTAB
0
ENDSEC
0
SECTION
2
BLOCKS
0
BLOCK
5
20
100
AcDbEntity
100
AcDbBlockBegin
2
*MODEL_SPACE
0
ENDBLK
5
21
100
AcDbEntity
100
AcDbBlockEnd
0
BLOCK
5
1C
100
AcDbEntity
100
AcDbBlockBegin
2
*PAPER_SPACE
0
ENDBLK
5
1D
100
AcDbEntity
100
AcDbBlockEnd
0
ENDSEC
0
SECTION
2
ENTITIES
0
LWPOLYLINE
5
100
100
AcDbEntity
8
0
100
AcDbPolyline
90
4
70
1
43
0.0
10
955.02157123664233
20
-156.61694007442887
10
955.02157123664233
20
-164.61694007442884
10
971.02157123664244
20
-164.61694007442884
10
971.02157123664244
20
-156.6169400744289
0
LWPOLYLINE
5
101
100
AcDbEntity
8
0
100
AcDbPolyline
90
4
70
1
43
0.0
10
955.02157123664244
20
418.38305992556968
10
955.02157123664244
20
410.38305992556968
10
971.02157123664256
20
410.38305992556968
10
971.02157123664256
20
418.38305992556963
0
LWPOLYLINE
5
102
100
AcDbEntity
8
0
100
AcDbPolyline
90
16
70
1
43
0.0
10
1060.107357674269
20
-169.5469342821778
42
-0.19891236737966447
10
1058.6931441118959
20
-170.13272071980475
10
867.34999836138854
20
-170.13272071980478
42
-0.1989123673796678
10
865.93578479901544
20
-169.5469342821778
10
862.10735767426922
20
-165.71850715743167
42
-0.1989123673796678
10
861.52157123664222
20
-164.30429359505851
10
861.52157123664256
20
424.03907070746538
42
-0.19891236737965523
10
862.10735767426945
20
425.45328426983843
10
865.93578479901555
20
429.28171139458459
42
-0.19891236737965154
10
867.34999836138854
20
429.86749783221143
10
1058.6931441118961
20
429.86749783221148
42
-0.19891236737966458
10
1060.1073576742692
20
429.28171139458459
10
1063.9357847990152
20
425.45328426983838
42
-0.19891236737964876
10
1064.5215712366421
20
424.03907070746527
10
1064.5215712366419
20
-164.3042935950586
42
-0.19891236737964693
10
1063.935784799015
20
-165.71850715743165
0
LWPOLYLINE
5
103
100
AcDbEntity
8
0
100
AcDbPolyline
90
4
70
1
43
0.0
10
955.02157123664233
20
128.38305992557039
10
971.02157123664233
20
128.38305992557039
10
971.0215712366421
20
120.38305992557045
10
955.02157123664222
20
120.38305992557045
0
LWPOLYLINE
5
104
100
AcDbEntity
8
0
100
AcDbPolyline
90
4
70
1
43
0.0
10
955.02157123664222
20
-23.617382142834291
10
971.0215712366421
20
-23.617382142834291
10
971.0215712366421
20
-31.617382142834245
10
955.02157123664222
20
-31.617382142834245
0
LINE
5
105
100
AcDbEntity
8
0
100
AcDbLine
10
882.82396220047178
20
379.86749743898974
30
0
11
874.82396220047178
21
379.86749743898974
31
5.1761429527381033e-16
0
LINE
5
106
100
AcDbEntity
8
0
100
AcDbLine
10
874.82396220047178
20
379.86749743898974
30
5.1761429527381033e-16
11
874.82396220047178
21
363.86749743898986
31
9.0648622362368084e-15
0
LINE
5
107
100
AcDbEntity
8
0
100
AcDbLine
10
874.82396220047178
20
363.86749743898986
30
9.0648622362368084e-15
11
882.82396220047178
21
363.86749743898974
31
-5.1761429527381033e-16
0
LINE
5
108
100
AcDbEntity
8
0
100
AcDbLine
10
882.82397233210202
20
363.86749743898974
30
3.5527136788005009e-14
11
882.82397233210202
21
379.86749743898974
31
2.6462274551768119e-14
0
LWPOLYLINE
5
109
100
AcDbEntity
8
0
100
AcDbPolyline
90
4
70
1
43
0.0
10
874.8239622004719
20
258.86749743899009
10
882.82397203465825
20
258.86749743899009
10
882.82397203465825
20
242.86749743899014
10
874.82396220047178
20
242.8674974389902
0
LINE
5
110
100
AcDbEntity
8
0
100
AcDbLine
10
882.82397233210168
20
16.867277418930726
30
0
11
874.82396220047178
21
16.867277418930708
31
5.1761495080837224e-16
0
LINE
5
111
100
AcDbEntity
8
0
100
AcDbLine
10
874.82396220047178
20
16.867277418930708
30
5.1761495080837224e-16
11
874.82396220047167
21
0.86727741893077193
31
9.06486223623684e-15
0
LINE
5
112
100
AcDbEntity
8
0
100
AcDbLine
10
874.82396220047167
20
0.86727741893077193
30
9.06486223623684e-15
11
882.82396220047178
21
0.86727741893076482
31
-5.1761429527379652e-16
0
LINE
5
113
100
AcDbEntity
8
0
100
AcDbLine
10
882.82397233210168
20
0.8672774189307475
30
0
11
882.82397233210168
21
16.867277418930726
31
0
0
LINE
5
114
100
AcDbEntity
8
0
100
AcDbLine
10
1051.2191802728128
20
-104.13272258106895
30
3.5527136788005009e-14
11
1043.2191802728128
21
-104.13272258106895
31
3.6044751083278821e-14
0
LINE
5
115
100
AcDbEntity
8
0
100
AcDbLine
10
1043.2191802728128
20
-104.13272258106895
30
3.6044751083278821e-14
11
1043.2191802728128
21
-120.13272258106892
31
4.4591999024241849e-14
0
LINE
5
116
100
AcDbEntity
8
0
100
AcDbLine
10
1043.2191802728128
20
-120.13272258106892
30
4.4591999024241849e-14
11
1051.2191802728128
21
-120.13272258106889
31
-5.1761429527381033e-16
0
LINE
5
117
100
AcDbEntity
8
0
100
AcDbLine
10
1051.2191904044425
20
-120.13272258106889
30
3.5527136788005009e-14
11
1051.2191904044425
21
-104.13272258106893
31
2.6462274551768169e-14
0
CIRCLE
5
118
100
AcDbEntity
8
0
100
AcDbCircle
10
979.52157123664392
20
141.38305992557068
30
0
40
2.7499999999999987
0
LWPOLYLINE
5
119
100
AcDbEntity
8
0
100
AcDbPolyline
90
4
70
1
43
0.0
10
956.02157123664244
20
162.56956508834082
42
-0.99999999999999989
10
956.02157123664188
20
201.19655476279857
10
970.0215712366421
20
201.19655476279866
42
-0.99999999999999989
10
970.02157123664233
20
162.56956508834099
0
CIRCLE
5
120
100
AcDbEntity
8
0
100
AcDbCircle
10
946.52157123664028
20
222.38305992556883
30
0
40
2.7499999999999987
0
CIRCLE
5
121
100
AcDbEntity
8
0
100
AcDbCircle
10
979.52157123664028
20
222.38305992557036
30
0
40
2.7499999999999942
0
CIRCLE
5
122
100
AcDbEntity
8
0
100
AcDbCircle
10
946.52157123664415
20
141.38305992556911
30
0
40
2.7499999999999898
0
LINE
5
123
100
AcDbEntity
8
0
100
AcDbLine
10
1051.2191904044428
20
16.867277418930762
30
3.5527136788005009e-14
11
1043.2191802728128
21
16.867277418930762
31
3.6044751738813373e-14
0
LINE
5
124
100
AcDbEntity
8
0
100
AcDbLine
10
1043.2191802728128
20
16.867277418930762
30
3.6044751738813373e-14
11
1043.2191802728128
21
0.86727741893078969
31
4.4591999024241856e-14
0
LINE
5
125
100
AcDbEntity
8
0
100
AcDbLine
10
1043.2191802728128
20
0.86727741893078969
30
4.4591999024241856e-14
11
1051.2191802728128
21
0.86727741893080035
31
-5.1761429527380648e-16
0
LINE
5
126
100
AcDbEntity
8
0
100
AcDbLine
10
1051.2191904044428
20
0.86727741893078303
30
3.5527136788005009e-14
11
1051.2191904044428
21
16.867277418930762
31
3.5527136788005009e-14
0
LWPOLYLINE
5
127
100
AcDbEntity
8
0
100
AcDbPolyline
90
4
70
1
43
0.0
10
1043.2191802728128
20
258.86749743899009
10
1051.2191901069991
20
258.86749743899009
10
1051.2191901069993
20
242.86749743899023
10
1043.2191802728128
20
242.86749743899026
0
LINE
5
128
100
AcDbEntity
8
0
100
AcDbLine
10
1051.2191802728128
20
379.86749743898974
30
3.5527136788005009e-14
11
1043.2191802728128
21
379.86749743898974
31
3.6044751083278821e-14
0
LINE
5
129
100
AcDbEntity
8
0
100
AcDbLine
10
1043.2191802728128
20
379.86749743898974
30
3.6044751083278821e-14
11
1043.2191802728128
21
363.86749743898986
31
4.4591999024241856e-14
0
LINE
5
130
100
AcDbEntity
8
0
100
AcDbLine
10
1043.2191802728128
20
363.86749743898986
30
4.4591999024241856e-14
11
1051.2191802728128
21
363.86749743898974
31
-5.1761429527381033e-16
0
LINE
5
131
100
AcDbEntity
8
0
100
AcDbLine
10
1051.219190404443
20
363.8674974389898
30
3.5527136788005009e-14
11
1051.219190404443
21
379.86749743898969
31
2.6462274551768201e-14
0
LINE
5
132
100
AcDbEntity
8
0
100
AcDbLine
10
882.82396220047178
20
-104.13272258106898
30
0
11
874.82396220047178
21
-104.13272258106898
31
5.1761429527381151e-16
0
LINE
5
133
100
AcDbEntity
8
0
100
AcDbLine
10
874.82396220047178
20
-104.13272258106898
30
5.1761429527381151e-16
11
874.82396220047167
21
-120.13272258106893
31
9.06486223623684e-15
0
LINE
5
134
100
AcDbEntity
8
0
100
AcDbLine
10
874.82396220047167
20
-120.13272258106893
30
9.06486223623684e-15
11
882.82396220047178
21
-120.13272258106893
31
-5.1761429527381151e-16
0
LINE
5
135
100
AcDbEntity
8
0
100
AcDbLine
10
882.82397233210145
20
-120.13272258106893
30
0
11
882.82397233210145
21
-104.13272258106898
31
-9.0648622362368415e-15
0
LINE
5
136
100
AcDbEntity
8
0
100
AcDbLine
10
721.50222572097505
20
-372.53374898140589
30
-7.1054273576010019e-14
11
721.50222572097505
21
-410.53335837614219
31
-5.5326302739438788e-14
0
LINE
5
137
100
AcDbEntity
8
0
100
AcDbLine
10
721.50222572097505
20
-410.53335837614219
30
-5.5326302739438788e-14
11
673.50222572097482
21
-410.53335837089548
31
-6.4667552489289982e-14
0
LINE
5
138
100
AcDbEntity
8
0
100
AcDbLine
10
673.50222572097482
20
-410.53335837089548
30
-6.4667552489289982e-14
11
673.50222572097459
21
-372.53374898140584
31
-8.6782244410409629e-14
0
LINE
5
139
100
AcDbEntity
8
0
100
AcDbLine
10
673.50222572097459
20
-372.53374898140584
30
-8.6782244410409629e-14
11
634.00222572097437
21
-372.53374901520777
31
-6.5798534332618991e-14
0
LINE
5
140
100
AcDbEntity
8
0
100
AcDbLine
10
634.00222572097437
20
-372.53374901520777
30
-6.5798534332618991e-14
11
634.00222572097448
21
-347.53374920732307
31
-8.1401729059639547e-14
0
LINE
5
141
100
AcDbEntity
8
0
100
AcDbLine
10
629.00222572097448
20
-342.53374920732307
30
-7.1054273576010019e-14
11
634.00222572097448
21
-347.53374920732307
31
-8.1401729059639547e-14
0
LINE
5
142
100
AcDbEntity
8
0
100
AcDbLine
10
629.00222572097448
20
-342.53374920732307
30
-7.1054273576010019e-14
11
587.00222410357765
21
-342.53374920732301
31
5.588381167985624e-15
0
ARC
5
143
100
AcDbEntity
8
0
100
AcDbCircle
10
587.00222410357765
20
-341.53374920732301
30
-7.1054273576010019e-14
40
1.0000000000000142
100
AcDbArc
50
180
51
270
0
LINE
5
144
100
AcDbEntity
8
0
100
AcDbLine
10
586.00222410357765
20
-341.53374920732301
30
-7.1054273576010019e-14
11
586.00222410357765
21
-332.53374804892735
31
-7.4779358070377525e-14
0
ARC
5
145
100
AcDbEntity
8
0
100
AcDbCircle
10
587.00222410357765
20
-332.53374804892735
30
-7.1054273576010019e-14
40
0.99999999999994316
100
AcDbArc
50
90
51
180
0
LINE
5
146
100
AcDbEntity
8
0
100
AcDbLine
10
587.00222410357765
20
-331.53374804892741
30
-7.1054273576010019e-14
11
591.59806273742925
21
-331.53374804892735
31
-6.1150707341590112e-16
0
ARC
5
147
100
AcDbEntity
8
0
100
AcDbCircle
10
592.80014426544483
20
-330.33166652090864
30
-3.5527136788005009e-14
40
1.6999999999999917
100
AcDbArc
50
-134.99999999992551
51
44.99999999998645
0
LINE
5
148
100
AcDbEntity
8
0
100
AcDbLine
10
594.00222579346234
20
-90.937913421753677
30
-3.5527136788005009e-14
11
594.00222579346223
21
-329.12958499289181
31
-3.5527136788005009e-14
0
ARC
5
149
100
AcDbEntity
8
0
100
AcDbCircle
10
592.80014426544494
20
-89.735831893736872
30
-3.5527136788005009e-14
40
1.6999999999999917
100
AcDbArc
50
-44.999999999985803
51
135.0000000000166
0
LINE
5
150
100
AcDbEntity
8
0
100
AcDbLine
10
587.00222410357776
20
-88.533750365718063
30
-3.5527136788005009e-14
11
591.59806273742743
21
-88.533750365720053
31
-3.5527136788005009e-14
0
ARC
5
151
100
AcDbEntity
8
0
100
AcDbCircle
10
587.00222410357776
20
-87.533750365718035
30
-3.5527136788005009e-14
40
1.0000000000000142
100
AcDbArc
50
180
51
270
0
LINE
5
152
100
AcDbEntity
8
0
100
AcDbLine
10
586.00222410357776
20
-78.53374920732243
30
-3.5527136788005009e-14
11
586.00222410357776
21
-87.533750365718092
31
-3.5527136788005009e-14
0
ARC
5
153
100
AcDbEntity
8
0
100
AcDbCircle
10
587.00222410357765
20
-78.533749207322373
30
-3.5527136788005009e-14
40
0.99999999999994316
100
AcDbArc
50
89.999999999993491
51
180
0
LINE
5
154
100
AcDbEntity
8
0
100
AcDbLine
10
629.00222572097459
20
-77.533749207322529
30
-3.5527136788005009e-14
11
587.00222410357776
21
-77.53374920732243
31
-3.5527136788005009e-14
0
LINE
5
155
100
AcDbEntity
8
0
100
AcDbLine
10
629.00222572097459
20
-77.533749207322529
30
-3.5527136788005009e-14
11
634.00222572097459
21
-72.533749207322529
31
-3.8261911354158784e-14
0
LINE
5
156
100
AcDbEntity
8
0
100
AcDbLine
10
634.00222572097459
20
-47.533749481161806
30
-7.1054273576010019e-14
11
634.00222572097459
21
-72.533749207322529
31
-3.8261911354158784e-14
0
LINE
5
157
100
AcDbEntity
8
0
100
AcDbLine
10
673.50222572097482
20
-47.533749433239919
30
-7.1054273576010019e-14
11
634.00222572097459
21
-47.533749481161806
31
-7.1054273576010019e-14
0
LINE
5
158
100
AcDbEntity
8
0
100
AcDbLine
10
673.50222572097482
20
-9.5341400437503054
30
-7.1054273576010019e-14
11
673.50222572097482
21
-47.533749433239919
31
-7.1054273576010019e-14
0
LINE
5
159
100
AcDbEntity
8
0
100
AcDbLine
10
721.50222572097516
20
-9.5341400385036934
30
0
11
673.50222572097482
21
-9.5341400437503054
31
-7.1054273576010019e-14
0
LINE
5
160
100
AcDbEntity
8
0
100
AcDbLine
10
721.50222572097516
20
-47.533749433239961
30
-7.1054273576010019e-14
11
721.50222572097516
21
-9.5341400385036934
31
0
0
LINE
5
161
100
AcDbEntity
8
0
100
AcDbLine
10
761.00222572097539
20
-47.533749508118092
30
-7.1054273576010019e-14
11
721.50222572097516
21
-47.533749433239961
31
-7.1054273576010019e-14
0
LINE
5
162
100
AcDbEntity
8
0
100
AcDbLine
10
761.00222572097539
20
-47.533749508118092
30
-7.1054273576010019e-14
11
761.00222572097539
21
-72.5337492073227
31
-6.0706818069712124e-14
0
LINE
5
163
100
AcDbEntity
8
0
100
AcDbLine
10
761.00222572097539
20
-72.5337492073227
30
-6.0706818069712124e-14
11
766.00222572097539
21
-77.533749207322714
31
-6.9650065903375343e-14
0
LINE
5
164
100
AcDbEntity
8
0
100
AcDbLine
10
766.00222572097539
20
-77.533749207322714
30
-6.9650065903375343e-14
11
808.00222733837222
21
-77.533749207322813
31
-7.6642654743995651e-14
0
ARC
5
165
100
AcDbEntity
8
0
100
AcDbCircle
10
808.00222733837222
20
-78.533749207322742
30
-7.1054273576010019e-14
40
0.99999999999994316
100
AcDbArc
50
0
51
90
0
LINE
5
166
100
AcDbEntity
8
0
100
AcDbLine
10
809.00222733837211
20
-78.533749207322799
30
-7.1054273576010019e-14
11
809.00222733837211
21
-87.533750365718447
31
-6.7329189081642499e-14
0
ARC
5
167
100
AcDbEntity
8
0
100
AcDbCircle
10
808.00222733837222
20
-87.533750365718475
30
-7.1054273576010019e-14
40
0.99999999999997868
100
AcDbArc
50
-90
51
0
0
LINE
5
168
100
AcDbEntity
8
0
100
AcDbLine
10
808.00222733837222
20
-88.533750365718461
30
-7.1054273576010019e-14
11
803.40638870451994
21
-88.533750365718419
31
-7.0442766502594057e-14
0
ARC
5
169
100
AcDbEntity
8
0
100
AcDbCircle
10
802.20430717650424
20
-89.735831893737014
30
-3.5527136788005009e-14
40
1.700000000000004
100
AcDbArc
50
45.000000000069093
51
225.00000000007211
0
LINE
5
170
100
AcDbEntity
8
0
100
AcDbLine
10
801.00222564848741
20
-329.12958499289164
30
-7.1054273576010019e-14
11
801.00222564848866
21
-90.937913421755624
31
-3.5527136788005009e-14
0
ARC
5
171
100
AcDbEntity
8
0
100
AcDbCircle
10
802.20430717650424
20
-330.33166652090904
30
-3.5527136788005009e-14
40
1.7000000000000921
100
AcDbArc
50
134.99999999998647
51
314.99999999992957
0
LINE
5
172
100
AcDbEntity
8
0
100
AcDbLine
10
808.00222733837222
20
-331.53374804892769
30
-3.5527136788005009e-14
11
803.40638870451994
21
-331.53374804892769
31
-3.5527136788005009e-14
0
ARC
5
173
100
AcDbEntity
8
0
100
AcDbCircle
10
808.00222733837199
20
-332.53374804892769
30
-3.5527136788005009e-14
40
0.99999999999994316
100
AcDbArc
50
0
51
89.999999999986969
0
LINE
5
174
100
AcDbEntity
8
0
100
AcDbLine
10
809.00222733837211
20
-341.53374920732335
30
-3.5527136788005009e-14
11
809.00222733837199
21
-332.53374804892769
31
-3.5527136788005009e-14
0
ARC
5
175
100
AcDbEntity
8
0
100
AcDbCircle
10
808.00222733837199
20
-341.53374920732335
30
-3.5527136788005009e-14
40
0.99999999999994316
100
AcDbArc
50
-90
51
0
0
LINE
5
176
100
AcDbEntity
8
0
100
AcDbLine
10
766.00222572097528
20
-342.53374920732324
30
-3.5527136788005009e-14
11
808.00222733837199
21
-342.53374920732324
31
-3.5527136788005009e-14
0
LINE
5
177
100
AcDbEntity
8
0
100
AcDbLine
10
761.00222572097528
20
-347.53374920732324
30
-7.1054273576010019e-14
11
766.00222572097528
21
-342.53374920732324
31
-3.5527136788005009e-14
0
LINE
5
178
100
AcDbEntity
8
0
100
AcDbLine
10
761.00222572097528
20
-372.53374898825194
30
0
11
761.00222572097528
21
-347.53374920732324
31
-7.1054273576010019e-14
0
LINE
5
179
100
AcDbEntity
8
0
100
AcDbLine
10
761.00222572097528
20
-372.53374898825194
30
0
11
721.50222572097505
21
-372.53374898140589
31
-7.1054273576010019e-14
0
CIRCLE
5
180
100
AcDbEntity
8
0
100
AcDbCircle
10
722.50222572097471
20
-309.83614017115138
30
-3.5527136788005009e-14
40
3.0000000000000044
0
CIRCLE
5
181
100
AcDbEntity
8
0
100
AcDbCircle
10
722.50222572097471
20
-209.83614017115138
30
-3.5527136788005009e-14
40
3.0000000000000044
0
CIRCLE
5
182
100
AcDbEntity
8
0
100
AcDbCircle
10
722.50222572097471
20
-359.83614017115144
30
0
40
2.7500000000000089
0
CIRCLE
5
183
100
AcDbEntity
8
0
100
AcDbCircle
10
722.50222572097471
20
-259.83614017115138
30
-3.5527136788005009e-14
40
2.7500000000000089
0
CIRCLE
5
184
100
AcDbEntity
8
0
100
AcDbCircle
10
722.50222572097471
20
-159.83614017115133
30
-3.5527136788005009e-14
40
2.7500000000000089
0
CIRCLE
5
185
100
AcDbEntity
8
0
100
AcDbCircle
10
722.50222572097471
20
-59.836140171151285
30
-3.5527136788005009e-14
40
2.7500000000000089
0
CIRCLE
5
186
100
AcDbEntity
8
0
100
AcDbCircle
10
722.50222572097471
20
-109.83614017115133
30
-3.5527136788005009e-14
40
3.0000000000000044
0
CIRCLE
5
187
100
AcDbEntity
8
0
100
AcDbCircle
10
713.50222572097493
20
-395.53335837089548
30
-7.1054273576010019e-14
40
3.0000000000000133
0
CIRCLE
5
188
100
AcDbEntity
8
0
100
AcDbCircle
10
681.50222572097482
20
-395.53335837089548
30
-7.1054273576010019e-14
40
3.0000000000000133
0
CIRCLE
5
189
100
AcDbEntity
8
0
100
AcDbCircle
10
681.50222572097493
20
-24.534140043750376
30
-7.1054273576010019e-14
40
3.0000000000000133
0
CIRCLE
5
190
100
AcDbEntity
8
0
100
AcDbCircle
10
713.50222572097505
20
-24.534140043750412
30
-7.1054273576010019e-14
40
3.0000000000000133
0
LWPOLYLINE
5
191
100
AcDbEntity
8
0
100
AcDbPolyline
90
4
70
1
43
0.0
10
610.90390450268967
20
281.6138154797452
10
610.90390450268956
20
289.6138154797452
10
626.90390450268956
20
289.61381547974418
10
626.90390450268967
20
281.61381547974423
0
LWPOLYLINE
5
192
100
AcDbEntity
8
0
100
AcDbPolyline
90
4
70
1
43
0.0
10
610.90390450268967
20
615.00903355208698
10
610.90390450268956
20
623.00903355208698
10
626.90390450268956
20
623.00903355208595
10
626.90390450268967
20
615.00903355208595
0
LWPOLYLINE
5
193
100
AcDbEntity
8
0
100
AcDbPolyline
90
16
70
1
43
0.0
10
740.48969094031361
20
252.19960191737209
42
-0.19891236737966458
10
739.0754773779405
20
251.61381547974514
10
498.73233162743236
20
251.61381547974312
42
-0.19891236737964554
10
497.31811806505931
20
252.19960191737002
10
493.48969094031315
20
256.0280290421162
42
-0.19891236737966123
10
492.90390450268626
20
257.44224260448931
10
492.90390450268268
20
647.18061755519329
42
-0.19891236737964496
10
493.48969094030952
20
648.59483111756629
10
497.31811806505561
20
652.42325824231273
42
-0.19891236737965523
10
498.73233162742872
20
653.00904467993962
10
739.07547737793698
20
653.00904467994155
42
-0.19891236737967105
10
740.48969094031008
20
652.42325824231455
10
744.31811806505618
20
648.59483111756845
42
-0.19891236737967105
10
744.90390450268319
20
647.18061755519534
10
744.90390450268683
20
257.44224260449141
42
-0.19891236737965154
10
744.31811806505993
20
256.02802904211836
0
LWPOLYLINE
5
194
100
AcDbEntity
8
0
100
AcDbPolyline
90
4
70
1
43
0.0
10
722.40434664358327
20
565.00903367948672
10
730.40434664358327
20
565.00903367948672
10
730.40434664358315
20
549.00903367948661
10
722.40434664358304
20
549.00903367948661
0
LWPOLYLINE
5
195
100
AcDbEntity
8
0
100
AcDbPolyline
90
4
70
1
43
0.0
10
722.40434664358315
20
355.61381535234182
10
730.40434664358349
20
355.61381535234182
10
730.40434664358349
20
339.61381535234182
10
722.40434664358304
20
339.61381535234187
0
LWPOLYLINE
5
196
100
AcDbEntity
8
0
100
AcDbPolyline
90
4
70
1
43
0.0
10
507.40346236179585
20
565.00903367948786
10
515.40346236179585
20
565.00903367948786
10
515.40346236179585
20
549.00903367948786
10
507.40346236179568
20
549.00903367948786
0
LWPOLYLINE
5
197
100
AcDbEntity
8
0
100
AcDbPolyline
90
4
70
1
43
0.0
10
507.40346236179573
20
355.61381535234307
10
515.40346236179607
20
355.61381535234307
10
515.40346236179607
20
339.61381535234301
10
507.40346236179562
20
339.61381535234301
0
LINE
5
198
100
AcDbEntity
8
0
100
AcDbLine
10
259.27962513607213
20
337.37462071182449
30
-7.1054273576010019e-14
11
251.27962513607213
21
337.37462071182449
31
-6.9765108658535542e-14
0
LINE
5
199
100
AcDbEntity
8
0
100
AcDbLine
10
259.27962513607213
20
321.37462071182438
30
-7.1054273576010019e-14
11
251.27962513607213
21
321.37462071182438
31
-6.9765108658535542e-14
0
LINE
5
200
100
AcDbEntity
8
0
100
AcDbLine
10
251.27962513607213
20
337.37462071182449
30
-6.9765108658535542e-14
11
251.27962513607213
21
321.37462071182438
31
-6.9765108658535542e-14
0
LINE
5
201
100
AcDbEntity
8
0
100
AcDbLine
10
259.27962513607218
20
111.97940238467947
30
-7.1054273576010019e-14
11
251.27962513607216
21
111.97940238467947
31
-6.9765108658535542e-14
0
LINE
5
202
100
AcDbEntity
8
0
100
AcDbLine
10
259.27962513607218
20
127.97940238467947
30
-7.1054273576010019e-14
11
251.27962513607216
21
127.97940238467947
31
-6.9765108658535542e-14
0
LINE
5
203
100
AcDbEntity
8
0
100
AcDbLine
10
251.27962513607216
20
127.97940238467947
30
-6.9765108658535542e-14
11
251.27962513607216
21
111.97940238467947
31
-6.9765108658535542e-14
0
LINE
5
204
100
AcDbEntity
8
0
100
AcDbLine
10
259.27962513607213
20
321.37462071182438
30
-7.1054273576010019e-14
11
259.27962513607218
21
127.97940238467947
31
-7.1054273576010019e-14
0
LINE
5
205
100
AcDbEntity
8
0
100
AcDbLine
10
259.27962513607218
20
111.97940238467947
30
-7.1054273576010019e-14
11
259.27962513607218
21
61.979402384679133
31
-2.3297676156829298e-14
0
ARC
5
206
100
AcDbEntity
8
0
100
AcDbCircle
10
276.0786250635839
20
394.37462058442225
30
-7.1054273576010019e-14
40
1.0000000000000853
100
AcDbArc
50
90.000000000003254
51
180
0
LINE
5
207
100
AcDbEntity
8
0
100
AcDbLine
10
275.07862506358379
20
394.37462058442236
30
-7.1054273576010019e-14
11
275.07862506358384
21
389.77878376785884
31
-6.6664643002952656e-14
0
ARC
5
208
100
AcDbEntity
8
0
100
AcDbCircle
10
282.07862506358379
20
394.37462058442225
30
-7.1054273576010019e-14
40
1.0000000000000497
100
AcDbArc
50
0
51
90
0
LINE
5
209
100
AcDbEntity
8
0
100
AcDbLine
10
283.07862506358384
20
394.3746205844223
30
-7.1054273576010019e-14
11
283.07862506358384
21
389.77878376785725
31
-6.6664643002951192e-14
0
ARC
5
210
100
AcDbEntity
8
0
100
AcDbCircle
10
311.0786250635839
20
394.37462058442225
30
-7.1054273576010019e-14
40
1.0000000000000142
100
AcDbArc
50
90.000000000003254
51
180
0
LINE
5
211
100
AcDbEntity
8
0
100
AcDbLine
10
310.07862506358384
20
389.77878376785867
30
-7.1054273576010019e-14
11
310.07862506358384
21
394.37462058442236
31
-7.1054273576010019e-14
0
ARC
5
212
100
AcDbEntity
8
0
100
AcDbCircle
10
317.07862506358379
20
394.37462058442225
30
-7.1054273576010019e-14
40
1.0000000000000497
100
AcDbArc
50
0
51
89.999999999996746
0
LINE
5
213
100
AcDbEntity
8
0
100
AcDbLine
10
318.07862506358384
20
389.77878376785736
30
-7.1054273576010019e-14
11
318.07862506358384
21
394.37462058442236
31
-7.1054273576010019e-14
0
ARC
5
214
100
AcDbEntity
8
0
100
AcDbCircle
10
308.87654353556735
20
388.57670223984093
30
-7.1054273576010019e-14
40
1.7000000000000419
100
AcDbArc
50
-134.99999999999324
51
45.0000000000298
0
ARC
5
215
100
AcDbEntity
8
0
100
AcDbCircle
10
273.87654353556746
20
388.57670223984087
30
-7.1054273576010019e-14
40
1.6999999999999915
100
AcDbArc
50
-134.99999999999457
51
45.000000000037936
0
ARC
5
216
100
AcDbEntity
8
0
100
AcDbCircle
10
280.0113909192047
20
355.97493002023447
30
7.6393994757357738e-46
40
1.6999999999999917
100
AcDbArc
50
44.99999999999865
51
224.99999999999727
0
ARC
5
217
100
AcDbEntity
8
0
100
AcDbCircle
10
285.60722779068209
20
347.37909307626865
30
-7.1054273576010019e-14
40
1.6999999999999917
100
AcDbArc
50
-134.9999999999973
51
45.000000000001357
0
ARC
5
218
100
AcDbEntity
8
0
100
AcDbCircle
10
280.0113909192047
20
347.37909307626865
30
-7.1054273576010019e-14
40
1.6999999999999915
100
AcDbArc
50
135.00000000003521
51
315.00000000003524
0
ARC
5
219
100
AcDbEntity
8
0
100
AcDbCircle
10
285.60722779068215
20
355.97493002023452
30
-1.2425576226630214e-44
40
1.700000000000067
100
AcDbArc
50
-45.000000000035214
51
134.99999999996345
0
ARC
5
220
100
AcDbEntity
8
0
100
AcDbCircle
10
284.2807065916017
20
388.57670223984087
30
-7.1054273576010019e-14
40
1.6999999999999915
100
AcDbArc
50
135.00000000003521
51
315.00000000003524
0
ARC
5
221
100
AcDbEntity
8
0
100
AcDbCircle
10
319.28070659160164
20
388.57670223984087
30
-7.1054273576010019e-14
40
1.7000000000000168
100
AcDbArc
50
135.00000000003115
51
315.00000000002984
0
LINE
5
222
100
AcDbEntity
8
0
100
AcDbLine
10
259.27962513607213
20
387.37462071182364
30
-7.1054273576010019e-14
11
272.67446200755046
21
387.37462071182364
31
-7.1054273576010019e-14
0
LINE
5
223
100
AcDbEntity
8
0
100
AcDbLine
10
284.40514626266503
20
346.17701154825147
30
-7.1054273576010019e-14
11
281.21347244722256
21
346.17701154825227
31
-7.1054273576010019e-14
0
LINE
5
224
100
AcDbEntity
8
0
100
AcDbLine
10
278.80930939118684
20
348.58117460428502
30
-7.1054273576010019e-14
11
278.80930939118753
21
354.77284849221741
31
4.512872781543499e-31
0
LINE
5
225
100
AcDbEntity
8
0
100
AcDbLine
10
285.48278811961956
20
387.37462071182449
30
-7.1054273576010019e-14
11
307.67446200755035
21
387.37462071182364
31
-7.1054273576010019e-14
0
LINE
5
226
100
AcDbEntity
8
0
100
AcDbLine
10
286.80930931869858
20
354.77284849221661
30
4.5128727815463095e-31
11
286.80930931869921
21
348.58117460428582
31
-7.1054273576010019e-14
0
LINE
5
227
100
AcDbEntity
8
0
100
AcDbLine
10
281.21347244722187
20
357.17701154825158
30
-4.5128727815434841e-31
11
284.40514626266571
21
357.17701154825249
31
-4.5128727815465582e-31
0
CIRCLE
5
228
100
AcDbEntity
8
0
100
AcDbCircle
10
288.80930931869852
20
372.27581613003764
30
0
40
3.0000000000000004
0
CIRCLE
5
229
100
AcDbEntity
8
0
100
AcDbCircle
10
312.80930931869852
20
372.27581613003764
30
0
40
4.5000000000000044
0
LINE
5
230
100
AcDbEntity
8
0
100
AcDbLine
10
311.07862506358384
20
395.37462058442225
30
-7.1054273576010019e-14
11
317.07862506358384
21
395.3746205844223
31
-7.1054273576010019e-14
0
LINE
5
231
100
AcDbEntity
8
0
100
AcDbLine
10
276.07862506358384
20
395.3746205844223
30
-7.1054273576010019e-14
11
282.07862506358379
21
395.3746205844223
31
-7.1054273576010019e-14
0
LINE
5
232
100
AcDbEntity
8
0
100
AcDbLine
10
320.48278811961939
20
387.37462071182438
30
-7.1054273576010019e-14
11
322.07862506358379
21
387.37462071182364
31
-7.1311435701281228e-14
0
LINE
5
233
100
AcDbEntity
8
0
100
AcDbLine
10
322.0786250635839
20
61.979402384679148
30
-7.1054273576010019e-14
11
322.07862506358379
21
387.37462071182364
31
-7.1311435701281228e-14
0
ARC
5
234
100
AcDbEntity
8
0
100
AcDbCircle
10
276.0786250635839
20
54.979402512080533
30
-7.1054273576010019e-14
40
1.0000000000000142
100
AcDbArc
50
180
51
270
0
LINE
5
235
100
AcDbEntity
8
0
100
AcDbLine
10
275.07862506358384
20
54.979402512080568
30
-7.1054273576010019e-14
11
275.07862506358384
21
59.575239328643974
31
-4.3896305730573639e-15
0
ARC
5
236
100
AcDbEntity
8
0
100
AcDbCircle
10
282.07862506358384
20
54.979402512080568
30
-7.1054273576010019e-14
40
1.0000000000000053
100
AcDbArc
50
-90
51
0
0
LINE
5
237
100
AcDbEntity
8
0
100
AcDbLine
10
283.07862506358384
20
54.979402512080604
30
-7.1054273576010019e-14
11
283.07862506358384
21
59.575239328645537
31
-4.3896305730588226e-15
0
ARC
5
238
100
AcDbEntity
8
0
100
AcDbCircle
10
311.0786250635839
20
54.979402512080568
30
-7.1054273576010019e-14
40
1.0000000000000142
100
AcDbArc
50
180
51
270
0
LINE
5
239
100
AcDbEntity
8
0
100
AcDbLine
10
310.0786250635839
20
59.575239328644116
30
0
11
310.07862506358384
21
54.979402512080604
31
-7.1054273576010019e-14
0
ARC
5
240
100
AcDbEntity
8
0
100
AcDbCircle
10
317.0786250635839
20
54.979402512080533
30
-7.1054273576010019e-14
40
0.99999999999999645
100
AcDbArc
50
-90
51
0
0
LINE
5
241
100
AcDbEntity
8
0
100
AcDbLine
10
318.0786250635839
20
59.575239328645395
30
0
11
318.0786250635839
21
54.979402512080568
31
-7.1054273576010019e-14
0
ARC
5
242
100
AcDbEntity
8
0
100
AcDbCircle
10
308.87654353556741
20
60.777320856661916
30
0
40
1.7000000000000168
100
AcDbArc
50
-45.000000000031143
51
134.99999999999457
0
ARC
5
243
100
AcDbEntity
8
0
100
AcDbCircle
10
273.87654353556752
20
60.777320856661916
30
0
40
1.7000000000000168
100
AcDbArc
50
-45.000000000038625
51
134.99999999999443
0
LWPOLYLINE
5
244
100
AcDbEntity
8
0
100
AcDbPolyline
90
8
70
1
43
0.0
10
281.21347244722261
20
92.177011548251954
42
-0.99999999999999989
10
278.8093093911869
20
94.581174604284712
10
278.80930939118764
20
100.77284849221695
42
-0.99999999999999989
10
281.21347244722182
20
103.17701154825133
10
284.40514626266565
20
103.17701154825194
42
-0.99999999999999989
10
286.80930931869858
20
100.77284849221634
10
286.80930931869938
20
94.581174604285366
42
-0.99999999999999989
10
284.40514626266491
20
92.177011548251329
0
ARC
5
245
100
AcDbEntity
8
0
100
AcDbCircle
10
284.28070659160176
20
60.777320856661916
30
0
40
1.6999999999999917
100
AcDbArc
50
45.000000000007617
51
224.99999999996342
0
ARC
5
246
100
AcDbEntity
8
0
100
AcDbCircle
10
319.28070659160164
20
60.777320856661916
30
0
40
1.7000000000000168
100
AcDbArc
50
45.00000000000626
51
224.99999999997087
0
LINE
5
247
100
AcDbEntity
8
0
100
AcDbLine
10
259.27962513607218
20
61.979402384679133
30
-2.3297676156829298e-14
11
272.67446200755052
21
61.979402384679155
31
-2.5991906360144648e-31
0
LINE
5
248
100
AcDbEntity
8
0
100
AcDbLine
10
285.4827881196187
20
61.979402384679183
30
-2.599190636014527e-31
11
307.6744620075504
21
61.979402384679148
31
-2.5991906360144622e-31
0
CIRCLE
5
249
100
AcDbEntity
8
0
100
AcDbCircle
10
288.80930931869852
20
77.078206966465189
30
0
40
3.0000000000000004
0
CIRCLE
5
250
100
AcDbEntity
8
0
100
AcDbCircle
10
312.80930931869858
20
77.078206966465189
30
0
40
4.5000000000000044
0
LINE
5
251
100
AcDbEntity
8
0
100
AcDbLine
10
311.0786250635839
20
53.979402512080568
30
-7.1054273576010019e-14
11
317.0786250635839
21
53.97940251208054
31
-7.1054273576010019e-14
0
LINE
5
252
100
AcDbEntity
8
0
100
AcDbLine
10
276.0786250635839
20
53.979402512080526
30
-7.1054273576010019e-14
11
282.07862506358384
21
53.979402512080561
31
-7.1054273576010019e-14
0
LINE
5
253
100
AcDbEntity
8
0
100
AcDbLine
10
320.48278811961865
20
61.979402384679183
30
-2.599190636014527e-31
11
322.0786250635839
21
61.979402384679148
31
-7.1054273576010019e-14
0
LINE
5
254
100
AcDbEntity
8
0
100
AcDbLine
10
259.27962513607213
20
387.37462071182364
30
-7.1054273576010019e-14
11
259.27962513607213
21
337.37462071182449
31
-7.1054273576010019e-14
0
CIRCLE
5
255
100
AcDbEntity
8
0
100
AcDbCircle
10
316.47650271882679
20
-310.95919167402548
30
0
40
2.1000000000000036
0
CIRCLE
5
256
100
AcDbEntity
8
0
100
AcDbCircle
10
316.47650271882691
20
-360.95919167402542
30
0
40
2.1000000000000036
0
CIRCLE
5
257
100
AcDbEntity
8
0
100
AcDbCircle
10
366.47650271882685
20
-360.95919167402548
30
0
40
2.1000000000000036
0
LWPOLYLINE
5
258
100
AcDbEntity
8
0
100
AcDbPolyline
90
8
70
1
43
0.0
10
368.47650271882685
20
-287.45919167402553
42
-0.41421356237309631
10
376.47650271882685
20
-295.45919167402553
10
376.47650271882696
20
-376.45919167402548
42
-0.41421356237309503
10
368.47650271882696
20
-384.45919167402542
10
314.47650271882708
20
-384.45919167402536
42
-0.41421356237309631
10
306.47650271882708
20
-376.45919167402542
10
306.47650271882691
20
-295.45919167402536
42
-0.4142135623730937
10
314.47650271882691
20
-287.45919167402542
0
CIRCLE
5
259
100
AcDbEntity
8
0
100
AcDbCircle
10
366.47650271882668
20
-310.95919167402553
30
0
40
2.1000000000000036
0
CIRCLE
5
260
100
AcDbEntity
8
0
100
AcDbCircle
10
341.47650271882696
20
-335.95919167402542
30
0
40
18.499999999999972
0
LWPOLYLINE
5
261
100
AcDbEntity
8
0
100
AcDbPolyline
90
4
70
1
43
0.0
10
319.47650271882685
20
-298.20919167402542
42
-0.99999999999999989
10
319.47650271882685
20
-292.70919167402542
10
330.47650271882696
20
-292.70919167402542
42
-0.99999999999999989
10
330.47650271882679
20
-298.20919167402542
0
LWPOLYLINE
5
262
100
AcDbEntity
8
0
100
AcDbPolyline
90
4
70
1
43
0.0
10
352.47650271882628
20
-373.70919167402548
10
363.47650271882776
20
-373.70919167402542
42
-0.99999999999999989
10
363.47650271882623
20
-379.20919167402553
10
352.47650271882753
20
-379.20919167402542
42
-0.99999999999999989
0
LWPOLYLINE
5
263
100
AcDbEntity
8
0
100
AcDbPolyline
90
4
70
1
43
0.0
10
352.47650271882748
20
-298.20919167402542
42
-0.99999999999999989
10
352.47650271882605
20
-292.70919167402548
10
363.47650271882765
20
-292.70919167402542
42
-0.99999999999999989
10
363.47650271882605
20
-298.20919167402553
0
LWPOLYLINE
5
264
100
AcDbEntity
8
0
100
AcDbPolyline
90
4
70
1
43
0.0
10
330.47650271882702
20
-373.70919167402542
42
-0.99999999999999989
10
330.47650271882702
20
-379.20919167402536
10
319.47650271882691
20
-379.20919167402536
42
-0.99999999999999989
10
319.47650271882702
20
-373.70919167402542
0
LINE
5
265
100
AcDbEntity
8
0
100
AcDbLine
10
99.26285188722855
20
-366.15197363615977
30
0
11
99.26285188722855
21
-374.15197363615982
31
2.0899404639430937e-15
0
LINE
5
266
100
AcDbEntity
8
0
100
AcDbLine
10
115.26285188722858
20
-366.15197363615977
30
0
11
115.26285188722858
21
-374.15197363615982
31
2.0899404639430933e-15
0
LINE
5
267
100
AcDbEntity
8
0
100
AcDbLine
10
99.26285188722855
20
-374.15197363615982
30
2.0899404639430937e-15
11
115.26285188722858
21
-374.15197363615982
31
2.0899404639430933e-15
0
LINE
5
268
100
AcDbEntity
8
0
100
AcDbLine
10
115.26285188722858
20
-366.15197363615977
30
0
11
187.4604610508008
21
-366.15197363615982
31
-2.3833476114850449e-14
0
ARC
5
269
100
AcDbEntity
8
0
100
AcDbCircle
10
20.065242851057707
20
-349.35297370864788
30
-7.1054273576010019e-14
40
1.0000000000001008
100
AcDbArc
50
180
51
269.99999999999449
0
LINE
5
270
100
AcDbEntity
8
0
100
AcDbLine
10
20.065242851057612
20
-350.35297370864794
30
-7.1054273576010019e-14
11
24.66107966762106
21
-350.35297370864794
31
-7.2571425851054903e-14
0
ARC
5
271
100
AcDbEntity
8
0
100
AcDbCircle
10
20.06524285105769
20
-343.35297370864799
30
-7.1054273576010019e-14
40
1.0000000000000142
100
AcDbArc
50
90.000000000003652
51
180
0
LINE
5
272
100
AcDbEntity
8
0
100
AcDbLine
10
20.065242851057626
20
-342.35297370864799
30
-7.1054273576010019e-14
11
24.661079667622605
21
-342.35297370864799
31
-7.2571425851055408e-14
0
ARC
5
273
100
AcDbEntity
8
0
100
AcDbCircle
10
20.065242851057636
20
-314.35297370864794
30
2.2237402387967068e-46
40
1.0000000000000031
100
AcDbArc
50
180
51
270
0
LINE
5
274
100
AcDbEntity
8
0
100
AcDbLine
10
24.66107966762122
20
-315.35297370864794
30
0
11
20.065242851057636
21
-315.35297370864794
31
1.7431527984211034e-32
0
ARC
5
275
100
AcDbEntity
8
0
100
AcDbCircle
10
20.065242851057597
20
-308.35297370864788
30
-2.4769045121366395e-45
40
0.99999999999994316
100
AcDbArc
50
89.99999999999838
51
180
0
LINE
5
276
100
AcDbEntity
8
0
100
AcDbLine
10
24.661079667622488
20
-307.35297370864794
30
0
11
20.065242851057626
21
-307.35297370864794
31
-7.868619306511424e-46
0
ARC
5
277
100
AcDbEntity
8
0
100
AcDbCircle
10
25.863161195638998
20
-316.55505523666443
30
3.8958914623467599e-46
40
1.7000000000000104
100
AcDbArc
50
-44.999999999995367
51
135.00000000003067
0
ARC
5
278
100
AcDbEntity
8
0
100
AcDbCircle
10
25.863161195639005
20
-351.55505523666432
30
-7.1054273576010019e-14
40
1.699999999999998
100
AcDbArc
50
-44.99999999999568
51
135.00000000003735
0
ARC
5
279
100
AcDbEntity
8
0
100
AcDbCircle
10
58.464933415245468
20
-345.42020785302714
30
1.4226518595859549e-45
40
1.6999999999999664
100
AcDbArc
50
134.99999999999713
51
314.99999999999847
0
ARC
5
280
100
AcDbEntity
8
0
100
AcDbCircle
10
67.060770359211276
20
-339.82437098154975
30
7.1054273576010019e-14
40
1.6999999999999917
100
AcDbArc
50
-44.999999999998977
51
135.00000000000102
0
ARC
5
281
100
AcDbEntity
8
0
100
AcDbCircle
10
67.060770359211318
20
-345.42020785302714
30
-3.1885013885515857e-45
40
1.700000000000004
100
AcDbArc
50
-134.99999999996547
51
45.000000000036231
0
ARC
5
282
100
AcDbEntity
8
0
100
AcDbCircle
10
58.46493341524544
20
-339.82437098154975
30
7.1054273576010019e-14
40
1.7000000000000419
100
AcDbArc
50
44.999999999965794
51
224.99999999996581
0
ARC
5
283
100
AcDbEntity
8
0
100
AcDbCircle
10
25.863161195638995
20
-341.15089218063014
30
-7.1054273576010019e-14
40
1.699999999999998
100
AcDbArc
50
-134.99999999996504
51
45.000000000036579
0
ARC
5
284
100
AcDbEntity
8
0
100
AcDbCircle
10
25.863161195639009
20
-306.15089218063019
30
1.5053010847239246e-46
40
1.7000000000000168
100
AcDbArc
50
-134.9999999999709
51
45.000000000029125
0
LINE
5
285
100
AcDbEntity
8
0
100
AcDbLine
10
27.065242723656233
20
-366.15197363615971
30
0
11
27.065242723656247
21
-352.75713676468138
31
-7.1054273576010019e-14
0
LINE
5
286
100
AcDbEntity
8
0
100
AcDbLine
10
68.262851887228436
20
-341.02645250956687
30
7.1054273576010019e-14
11
68.262851887227711
21
-344.21812632500922
31
-9.6311122141715771e-32
0
LINE
5
287
100
AcDbEntity
8
0
100
AcDbLine
10
65.858688831194911
20
-346.62228938104499
30
9.6311122141709377e-32
11
59.667014943262522
21
-346.62228938104425
31
-9.6311122141763415e-32
0
LINE
5
288
100
AcDbEntity
8
0
100
AcDbLine
10
27.065242723655373
20
-339.94881065261222
30
-7.1054273576010019e-14
11
27.065242723656254
21
-317.75713676468149
31
-9.6311122141780427e-32
0
LINE
5
289
100
AcDbEntity
8
0
100
AcDbLine
10
59.667014943263311
20
-338.62228945353331
30
7.1054273576010019e-14
11
65.858688831194115
21
-338.62228945353263
31
7.1054273576010019e-14
0
LINE
5
290
100
AcDbEntity
8
0
100
AcDbLine
10
57.262851887228415
20
-344.21812632500996
30
9.6311122141766272e-32
11
57.262851887227569
21
-341.02645250956618
31
7.1054273576010019e-14
0
CIRCLE
5
291
100
AcDbEntity
8
0
100
AcDbCircle
10
42.16404730544231
20
-336.62228945353326
30
0
40
3.0000000000000049
0
CIRCLE
5
292
100
AcDbEntity
8
0
100
AcDbCircle
10
42.164047305442324
20
-312.62228945353326
30
0
40
4.5000000000000115
0
LINE
5
293
100
AcDbEntity
8
0
100
AcDbLine
10
19.065242851057633
20
-314.35297370864794
30
1.7431527984210328e-32
11
19.065242851057654
21
-308.35297370864794
31
-6.9726111936840206e-32
0
LINE
5
294
100
AcDbEntity
8
0
100
AcDbLine
10
19.065242851057608
20
-349.35297370864805
30
-7.1054273576010019e-14
11
19.065242851057675
21
-343.35297370864799
31
-7.1054273576010019e-14
0
LINE
5
295
100
AcDbEntity
8
0
100
AcDbLine
10
27.06524272365553
20
-304.94881065261245
30
-9.6311122141721715e-32
11
27.065242723656262
21
-303.35297370864794
31
-4.1690052538103346e-16
0
LINE
5
296
100
AcDbEntity
8
0
100
AcDbLine
10
187.46045962706501
20
-303.35297370864799
30
7.1054273576010019e-14
11
27.065242723656262
21
-303.35297370864794
31
-4.1690052538103346e-16
0
ARC
5
297
100
AcDbEntity
8
0
100
AcDbCircle
10
194.46046092339944
20
-349.35297370864811
30
0
40
1.0000000000000142
100
AcDbArc
50
270
51
360
0
LINE
5
298
100
AcDbEntity
8
0
100
AcDbLine
10
194.46046092339944
20
-350.35297370864811
30
7.6633509767763434e-46
11
189.864624106836
21
-350.35297370864811
31
1.5171522750448891e-15
0
ARC
5
299
100
AcDbEntity
8
0
100
AcDbCircle
10
194.46046092339941
20
-343.35297370864805
30
0
40
0.99999999999997868
100
AcDbArc
50
0
51
90
0
LINE
5
300
100
AcDbEntity
8
0
100
AcDbLine
10
194.46046092339941
20
-342.35297370864805
30
3.4863055968421001e-32
11
189.86462410683444
21
-342.35297370864805
31
1.5171522750453936e-15
0
ARC
5
301
100
AcDbEntity
8
0
100
AcDbCircle
10
194.46046092339944
20
-314.35297370864805
30
7.1054273576010019e-14
40
0.99999999999997868
100
AcDbArc
50
-90
51
0
0
LINE
5
302
100
AcDbEntity
8
0
100
AcDbLine
10
189.86462410683586
20
-315.35297370864805
30
7.1054273576010019e-14
11
194.46046092339944
21
-315.35297370864799
31
7.1054273576010019e-14
0
ARC
5
303
100
AcDbEntity
8
0
100
AcDbCircle
10
194.46046092339947
20
-308.35297370864799
30
7.1054273576010019e-14
40
1.0000000000000142
100
AcDbArc
50
0
51
90
0
LINE
5
304
100
AcDbEntity
8
0
100
AcDbLine
10
189.86462410683458
20
-307.35297370864799
30
7.1054273576010019e-14
11
194.46046092339947
21
-307.35297370864805
31
7.1054273576010019e-14
0
ARC
5
305
100
AcDbEntity
8
0
100
AcDbCircle
10
188.66254257881806
20
-316.55505523666454
30
7.1054273576010019e-14
40
1.7000000000000168
100
AcDbArc
50
44.999999999968843
51
224.99999999999457
0
ARC
5
306
100
AcDbEntity
8
0
100
AcDbCircle
10
188.66254257881806
20
-351.55505523666443
30
0
40
1.6999999999999917
100
AcDbArc
50
44.999999999961389
51
224.99999999999457
0
ARC
5
307
100
AcDbEntity
8
0
100
AcDbCircle
10
156.06077035921157
20
-345.42020785302719
30
0
40
1.6999999999999791
100
AcDbArc
50
-134.99999999996479
51
45.000000000002707
0
ARC
5
308
100
AcDbEntity
8
0
100
AcDbCircle
10
147.46493341524578
20
-339.82437098154975
30
7.1054273576010019e-14
40
1.7000000000000168
100
AcDbArc
50
44.999999999966818
51
224.99999999999932
0
ARC
5
309
100
AcDbEntity
8
0
100
AcDbCircle
10
147.46493341524578
20
-345.42020785302719
30
0
40
1.6999999999999917
100
AcDbArc
50
135.00000000000068
51
314.99999999996413
0
ARC
5
310
100
AcDbEntity
8
0
100
AcDbCircle
10
156.0607703592116
20
-339.82437098154975
30
7.1054273576010019e-14
40
1.700000000000004
100
AcDbArc
50
-45.000000000004732
51
135.0000000000359
0
ARC
5
311
100
AcDbEntity
8
0
100
AcDbCircle
10
188.66254257881806
20
-341.15089218063019
30
7.1054273576010019e-14
40
1.6999999999999915
100
AcDbArc
50
135.00000000000543
51
314.99999999996476
0
ARC
5
312
100
AcDbEntity
8
0
100
AcDbCircle
10
188.66254257881806
20
-306.15089218063025
30
7.1054273576010019e-14
40
1.6999999999999915
100
AcDbArc
50
135.00000000000543
51
314.9999999999709
0
LINE
5
313
100
AcDbEntity
8
0
100
AcDbLine
10
187.4604610508008
20
-366.15197363615982
30
-2.3833476114850449e-14
11
187.46046105080083
21
-352.75713676468143
31
2.2223268150862506e-32
0
LINE
5
314
100
AcDbEntity
8
0
100
AcDbLine
10
146.26285188722863
20
-341.02645250956687
30
7.1054273576010019e-14
11
146.26285188722863
21
-344.21812632501008
31
2.2223268150860949e-32
0
LINE
5
315
100
AcDbEntity
8
0
100
AcDbLine
10
148.66701494326213
20
-346.62228938104505
30
-2.222326815084615e-32
11
154.8586888311952
21
-346.62228938104505
31
2.2223268150846164e-32
0
LINE
5
316
100
AcDbEntity
8
0
100
AcDbLine
10
187.46046105080083
20
-339.94881065261319
30
7.1054273576010019e-14
11
187.46046105080083
21
-317.75713676468155
31
7.1054273576010019e-14
0
LINE
5
317
100
AcDbEntity
8
0
100
AcDbLine
10
154.85868883119372
20
-338.62228945353337
30
7.1054273576010019e-14
11
148.66701494326361
21
-338.62228945353331
31
7.1054273576010019e-14
0
LINE
5
318
100
AcDbEntity
8
0
100
AcDbLine
10
157.26285188722863
20
-344.21812632501002
30
-2.2223268150859301e-32
11
157.26285188722863
21
-341.02645250956698
31
7.1054273576010019e-14
0
CIRCLE
5
319
100
AcDbEntity
8
0
100
AcDbCircle
10
172.36165646901475
20
-336.62228945353331
30
7.1054273576010019e-14
40
3.0000000000000049
0
CIRCLE
5
320
100
AcDbEntity
8
0
100
AcDbCircle
10
172.36165646901475
20
-312.62228945353331
30
7.1054273576010019e-14
40
4.5000000000000115
0
LINE
5
321
100
AcDbEntity
8
0
100
AcDbLine
10
195.46046092339947
20
-314.35297370864805
30
7.1054273576010019e-14
11
195.46046092339949
21
-308.35297370864799
31
7.1054273576010019e-14
0
LINE
5
322
100
AcDbEntity
8
0
100
AcDbLine
10
195.46046092339941
20
-349.35297370864811
30
3.4863055968421001e-32
11
195.46046092339938
21
-343.35297370864805
31
-4.9948626902202952e-46
0
LINE
5
323
100
AcDbEntity
8
0
100
AcDbLine
10
187.46046105080083
20
-304.94881065261325
30
7.1054273576010019e-14
11
187.46045962706501
21
-303.35297370864799
31
7.1054273576010019e-14
0
LINE
5
324
100
AcDbEntity
8
0
100
AcDbLine
10
27.065242723656233
20
-366.15197363615971
30
0
11
99.26285188722855
21
-366.15197363615977
31
0
0
LINE
5
325
100
AcDbEntity
8
0
100
AcDbLine
10
-190.11981186461486
20
-353.02939606298281
30
-7.1054273576010019e-14
11
-190.11981186461486
21
-361.0293960629827
31
-6.7854110087441786e-14
0
LINE
5
326
100
AcDbEntity
8
0
100
AcDbLine
10
-174.119811864615
20
-353.02939606298281
30
-7.1054273576010019e-14
11
-174.119811864615
21
-361.0293960629827
31
-6.7854110087441786e-14
0
LINE
5
327
100
AcDbEntity
8
0
100
AcDbLine
10
-190.11981186461486
20
-361.0293960629827
30
-6.7854110087441786e-14
11
-174.119811864615
21
-361.0293960629827
31
-6.7854110087441786e-14
0
LINE
5
328
100
AcDbEntity
8
0
100
AcDbLine
10
-174.119811864615
20
-353.02939606298281
30
-7.1054273576010019e-14
11
-101.92220270104346
21
-353.02939606298287
31
-1.4690510436300249e-13
0
ARC
5
329
100
AcDbEntity
8
0
100
AcDbCircle
10
-269.31742090078495
20
-336.23039613547115
30
-1.4210854715202004e-13
40
1.0000000000000497
100
AcDbArc
50
180
51
269.99999999999676
0
LINE
5
330
100
AcDbEntity
8
0
100
AcDbLine
10
-269.31742090078501
20
-337.23039613547115
30
-1.4210854715202004e-13
11
-264.7215840842216
21
-337.23039613547121
31
-7.1359604936402337e-14
0
ARC
5
331
100
AcDbEntity
8
0
100
AcDbCircle
10
-269.3174209007849
20
-330.23039613547132
30
-1.4210854715202004e-13
40
1.0000000000000853
100
AcDbArc
50
90.000000000003254
51
180
0
LINE
5
332
100
AcDbEntity
8
0
100
AcDbLine
10
-269.31742090078495
20
-329.23039613547127
30
-1.4210854715202004e-13
11
-264.72158408422001
21
-329.23039613547127
31
-7.1359604936402425e-14
0
ARC
5
333
100
AcDbEntity
8
0
100
AcDbCircle
10
-269.31742090078501
20
-301.23039613547155
30
-7.1054273576010019e-14
40
0.99999999999990763
100
AcDbArc
50
180
51
270.00000000000324
0
LINE
5
334
100
AcDbEntity
8
0
100
AcDbLine
10
-264.72158408422143
20
-302.23039613547155
30
-7.1054273576010019e-14
11
-269.31742090078495
21
-302.23039613547149
31
-7.1054273576010019e-14
0
ARC
5
335
100
AcDbEntity
8
0
100
AcDbCircle
10
-269.31742090078495
20
-295.23039613547161
30
-7.1054273576010019e-14
40
0.99999999999997868
100
AcDbArc
50
90
51
180
0
LINE
5
336
100
AcDbEntity
8
0
100
AcDbLine
10
-264.72158408422013
20
-294.23039613547161
30
-7.1054273576010019e-14
11
-269.31742090078495
21
-294.23039613547161
31
-7.1054273576010019e-14
0
ARC
5
337
100
AcDbEntity
8
0
100
AcDbCircle
10
-263.51950255620363
20
-303.43247766348799
30
-9.3784837025877047e-46
40
1.6999999999999664
100
AcDbArc
50
-44.999999999995929
51
135.00000000003251
0
ARC
5
338
100
AcDbEntity
8
0
100
AcDbCircle
10
-263.51950255620363
20
-338.43247766348753
30
-7.1054273576010019e-14
40
1.6999999999999915
100
AcDbArc
50
-44.999999999995929
51
135.00000000003931
0
LWPOLYLINE
5
339
100
AcDbEntity
8
0
100
AcDbPolyline
90
8
70
1
43
0.0
10
-229.71564880858054
20
-333.49971180786753
42
-0.99999999999999989
10
-232.11981186461458
20
-331.09554875183323
10
-232.11981186461543
20
-327.9038749363894
42
-0.99999999999999989
10
-229.71564880857969
20
-325.49971188035664
10
-223.52397492064895
20
-325.49971188035613
42
-0.99999999999999989
10
-221.11981186461463
20
-327.90387493639014
10
-221.11981186461546
20
-331.09554875183233
42
-0.99999999999999989
10
-223.52397492064813
20
-333.49971180786827
0
ARC
5
340
100
AcDbEntity
8
0
100
AcDbCircle
10
-263.51950255620363
20
-328.02831460745335
30
-7.1054273576010019e-14
40
1.6999999999999915
100
AcDbArc
50
-134.99999999996345
51
45.000000000035229
0
ARC
5
341
100
AcDbEntity
8
0
100
AcDbCircle
10
-263.51950255620363
20
-293.02831460745386
30
-4.3790577010150533e-46
40
1.6999999999999664
100
AcDbArc
50
-134.99999999997021
51
45.000000000028443
0
LINE
5
342
100
AcDbEntity
8
0
100
AcDbLine
10
-262.31742102818646
20
-353.02939606298276
30
-7.1054273576010019e-14
11
-262.31742102818646
21
-339.63455919150454
31
-7.1054273576010019e-14
0
LINE
5
343
100
AcDbEntity
8
0
100
AcDbLine
10
-262.31742102818725
20
-326.8262330794355
30
-7.1054273576010019e-14
11
-262.31742102818646
21
-304.63455919150499
31
-7.1539286670466098e-32
0
CIRCLE
5
344
100
AcDbEntity
8
0
100
AcDbCircle
10
-247.21861644640052
20
-323.4997118803567
30
-7.1054273576010019e-14
40
2.9999999999999751
0
CIRCLE
5
345
100
AcDbEntity
8
0
100
AcDbCircle
10
-247.21861644640052
20
-299.49971188035687
30
-7.1054273576010019e-14
40
4.4999999999999671
0
LINE
5
346
100
AcDbEntity
8
0
100
AcDbLine
10
-270.3174209007849
20
-301.23039613547155
30
-7.1054273576010019e-14
11
-270.31742090078495
21
-295.23039613547161
31
-7.1054273576010019e-14
0
LINE
5
347
100
AcDbEntity
8
0
100
AcDbLine
10
-270.31742090078501
20
-336.23039613547121
30
-1.4210854715202004e-13
11
-270.31742090078495
21
-330.23039613547127
31
-1.4210854715202004e-13
0
LINE
5
348
100
AcDbEntity
8
0
100
AcDbLine
10
-262.31742102818714
20
-291.82623307943618
30
-7.1539286670423796e-32
11
-262.31742102818646
21
-290.23039613547161
31
-7.1692640966233263e-14
0
LINE
5
349
100
AcDbEntity
8
0
100
AcDbLine
10
-101.92220412477926
20
-290.23039613547172
30
-7.1054273576010019e-14
11
-262.31742102818646
21
-290.23039613547161
31
-7.1692640966233263e-14
0
ARC
5
350
100
AcDbEntity
8
0
100
AcDbCircle
10
-94.922202828444881
20
-336.23039613547132
30
-7.1054273576010019e-14
40
1.0000000000000142
100
AcDbArc
50
-89.99999999999919
51
0
0
LINE
5
351
100
AcDbEntity
8
0
100
AcDbLine
10
-94.922202828444867
20
-337.23039613547138
30
-7.1054273576010019e-14
11
-99.518039645008287
21
-337.23039613547138
31
-7.07489422156177e-14
0
ARC
5
352
100
AcDbEntity
8
0
100
AcDbCircle
10
-94.92220282844491
20
-330.23039613547144
30
-7.1054273576010019e-14
40
0.99999999999999645
100
AcDbArc
50
0
51
89.99999999999838
0
LINE
5
353
100
AcDbEntity
8
0
100
AcDbLine
10
-94.922202828444881
20
-329.23039613547138
30
-7.1054273576010019e-14
11
-99.518039645009836
21
-329.23039613547138
31
-7.0748942215617599e-14
0
ARC
5
354
100
AcDbEntity
8
0
100
AcDbCircle
10
-94.922202828444881
20
-301.23039613547166
30
-7.1054273576010019e-14
40
0.99999999999997868
100
AcDbArc
50
-89.99999999999919
51
0
0
LINE
5
355
100
AcDbEntity
8
0
100
AcDbLine
10
-99.518039645008415
20
-302.23039613547166
30
-7.1054273576010019e-14
11
-94.922202828444867
21
-302.23039613547166
31
-7.1054273576010019e-14
0
ARC
5
356
100
AcDbEntity
8
0
100
AcDbCircle
10
-94.922202828444867
20
-295.23039613547166
30
-7.1054273576010019e-14
40
0.99999999999999645
100
AcDbArc
50
0
51
89.99999999999919
0
LINE
5
357
100
AcDbEntity
8
0
100
AcDbLine
10
-99.518039645009679
20
-294.23039613547172
30
-7.1054273576010019e-14
11
-94.922202828444853
21
-294.23039613547172
31
-7.1054273576010019e-14
0
ARC
5
358
100
AcDbEntity
8
0
100
AcDbCircle
10
-100.7201211730262
20
-303.4324776634881
30
0
40
1.6999999999999791
100
AcDbArc
50
44.99999999996782
51
224.99999999999457
0
ARC
5
359
100
AcDbEntity
8
0
100
AcDbCircle
10
-100.72012117302621
20
-338.4324776634877
30
-7.1054273576010019e-14
40
1.6999999999999791
100
AcDbArc
50
44.99999999996173
51
224.99999999999457
0
ARC
5
360
100
AcDbEntity
8
0
100
AcDbCircle
10
-133.32189339263238
20
-332.29763027985041
30
-7.1054273576010019e-14
40
1.6999999999999791
100
AcDbArc
50
-134.99999999996277
51
45.00000000000135
0
ARC
5
361
100
AcDbEntity
8
0
100
AcDbCircle
10
-141.91773033659808
20
-326.70179340837313
30
-7.1054273576010019e-14
40
1.700000000000004
100
AcDbArc
50
44.999999999967486
51
224.99999999999861
0
ARC
5
362
100
AcDbEntity
8
0
100
AcDbCircle
10
-141.91773033659811
20
-332.29763027985041
30
-7.1054273576010019e-14
40
1.6999999999999917
100
AcDbArc
50
135.00000000000205
51
314.99999999996277
0
ARC
5
363
100
AcDbEntity
8
0
100
AcDbCircle
10
-133.32189339263235
20
-326.70179340837308
30
-7.1054273576010019e-14
40
1.6999999999999915
100
AcDbArc
50
-45.000000000004732
51
135.00000000003521
0
ARC
5
364
100
AcDbEntity
8
0
100
AcDbCircle
10
-100.72012117302621
20
-328.02831460745352
30
-7.1054273576010019e-14
40
1.6999999999999915
100
AcDbArc
50
135.00000000000543
51
314.99999999996476
0
ARC
5
365
100
AcDbEntity
8
0
100
AcDbCircle
10
-100.72012117302619
20
-293.02831460745398
30
0
40
1.6999999999999915
100
AcDbArc
50
135.00000000000543
51
314.9999999999705
0
LINE
5
366
100
AcDbEntity
8
0
100
AcDbLine
10
-101.92220270104346
20
-353.02939606298287
30
-1.4690510436300249e-13
11
-101.92220270104345
21
-339.63455919150471
31
-7.1054273576010019e-14
0
LINE
5
367
100
AcDbEntity
8
0
100
AcDbLine
10
-143.11981186461526
20
-327.90387493639025
30
-7.1054273576010019e-14
11
-143.11981186461526
21
-331.09554875183335
31
-7.1054273576010019e-14
0
LINE
5
368
100
AcDbEntity
8
0
100
AcDbLine
10
-140.71564880858176
20
-333.49971180786832
30
-7.1054273576010019e-14
11
-134.52397492064873
21
-333.49971180786832
31
-7.1054273576010019e-14
0
LINE
5
369
100
AcDbEntity
8
0
100
AcDbLine
10
-101.92220270104345
20
-326.82623307943652
30
-7.1054273576010019e-14
11
-101.92220270104343
21
-304.6345591915051
31
-4.1905689097305366e-32
0
LINE
5
370
100
AcDbEntity
8
0
100
AcDbLine
10
-134.5239749206502
20
-325.4997118803567
30
-7.1054273576010019e-14
11
-140.71564880858028
21
-325.4997118803567
31
-7.1054273576010019e-14
0
LINE
5
371
100
AcDbEntity
8
0
100
AcDbLine
10
-132.11981186461531
20
-331.09554875183329
30
-7.1054273576010019e-14
11
-132.11981186461531
21
-327.90387493639031
31
-7.1054273576010019e-14
0
CIRCLE
5
372
100
AcDbEntity
8
0
100
AcDbCircle
10
-117.02100728282937
20
-323.49971188035676
30
-7.1054273576010019e-14
40
2.9999999999999751
0
CIRCLE
5
373
100
AcDbEntity
8
0
100
AcDbCircle
10
-117.02100728282936
20
-299.49971188035693
30
-7.1054273576010019e-14
40
4.4999999999999671
0
LINE
5
374
100
AcDbEntity
8
0
100
AcDbLine
10
-93.922202828444895
20
-301.23039613547166
30
-7.1054273576010019e-14
11
-93.922202828444881
21
-295.23039613547166
31
-7.1054273576010019e-14
0
LINE
5
375
100
AcDbEntity
8
0
100
AcDbLine
10
-93.922202828444895
20
-336.23039613547132
30
-7.1054273576010019e-14
11
-93.92220282844491
21
-330.23039613547144
31
-7.1054273576010019e-14
0
LINE
5
376
100
AcDbEntity
8
0
100
AcDbLine
10
-101.92220270104342
20
-291.82623307943697
30
-4.190568909730535e-32
11
-101.92220412477926
21
-290.23039613547172
31
-7.1054273576010019e-14
0
LINE
5
377
100
AcDbEntity
8
0
100
AcDbLine
10
-262.31742102818646
20
-353.02939606298276
30
-7.1054273576010019e-14
11
-190.11981186461486
21
-353.02939606298281
31
-7.1054273576010019e-14
0
LWPOLYLINE
5
378
100
AcDbEntity
8
0
100
AcDbPolyline
90
18
70
1
43
0.0
10
71.836548593443311
20
-194.61316418329079
42
-0.19891236737965845
10
70.422335031070205
20
-195.19895062091769
10
-162.76548772840448
20
-195.19895062091737
42
-0.19891236737965801
10
-164.17970129077759
20
-194.61316418329045
10
-168.00812841552383
20
-190.78473705854429
42
-0.19891236737965801
10
-168.59391485315072
20
-189.37052349617116
10
-168.59391485315064
20
-165.1989506209172
10
-164.59391485315064
20
-165.1989506209172
10
-164.59391485315064
20
-157.19895062091717
10
-156.59391485315058
20
-157.19895062091717
10
-156.59391485315058
20
-165.19895062091723
10
64.250762155816474
20
-165.19895062091757
10
64.250762155816446
20
-157.1989506209174
10
72.250762155816489
20
-157.19895062091746
10
72.250762155816503
20
-165.19895062091746
10
76.250762155816531
20
-165.19895062091751
10
76.250762155816489
20
-189.37052349617147
42
-0.19891236737965556
10
75.664975718189595
20
-190.78473705854458
0
CIRCLE
5
379
100
AcDbEntity
8
0
100
AcDbCircle
10
-30.171576348667006
20
-180.19895062091751
30
0
40
3.0000000000000226
0
CIRCLE
5
380
100
AcDbEntity
8
0
100
AcDbCircle
10
-62.171576348667202
20
-180.19895062091746
30
0
40
3.0000000000000226
0
CIRCLE
5
381
100
AcDbEntity
8
0
100
AcDbCircle
10
-155.67157634866771
20
-180.19895062091732
30
-3.5527136788005009e-14
40
3.5000000000000142
0
CIRCLE
5
382
100
AcDbEntity
8
0
100
AcDbCircle
10
63.328423651333559
20
-180.19895062091757
30
0
40
4.500000000000016
0
LWPOLYLINE
5
383
100
AcDbEntity
8
0
100
AcDbPolyline
90
18
70
1
43
0.0
10
203.33957348263903
20
-65.387171775879054
42
-0.1989123673796572
10
201.92535992026592
20
-65.972958213505962
10
177.75378704501207
20
-65.972958213505933
10
177.75378704501207
20
-61.972958213505933
10
169.75378704501207
20
-61.97295821350594
10
169.7537870450121
20
-53.972958213505947
10
177.7537870450121
20
-53.972958213505947
10
177.75378704501202
20
103.87171879545983
10
169.75378704501202
20
103.87171879545986
10
169.75378704501202
20
111.87171879545986
10
177.75378704501205
20
111.87171879545986
10
177.75378704501205
20
115.87171879545983
10
201.92535992026586
20
115.87171879545984
42
-0.19891236737965801
10
203.33957348263894
20
115.28593235783293
10
207.16800060738518
20
111.45750523308676
42
-0.19891236737965801
10
207.75378704501207
20
110.04329167071367
10
207.7537870450121
20
-60.144531088759727
42
-0.19891236737966239
10
207.16800060738521
20
-61.558744651132855
0
CIRCLE
5
384
100
AcDbEntity
8
0
100
AcDbCircle
10
192.75378704501205
20
102.94938029097696
30
7.1054273576010019e-14
40
4.4999999999999956
0
CIRCLE
5
385
100
AcDbEntity
8
0
100
AcDbCircle
10
192.7537870450121
20
-53.050619709023067
30
7.1054273576010019e-14
40
3.4999999999999987
0
CIRCLE
5
386
100
AcDbEntity
8
0
100
AcDbCircle
10
192.75378704501213
20
8.9493802909769293
30
3.5527136788005009e-14
40
3.0000000000000093
0
CIRCLE
5
387
100
AcDbEntity
8
0
100
AcDbCircle
10
192.7537870450121
20
40.949380290976961
30
7.1054273576010019e-14
40
3.0000000000000093
0
LWPOLYLINE
5
388
100
AcDbEntity
8
0
100
AcDbPolyline
90
18
70
1
43
0.0
10
-121.15925436037513
20
-122.23881288799021
42
-0.19891236737965801
10
-122.57346792274822
20
-121.65302645036331
10
-126.40189504749443
20
-117.8245993256171
42
-0.19891236737966031
10
-126.98768148512133
20
-116.41038576324402
10
-126.98768148512147
20
53.777436996229362
42
-0.19891236737965892
10
-126.40189504749456
20
55.191650558602454
10
-122.57346792274836
20
59.02007768334861
42
-0.19891236737965962
10
-121.15925436037526
20
59.605864120975525
10
-96.987681485121385
20
59.605864120975554
10
-96.987681485121385
20
55.605864120975554
10
-88.987681485121357
20
55.605864120975554
10
-88.987681485121357
20
47.605864120975539
10
-96.987681485121385
20
47.605864120975539
10
-96.987681485121271
20
-110.23881288799021
10
-88.987681485121243
20
-110.23881288799019
10
-88.987681485121215
20
-118.23881288799021
10
-96.987681485121243
20
-118.23881288799021
10
-96.987681485121243
20
-122.23881288799021
0
CIRCLE
5
389
100
AcDbEntity
8
0
100
AcDbCircle
10
-111.98768148512143
20
46.683525616492645
30
0
40
4.5000000000000071
0
CIRCLE
5
390
100
AcDbEntity
8
0
100
AcDbCircle
10
-111.98768148512131
20
-109.31647438350734
30
0
40
3.5000000000000075
0
CIRCLE
5
391
100
AcDbEntity
8
0
100
AcDbCircle
10
-111.98768148512139
20
-47.316474383507348
30
0
40
3.0000000000000164
0
CIRCLE
5
392
100
AcDbEntity
8
0
100
AcDbCircle
10
-111.98768148512143
20
-15.316474383507348
30
3.5527136788005009e-14
40
3.0000000000000164
0
CIRCLE
5
393
100
AcDbEntity
8
0
100
AcDbCircle
10
42.968317786669544
20
57.382316324691232
30
0
40
2.1000000000000005
0
CIRCLE
5
394
100
AcDbEntity
8
0
100
AcDbCircle
10
-7.0316822133304324
20
57.382316324691942
30
7.1054273576010019e-14
40
2.1000000000000005
0
CIRCLE
5
395
100
AcDbEntity
8
0
100
AcDbCircle
10
-7.0316822133311696
20
7.3823163246920132
30
0
40
2.1000000000000005
0
LWPOLYLINE
5
396
100
AcDbEntity
8
0
100
AcDbPolyline
90
8
70
1
43
0.0
10
66.468317786668777
20
5.3823163246908532
42
-0.41421356237309426
10
58.468317786668678
20
-2.6176836753089812
10
-22.531682213331266
20
-2.6176836753078669
42
-0.41421356237309453
10
-30.531682213331152
20
5.3823163246922157
10
-30.531682213330278
20
59.38231632469212
42
-0.41421356237309664
10
-22.531682213330235
20
67.382316324691956
10
58.468317786669708
20
67.38231632469089
42
-0.41421356237309598
10
66.468317786669587
20
59.382316324690763
0
CIRCLE
5
397
100
AcDbEntity
8
0
100
AcDbCircle
10
42.968317786668791
20
7.3823163246913026
30
0
40
2.1000000000000005
0
CIRCLE
5
398
100
AcDbEntity
8
0
100
AcDbCircle
10
17.968317786669218
20
32.382316324691516
30
0
40
18.499999999999947
0
LWPOLYLINE
5
399
100
AcDbEntity
8
0
100
AcDbPolyline
90
4
70
1
43
0.0
10
55.718317786669516
20
54.382316324690969
42
-0.99999999999999989
10
61.218317786669523
20
54.382316324690841
10
61.21831778666936
20
43.382316324690848
42
-0.99999999999999989
10
55.718317786669367
20
43.382316324690933
0
LWPOLYLINE
5
400
100
AcDbEntity
8
0
100
AcDbPolyline
90
4
70
1
43
0.0
10
-19.781682213330964
20
21.382316324692809
10
-19.781682213331067
20
10.382316324691303
42
-0.99999999999999989
10
-25.281682213331109
20
10.382316324692951
10
-25.281682213330896
20
21.382316324691473
42
-0.99999999999999989
0
LWPOLYLINE
5
401
100
AcDbEntity
8
0
100
AcDbPolyline
90
4
70
1
43
0.0
10
55.718317786669061
20
21.382316324690361
42
-0.99999999999999989
10
61.218317786669004
20
21.382316324691647
10
61.218317786668891
20
10.382316324690237
42
-0.99999999999999989
10
55.718317786668848
20
10.382316324691743
0
LWPOLYLINE
5
402
100
AcDbEntity
8
0
100
AcDbPolyline
90
4
70
1
43
0.0
10
-19.781682213330612
20
43.38231632469202
42
-0.99999999999999989
10
-25.281682213330583
20
43.382316324692034
10
-25.281682213330452
20
54.382316324692084
42
-0.99999999999999989
10
-19.781682213330424
20
54.382316324691999
0
LINE
5
403
100
AcDbEntity
8
0
100
AcDbLine
10
-180.89368841867014
20
-118.53313349956414
30
3.5527136788005009e-14
11
-180.89368841867017
21
40.982206866182679
31
2.1783652833031413e-14
0
LINE
5
404
100
AcDbEntity
8
0
100
AcDbLine
10
-180.89368841867014
20
-118.53313349956414
30
3.5527136788005009e-14
11
-243.4232145821093
21
-118.53313349956416
31
3.9811142589538108e-15
0
LINE
5
405
100
AcDbEntity
8
0
100
AcDbLine
10
-243.4232145821093
20
-118.53313349956416
30
3.9811142589538108e-15
11
-243.4232145821093
21
-68.533133499564258
31
3.5457747848943395e-14
0
LINE
5
406
100
AcDbEntity
8
0
100
AcDbLine
10
-243.4232145821093
20
-68.533133499564258
30
3.5457747848943395e-14
11
-251.4232145821093
21
-68.533133499564258
31
5.0934200250269055e-16
0
LINE
5
407
100
AcDbEntity
8
0
100
AcDbLine
10
-251.4232145821093
20
-52.533133499564272
30
0
11
-251.4232145821093
21
-68.533133499564258
31
5.0934200250269055e-16
0
LINE
5
408
100
AcDbEntity
8
0
100
AcDbLine
10
-243.4232145821093
20
-52.533133499564272
30
-3.5527136788005009e-14
11
-251.4232145821093
21
-52.533133499564272
31
0
0
LINE
5
409
100
AcDbEntity
8
0
100
AcDbLine
10
-243.4232145821093
20
-52.533133499564272
30
-3.5527136788005009e-14
11
-243.42321458210932
21
52.466866500435771
31
2.8275992658374308e-14
0
LINE
5
410
100
AcDbEntity
8
0
100
AcDbLine
10
-243.42321458210932
20
52.466866500435771
30
2.8275992658374308e-14
11
-251.42321458210932
21
52.466866500435771
31
5.0934200250269055e-16
0
LINE
5
411
100
AcDbEntity
8
0
100
AcDbLine
10
-251.4232145821093
20
68.466866500435771
30
3.5527136788005009e-14
11
-251.42321458210932
21
52.466866500435771
31
5.0934200250269055e-16
0
LINE
5
412
100
AcDbEntity
8
0
100
AcDbLine
10
-243.42321458210932
20
68.466866500435771
30
0
11
-251.4232145821093
21
68.466866500435771
31
3.5527136788005009e-14
0
LINE
5
413
100
AcDbEntity
8
0
100
AcDbLine
10
-243.42321458210932
20
68.466866500435771
30
0
11
-243.42321458210935
21
294.46708652049585
31
-1.7350364487294004e-15
0
LINE
5
414
100
AcDbEntity
8
0
100
AcDbLine
10
-243.42321458210935
20
294.46708652049585
30
-1.7350364487294004e-15
11
-251.42321458210938
21
294.46708652049597
31
-3.5017794785502319e-14
0
LINE
5
415
100
AcDbEntity
8
0
100
AcDbLine
10
-251.42321458210938
20
310.46708652049591
30
0
11
-251.42321458210938
21
294.46708652049597
31
-3.5017794785502319e-14
0
LINE
5
416
100
AcDbEntity
8
0
100
AcDbLine
10
-243.42321458210935
20
310.46708652049591
30
-3.5527136788005009e-14
11
-251.42321458210938
21
310.46708652049591
31
0
0
LINE
5
417
100
AcDbEntity
8
0
100
AcDbLine
10
-243.42321458210935
20
310.46708652049591
30
-3.5527136788005009e-14
11
-243.42321458210938
21
415.4670865204958
31
2.8275992658374498e-14
0
LINE
5
418
100
AcDbEntity
8
0
100
AcDbLine
10
-243.42321458210938
20
415.4670865204958
30
2.8275992658374498e-14
11
-251.42321458210938
21
415.4670865204958
31
3.60364787905077e-14
0
LINE
5
419
100
AcDbEntity
8
0
100
AcDbLine
10
-251.42321458210938
20
431.46708652049585
30
0
11
-251.42321458210938
21
415.4670865204958
31
3.60364787905077e-14
0
LINE
5
420
100
AcDbEntity
8
0
100
AcDbLine
10
-243.42321458210935
20
431.46708652049585
30
0
11
-251.42321458210938
21
431.46708652049585
31
0
0
LINE
5
421
100
AcDbEntity
8
0
100
AcDbLine
10
-243.42321458210935
20
431.46708652049585
30
0
11
-243.42321458210935
21
461.98264900707568
31
2.7646702220948171e-14
0
LINE
5
422
100
AcDbEntity
8
0
100
AcDbLine
10
-243.42321458210938
20
469.98264900707568
30
0
11
-243.42321458210938
21
481.46708652049551
31
1.9190831630406934e-14
0
LINE
5
423
100
AcDbEntity
8
0
100
AcDbLine
10
-243.42321458210938
20
481.46708652049551
30
1.9190831630406934e-14
11
-186.72211554341646
21
481.46708652049551
31
-3.6100314160589059e-15
0
ARC
5
424
100
AcDbEntity
8
0
100
AcDbCircle
10
-186.72211554341646
20
479.46708652049551
30
0
40
1.999999999999996
100
AcDbArc
50
45.000000000000568
51
90
0
LINE
5
425
100
AcDbEntity
8
0
100
AcDbLine
10
-181.47947485629714
20
477.05287295812241
30
0
11
-185.30790198104339
21
480.88130008286862
31
5.2740636089415053e-31
0
ARC
5
426
100
AcDbEntity
8
0
100
AcDbCircle
10
-182.89368841867025
20
475.6386593957493
30
0
40
1.9999999999999929
100
AcDbArc
50
0
51
45
0
LINE
5
427
100
AcDbEntity
8
0
100
AcDbLine
10
-180.89368841867025
20
475.6386593957493
30
-5.0207613451712759e-31
11
-180.89368841867017
21
158.98220686618271
31
-1.1417444985410304e-14
0
LINE
5
428
100
AcDbEntity
8
0
100
AcDbLine
10
-180.89368841867017
20
158.98220686618271
30
-1.1417444985410304e-14
11
-195.89368996166317
21
158.98220686618274
31
9.5501635293143843e-16
0
LINE
5
429
100
AcDbEntity
8
0
100
AcDbLine
10
-195.89368996166317
20
158.98220686618274
30
9.5501635293143843e-16
11
-195.89368996166317
21
169.57804381014853
31
2.0454842170657949e-14
0
ARC
5
430
100
AcDbEntity
8
0
100
AcDbCircle
10
-197.09577148967921
20
170.78012533816676
30
0
40
1.6999999999999917
100
AcDbArc
50
-45.000000000052154
51
135.00000000005758
0
LINE
5
431
100
AcDbEntity
8
0
100
AcDbLine
10
-198.29785301769755
20
171.98220686618268
30
3.7147372743563077e-32
11
-205.48952690562669
21
171.98220686618271
31
4.5787769742801711e-16
0
ARC
5
432
100
AcDbEntity
8
0
100
AcDbCircle
10
-206.69160843364497
20
170.78012533816676
30
0
40
1.6999999999999917
100
AcDbArc
50
44.99999999994445
51
224.99999999994918
0
LINE
5
433
100
AcDbEntity
8
0
100
AcDbLine
10
-207.89368996166317
20
169.57804381015069
30
-8.159776910334338e-32
11
-207.89368996166314
21
30.386369922216883
31
-1.5166387957763365e-14
0
ARC
5
434
100
AcDbEntity
8
0
100
AcDbCircle
10
-206.69160843364548
20
29.184288394200294
30
0
40
1.6999999999999884
100
AcDbArc
50
135.00000000002549
51
314.99999999997755
0
LINE
5
435
100
AcDbEntity
8
0
100
AcDbLine
10
-198.29785301769633
20
27.98220686618269
30
0
11
-205.48952690562882
21
27.98220686618269
31
-3.7147372743614722e-32
0
ARC
5
436
100
AcDbEntity
8
0
100
AcDbCircle
10
-197.09577148967969
20
29.184288394200312
30
0
40
1.6999999999999917
100
AcDbArc
50
-134.99999999997647
51
45.000000000028869
0
LINE
5
437
100
AcDbEntity
8
0
100
AcDbLine
10
-195.89368996166317
20
40.982206866182693
30
3.5527136788005009e-14
11
-195.89368996166317
21
30.386369922218044
31
8.1597769103333232e-32
0
LINE
5
438
100
AcDbEntity
8
0
100
AcDbLine
10
-195.89368996166317
20
40.982206866182693
30
3.5527136788005009e-14
11
-180.89368841867017
21
40.982206866182679
31
2.1783652833031413e-14
0
LWPOLYLINE
5
439
100
AcDbEntity
8
0
100
AcDbPolyline
90
4
70
1
43
0.0
10
-227.62437434417788
20
-105.01735099292446
10
-219.62437408937427
20
-105.01735099292446
10
-219.6243740893743
20
-113.01735099292443
10
-227.62437421677686
20
-113.01735099292443
0
LWPOLYLINE
5
440
100
AcDbEntity
8
0
100
AcDbPolyline
90
4
70
1
43
0.0
10
-227.62437434417788
20
469.98264900707579
10
-219.62437408937438
20
469.98264900707579
10
-219.62437408937444
20
461.98264900707585
10
-227.62437434417791
20
461.98264900707585
0
LWPOLYLINE
5
441
100
AcDbEntity
8
0
100
AcDbPolyline
90
4
70
1
43
0.0
10
-192.62437434417805
20
469.98264900707579
10
-184.62437408937458
20
469.98264900707579
10
-184.62437408937458
20
461.98264900707585
10
-192.62437434417805
20
461.98264900707585
0
LWPOLYLINE
5
442
100
AcDbEntity
8
0
100
AcDbPolyline
90
4
70
1
43
0.0
10
-207.89368988917488
20
21.059868361699799
10
-207.89368988917488
20
13.059868361699806
10
-215.89368988917485
20
13.059868361699804
10
-215.89368988917488
20
21.059868361699795
0
LWPOLYLINE
5
443
100
AcDbEntity
8
0
100
AcDbPolyline
90
4
70
1
43
0.0
10
-207.89368988917488
20
186.9045453706656
10
-207.89368988917488
20
178.9045453706656
10
-215.89368988917488
20
178.9045453706656
10
-215.89368988917488
20
186.9045453706656
0
ARC
5
444
100
AcDbEntity
8
0
100
AcDbCircle
10
-185.82645574479437
20
21.183846253307305
30
0
40
1.6999999999999902
100
AcDbArc
50
-134.99999999997806
51
45.000000000030219
0
LINE
5
445
100
AcDbEntity
8
0
100
AcDbLine
10
-184.62437421677788
20
25.577601669255312
30
0
11
-184.62437421677788
21
22.385927781325066
31
8.1597769103333045e-32
0
ARC
5
446
100
AcDbEntity
8
0
100
AcDbCircle
10
-185.82645574479437
20
26.77968319727308
30
0
40
1.6999999999999948
100
AcDbArc
50
-45.000000000030383
51
135.00000000002322
0
LINE
5
447
100
AcDbEntity
8
0
100
AcDbLine
10
-190.22021116074251
20
27.98176472528969
30
0
11
-187.02853727281197
21
27.981764725289707
31
-7.3030236161709672e-33
0
ARC
5
448
100
AcDbEntity
8
0
100
AcDbCircle
10
-191.42229268876011
20
26.77968319727308
30
0
40
1.6999999999999791
100
AcDbArc
50
44.999999999976382
51
224.99999999997061
0
LINE
5
449
100
AcDbEntity
8
0
100
AcDbLine
10
-192.62437421677788
20
22.385927781323826
30
0
11
-192.62437421677785
21
25.57760166925657
31
-8.1597769103340621e-32
0
ARC
5
450
100
AcDbEntity
8
0
100
AcDbCircle
10
-191.42229268876014
20
21.183846253307287
30
0
40
1.700000000000004
100
AcDbArc
50
135.00000000002871
51
314.99999999997908
0
LINE
5
451
100
AcDbEntity
8
0
100
AcDbLine
10
-187.02853727281104
20
19.981764725289722
30
-8.1597769103334107e-32
11
-190.22021116074345
21
19.981764725289718
31
7.3030236161070055e-33
0
ARC
5
452
100
AcDbEntity
8
0
100
AcDbCircle
10
-220.82645574479449
20
26.77968319727308
30
0
40
1.6999999999999948
100
AcDbArc
50
-45.000000000024329
51
135.0000000000237
0
LINE
5
453
100
AcDbEntity
8
0
100
AcDbLine
10
-225.22021116074262
20
27.98176472528969
30
0
11
-222.02853727281212
21
27.981764725289715
31
3.71473727435846e-32
0
ARC
5
454
100
AcDbEntity
8
0
100
AcDbCircle
10
-226.42229268876025
20
26.779683197273062
30
0
40
1.6999999999999917
100
AcDbArc
50
44.999999999976119
51
224.99999999997775
0
LINE
5
455
100
AcDbEntity
8
0
100
AcDbLine
10
-227.62437421677785
20
22.385927781323986
30
0
11
-227.62437421677785
21
25.577601669256396
31
-3.7147372743586018e-32
0
ARC
5
456
100
AcDbEntity
8
0
100
AcDbCircle
10
-226.42229268876031
20
21.183846253307284
30
0
40
1.6999999999999948
100
AcDbArc
50
135.00000000002007
51
314.99999999997971
0
LINE
5
457
100
AcDbEntity
8
0
100
AcDbLine
10
-222.02853727281121
20
19.981764725289718
30
0
11
-225.22021116074359
21
19.981764725289711
31
-3.714737274361366e-32
0
ARC
5
458
100
AcDbEntity
8
0
100
AcDbCircle
10
-220.82645574479454
20
21.183846253307284
30
0
40
1.6999999999999773
100
AcDbArc
50
-134.99999999997848
51
45.000000000022268
0
LINE
5
459
100
AcDbEntity
8
0
100
AcDbLine
10
-219.62437421677788
20
25.577601669255454
30
-3.7147372743615303e-32
11
-219.62437421677788
21
22.385927781324881
31
3.7147372743614673e-32
0
LWPOLYLINE
5
460
100
AcDbEntity
8
0
100
AcDbPolyline
90
8
70
1
43
0.0
10
-223.89368988917499
20
121.57804381015043
42
-0.99999999999999989
10
-221.48952683313877
20
123.98220686618271
10
-218.29785294520741
20
123.98220686618455
42
-0.99999999999999989
10
-215.89368988917485
20
121.57804381014853
10
-215.89368988917488
20
78.386369922218307
42
-0.99999999999999989
10
-218.29785294520778
20
75.982206866182707
10
-221.48952683313934
20
75.982206866183986
42
-0.99999999999999989
10
-223.89368988917485
20
78.386369922216986
0
ARC
5
461
100
AcDbEntity
8
0
100
AcDbCircle
10
-191.42229268875963
20
178.78056747905973
30
0
40
1.7000000000000168
100
AcDbArc
50
44.999999999943107
51
224.99999999994515
0
LINE
5
462
100
AcDbEntity
8
0
100
AcDbLine
10
-192.62437421677791
20
177.57848595104375
30
-8.1597769103343927e-32
11
-192.62437421677788
21
174.38681206311
31
4.540070729271391e-15
0
ARC
5
463
100
AcDbEntity
8
0
100
AcDbCircle
10
-191.42229268875963
20
173.18473053509399
30
0
40
1.6999999999999915
100
AcDbArc
50
135.00000000005352
51
314.99999999994583
0
LINE
5
464
100
AcDbEntity
8
0
100
AcDbLine
10
-190.22021116074364
20
171.98264900707574
30
7.3030236160586649e-33
11
-187.02853727280981
21
171.98264900707571
31
-2.0320669617697266e-16
0
ARC
5
465
100
AcDbEntity
8
0
100
AcDbCircle
10
-185.82645574479386
20
173.18473053509399
30
0
40
1.6999999999999917
100
AcDbArc
50
-134.99999999994449
51
45.000000000056225
0
LINE
5
466
100
AcDbEntity
8
0
100
AcDbLine
10
-184.62437421677791
20
174.3868120631123
30
8.1597769103329794e-32
11
-184.62437421677788
21
177.57848595104144
31
-4.5400707292647701e-15
0
ARC
5
467
100
AcDbEntity
8
0
100
AcDbCircle
10
-185.82645574479383
20
178.78056747905981
30
0
40
1.7000000000000419
100
AcDbArc
50
-45.000000000057561
51
135.0000000000596
0
LINE
5
468
100
AcDbEntity
8
0
100
AcDbLine
10
-187.0285372728122
20
179.98264900707568
30
-7.303023616220471e-33
11
-190.22021116074129
21
179.98264900707568
31
8.1597769103344146e-32
0
LWPOLYLINE
5
469
100
AcDbEntity
8
0
100
AcDbPolyline
90
8
70
1
43
0.0
10
-219.62437421677805
20
174.38681206311233
42
-0.99999999999999989
10
-222.02853727280996
20
171.98264900707568
10
-225.22021116074166
20
171.9826490070779
42
-0.99999999999999989
10
-227.62437421677788
20
174.38681206311009
10
-227.62437421677814
20
177.57848595104392
42
-0.99999999999999989
10
-225.2202111607414
20
179.98264900707568
10
-222.02853727281007
20
179.98264900707798
42
-0.99999999999999989
10
-219.62437421677788
20
177.57848595104161
0
LWPOLYLINE
5
470
100
AcDbEntity
8
0
100
AcDbPolyline
90
4
70
1
43
0.0
10
-238.42321465459747
20
-73.632327056514583
10
-238.42321465459747
20
-38.632327056514569
42
-0.99999999999999989
10
-232.42321465459747
20
-38.632327056514569
10
-232.42321465459747
20
-73.632327056514583
42
-0.99999999999999989
0
LWPOLYLINE
5
471
100
AcDbEntity
8
0
100
AcDbPolyline
90
4
70
1
43
0.0
10
-238.42321465459759
20
265.56528210705801
42
-0.99999999999999989
10
-232.42321465459756
20
265.56528210705801
10
-232.42321465459759
20
220.56528210705804
42
-0.99999999999999989
10
-238.42321465459753
20
220.56528210705804
0
LWPOLYLINE
5
472
100
AcDbEntity
8
0
100
AcDbPolyline
90
4
70
1
43
0.0
10
-232.42321465459759
20
383.56528210705824
42
-0.99999999999999989
10
-238.42321465459761
20
383.56528210705824
10
-238.42321465459761
20
428.56528210705824
42
-0.99999999999999989
10
-232.42321465459759
20
428.56528210705824
0
LWPOLYLINE
5
473
100
AcDbEntity
8
0
100
AcDbPolyline
90
4
70
1
43
0.0
10
-184.62437421677686
20
-113.01735099292438
10
-184.62437421677686
20
-105.0173509929248
10
-192.62437434417805
20
-105.01735099292446
10
-192.62437421677686
20
-113.01735099292438
0
LINE
5
474
100
AcDbEntity
8
0
100
AcDbLine
10
-270.97848301801918
20
-122.48590950847671
30
5.3290705182007514e-14
11
-270.97848301801912
21
-72.485909508476553
31
6.6041262604898216e-14
0
LINE
5
475
100
AcDbEntity
8
0
100
AcDbLine
10
-333.50800918145853
20
-122.48590950847664
30
1.7763568394002505e-14
11
-270.97848301801918
21
-122.48590950847671
31
5.3290705182007514e-14
0
LINE
5
476
100
AcDbEntity
8
0
100
AcDbLine
10
-333.50800918145853
20
-122.48590950847664
30
1.7763568394002505e-14
11
-333.50800918145842
21
37.029430857270995
31
3.3917134168141645e-14
0
LINE
5
477
100
AcDbEntity
8
0
100
AcDbLine
10
-318.50800763846536
20
37.029430857270988
30
1.7763568394002505e-14
11
-333.50800918145842
21
37.029430857270995
31
3.3917134168141645e-14
0
LINE
5
478
100
AcDbEntity
8
0
100
AcDbLine
10
-318.50800763846536
20
26.433593913306296
30
3.5527136788005009e-14
11
-318.50800763846536
21
37.029430857270988
31
1.7763568394002505e-14
0
ARC
5
479
100
AcDbEntity
8
0
100
AcDbCircle
10
-317.30592611044881
20
25.231512385288553
30
1.7763568394002505e-14
40
1.7000000000000011
100
AcDbArc
50
134.99999999997155
51
314.9999999999759
0
LINE
5
480
100
AcDbEntity
8
0
100
AcDbLine
10
-308.91217069449971
20
24.029430857270924
30
1.7763568394002505e-14
11
-316.1038445824322
21
24.029430857270935
31
1.7763568394002505e-14
0
ARC
5
481
100
AcDbEntity
8
0
100
AcDbCircle
10
-307.71008916648304
20
25.231512385288525
30
1.7763568394002505e-14
40
1.7000000000000011
100
AcDbArc
50
-134.99999999997766
51
44.999999999972225
0
LINE
5
482
100
AcDbEntity
8
0
100
AcDbLine
10
-306.5080076384653
20
165.62526780123966
30
1.7763568394002505e-14
11
-306.5080076384653
21
26.433593913305103
31
1.7763568394002505e-14
0
ARC
5
483
100
AcDbEntity
8
0
100
AcDbCircle
10
-307.7100891664835
20
166.82734932925572
30
1.7763568394002505e-14
40
1.6999999999999915
100
AcDbArc
50
-44.99999999994921
51
135.00000000005622
0
LINE
5
484
100
AcDbEntity
8
0
100
AcDbLine
10
-308.91217069450181
20
168.02943085727168
30
1.7763568394002505e-14
11
-316.10384458243095
21
168.02943085727168
31
1.6312684566111853e-14
0
ARC
5
485
100
AcDbEntity
8
0
100
AcDbCircle
10
-317.30592611044932
20
166.82734932925572
30
1.7763568394002505e-14
40
1.7000000000000168
100
AcDbArc
50
44.999999999942425
51
225.0000000000542
0
LINE
5
486
100
AcDbEntity
8
0
100
AcDbLine
10
-318.5080076384653
20
165.62526780123747
30
1.7763568394002505e-14
11
-318.5080076384653
21
155.02943085727165
31
4.0353875209885995e-14
0
LINE
5
487
100
AcDbEntity
8
0
100
AcDbLine
10
-333.50800918145836
20
155.02943085727168
30
3.5527136788005009e-14
11
-318.5080076384653
21
155.02943085727165
31
4.0353875209885995e-14
0
LINE
5
488
100
AcDbEntity
8
0
100
AcDbLine
10
-333.50800918145819
20
458.02987299816613
30
3.5527136788005009e-14
11
-333.50800918145836
21
155.02943085727168
31
3.5527136788005009e-14
0
LINE
5
489
100
AcDbEntity
8
0
100
AcDbLine
10
-333.50800918145819
20
471.68588338683981
30
5.3290705182007514e-14
11
-333.50800918145819
21
466.02987299816618
31
5.5867196572158252e-14
0
ARC
5
490
100
AcDbEntity
8
0
100
AcDbCircle
10
-331.50800918145819
20
471.68588338683981
30
1.7763568394002505e-14
40
1.999999999999996
100
AcDbArc
50
135
51
180
0
LINE
5
491
100
AcDbEntity
8
0
100
AcDbLine
10
-329.09379561908514
20
476.92852407395918
30
0
11
-332.9222227438313
21
473.10009694921291
31
1.7763568394002505e-14
0
ARC
5
492
100
AcDbEntity
8
0
100
AcDbCircle
10
-327.67958205671198
20
475.51431051158607
30
0
40
2.0000000000000284
100
AcDbArc
50
90
51
135.00000000000117
0
LINE
5
493
100
AcDbEntity
8
0
100
AcDbLine
10
-270.97848301801895
20
477.51431051158613
30
1.7763568394002505e-14
11
-327.67958205671198
21
477.51431051158613
31
0
0
LINE
5
494
100
AcDbEntity
8
0
100
AcDbLine
10
-270.97848301801895
20
466.02987299816618
30
5.3290705182007514e-14
11
-270.97848301801895
21
477.51431051158613
31
1.7763568394002505e-14
0
LINE
5
495
100
AcDbEntity
8
0
100
AcDbLine
10
-270.97848301801895
20
427.51431051158613
30
7.1054273576010019e-14
11
-270.97848301801895
21
458.02987299816613
31
5.7153470959076081e-14
0
LINE
5
496
100
AcDbEntity
8
0
100
AcDbLine
10
-270.97848301801895
20
427.51431051158613
30
7.1054273576010019e-14
11
-262.97848301801889
21
427.51431051158613
31
3.7141096320097685e-14
0
LINE
5
497
100
AcDbEntity
8
0
100
AcDbLine
10
-262.97848301801889
20
411.51431051158602
30
-1.7763568394002505e-14
11
-262.97848301801889
21
427.51431051158613
31
3.7141096320097685e-14
0
LINE
5
498
100
AcDbEntity
8
0
100
AcDbLine
10
-270.97848301801895
20
411.51431051158602
30
3.5527136788005009e-14
11
-262.97848301801889
21
411.51431051158602
31
-1.7763568394002505e-14
0
LINE
5
499
100
AcDbEntity
8
0
100
AcDbLine
10
-270.97848301801901
20
306.51431051158556
30
5.3290705182007514e-14
11
-270.97848301801895
21
411.51431051158602
31
3.5527136788005009e-14
0
LINE
5
500
100
AcDbEntity
8
0
100
AcDbLine
10
-270.97848301801901
20
306.51431051158556
30
5.3290705182007514e-14
11
-262.97848301801901
21
306.51431051158556
31
3.7141096320097685e-14
0
LINE
5
501
100
AcDbEntity
8
0
100
AcDbLine
10
-262.97848301801901
20
306.51431051158556
30
3.7141096320097685e-14
11
-262.97848301801901
21
290.51431051158551
31
-1.047506299716594e-14
0
LINE
5
502
100
AcDbEntity
8
0
100
AcDbLine
10
-262.97848301801901
20
290.51431051158551
30
-1.047506299716594e-14
11
-270.97848301801901
21
290.51431051158551
31
3.3913177255912334e-14
0
LINE
5
503
100
AcDbEntity
8
0
100
AcDbLine
10
-270.97848301801912
20
64.514090491524186
30
5.3290705182007514e-14
11
-270.97848301801901
21
290.51431051158551
31
3.3913177255912334e-14
0
LINE
5
504
100
AcDbEntity
8
0
100
AcDbLine
10
-270.97848301801912
20
64.514090491524186
30
5.3290705182007514e-14
11
-262.97848301801912
21
64.514090491524186
31
3.7141096320097685e-14
0
LINE
5
505
100
AcDbEntity
8
0
100
AcDbLine
10
-262.97848301801912
20
64.514090491524186
30
3.7141096320097685e-14
11
-262.97848301801912
21
48.514090491524101
31
-1.0475062997165933e-14
0
LINE
5
506
100
AcDbEntity
8
0
100
AcDbLine
10
-262.97848301801912
20
48.514090491524101
30
-1.0475062997165933e-14
11
-270.97848301801912
21
48.514090491524115
31
1.6149608861909829e-14
0
LINE
5
507
100
AcDbEntity
8
0
100
AcDbLine
10
-270.97848301801918
20
-56.485909508476475
30
5.3290705182007514e-14
11
-270.97848301801912
21
48.514090491524115
31
1.6149608861909829e-14
0
LINE
5
508
100
AcDbEntity
8
0
100
AcDbLine
10
-270.97848301801918
20
-56.485909508476475
30
5.3290705182007514e-14
11
-262.97848301801918
21
-56.485909508476482
31
1.937752792609518e-14
0
LINE
5
509
100
AcDbEntity
8
0
100
AcDbLine
10
-262.97848301801912
20
-72.485909508476553
30
1.7763568394002505e-14
11
-262.97848301801918
21
-56.485909508476482
31
1.937752792609518e-14
0
LINE
5
510
100
AcDbEntity
8
0
100
AcDbLine
10
-270.97848301801912
20
-72.485909508476553
30
6.6041262604898216e-14
11
-262.97848301801912
21
-72.485909508476553
31
1.7763568394002505e-14
0
LWPOLYLINE
5
511
100
AcDbEntity
8
0
100
AcDbPolyline
90
4
70
1
43
0.0
10
-294.77732338335164
20
-108.97012700183707
10
-294.77732338335164
20
-116.97012700183708
10
-286.77732338335164
20
-116.97012700183708
10
-286.77732338335159
20
-108.97012700183706
0
LINE
5
512
100
AcDbEntity
8
0
100
AcDbLine
10
-294.77733364247166
20
466.02987299816573
30
1.7763568394002505e-14
11
-294.77733364247166
21
458.02987299816613
31
2.1407821092420613e-14
0
LINE
5
513
100
AcDbEntity
8
0
100
AcDbLine
10
-294.77732351075394
20
458.02987299816613
30
0
11
-286.77732325595048
21
458.02987299816613
31
1.6139595834979824e-15
0
LINE
5
514
100
AcDbEntity
8
0
100
AcDbLine
10
-286.77731312423271
20
458.02987299816613
30
0
11
-286.77731312423271
21
466.02987299816573
31
-3.6442526984181086e-15
0
LINE
5
515
100
AcDbEntity
8
0
100
AcDbLine
10
-286.77732325595048
20
466.02987299816618
30
1.7763568394002505e-14
11
-294.77732351075394
21
466.02987299816618
31
1.6149608810504516e-14
0
LINE
5
516
100
AcDbEntity
8
0
100
AcDbLine
10
-329.7773336424716
20
466.02987299816584
30
1.7763568394002505e-14
11
-329.7773336424716
21
458.02987299816613
31
2.1407821092420645e-14
0
LINE
5
517
100
AcDbEntity
8
0
100
AcDbLine
10
-329.77732351075389
20
458.02987299816613
30
1.7763568394002505e-14
11
-321.77732325595048
21
458.02987299816613
31
1.9377527977500487e-14
0
LINE
5
518
100
AcDbEntity
8
0
100
AcDbLine
10
-321.77731312423259
20
458.02987299816613
30
1.7763568394002505e-14
11
-321.77731312423259
21
466.02987299816584
31
1.4119315695584365e-14
0
LINE
5
519
100
AcDbEntity
8
0
100
AcDbLine
10
-321.77732325595036
20
466.02987299816618
30
1.7763568394002505e-14
11
-329.77732351075389
21
466.02987299816618
31
1.6149608810504516e-14
0
LWPOLYLINE
5
520
100
AcDbEntity
8
0
100
AcDbPolyline
90
4
70
1
43
0.0
10
-275.97848294553097
20
-42.585103065426686
10
-275.97848294553103
20
-77.585103065426878
42
-0.99999999999999989
10
-281.97848294553097
20
-77.585103065426892
10
-281.97848294553091
20
-42.585103065426722
42
-0.99999999999999989
0
LWPOLYLINE
5
521
100
AcDbEntity
8
0
100
AcDbPolyline
90
4
70
1
43
0.0
10
-298.50800771095356
20
174.95176936175466
10
-306.50800771095356
20
174.95176936175466
10
-306.50800771095356
20
182.95176936175466
10
-298.50800771095356
20
182.95176936175466
0
ARC
5
522
100
AcDbEntity
8
0
100
AcDbCircle
10
-322.97940491136893
20
174.82779147014878
30
1.7763568394002505e-14
40
1.7000000000000168
100
AcDbArc
50
-44.999999999944478
51
135.00000000005485
0
LINE
5
523
100
AcDbEntity
8
0
100
AcDbLine
10
-324.18148643938719
20
176.02987299816473
30
1.7763568394002505e-14
11
-327.37316032731633
21
176.02987299816471
31
1.7119664332158197e-14
0
ARC
5
524
100
AcDbEntity
8
0
100
AcDbCircle
10
-328.5752418553347
20
174.82779147014881
30
1.7763568394002505e-14
40
1.6999999999999915
100
AcDbArc
50
44.999999999941082
51
225.00000000005619
0
LINE
5
525
100
AcDbEntity
8
0
100
AcDbLine
10
-329.77732338335068
20
173.62570994213047
30
1.7763568394002505e-14
11
-329.77732338335068
21
170.43403605420133
31
3.6981045060324634e-14
0
ARC
5
526
100
AcDbEntity
8
0
100
AcDbCircle
10
-328.57524185533464
20
169.23195452618302
30
1.7763568394002505e-14
40
1.7000000000000419
100
AcDbArc
50
134.9999999999458
51
314.99999999994242
0
LINE
5
527
100
AcDbEntity
8
0
100
AcDbLine
10
-327.37316032731871
20
168.02987299816468
30
1.7763568394002505e-14
11
-324.18148643938486
21
168.02987299816468
31
1.8407472455847778e-14
0
ARC
5
528
100
AcDbEntity
8
0
100
AcDbCircle
10
-322.97940491136887
20
169.23195452618299
30
1.7763568394002505e-14
40
1.7000000000000419
100
AcDbArc
50
-134.99999999994444
51
44.99999999994445
0
LINE
5
529
100
AcDbEntity
8
0
100
AcDbLine
10
-321.77732338335056
20
170.43403605419897
30
1.7763568394002505e-14
11
-321.77732338335062
21
173.6257099421328
31
1.7763568394002505e-14
0
ARC
5
530
100
AcDbEntity
8
0
100
AcDbCircle
10
-293.57524185533441
20
169.23195452618299
30
1.7763568394002505e-14
40
1.7000000000000168
100
AcDbArc
50
134.99999999995259
51
314.99999999994242
0
LINE
5
531
100
AcDbEntity
8
0
100
AcDbLine
10
-292.37316032731849
20
168.02987299816465
30
1.7763568394002505e-14
11
-289.18148643938463
21
168.02987299816468
31
1.8407472455847778e-14
0
ARC
5
532
100
AcDbEntity
8
0
100
AcDbCircle
10
-287.97940491136865
20
169.23195452618296
30
1.7763568394002505e-14
40
1.6999999999999915
100
AcDbArc
50
-134.99999999994515
51
44.999999999952585
0
LINE
5
533
100
AcDbEntity
8
0
100
AcDbLine
10
-286.77732338335051
20
170.43403605419911
30
1.7763568394002505e-14
11
-286.77732338335056
21
173.62570994213263
31
3.4073228515683384e-14
0
ARC
5
534
100
AcDbEntity
8
0
100
AcDbCircle
10
-287.97940491136865
20
174.82779147014878
30
1.7763568394002505e-14
40
1.6999999999999917
100
AcDbArc
50
-44.999999999953943
51
135.00000000005826
0
LINE
5
535
100
AcDbEntity
8
0
100
AcDbLine
10
-289.18148643938702
20
176.02987299816471
30
1.7763568394002505e-14
11
-292.3731603273161
21
176.02987299816471
31
1.7119664332158206e-14
0
ARC
5
536
100
AcDbEntity
8
0
100
AcDbCircle
10
-293.57524185533447
20
174.82779147014878
30
1.7763568394002505e-14
40
1.7000000000000168
100
AcDbArc
50
44.99999999994175
51
225.00000000004943
0
LINE
5
537
100
AcDbEntity
8
0
100
AcDbLine
10
-294.77732338335056
20
173.62570994213061
30
1.7763568394002505e-14
11
-294.77732338335056
21
170.43403605420113
31
1.7763568394002505e-14
0
LINE
5
538
100
AcDbEntity
8
0
100
AcDbLine
10
-292.37316032731633
20
24.028988716377917
30
1.7763568394002505e-14
11
-289.18148643938582
21
24.028988716377917
31
1.8407472455847103e-14
0
ARC
5
539
100
AcDbEntity
8
0
100
AcDbCircle
10
-293.57524185533396
20
22.82690718836129
30
1.7763568394002505e-14
40
1.6999999999999917
100
AcDbArc
50
44.999999999976119
51
225.00000000002439
0
LINE
5
540
100
AcDbEntity
8
0
100
AcDbLine
10
-294.77732338335062
20
18.433151772413076
30
3.5527136788005009e-14
11
-294.77732338335056
21
21.62482566034366
31
1.7763568394002505e-14
0
ARC
5
541
100
AcDbEntity
8
0
100
AcDbCircle
10
-293.57524185533396
20
17.231070244395468
30
1.7763568394002505e-14
40
1.700000000000004
100
AcDbArc
50
134.99999999997749
51
314.99999999997976
0
LINE
5
542
100
AcDbEntity
8
0
100
AcDbLine
10
-289.18148643938486
20
16.028988716377896
30
1.7763568394002505e-14
11
-292.37316032731724
21
16.028988716377899
31
1.7763568394002505e-14
0
ARC
5
543
100
AcDbEntity
8
0
100
AcDbCircle
10
-287.97940491136819
20
17.231070244395465
30
1.7763568394002505e-14
40
1.700000000000004
100
AcDbArc
50
-134.99999999997843
51
44.999999999977902
0
LINE
5
544
100
AcDbEntity
8
0
100
AcDbLine
10
-286.77732338335056
20
21.624825660344591
30
3.5527136788005009e-14
11
-286.77732338335056
21
18.433151772412167
31
1.7763568394002505e-14
0
ARC
5
545
100
AcDbEntity
8
0
100
AcDbCircle
10
-287.97940491136819
20
22.826907188361272
30
1.7763568394002505e-14
40
1.7000000000000293
100
AcDbArc
50
-44.999999999977405
51
135.00000000002345
0
ARC
5
546
100
AcDbEntity
8
0
100
AcDbCircle
10
-297.30592618293713
20
73.231512385288966
30
0
40
1.6999999999999915
100
AcDbArc
50
134.99999999996751
51
314.9999999999672
0
LINE
5
547
100
AcDbEntity
8
0
100
AcDbLine
10
-292.9121707669878
20
72.029430857271166
30
3.5527136788005009e-14
11
-296.10384465492069
21
72.029430857271151
31
7.0455566246181829e-32
0
ARC
5
548
100
AcDbEntity
8
0
100
AcDbCircle
10
-291.71008923897136
20
73.231512385288937
30
0
40
1.699999999999998
100
AcDbArc
50
-134.99999999996817
51
44.999999999969177
0
LINE
5
549
100
AcDbEntity
8
0
100
AcDbLine
10
-290.50800771095356
20
74.433593913305444
30
-1.1188371099823078e-32
11
-290.50800771095351
21
117.62526780123899
31
5.1379101811596964e-14
0
ARC
5
550
100
AcDbEntity
8
0
100
AcDbCircle
10
-291.71008923897153
20
118.8273493292553
30
5.3290705182007514e-14
40
1.7000000000000419
100
AcDbArc
50
-44.999999999959037
51
135.00000000004744
0
LINE
5
551
100
AcDbEntity
8
0
100
AcDbLine
10
-292.91217076698968
20
120.02943085727145
30
5.3290705182007514e-14
11
-296.10384465491921
21
120.02943085727139
31
5.2646801120163114e-14
0
ARC
5
552
100
AcDbEntity
8
0
100
AcDbCircle
10
-297.30592618293736
20
118.82734932925527
30
5.3290705182007514e-14
40
1.6999999999999917
100
AcDbArc
50
44.99999999995191
51
225.00000000004198
0
LINE
5
553
100
AcDbEntity
8
0
100
AcDbLine
10
-298.50800771095362
20
117.62526780123724
30
5.3290705182007514e-14
11
-298.50800771095356
21
74.433593913306765
31
-7.0455566246181708e-32
0
LWPOLYLINE
5
554
100
AcDbEntity
8
0
100
AcDbPolyline
90
4
70
1
43
0.0
10
-298.50800771095362
20
9.1070923527879479
10
-306.50800771095368
20
9.1070923527879533
10
-306.50800771095362
20
17.107092352787994
10
-298.50800771095362
20
17.107092352787983
0
ARC
5
555
100
AcDbEntity
8
0
100
AcDbCircle
10
-328.57524185533418
20
17.231070244395511
30
1.7763568394002505e-14
40
1.7000000000000215
100
AcDbArc
50
134.9999999999709
51
314.99999999997664
0
LINE
5
556
100
AcDbEntity
8
0
100
AcDbLine
10
-324.18148643938508
20
16.028988716377917
30
1.7763568394002505e-14
11
-327.37316032731758
21
16.028988716377924
31
1.7763568394002505e-14
0
ARC
5
557
100
AcDbEntity
8
0
100
AcDbCircle
10
-322.97940491136842
20
17.23107024439549
30
1.7763568394002505e-14
40
1.6999999999999791
100
AcDbArc
50
-134.99999999997831
51
44.999999999971386
0
LINE
5
558
100
AcDbEntity
8
0
100
AcDbLine
10
-321.77732338335068
20
21.62482566034479
30
3.5527136788005009e-14
11
-321.77732338335068
21
18.433151772412032
31
1.7763568394002505e-14
0
ARC
5
559
100
AcDbEntity
8
0
100
AcDbCircle
10
-322.97940491136842
20
22.826907188361311
30
1.7763568394002505e-14
40
1.6999999999999917
100
AcDbArc
50
-44.999999999970889
51
135.00000000002353
0
LINE
5
560
100
AcDbEntity
8
0
100
AcDbLine
10
-327.37316032731655
20
24.028988716377938
30
1.7763568394002505e-14
11
-324.18148643938605
21
24.028988716377953
31
1.7763568394002505e-14
0
ARC
5
561
100
AcDbEntity
8
0
100
AcDbCircle
10
-328.57524185533418
20
22.826907188361318
30
1.7763568394002505e-14
40
1.7000000000000137
100
AcDbArc
50
44.999999999975955
51
225.00000000002944
0
LINE
5
562
100
AcDbEntity
8
0
100
AcDbLine
10
-329.77732338335073
20
18.433151772413282
30
1.7763568394002505e-14
11
-329.77732338335073
21
21.624825660343532
31
1.7763568394002505e-14
0
LWPOLYLINE
5
563
100
AcDbEntity
8
0
100
AcDbPolyline
90
4
70
1
43
0.0
10
-281.9784829455308
20
261.61250609814749
42
-0.99999999999999989
10
-275.9784829455308
20
261.61250609814749
10
-275.9784829455308
20
216.61250609814729
42
-0.99999999999999989
10
-281.9784829455308
20
216.61250609814721
0
LWPOLYLINE
5
564
100
AcDbEntity
8
0
100
AcDbPolyline
90
4
70
1
43
0.0
10
-275.97848294553069
20
379.61250609814834
42
-0.99999999999999989
10
-281.97848294553074
20
379.61250609814834
10
-281.97848294553074
20
424.61250609814851
42
-0.99999999999999989
10
-275.97848294553069
20
424.61250609814851
0
LWPOLYLINE
5
565
100
AcDbEntity
8
0
100
AcDbPolyline
90
4
70
1
43
0.0
10
-329.7773233833517
20
-116.97012700183704
10
-329.7773233833517
20
-108.97012700183701
10
-321.7773233833517
20
-108.97012700183701
10
-321.7773233833517
20
-116.97012700183706
0
LINE
5
566
100
AcDbEntity
8
0
100
AcDbLine
10
-333.50800918145819
20
466.02987299816618
30
5.5867196572158252e-14
11
-333.50800918145819
21
458.02987299816613
31
3.5527136788005009e-14
0
LINE
5
567
100
AcDbEntity
8
0
100
AcDbLine
10
-451.82795713399861
20
217.08856658317796
30
-1.4210854715202004e-13
11
-459.82795713399861
21
217.08856658317796
31
-1.3917619777818676e-13
0
LINE
5
568
100
AcDbEntity
8
0
100
AcDbLine
10
-451.82795713399861
20
201.08856658317796
30
-1.4210854715202004e-13
11
-459.82795713399861
21
201.08856658317796
31
-1.3917619777818676e-13
0
LINE
5
569
100
AcDbEntity
8
0
100
AcDbLine
10
-459.82795713399861
20
217.08856658317796
30
-1.3917619777818676e-13
11
-459.82795713399861
21
201.08856658317796
31
-1.3917619777818676e-13
0
LINE
5
570
100
AcDbEntity
8
0
100
AcDbLine
10
-451.82795713399844
20
-8.3066517439667997
30
-1.4210854715202004e-13
11
-459.82795713399838
21
-8.3066517439668086
31
-1.3917619777818676e-13
0
LINE
5
571
100
AcDbEntity
8
0
100
AcDbLine
10
-451.82795713399844
20
7.6933482560331967
30
-1.4210854715202004e-13
11
-459.82795713399838
21
7.6933482560331878
31
-1.3917619777818676e-13
0
LINE
5
572
100
AcDbEntity
8
0
100
AcDbLine
10
-459.82795713399838
20
7.6933482560331878
30
-1.3917619777818676e-13
11
-459.82795713399838
21
-8.3066517439668086
31
-1.3917619777818676e-13
0
LINE
5
573
100
AcDbEntity
8
0
100
AcDbLine
10
-451.82795713399861
20
201.08856658317796
30
-1.4210854715202004e-13
11
-451.82795713399844
21
7.6933482560331967
31
-1.4210854715202004e-13
0
LINE
5
574
100
AcDbEntity
8
0
100
AcDbLine
10
-451.82795713399844
20
-8.3066517439667997
30
-1.4210854715202004e-13
11
-451.82795713399832
21
-58.306651743967095
31
-7.8808827388087478e-14
0
ARC
5
575
100
AcDbEntity
8
0
100
AcDbCircle
10
-435.02895720648712
20
274.08856645577572
30
-1.4210854715202004e-13
40
0.99999999999997868
100
AcDbArc
50
89.999999999993491
51
180
0
LINE
5
576
100
AcDbEntity
8
0
100
AcDbLine
10
-436.02895720648701
20
274.08856645577578
30
-1.4210854715202004e-13
11
-436.02895720648701
21
269.49272963921226
31
-1.428213204301314e-13
0
ARC
5
577
100
AcDbEntity
8
0
100
AcDbCircle
10
-429.02895720648701
20
274.08856645577572
30
-1.4210854715202004e-13
40
0.99999999999994316
100
AcDbArc
50
0
51
90
0
LINE
5
578
100
AcDbEntity
8
0
100
AcDbLine
10
-428.02895720648706
20
274.08856645577578
30
-1.4210854715202004e-13
11
-428.02895720648706
21
269.49272963921078
31
-1.4282132043013163e-13
0
ARC
5
579
100
AcDbEntity
8
0
100
AcDbCircle
10
-400.02895720648712
20
274.08856645577566
30
-1.4210854715202004e-13
40
1.0000000000000853
100
AcDbArc
50
90.000000000003254
51
180
0
LINE
5
580
100
AcDbEntity
8
0
100
AcDbLine
10
-401.02895720648712
20
269.49272963921214
30
-1.4210854715202004e-13
11
-401.02895720648718
21
274.08856645577578
31
-1.4210854715202004e-13
0
ARC
5
581
100
AcDbEntity
8
0
100
AcDbCircle
10
-394.02895720648729
20
274.08856645577566
30
-1.4210854715202004e-13
40
1.0000000000001563
100
AcDbArc
50
0
51
89.999999999990237
0
LINE
5
582
100
AcDbEntity
8
0
100
AcDbLine
10
-393.02895720648712
20
269.49272963921095
30
-1.4210854715202004e-13
11
-393.02895720648712
21
274.08856645577583
31
-1.4210854715202004e-13
0
ARC
5
583
100
AcDbEntity
8
0
100
AcDbCircle
10
-402.23103873450361
20
268.2906481111944
30
-1.4210854715202004e-13
40
1.6999999999999915
100
AcDbArc
50
-134.9999999999946
51
45.0000000000298
0
ARC
5
584
100
AcDbEntity
8
0
100
AcDbCircle
10
-437.23103873450339
20
268.2906481111944
30
-1.4210854715202004e-13
40
1.7000000000000168
100
AcDbArc
50
-134.9999999999946
51
45.000000000035229
0
ARC
5
585
100
AcDbEntity
8
0
100
AcDbCircle
10
-431.09619135086609
20
235.688875891588
30
-1.4210854715202004e-13
40
1.6999999999999917
100
AcDbArc
50
44.999999999997286
51
224.99999999999861
0
ARC
5
586
100
AcDbEntity
8
0
100
AcDbCircle
10
-425.50035447938876
20
227.09303894762223
30
-1.4210854715202004e-13
40
1.6999999999999917
100
AcDbArc
50
-134.9999999999973
51
45.000000000000668
0
ARC
5
587
100
AcDbEntity
8
0
100
AcDbCircle
10
-431.09619135086609
20
227.09303894762218
30
-1.4210854715202004e-13
40
1.6999999999999915
100
AcDbArc
50
135.00000000003521
51
314.99999914626085
0
ARC
5
588
100
AcDbEntity
8
0
100
AcDbCircle
10
-425.50035447938882
20
235.68887589158803
30
-1.4210854715202004e-13
40
1.7000000000000419
100
AcDbArc
50
-45.000000000034554
51
134.99999999996615
0
ARC
5
589
100
AcDbEntity
8
0
100
AcDbCircle
10
-426.82687567846926
20
268.2906481111944
30
-1.4210854715202004e-13
40
1.6999999999999413
100
AcDbArc
50
135.00000000003388
51
314.99999914625874
0
ARC
5
590
100
AcDbEntity
8
0
100
AcDbCircle
10
-391.82687567846938
20
268.2906481111944
30
-1.4210854715202004e-13
40
1.6999999999999917
100
AcDbArc
50
135.00000000002845
51
315.00000000002848
0
LINE
5
591
100
AcDbEntity
8
0
100
AcDbLine
10
-451.82795713399867
20
267.08856658317711
30
-1.4210854715202004e-13
11
-438.43312026252045
21
267.08856658317711
31
-1.4210854715202004e-13
0
LINE
5
592
100
AcDbEntity
8
0
100
AcDbLine
10
-426.70243600740582
20
225.89095741960506
30
-1.4210854715202004e-13
11
-429.89410984076068
21
225.89095740169338
31
-1.4210854715202004e-13
0
LINE
5
593
100
AcDbEntity
8
0
100
AcDbLine
10
-432.29827287888395
20
228.29512047563856
30
-1.4210854715202004e-13
11
-432.29827287888327
21
234.48679436357088
31
-1.4210854715202004e-13
0
LINE
5
594
100
AcDbEntity
8
0
100
AcDbLine
10
-425.62479416836391
20
267.08856656526558
30
-1.4210854715202004e-13
11
-403.43312026252067
21
267.08856658317711
31
-1.4210854715202004e-13
0
LINE
5
595
100
AcDbEntity
8
0
100
AcDbLine
10
-424.29827295137238
20
234.48679436357014
30
-1.4210854715202004e-13
11
-424.29827295137164
21
228.29512047563938
31
-1.4210854715202004e-13
0
LINE
5
596
100
AcDbEntity
8
0
100
AcDbLine
10
-429.89410982284892
20
236.89095741960506
30
-1.4210854715202004e-13
11
-426.70243600740525
21
236.89095741960588
31
-1.4210854715202004e-13
0
CIRCLE
5
597
100
AcDbEntity
8
0
100
AcDbCircle
10
-422.29827295137233
20
251.98976200139114
30
-1.4210854715202004e-13
40
2.9999999999999978
0
CIRCLE
5
598
100
AcDbEntity
8
0
100
AcDbCircle
10
-398.29827295137244
20
251.98976200139114
30
-1.4210854715202004e-13
40
4.5000000000000009
0
LINE
5
599
100
AcDbEntity
8
0
100
AcDbLine
10
-400.02895720648718
20
275.08856645577572
30
-1.4210854715202004e-13
11
-394.02895720648712
21
275.08856645577583
31
-1.4210854715202004e-13
0
LINE
5
600
100
AcDbEntity
8
0
100
AcDbLine
10
-435.02895720648701
20
275.08856645577572
30
-1.4210854715202004e-13
11
-429.02895720648701
21
275.08856645577566
31
-1.4210854715202004e-13
0
LINE
5
601
100
AcDbEntity
8
0
100
AcDbLine
10
-390.62479415045169
20
267.08856658317791
30
-1.4210854715202004e-13
11
-389.02895720648712
21
267.08856658317717
31
-1.426934910849421e-13
0
LINE
5
602
100
AcDbEntity
8
0
100
AcDbLine
10
-389.02895720648689
20
-58.306651743967009
30
-7.1054273576010019e-14
11
-389.02895720648712
21
267.08856658317717
31
-1.426934910849421e-13
0
ARC
5
603
100
AcDbEntity
8
0
100
AcDbCircle
10
-435.02895720648672
20
-65.306651616565702
30
-7.1054273576010019e-14
40
0.99999999999994316
100
AcDbArc
50
180
51
270
0
LINE
5
604
100
AcDbEntity
8
0
100
AcDbLine
10
-436.02895720648667
20
-65.306651616565674
30
-7.1054273576010019e-14
11
-436.02895720648667
21
-60.710814800002254
31
-7.0341500297898668e-14
0
ARC
5
605
100
AcDbEntity
8
0
100
AcDbCircle
10
-429.02895720648672
20
-65.306651616565659
30
-7.1054273576010019e-14
40
1.0000000000000053
100
AcDbArc
50
-90
51
0
0
LINE
5
606
100
AcDbEntity
8
0
100
AcDbLine
10
-428.02895720648678
20
-65.306651616565631
30
-7.1054273576010019e-14
11
-428.02895720648672
21
-60.710814800000691
31
-7.0341500297898428e-14
0
ARC
5
607
100
AcDbEntity
8
0
100
AcDbCircle
10
-400.02895720648678
20
-65.306651616565631
30
-7.1054273576010019e-14
40
0.99999999999994316
100
AcDbArc
50
180
51
270
0
LINE
5
608
100
AcDbEntity
8
0
100
AcDbLine
10
-401.02895720648684
20
-60.710814800002083
30
-7.1054273576010019e-14
11
-401.02895720648678
21
-65.306651616565603
31
-7.1054273576010019e-14
0
ARC
5
609
100
AcDbEntity
8
0
100
AcDbCircle
10
-394.02895720648678
20
-65.306651616565659
30
-7.1054273576010019e-14
40
0.99999999999999645
100
AcDbArc
50
-90
51
0
0
LINE
5
610
100
AcDbEntity
8
0
100
AcDbLine
10
-393.02895720648684
20
-60.710814800000804
30
-7.1054273576010019e-14
11
-393.02895720648684
21
-65.306651616565631
31
-7.1054273576010019e-14
0
ARC
5
611
100
AcDbEntity
8
0
100
AcDbCircle
10
-402.23103873450327
20
-59.508733271984283
30
-7.1054273576010019e-14
40
1.6999999999999915
100
AcDbArc
50
-45.000000000032514
51
134.99999999999457
0
ARC
5
612
100
AcDbEntity
8
0
100
AcDbCircle
10
-437.23103873450304
20
-59.508733271984312
30
-1.4210854715202004e-13
40
1.7000000000000419
100
AcDbArc
50
-45.000000000037247
51
134.99999999999594
0
ARC
5
613
100
AcDbEntity
8
0
100
AcDbCircle
10
-431.09619135086587
20
-26.906961052377927
30
-7.1054273576010019e-14
40
1.6999999999999915
100
AcDbArc
50
135.00000000003661
51
315.00000000000279
0
ARC
5
614
100
AcDbEntity
8
0
100
AcDbCircle
10
-425.50035447938853
20
-18.311124108412127
30
-7.1054273576010019e-14
40
1.6999999999999948
100
AcDbArc
50
-45.000000000032614
51
134.99999999999773
0
ARC
5
615
100
AcDbEntity
8
0
100
AcDbCircle
10
-431.09619135086587
20
-18.311124108412127
30
-7.1054273576010019e-14
40
1.7000000000000104
100
AcDbArc
50
45.00000000000297
51
224.99999999996351
0
ARC
5
616
100
AcDbEntity
8
0
100
AcDbCircle
10
-425.50035447938848
20
-26.906961052377927
30
-7.1054273576010019e-14
40
1.6999999999999948
100
AcDbArc
50
-135.000000000005
51
45.000000000035556
0
ARC
5
617
100
AcDbEntity
8
0
100
AcDbCircle
10
-426.82687567846881
20
-59.508733271984312
30
-7.1054273576010019e-14
40
1.7000000000000168
100
AcDbArc
50
45.000000000006089
51
224.99999999996342
0
ARC
5
618
100
AcDbEntity
8
0
100
AcDbCircle
10
-391.82687567846915
20
-59.508733271984283
30
-7.1054273576010019e-14
40
1.7000000000000168
100
AcDbArc
50
45.000000000005087
51
224.9999999999722
0
LINE
5
619
100
AcDbEntity
8
0
100
AcDbLine
10
-451.82795713399832
20
-58.306651743967095
30
-7.8808827388087478e-14
11
-438.43312026252011
21
-58.30665174396708
31
-1.4210854715202004e-13
0
LINE
5
620
100
AcDbEntity
8
0
100
AcDbLine
10
-426.70243600740559
20
-17.10904258039497
30
-7.1054273576010019e-14
11
-429.8941098228488
21
-17.109042580394942
31
-7.1054273576010019e-14
0
LINE
5
621
100
AcDbEntity
8
0
100
AcDbLine
10
-432.29827287888378
20
-19.513205636428509
30
-7.1054273576010019e-14
11
-432.29827287888378
21
-25.704879524361548
31
-7.1054273576010019e-14
0
LINE
5
622
100
AcDbEntity
8
0
100
AcDbLine
10
-425.62479415045181
20
-58.306651743967052
30
-7.1054273576010019e-14
11
-403.43312026252028
21
-58.306651743967052
31
-7.1054273576010019e-14
0
LINE
5
623
100
AcDbEntity
8
0
100
AcDbLine
10
-424.2982729513721
20
-25.704879524360056
30
-7.1054273576010019e-14
11
-424.2982729513721
21
-19.51320563642993
31
-7.1054273576010019e-14
0
LINE
5
624
100
AcDbEntity
8
0
100
AcDbLine
10
-429.89410982284869
20
-28.109042580394984
30
-7.1054273576010019e-14
11
-426.70243600740571
21
-28.109042580394949
31
-7.1054273576010019e-14
0
CIRCLE
5
625
100
AcDbEntity
8
0
100
AcDbCircle
10
-422.29827295137204
20
-43.207847162181011
30
-7.1054273576010019e-14
40
2.9999999999999978
0
CIRCLE
5
626
100
AcDbEntity
8
0
100
AcDbCircle
10
-398.29827295137216
20
-43.207847162181011
30
-7.1054273576010019e-14
40
4.5000000000000009
0
LINE
5
627
100
AcDbEntity
8
0
100
AcDbLine
10
-400.02895720648678
20
-66.306651616565631
30
-7.1054273576010019e-14
11
-394.02895720648678
21
-66.306651616565659
31
-7.1054273576010019e-14
0
LINE
5
628
100
AcDbEntity
8
0
100
AcDbLine
10
-435.02895720648672
20
-66.306651616565702
30
-7.1054273576010019e-14
11
-429.02895720648672
21
-66.306651616565674
31
-7.1054273576010019e-14
0
LINE
5
629
100
AcDbEntity
8
0
100
AcDbLine
10
-390.62479415045209
20
-58.306651743967009
30
-7.1054273576010019e-14
11
-389.02895720648689
21
-58.306651743967009
31
-7.1054273576010019e-14
0
LINE
5
630
100
AcDbEntity
8
0
100
AcDbLine
10
-451.82795713399867
20
267.08856658317711
30
-1.4210854715202004e-13
11
-451.82795713399861
21
217.08856658317796
31
-1.4210854715202004e-13
0
CIRCLE
5
631
100
AcDbEntity
8
0
100
AcDbCircle
10
-16.758685849249218
20
157.66135256872107
30
-3.5527136788005009e-14
40
3
0
CIRCLE
5
632
100
AcDbEntity
8
0
100
AcDbCircle
10
-49.75868584924919
20
157.66135256872107
30
-3.5527136788005009e-14
40
2.7500000000000031
0
LWPOLYLINE
5
633
100
AcDbEntity
8
0
100
AcDbPolyline
90
44
70
1
43
0.0
10
-23.75868469085356
20
253.16135418611782
10
-32.75868584924919
20
253.16135418611782
42
0.41421356237311452
10
-33.758685849249176
20
252.16135418611782
10
-33.75868584924919
20
210.16135256872116
10
-38.75868584924919
20
205.16135256872116
10
-63.758685630177794
20
205.16135256872116
10
-63.758685582255872
20
197.16135256872116
10
-101.75829501806804
20
197.16135256872116
10
-101.75829501282132
20
149.16135256872104
10
-63.758685623331829
20
149.16135256872104
10
-63.758685630177823
20
141.16135256872101
10
-38.758685849249218
20
141.16135256872104
10
-33.758685849249218
20
136.16135256872101
10
-33.758685849249218
20
94.161350951324351
42
0.41421356237310414
10
-32.75868584924924
20
93.161350951324366
10
-23.758684690853606
20
93.161350951324366
42
0.41421356237308982
10
-22.758684690853617
20
94.161350951324351
10
-22.758684690851645
20
98.757189585174018
42
-0.99999999999999989
10
-20.354521634817999
20
101.16135264120898
10
52.83714993631758
20
101.16135264120703
42
-0.99999999999999989
10
55.241312992355134
20
98.757189585176022
10
55.241312992355127
20
94.16135095132438
42
0.41421356237309764
10
56.241312992355134
20
93.16135095132438
10
65.241314150750767
20
93.16135095132438
42
0.41421356237310025
10
66.241314150750753
20
94.161350951324394
10
66.241314150750767
20
136.16135256872104
10
71.241314150750753
20
141.16135256872104
10
96.241313931679358
20
141.16135256872104
10
96.241313924833378
20
149.16135256872107
10
134.24092331432283
20
149.16135256872107
10
134.24092331956959
20
197.16135256872116
10
96.241313883757442
20
197.16135256872118
10
96.241313931679358
20
205.16135256872118
10
71.241314150750753
20
205.16135256872118
10
66.241314150750782
20
210.16135256872118
10
66.24131415075081
20
252.16135418611785
42
0.41421356237309503
10
65.24131415075081
20
253.16135418611788
10
56.241312992355162
20
253.16135418611788
42
0.41421356237309503
10
55.241312992355176
20
252.16135418611785
10
55.241312992353997
20
247.5655155522669
42
-0.99999999999999989
10
52.837149936319072
20
245.16135249623321
10
-20.354521652728693
20
245.16135247832196
42
-0.9999999925494194
10
-22.758684690853563
20
247.56551555226571
10
-22.75868469085357
20
252.16135418611785
42
0.4142135623730937
0
CIRCLE
5
634
100
AcDbEntity
8
0
100
AcDbCircle
10
-86.758295012821364
20
157.16135256872104
30
0
40
3.0000000000000067
0
CIRCLE
5
635
100
AcDbEntity
8
0
100
AcDbCircle
10
-86.758295012821364
20
189.1613525687211
30
0
40
3.0000000000000067
0
CIRCLE
5
636
100
AcDbEntity
8
0
100
AcDbCircle
10
16.241314150750778
20
157.66135256872107
30
-3.5527136788005009e-14
40
2.7499999999999987
0
CIRCLE
5
637
100
AcDbEntity
8
0
100
AcDbCircle
10
49.241314150750775
20
157.6613525687211
30
-3.5527136788005009e-14
40
3
0
CIRCLE
5
638
100
AcDbEntity
8
0
100
AcDbCircle
10
82.241314150750767
20
157.6613525687211
30
-3.5527136788005009e-14
40
2.7500000000000031
0
CIRCLE
5
639
100
AcDbEntity
8
0
100
AcDbCircle
10
119.2409233143229
20
157.1613525687211
30
-3.5527136788005009e-14
40
3.0000000000000067
0
CIRCLE
5
640
100
AcDbEntity
8
0
100
AcDbCircle
10
119.2409233143229
20
189.16135256872116
30
-3.5527136788005009e-14
40
3.0000000000000067
0
LINE
5
641
100
AcDbEntity
8
0
100
AcDbLine
10
5.741794149144166
20
292.03512650836683
30
0
11
5.7417941491441438
21
284.03512650836683
31
5.1790816500487929e-15
0
LINE
5
642
100
AcDbEntity
8
0
100
AcDbLine
10
21.741794149144226
20
292.03512650836683
30
0
11
21.741794149144201
21
284.03512650836677
31
5.1790816500487929e-15
0
LINE
5
643
100
AcDbEntity
8
0
100
AcDbLine
10
5.7417941491441438
20
284.03512650836683
30
5.1790816500487929e-15
11
21.741794149144201
21
284.03512650836677
31
5.1790816500487929e-15
0
LINE
5
644
100
AcDbEntity
8
0
100
AcDbLine
10
-108.68054435533935
20
292.03512650836723
30
-1.7763568394002505e-14
11
5.741794149144166
21
292.03512650836683
31
0
0
LINE
5
645
100
AcDbEntity
8
0
100
AcDbLine
10
21.741794149144226
20
292.03512650836683
30
0
11
136.16413265362738
21
292.03512650836649
31
-9.189749814591269e-15
0
LWPOLYLINE
5
646
100
AcDbEntity
8
0
100
AcDbPolyline
90
4
70
1
43
0.0
10
-104.68054435533924
20
319.56465120130167
10
-104.68054435533922
20
327.56465120130173
10
-96.680544355339208
20
327.56465120130173
10
-96.680544355339237
20
319.56465120130167
0
LWPOLYLINE
5
647
100
AcDbEntity
8
0
100
AcDbPolyline
90
4
70
1
43
0.0
10
132.16413265362749
20
327.5646512013011
10
132.16413265362746
20
319.56465120130105
10
124.16413265362746
20
319.5646512013011
10
124.16413265362746
20
327.5646512013011
0
LINE
5
648
100
AcDbEntity
8
0
100
AcDbLine
10
-108.68054435533935
20
292.03512650836723
30
-1.7763568394002505e-14
11
-108.68054435533918
21
354.56465267180658
31
-4.9535534044090883e-15
0
LINE
5
649
100
AcDbEntity
8
0
100
AcDbLine
10
-108.68054435533918
20
354.56465267180658
30
-4.9535534044090883e-15
11
-76.758205850856157
21
354.56465267180653
31
-2.0327388607669946e-14
0
LINE
5
650
100
AcDbEntity
8
0
100
AcDbLine
10
-76.7582058508562
20
339.56465112881341
30
0
11
-76.758205850856157
21
354.56465267180653
31
-2.0327388607669946e-14
0
LINE
5
651
100
AcDbEntity
8
0
100
AcDbLine
10
-87.354042794820899
20
339.56465112881347
30
0
11
-76.7582058508562
21
339.56465112881341
31
0
0
ARC
5
652
100
AcDbEntity
8
0
100
AcDbCircle
10
-88.556124322838627
20
338.36256960079697
30
0
40
1.6999999999999917
100
AcDbArc
50
44.999999999970534
51
224.99999999997831
0
LINE
5
653
100
AcDbEntity
8
0
100
AcDbLine
10
-89.758205850856285
20
329.96881418484776
30
0
11
-89.758205850856257
21
337.16048807278025
31
1.7752416980761626e-32
0
ARC
5
654
100
AcDbEntity
8
0
100
AcDbCircle
10
-88.556124322838684
20
328.7667326568311
30
0
40
1.700000000000004
100
AcDbArc
50
135.00000000002237
51
314.9999999999722
0
LINE
5
655
100
AcDbEntity
8
0
100
AcDbLine
10
114.83763109311248
20
327.5646511288129
30
-1.7763568394002505e-14
11
-87.354042794822107
21
327.56465112881335
31
-1.7752416980746135e-32
0
ARC
5
656
100
AcDbEntity
8
0
100
AcDbCircle
10
116.03971262112857
20
328.76673265683104
30
-1.7763568394002505e-14
40
1.6999999999999915
100
AcDbArc
50
-134.99999999995126
51
45.000000000054861
0
LINE
5
657
100
AcDbEntity
8
0
100
AcDbLine
10
117.24179414914452
20
329.96881418484929
30
-1.7763568394002505e-14
11
117.24179414914458
21
337.16048807277855
31
-2.2419351677266105e-14
0
ARC
5
658
100
AcDbEntity
8
0
100
AcDbCircle
10
116.03971262112861
20
338.36256960079686
30
-1.7763568394002505e-14
40
1.700000000000004
100
AcDbArc
50
-45.000000000055877
51
135.00000000005284
0
LINE
5
659
100
AcDbEntity
8
0
100
AcDbLine
10
114.83763109311036
20
339.5646511288129
30
-1.7763568394002505e-14
11
104.24179414914448
21
339.5646511288129
31
-1.6912571186080251e-14
0
LINE
5
660
100
AcDbEntity
8
0
100
AcDbLine
10
104.24179414914451
20
354.56465267180596
30
-1.7763568394002505e-14
11
104.24179414914448
21
339.5646511288129
31
-1.6912571186080251e-14
0
LINE
5
661
100
AcDbEntity
8
0
100
AcDbLine
10
136.16413265362755
20
354.5646526718059
30
-3.5527136788005009e-14
11
104.24179414914451
21
354.56465267180596
31
-1.7763568394002505e-14
0
LINE
5
662
100
AcDbEntity
8
0
100
AcDbLine
10
136.16413265362738
20
292.03512650836649
30
-9.189749814591269e-15
11
136.16413265362755
21
354.5646526718059
31
-3.5527136788005009e-14
0
ARC
5
663
100
AcDbEntity
8
0
100
AcDbCircle
10
124.04015476202164
20
344.03604840171647
30
-1.7763568394002505e-14
40
1.700000000000004
100
AcDbArc
50
-134.99999999994412
51
45.000000000056225
0
LINE
5
664
100
AcDbEntity
8
0
100
AcDbLine
10
125.2422362900376
20
345.23812992973478
30
-1.7763568394002505e-14
11
125.2422362900376
21
348.42980381766387
31
-1.9829810852241694e-14
0
ARC
5
665
100
AcDbEntity
8
0
100
AcDbCircle
10
124.04015476202169
20
349.63188534568224
30
-1.7763568394002505e-14
40
1.7000000000000168
100
AcDbArc
50
-45.00000000005857
51
135.00000000005656
0
LINE
5
666
100
AcDbEntity
8
0
100
AcDbLine
10
122.83807323400333
20
350.83396687369822
30
-1.7763568394002505e-14
11
119.6463993460742
21
350.83396687369822
31
-1.7507231345632501e-14
0
ARC
5
667
100
AcDbEntity
8
0
100
AcDbCircle
10
118.44431781805594
20
349.63188534568224
30
-1.7763568394002505e-14
40
1.6999999999999791
100
AcDbArc
50
44.999999999945473
51
224.9999999999421
0
LINE
5
668
100
AcDbEntity
8
0
100
AcDbLine
10
117.24223629003758
20
348.42980381766631
30
-1.7763568394002505e-14
11
117.24223629003762
21
345.23812992973239
31
2.0662424582422867e-15
0
ARC
5
669
100
AcDbEntity
8
0
100
AcDbCircle
10
118.44431781805589
20
344.03604840171647
30
-1.7763568394002505e-14
40
1.6999999999999664
100
AcDbArc
50
135.00000000005588
51
314.99999999994481
0
LINE
5
670
100
AcDbEntity
8
0
100
AcDbLine
10
119.64639934607189
20
342.83396687369816
30
-1.7763568394002505e-14
11
122.83807323400568
21
342.83396687369816
31
-1.7763568394002505e-14
0
LWPOLYLINE
5
671
100
AcDbEntity
8
0
100
AcDbPolyline
90
8
70
1
43
0.0
10
117.24223629003767
20
313.42980381766586
42
-0.99999999999999989
10
119.64639934607398
20
315.8339668736981
10
122.83807323400566
20
315.83396687370032
42
-0.99999999999999989
10
125.2422362900375
20
313.42980381766358
10
125.2422362900377
20
310.23812992973427
42
-0.99999999999999989
10
122.83807323400546
20
307.83396687369805
10
119.64639934607405
20
307.83396687370021
42
-0.99999999999999989
10
117.24223629003752
20
310.23812992973217
0
LINE
5
672
100
AcDbEntity
8
0
100
AcDbLine
10
-89.758647991749314
20
313.42980381766444
30
1.7763568394002505e-14
11
-89.758647991749314
21
310.23812992973387
31
1.9829810852242615e-14
0
ARC
5
673
100
AcDbEntity
8
0
100
AcDbCircle
10
-90.960729519765948
20
314.63188534568201
30
1.7763568394002505e-14
40
1.6999999999999917
100
AcDbArc
50
-45.000000000022339
51
135.00000000002302
0
LINE
5
674
100
AcDbEntity
8
0
100
AcDbLine
10
-95.354484935714154
20
315.83396687369873
30
1.7763568394002505e-14
11
-92.162811047783578
21
315.83396687369867
31
1.7763568394002505e-14
0
ARC
5
675
100
AcDbEntity
8
0
100
AcDbCircle
10
-96.556566463731755
20
314.63188534568201
30
1.7763568394002505e-14
40
1.700000000000004
100
AcDbArc
50
44.999999999979003
51
224.99999999997831
0
LINE
5
676
100
AcDbEntity
8
0
100
AcDbLine
10
-97.758647991749342
20
310.23812992973296
30
0
11
-97.758647991749328
21
313.42980381766534
31
1.7763568394002505e-14
0
ARC
5
677
100
AcDbEntity
8
0
100
AcDbCircle
10
-96.55656646373177
20
309.03604840171624
30
1.7763568394002505e-14
40
1.700000000000004
100
AcDbArc
50
135.00000000002032
51
314.99999999997897
0
LINE
5
678
100
AcDbEntity
8
0
100
AcDbLine
10
-92.162811047782668
20
307.83396687369867
30
1.7763568394002505e-14
11
-95.354484935715078
21
307.83396687369867
31
1.7763568394002505e-14
0
ARC
5
679
100
AcDbEntity
8
0
100
AcDbCircle
10
-90.960729519765977
20
309.03604840171624
30
1.7763568394002505e-14
40
1.700000000000004
100
AcDbArc
50
-134.999999999979
51
45.000000000023036
0
ARC
5
680
100
AcDbEntity
8
0
100
AcDbCircle
10
-9.0561243228382171
20
318.36256967328501
30
1.7763568394002505e-14
40
1.7000000000000175
100
AcDbArc
50
44.999999999967471
51
224.99999999996854
0
LINE
5
681
100
AcDbEntity
8
0
100
AcDbLine
10
-10.258205850856017
20
313.96881425733568
30
1.7763568394002505e-14
11
-10.258205850856029
21
317.16048814526852
31
1.7763568394002505e-14
0
ARC
5
682
100
AcDbEntity
8
0
100
AcDbCircle
10
-9.0561243228382526
20
312.76673272931919
30
1.7763568394002505e-14
40
1.6999999999999917
100
AcDbArc
50
135.00000000003033
51
314.9999999999705
0
LINE
5
683
100
AcDbEntity
8
0
100
AcDbLine
10
-7.8540427948217451
20
311.56465120130144
30
1.7763568394002505e-14
11
35.337631093111732
21
311.56465120130133
31
1.4294659417911515e-14
0
ARC
5
684
100
AcDbEntity
8
0
100
AcDbCircle
10
36.539712621128039
20
312.7667327293193
30
1.7763568394002505e-14
40
1.7000000000000168
100
AcDbArc
50
-134.99999999996038
51
45.000000000047748
0
LINE
5
685
100
AcDbEntity
8
0
100
AcDbLine
10
37.741794149144177
20
313.96881425733744
30
1.7763568394002505e-14
11
37.741794149144155
21
317.16048814526698
31
1.5697325935763025e-14
0
ARC
5
686
100
AcDbEntity
8
0
100
AcDbCircle
10
36.539712621128018
20
318.36256967328507
30
1.7763568394002505e-14
40
1.699999999999998
100
AcDbArc
50
-45.000000000046413
51
135.0000000000403
0
LINE
5
687
100
AcDbEntity
8
0
100
AcDbLine
10
35.337631093110005
20
319.56465120130139
30
1.7763568394002505e-14
11
-7.8540427948204163
21
319.56465120130144
31
1.7763568394002505e-14
0
ARC
5
688
100
AcDbEntity
8
0
100
AcDbCircle
10
-96.556566463731627
20
349.63188534568235
30
0
40
1.7000000000000293
100
AcDbArc
50
44.999999999969525
51
224.99999999997897
0
LINE
5
689
100
AcDbEntity
8
0
100
AcDbLine
10
-97.758647991749257
20
345.23812992973319
30
0
11
-97.758647991749228
21
348.42980381766563
31
-1.0078197331182536e-31
0
ARC
5
690
100
AcDbEntity
8
0
100
AcDbCircle
10
-96.55656646373167
20
344.03604840171653
30
0
40
1.6999999999999915
100
AcDbArc
50
135.00000000002203
51
314.99999999997124
0
LINE
5
691
100
AcDbEntity
8
0
100
AcDbLine
10
-92.162811047782384
20
342.83396687369878
30
0
11
-95.354484935715135
21
342.83396687369878
31
-1.7752416980745639e-32
0
ARC
5
692
100
AcDbEntity
8
0
100
AcDbCircle
10
-90.960729519765863
20
344.03604840171653
30
0
40
1.6999999999999917
100
AcDbArc
50
-134.9999999999709
51
45.000000000024727
0
LINE
5
693
100
AcDbEntity
8
0
100
AcDbLine
10
-89.758647991749214
20
348.42980381766466
30
1.7763568394002505e-14
11
-89.758647991749214
21
345.23812992973421
31
-1.7752416980747134e-32
0
ARC
5
694
100
AcDbEntity
8
0
100
AcDbCircle
10
-90.960729519765835
20
349.63188534568235
30
0
40
1.7000000000000168
100
AcDbArc
50
-45.000000000025395
51
135.00000000003084
0
LINE
5
695
100
AcDbEntity
8
0
100
AcDbLine
10
-95.354484935713856
20
350.83396687369884
30
1.0078197331180421e-31
11
-92.16281104778362
21
350.83396687369884
31
1.3628680727333203e-31
0
LWPOLYLINE
5
696
100
AcDbEntity
8
0
100
AcDbPolyline
90
18
70
1
43
0.0
10
-58.94809822191759
20
442.85345257051415
42
-0.19891236737964957
10
-58.362311784290675
20
444.2676661328872
10
-54.533884659544462
20
448.09609325763341
42
-0.1989123673796557
10
-53.119671097171413
20
448.68187969526025
10
180.06815166230194
20
448.68187969526019
42
-0.19891236737965801
10
181.48236522467502
20
448.09609325763324
10
185.31079234942126
20
444.26766613288703
42
-0.19891236737965801
10
185.89657878704816
20
442.85345257051398
10
185.89657878704816
20
418.68187969526002
10
181.89657878704818
20
418.68187969526002
10
181.89657878704818
20
410.68187969526002
10
173.89657878704821
20
410.68187969526008
10
173.89657878704821
20
418.68187969526002
10
-46.948098221917611
20
418.68187969526019
10
-46.948098221917611
20
410.68187969526025
10
-54.948098221917618
20
410.68187969526025
10
-54.948098221917604
20
418.68187969526025
10
-58.948098221917597
20
418.68187969526025
0
CIRCLE
5
697
100
AcDbEntity
8
0
100
AcDbCircle
10
172.97424028256532
20
433.68187969526002
30
3.5527136788005009e-14
40
4.5000000000000009
0
CIRCLE
5
698
100
AcDbEntity
8
0
100
AcDbCircle
10
-46.02575971743471
20
433.68187969526025
30
0
40
3.5000000000000027
0
CIRCLE
5
699
100
AcDbEntity
8
0
100
AcDbCircle
10
47.474240282565262
20
433.68187969526025
30
0
40
3.0000000000000124
0
CIRCLE
5
700
100
AcDbEntity
8
0
100
AcDbCircle
10
79.474240282565276
20
433.68187969526019
30
0
40
3.0000000000000124
0
LINE
5
701
100
AcDbEntity
8
0
100
AcDbLine
10
58.197907491620605
20
487.90532299315151
30
0
11
58.197907491620605
21
479.90532299315157
31
5.6148985671279176e-15
0
LINE
5
702
100
AcDbEntity
8
0
100
AcDbLine
10
74.197907491620626
20
487.90532299315157
30
0
11
74.197907491620626
21
479.90532299315163
31
5.6148985671279176e-15
0
LINE
5
703
100
AcDbEntity
8
0
100
AcDbLine
10
58.197907491620605
20
479.90532299315157
30
5.6148985671279176e-15
11
74.197907491620626
21
479.90532299315163
31
5.6148985671279176e-15
0
LINE
5
704
100
AcDbEntity
8
0
100
AcDbLine
10
74.197907491620626
20
487.90532299315157
30
0
11
146.39551665519281
21
487.90532299315157
31
-6.1037798495293056e-15
0
ARC
5
705
100
AcDbEntity
8
0
100
AcDbCircle
10
-20.999701544550213
20
504.70432292066323
30
0
40
1.0000000000000764
100
AcDbArc
50
180
51
269.99999999999636
0
LINE
5
706
100
AcDbEntity
8
0
100
AcDbLine
10
-20.999701544550277
20
503.70432292066312
30
0
11
-16.403864727986836
21
503.70432292066317
31
-3.8854439194945994e-16
0
ARC
5
707
100
AcDbEntity
8
0
100
AcDbCircle
10
-20.999701544550163
20
510.704322920663
30
0
40
1.0000000000001563
100
AcDbArc
50
90.0000000000055
51
180
0
LINE
5
708
100
AcDbEntity
8
0
100
AcDbLine
10
-20.999701544550259
20
511.70432292066317
30
0
11
-16.40386472798529
21
511.70432292066312
31
-3.8854439194958911e-16
0
ARC
5
709
100
AcDbEntity
8
0
100
AcDbCircle
10
-20.99970154455038
20
539.70432292066289
30
2.500168256173282e-44
40
0.99999999999988542
100
AcDbArc
50
180
51
270.00000000000693
0
LINE
5
710
100
AcDbEntity
8
0
100
AcDbLine
10
-16.403864727986701
20
538.704322920663
30
0
11
-20.999701544550259
21
538.704322920663
31
1.3945222387368385e-31
0
ARC
5
711
100
AcDbEntity
8
0
100
AcDbCircle
10
-20.999701544550181
20
545.70432292066289
30
6.3291068334983193e-45
40
1.0000000000001563
100
AcDbArc
50
90.0000000000055
51
180
0
LINE
5
712
100
AcDbEntity
8
0
100
AcDbLine
10
-16.403864727985436
20
546.70432292066289
30
0
11
-20.999701544550277
21
546.704322920663
31
-6.9726111936841345e-32
0
ARC
5
713
100
AcDbEntity
8
0
100
AcDbCircle
10
-15.201783199968897
20
537.50224139264651
30
7.1054273576010019e-14
40
1.6999999999999493
100
AcDbArc
50
-44.99999999999568
51
135.00000000003124
0
ARC
5
714
100
AcDbEntity
8
0
100
AcDbCircle
10
-15.201783199968894
20
502.50224139264679
30
-8.8126063573263193e-46
40
1.699999999999998
100
AcDbArc
50
-44.999999999994401
51
135.00000000003726
0
ARC
5
715
100
AcDbEntity
8
0
100
AcDbCircle
10
-15.201783199968908
20
512.90640444868109
30
0
40
1.7000000000000937
100
AcDbArc
50
-134.99999999996217
51
45.000000000037936
0
ARC
5
716
100
AcDbEntity
8
0
100
AcDbCircle
10
-15.201783199968908
20
547.90640444868075
30
7.1054273576010019e-14
40
1.7000000000000481
100
AcDbArc
50
-134.99999999996834
51
45.00000000002909
0
LINE
5
717
100
AcDbEntity
8
0
100
AcDbLine
10
-13.99970167195165
20
487.90532299315151
30
0
11
-13.999701671951655
21
501.30015986462979
31
-8.4706559029634937e-32
0
LINE
5
718
100
AcDbEntity
8
0
100
AcDbLine
10
-13.999701671952529
20
514.10848597669906
30
-8.4706559029573324e-32
11
-13.999701671951655
21
536.30015986462945
31
7.1054273576010019e-14
0
LINE
5
719
100
AcDbEntity
8
0
100
AcDbLine
10
-21.999701544550266
20
539.704322920663
30
-1.3684555315672042e-45
11
-21.999701544550337
21
545.704322920663
31
6.9726111936841837e-32
0
LINE
5
720
100
AcDbEntity
8
0
100
AcDbLine
10
-21.999701544550287
20
504.70432292066312
30
0
11
-21.999701544550319
21
510.70432292066312
31
0
0
LINE
5
721
100
AcDbEntity
8
0
100
AcDbLine
10
-13.999701671952385
20
549.10848597669849
30
7.1054273576010019e-14
11
-13.999701671951659
21
550.70432292066289
31
-1.1200578212550362e-15
0
LINE
5
722
100
AcDbEntity
8
0
100
AcDbLine
10
146.39551523145695
20
550.704322920663
30
0
11
-13.999701671951659
21
550.70432292066289
31
-1.1200578212550362e-15
0
ARC
5
723
100
AcDbEntity
8
0
100
AcDbCircle
10
153.39551652779141
20
504.70432292066323
30
0
40
1.0000000000000142
100
AcDbArc
50
-90
51
0
0
LINE
5
724
100
AcDbEntity
8
0
100
AcDbLine
10
153.39551652779141
20
503.70432292066317
30
0
11
148.79967971122798
21
503.70432292066323
31
3.8854439194945994e-16
0
ARC
5
725
100
AcDbEntity
8
0
100
AcDbCircle
10
153.39551652779141
20
510.70432292066323
30
0
40
0.99999999999999645
100
AcDbArc
50
0
51
90
0
LINE
5
726
100
AcDbEntity
8
0
100
AcDbLine
10
153.39551652779141
20
511.70432292066323
30
0
11
148.79967971122647
21
511.70432292066317
31
3.8854439194958911e-16
0
ARC
5
727
100
AcDbEntity
8
0
100
AcDbCircle
10
153.39551652779141
20
539.70432292066312
30
0
40
1.0000000000000142
100
AcDbArc
50
-90
51
0
0
LINE
5
728
100
AcDbEntity
8
0
100
AcDbLine
10
148.79967971122784
20
538.704322920663
30
0
11
153.39551652779141
21
538.704322920663
31
1.3945222387368398e-31
0
ARC
5
729
100
AcDbEntity
8
0
100
AcDbCircle
10
153.39551652779141
20
545.70432292066312
30
0
40
0.99999999999999645
100
AcDbArc
50
0
51
90
0
LINE
5
730
100
AcDbEntity
8
0
100
AcDbLine
10
148.79967971122659
20
546.704322920663
30
0
11
153.39551652779141
21
546.70432292066312
31
-6.9726111936842888e-32
0
ARC
5
731
100
AcDbEntity
8
0
100
AcDbCircle
10
147.5975981832101
20
537.50224139264662
30
7.1054273576010019e-14
40
1.6999999999999664
100
AcDbArc
50
44.999999999967486
51
224.99999999999525
0
ARC
5
732
100
AcDbEntity
8
0
100
AcDbCircle
10
147.5975981832101
20
502.50224139264685
30
0
40
1.7000000000000168
100
AcDbArc
50
44.999999999964103
51
224.99999999999389
0
ARC
5
733
100
AcDbEntity
8
0
100
AcDbCircle
10
147.5975981832101
20
512.90640444868109
30
0
40
1.700000000000004
100
AcDbArc
50
135.00000000000745
51
314.99999999996339
0
ARC
5
734
100
AcDbEntity
8
0
100
AcDbCircle
10
147.5975981832101
20
547.90640444868075
30
7.1054273576010019e-14
40
1.700000000000004
100
AcDbArc
50
135.00000000000475
51
314.99999999997016
0
LINE
5
735
100
AcDbEntity
8
0
100
AcDbLine
10
146.39551665519281
20
487.90532299315157
30
-6.1037798495293056e-15
11
146.39551665519284
21
501.30015986462985
31
-1.1434015660279561e-31
0
LINE
5
736
100
AcDbEntity
8
0
100
AcDbLine
10
146.39551665519284
20
514.10848597669803
30
-1.1434015660279548e-31
11
146.39551665519284
21
536.30015986462956
31
7.1054273576010019e-14
0
LINE
5
737
100
AcDbEntity
8
0
100
AcDbLine
10
154.39551652779141
20
539.70432292066312
30
-1.3684555315672042e-45
11
154.39551652779141
21
545.70432292066312
31
-6.9726111936841411e-32
0
LINE
5
738
100
AcDbEntity
8
0
100
AcDbLine
10
154.39551652779141
20
504.70432292066323
30
0
11
154.39551652779141
21
510.70432292066323
31
0
0
LINE
5
739
100
AcDbEntity
8
0
100
AcDbLine
10
146.39551665519284
20
549.10848597669781
30
7.1054273576010019e-14
11
146.39551523145695
21
550.704322920663
31
0
0
LINE
5
740
100
AcDbEntity
8
0
100
AcDbLine
10
-13.99970167195165
20
487.90532299315151
30
0
11
58.197907491620605
21
487.90532299315151
31
0
0
LINE
5
741
100
AcDbEntity
8
0
100
AcDbLine
10
76.886019452921715
20
609.92230654647449
30
0
11
76.886019452921687
21
601.92230654647449
31
5.1790816500487771e-15
0
LINE
5
742
100
AcDbEntity
8
0
100
AcDbLine
10
92.886019452921786
20
609.92230654647437
30
0
11
92.886019452921744
21
601.92230654647437
31
5.1790816500487771e-15
0
LINE
5
743
100
AcDbEntity
8
0
100
AcDbLine
10
76.886019452921687
20
601.92230654647449
30
5.1790816500487771e-15
11
92.886019452921744
21
601.92230654647437
31
5.1790816500487771e-15
0
LINE
5
744
100
AcDbEntity
8
0
100
AcDbLine
10
-37.536319051561847
20
609.92230654647494
30
-1.7763568394002505e-14
11
76.886019452921715
21
609.92230654647449
31
0
0
LINE
5
745
100
AcDbEntity
8
0
100
AcDbLine
10
92.886019452921786
20
609.92230654647437
30
0
11
207.30835795740501
21
609.92230654647403
31
-9.1897498145912374e-15
0
LWPOLYLINE
5
746
100
AcDbEntity
8
0
100
AcDbPolyline
90
4
70
1
43
0.0
10
-33.536319051561733
20
637.45183123940944
10
-33.536319051561705
20
645.45183123940944
10
-25.53631905156168
20
645.45183123940944
10
-25.536319051561705
20
637.45183123940944
0
LWPOLYLINE
5
747
100
AcDbEntity
8
0
100
AcDbPolyline
90
4
70
1
43
0.0
10
203.30835795740512
20
645.45183123940842
10
203.30835795740509
20
637.45183123940842
10
195.30835795740506
20
637.45183123940842
10
195.30835795740512
20
645.45183123940842
0
LINE
5
748
100
AcDbEntity
8
0
100
AcDbLine
10
-37.536319051561847
20
609.92230654647494
30
-1.7763568394002505e-14
11
-37.536319051561634
21
672.45183270991424
31
-4.9535534044090173e-15
0
LINE
5
749
100
AcDbEntity
8
0
100
AcDbLine
10
-37.536319051561634
20
672.45183270991424
30
-4.9535534044090173e-15
11
-5.6139805470786008
21
672.45183270991402
31
-2.032738860766994e-14
0
LINE
5
750
100
AcDbEntity
8
0
100
AcDbLine
10
-5.6139805470786648
20
657.45183116692101
30
0
11
-5.6139805470786008
21
672.45183270991402
31
-2.032738860766994e-14
0
LINE
5
751
100
AcDbEntity
8
0
100
AcDbLine
10
-16.209817491043353
20
657.45183116692101
30
0
11
-5.6139805470786648
21
657.45183116692101
31
0
0
ARC
5
752
100
AcDbEntity
8
0
100
AcDbCircle
10
-17.411899019061096
20
656.24974963890452
30
0
40
1.7000000000000011
100
AcDbArc
50
44.999999999970193
51
224.99999999997846
0
LINE
5
753
100
AcDbEntity
8
0
100
AcDbLine
10
-18.613980547078743
20
647.85599422295547
30
0
11
-18.613980547078718
21
655.0476681108878
31
1.2147000848675404e-31
0
ARC
5
754
100
AcDbEntity
8
0
100
AcDbCircle
10
-17.411899019061149
20
646.65391269493875
30
0
40
1.699999999999998
100
AcDbArc
50
135.00000000002083
51
314.99999999997488
0
LINE
5
755
100
AcDbEntity
8
0
100
AcDbLine
10
185.98185639689009
20
645.45183116692033
30
-1.7763568394002505e-14
11
-16.209817491044575
21
645.45183116692112
31
-2.9356181941682477e-33
0
ARC
5
756
100
AcDbEntity
8
0
100
AcDbCircle
10
187.18393792490622
20
646.65391269493853
30
-1.7763568394002505e-14
40
1.700000000000067
100
AcDbArc
50
-134.99999999995057
51
45.000000000058243
0
LINE
5
757
100
AcDbEntity
8
0
100
AcDbLine
10
188.3860194529222
20
647.85599422295695
30
-1.7763568394002505e-14
11
188.38601945292223
21
655.04766811088587
31
-2.2419351677266093e-14
0
ARC
5
758
100
AcDbEntity
8
0
100
AcDbCircle
10
187.18393792490627
20
656.24974963890418
30
-1.7763568394002505e-14
40
1.7000000000000419
100
AcDbArc
50
-45.000000000056225
51
135.00000000005284
0
LINE
5
759
100
AcDbEntity
8
0
100
AcDbLine
10
185.98185639688802
20
657.45183116692021
30
-1.7763568394002505e-14
11
175.38601945292211
21
657.45183116692033
31
-1.6912571186080254e-14
0
LINE
5
760
100
AcDbEntity
8
0
100
AcDbLine
10
175.38601945292217
20
672.45183270991333
30
-1.7763568394002505e-14
11
175.38601945292211
21
657.45183116692033
31
-1.6912571186080254e-14
0
LINE
5
761
100
AcDbEntity
8
0
100
AcDbLine
10
207.30835795740521
20
672.45183270991322
30
-3.5527136788005009e-14
11
175.38601945292217
21
672.45183270991333
31
-1.7763568394002505e-14
0
LINE
5
762
100
AcDbEntity
8
0
100
AcDbLine
10
207.30835795740501
20
609.92230654647403
30
-9.1897498145912374e-15
11
207.30835795740521
21
672.45183270991322
31
-3.5527136788005009e-14
0
ARC
5
763
100
AcDbEntity
8
0
100
AcDbCircle
10
195.1843800657993
20
661.92322843982379
30
-1.7763568394002505e-14
40
1.6999999999999664
100
AcDbArc
50
-134.99999999994719
51
45.000000000058932
0
LINE
5
764
100
AcDbEntity
8
0
100
AcDbLine
10
196.38646159381526
20
663.12530996784221
30
-1.7763568394002505e-14
11
196.38646159381526
21
666.31698385577124
31
-1.9829810852241687e-14
0
ARC
5
765
100
AcDbEntity
8
0
100
AcDbCircle
10
195.18438006579936
20
667.51906538378967
30
-1.7763568394002505e-14
40
1.7000000000000168
100
AcDbArc
50
-45.000000000060297
51
135.00000000005758
0
LINE
5
766
100
AcDbEntity
8
0
100
AcDbLine
10
193.98229853778102
20
668.72114691180559
30
-1.7763568394002505e-14
11
190.79062464985185
21
668.72114691180559
31
-1.7507231345632501e-14
0
ARC
5
767
100
AcDbEntity
8
0
100
AcDbCircle
10
189.58854312183354
20
667.51906538378967
30
-1.7763568394002505e-14
40
1.6999999999999917
100
AcDbArc
50
44.999999999943107
51
224.9999999999458
0
LINE
5
768
100
AcDbEntity
8
0
100
AcDbLine
10
188.38646159381523
20
666.31698385577363
30
-1.7763568394002505e-14
11
188.38646159381526
21
663.12530996783971
31
2.0662424582422808e-15
0
ARC
5
769
100
AcDbEntity
8
0
100
AcDbCircle
10
189.58854312183351
20
661.92322843982379
30
-1.7763568394002505e-14
40
1.6999999999999664
100
AcDbArc
50
135.00000000005554
51
314.99999999994782
0
LINE
5
770
100
AcDbEntity
8
0
100
AcDbLine
10
190.79062464984952
20
660.72114691180559
30
-1.7763568394002505e-14
11
193.98229853778332
21
660.72114691180559
31
-1.7763568394002505e-14
0
ARC
5
771
100
AcDbEntity
8
0
100
AcDbCircle
10
189.58854312183345
20
632.51906538378944
30
0
40
1.6999999999999915
100
AcDbArc
50
44.999999999949871
51
224.99999999994515
0
LINE
5
772
100
AcDbEntity
8
0
100
AcDbLine
10
188.38646159381511
20
631.3169838557734
30
2.9356181941725813e-33
11
188.38646159381514
21
628.1253099678396
31
2.0662424582422749e-15
0
ARC
5
773
100
AcDbEntity
8
0
100
AcDbCircle
10
189.58854312183337
20
626.92322843982367
30
-3.5527136788005009e-14
40
1.6999999999999413
100
AcDbArc
50
135.00000000005485
51
314.99999999995123
0
LINE
5
774
100
AcDbEntity
8
0
100
AcDbLine
10
190.79062464984952
20
625.72114691180548
30
-3.5527136788005009e-14
11
193.98229853778304
21
625.72114691180548
31
-3.578347383637536e-14
0
ARC
5
775
100
AcDbEntity
8
0
100
AcDbCircle
10
195.18438006579919
20
626.92322843982367
30
-3.5527136788005009e-14
40
1.7000000000000419
100
AcDbArc
50
-134.99999999995126
51
45.0000000000569
0
LINE
5
776
100
AcDbEntity
8
0
100
AcDbLine
10
196.38646159381511
20
628.12530996784199
30
-3.5527136788005009e-14
11
196.38646159381511
21
631.31698385577101
31
-1.9829810852241649e-14
0
ARC
5
777
100
AcDbEntity
8
0
100
AcDbCircle
10
195.18438006579925
20
632.51906538378944
30
0
40
1.6999999999999915
100
AcDbArc
50
-45.000000000060972
51
135.00000000005082
0
LINE
5
778
100
AcDbEntity
8
0
100
AcDbLine
10
193.98229853778108
20
633.72114691180548
30
2.9356181941721495e-33
11
190.79062464985159
21
633.72114691180548
31
-2.9356181941720893e-33
0
LINE
5
779
100
AcDbEntity
8
0
100
AcDbLine
10
-18.614422687971807
20
631.31698385577215
30
1.7763568394002505e-14
11
-18.614422687971818
21
628.12530996784153
31
1.9829810852242612e-14
0
ARC
5
780
100
AcDbEntity
8
0
100
AcDbCircle
10
-19.816504215988424
20
632.51906538378978
30
1.7763568394002505e-14
40
1.7000000000000104
100
AcDbArc
50
-45.000000000024123
51
135.00000000002436
0
LINE
5
781
100
AcDbEntity
8
0
100
AcDbLine
10
-24.210259631936637
20
633.72114691180639
30
1.7763568394002505e-14
11
-21.018585744006053
21
633.72114691180639
31
1.7763568394002505e-14
0
ARC
5
782
100
AcDbEntity
8
0
100
AcDbCircle
10
-25.412341159954241
20
632.51906538378967
30
1.7763568394002505e-14
40
1.700000000000004
100
AcDbArc
50
44.999999999978925
51
224.99999999997695
0
LINE
5
783
100
AcDbEntity
8
0
100
AcDbLine
10
-26.614422687971828
20
628.12530996784062
30
0
11
-26.614422687971814
21
631.31698385577306
31
1.7763568394002505e-14
0
ARC
5
784
100
AcDbEntity
8
0
100
AcDbCircle
10
-25.412341159954259
20
626.92322843982402
30
-1.7763568394002505e-14
40
1.6999999999999791
100
AcDbArc
50
135.00000000002296
51
314.99999999997777
0
LINE
5
785
100
AcDbEntity
8
0
100
AcDbLine
10
-21.018585744005147
20
625.72114691180639
30
-1.7763568394002505e-14
11
-24.210259631937561
21
625.72114691180639
31
-1.7763568394002505e-14
0
ARC
5
786
100
AcDbEntity
8
0
100
AcDbCircle
10
-19.816504215988459
20
626.92322843982402
30
-1.7763568394002505e-14
40
1.7000000000000086
100
AcDbArc
50
-134.99999999997755
51
45.000000000020826
0
LWPOLYLINE
5
787
100
AcDbEntity
8
0
100
AcDbPolyline
90
8
70
1
43
0.0
10
60.886019452921552
20
635.04766818337612
42
-0.99999999999999989
10
63.290182508957152
20
637.4518312394091
10
106.48185639688944
20
637.45183123941069
42
-0.99999999999999989
10
108.88601945292173
20
635.04766818337453
10
108.88601945292189
20
631.8559942954447
42
-0.99999999999999989
10
106.48185639688931
20
629.45183123940888
10
63.290182508957081
20
629.45183123941035
42
-0.99999999999999989
10
60.886019452921538
20
631.85599429544322
0
ARC
5
788
100
AcDbEntity
8
0
100
AcDbCircle
10
-25.412341159954099
20
667.51906538378989
30
0
40
1.7000000000000262
100
AcDbArc
50
44.999999999969347
51
224.99999999997655
0
LINE
5
789
100
AcDbEntity
8
0
100
AcDbLine
10
-26.614422687971704
20
663.12530996784074
30
0
11
-26.61442268797169
21
666.31698385577329
31
-1.1559877209841577e-31
0
ARC
5
790
100
AcDbEntity
8
0
100
AcDbCircle
10
-25.412341159954146
20
661.92322843982413
30
0
40
1.6999999999999726
100
AcDbArc
50
135.00000000002271
51
314.99999999997408
0
LINE
5
791
100
AcDbEntity
8
0
100
AcDbLine
10
-21.018585744004845
20
660.72114691180627
30
0
11
-24.210259631937603
21
660.7211469118065
31
1.1559877209852185e-31
0
ARC
5
792
100
AcDbEntity
8
0
100
AcDbCircle
10
-19.816504215988321
20
661.92322843982413
30
0
40
1.7000000000000435
100
AcDbArc
50
-134.99999999996825
51
45.000000000023626
0
LINE
5
793
100
AcDbEntity
8
0
100
AcDbLine
10
-18.614422687971686
20
666.31698385577226
30
1.7763568394002505e-14
11
-18.614422687971683
21
663.12530996784176
31
-1.2147000848684843e-31
0
ARC
5
794
100
AcDbEntity
8
0
100
AcDbCircle
10
-19.816504215988303
20
667.51906538378989
30
0
40
1.7000000000000104
100
AcDbArc
50
-45.000000000024123
51
135.00000000003067
0
LINE
5
795
100
AcDbEntity
8
0
100
AcDbLine
10
-24.210259631936321
20
668.72114691180639
30
1.1559877209839692e-31
11
-21.018585744006081
21
668.72114691180639
31
1.2147000848673932e-31
0
ENDSEC
0
SECTION
2
OBJECTS
0
DICTIONARY
5
C
100
AcDbDictionary
3
ACAD_GROUP
350
D
3
ACAD_MLINESTYLE
350
17
0
DICTIONARY
5
D
100
AcDbDictionary
0
DICTIONARY
5
1A
330
C
100
AcDbDictionary
0
DICTIONARY
5
17
100
AcDbDictionary
0
ENDSEC
0
EOF
