G04 #@! TF.GenerationSoftware,KiCad,Pcbnew,(6.0.0-rc1-dev-347-gd8782b751)*
G04 #@! TF.CreationDate,2019-11-17T21:32:00+01:00*
G04 #@! TF.ProjectId,test_pos,746573745F706F732E6B696361645F70,rev?*
G04 #@! TF.SameCoordinates,Original*
G04 #@! TF.FileFunction,Paste,Top*
G04 #@! TF.FilePolarity,Positive*
%FSLAX46Y46*%
G04 Gerber Fmt 4.6, Leading zero omitted, Abs format (unit mm)*
G04 Created by KiCad (PCBNEW (6.0.0-rc1-dev-347-gd8782b751)) date 11/17/19 21:32:00*
%MOMM*%
%LPD*%
G01*
G04 APERTURE LIST*
%ADD10C,0.050000*%
%ADD11C,1.250000*%
G04 APERTURE END LIST*
D10*
G04 #@! TO.C,C1*
G36*
X19071504Y-14874204D02*
X19095773Y-14877804D01*
X19119571Y-14883765D01*
X19142671Y-14892030D01*
X19164849Y-14902520D01*
X19185893Y-14915133D01*
X19205598Y-14929747D01*
X19223777Y-14946223D01*
X19240253Y-14964402D01*
X19254867Y-14984107D01*
X19267480Y-15005151D01*
X19277970Y-15027329D01*
X19286235Y-15050429D01*
X19292196Y-15074227D01*
X19295796Y-15098496D01*
X19297000Y-15123000D01*
X19297000Y-16373000D01*
X19295796Y-16397504D01*
X19292196Y-16421773D01*
X19286235Y-16445571D01*
X19277970Y-16468671D01*
X19267480Y-16490849D01*
X19254867Y-16511893D01*
X19240253Y-16531598D01*
X19223777Y-16549777D01*
X19205598Y-16566253D01*
X19185893Y-16580867D01*
X19164849Y-16593480D01*
X19142671Y-16603970D01*
X19119571Y-16612235D01*
X19095773Y-16618196D01*
X19071504Y-16621796D01*
X19047000Y-16623000D01*
X18297000Y-16623000D01*
X18272496Y-16621796D01*
X18248227Y-16618196D01*
X18224429Y-16612235D01*
X18201329Y-16603970D01*
X18179151Y-16593480D01*
X18158107Y-16580867D01*
X18138402Y-16566253D01*
X18120223Y-16549777D01*
X18103747Y-16531598D01*
X18089133Y-16511893D01*
X18076520Y-16490849D01*
X18066030Y-16468671D01*
X18057765Y-16445571D01*
X18051804Y-16421773D01*
X18048204Y-16397504D01*
X18047000Y-16373000D01*
X18047000Y-15123000D01*
X18048204Y-15098496D01*
X18051804Y-15074227D01*
X18057765Y-15050429D01*
X18066030Y-15027329D01*
X18076520Y-15005151D01*
X18089133Y-14984107D01*
X18103747Y-14964402D01*
X18120223Y-14946223D01*
X18138402Y-14929747D01*
X18158107Y-14915133D01*
X18179151Y-14902520D01*
X18201329Y-14892030D01*
X18224429Y-14883765D01*
X18248227Y-14877804D01*
X18272496Y-14874204D01*
X18297000Y-14873000D01*
X19047000Y-14873000D01*
X19071504Y-14874204D01*
X19071504Y-14874204D01*
G37*
D11*
X18672000Y-15748000D03*
D10*
G36*
X16271504Y-14874204D02*
X16295773Y-14877804D01*
X16319571Y-14883765D01*
X16342671Y-14892030D01*
X16364849Y-14902520D01*
X16385893Y-14915133D01*
X16405598Y-14929747D01*
X16423777Y-14946223D01*
X16440253Y-14964402D01*
X16454867Y-14984107D01*
X16467480Y-15005151D01*
X16477970Y-15027329D01*
X16486235Y-15050429D01*
X16492196Y-15074227D01*
X16495796Y-15098496D01*
X16497000Y-15123000D01*
X16497000Y-16373000D01*
X16495796Y-16397504D01*
X16492196Y-16421773D01*
X16486235Y-16445571D01*
X16477970Y-16468671D01*
X16467480Y-16490849D01*
X16454867Y-16511893D01*
X16440253Y-16531598D01*
X16423777Y-16549777D01*
X16405598Y-16566253D01*
X16385893Y-16580867D01*
X16364849Y-16593480D01*
X16342671Y-16603970D01*
X16319571Y-16612235D01*
X16295773Y-16618196D01*
X16271504Y-16621796D01*
X16247000Y-16623000D01*
X15497000Y-16623000D01*
X15472496Y-16621796D01*
X15448227Y-16618196D01*
X15424429Y-16612235D01*
X15401329Y-16603970D01*
X15379151Y-16593480D01*
X15358107Y-16580867D01*
X15338402Y-16566253D01*
X15320223Y-16549777D01*
X15303747Y-16531598D01*
X15289133Y-16511893D01*
X15276520Y-16490849D01*
X15266030Y-16468671D01*
X15257765Y-16445571D01*
X15251804Y-16421773D01*
X15248204Y-16397504D01*
X15247000Y-16373000D01*
X15247000Y-15123000D01*
X15248204Y-15098496D01*
X15251804Y-15074227D01*
X15257765Y-15050429D01*
X15266030Y-15027329D01*
X15276520Y-15005151D01*
X15289133Y-14984107D01*
X15303747Y-14964402D01*
X15320223Y-14946223D01*
X15338402Y-14929747D01*
X15358107Y-14915133D01*
X15379151Y-14902520D01*
X15401329Y-14892030D01*
X15424429Y-14883765D01*
X15448227Y-14877804D01*
X15472496Y-14874204D01*
X15497000Y-14873000D01*
X16247000Y-14873000D01*
X16271504Y-14874204D01*
X16271504Y-14874204D01*
G37*
D11*
X15872000Y-15748000D03*
G04 #@! TD*
M02*
