  0
SECTION
  2
HEADER
  9
$ANGBASE
  50
0.0
  9
$ANGDIR
  70
  1
  9
$MEASUREMENT
  70
0
  0
ENDSEC
  0
SECTION
  2
TABLES
  0
TABLE
  2
LTYPE
  70
4
  0
LTYPE
  5
40F
  2
CONTINUOUS
  70
0
  3
Solid line
  72
65
  73
0
  40
0.0
  0
LTYPE
  5
410
  2
DASHDOT
 70
0
  3
Dash Dot ____ _ ____ _
 72
65
 73
4
 40
2.0
 49
1.25
 49
-0.25
 49
0.25
 49
-0.25
  0
LTYPE
  5
411
  2
DASHED
 70
0
  3
Dashed __ __ __ __ __
 72
65
 73
2
 40
0.75
 49
0.5
 49
-0.25
  0
LTYPE
  5
43B
  2
DOTTED
 70
0
  3
Dotted .  .  .  .
 72
65
 73
2
 40
0.2
 49
0.0
 49
-0.2
  0
ENDTAB
  0
TABLE
  2
STYLE
  70
4
  0
STYLE
  2
KICAD
  70
0
  40
0
  41
1
  42
1
  50
0
  71
0
  3
isocp.shx
  0
STYLE
  2
KICADB
  70
0
  40
0
  41
1
  42
1
  50
0
  71
0
  3
isocp.shx
  0
STYLE
  2
KICADI
  70
0
  40
0
  41
1
  42
1
  50
15
  71
0
  3
isocp.shx
  0
STYLE
  2
KICADBI
  70
0
  40
0
  41
1
  42
1
  50
15
  71
0
  3
isocp.shx
  0
ENDTAB
  0
TABLE
  2
LAYER
  70
30
  0
LAYER
  2
BLACK
  70
0
  62
7
  6
CONTINUOUS
  0
LAYER
  2
GRAY1
  70
0
  62
251
  6
CONTINUOUS
  0
LAYER
  2
GRAY2
  70
0
  62
8
  6
CONTINUOUS
  0
LAYER
  2
GRAY3
  70
0
  62
9
  6
CONTINUOUS
  0
LAYER
  2
WHITE
  70
0
  62
7
  6
CONTINUOUS
  0
LAYER
  2
LYELLOW
  70
0
  62
51
  6
CONTINUOUS
  0
LAYER
  2
BLUE1
  70
0
  62
178
  6
CONTINUOUS
  0
LAYER
  2
GREEN1
  70
0
  62
98
  6
CONTINUOUS
  0
LAYER
  2
CYAN1
  70
0
  62
138
  6
CONTINUOUS
  0
LAYER
  2
RED1
  70
0
  62
18
  6
CONTINUOUS
  0
LAYER
  2
MAGENTA1
  70
0
  62
228
  6
CONTINUOUS
  0
LAYER
  2
BROWN1
  70
0
  62
58
  6
CONTINUOUS
  0
LAYER
  2
BLUE2
  70
0
  62
5
  6
CONTINUOUS
  0
LAYER
  2
GREEN2
  70
0
  62
3
  6
CONTINUOUS
  0
LAYER
  2
CYAN2
  70
0
  62
4
  6
CONTINUOUS
  0
LAYER
  2
RED2
  70
0
  62
1
  6
CONTINUOUS
  0
LAYER
  2
MAGENTA2
  70
0
  62
6
  6
CONTINUOUS
  0
LAYER
  2
BROWN2
  70
0
  62
54
  6
CONTINUOUS
  0
LAYER
  2
BLUE3
  70
0
  62
171
  6
CONTINUOUS
  0
LAYER
  2
GREEN3
  70
0
  62
91
  6
CONTINUOUS
  0
LAYER
  2
CYAN3
  70
0
  62
131
  6
CONTINUOUS
  0
LAYER
  2
RED3
  70
0
  62
11
  6
CONTINUOUS
  0
LAYER
  2
MAGENTA3
  70
0
  62
221
  6
CONTINUOUS
  0
LAYER
  2
YELLOW3
  70
0
  62
2
  6
CONTINUOUS
  0
LAYER
  2
BLUE4
  70
0
  62
5
  6
CONTINUOUS
  0
LAYER
  2
GREEN4
  70
0
  62
3
  6
CONTINUOUS
  0
LAYER
  2
CYAN4
  70
0
  62
4
  6
CONTINUOUS
  0
LAYER
  2
RED4
  70
0
  62
1
  6
CONTINUOUS
  0
LAYER
  2
MAGENTA4
  70
0
  62
6
  6
CONTINUOUS
  0
LAYER
  2
YELLOW4
  70
0
  62
2
  6
CONTINUOUS
  0
ENDTAB
  0
ENDSEC
  0
SECTION
  2
ENTITIES
0
CIRCLE
8
BLACK
10
119.38
20
-145.288
40
2.79689
0
CIRCLE
8
BLACK
10
154.432
20
-145.288
40
2.794
0
CIRCLE
8
BLACK
10
119.38
20
-40.132
40
2.80552
0
CIRCLE
8
BLACK
10
154.559
20
-40.132
40
2.55267
0
LINE
8
BLACK
6
CONTINUOUS
10
81.534
20
-172.085
11
81.534
21
-32.004
0
LINE
8
BLACK
6
CONTINUOUS
10
178.308
20
-172.085
11
81.534
21
-172.085
0
LINE
8
BLACK
6
CONTINUOUS
10
178.308
20
-32.004
11
178.308
21
-172.085
0
LINE
8
BLACK
6
CONTINUOUS
10
81.534
20
-32.004
11
178.308
21
-32.004
0
LINE
8
BLACK
6
CONTINUOUS
10
111.378
20
-123.78
11
111.378
21
-116.88
0
LINE
8
BLACK
6
CONTINUOUS
10
108.078
20
-123.78
11
108.078
21
-116.88
0
LINE
8
BLACK
6
CONTINUOUS
10
111.378
20
-123.78
11
108.078
21
-123.78
0
LINE
8
BLACK
6
CONTINUOUS
10
115.73
20
-59.923
11
116.934
21
-59.923
0
LINE
8
BLACK
6
CONTINUOUS
10
115.73
20
-61.743
11
116.934
21
-61.743
0
LINE
8
BLACK
6
CONTINUOUS
10
111.739
20
-86.2001
11
111.739
21
-84.9959
0
LINE
8
BLACK
6
CONTINUOUS
10
113.559
20
-86.2001
11
113.559
21
-84.9959
0
LINE
8
BLACK
6
CONTINUOUS
10
86.4541
20
-128.037
11
85.2499
21
-128.037
0
LINE
8
BLACK
6
CONTINUOUS
10
86.4541
20
-126.217
11
85.2499
21
-126.217
0
LINE
8
BLACK
6
CONTINUOUS
10
86.3271
20
-93.239
11
85.1229
21
-93.239
0
LINE
8
BLACK
6
CONTINUOUS
10
86.3271
20
-91.419
11
85.1229
21
-91.419
0
LINE
8
BLACK
6
CONTINUOUS
10
86.3271
20
-60.092
11
85.1229
21
-60.092
0
LINE
8
BLACK
6
CONTINUOUS
10
86.3271
20
-58.272
11
85.1229
21
-58.272
0
LINE
8
BLACK
6
CONTINUOUS
10
173.388
20
-98.15
11
174.592
21
-98.15
0
LINE
8
BLACK
6
CONTINUOUS
10
173.388
20
-99.97
11
174.592
21
-99.97
0
LINE
8
BLACK
6
CONTINUOUS
10
160.849
20
-97.095
11
163.084
21
-97.095
0
LINE
8
BLACK
6
CONTINUOUS
10
160.849
20
-102.295
11
160.849
21
-97.095
0
LINE
8
BLACK
6
CONTINUOUS
10
167.319
20
-102.295
11
160.849
21
-102.295
0
LINE
8
BLACK
6
CONTINUOUS
10
167.319
20
-97.095
11
167.319
21
-102.295
0
LINE
8
BLACK
6
CONTINUOUS
10
165.084
20
-97.095
11
167.319
21
-97.095
0
ARC
8
BLACK
10
164.084
20
-97.095
40
1
50
-180
51
-0
0
LINE
8
BLACK
6
CONTINUOUS
10
123.631
20
-128.179
11
121.396
21
-128.179
0
LINE
8
BLACK
6
CONTINUOUS
10
123.631
20
-122.979
11
123.631
21
-128.179
0
LINE
8
BLACK
6
CONTINUOUS
10
117.161
20
-122.979
11
123.631
21
-122.979
0
LINE
8
BLACK
6
CONTINUOUS
10
117.161
20
-128.179
11
117.161
21
-122.979
0
LINE
8
BLACK
6
CONTINUOUS
10
119.396
20
-128.179
11
117.161
21
-128.179
0
ARC
8
BLACK
10
120.396
20
-128.179
40
1
50
-0
51
180
0
LINE
8
BLACK
6
CONTINUOUS
10
167.319
20
-109.407
11
165.084
21
-109.407
0
LINE
8
BLACK
6
CONTINUOUS
10
167.319
20
-104.207
11
167.319
21
-109.407
0
LINE
8
BLACK
6
CONTINUOUS
10
160.849
20
-104.207
11
167.319
21
-104.207
0
LINE
8
BLACK
6
CONTINUOUS
10
160.849
20
-109.407
11
160.849
21
-104.207
0
LINE
8
BLACK
6
CONTINUOUS
10
163.084
20
-109.407
11
160.849
21
-109.407
0
ARC
8
BLACK
10
164.084
20
-109.407
40
1
50
-0
51
180
0
LINE
8
BLACK
6
CONTINUOUS
10
117.161
20
-94.9116
11
119.396
21
-94.9116
0
LINE
8
BLACK
6
CONTINUOUS
10
117.161
20
-100.112
11
117.161
21
-94.9116
0
LINE
8
BLACK
6
CONTINUOUS
10
123.631
20
-100.112
11
117.161
21
-100.112
0
LINE
8
BLACK
6
CONTINUOUS
10
123.631
20
-94.9116
11
123.631
21
-100.112
0
LINE
8
BLACK
6
CONTINUOUS
10
121.396
20
-94.9116
11
123.631
21
-94.9116
0
ARC
8
BLACK
10
120.396
20
-94.9116
40
1
50
-180
51
-0
0
LINE
8
BLACK
6
CONTINUOUS
10
117.161
20
-89.1966
11
119.396
21
-89.1966
0
LINE
8
BLACK
6
CONTINUOUS
10
117.161
20
-94.3966
11
117.161
21
-89.1966
0
LINE
8
BLACK
6
CONTINUOUS
10
123.631
20
-94.3966
11
117.161
21
-94.3966
0
LINE
8
BLACK
6
CONTINUOUS
10
123.631
20
-89.1966
11
123.631
21
-94.3966
0
LINE
8
BLACK
6
CONTINUOUS
10
121.396
20
-89.1966
11
123.631
21
-89.1966
0
ARC
8
BLACK
10
120.396
20
-89.1966
40
1
50
-180
51
-0
0
LINE
8
BLACK
6
CONTINUOUS
10
117.161
20
-83.4816
11
119.396
21
-83.4816
0
LINE
8
BLACK
6
CONTINUOUS
10
117.161
20
-88.6816
11
117.161
21
-83.4816
0
LINE
8
BLACK
6
CONTINUOUS
10
123.631
20
-88.6816
11
117.161
21
-88.6816
0
LINE
8
BLACK
6
CONTINUOUS
10
123.631
20
-83.4816
11
123.631
21
-88.6816
0
LINE
8
BLACK
6
CONTINUOUS
10
121.396
20
-83.4816
11
123.631
21
-83.4816
0
ARC
8
BLACK
10
120.396
20
-83.4816
40
1
50
-180
51
-0
0
LINE
8
BLACK
6
CONTINUOUS
10
117.161
20
-77.7666
11
119.396
21
-77.7666
0
LINE
8
BLACK
6
CONTINUOUS
10
117.161
20
-82.9666
11
117.161
21
-77.7666
0
LINE
8
BLACK
6
CONTINUOUS
10
123.631
20
-82.9666
11
117.161
21
-82.9666
0
LINE
8
BLACK
6
CONTINUOUS
10
123.631
20
-77.7666
11
123.631
21
-82.9666
0
LINE
8
BLACK
6
CONTINUOUS
10
121.396
20
-77.7666
11
123.631
21
-77.7666
0
ARC
8
BLACK
10
120.396
20
-77.7666
40
1
50
-180
51
-0
0
LINE
8
BLACK
6
CONTINUOUS
10
117.161
20
-72.0516
11
119.396
21
-72.0516
0
LINE
8
BLACK
6
CONTINUOUS
10
117.161
20
-77.2516
11
117.161
21
-72.0516
0
LINE
8
BLACK
6
CONTINUOUS
10
123.631
20
-77.2516
11
117.161
21
-77.2516
0
LINE
8
BLACK
6
CONTINUOUS
10
123.631
20
-72.0516
11
123.631
21
-77.2516
0
LINE
8
BLACK
6
CONTINUOUS
10
121.396
20
-72.0516
11
123.631
21
-72.0516
0
ARC
8
BLACK
10
120.396
20
-72.0516
40
1
50
-180
51
-0
0
LINE
8
BLACK
6
CONTINUOUS
10
117.161
20
-117.264
11
119.396
21
-117.264
0
LINE
8
BLACK
6
CONTINUOUS
10
117.161
20
-122.464
11
117.161
21
-117.264
0
LINE
8
BLACK
6
CONTINUOUS
10
123.631
20
-122.464
11
117.161
21
-122.464
0
LINE
8
BLACK
6
CONTINUOUS
10
123.631
20
-117.264
11
123.631
21
-122.464
0
LINE
8
BLACK
6
CONTINUOUS
10
121.396
20
-117.264
11
123.631
21
-117.264
0
ARC
8
BLACK
10
120.396
20
-117.264
40
1
50
-180
51
-0
0
LINE
8
BLACK
6
CONTINUOUS
10
117.161
20
-66.361
11
119.396
21
-66.361
0
LINE
8
BLACK
6
CONTINUOUS
10
117.161
20
-71.561
11
117.161
21
-66.361
0
LINE
8
BLACK
6
CONTINUOUS
10
123.631
20
-71.561
11
117.161
21
-71.561
0
LINE
8
BLACK
6
CONTINUOUS
10
123.631
20
-66.361
11
123.631
21
-71.561
0
LINE
8
BLACK
6
CONTINUOUS
10
121.396
20
-66.361
11
123.631
21
-66.361
0
ARC
8
BLACK
10
120.396
20
-66.361
40
1
50
-180
51
-0
0
LINE
8
BLACK
6
CONTINUOUS
10
123.631
20
-114.209
11
121.396
21
-114.209
0
LINE
8
BLACK
6
CONTINUOUS
10
123.631
20
-109.009
11
123.631
21
-114.209
0
LINE
8
BLACK
6
CONTINUOUS
10
117.161
20
-109.009
11
123.631
21
-109.009
0
LINE
8
BLACK
6
CONTINUOUS
10
117.161
20
-114.209
11
117.161
21
-109.009
0
LINE
8
BLACK
6
CONTINUOUS
10
119.396
20
-114.209
11
117.161
21
-114.209
0
ARC
8
BLACK
10
120.396
20
-114.209
40
1
50
-0
51
180
0
LINE
8
BLACK
6
CONTINUOUS
10
123.631
20
-105.827
11
121.396
21
-105.827
0
LINE
8
BLACK
6
CONTINUOUS
10
123.631
20
-100.627
11
123.631
21
-105.827
0
LINE
8
BLACK
6
CONTINUOUS
10
117.161
20
-100.627
11
123.631
21
-100.627
0
LINE
8
BLACK
6
CONTINUOUS
10
117.161
20
-105.827
11
117.161
21
-100.627
0
LINE
8
BLACK
6
CONTINUOUS
10
119.396
20
-105.827
11
117.161
21
-105.827
0
ARC
8
BLACK
10
120.396
20
-105.827
40
1
50
-0
51
180
0
LINE
8
BLACK
6
CONTINUOUS
10
160.849
20
-85.665
11
163.084
21
-85.665
0
LINE
8
BLACK
6
CONTINUOUS
10
160.849
20
-90.865
11
160.849
21
-85.665
0
LINE
8
BLACK
6
CONTINUOUS
10
167.319
20
-90.865
11
160.849
21
-90.865
0
LINE
8
BLACK
6
CONTINUOUS
10
167.319
20
-85.665
11
167.319
21
-90.865
0
LINE
8
BLACK
6
CONTINUOUS
10
165.084
20
-85.665
11
167.319
21
-85.665
0
ARC
8
BLACK
10
164.084
20
-85.665
40
1
50
-180
51
-0
0
LINE
8
BLACK
6
CONTINUOUS
10
160.849
20
-91.38
11
163.084
21
-91.38
0
LINE
8
BLACK
6
CONTINUOUS
10
160.849
20
-96.58
11
160.849
21
-91.38
0
LINE
8
BLACK
6
CONTINUOUS
10
167.319
20
-96.58
11
160.849
21
-96.58
0
LINE
8
BLACK
6
CONTINUOUS
10
167.319
20
-91.38
11
167.319
21
-96.58
0
LINE
8
BLACK
6
CONTINUOUS
10
165.084
20
-91.38
11
167.319
21
-91.38
0
ARC
8
BLACK
10
164.084
20
-91.38
40
1
50
-180
51
-0
0
LINE
8
BLACK
6
CONTINUOUS
10
171.898
20
-110.423
11
171.898
21
-108.188
0
LINE
8
BLACK
6
CONTINUOUS
10
177.098
20
-110.423
11
171.898
21
-110.423
0
LINE
8
BLACK
6
CONTINUOUS
10
177.098
20
-103.953
11
177.098
21
-110.423
0
LINE
8
BLACK
6
CONTINUOUS
10
171.898
20
-103.953
11
177.098
21
-103.953
0
LINE
8
BLACK
6
CONTINUOUS
10
171.898
20
-106.188
11
171.898
21
-103.953
0
ARC
8
BLACK
10
171.898
20
-107.188
40
1
50
-90
51
90
0
LINE
8
BLACK
6
CONTINUOUS
10
119.577
20
-52.8785
11
118.477
21
-52.8785
0
LINE
8
BLACK
6
CONTINUOUS
10
119.577
20
-52.6085
11
119.577
21
-52.8785
0
LINE
8
BLACK
6
CONTINUOUS
10
121.077
20
-52.6085
11
119.577
21
-52.6085
0
LINE
8
BLACK
6
CONTINUOUS
10
119.577
20
-59.2385
11
116.747
21
-59.2385
0
LINE
8
BLACK
6
CONTINUOUS
10
119.577
20
-59.5085
11
119.577
21
-59.2385
0
LINE
8
BLACK
6
CONTINUOUS
10
121.077
20
-59.5085
11
119.577
21
-59.5085
0
LINE
8
BLACK
6
CONTINUOUS
10
173.388
20
-91.8
11
174.592
21
-91.8
0
LINE
8
BLACK
6
CONTINUOUS
10
173.388
20
-93.62
11
174.592
21
-93.62
0
LINE
8
BLACK
6
CONTINUOUS
10
173.17
20
-94.848
11
174.375
21
-94.848
0
LINE
8
BLACK
6
CONTINUOUS
10
173.17
20
-96.668
11
174.375
21
-96.668
0
LINE
8
BLACK
6
CONTINUOUS
10
173.388
20
-85.577
11
174.592
21
-85.577
0
LINE
8
BLACK
6
CONTINUOUS
10
173.388
20
-87.397
11
174.592
21
-87.397
0
LINE
8
BLACK
6
CONTINUOUS
10
128.684
20
-117.581
11
129.888
21
-117.581
0
LINE
8
BLACK
6
CONTINUOUS
10
128.684
20
-119.401
11
129.888
21
-119.401
0
LINE
8
BLACK
6
CONTINUOUS
10
158.082
20
-113.051
11
156.878
21
-113.051
0
LINE
8
BLACK
6
CONTINUOUS
10
158.082
20
-111.231
11
156.878
21
-111.231
0
LINE
8
BLACK
6
CONTINUOUS
10
134.087
20
-93.194
11
135.291
21
-93.194
0
LINE
8
BLACK
6
CONTINUOUS
10
134.087
20
-95.014
11
135.291
21
-95.014
0
LINE
8
BLACK
6
CONTINUOUS
10
134.087
20
-90.654
11
135.291
21
-90.654
0
LINE
8
BLACK
6
CONTINUOUS
10
134.087
20
-92.474
11
135.291
21
-92.474
0
LINE
8
BLACK
6
CONTINUOUS
10
134.087
20
-88.114
11
135.291
21
-88.114
0
LINE
8
BLACK
6
CONTINUOUS
10
134.087
20
-89.934
11
135.291
21
-89.934
0
LINE
8
BLACK
6
CONTINUOUS
10
134.087
20
-85.574
11
135.291
21
-85.574
0
LINE
8
BLACK
6
CONTINUOUS
10
134.087
20
-87.394
11
135.291
21
-87.394
0
LINE
8
BLACK
6
CONTINUOUS
10
134.087
20
-83.034
11
135.291
21
-83.034
0
LINE
8
BLACK
6
CONTINUOUS
10
134.087
20
-84.854
11
135.291
21
-84.854
0
LINE
8
BLACK
6
CONTINUOUS
10
116.619
20
-129.011
11
117.823
21
-129.011
0
LINE
8
BLACK
6
CONTINUOUS
10
116.619
20
-130.831
11
117.823
21
-130.831
0
LINE
8
BLACK
6
CONTINUOUS
10
113.444
20
-114.914
11
114.648
21
-114.914
0
LINE
8
BLACK
6
CONTINUOUS
10
113.444
20
-116.734
11
114.648
21
-116.734
0
LINE
8
BLACK
6
CONTINUOUS
10
113.444
20
-106.278
11
114.648
21
-106.278
0
LINE
8
BLACK
6
CONTINUOUS
10
113.444
20
-108.098
11
114.648
21
-108.098
0
LINE
8
BLACK
6
CONTINUOUS
10
151.913
20
-75.5979
11
151.913
21
-76.8021
0
LINE
8
BLACK
6
CONTINUOUS
10
150.093
20
-75.5979
11
150.093
21
-76.8021
0
LINE
8
BLACK
6
CONTINUOUS
10
115.845
20
-55.4565
11
115.845
21
-56.6606
0
LINE
8
BLACK
6
CONTINUOUS
10
114.025
20
-55.4565
11
114.025
21
-56.6606
0
LINE
8
BLACK
6
CONTINUOUS
10
116.934
20
-64.41
11
115.73
21
-64.41
0
LINE
8
BLACK
6
CONTINUOUS
10
116.934
20
-62.59
11
115.73
21
-62.59
0
LINE
8
BLACK
6
CONTINUOUS
10
134.145
20
-82.2114
11
135.349
21
-82.2114
0
LINE
8
BLACK
6
CONTINUOUS
10
134.145
20
-80.3914
11
135.349
21
-80.3914
  0
ENDSEC
  0
EOF
