<?xml version="1.0" standalone="no"?>
 <!DOCTYPE svg PUBLIC "-//W3C//DTD SVG 1.1//EN" 
 "http://www.w3.org/Graphics/SVG/1.1/DTD/svg11.dtd"> 
<svg xmlns="http://www.w3.org/2000/svg" version="1.1" 
    width="12.2352cm" height="14.9479cm" viewBox="0 0 48170 58850 ">
<title>SVG Picture created as nano-B.SilkS.svg date 2018/09/07 17:06:55 </title>
  <desc>Picture generated by PCBNEW </desc>
<g style="fill:#000000; fill-opacity:1;stroke:#000000; stroke-opacity:1;
stroke-linecap:round; stroke-linejoin:round; "
 transform="translate(0 0) scale(1 1)">
</g>
<g style="fill:#000000; fill-opacity:0.0; 
stroke:#000000; stroke-width:-0.000393701; stroke-opacity:1; 
stroke-linecap:round; stroke-linejoin:round;">
</g>
<g style="fill:#000000; fill-opacity:0.0; 
stroke:#000000; stroke-width:47.2441; stroke-opacity:1; 
stroke-linecap:round; stroke-linejoin:round;">
<path d="M14734 37432
L14734 34715
" />
<path d="M13435 37432
L13435 34715
" />
<path d="M14734 37432
L13435 37432
" />
<path d="M16447 12291
L16921 12291
" />
<path d="M16447 13008
L16921 13008
" />
<path d="M14876 22637
L14876 22162
" />
<path d="M15593 22637
L15593 22162
" />
<path d="M4921 39108
L4447 39108
" />
<path d="M4921 38391
L4447 38391
" />
<path d="M4871 25408
L4397 25408
" />
<path d="M4871 24691
L4397 24691
" />
<path d="M4871 12358
L4397 12358
" />
<path d="M4871 11641
L4397 11641
" />
<path d="M39147 27341
L39621 27341
" />
<path d="M39147 28058
L39621 28058
" />
<path d="M34211 26926
L35091 26926
" />
<path d="M34211 28973
L34211 26926
" />
<path d="M36758 28973
L34211 28973
" />
<path d="M36758 26926
L36758 28973
" />
<path d="M35878 26926
L36758 26926
" />
<path d="M35091.2 26926.4 A393.701 393.701 0.0 0 0 35878.6 26926.4 " />
<path d="M19558 39164
L18678 39164
" />
<path d="M19558 37116
L19558 39164
" />
<path d="M17011 37116
L19558 37116
" />
<path d="M17011 39164
L17011 37116
" />
<path d="M17891 39164
L17011 39164
" />
<path d="M18678.6 39164 A393.701 393.701 0.0 0 0 17891.2 39164 " />
<path d="M36758 31773
L35878 31773
" />
<path d="M36758 29726
L36758 31773
" />
<path d="M34211 29726
L36758 29726
" />
<path d="M34211 31773
L34211 29726
" />
<path d="M35091 31773
L34211 31773
" />
<path d="M35878.6 31773.6 A393.701 393.701 0.0 0 0 35091.2 31773.6 " />
<path d="M17011 26066
L17891 26066
" />
<path d="M17011 28114
L17011 26066
" />
<path d="M19558 28114
L17011 28114
" />
<path d="M19558 26066
L19558 28114
" />
<path d="M18678 26066
L19558 26066
" />
<path d="M17891.2 26066.8 A393.701 393.701 0.0 0 0 18678.6 26066.8 " />
<path d="M17011 23816
L17891 23816
" />
<path d="M17011 25864
L17011 23816
" />
<path d="M19558 25864
L17011 25864
" />
<path d="M19558 23816
L19558 25864
" />
<path d="M18678 23816
L19558 23816
" />
<path d="M17891.2 23816.8 A393.701 393.701 0.0 0 0 18678.6 23816.8 " />
<path d="M17011 21566
L17891 21566
" />
<path d="M17011 23614
L17011 21566
" />
<path d="M19558 23614
L17011 23614
" />
<path d="M19558 21566
L19558 23614
" />
<path d="M18678 21566
L19558 21566
" />
<path d="M17891.2 21566.8 A393.701 393.701 0.0 0 0 18678.6 21566.8 " />
<path d="M17011 19316
L17891 19316
" />
<path d="M17011 21364
L17011 19316
" />
<path d="M19558 21364
L17011 21364
" />
<path d="M19558 19316
L19558 21364
" />
<path d="M18678 19316
L19558 19316
" />
<path d="M17891.2 19316.8 A393.701 393.701 0.0 0 0 18678.6 19316.8 " />
<path d="M17011 17066
L17891 17066
" />
<path d="M17011 19114
L17011 17066
" />
<path d="M19558 19114
L17011 19114
" />
<path d="M19558 17066
L19558 19114
" />
<path d="M18678 17066
L19558 17066
" />
<path d="M17891.2 17066.8 A393.701 393.701 0.0 0 0 18678.6 17066.8 " />
<path d="M17011 34866
L17891 34866
" />
<path d="M17011 36914
L17011 34866
" />
<path d="M19558 36914
L17011 36914
" />
<path d="M19558 34866
L19558 36914
" />
<path d="M18678 34866
L19558 34866
" />
<path d="M17891.2 34866.8 A393.701 393.701 0.0 0 0 18678.6 34866.8 " />
<path d="M17011 14826
L17891 14826
" />
<path d="M17011 16873
L17011 14826
" />
<path d="M19558 16873
L17011 16873
" />
<path d="M19558 14826
L19558 16873
" />
<path d="M18678 14826
L19558 14826
" />
<path d="M17891.2 14826.4 A393.701 393.701 0.0 0 0 18678.6 14826.4 " />
<path d="M19558 33664
L18678 33664
" />
<path d="M19558 31616
L19558 33664
" />
<path d="M17011 31616
L19558 31616
" />
<path d="M17011 33664
L17011 31616
" />
<path d="M17891 33664
L17011 33664
" />
<path d="M18678.6 33664 A393.701 393.701 0.0 0 0 17891.2 33664 " />
<path d="M19558 30364
L18678 30364
" />
<path d="M19558 28316
L19558 30364
" />
<path d="M17011 28316
L19558 28316
" />
<path d="M17011 30364
L17011 28316
" />
<path d="M17891 30364
L17011 30364
" />
<path d="M18678.6 30364 A393.701 393.701 0.0 0 0 17891.2 30364 " />
<path d="M34211 22426
L35091 22426
" />
<path d="M34211 24473
L34211 22426
" />
<path d="M36758 24473
L34211 24473
" />
<path d="M36758 22426
L36758 24473
" />
<path d="M35878 22426
L36758 22426
" />
<path d="M35091.2 22426.4 A393.701 393.701 0.0 0 0 35878.6 22426.4 " />
<path d="M34211 24676
L35091 24676
" />
<path d="M34211 26723
L34211 24676
" />
<path d="M36758 26723
L34211 26723
" />
<path d="M36758 24676
L36758 26723
" />
<path d="M35878 24676
L36758 24676
" />
<path d="M35091.2 24676.4 A393.701 393.701 0.0 0 0 35878.6 24676.4 " />
<path d="M38561 32173
L38561 31293
" />
<path d="M40608 32173
L38561 32173
" />
<path d="M40608 29626
L40608 32173
" />
<path d="M38561 29626
L40608 29626
" />
<path d="M38561 30506
L38561 29626
" />
<path d="M38561.2 31293.7 A393.701 393.701 0.0 0 0 38561.2 30506.3 " />
<path d="M17962 9518
L17529 9518
" />
<path d="M17962 9412
L17962 9518
" />
<path d="M18552 9412
L17962 9412
" />
<path d="M17962 12022
L16848 12022
" />
<path d="M17962 12128
L17962 12022
" />
<path d="M18552 12128
L17962 12128
" />
<path d="M39147 24841
L39621 24841
" />
<path d="M39147 25558
L39621 25558
" />
<path d="M39062 26041
L39536 26041
" />
<path d="M39062 26758
L39536 26758
" />
<path d="M39147 22391
L39621 22391
" />
<path d="M39147 23108
L39621 23108
" />
<path d="M21547 34991
L22021 34991
" />
<path d="M21547 35708
L22021 35708
" />
<path d="M33121 33208
L32647 33208
" />
<path d="M33121 32491
L32647 32491
" />
<path d="M23675 25390
L24149 25390
" />
<path d="M23675 26107
L24149 26107
" />
<path d="M23675 24390
L24149 24390
" />
<path d="M23675 25107
L24149 25107
" />
<path d="M23675 23390
L24149 23390
" />
<path d="M23675 24107
L24149 24107
" />
<path d="M23675 22390
L24149 22390
" />
<path d="M23675 23107
L24149 23107
" />
<path d="M23675 21390
L24149 21390
" />
<path d="M23675 22107
L24149 22107
" />
<path d="M16797 39491
L17271 39491
" />
<path d="M16797 40208
L17271 40208
" />
<path d="M15547 33941
L16021 33941
" />
<path d="M15547 34658
L16021 34658
" />
<path d="M15547 30541
L16021 30541
" />
<path d="M15547 31258
L16021 31258
" />
<path d="M30693 18462
L30693 18937
" />
<path d="M29976 18462
L29976 18937
" />
<path d="M16493 10533
L16493 11007
" />
<path d="M15776 10533
L15776 11007
" />
<path d="M16921 14058
L16447 14058
" />
<path d="M16921 13341
L16447 13341
" />
<path d="M23697 21066
L24171 21066
" />
<path d="M23697 20350
L24171 20350
" />
</g>
<g style="fill:#000000; fill-opacity:0.0; 
stroke:#000000; stroke-width:59.0551; stroke-opacity:1; 
stroke-linecap:round; stroke-linejoin:round;">
<path d="M15228 33862
L15247 33918
L15247 34012
L15228 34050
L15209 34068
L15172 34087
L15134 34087
L15097 34068
L15078 34050
L15059 34012
L15040 33937
L15022 33900
L15003 33881
L14965 33862
L14928 33862
L14891 33881
L14872 33900
L14853 33937
L14853 34031
L14872 34087
" />
<path d="M15247 34462
L15247 34237
" />
<path d="M15247 34350
L14853 34350
L14909 34312
L14947 34275
L14965 34237
" />
<path d="M14853 34743
L15134 34743
L15190 34725
L15228 34687
L15247 34631
L15247 34593
" />
<path d="M15134 34912
L15134 35100
" />
<path d="M15247 34875
L14853 35006
L15247 35137
" />
<path d="M15097 35268
L15097 35568
" />
<path d="M15247 35962
L15247 35737
" />
<path d="M15247 35849
L14853 35849
L14909 35812
L14947 35774
L14965 35737
" />
<path d="M14853 36093
L14853 36337
L15003 36206
L15003 36262
L15022 36299
L15040 36318
L15078 36337
L15172 36337
L15209 36318
L15228 36299
L15247 36262
L15247 36149
L15228 36112
L15209 36093
" />
<path d="M15097 36506
L15097 36806
" />
<path d="M15040 37124
L15040 36993
" />
<path d="M15247 36993
L14853 36993
L14853 37181
" />
<path d="M15247 37537
L15247 37312
" />
<path d="M15247 37424
L14853 37424
L14909 37387
L14947 37349
L14965 37312
" />
<path d="M16937 13544
L17069 13357
" />
<path d="M17162 13544
L17162 13150
L17012 13150
L16975 13169
L16956 13188
L16937 13225
L16937 13282
L16956 13319
L16975 13338
L17012 13357
L17162 13357
" />
<path d="M16787 13188
L16769 13169
L16731 13150
L16637 13150
L16600 13169
L16581 13188
L16562 13225
L16562 13263
L16581 13319
L16806 13544
L16562 13544
" />
<path d="M16319 13150
L16281 13150
L16244 13169
L16225 13188
L16206 13225
L16188 13300
L16188 13394
L16206 13469
L16225 13507
L16244 13525
L16281 13544
L16319 13544
L16356 13525
L16375 13507
L16394 13469
L16413 13394
L16413 13300
L16394 13225
L16375 13188
L16356 13169
L16319 13150
" />
<path d="M16129 22146
L15942 22015
" />
<path d="M16129 21921
L15735 21921
L15735 22071
L15754 22109
L15773 22128
L15810 22146
L15867 22146
L15904 22128
L15923 22109
L15942 22071
L15942 21921
" />
<path d="M16129 22521
L16129 22296
" />
<path d="M16129 22409
L15735 22409
L15792 22371
L15829 22334
L15848 22296
" />
<path d="M16129 22709
L16129 22784
L16110 22821
L16091 22840
L16035 22878
L15960 22896
L15810 22896
L15773 22878
L15754 22859
L15735 22821
L15735 22746
L15754 22709
L15773 22690
L15810 22671
L15904 22671
L15942 22690
L15960 22709
L15979 22746
L15979 22821
L15960 22859
L15942 22878
L15904 22896
" />
<path d="M4937 38211
L5069 38024
" />
<path d="M5162 38211
L5162 37817
L5012 37817
L4975 37836
L4956 37855
L4937 37892
L4937 37949
L4956 37986
L4975 38005
L5012 38024
L5162 38024
" />
<path d="M4562 38211
L4787 38211
" />
<path d="M4675 38211
L4675 37817
L4712 37874
L4750 37911
L4787 37930
" />
<path d="M4338 37986
L4375 37967
L4394 37949
L4413 37911
L4413 37892
L4394 37855
L4375 37836
L4338 37817
L4263 37817
L4225 37836
L4206 37855
L4188 37892
L4188 37911
L4206 37949
L4225 37967
L4263 37986
L4338 37986
L4375 38005
L4394 38024
L4413 38061
L4413 38136
L4394 38174
L4375 38192
L4338 38211
L4263 38211
L4225 38192
L4206 38174
L4188 38136
L4188 38061
L4206 38024
L4225 38005
L4263 37986
" />
<path d="M4887 24511
L5019 24324
" />
<path d="M5112 24511
L5112 24117
L4962 24117
L4925 24136
L4906 24155
L4887 24192
L4887 24249
L4906 24286
L4925 24305
L4962 24324
L5112 24324
" />
<path d="M4512 24511
L4737 24511
" />
<path d="M4625 24511
L4625 24117
L4662 24174
L4700 24211
L4737 24230
" />
<path d="M4381 24117
L4119 24117
L4288 24511
" />
<path d="M4887 11461
L5019 11274
" />
<path d="M5112 11461
L5112 11067
L4962 11067
L4925 11086
L4906 11105
L4887 11142
L4887 11199
L4906 11236
L4925 11255
L4962 11274
L5112 11274
" />
<path d="M4512 11461
L4737 11461
" />
<path d="M4625 11461
L4625 11067
L4662 11124
L4700 11161
L4737 11180
" />
<path d="M4175 11067
L4250 11067
L4288 11086
L4306 11105
L4344 11161
L4363 11236
L4363 11386
L4344 11424
L4325 11442
L4288 11461
L4213 11461
L4175 11442
L4156 11424
L4138 11386
L4138 11292
L4156 11255
L4175 11236
L4213 11217
L4288 11217
L4325 11236
L4344 11255
L4363 11292
" />
<path d="M39637 28594
L39769 28407
" />
<path d="M39862 28594
L39862 28200
L39712 28200
L39675 28219
L39656 28238
L39637 28275
L39637 28332
L39656 28369
L39675 28388
L39712 28407
L39862 28407
" />
<path d="M39262 28594
L39487 28594
" />
<path d="M39375 28594
L39375 28200
L39412 28257
L39450 28294
L39487 28313
" />
<path d="M39113 28238
L39094 28219
L39056 28200
L38963 28200
L38925 28219
L38906 28238
L38888 28275
L38888 28313
L38906 28369
L39131 28594
L38888 28594
" />
<path d="M35972 26317
L35972 26635
L35953 26673
L35934 26692
L35897 26710
L35822 26710
L35784 26692
L35766 26673
L35747 26635
L35747 26317
" />
<path d="M35353 26710
L35578 26710
" />
<path d="M35466 26710
L35466 26317
L35503 26373
L35541 26410
L35578 26429
" />
<path d="M35016 26317
L35091 26317
L35128 26335
L35147 26354
L35184 26410
L35203 26485
L35203 26635
L35184 26673
L35166 26692
L35128 26710
L35053 26710
L35016 26692
L34997 26673
L34978 26635
L34978 26542
L34997 26504
L35016 26485
L35053 26467
L35128 26467
L35166 26485
L35184 26504
L35203 26542
" />
<path d="M18772 39342
L18772 39660
L18753 39698
L18734 39717
L18697 39735
L18622 39735
L18584 39717
L18566 39698
L18547 39660
L18547 39342
" />
<path d="M18153 39735
L18378 39735
" />
<path d="M18266 39735
L18266 39342
L18303 39398
L18341 39435
L18378 39454
" />
<path d="M17816 39473
L17816 39735
" />
<path d="M17909 39323
L18003 39604
L17759 39604
" />
<path d="M35972 31951
L35972 32270
L35953 32307
L35934 32326
L35897 32345
L35822 32345
L35784 32326
L35766 32307
L35747 32270
L35747 31951
" />
<path d="M35353 32345
L35578 32345
" />
<path d="M35466 32345
L35466 31951
L35503 32007
L35541 32045
L35578 32064
" />
<path d="M35222 31951
L34978 31951
L35109 32101
L35053 32101
L35016 32120
L34997 32139
L34978 32176
L34978 32270
L34997 32307
L35016 32326
L35053 32345
L35166 32345
L35203 32326
L35222 32307
" />
<path d="M18772 25457
L18772 25776
L18753 25813
L18734 25832
L18697 25851
L18622 25851
L18584 25832
L18566 25813
L18547 25776
L18547 25457
" />
<path d="M18153 25851
L18378 25851
" />
<path d="M18266 25851
L18266 25457
L18303 25513
L18341 25551
L18378 25569
" />
<path d="M18003 25494
L17984 25476
L17947 25457
L17853 25457
L17816 25476
L17797 25494
L17778 25532
L17778 25569
L17797 25626
L18022 25851
L17778 25851
" />
<path d="M18772 23207
L18772 23526
L18753 23563
L18734 23582
L18697 23601
L18622 23601
L18584 23582
L18566 23563
L18547 23526
L18547 23207
" />
<path d="M18153 23601
L18378 23601
" />
<path d="M18266 23601
L18266 23207
L18303 23263
L18341 23301
L18378 23319
" />
<path d="M17778 23601
L18003 23601
" />
<path d="M17891 23601
L17891 23207
L17928 23263
L17966 23301
L18003 23319
" />
<path d="M18772 20957
L18772 21276
L18753 21313
L18734 21332
L18697 21351
L18622 21351
L18584 21332
L18566 21313
L18547 21276
L18547 20957
" />
<path d="M18153 21351
L18378 21351
" />
<path d="M18266 21351
L18266 20957
L18303 21013
L18341 21051
L18378 21069
" />
<path d="M17909 20957
L17872 20957
L17834 20976
L17816 20994
L17797 21032
L17778 21107
L17778 21201
L17797 21276
L17816 21313
L17834 21332
L17872 21351
L17909 21351
L17947 21332
L17966 21313
L17984 21276
L18003 21201
L18003 21107
L17984 21032
L17966 20994
L17947 20976
L17909 20957
" />
<path d="M18584 18707
L18584 19026
L18566 19063
L18547 19082
L18509 19101
L18434 19101
L18397 19082
L18378 19063
L18359 19026
L18359 18707
" />
<path d="M18153 19101
L18078 19101
L18041 19082
L18022 19063
L17984 19007
L17966 18932
L17966 18782
L17984 18744
L18003 18726
L18041 18707
L18116 18707
L18153 18726
L18172 18744
L18191 18782
L18191 18876
L18172 18913
L18153 18932
L18116 18951
L18041 18951
L18003 18932
L17984 18913
L17966 18876
" />
<path d="M18584 16457
L18584 16776
L18566 16813
L18547 16832
L18509 16851
L18434 16851
L18397 16832
L18378 16813
L18359 16776
L18359 16457
" />
<path d="M18116 16626
L18153 16607
L18172 16588
L18191 16551
L18191 16532
L18172 16494
L18153 16476
L18116 16457
L18041 16457
L18003 16476
L17984 16494
L17966 16532
L17966 16551
L17984 16588
L18003 16607
L18041 16626
L18116 16626
L18153 16644
L18172 16663
L18191 16701
L18191 16776
L18172 16813
L18153 16832
L18116 16851
L18041 16851
L18003 16832
L17984 16813
L17966 16776
L17966 16701
L17984 16663
L18003 16644
L18041 16626
" />
<path d="M18584 34257
L18584 34576
L18566 34613
L18547 34632
L18509 34651
L18434 34651
L18397 34632
L18378 34613
L18359 34576
L18359 34257
" />
<path d="M18209 34257
L17947 34257
L18116 34651
" />
<path d="M18584 14217
L18584 14535
L18566 14573
L18547 14592
L18509 14610
L18434 14610
L18397 14592
L18378 14573
L18359 14535
L18359 14217
" />
<path d="M18003 14217
L18078 14217
L18116 14235
L18134 14254
L18172 14310
L18191 14385
L18191 14535
L18172 14573
L18153 14592
L18116 14610
L18041 14610
L18003 14592
L17984 14573
L17966 14535
L17966 14442
L17984 14404
L18003 14385
L18041 14367
L18116 14367
L18153 14385
L18172 14404
L18191 14442
" />
<path d="M18584 33842
L18584 34160
L18566 34198
L18547 34217
L18509 34235
L18434 34235
L18397 34217
L18378 34198
L18359 34160
L18359 33842
" />
<path d="M17984 33842
L18172 33842
L18191 34029
L18172 34010
L18134 33992
L18041 33992
L18003 34010
L17984 34029
L17966 34067
L17966 34160
L17984 34198
L18003 34217
L18041 34235
L18134 34235
L18172 34217
L18191 34198
" />
<path d="M18584 30542
L18584 30860
L18566 30898
L18547 30917
L18509 30935
L18434 30935
L18397 30917
L18378 30898
L18359 30860
L18359 30542
" />
<path d="M18003 30673
L18003 30935
" />
<path d="M18097 30523
L18191 30804
L17947 30804
" />
<path d="M35784 21817
L35784 22135
L35766 22173
L35747 22192
L35709 22210
L35634 22210
L35597 22192
L35578 22173
L35559 22135
L35559 21817
" />
<path d="M35409 21817
L35166 21817
L35297 21967
L35241 21967
L35203 21985
L35184 22004
L35166 22042
L35166 22135
L35184 22173
L35203 22192
L35241 22210
L35353 22210
L35391 22192
L35409 22173
" />
<path d="M35784 24067
L35784 24385
L35766 24423
L35747 24442
L35709 24460
L35634 24460
L35597 24442
L35578 24423
L35559 24385
L35559 24067
" />
<path d="M35391 24104
L35372 24085
L35334 24067
L35241 24067
L35203 24085
L35184 24104
L35166 24142
L35166 24179
L35184 24235
L35409 24460
L35166 24460
" />
<path d="M37951 30600
L38270 30600
L38308 30618
L38326 30637
L38345 30675
L38345 30750
L38326 30787
L38308 30806
L38270 30825
L37951 30825
" />
<path d="M38345 31218
L38345 30993
" />
<path d="M38345 31106
L37951 31106
L38008 31068
L38045 31031
L38064 30993
" />
<path d="M19422 12326
L19422 12645
L19403 12682
L19384 12701
L19347 12720
L19272 12720
L19234 12701
L19216 12682
L19197 12645
L19197 12326
" />
<path d="M18803 12720
L19028 12720
" />
<path d="M18916 12720
L18916 12326
L18953 12382
L18991 12420
L19028 12438
" />
<path d="M18447 12326
L18634 12326
L18653 12513
L18634 12495
L18597 12476
L18503 12476
L18466 12495
L18447 12513
L18428 12551
L18428 12645
L18447 12682
L18466 12701
L18503 12720
L18597 12720
L18634 12701
L18653 12682
" />
<path d="M39637 26094
L39769 25907
" />
<path d="M39862 26094
L39862 25700
L39712 25700
L39675 25719
L39656 25738
L39637 25775
L39637 25832
L39656 25869
L39675 25888
L39712 25907
L39862 25907
" />
<path d="M39262 26094
L39487 26094
" />
<path d="M39375 26094
L39375 25700
L39412 25757
L39450 25794
L39487 25813
" />
<path d="M38906 25700
L39094 25700
L39113 25888
L39094 25869
L39056 25850
L38963 25850
L38925 25869
L38906 25888
L38888 25925
L38888 26019
L38906 26057
L38925 26075
L38963 26094
L39056 26094
L39094 26075
L39113 26057
" />
<path d="M39552 27294
L39683 27107
" />
<path d="M39777 27294
L39777 26900
L39627 26900
L39589 26919
L39571 26938
L39552 26975
L39552 27032
L39571 27069
L39589 27088
L39627 27107
L39777 27107
" />
<path d="M39177 27294
L39402 27294
" />
<path d="M39289 27294
L39289 26900
L39327 26957
L39364 26994
L39402 27013
" />
<path d="M38839 27032
L38839 27294
" />
<path d="M38933 26882
L39027 27163
L38783 27163
" />
<path d="M39637 23644
L39769 23457
" />
<path d="M39862 23644
L39862 23250
L39712 23250
L39675 23269
L39656 23288
L39637 23325
L39637 23382
L39656 23419
L39675 23438
L39712 23457
L39862 23457
" />
<path d="M39262 23644
L39487 23644
" />
<path d="M39375 23644
L39375 23250
L39412 23307
L39450 23344
L39487 23363
" />
<path d="M39131 23250
L38888 23250
L39019 23400
L38963 23400
L38925 23419
L38906 23438
L38888 23475
L38888 23569
L38906 23607
L38925 23625
L38963 23644
L39075 23644
L39113 23625
L39131 23607
" />
<path d="M22037 36244
L22169 36057
" />
<path d="M22262 36244
L22262 35850
L22112 35850
L22075 35869
L22056 35888
L22037 35925
L22037 35982
L22056 36019
L22075 36038
L22112 36057
L22262 36057
" />
<path d="M21662 36244
L21887 36244
" />
<path d="M21775 36244
L21775 35850
L21812 35907
L21850 35944
L21887 35963
" />
<path d="M21288 36244
L21513 36244
" />
<path d="M21400 36244
L21400 35850
L21438 35907
L21475 35944
L21513 35963
" />
<path d="M33137 32311
L33269 32124
" />
<path d="M33362 32311
L33362 31917
L33212 31917
L33175 31936
L33156 31955
L33137 31992
L33137 32049
L33156 32086
L33175 32105
L33212 32124
L33362 32124
" />
<path d="M32762 32311
L32987 32311
" />
<path d="M32875 32311
L32875 31917
L32912 31974
L32950 32011
L32987 32030
" />
<path d="M32519 31917
L32481 31917
L32444 31936
L32425 31955
L32406 31992
L32388 32067
L32388 32161
L32406 32236
L32425 32274
L32444 32292
L32481 32311
L32519 32311
L32556 32292
L32575 32274
L32594 32236
L32613 32161
L32613 32067
L32594 31992
L32575 31955
L32556 31936
L32519 31917
" />
<path d="M23977 26643
L24109 26455
" />
<path d="M24202 26643
L24202 26249
L24052 26249
L24015 26268
L23996 26287
L23977 26324
L23977 26380
L23996 26418
L24015 26437
L24052 26455
L24202 26455
" />
<path d="M23790 26643
L23715 26643
L23677 26624
L23659 26605
L23621 26549
L23602 26474
L23602 26324
L23621 26287
L23640 26268
L23677 26249
L23752 26249
L23790 26268
L23809 26287
L23827 26324
L23827 26418
L23809 26455
L23790 26474
L23752 26493
L23677 26493
L23640 26474
L23621 26455
L23602 26418
" />
<path d="M23977 25643
L24109 25455
" />
<path d="M24202 25643
L24202 25249
L24052 25249
L24015 25268
L23996 25287
L23977 25324
L23977 25380
L23996 25418
L24015 25437
L24052 25455
L24202 25455
" />
<path d="M23752 25418
L23790 25399
L23809 25380
L23827 25343
L23827 25324
L23809 25287
L23790 25268
L23752 25249
L23677 25249
L23640 25268
L23621 25287
L23602 25324
L23602 25343
L23621 25380
L23640 25399
L23677 25418
L23752 25418
L23790 25437
L23809 25455
L23827 25493
L23827 25568
L23809 25605
L23790 25624
L23752 25643
L23677 25643
L23640 25624
L23621 25605
L23602 25568
L23602 25493
L23621 25455
L23640 25437
L23677 25418
" />
<path d="M23977 24643
L24109 24455
" />
<path d="M24202 24643
L24202 24249
L24052 24249
L24015 24268
L23996 24287
L23977 24324
L23977 24380
L23996 24418
L24015 24437
L24052 24455
L24202 24455
" />
<path d="M23846 24249
L23584 24249
L23752 24643
" />
<path d="M23977 23643
L24109 23455
" />
<path d="M24202 23643
L24202 23249
L24052 23249
L24015 23268
L23996 23287
L23977 23324
L23977 23380
L23996 23418
L24015 23437
L24052 23455
L24202 23455
" />
<path d="M23640 23249
L23715 23249
L23752 23268
L23771 23287
L23809 23343
L23827 23418
L23827 23568
L23809 23605
L23790 23624
L23752 23643
L23677 23643
L23640 23624
L23621 23605
L23602 23568
L23602 23474
L23621 23437
L23640 23418
L23677 23399
L23752 23399
L23790 23418
L23809 23437
L23827 23474
" />
<path d="M24090 22399
L23902 22268
" />
<path d="M24090 22174
L23696 22174
L23696 22324
L23715 22362
L23734 22380
L23771 22399
L23827 22399
L23865 22380
L23884 22362
L23902 22324
L23902 22174
" />
<path d="M23696 22755
L23696 22568
L23884 22549
L23865 22568
L23846 22605
L23846 22699
L23865 22737
L23884 22755
L23921 22774
L24015 22774
L24052 22755
L24071 22737
L24090 22699
L24090 22605
L24071 22568
L24052 22549
" />
<path d="M17100 40744
L17231 40557
" />
<path d="M17325 40744
L17325 40350
L17175 40350
L17137 40369
L17119 40388
L17100 40425
L17100 40482
L17119 40519
L17137 40538
L17175 40557
L17325 40557
" />
<path d="M16763 40482
L16763 40744
" />
<path d="M16856 40332
L16950 40613
L16706 40613
" />
<path d="M15850 35194
L15981 35007
" />
<path d="M16075 35194
L16075 34800
L15925 34800
L15887 34819
L15869 34838
L15850 34875
L15850 34932
L15869 34969
L15887 34988
L15925 35007
L16075 35007
" />
<path d="M15719 34800
L15475 34800
L15606 34950
L15550 34950
L15513 34969
L15494 34988
L15475 35025
L15475 35119
L15494 35157
L15513 35175
L15550 35194
L15662 35194
L15700 35175
L15719 35157
" />
<path d="M15850 31794
L15981 31607
" />
<path d="M16075 31794
L16075 31400
L15925 31400
L15887 31419
L15869 31438
L15850 31475
L15850 31532
L15869 31569
L15887 31588
L15925 31607
L16075 31607
" />
<path d="M15700 31438
L15681 31419
L15644 31400
L15550 31400
L15513 31419
L15494 31438
L15475 31475
L15475 31513
L15494 31569
L15719 31794
L15475 31794
" />
<path d="M29758 18634
L29777 18615
L29796 18559
L29796 18521
L29777 18465
L29740 18428
L29702 18409
L29627 18390
L29571 18390
L29496 18409
L29458 18428
L29421 18465
L29402 18521
L29402 18559
L29421 18615
L29440 18634
" />
<path d="M29402 18765
L29402 19009
L29552 18878
L29552 18934
L29571 18971
L29590 18990
L29627 19009
L29721 19009
L29758 18990
L29777 18971
L29796 18934
L29796 18821
L29777 18784
L29758 18765
" />
<path d="M15558 10704
L15577 10685
L15596 10629
L15596 10592
L15577 10535
L15540 10498
L15502 10479
L15427 10460
L15371 10460
L15296 10479
L15258 10498
L15221 10535
L15202 10592
L15202 10629
L15221 10685
L15240 10704
" />
<path d="M15240 10854
L15221 10873
L15202 10910
L15202 11004
L15221 11042
L15240 11060
L15277 11079
L15315 11079
L15371 11060
L15596 10835
L15596 11079
" />
<path d="M16750 13124
L16769 13142
L16825 13161
L16862 13161
L16919 13142
L16956 13105
L16975 13067
L16994 12992
L16994 12936
L16975 12861
L16956 12824
L16919 12786
L16862 12767
L16825 12767
L16769 12786
L16750 12805
" />
<path d="M16375 13161
L16600 13161
" />
<path d="M16488 13161
L16488 12767
L16525 12824
L16562 12861
L16600 12880
" />
<path d="M24000 21603
L24131 21415
" />
<path d="M24225 21603
L24225 21209
L24075 21209
L24037 21228
L24019 21246
L24000 21284
L24000 21340
L24019 21378
L24037 21396
L24075 21415
L24225 21415
" />
<path d="M23625 21603
L23850 21603
" />
<path d="M23738 21603
L23738 21209
L23775 21265
L23812 21303
L23850 21321
" />
</g> 
</svg>
