<?xml version="1.0" standalone="no"?>
 <!DOCTYPE svg PUBLIC "-//W3C//DTD SVG 1.1//EN" 
 "http://www.w3.org/Graphics/SVG/1.1/DTD/svg11.dtd"> 
<svg xmlns="http://www.w3.org/2000/svg" version="1.1" 
    width="12.2352cm" height="14.9479cm" viewBox="0 0 48170 58850 ">
<title>SVG Picture created as nano-B.Mask.svg date 2018/09/07 17:06:55 </title>
  <desc>Picture generated by PCBNEW </desc>
<g style="fill:#000000; fill-opacity:1;stroke:#000000; stroke-opacity:1;
stroke-linecap:round; stroke-linejoin:round; "
 transform="translate(0 0) scale(1 1)">
</g>
<g style="fill:#000000; fill-opacity:0.0; 
stroke:#000000; stroke-width:-0.000393701; stroke-opacity:1; 
stroke-linecap:round; stroke-linejoin:round;">
</g>
<g style="fill:#000000; fill-opacity:0.0; 
stroke:#000000; stroke-width:0; stroke-opacity:1; 
stroke-linecap:round; stroke-linejoin:round;">
</g>
<g style="fill:#000000; fill-opacity:1.0; 
stroke:#000000; stroke-width:0; stroke-opacity:1; 
stroke-linecap:round; stroke-linejoin:round;">
<polyline style="fill-rule:evenodd;"
points="14439,35404
13730,35404
13730,34026
14439,34026
14439,35404
" /> 
<polyline style="fill-rule:evenodd;"
points="14439,37373
13730,37373
13730,35995
14439,35995
14439,37373
" /> 
</g>
<g style="fill:#000000; fill-opacity:1.0; 
stroke:#000000; stroke-width:708.661; stroke-opacity:1; 
stroke-linecap:round; stroke-linejoin:round;">
</g>
<g style="fill:#000000; fill-opacity:0.0; 
stroke:#000000; stroke-width:708.661; stroke-opacity:1; 
stroke-linecap:round; stroke-linejoin:round;">
<path d="M7083 50183
L6374 50183
" />
<path d="M7083 48805
L6374 48805
" />
<path d="M7083 47427
L6374 47427
" />
</g>
<g style="fill:#000000; fill-opacity:0.0; 
stroke:#000000; stroke-width:0; stroke-opacity:1; 
stroke-linecap:round; stroke-linejoin:round;">
</g>
<g style="fill:#000000; fill-opacity:1.0; 
stroke:#000000; stroke-width:0; stroke-opacity:1; 
stroke-linecap:round; stroke-linejoin:round;">
<polyline style="fill-rule:evenodd;"
points="7348,45696
7358,45697
7367,45699
7376,45703
7385,45707
7393,45712
7401,45718
7408,45724
7415,45731
7421,45739
7425,45747
7430,45756
7433,45765
7435,45774
7437,45784
7437,45794
7437,46305
7437,46315
7435,46325
7433,46334
7430,46343
7425,46352
7421,46360
7415,46368
7408,46375
7401,46381
7393,46387
7385,46392
7376,46396
7367,46400
7358,46402
7348,46403
7339,46404
6118,46404
6109,46403
6099,46402
6090,46400
6081,46396
6072,46392
6064,46387
6056,46381
6049,46375
6042,46368
6036,46360
6031,46352
6027,46343
6024,46334
6022,46325
6020,46315
6020,46305
6020,45794
6020,45784
6022,45774
6024,45765
6027,45756
6031,45747
6036,45739
6042,45731
6049,45724
6056,45718
6064,45712
6072,45707
6081,45703
6090,45699
6099,45697
6109,45696
6118,45695
7339,45695
7348,45696
" /> 
</g>
<g style="fill:#000000; fill-opacity:1.0; 
stroke:#000000; stroke-width:708.661; stroke-opacity:1; 
stroke-linecap:round; stroke-linejoin:round;">
</g>
<g style="fill:#000000; fill-opacity:0.0; 
stroke:#000000; stroke-width:708.661; stroke-opacity:1; 
stroke-linecap:round; stroke-linejoin:round;">
<path d="M7289 42895
L6580 42895
" />
<path d="M7289 41517
L6580 41517
" />
<path d="M7289 40139
L6580 40139
" />
<path d="M7289 38761
L6580 38761
" />
<path d="M7289 37383
L6580 37383
" />
<path d="M7289 36005
L6580 36005
" />
<path d="M7289 34627
L6580 34627
" />
</g>
<g style="fill:#000000; fill-opacity:0.0; 
stroke:#000000; stroke-width:0; stroke-opacity:1; 
stroke-linecap:round; stroke-linejoin:round;">
</g>
<g style="fill:#000000; fill-opacity:1.0; 
stroke:#000000; stroke-width:0; stroke-opacity:1; 
stroke-linecap:round; stroke-linejoin:round;">
<polyline style="fill-rule:evenodd;"
points="7554,32896
7564,32897
7573,32899
7582,32903
7591,32907
7599,32912
7607,32918
7614,32924
7621,32931
7626,32939
7631,32947
7636,32956
7639,32965
7641,32974
7643,32984
7643,32994
7643,33505
7643,33515
7641,33525
7639,33534
7636,33543
7631,33552
7626,33560
7621,33568
7614,33575
7607,33581
7599,33587
7591,33592
7582,33596
7573,33600
7564,33602
7554,33603
7545,33604
6324,33604
6314,33603
6305,33602
6296,33600
6286,33596
6278,33592
6269,33587
6262,33581
6255,33575
6248,33568
6242,33560
6237,33552
6233,33543
6230,33534
6228,33525
6226,33515
6226,33505
6226,32994
6226,32984
6228,32974
6230,32965
6233,32956
6237,32947
6242,32939
6248,32931
6255,32924
6262,32918
6269,32912
6278,32907
6286,32903
6296,32899
6305,32897
6314,32896
6324,32895
7545,32895
7554,32896
" /> 
</g>
<g style="fill:#000000; fill-opacity:1.0; 
stroke:#000000; stroke-width:708.661; stroke-opacity:1; 
stroke-linecap:round; stroke-linejoin:round;">
</g>
<g style="fill:#000000; fill-opacity:0.0; 
stroke:#000000; stroke-width:708.661; stroke-opacity:1; 
stroke-linecap:round; stroke-linejoin:round;">
<path d="M7289 55027
L6580 55027
" />
</g>
<g style="fill:#000000; fill-opacity:0.0; 
stroke:#000000; stroke-width:0; stroke-opacity:1; 
stroke-linecap:round; stroke-linejoin:round;">
</g>
<g style="fill:#000000; fill-opacity:1.0; 
stroke:#000000; stroke-width:0; stroke-opacity:1; 
stroke-linecap:round; stroke-linejoin:round;">
<polyline style="fill-rule:evenodd;"
points="7554,53296
7564,53297
7573,53299
7582,53303
7591,53307
7599,53312
7607,53318
7614,53324
7621,53331
7626,53339
7631,53347
7636,53356
7639,53365
7641,53374
7643,53384
7643,53394
7643,53905
7643,53915
7641,53925
7639,53934
7636,53943
7631,53952
7626,53960
7621,53968
7614,53975
7607,53981
7599,53987
7591,53992
7582,53996
7573,54000
7564,54002
7554,54003
7545,54004
6324,54004
6314,54003
6305,54002
6296,54000
6286,53996
6278,53992
6269,53987
6262,53981
6255,53975
6248,53968
6242,53960
6237,53952
6233,53943
6230,53934
6228,53925
6226,53915
6226,53905
6226,53394
6226,53384
6228,53374
6230,53365
6233,53356
6237,53347
6242,53339
6248,53331
6255,53324
6262,53318
6269,53312
6278,53307
6286,53303
6296,53299
6305,53297
6314,53296
6324,53295
7545,53295
7554,53296
" /> 
</g>
<g style="fill:#000000; fill-opacity:1.0; 
stroke:#000000; stroke-width:708.661; stroke-opacity:1; 
stroke-linecap:round; stroke-linejoin:round;">
</g>
<g style="fill:#000000; fill-opacity:0.0; 
stroke:#000000; stroke-width:708.661; stroke-opacity:1; 
stroke-linecap:round; stroke-linejoin:round;">
<path d="M7289 3927
L6580 3927
" />
</g>
<g style="fill:#000000; fill-opacity:0.0; 
stroke:#000000; stroke-width:0; stroke-opacity:1; 
stroke-linecap:round; stroke-linejoin:round;">
</g>
<g style="fill:#000000; fill-opacity:1.0; 
stroke:#000000; stroke-width:0; stroke-opacity:1; 
stroke-linecap:round; stroke-linejoin:round;">
<polyline style="fill-rule:evenodd;"
points="7554,2196
7564,2197
7573,2199
7582,2203
7591,2207
7599,2212
7607,2218
7614,2224
7621,2231
7626,2239
7631,2247
7636,2256
7639,2265
7641,2274
7643,2284
7643,2294
7643,2805
7643,2815
7641,2825
7639,2834
7636,2843
7631,2852
7626,2860
7621,2868
7614,2875
7607,2881
7599,2887
7591,2892
7582,2896
7573,2900
7564,2902
7554,2903
7545,2904
6324,2904
6314,2903
6305,2902
6296,2900
6286,2896
6278,2892
6269,2887
6262,2881
6255,2875
6248,2868
6242,2860
6237,2852
6233,2843
6230,2834
6228,2825
6226,2815
6226,2805
6226,2294
6226,2284
6228,2274
6230,2265
6233,2256
6237,2247
6242,2239
6248,2231
6255,2224
6262,2218
6269,2212
6278,2207
6286,2203
6296,2199
6305,2197
6314,2196
6324,2195
7545,2195
7554,2196
" /> 
</g>
<g style="fill:#000000; fill-opacity:1.0; 
stroke:#000000; stroke-width:708.661; stroke-opacity:1; 
stroke-linecap:round; stroke-linejoin:round;">
</g>
<g style="fill:#000000; fill-opacity:0.0; 
stroke:#000000; stroke-width:708.661; stroke-opacity:1; 
stroke-linecap:round; stroke-linejoin:round;">
<path d="M13139 29195
L12430 29195
" />
<path d="M13139 27817
L12430 27817
" />
<path d="M13139 26439
L12430 26439
" />
<path d="M13139 25061
L12430 25061
" />
<path d="M13139 23683
L12430 23683
" />
<path d="M13139 22305
L12430 22305
" />
<path d="M13139 20927
L12430 20927
" />
</g>
<g style="fill:#000000; fill-opacity:0.0; 
stroke:#000000; stroke-width:0; stroke-opacity:1; 
stroke-linecap:round; stroke-linejoin:round;">
</g>
<g style="fill:#000000; fill-opacity:1.0; 
stroke:#000000; stroke-width:0; stroke-opacity:1; 
stroke-linecap:round; stroke-linejoin:round;">
<polyline style="fill-rule:evenodd;"
points="13404,19196
13414,19197
13423,19199
13432,19203
13441,19207
13449,19212
13457,19218
13464,19224
13471,19231
13476,19239
13481,19247
13486,19256
13489,19265
13491,19274
13493,19284
13493,19294
13493,19805
13493,19815
13491,19825
13489,19834
13486,19843
13481,19852
13476,19860
13471,19868
13464,19875
13457,19881
13449,19887
13441,19892
13432,19896
13423,19900
13414,19902
13404,19903
13395,19904
12174,19904
12164,19903
12155,19902
12146,19900
12136,19896
12128,19892
12119,19887
12112,19881
12105,19875
12098,19868
12092,19860
12087,19852
12083,19843
12080,19834
12078,19825
12076,19815
12076,19805
12076,19294
12076,19284
12078,19274
12080,19265
12083,19256
12087,19247
12092,19239
12098,19231
12105,19224
12112,19218
12119,19212
12128,19207
12136,19203
12146,19199
12155,19197
12164,19196
12174,19195
13395,19195
13404,19196
" /> 
</g>
<g style="fill:#000000; fill-opacity:1.0; 
stroke:#000000; stroke-width:708.661; stroke-opacity:1; 
stroke-linecap:round; stroke-linejoin:round;">
</g>
<g style="fill:#000000; fill-opacity:0.0; 
stroke:#000000; stroke-width:708.661; stroke-opacity:1; 
stroke-linecap:round; stroke-linejoin:round;">
<path d="M7289 29215
L6580 29215
" />
<path d="M7289 27837
L6580 27837
" />
<path d="M7289 26459
L6580 26459
" />
<path d="M7289 25081
L6580 25081
" />
<path d="M7289 23704
L6580 23704
" />
<path d="M7289 22326
L6580 22326
" />
<path d="M7289 20948
L6580 20948
" />
</g>
<g style="fill:#000000; fill-opacity:0.0; 
stroke:#000000; stroke-width:0; stroke-opacity:1; 
stroke-linecap:round; stroke-linejoin:round;">
</g>
<g style="fill:#000000; fill-opacity:1.0; 
stroke:#000000; stroke-width:0; stroke-opacity:1; 
stroke-linecap:round; stroke-linejoin:round;">
<polyline style="fill-rule:evenodd;"
points="7554,19216
7564,19217
7573,19220
7582,19223
7591,19227
7599,19232
7607,19238
7614,19244
7621,19251
7626,19259
7631,19267
7636,19276
7639,19285
7641,19295
7643,19304
7643,19314
7643,19826
7643,19835
7641,19845
7639,19854
7636,19863
7631,19872
7626,19880
7621,19888
7614,19895
7607,19902
7599,19907
7591,19912
7582,19917
7573,19920
7564,19922
7554,19924
7545,19924
6324,19924
6314,19924
6305,19922
6296,19920
6286,19917
6278,19912
6269,19907
6262,19902
6255,19895
6248,19888
6242,19880
6237,19872
6233,19863
6230,19854
6228,19845
6226,19835
6226,19826
6226,19314
6226,19304
6228,19295
6230,19285
6233,19276
6237,19267
6242,19259
6248,19251
6255,19244
6262,19238
6269,19232
6278,19227
6286,19223
6296,19220
6305,19217
6314,19216
6324,19215
7545,19215
7554,19216
" /> 
</g>
<g style="fill:#000000; fill-opacity:1.0; 
stroke:#000000; stroke-width:708.661; stroke-opacity:1; 
stroke-linecap:round; stroke-linejoin:round;">
</g>
<g style="fill:#000000; fill-opacity:0.0; 
stroke:#000000; stroke-width:708.661; stroke-opacity:1; 
stroke-linecap:round; stroke-linejoin:round;">
<path d="M7289 16145
L6580 16145
" />
<path d="M7289 14767
L6580 14767
" />
<path d="M7289 13389
L6580 13389
" />
<path d="M7289 12011
L6580 12011
" />
<path d="M7289 10633
L6580 10633
" />
<path d="M7289 9255
L6580 9255
" />
<path d="M7289 7877
L6580 7877
" />
</g>
<g style="fill:#000000; fill-opacity:0.0; 
stroke:#000000; stroke-width:0; stroke-opacity:1; 
stroke-linecap:round; stroke-linejoin:round;">
</g>
<g style="fill:#000000; fill-opacity:1.0; 
stroke:#000000; stroke-width:0; stroke-opacity:1; 
stroke-linecap:round; stroke-linejoin:round;">
<polyline style="fill-rule:evenodd;"
points="7554,6146
7564,6147
7573,6149
7582,6153
7591,6157
7599,6162
7607,6168
7614,6174
7621,6181
7626,6189
7631,6197
7636,6206
7639,6215
7641,6224
7643,6234
7643,6244
7643,6755
7643,6765
7641,6775
7639,6784
7636,6793
7631,6802
7626,6810
7621,6818
7614,6825
7607,6831
7599,6837
7591,6842
7582,6846
7573,6850
7564,6852
7554,6853
7545,6854
6324,6854
6314,6853
6305,6852
6296,6850
6286,6846
6278,6842
6269,6837
6262,6831
6255,6825
6248,6818
6242,6810
6237,6802
6233,6793
6230,6784
6228,6775
6226,6765
6226,6755
6226,6244
6226,6234
6228,6224
6230,6215
6233,6206
6237,6197
6242,6189
6248,6181
6255,6174
6262,6168
6269,6162
6278,6157
6286,6153
6296,6149
6305,6147
6314,6146
6324,6145
7545,6145
7554,6146
" /> 
<circle cx="17884.9" cy="45900" r="1771.65" /> 
</g>
<g style="fill:#000000; fill-opacity:1.0; 
stroke:#000000; stroke-width:39.3701; stroke-opacity:1; 
stroke-linecap:round; stroke-linejoin:round;">
</g>
<g style="fill:#000000; fill-opacity:1.0; 
stroke:#000000; stroke-width:0; stroke-opacity:1; 
stroke-linecap:round; stroke-linejoin:round;">
<circle cx="31684.9" cy="45900" r="1771.65" /> 
</g>
<g style="fill:#000000; fill-opacity:1.0; 
stroke:#000000; stroke-width:39.3701; stroke-opacity:1; 
stroke-linecap:round; stroke-linejoin:round;">
</g>
<g style="fill:#000000; fill-opacity:1.0; 
stroke:#000000; stroke-width:0; stroke-opacity:1; 
stroke-linecap:round; stroke-linejoin:round;">
<circle cx="17934.9" cy="4500" r="1771.65" /> 
</g>
<g style="fill:#000000; fill-opacity:1.0; 
stroke:#000000; stroke-width:39.3701; stroke-opacity:1; 
stroke-linecap:round; stroke-linejoin:round;">
</g>
<g style="fill:#000000; fill-opacity:1.0; 
stroke:#000000; stroke-width:0; stroke-opacity:1; 
stroke-linecap:round; stroke-linejoin:round;">
<circle cx="31734.9" cy="4500" r="1771.65" /> 
</g>
<g style="fill:#000000; fill-opacity:1.0; 
stroke:#000000; stroke-width:39.3701; stroke-opacity:1; 
stroke-linecap:round; stroke-linejoin:round;">
</g>
<g style="fill:#000000; fill-opacity:1.0; 
stroke:#000000; stroke-width:0; stroke-opacity:1; 
stroke-linecap:round; stroke-linejoin:round;">
<polyline style="fill-rule:evenodd;"
points="17462,12305
17471,12307
17481,12309
17490,12313
17498,12317
17507,12322
17515,12327
17522,12334
17528,12341
17534,12349
17539,12357
17543,12366
17546,12375
17549,12384
17550,12394
17550,12403
17550,12896
17550,12905
17549,12915
17546,12924
17543,12933
17539,12942
17534,12950
17528,12958
17522,12965
17515,12972
17507,12977
17498,12982
17490,12986
17481,12990
17471,12992
17462,12994
17452,12994
17088,12994
17078,12994
17069,12992
17059,12990
17050,12986
17041,12982
17033,12977
17025,12972
17018,12965
17012,12958
17006,12950
17001,12942
16997,12933
16994,12924
16991,12915
16990,12905
16989,12896
16989,12403
16990,12394
16991,12384
16994,12375
16997,12366
17001,12357
17006,12349
17012,12341
17018,12334
17025,12327
17033,12322
17041,12317
17050,12313
17059,12309
17069,12307
17078,12305
17088,12305
17452,12305
17462,12305
" /> 
<polyline style="fill-rule:evenodd;"
points="16290,12305
16300,12307
16309,12309
16318,12313
16327,12317
16335,12322
16343,12327
16350,12334
16357,12341
16363,12349
16368,12357
16372,12366
16375,12375
16377,12384
16379,12394
16379,12403
16379,12896
16379,12905
16377,12915
16375,12924
16372,12933
16368,12942
16363,12950
16357,12958
16350,12965
16343,12972
16335,12977
16327,12982
16318,12986
16309,12990
16300,12992
16290,12994
16281,12994
15917,12994
15907,12994
15897,12992
15888,12990
15879,12986
15870,12982
15862,12977
15854,12972
15847,12965
15841,12958
15835,12950
15830,12942
15826,12933
15822,12924
15820,12915
15819,12905
15818,12896
15818,12403
15819,12394
15820,12384
15822,12375
15826,12366
15830,12357
15835,12349
15841,12341
15847,12334
15854,12327
15862,12322
15870,12317
15879,12313
15888,12309
15897,12307
15907,12305
15917,12305
16281,12305
16290,12305
" /> 
<polyline style="fill-rule:evenodd;"
points="15490,21534
15500,21535
15509,21538
15518,21541
15527,21545
15535,21550
15543,21556
15550,21562
15556,21569
15562,21577
15567,21585
15571,21594
15575,21603
15577,21613
15578,21622
15579,21632
15579,21996
15578,22006
15577,22015
15575,22025
15571,22034
15567,22042
15562,22051
15556,22058
15550,22066
15543,22072
15535,22078
15527,22083
15518,22087
15509,22090
15500,22092
15490,22094
15480,22094
14988,22094
14979,22094
14969,22092
14960,22090
14951,22087
14942,22083
14934,22078
14926,22072
14919,22066
14912,22058
14906,22051
14901,22042
14897,22034
14894,22025
14892,22015
14890,22006
14890,21996
14890,21632
14890,21622
14892,21613
14894,21603
14897,21594
14901,21585
14906,21577
14912,21569
14919,21562
14926,21556
14934,21550
14942,21545
14951,21541
14960,21538
14969,21535
14979,21534
14988,21533
15480,21533
15490,21534
" /> 
<polyline style="fill-rule:evenodd;"
points="15490,22705
15500,22707
15509,22709
15518,22712
15527,22716
15535,22721
15543,22727
15550,22733
15556,22741
15562,22748
15567,22757
15571,22765
15575,22774
15577,22784
15578,22793
15579,22803
15579,23167
15578,23177
15577,23186
15575,23196
15571,23205
15567,23214
15562,23222
15556,23230
15550,23237
15543,23243
15535,23249
15527,23254
15518,23258
15509,23261
15500,23264
15490,23265
15480,23266
14988,23266
14979,23265
14969,23264
14960,23261
14951,23258
14942,23254
14934,23249
14926,23243
14919,23237
14912,23230
14906,23222
14901,23214
14897,23205
14894,23196
14892,23186
14890,23177
14890,23167
14890,22803
14890,22793
14892,22784
14894,22774
14897,22765
14901,22757
14906,22748
14912,22741
14919,22733
14926,22727
14934,22721
14942,22716
14951,22712
14960,22709
14969,22707
14979,22705
14988,22705
15480,22705
15490,22705
" /> 
<polyline style="fill-rule:evenodd;"
points="4290,38405
4300,38407
4309,38409
4318,38413
4327,38417
4335,38422
4343,38427
4350,38434
4357,38441
4363,38449
4368,38457
4372,38466
4375,38475
4377,38484
4379,38494
4379,38503
4379,38996
4379,39005
4377,39015
4375,39024
4372,39033
4368,39042
4363,39050
4357,39058
4350,39065
4343,39072
4335,39077
4327,39082
4318,39086
4309,39090
4300,39092
4290,39094
4281,39094
3917,39094
3907,39094
3897,39092
3888,39090
3879,39086
3870,39082
3862,39077
3854,39072
3847,39065
3841,39058
3835,39050
3830,39042
3826,39033
3822,39024
3820,39015
3819,39005
3818,38996
3818,38503
3819,38494
3820,38484
3822,38475
3826,38466
3830,38457
3835,38449
3841,38441
3847,38434
3854,38427
3862,38422
3870,38417
3879,38413
3888,38409
3897,38407
3907,38405
3917,38405
4281,38405
4290,38405
" /> 
<polyline style="fill-rule:evenodd;"
points="5462,38405
5471,38407
5481,38409
5490,38413
5498,38417
5507,38422
5515,38427
5522,38434
5528,38441
5534,38449
5539,38457
5543,38466
5546,38475
5549,38484
5550,38494
5550,38503
5550,38996
5550,39005
5549,39015
5546,39024
5543,39033
5539,39042
5534,39050
5528,39058
5522,39065
5515,39072
5507,39077
5498,39082
5490,39086
5481,39090
5471,39092
5462,39094
5452,39094
5088,39094
5078,39094
5069,39092
5059,39090
5050,39086
5041,39082
5033,39077
5025,39072
5018,39065
5012,39058
5006,39050
5001,39042
4997,39033
4994,39024
4991,39015
4990,39005
4989,38996
4989,38503
4990,38494
4991,38484
4994,38475
4997,38466
5001,38457
5006,38449
5012,38441
5018,38434
5025,38427
5033,38422
5041,38417
5050,38413
5059,38409
5069,38407
5078,38405
5088,38405
5452,38405
5462,38405
" /> 
<polyline style="fill-rule:evenodd;"
points="4240,24705
4250,24707
4259,24709
4268,24713
4277,24717
4285,24722
4293,24727
4300,24734
4307,24741
4313,24749
4318,24757
4322,24766
4325,24775
4327,24784
4329,24794
4329,24803
4329,25296
4329,25305
4327,25315
4325,25324
4322,25333
4318,25342
4313,25350
4307,25358
4300,25365
4293,25372
4285,25377
4277,25382
4268,25386
4259,25390
4250,25392
4240,25394
4231,25394
3867,25394
3857,25394
3847,25392
3838,25390
3829,25386
3820,25382
3812,25377
3804,25372
3797,25365
3791,25358
3785,25350
3780,25342
3776,25333
3772,25324
3770,25315
3769,25305
3768,25296
3768,24803
3769,24794
3770,24784
3772,24775
3776,24766
3780,24757
3785,24749
3791,24741
3797,24734
3804,24727
3812,24722
3820,24717
3829,24713
3838,24709
3847,24707
3857,24705
3867,24705
4231,24705
4240,24705
" /> 
<polyline style="fill-rule:evenodd;"
points="5412,24705
5421,24707
5431,24709
5440,24713
5448,24717
5457,24722
5465,24727
5472,24734
5478,24741
5484,24749
5489,24757
5493,24766
5496,24775
5499,24784
5500,24794
5500,24803
5500,25296
5500,25305
5499,25315
5496,25324
5493,25333
5489,25342
5484,25350
5478,25358
5472,25365
5465,25372
5457,25377
5448,25382
5440,25386
5431,25390
5421,25392
5412,25394
5402,25394
5038,25394
5028,25394
5019,25392
5009,25390
5000,25386
4991,25382
4983,25377
4975,25372
4968,25365
4962,25358
4956,25350
4951,25342
4947,25333
4944,25324
4941,25315
4940,25305
4939,25296
4939,24803
4940,24794
4941,24784
4944,24775
4947,24766
4951,24757
4956,24749
4962,24741
4968,24734
4975,24727
4983,24722
4991,24717
5000,24713
5009,24709
5019,24707
5028,24705
5038,24705
5402,24705
5412,24705
" /> 
<polyline style="fill-rule:evenodd;"
points="4240,11655
4250,11657
4259,11659
4268,11663
4277,11667
4285,11672
4293,11677
4300,11684
4307,11691
4313,11699
4318,11707
4322,11716
4325,11725
4327,11734
4329,11744
4329,11753
4329,12246
4329,12255
4327,12265
4325,12274
4322,12283
4318,12292
4313,12300
4307,12308
4300,12315
4293,12322
4285,12327
4277,12332
4268,12336
4259,12340
4250,12342
4240,12344
4231,12344
3867,12344
3857,12344
3847,12342
3838,12340
3829,12336
3820,12332
3812,12327
3804,12322
3797,12315
3791,12308
3785,12300
3780,12292
3776,12283
3772,12274
3770,12265
3769,12255
3768,12246
3768,11753
3769,11744
3770,11734
3772,11725
3776,11716
3780,11707
3785,11699
3791,11691
3797,11684
3804,11677
3812,11672
3820,11667
3829,11663
3838,11659
3847,11657
3857,11655
3867,11655
4231,11655
4240,11655
" /> 
<polyline style="fill-rule:evenodd;"
points="5412,11655
5421,11657
5431,11659
5440,11663
5448,11667
5457,11672
5465,11677
5472,11684
5478,11691
5484,11699
5489,11707
5493,11716
5496,11725
5499,11734
5500,11744
5500,11753
5500,12246
5500,12255
5499,12265
5496,12274
5493,12283
5489,12292
5484,12300
5478,12308
5472,12315
5465,12322
5457,12327
5448,12332
5440,12336
5431,12340
5421,12342
5412,12344
5402,12344
5038,12344
5028,12344
5019,12342
5009,12340
5000,12336
4991,12332
4983,12327
4975,12322
4968,12315
4962,12308
4956,12300
4951,12292
4947,12283
4944,12274
4941,12265
4940,12255
4939,12246
4939,11753
4940,11744
4941,11734
4944,11725
4947,11716
4951,11707
4956,11699
4962,11691
4968,11684
4975,11677
4983,11672
4991,11667
5000,11663
5009,11659
5019,11657
5028,11655
5038,11655
5402,11655
5412,11655
" /> 
<polyline style="fill-rule:evenodd;"
points="40162,27355
40171,27357
40181,27359
40190,27363
40198,27367
40207,27372
40215,27377
40222,27384
40228,27391
40234,27399
40239,27407
40243,27416
40246,27425
40249,27434
40250,27444
40250,27453
40250,27946
40250,27955
40249,27965
40246,27974
40243,27983
40239,27992
40234,28000
40228,28008
40222,28015
40215,28022
40207,28027
40198,28032
40190,28036
40181,28040
40171,28042
40162,28044
40152,28044
39788,28044
39778,28044
39769,28042
39759,28040
39750,28036
39741,28032
39733,28027
39725,28022
39718,28015
39712,28008
39706,28000
39701,27992
39697,27983
39694,27974
39691,27965
39690,27955
39689,27946
39689,27453
39690,27444
39691,27434
39694,27425
39697,27416
39701,27407
39706,27399
39712,27391
39718,27384
39725,27377
39733,27372
39741,27367
39750,27363
39759,27359
39769,27357
39778,27355
39788,27355
40152,27355
40162,27355
" /> 
<polyline style="fill-rule:evenodd;"
points="38990,27355
39000,27357
39009,27359
39018,27363
39027,27367
39035,27372
39043,27377
39050,27384
39057,27391
39063,27399
39068,27407
39072,27416
39075,27425
39077,27434
39079,27444
39079,27453
39079,27946
39079,27955
39077,27965
39075,27974
39072,27983
39068,27992
39063,28000
39057,28008
39050,28015
39043,28022
39035,28027
39027,28032
39018,28036
39009,28040
39000,28042
38990,28044
38981,28044
38617,28044
38607,28044
38597,28042
38588,28040
38579,28036
38570,28032
38562,28027
38554,28022
38547,28015
38541,28008
38535,28000
38530,27992
38526,27983
38522,27974
38520,27965
38519,27955
38518,27946
38518,27453
38519,27444
38520,27434
38522,27425
38526,27416
38530,27407
38535,27399
38541,27391
38547,27384
38554,27377
38562,27372
38570,27367
38579,27363
38588,27359
38597,27357
38607,27355
38617,27355
38981,27355
38990,27355
" /> 
<polyline style="fill-rule:evenodd;"
points="33904,27099
33904,27800
33313,27800
33313,27099
33904,27099
" /> 
<polyline style="fill-rule:evenodd;"
points="37656,28099
37656,28800
37065,28800
37065,28099
37656,28099
" /> 
<polyline style="fill-rule:evenodd;"
points="33904,28099
33904,28800
33313,28800
33313,28099
33904,28099
" /> 
<polyline style="fill-rule:evenodd;"
points="37656,27099
37656,27800
37065,27800
37065,27099
37656,27099
" /> 
<polyline style="fill-rule:evenodd;"
points="19865,38990
19865,38290
20456,38290
20456,38990
19865,38990
" /> 
<polyline style="fill-rule:evenodd;"
points="16113,37990
16113,37290
16704,37290
16704,37990
16113,37990
" /> 
<polyline style="fill-rule:evenodd;"
points="19865,37990
19865,37290
20456,37290
20456,37990
19865,37990
" /> 
<polyline style="fill-rule:evenodd;"
points="16113,38990
16113,38290
16704,38290
16704,38990
16113,38990
" /> 
<polyline style="fill-rule:evenodd;"
points="37065,31600
37065,30899
37656,30899
37656,31600
37065,31600
" /> 
<polyline style="fill-rule:evenodd;"
points="33313,30600
33313,29899
33904,29899
33904,30600
33313,30600
" /> 
<polyline style="fill-rule:evenodd;"
points="37065,30600
37065,29899
37656,29899
37656,30600
37065,30600
" /> 
<polyline style="fill-rule:evenodd;"
points="33313,31600
33313,30899
33904,30899
33904,31600
33313,31600
" /> 
<polyline style="fill-rule:evenodd;"
points="16704,26240
16704,26940
16113,26940
16113,26240
16704,26240
" /> 
<polyline style="fill-rule:evenodd;"
points="20456,27240
20456,27940
19865,27940
19865,27240
20456,27240
" /> 
<polyline style="fill-rule:evenodd;"
points="16704,27240
16704,27940
16113,27940
16113,27240
16704,27240
" /> 
<polyline style="fill-rule:evenodd;"
points="20456,26240
20456,26940
19865,26940
19865,26240
20456,26240
" /> 
<polyline style="fill-rule:evenodd;"
points="16704,23990
16704,24690
16113,24690
16113,23990
16704,23990
" /> 
<polyline style="fill-rule:evenodd;"
points="20456,24990
20456,25690
19865,25690
19865,24990
20456,24990
" /> 
<polyline style="fill-rule:evenodd;"
points="16704,24990
16704,25690
16113,25690
16113,24990
16704,24990
" /> 
<polyline style="fill-rule:evenodd;"
points="20456,23990
20456,24690
19865,24690
19865,23990
20456,23990
" /> 
<polyline style="fill-rule:evenodd;"
points="16704,21740
16704,22440
16113,22440
16113,21740
16704,21740
" /> 
<polyline style="fill-rule:evenodd;"
points="20456,22740
20456,23440
19865,23440
19865,22740
20456,22740
" /> 
<polyline style="fill-rule:evenodd;"
points="16704,22740
16704,23440
16113,23440
16113,22740
16704,22740
" /> 
<polyline style="fill-rule:evenodd;"
points="20456,21740
20456,22440
19865,22440
19865,21740
20456,21740
" /> 
<polyline style="fill-rule:evenodd;"
points="16704,19490
16704,20190
16113,20190
16113,19490
16704,19490
" /> 
<polyline style="fill-rule:evenodd;"
points="20456,20490
20456,21190
19865,21190
19865,20490
20456,20490
" /> 
<polyline style="fill-rule:evenodd;"
points="16704,20490
16704,21190
16113,21190
16113,20490
16704,20490
" /> 
<polyline style="fill-rule:evenodd;"
points="20456,19490
20456,20190
19865,20190
19865,19490
20456,19490
" /> 
<polyline style="fill-rule:evenodd;"
points="16704,17240
16704,17940
16113,17940
16113,17240
16704,17240
" /> 
<polyline style="fill-rule:evenodd;"
points="20456,18240
20456,18940
19865,18940
19865,18240
20456,18240
" /> 
<polyline style="fill-rule:evenodd;"
points="16704,18240
16704,18940
16113,18940
16113,18240
16704,18240
" /> 
<polyline style="fill-rule:evenodd;"
points="20456,17240
20456,17940
19865,17940
19865,17240
20456,17240
" /> 
<polyline style="fill-rule:evenodd;"
points="16704,35040
16704,35740
16113,35740
16113,35040
16704,35040
" /> 
<polyline style="fill-rule:evenodd;"
points="20456,36040
20456,36740
19865,36740
19865,36040
20456,36040
" /> 
<polyline style="fill-rule:evenodd;"
points="16704,36040
16704,36740
16113,36740
16113,36040
16704,36040
" /> 
<polyline style="fill-rule:evenodd;"
points="20456,35040
20456,35740
19865,35740
19865,35040
20456,35040
" /> 
<polyline style="fill-rule:evenodd;"
points="16704,14999
16704,15700
16113,15700
16113,14999
16704,14999
" /> 
<polyline style="fill-rule:evenodd;"
points="20456,15999
20456,16700
19865,16700
19865,15999
20456,15999
" /> 
<polyline style="fill-rule:evenodd;"
points="16704,15999
16704,16700
16113,16700
16113,15999
16704,15999
" /> 
<polyline style="fill-rule:evenodd;"
points="20456,14999
20456,15700
19865,15700
19865,14999
20456,14999
" /> 
<polyline style="fill-rule:evenodd;"
points="19865,33490
19865,32790
20456,32790
20456,33490
19865,33490
" /> 
<polyline style="fill-rule:evenodd;"
points="16113,32490
16113,31790
16704,31790
16704,32490
16113,32490
" /> 
<polyline style="fill-rule:evenodd;"
points="19865,32490
19865,31790
20456,31790
20456,32490
19865,32490
" /> 
<polyline style="fill-rule:evenodd;"
points="16113,33490
16113,32790
16704,32790
16704,33490
16113,33490
" /> 
<polyline style="fill-rule:evenodd;"
points="19865,30190
19865,29490
20456,29490
20456,30190
19865,30190
" /> 
<polyline style="fill-rule:evenodd;"
points="16113,29190
16113,28490
16704,28490
16704,29190
16113,29190
" /> 
<polyline style="fill-rule:evenodd;"
points="19865,29190
19865,28490
20456,28490
20456,29190
19865,29190
" /> 
<polyline style="fill-rule:evenodd;"
points="16113,30190
16113,29490
16704,29490
16704,30190
16113,30190
" /> 
<polyline style="fill-rule:evenodd;"
points="33904,22599
33904,23300
33313,23300
33313,22599
33904,22599
" /> 
<polyline style="fill-rule:evenodd;"
points="37656,23599
37656,24300
37065,24300
37065,23599
37656,23599
" /> 
<polyline style="fill-rule:evenodd;"
points="33904,23599
33904,24300
33313,24300
33313,23599
33904,23599
" /> 
<polyline style="fill-rule:evenodd;"
points="37656,22599
37656,23300
37065,23300
37065,22599
37656,22599
" /> 
<polyline style="fill-rule:evenodd;"
points="33904,24849
33904,25550
33313,25550
33313,24849
33904,24849
" /> 
<polyline style="fill-rule:evenodd;"
points="37656,25849
37656,26550
37065,26550
37065,25849
37656,25849
" /> 
<polyline style="fill-rule:evenodd;"
points="33904,25849
33904,26550
33313,26550
33313,25849
33904,25849
" /> 
<polyline style="fill-rule:evenodd;"
points="37656,24849
37656,25550
37065,25550
37065,24849
37656,24849
" /> 
<polyline style="fill-rule:evenodd;"
points="38734,32480
39435,32480
39435,33071
38734,33071
38734,32480
" /> 
<polyline style="fill-rule:evenodd;"
points="39734,28728
40435,28728
40435,29319
39734,29319
39734,28728
" /> 
<polyline style="fill-rule:evenodd;"
points="39734,32480
40435,32480
40435,33071
39734,33071
39734,32480
" /> 
<polyline style="fill-rule:evenodd;"
points="38734,28728
39435,28728
39435,29319
38734,29319
38734,28728
" /> 
<polyline style="fill-rule:evenodd;"
points="18501,11912
18501,9628
21021,9628
21021,11912
18501,11912
" /> 
<polyline style="fill-rule:evenodd;"
points="16848,10108
16848,9636
17714,9636
17714,10108
16848,10108
" /> 
<polyline style="fill-rule:evenodd;"
points="16848,11006
16848,10534
17714,10534
17714,11006
16848,11006
" /> 
<polyline style="fill-rule:evenodd;"
points="16848,11904
16848,11431
17714,11431
17714,11904
16848,11904
" /> 
<polyline style="fill-rule:evenodd;"
points="40162,24855
40171,24857
40181,24859
40190,24863
40198,24867
40207,24872
40215,24877
40222,24884
40228,24891
40234,24899
40239,24907
40243,24916
40246,24925
40249,24934
40250,24944
40250,24953
40250,25446
40250,25455
40249,25465
40246,25474
40243,25483
40239,25492
40234,25500
40228,25508
40222,25515
40215,25522
40207,25527
40198,25532
40190,25536
40181,25540
40171,25542
40162,25544
40152,25544
39788,25544
39778,25544
39769,25542
39759,25540
39750,25536
39741,25532
39733,25527
39725,25522
39718,25515
39712,25508
39706,25500
39701,25492
39697,25483
39694,25474
39691,25465
39690,25455
39689,25446
39689,24953
39690,24944
39691,24934
39694,24925
39697,24916
39701,24907
39706,24899
39712,24891
39718,24884
39725,24877
39733,24872
39741,24867
39750,24863
39759,24859
39769,24857
39778,24855
39788,24855
40152,24855
40162,24855
" /> 
<polyline style="fill-rule:evenodd;"
points="38990,24855
39000,24857
39009,24859
39018,24863
39027,24867
39035,24872
39043,24877
39050,24884
39057,24891
39063,24899
39068,24907
39072,24916
39075,24925
39077,24934
39079,24944
39079,24953
39079,25446
39079,25455
39077,25465
39075,25474
39072,25483
39068,25492
39063,25500
39057,25508
39050,25515
39043,25522
39035,25527
39027,25532
39018,25536
39009,25540
39000,25542
38990,25544
38981,25544
38617,25544
38607,25544
38597,25542
38588,25540
38579,25536
38570,25532
38562,25527
38554,25522
38547,25515
38541,25508
38535,25500
38530,25492
38526,25483
38522,25474
38520,25465
38519,25455
38518,25446
38518,24953
38519,24944
38520,24934
38522,24925
38526,24916
38530,24907
38535,24899
38541,24891
38547,24884
38554,24877
38562,24872
38570,24867
38579,24863
38588,24859
38597,24857
38607,24855
38617,24855
38981,24855
38990,24855
" /> 
<polyline style="fill-rule:evenodd;"
points="40076,26055
40086,26057
40095,26059
40104,26063
40113,26067
40121,26072
40129,26077
40136,26084
40143,26091
40148,26099
40153,26107
40157,26116
40161,26125
40163,26134
40164,26144
40165,26153
40165,26646
40164,26655
40163,26665
40161,26674
40157,26683
40153,26692
40148,26700
40143,26708
40136,26715
40129,26722
40121,26727
40113,26732
40104,26736
40095,26740
40086,26742
40076,26744
40066,26744
39702,26744
39693,26744
39683,26742
39674,26740
39665,26736
39656,26732
39648,26727
39640,26722
39633,26715
39626,26708
39620,26700
39615,26692
39611,26683
39608,26674
39606,26665
39604,26655
39604,26646
39604,26153
39604,26144
39606,26134
39608,26125
39611,26116
39615,26107
39620,26099
39626,26091
39633,26084
39640,26077
39648,26072
39656,26067
39665,26063
39674,26059
39683,26057
39693,26055
39702,26055
40066,26055
40076,26055
" /> 
<polyline style="fill-rule:evenodd;"
points="38905,26055
38914,26057
38924,26059
38933,26063
38942,26067
38950,26072
38958,26077
38965,26084
38971,26091
38977,26099
38982,26107
38986,26116
38989,26125
38992,26134
38993,26144
38994,26153
38994,26646
38993,26655
38992,26665
38989,26674
38986,26683
38982,26692
38977,26700
38971,26708
38965,26715
38958,26722
38950,26727
38942,26732
38933,26736
38924,26740
38914,26742
38905,26744
38895,26744
38531,26744
38521,26744
38512,26742
38502,26740
38493,26736
38485,26732
38476,26727
38469,26722
38461,26715
38455,26708
38449,26700
38444,26692
38440,26683
38437,26674
38434,26665
38433,26655
38433,26646
38433,26153
38433,26144
38434,26134
38437,26125
38440,26116
38444,26107
38449,26099
38455,26091
38461,26084
38469,26077
38476,26072
38485,26067
38493,26063
38502,26059
38512,26057
38521,26055
38531,26055
38895,26055
38905,26055
" /> 
<polyline style="fill-rule:evenodd;"
points="40162,22405
40171,22407
40181,22409
40190,22413
40198,22417
40207,22422
40215,22427
40222,22434
40228,22441
40234,22449
40239,22457
40243,22466
40246,22475
40249,22484
40250,22494
40250,22503
40250,22996
40250,23005
40249,23015
40246,23024
40243,23033
40239,23042
40234,23050
40228,23058
40222,23065
40215,23072
40207,23077
40198,23082
40190,23086
40181,23090
40171,23092
40162,23094
40152,23094
39788,23094
39778,23094
39769,23092
39759,23090
39750,23086
39741,23082
39733,23077
39725,23072
39718,23065
39712,23058
39706,23050
39701,23042
39697,23033
39694,23024
39691,23015
39690,23005
39689,22996
39689,22503
39690,22494
39691,22484
39694,22475
39697,22466
39701,22457
39706,22449
39712,22441
39718,22434
39725,22427
39733,22422
39741,22417
39750,22413
39759,22409
39769,22407
39778,22405
39788,22405
40152,22405
40162,22405
" /> 
<polyline style="fill-rule:evenodd;"
points="38990,22405
39000,22407
39009,22409
39018,22413
39027,22417
39035,22422
39043,22427
39050,22434
39057,22441
39063,22449
39068,22457
39072,22466
39075,22475
39077,22484
39079,22494
39079,22503
39079,22996
39079,23005
39077,23015
39075,23024
39072,23033
39068,23042
39063,23050
39057,23058
39050,23065
39043,23072
39035,23077
39027,23082
39018,23086
39009,23090
39000,23092
38990,23094
38981,23094
38617,23094
38607,23094
38597,23092
38588,23090
38579,23086
38570,23082
38562,23077
38554,23072
38547,23065
38541,23058
38535,23050
38530,23042
38526,23033
38522,23024
38520,23015
38519,23005
38518,22996
38518,22503
38519,22494
38520,22484
38522,22475
38526,22466
38530,22457
38535,22449
38541,22441
38547,22434
38554,22427
38562,22422
38570,22417
38579,22413
38588,22409
38597,22407
38607,22405
38617,22405
38981,22405
38990,22405
" /> 
<polyline style="fill-rule:evenodd;"
points="22562,35005
22571,35007
22581,35009
22590,35013
22598,35017
22607,35022
22615,35027
22622,35034
22628,35041
22634,35049
22639,35057
22643,35066
22646,35075
22649,35084
22650,35094
22650,35103
22650,35596
22650,35605
22649,35615
22646,35624
22643,35633
22639,35642
22634,35650
22628,35658
22622,35665
22615,35672
22607,35677
22598,35682
22590,35686
22581,35690
22571,35692
22562,35694
22552,35694
22188,35694
22178,35694
22169,35692
22159,35690
22150,35686
22141,35682
22133,35677
22125,35672
22118,35665
22112,35658
22106,35650
22101,35642
22097,35633
22094,35624
22091,35615
22090,35605
22089,35596
22089,35103
22090,35094
22091,35084
22094,35075
22097,35066
22101,35057
22106,35049
22112,35041
22118,35034
22125,35027
22133,35022
22141,35017
22150,35013
22159,35009
22169,35007
22178,35005
22188,35005
22552,35005
22562,35005
" /> 
<polyline style="fill-rule:evenodd;"
points="21390,35005
21400,35007
21409,35009
21418,35013
21427,35017
21435,35022
21443,35027
21450,35034
21457,35041
21463,35049
21468,35057
21472,35066
21475,35075
21477,35084
21479,35094
21479,35103
21479,35596
21479,35605
21477,35615
21475,35624
21472,35633
21468,35642
21463,35650
21457,35658
21450,35665
21443,35672
21435,35677
21427,35682
21418,35686
21409,35690
21400,35692
21390,35694
21381,35694
21017,35694
21007,35694
20997,35692
20988,35690
20979,35686
20970,35682
20962,35677
20954,35672
20947,35665
20941,35658
20935,35650
20930,35642
20926,35633
20922,35624
20920,35615
20919,35605
20918,35596
20918,35103
20919,35094
20920,35084
20922,35075
20926,35066
20930,35057
20935,35049
20941,35041
20947,35034
20954,35027
20962,35022
20970,35017
20979,35013
20988,35009
20997,35007
21007,35005
21017,35005
21381,35005
21390,35005
" /> 
<polyline style="fill-rule:evenodd;"
points="32490,32505
32500,32507
32509,32509
32518,32513
32527,32517
32535,32522
32543,32527
32550,32534
32557,32541
32563,32549
32568,32557
32572,32566
32575,32575
32577,32584
32579,32594
32579,32603
32579,33096
32579,33105
32577,33115
32575,33124
32572,33133
32568,33142
32563,33150
32557,33158
32550,33165
32543,33172
32535,33177
32527,33182
32518,33186
32509,33190
32500,33192
32490,33194
32481,33194
32117,33194
32107,33194
32097,33192
32088,33190
32079,33186
32070,33182
32062,33177
32054,33172
32047,33165
32041,33158
32035,33150
32030,33142
32026,33133
32022,33124
32020,33115
32019,33105
32018,33096
32018,32603
32019,32594
32020,32584
32022,32575
32026,32566
32030,32557
32035,32549
32041,32541
32047,32534
32054,32527
32062,32522
32070,32517
32079,32513
32088,32509
32097,32507
32107,32505
32117,32505
32481,32505
32490,32505
" /> 
<polyline style="fill-rule:evenodd;"
points="33662,32505
33671,32507
33681,32509
33690,32513
33698,32517
33707,32522
33715,32527
33722,32534
33728,32541
33734,32549
33739,32557
33743,32566
33746,32575
33749,32584
33750,32594
33750,32603
33750,33096
33750,33105
33749,33115
33746,33124
33743,33133
33739,33142
33734,33150
33728,33158
33722,33165
33715,33172
33707,33177
33698,33182
33690,33186
33681,33190
33671,33192
33662,33194
33652,33194
33288,33194
33278,33194
33269,33192
33259,33190
33250,33186
33241,33182
33233,33177
33225,33172
33218,33165
33212,33158
33206,33150
33201,33142
33197,33133
33194,33124
33191,33115
33190,33105
33189,33096
33189,32603
33190,32594
33191,32584
33194,32575
33197,32566
33201,32557
33206,32549
33212,32541
33218,32534
33225,32527
33233,32522
33241,32517
33250,32513
33259,32509
33269,32507
33278,32505
33288,32505
33652,32505
33662,32505
" /> 
<polyline style="fill-rule:evenodd;"
points="24689,25404
24699,25406
24708,25408
24717,25411
24726,25415
24734,25420
24742,25426
24749,25433
24755,25440
24761,25448
24766,25456
24770,25465
24774,25474
24776,25483
24777,25493
24778,25502
24778,25994
24777,26004
24776,26014
24774,26023
24770,26032
24766,26041
24761,26049
24755,26057
24749,26064
24742,26070
24734,26076
24726,26081
24717,26085
24708,26089
24699,26091
24689,26092
24679,26093
24315,26093
24306,26092
24296,26091
24287,26089
24278,26085
24269,26081
24261,26076
24253,26070
24246,26064
24239,26057
24233,26049
24228,26041
24224,26032
24221,26023
24219,26014
24217,26004
24217,25994
24217,25502
24217,25493
24219,25483
24221,25474
24224,25465
24228,25456
24233,25448
24239,25440
24246,25433
24253,25426
24261,25420
24269,25415
24278,25411
24287,25408
24296,25406
24306,25404
24315,25404
24679,25404
24689,25404
" /> 
<polyline style="fill-rule:evenodd;"
points="23518,25404
23527,25406
23537,25408
23546,25411
23555,25415
23563,25420
23571,25426
23578,25433
23584,25440
23590,25448
23595,25456
23599,25465
23602,25474
23605,25483
23606,25493
23607,25502
23607,25994
23606,26004
23605,26014
23602,26023
23599,26032
23595,26041
23590,26049
23584,26057
23578,26064
23571,26070
23563,26076
23555,26081
23546,26085
23537,26089
23527,26091
23518,26092
23508,26093
23144,26093
23134,26092
23125,26091
23115,26089
23106,26085
23098,26081
23089,26076
23081,26070
23074,26064
23068,26057
23062,26049
23057,26041
23053,26032
23050,26023
23047,26014
23046,26004
23046,25994
23046,25502
23046,25493
23047,25483
23050,25474
23053,25465
23057,25456
23062,25448
23068,25440
23074,25433
23081,25426
23089,25420
23098,25415
23106,25411
23115,25408
23125,25406
23134,25404
23144,25404
23508,25404
23518,25404
" /> 
<polyline style="fill-rule:evenodd;"
points="24689,24404
24699,24406
24708,24408
24717,24411
24726,24415
24734,24420
24742,24426
24749,24433
24755,24440
24761,24448
24766,24456
24770,24465
24774,24474
24776,24483
24777,24493
24778,24502
24778,24994
24777,25004
24776,25014
24774,25023
24770,25032
24766,25041
24761,25049
24755,25057
24749,25064
24742,25070
24734,25076
24726,25081
24717,25085
24708,25089
24699,25091
24689,25092
24679,25093
24315,25093
24306,25092
24296,25091
24287,25089
24278,25085
24269,25081
24261,25076
24253,25070
24246,25064
24239,25057
24233,25049
24228,25041
24224,25032
24221,25023
24219,25014
24217,25004
24217,24994
24217,24502
24217,24493
24219,24483
24221,24474
24224,24465
24228,24456
24233,24448
24239,24440
24246,24433
24253,24426
24261,24420
24269,24415
24278,24411
24287,24408
24296,24406
24306,24404
24315,24404
24679,24404
24689,24404
" /> 
<polyline style="fill-rule:evenodd;"
points="23518,24404
23527,24406
23537,24408
23546,24411
23555,24415
23563,24420
23571,24426
23578,24433
23584,24440
23590,24448
23595,24456
23599,24465
23602,24474
23605,24483
23606,24493
23607,24502
23607,24994
23606,25004
23605,25014
23602,25023
23599,25032
23595,25041
23590,25049
23584,25057
23578,25064
23571,25070
23563,25076
23555,25081
23546,25085
23537,25089
23527,25091
23518,25092
23508,25093
23144,25093
23134,25092
23125,25091
23115,25089
23106,25085
23098,25081
23089,25076
23081,25070
23074,25064
23068,25057
23062,25049
23057,25041
23053,25032
23050,25023
23047,25014
23046,25004
23046,24994
23046,24502
23046,24493
23047,24483
23050,24474
23053,24465
23057,24456
23062,24448
23068,24440
23074,24433
23081,24426
23089,24420
23098,24415
23106,24411
23115,24408
23125,24406
23134,24404
23144,24404
23508,24404
23518,24404
" /> 
<polyline style="fill-rule:evenodd;"
points="24689,23404
24699,23406
24708,23408
24717,23411
24726,23415
24734,23420
24742,23426
24749,23433
24755,23440
24761,23448
24766,23456
24770,23465
24774,23474
24776,23483
24777,23493
24778,23502
24778,23994
24777,24004
24776,24014
24774,24023
24770,24032
24766,24041
24761,24049
24755,24057
24749,24064
24742,24070
24734,24076
24726,24081
24717,24085
24708,24089
24699,24091
24689,24092
24679,24093
24315,24093
24306,24092
24296,24091
24287,24089
24278,24085
24269,24081
24261,24076
24253,24070
24246,24064
24239,24057
24233,24049
24228,24041
24224,24032
24221,24023
24219,24014
24217,24004
24217,23994
24217,23502
24217,23493
24219,23483
24221,23474
24224,23465
24228,23456
24233,23448
24239,23440
24246,23433
24253,23426
24261,23420
24269,23415
24278,23411
24287,23408
24296,23406
24306,23404
24315,23404
24679,23404
24689,23404
" /> 
<polyline style="fill-rule:evenodd;"
points="23518,23404
23527,23406
23537,23408
23546,23411
23555,23415
23563,23420
23571,23426
23578,23433
23584,23440
23590,23448
23595,23456
23599,23465
23602,23474
23605,23483
23606,23493
23607,23502
23607,23994
23606,24004
23605,24014
23602,24023
23599,24032
23595,24041
23590,24049
23584,24057
23578,24064
23571,24070
23563,24076
23555,24081
23546,24085
23537,24089
23527,24091
23518,24092
23508,24093
23144,24093
23134,24092
23125,24091
23115,24089
23106,24085
23098,24081
23089,24076
23081,24070
23074,24064
23068,24057
23062,24049
23057,24041
23053,24032
23050,24023
23047,24014
23046,24004
23046,23994
23046,23502
23046,23493
23047,23483
23050,23474
23053,23465
23057,23456
23062,23448
23068,23440
23074,23433
23081,23426
23089,23420
23098,23415
23106,23411
23115,23408
23125,23406
23134,23404
23144,23404
23508,23404
23518,23404
" /> 
<polyline style="fill-rule:evenodd;"
points="24689,22404
24699,22406
24708,22408
24717,22411
24726,22415
24734,22420
24742,22426
24749,22433
24755,22440
24761,22448
24766,22456
24770,22465
24774,22474
24776,22483
24777,22493
24778,22502
24778,22994
24777,23004
24776,23014
24774,23023
24770,23032
24766,23041
24761,23049
24755,23057
24749,23064
24742,23070
24734,23076
24726,23081
24717,23085
24708,23089
24699,23091
24689,23092
24679,23093
24315,23093
24306,23092
24296,23091
24287,23089
24278,23085
24269,23081
24261,23076
24253,23070
24246,23064
24239,23057
24233,23049
24228,23041
24224,23032
24221,23023
24219,23014
24217,23004
24217,22994
24217,22502
24217,22493
24219,22483
24221,22474
24224,22465
24228,22456
24233,22448
24239,22440
24246,22433
24253,22426
24261,22420
24269,22415
24278,22411
24287,22408
24296,22406
24306,22404
24315,22404
24679,22404
24689,22404
" /> 
<polyline style="fill-rule:evenodd;"
points="23518,22404
23527,22406
23537,22408
23546,22411
23555,22415
23563,22420
23571,22426
23578,22433
23584,22440
23590,22448
23595,22456
23599,22465
23602,22474
23605,22483
23606,22493
23607,22502
23607,22994
23606,23004
23605,23014
23602,23023
23599,23032
23595,23041
23590,23049
23584,23057
23578,23064
23571,23070
23563,23076
23555,23081
23546,23085
23537,23089
23527,23091
23518,23092
23508,23093
23144,23093
23134,23092
23125,23091
23115,23089
23106,23085
23098,23081
23089,23076
23081,23070
23074,23064
23068,23057
23062,23049
23057,23041
23053,23032
23050,23023
23047,23014
23046,23004
23046,22994
23046,22502
23046,22493
23047,22483
23050,22474
23053,22465
23057,22456
23062,22448
23068,22440
23074,22433
23081,22426
23089,22420
23098,22415
23106,22411
23115,22408
23125,22406
23134,22404
23144,22404
23508,22404
23518,22404
" /> 
<polyline style="fill-rule:evenodd;"
points="24689,21404
24699,21406
24708,21408
24717,21411
24726,21415
24734,21420
24742,21426
24749,21433
24755,21440
24761,21448
24766,21456
24770,21465
24774,21474
24776,21483
24777,21493
24778,21502
24778,21994
24777,22004
24776,22014
24774,22023
24770,22032
24766,22041
24761,22049
24755,22057
24749,22064
24742,22070
24734,22076
24726,22081
24717,22085
24708,22089
24699,22091
24689,22092
24679,22093
24315,22093
24306,22092
24296,22091
24287,22089
24278,22085
24269,22081
24261,22076
24253,22070
24246,22064
24239,22057
24233,22049
24228,22041
24224,22032
24221,22023
24219,22014
24217,22004
24217,21994
24217,21502
24217,21493
24219,21483
24221,21474
24224,21465
24228,21456
24233,21448
24239,21440
24246,21433
24253,21426
24261,21420
24269,21415
24278,21411
24287,21408
24296,21406
24306,21404
24315,21404
24679,21404
24689,21404
" /> 
<polyline style="fill-rule:evenodd;"
points="23518,21404
23527,21406
23537,21408
23546,21411
23555,21415
23563,21420
23571,21426
23578,21433
23584,21440
23590,21448
23595,21456
23599,21465
23602,21474
23605,21483
23606,21493
23607,21502
23607,21994
23606,22004
23605,22014
23602,22023
23599,22032
23595,22041
23590,22049
23584,22057
23578,22064
23571,22070
23563,22076
23555,22081
23546,22085
23537,22089
23527,22091
23518,22092
23508,22093
23144,22093
23134,22092
23125,22091
23115,22089
23106,22085
23098,22081
23089,22076
23081,22070
23074,22064
23068,22057
23062,22049
23057,22041
23053,22032
23050,22023
23047,22014
23046,22004
23046,21994
23046,21502
23046,21493
23047,21483
23050,21474
23053,21465
23057,21456
23062,21448
23068,21440
23074,21433
23081,21426
23089,21420
23098,21415
23106,21411
23115,21408
23125,21406
23134,21404
23144,21404
23508,21404
23518,21404
" /> 
<polyline style="fill-rule:evenodd;"
points="17812,39505
17821,39507
17831,39509
17840,39513
17848,39517
17857,39522
17865,39527
17872,39534
17878,39541
17884,39549
17889,39557
17893,39566
17896,39575
17899,39584
17900,39594
17900,39603
17900,40096
17900,40105
17899,40115
17896,40124
17893,40133
17889,40142
17884,40150
17878,40158
17872,40165
17865,40172
17857,40177
17848,40182
17840,40186
17831,40190
17821,40192
17812,40194
17802,40194
17438,40194
17428,40194
17419,40192
17409,40190
17400,40186
17391,40182
17383,40177
17375,40172
17368,40165
17362,40158
17356,40150
17351,40142
17347,40133
17344,40124
17341,40115
17340,40105
17339,40096
17339,39603
17340,39594
17341,39584
17344,39575
17347,39566
17351,39557
17356,39549
17362,39541
17368,39534
17375,39527
17383,39522
17391,39517
17400,39513
17409,39509
17419,39507
17428,39505
17438,39505
17802,39505
17812,39505
" /> 
<polyline style="fill-rule:evenodd;"
points="16640,39505
16650,39507
16659,39509
16668,39513
16677,39517
16685,39522
16693,39527
16700,39534
16707,39541
16713,39549
16718,39557
16722,39566
16725,39575
16727,39584
16729,39594
16729,39603
16729,40096
16729,40105
16727,40115
16725,40124
16722,40133
16718,40142
16713,40150
16707,40158
16700,40165
16693,40172
16685,40177
16677,40182
16668,40186
16659,40190
16650,40192
16640,40194
16631,40194
16267,40194
16257,40194
16247,40192
16238,40190
16229,40186
16220,40182
16212,40177
16204,40172
16197,40165
16191,40158
16185,40150
16180,40142
16176,40133
16172,40124
16170,40115
16169,40105
16168,40096
16168,39603
16169,39594
16170,39584
16172,39575
16176,39566
16180,39557
16185,39549
16191,39541
16197,39534
16204,39527
16212,39522
16220,39517
16229,39513
16238,39509
16247,39507
16257,39505
16267,39505
16631,39505
16640,39505
" /> 
<polyline style="fill-rule:evenodd;"
points="16562,33955
16571,33957
16581,33959
16590,33963
16598,33967
16607,33972
16615,33977
16622,33984
16628,33991
16634,33999
16639,34007
16643,34016
16646,34025
16649,34034
16650,34044
16650,34053
16650,34546
16650,34555
16649,34565
16646,34574
16643,34583
16639,34592
16634,34600
16628,34608
16622,34615
16615,34622
16607,34627
16598,34632
16590,34636
16581,34640
16571,34642
16562,34644
16552,34644
16188,34644
16178,34644
16169,34642
16159,34640
16150,34636
16141,34632
16133,34627
16125,34622
16118,34615
16112,34608
16106,34600
16101,34592
16097,34583
16094,34574
16091,34565
16090,34555
16089,34546
16089,34053
16090,34044
16091,34034
16094,34025
16097,34016
16101,34007
16106,33999
16112,33991
16118,33984
16125,33977
16133,33972
16141,33967
16150,33963
16159,33959
16169,33957
16178,33955
16188,33955
16552,33955
16562,33955
" /> 
<polyline style="fill-rule:evenodd;"
points="15390,33955
15400,33957
15409,33959
15418,33963
15427,33967
15435,33972
15443,33977
15450,33984
15457,33991
15463,33999
15468,34007
15472,34016
15475,34025
15477,34034
15479,34044
15479,34053
15479,34546
15479,34555
15477,34565
15475,34574
15472,34583
15468,34592
15463,34600
15457,34608
15450,34615
15443,34622
15435,34627
15427,34632
15418,34636
15409,34640
15400,34642
15390,34644
15381,34644
15017,34644
15007,34644
14997,34642
14988,34640
14979,34636
14970,34632
14962,34627
14954,34622
14947,34615
14941,34608
14935,34600
14930,34592
14926,34583
14922,34574
14920,34565
14919,34555
14918,34546
14918,34053
14919,34044
14920,34034
14922,34025
14926,34016
14930,34007
14935,33999
14941,33991
14947,33984
14954,33977
14962,33972
14970,33967
14979,33963
14988,33959
14997,33957
15007,33955
15017,33955
15381,33955
15390,33955
" /> 
<polyline style="fill-rule:evenodd;"
points="16562,30555
16571,30557
16581,30559
16590,30563
16598,30567
16607,30572
16615,30577
16622,30584
16628,30591
16634,30599
16639,30607
16643,30616
16646,30625
16649,30634
16650,30644
16650,30653
16650,31146
16650,31155
16649,31165
16646,31174
16643,31183
16639,31192
16634,31200
16628,31208
16622,31215
16615,31222
16607,31227
16598,31232
16590,31236
16581,31240
16571,31242
16562,31244
16552,31244
16188,31244
16178,31244
16169,31242
16159,31240
16150,31236
16141,31232
16133,31227
16125,31222
16118,31215
16112,31208
16106,31200
16101,31192
16097,31183
16094,31174
16091,31165
16090,31155
16089,31146
16089,30653
16090,30644
16091,30634
16094,30625
16097,30616
16101,30607
16106,30599
16112,30591
16118,30584
16125,30577
16133,30572
16141,30567
16150,30563
16159,30559
16169,30557
16178,30555
16188,30555
16552,30555
16562,30555
" /> 
<polyline style="fill-rule:evenodd;"
points="15390,30555
15400,30557
15409,30559
15418,30563
15427,30567
15435,30572
15443,30577
15450,30584
15457,30591
15463,30599
15468,30607
15472,30616
15475,30625
15477,30634
15479,30644
15479,30653
15479,31146
15479,31155
15477,31165
15475,31174
15472,31183
15468,31192
15463,31200
15457,31208
15450,31215
15443,31222
15435,31227
15427,31232
15418,31236
15409,31240
15400,31242
15390,31244
15381,31244
15017,31244
15007,31244
14997,31242
14988,31240
14979,31236
14970,31232
14962,31227
14954,31222
14947,31215
14941,31208
14935,31200
14930,31192
14926,31183
14922,31174
14920,31165
14919,31155
14918,31146
14918,30653
14919,30644
14920,30634
14922,30625
14926,30616
14930,30607
14935,30599
14941,30591
14947,30584
14954,30577
14962,30572
14970,30567
14979,30563
14988,30559
14997,30557
15007,30555
15017,30555
15381,30555
15390,30555
" /> 
<polyline style="fill-rule:evenodd;"
points="30590,19005
30600,19007
30609,19009
30618,19012
30627,19016
30635,19021
30643,19027
30650,19033
30656,19041
30662,19048
30667,19057
30671,19065
30675,19074
30677,19084
30678,19093
30679,19103
30679,19467
30678,19477
30677,19486
30675,19496
30671,19505
30667,19514
30662,19522
30656,19530
30650,19537
30643,19543
30635,19549
30627,19554
30618,19558
30609,19561
30600,19564
30590,19565
30580,19566
30088,19566
30079,19565
30069,19564
30060,19561
30051,19558
30042,19554
30034,19549
30026,19543
30019,19537
30012,19530
30006,19522
30001,19514
29997,19505
29994,19496
29992,19486
29990,19477
29990,19467
29990,19103
29990,19093
29992,19084
29994,19074
29997,19065
30001,19057
30006,19048
30012,19041
30019,19033
30026,19027
30034,19021
30042,19016
30051,19012
30060,19009
30069,19007
30079,19005
30088,19005
30580,19005
30590,19005
" /> 
<polyline style="fill-rule:evenodd;"
points="30590,17834
30600,17835
30609,17838
30618,17841
30627,17845
30635,17850
30643,17856
30650,17862
30656,17869
30662,17877
30667,17885
30671,17894
30675,17903
30677,17913
30678,17922
30679,17932
30679,18296
30678,18306
30677,18315
30675,18325
30671,18334
30667,18342
30662,18351
30656,18358
30650,18366
30643,18372
30635,18378
30627,18383
30618,18387
30609,18390
30600,18392
30590,18394
30580,18394
30088,18394
30079,18394
30069,18392
30060,18390
30051,18387
30042,18383
30034,18378
30026,18372
30019,18366
30012,18358
30006,18351
30001,18342
29997,18334
29994,18325
29992,18315
29990,18306
29990,18296
29990,17932
29990,17922
29992,17913
29994,17903
29997,17894
30001,17885
30006,17877
30012,17869
30019,17862
30026,17856
30034,17850
30042,17845
30051,17841
30060,17838
30069,17835
30079,17834
30088,17833
30580,17833
30590,17834
" /> 
<polyline style="fill-rule:evenodd;"
points="16390,11075
16400,11077
16409,11079
16418,11082
16427,11087
16435,11092
16443,11097
16450,11104
16456,11111
16462,11119
16467,11127
16471,11136
16475,11145
16477,11154
16478,11164
16479,11173
16479,11538
16478,11547
16477,11557
16475,11566
16471,11575
16467,11584
16462,11592
16456,11600
16450,11607
16443,11614
16435,11619
16427,11624
16418,11628
16409,11632
16400,11634
16390,11635
16380,11636
15888,11636
15879,11635
15869,11634
15860,11632
15851,11628
15842,11624
15834,11619
15826,11614
15819,11607
15812,11600
15806,11592
15801,11584
15797,11575
15794,11566
15792,11557
15790,11547
15790,11538
15790,11173
15790,11164
15792,11154
15794,11145
15797,11136
15801,11127
15806,11119
15812,11111
15819,11104
15826,11097
15834,11092
15842,11087
15851,11082
15860,11079
15869,11077
15879,11075
15888,11075
16380,11075
16390,11075
" /> 
<polyline style="fill-rule:evenodd;"
points="16390,9904
16400,9906
16409,9908
16418,9911
16427,9915
16435,9920
16443,9926
16450,9932
16456,9940
16462,9947
16467,9956
16471,9964
16475,9974
16477,9983
16478,9992
16479,10002
16479,10366
16478,10376
16477,10385
16475,10395
16471,10404
16467,10413
16462,10421
16456,10429
16450,10436
16443,10442
16435,10448
16427,10453
16418,10457
16409,10460
16400,10463
16390,10464
16380,10465
15888,10465
15879,10464
15869,10463
15860,10460
15851,10457
15842,10453
15834,10448
15826,10442
15819,10436
15812,10429
15806,10421
15801,10413
15797,10404
15794,10395
15792,10385
15790,10376
15790,10366
15790,10002
15790,9992
15792,9983
15794,9974
15797,9964
15801,9956
15806,9947
15812,9940
15819,9932
15826,9926
15834,9920
15842,9915
15851,9911
15860,9908
15869,9906
15879,9904
15888,9904
16380,9904
16390,9904
" /> 
<polyline style="fill-rule:evenodd;"
points="16290,13355
16300,13357
16309,13359
16318,13363
16327,13367
16335,13372
16343,13377
16350,13384
16357,13391
16363,13399
16368,13407
16372,13416
16375,13425
16377,13434
16379,13444
16379,13453
16379,13946
16379,13955
16377,13965
16375,13974
16372,13983
16368,13992
16363,14000
16357,14008
16350,14015
16343,14022
16335,14027
16327,14032
16318,14036
16309,14040
16300,14042
16290,14044
16281,14044
15917,14044
15907,14044
15897,14042
15888,14040
15879,14036
15870,14032
15862,14027
15854,14022
15847,14015
15841,14008
15835,14000
15830,13992
15826,13983
15822,13974
15820,13965
15819,13955
15818,13946
15818,13453
15819,13444
15820,13434
15822,13425
15826,13416
15830,13407
15835,13399
15841,13391
15847,13384
15854,13377
15862,13372
15870,13367
15879,13363
15888,13359
15897,13357
15907,13355
15917,13355
16281,13355
16290,13355
" /> 
<polyline style="fill-rule:evenodd;"
points="17462,13355
17471,13357
17481,13359
17490,13363
17498,13367
17507,13372
17515,13377
17522,13384
17528,13391
17534,13399
17539,13407
17543,13416
17546,13425
17549,13434
17550,13444
17550,13453
17550,13946
17550,13955
17549,13965
17546,13974
17543,13983
17539,13992
17534,14000
17528,14008
17522,14015
17515,14022
17507,14027
17498,14032
17490,14036
17481,14040
17471,14042
17462,14044
17452,14044
17088,14044
17078,14044
17069,14042
17059,14040
17050,14036
17041,14032
17033,14027
17025,14022
17018,14015
17012,14008
17006,14000
17001,13992
16997,13983
16994,13974
16991,13965
16990,13955
16989,13946
16989,13453
16990,13444
16991,13434
16994,13425
16997,13416
17001,13407
17006,13399
17012,13391
17018,13384
17025,13377
17033,13372
17041,13367
17050,13363
17059,13359
17069,13357
17078,13355
17088,13355
17452,13355
17462,13355
" /> 
</g>
<g style="fill:#000000; fill-opacity:1.0; 
stroke:#000000; stroke-width:680; stroke-opacity:1; 
stroke-linecap:round; stroke-linejoin:round;">
</g>
<g style="fill:#000000; fill-opacity:0.0; 
stroke:#000000; stroke-width:680; stroke-opacity:1; 
stroke-linecap:round; stroke-linejoin:round;">
<path d="M25844 16750
L25724 16750
" />
<path d="M25844 17750
L25724 17750
" />
<path d="M25844 18750
L25724 18750
" />
<path d="M25844 19750
L25724 19750
" />
<path d="M25844 20750
L25724 20750
" />
<path d="M25844 21750
L25724 21750
" />
<path d="M25844 22750
L25724 22750
" />
<path d="M25844 23750
L25724 23750
" />
<path d="M25844 24750
L25724 24750
" />
<path d="M25844 25750
L25724 25750
" />
<path d="M25844 26750
L25724 26750
" />
<path d="M25844 27750
L25724 27750
" />
<path d="M25844 28750
L25724 28750
" />
<path d="M25844 29750
L25724 29750
" />
<path d="M25844 30750
L25724 30750
" />
<path d="M31844 16750
L31724 16750
" />
<path d="M31844 17750
L31724 17750
" />
<path d="M31844 18750
L31724 18750
" />
<path d="M31844 19750
L31724 19750
" />
<path d="M31844 20750
L31724 20750
" />
<path d="M31844 21750
L31724 21750
" />
<path d="M31844 22750
L31724 22750
" />
<path d="M31844 23750
L31724 23750
" />
<path d="M31844 24750
L31724 24750
" />
<path d="M31844 25750
L31724 25750
" />
<path d="M31844 26750
L31724 26750
" />
<path d="M31844 27750
L31724 27750
" />
<path d="M31844 28750
L31724 28750
" />
<path d="M31844 29750
L31724 29750
" />
<path d="M31844 30750
L31724 30750
" />
</g>
<g style="fill:#000000; fill-opacity:1.0; 
stroke:#000000; stroke-width:0; stroke-opacity:1; 
stroke-linecap:round; stroke-linejoin:round;">
<circle cx="25784.9" cy="15750" r="500" /> 
</g>
<g style="fill:#000000; fill-opacity:1.0; 
stroke:#000000; stroke-width:39.3701; stroke-opacity:1; 
stroke-linecap:round; stroke-linejoin:round;">
</g>
<g style="fill:#000000; fill-opacity:1.0; 
stroke:#000000; stroke-width:0; stroke-opacity:1; 
stroke-linecap:round; stroke-linejoin:round;">
<circle cx="25784.9" cy="31750" r="500" /> 
</g>
<g style="fill:#000000; fill-opacity:1.0; 
stroke:#000000; stroke-width:39.3701; stroke-opacity:1; 
stroke-linecap:round; stroke-linejoin:round;">
</g>
<g style="fill:#000000; fill-opacity:1.0; 
stroke:#000000; stroke-width:0; stroke-opacity:1; 
stroke-linecap:round; stroke-linejoin:round;">
<circle cx="31784.9" cy="31750" r="500" /> 
</g>
<g style="fill:#000000; fill-opacity:1.0; 
stroke:#000000; stroke-width:39.3701; stroke-opacity:1; 
stroke-linecap:round; stroke-linejoin:round;">
</g>
<g style="fill:#000000; fill-opacity:1.0; 
stroke:#000000; stroke-width:0; stroke-opacity:1; 
stroke-linecap:round; stroke-linejoin:round;">
<circle cx="31784.9" cy="15750" r="500" /> 
</g>
<g style="fill:#000000; fill-opacity:1.0; 
stroke:#000000; stroke-width:39.3701; stroke-opacity:1; 
stroke-linecap:round; stroke-linejoin:round;">
</g>
<g style="fill:#000000; fill-opacity:1.0; 
stroke:#000000; stroke-width:0; stroke-opacity:1; 
stroke-linecap:round; stroke-linejoin:round;">
<polyline style="fill-rule:evenodd;"
points="23540,20364
23550,20365
23559,20368
23568,20371
23577,20375
23585,20380
23593,20386
23600,20392
23607,20399
23613,20407
23618,20415
23622,20424
23625,20433
23627,20443
23629,20452
23629,20462
23629,20954
23629,20964
23627,20973
23625,20983
23622,20992
23618,21000
23613,21009
23607,21016
23600,21024
23593,21030
23585,21036
23577,21041
23568,21045
23559,21048
23550,21051
23540,21052
23531,21052
23167,21052
23157,21052
23147,21051
23138,21048
23129,21045
23120,21041
23112,21036
23104,21030
23097,21024
23091,21016
23085,21009
23080,21000
23076,20992
23072,20983
23070,20973
23069,20964
23068,20954
23068,20462
23069,20452
23070,20443
23072,20433
23076,20424
23080,20415
23085,20407
23091,20399
23097,20392
23104,20386
23112,20380
23120,20375
23129,20371
23138,20368
23147,20365
23157,20364
23167,20363
23531,20363
23540,20364
" /> 
<polyline style="fill-rule:evenodd;"
points="24712,20364
24721,20365
24731,20368
24740,20371
24748,20375
24757,20380
24765,20386
24772,20392
24778,20399
24784,20407
24789,20415
24793,20424
24796,20433
24799,20443
24800,20452
24800,20462
24800,20954
24800,20964
24799,20973
24796,20983
24793,20992
24789,21000
24784,21009
24778,21016
24772,21024
24765,21030
24757,21036
24748,21041
24740,21045
24731,21048
24721,21051
24712,21052
24702,21052
24338,21052
24328,21052
24319,21051
24309,21048
24300,21045
24291,21041
24283,21036
24275,21030
24268,21024
24262,21016
24256,21009
24251,21000
24247,20992
24244,20983
24241,20973
24240,20964
24239,20954
24239,20462
24240,20452
24241,20443
24244,20433
24247,20424
24251,20415
24256,20407
24262,20399
24268,20392
24275,20386
24283,20380
24291,20375
24300,20371
24309,20368
24319,20365
24328,20364
24338,20363
24702,20363
24712,20364
" /> 
</g> 
</svg>
