<?xml version="1.0" standalone="no"?>
 <!DOCTYPE svg PUBLIC "-//W3C//DTD SVG 1.1//EN" 
 "http://www.w3.org/Graphics/SVG/1.1/DTD/svg11.dtd"> 
<svg xmlns="http://www.w3.org/2000/svg" version="1.1" 
    width="29.7002cm" height="21.0007cm" viewBox="0 0 116930 82680 ">
<title>SVG Picture created as nano-F.Cu.svg date 2018/08/30 11:39:46 </title>
  <desc>Picture generated by PCBNEW </desc>
<g style="fill:#000000; fill-opacity:1;stroke:#000000; stroke-opacity:1;
stroke-linecap:round; stroke-linejoin:round; "
 transform="translate(0 0) scale(1 1)">
</g>
<g style="fill:#000000; fill-opacity:0.0; 
stroke:#000000; stroke-width:-0.000393701; stroke-opacity:1; 
stroke-linecap:round; stroke-linejoin:round;">
</g>
<g style="fill:#000000; fill-opacity:0.0; 
stroke:#000000; stroke-width:39.3701; stroke-opacity:1; 
stroke-linecap:round; stroke-linejoin:round;">
<circle cx="47000" cy="57200" r="1101.14" /> 
<circle cx="60800" cy="57200" r="1100" /> 
<circle cx="47000" cy="15800" r="1104.54" /> 
<circle cx="60850" cy="15800" r="1004.99" /> 
<path d="M32100 67750
L32100 12600
" />
<path d="M70200 67750
L32100 67750
" />
<path d="M70200 12600
L70200 67750
" />
<path d="M32100 12600
L70200 12600
" />
</g>
<g style="fill:#000000; fill-opacity:0.0; 
stroke:#000000; stroke-width:708.661; stroke-opacity:1; 
stroke-linecap:round; stroke-linejoin:round;">
<path d="M36404 62377
L35695 62377
" />
</g>
<g style="fill:#000000; fill-opacity:0.0; 
stroke:#000000; stroke-width:0; stroke-opacity:1; 
stroke-linecap:round; stroke-linejoin:round;">
</g>
<g style="fill:#000000; fill-opacity:1.0; 
stroke:#000000; stroke-width:0; stroke-opacity:1; 
stroke-linecap:round; stroke-linejoin:round;">
<polyline style="fill-rule:evenodd;"
points="36669,60646
36679,60647
36688,60649
36697,60653
36706,60657
36714,60662
36722,60668
36729,60674
36736,60681
36742,60689
36747,60697
36751,60706
36754,60715
36756,60724
36758,60734
36758,60744
36758,61255
36758,61265
36756,61275
36754,61284
36751,61293
36747,61302
36742,61310
36736,61318
36729,61325
36722,61331
36714,61337
36706,61342
36697,61346
36688,61350
36679,61352
36669,61353
36660,61354
35439,61354
35430,61353
35420,61352
35411,61350
35402,61346
35393,61342
35385,61337
35377,61331
35370,61325
35363,61318
35357,61310
35352,61302
35348,61293
35345,61284
35343,61275
35341,61265
35341,61255
35341,60744
35341,60734
35343,60724
35345,60715
35348,60706
35352,60697
35357,60689
35363,60681
35370,60674
35377,60668
35385,60662
35393,60657
35402,60653
35411,60649
35420,60647
35430,60646
35439,60645
36660,60645
36669,60646
" /> 
</g>
<g style="fill:#000000; fill-opacity:1.0; 
stroke:#000000; stroke-width:708.661; stroke-opacity:1; 
stroke-linecap:round; stroke-linejoin:round;">
</g>
<g style="fill:#000000; fill-opacity:0.0; 
stroke:#000000; stroke-width:708.661; stroke-opacity:1; 
stroke-linecap:round; stroke-linejoin:round;">
<path d="M36404 58377
L35695 58377
" />
</g>
<g style="fill:#000000; fill-opacity:0.0; 
stroke:#000000; stroke-width:0; stroke-opacity:1; 
stroke-linecap:round; stroke-linejoin:round;">
</g>
<g style="fill:#000000; fill-opacity:1.0; 
stroke:#000000; stroke-width:0; stroke-opacity:1; 
stroke-linecap:round; stroke-linejoin:round;">
<polyline style="fill-rule:evenodd;"
points="36669,56646
36679,56647
36688,56649
36697,56653
36706,56657
36714,56662
36722,56668
36729,56674
36736,56681
36742,56689
36747,56697
36751,56706
36754,56715
36756,56724
36758,56734
36758,56744
36758,57255
36758,57265
36756,57275
36754,57284
36751,57293
36747,57302
36742,57310
36736,57318
36729,57325
36722,57331
36714,57337
36706,57342
36697,57346
36688,57350
36679,57352
36669,57353
36660,57354
35439,57354
35430,57353
35420,57352
35411,57350
35402,57346
35393,57342
35385,57337
35377,57331
35370,57325
35363,57318
35357,57310
35352,57302
35348,57293
35345,57284
35343,57275
35341,57265
35341,57255
35341,56744
35341,56734
35343,56724
35345,56715
35348,56706
35352,56697
35357,56689
35363,56681
35370,56674
35377,56668
35385,56662
35393,56657
35402,56653
35411,56649
35420,56647
35430,56646
35439,56645
36660,56645
36669,56646
" /> 
</g>
<g style="fill:#000000; fill-opacity:1.0; 
stroke:#000000; stroke-width:708.661; stroke-opacity:1; 
stroke-linecap:round; stroke-linejoin:round;">
</g>
<g style="fill:#000000; fill-opacity:0.0; 
stroke:#000000; stroke-width:708.661; stroke-opacity:1; 
stroke-linecap:round; stroke-linejoin:round;">
<path d="M36404 66327
L35695 66327
" />
</g>
<g style="fill:#000000; fill-opacity:0.0; 
stroke:#000000; stroke-width:0; stroke-opacity:1; 
stroke-linecap:round; stroke-linejoin:round;">
</g>
<g style="fill:#000000; fill-opacity:1.0; 
stroke:#000000; stroke-width:0; stroke-opacity:1; 
stroke-linecap:round; stroke-linejoin:round;">
<polyline style="fill-rule:evenodd;"
points="36669,64596
36679,64597
36688,64599
36697,64603
36706,64607
36714,64612
36722,64618
36729,64624
36736,64631
36742,64639
36747,64647
36751,64656
36754,64665
36756,64674
36758,64684
36758,64694
36758,65205
36758,65215
36756,65225
36754,65234
36751,65243
36747,65252
36742,65260
36736,65268
36729,65275
36722,65281
36714,65287
36706,65292
36697,65296
36688,65300
36679,65302
36669,65303
36660,65304
35439,65304
35430,65303
35420,65302
35411,65300
35402,65296
35393,65292
35385,65287
35377,65281
35370,65275
35363,65268
35357,65260
35352,65252
35348,65243
35345,65234
35343,65225
35341,65215
35341,65205
35341,64694
35341,64684
35343,64674
35345,64665
35348,64656
35352,64647
35357,64639
35363,64631
35370,64624
35377,64618
35385,64612
35393,64607
35402,64603
35411,64599
35420,64597
35430,64596
35439,64595
36660,64595
36669,64596
" /> 
</g>
<g style="fill:#000000; fill-opacity:1.0; 
stroke:#000000; stroke-width:708.661; stroke-opacity:1; 
stroke-linecap:round; stroke-linejoin:round;">
</g>
<g style="fill:#000000; fill-opacity:0.0; 
stroke:#000000; stroke-width:708.661; stroke-opacity:1; 
stroke-linecap:round; stroke-linejoin:round;">
<path d="M36404 15227
L35695 15227
" />
</g>
<g style="fill:#000000; fill-opacity:0.0; 
stroke:#000000; stroke-width:0; stroke-opacity:1; 
stroke-linecap:round; stroke-linejoin:round;">
</g>
<g style="fill:#000000; fill-opacity:1.0; 
stroke:#000000; stroke-width:0; stroke-opacity:1; 
stroke-linecap:round; stroke-linejoin:round;">
<polyline style="fill-rule:evenodd;"
points="36669,13496
36679,13497
36688,13499
36697,13503
36706,13507
36714,13512
36722,13518
36729,13524
36736,13531
36742,13539
36747,13547
36751,13556
36754,13565
36756,13574
36758,13584
36758,13594
36758,14105
36758,14115
36756,14125
36754,14134
36751,14143
36747,14152
36742,14160
36736,14168
36729,14175
36722,14181
36714,14187
36706,14192
36697,14196
36688,14200
36679,14202
36669,14203
36660,14204
35439,14204
35430,14203
35420,14202
35411,14200
35402,14196
35393,14192
35385,14187
35377,14181
35370,14175
35363,14168
35357,14160
35352,14152
35348,14143
35345,14134
35343,14125
35341,14115
35341,14105
35341,13594
35341,13584
35343,13574
35345,13565
35348,13556
35352,13547
35357,13539
35363,13531
35370,13524
35377,13518
35385,13512
35393,13507
35402,13503
35411,13499
35420,13497
35430,13496
35439,13495
36660,13495
36669,13496
" /> 
</g>
<g style="fill:#000000; fill-opacity:1.0; 
stroke:#000000; stroke-width:708.661; stroke-opacity:1; 
stroke-linecap:round; stroke-linejoin:round;">
</g>
<g style="fill:#000000; fill-opacity:0.0; 
stroke:#000000; stroke-width:708.661; stroke-opacity:1; 
stroke-linecap:round; stroke-linejoin:round;">
<path d="M42254 40495
L41545 40495
" />
<path d="M42254 39117
L41545 39117
" />
<path d="M42254 37739
L41545 37739
" />
<path d="M42254 36361
L41545 36361
" />
<path d="M42254 34983
L41545 34983
" />
<path d="M42254 33605
L41545 33605
" />
<path d="M42254 32227
L41545 32227
" />
</g>
<g style="fill:#000000; fill-opacity:0.0; 
stroke:#000000; stroke-width:0; stroke-opacity:1; 
stroke-linecap:round; stroke-linejoin:round;">
</g>
<g style="fill:#000000; fill-opacity:1.0; 
stroke:#000000; stroke-width:0; stroke-opacity:1; 
stroke-linecap:round; stroke-linejoin:round;">
<polyline style="fill-rule:evenodd;"
points="42519,30496
42529,30497
42538,30499
42547,30503
42556,30507
42564,30512
42572,30518
42579,30524
42586,30531
42592,30539
42597,30547
42601,30556
42604,30565
42606,30574
42608,30584
42608,30594
42608,31105
42608,31115
42606,31125
42604,31134
42601,31143
42597,31152
42592,31160
42586,31168
42579,31175
42572,31181
42564,31187
42556,31192
42547,31196
42538,31200
42529,31202
42519,31203
42510,31204
41289,31204
41280,31203
41270,31202
41261,31200
41252,31196
41243,31192
41235,31187
41227,31181
41220,31175
41213,31168
41207,31160
41202,31152
41198,31143
41195,31134
41193,31125
41191,31115
41191,31105
41191,30594
41191,30584
41193,30574
41195,30565
41198,30556
41202,30547
41207,30539
41213,30531
41220,30524
41227,30518
41235,30512
41243,30507
41252,30503
41261,30499
41270,30497
41280,30496
41289,30495
42510,30495
42519,30496
" /> 
</g>
<g style="fill:#000000; fill-opacity:1.0; 
stroke:#000000; stroke-width:708.661; stroke-opacity:1; 
stroke-linecap:round; stroke-linejoin:round;">
</g>
<g style="fill:#000000; fill-opacity:0.0; 
stroke:#000000; stroke-width:708.661; stroke-opacity:1; 
stroke-linecap:round; stroke-linejoin:round;">
<path d="M36404 40515
L35695 40515
" />
<path d="M36404 39137
L35695 39137
" />
<path d="M36404 37759
L35695 37759
" />
<path d="M36404 36381
L35695 36381
" />
<path d="M36404 35004
L35695 35004
" />
<path d="M36404 33626
L35695 33626
" />
<path d="M36404 32248
L35695 32248
" />
</g>
<g style="fill:#000000; fill-opacity:0.0; 
stroke:#000000; stroke-width:0; stroke-opacity:1; 
stroke-linecap:round; stroke-linejoin:round;">
</g>
<g style="fill:#000000; fill-opacity:1.0; 
stroke:#000000; stroke-width:0; stroke-opacity:1; 
stroke-linecap:round; stroke-linejoin:round;">
<polyline style="fill-rule:evenodd;"
points="36669,30516
36679,30517
36688,30520
36697,30523
36706,30527
36714,30532
36722,30538
36729,30544
36736,30551
36742,30559
36747,30567
36751,30576
36754,30585
36756,30595
36758,30604
36758,30614
36758,31126
36758,31135
36756,31145
36754,31154
36751,31163
36747,31172
36742,31180
36736,31188
36729,31195
36722,31202
36714,31207
36706,31212
36697,31217
36688,31220
36679,31222
36669,31224
36660,31224
35439,31224
35430,31224
35420,31222
35411,31220
35402,31217
35393,31212
35385,31207
35377,31202
35370,31195
35363,31188
35357,31180
35352,31172
35348,31163
35345,31154
35343,31145
35341,31135
35341,31126
35341,30614
35341,30604
35343,30595
35345,30585
35348,30576
35352,30567
35357,30559
35363,30551
35370,30544
35377,30538
35385,30532
35393,30527
35402,30523
35411,30520
35420,30517
35430,30516
35439,30515
36660,30515
36669,30516
" /> 
</g>
<g style="fill:#000000; fill-opacity:1.0; 
stroke:#000000; stroke-width:708.661; stroke-opacity:1; 
stroke-linecap:round; stroke-linejoin:round;">
</g>
<g style="fill:#000000; fill-opacity:0.0; 
stroke:#000000; stroke-width:708.661; stroke-opacity:1; 
stroke-linecap:round; stroke-linejoin:round;">
<path d="M36404 27445
L35695 27445
" />
<path d="M36404 26067
L35695 26067
" />
<path d="M36404 24689
L35695 24689
" />
<path d="M36404 23311
L35695 23311
" />
<path d="M36404 21933
L35695 21933
" />
<path d="M36404 20555
L35695 20555
" />
<path d="M36404 19177
L35695 19177
" />
</g>
<g style="fill:#000000; fill-opacity:0.0; 
stroke:#000000; stroke-width:0; stroke-opacity:1; 
stroke-linecap:round; stroke-linejoin:round;">
</g>
<g style="fill:#000000; fill-opacity:1.0; 
stroke:#000000; stroke-width:0; stroke-opacity:1; 
stroke-linecap:round; stroke-linejoin:round;">
<polyline style="fill-rule:evenodd;"
points="36669,17446
36679,17447
36688,17449
36697,17453
36706,17457
36714,17462
36722,17468
36729,17474
36736,17481
36742,17489
36747,17497
36751,17506
36754,17515
36756,17524
36758,17534
36758,17544
36758,18055
36758,18065
36756,18075
36754,18084
36751,18093
36747,18102
36742,18110
36736,18118
36729,18125
36722,18131
36714,18137
36706,18142
36697,18146
36688,18150
36679,18152
36669,18153
36660,18154
35439,18154
35430,18153
35420,18152
35411,18150
35402,18146
35393,18142
35385,18137
35377,18131
35370,18125
35363,18118
35357,18110
35352,18102
35348,18093
35345,18084
35343,18075
35341,18065
35341,18055
35341,17544
35341,17534
35343,17524
35345,17515
35348,17506
35352,17497
35357,17489
35363,17481
35370,17474
35377,17468
35385,17462
35393,17457
35402,17453
35411,17449
35420,17447
35430,17446
35439,17445
36660,17445
36669,17446
" /> 
<circle cx="47000" cy="57200" r="1771.65" /> 
</g>
<g style="fill:#000000; fill-opacity:1.0; 
stroke:#000000; stroke-width:39.3701; stroke-opacity:1; 
stroke-linecap:round; stroke-linejoin:round;">
</g>
<g style="fill:#000000; fill-opacity:1.0; 
stroke:#000000; stroke-width:0; stroke-opacity:1; 
stroke-linecap:round; stroke-linejoin:round;">
<circle cx="60800" cy="57200" r="1771.65" /> 
</g>
<g style="fill:#000000; fill-opacity:1.0; 
stroke:#000000; stroke-width:39.3701; stroke-opacity:1; 
stroke-linecap:round; stroke-linejoin:round;">
</g>
<g style="fill:#000000; fill-opacity:1.0; 
stroke:#000000; stroke-width:0; stroke-opacity:1; 
stroke-linecap:round; stroke-linejoin:round;">
<circle cx="47050" cy="15800" r="1771.65" /> 
</g>
<g style="fill:#000000; fill-opacity:1.0; 
stroke:#000000; stroke-width:39.3701; stroke-opacity:1; 
stroke-linecap:round; stroke-linejoin:round;">
</g>
<g style="fill:#000000; fill-opacity:1.0; 
stroke:#000000; stroke-width:0; stroke-opacity:1; 
stroke-linecap:round; stroke-linejoin:round;">
<circle cx="60850" cy="15800" r="1771.65" /> 
</g>
<g style="fill:#000000; fill-opacity:1.0; 
stroke:#000000; stroke-width:39.3701; stroke-opacity:1; 
stroke-linecap:round; stroke-linejoin:round;">
</g>
<g style="fill:#000000; fill-opacity:1.0; 
stroke:#000000; stroke-width:708.661; stroke-opacity:1; 
stroke-linecap:round; stroke-linejoin:round;">
</g>
<g style="fill:#000000; fill-opacity:0.0; 
stroke:#000000; stroke-width:708.661; stroke-opacity:1; 
stroke-linecap:round; stroke-linejoin:round;">
<path d="M36404 54400
L35695 54400
" />
<path d="M36404 52900
L35695 52900
" />
<path d="M36404 51400
L35695 51400
" />
<path d="M36404 49900
L35695 49900
" />
<path d="M36404 48400
L35695 48400
" />
<path d="M36404 46900
L35695 46900
" />
<path d="M36404 45400
L35695 45400
" />
</g>
<g style="fill:#000000; fill-opacity:0.0; 
stroke:#000000; stroke-width:0; stroke-opacity:1; 
stroke-linecap:round; stroke-linejoin:round;">
</g>
<g style="fill:#000000; fill-opacity:1.0; 
stroke:#000000; stroke-width:0; stroke-opacity:1; 
stroke-linecap:round; stroke-linejoin:round;">
<polyline style="fill-rule:evenodd;"
points="36669,43546
36679,43547
36688,43549
36697,43553
36706,43557
36714,43562
36722,43568
36729,43574
36736,43581
36742,43589
36747,43597
36751,43606
36754,43615
36756,43624
36758,43634
36758,43644
36758,44155
36758,44165
36756,44175
36754,44184
36751,44193
36747,44202
36742,44210
36736,44218
36729,44225
36722,44231
36714,44237
36706,44242
36697,44246
36688,44250
36679,44252
36669,44253
36660,44254
35439,44254
35430,44253
35420,44252
35411,44250
35402,44246
35393,44242
35385,44237
35377,44231
35370,44225
35363,44218
35357,44210
35352,44202
35348,44193
35345,44184
35343,44175
35341,44165
35341,44155
35341,43644
35341,43634
35343,43624
35345,43615
35348,43606
35352,43597
35357,43589
35363,43581
35370,43574
35377,43568
35385,43562
35393,43557
35402,43553
35411,43549
35420,43547
35430,43546
35439,43545
36660,43545
36669,43546
" /> 
</g>
<g style="fill:#000000; fill-opacity:1.0; 
stroke:#000000; stroke-width:680; stroke-opacity:1; 
stroke-linecap:round; stroke-linejoin:round;">
</g>
<g style="fill:#000000; fill-opacity:0.0; 
stroke:#000000; stroke-width:680; stroke-opacity:1; 
stroke-linecap:round; stroke-linejoin:round;">
<path d="M54960 28050
L54840 28050
" />
<path d="M54960 29050
L54840 29050
" />
<path d="M54960 30050
L54840 30050
" />
<path d="M54960 31050
L54840 31050
" />
<path d="M54960 32050
L54840 32050
" />
<path d="M54960 33050
L54840 33050
" />
<path d="M54960 34050
L54840 34050
" />
<path d="M54960 35050
L54840 35050
" />
<path d="M54960 36050
L54840 36050
" />
<path d="M54960 37050
L54840 37050
" />
<path d="M54960 38050
L54840 38050
" />
<path d="M54960 39050
L54840 39050
" />
<path d="M54960 40050
L54840 40050
" />
<path d="M54960 41050
L54840 41050
" />
<path d="M54960 42050
L54840 42050
" />
<path d="M60960 28050
L60840 28050
" />
<path d="M60960 29050
L60840 29050
" />
<path d="M60960 30050
L60840 30050
" />
<path d="M60960 31050
L60840 31050
" />
<path d="M60960 32050
L60840 32050
" />
<path d="M60960 33050
L60840 33050
" />
<path d="M60960 34050
L60840 34050
" />
<path d="M60960 35050
L60840 35050
" />
<path d="M60960 36050
L60840 36050
" />
<path d="M60960 37050
L60840 37050
" />
<path d="M60960 38050
L60840 38050
" />
<path d="M60960 39050
L60840 39050
" />
<path d="M60960 40050
L60840 40050
" />
<path d="M60960 41050
L60840 41050
" />
<path d="M60960 42050
L60840 42050
" />
</g>
<g style="fill:#000000; fill-opacity:1.0; 
stroke:#000000; stroke-width:0; stroke-opacity:1; 
stroke-linecap:round; stroke-linejoin:round;">
<circle cx="54900" cy="27050" r="500" /> 
</g>
<g style="fill:#000000; fill-opacity:1.0; 
stroke:#000000; stroke-width:39.3701; stroke-opacity:1; 
stroke-linecap:round; stroke-linejoin:round;">
</g>
<g style="fill:#000000; fill-opacity:1.0; 
stroke:#000000; stroke-width:0; stroke-opacity:1; 
stroke-linecap:round; stroke-linejoin:round;">
<circle cx="54900" cy="43050" r="500" /> 
</g>
<g style="fill:#000000; fill-opacity:1.0; 
stroke:#000000; stroke-width:39.3701; stroke-opacity:1; 
stroke-linecap:round; stroke-linejoin:round;">
</g>
<g style="fill:#000000; fill-opacity:1.0; 
stroke:#000000; stroke-width:0; stroke-opacity:1; 
stroke-linecap:round; stroke-linejoin:round;">
<circle cx="60900" cy="43050" r="500" /> 
</g>
<g style="fill:#000000; fill-opacity:1.0; 
stroke:#000000; stroke-width:39.3701; stroke-opacity:1; 
stroke-linecap:round; stroke-linejoin:round;">
</g>
<g style="fill:#000000; fill-opacity:1.0; 
stroke:#000000; stroke-width:0; stroke-opacity:1; 
stroke-linecap:round; stroke-linejoin:round;">
<circle cx="60900" cy="27050" r="500" /> 
</g>
<g style="fill:#000000; fill-opacity:1.0; 
stroke:#000000; stroke-width:39.3701; stroke-opacity:1; 
stroke-linecap:round; stroke-linejoin:round;">
</g>
<g style="fill:#000000; fill-opacity:1.0; 
stroke:#000000; stroke-width:0; stroke-opacity:1; 
stroke-linecap:round; stroke-linejoin:round;">
<circle cx="38850" cy="26050" r="393.701" /> 
</g>
<g style="fill:#000000; fill-opacity:1.0; 
stroke:#000000; stroke-width:39.3701; stroke-opacity:1; 
stroke-linecap:round; stroke-linejoin:round;">
</g>
<g style="fill:#000000; fill-opacity:1.0; 
stroke:#000000; stroke-width:0; stroke-opacity:1; 
stroke-linecap:round; stroke-linejoin:round;">
<circle cx="38700" cy="39150" r="393.701" /> 
</g>
<g style="fill:#000000; fill-opacity:1.0; 
stroke:#000000; stroke-width:39.3701; stroke-opacity:1; 
stroke-linecap:round; stroke-linejoin:round;">
</g>
<g style="fill:#000000; fill-opacity:1.0; 
stroke:#000000; stroke-width:0; stroke-opacity:1; 
stroke-linecap:round; stroke-linejoin:round;">
<circle cx="38700" cy="52800" r="393.701" /> 
</g>
<g style="fill:#000000; fill-opacity:1.0; 
stroke:#000000; stroke-width:39.3701; stroke-opacity:1; 
stroke-linecap:round; stroke-linejoin:round;">
</g>
<g style="fill:#000000; fill-opacity:1.0; 
stroke:#000000; stroke-width:0; stroke-opacity:1; 
stroke-linecap:round; stroke-linejoin:round;">
<circle cx="38500" cy="16050" r="393.701" /> 
</g>
<g style="fill:#000000; fill-opacity:1.0; 
stroke:#000000; stroke-width:39.3701; stroke-opacity:1; 
stroke-linecap:round; stroke-linejoin:round;">
</g>
<g style="fill:#000000; fill-opacity:1.0; 
stroke:#000000; stroke-width:0; stroke-opacity:1; 
stroke-linecap:round; stroke-linejoin:round;">
<circle cx="39900" cy="37800" r="393.701" /> 
</g>
<g style="fill:#000000; fill-opacity:1.0; 
stroke:#000000; stroke-width:39.3701; stroke-opacity:1; 
stroke-linecap:round; stroke-linejoin:round;">
</g>
<g style="fill:#000000; fill-opacity:1.0; 
stroke:#000000; stroke-width:0; stroke-opacity:1; 
stroke-linecap:round; stroke-linejoin:round;">
<circle cx="38550" cy="13850" r="393.701" /> 
</g>
<g style="fill:#000000; fill-opacity:1.0; 
stroke:#000000; stroke-width:39.3701; stroke-opacity:1; 
stroke-linecap:round; stroke-linejoin:round;">
</g>
<g style="fill:#000000; fill-opacity:1.0; 
stroke:#000000; stroke-width:0; stroke-opacity:1; 
stroke-linecap:round; stroke-linejoin:round;">
<circle cx="39950" cy="24700" r="393.701" /> 
</g>
<g style="fill:#000000; fill-opacity:1.0; 
stroke:#000000; stroke-width:39.3701; stroke-opacity:1; 
stroke-linecap:round; stroke-linejoin:round;">
</g>
<g style="fill:#000000; fill-opacity:1.0; 
stroke:#000000; stroke-width:0; stroke-opacity:1; 
stroke-linecap:round; stroke-linejoin:round;">
<circle cx="39900" cy="51300" r="393.701" /> 
</g>
<g style="fill:#000000; fill-opacity:1.0; 
stroke:#000000; stroke-width:39.3701; stroke-opacity:1; 
stroke-linecap:round; stroke-linejoin:round;">
</g>
<g style="fill:#000000; fill-opacity:1.0; 
stroke:#000000; stroke-width:0; stroke-opacity:1; 
stroke-linecap:round; stroke-linejoin:round;">
<circle cx="44400" cy="40150" r="393.701" /> 
</g>
<g style="fill:#000000; fill-opacity:1.0; 
stroke:#000000; stroke-width:39.3701; stroke-opacity:1; 
stroke-linecap:round; stroke-linejoin:round;">
</g>
<g style="fill:#000000; fill-opacity:1.0; 
stroke:#000000; stroke-width:0; stroke-opacity:1; 
stroke-linecap:round; stroke-linejoin:round;">
<circle cx="34150" cy="27450" r="393.701" /> 
</g>
<g style="fill:#000000; fill-opacity:1.0; 
stroke:#000000; stroke-width:39.3701; stroke-opacity:1; 
stroke-linecap:round; stroke-linejoin:round;">
</g>
<g style="fill:#000000; fill-opacity:1.0; 
stroke:#000000; stroke-width:137.795; stroke-opacity:1; 
stroke-linecap:round; stroke-linejoin:round;">
</g>
<g style="fill:#000000; fill-opacity:0.0; 
stroke:#000000; stroke-width:137.795; stroke-opacity:1; 
stroke-linecap:round; stroke-linejoin:round;">
<path d="M60900 29050
L60840 29050
" />
</g>
<g style="fill:#000000; fill-opacity:0.0; 
stroke:#000000; stroke-width:787.402; stroke-opacity:1; 
stroke-linecap:round; stroke-linejoin:round;">
<path d="M38750 39850
L38700 39900
" />
<path d="M38750 26750
L38750 39850
" />
<path d="M38700 39900
L38700 52750
" />
<path d="M38850 26650
L38750 26750
" />
<path d="M38850 15800
L38850 26650
" />
<path d="M38600 16050
L38850 15800
" />
<path d="M38500 16050
L38600 16050
" />
<path d="M36300 15350
L36050 15350
" />
<path d="M36450 15500
L36300 15350
" />
<path d="M38850 15800
L38550 15500
" />
<path d="M38550 15500
L36450 15500
" />
<path d="M36050 13850
L38550 13850
" />
<path d="M39900 38350
L39900 51300
" />
<path d="M39950 38300
L39900 38350
" />
<path d="M39950 14200
L39950 38300
" />
<path d="M38550 13850
L39600 13850
" />
<path d="M39600 13850
L39950 14200
" />
</g>
<g style="fill:#000000; fill-opacity:0.0; 
stroke:#000000; stroke-width:137.795; stroke-opacity:1; 
stroke-linecap:round; stroke-linejoin:round;">
<path d="M37050 55600
L34950 55600
" />
<path d="M44400 40150
L44400 48250
" />
<path d="M44400 48250
L37050 55600
" />
<path d="M34950 55600
L34700 55350
" />
<path d="M34700 55350
L34549 55199
" />
<path d="M33946 27453
L33950 27450
" />
<path d="M34700 55350
L33946 54596
" />
<path d="M33946 54596
L33946 27453
" />
</g>
<g style="fill:#000000; fill-opacity:1.0; 
stroke:#000000; stroke-width:137.795; stroke-opacity:1; 
stroke-linecap:round; stroke-linejoin:round;">
<polyline style="fill-rule:evenodd;"
points="41741,13442
41910,13510
42056,13618
42174,13764
44072,16843
44153,17027
44181,17226
44253,39392
44249,39392
43970,39507
43757,39720
43642,39999
43642,40300
43757,40579
43966,40788
43966,48070
39856,52180
39708,52156
39576,52089
39472,51984
39457,51954
39457,43614
39490,40009
39507,39924
39507,39924
39522,39850
39507,39775
39507,39117
40813,39117
40868,39398
41027,39635
41265,39794
41326,39806
41265,39818
41027,39977
40868,40215
40813,40495
40868,40776
41027,41013
41265,41172
41474,41214
42325,41214
42534,41172
42772,41013
42931,40776
42986,40495
42931,40215
42772,39977
42534,39818
42473,39806
42534,39794
42772,39635
42931,39398
42986,39117
42931,38837
42772,38599
42534,38440
42325,38399
41474,38399
41265,38440
41027,38599
40868,38837
40813,39117
39507,39117
39507,38171
39510,37862
40958,37862
40979,37942
41100,38143
41288,38283
41516,38340
41870,38340
41870,37769
41929,37769
41929,38340
42283,38340
42511,38283
42699,38143
42820,37942
42841,37862
42792,37769
41929,37769
41870,37769
41007,37769
40958,37862
39510,37862
39512,37616
40958,37616
41007,37710
41870,37710
41870,37139
41929,37139
41929,37710
42792,37710
42841,37616
42820,37537
42699,37336
42511,37196
42283,37139
41929,37139
41870,37139
41516,37139
41288,37196
41100,37336
40979,37537
40958,37616
39512,37616
39562,32227
40813,32227
40868,32508
41027,32745
41265,32904
41326,32916
41265,32929
41027,33087
40868,33325
40813,33605
40868,33886
41027,34123
41265,34282
41326,34294
41265,34307
41027,34465
40868,34703
40813,34983
40868,35264
41027,35501
41265,35660
41326,35672
41265,35684
41027,35843
40868,36081
40813,36361
40868,36642
41027,36879
41265,37038
41474,37080
42325,37080
42534,37038
42772,36879
42931,36642
42986,36361
42931,36081
42772,35843
42534,35684
42473,35672
42534,35660
42772,35501
42931,35264
42986,34983
42931,34703
42772,34465
42534,34307
42473,34294
42534,34282
42772,34123
42931,33886
42986,33605
42931,33325
42772,33087
42534,32929
42473,32916
42534,32904
42772,32745
42931,32508
42986,32227
42931,31947
42772,31709
42557,31566
42689,31539
42842,31438
42944,31285
42979,31105
42979,30594
42944,30414
42842,30261
42689,30160
42510,30124
41289,30124
41110,30160
40957,30261
40855,30414
40820,30594
40820,31105
40855,31285
40957,31438
41110,31539
41242,31566
41027,31709
40868,31947
40813,32227
39562,32227
39613,26697
39622,26650
39614,26606
39713,15808
39712,15799
39687,15594
39683,15577
39605,15385
39596,15370
39471,15205
39459,15192
39295,15066
39280,15057
39120,14990
39096,14953
38845,14786
38624,14742
38624,14742
38550,14727
38475,14742
38224,14742
37230,14472
37047,14387
36977,14319
37004,14253
37004,13941
36943,13879
36794,13879
36794,13877
36806,13820
36943,13820
37004,13758
37004,13504
37131,13441
37280,13418
41556,13418
41741,13442
" /> 
<polyline style="fill-rule:evenodd;"
points="69816,67366
32483,67366
32483,66327
34963,66327
35018,66608
35177,66845
35415,67004
35624,67046
36475,67046
36684,67004
36922,66845
37081,66608
37136,66327
37081,66047
36922,65809
36707,65666
36839,65639
36992,65538
37094,65385
37129,65205
37129,64694
37094,64514
36992,64361
36839,64260
36660,64224
35439,64224
35260,64260
35107,64361
35005,64514
34970,64694
34970,65205
35005,65385
35107,65538
35260,65639
35392,65666
35177,65809
35018,66047
34963,66327
32483,66327
32483,62377
34963,62377
35018,62658
35177,62895
35415,63054
35624,63096
36475,63096
36684,63054
36922,62895
37081,62658
37136,62377
37081,62097
36922,61859
36707,61716
36839,61689
36992,61588
37094,61435
37129,61255
37129,60744
37094,60564
36992,60411
36839,60310
36660,60274
35439,60274
35260,60310
35107,60411
35005,60564
34970,60744
34970,61255
35005,61435
35107,61588
35260,61689
35392,61716
35177,61859
35018,62097
34963,62377
32483,62377
32483,58377
34963,58377
35018,58658
35177,58895
35415,59054
35624,59096
36475,59096
36684,59054
36922,58895
37081,58658
37136,58377
37081,58097
36922,57859
36707,57716
36839,57689
36992,57588
37094,57435
37129,57255
37129,56775
44864,56775
44864,57624
45189,58409
45790,59010
46575,59335
47424,59335
48209,59010
48810,58409
49135,57624
49135,56775
58664,56775
58664,57624
58989,58409
59590,59010
60375,59335
61224,59335
62009,59010
62610,58409
62935,57624
62935,56775
62610,55990
62009,55389
61224,55064
60375,55064
59590,55389
58989,55990
58664,56775
49135,56775
48810,55990
48209,55389
47424,55064
46575,55064
45790,55389
45189,55990
44864,56775
37129,56775
37129,56744
37094,56564
36992,56411
36839,56310
36660,56274
35439,56274
35260,56310
35107,56411
35005,56564
34970,56744
34970,57255
35005,57435
35107,57588
35260,57689
35392,57716
35177,57859
35018,58097
34963,58377
32483,58377
32483,27299
33392,27299
33392,27600
33507,27879
33512,27884
33512,54553
33504,54596
33512,54638
33538,54765
33633,54908
33670,54932
34423,55686
34423,55686
34613,55876
34637,55912
34781,56007
34907,56033
34950,56041
34992,56033
37007,56033
37050,56041
37092,56033
37218,56007
37362,55912
37386,55876
44676,48586
44712,48562
44807,48418
44833,48292
44841,48250
44833,48207
44833,40788
45042,40579
45157,40300
45157,39999
45042,39720
44829,39507
44686,39448
44645,26878
54035,26878
54035,27221
54167,27539
54267,27639
54176,27775
54122,28050
54176,28324
54327,28550
54176,28775
54122,29050
54176,29324
54327,29550
54176,29775
54122,30050
54176,30324
54327,30550
54176,30775
54122,31050
54176,31324
54327,31550
54176,31775
54122,32050
54176,32324
54327,32550
54176,32775
54122,33050
54176,33324
54327,33550
54176,33775
54122,34050
54176,34324
54327,34550
54176,34775
54122,35050
54176,35324
54327,35550
54176,35775
54122,36050
54176,36324
54327,36550
54176,36775
54122,37050
54176,37324
54327,37550
54176,37775
54122,38050
54176,38324
54327,38550
54176,38775
54122,39050
54176,39324
54327,39550
54176,39775
54122,40050
54176,40324
54327,40550
54176,40775
54122,41050
54176,41324
54327,41550
54176,41775
54122,42050
54176,42324
54267,42460
54167,42560
54035,42878
54035,43221
54167,43539
54410,43782
54728,43914
55071,43914
55389,43782
55632,43539
55764,43221
55764,42878
55632,42560
55532,42460
55623,42324
55677,42050
55623,41775
55472,41550
55623,41324
55677,41050
55623,40775
55472,40550
55623,40324
55677,40050
55623,39775
55472,39550
55623,39324
55677,39050
55623,38775
55472,38550
55623,38324
55677,38050
55623,37775
55472,37550
55623,37324
55677,37050
55623,36775
55472,36550
55623,36324
55677,36050
55623,35775
55472,35550
55623,35324
55677,35050
55623,34775
55472,34550
55623,34324
55677,34050
55623,33775
55472,33550
55623,33324
55677,33050
55623,32775
55472,32550
55623,32324
55677,32050
55623,31775
55472,31550
55623,31324
55677,31050
55623,30775
55472,30550
55623,30324
55677,30050
55623,29775
55472,29550
55623,29324
55677,29050
55623,28775
55472,28550
55623,28324
55677,28050
55623,27775
55532,27639
55632,27539
55764,27221
55764,26878
60035,26878
60035,27221
60167,27539
60267,27639
60176,27775
60122,28050
60176,28324
60327,28550
60176,28775
60122,29050
60176,29324
60327,29550
60176,29775
60122,30050
60176,30324
60327,30550
60176,30775
60122,31050
60176,31324
60327,31550
60176,31775
60122,32050
60176,32324
60327,32550
60176,32775
60122,33050
60176,33324
60327,33550
60176,33775
60122,34050
60176,34324
60327,34550
60176,34775
60122,35050
60176,35324
60327,35550
60176,35775
60122,36050
60176,36324
60327,36550
60176,36775
60122,37050
60176,37324
60327,37550
60176,37775
60122,38050
60176,38324
60327,38550
60176,38775
60122,39050
60176,39324
60327,39550
60176,39775
60122,40050
60176,40324
60327,40550
60176,40775
60122,41050
60176,41324
60327,41550
60176,41775
60122,42050
60176,42324
60267,42460
60167,42560
60035,42878
60035,43221
60167,43539
60410,43782
60728,43914
61071,43914
61389,43782
61632,43539
61764,43221
61764,42878
61632,42560
61532,42460
61623,42324
61677,42050
61623,41775
61472,41550
61623,41324
61677,41050
61623,40775
61472,40550
61623,40324
61677,40050
61623,39775
61472,39550
61623,39324
61677,39050
61623,38775
61472,38550
61623,38324
61677,38050
61623,37775
61472,37550
61623,37324
61677,37050
61623,36775
61472,36550
61623,36324
61677,36050
61623,35775
61472,35550
61623,35324
61677,35050
61623,34775
61472,34550
61623,34324
61677,34050
61623,33775
61472,33550
61623,33324
61677,33050
61623,32775
61472,32550
61623,32324
61677,32050
61623,31775
61472,31550
61623,31324
61677,31050
61623,30775
61472,30550
61623,30324
61677,30050
61623,29775
61472,29550
61623,29324
61677,29050
61623,28775
61472,28550
61623,28324
61677,28050
61623,27775
61532,27639
61632,27539
61764,27221
61764,26878
61632,26560
61389,26317
61071,26185
60728,26185
60410,26317
60167,26560
60035,26878
55764,26878
55632,26560
55389,26317
55071,26185
54728,26185
54410,26317
54167,26560
54035,26878
44645,26878
44614,17220
44611,17170
44581,16957
44553,16861
44466,16664
44443,16620
43676,15375
44914,15375
44914,16224
45239,17009
45840,17610
46625,17935
47474,17935
48259,17610
48860,17009
49185,16224
49185,15375
58714,15375
58714,16224
59039,17009
59640,17610
60425,17935
61274,17935
62059,17610
62660,17009
62985,16224
62985,15375
62660,14590
62059,13989
61274,13664
60425,13664
59640,13989
59039,14590
58714,15375
49185,15375
48860,14590
48259,13989
47474,13664
46625,13664
45840,13989
45239,14590
44914,15375
43676,15375
42540,13533
42513,13495
42388,13339
42321,13275
42160,13157
42079,13111
41894,13037
41804,13014
41606,12988
41560,12985
37275,12985
37220,12990
37054,13015
36949,13048
36860,13092
35975,13092
35813,13124
35439,13124
35260,13160
35107,13261
35005,13414
34970,13594
34970,14105
35005,14285
35107,14438
35260,14539
35439,14575
35813,14575
35975,14607
36652,14607
36753,14705
36854,14775
37054,14867
37111,14889
38944,15386
39068,15437
39155,15505
39192,15553
39192,25398
38950,51701
38954,51758
38979,51927
39014,52036
39090,52188
39157,52281
39277,52402
39369,52469
39500,52536
36870,55166
35129,55166
35036,55073
35036,55073
34379,54416
34379,54400
34963,54400
35018,54680
35177,54918
35415,55076
35624,55118
36475,55118
36684,55076
36922,54918
37081,54680
37136,54400
37081,54119
36922,53881
36684,53723
36475,53681
35624,53681
35415,53723
35177,53881
35018,54119
34963,54400
34379,54400
34379,53022
35108,53022
35129,53102
35250,53303
35438,53443
35666,53500
36020,53500
36020,52929
36079,52929
36079,53500
36433,53500
36661,53443
36849,53303
36970,53102
36991,53022
36942,52929
36079,52929
36020,52929
35157,52929
35108,53022
34379,53022
34379,52777
35108,52777
35157,52870
36020,52870
36020,52299
36079,52299
36079,52870
36942,52870
36991,52777
36970,52697
36849,52496
36661,52356
36433,52299
36079,52299
36020,52299
35666,52299
35438,52356
35250,52496
35129,52697
35108,52777
34379,52777
34379,51400
34963,51400
35018,51680
35177,51918
35415,52076
35624,52118
36475,52118
36684,52076
36922,51918
37081,51680
37136,51400
37081,51119
36922,50881
36684,50723
36475,50681
35624,50681
35415,50723
35177,50881
35018,51119
34963,51400
34379,51400
34379,49900
34963,49900
35018,50180
35177,50418
35415,50576
35624,50618
36475,50618
36684,50576
36922,50418
37081,50180
37136,49900
37081,49619
36922,49381
36684,49223
36475,49181
35624,49181
35415,49223
35177,49381
35018,49619
34963,49900
34379,49900
34379,48400
34963,48400
35018,48680
35177,48918
35415,49076
35624,49118
36475,49118
36684,49076
36922,48918
37081,48680
37136,48400
37081,48119
36922,47881
36684,47723
36475,47681
35624,47681
35415,47723
35177,47881
35018,48119
34963,48400
34379,48400
34379,46900
34963,46900
35018,47180
35177,47418
35415,47576
35624,47618
36475,47618
36684,47576
36922,47418
37081,47180
37136,46900
37081,46619
36922,46381
36684,46223
36475,46181
35624,46181
35415,46223
35177,46381
35018,46619
34963,46900
34379,46900
34379,45400
34963,45400
35018,45680
35177,45918
35415,46076
35624,46118
36475,46118
36684,46076
36922,45918
37081,45680
37136,45400
37081,45119
36922,44881
36684,44723
36475,44681
35624,44681
35415,44723
35177,44881
35018,45119
34963,45400
34379,45400
34379,43644
34970,43644
34970,44155
35005,44335
35107,44488
35260,44589
35439,44625
36660,44625
36839,44589
36992,44488
37094,44335
37129,44155
37129,43644
37094,43464
36992,43311
36839,43210
36660,43174
35439,43174
35260,43210
35107,43311
35005,43464
34970,43644
34379,43644
34379,40515
34963,40515
35018,40796
35177,41033
35415,41192
35624,41234
36475,41234
36684,41192
36922,41033
37081,40796
37136,40515
37081,40235
36922,39997
36684,39839
36475,39797
35624,39797
35415,39839
35177,39997
35018,40235
34963,40515
34379,40515
34379,39260
35108,39260
35129,39340
35250,39541
35438,39681
35666,39738
36020,39738
36020,39167
36079,39167
36079,39738
36433,39738
36661,39681
36849,39541
36970,39340
36991,39260
36942,39167
36079,39167
36020,39167
35157,39167
35108,39260
34379,39260
34379,39014
35108,39014
35157,39108
36020,39108
36020,38537
36079,38537
36079,39108
36942,39108
36991,39014
36970,38935
36849,38734
36661,38594
36433,38537
36079,38537
36020,38537
35666,38537
35438,38594
35250,38734
35129,38935
35108,39014
34379,39014
34379,32248
34963,32248
35018,32528
35177,32766
35415,32924
35476,32937
35415,32949
35177,33108
35018,33345
34963,33626
35018,33906
35177,34144
35415,34302
35476,34315
35415,34327
35177,34486
35018,34723
34963,35004
35018,35284
35177,35522
35415,35680
35476,35693
35415,35705
35177,35863
35018,36101
34963,36381
35018,36662
35177,36900
35415,37058
35476,37070
35415,37083
35177,37241
35018,37479
34963,37759
35018,38040
35177,38277
35415,38436
35624,38478
36475,38478
36684,38436
36922,38277
37081,38040
37136,37759
37081,37479
36922,37241
36684,37083
36623,37070
36684,37058
36922,36900
37081,36662
37136,36381
37081,36101
36922,35863
36684,35705
36623,35693
36684,35680
36922,35522
37081,35284
37136,35004
37081,34723
36922,34486
36684,34327
36623,34315
36684,34302
36922,34144
37081,33906
37136,33626
37081,33345
36922,33108
36684,32949
36623,32937
36684,32924
36922,32766
37081,32528
37136,32248
37081,31967
36922,31730
36707,31586
36839,31560
36992,31458
37094,31305
37129,31126
37129,30614
37094,30434
36992,30282
36839,30180
36660,30144
35439,30144
35260,30180
35107,30282
35005,30434
34970,30614
34970,31126
35005,31305
35107,31458
35260,31560
35392,31586
35177,31730
35018,31967
34963,32248
34379,32248
34379,28175
34579,28092
34792,27879
34907,27600
34907,27445
34963,27445
35018,27726
35177,27963
35415,28122
35624,28164
36475,28164
36684,28122
36922,27963
37081,27726
37136,27445
37081,27165
36922,26927
36684,26768
36475,26727
35624,26727
35415,26768
35177,26927
35018,27165
34963,27445
34907,27445
34907,27299
34792,27020
34579,26807
34300,26692
33999,26692
33720,26807
33507,27020
33392,27299
32483,27299
32483,26190
35108,26190
35129,26270
35250,26471
35438,26611
35666,26668
36020,26668
36020,26097
36079,26097
36079,26668
36433,26668
36661,26611
36849,26471
36970,26270
36991,26190
36942,26097
36079,26097
36020,26097
35157,26097
35108,26190
32483,26190
32483,25944
35108,25944
35157,26038
36020,26038
36020,25467
36079,25467
36079,26038
36942,26038
36991,25944
36970,25865
36849,25664
36661,25524
36433,25467
36079,25467
36020,25467
35666,25467
35438,25524
35250,25664
35129,25865
35108,25944
32483,25944
32483,19177
34963,19177
35018,19458
35177,19695
35415,19854
35476,19866
35415,19879
35177,20037
35018,20275
34963,20555
35018,20836
35177,21073
35415,21232
35476,21244
35415,21257
35177,21415
35018,21653
34963,21933
35018,22214
35177,22451
35415,22610
35476,22622
35415,22634
35177,22793
35018,23031
34963,23311
35018,23592
35177,23829
35415,23988
35476,24000
35415,24012
35177,24171
35018,24409
34963,24689
35018,24970
35177,25207
35415,25366
35624,25408
36475,25408
36684,25366
36922,25207
37081,24970
37136,24689
37081,24409
36922,24171
36684,24012
36623,24000
36684,23988
36922,23829
37081,23592
37136,23311
37081,23031
36922,22793
36684,22634
36623,22622
36684,22610
36922,22451
37081,22214
37136,21933
37081,21653
36922,21415
36684,21257
36623,21244
36684,21232
36922,21073
37081,20836
37136,20555
37081,20275
36922,20037
36684,19879
36623,19866
36684,19854
36922,19695
37081,19458
37136,19177
37081,18897
36922,18659
36707,18516
36839,18489
36992,18388
37094,18235
37129,18055
37129,17544
37094,17364
36992,17211
36839,17110
36660,17074
35439,17074
35260,17110
35107,17211
35005,17364
34970,17544
34970,18055
35005,18235
35107,18388
35260,18489
35392,18516
35177,18659
35018,18897
34963,19177
32483,19177
32483,15350
35108,15350
35129,15430
35250,15631
35438,15771
35666,15828
36020,15828
36020,15257
36079,15257
36079,15828
36433,15828
36661,15771
36849,15631
36970,15430
36991,15350
36942,15257
36079,15257
36020,15257
35157,15257
35108,15350
32483,15350
32483,15104
35108,15104
35157,15198
36020,15198
36020,14627
36079,14627
36079,15198
36942,15198
36991,15104
36970,15025
36849,14824
36661,14684
36433,14627
36079,14627
36020,14627
35666,14627
35438,14684
35250,14824
35129,15025
35108,15104
32483,15104
32483,12983
69816,12983
69816,67366
" /> 
</g> 
</svg>
