M48
METRIC,TZ
T1C0.900
T2C1.000
T3C1.016
T4C1.200
T5C4.500
%
G90
G05
T1
X93853Y-36195
X96393Y-36195
T2
X27559Y-63246
X36703Y-127680
X36830Y-32893
X36957Y-28702
X36957Y-92933
X38862Y-28651
X39116Y-33655
X39116Y-92964
X39116Y-127635
X39243Y-62611
X39497Y-35687
X39497Y-59690
X41072Y-28651
X42164Y-89535
X42164Y-121158
X42164Y-124206
X42291Y-56261
X42291Y-59690
X44196Y-89382
X51054Y-53721
X53594Y-95504
X66294Y-53721
X90170Y-90424
X91948Y-81407
X75946Y-47625
X75946Y-50165
X75946Y-52705
X75946Y-55245
T3
X80264Y-64770
X80264Y-67310
X80264Y-69850
X80264Y-72390
X80264Y-74930
X80264Y-77470
X80264Y-80010
X80264Y-82550
X80264Y-85090
X80264Y-87630
X80264Y-90170
X80264Y-92710
X80264Y-95250
X80264Y-97790
X80264Y-100330
X95504Y-64770
X95504Y-67310
X95504Y-69850
X95504Y-72390
X95504Y-74930
X95504Y-77470
X95504Y-80010
X95504Y-82550
X95504Y-85090
X95504Y-87630
X95504Y-90170
X95504Y-92710
X95504Y-95250
X95504Y-97790
X95504Y-100330
T4
X47244Y-71882
X47244Y-75382
X47244Y-78882
X47244Y-82382
X47244Y-85882
X47244Y-89382
X47244Y-92882
X47244Y-96382
X32385Y-28702
X32385Y-32202
X32385Y-38735
X32385Y-42235
X32385Y-45735
X32385Y-49235
X32385Y-52735
X32385Y-56235
X32385Y-59735
X32385Y-63235
X32385Y-71933
X32385Y-75433
X32385Y-78933
X32385Y-82433
X32385Y-85933
X32385Y-89433
X32385Y-92933
X32385Y-96433
X32385Y-106680
X32385Y-110180
X32385Y-113680
X32385Y-117180
X32385Y-120680
X32385Y-124180
X32385Y-127680
X32385Y-131180
X32258Y-137795
X32258Y-141295
X32258Y-144795
X32258Y-148295
X32258Y-151795
X32258Y-155295
X32258Y-158795
X32258Y-162295
T5
X82296Y-141542
X82360Y-36322
X48705Y-141605
X48768Y-36322
T0
M30
