G04 #@! TF.GenerationSoftware,KiCad,Pcbnew,(6.0.0-rc1-dev-347-gd8782b751)*
G04 #@! TF.CreationDate,2019-11-17T21:55:43+01:00*
G04 #@! TF.ProjectId,nano,6E616E6F2E6B696361645F7063620000,rev?*
G04 #@! TF.SameCoordinates,Original*
G04 #@! TF.FileFunction,Paste,Bot*
G04 #@! TF.FilePolarity,Positive*
%FSLAX46Y46*%
G04 Gerber Fmt 4.6, Leading zero omitted, Abs format (unit mm)*
G04 Created by KiCad (PCBNEW (6.0.0-rc1-dev-347-gd8782b751)) date 11/17/19 21:55:43*
%MOMM*%
%LPD*%
G01*
G04 APERTURE LIST*
%ADD10C,0.100000*%
%ADD11C,1.425000*%
%ADD12R,3.500000X1.800000*%
%ADD13R,1.800000X3.500000*%
%ADD14R,1.500000X1.780000*%
%ADD15R,1.780000X1.500000*%
%ADD16R,3.050000X2.750000*%
%ADD17R,2.200000X1.200000*%
G04 APERTURE END LIST*
D10*
X24130000Y-166751000D02*
X22606000Y-165227000D01*
X23622000Y-25527000D02*
X22352000Y-26797000D01*
X102362000Y-165227000D02*
X100838000Y-166751000D01*
X102171500Y-26733500D02*
X100901500Y-25463500D01*
X51564885Y-141544384D02*
G75*
G03X51564885Y-141544384I-2796885J0D01*
G01*
X85026500Y-141541500D02*
G75*
G03X85026500Y-141541500I-2794000J0D01*
G01*
X51510022Y-36397021D02*
G75*
G03X51510022Y-36397021I-2805522J0D01*
G01*
X84848668Y-36398168D02*
G75*
G03X84848668Y-36398168I-2552668J0D01*
G01*
X22606000Y-165227000D02*
X22352000Y-26797000D01*
X100838000Y-166751000D02*
X24130000Y-166751000D01*
X102171500Y-26733500D02*
X102362000Y-165227000D01*
X23622000Y-25527000D02*
X100901500Y-25463500D01*
G04 #@! TO.C,C7*
G36*
X92851504Y-92162204D02*
X92875773Y-92165804D01*
X92899571Y-92171765D01*
X92922671Y-92180030D01*
X92944849Y-92190520D01*
X92965893Y-92203133D01*
X92985598Y-92217747D01*
X93003777Y-92234223D01*
X93020253Y-92252402D01*
X93034867Y-92272107D01*
X93047480Y-92293151D01*
X93057970Y-92315329D01*
X93066235Y-92338429D01*
X93072196Y-92362227D01*
X93075796Y-92386496D01*
X93077000Y-92411000D01*
X93077000Y-93336000D01*
X93075796Y-93360504D01*
X93072196Y-93384773D01*
X93066235Y-93408571D01*
X93057970Y-93431671D01*
X93047480Y-93453849D01*
X93034867Y-93474893D01*
X93020253Y-93494598D01*
X93003777Y-93512777D01*
X92985598Y-93529253D01*
X92965893Y-93543867D01*
X92944849Y-93556480D01*
X92922671Y-93566970D01*
X92899571Y-93575235D01*
X92875773Y-93581196D01*
X92851504Y-93584796D01*
X92827000Y-93586000D01*
X91577000Y-93586000D01*
X91552496Y-93584796D01*
X91528227Y-93581196D01*
X91504429Y-93575235D01*
X91481329Y-93566970D01*
X91459151Y-93556480D01*
X91438107Y-93543867D01*
X91418402Y-93529253D01*
X91400223Y-93512777D01*
X91383747Y-93494598D01*
X91369133Y-93474893D01*
X91356520Y-93453849D01*
X91346030Y-93431671D01*
X91337765Y-93408571D01*
X91331804Y-93384773D01*
X91328204Y-93360504D01*
X91327000Y-93336000D01*
X91327000Y-92411000D01*
X91328204Y-92386496D01*
X91331804Y-92362227D01*
X91337765Y-92338429D01*
X91346030Y-92315329D01*
X91356520Y-92293151D01*
X91369133Y-92272107D01*
X91383747Y-92252402D01*
X91400223Y-92234223D01*
X91418402Y-92217747D01*
X91438107Y-92203133D01*
X91459151Y-92190520D01*
X91481329Y-92180030D01*
X91504429Y-92171765D01*
X91528227Y-92165804D01*
X91552496Y-92162204D01*
X91577000Y-92161000D01*
X92827000Y-92161000D01*
X92851504Y-92162204D01*
X92851504Y-92162204D01*
G37*
D11*
X92202000Y-92873500D03*
D10*
G36*
X92851504Y-95137204D02*
X92875773Y-95140804D01*
X92899571Y-95146765D01*
X92922671Y-95155030D01*
X92944849Y-95165520D01*
X92965893Y-95178133D01*
X92985598Y-95192747D01*
X93003777Y-95209223D01*
X93020253Y-95227402D01*
X93034867Y-95247107D01*
X93047480Y-95268151D01*
X93057970Y-95290329D01*
X93066235Y-95313429D01*
X93072196Y-95337227D01*
X93075796Y-95361496D01*
X93077000Y-95386000D01*
X93077000Y-96311000D01*
X93075796Y-96335504D01*
X93072196Y-96359773D01*
X93066235Y-96383571D01*
X93057970Y-96406671D01*
X93047480Y-96428849D01*
X93034867Y-96449893D01*
X93020253Y-96469598D01*
X93003777Y-96487777D01*
X92985598Y-96504253D01*
X92965893Y-96518867D01*
X92944849Y-96531480D01*
X92922671Y-96541970D01*
X92899571Y-96550235D01*
X92875773Y-96556196D01*
X92851504Y-96559796D01*
X92827000Y-96561000D01*
X91577000Y-96561000D01*
X91552496Y-96559796D01*
X91528227Y-96556196D01*
X91504429Y-96550235D01*
X91481329Y-96541970D01*
X91459151Y-96531480D01*
X91438107Y-96518867D01*
X91418402Y-96504253D01*
X91400223Y-96487777D01*
X91383747Y-96469598D01*
X91369133Y-96449893D01*
X91356520Y-96428849D01*
X91346030Y-96406671D01*
X91337765Y-96383571D01*
X91331804Y-96359773D01*
X91328204Y-96335504D01*
X91327000Y-96311000D01*
X91327000Y-95386000D01*
X91328204Y-95361496D01*
X91331804Y-95337227D01*
X91337765Y-95313429D01*
X91346030Y-95290329D01*
X91356520Y-95268151D01*
X91369133Y-95247107D01*
X91383747Y-95227402D01*
X91400223Y-95209223D01*
X91418402Y-95192747D01*
X91438107Y-95178133D01*
X91459151Y-95165520D01*
X91481329Y-95155030D01*
X91504429Y-95146765D01*
X91528227Y-95140804D01*
X91552496Y-95137204D01*
X91577000Y-95136000D01*
X92827000Y-95136000D01*
X92851504Y-95137204D01*
X92851504Y-95137204D01*
G37*
D11*
X92202000Y-95848500D03*
G04 #@! TD*
D12*
G04 #@! TO.C,D5*
X52030000Y-120777000D03*
X47030000Y-120777000D03*
G04 #@! TD*
G04 #@! TO.C,D4*
X52030000Y-112903000D03*
X47030000Y-112903000D03*
G04 #@! TD*
G04 #@! TO.C,D3*
X52030000Y-116713000D03*
X47030000Y-116713000D03*
G04 #@! TD*
D13*
G04 #@! TO.C,D2*
X58420000Y-34965000D03*
X58420000Y-39965000D03*
G04 #@! TD*
D14*
G04 #@! TO.C,U19*
X94681000Y-48133000D03*
X85151000Y-45593000D03*
X94681000Y-45593000D03*
X85151000Y-48133000D03*
G04 #@! TD*
G04 #@! TO.C,U18*
X94681000Y-55245000D03*
X85151000Y-52705000D03*
X94681000Y-52705000D03*
X85151000Y-55245000D03*
G04 #@! TD*
D10*
G04 #@! TO.C,R33*
G36*
X80025504Y-51577204D02*
X80049773Y-51580804D01*
X80073571Y-51586765D01*
X80096671Y-51595030D01*
X80118849Y-51605520D01*
X80139893Y-51618133D01*
X80159598Y-51632747D01*
X80177777Y-51649223D01*
X80194253Y-51667402D01*
X80208867Y-51687107D01*
X80221480Y-51708151D01*
X80231970Y-51730329D01*
X80240235Y-51753429D01*
X80246196Y-51777227D01*
X80249796Y-51801496D01*
X80251000Y-51826000D01*
X80251000Y-53076000D01*
X80249796Y-53100504D01*
X80246196Y-53124773D01*
X80240235Y-53148571D01*
X80231970Y-53171671D01*
X80221480Y-53193849D01*
X80208867Y-53214893D01*
X80194253Y-53234598D01*
X80177777Y-53252777D01*
X80159598Y-53269253D01*
X80139893Y-53283867D01*
X80118849Y-53296480D01*
X80096671Y-53306970D01*
X80073571Y-53315235D01*
X80049773Y-53321196D01*
X80025504Y-53324796D01*
X80001000Y-53326000D01*
X79076000Y-53326000D01*
X79051496Y-53324796D01*
X79027227Y-53321196D01*
X79003429Y-53315235D01*
X78980329Y-53306970D01*
X78958151Y-53296480D01*
X78937107Y-53283867D01*
X78917402Y-53269253D01*
X78899223Y-53252777D01*
X78882747Y-53234598D01*
X78868133Y-53214893D01*
X78855520Y-53193849D01*
X78845030Y-53171671D01*
X78836765Y-53148571D01*
X78830804Y-53124773D01*
X78827204Y-53100504D01*
X78826000Y-53076000D01*
X78826000Y-51826000D01*
X78827204Y-51801496D01*
X78830804Y-51777227D01*
X78836765Y-51753429D01*
X78845030Y-51730329D01*
X78855520Y-51708151D01*
X78868133Y-51687107D01*
X78882747Y-51667402D01*
X78899223Y-51649223D01*
X78917402Y-51632747D01*
X78937107Y-51618133D01*
X78958151Y-51605520D01*
X78980329Y-51595030D01*
X79003429Y-51586765D01*
X79027227Y-51580804D01*
X79051496Y-51577204D01*
X79076000Y-51576000D01*
X80001000Y-51576000D01*
X80025504Y-51577204D01*
X80025504Y-51577204D01*
G37*
D11*
X79538500Y-52451000D03*
D10*
G36*
X83000504Y-51577204D02*
X83024773Y-51580804D01*
X83048571Y-51586765D01*
X83071671Y-51595030D01*
X83093849Y-51605520D01*
X83114893Y-51618133D01*
X83134598Y-51632747D01*
X83152777Y-51649223D01*
X83169253Y-51667402D01*
X83183867Y-51687107D01*
X83196480Y-51708151D01*
X83206970Y-51730329D01*
X83215235Y-51753429D01*
X83221196Y-51777227D01*
X83224796Y-51801496D01*
X83226000Y-51826000D01*
X83226000Y-53076000D01*
X83224796Y-53100504D01*
X83221196Y-53124773D01*
X83215235Y-53148571D01*
X83206970Y-53171671D01*
X83196480Y-53193849D01*
X83183867Y-53214893D01*
X83169253Y-53234598D01*
X83152777Y-53252777D01*
X83134598Y-53269253D01*
X83114893Y-53283867D01*
X83093849Y-53296480D01*
X83071671Y-53306970D01*
X83048571Y-53315235D01*
X83024773Y-53321196D01*
X83000504Y-53324796D01*
X82976000Y-53326000D01*
X82051000Y-53326000D01*
X82026496Y-53324796D01*
X82002227Y-53321196D01*
X81978429Y-53315235D01*
X81955329Y-53306970D01*
X81933151Y-53296480D01*
X81912107Y-53283867D01*
X81892402Y-53269253D01*
X81874223Y-53252777D01*
X81857747Y-53234598D01*
X81843133Y-53214893D01*
X81830520Y-53193849D01*
X81820030Y-53171671D01*
X81811765Y-53148571D01*
X81805804Y-53124773D01*
X81802204Y-53100504D01*
X81801000Y-53076000D01*
X81801000Y-51826000D01*
X81802204Y-51801496D01*
X81805804Y-51777227D01*
X81811765Y-51753429D01*
X81820030Y-51730329D01*
X81830520Y-51708151D01*
X81843133Y-51687107D01*
X81857747Y-51667402D01*
X81874223Y-51649223D01*
X81892402Y-51632747D01*
X81912107Y-51618133D01*
X81933151Y-51605520D01*
X81955329Y-51595030D01*
X81978429Y-51586765D01*
X82002227Y-51580804D01*
X82026496Y-51577204D01*
X82051000Y-51576000D01*
X82976000Y-51576000D01*
X83000504Y-51577204D01*
X83000504Y-51577204D01*
G37*
D11*
X82513500Y-52451000D03*
G04 #@! TD*
D10*
G04 #@! TO.C,R32*
G36*
X80279504Y-47259204D02*
X80303773Y-47262804D01*
X80327571Y-47268765D01*
X80350671Y-47277030D01*
X80372849Y-47287520D01*
X80393893Y-47300133D01*
X80413598Y-47314747D01*
X80431777Y-47331223D01*
X80448253Y-47349402D01*
X80462867Y-47369107D01*
X80475480Y-47390151D01*
X80485970Y-47412329D01*
X80494235Y-47435429D01*
X80500196Y-47459227D01*
X80503796Y-47483496D01*
X80505000Y-47508000D01*
X80505000Y-48758000D01*
X80503796Y-48782504D01*
X80500196Y-48806773D01*
X80494235Y-48830571D01*
X80485970Y-48853671D01*
X80475480Y-48875849D01*
X80462867Y-48896893D01*
X80448253Y-48916598D01*
X80431777Y-48934777D01*
X80413598Y-48951253D01*
X80393893Y-48965867D01*
X80372849Y-48978480D01*
X80350671Y-48988970D01*
X80327571Y-48997235D01*
X80303773Y-49003196D01*
X80279504Y-49006796D01*
X80255000Y-49008000D01*
X79330000Y-49008000D01*
X79305496Y-49006796D01*
X79281227Y-49003196D01*
X79257429Y-48997235D01*
X79234329Y-48988970D01*
X79212151Y-48978480D01*
X79191107Y-48965867D01*
X79171402Y-48951253D01*
X79153223Y-48934777D01*
X79136747Y-48916598D01*
X79122133Y-48896893D01*
X79109520Y-48875849D01*
X79099030Y-48853671D01*
X79090765Y-48830571D01*
X79084804Y-48806773D01*
X79081204Y-48782504D01*
X79080000Y-48758000D01*
X79080000Y-47508000D01*
X79081204Y-47483496D01*
X79084804Y-47459227D01*
X79090765Y-47435429D01*
X79099030Y-47412329D01*
X79109520Y-47390151D01*
X79122133Y-47369107D01*
X79136747Y-47349402D01*
X79153223Y-47331223D01*
X79171402Y-47314747D01*
X79191107Y-47300133D01*
X79212151Y-47287520D01*
X79234329Y-47277030D01*
X79257429Y-47268765D01*
X79281227Y-47262804D01*
X79305496Y-47259204D01*
X79330000Y-47258000D01*
X80255000Y-47258000D01*
X80279504Y-47259204D01*
X80279504Y-47259204D01*
G37*
D11*
X79792500Y-48133000D03*
D10*
G36*
X83254504Y-47259204D02*
X83278773Y-47262804D01*
X83302571Y-47268765D01*
X83325671Y-47277030D01*
X83347849Y-47287520D01*
X83368893Y-47300133D01*
X83388598Y-47314747D01*
X83406777Y-47331223D01*
X83423253Y-47349402D01*
X83437867Y-47369107D01*
X83450480Y-47390151D01*
X83460970Y-47412329D01*
X83469235Y-47435429D01*
X83475196Y-47459227D01*
X83478796Y-47483496D01*
X83480000Y-47508000D01*
X83480000Y-48758000D01*
X83478796Y-48782504D01*
X83475196Y-48806773D01*
X83469235Y-48830571D01*
X83460970Y-48853671D01*
X83450480Y-48875849D01*
X83437867Y-48896893D01*
X83423253Y-48916598D01*
X83406777Y-48934777D01*
X83388598Y-48951253D01*
X83368893Y-48965867D01*
X83347849Y-48978480D01*
X83325671Y-48988970D01*
X83302571Y-48997235D01*
X83278773Y-49003196D01*
X83254504Y-49006796D01*
X83230000Y-49008000D01*
X82305000Y-49008000D01*
X82280496Y-49006796D01*
X82256227Y-49003196D01*
X82232429Y-48997235D01*
X82209329Y-48988970D01*
X82187151Y-48978480D01*
X82166107Y-48965867D01*
X82146402Y-48951253D01*
X82128223Y-48934777D01*
X82111747Y-48916598D01*
X82097133Y-48896893D01*
X82084520Y-48875849D01*
X82074030Y-48853671D01*
X82065765Y-48830571D01*
X82059804Y-48806773D01*
X82056204Y-48782504D01*
X82055000Y-48758000D01*
X82055000Y-47508000D01*
X82056204Y-47483496D01*
X82059804Y-47459227D01*
X82065765Y-47435429D01*
X82074030Y-47412329D01*
X82084520Y-47390151D01*
X82097133Y-47369107D01*
X82111747Y-47349402D01*
X82128223Y-47331223D01*
X82146402Y-47314747D01*
X82166107Y-47300133D01*
X82187151Y-47287520D01*
X82209329Y-47277030D01*
X82232429Y-47268765D01*
X82256227Y-47262804D01*
X82280496Y-47259204D01*
X82305000Y-47258000D01*
X83230000Y-47258000D01*
X83254504Y-47259204D01*
X83254504Y-47259204D01*
G37*
D11*
X82767500Y-48133000D03*
G04 #@! TD*
D10*
G04 #@! TO.C,R31*
G36*
X86520004Y-99837204D02*
X86544273Y-99840804D01*
X86568071Y-99846765D01*
X86591171Y-99855030D01*
X86613349Y-99865520D01*
X86634393Y-99878133D01*
X86654098Y-99892747D01*
X86672277Y-99909223D01*
X86688753Y-99927402D01*
X86703367Y-99947107D01*
X86715980Y-99968151D01*
X86726470Y-99990329D01*
X86734735Y-100013429D01*
X86740696Y-100037227D01*
X86744296Y-100061496D01*
X86745500Y-100086000D01*
X86745500Y-101336000D01*
X86744296Y-101360504D01*
X86740696Y-101384773D01*
X86734735Y-101408571D01*
X86726470Y-101431671D01*
X86715980Y-101453849D01*
X86703367Y-101474893D01*
X86688753Y-101494598D01*
X86672277Y-101512777D01*
X86654098Y-101529253D01*
X86634393Y-101543867D01*
X86613349Y-101556480D01*
X86591171Y-101566970D01*
X86568071Y-101575235D01*
X86544273Y-101581196D01*
X86520004Y-101584796D01*
X86495500Y-101586000D01*
X85570500Y-101586000D01*
X85545996Y-101584796D01*
X85521727Y-101581196D01*
X85497929Y-101575235D01*
X85474829Y-101566970D01*
X85452651Y-101556480D01*
X85431607Y-101543867D01*
X85411902Y-101529253D01*
X85393723Y-101512777D01*
X85377247Y-101494598D01*
X85362633Y-101474893D01*
X85350020Y-101453849D01*
X85339530Y-101431671D01*
X85331265Y-101408571D01*
X85325304Y-101384773D01*
X85321704Y-101360504D01*
X85320500Y-101336000D01*
X85320500Y-100086000D01*
X85321704Y-100061496D01*
X85325304Y-100037227D01*
X85331265Y-100013429D01*
X85339530Y-99990329D01*
X85350020Y-99968151D01*
X85362633Y-99947107D01*
X85377247Y-99927402D01*
X85393723Y-99909223D01*
X85411902Y-99892747D01*
X85431607Y-99878133D01*
X85452651Y-99865520D01*
X85474829Y-99855030D01*
X85497929Y-99846765D01*
X85521727Y-99840804D01*
X85545996Y-99837204D01*
X85570500Y-99836000D01*
X86495500Y-99836000D01*
X86520004Y-99837204D01*
X86520004Y-99837204D01*
G37*
D11*
X86033000Y-100711000D03*
D10*
G36*
X83545004Y-99837204D02*
X83569273Y-99840804D01*
X83593071Y-99846765D01*
X83616171Y-99855030D01*
X83638349Y-99865520D01*
X83659393Y-99878133D01*
X83679098Y-99892747D01*
X83697277Y-99909223D01*
X83713753Y-99927402D01*
X83728367Y-99947107D01*
X83740980Y-99968151D01*
X83751470Y-99990329D01*
X83759735Y-100013429D01*
X83765696Y-100037227D01*
X83769296Y-100061496D01*
X83770500Y-100086000D01*
X83770500Y-101336000D01*
X83769296Y-101360504D01*
X83765696Y-101384773D01*
X83759735Y-101408571D01*
X83751470Y-101431671D01*
X83740980Y-101453849D01*
X83728367Y-101474893D01*
X83713753Y-101494598D01*
X83697277Y-101512777D01*
X83679098Y-101529253D01*
X83659393Y-101543867D01*
X83638349Y-101556480D01*
X83616171Y-101566970D01*
X83593071Y-101575235D01*
X83569273Y-101581196D01*
X83545004Y-101584796D01*
X83520500Y-101586000D01*
X82595500Y-101586000D01*
X82570996Y-101584796D01*
X82546727Y-101581196D01*
X82522929Y-101575235D01*
X82499829Y-101566970D01*
X82477651Y-101556480D01*
X82456607Y-101543867D01*
X82436902Y-101529253D01*
X82418723Y-101512777D01*
X82402247Y-101494598D01*
X82387633Y-101474893D01*
X82375020Y-101453849D01*
X82364530Y-101431671D01*
X82356265Y-101408571D01*
X82350304Y-101384773D01*
X82346704Y-101360504D01*
X82345500Y-101336000D01*
X82345500Y-100086000D01*
X82346704Y-100061496D01*
X82350304Y-100037227D01*
X82356265Y-100013429D01*
X82364530Y-99990329D01*
X82375020Y-99968151D01*
X82387633Y-99947107D01*
X82402247Y-99927402D01*
X82418723Y-99909223D01*
X82436902Y-99892747D01*
X82456607Y-99878133D01*
X82477651Y-99865520D01*
X82499829Y-99855030D01*
X82522929Y-99846765D01*
X82546727Y-99840804D01*
X82570996Y-99837204D01*
X82595500Y-99836000D01*
X83520500Y-99836000D01*
X83545004Y-99837204D01*
X83545004Y-99837204D01*
G37*
D11*
X83058000Y-100711000D03*
G04 #@! TD*
D10*
G04 #@! TO.C,R30*
G36*
X97931504Y-51776204D02*
X97955773Y-51779804D01*
X97979571Y-51785765D01*
X98002671Y-51794030D01*
X98024849Y-51804520D01*
X98045893Y-51817133D01*
X98065598Y-51831747D01*
X98083777Y-51848223D01*
X98100253Y-51866402D01*
X98114867Y-51886107D01*
X98127480Y-51907151D01*
X98137970Y-51929329D01*
X98146235Y-51952429D01*
X98152196Y-51976227D01*
X98155796Y-52000496D01*
X98157000Y-52025000D01*
X98157000Y-52950000D01*
X98155796Y-52974504D01*
X98152196Y-52998773D01*
X98146235Y-53022571D01*
X98137970Y-53045671D01*
X98127480Y-53067849D01*
X98114867Y-53088893D01*
X98100253Y-53108598D01*
X98083777Y-53126777D01*
X98065598Y-53143253D01*
X98045893Y-53157867D01*
X98024849Y-53170480D01*
X98002671Y-53180970D01*
X97979571Y-53189235D01*
X97955773Y-53195196D01*
X97931504Y-53198796D01*
X97907000Y-53200000D01*
X96657000Y-53200000D01*
X96632496Y-53198796D01*
X96608227Y-53195196D01*
X96584429Y-53189235D01*
X96561329Y-53180970D01*
X96539151Y-53170480D01*
X96518107Y-53157867D01*
X96498402Y-53143253D01*
X96480223Y-53126777D01*
X96463747Y-53108598D01*
X96449133Y-53088893D01*
X96436520Y-53067849D01*
X96426030Y-53045671D01*
X96417765Y-53022571D01*
X96411804Y-52998773D01*
X96408204Y-52974504D01*
X96407000Y-52950000D01*
X96407000Y-52025000D01*
X96408204Y-52000496D01*
X96411804Y-51976227D01*
X96417765Y-51952429D01*
X96426030Y-51929329D01*
X96436520Y-51907151D01*
X96449133Y-51886107D01*
X96463747Y-51866402D01*
X96480223Y-51848223D01*
X96498402Y-51831747D01*
X96518107Y-51817133D01*
X96539151Y-51804520D01*
X96561329Y-51794030D01*
X96584429Y-51785765D01*
X96608227Y-51779804D01*
X96632496Y-51776204D01*
X96657000Y-51775000D01*
X97907000Y-51775000D01*
X97931504Y-51776204D01*
X97931504Y-51776204D01*
G37*
D11*
X97282000Y-52487500D03*
D10*
G36*
X97931504Y-54751204D02*
X97955773Y-54754804D01*
X97979571Y-54760765D01*
X98002671Y-54769030D01*
X98024849Y-54779520D01*
X98045893Y-54792133D01*
X98065598Y-54806747D01*
X98083777Y-54823223D01*
X98100253Y-54841402D01*
X98114867Y-54861107D01*
X98127480Y-54882151D01*
X98137970Y-54904329D01*
X98146235Y-54927429D01*
X98152196Y-54951227D01*
X98155796Y-54975496D01*
X98157000Y-55000000D01*
X98157000Y-55925000D01*
X98155796Y-55949504D01*
X98152196Y-55973773D01*
X98146235Y-55997571D01*
X98137970Y-56020671D01*
X98127480Y-56042849D01*
X98114867Y-56063893D01*
X98100253Y-56083598D01*
X98083777Y-56101777D01*
X98065598Y-56118253D01*
X98045893Y-56132867D01*
X98024849Y-56145480D01*
X98002671Y-56155970D01*
X97979571Y-56164235D01*
X97955773Y-56170196D01*
X97931504Y-56173796D01*
X97907000Y-56175000D01*
X96657000Y-56175000D01*
X96632496Y-56173796D01*
X96608227Y-56170196D01*
X96584429Y-56164235D01*
X96561329Y-56155970D01*
X96539151Y-56145480D01*
X96518107Y-56132867D01*
X96498402Y-56118253D01*
X96480223Y-56101777D01*
X96463747Y-56083598D01*
X96449133Y-56063893D01*
X96436520Y-56042849D01*
X96426030Y-56020671D01*
X96417765Y-55997571D01*
X96411804Y-55973773D01*
X96408204Y-55949504D01*
X96407000Y-55925000D01*
X96407000Y-55000000D01*
X96408204Y-54975496D01*
X96411804Y-54951227D01*
X96417765Y-54927429D01*
X96426030Y-54904329D01*
X96436520Y-54882151D01*
X96449133Y-54861107D01*
X96463747Y-54841402D01*
X96480223Y-54823223D01*
X96498402Y-54806747D01*
X96518107Y-54792133D01*
X96539151Y-54779520D01*
X96561329Y-54769030D01*
X96584429Y-54760765D01*
X96608227Y-54754804D01*
X96632496Y-54751204D01*
X96657000Y-54750000D01*
X97907000Y-54750000D01*
X97931504Y-54751204D01*
X97931504Y-54751204D01*
G37*
D11*
X97282000Y-55462500D03*
G04 #@! TD*
D10*
G04 #@! TO.C,R29*
G36*
X80062004Y-54371204D02*
X80086273Y-54374804D01*
X80110071Y-54380765D01*
X80133171Y-54389030D01*
X80155349Y-54399520D01*
X80176393Y-54412133D01*
X80196098Y-54426747D01*
X80214277Y-54443223D01*
X80230753Y-54461402D01*
X80245367Y-54481107D01*
X80257980Y-54502151D01*
X80268470Y-54524329D01*
X80276735Y-54547429D01*
X80282696Y-54571227D01*
X80286296Y-54595496D01*
X80287500Y-54620000D01*
X80287500Y-55870000D01*
X80286296Y-55894504D01*
X80282696Y-55918773D01*
X80276735Y-55942571D01*
X80268470Y-55965671D01*
X80257980Y-55987849D01*
X80245367Y-56008893D01*
X80230753Y-56028598D01*
X80214277Y-56046777D01*
X80196098Y-56063253D01*
X80176393Y-56077867D01*
X80155349Y-56090480D01*
X80133171Y-56100970D01*
X80110071Y-56109235D01*
X80086273Y-56115196D01*
X80062004Y-56118796D01*
X80037500Y-56120000D01*
X79112500Y-56120000D01*
X79087996Y-56118796D01*
X79063727Y-56115196D01*
X79039929Y-56109235D01*
X79016829Y-56100970D01*
X78994651Y-56090480D01*
X78973607Y-56077867D01*
X78953902Y-56063253D01*
X78935723Y-56046777D01*
X78919247Y-56028598D01*
X78904633Y-56008893D01*
X78892020Y-55987849D01*
X78881530Y-55965671D01*
X78873265Y-55942571D01*
X78867304Y-55918773D01*
X78863704Y-55894504D01*
X78862500Y-55870000D01*
X78862500Y-54620000D01*
X78863704Y-54595496D01*
X78867304Y-54571227D01*
X78873265Y-54547429D01*
X78881530Y-54524329D01*
X78892020Y-54502151D01*
X78904633Y-54481107D01*
X78919247Y-54461402D01*
X78935723Y-54443223D01*
X78953902Y-54426747D01*
X78973607Y-54412133D01*
X78994651Y-54399520D01*
X79016829Y-54389030D01*
X79039929Y-54380765D01*
X79063727Y-54374804D01*
X79087996Y-54371204D01*
X79112500Y-54370000D01*
X80037500Y-54370000D01*
X80062004Y-54371204D01*
X80062004Y-54371204D01*
G37*
D11*
X79575000Y-55245000D03*
D10*
G36*
X83037004Y-54371204D02*
X83061273Y-54374804D01*
X83085071Y-54380765D01*
X83108171Y-54389030D01*
X83130349Y-54399520D01*
X83151393Y-54412133D01*
X83171098Y-54426747D01*
X83189277Y-54443223D01*
X83205753Y-54461402D01*
X83220367Y-54481107D01*
X83232980Y-54502151D01*
X83243470Y-54524329D01*
X83251735Y-54547429D01*
X83257696Y-54571227D01*
X83261296Y-54595496D01*
X83262500Y-54620000D01*
X83262500Y-55870000D01*
X83261296Y-55894504D01*
X83257696Y-55918773D01*
X83251735Y-55942571D01*
X83243470Y-55965671D01*
X83232980Y-55987849D01*
X83220367Y-56008893D01*
X83205753Y-56028598D01*
X83189277Y-56046777D01*
X83171098Y-56063253D01*
X83151393Y-56077867D01*
X83130349Y-56090480D01*
X83108171Y-56100970D01*
X83085071Y-56109235D01*
X83061273Y-56115196D01*
X83037004Y-56118796D01*
X83012500Y-56120000D01*
X82087500Y-56120000D01*
X82062996Y-56118796D01*
X82038727Y-56115196D01*
X82014929Y-56109235D01*
X81991829Y-56100970D01*
X81969651Y-56090480D01*
X81948607Y-56077867D01*
X81928902Y-56063253D01*
X81910723Y-56046777D01*
X81894247Y-56028598D01*
X81879633Y-56008893D01*
X81867020Y-55987849D01*
X81856530Y-55965671D01*
X81848265Y-55942571D01*
X81842304Y-55918773D01*
X81838704Y-55894504D01*
X81837500Y-55870000D01*
X81837500Y-54620000D01*
X81838704Y-54595496D01*
X81842304Y-54571227D01*
X81848265Y-54547429D01*
X81856530Y-54524329D01*
X81867020Y-54502151D01*
X81879633Y-54481107D01*
X81894247Y-54461402D01*
X81910723Y-54443223D01*
X81928902Y-54426747D01*
X81948607Y-54412133D01*
X81969651Y-54399520D01*
X81991829Y-54389030D01*
X82014929Y-54380765D01*
X82038727Y-54374804D01*
X82062996Y-54371204D01*
X82087500Y-54370000D01*
X83012500Y-54370000D01*
X83037004Y-54371204D01*
X83037004Y-54371204D01*
G37*
D11*
X82550000Y-55245000D03*
G04 #@! TD*
D10*
G04 #@! TO.C,C4*
G36*
X89931504Y-64785204D02*
X89955773Y-64788804D01*
X89979571Y-64794765D01*
X90002671Y-64803030D01*
X90024849Y-64813520D01*
X90045893Y-64826133D01*
X90065598Y-64840747D01*
X90083777Y-64857223D01*
X90100253Y-64875402D01*
X90114867Y-64895107D01*
X90127480Y-64916151D01*
X90137970Y-64938329D01*
X90146235Y-64961429D01*
X90152196Y-64985227D01*
X90155796Y-65009496D01*
X90157000Y-65034000D01*
X90157000Y-66284000D01*
X90155796Y-66308504D01*
X90152196Y-66332773D01*
X90146235Y-66356571D01*
X90137970Y-66379671D01*
X90127480Y-66401849D01*
X90114867Y-66422893D01*
X90100253Y-66442598D01*
X90083777Y-66460777D01*
X90065598Y-66477253D01*
X90045893Y-66491867D01*
X90024849Y-66504480D01*
X90002671Y-66514970D01*
X89979571Y-66523235D01*
X89955773Y-66529196D01*
X89931504Y-66532796D01*
X89907000Y-66534000D01*
X88982000Y-66534000D01*
X88957496Y-66532796D01*
X88933227Y-66529196D01*
X88909429Y-66523235D01*
X88886329Y-66514970D01*
X88864151Y-66504480D01*
X88843107Y-66491867D01*
X88823402Y-66477253D01*
X88805223Y-66460777D01*
X88788747Y-66442598D01*
X88774133Y-66422893D01*
X88761520Y-66401849D01*
X88751030Y-66379671D01*
X88742765Y-66356571D01*
X88736804Y-66332773D01*
X88733204Y-66308504D01*
X88732000Y-66284000D01*
X88732000Y-65034000D01*
X88733204Y-65009496D01*
X88736804Y-64985227D01*
X88742765Y-64961429D01*
X88751030Y-64938329D01*
X88761520Y-64916151D01*
X88774133Y-64895107D01*
X88788747Y-64875402D01*
X88805223Y-64857223D01*
X88823402Y-64840747D01*
X88843107Y-64826133D01*
X88864151Y-64813520D01*
X88886329Y-64803030D01*
X88909429Y-64794765D01*
X88933227Y-64788804D01*
X88957496Y-64785204D01*
X88982000Y-64784000D01*
X89907000Y-64784000D01*
X89931504Y-64785204D01*
X89931504Y-64785204D01*
G37*
D11*
X89444500Y-65659000D03*
D10*
G36*
X92906504Y-64785204D02*
X92930773Y-64788804D01*
X92954571Y-64794765D01*
X92977671Y-64803030D01*
X92999849Y-64813520D01*
X93020893Y-64826133D01*
X93040598Y-64840747D01*
X93058777Y-64857223D01*
X93075253Y-64875402D01*
X93089867Y-64895107D01*
X93102480Y-64916151D01*
X93112970Y-64938329D01*
X93121235Y-64961429D01*
X93127196Y-64985227D01*
X93130796Y-65009496D01*
X93132000Y-65034000D01*
X93132000Y-66284000D01*
X93130796Y-66308504D01*
X93127196Y-66332773D01*
X93121235Y-66356571D01*
X93112970Y-66379671D01*
X93102480Y-66401849D01*
X93089867Y-66422893D01*
X93075253Y-66442598D01*
X93058777Y-66460777D01*
X93040598Y-66477253D01*
X93020893Y-66491867D01*
X92999849Y-66504480D01*
X92977671Y-66514970D01*
X92954571Y-66523235D01*
X92930773Y-66529196D01*
X92906504Y-66532796D01*
X92882000Y-66534000D01*
X91957000Y-66534000D01*
X91932496Y-66532796D01*
X91908227Y-66529196D01*
X91884429Y-66523235D01*
X91861329Y-66514970D01*
X91839151Y-66504480D01*
X91818107Y-66491867D01*
X91798402Y-66477253D01*
X91780223Y-66460777D01*
X91763747Y-66442598D01*
X91749133Y-66422893D01*
X91736520Y-66401849D01*
X91726030Y-66379671D01*
X91717765Y-66356571D01*
X91711804Y-66332773D01*
X91708204Y-66308504D01*
X91707000Y-66284000D01*
X91707000Y-65034000D01*
X91708204Y-65009496D01*
X91711804Y-64985227D01*
X91717765Y-64961429D01*
X91726030Y-64938329D01*
X91736520Y-64916151D01*
X91749133Y-64895107D01*
X91763747Y-64875402D01*
X91780223Y-64857223D01*
X91798402Y-64840747D01*
X91818107Y-64826133D01*
X91839151Y-64813520D01*
X91861329Y-64803030D01*
X91884429Y-64794765D01*
X91908227Y-64788804D01*
X91932496Y-64785204D01*
X91957000Y-64784000D01*
X92882000Y-64784000D01*
X92906504Y-64785204D01*
X92906504Y-64785204D01*
G37*
D11*
X92419500Y-65659000D03*
G04 #@! TD*
D14*
G04 #@! TO.C,U3*
X55623500Y-129730500D03*
X65153500Y-132270500D03*
X55623500Y-132270500D03*
X65153500Y-129730500D03*
G04 #@! TD*
D15*
G04 #@! TO.C,U17*
X50800000Y-152334000D03*
X48260000Y-161864000D03*
X48260000Y-152334000D03*
X50800000Y-161864000D03*
G04 #@! TD*
D10*
G04 #@! TO.C,R28*
G36*
X42433504Y-160797204D02*
X42457773Y-160800804D01*
X42481571Y-160806765D01*
X42504671Y-160815030D01*
X42526849Y-160825520D01*
X42547893Y-160838133D01*
X42567598Y-160852747D01*
X42585777Y-160869223D01*
X42602253Y-160887402D01*
X42616867Y-160907107D01*
X42629480Y-160928151D01*
X42639970Y-160950329D01*
X42648235Y-160973429D01*
X42654196Y-160997227D01*
X42657796Y-161021496D01*
X42659000Y-161046000D01*
X42659000Y-162296000D01*
X42657796Y-162320504D01*
X42654196Y-162344773D01*
X42648235Y-162368571D01*
X42639970Y-162391671D01*
X42629480Y-162413849D01*
X42616867Y-162434893D01*
X42602253Y-162454598D01*
X42585777Y-162472777D01*
X42567598Y-162489253D01*
X42547893Y-162503867D01*
X42526849Y-162516480D01*
X42504671Y-162526970D01*
X42481571Y-162535235D01*
X42457773Y-162541196D01*
X42433504Y-162544796D01*
X42409000Y-162546000D01*
X41484000Y-162546000D01*
X41459496Y-162544796D01*
X41435227Y-162541196D01*
X41411429Y-162535235D01*
X41388329Y-162526970D01*
X41366151Y-162516480D01*
X41345107Y-162503867D01*
X41325402Y-162489253D01*
X41307223Y-162472777D01*
X41290747Y-162454598D01*
X41276133Y-162434893D01*
X41263520Y-162413849D01*
X41253030Y-162391671D01*
X41244765Y-162368571D01*
X41238804Y-162344773D01*
X41235204Y-162320504D01*
X41234000Y-162296000D01*
X41234000Y-161046000D01*
X41235204Y-161021496D01*
X41238804Y-160997227D01*
X41244765Y-160973429D01*
X41253030Y-160950329D01*
X41263520Y-160928151D01*
X41276133Y-160907107D01*
X41290747Y-160887402D01*
X41307223Y-160869223D01*
X41325402Y-160852747D01*
X41345107Y-160838133D01*
X41366151Y-160825520D01*
X41388329Y-160815030D01*
X41411429Y-160806765D01*
X41435227Y-160800804D01*
X41459496Y-160797204D01*
X41484000Y-160796000D01*
X42409000Y-160796000D01*
X42433504Y-160797204D01*
X42433504Y-160797204D01*
G37*
D11*
X41946500Y-161671000D03*
D10*
G36*
X45408504Y-160797204D02*
X45432773Y-160800804D01*
X45456571Y-160806765D01*
X45479671Y-160815030D01*
X45501849Y-160825520D01*
X45522893Y-160838133D01*
X45542598Y-160852747D01*
X45560777Y-160869223D01*
X45577253Y-160887402D01*
X45591867Y-160907107D01*
X45604480Y-160928151D01*
X45614970Y-160950329D01*
X45623235Y-160973429D01*
X45629196Y-160997227D01*
X45632796Y-161021496D01*
X45634000Y-161046000D01*
X45634000Y-162296000D01*
X45632796Y-162320504D01*
X45629196Y-162344773D01*
X45623235Y-162368571D01*
X45614970Y-162391671D01*
X45604480Y-162413849D01*
X45591867Y-162434893D01*
X45577253Y-162454598D01*
X45560777Y-162472777D01*
X45542598Y-162489253D01*
X45522893Y-162503867D01*
X45501849Y-162516480D01*
X45479671Y-162526970D01*
X45456571Y-162535235D01*
X45432773Y-162541196D01*
X45408504Y-162544796D01*
X45384000Y-162546000D01*
X44459000Y-162546000D01*
X44434496Y-162544796D01*
X44410227Y-162541196D01*
X44386429Y-162535235D01*
X44363329Y-162526970D01*
X44341151Y-162516480D01*
X44320107Y-162503867D01*
X44300402Y-162489253D01*
X44282223Y-162472777D01*
X44265747Y-162454598D01*
X44251133Y-162434893D01*
X44238520Y-162413849D01*
X44228030Y-162391671D01*
X44219765Y-162368571D01*
X44213804Y-162344773D01*
X44210204Y-162320504D01*
X44209000Y-162296000D01*
X44209000Y-161046000D01*
X44210204Y-161021496D01*
X44213804Y-160997227D01*
X44219765Y-160973429D01*
X44228030Y-160950329D01*
X44238520Y-160928151D01*
X44251133Y-160907107D01*
X44265747Y-160887402D01*
X44282223Y-160869223D01*
X44300402Y-160852747D01*
X44320107Y-160838133D01*
X44341151Y-160825520D01*
X44363329Y-160815030D01*
X44386429Y-160806765D01*
X44410227Y-160800804D01*
X44434496Y-160797204D01*
X44459000Y-160796000D01*
X45384000Y-160796000D01*
X45408504Y-160797204D01*
X45408504Y-160797204D01*
G37*
D11*
X44921500Y-161671000D03*
G04 #@! TD*
D10*
G04 #@! TO.C,R27*
G36*
X36590504Y-148042204D02*
X36614773Y-148045804D01*
X36638571Y-148051765D01*
X36661671Y-148060030D01*
X36683849Y-148070520D01*
X36704893Y-148083133D01*
X36724598Y-148097747D01*
X36742777Y-148114223D01*
X36759253Y-148132402D01*
X36773867Y-148152107D01*
X36786480Y-148173151D01*
X36796970Y-148195329D01*
X36805235Y-148218429D01*
X36811196Y-148242227D01*
X36814796Y-148266496D01*
X36816000Y-148291000D01*
X36816000Y-149216000D01*
X36814796Y-149240504D01*
X36811196Y-149264773D01*
X36805235Y-149288571D01*
X36796970Y-149311671D01*
X36786480Y-149333849D01*
X36773867Y-149354893D01*
X36759253Y-149374598D01*
X36742777Y-149392777D01*
X36724598Y-149409253D01*
X36704893Y-149423867D01*
X36683849Y-149436480D01*
X36661671Y-149446970D01*
X36638571Y-149455235D01*
X36614773Y-149461196D01*
X36590504Y-149464796D01*
X36566000Y-149466000D01*
X35316000Y-149466000D01*
X35291496Y-149464796D01*
X35267227Y-149461196D01*
X35243429Y-149455235D01*
X35220329Y-149446970D01*
X35198151Y-149436480D01*
X35177107Y-149423867D01*
X35157402Y-149409253D01*
X35139223Y-149392777D01*
X35122747Y-149374598D01*
X35108133Y-149354893D01*
X35095520Y-149333849D01*
X35085030Y-149311671D01*
X35076765Y-149288571D01*
X35070804Y-149264773D01*
X35067204Y-149240504D01*
X35066000Y-149216000D01*
X35066000Y-148291000D01*
X35067204Y-148266496D01*
X35070804Y-148242227D01*
X35076765Y-148218429D01*
X35085030Y-148195329D01*
X35095520Y-148173151D01*
X35108133Y-148152107D01*
X35122747Y-148132402D01*
X35139223Y-148114223D01*
X35157402Y-148097747D01*
X35177107Y-148083133D01*
X35198151Y-148070520D01*
X35220329Y-148060030D01*
X35243429Y-148051765D01*
X35267227Y-148045804D01*
X35291496Y-148042204D01*
X35316000Y-148041000D01*
X36566000Y-148041000D01*
X36590504Y-148042204D01*
X36590504Y-148042204D01*
G37*
D11*
X35941000Y-148753500D03*
D10*
G36*
X36590504Y-151017204D02*
X36614773Y-151020804D01*
X36638571Y-151026765D01*
X36661671Y-151035030D01*
X36683849Y-151045520D01*
X36704893Y-151058133D01*
X36724598Y-151072747D01*
X36742777Y-151089223D01*
X36759253Y-151107402D01*
X36773867Y-151127107D01*
X36786480Y-151148151D01*
X36796970Y-151170329D01*
X36805235Y-151193429D01*
X36811196Y-151217227D01*
X36814796Y-151241496D01*
X36816000Y-151266000D01*
X36816000Y-152191000D01*
X36814796Y-152215504D01*
X36811196Y-152239773D01*
X36805235Y-152263571D01*
X36796970Y-152286671D01*
X36786480Y-152308849D01*
X36773867Y-152329893D01*
X36759253Y-152349598D01*
X36742777Y-152367777D01*
X36724598Y-152384253D01*
X36704893Y-152398867D01*
X36683849Y-152411480D01*
X36661671Y-152421970D01*
X36638571Y-152430235D01*
X36614773Y-152436196D01*
X36590504Y-152439796D01*
X36566000Y-152441000D01*
X35316000Y-152441000D01*
X35291496Y-152439796D01*
X35267227Y-152436196D01*
X35243429Y-152430235D01*
X35220329Y-152421970D01*
X35198151Y-152411480D01*
X35177107Y-152398867D01*
X35157402Y-152384253D01*
X35139223Y-152367777D01*
X35122747Y-152349598D01*
X35108133Y-152329893D01*
X35095520Y-152308849D01*
X35085030Y-152286671D01*
X35076765Y-152263571D01*
X35070804Y-152239773D01*
X35067204Y-152215504D01*
X35066000Y-152191000D01*
X35066000Y-151266000D01*
X35067204Y-151241496D01*
X35070804Y-151217227D01*
X35076765Y-151193429D01*
X35085030Y-151170329D01*
X35095520Y-151148151D01*
X35108133Y-151127107D01*
X35122747Y-151107402D01*
X35139223Y-151089223D01*
X35157402Y-151072747D01*
X35177107Y-151058133D01*
X35198151Y-151045520D01*
X35220329Y-151035030D01*
X35243429Y-151026765D01*
X35267227Y-151020804D01*
X35291496Y-151017204D01*
X35316000Y-151016000D01*
X36566000Y-151016000D01*
X36590504Y-151017204D01*
X36590504Y-151017204D01*
G37*
D11*
X35941000Y-151728500D03*
G04 #@! TD*
D10*
G04 #@! TO.C,C6*
G36*
X92770965Y-71008204D02*
X92795234Y-71011804D01*
X92819032Y-71017765D01*
X92842132Y-71026030D01*
X92864310Y-71036520D01*
X92885354Y-71049133D01*
X92905059Y-71063747D01*
X92923238Y-71080223D01*
X92939714Y-71098402D01*
X92954328Y-71118107D01*
X92966941Y-71139151D01*
X92977431Y-71161329D01*
X92985696Y-71184429D01*
X92991657Y-71208227D01*
X92995257Y-71232496D01*
X92996461Y-71257000D01*
X92996461Y-72507000D01*
X92995257Y-72531504D01*
X92991657Y-72555773D01*
X92985696Y-72579571D01*
X92977431Y-72602671D01*
X92966941Y-72624849D01*
X92954328Y-72645893D01*
X92939714Y-72665598D01*
X92923238Y-72683777D01*
X92905059Y-72700253D01*
X92885354Y-72714867D01*
X92864310Y-72727480D01*
X92842132Y-72737970D01*
X92819032Y-72746235D01*
X92795234Y-72752196D01*
X92770965Y-72755796D01*
X92746461Y-72757000D01*
X91821461Y-72757000D01*
X91796957Y-72755796D01*
X91772688Y-72752196D01*
X91748890Y-72746235D01*
X91725790Y-72737970D01*
X91703612Y-72727480D01*
X91682568Y-72714867D01*
X91662863Y-72700253D01*
X91644684Y-72683777D01*
X91628208Y-72665598D01*
X91613594Y-72645893D01*
X91600981Y-72624849D01*
X91590491Y-72602671D01*
X91582226Y-72579571D01*
X91576265Y-72555773D01*
X91572665Y-72531504D01*
X91571461Y-72507000D01*
X91571461Y-71257000D01*
X91572665Y-71232496D01*
X91576265Y-71208227D01*
X91582226Y-71184429D01*
X91590491Y-71161329D01*
X91600981Y-71139151D01*
X91613594Y-71118107D01*
X91628208Y-71098402D01*
X91644684Y-71080223D01*
X91662863Y-71063747D01*
X91682568Y-71049133D01*
X91703612Y-71036520D01*
X91725790Y-71026030D01*
X91748890Y-71017765D01*
X91772688Y-71011804D01*
X91796957Y-71008204D01*
X91821461Y-71007000D01*
X92746461Y-71007000D01*
X92770965Y-71008204D01*
X92770965Y-71008204D01*
G37*
D11*
X92283961Y-71882000D03*
D10*
G36*
X89795965Y-71008204D02*
X89820234Y-71011804D01*
X89844032Y-71017765D01*
X89867132Y-71026030D01*
X89889310Y-71036520D01*
X89910354Y-71049133D01*
X89930059Y-71063747D01*
X89948238Y-71080223D01*
X89964714Y-71098402D01*
X89979328Y-71118107D01*
X89991941Y-71139151D01*
X90002431Y-71161329D01*
X90010696Y-71184429D01*
X90016657Y-71208227D01*
X90020257Y-71232496D01*
X90021461Y-71257000D01*
X90021461Y-72507000D01*
X90020257Y-72531504D01*
X90016657Y-72555773D01*
X90010696Y-72579571D01*
X90002431Y-72602671D01*
X89991941Y-72624849D01*
X89979328Y-72645893D01*
X89964714Y-72665598D01*
X89948238Y-72683777D01*
X89930059Y-72700253D01*
X89910354Y-72714867D01*
X89889310Y-72727480D01*
X89867132Y-72737970D01*
X89844032Y-72746235D01*
X89820234Y-72752196D01*
X89795965Y-72755796D01*
X89771461Y-72757000D01*
X88846461Y-72757000D01*
X88821957Y-72755796D01*
X88797688Y-72752196D01*
X88773890Y-72746235D01*
X88750790Y-72737970D01*
X88728612Y-72727480D01*
X88707568Y-72714867D01*
X88687863Y-72700253D01*
X88669684Y-72683777D01*
X88653208Y-72665598D01*
X88638594Y-72645893D01*
X88625981Y-72624849D01*
X88615491Y-72602671D01*
X88607226Y-72579571D01*
X88601265Y-72555773D01*
X88597665Y-72531504D01*
X88596461Y-72507000D01*
X88596461Y-71257000D01*
X88597665Y-71232496D01*
X88601265Y-71208227D01*
X88607226Y-71184429D01*
X88615491Y-71161329D01*
X88625981Y-71139151D01*
X88638594Y-71118107D01*
X88653208Y-71098402D01*
X88669684Y-71080223D01*
X88687863Y-71063747D01*
X88707568Y-71049133D01*
X88728612Y-71036520D01*
X88750790Y-71026030D01*
X88773890Y-71017765D01*
X88797688Y-71011804D01*
X88821957Y-71008204D01*
X88846461Y-71007000D01*
X89771461Y-71007000D01*
X89795965Y-71008204D01*
X89795965Y-71008204D01*
G37*
D11*
X89308961Y-71882000D03*
G04 #@! TD*
D10*
G04 #@! TO.C,C5*
G36*
X53354504Y-46750204D02*
X53378773Y-46753804D01*
X53402571Y-46759765D01*
X53425671Y-46768030D01*
X53447849Y-46778520D01*
X53468893Y-46791133D01*
X53488598Y-46805747D01*
X53506777Y-46822223D01*
X53523253Y-46840402D01*
X53537867Y-46860107D01*
X53550480Y-46881151D01*
X53560970Y-46903329D01*
X53569235Y-46926429D01*
X53575196Y-46950227D01*
X53578796Y-46974496D01*
X53580000Y-46999000D01*
X53580000Y-47924000D01*
X53578796Y-47948504D01*
X53575196Y-47972773D01*
X53569235Y-47996571D01*
X53560970Y-48019671D01*
X53550480Y-48041849D01*
X53537867Y-48062893D01*
X53523253Y-48082598D01*
X53506777Y-48100777D01*
X53488598Y-48117253D01*
X53468893Y-48131867D01*
X53447849Y-48144480D01*
X53425671Y-48154970D01*
X53402571Y-48163235D01*
X53378773Y-48169196D01*
X53354504Y-48172796D01*
X53330000Y-48174000D01*
X52080000Y-48174000D01*
X52055496Y-48172796D01*
X52031227Y-48169196D01*
X52007429Y-48163235D01*
X51984329Y-48154970D01*
X51962151Y-48144480D01*
X51941107Y-48131867D01*
X51921402Y-48117253D01*
X51903223Y-48100777D01*
X51886747Y-48082598D01*
X51872133Y-48062893D01*
X51859520Y-48041849D01*
X51849030Y-48019671D01*
X51840765Y-47996571D01*
X51834804Y-47972773D01*
X51831204Y-47948504D01*
X51830000Y-47924000D01*
X51830000Y-46999000D01*
X51831204Y-46974496D01*
X51834804Y-46950227D01*
X51840765Y-46926429D01*
X51849030Y-46903329D01*
X51859520Y-46881151D01*
X51872133Y-46860107D01*
X51886747Y-46840402D01*
X51903223Y-46822223D01*
X51921402Y-46805747D01*
X51941107Y-46791133D01*
X51962151Y-46778520D01*
X51984329Y-46768030D01*
X52007429Y-46759765D01*
X52031227Y-46753804D01*
X52055496Y-46750204D01*
X52080000Y-46749000D01*
X53330000Y-46749000D01*
X53354504Y-46750204D01*
X53354504Y-46750204D01*
G37*
D11*
X52705000Y-47461500D03*
D10*
G36*
X53354504Y-43775204D02*
X53378773Y-43778804D01*
X53402571Y-43784765D01*
X53425671Y-43793030D01*
X53447849Y-43803520D01*
X53468893Y-43816133D01*
X53488598Y-43830747D01*
X53506777Y-43847223D01*
X53523253Y-43865402D01*
X53537867Y-43885107D01*
X53550480Y-43906151D01*
X53560970Y-43928329D01*
X53569235Y-43951429D01*
X53575196Y-43975227D01*
X53578796Y-43999496D01*
X53580000Y-44024000D01*
X53580000Y-44949000D01*
X53578796Y-44973504D01*
X53575196Y-44997773D01*
X53569235Y-45021571D01*
X53560970Y-45044671D01*
X53550480Y-45066849D01*
X53537867Y-45087893D01*
X53523253Y-45107598D01*
X53506777Y-45125777D01*
X53488598Y-45142253D01*
X53468893Y-45156867D01*
X53447849Y-45169480D01*
X53425671Y-45179970D01*
X53402571Y-45188235D01*
X53378773Y-45194196D01*
X53354504Y-45197796D01*
X53330000Y-45199000D01*
X52080000Y-45199000D01*
X52055496Y-45197796D01*
X52031227Y-45194196D01*
X52007429Y-45188235D01*
X51984329Y-45179970D01*
X51962151Y-45169480D01*
X51941107Y-45156867D01*
X51921402Y-45142253D01*
X51903223Y-45125777D01*
X51886747Y-45107598D01*
X51872133Y-45087893D01*
X51859520Y-45066849D01*
X51849030Y-45044671D01*
X51840765Y-45021571D01*
X51834804Y-44997773D01*
X51831204Y-44973504D01*
X51830000Y-44949000D01*
X51830000Y-44024000D01*
X51831204Y-43999496D01*
X51834804Y-43975227D01*
X51840765Y-43951429D01*
X51849030Y-43928329D01*
X51859520Y-43906151D01*
X51872133Y-43885107D01*
X51886747Y-43865402D01*
X51903223Y-43847223D01*
X51921402Y-43830747D01*
X51941107Y-43816133D01*
X51962151Y-43803520D01*
X51984329Y-43793030D01*
X52007429Y-43784765D01*
X52031227Y-43778804D01*
X52055496Y-43775204D01*
X52080000Y-43774000D01*
X53330000Y-43774000D01*
X53354504Y-43775204D01*
X53354504Y-43775204D01*
G37*
D11*
X52705000Y-44486500D03*
G04 #@! TD*
D10*
G04 #@! TO.C,R26*
G36*
X89795965Y-77465409D02*
X89820234Y-77469009D01*
X89844032Y-77474970D01*
X89867132Y-77483235D01*
X89889310Y-77493725D01*
X89910354Y-77506338D01*
X89930059Y-77520952D01*
X89948238Y-77537428D01*
X89964714Y-77555607D01*
X89979328Y-77575312D01*
X89991941Y-77596356D01*
X90002431Y-77618534D01*
X90010696Y-77641634D01*
X90016657Y-77665432D01*
X90020257Y-77689701D01*
X90021461Y-77714205D01*
X90021461Y-78964205D01*
X90020257Y-78988709D01*
X90016657Y-79012978D01*
X90010696Y-79036776D01*
X90002431Y-79059876D01*
X89991941Y-79082054D01*
X89979328Y-79103098D01*
X89964714Y-79122803D01*
X89948238Y-79140982D01*
X89930059Y-79157458D01*
X89910354Y-79172072D01*
X89889310Y-79184685D01*
X89867132Y-79195175D01*
X89844032Y-79203440D01*
X89820234Y-79209401D01*
X89795965Y-79213001D01*
X89771461Y-79214205D01*
X88846461Y-79214205D01*
X88821957Y-79213001D01*
X88797688Y-79209401D01*
X88773890Y-79203440D01*
X88750790Y-79195175D01*
X88728612Y-79184685D01*
X88707568Y-79172072D01*
X88687863Y-79157458D01*
X88669684Y-79140982D01*
X88653208Y-79122803D01*
X88638594Y-79103098D01*
X88625981Y-79082054D01*
X88615491Y-79059876D01*
X88607226Y-79036776D01*
X88601265Y-79012978D01*
X88597665Y-78988709D01*
X88596461Y-78964205D01*
X88596461Y-77714205D01*
X88597665Y-77689701D01*
X88601265Y-77665432D01*
X88607226Y-77641634D01*
X88615491Y-77618534D01*
X88625981Y-77596356D01*
X88638594Y-77575312D01*
X88653208Y-77555607D01*
X88669684Y-77537428D01*
X88687863Y-77520952D01*
X88707568Y-77506338D01*
X88728612Y-77493725D01*
X88750790Y-77483235D01*
X88773890Y-77474970D01*
X88797688Y-77469009D01*
X88821957Y-77465409D01*
X88846461Y-77464205D01*
X89771461Y-77464205D01*
X89795965Y-77465409D01*
X89795965Y-77465409D01*
G37*
D11*
X89308961Y-78339205D03*
D10*
G36*
X92770965Y-77465409D02*
X92795234Y-77469009D01*
X92819032Y-77474970D01*
X92842132Y-77483235D01*
X92864310Y-77493725D01*
X92885354Y-77506338D01*
X92905059Y-77520952D01*
X92923238Y-77537428D01*
X92939714Y-77555607D01*
X92954328Y-77575312D01*
X92966941Y-77596356D01*
X92977431Y-77618534D01*
X92985696Y-77641634D01*
X92991657Y-77665432D01*
X92995257Y-77689701D01*
X92996461Y-77714205D01*
X92996461Y-78964205D01*
X92995257Y-78988709D01*
X92991657Y-79012978D01*
X92985696Y-79036776D01*
X92977431Y-79059876D01*
X92966941Y-79082054D01*
X92954328Y-79103098D01*
X92939714Y-79122803D01*
X92923238Y-79140982D01*
X92905059Y-79157458D01*
X92885354Y-79172072D01*
X92864310Y-79184685D01*
X92842132Y-79195175D01*
X92819032Y-79203440D01*
X92795234Y-79209401D01*
X92770965Y-79213001D01*
X92746461Y-79214205D01*
X91821461Y-79214205D01*
X91796957Y-79213001D01*
X91772688Y-79209401D01*
X91748890Y-79203440D01*
X91725790Y-79195175D01*
X91703612Y-79184685D01*
X91682568Y-79172072D01*
X91662863Y-79157458D01*
X91644684Y-79140982D01*
X91628208Y-79122803D01*
X91613594Y-79103098D01*
X91600981Y-79082054D01*
X91590491Y-79059876D01*
X91582226Y-79036776D01*
X91576265Y-79012978D01*
X91572665Y-78988709D01*
X91571461Y-78964205D01*
X91571461Y-77714205D01*
X91572665Y-77689701D01*
X91576265Y-77665432D01*
X91582226Y-77641634D01*
X91590491Y-77618534D01*
X91600981Y-77596356D01*
X91613594Y-77575312D01*
X91628208Y-77555607D01*
X91644684Y-77537428D01*
X91662863Y-77520952D01*
X91682568Y-77506338D01*
X91703612Y-77493725D01*
X91725790Y-77483235D01*
X91748890Y-77474970D01*
X91772688Y-77469009D01*
X91796957Y-77465409D01*
X91821461Y-77464205D01*
X92746461Y-77464205D01*
X92770965Y-77465409D01*
X92770965Y-77465409D01*
G37*
D11*
X92283961Y-78339205D03*
G04 #@! TD*
D10*
G04 #@! TO.C,R25*
G36*
X83581504Y-97106704D02*
X83605773Y-97110304D01*
X83629571Y-97116265D01*
X83652671Y-97124530D01*
X83674849Y-97135020D01*
X83695893Y-97147633D01*
X83715598Y-97162247D01*
X83733777Y-97178723D01*
X83750253Y-97196902D01*
X83764867Y-97216607D01*
X83777480Y-97237651D01*
X83787970Y-97259829D01*
X83796235Y-97282929D01*
X83802196Y-97306727D01*
X83805796Y-97330996D01*
X83807000Y-97355500D01*
X83807000Y-98605500D01*
X83805796Y-98630004D01*
X83802196Y-98654273D01*
X83796235Y-98678071D01*
X83787970Y-98701171D01*
X83777480Y-98723349D01*
X83764867Y-98744393D01*
X83750253Y-98764098D01*
X83733777Y-98782277D01*
X83715598Y-98798753D01*
X83695893Y-98813367D01*
X83674849Y-98825980D01*
X83652671Y-98836470D01*
X83629571Y-98844735D01*
X83605773Y-98850696D01*
X83581504Y-98854296D01*
X83557000Y-98855500D01*
X82632000Y-98855500D01*
X82607496Y-98854296D01*
X82583227Y-98850696D01*
X82559429Y-98844735D01*
X82536329Y-98836470D01*
X82514151Y-98825980D01*
X82493107Y-98813367D01*
X82473402Y-98798753D01*
X82455223Y-98782277D01*
X82438747Y-98764098D01*
X82424133Y-98744393D01*
X82411520Y-98723349D01*
X82401030Y-98701171D01*
X82392765Y-98678071D01*
X82386804Y-98654273D01*
X82383204Y-98630004D01*
X82382000Y-98605500D01*
X82382000Y-97355500D01*
X82383204Y-97330996D01*
X82386804Y-97306727D01*
X82392765Y-97282929D01*
X82401030Y-97259829D01*
X82411520Y-97237651D01*
X82424133Y-97216607D01*
X82438747Y-97196902D01*
X82455223Y-97178723D01*
X82473402Y-97162247D01*
X82493107Y-97147633D01*
X82514151Y-97135020D01*
X82536329Y-97124530D01*
X82559429Y-97116265D01*
X82583227Y-97110304D01*
X82607496Y-97106704D01*
X82632000Y-97105500D01*
X83557000Y-97105500D01*
X83581504Y-97106704D01*
X83581504Y-97106704D01*
G37*
D11*
X83094500Y-97980500D03*
D10*
G36*
X86556504Y-97106704D02*
X86580773Y-97110304D01*
X86604571Y-97116265D01*
X86627671Y-97124530D01*
X86649849Y-97135020D01*
X86670893Y-97147633D01*
X86690598Y-97162247D01*
X86708777Y-97178723D01*
X86725253Y-97196902D01*
X86739867Y-97216607D01*
X86752480Y-97237651D01*
X86762970Y-97259829D01*
X86771235Y-97282929D01*
X86777196Y-97306727D01*
X86780796Y-97330996D01*
X86782000Y-97355500D01*
X86782000Y-98605500D01*
X86780796Y-98630004D01*
X86777196Y-98654273D01*
X86771235Y-98678071D01*
X86762970Y-98701171D01*
X86752480Y-98723349D01*
X86739867Y-98744393D01*
X86725253Y-98764098D01*
X86708777Y-98782277D01*
X86690598Y-98798753D01*
X86670893Y-98813367D01*
X86649849Y-98825980D01*
X86627671Y-98836470D01*
X86604571Y-98844735D01*
X86580773Y-98850696D01*
X86556504Y-98854296D01*
X86532000Y-98855500D01*
X85607000Y-98855500D01*
X85582496Y-98854296D01*
X85558227Y-98850696D01*
X85534429Y-98844735D01*
X85511329Y-98836470D01*
X85489151Y-98825980D01*
X85468107Y-98813367D01*
X85448402Y-98798753D01*
X85430223Y-98782277D01*
X85413747Y-98764098D01*
X85399133Y-98744393D01*
X85386520Y-98723349D01*
X85376030Y-98701171D01*
X85367765Y-98678071D01*
X85361804Y-98654273D01*
X85358204Y-98630004D01*
X85357000Y-98605500D01*
X85357000Y-97355500D01*
X85358204Y-97330996D01*
X85361804Y-97306727D01*
X85367765Y-97282929D01*
X85376030Y-97259829D01*
X85386520Y-97237651D01*
X85399133Y-97216607D01*
X85413747Y-97196902D01*
X85430223Y-97178723D01*
X85448402Y-97162247D01*
X85468107Y-97147633D01*
X85489151Y-97135020D01*
X85511329Y-97124530D01*
X85534429Y-97116265D01*
X85558227Y-97110304D01*
X85582496Y-97106704D01*
X85607000Y-97105500D01*
X86532000Y-97105500D01*
X86556504Y-97106704D01*
X86556504Y-97106704D01*
G37*
D11*
X86069500Y-97980500D03*
G04 #@! TD*
D10*
G04 #@! TO.C,R24*
G36*
X83608504Y-94312704D02*
X83632773Y-94316304D01*
X83656571Y-94322265D01*
X83679671Y-94330530D01*
X83701849Y-94341020D01*
X83722893Y-94353633D01*
X83742598Y-94368247D01*
X83760777Y-94384723D01*
X83777253Y-94402902D01*
X83791867Y-94422607D01*
X83804480Y-94443651D01*
X83814970Y-94465829D01*
X83823235Y-94488929D01*
X83829196Y-94512727D01*
X83832796Y-94536996D01*
X83834000Y-94561500D01*
X83834000Y-95811500D01*
X83832796Y-95836004D01*
X83829196Y-95860273D01*
X83823235Y-95884071D01*
X83814970Y-95907171D01*
X83804480Y-95929349D01*
X83791867Y-95950393D01*
X83777253Y-95970098D01*
X83760777Y-95988277D01*
X83742598Y-96004753D01*
X83722893Y-96019367D01*
X83701849Y-96031980D01*
X83679671Y-96042470D01*
X83656571Y-96050735D01*
X83632773Y-96056696D01*
X83608504Y-96060296D01*
X83584000Y-96061500D01*
X82659000Y-96061500D01*
X82634496Y-96060296D01*
X82610227Y-96056696D01*
X82586429Y-96050735D01*
X82563329Y-96042470D01*
X82541151Y-96031980D01*
X82520107Y-96019367D01*
X82500402Y-96004753D01*
X82482223Y-95988277D01*
X82465747Y-95970098D01*
X82451133Y-95950393D01*
X82438520Y-95929349D01*
X82428030Y-95907171D01*
X82419765Y-95884071D01*
X82413804Y-95860273D01*
X82410204Y-95836004D01*
X82409000Y-95811500D01*
X82409000Y-94561500D01*
X82410204Y-94536996D01*
X82413804Y-94512727D01*
X82419765Y-94488929D01*
X82428030Y-94465829D01*
X82438520Y-94443651D01*
X82451133Y-94422607D01*
X82465747Y-94402902D01*
X82482223Y-94384723D01*
X82500402Y-94368247D01*
X82520107Y-94353633D01*
X82541151Y-94341020D01*
X82563329Y-94330530D01*
X82586429Y-94322265D01*
X82610227Y-94316304D01*
X82634496Y-94312704D01*
X82659000Y-94311500D01*
X83584000Y-94311500D01*
X83608504Y-94312704D01*
X83608504Y-94312704D01*
G37*
D11*
X83121500Y-95186500D03*
D10*
G36*
X86583504Y-94312704D02*
X86607773Y-94316304D01*
X86631571Y-94322265D01*
X86654671Y-94330530D01*
X86676849Y-94341020D01*
X86697893Y-94353633D01*
X86717598Y-94368247D01*
X86735777Y-94384723D01*
X86752253Y-94402902D01*
X86766867Y-94422607D01*
X86779480Y-94443651D01*
X86789970Y-94465829D01*
X86798235Y-94488929D01*
X86804196Y-94512727D01*
X86807796Y-94536996D01*
X86809000Y-94561500D01*
X86809000Y-95811500D01*
X86807796Y-95836004D01*
X86804196Y-95860273D01*
X86798235Y-95884071D01*
X86789970Y-95907171D01*
X86779480Y-95929349D01*
X86766867Y-95950393D01*
X86752253Y-95970098D01*
X86735777Y-95988277D01*
X86717598Y-96004753D01*
X86697893Y-96019367D01*
X86676849Y-96031980D01*
X86654671Y-96042470D01*
X86631571Y-96050735D01*
X86607773Y-96056696D01*
X86583504Y-96060296D01*
X86559000Y-96061500D01*
X85634000Y-96061500D01*
X85609496Y-96060296D01*
X85585227Y-96056696D01*
X85561429Y-96050735D01*
X85538329Y-96042470D01*
X85516151Y-96031980D01*
X85495107Y-96019367D01*
X85475402Y-96004753D01*
X85457223Y-95988277D01*
X85440747Y-95970098D01*
X85426133Y-95950393D01*
X85413520Y-95929349D01*
X85403030Y-95907171D01*
X85394765Y-95884071D01*
X85388804Y-95860273D01*
X85385204Y-95836004D01*
X85384000Y-95811500D01*
X85384000Y-94561500D01*
X85385204Y-94536996D01*
X85388804Y-94512727D01*
X85394765Y-94488929D01*
X85403030Y-94465829D01*
X85413520Y-94443651D01*
X85426133Y-94422607D01*
X85440747Y-94402902D01*
X85457223Y-94384723D01*
X85475402Y-94368247D01*
X85495107Y-94353633D01*
X85516151Y-94341020D01*
X85538329Y-94330530D01*
X85561429Y-94322265D01*
X85585227Y-94316304D01*
X85609496Y-94312704D01*
X85634000Y-94311500D01*
X86559000Y-94311500D01*
X86583504Y-94312704D01*
X86583504Y-94312704D01*
G37*
D11*
X86096500Y-95186500D03*
G04 #@! TD*
D10*
G04 #@! TO.C,R23*
G36*
X83581504Y-91518704D02*
X83605773Y-91522304D01*
X83629571Y-91528265D01*
X83652671Y-91536530D01*
X83674849Y-91547020D01*
X83695893Y-91559633D01*
X83715598Y-91574247D01*
X83733777Y-91590723D01*
X83750253Y-91608902D01*
X83764867Y-91628607D01*
X83777480Y-91649651D01*
X83787970Y-91671829D01*
X83796235Y-91694929D01*
X83802196Y-91718727D01*
X83805796Y-91742996D01*
X83807000Y-91767500D01*
X83807000Y-93017500D01*
X83805796Y-93042004D01*
X83802196Y-93066273D01*
X83796235Y-93090071D01*
X83787970Y-93113171D01*
X83777480Y-93135349D01*
X83764867Y-93156393D01*
X83750253Y-93176098D01*
X83733777Y-93194277D01*
X83715598Y-93210753D01*
X83695893Y-93225367D01*
X83674849Y-93237980D01*
X83652671Y-93248470D01*
X83629571Y-93256735D01*
X83605773Y-93262696D01*
X83581504Y-93266296D01*
X83557000Y-93267500D01*
X82632000Y-93267500D01*
X82607496Y-93266296D01*
X82583227Y-93262696D01*
X82559429Y-93256735D01*
X82536329Y-93248470D01*
X82514151Y-93237980D01*
X82493107Y-93225367D01*
X82473402Y-93210753D01*
X82455223Y-93194277D01*
X82438747Y-93176098D01*
X82424133Y-93156393D01*
X82411520Y-93135349D01*
X82401030Y-93113171D01*
X82392765Y-93090071D01*
X82386804Y-93066273D01*
X82383204Y-93042004D01*
X82382000Y-93017500D01*
X82382000Y-91767500D01*
X82383204Y-91742996D01*
X82386804Y-91718727D01*
X82392765Y-91694929D01*
X82401030Y-91671829D01*
X82411520Y-91649651D01*
X82424133Y-91628607D01*
X82438747Y-91608902D01*
X82455223Y-91590723D01*
X82473402Y-91574247D01*
X82493107Y-91559633D01*
X82514151Y-91547020D01*
X82536329Y-91536530D01*
X82559429Y-91528265D01*
X82583227Y-91522304D01*
X82607496Y-91518704D01*
X82632000Y-91517500D01*
X83557000Y-91517500D01*
X83581504Y-91518704D01*
X83581504Y-91518704D01*
G37*
D11*
X83094500Y-92392500D03*
D10*
G36*
X86556504Y-91518704D02*
X86580773Y-91522304D01*
X86604571Y-91528265D01*
X86627671Y-91536530D01*
X86649849Y-91547020D01*
X86670893Y-91559633D01*
X86690598Y-91574247D01*
X86708777Y-91590723D01*
X86725253Y-91608902D01*
X86739867Y-91628607D01*
X86752480Y-91649651D01*
X86762970Y-91671829D01*
X86771235Y-91694929D01*
X86777196Y-91718727D01*
X86780796Y-91742996D01*
X86782000Y-91767500D01*
X86782000Y-93017500D01*
X86780796Y-93042004D01*
X86777196Y-93066273D01*
X86771235Y-93090071D01*
X86762970Y-93113171D01*
X86752480Y-93135349D01*
X86739867Y-93156393D01*
X86725253Y-93176098D01*
X86708777Y-93194277D01*
X86690598Y-93210753D01*
X86670893Y-93225367D01*
X86649849Y-93237980D01*
X86627671Y-93248470D01*
X86604571Y-93256735D01*
X86580773Y-93262696D01*
X86556504Y-93266296D01*
X86532000Y-93267500D01*
X85607000Y-93267500D01*
X85582496Y-93266296D01*
X85558227Y-93262696D01*
X85534429Y-93256735D01*
X85511329Y-93248470D01*
X85489151Y-93237980D01*
X85468107Y-93225367D01*
X85448402Y-93210753D01*
X85430223Y-93194277D01*
X85413747Y-93176098D01*
X85399133Y-93156393D01*
X85386520Y-93135349D01*
X85376030Y-93113171D01*
X85367765Y-93090071D01*
X85361804Y-93066273D01*
X85358204Y-93042004D01*
X85357000Y-93017500D01*
X85357000Y-91767500D01*
X85358204Y-91742996D01*
X85361804Y-91718727D01*
X85367765Y-91694929D01*
X85376030Y-91671829D01*
X85386520Y-91649651D01*
X85399133Y-91628607D01*
X85413747Y-91608902D01*
X85430223Y-91590723D01*
X85448402Y-91574247D01*
X85468107Y-91559633D01*
X85489151Y-91547020D01*
X85511329Y-91536530D01*
X85534429Y-91528265D01*
X85558227Y-91522304D01*
X85582496Y-91518704D01*
X85607000Y-91517500D01*
X86532000Y-91517500D01*
X86556504Y-91518704D01*
X86556504Y-91518704D01*
G37*
D11*
X86069500Y-92392500D03*
G04 #@! TD*
D14*
G04 #@! TO.C,U16*
X55687000Y-141986000D03*
X65217000Y-144526000D03*
X55687000Y-144526000D03*
X65217000Y-141986000D03*
G04 #@! TD*
D10*
G04 #@! TO.C,R22*
G36*
X62426504Y-146446204D02*
X62450773Y-146449804D01*
X62474571Y-146455765D01*
X62497671Y-146464030D01*
X62519849Y-146474520D01*
X62540893Y-146487133D01*
X62560598Y-146501747D01*
X62578777Y-146518223D01*
X62595253Y-146536402D01*
X62609867Y-146556107D01*
X62622480Y-146577151D01*
X62632970Y-146599329D01*
X62641235Y-146622429D01*
X62647196Y-146646227D01*
X62650796Y-146670496D01*
X62652000Y-146695000D01*
X62652000Y-147945000D01*
X62650796Y-147969504D01*
X62647196Y-147993773D01*
X62641235Y-148017571D01*
X62632970Y-148040671D01*
X62622480Y-148062849D01*
X62609867Y-148083893D01*
X62595253Y-148103598D01*
X62578777Y-148121777D01*
X62560598Y-148138253D01*
X62540893Y-148152867D01*
X62519849Y-148165480D01*
X62497671Y-148175970D01*
X62474571Y-148184235D01*
X62450773Y-148190196D01*
X62426504Y-148193796D01*
X62402000Y-148195000D01*
X61477000Y-148195000D01*
X61452496Y-148193796D01*
X61428227Y-148190196D01*
X61404429Y-148184235D01*
X61381329Y-148175970D01*
X61359151Y-148165480D01*
X61338107Y-148152867D01*
X61318402Y-148138253D01*
X61300223Y-148121777D01*
X61283747Y-148103598D01*
X61269133Y-148083893D01*
X61256520Y-148062849D01*
X61246030Y-148040671D01*
X61237765Y-148017571D01*
X61231804Y-147993773D01*
X61228204Y-147969504D01*
X61227000Y-147945000D01*
X61227000Y-146695000D01*
X61228204Y-146670496D01*
X61231804Y-146646227D01*
X61237765Y-146622429D01*
X61246030Y-146599329D01*
X61256520Y-146577151D01*
X61269133Y-146556107D01*
X61283747Y-146536402D01*
X61300223Y-146518223D01*
X61318402Y-146501747D01*
X61338107Y-146487133D01*
X61359151Y-146474520D01*
X61381329Y-146464030D01*
X61404429Y-146455765D01*
X61428227Y-146449804D01*
X61452496Y-146446204D01*
X61477000Y-146445000D01*
X62402000Y-146445000D01*
X62426504Y-146446204D01*
X62426504Y-146446204D01*
G37*
D11*
X61939500Y-147320000D03*
D10*
G36*
X59451504Y-146446204D02*
X59475773Y-146449804D01*
X59499571Y-146455765D01*
X59522671Y-146464030D01*
X59544849Y-146474520D01*
X59565893Y-146487133D01*
X59585598Y-146501747D01*
X59603777Y-146518223D01*
X59620253Y-146536402D01*
X59634867Y-146556107D01*
X59647480Y-146577151D01*
X59657970Y-146599329D01*
X59666235Y-146622429D01*
X59672196Y-146646227D01*
X59675796Y-146670496D01*
X59677000Y-146695000D01*
X59677000Y-147945000D01*
X59675796Y-147969504D01*
X59672196Y-147993773D01*
X59666235Y-148017571D01*
X59657970Y-148040671D01*
X59647480Y-148062849D01*
X59634867Y-148083893D01*
X59620253Y-148103598D01*
X59603777Y-148121777D01*
X59585598Y-148138253D01*
X59565893Y-148152867D01*
X59544849Y-148165480D01*
X59522671Y-148175970D01*
X59499571Y-148184235D01*
X59475773Y-148190196D01*
X59451504Y-148193796D01*
X59427000Y-148195000D01*
X58502000Y-148195000D01*
X58477496Y-148193796D01*
X58453227Y-148190196D01*
X58429429Y-148184235D01*
X58406329Y-148175970D01*
X58384151Y-148165480D01*
X58363107Y-148152867D01*
X58343402Y-148138253D01*
X58325223Y-148121777D01*
X58308747Y-148103598D01*
X58294133Y-148083893D01*
X58281520Y-148062849D01*
X58271030Y-148040671D01*
X58262765Y-148017571D01*
X58256804Y-147993773D01*
X58253204Y-147969504D01*
X58252000Y-147945000D01*
X58252000Y-146695000D01*
X58253204Y-146670496D01*
X58256804Y-146646227D01*
X58262765Y-146622429D01*
X58271030Y-146599329D01*
X58281520Y-146577151D01*
X58294133Y-146556107D01*
X58308747Y-146536402D01*
X58325223Y-146518223D01*
X58343402Y-146501747D01*
X58363107Y-146487133D01*
X58384151Y-146474520D01*
X58406329Y-146464030D01*
X58429429Y-146455765D01*
X58453227Y-146449804D01*
X58477496Y-146446204D01*
X58502000Y-146445000D01*
X59427000Y-146445000D01*
X59451504Y-146446204D01*
X59451504Y-146446204D01*
G37*
D11*
X58964500Y-147320000D03*
G04 #@! TD*
D10*
G04 #@! TO.C,R21*
G36*
X92770965Y-74544409D02*
X92795234Y-74548009D01*
X92819032Y-74553970D01*
X92842132Y-74562235D01*
X92864310Y-74572725D01*
X92885354Y-74585338D01*
X92905059Y-74599952D01*
X92923238Y-74616428D01*
X92939714Y-74634607D01*
X92954328Y-74654312D01*
X92966941Y-74675356D01*
X92977431Y-74697534D01*
X92985696Y-74720634D01*
X92991657Y-74744432D01*
X92995257Y-74768701D01*
X92996461Y-74793205D01*
X92996461Y-76043205D01*
X92995257Y-76067709D01*
X92991657Y-76091978D01*
X92985696Y-76115776D01*
X92977431Y-76138876D01*
X92966941Y-76161054D01*
X92954328Y-76182098D01*
X92939714Y-76201803D01*
X92923238Y-76219982D01*
X92905059Y-76236458D01*
X92885354Y-76251072D01*
X92864310Y-76263685D01*
X92842132Y-76274175D01*
X92819032Y-76282440D01*
X92795234Y-76288401D01*
X92770965Y-76292001D01*
X92746461Y-76293205D01*
X91821461Y-76293205D01*
X91796957Y-76292001D01*
X91772688Y-76288401D01*
X91748890Y-76282440D01*
X91725790Y-76274175D01*
X91703612Y-76263685D01*
X91682568Y-76251072D01*
X91662863Y-76236458D01*
X91644684Y-76219982D01*
X91628208Y-76201803D01*
X91613594Y-76182098D01*
X91600981Y-76161054D01*
X91590491Y-76138876D01*
X91582226Y-76115776D01*
X91576265Y-76091978D01*
X91572665Y-76067709D01*
X91571461Y-76043205D01*
X91571461Y-74793205D01*
X91572665Y-74768701D01*
X91576265Y-74744432D01*
X91582226Y-74720634D01*
X91590491Y-74697534D01*
X91600981Y-74675356D01*
X91613594Y-74654312D01*
X91628208Y-74634607D01*
X91644684Y-74616428D01*
X91662863Y-74599952D01*
X91682568Y-74585338D01*
X91703612Y-74572725D01*
X91725790Y-74562235D01*
X91748890Y-74553970D01*
X91772688Y-74548009D01*
X91796957Y-74544409D01*
X91821461Y-74543205D01*
X92746461Y-74543205D01*
X92770965Y-74544409D01*
X92770965Y-74544409D01*
G37*
D11*
X92283961Y-75418205D03*
D10*
G36*
X89795965Y-74544409D02*
X89820234Y-74548009D01*
X89844032Y-74553970D01*
X89867132Y-74562235D01*
X89889310Y-74572725D01*
X89910354Y-74585338D01*
X89930059Y-74599952D01*
X89948238Y-74616428D01*
X89964714Y-74634607D01*
X89979328Y-74654312D01*
X89991941Y-74675356D01*
X90002431Y-74697534D01*
X90010696Y-74720634D01*
X90016657Y-74744432D01*
X90020257Y-74768701D01*
X90021461Y-74793205D01*
X90021461Y-76043205D01*
X90020257Y-76067709D01*
X90016657Y-76091978D01*
X90010696Y-76115776D01*
X90002431Y-76138876D01*
X89991941Y-76161054D01*
X89979328Y-76182098D01*
X89964714Y-76201803D01*
X89948238Y-76219982D01*
X89930059Y-76236458D01*
X89910354Y-76251072D01*
X89889310Y-76263685D01*
X89867132Y-76274175D01*
X89844032Y-76282440D01*
X89820234Y-76288401D01*
X89795965Y-76292001D01*
X89771461Y-76293205D01*
X88846461Y-76293205D01*
X88821957Y-76292001D01*
X88797688Y-76288401D01*
X88773890Y-76282440D01*
X88750790Y-76274175D01*
X88728612Y-76263685D01*
X88707568Y-76251072D01*
X88687863Y-76236458D01*
X88669684Y-76219982D01*
X88653208Y-76201803D01*
X88638594Y-76182098D01*
X88625981Y-76161054D01*
X88615491Y-76138876D01*
X88607226Y-76115776D01*
X88601265Y-76091978D01*
X88597665Y-76067709D01*
X88596461Y-76043205D01*
X88596461Y-74793205D01*
X88597665Y-74768701D01*
X88601265Y-74744432D01*
X88607226Y-74720634D01*
X88615491Y-74697534D01*
X88625981Y-74675356D01*
X88638594Y-74654312D01*
X88653208Y-74634607D01*
X88669684Y-74616428D01*
X88687863Y-74599952D01*
X88707568Y-74585338D01*
X88728612Y-74572725D01*
X88750790Y-74562235D01*
X88773890Y-74553970D01*
X88797688Y-74548009D01*
X88821957Y-74544409D01*
X88846461Y-74543205D01*
X89771461Y-74543205D01*
X89795965Y-74544409D01*
X89795965Y-74544409D01*
G37*
D11*
X89308961Y-75418205D03*
G04 #@! TD*
D10*
G04 #@! TO.C,R20*
G36*
X58870504Y-50180204D02*
X58894773Y-50183804D01*
X58918571Y-50189765D01*
X58941671Y-50198030D01*
X58963849Y-50208520D01*
X58984893Y-50221133D01*
X59004598Y-50235747D01*
X59022777Y-50252223D01*
X59039253Y-50270402D01*
X59053867Y-50290107D01*
X59066480Y-50311151D01*
X59076970Y-50333329D01*
X59085235Y-50356429D01*
X59091196Y-50380227D01*
X59094796Y-50404496D01*
X59096000Y-50429000D01*
X59096000Y-51679000D01*
X59094796Y-51703504D01*
X59091196Y-51727773D01*
X59085235Y-51751571D01*
X59076970Y-51774671D01*
X59066480Y-51796849D01*
X59053867Y-51817893D01*
X59039253Y-51837598D01*
X59022777Y-51855777D01*
X59004598Y-51872253D01*
X58984893Y-51886867D01*
X58963849Y-51899480D01*
X58941671Y-51909970D01*
X58918571Y-51918235D01*
X58894773Y-51924196D01*
X58870504Y-51927796D01*
X58846000Y-51929000D01*
X57921000Y-51929000D01*
X57896496Y-51927796D01*
X57872227Y-51924196D01*
X57848429Y-51918235D01*
X57825329Y-51909970D01*
X57803151Y-51899480D01*
X57782107Y-51886867D01*
X57762402Y-51872253D01*
X57744223Y-51855777D01*
X57727747Y-51837598D01*
X57713133Y-51817893D01*
X57700520Y-51796849D01*
X57690030Y-51774671D01*
X57681765Y-51751571D01*
X57675804Y-51727773D01*
X57672204Y-51703504D01*
X57671000Y-51679000D01*
X57671000Y-50429000D01*
X57672204Y-50404496D01*
X57675804Y-50380227D01*
X57681765Y-50356429D01*
X57690030Y-50333329D01*
X57700520Y-50311151D01*
X57713133Y-50290107D01*
X57727747Y-50270402D01*
X57744223Y-50252223D01*
X57762402Y-50235747D01*
X57782107Y-50221133D01*
X57803151Y-50208520D01*
X57825329Y-50198030D01*
X57848429Y-50189765D01*
X57872227Y-50183804D01*
X57896496Y-50180204D01*
X57921000Y-50179000D01*
X58846000Y-50179000D01*
X58870504Y-50180204D01*
X58870504Y-50180204D01*
G37*
D11*
X58383500Y-51054000D03*
D10*
G36*
X55895504Y-50180204D02*
X55919773Y-50183804D01*
X55943571Y-50189765D01*
X55966671Y-50198030D01*
X55988849Y-50208520D01*
X56009893Y-50221133D01*
X56029598Y-50235747D01*
X56047777Y-50252223D01*
X56064253Y-50270402D01*
X56078867Y-50290107D01*
X56091480Y-50311151D01*
X56101970Y-50333329D01*
X56110235Y-50356429D01*
X56116196Y-50380227D01*
X56119796Y-50404496D01*
X56121000Y-50429000D01*
X56121000Y-51679000D01*
X56119796Y-51703504D01*
X56116196Y-51727773D01*
X56110235Y-51751571D01*
X56101970Y-51774671D01*
X56091480Y-51796849D01*
X56078867Y-51817893D01*
X56064253Y-51837598D01*
X56047777Y-51855777D01*
X56029598Y-51872253D01*
X56009893Y-51886867D01*
X55988849Y-51899480D01*
X55966671Y-51909970D01*
X55943571Y-51918235D01*
X55919773Y-51924196D01*
X55895504Y-51927796D01*
X55871000Y-51929000D01*
X54946000Y-51929000D01*
X54921496Y-51927796D01*
X54897227Y-51924196D01*
X54873429Y-51918235D01*
X54850329Y-51909970D01*
X54828151Y-51899480D01*
X54807107Y-51886867D01*
X54787402Y-51872253D01*
X54769223Y-51855777D01*
X54752747Y-51837598D01*
X54738133Y-51817893D01*
X54725520Y-51796849D01*
X54715030Y-51774671D01*
X54706765Y-51751571D01*
X54700804Y-51727773D01*
X54697204Y-51703504D01*
X54696000Y-51679000D01*
X54696000Y-50429000D01*
X54697204Y-50404496D01*
X54700804Y-50380227D01*
X54706765Y-50356429D01*
X54715030Y-50333329D01*
X54725520Y-50311151D01*
X54738133Y-50290107D01*
X54752747Y-50270402D01*
X54769223Y-50252223D01*
X54787402Y-50235747D01*
X54807107Y-50221133D01*
X54828151Y-50208520D01*
X54850329Y-50198030D01*
X54873429Y-50189765D01*
X54897227Y-50183804D01*
X54921496Y-50180204D01*
X54946000Y-50179000D01*
X55871000Y-50179000D01*
X55895504Y-50180204D01*
X55895504Y-50180204D01*
G37*
D11*
X55408500Y-51054000D03*
G04 #@! TD*
D10*
G04 #@! TO.C,R19*
G36*
X54116504Y-76922204D02*
X54140773Y-76925804D01*
X54164571Y-76931765D01*
X54187671Y-76940030D01*
X54209849Y-76950520D01*
X54230893Y-76963133D01*
X54250598Y-76977747D01*
X54268777Y-76994223D01*
X54285253Y-77012402D01*
X54299867Y-77032107D01*
X54312480Y-77053151D01*
X54322970Y-77075329D01*
X54331235Y-77098429D01*
X54337196Y-77122227D01*
X54340796Y-77146496D01*
X54342000Y-77171000D01*
X54342000Y-78096000D01*
X54340796Y-78120504D01*
X54337196Y-78144773D01*
X54331235Y-78168571D01*
X54322970Y-78191671D01*
X54312480Y-78213849D01*
X54299867Y-78234893D01*
X54285253Y-78254598D01*
X54268777Y-78272777D01*
X54250598Y-78289253D01*
X54230893Y-78303867D01*
X54209849Y-78316480D01*
X54187671Y-78326970D01*
X54164571Y-78335235D01*
X54140773Y-78341196D01*
X54116504Y-78344796D01*
X54092000Y-78346000D01*
X52842000Y-78346000D01*
X52817496Y-78344796D01*
X52793227Y-78341196D01*
X52769429Y-78335235D01*
X52746329Y-78326970D01*
X52724151Y-78316480D01*
X52703107Y-78303867D01*
X52683402Y-78289253D01*
X52665223Y-78272777D01*
X52648747Y-78254598D01*
X52634133Y-78234893D01*
X52621520Y-78213849D01*
X52611030Y-78191671D01*
X52602765Y-78168571D01*
X52596804Y-78144773D01*
X52593204Y-78120504D01*
X52592000Y-78096000D01*
X52592000Y-77171000D01*
X52593204Y-77146496D01*
X52596804Y-77122227D01*
X52602765Y-77098429D01*
X52611030Y-77075329D01*
X52621520Y-77053151D01*
X52634133Y-77032107D01*
X52648747Y-77012402D01*
X52665223Y-76994223D01*
X52683402Y-76977747D01*
X52703107Y-76963133D01*
X52724151Y-76950520D01*
X52746329Y-76940030D01*
X52769429Y-76931765D01*
X52793227Y-76925804D01*
X52817496Y-76922204D01*
X52842000Y-76921000D01*
X54092000Y-76921000D01*
X54116504Y-76922204D01*
X54116504Y-76922204D01*
G37*
D11*
X53467000Y-77633500D03*
D10*
G36*
X54116504Y-79897204D02*
X54140773Y-79900804D01*
X54164571Y-79906765D01*
X54187671Y-79915030D01*
X54209849Y-79925520D01*
X54230893Y-79938133D01*
X54250598Y-79952747D01*
X54268777Y-79969223D01*
X54285253Y-79987402D01*
X54299867Y-80007107D01*
X54312480Y-80028151D01*
X54322970Y-80050329D01*
X54331235Y-80073429D01*
X54337196Y-80097227D01*
X54340796Y-80121496D01*
X54342000Y-80146000D01*
X54342000Y-81071000D01*
X54340796Y-81095504D01*
X54337196Y-81119773D01*
X54331235Y-81143571D01*
X54322970Y-81166671D01*
X54312480Y-81188849D01*
X54299867Y-81209893D01*
X54285253Y-81229598D01*
X54268777Y-81247777D01*
X54250598Y-81264253D01*
X54230893Y-81278867D01*
X54209849Y-81291480D01*
X54187671Y-81301970D01*
X54164571Y-81310235D01*
X54140773Y-81316196D01*
X54116504Y-81319796D01*
X54092000Y-81321000D01*
X52842000Y-81321000D01*
X52817496Y-81319796D01*
X52793227Y-81316196D01*
X52769429Y-81310235D01*
X52746329Y-81301970D01*
X52724151Y-81291480D01*
X52703107Y-81278867D01*
X52683402Y-81264253D01*
X52665223Y-81247777D01*
X52648747Y-81229598D01*
X52634133Y-81209893D01*
X52621520Y-81188849D01*
X52611030Y-81166671D01*
X52602765Y-81143571D01*
X52596804Y-81119773D01*
X52593204Y-81095504D01*
X52592000Y-81071000D01*
X52592000Y-80146000D01*
X52593204Y-80121496D01*
X52596804Y-80097227D01*
X52602765Y-80073429D01*
X52611030Y-80050329D01*
X52621520Y-80028151D01*
X52634133Y-80007107D01*
X52648747Y-79987402D01*
X52665223Y-79969223D01*
X52683402Y-79952747D01*
X52703107Y-79938133D01*
X52724151Y-79925520D01*
X52746329Y-79915030D01*
X52769429Y-79906765D01*
X52793227Y-79900804D01*
X52817496Y-79897204D01*
X52842000Y-79896000D01*
X54092000Y-79896000D01*
X54116504Y-79897204D01*
X54116504Y-79897204D01*
G37*
D11*
X53467000Y-80608500D03*
G04 #@! TD*
D10*
G04 #@! TO.C,R18*
G36*
X25669504Y-119776204D02*
X25693773Y-119779804D01*
X25717571Y-119785765D01*
X25740671Y-119794030D01*
X25762849Y-119804520D01*
X25783893Y-119817133D01*
X25803598Y-119831747D01*
X25821777Y-119848223D01*
X25838253Y-119866402D01*
X25852867Y-119886107D01*
X25865480Y-119907151D01*
X25875970Y-119929329D01*
X25884235Y-119952429D01*
X25890196Y-119976227D01*
X25893796Y-120000496D01*
X25895000Y-120025000D01*
X25895000Y-121275000D01*
X25893796Y-121299504D01*
X25890196Y-121323773D01*
X25884235Y-121347571D01*
X25875970Y-121370671D01*
X25865480Y-121392849D01*
X25852867Y-121413893D01*
X25838253Y-121433598D01*
X25821777Y-121451777D01*
X25803598Y-121468253D01*
X25783893Y-121482867D01*
X25762849Y-121495480D01*
X25740671Y-121505970D01*
X25717571Y-121514235D01*
X25693773Y-121520196D01*
X25669504Y-121523796D01*
X25645000Y-121525000D01*
X24720000Y-121525000D01*
X24695496Y-121523796D01*
X24671227Y-121520196D01*
X24647429Y-121514235D01*
X24624329Y-121505970D01*
X24602151Y-121495480D01*
X24581107Y-121482867D01*
X24561402Y-121468253D01*
X24543223Y-121451777D01*
X24526747Y-121433598D01*
X24512133Y-121413893D01*
X24499520Y-121392849D01*
X24489030Y-121370671D01*
X24480765Y-121347571D01*
X24474804Y-121323773D01*
X24471204Y-121299504D01*
X24470000Y-121275000D01*
X24470000Y-120025000D01*
X24471204Y-120000496D01*
X24474804Y-119976227D01*
X24480765Y-119952429D01*
X24489030Y-119929329D01*
X24499520Y-119907151D01*
X24512133Y-119886107D01*
X24526747Y-119866402D01*
X24543223Y-119848223D01*
X24561402Y-119831747D01*
X24581107Y-119817133D01*
X24602151Y-119804520D01*
X24624329Y-119794030D01*
X24647429Y-119785765D01*
X24671227Y-119779804D01*
X24695496Y-119776204D01*
X24720000Y-119775000D01*
X25645000Y-119775000D01*
X25669504Y-119776204D01*
X25669504Y-119776204D01*
G37*
D11*
X25182500Y-120650000D03*
D10*
G36*
X28644504Y-119776204D02*
X28668773Y-119779804D01*
X28692571Y-119785765D01*
X28715671Y-119794030D01*
X28737849Y-119804520D01*
X28758893Y-119817133D01*
X28778598Y-119831747D01*
X28796777Y-119848223D01*
X28813253Y-119866402D01*
X28827867Y-119886107D01*
X28840480Y-119907151D01*
X28850970Y-119929329D01*
X28859235Y-119952429D01*
X28865196Y-119976227D01*
X28868796Y-120000496D01*
X28870000Y-120025000D01*
X28870000Y-121275000D01*
X28868796Y-121299504D01*
X28865196Y-121323773D01*
X28859235Y-121347571D01*
X28850970Y-121370671D01*
X28840480Y-121392849D01*
X28827867Y-121413893D01*
X28813253Y-121433598D01*
X28796777Y-121451777D01*
X28778598Y-121468253D01*
X28758893Y-121482867D01*
X28737849Y-121495480D01*
X28715671Y-121505970D01*
X28692571Y-121514235D01*
X28668773Y-121520196D01*
X28644504Y-121523796D01*
X28620000Y-121525000D01*
X27695000Y-121525000D01*
X27670496Y-121523796D01*
X27646227Y-121520196D01*
X27622429Y-121514235D01*
X27599329Y-121505970D01*
X27577151Y-121495480D01*
X27556107Y-121482867D01*
X27536402Y-121468253D01*
X27518223Y-121451777D01*
X27501747Y-121433598D01*
X27487133Y-121413893D01*
X27474520Y-121392849D01*
X27464030Y-121370671D01*
X27455765Y-121347571D01*
X27449804Y-121323773D01*
X27446204Y-121299504D01*
X27445000Y-121275000D01*
X27445000Y-120025000D01*
X27446204Y-120000496D01*
X27449804Y-119976227D01*
X27455765Y-119952429D01*
X27464030Y-119929329D01*
X27474520Y-119907151D01*
X27487133Y-119886107D01*
X27501747Y-119866402D01*
X27518223Y-119848223D01*
X27536402Y-119831747D01*
X27556107Y-119817133D01*
X27577151Y-119804520D01*
X27599329Y-119794030D01*
X27622429Y-119785765D01*
X27646227Y-119779804D01*
X27670496Y-119776204D01*
X27695000Y-119775000D01*
X28620000Y-119775000D01*
X28644504Y-119776204D01*
X28644504Y-119776204D01*
G37*
D11*
X28157500Y-120650000D03*
G04 #@! TD*
D10*
G04 #@! TO.C,R17*
G36*
X25542504Y-84978204D02*
X25566773Y-84981804D01*
X25590571Y-84987765D01*
X25613671Y-84996030D01*
X25635849Y-85006520D01*
X25656893Y-85019133D01*
X25676598Y-85033747D01*
X25694777Y-85050223D01*
X25711253Y-85068402D01*
X25725867Y-85088107D01*
X25738480Y-85109151D01*
X25748970Y-85131329D01*
X25757235Y-85154429D01*
X25763196Y-85178227D01*
X25766796Y-85202496D01*
X25768000Y-85227000D01*
X25768000Y-86477000D01*
X25766796Y-86501504D01*
X25763196Y-86525773D01*
X25757235Y-86549571D01*
X25748970Y-86572671D01*
X25738480Y-86594849D01*
X25725867Y-86615893D01*
X25711253Y-86635598D01*
X25694777Y-86653777D01*
X25676598Y-86670253D01*
X25656893Y-86684867D01*
X25635849Y-86697480D01*
X25613671Y-86707970D01*
X25590571Y-86716235D01*
X25566773Y-86722196D01*
X25542504Y-86725796D01*
X25518000Y-86727000D01*
X24593000Y-86727000D01*
X24568496Y-86725796D01*
X24544227Y-86722196D01*
X24520429Y-86716235D01*
X24497329Y-86707970D01*
X24475151Y-86697480D01*
X24454107Y-86684867D01*
X24434402Y-86670253D01*
X24416223Y-86653777D01*
X24399747Y-86635598D01*
X24385133Y-86615893D01*
X24372520Y-86594849D01*
X24362030Y-86572671D01*
X24353765Y-86549571D01*
X24347804Y-86525773D01*
X24344204Y-86501504D01*
X24343000Y-86477000D01*
X24343000Y-85227000D01*
X24344204Y-85202496D01*
X24347804Y-85178227D01*
X24353765Y-85154429D01*
X24362030Y-85131329D01*
X24372520Y-85109151D01*
X24385133Y-85088107D01*
X24399747Y-85068402D01*
X24416223Y-85050223D01*
X24434402Y-85033747D01*
X24454107Y-85019133D01*
X24475151Y-85006520D01*
X24497329Y-84996030D01*
X24520429Y-84987765D01*
X24544227Y-84981804D01*
X24568496Y-84978204D01*
X24593000Y-84977000D01*
X25518000Y-84977000D01*
X25542504Y-84978204D01*
X25542504Y-84978204D01*
G37*
D11*
X25055500Y-85852000D03*
D10*
G36*
X28517504Y-84978204D02*
X28541773Y-84981804D01*
X28565571Y-84987765D01*
X28588671Y-84996030D01*
X28610849Y-85006520D01*
X28631893Y-85019133D01*
X28651598Y-85033747D01*
X28669777Y-85050223D01*
X28686253Y-85068402D01*
X28700867Y-85088107D01*
X28713480Y-85109151D01*
X28723970Y-85131329D01*
X28732235Y-85154429D01*
X28738196Y-85178227D01*
X28741796Y-85202496D01*
X28743000Y-85227000D01*
X28743000Y-86477000D01*
X28741796Y-86501504D01*
X28738196Y-86525773D01*
X28732235Y-86549571D01*
X28723970Y-86572671D01*
X28713480Y-86594849D01*
X28700867Y-86615893D01*
X28686253Y-86635598D01*
X28669777Y-86653777D01*
X28651598Y-86670253D01*
X28631893Y-86684867D01*
X28610849Y-86697480D01*
X28588671Y-86707970D01*
X28565571Y-86716235D01*
X28541773Y-86722196D01*
X28517504Y-86725796D01*
X28493000Y-86727000D01*
X27568000Y-86727000D01*
X27543496Y-86725796D01*
X27519227Y-86722196D01*
X27495429Y-86716235D01*
X27472329Y-86707970D01*
X27450151Y-86697480D01*
X27429107Y-86684867D01*
X27409402Y-86670253D01*
X27391223Y-86653777D01*
X27374747Y-86635598D01*
X27360133Y-86615893D01*
X27347520Y-86594849D01*
X27337030Y-86572671D01*
X27328765Y-86549571D01*
X27322804Y-86525773D01*
X27319204Y-86501504D01*
X27318000Y-86477000D01*
X27318000Y-85227000D01*
X27319204Y-85202496D01*
X27322804Y-85178227D01*
X27328765Y-85154429D01*
X27337030Y-85131329D01*
X27347520Y-85109151D01*
X27360133Y-85088107D01*
X27374747Y-85068402D01*
X27391223Y-85050223D01*
X27409402Y-85033747D01*
X27429107Y-85019133D01*
X27450151Y-85006520D01*
X27472329Y-84996030D01*
X27495429Y-84987765D01*
X27519227Y-84981804D01*
X27543496Y-84978204D01*
X27568000Y-84977000D01*
X28493000Y-84977000D01*
X28517504Y-84978204D01*
X28517504Y-84978204D01*
G37*
D11*
X28030500Y-85852000D03*
G04 #@! TD*
D10*
G04 #@! TO.C,R16*
G36*
X25542504Y-51831204D02*
X25566773Y-51834804D01*
X25590571Y-51840765D01*
X25613671Y-51849030D01*
X25635849Y-51859520D01*
X25656893Y-51872133D01*
X25676598Y-51886747D01*
X25694777Y-51903223D01*
X25711253Y-51921402D01*
X25725867Y-51941107D01*
X25738480Y-51962151D01*
X25748970Y-51984329D01*
X25757235Y-52007429D01*
X25763196Y-52031227D01*
X25766796Y-52055496D01*
X25768000Y-52080000D01*
X25768000Y-53330000D01*
X25766796Y-53354504D01*
X25763196Y-53378773D01*
X25757235Y-53402571D01*
X25748970Y-53425671D01*
X25738480Y-53447849D01*
X25725867Y-53468893D01*
X25711253Y-53488598D01*
X25694777Y-53506777D01*
X25676598Y-53523253D01*
X25656893Y-53537867D01*
X25635849Y-53550480D01*
X25613671Y-53560970D01*
X25590571Y-53569235D01*
X25566773Y-53575196D01*
X25542504Y-53578796D01*
X25518000Y-53580000D01*
X24593000Y-53580000D01*
X24568496Y-53578796D01*
X24544227Y-53575196D01*
X24520429Y-53569235D01*
X24497329Y-53560970D01*
X24475151Y-53550480D01*
X24454107Y-53537867D01*
X24434402Y-53523253D01*
X24416223Y-53506777D01*
X24399747Y-53488598D01*
X24385133Y-53468893D01*
X24372520Y-53447849D01*
X24362030Y-53425671D01*
X24353765Y-53402571D01*
X24347804Y-53378773D01*
X24344204Y-53354504D01*
X24343000Y-53330000D01*
X24343000Y-52080000D01*
X24344204Y-52055496D01*
X24347804Y-52031227D01*
X24353765Y-52007429D01*
X24362030Y-51984329D01*
X24372520Y-51962151D01*
X24385133Y-51941107D01*
X24399747Y-51921402D01*
X24416223Y-51903223D01*
X24434402Y-51886747D01*
X24454107Y-51872133D01*
X24475151Y-51859520D01*
X24497329Y-51849030D01*
X24520429Y-51840765D01*
X24544227Y-51834804D01*
X24568496Y-51831204D01*
X24593000Y-51830000D01*
X25518000Y-51830000D01*
X25542504Y-51831204D01*
X25542504Y-51831204D01*
G37*
D11*
X25055500Y-52705000D03*
D10*
G36*
X28517504Y-51831204D02*
X28541773Y-51834804D01*
X28565571Y-51840765D01*
X28588671Y-51849030D01*
X28610849Y-51859520D01*
X28631893Y-51872133D01*
X28651598Y-51886747D01*
X28669777Y-51903223D01*
X28686253Y-51921402D01*
X28700867Y-51941107D01*
X28713480Y-51962151D01*
X28723970Y-51984329D01*
X28732235Y-52007429D01*
X28738196Y-52031227D01*
X28741796Y-52055496D01*
X28743000Y-52080000D01*
X28743000Y-53330000D01*
X28741796Y-53354504D01*
X28738196Y-53378773D01*
X28732235Y-53402571D01*
X28723970Y-53425671D01*
X28713480Y-53447849D01*
X28700867Y-53468893D01*
X28686253Y-53488598D01*
X28669777Y-53506777D01*
X28651598Y-53523253D01*
X28631893Y-53537867D01*
X28610849Y-53550480D01*
X28588671Y-53560970D01*
X28565571Y-53569235D01*
X28541773Y-53575196D01*
X28517504Y-53578796D01*
X28493000Y-53580000D01*
X27568000Y-53580000D01*
X27543496Y-53578796D01*
X27519227Y-53575196D01*
X27495429Y-53569235D01*
X27472329Y-53560970D01*
X27450151Y-53550480D01*
X27429107Y-53537867D01*
X27409402Y-53523253D01*
X27391223Y-53506777D01*
X27374747Y-53488598D01*
X27360133Y-53468893D01*
X27347520Y-53447849D01*
X27337030Y-53425671D01*
X27328765Y-53402571D01*
X27322804Y-53378773D01*
X27319204Y-53354504D01*
X27318000Y-53330000D01*
X27318000Y-52080000D01*
X27319204Y-52055496D01*
X27322804Y-52031227D01*
X27328765Y-52007429D01*
X27337030Y-51984329D01*
X27347520Y-51962151D01*
X27360133Y-51941107D01*
X27374747Y-51921402D01*
X27391223Y-51903223D01*
X27409402Y-51886747D01*
X27429107Y-51872133D01*
X27450151Y-51859520D01*
X27472329Y-51849030D01*
X27495429Y-51840765D01*
X27519227Y-51834804D01*
X27543496Y-51831204D01*
X27568000Y-51830000D01*
X28493000Y-51830000D01*
X28517504Y-51831204D01*
X28517504Y-51831204D01*
G37*
D11*
X28030500Y-52705000D03*
G04 #@! TD*
D10*
G04 #@! TO.C,R12*
G36*
X72078504Y-143779204D02*
X72102773Y-143782804D01*
X72126571Y-143788765D01*
X72149671Y-143797030D01*
X72171849Y-143807520D01*
X72192893Y-143820133D01*
X72212598Y-143834747D01*
X72230777Y-143851223D01*
X72247253Y-143869402D01*
X72261867Y-143889107D01*
X72274480Y-143910151D01*
X72284970Y-143932329D01*
X72293235Y-143955429D01*
X72299196Y-143979227D01*
X72302796Y-144003496D01*
X72304000Y-144028000D01*
X72304000Y-145278000D01*
X72302796Y-145302504D01*
X72299196Y-145326773D01*
X72293235Y-145350571D01*
X72284970Y-145373671D01*
X72274480Y-145395849D01*
X72261867Y-145416893D01*
X72247253Y-145436598D01*
X72230777Y-145454777D01*
X72212598Y-145471253D01*
X72192893Y-145485867D01*
X72171849Y-145498480D01*
X72149671Y-145508970D01*
X72126571Y-145517235D01*
X72102773Y-145523196D01*
X72078504Y-145526796D01*
X72054000Y-145528000D01*
X71129000Y-145528000D01*
X71104496Y-145526796D01*
X71080227Y-145523196D01*
X71056429Y-145517235D01*
X71033329Y-145508970D01*
X71011151Y-145498480D01*
X70990107Y-145485867D01*
X70970402Y-145471253D01*
X70952223Y-145454777D01*
X70935747Y-145436598D01*
X70921133Y-145416893D01*
X70908520Y-145395849D01*
X70898030Y-145373671D01*
X70889765Y-145350571D01*
X70883804Y-145326773D01*
X70880204Y-145302504D01*
X70879000Y-145278000D01*
X70879000Y-144028000D01*
X70880204Y-144003496D01*
X70883804Y-143979227D01*
X70889765Y-143955429D01*
X70898030Y-143932329D01*
X70908520Y-143910151D01*
X70921133Y-143889107D01*
X70935747Y-143869402D01*
X70952223Y-143851223D01*
X70970402Y-143834747D01*
X70990107Y-143820133D01*
X71011151Y-143807520D01*
X71033329Y-143797030D01*
X71056429Y-143788765D01*
X71080227Y-143782804D01*
X71104496Y-143779204D01*
X71129000Y-143778000D01*
X72054000Y-143778000D01*
X72078504Y-143779204D01*
X72078504Y-143779204D01*
G37*
D11*
X71591500Y-144653000D03*
D10*
G36*
X69103504Y-143779204D02*
X69127773Y-143782804D01*
X69151571Y-143788765D01*
X69174671Y-143797030D01*
X69196849Y-143807520D01*
X69217893Y-143820133D01*
X69237598Y-143834747D01*
X69255777Y-143851223D01*
X69272253Y-143869402D01*
X69286867Y-143889107D01*
X69299480Y-143910151D01*
X69309970Y-143932329D01*
X69318235Y-143955429D01*
X69324196Y-143979227D01*
X69327796Y-144003496D01*
X69329000Y-144028000D01*
X69329000Y-145278000D01*
X69327796Y-145302504D01*
X69324196Y-145326773D01*
X69318235Y-145350571D01*
X69309970Y-145373671D01*
X69299480Y-145395849D01*
X69286867Y-145416893D01*
X69272253Y-145436598D01*
X69255777Y-145454777D01*
X69237598Y-145471253D01*
X69217893Y-145485867D01*
X69196849Y-145498480D01*
X69174671Y-145508970D01*
X69151571Y-145517235D01*
X69127773Y-145523196D01*
X69103504Y-145526796D01*
X69079000Y-145528000D01*
X68154000Y-145528000D01*
X68129496Y-145526796D01*
X68105227Y-145523196D01*
X68081429Y-145517235D01*
X68058329Y-145508970D01*
X68036151Y-145498480D01*
X68015107Y-145485867D01*
X67995402Y-145471253D01*
X67977223Y-145454777D01*
X67960747Y-145436598D01*
X67946133Y-145416893D01*
X67933520Y-145395849D01*
X67923030Y-145373671D01*
X67914765Y-145350571D01*
X67908804Y-145326773D01*
X67905204Y-145302504D01*
X67904000Y-145278000D01*
X67904000Y-144028000D01*
X67905204Y-144003496D01*
X67908804Y-143979227D01*
X67914765Y-143955429D01*
X67923030Y-143932329D01*
X67933520Y-143910151D01*
X67946133Y-143889107D01*
X67960747Y-143869402D01*
X67977223Y-143851223D01*
X67995402Y-143834747D01*
X68015107Y-143820133D01*
X68036151Y-143807520D01*
X68058329Y-143797030D01*
X68081429Y-143788765D01*
X68105227Y-143782804D01*
X68129496Y-143779204D01*
X68154000Y-143778000D01*
X69079000Y-143778000D01*
X69103504Y-143779204D01*
X69103504Y-143779204D01*
G37*
D11*
X68616500Y-144653000D03*
G04 #@! TD*
D14*
G04 #@! TO.C,U14*
X65979000Y-120371611D03*
X56449000Y-117831611D03*
X65979000Y-117831611D03*
X56449000Y-120371611D03*
G04 #@! TD*
G04 #@! TO.C,U13*
X65153500Y-152717500D03*
X55623500Y-150177500D03*
X65153500Y-150177500D03*
X55623500Y-152717500D03*
G04 #@! TD*
G04 #@! TO.C,U12*
X56449000Y-89764611D03*
X65979000Y-92304611D03*
X56449000Y-92304611D03*
X65979000Y-89764611D03*
G04 #@! TD*
G04 #@! TO.C,U11*
X56449000Y-84049611D03*
X65979000Y-86589611D03*
X56449000Y-86589611D03*
X65979000Y-84049611D03*
G04 #@! TD*
G04 #@! TO.C,U10*
X56449000Y-78334611D03*
X65979000Y-80874611D03*
X56449000Y-80874611D03*
X65979000Y-78334611D03*
G04 #@! TD*
G04 #@! TO.C,U9*
X56449000Y-72619611D03*
X65979000Y-75159611D03*
X56449000Y-75159611D03*
X65979000Y-72619611D03*
G04 #@! TD*
G04 #@! TO.C,U8*
X56449000Y-66904611D03*
X65979000Y-69444611D03*
X56449000Y-69444611D03*
X65979000Y-66904611D03*
G04 #@! TD*
G04 #@! TO.C,U7*
X56449000Y-112116611D03*
X65979000Y-114656611D03*
X56449000Y-114656611D03*
X65979000Y-112116611D03*
G04 #@! TD*
G04 #@! TO.C,U6*
X56449000Y-61214000D03*
X65979000Y-63754000D03*
X56449000Y-63754000D03*
X65979000Y-61214000D03*
G04 #@! TD*
G04 #@! TO.C,U5*
X65979000Y-106401611D03*
X56449000Y-103861611D03*
X65979000Y-103861611D03*
X56449000Y-106401611D03*
G04 #@! TD*
G04 #@! TO.C,U4*
X65979000Y-98019611D03*
X56449000Y-95479611D03*
X65979000Y-95479611D03*
X56449000Y-98019611D03*
G04 #@! TD*
G04 #@! TO.C,U2*
X55687000Y-136144000D03*
X65217000Y-138684000D03*
X55687000Y-138684000D03*
X65217000Y-136144000D03*
G04 #@! TD*
G04 #@! TO.C,U1*
X65153500Y-161607500D03*
X55623500Y-159067500D03*
X65153500Y-159067500D03*
X55623500Y-161607500D03*
G04 #@! TD*
D16*
G04 #@! TO.C,U15*
X63036000Y-44500548D03*
X66386000Y-47550548D03*
X63036000Y-47550548D03*
X66386000Y-44500548D03*
D17*
X58411000Y-43745548D03*
X58411000Y-46025548D03*
X58411000Y-48305548D03*
G04 #@! TD*
D10*
G04 #@! TO.C,R15*
G36*
X72078504Y-135270204D02*
X72102773Y-135273804D01*
X72126571Y-135279765D01*
X72149671Y-135288030D01*
X72171849Y-135298520D01*
X72192893Y-135311133D01*
X72212598Y-135325747D01*
X72230777Y-135342223D01*
X72247253Y-135360402D01*
X72261867Y-135380107D01*
X72274480Y-135401151D01*
X72284970Y-135423329D01*
X72293235Y-135446429D01*
X72299196Y-135470227D01*
X72302796Y-135494496D01*
X72304000Y-135519000D01*
X72304000Y-136769000D01*
X72302796Y-136793504D01*
X72299196Y-136817773D01*
X72293235Y-136841571D01*
X72284970Y-136864671D01*
X72274480Y-136886849D01*
X72261867Y-136907893D01*
X72247253Y-136927598D01*
X72230777Y-136945777D01*
X72212598Y-136962253D01*
X72192893Y-136976867D01*
X72171849Y-136989480D01*
X72149671Y-136999970D01*
X72126571Y-137008235D01*
X72102773Y-137014196D01*
X72078504Y-137017796D01*
X72054000Y-137019000D01*
X71129000Y-137019000D01*
X71104496Y-137017796D01*
X71080227Y-137014196D01*
X71056429Y-137008235D01*
X71033329Y-136999970D01*
X71011151Y-136989480D01*
X70990107Y-136976867D01*
X70970402Y-136962253D01*
X70952223Y-136945777D01*
X70935747Y-136927598D01*
X70921133Y-136907893D01*
X70908520Y-136886849D01*
X70898030Y-136864671D01*
X70889765Y-136841571D01*
X70883804Y-136817773D01*
X70880204Y-136793504D01*
X70879000Y-136769000D01*
X70879000Y-135519000D01*
X70880204Y-135494496D01*
X70883804Y-135470227D01*
X70889765Y-135446429D01*
X70898030Y-135423329D01*
X70908520Y-135401151D01*
X70921133Y-135380107D01*
X70935747Y-135360402D01*
X70952223Y-135342223D01*
X70970402Y-135325747D01*
X70990107Y-135311133D01*
X71011151Y-135298520D01*
X71033329Y-135288030D01*
X71056429Y-135279765D01*
X71080227Y-135273804D01*
X71104496Y-135270204D01*
X71129000Y-135269000D01*
X72054000Y-135269000D01*
X72078504Y-135270204D01*
X72078504Y-135270204D01*
G37*
D11*
X71591500Y-136144000D03*
D10*
G36*
X69103504Y-135270204D02*
X69127773Y-135273804D01*
X69151571Y-135279765D01*
X69174671Y-135288030D01*
X69196849Y-135298520D01*
X69217893Y-135311133D01*
X69237598Y-135325747D01*
X69255777Y-135342223D01*
X69272253Y-135360402D01*
X69286867Y-135380107D01*
X69299480Y-135401151D01*
X69309970Y-135423329D01*
X69318235Y-135446429D01*
X69324196Y-135470227D01*
X69327796Y-135494496D01*
X69329000Y-135519000D01*
X69329000Y-136769000D01*
X69327796Y-136793504D01*
X69324196Y-136817773D01*
X69318235Y-136841571D01*
X69309970Y-136864671D01*
X69299480Y-136886849D01*
X69286867Y-136907893D01*
X69272253Y-136927598D01*
X69255777Y-136945777D01*
X69237598Y-136962253D01*
X69217893Y-136976867D01*
X69196849Y-136989480D01*
X69174671Y-136999970D01*
X69151571Y-137008235D01*
X69127773Y-137014196D01*
X69103504Y-137017796D01*
X69079000Y-137019000D01*
X68154000Y-137019000D01*
X68129496Y-137017796D01*
X68105227Y-137014196D01*
X68081429Y-137008235D01*
X68058329Y-136999970D01*
X68036151Y-136989480D01*
X68015107Y-136976867D01*
X67995402Y-136962253D01*
X67977223Y-136945777D01*
X67960747Y-136927598D01*
X67946133Y-136907893D01*
X67933520Y-136886849D01*
X67923030Y-136864671D01*
X67914765Y-136841571D01*
X67908804Y-136817773D01*
X67905204Y-136793504D01*
X67904000Y-136769000D01*
X67904000Y-135519000D01*
X67905204Y-135494496D01*
X67908804Y-135470227D01*
X67914765Y-135446429D01*
X67923030Y-135423329D01*
X67933520Y-135401151D01*
X67946133Y-135380107D01*
X67960747Y-135360402D01*
X67977223Y-135342223D01*
X67995402Y-135325747D01*
X68015107Y-135311133D01*
X68036151Y-135298520D01*
X68058329Y-135288030D01*
X68081429Y-135279765D01*
X68105227Y-135273804D01*
X68129496Y-135270204D01*
X68154000Y-135269000D01*
X69079000Y-135269000D01*
X69103504Y-135270204D01*
X69103504Y-135270204D01*
G37*
D11*
X68616500Y-136144000D03*
G04 #@! TD*
D10*
G04 #@! TO.C,R14*
G36*
X72078504Y-139842204D02*
X72102773Y-139845804D01*
X72126571Y-139851765D01*
X72149671Y-139860030D01*
X72171849Y-139870520D01*
X72192893Y-139883133D01*
X72212598Y-139897747D01*
X72230777Y-139914223D01*
X72247253Y-139932402D01*
X72261867Y-139952107D01*
X72274480Y-139973151D01*
X72284970Y-139995329D01*
X72293235Y-140018429D01*
X72299196Y-140042227D01*
X72302796Y-140066496D01*
X72304000Y-140091000D01*
X72304000Y-141341000D01*
X72302796Y-141365504D01*
X72299196Y-141389773D01*
X72293235Y-141413571D01*
X72284970Y-141436671D01*
X72274480Y-141458849D01*
X72261867Y-141479893D01*
X72247253Y-141499598D01*
X72230777Y-141517777D01*
X72212598Y-141534253D01*
X72192893Y-141548867D01*
X72171849Y-141561480D01*
X72149671Y-141571970D01*
X72126571Y-141580235D01*
X72102773Y-141586196D01*
X72078504Y-141589796D01*
X72054000Y-141591000D01*
X71129000Y-141591000D01*
X71104496Y-141589796D01*
X71080227Y-141586196D01*
X71056429Y-141580235D01*
X71033329Y-141571970D01*
X71011151Y-141561480D01*
X70990107Y-141548867D01*
X70970402Y-141534253D01*
X70952223Y-141517777D01*
X70935747Y-141499598D01*
X70921133Y-141479893D01*
X70908520Y-141458849D01*
X70898030Y-141436671D01*
X70889765Y-141413571D01*
X70883804Y-141389773D01*
X70880204Y-141365504D01*
X70879000Y-141341000D01*
X70879000Y-140091000D01*
X70880204Y-140066496D01*
X70883804Y-140042227D01*
X70889765Y-140018429D01*
X70898030Y-139995329D01*
X70908520Y-139973151D01*
X70921133Y-139952107D01*
X70935747Y-139932402D01*
X70952223Y-139914223D01*
X70970402Y-139897747D01*
X70990107Y-139883133D01*
X71011151Y-139870520D01*
X71033329Y-139860030D01*
X71056429Y-139851765D01*
X71080227Y-139845804D01*
X71104496Y-139842204D01*
X71129000Y-139841000D01*
X72054000Y-139841000D01*
X72078504Y-139842204D01*
X72078504Y-139842204D01*
G37*
D11*
X71591500Y-140716000D03*
D10*
G36*
X69103504Y-139842204D02*
X69127773Y-139845804D01*
X69151571Y-139851765D01*
X69174671Y-139860030D01*
X69196849Y-139870520D01*
X69217893Y-139883133D01*
X69237598Y-139897747D01*
X69255777Y-139914223D01*
X69272253Y-139932402D01*
X69286867Y-139952107D01*
X69299480Y-139973151D01*
X69309970Y-139995329D01*
X69318235Y-140018429D01*
X69324196Y-140042227D01*
X69327796Y-140066496D01*
X69329000Y-140091000D01*
X69329000Y-141341000D01*
X69327796Y-141365504D01*
X69324196Y-141389773D01*
X69318235Y-141413571D01*
X69309970Y-141436671D01*
X69299480Y-141458849D01*
X69286867Y-141479893D01*
X69272253Y-141499598D01*
X69255777Y-141517777D01*
X69237598Y-141534253D01*
X69217893Y-141548867D01*
X69196849Y-141561480D01*
X69174671Y-141571970D01*
X69151571Y-141580235D01*
X69127773Y-141586196D01*
X69103504Y-141589796D01*
X69079000Y-141591000D01*
X68154000Y-141591000D01*
X68129496Y-141589796D01*
X68105227Y-141586196D01*
X68081429Y-141580235D01*
X68058329Y-141571970D01*
X68036151Y-141561480D01*
X68015107Y-141548867D01*
X67995402Y-141534253D01*
X67977223Y-141517777D01*
X67960747Y-141499598D01*
X67946133Y-141479893D01*
X67933520Y-141458849D01*
X67923030Y-141436671D01*
X67914765Y-141413571D01*
X67908804Y-141389773D01*
X67905204Y-141365504D01*
X67904000Y-141341000D01*
X67904000Y-140091000D01*
X67905204Y-140066496D01*
X67908804Y-140042227D01*
X67914765Y-140018429D01*
X67923030Y-139995329D01*
X67933520Y-139973151D01*
X67946133Y-139952107D01*
X67960747Y-139932402D01*
X67977223Y-139914223D01*
X67995402Y-139897747D01*
X68015107Y-139883133D01*
X68036151Y-139870520D01*
X68058329Y-139860030D01*
X68081429Y-139851765D01*
X68105227Y-139845804D01*
X68129496Y-139842204D01*
X68154000Y-139841000D01*
X69079000Y-139841000D01*
X69103504Y-139842204D01*
X69103504Y-139842204D01*
G37*
D11*
X68616500Y-140716000D03*
G04 #@! TD*
D10*
G04 #@! TO.C,R13*
G36*
X72078504Y-129047204D02*
X72102773Y-129050804D01*
X72126571Y-129056765D01*
X72149671Y-129065030D01*
X72171849Y-129075520D01*
X72192893Y-129088133D01*
X72212598Y-129102747D01*
X72230777Y-129119223D01*
X72247253Y-129137402D01*
X72261867Y-129157107D01*
X72274480Y-129178151D01*
X72284970Y-129200329D01*
X72293235Y-129223429D01*
X72299196Y-129247227D01*
X72302796Y-129271496D01*
X72304000Y-129296000D01*
X72304000Y-130546000D01*
X72302796Y-130570504D01*
X72299196Y-130594773D01*
X72293235Y-130618571D01*
X72284970Y-130641671D01*
X72274480Y-130663849D01*
X72261867Y-130684893D01*
X72247253Y-130704598D01*
X72230777Y-130722777D01*
X72212598Y-130739253D01*
X72192893Y-130753867D01*
X72171849Y-130766480D01*
X72149671Y-130776970D01*
X72126571Y-130785235D01*
X72102773Y-130791196D01*
X72078504Y-130794796D01*
X72054000Y-130796000D01*
X71129000Y-130796000D01*
X71104496Y-130794796D01*
X71080227Y-130791196D01*
X71056429Y-130785235D01*
X71033329Y-130776970D01*
X71011151Y-130766480D01*
X70990107Y-130753867D01*
X70970402Y-130739253D01*
X70952223Y-130722777D01*
X70935747Y-130704598D01*
X70921133Y-130684893D01*
X70908520Y-130663849D01*
X70898030Y-130641671D01*
X70889765Y-130618571D01*
X70883804Y-130594773D01*
X70880204Y-130570504D01*
X70879000Y-130546000D01*
X70879000Y-129296000D01*
X70880204Y-129271496D01*
X70883804Y-129247227D01*
X70889765Y-129223429D01*
X70898030Y-129200329D01*
X70908520Y-129178151D01*
X70921133Y-129157107D01*
X70935747Y-129137402D01*
X70952223Y-129119223D01*
X70970402Y-129102747D01*
X70990107Y-129088133D01*
X71011151Y-129075520D01*
X71033329Y-129065030D01*
X71056429Y-129056765D01*
X71080227Y-129050804D01*
X71104496Y-129047204D01*
X71129000Y-129046000D01*
X72054000Y-129046000D01*
X72078504Y-129047204D01*
X72078504Y-129047204D01*
G37*
D11*
X71591500Y-129921000D03*
D10*
G36*
X69103504Y-129047204D02*
X69127773Y-129050804D01*
X69151571Y-129056765D01*
X69174671Y-129065030D01*
X69196849Y-129075520D01*
X69217893Y-129088133D01*
X69237598Y-129102747D01*
X69255777Y-129119223D01*
X69272253Y-129137402D01*
X69286867Y-129157107D01*
X69299480Y-129178151D01*
X69309970Y-129200329D01*
X69318235Y-129223429D01*
X69324196Y-129247227D01*
X69327796Y-129271496D01*
X69329000Y-129296000D01*
X69329000Y-130546000D01*
X69327796Y-130570504D01*
X69324196Y-130594773D01*
X69318235Y-130618571D01*
X69309970Y-130641671D01*
X69299480Y-130663849D01*
X69286867Y-130684893D01*
X69272253Y-130704598D01*
X69255777Y-130722777D01*
X69237598Y-130739253D01*
X69217893Y-130753867D01*
X69196849Y-130766480D01*
X69174671Y-130776970D01*
X69151571Y-130785235D01*
X69127773Y-130791196D01*
X69103504Y-130794796D01*
X69079000Y-130796000D01*
X68154000Y-130796000D01*
X68129496Y-130794796D01*
X68105227Y-130791196D01*
X68081429Y-130785235D01*
X68058329Y-130776970D01*
X68036151Y-130766480D01*
X68015107Y-130753867D01*
X67995402Y-130739253D01*
X67977223Y-130722777D01*
X67960747Y-130704598D01*
X67946133Y-130684893D01*
X67933520Y-130663849D01*
X67923030Y-130641671D01*
X67914765Y-130618571D01*
X67908804Y-130594773D01*
X67905204Y-130570504D01*
X67904000Y-130546000D01*
X67904000Y-129296000D01*
X67905204Y-129271496D01*
X67908804Y-129247227D01*
X67914765Y-129223429D01*
X67923030Y-129200329D01*
X67933520Y-129178151D01*
X67946133Y-129157107D01*
X67960747Y-129137402D01*
X67977223Y-129119223D01*
X67995402Y-129102747D01*
X68015107Y-129088133D01*
X68036151Y-129075520D01*
X68058329Y-129065030D01*
X68081429Y-129056765D01*
X68105227Y-129050804D01*
X68129496Y-129047204D01*
X68154000Y-129046000D01*
X69079000Y-129046000D01*
X69103504Y-129047204D01*
X69103504Y-129047204D01*
G37*
D11*
X68616500Y-129921000D03*
G04 #@! TD*
D10*
G04 #@! TO.C,R11*
G36*
X72078504Y-111140204D02*
X72102773Y-111143804D01*
X72126571Y-111149765D01*
X72149671Y-111158030D01*
X72171849Y-111168520D01*
X72192893Y-111181133D01*
X72212598Y-111195747D01*
X72230777Y-111212223D01*
X72247253Y-111230402D01*
X72261867Y-111250107D01*
X72274480Y-111271151D01*
X72284970Y-111293329D01*
X72293235Y-111316429D01*
X72299196Y-111340227D01*
X72302796Y-111364496D01*
X72304000Y-111389000D01*
X72304000Y-112639000D01*
X72302796Y-112663504D01*
X72299196Y-112687773D01*
X72293235Y-112711571D01*
X72284970Y-112734671D01*
X72274480Y-112756849D01*
X72261867Y-112777893D01*
X72247253Y-112797598D01*
X72230777Y-112815777D01*
X72212598Y-112832253D01*
X72192893Y-112846867D01*
X72171849Y-112859480D01*
X72149671Y-112869970D01*
X72126571Y-112878235D01*
X72102773Y-112884196D01*
X72078504Y-112887796D01*
X72054000Y-112889000D01*
X71129000Y-112889000D01*
X71104496Y-112887796D01*
X71080227Y-112884196D01*
X71056429Y-112878235D01*
X71033329Y-112869970D01*
X71011151Y-112859480D01*
X70990107Y-112846867D01*
X70970402Y-112832253D01*
X70952223Y-112815777D01*
X70935747Y-112797598D01*
X70921133Y-112777893D01*
X70908520Y-112756849D01*
X70898030Y-112734671D01*
X70889765Y-112711571D01*
X70883804Y-112687773D01*
X70880204Y-112663504D01*
X70879000Y-112639000D01*
X70879000Y-111389000D01*
X70880204Y-111364496D01*
X70883804Y-111340227D01*
X70889765Y-111316429D01*
X70898030Y-111293329D01*
X70908520Y-111271151D01*
X70921133Y-111250107D01*
X70935747Y-111230402D01*
X70952223Y-111212223D01*
X70970402Y-111195747D01*
X70990107Y-111181133D01*
X71011151Y-111168520D01*
X71033329Y-111158030D01*
X71056429Y-111149765D01*
X71080227Y-111143804D01*
X71104496Y-111140204D01*
X71129000Y-111139000D01*
X72054000Y-111139000D01*
X72078504Y-111140204D01*
X72078504Y-111140204D01*
G37*
D11*
X71591500Y-112014000D03*
D10*
G36*
X69103504Y-111140204D02*
X69127773Y-111143804D01*
X69151571Y-111149765D01*
X69174671Y-111158030D01*
X69196849Y-111168520D01*
X69217893Y-111181133D01*
X69237598Y-111195747D01*
X69255777Y-111212223D01*
X69272253Y-111230402D01*
X69286867Y-111250107D01*
X69299480Y-111271151D01*
X69309970Y-111293329D01*
X69318235Y-111316429D01*
X69324196Y-111340227D01*
X69327796Y-111364496D01*
X69329000Y-111389000D01*
X69329000Y-112639000D01*
X69327796Y-112663504D01*
X69324196Y-112687773D01*
X69318235Y-112711571D01*
X69309970Y-112734671D01*
X69299480Y-112756849D01*
X69286867Y-112777893D01*
X69272253Y-112797598D01*
X69255777Y-112815777D01*
X69237598Y-112832253D01*
X69217893Y-112846867D01*
X69196849Y-112859480D01*
X69174671Y-112869970D01*
X69151571Y-112878235D01*
X69127773Y-112884196D01*
X69103504Y-112887796D01*
X69079000Y-112889000D01*
X68154000Y-112889000D01*
X68129496Y-112887796D01*
X68105227Y-112884196D01*
X68081429Y-112878235D01*
X68058329Y-112869970D01*
X68036151Y-112859480D01*
X68015107Y-112846867D01*
X67995402Y-112832253D01*
X67977223Y-112815777D01*
X67960747Y-112797598D01*
X67946133Y-112777893D01*
X67933520Y-112756849D01*
X67923030Y-112734671D01*
X67914765Y-112711571D01*
X67908804Y-112687773D01*
X67905204Y-112663504D01*
X67904000Y-112639000D01*
X67904000Y-111389000D01*
X67905204Y-111364496D01*
X67908804Y-111340227D01*
X67914765Y-111316429D01*
X67923030Y-111293329D01*
X67933520Y-111271151D01*
X67946133Y-111250107D01*
X67960747Y-111230402D01*
X67977223Y-111212223D01*
X67995402Y-111195747D01*
X68015107Y-111181133D01*
X68036151Y-111168520D01*
X68058329Y-111158030D01*
X68081429Y-111149765D01*
X68105227Y-111143804D01*
X68129496Y-111140204D01*
X68154000Y-111139000D01*
X69079000Y-111139000D01*
X69103504Y-111140204D01*
X69103504Y-111140204D01*
G37*
D11*
X68616500Y-112014000D03*
G04 #@! TD*
D10*
G04 #@! TO.C,R10*
G36*
X92216504Y-102793704D02*
X92240773Y-102797304D01*
X92264571Y-102803265D01*
X92287671Y-102811530D01*
X92309849Y-102822020D01*
X92330893Y-102834633D01*
X92350598Y-102849247D01*
X92368777Y-102865723D01*
X92385253Y-102883902D01*
X92399867Y-102903607D01*
X92412480Y-102924651D01*
X92422970Y-102946829D01*
X92431235Y-102969929D01*
X92437196Y-102993727D01*
X92440796Y-103017996D01*
X92442000Y-103042500D01*
X92442000Y-103967500D01*
X92440796Y-103992004D01*
X92437196Y-104016273D01*
X92431235Y-104040071D01*
X92422970Y-104063171D01*
X92412480Y-104085349D01*
X92399867Y-104106393D01*
X92385253Y-104126098D01*
X92368777Y-104144277D01*
X92350598Y-104160753D01*
X92330893Y-104175367D01*
X92309849Y-104187980D01*
X92287671Y-104198470D01*
X92264571Y-104206735D01*
X92240773Y-104212696D01*
X92216504Y-104216296D01*
X92192000Y-104217500D01*
X90942000Y-104217500D01*
X90917496Y-104216296D01*
X90893227Y-104212696D01*
X90869429Y-104206735D01*
X90846329Y-104198470D01*
X90824151Y-104187980D01*
X90803107Y-104175367D01*
X90783402Y-104160753D01*
X90765223Y-104144277D01*
X90748747Y-104126098D01*
X90734133Y-104106393D01*
X90721520Y-104085349D01*
X90711030Y-104063171D01*
X90702765Y-104040071D01*
X90696804Y-104016273D01*
X90693204Y-103992004D01*
X90692000Y-103967500D01*
X90692000Y-103042500D01*
X90693204Y-103017996D01*
X90696804Y-102993727D01*
X90702765Y-102969929D01*
X90711030Y-102946829D01*
X90721520Y-102924651D01*
X90734133Y-102903607D01*
X90748747Y-102883902D01*
X90765223Y-102865723D01*
X90783402Y-102849247D01*
X90803107Y-102834633D01*
X90824151Y-102822020D01*
X90846329Y-102811530D01*
X90869429Y-102803265D01*
X90893227Y-102797304D01*
X90917496Y-102793704D01*
X90942000Y-102792500D01*
X92192000Y-102792500D01*
X92216504Y-102793704D01*
X92216504Y-102793704D01*
G37*
D11*
X91567000Y-103505000D03*
D10*
G36*
X92216504Y-105768704D02*
X92240773Y-105772304D01*
X92264571Y-105778265D01*
X92287671Y-105786530D01*
X92309849Y-105797020D01*
X92330893Y-105809633D01*
X92350598Y-105824247D01*
X92368777Y-105840723D01*
X92385253Y-105858902D01*
X92399867Y-105878607D01*
X92412480Y-105899651D01*
X92422970Y-105921829D01*
X92431235Y-105944929D01*
X92437196Y-105968727D01*
X92440796Y-105992996D01*
X92442000Y-106017500D01*
X92442000Y-106942500D01*
X92440796Y-106967004D01*
X92437196Y-106991273D01*
X92431235Y-107015071D01*
X92422970Y-107038171D01*
X92412480Y-107060349D01*
X92399867Y-107081393D01*
X92385253Y-107101098D01*
X92368777Y-107119277D01*
X92350598Y-107135753D01*
X92330893Y-107150367D01*
X92309849Y-107162980D01*
X92287671Y-107173470D01*
X92264571Y-107181735D01*
X92240773Y-107187696D01*
X92216504Y-107191296D01*
X92192000Y-107192500D01*
X90942000Y-107192500D01*
X90917496Y-107191296D01*
X90893227Y-107187696D01*
X90869429Y-107181735D01*
X90846329Y-107173470D01*
X90824151Y-107162980D01*
X90803107Y-107150367D01*
X90783402Y-107135753D01*
X90765223Y-107119277D01*
X90748747Y-107101098D01*
X90734133Y-107081393D01*
X90721520Y-107060349D01*
X90711030Y-107038171D01*
X90702765Y-107015071D01*
X90696804Y-106991273D01*
X90693204Y-106967004D01*
X90692000Y-106942500D01*
X90692000Y-106017500D01*
X90693204Y-105992996D01*
X90696804Y-105968727D01*
X90702765Y-105944929D01*
X90711030Y-105921829D01*
X90721520Y-105899651D01*
X90734133Y-105878607D01*
X90748747Y-105858902D01*
X90765223Y-105840723D01*
X90783402Y-105824247D01*
X90803107Y-105809633D01*
X90824151Y-105797020D01*
X90846329Y-105786530D01*
X90869429Y-105778265D01*
X90893227Y-105772304D01*
X90917496Y-105768704D01*
X90942000Y-105767500D01*
X92192000Y-105767500D01*
X92216504Y-105768704D01*
X92216504Y-105768704D01*
G37*
D11*
X91567000Y-106480000D03*
G04 #@! TD*
D10*
G04 #@! TO.C,R9*
G36*
X77481840Y-86753206D02*
X77506109Y-86756806D01*
X77529907Y-86762767D01*
X77553007Y-86771032D01*
X77575185Y-86781522D01*
X77596229Y-86794135D01*
X77615934Y-86808749D01*
X77634113Y-86825225D01*
X77650589Y-86843404D01*
X77665203Y-86863109D01*
X77677816Y-86884153D01*
X77688306Y-86906331D01*
X77696571Y-86929431D01*
X77702532Y-86953229D01*
X77706132Y-86977498D01*
X77707336Y-87002002D01*
X77707336Y-88252002D01*
X77706132Y-88276506D01*
X77702532Y-88300775D01*
X77696571Y-88324573D01*
X77688306Y-88347673D01*
X77677816Y-88369851D01*
X77665203Y-88390895D01*
X77650589Y-88410600D01*
X77634113Y-88428779D01*
X77615934Y-88445255D01*
X77596229Y-88459869D01*
X77575185Y-88472482D01*
X77553007Y-88482972D01*
X77529907Y-88491237D01*
X77506109Y-88497198D01*
X77481840Y-88500798D01*
X77457336Y-88502002D01*
X76532336Y-88502002D01*
X76507832Y-88500798D01*
X76483563Y-88497198D01*
X76459765Y-88491237D01*
X76436665Y-88482972D01*
X76414487Y-88472482D01*
X76393443Y-88459869D01*
X76373738Y-88445255D01*
X76355559Y-88428779D01*
X76339083Y-88410600D01*
X76324469Y-88390895D01*
X76311856Y-88369851D01*
X76301366Y-88347673D01*
X76293101Y-88324573D01*
X76287140Y-88300775D01*
X76283540Y-88276506D01*
X76282336Y-88252002D01*
X76282336Y-87002002D01*
X76283540Y-86977498D01*
X76287140Y-86953229D01*
X76293101Y-86929431D01*
X76301366Y-86906331D01*
X76311856Y-86884153D01*
X76324469Y-86863109D01*
X76339083Y-86843404D01*
X76355559Y-86825225D01*
X76373738Y-86808749D01*
X76393443Y-86794135D01*
X76414487Y-86781522D01*
X76436665Y-86771032D01*
X76459765Y-86762767D01*
X76483563Y-86756806D01*
X76507832Y-86753206D01*
X76532336Y-86752002D01*
X77457336Y-86752002D01*
X77481840Y-86753206D01*
X77481840Y-86753206D01*
G37*
D11*
X76994836Y-87627002D03*
D10*
G36*
X74506840Y-86753206D02*
X74531109Y-86756806D01*
X74554907Y-86762767D01*
X74578007Y-86771032D01*
X74600185Y-86781522D01*
X74621229Y-86794135D01*
X74640934Y-86808749D01*
X74659113Y-86825225D01*
X74675589Y-86843404D01*
X74690203Y-86863109D01*
X74702816Y-86884153D01*
X74713306Y-86906331D01*
X74721571Y-86929431D01*
X74727532Y-86953229D01*
X74731132Y-86977498D01*
X74732336Y-87002002D01*
X74732336Y-88252002D01*
X74731132Y-88276506D01*
X74727532Y-88300775D01*
X74721571Y-88324573D01*
X74713306Y-88347673D01*
X74702816Y-88369851D01*
X74690203Y-88390895D01*
X74675589Y-88410600D01*
X74659113Y-88428779D01*
X74640934Y-88445255D01*
X74621229Y-88459869D01*
X74600185Y-88472482D01*
X74578007Y-88482972D01*
X74554907Y-88491237D01*
X74531109Y-88497198D01*
X74506840Y-88500798D01*
X74482336Y-88502002D01*
X73557336Y-88502002D01*
X73532832Y-88500798D01*
X73508563Y-88497198D01*
X73484765Y-88491237D01*
X73461665Y-88482972D01*
X73439487Y-88472482D01*
X73418443Y-88459869D01*
X73398738Y-88445255D01*
X73380559Y-88428779D01*
X73364083Y-88410600D01*
X73349469Y-88390895D01*
X73336856Y-88369851D01*
X73326366Y-88347673D01*
X73318101Y-88324573D01*
X73312140Y-88300775D01*
X73308540Y-88276506D01*
X73307336Y-88252002D01*
X73307336Y-87002002D01*
X73308540Y-86977498D01*
X73312140Y-86953229D01*
X73318101Y-86929431D01*
X73326366Y-86906331D01*
X73336856Y-86884153D01*
X73349469Y-86863109D01*
X73364083Y-86843404D01*
X73380559Y-86825225D01*
X73398738Y-86808749D01*
X73418443Y-86794135D01*
X73439487Y-86781522D01*
X73461665Y-86771032D01*
X73484765Y-86762767D01*
X73508563Y-86756806D01*
X73532832Y-86753206D01*
X73557336Y-86752002D01*
X74482336Y-86752002D01*
X74506840Y-86753206D01*
X74506840Y-86753206D01*
G37*
D11*
X74019836Y-87627002D03*
G04 #@! TD*
D10*
G04 #@! TO.C,R8*
G36*
X77481840Y-84213206D02*
X77506109Y-84216806D01*
X77529907Y-84222767D01*
X77553007Y-84231032D01*
X77575185Y-84241522D01*
X77596229Y-84254135D01*
X77615934Y-84268749D01*
X77634113Y-84285225D01*
X77650589Y-84303404D01*
X77665203Y-84323109D01*
X77677816Y-84344153D01*
X77688306Y-84366331D01*
X77696571Y-84389431D01*
X77702532Y-84413229D01*
X77706132Y-84437498D01*
X77707336Y-84462002D01*
X77707336Y-85712002D01*
X77706132Y-85736506D01*
X77702532Y-85760775D01*
X77696571Y-85784573D01*
X77688306Y-85807673D01*
X77677816Y-85829851D01*
X77665203Y-85850895D01*
X77650589Y-85870600D01*
X77634113Y-85888779D01*
X77615934Y-85905255D01*
X77596229Y-85919869D01*
X77575185Y-85932482D01*
X77553007Y-85942972D01*
X77529907Y-85951237D01*
X77506109Y-85957198D01*
X77481840Y-85960798D01*
X77457336Y-85962002D01*
X76532336Y-85962002D01*
X76507832Y-85960798D01*
X76483563Y-85957198D01*
X76459765Y-85951237D01*
X76436665Y-85942972D01*
X76414487Y-85932482D01*
X76393443Y-85919869D01*
X76373738Y-85905255D01*
X76355559Y-85888779D01*
X76339083Y-85870600D01*
X76324469Y-85850895D01*
X76311856Y-85829851D01*
X76301366Y-85807673D01*
X76293101Y-85784573D01*
X76287140Y-85760775D01*
X76283540Y-85736506D01*
X76282336Y-85712002D01*
X76282336Y-84462002D01*
X76283540Y-84437498D01*
X76287140Y-84413229D01*
X76293101Y-84389431D01*
X76301366Y-84366331D01*
X76311856Y-84344153D01*
X76324469Y-84323109D01*
X76339083Y-84303404D01*
X76355559Y-84285225D01*
X76373738Y-84268749D01*
X76393443Y-84254135D01*
X76414487Y-84241522D01*
X76436665Y-84231032D01*
X76459765Y-84222767D01*
X76483563Y-84216806D01*
X76507832Y-84213206D01*
X76532336Y-84212002D01*
X77457336Y-84212002D01*
X77481840Y-84213206D01*
X77481840Y-84213206D01*
G37*
D11*
X76994836Y-85087002D03*
D10*
G36*
X74506840Y-84213206D02*
X74531109Y-84216806D01*
X74554907Y-84222767D01*
X74578007Y-84231032D01*
X74600185Y-84241522D01*
X74621229Y-84254135D01*
X74640934Y-84268749D01*
X74659113Y-84285225D01*
X74675589Y-84303404D01*
X74690203Y-84323109D01*
X74702816Y-84344153D01*
X74713306Y-84366331D01*
X74721571Y-84389431D01*
X74727532Y-84413229D01*
X74731132Y-84437498D01*
X74732336Y-84462002D01*
X74732336Y-85712002D01*
X74731132Y-85736506D01*
X74727532Y-85760775D01*
X74721571Y-85784573D01*
X74713306Y-85807673D01*
X74702816Y-85829851D01*
X74690203Y-85850895D01*
X74675589Y-85870600D01*
X74659113Y-85888779D01*
X74640934Y-85905255D01*
X74621229Y-85919869D01*
X74600185Y-85932482D01*
X74578007Y-85942972D01*
X74554907Y-85951237D01*
X74531109Y-85957198D01*
X74506840Y-85960798D01*
X74482336Y-85962002D01*
X73557336Y-85962002D01*
X73532832Y-85960798D01*
X73508563Y-85957198D01*
X73484765Y-85951237D01*
X73461665Y-85942972D01*
X73439487Y-85932482D01*
X73418443Y-85919869D01*
X73398738Y-85905255D01*
X73380559Y-85888779D01*
X73364083Y-85870600D01*
X73349469Y-85850895D01*
X73336856Y-85829851D01*
X73326366Y-85807673D01*
X73318101Y-85784573D01*
X73312140Y-85760775D01*
X73308540Y-85736506D01*
X73307336Y-85712002D01*
X73307336Y-84462002D01*
X73308540Y-84437498D01*
X73312140Y-84413229D01*
X73318101Y-84389431D01*
X73326366Y-84366331D01*
X73336856Y-84344153D01*
X73349469Y-84323109D01*
X73364083Y-84303404D01*
X73380559Y-84285225D01*
X73398738Y-84268749D01*
X73418443Y-84254135D01*
X73439487Y-84241522D01*
X73461665Y-84231032D01*
X73484765Y-84222767D01*
X73508563Y-84216806D01*
X73532832Y-84213206D01*
X73557336Y-84212002D01*
X74482336Y-84212002D01*
X74506840Y-84213206D01*
X74506840Y-84213206D01*
G37*
D11*
X74019836Y-85087002D03*
G04 #@! TD*
D10*
G04 #@! TO.C,R7*
G36*
X77481840Y-81673206D02*
X77506109Y-81676806D01*
X77529907Y-81682767D01*
X77553007Y-81691032D01*
X77575185Y-81701522D01*
X77596229Y-81714135D01*
X77615934Y-81728749D01*
X77634113Y-81745225D01*
X77650589Y-81763404D01*
X77665203Y-81783109D01*
X77677816Y-81804153D01*
X77688306Y-81826331D01*
X77696571Y-81849431D01*
X77702532Y-81873229D01*
X77706132Y-81897498D01*
X77707336Y-81922002D01*
X77707336Y-83172002D01*
X77706132Y-83196506D01*
X77702532Y-83220775D01*
X77696571Y-83244573D01*
X77688306Y-83267673D01*
X77677816Y-83289851D01*
X77665203Y-83310895D01*
X77650589Y-83330600D01*
X77634113Y-83348779D01*
X77615934Y-83365255D01*
X77596229Y-83379869D01*
X77575185Y-83392482D01*
X77553007Y-83402972D01*
X77529907Y-83411237D01*
X77506109Y-83417198D01*
X77481840Y-83420798D01*
X77457336Y-83422002D01*
X76532336Y-83422002D01*
X76507832Y-83420798D01*
X76483563Y-83417198D01*
X76459765Y-83411237D01*
X76436665Y-83402972D01*
X76414487Y-83392482D01*
X76393443Y-83379869D01*
X76373738Y-83365255D01*
X76355559Y-83348779D01*
X76339083Y-83330600D01*
X76324469Y-83310895D01*
X76311856Y-83289851D01*
X76301366Y-83267673D01*
X76293101Y-83244573D01*
X76287140Y-83220775D01*
X76283540Y-83196506D01*
X76282336Y-83172002D01*
X76282336Y-81922002D01*
X76283540Y-81897498D01*
X76287140Y-81873229D01*
X76293101Y-81849431D01*
X76301366Y-81826331D01*
X76311856Y-81804153D01*
X76324469Y-81783109D01*
X76339083Y-81763404D01*
X76355559Y-81745225D01*
X76373738Y-81728749D01*
X76393443Y-81714135D01*
X76414487Y-81701522D01*
X76436665Y-81691032D01*
X76459765Y-81682767D01*
X76483563Y-81676806D01*
X76507832Y-81673206D01*
X76532336Y-81672002D01*
X77457336Y-81672002D01*
X77481840Y-81673206D01*
X77481840Y-81673206D01*
G37*
D11*
X76994836Y-82547002D03*
D10*
G36*
X74506840Y-81673206D02*
X74531109Y-81676806D01*
X74554907Y-81682767D01*
X74578007Y-81691032D01*
X74600185Y-81701522D01*
X74621229Y-81714135D01*
X74640934Y-81728749D01*
X74659113Y-81745225D01*
X74675589Y-81763404D01*
X74690203Y-81783109D01*
X74702816Y-81804153D01*
X74713306Y-81826331D01*
X74721571Y-81849431D01*
X74727532Y-81873229D01*
X74731132Y-81897498D01*
X74732336Y-81922002D01*
X74732336Y-83172002D01*
X74731132Y-83196506D01*
X74727532Y-83220775D01*
X74721571Y-83244573D01*
X74713306Y-83267673D01*
X74702816Y-83289851D01*
X74690203Y-83310895D01*
X74675589Y-83330600D01*
X74659113Y-83348779D01*
X74640934Y-83365255D01*
X74621229Y-83379869D01*
X74600185Y-83392482D01*
X74578007Y-83402972D01*
X74554907Y-83411237D01*
X74531109Y-83417198D01*
X74506840Y-83420798D01*
X74482336Y-83422002D01*
X73557336Y-83422002D01*
X73532832Y-83420798D01*
X73508563Y-83417198D01*
X73484765Y-83411237D01*
X73461665Y-83402972D01*
X73439487Y-83392482D01*
X73418443Y-83379869D01*
X73398738Y-83365255D01*
X73380559Y-83348779D01*
X73364083Y-83330600D01*
X73349469Y-83310895D01*
X73336856Y-83289851D01*
X73326366Y-83267673D01*
X73318101Y-83244573D01*
X73312140Y-83220775D01*
X73308540Y-83196506D01*
X73307336Y-83172002D01*
X73307336Y-81922002D01*
X73308540Y-81897498D01*
X73312140Y-81873229D01*
X73318101Y-81849431D01*
X73326366Y-81826331D01*
X73336856Y-81804153D01*
X73349469Y-81783109D01*
X73364083Y-81763404D01*
X73380559Y-81745225D01*
X73398738Y-81728749D01*
X73418443Y-81714135D01*
X73439487Y-81701522D01*
X73461665Y-81691032D01*
X73484765Y-81682767D01*
X73508563Y-81676806D01*
X73532832Y-81673206D01*
X73557336Y-81672002D01*
X74482336Y-81672002D01*
X74506840Y-81673206D01*
X74506840Y-81673206D01*
G37*
D11*
X74019836Y-82547002D03*
G04 #@! TD*
D10*
G04 #@! TO.C,R6*
G36*
X77481840Y-79133206D02*
X77506109Y-79136806D01*
X77529907Y-79142767D01*
X77553007Y-79151032D01*
X77575185Y-79161522D01*
X77596229Y-79174135D01*
X77615934Y-79188749D01*
X77634113Y-79205225D01*
X77650589Y-79223404D01*
X77665203Y-79243109D01*
X77677816Y-79264153D01*
X77688306Y-79286331D01*
X77696571Y-79309431D01*
X77702532Y-79333229D01*
X77706132Y-79357498D01*
X77707336Y-79382002D01*
X77707336Y-80632002D01*
X77706132Y-80656506D01*
X77702532Y-80680775D01*
X77696571Y-80704573D01*
X77688306Y-80727673D01*
X77677816Y-80749851D01*
X77665203Y-80770895D01*
X77650589Y-80790600D01*
X77634113Y-80808779D01*
X77615934Y-80825255D01*
X77596229Y-80839869D01*
X77575185Y-80852482D01*
X77553007Y-80862972D01*
X77529907Y-80871237D01*
X77506109Y-80877198D01*
X77481840Y-80880798D01*
X77457336Y-80882002D01*
X76532336Y-80882002D01*
X76507832Y-80880798D01*
X76483563Y-80877198D01*
X76459765Y-80871237D01*
X76436665Y-80862972D01*
X76414487Y-80852482D01*
X76393443Y-80839869D01*
X76373738Y-80825255D01*
X76355559Y-80808779D01*
X76339083Y-80790600D01*
X76324469Y-80770895D01*
X76311856Y-80749851D01*
X76301366Y-80727673D01*
X76293101Y-80704573D01*
X76287140Y-80680775D01*
X76283540Y-80656506D01*
X76282336Y-80632002D01*
X76282336Y-79382002D01*
X76283540Y-79357498D01*
X76287140Y-79333229D01*
X76293101Y-79309431D01*
X76301366Y-79286331D01*
X76311856Y-79264153D01*
X76324469Y-79243109D01*
X76339083Y-79223404D01*
X76355559Y-79205225D01*
X76373738Y-79188749D01*
X76393443Y-79174135D01*
X76414487Y-79161522D01*
X76436665Y-79151032D01*
X76459765Y-79142767D01*
X76483563Y-79136806D01*
X76507832Y-79133206D01*
X76532336Y-79132002D01*
X77457336Y-79132002D01*
X77481840Y-79133206D01*
X77481840Y-79133206D01*
G37*
D11*
X76994836Y-80007002D03*
D10*
G36*
X74506840Y-79133206D02*
X74531109Y-79136806D01*
X74554907Y-79142767D01*
X74578007Y-79151032D01*
X74600185Y-79161522D01*
X74621229Y-79174135D01*
X74640934Y-79188749D01*
X74659113Y-79205225D01*
X74675589Y-79223404D01*
X74690203Y-79243109D01*
X74702816Y-79264153D01*
X74713306Y-79286331D01*
X74721571Y-79309431D01*
X74727532Y-79333229D01*
X74731132Y-79357498D01*
X74732336Y-79382002D01*
X74732336Y-80632002D01*
X74731132Y-80656506D01*
X74727532Y-80680775D01*
X74721571Y-80704573D01*
X74713306Y-80727673D01*
X74702816Y-80749851D01*
X74690203Y-80770895D01*
X74675589Y-80790600D01*
X74659113Y-80808779D01*
X74640934Y-80825255D01*
X74621229Y-80839869D01*
X74600185Y-80852482D01*
X74578007Y-80862972D01*
X74554907Y-80871237D01*
X74531109Y-80877198D01*
X74506840Y-80880798D01*
X74482336Y-80882002D01*
X73557336Y-80882002D01*
X73532832Y-80880798D01*
X73508563Y-80877198D01*
X73484765Y-80871237D01*
X73461665Y-80862972D01*
X73439487Y-80852482D01*
X73418443Y-80839869D01*
X73398738Y-80825255D01*
X73380559Y-80808779D01*
X73364083Y-80790600D01*
X73349469Y-80770895D01*
X73336856Y-80749851D01*
X73326366Y-80727673D01*
X73318101Y-80704573D01*
X73312140Y-80680775D01*
X73308540Y-80656506D01*
X73307336Y-80632002D01*
X73307336Y-79382002D01*
X73308540Y-79357498D01*
X73312140Y-79333229D01*
X73318101Y-79309431D01*
X73326366Y-79286331D01*
X73336856Y-79264153D01*
X73349469Y-79243109D01*
X73364083Y-79223404D01*
X73380559Y-79205225D01*
X73398738Y-79188749D01*
X73418443Y-79174135D01*
X73439487Y-79161522D01*
X73461665Y-79151032D01*
X73484765Y-79142767D01*
X73508563Y-79136806D01*
X73532832Y-79133206D01*
X73557336Y-79132002D01*
X74482336Y-79132002D01*
X74506840Y-79133206D01*
X74506840Y-79133206D01*
G37*
D11*
X74019836Y-80007002D03*
G04 #@! TD*
D10*
G04 #@! TO.C,R5*
G36*
X77481840Y-76593206D02*
X77506109Y-76596806D01*
X77529907Y-76602767D01*
X77553007Y-76611032D01*
X77575185Y-76621522D01*
X77596229Y-76634135D01*
X77615934Y-76648749D01*
X77634113Y-76665225D01*
X77650589Y-76683404D01*
X77665203Y-76703109D01*
X77677816Y-76724153D01*
X77688306Y-76746331D01*
X77696571Y-76769431D01*
X77702532Y-76793229D01*
X77706132Y-76817498D01*
X77707336Y-76842002D01*
X77707336Y-78092002D01*
X77706132Y-78116506D01*
X77702532Y-78140775D01*
X77696571Y-78164573D01*
X77688306Y-78187673D01*
X77677816Y-78209851D01*
X77665203Y-78230895D01*
X77650589Y-78250600D01*
X77634113Y-78268779D01*
X77615934Y-78285255D01*
X77596229Y-78299869D01*
X77575185Y-78312482D01*
X77553007Y-78322972D01*
X77529907Y-78331237D01*
X77506109Y-78337198D01*
X77481840Y-78340798D01*
X77457336Y-78342002D01*
X76532336Y-78342002D01*
X76507832Y-78340798D01*
X76483563Y-78337198D01*
X76459765Y-78331237D01*
X76436665Y-78322972D01*
X76414487Y-78312482D01*
X76393443Y-78299869D01*
X76373738Y-78285255D01*
X76355559Y-78268779D01*
X76339083Y-78250600D01*
X76324469Y-78230895D01*
X76311856Y-78209851D01*
X76301366Y-78187673D01*
X76293101Y-78164573D01*
X76287140Y-78140775D01*
X76283540Y-78116506D01*
X76282336Y-78092002D01*
X76282336Y-76842002D01*
X76283540Y-76817498D01*
X76287140Y-76793229D01*
X76293101Y-76769431D01*
X76301366Y-76746331D01*
X76311856Y-76724153D01*
X76324469Y-76703109D01*
X76339083Y-76683404D01*
X76355559Y-76665225D01*
X76373738Y-76648749D01*
X76393443Y-76634135D01*
X76414487Y-76621522D01*
X76436665Y-76611032D01*
X76459765Y-76602767D01*
X76483563Y-76596806D01*
X76507832Y-76593206D01*
X76532336Y-76592002D01*
X77457336Y-76592002D01*
X77481840Y-76593206D01*
X77481840Y-76593206D01*
G37*
D11*
X76994836Y-77467002D03*
D10*
G36*
X74506840Y-76593206D02*
X74531109Y-76596806D01*
X74554907Y-76602767D01*
X74578007Y-76611032D01*
X74600185Y-76621522D01*
X74621229Y-76634135D01*
X74640934Y-76648749D01*
X74659113Y-76665225D01*
X74675589Y-76683404D01*
X74690203Y-76703109D01*
X74702816Y-76724153D01*
X74713306Y-76746331D01*
X74721571Y-76769431D01*
X74727532Y-76793229D01*
X74731132Y-76817498D01*
X74732336Y-76842002D01*
X74732336Y-78092002D01*
X74731132Y-78116506D01*
X74727532Y-78140775D01*
X74721571Y-78164573D01*
X74713306Y-78187673D01*
X74702816Y-78209851D01*
X74690203Y-78230895D01*
X74675589Y-78250600D01*
X74659113Y-78268779D01*
X74640934Y-78285255D01*
X74621229Y-78299869D01*
X74600185Y-78312482D01*
X74578007Y-78322972D01*
X74554907Y-78331237D01*
X74531109Y-78337198D01*
X74506840Y-78340798D01*
X74482336Y-78342002D01*
X73557336Y-78342002D01*
X73532832Y-78340798D01*
X73508563Y-78337198D01*
X73484765Y-78331237D01*
X73461665Y-78322972D01*
X73439487Y-78312482D01*
X73418443Y-78299869D01*
X73398738Y-78285255D01*
X73380559Y-78268779D01*
X73364083Y-78250600D01*
X73349469Y-78230895D01*
X73336856Y-78209851D01*
X73326366Y-78187673D01*
X73318101Y-78164573D01*
X73312140Y-78140775D01*
X73308540Y-78116506D01*
X73307336Y-78092002D01*
X73307336Y-76842002D01*
X73308540Y-76817498D01*
X73312140Y-76793229D01*
X73318101Y-76769431D01*
X73326366Y-76746331D01*
X73336856Y-76724153D01*
X73349469Y-76703109D01*
X73364083Y-76683404D01*
X73380559Y-76665225D01*
X73398738Y-76648749D01*
X73418443Y-76634135D01*
X73439487Y-76621522D01*
X73461665Y-76611032D01*
X73484765Y-76602767D01*
X73508563Y-76596806D01*
X73532832Y-76593206D01*
X73557336Y-76592002D01*
X74482336Y-76592002D01*
X74506840Y-76593206D01*
X74506840Y-76593206D01*
G37*
D11*
X74019836Y-77467002D03*
G04 #@! TD*
D10*
G04 #@! TO.C,R4*
G36*
X53863504Y-122951204D02*
X53887773Y-122954804D01*
X53911571Y-122960765D01*
X53934671Y-122969030D01*
X53956849Y-122979520D01*
X53977893Y-122992133D01*
X53997598Y-123006747D01*
X54015777Y-123023223D01*
X54032253Y-123041402D01*
X54046867Y-123061107D01*
X54059480Y-123082151D01*
X54069970Y-123104329D01*
X54078235Y-123127429D01*
X54084196Y-123151227D01*
X54087796Y-123175496D01*
X54089000Y-123200000D01*
X54089000Y-124450000D01*
X54087796Y-124474504D01*
X54084196Y-124498773D01*
X54078235Y-124522571D01*
X54069970Y-124545671D01*
X54059480Y-124567849D01*
X54046867Y-124588893D01*
X54032253Y-124608598D01*
X54015777Y-124626777D01*
X53997598Y-124643253D01*
X53977893Y-124657867D01*
X53956849Y-124670480D01*
X53934671Y-124680970D01*
X53911571Y-124689235D01*
X53887773Y-124695196D01*
X53863504Y-124698796D01*
X53839000Y-124700000D01*
X52914000Y-124700000D01*
X52889496Y-124698796D01*
X52865227Y-124695196D01*
X52841429Y-124689235D01*
X52818329Y-124680970D01*
X52796151Y-124670480D01*
X52775107Y-124657867D01*
X52755402Y-124643253D01*
X52737223Y-124626777D01*
X52720747Y-124608598D01*
X52706133Y-124588893D01*
X52693520Y-124567849D01*
X52683030Y-124545671D01*
X52674765Y-124522571D01*
X52668804Y-124498773D01*
X52665204Y-124474504D01*
X52664000Y-124450000D01*
X52664000Y-123200000D01*
X52665204Y-123175496D01*
X52668804Y-123151227D01*
X52674765Y-123127429D01*
X52683030Y-123104329D01*
X52693520Y-123082151D01*
X52706133Y-123061107D01*
X52720747Y-123041402D01*
X52737223Y-123023223D01*
X52755402Y-123006747D01*
X52775107Y-122992133D01*
X52796151Y-122979520D01*
X52818329Y-122969030D01*
X52841429Y-122960765D01*
X52865227Y-122954804D01*
X52889496Y-122951204D01*
X52914000Y-122950000D01*
X53839000Y-122950000D01*
X53863504Y-122951204D01*
X53863504Y-122951204D01*
G37*
D11*
X53376500Y-123825000D03*
D10*
G36*
X56838504Y-122951204D02*
X56862773Y-122954804D01*
X56886571Y-122960765D01*
X56909671Y-122969030D01*
X56931849Y-122979520D01*
X56952893Y-122992133D01*
X56972598Y-123006747D01*
X56990777Y-123023223D01*
X57007253Y-123041402D01*
X57021867Y-123061107D01*
X57034480Y-123082151D01*
X57044970Y-123104329D01*
X57053235Y-123127429D01*
X57059196Y-123151227D01*
X57062796Y-123175496D01*
X57064000Y-123200000D01*
X57064000Y-124450000D01*
X57062796Y-124474504D01*
X57059196Y-124498773D01*
X57053235Y-124522571D01*
X57044970Y-124545671D01*
X57034480Y-124567849D01*
X57021867Y-124588893D01*
X57007253Y-124608598D01*
X56990777Y-124626777D01*
X56972598Y-124643253D01*
X56952893Y-124657867D01*
X56931849Y-124670480D01*
X56909671Y-124680970D01*
X56886571Y-124689235D01*
X56862773Y-124695196D01*
X56838504Y-124698796D01*
X56814000Y-124700000D01*
X55889000Y-124700000D01*
X55864496Y-124698796D01*
X55840227Y-124695196D01*
X55816429Y-124689235D01*
X55793329Y-124680970D01*
X55771151Y-124670480D01*
X55750107Y-124657867D01*
X55730402Y-124643253D01*
X55712223Y-124626777D01*
X55695747Y-124608598D01*
X55681133Y-124588893D01*
X55668520Y-124567849D01*
X55658030Y-124545671D01*
X55649765Y-124522571D01*
X55643804Y-124498773D01*
X55640204Y-124474504D01*
X55639000Y-124450000D01*
X55639000Y-123200000D01*
X55640204Y-123175496D01*
X55643804Y-123151227D01*
X55649765Y-123127429D01*
X55658030Y-123104329D01*
X55668520Y-123082151D01*
X55681133Y-123061107D01*
X55695747Y-123041402D01*
X55712223Y-123023223D01*
X55730402Y-123006747D01*
X55750107Y-122992133D01*
X55771151Y-122979520D01*
X55793329Y-122969030D01*
X55816429Y-122960765D01*
X55840227Y-122954804D01*
X55864496Y-122951204D01*
X55889000Y-122950000D01*
X56814000Y-122950000D01*
X56838504Y-122951204D01*
X56838504Y-122951204D01*
G37*
D11*
X56351500Y-123825000D03*
G04 #@! TD*
D10*
G04 #@! TO.C,R3*
G36*
X50434504Y-105552204D02*
X50458773Y-105555804D01*
X50482571Y-105561765D01*
X50505671Y-105570030D01*
X50527849Y-105580520D01*
X50548893Y-105593133D01*
X50568598Y-105607747D01*
X50586777Y-105624223D01*
X50603253Y-105642402D01*
X50617867Y-105662107D01*
X50630480Y-105683151D01*
X50640970Y-105705329D01*
X50649235Y-105728429D01*
X50655196Y-105752227D01*
X50658796Y-105776496D01*
X50660000Y-105801000D01*
X50660000Y-107051000D01*
X50658796Y-107075504D01*
X50655196Y-107099773D01*
X50649235Y-107123571D01*
X50640970Y-107146671D01*
X50630480Y-107168849D01*
X50617867Y-107189893D01*
X50603253Y-107209598D01*
X50586777Y-107227777D01*
X50568598Y-107244253D01*
X50548893Y-107258867D01*
X50527849Y-107271480D01*
X50505671Y-107281970D01*
X50482571Y-107290235D01*
X50458773Y-107296196D01*
X50434504Y-107299796D01*
X50410000Y-107301000D01*
X49485000Y-107301000D01*
X49460496Y-107299796D01*
X49436227Y-107296196D01*
X49412429Y-107290235D01*
X49389329Y-107281970D01*
X49367151Y-107271480D01*
X49346107Y-107258867D01*
X49326402Y-107244253D01*
X49308223Y-107227777D01*
X49291747Y-107209598D01*
X49277133Y-107189893D01*
X49264520Y-107168849D01*
X49254030Y-107146671D01*
X49245765Y-107123571D01*
X49239804Y-107099773D01*
X49236204Y-107075504D01*
X49235000Y-107051000D01*
X49235000Y-105801000D01*
X49236204Y-105776496D01*
X49239804Y-105752227D01*
X49245765Y-105728429D01*
X49254030Y-105705329D01*
X49264520Y-105683151D01*
X49277133Y-105662107D01*
X49291747Y-105642402D01*
X49308223Y-105624223D01*
X49326402Y-105607747D01*
X49346107Y-105593133D01*
X49367151Y-105580520D01*
X49389329Y-105570030D01*
X49412429Y-105561765D01*
X49436227Y-105555804D01*
X49460496Y-105552204D01*
X49485000Y-105551000D01*
X50410000Y-105551000D01*
X50434504Y-105552204D01*
X50434504Y-105552204D01*
G37*
D11*
X49947500Y-106426000D03*
D10*
G36*
X53409504Y-105552204D02*
X53433773Y-105555804D01*
X53457571Y-105561765D01*
X53480671Y-105570030D01*
X53502849Y-105580520D01*
X53523893Y-105593133D01*
X53543598Y-105607747D01*
X53561777Y-105624223D01*
X53578253Y-105642402D01*
X53592867Y-105662107D01*
X53605480Y-105683151D01*
X53615970Y-105705329D01*
X53624235Y-105728429D01*
X53630196Y-105752227D01*
X53633796Y-105776496D01*
X53635000Y-105801000D01*
X53635000Y-107051000D01*
X53633796Y-107075504D01*
X53630196Y-107099773D01*
X53624235Y-107123571D01*
X53615970Y-107146671D01*
X53605480Y-107168849D01*
X53592867Y-107189893D01*
X53578253Y-107209598D01*
X53561777Y-107227777D01*
X53543598Y-107244253D01*
X53523893Y-107258867D01*
X53502849Y-107271480D01*
X53480671Y-107281970D01*
X53457571Y-107290235D01*
X53433773Y-107296196D01*
X53409504Y-107299796D01*
X53385000Y-107301000D01*
X52460000Y-107301000D01*
X52435496Y-107299796D01*
X52411227Y-107296196D01*
X52387429Y-107290235D01*
X52364329Y-107281970D01*
X52342151Y-107271480D01*
X52321107Y-107258867D01*
X52301402Y-107244253D01*
X52283223Y-107227777D01*
X52266747Y-107209598D01*
X52252133Y-107189893D01*
X52239520Y-107168849D01*
X52229030Y-107146671D01*
X52220765Y-107123571D01*
X52214804Y-107099773D01*
X52211204Y-107075504D01*
X52210000Y-107051000D01*
X52210000Y-105801000D01*
X52211204Y-105776496D01*
X52214804Y-105752227D01*
X52220765Y-105728429D01*
X52229030Y-105705329D01*
X52239520Y-105683151D01*
X52252133Y-105662107D01*
X52266747Y-105642402D01*
X52283223Y-105624223D01*
X52301402Y-105607747D01*
X52321107Y-105593133D01*
X52342151Y-105580520D01*
X52364329Y-105570030D01*
X52387429Y-105561765D01*
X52411227Y-105555804D01*
X52435496Y-105552204D01*
X52460000Y-105551000D01*
X53385000Y-105551000D01*
X53409504Y-105552204D01*
X53409504Y-105552204D01*
G37*
D11*
X52922500Y-106426000D03*
G04 #@! TD*
D10*
G04 #@! TO.C,R2*
G36*
X50561504Y-99837204D02*
X50585773Y-99840804D01*
X50609571Y-99846765D01*
X50632671Y-99855030D01*
X50654849Y-99865520D01*
X50675893Y-99878133D01*
X50695598Y-99892747D01*
X50713777Y-99909223D01*
X50730253Y-99927402D01*
X50744867Y-99947107D01*
X50757480Y-99968151D01*
X50767970Y-99990329D01*
X50776235Y-100013429D01*
X50782196Y-100037227D01*
X50785796Y-100061496D01*
X50787000Y-100086000D01*
X50787000Y-101336000D01*
X50785796Y-101360504D01*
X50782196Y-101384773D01*
X50776235Y-101408571D01*
X50767970Y-101431671D01*
X50757480Y-101453849D01*
X50744867Y-101474893D01*
X50730253Y-101494598D01*
X50713777Y-101512777D01*
X50695598Y-101529253D01*
X50675893Y-101543867D01*
X50654849Y-101556480D01*
X50632671Y-101566970D01*
X50609571Y-101575235D01*
X50585773Y-101581196D01*
X50561504Y-101584796D01*
X50537000Y-101586000D01*
X49612000Y-101586000D01*
X49587496Y-101584796D01*
X49563227Y-101581196D01*
X49539429Y-101575235D01*
X49516329Y-101566970D01*
X49494151Y-101556480D01*
X49473107Y-101543867D01*
X49453402Y-101529253D01*
X49435223Y-101512777D01*
X49418747Y-101494598D01*
X49404133Y-101474893D01*
X49391520Y-101453849D01*
X49381030Y-101431671D01*
X49372765Y-101408571D01*
X49366804Y-101384773D01*
X49363204Y-101360504D01*
X49362000Y-101336000D01*
X49362000Y-100086000D01*
X49363204Y-100061496D01*
X49366804Y-100037227D01*
X49372765Y-100013429D01*
X49381030Y-99990329D01*
X49391520Y-99968151D01*
X49404133Y-99947107D01*
X49418747Y-99927402D01*
X49435223Y-99909223D01*
X49453402Y-99892747D01*
X49473107Y-99878133D01*
X49494151Y-99865520D01*
X49516329Y-99855030D01*
X49539429Y-99846765D01*
X49563227Y-99840804D01*
X49587496Y-99837204D01*
X49612000Y-99836000D01*
X50537000Y-99836000D01*
X50561504Y-99837204D01*
X50561504Y-99837204D01*
G37*
D11*
X50074500Y-100711000D03*
D10*
G36*
X53536504Y-99837204D02*
X53560773Y-99840804D01*
X53584571Y-99846765D01*
X53607671Y-99855030D01*
X53629849Y-99865520D01*
X53650893Y-99878133D01*
X53670598Y-99892747D01*
X53688777Y-99909223D01*
X53705253Y-99927402D01*
X53719867Y-99947107D01*
X53732480Y-99968151D01*
X53742970Y-99990329D01*
X53751235Y-100013429D01*
X53757196Y-100037227D01*
X53760796Y-100061496D01*
X53762000Y-100086000D01*
X53762000Y-101336000D01*
X53760796Y-101360504D01*
X53757196Y-101384773D01*
X53751235Y-101408571D01*
X53742970Y-101431671D01*
X53732480Y-101453849D01*
X53719867Y-101474893D01*
X53705253Y-101494598D01*
X53688777Y-101512777D01*
X53670598Y-101529253D01*
X53650893Y-101543867D01*
X53629849Y-101556480D01*
X53607671Y-101566970D01*
X53584571Y-101575235D01*
X53560773Y-101581196D01*
X53536504Y-101584796D01*
X53512000Y-101586000D01*
X52587000Y-101586000D01*
X52562496Y-101584796D01*
X52538227Y-101581196D01*
X52514429Y-101575235D01*
X52491329Y-101566970D01*
X52469151Y-101556480D01*
X52448107Y-101543867D01*
X52428402Y-101529253D01*
X52410223Y-101512777D01*
X52393747Y-101494598D01*
X52379133Y-101474893D01*
X52366520Y-101453849D01*
X52356030Y-101431671D01*
X52347765Y-101408571D01*
X52341804Y-101384773D01*
X52338204Y-101360504D01*
X52337000Y-101336000D01*
X52337000Y-100086000D01*
X52338204Y-100061496D01*
X52341804Y-100037227D01*
X52347765Y-100013429D01*
X52356030Y-99990329D01*
X52366520Y-99968151D01*
X52379133Y-99947107D01*
X52393747Y-99927402D01*
X52410223Y-99909223D01*
X52428402Y-99892747D01*
X52448107Y-99878133D01*
X52469151Y-99865520D01*
X52491329Y-99855030D01*
X52514429Y-99846765D01*
X52538227Y-99840804D01*
X52562496Y-99837204D01*
X52587000Y-99836000D01*
X53512000Y-99836000D01*
X53536504Y-99837204D01*
X53536504Y-99837204D01*
G37*
D11*
X53049500Y-100711000D03*
G04 #@! TD*
D10*
G04 #@! TO.C,C3*
G36*
X92779504Y-68214204D02*
X92803773Y-68217804D01*
X92827571Y-68223765D01*
X92850671Y-68232030D01*
X92872849Y-68242520D01*
X92893893Y-68255133D01*
X92913598Y-68269747D01*
X92931777Y-68286223D01*
X92948253Y-68304402D01*
X92962867Y-68324107D01*
X92975480Y-68345151D01*
X92985970Y-68367329D01*
X92994235Y-68390429D01*
X93000196Y-68414227D01*
X93003796Y-68438496D01*
X93005000Y-68463000D01*
X93005000Y-69713000D01*
X93003796Y-69737504D01*
X93000196Y-69761773D01*
X92994235Y-69785571D01*
X92985970Y-69808671D01*
X92975480Y-69830849D01*
X92962867Y-69851893D01*
X92948253Y-69871598D01*
X92931777Y-69889777D01*
X92913598Y-69906253D01*
X92893893Y-69920867D01*
X92872849Y-69933480D01*
X92850671Y-69943970D01*
X92827571Y-69952235D01*
X92803773Y-69958196D01*
X92779504Y-69961796D01*
X92755000Y-69963000D01*
X91830000Y-69963000D01*
X91805496Y-69961796D01*
X91781227Y-69958196D01*
X91757429Y-69952235D01*
X91734329Y-69943970D01*
X91712151Y-69933480D01*
X91691107Y-69920867D01*
X91671402Y-69906253D01*
X91653223Y-69889777D01*
X91636747Y-69871598D01*
X91622133Y-69851893D01*
X91609520Y-69830849D01*
X91599030Y-69808671D01*
X91590765Y-69785571D01*
X91584804Y-69761773D01*
X91581204Y-69737504D01*
X91580000Y-69713000D01*
X91580000Y-68463000D01*
X91581204Y-68438496D01*
X91584804Y-68414227D01*
X91590765Y-68390429D01*
X91599030Y-68367329D01*
X91609520Y-68345151D01*
X91622133Y-68324107D01*
X91636747Y-68304402D01*
X91653223Y-68286223D01*
X91671402Y-68269747D01*
X91691107Y-68255133D01*
X91712151Y-68242520D01*
X91734329Y-68232030D01*
X91757429Y-68223765D01*
X91781227Y-68217804D01*
X91805496Y-68214204D01*
X91830000Y-68213000D01*
X92755000Y-68213000D01*
X92779504Y-68214204D01*
X92779504Y-68214204D01*
G37*
D11*
X92292500Y-69088000D03*
D10*
G36*
X89804504Y-68214204D02*
X89828773Y-68217804D01*
X89852571Y-68223765D01*
X89875671Y-68232030D01*
X89897849Y-68242520D01*
X89918893Y-68255133D01*
X89938598Y-68269747D01*
X89956777Y-68286223D01*
X89973253Y-68304402D01*
X89987867Y-68324107D01*
X90000480Y-68345151D01*
X90010970Y-68367329D01*
X90019235Y-68390429D01*
X90025196Y-68414227D01*
X90028796Y-68438496D01*
X90030000Y-68463000D01*
X90030000Y-69713000D01*
X90028796Y-69737504D01*
X90025196Y-69761773D01*
X90019235Y-69785571D01*
X90010970Y-69808671D01*
X90000480Y-69830849D01*
X89987867Y-69851893D01*
X89973253Y-69871598D01*
X89956777Y-69889777D01*
X89938598Y-69906253D01*
X89918893Y-69920867D01*
X89897849Y-69933480D01*
X89875671Y-69943970D01*
X89852571Y-69952235D01*
X89828773Y-69958196D01*
X89804504Y-69961796D01*
X89780000Y-69963000D01*
X88855000Y-69963000D01*
X88830496Y-69961796D01*
X88806227Y-69958196D01*
X88782429Y-69952235D01*
X88759329Y-69943970D01*
X88737151Y-69933480D01*
X88716107Y-69920867D01*
X88696402Y-69906253D01*
X88678223Y-69889777D01*
X88661747Y-69871598D01*
X88647133Y-69851893D01*
X88634520Y-69830849D01*
X88624030Y-69808671D01*
X88615765Y-69785571D01*
X88609804Y-69761773D01*
X88606204Y-69737504D01*
X88605000Y-69713000D01*
X88605000Y-68463000D01*
X88606204Y-68438496D01*
X88609804Y-68414227D01*
X88615765Y-68390429D01*
X88624030Y-68367329D01*
X88634520Y-68345151D01*
X88647133Y-68324107D01*
X88661747Y-68304402D01*
X88678223Y-68286223D01*
X88696402Y-68269747D01*
X88716107Y-68255133D01*
X88737151Y-68242520D01*
X88759329Y-68232030D01*
X88782429Y-68223765D01*
X88806227Y-68217804D01*
X88830496Y-68214204D01*
X88855000Y-68213000D01*
X89780000Y-68213000D01*
X89804504Y-68214204D01*
X89804504Y-68214204D01*
G37*
D11*
X89317500Y-69088000D03*
G04 #@! TD*
D10*
G04 #@! TO.C,C2*
G36*
X56148504Y-46801752D02*
X56172773Y-46805352D01*
X56196571Y-46811313D01*
X56219671Y-46819578D01*
X56241849Y-46830068D01*
X56262893Y-46842681D01*
X56282598Y-46857295D01*
X56300777Y-46873771D01*
X56317253Y-46891950D01*
X56331867Y-46911655D01*
X56344480Y-46932699D01*
X56354970Y-46954877D01*
X56363235Y-46977977D01*
X56369196Y-47001775D01*
X56372796Y-47026044D01*
X56374000Y-47050548D01*
X56374000Y-47975548D01*
X56372796Y-48000052D01*
X56369196Y-48024321D01*
X56363235Y-48048119D01*
X56354970Y-48071219D01*
X56344480Y-48093397D01*
X56331867Y-48114441D01*
X56317253Y-48134146D01*
X56300777Y-48152325D01*
X56282598Y-48168801D01*
X56262893Y-48183415D01*
X56241849Y-48196028D01*
X56219671Y-48206518D01*
X56196571Y-48214783D01*
X56172773Y-48220744D01*
X56148504Y-48224344D01*
X56124000Y-48225548D01*
X54874000Y-48225548D01*
X54849496Y-48224344D01*
X54825227Y-48220744D01*
X54801429Y-48214783D01*
X54778329Y-48206518D01*
X54756151Y-48196028D01*
X54735107Y-48183415D01*
X54715402Y-48168801D01*
X54697223Y-48152325D01*
X54680747Y-48134146D01*
X54666133Y-48114441D01*
X54653520Y-48093397D01*
X54643030Y-48071219D01*
X54634765Y-48048119D01*
X54628804Y-48024321D01*
X54625204Y-48000052D01*
X54624000Y-47975548D01*
X54624000Y-47050548D01*
X54625204Y-47026044D01*
X54628804Y-47001775D01*
X54634765Y-46977977D01*
X54643030Y-46954877D01*
X54653520Y-46932699D01*
X54666133Y-46911655D01*
X54680747Y-46891950D01*
X54697223Y-46873771D01*
X54715402Y-46857295D01*
X54735107Y-46842681D01*
X54756151Y-46830068D01*
X54778329Y-46819578D01*
X54801429Y-46811313D01*
X54825227Y-46805352D01*
X54849496Y-46801752D01*
X54874000Y-46800548D01*
X56124000Y-46800548D01*
X56148504Y-46801752D01*
X56148504Y-46801752D01*
G37*
D11*
X55499000Y-47513048D03*
D10*
G36*
X56148504Y-43826752D02*
X56172773Y-43830352D01*
X56196571Y-43836313D01*
X56219671Y-43844578D01*
X56241849Y-43855068D01*
X56262893Y-43867681D01*
X56282598Y-43882295D01*
X56300777Y-43898771D01*
X56317253Y-43916950D01*
X56331867Y-43936655D01*
X56344480Y-43957699D01*
X56354970Y-43979877D01*
X56363235Y-44002977D01*
X56369196Y-44026775D01*
X56372796Y-44051044D01*
X56374000Y-44075548D01*
X56374000Y-45000548D01*
X56372796Y-45025052D01*
X56369196Y-45049321D01*
X56363235Y-45073119D01*
X56354970Y-45096219D01*
X56344480Y-45118397D01*
X56331867Y-45139441D01*
X56317253Y-45159146D01*
X56300777Y-45177325D01*
X56282598Y-45193801D01*
X56262893Y-45208415D01*
X56241849Y-45221028D01*
X56219671Y-45231518D01*
X56196571Y-45239783D01*
X56172773Y-45245744D01*
X56148504Y-45249344D01*
X56124000Y-45250548D01*
X54874000Y-45250548D01*
X54849496Y-45249344D01*
X54825227Y-45245744D01*
X54801429Y-45239783D01*
X54778329Y-45231518D01*
X54756151Y-45221028D01*
X54735107Y-45208415D01*
X54715402Y-45193801D01*
X54697223Y-45177325D01*
X54680747Y-45159146D01*
X54666133Y-45139441D01*
X54653520Y-45118397D01*
X54643030Y-45096219D01*
X54634765Y-45073119D01*
X54628804Y-45049321D01*
X54625204Y-45025052D01*
X54624000Y-45000548D01*
X54624000Y-44075548D01*
X54625204Y-44051044D01*
X54628804Y-44026775D01*
X54634765Y-44002977D01*
X54643030Y-43979877D01*
X54653520Y-43957699D01*
X54666133Y-43936655D01*
X54680747Y-43916950D01*
X54697223Y-43898771D01*
X54715402Y-43882295D01*
X54735107Y-43867681D01*
X54756151Y-43855068D01*
X54778329Y-43844578D01*
X54801429Y-43836313D01*
X54825227Y-43830352D01*
X54849496Y-43826752D01*
X54874000Y-43825548D01*
X56124000Y-43825548D01*
X56148504Y-43826752D01*
X56148504Y-43826752D01*
G37*
D11*
X55499000Y-44538048D03*
G04 #@! TD*
D10*
G04 #@! TO.C,C1*
G36*
X55895504Y-53101204D02*
X55919773Y-53104804D01*
X55943571Y-53110765D01*
X55966671Y-53119030D01*
X55988849Y-53129520D01*
X56009893Y-53142133D01*
X56029598Y-53156747D01*
X56047777Y-53173223D01*
X56064253Y-53191402D01*
X56078867Y-53211107D01*
X56091480Y-53232151D01*
X56101970Y-53254329D01*
X56110235Y-53277429D01*
X56116196Y-53301227D01*
X56119796Y-53325496D01*
X56121000Y-53350000D01*
X56121000Y-54600000D01*
X56119796Y-54624504D01*
X56116196Y-54648773D01*
X56110235Y-54672571D01*
X56101970Y-54695671D01*
X56091480Y-54717849D01*
X56078867Y-54738893D01*
X56064253Y-54758598D01*
X56047777Y-54776777D01*
X56029598Y-54793253D01*
X56009893Y-54807867D01*
X55988849Y-54820480D01*
X55966671Y-54830970D01*
X55943571Y-54839235D01*
X55919773Y-54845196D01*
X55895504Y-54848796D01*
X55871000Y-54850000D01*
X54946000Y-54850000D01*
X54921496Y-54848796D01*
X54897227Y-54845196D01*
X54873429Y-54839235D01*
X54850329Y-54830970D01*
X54828151Y-54820480D01*
X54807107Y-54807867D01*
X54787402Y-54793253D01*
X54769223Y-54776777D01*
X54752747Y-54758598D01*
X54738133Y-54738893D01*
X54725520Y-54717849D01*
X54715030Y-54695671D01*
X54706765Y-54672571D01*
X54700804Y-54648773D01*
X54697204Y-54624504D01*
X54696000Y-54600000D01*
X54696000Y-53350000D01*
X54697204Y-53325496D01*
X54700804Y-53301227D01*
X54706765Y-53277429D01*
X54715030Y-53254329D01*
X54725520Y-53232151D01*
X54738133Y-53211107D01*
X54752747Y-53191402D01*
X54769223Y-53173223D01*
X54787402Y-53156747D01*
X54807107Y-53142133D01*
X54828151Y-53129520D01*
X54850329Y-53119030D01*
X54873429Y-53110765D01*
X54897227Y-53104804D01*
X54921496Y-53101204D01*
X54946000Y-53100000D01*
X55871000Y-53100000D01*
X55895504Y-53101204D01*
X55895504Y-53101204D01*
G37*
D11*
X55408500Y-53975000D03*
D10*
G36*
X58870504Y-53101204D02*
X58894773Y-53104804D01*
X58918571Y-53110765D01*
X58941671Y-53119030D01*
X58963849Y-53129520D01*
X58984893Y-53142133D01*
X59004598Y-53156747D01*
X59022777Y-53173223D01*
X59039253Y-53191402D01*
X59053867Y-53211107D01*
X59066480Y-53232151D01*
X59076970Y-53254329D01*
X59085235Y-53277429D01*
X59091196Y-53301227D01*
X59094796Y-53325496D01*
X59096000Y-53350000D01*
X59096000Y-54600000D01*
X59094796Y-54624504D01*
X59091196Y-54648773D01*
X59085235Y-54672571D01*
X59076970Y-54695671D01*
X59066480Y-54717849D01*
X59053867Y-54738893D01*
X59039253Y-54758598D01*
X59022777Y-54776777D01*
X59004598Y-54793253D01*
X58984893Y-54807867D01*
X58963849Y-54820480D01*
X58941671Y-54830970D01*
X58918571Y-54839235D01*
X58894773Y-54845196D01*
X58870504Y-54848796D01*
X58846000Y-54850000D01*
X57921000Y-54850000D01*
X57896496Y-54848796D01*
X57872227Y-54845196D01*
X57848429Y-54839235D01*
X57825329Y-54830970D01*
X57803151Y-54820480D01*
X57782107Y-54807867D01*
X57762402Y-54793253D01*
X57744223Y-54776777D01*
X57727747Y-54758598D01*
X57713133Y-54738893D01*
X57700520Y-54717849D01*
X57690030Y-54695671D01*
X57681765Y-54672571D01*
X57675804Y-54648773D01*
X57672204Y-54624504D01*
X57671000Y-54600000D01*
X57671000Y-53350000D01*
X57672204Y-53325496D01*
X57675804Y-53301227D01*
X57681765Y-53277429D01*
X57690030Y-53254329D01*
X57700520Y-53232151D01*
X57713133Y-53211107D01*
X57727747Y-53191402D01*
X57744223Y-53173223D01*
X57762402Y-53156747D01*
X57782107Y-53142133D01*
X57803151Y-53129520D01*
X57825329Y-53119030D01*
X57848429Y-53110765D01*
X57872227Y-53104804D01*
X57896496Y-53101204D01*
X57921000Y-53100000D01*
X58846000Y-53100000D01*
X58870504Y-53101204D01*
X58870504Y-53101204D01*
G37*
D11*
X58383500Y-53975000D03*
G04 #@! TD*
D10*
G04 #@! TO.C,R1*
G36*
X74564504Y-73950595D02*
X74588773Y-73954195D01*
X74612571Y-73960156D01*
X74635671Y-73968421D01*
X74657849Y-73978911D01*
X74678893Y-73991524D01*
X74698598Y-74006138D01*
X74716777Y-74022614D01*
X74733253Y-74040793D01*
X74747867Y-74060498D01*
X74760480Y-74081542D01*
X74770970Y-74103720D01*
X74779235Y-74126820D01*
X74785196Y-74150618D01*
X74788796Y-74174887D01*
X74790000Y-74199391D01*
X74790000Y-75449391D01*
X74788796Y-75473895D01*
X74785196Y-75498164D01*
X74779235Y-75521962D01*
X74770970Y-75545062D01*
X74760480Y-75567240D01*
X74747867Y-75588284D01*
X74733253Y-75607989D01*
X74716777Y-75626168D01*
X74698598Y-75642644D01*
X74678893Y-75657258D01*
X74657849Y-75669871D01*
X74635671Y-75680361D01*
X74612571Y-75688626D01*
X74588773Y-75694587D01*
X74564504Y-75698187D01*
X74540000Y-75699391D01*
X73615000Y-75699391D01*
X73590496Y-75698187D01*
X73566227Y-75694587D01*
X73542429Y-75688626D01*
X73519329Y-75680361D01*
X73497151Y-75669871D01*
X73476107Y-75657258D01*
X73456402Y-75642644D01*
X73438223Y-75626168D01*
X73421747Y-75607989D01*
X73407133Y-75588284D01*
X73394520Y-75567240D01*
X73384030Y-75545062D01*
X73375765Y-75521962D01*
X73369804Y-75498164D01*
X73366204Y-75473895D01*
X73365000Y-75449391D01*
X73365000Y-74199391D01*
X73366204Y-74174887D01*
X73369804Y-74150618D01*
X73375765Y-74126820D01*
X73384030Y-74103720D01*
X73394520Y-74081542D01*
X73407133Y-74060498D01*
X73421747Y-74040793D01*
X73438223Y-74022614D01*
X73456402Y-74006138D01*
X73476107Y-73991524D01*
X73497151Y-73978911D01*
X73519329Y-73968421D01*
X73542429Y-73960156D01*
X73566227Y-73954195D01*
X73590496Y-73950595D01*
X73615000Y-73949391D01*
X74540000Y-73949391D01*
X74564504Y-73950595D01*
X74564504Y-73950595D01*
G37*
D11*
X74077500Y-74824391D03*
D10*
G36*
X77539504Y-73950595D02*
X77563773Y-73954195D01*
X77587571Y-73960156D01*
X77610671Y-73968421D01*
X77632849Y-73978911D01*
X77653893Y-73991524D01*
X77673598Y-74006138D01*
X77691777Y-74022614D01*
X77708253Y-74040793D01*
X77722867Y-74060498D01*
X77735480Y-74081542D01*
X77745970Y-74103720D01*
X77754235Y-74126820D01*
X77760196Y-74150618D01*
X77763796Y-74174887D01*
X77765000Y-74199391D01*
X77765000Y-75449391D01*
X77763796Y-75473895D01*
X77760196Y-75498164D01*
X77754235Y-75521962D01*
X77745970Y-75545062D01*
X77735480Y-75567240D01*
X77722867Y-75588284D01*
X77708253Y-75607989D01*
X77691777Y-75626168D01*
X77673598Y-75642644D01*
X77653893Y-75657258D01*
X77632849Y-75669871D01*
X77610671Y-75680361D01*
X77587571Y-75688626D01*
X77563773Y-75694587D01*
X77539504Y-75698187D01*
X77515000Y-75699391D01*
X76590000Y-75699391D01*
X76565496Y-75698187D01*
X76541227Y-75694587D01*
X76517429Y-75688626D01*
X76494329Y-75680361D01*
X76472151Y-75669871D01*
X76451107Y-75657258D01*
X76431402Y-75642644D01*
X76413223Y-75626168D01*
X76396747Y-75607989D01*
X76382133Y-75588284D01*
X76369520Y-75567240D01*
X76359030Y-75545062D01*
X76350765Y-75521962D01*
X76344804Y-75498164D01*
X76341204Y-75473895D01*
X76340000Y-75449391D01*
X76340000Y-74199391D01*
X76341204Y-74174887D01*
X76344804Y-74150618D01*
X76350765Y-74126820D01*
X76359030Y-74103720D01*
X76369520Y-74081542D01*
X76382133Y-74060498D01*
X76396747Y-74040793D01*
X76413223Y-74022614D01*
X76431402Y-74006138D01*
X76451107Y-73991524D01*
X76472151Y-73978911D01*
X76494329Y-73968421D01*
X76517429Y-73960156D01*
X76541227Y-73954195D01*
X76565496Y-73950595D01*
X76590000Y-73949391D01*
X77515000Y-73949391D01*
X77539504Y-73950595D01*
X77539504Y-73950595D01*
G37*
D11*
X77052500Y-74824391D03*
G04 #@! TD*
M02*
