  0
SECTION
  2
HEADER
  9
$ANGBASE
  50
0.0
  9
$ANGDIR
  70
  1
  9
$MEASUREMENT
  70
0
  0
ENDSEC
  0
SECTION
  2
TABLES
  0
TABLE
  2
LTYPE
  70
4
  0
LTYPE
  5
40F
  2
CONTINUOUS
  70
0
  3
Solid line
  72
65
  73
0
  40
0.0
  0
LTYPE
  5
410
  2
DASHDOT
 70
0
  3
Dash Dot ____ _ ____ _
 72
65
 73
4
 40
2.0
 49
1.25
 49
-0.25
 49
0.25
 49
-0.25
  0
LTYPE
  5
411
  2
DASHED
 70
0
  3
Dashed __ __ __ __ __
 72
65
 73
2
 40
0.75
 49
0.5
 49
-0.25
  0
LTYPE
  5
43B
  2
DOTTED
 70
0
  3
Dotted .  .  .  .
 72
65
 73
2
 40
0.2
 49
0.0
 49
-0.2
  0
ENDTAB
  0
TABLE
  2
STYLE
  70
4
  0
STYLE
  2
KICAD
  70
0
  40
0
  41
1
  42
1
  50
0
  71
0
  3
isocp.shx
  0
STYLE
  2
KICADB
  70
0
  40
0
  41
1
  42
1
  50
0
  71
0
  3
isocp.shx
  0
STYLE
  2
KICADI
  70
0
  40
0
  41
1
  42
1
  50
15
  71
0
  3
isocp.shx
  0
STYLE
  2
KICADBI
  70
0
  40
0
  41
1
  42
1
  50
15
  71
0
  3
isocp.shx
  0
ENDTAB
  0
TABLE
  2
LAYER
  70
30
  0
LAYER
  2
BLACK
  70
0
  62
7
  6
CONTINUOUS
  0
LAYER
  2
GRAY1
  70
0
  62
251
  6
CONTINUOUS
  0
LAYER
  2
GRAY2
  70
0
  62
8
  6
CONTINUOUS
  0
LAYER
  2
GRAY3
  70
0
  62
9
  6
CONTINUOUS
  0
LAYER
  2
WHITE
  70
0
  62
7
  6
CONTINUOUS
  0
LAYER
  2
LYELLOW
  70
0
  62
51
  6
CONTINUOUS
  0
LAYER
  2
BLUE1
  70
0
  62
178
  6
CONTINUOUS
  0
LAYER
  2
GREEN1
  70
0
  62
98
  6
CONTINUOUS
  0
LAYER
  2
CYAN1
  70
0
  62
138
  6
CONTINUOUS
  0
LAYER
  2
RED1
  70
0
  62
18
  6
CONTINUOUS
  0
LAYER
  2
MAGENTA1
  70
0
  62
228
  6
CONTINUOUS
  0
LAYER
  2
BROWN1
  70
0
  62
58
  6
CONTINUOUS
  0
LAYER
  2
BLUE2
  70
0
  62
5
  6
CONTINUOUS
  0
LAYER
  2
GREEN2
  70
0
  62
3
  6
CONTINUOUS
  0
LAYER
  2
CYAN2
  70
0
  62
4
  6
CONTINUOUS
  0
LAYER
  2
RED2
  70
0
  62
1
  6
CONTINUOUS
  0
LAYER
  2
MAGENTA2
  70
0
  62
6
  6
CONTINUOUS
  0
LAYER
  2
BROWN2
  70
0
  62
54
  6
CONTINUOUS
  0
LAYER
  2
BLUE3
  70
0
  62
171
  6
CONTINUOUS
  0
LAYER
  2
GREEN3
  70
0
  62
91
  6
CONTINUOUS
  0
LAYER
  2
CYAN3
  70
0
  62
131
  6
CONTINUOUS
  0
LAYER
  2
RED3
  70
0
  62
11
  6
CONTINUOUS
  0
LAYER
  2
MAGENTA3
  70
0
  62
221
  6
CONTINUOUS
  0
LAYER
  2
YELLOW3
  70
0
  62
2
  6
CONTINUOUS
  0
LAYER
  2
BLUE4
  70
0
  62
5
  6
CONTINUOUS
  0
LAYER
  2
GREEN4
  70
0
  62
3
  6
CONTINUOUS
  0
LAYER
  2
CYAN4
  70
0
  62
4
  6
CONTINUOUS
  0
LAYER
  2
RED4
  70
0
  62
1
  6
CONTINUOUS
  0
LAYER
  2
MAGENTA4
  70
0
  62
6
  6
CONTINUOUS
  0
LAYER
  2
YELLOW4
  70
0
  62
2
  6
CONTINUOUS
  0
ENDTAB
  0
ENDSEC
  0
SECTION
  2
ENTITIES
0
LINE
8
BLACK
6
CONTINUOUS
10
178.356
20
-172.098
11
178.356
21
-172.102
0
LINE
8
BLACK
6
CONTINUOUS
10
178.356
20
-172.102
11
178.353
21
-172.106
0
LINE
8
BLACK
6
CONTINUOUS
10
178.353
20
-172.106
11
178.352
21
-172.11
0
LINE
8
BLACK
6
CONTINUOUS
10
178.352
20
-172.11
11
178.349
21
-172.114
0
LINE
8
BLACK
6
CONTINUOUS
10
178.349
20
-172.114
11
178.347
21
-172.118
0
LINE
8
BLACK
6
CONTINUOUS
10
178.347
20
-172.118
11
178.343
21
-172.12
0
LINE
8
BLACK
6
CONTINUOUS
10
178.343
20
-172.12
11
178.341
21
-172.124
0
LINE
8
BLACK
6
CONTINUOUS
10
178.341
20
-172.124
11
178.337
21
-172.126
0
LINE
8
BLACK
6
CONTINUOUS
10
178.337
20
-172.126
11
178.333
21
-172.129
0
LINE
8
BLACK
6
CONTINUOUS
10
178.333
20
-172.129
11
178.329
21
-172.13
0
LINE
8
BLACK
6
CONTINUOUS
10
178.329
20
-172.13
11
178.325
21
-172.133
0
LINE
8
BLACK
6
CONTINUOUS
10
178.325
20
-172.133
11
178.321
21
-172.133
0
LINE
8
BLACK
6
CONTINUOUS
10
178.321
20
-172.133
11
178.317
21
-172.135
0
LINE
8
BLACK
6
CONTINUOUS
10
178.317
20
-172.135
11
81.5252
21
-172.135
0
LINE
8
BLACK
6
CONTINUOUS
10
81.5252
20
-172.135
11
81.521
21
-172.133
0
LINE
8
BLACK
6
CONTINUOUS
10
81.521
20
-172.133
11
81.5166
21
-172.133
0
LINE
8
BLACK
6
CONTINUOUS
10
81.5166
20
-172.133
11
81.5128
21
-172.13
0
LINE
8
BLACK
6
CONTINUOUS
10
81.5128
20
-172.13
11
81.5086
21
-172.129
0
LINE
8
BLACK
6
CONTINUOUS
10
81.5086
20
-172.129
11
81.5052
21
-172.126
0
LINE
8
BLACK
6
CONTINUOUS
10
81.5052
20
-172.126
11
81.5014
21
-172.124
0
LINE
8
BLACK
6
CONTINUOUS
10
81.5014
20
-172.124
11
81.4985
21
-172.12
0
LINE
8
BLACK
6
CONTINUOUS
10
81.4985
20
-172.12
11
81.4951
21
-172.118
0
LINE
8
BLACK
6
CONTINUOUS
10
81.4951
20
-172.118
11
81.4929
21
-172.114
0
LINE
8
BLACK
6
CONTINUOUS
10
81.4929
20
-172.114
11
81.49
21
-172.11
0
LINE
8
BLACK
6
CONTINUOUS
10
81.49
20
-172.11
11
81.4885
21
-172.106
0
LINE
8
BLACK
6
CONTINUOUS
10
81.4885
20
-172.106
11
81.4863
21
-172.102
0
LINE
8
BLACK
6
CONTINUOUS
10
81.4863
20
-172.102
11
81.4855
21
-172.098
0
LINE
8
BLACK
6
CONTINUOUS
10
81.4855
20
-172.098
11
81.484
21
-172.094
0
LINE
8
BLACK
6
CONTINUOUS
10
81.484
20
-172.094
11
81.484
21
-172.076
0
LINE
8
BLACK
6
CONTINUOUS
10
81.484
20
-172.076
11
81.484
21
-32.0128
0
LINE
8
BLACK
6
CONTINUOUS
10
81.484
20
-32.0128
11
81.484
21
-32.0128
0
LINE
8
BLACK
6
CONTINUOUS
10
81.484
20
-32.0128
11
81.484
21
-31.9952
0
LINE
8
BLACK
6
CONTINUOUS
10
81.484
20
-31.9952
11
81.4855
21
-31.991
0
LINE
8
BLACK
6
CONTINUOUS
10
81.4855
20
-31.991
11
81.4863
21
-31.9866
0
LINE
8
BLACK
6
CONTINUOUS
10
81.4863
20
-31.9866
11
81.4885
21
-31.9828
0
LINE
8
BLACK
6
CONTINUOUS
10
81.4885
20
-31.9828
11
81.49
21
-31.9786
0
LINE
8
BLACK
6
CONTINUOUS
10
81.49
20
-31.9786
11
81.4929
21
-31.9752
0
LINE
8
BLACK
6
CONTINUOUS
10
81.4929
20
-31.9752
11
81.4951
21
-31.9714
0
LINE
8
BLACK
6
CONTINUOUS
10
81.4951
20
-31.9714
11
81.4985
21
-31.9685
0
LINE
8
BLACK
6
CONTINUOUS
10
81.4985
20
-31.9685
11
81.5014
21
-31.9651
0
LINE
8
BLACK
6
CONTINUOUS
10
81.5014
20
-31.9651
11
81.5052
21
-31.9629
0
LINE
8
BLACK
6
CONTINUOUS
10
81.5052
20
-31.9629
11
81.5086
21
-31.96
0
LINE
8
BLACK
6
CONTINUOUS
10
81.5086
20
-31.96
11
81.5128
21
-31.9585
0
LINE
8
BLACK
6
CONTINUOUS
10
81.5128
20
-31.9585
11
81.5166
21
-31.9563
0
LINE
8
BLACK
6
CONTINUOUS
10
81.5166
20
-31.9563
11
81.521
21
-31.9555
0
LINE
8
BLACK
6
CONTINUOUS
10
81.521
20
-31.9555
11
81.5252
21
-31.954
0
LINE
8
BLACK
6
CONTINUOUS
10
81.5252
20
-31.954
11
178.317
21
-31.954
0
LINE
8
BLACK
6
CONTINUOUS
10
178.317
20
-31.954
11
178.321
21
-31.9555
0
LINE
8
BLACK
6
CONTINUOUS
10
178.321
20
-31.9555
11
178.325
21
-31.9563
0
LINE
8
BLACK
6
CONTINUOUS
10
178.325
20
-31.9563
11
178.329
21
-31.9585
0
LINE
8
BLACK
6
CONTINUOUS
10
178.329
20
-31.9585
11
178.333
21
-31.96
0
LINE
8
BLACK
6
CONTINUOUS
10
178.333
20
-31.96
11
178.337
21
-31.9629
0
LINE
8
BLACK
6
CONTINUOUS
10
178.337
20
-31.9629
11
178.341
21
-31.9651
0
LINE
8
BLACK
6
CONTINUOUS
10
178.341
20
-31.9651
11
178.343
21
-31.9685
0
LINE
8
BLACK
6
CONTINUOUS
10
178.343
20
-31.9685
11
178.347
21
-31.9714
0
LINE
8
BLACK
6
CONTINUOUS
10
178.347
20
-31.9714
11
178.349
21
-31.9752
0
LINE
8
BLACK
6
CONTINUOUS
10
178.349
20
-31.9752
11
178.352
21
-31.9786
0
LINE
8
BLACK
6
CONTINUOUS
10
178.352
20
-31.9786
11
178.353
21
-31.9828
0
LINE
8
BLACK
6
CONTINUOUS
10
178.353
20
-31.9828
11
178.356
21
-31.9866
0
LINE
8
BLACK
6
CONTINUOUS
10
178.356
20
-31.9866
11
178.356
21
-31.991
0
LINE
8
BLACK
6
CONTINUOUS
10
178.356
20
-31.991
11
178.358
21
-31.9952
0
LINE
8
BLACK
6
CONTINUOUS
10
178.358
20
-31.9952
11
178.358
21
-172.094
0
LINE
8
BLACK
6
CONTINUOUS
10
178.358
20
-172.094
11
178.356
21
-172.098
0
LINE
8
BLACK
6
CONTINUOUS
10
81.584
20
-32.054
11
81.584
21
-172.035
0
LINE
8
BLACK
6
CONTINUOUS
10
81.584
20
-172.035
11
178.258
21
-172.035
0
LINE
8
BLACK
6
CONTINUOUS
10
178.258
20
-172.035
11
178.258
21
-32.054
0
LINE
8
BLACK
6
CONTINUOUS
10
178.258
20
-32.054
11
81.584
21
-32.054
0
LINE
8
BLACK
6
CONTINUOUS
10
121.921
20
-146.616
11
121.53
21
-147.184
0
LINE
8
BLACK
6
CONTINUOUS
10
121.53
20
-147.184
11
121.016
21
-147.642
0
LINE
8
BLACK
6
CONTINUOUS
10
121.016
20
-147.642
11
120.407
21
-147.964
0
LINE
8
BLACK
6
CONTINUOUS
10
120.407
20
-147.964
11
119.739
21
-148.132
0
LINE
8
BLACK
6
CONTINUOUS
10
119.739
20
-148.132
11
119.05
21
-148.136
0
LINE
8
BLACK
6
CONTINUOUS
10
119.05
20
-148.136
11
118.381
21
-147.975
0
LINE
8
BLACK
6
CONTINUOUS
10
118.381
20
-147.975
11
117.769
21
-147.659
0
LINE
8
BLACK
6
CONTINUOUS
10
117.769
20
-147.659
11
117.249
21
-147.206
0
LINE
8
BLACK
6
CONTINUOUS
10
117.249
20
-147.206
11
116.853
21
-146.643
0
LINE
8
BLACK
6
CONTINUOUS
10
116.853
20
-146.643
11
116.603
21
-146.001
0
LINE
8
BLACK
6
CONTINUOUS
10
116.603
20
-146.001
11
116.513
21
-145.318
0
LINE
8
BLACK
6
CONTINUOUS
10
116.513
20
-145.318
11
116.589
21
-144.633
0
LINE
8
BLACK
6
CONTINUOUS
10
116.589
20
-144.633
11
116.826
21
-143.986
0
LINE
8
BLACK
6
CONTINUOUS
10
116.826
20
-143.986
11
117.21
21
-143.415
0
LINE
8
BLACK
6
CONTINUOUS
10
117.21
20
-143.415
11
117.719
21
-142.951
0
LINE
8
BLACK
6
CONTINUOUS
10
117.719
20
-142.951
11
118.325
21
-142.622
0
LINE
8
BLACK
6
CONTINUOUS
10
118.325
20
-142.622
11
118.991
21
-142.448
0
LINE
8
BLACK
6
CONTINUOUS
10
118.991
20
-142.448
11
119.68
21
-142.437
0
LINE
8
BLACK
6
CONTINUOUS
10
119.68
20
-142.437
11
120.351
21
-142.591
0
LINE
8
BLACK
6
CONTINUOUS
10
120.351
20
-142.591
11
120.967
21
-142.9
0
LINE
8
BLACK
6
CONTINUOUS
10
120.967
20
-142.9
11
121.49
21
-143.347
0
LINE
8
BLACK
6
CONTINUOUS
10
121.49
20
-143.347
11
121.892
21
-143.907
0
LINE
8
BLACK
6
CONTINUOUS
10
121.892
20
-143.907
11
122.149
21
-144.546
0
LINE
8
BLACK
6
CONTINUOUS
10
122.149
20
-144.546
11
122.246
21
-145.228
0
LINE
8
BLACK
6
CONTINUOUS
10
122.246
20
-145.228
11
122.247
21
-145.288
0
LINE
8
BLACK
6
CONTINUOUS
10
122.247
20
-145.288
11
122.164
21
-145.972
0
LINE
8
BLACK
6
CONTINUOUS
10
122.164
20
-145.972
11
121.921
21
-146.616
0
LINE
8
BLACK
6
CONTINUOUS
10
121.814
20
-144.015
11
121.44
21
-143.471
0
LINE
8
BLACK
6
CONTINUOUS
10
121.44
20
-143.471
11
120.948
21
-143.032
0
LINE
8
BLACK
6
CONTINUOUS
10
120.948
20
-143.032
11
120.364
21
-142.724
0
LINE
8
BLACK
6
CONTINUOUS
10
120.364
20
-142.724
11
119.724
21
-142.563
0
LINE
8
BLACK
6
CONTINUOUS
10
119.724
20
-142.563
11
119.064
21
-142.559
0
LINE
8
BLACK
6
CONTINUOUS
10
119.064
20
-142.559
11
118.423
21
-142.713
0
LINE
8
BLACK
6
CONTINUOUS
10
118.423
20
-142.713
11
117.836
21
-143.016
0
LINE
8
BLACK
6
CONTINUOUS
10
117.836
20
-143.016
11
117.339
21
-143.45
0
LINE
8
BLACK
6
CONTINUOUS
10
117.339
20
-143.45
11
116.959
21
-143.99
0
LINE
8
BLACK
6
CONTINUOUS
10
116.959
20
-143.99
11
116.719
21
-144.605
0
LINE
8
BLACK
6
CONTINUOUS
10
116.719
20
-144.605
11
116.633
21
-145.259
0
LINE
8
BLACK
6
CONTINUOUS
10
116.633
20
-145.259
11
116.706
21
-145.915
0
LINE
8
BLACK
6
CONTINUOUS
10
116.706
20
-145.915
11
116.933
21
-146.535
0
LINE
8
BLACK
6
CONTINUOUS
10
116.933
20
-146.535
11
117.301
21
-147.083
0
LINE
8
BLACK
6
CONTINUOUS
10
117.301
20
-147.083
11
117.789
21
-147.527
0
LINE
8
BLACK
6
CONTINUOUS
10
117.789
20
-147.527
11
118.369
21
-147.842
0
LINE
8
BLACK
6
CONTINUOUS
10
118.369
20
-147.842
11
119.007
21
-148.009
0
LINE
8
BLACK
6
CONTINUOUS
10
119.007
20
-148.009
11
119.667
21
-148.02
0
LINE
8
BLACK
6
CONTINUOUS
10
119.667
20
-148.02
11
120.31
21
-147.872
0
LINE
8
BLACK
6
CONTINUOUS
10
120.31
20
-147.872
11
120.9
21
-147.576
0
LINE
8
BLACK
6
CONTINUOUS
10
120.9
20
-147.576
11
121.402
21
-147.147
0
LINE
8
BLACK
6
CONTINUOUS
10
121.402
20
-147.147
11
121.787
21
-146.611
0
LINE
8
BLACK
6
CONTINUOUS
10
121.787
20
-146.611
11
122.033
21
-145.999
0
LINE
8
BLACK
6
CONTINUOUS
10
122.033
20
-145.999
11
122.126
21
-145.346
0
LINE
8
BLACK
6
CONTINUOUS
10
122.126
20
-145.346
11
122.127
21
-145.288
0
LINE
8
BLACK
6
CONTINUOUS
10
122.127
20
-145.288
11
122.048
21
-144.633
0
LINE
8
BLACK
6
CONTINUOUS
10
122.048
20
-144.633
11
121.814
21
-144.015
0
LINE
8
BLACK
6
CONTINUOUS
10
156.97
20
-146.615
11
156.58
21
-147.182
0
LINE
8
BLACK
6
CONTINUOUS
10
156.58
20
-147.182
11
156.067
21
-147.64
0
LINE
8
BLACK
6
CONTINUOUS
10
156.067
20
-147.64
11
155.458
21
-147.962
0
LINE
8
BLACK
6
CONTINUOUS
10
155.458
20
-147.962
11
154.791
21
-148.129
0
LINE
8
BLACK
6
CONTINUOUS
10
154.791
20
-148.129
11
154.103
21
-148.133
0
LINE
8
BLACK
6
CONTINUOUS
10
154.103
20
-148.133
11
153.434
21
-147.972
0
LINE
8
BLACK
6
CONTINUOUS
10
153.434
20
-147.972
11
152.822
21
-147.657
0
LINE
8
BLACK
6
CONTINUOUS
10
152.822
20
-147.657
11
152.304
21
-147.204
0
LINE
8
BLACK
6
CONTINUOUS
10
152.304
20
-147.204
11
151.908
21
-146.641
0
LINE
8
BLACK
6
CONTINUOUS
10
151.908
20
-146.641
11
151.658
21
-146
0
LINE
8
BLACK
6
CONTINUOUS
10
151.658
20
-146
11
151.568
21
-145.318
0
LINE
8
BLACK
6
CONTINUOUS
10
151.568
20
-145.318
11
151.644
21
-144.634
0
LINE
8
BLACK
6
CONTINUOUS
10
151.644
20
-144.634
11
151.88
21
-143.988
0
LINE
8
BLACK
6
CONTINUOUS
10
151.88
20
-143.988
11
152.264
21
-143.417
0
LINE
8
BLACK
6
CONTINUOUS
10
152.264
20
-143.417
11
152.773
21
-142.953
0
LINE
8
BLACK
6
CONTINUOUS
10
152.773
20
-142.953
11
153.378
21
-142.625
0
LINE
8
BLACK
6
CONTINUOUS
10
153.378
20
-142.625
11
154.043
21
-142.45
0
LINE
8
BLACK
6
CONTINUOUS
10
154.043
20
-142.45
11
154.731
21
-142.44
0
LINE
8
BLACK
6
CONTINUOUS
10
154.731
20
-142.44
11
155.402
21
-142.593
0
LINE
8
BLACK
6
CONTINUOUS
10
155.402
20
-142.593
11
156.017
21
-142.903
0
LINE
8
BLACK
6
CONTINUOUS
10
156.017
20
-142.903
11
156.54
21
-143.349
0
LINE
8
BLACK
6
CONTINUOUS
10
156.54
20
-143.349
11
156.942
21
-143.908
0
LINE
8
BLACK
6
CONTINUOUS
10
156.942
20
-143.908
11
157.198
21
-144.547
0
LINE
8
BLACK
6
CONTINUOUS
10
157.198
20
-144.547
11
157.295
21
-145.228
0
LINE
8
BLACK
6
CONTINUOUS
10
157.295
20
-145.228
11
157.296
21
-145.288
0
LINE
8
BLACK
6
CONTINUOUS
10
157.296
20
-145.288
11
157.213
21
-145.971
0
LINE
8
BLACK
6
CONTINUOUS
10
157.213
20
-145.971
11
156.97
21
-146.615
0
LINE
8
BLACK
6
CONTINUOUS
10
156.864
20
-144.017
11
156.49
21
-143.473
0
LINE
8
BLACK
6
CONTINUOUS
10
156.49
20
-143.473
11
155.998
21
-143.035
0
LINE
8
BLACK
6
CONTINUOUS
10
155.998
20
-143.035
11
155.415
21
-142.726
0
LINE
8
BLACK
6
CONTINUOUS
10
155.415
20
-142.726
11
154.776
21
-142.566
0
LINE
8
BLACK
6
CONTINUOUS
10
154.776
20
-142.566
11
154.117
21
-142.562
0
LINE
8
BLACK
6
CONTINUOUS
10
154.117
20
-142.562
11
153.476
21
-142.716
0
LINE
8
BLACK
6
CONTINUOUS
10
153.476
20
-142.716
11
152.89
21
-143.018
0
LINE
8
BLACK
6
CONTINUOUS
10
152.89
20
-143.018
11
152.393
21
-143.452
0
LINE
8
BLACK
6
CONTINUOUS
10
152.393
20
-143.452
11
152.014
21
-143.991
0
LINE
8
BLACK
6
CONTINUOUS
10
152.014
20
-143.991
11
151.774
21
-144.606
0
LINE
8
BLACK
6
CONTINUOUS
10
151.774
20
-144.606
11
151.688
21
-145.259
0
LINE
8
BLACK
6
CONTINUOUS
10
151.688
20
-145.259
11
151.76
21
-145.915
0
LINE
8
BLACK
6
CONTINUOUS
10
151.76
20
-145.915
11
151.987
21
-146.534
0
LINE
8
BLACK
6
CONTINUOUS
10
151.987
20
-146.534
11
152.355
21
-147.081
0
LINE
8
BLACK
6
CONTINUOUS
10
152.355
20
-147.081
11
152.842
21
-147.525
0
LINE
8
BLACK
6
CONTINUOUS
10
152.842
20
-147.525
11
153.422
21
-147.839
0
LINE
8
BLACK
6
CONTINUOUS
10
153.422
20
-147.839
11
154.06
21
-148.007
0
LINE
8
BLACK
6
CONTINUOUS
10
154.06
20
-148.007
11
154.719
21
-148.017
0
LINE
8
BLACK
6
CONTINUOUS
10
154.719
20
-148.017
11
155.361
21
-147.87
0
LINE
8
BLACK
6
CONTINUOUS
10
155.361
20
-147.87
11
155.951
21
-147.574
0
LINE
8
BLACK
6
CONTINUOUS
10
155.951
20
-147.574
11
156.452
21
-147.145
0
LINE
8
BLACK
6
CONTINUOUS
10
156.452
20
-147.145
11
156.837
21
-146.61
0
LINE
8
BLACK
6
CONTINUOUS
10
156.837
20
-146.61
11
157.082
21
-145.998
0
LINE
8
BLACK
6
CONTINUOUS
10
157.082
20
-145.998
11
157.175
21
-145.345
0
LINE
8
BLACK
6
CONTINUOUS
10
157.175
20
-145.345
11
157.176
21
-145.288
0
LINE
8
BLACK
6
CONTINUOUS
10
157.176
20
-145.288
11
157.097
21
-144.633
0
LINE
8
BLACK
6
CONTINUOUS
10
157.097
20
-144.633
11
156.864
21
-144.017
0
LINE
8
BLACK
6
CONTINUOUS
10
121.928
20
-41.4642
11
121.537
21
-42.0336
0
LINE
8
BLACK
6
CONTINUOUS
10
121.537
20
-42.0336
11
121.021
21
-42.4932
0
LINE
8
BLACK
6
CONTINUOUS
10
121.021
20
-42.4932
11
120.41
21
-42.8165
0
LINE
8
BLACK
6
CONTINUOUS
10
120.41
20
-42.8165
11
119.74
21
-42.9848
0
LINE
8
BLACK
6
CONTINUOUS
10
119.74
20
-42.9848
11
119.049
21
-42.9885
0
LINE
8
BLACK
6
CONTINUOUS
10
119.049
20
-42.9885
11
118.378
21
-42.8272
0
LINE
8
BLACK
6
CONTINUOUS
10
118.378
20
-42.8272
11
117.764
21
-42.5103
0
LINE
8
BLACK
6
CONTINUOUS
10
117.764
20
-42.5103
11
117.243
21
-42.0561
0
LINE
8
BLACK
6
CONTINUOUS
10
117.243
20
-42.0561
11
116.846
21
-41.4908
0
LINE
8
BLACK
6
CONTINUOUS
10
116.846
20
-41.4908
11
116.595
21
-40.8471
0
LINE
8
BLACK
6
CONTINUOUS
10
116.595
20
-40.8471
11
116.505
21
-40.1621
0
LINE
8
BLACK
6
CONTINUOUS
10
116.505
20
-40.1621
11
116.58
21
-39.4754
0
LINE
8
BLACK
6
CONTINUOUS
10
116.58
20
-39.4754
11
116.818
21
-38.8265
0
LINE
8
BLACK
6
CONTINUOUS
10
116.818
20
-38.8265
11
117.203
21
-38.2531
0
LINE
8
BLACK
6
CONTINUOUS
10
117.203
20
-38.2531
11
117.714
21
-37.7881
0
LINE
8
BLACK
6
CONTINUOUS
10
117.714
20
-37.7881
11
118.321
21
-37.4584
0
LINE
8
BLACK
6
CONTINUOUS
10
118.321
20
-37.4584
11
118.99
21
-37.2831
0
LINE
8
BLACK
6
CONTINUOUS
10
118.99
20
-37.2831
11
119.681
21
-37.2722
0
LINE
8
BLACK
6
CONTINUOUS
10
119.681
20
-37.2722
11
120.354
21
-37.4265
0
LINE
8
BLACK
6
CONTINUOUS
10
120.354
20
-37.4265
11
120.971
21
-37.7369
0
LINE
8
BLACK
6
CONTINUOUS
10
120.971
20
-37.7369
11
121.497
21
-38.1856
0
LINE
8
BLACK
6
CONTINUOUS
10
121.497
20
-38.1856
11
121.9
21
-38.7467
0
LINE
8
BLACK
6
CONTINUOUS
10
121.9
20
-38.7467
11
122.158
21
-39.3878
0
LINE
8
BLACK
6
CONTINUOUS
10
122.158
20
-39.3878
11
122.255
21
-40.0718
0
LINE
8
BLACK
6
CONTINUOUS
10
122.255
20
-40.0718
11
122.256
21
-40.132
0
LINE
8
BLACK
6
CONTINUOUS
10
122.256
20
-40.132
11
122.173
21
-40.8179
0
LINE
8
BLACK
6
CONTINUOUS
10
122.173
20
-40.8179
11
121.928
21
-41.4642
0
LINE
8
BLACK
6
CONTINUOUS
10
121.822
20
-38.8554
11
121.447
21
-38.3097
0
LINE
8
BLACK
6
CONTINUOUS
10
121.447
20
-38.3097
11
120.953
21
-37.8693
0
LINE
8
BLACK
6
CONTINUOUS
10
120.953
20
-37.8693
11
120.367
21
-37.5595
0
LINE
8
BLACK
6
CONTINUOUS
10
120.367
20
-37.5595
11
119.725
21
-37.3982
0
LINE
8
BLACK
6
CONTINUOUS
10
119.725
20
-37.3982
11
119.063
21
-37.3947
0
LINE
8
BLACK
6
CONTINUOUS
10
119.063
20
-37.3947
11
118.42
21
-37.5493
0
LINE
8
BLACK
6
CONTINUOUS
10
118.42
20
-37.5493
11
117.831
21
-37.853
0
LINE
8
BLACK
6
CONTINUOUS
10
117.831
20
-37.853
11
117.332
21
-38.2882
0
LINE
8
BLACK
6
CONTINUOUS
10
117.332
20
-38.2882
11
116.952
21
-38.8299
0
LINE
8
BLACK
6
CONTINUOUS
10
116.952
20
-38.8299
11
116.711
21
-39.4467
0
LINE
8
BLACK
6
CONTINUOUS
10
116.711
20
-39.4467
11
116.625
21
-40.1031
0
LINE
8
BLACK
6
CONTINUOUS
10
116.625
20
-40.1031
11
116.697
21
-40.7612
0
LINE
8
BLACK
6
CONTINUOUS
10
116.697
20
-40.7612
11
116.925
21
-41.383
0
LINE
8
BLACK
6
CONTINUOUS
10
116.925
20
-41.383
11
117.294
21
-41.9325
0
LINE
8
BLACK
6
CONTINUOUS
10
117.294
20
-41.9325
11
117.784
21
-42.3781
0
LINE
8
BLACK
6
CONTINUOUS
10
117.784
20
-42.3781
11
118.366
21
-42.694
0
LINE
8
BLACK
6
CONTINUOUS
10
118.366
20
-42.694
11
119.006
21
-42.862
0
LINE
8
BLACK
6
CONTINUOUS
10
119.006
20
-42.862
11
119.668
21
-42.8724
0
LINE
8
BLACK
6
CONTINUOUS
10
119.668
20
-42.8724
11
120.313
21
-42.7246
0
LINE
8
BLACK
6
CONTINUOUS
10
120.313
20
-42.7246
11
120.905
21
-42.4271
0
LINE
8
BLACK
6
CONTINUOUS
10
120.905
20
-42.4271
11
121.408
21
-41.9971
0
LINE
8
BLACK
6
CONTINUOUS
10
121.408
20
-41.9971
11
121.795
21
-41.4595
0
LINE
8
BLACK
6
CONTINUOUS
10
121.795
20
-41.4595
11
122.042
21
-40.8452
0
LINE
8
BLACK
6
CONTINUOUS
10
122.042
20
-40.8452
11
122.135
21
-40.1897
0
LINE
8
BLACK
6
CONTINUOUS
10
122.135
20
-40.1897
11
122.136
21
-40.132
0
LINE
8
BLACK
6
CONTINUOUS
10
122.136
20
-40.132
11
122.056
21
-39.4747
0
LINE
8
BLACK
6
CONTINUOUS
10
122.056
20
-39.4747
11
121.822
21
-38.8554
0
LINE
8
BLACK
6
CONTINUOUS
10
156.857
20
-41.3955
11
156.471
21
-41.9273
0
LINE
8
BLACK
6
CONTINUOUS
10
156.471
20
-41.9273
11
155.964
21
-42.3464
0
LINE
8
BLACK
6
CONTINUOUS
10
155.964
20
-42.3464
11
155.369
21
-42.6263
0
LINE
8
BLACK
6
CONTINUOUS
10
155.369
20
-42.6263
11
154.724
21
-42.7495
0
LINE
8
BLACK
6
CONTINUOUS
10
154.724
20
-42.7495
11
154.068
21
-42.7082
0
LINE
8
BLACK
6
CONTINUOUS
10
154.068
20
-42.7082
11
153.442
21
-42.5051
0
LINE
8
BLACK
6
CONTINUOUS
10
153.442
20
-42.5051
11
152.887
21
-42.1528
0
LINE
8
BLACK
6
CONTINUOUS
10
152.887
20
-42.1528
11
152.437
21
-41.6736
0
LINE
8
BLACK
6
CONTINUOUS
10
152.437
20
-41.6736
11
152.121
21
-41.0975
0
LINE
8
BLACK
6
CONTINUOUS
10
152.121
20
-41.0975
11
151.957
21
-40.4607
0
LINE
8
BLACK
6
CONTINUOUS
10
151.957
20
-40.4607
11
151.957
21
-39.8033
0
LINE
8
BLACK
6
CONTINUOUS
10
151.957
20
-39.8033
11
152.121
21
-39.1665
0
LINE
8
BLACK
6
CONTINUOUS
10
152.121
20
-39.1665
11
152.437
21
-38.5904
0
LINE
8
BLACK
6
CONTINUOUS
10
152.437
20
-38.5904
11
152.887
21
-38.1112
0
LINE
8
BLACK
6
CONTINUOUS
10
152.887
20
-38.1112
11
153.442
21
-37.7589
0
LINE
8
BLACK
6
CONTINUOUS
10
153.442
20
-37.7589
11
154.068
21
-37.5558
0
LINE
8
BLACK
6
CONTINUOUS
10
154.068
20
-37.5558
11
154.724
21
-37.5145
0
LINE
8
BLACK
6
CONTINUOUS
10
154.724
20
-37.5145
11
155.369
21
-37.6377
0
LINE
8
BLACK
6
CONTINUOUS
10
155.369
20
-37.6377
11
155.964
21
-37.9176
0
LINE
8
BLACK
6
CONTINUOUS
10
155.964
20
-37.9176
11
156.471
21
-38.3367
0
LINE
8
BLACK
6
CONTINUOUS
10
156.471
20
-38.3367
11
156.857
21
-38.8685
0
LINE
8
BLACK
6
CONTINUOUS
10
156.857
20
-38.8685
11
157.099
21
-39.4798
0
LINE
8
BLACK
6
CONTINUOUS
10
157.099
20
-39.4798
11
157.182
21
-40.132
0
LINE
8
BLACK
6
CONTINUOUS
10
157.182
20
-40.132
11
157.099
21
-40.7842
0
LINE
8
BLACK
6
CONTINUOUS
10
157.099
20
-40.7842
11
156.857
21
-41.3955
0
LINE
8
BLACK
6
CONTINUOUS
10
156.752
20
-38.9263
11
156.383
21
-38.4188
0
LINE
8
BLACK
6
CONTINUOUS
10
156.383
20
-38.4188
11
155.9
21
-38.0189
0
LINE
8
BLACK
6
CONTINUOUS
10
155.9
20
-38.0189
11
155.332
21
-37.7518
0
LINE
8
BLACK
6
CONTINUOUS
10
155.332
20
-37.7518
11
154.716
21
-37.6343
0
LINE
8
BLACK
6
CONTINUOUS
10
154.716
20
-37.6343
11
154.09
21
-37.6737
0
LINE
8
BLACK
6
CONTINUOUS
10
154.09
20
-37.6737
11
153.493
21
-37.8675
0
LINE
8
BLACK
6
CONTINUOUS
10
153.493
20
-37.8675
11
152.964
21
-38.2037
0
LINE
8
BLACK
6
CONTINUOUS
10
152.964
20
-38.2037
11
152.534
21
-38.661
0
LINE
8
BLACK
6
CONTINUOUS
10
152.534
20
-38.661
11
152.232
21
-39.2107
0
LINE
8
BLACK
6
CONTINUOUS
10
152.232
20
-39.2107
11
152.076
21
-39.8183
0
LINE
8
BLACK
6
CONTINUOUS
10
152.076
20
-39.8183
11
152.076
21
-40.4457
0
LINE
8
BLACK
6
CONTINUOUS
10
152.076
20
-40.4457
11
152.232
21
-41.0533
0
LINE
8
BLACK
6
CONTINUOUS
10
152.232
20
-41.0533
11
152.534
21
-41.603
0
LINE
8
BLACK
6
CONTINUOUS
10
152.534
20
-41.603
11
152.964
21
-42.0603
0
LINE
8
BLACK
6
CONTINUOUS
10
152.964
20
-42.0603
11
153.493
21
-42.3965
0
LINE
8
BLACK
6
CONTINUOUS
10
153.493
20
-42.3965
11
154.09
21
-42.5903
0
LINE
8
BLACK
6
CONTINUOUS
10
154.09
20
-42.5903
11
154.716
21
-42.6297
0
LINE
8
BLACK
6
CONTINUOUS
10
154.716
20
-42.6297
11
155.332
21
-42.5122
0
LINE
8
BLACK
6
CONTINUOUS
10
155.332
20
-42.5122
11
155.9
21
-42.2451
0
LINE
8
BLACK
6
CONTINUOUS
10
155.9
20
-42.2451
11
156.383
21
-41.8452
0
LINE
8
BLACK
6
CONTINUOUS
10
156.383
20
-41.8452
11
156.752
21
-41.3377
0
LINE
8
BLACK
6
CONTINUOUS
10
156.752
20
-41.3377
11
156.983
21
-40.7544
0
LINE
8
BLACK
6
CONTINUOUS
10
156.983
20
-40.7544
11
157.062
21
-40.132
0
LINE
8
BLACK
6
CONTINUOUS
10
157.062
20
-40.132
11
156.983
21
-39.5096
0
LINE
8
BLACK
6
CONTINUOUS
10
156.983
20
-39.5096
11
156.752
21
-38.9263
  0
ENDSEC
  0
EOF
