0
SECTION
2
HEADER
9
$INSUNITS
70
4
9
$ACADVER
1
AC1014
9
$HANDSEED
5
FFFF
0
ENDSEC
0
SECTION
2
TABLES
0
TABLE
2
VPORT
5
8
100
AcDbSymbolTable
0
ENDTAB
0
TABLE
2
LTYPE
5
5
100
AcDbSymbolTable
0
LTYPE
5
14
100
AcDbSymbolTableRecord
100
AcDbLinetypeTableRecord
2
BYBLOCK
70
0
0
LTYPE
5
15
100
AcDbSymbolTableRecord
100
AcDbLinetypeTableRecord
2
BYLAYER
70
0
0
ENDTAB
0
TABLE
2
LAYER
5
2
100
AcDbSymbolTable
70
2
0
LAYER
5
50
100
AcDbSymbolTableRecord
100
AcDbLayerTableRecord
2
0
70
0
6
CONTINUOUS
0
ENDTAB
0
TABLE
2
STYLE
5
3
100
AcDbSymbolTable
70
1
0
STYLE
5
11
100
AcDbSymbolTableRecord
100
AcDbTextStyleTableRecord
2
STANDARD
70
0
0
ENDTAB
0
TABLE
2
VIEW
5
6
100
AcDbSymbolTable
70
0
0
ENDTAB
0
TABLE
2
UCS
5
7
100
AcDbSymbolTable
70
0
0
ENDTAB
0
TABLE
2
APPID
5
9
100
AcDbSymbolTable
70
2
0
APPID
5
12
100
AcDbSymbolTableRecord
100
AcDbRegAppTableRecord
2
ACAD
70
0
0
ENDTAB
0
TABLE
2
DIMSTYLE
5
A
100
AcDbSymbolTable
70
1
0
ENDTAB
0
TABLE
2
BLOCK_RECORD
5
1
100
AcDbSymbolTable
70
1
0
BLOCK_RECORD
5
1F
100
AcDbSymbolTableRecord
100
AcDbBlockTableRecord
2
*MODEL_SPACE
0
BLOCK_RECORD
5
1B
100
AcDbSymbolTableRecord
100
AcDbBlockTableRecord
2
*PAPER_SPACE
0
ENDTAB
0
ENDSEC
0
SECTION
2
BLOCKS
0
BLOCK
5
20
100
AcDbEntity
100
AcDbBlockBegin
2
*MODEL_SPACE
0
ENDBLK
5
21
100
AcDbEntity
100
AcDbBlockEnd
0
BLOCK
5
1C
100
AcDbEntity
100
AcDbBlockBegin
2
*PAPER_SPACE
0
ENDBLK
5
1D
100
AcDbEntity
100
AcDbBlockEnd
0
ENDSEC
0
SECTION
2
ENTITIES
0
LINE
5
100
100
AcDbEntity
8
0
100
AcDbLine
10
-2.7755575615628914e-16
20
-5
30
0
11
40
21
-4.9999999999999964
31
0
0
LINE
5
101
100
AcDbEntity
8
0
100
AcDbLine
10
40
20
-4.9999999999999964
30
0
11
40
21
-1.6500000000000004
31
0
0
ARC
5
102
100
AcDbEntity
8
0
100
AcDbCircle
10
40
20
0
30
0
40
1.6500000000000004
100
AcDbArc
50
181.80106322888031
51
270
0
SPLINE
5
103
100
AcDbEntity
8
0
100
AcDbSpline
70
1064
71
3
72
8
73
4
74
0
42
0.000000001
43
0.0000000001
44
0.0000000001
40
-0.12021800191460698
40
-0.12021800191460698
40
-0.12021800191460698
40
-0.12021800191460698
40
-0.090248781172104164
40
-0.090248781172104164
40
-0.090248781172104164
40
-0.090248781172104164
10
38.348978650240902
20
-0.026641831721956784
30
0
10
38.349390772509182
20
-0.03182619063335812
30
0
10
38.350193971312493
20
-0.04305986365732388
30
0
10
38.350815137440044
20
-0.051858356155155841
30
0
0
SPLINE
5
104
100
AcDbEntity
8
0
100
AcDbSpline
70
1064
71
3
72
11
73
7
74
0
42
0.000000001
43
0.0000000001
44
0.0000000001
40
-0.48153861023590577
40
-0.48153861023590577
40
-0.48153861023590577
40
-0.48153861023590577
40
-0.30654843051332981
40
-0.30654843051332981
40
-0.30654843051332981
40
-0.16539117257597161
40
-0.16539117257597161
40
-0.16539117257597161
40
-0.16539117257597161
10
37.961386598171877
20
1.2710162369765876
30
0
10
38.102700221063202
20
0.93261577908769933
30
0
10
38.20566503867618
20
0.62412291707900502
30
0
10
38.263138667669438
20
0.40351346623707662
30
0
10
38.309500239988864
20
0.22555705059545372
30
0
10
38.345500193453439
20
0.00078689561136024641
30
0
10
38.348978650240895
20
-0.026641831721958067
30
0
0
SPLINE
5
105
100
AcDbEntity
8
0
100
AcDbSpline
70
1064
71
3
72
10
73
6
74
0
42
0.000000001
43
0.0000000001
44
0.0000000001
40
0
40
0
40
0
40
0
40
0.33333333333333331
40
0.66666666666666663
40
1
40
1
40
1
40
1
10
37.038613401828123
20
1.2710162369765885
30
0
10
37.088931398677254
20
1.391511577945189
30
0
10
37.288485925175401
20
1.590119848664804
30
0
10
37.711514074824606
20
1.5901198486648043
30
0
10
37.911068601322746
20
1.3915115779451883
30
0
10
37.961386598171877
20
1.2710162369765878
30
0
0
SPLINE
5
106
100
AcDbEntity
8
0
100
AcDbSpline
70
1064
71
3
72
8
73
4
74
0
42
0.000000001
43
0.0000000001
44
0.0000000001
40
0.55427874485601891
40
0.55427874485601891
40
0.55427874485601891
40
0.55427874485601891
40
0.67944993230533279
40
0.67944993230533279
40
0.67944993230533279
40
0.67944993230533279
10
36.651021349759105
20
-0.026641831721958067
30
0
10
36.699954886524999
20
0.35921451763609868
30
0
10
36.816424786354951
20
0.73894630857592958
30
0
10
37.038613401828123
20
1.2710162369765894
30
0
0
SPLINE
5
107
100
AcDbEntity
8
0
100
AcDbSpline
70
1064
71
3
72
8
73
4
74
0
42
0.000000001
43
0.0000000001
44
0.0000000001
40
0
40
0
40
0
40
0
40
0.0025283283671071561
40
0.0025283283671071561
40
0.0025283283671071561
40
0.0025283283671071561
10
36.649184862559949
20
-0.051858356155156049
30
0
10
36.649778378099526
20
-0.043451519737821867
30
0
10
36.650353506168486
20
-0.03504307848044045
30
0
10
36.651021349759105
20
-0.026641831721958067
30
0
0
ARC
5
108
100
AcDbEntity
8
0
100
AcDbCircle
10
35
20
0
30
0
40
1.6500000000000004
100
AcDbArc
50
181.80106322888031
51
358.19893677111963
0
SPLINE
5
109
100
AcDbEntity
8
0
100
AcDbSpline
70
1064
71
3
72
8
73
4
74
0
42
0.000000001
43
0.0000000001
44
0.0000000001
40
-0.12021800191460698
40
-0.12021800191460698
40
-0.12021800191460698
40
-0.12021800191460698
40
-0.090248781172104164
40
-0.090248781172104164
40
-0.090248781172104164
40
-0.090248781172104164
10
33.348978650240902
20
-0.026641831721956784
30
0
10
33.349390772509182
20
-0.03182619063335812
30
0
10
33.350193971312493
20
-0.04305986365732388
30
0
10
33.350815137440044
20
-0.051858356155155841
30
0
0
SPLINE
5
110
100
AcDbEntity
8
0
100
AcDbSpline
70
1064
71
3
72
11
73
7
74
0
42
0.000000001
43
0.0000000001
44
0.0000000001
40
-0.48153861023590577
40
-0.48153861023590577
40
-0.48153861023590577
40
-0.48153861023590577
40
-0.30654843051332981
40
-0.30654843051332981
40
-0.30654843051332981
40
-0.16539117257597161
40
-0.16539117257597161
40
-0.16539117257597161
40
-0.16539117257597161
10
32.961386598171877
20
1.2710162369765876
30
0
10
33.102700221063202
20
0.93261577908769933
30
0
10
33.205665038676187
20
0.62412291707900502
30
0
10
33.263138667669438
20
0.40351346623707662
30
0
10
33.309500239988864
20
0.22555705059545372
30
0
10
33.345500193453439
20
0.00078689561136024641
30
0
10
33.348978650240895
20
-0.026641831721958067
30
0
0
SPLINE
5
111
100
AcDbEntity
8
0
100
AcDbSpline
70
1064
71
3
72
10
73
6
74
0
42
0.000000001
43
0.0000000001
44
0.0000000001
40
0
40
0
40
0
40
0
40
0.33333333333333331
40
0.66666666666666663
40
1
40
1
40
1
40
1
10
32.038613401828123
20
1.2710162369765885
30
0
10
32.088931398677254
20
1.391511577945189
30
0
10
32.288485925175401
20
1.590119848664804
30
0
10
32.711514074824606
20
1.5901198486648043
30
0
10
32.911068601322746
20
1.3915115779451883
30
0
10
32.961386598171877
20
1.2710162369765878
30
0
0
SPLINE
5
112
100
AcDbEntity
8
0
100
AcDbSpline
70
1064
71
3
72
8
73
4
74
0
42
0.000000001
43
0.0000000001
44
0.0000000001
40
0.55427874485601281
40
0.55427874485601281
40
0.55427874485601281
40
0.55427874485601281
40
0.67944993230528627
40
0.67944993230528627
40
0.67944993230528627
40
0.67944993230528627
10
31.651021349759105
20
-0.026641831721958067
30
0
10
31.699954886524992
20
0.35921451763605872
30
0
10
31.816424786354943
20
0.73894630857594057
30
0
10
32.038613401828123
20
1.2710162369765894
30
0
0
SPLINE
5
113
100
AcDbEntity
8
0
100
AcDbSpline
70
1064
71
3
72
8
73
4
74
0
42
0.000000001
43
0.0000000001
44
0.0000000001
40
0
40
0
40
0
40
0
40
0.0025283283671072216
40
0.0025283283671072216
40
0.0025283283671072216
40
0.0025283283671072216
10
31.649184862559949
20
-0.051858356155156049
30
0
10
31.649778378099526
20
-0.043451519737821354
30
0
10
31.650353506168486
20
-0.035043078480440755
30
0
10
31.651021349759105
20
-0.026641831721958067
30
0
0
ARC
5
114
100
AcDbEntity
8
0
100
AcDbCircle
10
30
20
0
30
0
40
1.6500000000000004
100
AcDbArc
50
181.80106322888031
51
358.19893677111963
0
SPLINE
5
115
100
AcDbEntity
8
0
100
AcDbSpline
70
1064
71
3
72
8
73
4
74
0
42
0.000000001
43
0.0000000001
44
0.0000000001
40
-0.12021800191460698
40
-0.12021800191460698
40
-0.12021800191460698
40
-0.12021800191460698
40
-0.090248781172104164
40
-0.090248781172104164
40
-0.090248781172104164
40
-0.090248781172104164
10
28.348978650240902
20
-0.026641831721956784
30
0
10
28.349390772509182
20
-0.03182619063335812
30
0
10
28.350193971312496
20
-0.04305986365732388
30
0
10
28.350815137440044
20
-0.051858356155155841
30
0
0
SPLINE
5
116
100
AcDbEntity
8
0
100
AcDbSpline
70
1064
71
3
72
11
73
7
74
0
42
0.000000001
43
0.0000000001
44
0.0000000001
40
-0.48153861023590577
40
-0.48153861023590577
40
-0.48153861023590577
40
-0.48153861023590577
40
-0.30654843051332981
40
-0.30654843051332981
40
-0.30654843051332981
40
-0.16539117257597161
40
-0.16539117257597161
40
-0.16539117257597161
40
-0.16539117257597161
10
27.961386598171881
20
1.2710162369765876
30
0
10
28.102700221063198
20
0.93261577908769933
30
0
10
28.20566503867618
20
0.62412291707900502
30
0
10
28.263138667669438
20
0.40351346623707662
30
0
10
28.309500239988861
20
0.22555705059545372
30
0
10
28.345500193453439
20
0.00078689561136024641
30
0
10
28.348978650240895
20
-0.026641831721958067
30
0
0
SPLINE
5
117
100
AcDbEntity
8
0
100
AcDbSpline
70
1064
71
3
72
10
73
6
74
0
42
0.000000001
43
0.0000000001
44
0.0000000001
40
0
40
0
40
0
40
0
40
0.33333333333333331
40
0.66666666666666663
40
1
40
1
40
1
40
1
10
27.038613401828119
20
1.2710162369765885
30
0
10
27.088931398677254
20
1.391511577945189
30
0
10
27.288485925175401
20
1.590119848664804
30
0
10
27.711514074824603
20
1.5901198486648043
30
0
10
27.911068601322746
20
1.3915115779451883
30
0
10
27.961386598171881
20
1.2710162369765878
30
0
0
SPLINE
5
118
100
AcDbEntity
8
0
100
AcDbSpline
70
1064
71
3
72
8
73
4
74
0
42
0.000000001
43
0.0000000001
44
0.0000000001
40
0.55427874485601314
40
0.55427874485601314
40
0.55427874485601314
40
0.55427874485601314
40
0.67944993230529271
40
0.67944993230529271
40
0.67944993230529271
40
0.67944993230529271
10
26.651021349759105
20
-0.026641831721958067
30
0
10
26.699954886524996
20
0.35921451763607343
30
0
10
26.816424786354943
20
0.738946308575956
30
0
10
27.038613401828123
20
1.2710162369765894
30
0
0
SPLINE
5
119
100
AcDbEntity
8
0
100
AcDbSpline
70
1064
71
3
72
8
73
4
74
0
42
0.000000001
43
0.0000000001
44
0.0000000001
40
0
40
0
40
0
40
0
40
0.0025283283671071462
40
0.0025283283671071462
40
0.0025283283671071462
40
0.0025283283671071462
10
26.649184862559952
20
-0.051858356155156049
30
0
10
26.649778378099533
20
-0.04345151973782161
30
0
10
26.650353506168486
20
-0.035043078480440588
30
0
10
26.651021349759105
20
-0.026641831721958067
30
0
0
ARC
5
120
100
AcDbEntity
8
0
100
AcDbCircle
10
25
20
0
30
0
40
1.6500000000000004
100
AcDbArc
50
181.80106322888031
51
358.19893677111963
0
SPLINE
5
121
100
AcDbEntity
8
0
100
AcDbSpline
70
1064
71
3
72
8
73
4
74
0
42
0.000000001
43
0.0000000001
44
0.0000000001
40
-0.12021800191460698
40
-0.12021800191460698
40
-0.12021800191460698
40
-0.12021800191460698
40
-0.090248781172104164
40
-0.090248781172104164
40
-0.090248781172104164
40
-0.090248781172104164
10
23.348978650240902
20
-0.026641831721956784
30
0
10
23.349390772509182
20
-0.03182619063335812
30
0
10
23.350193971312496
20
-0.04305986365732388
30
0
10
23.350815137440044
20
-0.051858356155155841
30
0
0
SPLINE
5
122
100
AcDbEntity
8
0
100
AcDbSpline
70
1064
71
3
72
11
73
7
74
0
42
0.000000001
43
0.0000000001
44
0.0000000001
40
-0.48153861023590577
40
-0.48153861023590577
40
-0.48153861023590577
40
-0.48153861023590577
40
-0.30654843051332981
40
-0.30654843051332981
40
-0.30654843051332981
40
-0.16539117257597161
40
-0.16539117257597161
40
-0.16539117257597161
40
-0.16539117257597161
10
22.961386598171881
20
1.2710162369765876
30
0
10
23.102700221063198
20
0.93261577908769933
30
0
10
23.20566503867618
20
0.62412291707900502
30
0
10
23.263138667669438
20
0.40351346623707662
30
0
10
23.309500239988861
20
0.22555705059545372
30
0
10
23.345500193453439
20
0.00078689561136024641
30
0
10
23.348978650240895
20
-0.026641831721958067
30
0
0
SPLINE
5
123
100
AcDbEntity
8
0
100
AcDbSpline
70
1064
71
3
72
10
73
6
74
0
42
0.000000001
43
0.0000000001
44
0.0000000001
40
0
40
0
40
0
40
0
40
0.33333333333333331
40
0.66666666666666663
40
1
40
1
40
1
40
1
10
22.038613401828119
20
1.2710162369765885
30
0
10
22.088931398677254
20
1.391511577945189
30
0
10
22.288485925175401
20
1.590119848664804
30
0
10
22.711514074824603
20
1.5901198486648043
30
0
10
22.911068601322746
20
1.3915115779451883
30
0
10
22.961386598171881
20
1.2710162369765878
30
0
0
SPLINE
5
124
100
AcDbEntity
8
0
100
AcDbSpline
70
1064
71
3
72
8
73
4
74
0
42
0.000000001
43
0.0000000001
44
0.0000000001
40
0.55427874485601936
40
0.55427874485601936
40
0.55427874485601936
40
0.55427874485601936
40
0.67944993230534134
40
0.67944993230534134
40
0.67944993230534134
40
0.67944993230534134
10
21.651021349759105
20
-0.026641831721958067
30
0
10
21.699954886524999
20
0.359214517636115
30
0
10
21.816424786354943
20
0.73894630857594601
30
0
10
22.038613401828123
20
1.2710162369765894
30
0
0
SPLINE
5
125
100
AcDbEntity
8
0
100
AcDbSpline
70
1064
71
3
72
8
73
4
74
0
42
0.000000001
43
0.0000000001
44
0.0000000001
40
0
40
0
40
0
40
0
40
0.0025283283671072229
40
0.0025283283671072229
40
0.0025283283671072229
40
0.0025283283671072229
10
21.649184862559949
20
-0.051858356155156049
30
0
10
21.649778378099526
20
-0.043451519737821354
30
0
10
21.650353506168486
20
-0.035043078480440762
30
0
10
21.651021349759105
20
-0.026641831721958067
30
0
0
ARC
5
126
100
AcDbEntity
8
0
100
AcDbCircle
10
20
20
0
30
0
40
1.6500000000000004
100
AcDbArc
50
181.80106322888031
51
358.19893677111963
0
SPLINE
5
127
100
AcDbEntity
8
0
100
AcDbSpline
70
1064
71
3
72
8
73
4
74
0
42
0.000000001
43
0.0000000001
44
0.0000000001
40
-0.12021800191460698
40
-0.12021800191460698
40
-0.12021800191460698
40
-0.12021800191460698
40
-0.090248781172104067
40
-0.090248781172104067
40
-0.090248781172104067
40
-0.090248781172104067
10
18.348978650240902
20
-0.026641831721956784
30
0
10
18.349390772509182
20
-0.031826190633358127
30
0
10
18.350193971312493
20
-0.043059863657323942
30
0
10
18.350815137440044
20
-0.05185835615515591
30
0
0
SPLINE
5
128
100
AcDbEntity
8
0
100
AcDbSpline
70
1064
71
3
72
11
73
7
74
0
42
0.000000001
43
0.0000000001
44
0.0000000001
40
-0.48153861023590577
40
-0.48153861023590577
40
-0.48153861023590577
40
-0.48153861023590577
40
-0.30654843051332981
40
-0.30654843051332981
40
-0.30654843051332981
40
-0.16539117257597161
40
-0.16539117257597161
40
-0.16539117257597161
40
-0.16539117257597161
10
17.961386598171877
20
1.2710162369765876
30
0
10
18.102700221063198
20
0.93261577908769933
30
0
10
18.205665038676187
20
0.62412291707900502
30
0
10
18.263138667669438
20
0.40351346623707662
30
0
10
18.309500239988861
20
0.22555705059545372
30
0
10
18.345500193453439
20
0.00078689561136024641
30
0
10
18.348978650240895
20
-0.026641831721958067
30
0
0
SPLINE
5
129
100
AcDbEntity
8
0
100
AcDbSpline
70
1064
71
3
72
10
73
6
74
0
42
0.000000001
43
0.0000000001
44
0.0000000001
40
0
40
0
40
0
40
0
40
0.33333333333333331
40
0.66666666666666663
40
1
40
1
40
1
40
1
10
17.038613401828119
20
1.2710162369765885
30
0
10
17.088931398677254
20
1.391511577945189
30
0
10
17.288485925175397
20
1.590119848664804
30
0
10
17.711514074824603
20
1.5901198486648043
30
0
10
17.911068601322746
20
1.3915115779451883
30
0
10
17.961386598171881
20
1.2710162369765878
30
0
0
SPLINE
5
130
100
AcDbEntity
8
0
100
AcDbSpline
70
1064
71
3
72
8
73
4
74
0
42
0.000000001
43
0.0000000001
44
0.0000000001
40
0.55427874485601702
40
0.55427874485601702
40
0.55427874485601702
40
0.55427874485601702
40
0.67944993230531914
40
0.67944993230531914
40
0.67944993230531914
40
0.67944993230531914
10
16.651021349759105
20
-0.026641831721958067
30
0
10
16.699954886524996
20
0.3592145176360888
30
0
10
16.816424786354943
20
0.73894630857593713
30
0
10
17.038613401828119
20
1.2710162369765894
30
0
0
SPLINE
5
131
100
AcDbEntity
8
0
100
AcDbSpline
70
1064
71
3
72
8
73
4
74
0
42
0.000000001
43
0.0000000001
44
0.0000000001
40
0
40
0
40
0
40
0
40
0.00252832836710718
40
0.00252832836710718
40
0.00252832836710718
40
0.00252832836710718
10
16.649184862559949
20
-0.051858356155156049
30
0
10
16.649778378099526
20
-0.043451519737821492
30
0
10
16.650353506168482
20
-0.035043078480440505
30
0
10
16.651021349759105
20
-0.026641831721958067
30
0
0
ARC
5
132
100
AcDbEntity
8
0
100
AcDbCircle
10
15
20
0
30
0
40
1.6500000000000004
100
AcDbArc
50
181.80106322888031
51
358.19893677111963
0
SPLINE
5
133
100
AcDbEntity
8
0
100
AcDbSpline
70
1064
71
3
72
8
73
4
74
0
42
0.000000001
43
0.0000000001
44
0.0000000001
40
-0.12021800191460698
40
-0.12021800191460698
40
-0.12021800191460698
40
-0.12021800191460698
40
-0.090248781172104067
40
-0.090248781172104067
40
-0.090248781172104067
40
-0.090248781172104067
10
13.348978650240904
20
-0.026641831721956784
30
0
10
13.34939077250918
20
-0.031826190633358127
30
0
10
13.350193971312496
20
-0.043059863657323942
30
0
10
13.350815137440046
20
-0.05185835615515591
30
0
0
SPLINE
5
134
100
AcDbEntity
8
0
100
AcDbSpline
70
1064
71
3
72
11
73
7
74
0
42
0.000000001
43
0.0000000001
44
0.0000000001
40
-0.48153861023590577
40
-0.48153861023590577
40
-0.48153861023590577
40
-0.48153861023590577
40
-0.30654843051332981
40
-0.30654843051332981
40
-0.30654843051332981
40
-0.16539117257597161
40
-0.16539117257597161
40
-0.16539117257597161
40
-0.16539117257597161
10
12.961386598171877
20
1.2710162369765876
30
0
10
13.102700221063198
20
0.93261577908769933
30
0
10
13.205665038676187
20
0.62412291707900502
30
0
10
13.263138667669438
20
0.40351346623707662
30
0
10
13.309500239988861
20
0.22555705059545372
30
0
10
13.345500193453441
20
0.00078689561136024641
30
0
10
13.348978650240895
20
-0.026641831721958067
30
0
0
SPLINE
5
135
100
AcDbEntity
8
0
100
AcDbSpline
70
1064
71
3
72
10
73
6
74
0
42
0.000000001
43
0.0000000001
44
0.0000000001
40
0
40
0
40
0
40
0
40
0.33333333333333331
40
0.66666666666666663
40
1
40
1
40
1
40
1
10
12.038613401828119
20
1.2710162369765885
30
0
10
12.088931398677252
20
1.391511577945189
30
0
10
12.288485925175399
20
1.590119848664804
30
0
10
12.711514074824601
20
1.5901198486648043
30
0
10
12.911068601322748
20
1.3915115779451883
30
0
10
12.961386598171881
20
1.2710162369765878
30
0
0
SPLINE
5
136
100
AcDbEntity
8
0
100
AcDbSpline
70
1064
71
3
72
8
73
4
74
0
42
0.000000001
43
0.0000000001
44
0.0000000001
40
0.55427874485601636
40
0.55427874485601636
40
0.55427874485601636
40
0.55427874485601636
40
0.67944993230531314
40
0.67944993230531314
40
0.67944993230531314
40
0.67944993230531314
10
11.651021349759105
20
-0.026641831721958067
30
0
10
11.699954886524996
20
0.3592145176360822
30
0
10
11.816424786354943
20
0.73894630857593524
30
0
10
12.038613401828119
20
1.2710162369765894
30
0
0
SPLINE
5
137
100
AcDbEntity
8
0
100
AcDbSpline
70
1064
71
3
72
8
73
4
74
0
42
0.000000001
43
0.0000000001
44
0.0000000001
40
0
40
0
40
0
40
0
40
0.0025283283671071943
40
0.0025283283671071943
40
0.0025283283671071943
40
0.0025283283671071943
10
11.649184862559947
20
-0.051858356155156049
30
0
10
11.649778378099525
20
-0.043451519737821444
30
0
10
11.650353506168482
20
-0.035043078480440394
30
0
10
11.651021349759105
20
-0.026641831721958067
30
0
0
ARC
5
138
100
AcDbEntity
8
0
100
AcDbCircle
10
10
20
0
30
0
40
1.6500000000000004
100
AcDbArc
50
181.80106322888031
51
358.19893677111963
0
SPLINE
5
139
100
AcDbEntity
8
0
100
AcDbSpline
70
1064
71
3
72
8
73
4
74
0
42
0.000000001
43
0.0000000001
44
0.0000000001
40
-0.12021800191460698
40
-0.12021800191460698
40
-0.12021800191460698
40
-0.12021800191460698
40
-0.090248781172104067
40
-0.090248781172104067
40
-0.090248781172104067
40
-0.090248781172104067
10
8.3489786502409054
20
-0.026641831721956784
30
0
10
8.3493907725091816
20
-0.031826190633358127
30
0
10
8.350193971312498
20
-0.043059863657323942
30
0
10
8.3508151374400477
20
-0.05185835615515591
30
0
0
SPLINE
5
140
100
AcDbEntity
8
0
100
AcDbSpline
70
1064
71
3
72
11
73
7
74
0
42
0.000000001
43
0.0000000001
44
0.0000000001
40
-0.48153861023590572
40
-0.48153861023590572
40
-0.48153861023590572
40
-0.48153861023590572
40
-0.30654843051332981
40
-0.30654843051332981
40
-0.30654843051332981
40
-0.16539117257597161
40
-0.16539117257597161
40
-0.16539117257597161
40
-0.16539117257597161
10
7.9613865981718801
20
1.2710162369765874
30
0
10
8.1027002210631984
20
0.93261577908769899
30
0
10
8.2056650386761838
20
0.62412291707900502
30
0
10
8.2631386676694376
20
0.40351346623707662
30
0
10
8.3095002399888589
20
0.22555705059545372
30
0
10
8.3455001934534412
20
0.00078689561136024641
30
0
10
8.3489786502408947
20
-0.026641831721958067
30
0
0
SPLINE
5
141
100
AcDbEntity
8
0
100
AcDbSpline
70
1064
71
3
72
10
73
6
74
0
42
0.000000001
43
0.0000000001
44
0.0000000001
40
0
40
0
40
0
40
0
40
0.33333333333333331
40
0.66666666666666663
40
1
40
1
40
1
40
1
10
7.0386134018281199
20
1.2710162369765885
30
0
10
7.0889313986772517
20
1.391511577945189
30
0
10
7.2884859251753991
20
1.590119848664804
30
0
10
7.7115140748246009
20
1.5901198486648043
30
0
10
7.9110686013227483
20
1.3915115779451883
30
0
10
7.9613865981718801
20
1.2710162369765878
30
0
0
SPLINE
5
142
100
AcDbEntity
8
0
100
AcDbSpline
70
1064
71
3
72
11
73
7
74
0
42
0.000000001
43
0.0000000001
44
0.0000000001
40
-0.48153861023590583
40
-0.48153861023590583
40
-0.48153861023590583
40
-0.48153861023590583
40
-0.30654843051332981
40
-0.30654843051332981
40
-0.30654843051332981
40
-0.16539117257597161
40
-0.16539117257597161
40
-0.16539117257597161
40
-0.16539117257597161
10
7.0386134018281208
20
1.2710162369765878
30
0
10
6.8972997789367998
20
0.93261577908769944
30
0
10
6.7943349613238162
20
0.62412291707900514
30
0
10
6.7368613323305615
20
0.40351346623707662
30
0
10
6.6904997600111402
20
0.22555705059545372
30
0
10
6.6544998065465588
20
0.00078689561136024641
30
0
10
6.6510213497591053
20
-0.026641831721958067
30
0
0
SPLINE
5
143
100
AcDbEntity
8
0
100
AcDbSpline
70
1064
71
3
72
8
73
4
74
0
42
0.000000001
43
0.0000000001
44
0.0000000001
40
-0.12021800191460698
40
-0.12021800191460698
40
-0.12021800191460698
40
-0.12021800191460698
40
-0.090248781172104067
40
-0.090248781172104067
40
-0.090248781172104067
40
-0.090248781172104067
10
6.6510213497590955
20
-0.026641831721956784
30
0
10
6.6506092274908184
20
-0.031826190633358127
30
0
10
6.649806028687502
20
-0.043059863657323942
30
0
10
6.6491848625599506
20
-0.05185835615515591
30
0
0
ARC
5
144
100
AcDbEntity
8
0
100
AcDbCircle
10
5
20
4.163336342344337e-16
30
0
40
1.6500000000000004
100
AcDbArc
50
181.80106322888031
51
358.19893677111963
0
SPLINE
5
145
100
AcDbEntity
8
0
100
AcDbSpline
70
1064
71
3
72
8
73
4
74
0
42
0.000000001
43
0.0000000001
44
0.0000000001
40
0.090248781172104081
40
0.090248781172104081
40
0.090248781172104081
40
0.090248781172104081
40
0.12021800191460698
40
0.12021800191460698
40
0.12021800191460698
40
0.12021800191460698
10
3.3508151374400486
20
-0.051858356155155903
30
0
10
3.3501939713124984
20
-0.043059863657323942
30
0
10
3.349390772509182
20
-0.031826190633358127
30
0
10
3.3489786502409045
20
-0.026641831721956784
30
0
0
SPLINE
5
146
100
AcDbEntity
8
0
100
AcDbSpline
70
1064
71
3
72
11
73
7
74
0
42
0.000000001
43
0.0000000001
44
0.0000000001
40
0.16539117257597161
40
0.16539117257597161
40
0.16539117257597161
40
0.16539117257597161
40
0.30654843051332981
40
0.30654843051332981
40
0.30654843051332981
40
0.48153861023590583
40
0.48153861023590583
40
0.48153861023590583
40
0.48153861023590583
10
3.3489786502408947
20
-0.026641831721958067
30
0
10
3.3455001934534412
20
0.00078689561136024641
30
0
10
3.3095002399888598
20
0.22555705059545372
30
0
10
3.2631386676694385
20
0.40351346623707662
30
0
10
3.2056650386761842
20
0.62412291707900514
30
0
10
3.1027002210631998
20
0.93261577908769944
30
0
10
2.9613865981718797
20
1.2710162369765878
30
0
0
SPLINE
5
147
100
AcDbEntity
8
0
100
AcDbSpline
70
1064
71
3
72
10
73
6
74
0
42
0.000000001
43
0.0000000001
44
0.0000000001
40
-1
40
-1
40
-1
40
-1
40
-0.66666666666666663
40
-0.33333333333333331
40
0
40
0
40
0
40
0
10
2.9613865981718797
20
1.2710162369765878
30
0
10
2.9110686013227478
20
1.3915115779451883
30
0
10
2.7115140748246018
20
1.5901198486648043
30
0
10
2.2884859251753991
20
1.590119848664804
30
0
10
2.0889313986772522
20
1.391511577945189
30
0
10
2.0386134018281203
20
1.2710162369765885
30
0
0
SPLINE
5
148
100
AcDbEntity
8
0
100
AcDbSpline
70
1064
71
3
72
11
73
7
74
0
42
0.000000001
43
0.0000000001
44
0.0000000001
40
-0.48153861023590588
40
-0.48153861023590588
40
-0.48153861023590588
40
-0.48153861023590588
40
-0.30654843051332981
40
-0.30654843051332981
40
-0.30654843051332981
40
-0.16539117257597161
40
-0.16539117257597161
40
-0.16539117257597161
40
-0.16539117257597161
10
2.0386134018281203
20
1.2710162369765881
30
0
10
1.8972997789368002
20
0.93261577908769933
30
0
10
1.7943349613238158
20
0.62412291707900525
30
0
10
1.7368613323305617
20
0.40351346623707662
30
0
10
1.6904997600111402
20
0.22555705059545372
30
0
10
1.6544998065465588
20
0.00078689561136024641
30
0
10
1.6510213497591053
20
-0.026641831721958067
30
0
0
SPLINE
5
149
100
AcDbEntity
8
0
100
AcDbSpline
70
1064
71
3
72
8
73
4
74
0
42
0.000000001
43
0.0000000001
44
0.0000000001
40
-0.12021800191460698
40
-0.12021800191460698
40
-0.12021800191460698
40
-0.12021800191460698
40
-0.090248781172104067
40
-0.090248781172104067
40
-0.090248781172104067
40
-0.090248781172104067
10
1.6510213497590951
20
-0.026641831721956784
30
0
10
1.650609227490818
20
-0.031826190633358127
30
0
10
1.6498060286875011
20
-0.043059863657323942
30
0
10
1.6491848625599512
20
-0.05185835615515591
30
0
0
ARC
5
150
100
AcDbEntity
8
0
100
AcDbCircle
10
2.7755575615628914e-16
20
-4.8572257327350599e-16
30
0
40
1.6499999999999995
100
AcDbArc
50
270
51
358.19893677111986
0
LINE
5
151
100
AcDbEntity
8
0
100
AcDbLine
10
-2.7755575615628914e-16
20
-1.6500000000000001
30
0
11
-2.7755575615628914e-16
21
-5
31
0
0
CIRCLE
5
152
100
AcDbEntity
8
0
100
AcDbCircle
10
9.8696819078381886
20
6.366197723675814
30
0
40
4
0
ARC
5
153
100
AcDbEntity
8
0
100
AcDbCircle
10
2.9459594953412682
20
5.2308130080831203
30
0
40
0.50000000000000178
100
AcDbArc
50
189.31274663527071
51
240.92435710088478
0
ARC
5
154
100
AcDbEntity
8
0
100
AcDbCircle
10
3.5048179639834793
20
6.235888732606842
30
0
40
1.6500000000000026
100
AcDbArc
50
240.92435710088483
51
305.76868468733272
0
SPLINE
5
155
100
AcDbEntity
8
0
100
AcDbSpline
70
1064
71
3
72
12
73
8
74
0
42
0.000000001
43
0.0000000001
44
0.0000000001
40
0
40
0
40
0
40
0
40
0.029298335504019706
40
0.029298335504019706
40
0.054944151829285443
40
0.054944151829285443
40
0.080589968154551175
40
0.080589968154551175
40
0.080589968154551175
40
0.080589968154551175
10
5.2321031152708564
20
4.9647576152961213
30
0
10
5.1440532747871544
20
5.0070059244638179
30
0
10
5.0485932045261972
20
5.0316522249849847
30
0
10
4.8657535478706624
20
5.0422610347974377
30
0
10
4.7801892283902339
20
5.032585375529913
30
0
10
4.6160257719843356
20
4.9848169593913028
30
0
10
4.5386285193468376
20
4.9470739277884039
30
0
10
4.469266553043985
20
4.8971061068384891
30
0
0
SPLINE
5
156
100
AcDbEntity
8
0
100
AcDbSpline
70
1064
71
3
72
14
73
10
74
0
42
0.000000001
43
0.0000000001
44
0.0000000001
40
0.41350534146755602
40
0.41350534146755602
40
0.41350534146755602
40
0.41350534146755602
40
0.41552960340578082
40
0.41552960340578082
40
0.41552960340578082
40
0.5202135969680034
40
0.5202135969680034
40
0.5202135969680034
40
0.5913714822418612
40
0.5913714822418612
40
0.5913714822418612
40
0.5913714822418612
10
5.2321031152672468
20
4.9647576152978532
30
0
10
5.2359244669297826
20
4.9629240441569058
30
0
10
5.2397530035819457
20
4.9610627083856942
30
0
10
5.2435887641021743
20
4.9591733079016507
30
0
10
5.4419537691557878
20
4.8614636269690026
30
0
10
5.6548725196091976
20
4.6377573730507189
30
0
10
5.7161607044823182
20
4.3708713114342874
30
0
10
5.7578207279438054
20
4.1894582118050137
30
0
10
5.7382138437079409
20
4.0245972147656248
30
0
10
5.6905012444377086
20
3.8838868339531878
30
0
0
SPLINE
5
157
100
AcDbEntity
8
0
100
AcDbSpline
70
1064
71
3
72
12
73
8
74
0
42
0.000000001
43
0.0000000001
44
0.0000000001
40
0
40
0
40
0
40
0
40
0.029298335504019606
40
0.029298335504019606
40
0.053828535887923343
40
0.053828535887923343
40
0.078358736271827101
40
0.078358736271827101
40
0.078358736271827101
40
0.078358736271827101
10
5.1305242794318833
20
3.3899449486203315
30
0
10
5.2262042415031162
20
3.4095163281011431
30
0
10
5.3171467253719706
20
3.4475890187253899
30
0
10
5.4661226779463927
20
3.5475926950881647
30
0
10
5.5261051270766828
20
3.603962502425226
30
0
10
5.6254984753046404
20
3.7338260861078783
30
0
10
5.6642437262328817
20
3.8064501517706653
30
0
10
5.6905012444377139
20
3.883886833953202
30
0
0
ARC
5
158
100
AcDbEntity
8
0
100
AcDbCircle
10
5.461185823043218
20
1.7734168964119483
30
0
40
1.6500000000000179
100
AcDbArc
50
101.56040562353837
51
166.42136855802721
0
ARC
5
159
100
AcDbEntity
8
0
100
AcDbCircle
10
4.3433298989693299
20
2.0434134390064025
30
0
40
0.49999999999998079
100
AcDbArc
50
166.42136855802758
51
218.03297902364193
0
ARC
5
160
100
AcDbEntity
8
0
100
AcDbCircle
10
9.8696819078381886
20
6.366197723675814
30
0
40
7.5161977236758144
100
AcDbArc
50
218.03297902364181
51
234.3127466352706
0
ARC
5
161
100
AcDbEntity
8
0
100
AcDbCircle
10
5.7767090705594857
20
0.66754842309480611
30
0
40
0.50000000000000056
100
AcDbArc
50
234.31274663527103
51
285.92435710088478
0
ARC
5
162
100
AcDbEntity
8
0
100
AcDbCircle
10
5.461185823043218
20
1.7734168964119483
30
0
40
1.6500000000000015
100
AcDbArc
50
285.92435710088483
51
350.76868468733284
0
SPLINE
5
163
100
AcDbEntity
8
0
100
AcDbSpline
70
1064
71
3
72
12
73
8
74
0
42
0.000000001
43
0.0000000001
44
0.0000000001
40
0
40
0
40
0
40
0
40
0.029298335504019703
40
0.029298335504019703
40
0.054944151829285387
40
0.054944151829285387
40
0.080589968154551078
40
0.080589968154551078
40
0.080589968154551078
40
0.080589968154551078
10
7.5813862993889973
20
2.0959665071024407
30
0
10
7.4892515941944335
20
2.0635799337201668
30
0
10
7.4043235649506904
20
2.0135070369357768
30
0
10
7.2675348425010364
20
1.8917214372035311
30
0
10
7.2138734562493294
20
1.8243766023907926
30
0
10
7.1315697339798501
20
1.6745181381650069
30
0
10
7.1035299653836148
20
1.5931016623908762
30
0
10
7.0898162336892341
20
1.5087227606268971
30
0
0
SPLINE
5
164
100
AcDbEntity
8
0
100
AcDbSpline
70
1064
71
3
72
14
73
10
74
0
42
0.000000001
43
0.0000000001
44
0.0000000001
40
0.41350534146755602
40
0.41350534146755602
40
0.41350534146755602
40
0.41350534146755602
40
0.41552960340578082
40
0.41552960340578082
40
0.41552960340578082
40
0.5202135969680034
40
0.5202135969680034
40
0.5202135969680034
40
0.59137148224186165
40
0.59137148224186165
40
0.59137148224186165
40
0.59137148224186165
10
7.5813862993852199
20
2.0959665071011142
30
0
10
7.5853849336466492
20
2.0973720801874398
30
0
10
7.5894082810213037
20
2.0987631012703165
30
0
10
7.593456581190809
20
2.1001393856505333
30
0
10
7.8028129993893725
20
2.1713134478989984
30
0
10
8.1115535008162034
20
2.1636855310469127
30
0
10
8.3436077359197505
20
2.0183058782041612
30
0
10
8.5013442539576918
20
1.9194855303542395
30
0
10
8.6040544221162989
20
1.7890470405933923
30
0
10
8.6698137840800964
20
1.655811873645558
30
0
0
SPLINE
5
165
100
AcDbEntity
8
0
100
AcDbSpline
70
1064
71
3
72
12
73
8
74
0
42
0.000000001
43
0.0000000001
44
0.0000000001
40
0
40
0
40
0
40
0
40
0.029298335504019724
40
0.029298335504019724
40
0.053828535887923329
40
0.053828535887923329
40
0.078358736271826962
40
0.078358736271826962
40
0.078358736271826962
40
0.078358736271826962
10
8.6231199314471461
20
0.91057870775074878
30
0
10
8.6769368263033293
20
0.99207371290304658
30
0
10
8.7143214156265216
20
1.0833012176630852
30
0
10
8.7489500442259178
20
1.2593564016618881
30
0
10
8.7515045677359087
20
1.3416298712163059
30
0
10
8.7299588576215452
20
1.5037390024043211
30
0
10
8.7060029179841862
20
1.5824890013819481
30
0
10
8.6698137840800911
20
1.6558118736455736
30
0
0
ARC
5
166
100
AcDbEntity
8
0
100
AcDbCircle
10
9.9999908989071642
20
0.0013337798211061208
30
0
40
1.6500000000000217
100
AcDbArc
50
146.56040562353849
51
211.42136855802715
0
ARC
5
167
100
AcDbEntity
8
0
100
AcDbCircle
10
9.0186310084394989
20
-0.5981933383156337
30
0
40
0.49999999999998157
100
AcDbArc
50
211.42136855802764
51
263.03297902364187
0
ARC
5
168
100
AcDbEntity
8
0
100
AcDbCircle
10
9.8696819078381886
20
6.366197723675814
30
0
40
7.5161977236758144
100
AcDbArc
50
263.03297902364176
51
279.31274663527063
0
ARC
5
169
100
AcDbEntity
8
0
100
AcDbCircle
10
11.005066623430881
20
-0.55752468882110628
30
0
40
0.50000000000000056
100
AcDbArc
50
279.31274663527086
51
330.92435710088466
0
ARC
5
170
100
AcDbEntity
8
0
100
AcDbCircle
10
9.9999908989071642
20
0.0013337798211061208
30
0
40
1.6499999999999961
100
AcDbArc
50
-29.07564289911527
51
35.768684687332815
0
SPLINE
5
171
100
AcDbEntity
8
0
100
AcDbSpline
70
1064
71
3
72
12
73
8
74
0
42
0.000000001
43
0.0000000001
44
0.0000000001
40
0
40
0
40
0
40
0
40
0.029298335504019477
40
0.029298335504019477
40
0.054944151829285068
40
0.054944151829285068
40
0.080589968154550634
40
0.080589968154550634
40
0.080589968154550634
40
0.080589968154550634
10
11.271122016217882
20
1.7286189311084765
30
0
10
11.228873707050187
20
1.6405690906247761
30
0
10
11.20422740652902
20
1.5451090203638191
30
0
10
11.193618596716568
20
1.362269363708285
30
0
10
11.20329425598409
20
1.2767050442278582
30
0
10
11.2510626721227
20
1.1125415878219591
30
0
10
11.2888057037256
20
1.0351443351844636
30
0
10
11.338773524675513
20
0.96578236888161029
30
0
0
SPLINE
5
172
100
AcDbEntity
8
0
100
AcDbSpline
70
1064
71
3
72
14
73
10
74
0
42
0.000000001
43
0.0000000001
44
0.0000000001
40
0.41350534146755541
40
0.41350534146755541
40
0.41350534146755541
40
0.41350534146755541
40
0.41552960340578082
40
0.41552960340578082
40
0.41552960340578082
40
0.5202135969680034
40
0.5202135969680034
40
0.5202135969680034
40
0.5913714822418622
40
0.5913714822418622
40
0.5913714822418622
40
0.5913714822418622
10
11.271122016216149
20
1.7286189311048694
30
0
10
11.272955587357096
20
1.7324402827674064
30
0
10
11.274816923128306
20
1.7362688194195712
30
0
10
11.276706323612352
20
1.7401045799398007
30
0
10
11.374416004544997
20
1.9384695849934142
30
0
10
11.598122258463281
20
2.1513883354468244
30
0
10
11.865008320079715
20
2.2126765203199446
30
0
10
12.04642141970899
20
2.2543365437814336
30
0
10
12.211282416748379
20
2.2347296595455681
30
0
10
12.351992797560818
20
2.1870170602753354
30
0
0
SPLINE
5
173
100
AcDbEntity
8
0
100
AcDbSpline
70
1064
71
3
72
12
73
8
74
0
42
0.000000001
43
0.0000000001
44
0.0000000001
40
0
40
0
40
0
40
0
40
0.029298335504019508
40
0.029298335504019508
40
0.053828535887922996
40
0.053828535887922996
40
0.078358736271826546
40
0.078358736271826546
40
0.078358736271826546
40
0.078358736271826546
10
12.845934682893672
20
1.6270400952695101
30
0
10
12.82636330341286
20
1.7227200573407426
30
0
10
12.788290612788613
20
1.8136625412095964
30
0
10
12.68828693642584
20
1.962638493784018
30
0
10
12.631917129088778
20
2.0226209429143074
30
0
10
12.502053545406129
20
2.1220142911422646
30
0
10
12.429429479743344
20
2.1607595420705055
30
0
10
12.351992797560808
20
2.187017060275338
30
0
0
ARC
5
174
100
AcDbEntity
8
0
100
AcDbCircle
10
14.462462735102051
20
1.9577016388808413
30
0
40
1.6500000000000135
100
AcDbArc
50
191.56040562353826
51
256.42136855802738
0
ARC
5
175
100
AcDbEntity
8
0
100
AcDbCircle
10
14.192466192507602
20
0.83984571480695991
30
0
40
0.49999999999998218
100
AcDbArc
50
256.42136855802778
51
308.03297902364221
0
ARC
5
176
100
AcDbEntity
8
0
100
AcDbCircle
10
9.8696819078381886
20
6.366197723675814
30
0
40
7.5161977236758144
100
AcDbArc
50
308.03297902364187
51
324.31274663527063
0
ARC
5
177
100
AcDbEntity
8
0
100
AcDbCircle
10
15.56833120841919
20
2.2732248863971147
30
0
40
0.50000000000000655
100
AcDbArc
50
-35.687253364729237
51
15.924357100884553
0
ARC
5
178
100
AcDbEntity
8
0
100
AcDbCircle
10
14.462462735102051
20
1.9577016388808413
30
0
40
1.6500000000000035
100
AcDbArc
50
15.92435710088497
51
80.768684687332723
0
SPLINE
5
179
100
AcDbEntity
8
0
100
AcDbSpline
70
1064
71
3
72
12
73
8
74
0
42
0.000000001
43
0.0000000001
44
0.0000000001
40
0
40
0
40
0
40
0
40
0.02929833550401964
40
0.02929833550401964
40
0.054944151829285179
40
0.054944151829285179
40
0.080589968154550759
40
0.080589968154550759
40
0.080589968154550759
40
0.080589968154550759
10
14.139913124411558
20
4.0779021152266193
30
0
10
14.172299697793832
20
3.9857674100320573
30
0
10
14.222372594578225
20
3.9008393807883124
30
0
10
14.34415819431047
20
3.764050658338661
30
0
10
14.41150302912321
20
3.710389272086954
30
0
10
14.561361493348993
20
3.6280855498174751
30
0
10
14.642777969123124
20
3.6000457812212412
30
0
10
14.727156870887104
20
3.5863320495268609
30
0
0
SPLINE
5
180
100
AcDbEntity
8
0
100
AcDbSpline
70
1064
71
3
72
14
73
10
74
0
42
0.000000001
43
0.0000000001
44
0.0000000001
40
0.41350534146755558
40
0.41350534146755558
40
0.41350534146755558
40
0.41350534146755558
40
0.41552960340578082
40
0.41552960340578082
40
0.41552960340578082
40
0.5202135969680034
40
0.5202135969680034
40
0.5202135969680034
40
0.59137148224186076
40
0.59137148224186076
40
0.59137148224186076
40
0.59137148224186076
10
14.139913124412889
20
4.0779021152228436
30
0
10
14.138507551326562
20
4.0819007494842738
30
0
10
14.137116530243683
20
4.0859240968589301
30
0
10
14.135740245863468
20
4.0899723970284363
30
0
10
14.064566183615007
20
4.2993288152269997
30
0
10
14.07219410046709
20
4.6080693166538298
30
0
10
14.217573753309839
20
4.8401235517573777
30
0
10
14.316394101159762
20
4.9978600697953173
30
0
10
14.446832590920607
20
5.1005702379539226
30
0
10
14.58006775786844
20
5.1663295999177219
30
0
0
SPLINE
5
181
100
AcDbEntity
8
0
100
AcDbSpline
70
1064
71
3
72
12
73
8
74
0
42
0.000000001
43
0.0000000001
44
0.0000000001
40
0
40
0
40
0
40
0
40
0.029298335504019439
40
0.029298335504019439
40
0.053828535887923475
40
0.053828535887923475
40
0.078358736271827406
40
0.078358736271827406
40
0.078358736271827406
40
0.078358736271827406
10
15.325300923763255
20
5.1196357472847716
30
0
10
15.243805918610958
20
5.1734526421409548
30
0
10
15.152578413850922
20
5.2108372314641471
30
0
10
14.976523229852114
20
5.2454658600635442
30
0
10
14.894249760297695
20
5.2480203835735342
30
0
10
14.732140629109679
20
5.2264746734591672
30
0
10
14.653390630132051
20
5.2025187338218073
30
0
10
14.580067757868427
20
5.1663295999177139
30
0
0
ARC
5
182
100
AcDbEntity
8
0
100
AcDbCircle
10
16.234545851692896
20
6.4965067147447888
30
0
40
1.650000000000019
100
AcDbArc
50
236.5604056235384
51
301.42136855802727
0
ARC
5
183
100
AcDbEntity
8
0
100
AcDbCircle
10
16.83407296982962
20
5.5151468242771342
30
0
40
0.49999999999999445
100
AcDbArc
50
301.42136855802892
51
353.03297902364108
0
ARC
5
184
100
AcDbEntity
8
0
100
AcDbCircle
10
9.8696819078381886
20
6.366197723675814
30
0
40
7.5161977236758126
100
AcDbArc
50
-6.9670209763582251
51
9.3127466352706065
0
ARC
5
185
100
AcDbEntity
8
0
100
AcDbCircle
10
16.793404320335107
20
7.5015824392685087
30
0
40
0.500000000000002
100
AcDbArc
50
9.3127466352704111
51
60.924357100884762
0
ARC
5
186
100
AcDbEntity
8
0
100
AcDbCircle
10
16.234545851692896
20
6.4965067147447888
30
0
40
1.6500000000000004
100
AcDbArc
50
60.924357100884833
51
125.76868468733272
0
SPLINE
5
187
100
AcDbEntity
8
0
100
AcDbSpline
70
1064
71
3
72
12
73
8
74
0
42
0.000000001
43
0.0000000001
44
0.0000000001
40
0
40
0
40
0
40
0
40
0.029298335504019887
40
0.029298335504019887
40
0.054944151829285262
40
0.054944151829285262
40
0.080589968154550398
40
0.080589968154550398
40
0.080589968154550398
40
0.080589968154550398
10
14.507260700405526
20
7.7676378320555024
30
0
10
14.595310540889228
20
7.7253895228878067
30
0
10
14.690770611150185
20
7.7007432223666452
30
0
10
14.873610267805722
20
7.6901344125541939
30
0
10
14.959174587286149
20
7.6998100718217168
30
0
10
15.123338043692044
20
7.7475784879603271
30
0
10
15.20073529632954
20
7.7853215195632259
30
0
10
15.270097262632392
20
7.835289340513139
30
0
0
SPLINE
5
188
100
AcDbEntity
8
0
100
AcDbSpline
70
1064
71
3
72
14
73
10
74
0
42
0.000000001
43
0.0000000001
44
0.0000000001
40
0.41350534146755424
40
0.41350534146755424
40
0.41350534146755424
40
0.41350534146755424
40
0.41552960340578082
40
0.41552960340578082
40
0.41552960340578082
40
0.5202135969680034
40
0.5202135969680034
40
0.5202135969680034
40
0.59137148224186398
40
0.59137148224186398
40
0.59137148224186398
40
0.59137148224186398
10
14.507260700409137
20
7.7676378320537696
30
0
10
14.503439348746598
20
7.7694714031947187
30
0
10
14.499610812094431
20
7.771332738965933
30
0
10
14.495775051574199
20
7.7732221394499765
30
0
10
14.297410046520586
20
7.8709318203826246
30
0
10
14.084491296067178
20
8.0946380743009101
30
0
10
14.023203111194057
20
8.3615241359173389
30
0
10
13.981543087732568
20
8.5429372355466207
30
0
10
14.001149971968438
20
8.7077982325860148
30
0
10
14.048862571238672
20
8.8485086133984563
30
0
0
SPLINE
5
189
100
AcDbEntity
8
0
100
AcDbSpline
70
1064
71
3
72
12
73
8
74
0
42
0.000000001
43
0.0000000001
44
0.0000000001
40
0
40
0
40
0
40
0
40
0.02929833550401939
40
0.02929833550401939
40
0.053828535887922427
40
0.053828535887922427
40
0.078358736271825324
40
0.078358736271825324
40
0.078358736271825324
40
0.078358736271825324
10
14.608839536244496
20
9.3424504987312975
30
0
10
14.513159574173262
20
9.3228791192504854
30
0
10
14.422217090304407
20
9.2848064286262382
30
0
10
14.273241137729988
20
9.1848027522634652
30
0
10
14.2132586885997
20
9.1284329449264074
30
0
10
14.113865340371742
20
8.9985693612437601
30
0
10
14.075120089443507
20
8.9259452955809753
30
0
10
14.048862571238672
20
8.8485086133984403
30
0
0
ARC
5
190
100
AcDbEntity
8
0
100
AcDbCircle
10
14.278177992633152
20
10.958978550939683
30
0
40
1.6500000000000234
100
AcDbArc
50
281.56040562353871
51
346.42136855802704
0
ARC
5
191
100
AcDbEntity
8
0
100
AcDbCircle
10
15.396033916707051
20
10.688982008345228
30
0
40
0.49999999999997519
100
AcDbArc
50
-13.578631441973062
51
38.03297902364222
0
ARC
5
192
100
AcDbEntity
8
0
100
AcDbCircle
10
9.8696819078381886
20
6.366197723675814
30
0
40
7.5161977236758117
100
AcDbArc
50
38.032979023641808
51
54.31274663527067
0
ARC
5
193
100
AcDbEntity
8
0
100
AcDbCircle
10
13.962654745116886
20
12.064847024256832
30
0
40
0.49999999999999678
100
AcDbArc
50
54.312746635270734
51
105.92435710088496
0
ARC
5
194
100
AcDbEntity
8
0
100
AcDbCircle
10
14.278177992633152
20
10.958978550939683
30
0
40
1.649999999999997
100
AcDbArc
50
105.92435710088476
51
170.76868468733292
0
SPLINE
5
195
100
AcDbEntity
8
0
100
AcDbSpline
70
1064
71
3
72
12
73
8
74
0
42
0.000000001
43
0.0000000001
44
0.0000000001
40
0
40
0
40
0
40
0
40
0.029298335504019411
40
0.029298335504019411
40
0.054944151829285068
40
0.054944151829285068
40
0.080589968154550884
40
0.080589968154550884
40
0.080589968154550884
40
0.080589968154550884
10
12.15797751628738
20
10.636428940249187
30
0
10
12.250112221481942
20
10.668815513631461
30
0
10
12.335040250725688
20
10.71888841041585
30
0
10
12.471828973175338
20
10.840674010148096
30
0
10
12.525490359427048
20
10.908018844960834
30
0
10
12.607794081696525
20
11.057877309186619
30
0
10
12.635833850292759
20
11.139293784960751
30
0
10
12.649547581987141
20
11.223672686724731
30
0
0
SPLINE
5
196
100
AcDbEntity
8
0
100
AcDbSpline
70
1064
71
3
72
14
73
10
74
0
42
0.000000001
43
0.0000000001
44
0.0000000001
40
0.41350534146755591
40
0.41350534146755591
40
0.41350534146755591
40
0.41350534146755591
40
0.41552960340578082
40
0.41552960340578082
40
0.41552960340578082
40
0.5202135969680034
40
0.5202135969680034
40
0.5202135969680034
40
0.59137148224185865
40
0.59137148224185865
40
0.59137148224185865
40
0.59137148224185865
10
12.157977516291156
20
10.636428940250514
30
0
10
12.153978882029728
20
10.635023367164189
30
0
10
12.149955534655071
20
10.633632346081312
30
0
10
12.145907234485565
20
10.632256061701096
30
0
10
11.936550816287001
20
10.561081999452631
30
0
10
11.627810314860172
20
10.568709916304716
30
0
10
11.395756079756623
20
10.714089569147466
30
0
10
11.238019561718691
20
10.812909916997384
30
0
10
11.135309393560085
20
10.943348406758224
30
0
10
11.069550031596284
20
11.076583573706053
30
0
0
SPLINE
5
197
100
AcDbEntity
8
0
100
AcDbSpline
70
1064
71
3
72
12
73
8
74
0
42
0.000000001
43
0.0000000001
44
0.0000000001
40
0
40
0
40
0
40
0
40
0.029298335504019609
40
0.029298335504019609
40
0.053828535887924259
40
0.053828535887924259
40
0.078358736271828835
40
0.078358736271828835
40
0.078358736271828835
40
0.078358736271828835
10
11.116243884229229
20
11.82181673960088
30
0
10
11.062426989373044
20
11.740321734448582
30
0
10
11.025042400049854
20
11.649094229688544
30
0
10
10.990413771450456
20
11.473039045689738
30
0
10
10.987859247940467
20
11.390765576135315
30
0
10
11.009404958054834
20
11.228656444947296
30
0
10
11.033360897692194
20
11.149906445969666
30
0
10
11.069550031596291
20
11.076583573706039
30
0
0
ARC
5
198
100
AcDbEntity
8
0
100
AcDbCircle
10
9.7393729167692111
20
12.731061667530524
30
0
40
1.6500000000000199
100
AcDbArc
50
-33.439594376461578
51
31.421368558026998
0
ARC
5
199
100
AcDbEntity
8
0
100
AcDbCircle
10
10.720732807236875
20
13.33058878566726
30
0
40
0.49999999999998757
100
AcDbArc
50
31.421368558027375
51
83.03297902364173
0
ARC
5
200
100
AcDbEntity
8
0
100
AcDbCircle
10
9.8696819078381886
20
6.366197723675814
30
0
40
7.5161977236758162
100
AcDbArc
50
83.032979023641815
51
99.312746635270557
0
ARC
5
201
100
AcDbEntity
8
0
100
AcDbCircle
10
8.7342971922454957
20
13.289920136172736
30
0
40
0.50000000000000167
100
AcDbArc
50
99.312746635270273
51
150.92435710088495
0
ARC
5
202
100
AcDbEntity
8
0
100
AcDbCircle
10
9.7393729167692111
20
12.731061667530524
30
0
40
1.6499999999999957
100
AcDbArc
50
150.92435710088478
51
215.76868468733295
0
SPLINE
5
203
100
AcDbEntity
8
0
100
AcDbSpline
70
1064
71
3
72
12
73
8
74
0
42
0.000000001
43
0.0000000001
44
0.0000000001
40
0
40
0
40
0
40
0
40
0.029298335504019671
40
0.029298335504019671
40
0.054944151829285526
40
0.054944151829285526
40
0.080589968154551384
40
0.080589968154551384
40
0.080589968154551384
40
0.080589968154551384
10
8.4682417994584966
20
11.003776516243144
30
0
10
8.5104901086261915
20
11.091826356726845
30
0
10
8.5351364091473592
20
11.187286426987802
30
0
10
8.5457452189598122
20
11.370126083643337
30
0
10
8.5360695596922902
20
11.455690403123766
30
0
10
8.4883011435536755
20
11.619853859529666
30
0
10
8.4505581119507784
20
11.697251112167164
30
0
10
8.4005902910008636
20
11.766613078470016
30
0
0
SPLINE
5
204
100
AcDbEntity
8
0
100
AcDbSpline
70
1064
71
3
72
14
73
10
74
0
42
0.000000001
43
0.0000000001
44
0.0000000001
40
0.41350534146755652
40
0.41350534146755652
40
0.41350534146755652
40
0.41350534146755652
40
0.41552960340578082
40
0.41552960340578082
40
0.41552960340578082
40
0.5202135969680034
40
0.5202135969680034
40
0.5202135969680034
40
0.59137148224186253
40
0.59137148224186253
40
0.59137148224186253
40
0.59137148224186253
10
8.468241799460225
20
11.003776516246752
30
0
10
8.4664082283192759
20
10.999955164584218
30
0
10
8.4645468925480678
20
10.996126627932057
30
0
10
8.4626574920640252
20
10.992290867411828
30
0
10
8.3649478111313762
20
10.793925862358215
30
0
10
8.1412415572130925
20
10.581007111904805
30
0
10
7.874355495596661
20
10.519718927031683
30
0
10
7.6929423959673837
20
10.478058903570195
30
0
10
7.5280813989279931
20
10.49766578780606
30
0
10
7.3873710181155534
20
10.545378387076294
30
0
0
SPLINE
5
205
100
AcDbEntity
8
0
100
AcDbSpline
70
1064
71
3
72
12
73
8
74
0
42
0.000000001
43
0.0000000001
44
0.0000000001
40
0
40
0
40
0
40
0
40
0.029298335504019505
40
0.029298335504019505
40
0.05382853588792294
40
0.05382853588792294
40
0.078358736271826379
40
0.078358736271826379
40
0.078358736271826379
40
0.078358736271826379
10
6.8934291327827051
20
11.105355352082121
30
0
10
6.9130005122635163
20
11.009675390010887
30
0
10
6.9510732028877626
20
10.918732906142033
30
0
10
7.0510768792505374
20
10.769756953567612
30
0
10
7.1074466865875969
20
10.709774504437323
30
0
10
7.2373102702702479
20
10.610381156209366
30
0
10
7.3099343359330327
20
10.571635905281125
30
0
10
7.3873710181155694
20
10.545378387076292
30
0
0
ARC
5
206
100
AcDbEntity
8
0
100
AcDbCircle
10
5.2769010805743228
20
10.774693808470786
30
0
40
1.6500000000000161
100
AcDbArc
50
11.560405623538394
51
76.421368558027098
0
ARC
5
207
100
AcDbEntity
8
0
100
AcDbCircle
10
5.5468976231687792
20
11.892549732544675
30
0
40
0.4999999999999763
100
AcDbArc
50
76.42136855802751
51
128.03297902364227
0
ARC
5
208
100
AcDbEntity
8
0
100
AcDbCircle
10
9.8696819078381886
20
6.366197723675814
30
0
40
7.5161977236758117
100
AcDbArc
50
128.03297902364179
51
144.3127466352706
0
ARC
5
209
100
AcDbEntity
8
0
100
AcDbCircle
10
4.1710326072571791
20
10.459170560954513
30
0
40
0.50000000000000189
100
AcDbArc
50
144.31274663526997
51
195.92435710088481
0
ARC
5
210
100
AcDbEntity
8
0
100
AcDbCircle
10
5.2769010805743228
20
10.774693808470786
30
0
40
1.6500000000000017
100
AcDbArc
50
195.92435710088498
51
260.76868468733278
0
SPLINE
5
211
100
AcDbEntity
8
0
100
AcDbSpline
70
1064
71
3
72
12
73
8
74
0
42
0.000000001
43
0.0000000001
44
0.0000000001
40
0
40
0
40
0
40
0
40
0.029298335504019564
40
0.029298335504019564
40
0.054944151829285318
40
0.054944151829285318
40
0.080589968154551161
40
0.080589968154551161
40
0.080589968154551161
40
0.080589968154551161
10
5.5994506912648152
20
8.6544933321250053
30
0
10
5.5670641178825413
20
8.7466280373195673
30
0
10
5.5169912210981522
20
8.8315560665633122
30
0
10
5.395205621365907
20
8.9683447890129653
30
0
10
5.3278607865531669
20
9.0220061752646714
30
0
10
5.1780023223273819
20
9.1043098975341525
30
0
10
5.0965858465532499
20
9.1323496661303878
30
0
10
5.0122069447892699
20
9.1460633978247685
30
0
0
SPLINE
5
212
100
AcDbEntity
8
0
100
AcDbSpline
70
1064
71
3
72
14
73
10
74
0
42
0.000000001
43
0.0000000001
44
0.0000000001
40
0.41350534146755646
40
0.41350534146755646
40
0.41350534146755646
40
0.41350534146755646
40
0.41552960340578082
40
0.41552960340578082
40
0.41552960340578082
40
0.5202135969680034
40
0.5202135969680034
40
0.5202135969680034
40
0.5913714822418763
40
0.5913714822418763
40
0.5913714822418763
40
0.5913714822418763
10
5.5994506912634892
20
8.65449333212878
30
0
10
5.6008562643498134
20
8.6504946978673516
30
0
10
5.602247285432691
20
8.6464713504926962
30
0
10
5.6036235698129078
20
8.6424230503231936
30
0
10
5.674797632061372
20
8.4330666321246301
30
0
10
5.6671697152092859
20
8.1243261306977992
30
0
10
5.5217900623665352
20
7.8922718955942521
30
0
10
5.4229697145165918
20
7.7345353775562771
30
0
10
5.2925312247557121
20
7.6318252093976611
30
0
10
5.1592960578078495
20
7.5660658474338653
30
0
0
SPLINE
5
213
100
AcDbEntity
8
0
100
AcDbSpline
70
1064
71
3
72
12
73
8
74
0
42
0.000000001
43
0.0000000001
44
0.0000000001
40
0
40
0
40
0
40
0
40
0.02929833550401955
40
0.02929833550401955
40
0.05382853588791936
40
0.05382853588791936
40
0.078358736271819135
40
0.078358736271819135
40
0.078358736271819135
40
0.078358736271819135
10
4.4140628919131082
20
7.6127597000668432
30
0
10
4.4955578970654049
20
7.55894280521066
30
0
10
4.5867854018254439
20
7.5215582158874694
30
0
10
4.7628405858242342
20
7.4869295872880768
30
0
10
4.84511405537864
20
7.4843750637780859
30
0
10
5.0072231865666295
20
7.5059207738924405
30
0
10
5.0859731855442458
20
7.5298767135297915
30
0
10
5.1592960578078628
20
7.5660658474338716
30
0
0
ARC
5
214
100
AcDbEntity
8
0
100
AcDbCircle
10
3.5048179639834793
20
6.235888732606842
30
0
40
1.6499999999999986
100
AcDbArc
50
56.560405623538529
51
121.42136855802786
0
ARC
5
215
100
AcDbEntity
8
0
100
AcDbCircle
10
2.9052908458467397
20
7.2172486230744752
30
0
40
0.50000000000000333
100
AcDbArc
50
121.42136855802801
51
173.03297902364184
0
ARC
5
216
100
AcDbEntity
8
0
100
AcDbCircle
10
9.8696819078381886
20
6.366197723675814
30
0
40
7.5161977236758144
100
AcDbArc
50
173.03297902364204
51
189.31274663527057
0
CIRCLE
5
217
100
AcDbEntity
8
0
100
AcDbCircle
10
27.525469170248922
20
6.3661977236758061
30
0
40
3.9999999999999996
0
ARC
5
218
100
AcDbEntity
8
0
100
AcDbCircle
10
33.576374863602098
20
9.9177566472838219
30
0
40
0.50000000000000722
100
AcDbArc
50
30.410661273574917
51
82.022271739188
0
ARC
5
219
100
AcDbEntity
8
0
100
AcDbCircle
10
33.416768481642563
20
8.7788862407678785
30
0
40
1.6500000000000072
100
AcDbArc
50
82.022271739188398
51
146.86659932563612
0
SPLINE
5
220
100
AcDbEntity
8
0
100
AcDbSpline
70
1064
71
3
72
12
73
8
74
0
42
0.000000001
43
0.0000000001
44
0.0000000001
40
0
40
0
40
0
40
0
40
0.029298335504019706
40
0.029298335504019706
40
0.054944151829285443
40
0.054944151829285443
40
0.080589968154551175
40
0.080589968154551175
40
0.080589968154551175
40
0.080589968154551175
10
31.347709081363099
20
9.3430506754575067
30
0
10
31.445064466758176
20
9.335329084215358
30
0
10
31.542997280078339
20
9.346696987223595
30
0
10
31.717399357056188
20
9.4026148058269889
30
0
10
31.793745134530312
20
9.4424418495571203
30
0
10
31.929709307044941
20
9.5461009340212151
30
0
10
31.988332272248321
20
9.6091740590521937
30
0
10
32.03505811334945
20
9.6807601001026171
30
0
0
SPLINE
5
221
100
AcDbEntity
8
0
100
AcDbSpline
70
1064
71
3
72
14
73
10
74
0
42
0.000000001
43
0.0000000001
44
0.0000000001
40
0.41350534146755602
40
0.41350534146755602
40
0.41350534146755602
40
0.41350534146755602
40
0.41552960340578082
40
0.41552960340578082
40
0.41552960340578082
40
0.5202135969680034
40
0.5202135969680034
40
0.5202135969680034
40
0.5913714822418612
40
0.5913714822418612
40
0.5913714822418612
40
0.5913714822418612
10
31.347709081367089
20
9.3430506754571923
30
0
10
31.343483870261743
20
9.3433857915160878
30
0
10
31.3392419615653
20
9.3437442247193481
30
0
10
31.334983210986902
20
9.3441262410392021
30
0
10
31.114743423974389
20
9.3638820805445366
30
0
10
30.835571392346239
20
9.4959497113001685
30
0
10
30.682322492809291
20
9.7228840328138784
30
0
10
30.578153104151866
20
9.8771403414001071
30
0
10
30.537101838366283
20
10.038007901310928
30
0
10
30.530965591698831
20
10.186460755356714
30
0
0
SPLINE
5
222
100
AcDbEntity
8
0
100
AcDbSpline
70
1064
71
3
72
12
73
8
74
0
42
0.000000001
43
0.0000000001
44
0.0000000001
40
0
40
0
40
0
40
0
40
0.029298335504019606
40
0.029298335504019606
40
0.053828535887923343
40
0.053828535887923343
40
0.078358736271827101
40
0.078358736271827101
40
0.078358736271827101
40
0.078358736271827101
10
30.875604687807456
20
10.848862960106018
30
0
10
30.793383444953921
20
10.796162284015907
30
0
10
30.722241895925286
20
10.727905818055438
30
0
10
30.619249911011657
20
10.580979915726822
30
0
10
30.583579323778377
20
10.506797312716966
30
0
10
30.537594711876448
20
10.349861008736356
30
0
10
30.527588651204191
20
10.268158327429632
30
0
10
30.530965591698831
20
10.186460755356698
30
0
0
ARC
5
223
100
AcDbEntity
8
0
100
AcDbCircle
10
29.985218452008283
20
12.238003828088608
30
0
40
1.6500000000000139
100
AcDbArc
50
-57.34167973815839
51
7.519283196330699
0
ARC
5
224
100
AcDbEntity
8
0
100
AcDbCircle
10
31.125329459347427
20
12.388492668020994
30
0
40
0.49999999999996048
100
AcDbArc
50
7.5192831963296776
51
59.130893661945848
0
ARC
5
225
100
AcDbEntity
8
0
100
AcDbCircle
10
27.525469170248922
20
6.3661977236758061
30
0
40
7.5161977236758162
100
AcDbArc
50
59.130893661945201
51
75.410661273573993
0
ARC
5
226
100
AcDbEntity
8
0
100
AcDbCircle
10
29.292774219672417
20
13.156165570432957
30
0
40
0.499999999999994
100
AcDbArc
50
75.410661273573936
51
127.02227173918843
0
ARC
5
227
100
AcDbEntity
8
0
100
AcDbCircle
10
29.985218452008283
20
12.238003828088608
30
0
40
1.6500000000000037
100
AcDbArc
50
127.02227173918834
51
191.86659932563623
0
SPLINE
5
228
100
AcDbEntity
8
0
100
AcDbSpline
70
1064
71
3
72
12
73
8
74
0
42
0.000000001
43
0.0000000001
44
0.0000000001
40
0
40
0
40
0
40
0
40
0.029298335504019703
40
0.029298335504019703
40
0.054944151829285387
40
0.054944151829285387
40
0.080589968154551078
40
0.080589968154551078
40
0.080589968154551078
40
0.080589968154551078
10
28.123248021919593
20
11.173882392946542
30
0
10
28.197548664646355
20
11.237263056615554
30
0
10
28.258759299740717
20
11.314550334319913
30
0
10
28.342540322301161
20
11.477411094327588
30
0
10
28.368362966571887
20
11.55955768399069
30
0
10
28.391206113399249
20
11.728996913930354
30
0
10
28.388059375207789
20
11.815049044578958
30
0
10
28.370480559241983
20
11.898708178743263
30
0
0
SPLINE
5
229
100
AcDbEntity
8
0
100
AcDbSpline
70
1064
71
3
72
14
73
10
74
0
42
0.000000001
43
0.0000000001
44
0.0000000001
40
0.41350534146755602
40
0.41350534146755602
40
0.41350534146755602
40
0.41350534146755602
40
0.41552960340578082
40
0.41552960340578082
40
0.41552960340578082
40
0.5202135969680034
40
0.5202135969680034
40
0.5202135969680034
40
0.59137148224186165
40
0.59137148224186165
40
0.59137148224186165
40
0.59137148224186165
10
28.123248021922642
20
11.173882392949139
30
0
10
28.120023383660371
20
11.171131680362334
30
0
10
28.116770450707314
20
11.168385648506531
30
0
10
28.113488932963655
20
11.165644383423459
30
0
10
27.943786397997769
20
11.023880824622081
30
0
10
27.652996044033333
20
10.91986230522274
30
0
10
27.384165910335074
20
10.971965766777103
30
0
10
27.201431347381217
20
11.007382567507509
30
0
10
27.058653176482068
20
11.092105481580107
30
0
10
26.949342175070203
20
11.192738519732789
30
0
0
SPLINE
5
230
100
AcDbEntity
8
0
100
AcDbSpline
70
1064
71
3
72
12
73
8
74
0
42
0.000000001
43
0.0000000001
44
0.0000000001
40
0
40
0
40
0
40
0
40
0.029298335504019724
40
0.029298335504019724
40
0.053828535887923329
40
0.053828535887923329
40
0.078358736271826962
40
0.078358736271826962
40
0.078358736271826962
40
0.078358736271826962
10
26.724649726139464
20
11.904824252504351
30
0
10
26.703775533196577
20
11.809420048688599
30
0
10
26.701735471394791
20
11.710850767005855
30
0
10
26.732801442323016
20
11.534132134197051
30
0
10
26.760033549835796
20
11.456454198441152
30
0
10
26.838488243688758
20
11.312967442776024
30
0
10
26.889185410327549
20
11.248119569428599
30
0
10
26.949342175070214
20
11.192738519732774
30
0
0
ARC
5
231
100
AcDbEntity
8
0
100
AcDbCircle
10
25.112780653156857
20
12.257497035069449
30
0
40
1.6500000000000061
100
AcDbArc
50
-12.341679738158442
51
52.519283196330704
0
ARC
5
232
100
AcDbEntity
8
0
100
AcDbCircle
10
25.81254919854269
20
13.170088938873439
30
0
40
0.49999999999998651
100
AcDbArc
50
52.519283196330427
51
104.13089366194433
0
ARC
5
233
100
AcDbEntity
8
0
100
AcDbCircle
10
27.525469170248922
20
6.3661977236758061
30
0
40
7.5161977236758162
100
AcDbArc
50
104.13089366194518
51
120.41066127357399
0
ARC
5
234
100
AcDbEntity
8
0
100
AcDbCircle
10
23.973910246640912
20
12.417103417028979
30
0
40
0.50000000000001033
100
AcDbArc
50
120.41066127357469
51
172.02227173918803
0
ARC
5
235
100
AcDbEntity
8
0
100
AcDbCircle
10
25.112780653156857
20
12.257497035069449
30
0
40
1.6500000000000081
100
AcDbArc
50
172.02227173918857
51
236.86659932563586
0
SPLINE
5
236
100
AcDbEntity
8
0
100
AcDbSpline
70
1064
71
3
72
12
73
8
74
0
42
0.000000001
43
0.0000000001
44
0.0000000001
40
0
40
0
40
0
40
0
40
0.029298335504019477
40
0.029298335504019477
40
0.054944151829285068
40
0.054944151829285068
40
0.080589968154550634
40
0.080589968154550634
40
0.080589968154550634
40
0.080589968154550634
10
24.548616218467217
20
10.188437634789992
30
0
10
24.556337809709365
20
10.285793020185064
30
0
10
24.544969906701127
20
10.383725833505228
30
0
10
24.489052088097736
20
10.558127910483076
30
0
10
24.449225044367605
20
10.6344736879572
30
0
10
24.34556595990351
20
10.77043786047183
30
0
10
24.282492834872535
20
10.82906082567521
30
0
10
24.210906793822108
20
10.875786666776337
30
0
0
SPLINE
5
237
100
AcDbEntity
8
0
100
AcDbSpline
70
1064
71
3
72
14
73
10
74
0
42
0.000000001
43
0.0000000001
44
0.0000000001
40
0.41350534146755541
40
0.41350534146755541
40
0.41350534146755541
40
0.41350534146755541
40
0.41552960340578082
40
0.41552960340578082
40
0.41552960340578082
40
0.5202135969680034
40
0.5202135969680034
40
0.5202135969680034
40
0.5913714822418622
40
0.5913714822418622
40
0.5913714822418622
40
0.5913714822418622
10
24.548616218467536
20
10.188437634793978
30
0
10
24.548281102408641
20
10.18421242368863
30
0
10
24.547922669205384
20
10.179970514992187
30
0
10
24.547540652885527
20
10.175711764413789
30
0
10
24.52778481338019
20
9.9554719774012685
30
0
10
24.395717182624562
20
9.6762999457731205
30
0
10
24.168782861110852
20
9.5230510462361799
30
0
10
24.014526552524622
20
9.4188816575787513
30
0
10
23.853658992613799
20
9.3778303917931698
30
0
10
23.705206138568009
20
9.3716941451257121
30
0
0
SPLINE
5
238
100
AcDbEntity
8
0
100
AcDbSpline
70
1064
71
3
72
12
73
8
74
0
42
0.000000001
43
0.0000000001
44
0.0000000001
40
0
40
0
40
0
40
0
40
0.029298335504019508
40
0.029298335504019508
40
0.053828535887922996
40
0.053828535887922996
40
0.078358736271826546
40
0.078358736271826546
40
0.078358736271826546
40
0.078358736271826546
10
23.042803933818711
20
9.7163332412343415
30
0
10
23.095504609908815
20
9.6341119983808081
30
0
10
23.163761075869289
20
9.5629704493521732
30
0
10
23.310686978197907
20
9.4599784644385423
30
0
10
23.384869581207759
20
9.424307877205262
30
0
10
23.541805885188367
20
9.3783232653033348
30
0
10
23.623508566495094
20
9.3683172046310759
30
0
10
23.705206138568023
20
9.3716941451257156
30
0
0
ARC
5
239
100
AcDbEntity
8
0
100
AcDbCircle
10
21.65366306583612
20
8.825947005435161
30
0
40
1.6500000000000163
100
AcDbArc
50
32.65832026184183
51
97.519283196330946
0
ARC
5
240
100
AcDbEntity
8
0
100
AcDbCircle
10
21.503174225903749
20
9.9660580127742922
30
0
40
0.49999999999998096
100
AcDbArc
50
97.519283196331827
51
149.13089366194546
0
ARC
5
241
100
AcDbEntity
8
0
100
AcDbCircle
10
27.525469170248922
20
6.3661977236758061
30
0
40
7.5161977236758126
100
AcDbArc
50
149.13089366194524
51
165.41066127357399
0
ARC
5
242
100
AcDbEntity
8
0
100
AcDbCircle
10
20.73550132349181
20
8.1335027730993072
30
0
40
0.50000000000002665
100
AcDbArc
50
165.41066127357536
51
217.02227173918652
0
ARC
5
243
100
AcDbEntity
8
0
100
AcDbCircle
10
21.65366306583612
20
8.825947005435161
30
0
40
1.6500000000000001
100
AcDbArc
50
217.02227173918823
51
281.86659932563612
0
SPLINE
5
244
100
AcDbEntity
8
0
100
AcDbSpline
70
1064
71
3
72
12
73
8
74
0
42
0.000000001
43
0.0000000001
44
0.0000000001
40
0
40
0
40
0
40
0
40
0.02929833550401964
40
0.02929833550401964
40
0.054944151829285179
40
0.054944151829285179
40
0.080589968154550759
40
0.080589968154550759
40
0.080589968154550759
40
0.080589968154550759
10
22.71778450097819
20
6.9639765753464822
30
0
10
22.654403837309175
20
7.0382772180732438
30
0
10
22.577116559604814
20
7.0994878531676093
30
0
10
22.414255799597139
20
7.1832688757280483
30
0
10
22.332109209934039
20
7.2090915199987693
30
0
10
22.162669979994376
20
7.2319346668261311
30
0
10
22.076617849345777
20
7.2287879286346737
30
0
10
21.992958715181466
20
7.21120911266887
30
0
0
SPLINE
5
245
100
AcDbEntity
8
0
100
AcDbSpline
70
1064
71
3
72
14
73
10
74
0
42
0.000000001
43
0.0000000001
44
0.0000000001
40
0.41350534146755558
40
0.41350534146755558
40
0.41350534146755558
40
0.41350534146755558
40
0.41552960340578082
40
0.41552960340578082
40
0.41552960340578082
40
0.5202135969680034
40
0.5202135969680034
40
0.5202135969680034
40
0.59137148224186076
40
0.59137148224186076
40
0.59137148224186076
40
0.59137148224186076
10
22.717784500975586
20
6.9639765753495251
30
0
10
22.720535213562396
20
6.9607519370872595
30
0
10
22.723281245418192
20
6.9574990041342026
30
0
10
22.726022510501274
20
6.9542174863905402
30
0
10
22.867786069302653
20
6.7845149514246517
30
0
10
22.971804588701985
20
6.4937245974602149
30
0
10
22.919701127147626
20
6.2248944637619559
30
0
10
22.884284326417223
20
6.0421599008081035
30
0
10
22.799561412344623
20
5.8993817299089546
30
0
10
22.698928374191951
20
5.7900707284970929
30
0
0
SPLINE
5
246
100
AcDbEntity
8
0
100
AcDbSpline
70
1064
71
3
72
12
73
8
74
0
42
0.000000001
43
0.0000000001
44
0.0000000001
40
0
40
0
40
0
40
0
40
0.029298335504019439
40
0.029298335504019439
40
0.053828535887923475
40
0.053828535887923475
40
0.078358736271827406
40
0.078358736271827406
40
0.078358736271827406
40
0.078358736271827406
10
21.986842641420377
20
5.5653782795663487
30
0
10
22.082246845236128
20
5.5445040866234629
30
0
10
22.180816126918867
20
5.5424640248216761
30
0
10
22.357534759727677
20
5.5735299957499045
30
0
10
22.435212695483571
20
5.6007621032626815
30
0
10
22.578699451148701
20
5.679216797115644
30
0
10
22.643547324496129
20
5.7299139637544343
30
0
10
22.698928374191954
20
5.7900707284971054
30
0
0
ARC
5
247
100
AcDbEntity
8
0
100
AcDbCircle
10
21.63416985885528
20
3.9535092065837265
30
0
40
1.6500000000000199
100
AcDbArc
50
77.658320261841638
51
142.51928319633052
0
ARC
5
248
100
AcDbEntity
8
0
100
AcDbCircle
10
20.721577955051281
20
4.6532777519695809
30
0
40
0.49999999999998423
100
AcDbArc
50
142.51928319633114
51
194.13089366194538
0
ARC
5
249
100
AcDbEntity
8
0
100
AcDbCircle
10
27.525469170248922
20
6.3661977236758061
30
0
40
7.5161977236758135
100
AcDbArc
50
194.13089366194518
51
210.41066127357394
0
ARC
5
250
100
AcDbEntity
8
0
100
AcDbCircle
10
21.474563476895749
20
2.8146388000677898
30
0
40
0.50000000000000722
100
AcDbArc
50
210.41066127357348
51
262.022271739188
0
ARC
5
251
100
AcDbEntity
8
0
100
AcDbCircle
10
21.63416985885528
20
3.9535092065837265
30
0
40
1.6499999999999995
100
AcDbArc
50
262.02227173918845
51
326.86659932563629
0
SPLINE
5
252
100
AcDbEntity
8
0
100
AcDbSpline
70
1064
71
3
72
12
73
8
74
0
42
0.000000001
43
0.0000000001
44
0.0000000001
40
0
40
0
40
0
40
0
40
0.029298335504019887
40
0.029298335504019887
40
0.054944151829285262
40
0.054944151829285262
40
0.080589968154550398
40
0.080589968154550398
40
0.080589968154550398
40
0.080589968154550398
10
23.703229259134737
20
3.3893447718941072
30
0
10
23.605873873739661
20
3.3970663631362563
30
0
10
23.507941060419498
20
3.3856984601280136
30
0
10
23.333538983441645
20
3.3297806415246201
30
0
10
23.257193205967525
20
3.2899535977944891
30
0
10
23.121229033452899
20
3.1862945133303944
30
0
10
23.062606068249522
20
3.1232213882994184
30
0
10
23.015880227148394
20
3.0516353472489954
30
0
0
SPLINE
5
253
100
AcDbEntity
8
0
100
AcDbSpline
70
1064
71
3
72
14
73
10
74
0
42
0.000000001
43
0.0000000001
44
0.0000000001
40
0.41350534146755424
40
0.41350534146755424
40
0.41350534146755424
40
0.41350534146755424
40
0.41552960340578082
40
0.41552960340578082
40
0.41552960340578082
40
0.5202135969680034
40
0.5202135969680034
40
0.5202135969680034
40
0.59137148224186398
40
0.59137148224186398
40
0.59137148224186398
40
0.59137148224186398
10
23.703229259130744
20
3.3893447718944234
30
0
10
23.707454470236094
20
3.3890096558355278
30
0
10
23.711696378932537
20
3.3886512226322676
30
0
10
23.715955129510942
20
3.3882692063124118
30
0
10
23.936194916523462
20
3.3685133668070777
30
0
10
24.215366948151605
20
3.2364457360514454
30
0
10
24.368615847688545
20
3.0095114145377355
30
0
10
24.472785236345977
20
2.8552551059514997
30
0
10
24.513836502131561
20
2.6943875460406721
30
0
10
24.519972748799013
20
2.5459346919948844
30
0
0
SPLINE
5
254
100
AcDbEntity
8
0
100
AcDbSpline
70
1064
71
3
72
12
73
8
74
0
42
0.000000001
43
0.0000000001
44
0.0000000001
40
0
40
0
40
0
40
0
40
0.02929833550401939
40
0.02929833550401939
40
0.053828535887922427
40
0.053828535887922427
40
0.078358736271825324
40
0.078358736271825324
40
0.078358736271825324
40
0.078358736271825324
10
24.175333652690387
20
1.8835324872455939
30
0
10
24.257554895543919
20
1.9362331633357044
30
0
10
24.328696444572554
20
2.0044896292961734
30
0
10
24.431688429486179
20
2.1514155316247874
30
0
10
24.467359016719463
20
2.225598134634641
30
0
10
24.513343628621385
20
2.3825344386152461
30
0
10
24.523349689293646
20
2.4642371199219681
30
0
10
24.519972748799006
20
2.5459346919948977
30
0
0
ARC
5
255
100
AcDbEntity
8
0
100
AcDbCircle
10
25.065719888489568
20
0.4943916192630059
30
0
40
1.6500000000000148
100
AcDbArc
50
122.65832026184187
51
187.51928319633069
0
ARC
5
256
100
AcDbEntity
8
0
100
AcDbCircle
10
23.925608881150438
20
0.34390277933064034
30
0
40
0.49999999999998079
100
AcDbArc
50
187.51928319633174
51
239.1308936619449
0
ARC
5
257
100
AcDbEntity
8
0
100
AcDbCircle
10
27.525469170248922
20
6.3661977236758061
30
0
40
7.5161977236758135
100
AcDbArc
50
239.13089366194515
51
255.41066127357402
0
ARC
5
258
100
AcDbEntity
8
0
100
AcDbCircle
10
25.758164120825427
20
-0.42377012308134243
30
0
40
0.49999999999999928
100
AcDbArc
50
255.4106612735745
51
307.02227173918828
0
ARC
5
259
100
AcDbEntity
8
0
100
AcDbCircle
10
25.065719888489568
20
0.4943916192630059
30
0
40
1.6500000000000021
100
AcDbArc
50
-52.97772826081188
51
11.866599325636191
0
SPLINE
5
260
100
AcDbEntity
8
0
100
AcDbSpline
70
1064
71
3
72
12
73
8
74
0
42
0.000000001
43
0.0000000001
44
0.0000000001
40
0
40
0
40
0
40
0
40
0.029298335504019411
40
0.029298335504019411
40
0.054944151829285068
40
0.054944151829285068
40
0.080589968154550884
40
0.080589968154550884
40
0.080589968154550884
40
0.080589968154550884
10
26.92769031857825
20
1.5585130544050718
30
0
10
26.853389675851489
20
1.4951323907360603
30
0
10
26.792179040757119
20
1.4178451130317016
30
0
10
26.708398018196679
20
1.2549843530240257
30
0
10
26.682575373925957
20
1.1728377633609255
30
0
10
26.659732227098594
20
1.0033985334212614
30
0
10
26.662878965290055
20
0.91734640277265633
30
0
10
26.680457781255861
20
0.83368726860835185
30
0
0
SPLINE
5
261
100
AcDbEntity
8
0
100
AcDbSpline
70
1064
71
3
72
14
73
10
74
0
42
0.000000001
43
0.0000000001
44
0.0000000001
40
0.41350534146755591
40
0.41350534146755591
40
0.41350534146755591
40
0.41350534146755591
40
0.41552960340578082
40
0.41552960340578082
40
0.41552960340578082
40
0.5202135969680034
40
0.5202135969680034
40
0.5202135969680034
40
0.59137148224185865
40
0.59137148224185865
40
0.59137148224185865
40
0.59137148224185865
10
26.927690318575202
20
1.558513054402475
30
0
10
26.930914956837473
20
1.5612637669892804
30
0
10
26.93416788979053
20
1.5640097988450807
30
0
10
26.937449407534189
20
1.5667510639281568
30
0
10
27.107151942500074
20
1.7085146227295334
30
0
10
27.39794229646451
20
1.8125331421288737
30
0
10
27.666772430162773
20
1.7604296805745112
30
0
10
27.849506993116616
20
1.7250128798441067
30
0
10
27.992285164015769
20
1.6402899657715153
30
0
10
28.101596165427626
20
1.5396569276188399
30
0
0
SPLINE
5
262
100
AcDbEntity
8
0
100
AcDbSpline
70
1064
71
3
72
12
73
8
74
0
42
0.000000001
43
0.0000000001
44
0.0000000001
40
0
40
0
40
0
40
0
40
0.029298335504019609
40
0.029298335504019609
40
0.053828535887924259
40
0.053828535887924259
40
0.078358736271828835
40
0.078358736271828835
40
0.078358736271828835
40
0.078358736271828835
10
28.326288614358379
20
0.82757119484726305
30
0
10
28.347162807301267
20
0.92297539866301515
30
0
10
28.349202869103053
20
1.0215446803457551
30
0
10
28.318136898174828
20
1.198263313154565
30
0
10
28.290904790662044
20
1.275941248910466
30
0
10
28.212450096809082
20
1.419428004575598
30
0
10
28.161752930170287
20
1.4842758779230258
30
0
10
28.101596165427615
20
1.539656927618851
30
0
0
ARC
5
263
100
AcDbEntity
8
0
100
AcDbCircle
10
29.938157687340997
20
0.47489841228216434
30
0
40
1.650000000000015
100
AcDbArc
50
167.6583202618416
51
232.51928319633046
0
ARC
5
264
100
AcDbEntity
8
0
100
AcDbCircle
10
29.238389141955146
20
-0.43769349152184506
30
0
40
0.49999999999997158
100
AcDbArc
50
232.51928319633004
51
284.13089366194572
0
ARC
5
265
100
AcDbEntity
8
0
100
AcDbCircle
10
27.525469170248922
20
6.3661977236758061
30
0
40
7.5161977236758117
100
AcDbArc
50
284.13089366194521
51
300.41066127357402
0
ARC
5
266
100
AcDbEntity
8
0
100
AcDbCircle
10
31.077028093856963
20
0.31529203032261743
30
0
40
0.49999999999998057
100
AcDbArc
50
300.41066127357243
51
352.02227173918914
0
ARC
5
267
100
AcDbEntity
8
0
100
AcDbCircle
10
29.938157687340997
20
0.47489841228216434
30
0
40
1.6500000000000044
100
AcDbArc
50
-7.9777282608115252
51
56.866599325636223
0
SPLINE
5
268
100
AcDbEntity
8
0
100
AcDbSpline
70
1064
71
3
72
12
73
8
74
0
42
0.000000001
43
0.0000000001
44
0.0000000001
40
0
40
0
40
0
40
0
40
0.029298335504019671
40
0.029298335504019671
40
0.054944151829285526
40
0.054944151829285526
40
0.080589968154551384
40
0.080589968154551384
40
0.080589968154551384
40
0.080589968154551384
10
30.50232212203062
20
2.5439578125616302
30
0
10
30.494600530788468
20
2.4466024271665554
30
0
10
30.505968433796706
20
2.3486696138463925
30
0
10
30.5618862524001
20
2.1742675368685394
30
0
10
30.601713296130232
20
2.0979217593944166
30
0
10
30.70537238059433
20
1.9619575868797856
30
0
10
30.768445505625305
20
1.9033346216764047
30
0
10
30.840031546675732
20
1.8566087805752785
30
0
0
SPLINE
5
269
100
AcDbEntity
8
0
100
AcDbSpline
70
1064
71
3
72
14
73
10
74
0
42
0.000000001
43
0.0000000001
44
0.0000000001
40
0.41350534146755652
40
0.41350534146755652
40
0.41350534146755652
40
0.41350534146755652
40
0.41552960340578082
40
0.41552960340578082
40
0.41552960340578082
40
0.5202135969680034
40
0.5202135969680034
40
0.5202135969680034
40
0.59137148224186253
40
0.59137148224186253
40
0.59137148224186253
40
0.59137148224186253
10
30.502322122030307
20
2.5439578125576414
30
0
10
30.502657238089203
20
2.5481830236629865
30
0
10
30.503015671292463
20
2.5524249323594272
30
0
10
30.503397687612317
20
2.556683682937825
30
0
10
30.523153527117653
20
2.7769234699503431
30
0
10
30.655221157873282
20
3.0560955015784907
30
0
10
30.882155479386991
20
3.209344401115434
30
0
10
31.036411787973229
20
3.3135137897728626
30
0
10
31.197279347884049
20
3.354565055558445
30
0
10
31.345732201929835
20
3.3607013022258991
30
0
0
SPLINE
5
270
100
AcDbEntity
8
0
100
AcDbSpline
70
1064
71
3
72
12
73
8
74
0
42
0.000000001
43
0.0000000001
44
0.0000000001
40
0
40
0
40
0
40
0
40
0.029298335504019505
40
0.029298335504019505
40
0.05382853588792294
40
0.05382853588792294
40
0.078358736271826379
40
0.078358736271826379
40
0.078358736271826379
40
0.078358736271826379
10
32.008134406679133
20
3.0160622061172715
30
0
10
31.955433730589021
20
3.0982834489708044
30
0
10
31.887177264628555
20
3.1694249979994393
30
0
10
31.740251362299936
20
3.272416982913068
30
0
10
31.666068759290084
20
3.3080875701463497
30
0
10
31.509132455309476
20
3.3540721820482755
30
0
10
31.427429774002754
20
3.3640782427205353
30
0
10
31.34573220192982
20
3.3607013022258969
30
0
0
ARC
5
271
100
AcDbEntity
8
0
100
AcDbCircle
10
33.397275274661723
20
3.9064484419164587
30
0
40
1.6500000000000208
100
AcDbArc
50
212.65832026184202
51
277.51928319633066
0
ARC
5
272
100
AcDbEntity
8
0
100
AcDbCircle
10
33.547764114594102
20
2.7663374345773164
30
0
40
0.4999999999999768
100
AcDbArc
50
277.51928319633026
51
329.13089366194504
0
ARC
5
273
100
AcDbEntity
8
0
100
AcDbCircle
10
27.525469170248922
20
6.3661977236758061
30
0
40
7.5161977236758126
100
AcDbArc
50
329.13089366194515
51
345.41066127357396
0
ARC
5
274
100
AcDbEntity
8
0
100
AcDbCircle
10
34.315437017006033
20
4.5988926742523049
30
0
40
0.50000000000003642
100
AcDbArc
50
-14.589338726424835
51
37.022271739186642
0
ARC
5
275
100
AcDbEntity
8
0
100
AcDbCircle
10
33.397275274661723
20
3.9064484419164587
30
0
40
1.6499999999999957
100
AcDbArc
50
37.022271739188071
51
101.86659932563616
0
SPLINE
5
276
100
AcDbEntity
8
0
100
AcDbSpline
70
1064
71
3
72
12
73
8
74
0
42
0.000000001
43
0.0000000001
44
0.0000000001
40
0
40
0
40
0
40
0
40
0.029298335504019564
40
0.029298335504019564
40
0.054944151829285318
40
0.054944151829285318
40
0.080589968154551161
40
0.080589968154551161
40
0.080589968154551161
40
0.080589968154551161
10
32.333153839519653
20
5.768418872005137
30
0
10
32.396534503188668
20
5.6941182292783736
30
0
10
32.473821780893026
20
5.6329075941840063
30
0
10
32.636682540900701
20
5.5491265716235674
30
0
10
32.718829130563805
20
5.5233039273528455
30
0
10
32.888268360503467
20
5.5004607805254828
30
0
10
32.974320491152071
20
5.5036075187169402
30
0
10
33.057979625316378
20
5.5211863346827439
30
0
0
SPLINE
5
277
100
AcDbEntity
8
0
100
AcDbSpline
70
1064
71
3
72
14
73
10
74
0
42
0.000000001
43
0.0000000001
44
0.0000000001
40
0.41350534146755646
40
0.41350534146755646
40
0.41350534146755646
40
0.41350534146755646
40
0.41552960340578082
40
0.41552960340578082
40
0.41552960340578082
40
0.5202135969680034
40
0.5202135969680034
40
0.5202135969680034
40
0.5913714822418763
40
0.5913714822418763
40
0.5913714822418763
40
0.5913714822418763
10
32.333153839522254
20
5.7684188720020924
30
0
10
32.330403126935451
20
5.7716435102643571
30
0
10
32.327657095079644
20
5.7748964432174121
30
0
10
32.324915829996577
20
5.7781779609610728
30
0
10
32.183152271195198
20
5.9478804959269604
30
0
10
32.079133751795858
20
6.2386708498913972
30
0
10
32.131237213350218
20
6.5075009835896562
30
0
10
32.166654014080635
20
6.6902355465435477
30
0
10
32.251376928153256
20
6.8330137174427197
30
0
10
32.352009966305964
20
6.9423247188545911
30
0
0
SPLINE
5
278
100
AcDbEntity
8
0
100
AcDbSpline
70
1064
71
3
72
12
73
8
74
0
42
0.000000001
43
0.0000000001
44
0.0000000001
40
0
40
0
40
0
40
0
40
0.02929833550401955
40
0.02929833550401955
40
0.05382853588791936
40
0.05382853588791936
40
0.078358736271819135
40
0.078358736271819135
40
0.078358736271819135
40
0.078358736271819135
10
33.064095699077477
20
7.1670171677852821
30
0
10
32.968691495261723
20
7.1878913607281669
30
0
10
32.870122213578981
20
7.189931422529952
30
0
10
32.693403580770187
20
7.1588654516017254
30
0
10
32.615725645014301
20
7.1316333440889537
30
0
10
32.472238889349192
20
7.0531786502360116
30
0
10
32.407391016001775
20
7.0024814835972347
30
0
10
32.352009966305957
20
6.9423247188545805
30
0
0
ARC
5
279
100
AcDbEntity
8
0
100
AcDbCircle
10
33.416768481642563
20
8.7788862407678785
30
0
40
1.6499999999999932
100
AcDbArc
50
257.65832026184182
51
322.51928319633129
0
ARC
5
280
100
AcDbEntity
8
0
100
AcDbCircle
10
34.329360385446549
20
8.0791176953820596
30
0
40
0.50000000000000155
100
AcDbArc
50
-37.48071680366855
51
14.130893661945157
0
ARC
5
281
100
AcDbEntity
8
0
100
AcDbCircle
10
27.525469170248922
20
6.3661977236758061
30
0
40
7.5161977236758171
100
AcDbArc
50
14.130893661945393
51
30.410661273574021
0
ENDSEC
0
SECTION
2
OBJECTS
0
DICTIONARY
5
C
100
AcDbDictionary
3
ACAD_GROUP
350
D
3
ACAD_MLINESTYLE
350
17
0
DICTIONARY
5
D
100
AcDbDictionary
0
DICTIONARY
5
1A
330
C
100
AcDbDictionary
0
DICTIONARY
5
17
100
AcDbDictionary
0
ENDSEC
0
EOF
