<?xml version="1.0" encoding="UTF-8" standalone="no"?>
<!-- Created with Inkscape (http://www.inkscape.org/) -->

<svg
   width="1200"
   height="1200"
   viewBox="0 0 317.49999 317.50001"
   version="1.1"
   id="svg5"
   inkscape:version="1.1 (c68e22c387, 2021-05-23)"
   sodipodi:docname="avatatar-logo.svg"
   inkscape:export-filename="C:\Projects\fabricatable-machines\wiki-media\avatatar-logo.png"
   inkscape:export-xdpi="200"
   inkscape:export-ydpi="200"
   xmlns:inkscape="http://www.inkscape.org/namespaces/inkscape"
   xmlns:sodipodi="http://sodipodi.sourceforge.net/DTD/sodipodi-0.dtd"
   xmlns="http://www.w3.org/2000/svg"
   xmlns:svg="http://www.w3.org/2000/svg">
  <sodipodi:namedview
     id="namedview7"
     pagecolor="#2d2d2d"
     bordercolor="#999999"
     borderopacity="1"
     inkscape:pageshadow="0"
     inkscape:pageopacity="0"
     inkscape:pagecheckerboard="0"
     inkscape:document-units="mm"
     showgrid="false"
     units="px"
     inkscape:zoom="0.48318963"
     inkscape:cx="601.21323"
     inkscape:cy="600.17844"
     inkscape:window-width="1920"
     inkscape:window-height="1028"
     inkscape:window-x="-6"
     inkscape:window-y="-6"
     inkscape:window-maximized="1"
     inkscape:current-layer="layer1" />
  <defs
     id="defs2" />
  <g
     inkscape:label="Layer 1"
     inkscape:groupmode="layer"
     id="layer1">
    <rect
       style="fill:#2d2d2d;fill-opacity:1;stroke:none;stroke-width:13.2914;stroke-linecap:round;stroke-linejoin:round;stroke-miterlimit:4;stroke-dasharray:none;stroke-opacity:1;paint-order:stroke markers fill"
       id="rect11025"
       width="317.5"
       height="317.5"
       x="0"
       y="0" />
    <path
       d="m 146.72398,152.54356 -6.75186,16.24768 c -0.0888,0.29158 -0.53027,0.48152 -0.80299,0.34554 l -0.86366,-0.2987 -1.53546,-0.38381 -2.22183,-0.28044 -0.96813,-0.0354 -1.37962,0.0941 -1.5858,0.38148 -1.40299,0.65696 -1.1859,0.87758 -0.5276,0.51041 -0.86961,1.04992 -0.80384,1.26055 -0.68972,1.36227 -0.61834,1.4908 -0.5322,1.50403 -1.1038,3.57186 -0.90882,2.68675 -0.62403,1.39671 -1.09566,1.82492 -1.32465,1.6655 -1.50177,1.43859 c -1.04959,0.87774 -2.21529,1.61572 -3.45599,2.19233 l -1.42494,0.5798 -1.94743,0.54846 -2.00105,0.30079 -1.26072,0.0583 c -1.35866,0.01 -2.71858,-0.15602 -4.03452,-0.49341 l -1.96795,-0.64682 -1.890543,-0.91729 c -1.261056,-0.72038 -2.421569,-1.61563 -3.442915,-2.64846 -1.022687,-1.03416 -1.905952,-2.20615 -2.611678,-3.47769 l -0.892315,-1.89849 -0.619846,-1.96343 -0.408789,-2.62005 c -0.0956,-1.34828 -0.01924,-2.70871 0.226221,-4.03788 0.24591,-1.33135 0.661402,-2.63137 1.233741,-3.8585 l 1.504872,-2.56408 c 0.816238,-1.12859 1.78572,-2.14633 2.871162,-3.01938 l 1.780944,-1.2412 1.470686,-0.78112 0.74335,-0.32309 1.26357,-0.46308 1.51308,-0.48319 2.01488,-0.61055 3.02541,-1.0091 1.45049,-0.5943 1.39512,-0.69416 1.31258,-0.82764 1.11317,-0.92021 1.17426,-1.39395 0.38591,-0.64614 0.55676,-1.35239 0.27297,-1.21707 0.0892,-0.8794 0.008,-0.93556 -0.0237,-0.51721 -0.0637,-0.78766 c -0.10332,-1.01374 -0.291,-2.02059 -0.58718,-2.99552 l -0.49945,-1.37467 -0.65109,-1.32515 c -0.49777,-0.88855 -1.09357,-1.72053 -1.74777,-2.50167 l -0.77477,-0.86433 -0.98707,-0.9069 -1.39947,-0.91317 -1.44279,-0.5731 -1.48895,-0.26292 -1.50144,0.007 -1.49498,0.23193 -1.45527,0.40242 -1.46189,0.5441 -1.46692,0.65595 -1.422009,0.71017 -3.241158,1.72171 -1.32113,0.66023 -1.205925,0.52315 -1.622758,0.52785 -1.09181,0.2522 -2.110974,0.26385 -2.094136,-0.0214 -2.548504,-0.41373 c -1.316522,-0.32727 -2.590482,-0.82503 -3.781157,-1.47504 -1.185732,-0.64733 -2.288768,-1.44555 -3.275175,-2.3687 l -2.025014,-2.29849 -1.087283,-1.73545 -0.859305,-1.88534 -0.610964,-2.02376 c -0.328187,-1.42846 -0.456882,-2.90216 -0.386922,-4.36615 l 0.252112,-2.17121 0.530026,-2.06388 0.787919,-1.93562 1.023106,-1.78698 1.235247,-1.6235 2.064477,-1.98413 c 1.036678,-0.83166 2.176412,-1.53487 3.385689,-2.08602 l 1.893721,-0.72079 1.993173,-0.47624 2.059197,-0.21208 c 1.42494,-0.0511 2.856498,0.0956 4.242982,0.42832 l 1.312499,0.37477 0.468696,0.16348 0.401335,0.15374 0.396137,0.16538 0.611634,0.27692 1.244633,0.618 1.464907,0.7766 3.223061,1.67253 1.438513,0.65001 1.45544,0.55282 1.48862,0.42345 1.49498,0.24524 1.58573,0.0164 1.44798,-0.2501 0.74795,-0.24742 0.70958,-0.32048 1.38833,-0.89457 0.69232,-0.60275 0.60133,-0.61775 0.55449,-0.63585 0.83216,-1.07631 0.82319,-1.28393 0.66157,-1.31946 0.50967,-1.36545 0.3736,-1.45787 0.28637,-2.08341 0.0489,-0.88494 0.003,-0.58993 -0.19069,-1.70747 -0.5855,-1.761 -0.77778,-1.29198 -1.08795,-1.198797 -1.17183,-0.927089 -1.31828,-0.797384 -1.39452,-0.672129 -1.45661,-0.581304 -3.16609,-1.037013 -1.89004,-0.57259 -1.3812,-0.446326 -1.26424,-0.470036 -0.71164,-0.313909 -0.661656,-0.332375 -0.953815,-0.54821 -1.679565,-1.201735 -1.540565,-1.446222 c -0.936525,-1.007583 -1.739107,-2.140447 -2.380232,-3.358269 l -0.659475,-1.419493 -0.642719,-1.925307 -0.395719,-1.991248 -0.116466,-1.239272 c -0.07399,-1.353554 0.02446,-2.716746 0.295678,-4.04483 l 0.541422,-1.978175 0.809871,-1.915924 c 0.651683,-1.29281 1.484176,-2.493541 2.460362,-3.562895 0.98515,-1.079157 2.116672,-2.024509 3.356028,-2.798185 l 1.856101,-0.99269 1.93821,-0.722903 2.61637,-0.543182 c 1.34409,-0.161714 2.70887,-0.150813 4.05028,0.031 1.33981,0.181475 2.65642,0.533379 3.90817,1.044469 l 2.62517,1.370731 c 1.16437,0.755746 2.22719,1.668001 3.15101,2.704262 l 1.3197,1.702354 0.79563,1.316271 0.41608,0.824618 0.13967,0.306905 0.21256,0.508159 0.46518,1.279489 0.39932,1.246645 0.55876,1.844706 0.72065,2.268742 0.54628,1.501772 0.62135,1.447731 0.70933,1.347356 0.84003,1.25452 1.01809,1.139482 1.13428,0.903124 0.92374,0.518131 1.47512,0.519134 1.68309,0.243145 1.08225,0.0017 0.80703,-0.05294 0.67699,-0.06811 1.00517,-0.152833 1.46693,-0.343922 1.37324,-0.47917 1.33353,-0.633168 1.2686,-0.775938 1.23324,-0.927254 0.73271,-0.63258 0.63039,-0.61306 0.61431,-0.704384 0.49048,-0.689052 0.39565,-0.685281 0.56697,-1.447227 0.27792,-1.869927 -0.0669,-1.444293 -0.28145,-1.502686 -0.20267,-0.728601 -0.24734,-0.753732 -0.57184,-1.449742 -1.39276,-2.865883 -0.96395,-1.804739 -0.75065,-1.425108 -0.60877,-1.24916 -0.26318,-0.600824 -0.35265,-0.937561 c -0.33665,-0.990765 -0.57661,-2.014371 -0.71343,-3.051805 l -0.13507,-2.116337 0.14705,-2.071011 c 0.18675,-1.346516 0.55081,-2.668233 1.07639,-3.922 l 1.24488,-2.383278 c 0.72282,-1.139567 1.58916,-2.18831 2.57364,-3.111126 1.02135,-0.957331 2.16996,-1.7791 3.4074,-2.433463 l 1.89723,-0.846067 2.03901,-0.59647 c 1.43332,-0.315954 2.91029,-0.43225 4.37578,-0.348798 1.44162,0.08203 2.87225,0.35726 4.23846,0.824449 l 1.92438,0.806436 1.77642,1.040281 1.60341,1.244716 c 0.94643,0.837521 1.79275,1.787983 2.51616,2.824075 0.77552,1.110577 1.40995,2.319519 1.88149,3.589371 0.44834,1.207098 0.74946,2.469329 0.88988,3.749066 0.15334,1.397041 0.11494,2.814944 -0.10863,4.202684 l -0.72936,2.835216 -0.32122,0.824618 -0.3235,0.718043 -0.63141,1.270439 -0.94142,1.769466 -0.78985,1.488701 -1.37466,2.891104 -0.54569,1.448231 -0.41407,1.470354 -0.24264,1.517857 -0.0176,1.449405 0.30799,1.707969 0.59966,1.437509 0.42202,0.695167 0.51201,0.686623 0.6181,0.682852 0.39847,0.384155 0.63082,0.55776 2.48182,1.748436 1.32506,0.658889 1.36186,0.503218 2.58788,0.553401 0.7379,0.07909 0.39898,0.03076 0.40761,0.02413 0.84817,0.01282 1.79519,-0.210047 0.8185,-0.225556 1.53814,-0.70916 1.18758,-0.885616 1.03784,-1.100772 0.85679,-1.221007 0.72559,-1.321464 0.64917,-1.461304 0.55692,-1.492555 1.12238,-3.566666 0.44181,-1.431559 0.45303,-1.335206 0.23494,-0.614063 0.13807,-0.332128 0.12855,-0.290568 1.19637,-2.162754 1.30696,-1.71844 1.48602,-1.483257 1.64245,-1.251169 2.46355,-1.33001 c 1.24178,-0.534553 2.55152,-0.911002 3.88757,-1.117532 1.33796,-0.206792 2.70233,-0.242979 4.04935,-0.106827 l 2.78713,0.53849 1.94776,0.708155 c 1.30429,0.575689 2.52823,1.331518 3.63169,2.234642 1.13788,0.931277 2.14758,2.019147 2.99123,3.223314 l 1.1016,1.821412 0.82847,1.912572 0.55944,1.975746 0.29451,2.012026 0.0353,2.028866 c -0.0481,1.036175 -0.19807,2.067576 -0.44515,3.075179 -0.29844,1.217238 -0.73874,2.399785 -1.31308,3.513629 l -1.05545,1.755224 -1.29483,1.623344 -1.52329,1.456862 c -0.83401,0.696426 -1.74048,1.305714 -2.69849,1.818565 l -1.33781,0.637189 -1.25376,0.471797 -1.37475,0.447498 -3.52829,1.081837 -1.51921,0.519387 -1.4613,0.575944 -1.40416,0.666849 -1.33286,0.793616 -1.16764,0.904967 -0.67514,0.671625 -0.88838,1.18271 -0.66668,1.39386 -0.27582,0.95415 -0.21516,1.72129 -2.5e-4,0.68033 0.0181,0.4253 0.10376,1.2138 0.55559,2.70518 c 0.28521,0.93589 0.67188,1.84161 1.14995,2.69547 l 0.80895,1.28217 0.86424,1.12892 0.55115,0.63493 0.59396,0.61499 0.90296,0.77392 1.43959,0.87314 1.47781,0.5224 0.89502,0.15744 1.45786,0.0473 1.51685,-0.18727 1.46366,-0.36891 2.92528,-1.14844 1.43248,-0.70146 1.45091,-0.76144 1.81538,-0.97066 1.28854,-0.65671 0.7927,-0.371 0.49467,-0.21157 0.29156,-0.11529 0.65161,-0.23301 1.49096,-0.41759 2.13242,-0.33782 2.10764,-0.0447 2.04855,0.23235 c 1.35447,0.2454 2.67619,0.67045 3.92116,1.25762 1.22033,0.5756 2.36694,1.30697 3.40529,2.16853 l 1.47555,1.3916 1.29885,1.58823 1.08166,1.73814 0.65026,1.375 0.67204,1.99745 c 0.3716,1.41237 0.54671,2.87594 0.52342,4.33631 -0.0231,1.45109 -0.2419,2.89907 -0.65495,4.29007 l -0.72642,1.95581 -0.96848,1.82024 -1.18959,1.66515 c -0.8371,1.02378 -1.80331,1.94165 -2.86613,2.72882 l -1.69942,1.10002 -1.83524,0.87932 c -1.13815,0.45882 -2.32924,0.787 -3.54246,0.96982 -1.38337,0.20846 -2.7955,0.22781 -4.18474,0.0611 l -2.70293,-0.56629 -0.53614,-0.17187 -0.33112,-0.11659 -0.31947,-0.12092 -0.59731,-0.24884 -1.16906,-0.55173 -1.38824,-0.72022 -3.22968,-1.70503 -1.42964,-0.68344 -1.45242,-0.60452 -1.48995,-0.4934 -1.47966,-0.32946 -1.44764,-0.13128 -1.20802,0.0642 -1.4552,0.32718 -0.74192,0.29091 -0.69274,0.35742 -1.39871,1.00711 -0.80426,0.78456 -0.29694,0.3277 -0.78448,0.94425 c -0.62035,0.79907 -1.17191,1.65309 -1.62158,2.55924 l -0.57603,1.33755 -0.43711,1.41706 -0.29233,1.45376 -0.17242,1.59964 -0.0297,0.77677 0.0188,0.85311 0.28748,1.75563 0.58456,1.50295 0.81222,1.2541 1.04104,1.09835 1.16201,0.896 1.30036,0.77494 1.43072,0.68008 1.4716,0.57971 1.50036,0.51201 1.51543,0.47163 2.00222,0.60778 1.45158,0.47322 1.14946,0.43418 0.73873,0.32911 1.68853,0.9363 c 1.2035,0.76681 2.30428,1.69557 3.25817,2.75688 l 1.26809,1.61454 0.71294,1.14669 0.87999,1.82653 0.64348,1.92631 0.39287,1.98806 c 0.17753,1.33957 0.18601,2.70176 0.0216,4.04274 l -0.43358,2.21143 -0.6749,1.95657 c -0.5539,1.31367 -1.29004,2.54968 -2.1754,3.66737 -0.91167,1.15088 -1.98161,2.17625 -3.17045,3.03781 -1.14367,0.82889 -2.39735,1.5063 -3.72058,2.00038 l -1.97733,0.59127 -2.01848,0.32551 -2.02024,0.0632 c -1.23031,-0.0399 -2.45543,-0.22271 -3.64417,-0.54185 -1.01791,-0.27322 -2.00909,-0.64657 -2.95294,-1.11526 l -1.76653,-1.02528 -1.63307,-1.25846 -1.47378,-1.48921 -1.28234,-1.69918 -1.04121,-1.84964 -0.53848,-1.2696 -0.45696,-1.30697 -0.44943,-1.44438 -0.64038,-2.10537 -0.48746,-1.5047 -0.54419,-1.48945 -0.62906,-1.45586 -0.73103,-1.37425 -0.8283,-1.22268 -0.9983,-1.10849 c -0.53456,-0.50505 -1.13413,-0.94283 -1.78681,-1.28166 l -0.71671,-0.32484 -1.02696,-0.32382 -1.65585,-0.23913 -0.56279,-0.0143 -0.93295,0.0337 -2.0788,0.24994 -1.44069,0.33589 -1.35271,0.46467 c -0.27281,0.14287 -0.72383,-0.0466 -0.81272,-0.34142 l -6.89455,-16.59824 -0.15174,-0.46585 -0.0428,-0.3204 0.005,-0.18675 0.0675,-0.30095 0.15317,-0.29542 0.24213,-0.28086 0.3215,-0.26921 0.36019,-0.24314 c 1.54056,-0.98137 3.03295,-2.04219 4.42228,-3.22775 l 2.04948,-1.92882 1.78739,-2.08769 1.9135,-2.96634 c 0.7043,-1.30907 1.27464,-2.69044 1.6985,-4.11521 0.4273,-1.43608 0.70589,-2.91633 0.83609,-4.40905 0.12871,-1.47504 0.11244,-2.96232 -0.0426,-4.43484 l -0.60215,-3.3674 c -0.36221,-1.42653 -0.85588,-2.81972 -1.47253,-4.15618 -0.77678,-1.68308 -1.74878,-3.27634 -2.8953,-4.73288 -0.91593,-1.16353 -1.94323,-2.23991 -3.06713,-3.20403 -1.14149,-0.97938 -2.38261,-1.84304 -3.70022,-2.56837 l -2.82869,-1.30043 -2.17599,-0.69115 -1.23785,-0.2925 -2.06514,-0.34527 c -1.36545,-0.16958 -2.74531,-0.22364 -4.11965,-0.15752 -1.33571,0.0643 -2.66614,0.24206 -3.97135,0.53305 -1.28284,0.28604 -2.5413,0.68134 -3.75636,1.1823 -1.20358,0.49634 -2.36459,1.09625 -3.46537,1.79158 -1.10051,0.69525 -2.14089,1.48586 -3.10459,2.36099 -0.97241,0.88302 -1.8669,1.85217 -2.6699,2.8917 -0.81867,1.05987 -1.54241,2.19307 -2.16175,3.38048 l -1.36193,3.16752 -0.76547,2.72822 -0.25538,1.32063 -0.35181,3.39431 c -0.0594,1.6799 0.0609,3.36785 0.3834,5.01758 l 0.67221,2.55396 c 0.55909,1.67495 1.33696,3.27525 2.29245,4.76077 l 1.67404,2.28097 c 1.23206,1.48569 2.6353,2.82551 4.13272,4.04442 1.15288,0.93856 2.37549,1.79719 3.64961,2.56317 l 0.33573,0.22052 0.28463,0.23987 0.24724,0.28982 0.13699,0.24885 0.0823,0.26643 0.0273,0.28436 -0.0397,0.39807 -0.0773,0.29903 z"
       stroke="#dddddd"
       stroke-width="0.201085"
       fill-opacity="0"
       id="path1059"
       style="fill:#b8ffe5;fill-opacity:1;stroke:none"
       inkscape:export-filename="C:\Projects\fabricatable-machines\wiki-media\avatatar-logo.png"
       inkscape:export-xdpi="200"
       inkscape:export-ydpi="200" />
    <g
       id="g1478"
       style="fill:#000000;fill-opacity:0;stroke:#b8ffe5;stroke-width:2.38125;stroke-linecap:round;stroke-miterlimit:4;stroke-dasharray:none;stroke-opacity:1"
       transform="translate(3.7041668)">
      <path
         d="m 163.99278,240.45804 c -1.0929,0 -1.54827,-0.0912 -1.95807,-0.22778 l -1.10806,-0.47053 -0.91075,-0.45536 -0.75892,-0.66786 -0.72861,-0.75894 -0.69826,-0.88043 -0.57678,-0.94107 -0.51612,-1.06256 -0.3643,-1.09289 -0.18215,-1.12325 -0.0303,-1.2447 0.0303,-1.24462 0.18215,-1.12332 0.3643,-1.09282 0.51612,-1.06256 0.57678,-0.91075 0.69826,-0.78937 0.72861,-0.81956 0.75892,-0.60721 0.91075,-0.54644 1.03215,-0.48579 0.97142,-0.21256 1.06256,-0.0304 1.0929,0.0304 1.06257,0.21256 0.94107,0.48579 0.91075,0.54644 0.88042,0.60721 0.75893,0.81956 0.69827,0.78937 0.54637,0.91075 0.42505,1.06256 0.45537,1.09282 0.21246,1.12332 0.0304,1.24462 -0.0304,1.2447 -0.21246,1.12325 -0.45537,1.09289 -0.42505,1.06256 -0.54637,0.94107 -0.69827,0.88043 -0.75893,0.75894 -0.88042,0.66786 -0.91075,0.45536 -1.03215,0.47053 c -0.42505,0.13657 -0.97149,0.22778 -2.06439,0.22778 z"
         stroke="#dddddd"
         stroke-width="0.201085"
         fill-opacity="0"
         id="path1029"
         style="fill:#000000;fill-opacity:0;stroke:#b8ffe5;stroke-width:2.38125;stroke-linecap:round;stroke-miterlimit:4;stroke-dasharray:none;stroke-opacity:1" />
      <path
         d="m 207.34417,240.45804 c -1.09282,0 -1.54819,-0.0912 -1.95807,-0.22778 l -1.10807,-0.47053 -0.91075,-0.45536 -0.75893,-0.66786 -0.7286,-0.75894 -0.69826,-0.88043 -0.57678,-0.94107 -0.51612,-1.06256 -0.3643,-1.09289 -0.18208,-1.12325 -0.0304,-1.2447 0.0304,-1.24462 0.18208,-1.12332 0.3643,-1.09282 0.51612,-1.06256 0.57678,-0.91075 0.69826,-0.78937 0.7286,-0.81956 0.75893,-0.60721 0.91075,-0.54644 1.03216,-0.48579 0.97149,-0.21256 1.06249,-0.0304 1.09298,0.0304 1.06248,0.21256 0.94108,0.48579 0.91075,0.54644 0.88042,0.60721 0.75893,0.81956 0.69826,0.78937 0.54646,0.91075 0.42495,1.06256 0.45537,1.09282 0.21258,1.12332 0.0303,1.24462 -0.0303,1.2447 -0.21258,1.12325 -0.45537,1.09289 -0.42495,1.06256 -0.54646,0.94107 -0.69826,0.88043 -0.75893,0.75894 -0.88042,0.66786 -0.91075,0.45536 -1.03216,0.47053 c -0.42504,0.13657 -0.9714,0.22778 -2.06438,0.22778 z"
         stroke="#dddddd"
         stroke-width="0.201085"
         fill-opacity="0"
         id="path1031"
         style="fill:#000000;fill-opacity:0;stroke:#b8ffe5;stroke-width:2.38125;stroke-linecap:round;stroke-miterlimit:4;stroke-dasharray:none;stroke-opacity:1" />
      <path
         d="m 237.39878,240.45804 c -1.0929,0 -1.63934,-0.0912 -2.06439,-0.22778 l -1.03215,-0.47053 -0.91075,-0.45536 -0.88042,-0.66786 -0.75893,-0.75894 -0.69827,-0.88043 -0.54645,-0.94107 -0.42495,-1.06256 -0.45537,-1.09289 -0.21248,-1.12325 -0.0304,-1.2447 0.0304,-1.24462 0.21248,-1.12332 0.45537,-1.09282 0.42495,-1.06256 0.54645,-0.94108 0.69827,-0.88042 0.75893,-0.72861 0.88042,-0.57678 0.91075,-0.54644 0.94108,-0.48579 1.06256,-0.21256 1.0929,-0.0304 1.0929,0.0304 1.06249,0.21256 0.94117,0.48579 0.91065,0.54644 0.88042,0.57678 0.75894,0.72861 0.69826,0.88042 0.54645,0.94108 0.39463,1.06256 0.33397,1.09282 0.18214,1.12332 0.0303,1.24462 -0.0303,1.2447 -0.18214,1.12325 -0.33397,1.09289 -0.39463,1.06256 -0.54645,0.94107 -0.69826,0.88043 -0.75894,0.75894 -0.88042,0.66786 -0.91065,0.45536 -1.03225,0.47053 c -0.42495,0.13657 -0.97141,0.22778 -2.06431,0.22778 z"
         stroke="#dddddd"
         stroke-width="0.201085"
         fill-opacity="0"
         id="path1033"
         style="fill:#000000;fill-opacity:0;stroke:#b8ffe5;stroke-width:2.38125;stroke-linecap:round;stroke-miterlimit:4;stroke-dasharray:none;stroke-opacity:1" />
      <path
         d="m 41.953149,208.21769 -1.684927,0.1669 -0.683021,0.19741 -0.546448,0.18214 -0.516117,0.21247 -0.394632,0.36428 -0.333969,0.48572 -0.212469,0.42503 -0.151811,0.54645 -0.06066,0.66785 -0.121481,0.6072 -0.03033,2.11491 v 8.58124 17.68872"
         stroke="#dddddd"
         stroke-width="0.201085"
         fill-opacity="0"
         id="path1035"
         style="fill:#000000;fill-opacity:0;stroke:#b8ffe5;stroke-width:2.38125;stroke-linecap:round;stroke-miterlimit:4;stroke-dasharray:none;stroke-opacity:1" />
      <path
         d="m 113.71971,222.97173 c -1.27504,0 -1.82149,0.18217 -2.21612,0.33389 l -0.91075,0.42506 -0.85001,0.54644 -0.69827,0.69826 -0.45537,0.72861 -0.4857,0.72859 -0.3643,0.72861 -0.21249,0.72858 -0.15182,0.74378 -0.0303,0.71344"
         stroke="#dddddd"
         stroke-width="0.201085"
         fill-opacity="0"
         id="path1037"
         style="fill:#000000;fill-opacity:0;stroke:#b8ffe5;stroke-width:2.38125;stroke-linecap:round;stroke-miterlimit:4;stroke-dasharray:none;stroke-opacity:1" />
      <path
         d="m 148.87444,225.52183 c -0.7286,-0.91075 -1.27504,-1.27503 -1.70001,-1.54825 l -1.06256,-0.60721 -1.0929,-0.39464 -1.21431,-0.30364 -1.15364,-0.0606 -1.21431,0.0304 -1.12323,0.21256 -1.06256,0.48579 -0.94108,0.54644 -0.88042,0.60721 -0.78934,0.81956 -0.81959,0.78936 -0.57686,0.91076 -0.42497,1.06256 -0.45537,1.09281 -0.21256,1.12333 -0.0303,1.24462 0.0303,1.2447 0.21256,1.12325 0.45537,1.09289 0.42497,1.06256 0.57686,0.94107 0.81959,0.88043 0.78934,0.75894 0.88042,0.66786 0.94108,0.45536 1.06256,0.45538 1.12323,0.21257 1.21431,0.0304 1.15364,-0.0304 1.21431,-0.21257 1.0929,-0.48572 1.06256,-0.63752 c 0.42497,-0.27323 0.97141,-0.63753 1.70001,-1.54826"
         stroke="#dddddd"
         stroke-width="0.201085"
         fill-opacity="0"
         id="path1039"
         style="fill:#000000;fill-opacity:0;stroke:#b8ffe5;stroke-width:2.38125;stroke-linecap:round;stroke-miterlimit:4;stroke-dasharray:none;stroke-opacity:1" />
      <path
         d="m 266.17827,231.1684 h 10.47353 c 2.27687,0 4.09836,0 5.00911,-0.18217 0.91075,-0.18216 0.91075,-0.54648 0.88042,-0.94109 l -0.18215,-1.18398 -0.36429,-1.00182 -0.51611,-1.03216 -0.57678,-0.91074 -0.69828,-0.75893 -0.75892,-0.7286 -0.88042,-0.66786 -0.94108,-0.45545 -1.06257,-0.45537 -1.09289,-0.21256 -1.09291,-0.0304 -1.09282,0.0304 -1.06256,0.21256 -0.9715,0.45537 -1.03215,0.45545 -0.91075,0.66786 -0.75892,0.75894 -0.69828,0.88042 -0.54645,0.94108 -0.42495,1.06256 -0.45546,1.09282 -0.21247,1.12332 -0.0303,1.24462 0.0303,1.2447 0.21247,1.12325 0.45546,1.09289 0.42495,1.06256 0.54645,0.94107 0.69828,0.88043 0.75892,0.75894 0.91075,0.66786 1.03215,0.45536 0.9715,0.45538 1.06256,0.21257 1.18398,0.0304 1.48753,-0.0609 1.3357,-0.39463 1.27506,-0.78934 1.33579,-0.91075 c 0.4857,-0.39464 1.03216,-0.94107 1.76075,-2.39827"
         stroke="#dddddd"
         stroke-width="0.201085"
         fill-opacity="0"
         id="path1041"
         style="fill:#000000;fill-opacity:0;stroke:#b8ffe5;stroke-width:2.38125;stroke-linecap:round;stroke-miterlimit:4;stroke-dasharray:none;stroke-opacity:1" />
      <path
         d="m 102.12036,280.122 c -1.09281,0 -1.54818,-0.0912 -1.95806,-0.22777 l -1.108067,-0.47053 -0.910747,-0.45539 -0.758929,-0.66786 -0.728601,-0.75892 -0.698269,-0.88041 -0.576778,-0.94108 -0.516119,-1.06256 -0.364299,-1.09282 -0.182141,-1.12332 -0.03033,-1.24472 0.03033,-1.24464 0.182141,-1.12321 0.364299,-1.09291 0.516119,-1.06256 0.576778,-0.91076 0.698269,-0.78934 0.728601,-0.8196 0.758929,-0.60719 0.910747,-0.54645 1.032157,-0.48569 0.97149,-0.21256 1.06248,-0.0304 1.0929,0.0304 1.06257,0.21256 0.94108,0.48569 0.91075,0.54645 0.88042,0.60719 0.75892,0.8196 0.69827,0.78934 0.54645,0.91076 0.42496,1.06256 0.45538,1.09291 0.21256,1.12321 0.0303,1.24464 -0.0303,1.24472 -0.21256,1.12332 -0.45538,1.09282 -0.42496,1.06256 -0.54645,0.94108 -0.69827,0.88041 -0.75892,0.75892 -0.88042,0.66786 -0.91075,0.45539 -1.03215,0.47053 c -0.42505,0.13657 -0.9715,0.22777 -2.0644,0.22777 z"
         stroke="#dddddd"
         stroke-width="0.201085"
         fill-opacity="0"
         id="path1043"
         style="fill:#000000;fill-opacity:0;stroke:#b8ffe5;stroke-width:2.38125;stroke-linecap:round;stroke-miterlimit:4;stroke-dasharray:none;stroke-opacity:1" />
      <path
         d="m 74.251626,280.122 v -7.91329 -4.05799 l -0.06065,-1.99342 -0.333968,-1.27503 -0.546451,-0.97151 -0.758929,-0.84999 c -0.303639,-0.2429 -0.667937,-0.42506 -1.153643,-0.51612 l -1.517941,-0.0909 -0.941079,0.0304 -0.850004,0.18217 -0.758929,0.36421 -0.698269,0.48578 -0.576778,0.4554 -0.54645,0.63752 -0.516118,0.57677 -0.364301,0.57678 -0.242893,0.69828 -0.318721,0.78934 c -0.106232,0.30355 -0.197317,0.66785 -0.197317,1.39637"
         stroke="#dddddd"
         stroke-width="0.201085"
         fill-opacity="0"
         id="path1045"
         style="fill:#000000;fill-opacity:0;stroke:#b8ffe5;stroke-width:2.38125;stroke-linecap:round;stroke-miterlimit:4;stroke-dasharray:none;stroke-opacity:1" />
      <path
         d="m 74.251626,268.64657 c 0,-0.72851 0.09108,-1.09281 0.197317,-1.39636 l 0.349134,-0.78934 0.364301,-0.69828 0.394628,-0.57678 0.485791,-0.57677 0.455372,-0.63752 0.667853,-0.4554 0.728601,-0.48578 0.728599,-0.36421 0.758929,-0.18217 1.001823,-0.0304 1.457197,0.0909 c 0.485704,0.0909 0.91075,0.27322 1.214305,0.51612 l 0.698268,0.84999 0.637525,0.97151 0.364298,1.27503 0.06075,1.99342 v 4.05799 7.91329"
         stroke="#dddddd"
         stroke-width="0.201085"
         fill-opacity="0"
         id="path1047"
         style="fill:#000000;fill-opacity:0;stroke:#b8ffe5;stroke-width:2.38125;stroke-linecap:round;stroke-miterlimit:4;stroke-dasharray:none;stroke-opacity:1" />
      <path
         d="m 135.63574,265.18581 c -0.72859,-0.91075 -1.27496,-1.27505 -1.70001,-1.54828 l -1.06256,-0.60719 -1.0929,-0.39463 -1.2143,-0.30362 -1.15356,-0.0606 -1.21439,0.0304 -1.12323,0.21256 -1.06257,0.48569 -0.94108,0.54645 -0.88042,0.60719 -0.78925,0.8196 -0.81968,0.78934 -0.57678,0.91076 -0.42504,1.06256 -0.45538,1.09291 -0.21247,1.12321 -0.0304,1.24464 0.0304,1.24472 0.21247,1.12332 0.45538,1.09282 0.42504,1.06256 0.57678,0.94108 0.81968,0.88041 0.78925,0.75892 0.88042,0.66786 0.94108,0.45539 1.06257,0.45545 1.12323,0.21257 1.21439,0.0304 1.15356,-0.0304 1.2143,-0.21257 1.0929,-0.48578 1.06256,-0.63753 c 0.42505,-0.27322 0.97142,-0.63753 1.70001,-1.54828"
         stroke="#dddddd"
         stroke-width="0.201085"
         fill-opacity="0"
         id="path1049"
         style="fill:#000000;fill-opacity:0;stroke:#b8ffe5;stroke-width:2.38125;stroke-linecap:round;stroke-miterlimit:4;stroke-dasharray:none;stroke-opacity:1" />
      <path
         d="m 146.20042,268.82882 c 0,-0.91076 0.091,-1.36614 0.19732,-1.74559 l 0.31872,-0.95634 0.2733,-0.75893 0.48572,-0.69826 0.54645,-0.5768 0.54644,-0.51611 0.57678,-0.39461 0.66785,-0.33397 0.6072,-0.21258 0.69827,-0.15176 0.72859,-0.0304 h 0.69819 l 0.6072,0.0304 0.69818,0.15176 0.69827,0.21258 0.57678,0.3643 0.54645,0.48569 0.51611,0.45545 0.39464,0.69819 0.36429,0.88042 0.33397,0.94108 0.18216,1.12322 0.0303,1.76084 v 3.58225 6.98235"
         stroke="#dddddd"
         stroke-width="0.201085"
         fill-opacity="0"
         id="path1051"
         style="fill:#000000;fill-opacity:0;stroke:#b8ffe5;stroke-width:2.38125;stroke-linecap:round;stroke-miterlimit:4;stroke-dasharray:none;stroke-opacity:1" />
      <path
         d="m 194.2877,280.122 v -7.79698 -4.03253 l -0.0607,-2.10486 -0.39464,-1.30536 -0.81967,-0.97151 -0.9715,-0.84999 c -0.3643,-0.2429 -0.78925,-0.42506 -1.30537,-0.51612 l -1.54828,-0.0909 -0.94108,0.0304 -0.81967,0.18217 -0.63752,0.36421 -0.69827,0.48578 -0.69819,0.4554 -0.57686,0.63752 -0.51604,0.6071 -0.3643,0.66793 -0.24289,0.60713 -0.31872,0.75901 c -0.10638,0.30355 -0.19732,0.66785 -0.19732,1.39637"
         stroke="#dddddd"
         stroke-width="0.201085"
         fill-opacity="0"
         id="path1053"
         style="fill:#000000;fill-opacity:0;stroke:#b8ffe5;stroke-width:2.38125;stroke-linecap:round;stroke-miterlimit:4;stroke-dasharray:none;stroke-opacity:1" />
      <path
         d="m 203.3951,270.83246 h 10.47361 c 2.27679,0 4.09829,0 5.00904,-0.18217 0.91075,-0.18217 0.91075,-0.54652 0.88042,-0.94115 l -0.18215,-1.18398 -0.3643,-1.00173 -0.51612,-1.03223 -0.57678,-0.91075 -0.69826,-0.75894 -0.75894,-0.72861 -0.88033,-0.66783 -0.94116,-0.45538 -1.06249,-0.45537 -1.0929,-0.21256 -1.09289,-0.0304 -1.0929,0.0304 -1.06256,0.21256 -0.97142,0.45537 -1.03223,0.45538 -0.91075,0.66783 -0.75893,0.75894 -0.69819,0.88042 -0.54644,0.94108 -0.42505,1.06257 -0.45537,1.09291 -0.21257,1.12321 -0.0303,1.24464 0.0303,1.24472 0.21257,1.12331 0.45537,1.09283 0.42505,1.06256 0.54644,0.94107 0.69819,0.88042 0.75893,0.75892 0.91075,0.66785 1.03223,0.4554 0.97142,0.45545 1.06256,0.21257 1.18398,0.0304 1.48753,-0.0606 1.33579,-0.3947 1.27504,-0.78934 1.33572,-0.91075 c 0.4857,-0.39464 1.03214,-0.94109 1.76074,-2.3983"
         stroke="#dddddd"
         stroke-width="0.201085"
         fill-opacity="0"
         id="path1055"
         style="fill:#000000;fill-opacity:0;stroke:#b8ffe5;stroke-width:2.38125;stroke-linecap:round;stroke-miterlimit:4;stroke-dasharray:none;stroke-opacity:1" />
      <path
         d="m 238.36767,264.63938 c -0.18213,-0.54648 -0.36429,-0.8197 -0.57676,-1.04734 l -0.72861,-0.5617 -0.88042,-0.39463 -0.94108,-0.30362 -1.0929,-0.0606 -1.18397,0.0606 -0.91075,0.36437 -0.63752,0.66786 -0.63752,0.78933 -0.36431,1.03216 -0.0606,1.00182 0.0303,0.63753 0.15174,0.51611 0.18224,0.39464 0.18213,0.3643 0.21248,0.33388 0.30355,0.21256 0.2429,0.18217 0.30355,0.18216 0.2429,0.18216 0.33388,0.18217 0.33397,0.18216 0.39463,0.25297 1.09289,0.5363 1.27506,0.6072 1.09289,0.50597 0.39472,0.13158 0.30356,0.15176 0.2428,0.18217 0.30364,0.18217 0.21249,0.18215 0.21247,0.21258 0.30364,0.3339 0.21247,0.36428 0.18214,0.36439 0.15181,0.39464 0.0303,0.54645 v 0.69819 l -0.0303,0.69825 -0.15181,0.57687 -0.18214,0.54637 -0.21247,0.54644 -0.33396,0.54645 -0.39464,0.51612 -0.51611,0.39463 -0.54645,0.36431 -0.57678,0.33387 -0.66786,0.21257 -0.63753,0.15177 -0.81967,0.0304 -0.75901,-0.0304 -0.69819,-0.15177 -0.57678,-0.18217 -0.54644,-0.21256 -0.51612,-0.33398 -0.39464,-0.3643 -0.36429,-0.39461 -0.3643,-0.48579 -0.33397,-0.42496 -0.27322,-0.56162 -0.48571,-0.86525"
         stroke="#dddddd"
         stroke-width="0.201085"
         fill-opacity="0"
         id="path1057"
         style="fill:#000000;fill-opacity:0;stroke:#b8ffe5;stroke-width:2.38125;stroke-linecap:round;stroke-miterlimit:4;stroke-dasharray:none;stroke-opacity:1" />
      <path
         d="m 58.528687,240.45804 c -1.092897,0 -1.548273,-0.0912 -1.958149,-0.22778 l -1.108065,-0.47053 -0.910749,-0.45536 -0.758929,-0.66786 -0.728597,-0.75894 -0.698269,-0.88043 -0.576779,-0.94107 -0.516118,-1.06256 -0.364301,-1.09289 -0.182069,-1.12325 -0.03043,-1.2447 0.03043,-1.24462 0.182069,-1.12332 0.364301,-1.09282 0.516118,-1.06256 0.576779,-0.91075 0.698269,-0.78937 0.728597,-0.81956 0.758929,-0.60721 0.910749,-0.54644 1.032154,-0.48579 0.971494,-0.21256 1.062566,-0.0304 1.0929,0.0304 1.062483,0.21256 0.941079,0.48579 0.91075,0.54644 0.880418,0.60721 0.75893,0.81956 0.698268,0.78937 0.546448,0.91075 0.425043,1.06256 0.455374,1.09282 0.212494,1.12332 0.03033,1.24462 -0.03033,1.2447 -0.212494,1.12325 -0.455374,1.09289 -0.425043,1.06256 -0.546448,0.94107 -0.698268,0.88043 -0.75893,0.75894 -0.880418,0.66786 -0.91075,0.45536 -1.032154,0.47053 c -0.42496,0.13657 -0.971408,0.22778 -2.064308,0.22778 z"
         stroke="#dddddd"
         stroke-width="0.201085"
         fill-opacity="0"
         id="path1061"
         style="fill:#000000;fill-opacity:0;stroke:#b8ffe5;stroke-width:2.38125;stroke-linecap:round;stroke-miterlimit:4;stroke-dasharray:none;stroke-opacity:1" />
      <path
         d="m 88.583222,240.45804 c -1.092897,0 -1.639348,-0.0912 -2.064391,-0.22778 l -1.032155,-0.47053 -0.910747,-0.45536 -0.880336,-0.66786 -0.759012,-0.75894 -0.698184,-0.88043 -0.546451,-0.94107 -0.425043,-1.06256 -0.455373,-1.09289 -0.212493,-1.12325 -0.03043,-1.2447 0.03043,-1.24462 0.212493,-1.12332 0.455373,-1.09282 0.425043,-1.06256 0.546451,-0.94108 0.698184,-0.88042 0.759012,-0.72861 0.880336,-0.57678 0.910747,-0.54644 0.941079,-0.48579 1.06257,-0.21256 1.092897,-0.0304 1.0929,0.0304 1.062482,0.21256 0.941162,0.48579 0.91075,0.54644 0.880333,0.57678 0.759015,0.72861 0.698183,0.88042 0.546449,0.94108 0.39463,1.06256 0.333971,1.09282 0.182139,1.12332 0.03033,1.24462 -0.03033,1.2447 -0.182139,1.12325 -0.333971,1.09289 -0.39463,1.06256 -0.546449,0.94107 -0.698183,0.88043 -0.759015,0.75894 -0.880333,0.66786 -0.91075,0.45536 -1.032237,0.47053 c -0.42496,0.13657 -0.971407,0.22778 -2.064307,0.22778 z"
         stroke="#dddddd"
         stroke-width="0.201085"
         fill-opacity="0"
         id="path1063"
         style="fill:#000000;fill-opacity:0;stroke:#b8ffe5;stroke-width:2.38125;stroke-linecap:round;stroke-miterlimit:4;stroke-dasharray:none;stroke-opacity:1" />
      <path
         d="m 187.12571,223.88248 h -2.73224 6.37523"
         stroke="#dddddd"
         stroke-width="0.201085"
         fill-opacity="0"
         id="path1065"
         style="fill:#000000;fill-opacity:0;stroke:#b8ffe5;stroke-width:2.38125;stroke-linecap:round;stroke-miterlimit:4;stroke-dasharray:none;stroke-opacity:1" />
      <path
         d="M 183.17664,262.63571 V 280.122"
         stroke="#dddddd"
         stroke-width="0.201085"
         fill-opacity="0"
         id="path1067"
         style="fill:#000000;fill-opacity:0;stroke:#b8ffe5;stroke-width:2.38125;stroke-linecap:round;stroke-miterlimit:4;stroke-dasharray:none;stroke-opacity:1" />
      <path
         d="m 169.8798,255.53196 v 1.8215"
         stroke="#dddddd"
         stroke-width="0.201085"
         fill-opacity="0"
         id="path1069"
         style="fill:#000000;fill-opacity:0;stroke:#b8ffe5;stroke-width:2.38125;stroke-linecap:round;stroke-miterlimit:4;stroke-dasharray:none;stroke-opacity:1" />
      <path
         d="M 169.8798,262.81787 V 280.122"
         stroke="#dddddd"
         stroke-width="0.201085"
         fill-opacity="0"
         id="path1071"
         style="fill:#000000;fill-opacity:0;stroke:#b8ffe5;stroke-width:2.38125;stroke-linecap:round;stroke-miterlimit:4;stroke-dasharray:none;stroke-opacity:1" />
      <path
         d="M 146.20042,247.88167 V 280.122"
         stroke="#dddddd"
         stroke-width="0.201085"
         fill-opacity="0"
         id="path1073"
         style="fill:#000000;fill-opacity:0;stroke:#b8ffe5;stroke-width:2.38125;stroke-linecap:round;stroke-miterlimit:4;stroke-dasharray:none;stroke-opacity:1" />
      <path
         d="m 110.13495,262.45357 v 17.48629"
         stroke="#dddddd"
         stroke-width="0.201085"
         fill-opacity="0"
         id="path1075"
         style="fill:#000000;fill-opacity:0;stroke:#b8ffe5;stroke-width:2.38125;stroke-linecap:round;stroke-miterlimit:4;stroke-dasharray:none;stroke-opacity:1" />
      <path
         d="M 63.869177,262.63571 V 280.122"
         stroke="#dddddd"
         stroke-width="0.201085"
         fill-opacity="0"
         id="path1077"
         style="fill:#000000;fill-opacity:0;stroke:#b8ffe5;stroke-width:2.38125;stroke-linecap:round;stroke-miterlimit:4;stroke-dasharray:none;stroke-opacity:1" />
      <path
         d="m 256.16013,208.21769 v 32.24035"
         stroke="#dddddd"
         stroke-width="0.201085"
         fill-opacity="0"
         id="path1079"
         style="fill:#000000;fill-opacity:0;stroke:#b8ffe5;stroke-width:2.38125;stroke-linecap:round;stroke-miterlimit:4;stroke-dasharray:none;stroke-opacity:1" />
      <path
         d="m 229.38419,208.03555 v 32.24032"
         stroke="#dddddd"
         stroke-width="0.201085"
         fill-opacity="0"
         id="path1081"
         style="fill:#000000;fill-opacity:0;stroke:#b8ffe5;stroke-width:2.38125;stroke-linecap:round;stroke-miterlimit:4;stroke-dasharray:none;stroke-opacity:1" />
      <path
         d="m 215.35876,222.7896 v 17.48627"
         stroke="#dddddd"
         stroke-width="0.201085"
         fill-opacity="0"
         id="path1083"
         style="fill:#000000;fill-opacity:0;stroke:#b8ffe5;stroke-width:2.38125;stroke-linecap:round;stroke-miterlimit:4;stroke-dasharray:none;stroke-opacity:1" />
      <path
         d="m 172.00737,222.7896 v 17.48627"
         stroke="#dddddd"
         stroke-width="0.201085"
         fill-opacity="0"
         id="path1085"
         style="fill:#000000;fill-opacity:0;stroke:#b8ffe5;stroke-width:2.38125;stroke-linecap:round;stroke-miterlimit:4;stroke-dasharray:none;stroke-opacity:1" />
      <path
         d="m 124.10225,215.86798 v 1.82142"
         stroke="#dddddd"
         stroke-width="0.201085"
         fill-opacity="0"
         id="path1087"
         style="fill:#000000;fill-opacity:0;stroke:#b8ffe5;stroke-width:2.38125;stroke-linecap:round;stroke-miterlimit:4;stroke-dasharray:none;stroke-opacity:1" />
      <path
         d="m 124.10225,223.15388 v 17.30416"
         stroke="#dddddd"
         stroke-width="0.201085"
         fill-opacity="0"
         id="path1089"
         style="fill:#000000;fill-opacity:0;stroke:#b8ffe5;stroke-width:2.38125;stroke-linecap:round;stroke-miterlimit:4;stroke-dasharray:none;stroke-opacity:1" />
      <path
         d="m 107.34456,222.97173 v 17.48631"
         stroke="#dddddd"
         stroke-width="0.201085"
         fill-opacity="0"
         id="path1091"
         style="fill:#000000;fill-opacity:0;stroke:#b8ffe5;stroke-width:2.38125;stroke-linecap:round;stroke-miterlimit:4;stroke-dasharray:none;stroke-opacity:1" />
      <path
         d="m 80.56872,208.03555 v 32.24032"
         stroke="#dddddd"
         stroke-width="0.201085"
         fill-opacity="0"
         id="path1093"
         style="fill:#000000;fill-opacity:0;stroke:#b8ffe5;stroke-width:2.38125;stroke-linecap:round;stroke-miterlimit:4;stroke-dasharray:none;stroke-opacity:1" />
      <path
         d="m 66.543192,222.7896 v 17.48627"
         stroke="#dddddd"
         stroke-width="0.201085"
         fill-opacity="0"
         id="path1095"
         style="fill:#000000;fill-opacity:0;stroke:#b8ffe5;stroke-width:2.38125;stroke-linecap:round;stroke-miterlimit:4;stroke-dasharray:none;stroke-opacity:1" />
      <path
         d="m 41.953149,223.88248 h -7.10384"
         stroke="#dddddd"
         stroke-width="0.201085"
         fill-opacity="0"
         id="path1097"
         style="fill:#000000;fill-opacity:0;stroke:#b8ffe5;stroke-width:2.38125;stroke-linecap:round;stroke-miterlimit:4;stroke-dasharray:none;stroke-opacity:1" />
      <path
         d="m 187.12571,217.14303 v 23.31501"
         stroke="#dddddd"
         stroke-width="0.201085"
         fill-opacity="0"
         id="path1099"
         style="fill:#000000;fill-opacity:0;stroke:#b8ffe5;stroke-width:2.38125;stroke-linecap:round;stroke-miterlimit:4;stroke-dasharray:none;stroke-opacity:1" />
    </g>
  </g>
</svg>
