<?xml version="1.0" encoding="UTF-8" standalone="no"?>
<!-- Created with Inkscape (http://www.inkscape.org/) -->

<svg
   version="1.1"
   id="svg148"
   width="2500"
   height="2500"
   viewBox="0 0 2500 2500"
   sodipodi:docname="avatatar-logo-outlines-for-extrusion.svg"
   inkscape:version="1.2 (dc2aedaf03, 2022-05-15)"
   xmlns:inkscape="http://www.inkscape.org/namespaces/inkscape"
   xmlns:sodipodi="http://sodipodi.sourceforge.net/DTD/sodipodi-0.dtd"
   xmlns="http://www.w3.org/2000/svg"
   xmlns:svg="http://www.w3.org/2000/svg">
  <defs
     id="defs152" />
  <sodipodi:namedview
     id="namedview150"
     pagecolor="#ffffff"
     bordercolor="#999999"
     borderopacity="1"
     inkscape:showpageshadow="0"
     inkscape:pageopacity="0"
     inkscape:pagecheckerboard="0"
     inkscape:deskcolor="#d1d1d1"
     showgrid="false"
     inkscape:zoom="1.6432"
     inkscape:cx="1145.9348"
     inkscape:cy="1886.8671"
     inkscape:window-width="3840"
     inkscape:window-height="2093"
     inkscape:window-x="3831"
     inkscape:window-y="-9"
     inkscape:window-maximized="1"
     inkscape:current-layer="g154" />
  <g
     inkscape:groupmode="layer"
     inkscape:label="Image"
     id="g154">
    <path
       style="fill:none;stroke:#000000;stroke-opacity:1"
       d="m 864.67162,1522.5044 c 36.41662,-5.9063 67.47495,-26.955 86.56643,-58.6675 6.89329,-11.4502 9.76759,-18.706 19.14818,-48.3369 9.22171,-29.129 11.61336,-35.5594 17.83381,-47.9494 11.77362,-23.4509 25.63826,-35.8314 46.05036,-41.1207 14.015,-3.6316 35.1824,-2.4119 54.4634,3.1385 5.0785,1.4619 9.8925,2.4052 10.6977,2.0963 2.1251,-0.8155 1.9228,-0.3562 30.9514,-70.2777 28.5114,-68.6758 28.9802,-70.1131 24.6589,-75.6067 -1.077,-1.3692 -7.8547,-6.4172 -15.0616,-11.2178 -37.9552,-25.2822 -65.7156,-57.0659 -80.0076,-91.6028 -4.0151,-9.7024 -9.6175,-31.1882 -10.9342,-41.9335 -3.0362,-24.777 0.9173,-60.20781 9.5581,-85.65864 2.6664,-7.85379 12.0268,-28.11719 16.3493,-35.39307 12.9582,-21.81183 33.7751,-43.24559 55.6782,-57.32801 45.094,-28.99291 103.7354,-36.29212 156.3139,-19.45668 12.5867,4.0302 35.618,15.1979 45.2366,21.9349 39.9792,28.00186 66.3275,69.37263 75.4014,118.39169 6.1854,33.41441 3.4206,66.85351 -7.9652,96.33491 -4.6775,12.1116 -8.3643,19.1487 -16.9272,32.3091 -16.1586,24.8342 -35.9596,43.9738 -66.9185,64.6832 -11.7928,7.8886 -14.2759,10.7175 -14.1142,16.0796 0.067,2.223 10.3347,28.1799 27.1266,68.5768 31.7863,76.4693 29.072,70.3174 31.3423,71.038 0.9989,0.317 6.018,-0.7695 11.1536,-2.4146 9.7343,-3.1182 27.957,-6.1234 37.1301,-6.1234 2.934,0 9.3311,0.6789 14.2156,1.5087 23.4398,3.9821 40.5928,19.5378 53.541,48.5553 4.4919,10.0664 7.748,19.5192 19.395,56.3048 11.577,36.5644 30.494,61.1185 59.945,77.8081 10.0418,5.6906 19.1864,9.3337 31.4264,12.5198 11.9621,3.1138 33.9175,4.2164 46.9502,2.3579 61.6456,-8.7909 107.1234,-60.9867 107.1234,-122.9478 0,-53.1706 -32.1617,-99.2624 -82,-117.5167 -5.225,-1.9138 -18.5,-6.266 -29.5,-9.6716 -33.5756,-10.3949 -47.2194,-16.3902 -61.6494,-27.0893 -25.1092,-18.6174 -32.5072,-47.1415 -22.3579,-86.204 4.5939,-17.6811 14.0777,-34.5379 27.5441,-48.9575 16.5339,-17.7044 32.7162,-24.7073 53.892,-23.3218 19.0417,1.2458 33.96,6.6569 69.0712,25.0532 33.7179,17.6662 37.3315,19.1593 56,23.1391 13.8842,2.9598 33.0262,3.3401 46.1395,0.9168 44.8503,-8.2884 81.4002,-39.6506 96.1874,-82.5352 12.31,-35.7003 7.4904,-75.52894 -13.0307,-107.68443 -11.9082,-18.65964 -31.5016,-35.85691 -51.4854,-45.18921 -16.7791,-7.83571 -28.3791,-10.66677 -47.8108,-11.6685 -24.4299,-1.2594 -44.2982,3.86613 -72.9848,18.82829 -31.678,16.52235 -35.396,18.32396 -47.5152,23.0238 -18.9522,7.34971 -23.056,8.21418 -39,8.21546 -12.9402,10e-4 -14.528,-0.20801 -20.974,-2.76155 -13.4787,-5.33941 -22.9664,-12.62269 -33.203,-25.48844 -14.5701,-18.31215 -19.9334,-29.4709 -24.4562,-50.88269 -2.7165,-12.86067 -3.1795,-33.45824 -0.95,-42.26635 3.3717,-13.32051 12.0575,-26.68767 22.8979,-35.23881 10.5081,-8.28911 30.1764,-17.68776 50.7787,-24.26505 9.8486,-3.14416 24.2066,-7.74176 31.9066,-10.21688 17.421,-5.59989 31.572,-12.50271 42.6032,-20.78175 31.5038,-23.64395 49.9063,-60.31595 49.8928,-99.42468 -0.018,-53.22596 -32.5409,-99.8476 -82.1303,-117.73549 -10.9889,-3.96392 -29.9463,-7.33427 -41.3657,-7.35424 -47.5978,-0.0832 -89.4483,25.72203 -112.3678,69.28678 -2.3933,4.549 -7.2718,17.7158 -11.6713,31.5 -10.8114,33.87358 -13.1557,40.45304 -18.4358,51.74142 -9.3008,19.88446 -20.1408,32.57716 -34.0752,39.89953 -10.2172,5.36897 -15.097,6.56025 -29.4499,7.18943 -11.5162,0.50483 -14.4838,0.26764 -26,-2.07812 -19.6311,-3.99868 -28.9513,-7.95429 -44.2808,-18.79325 -12.4806,-8.82457 -16.5392,-12.36741 -22.2955,-19.46219 -12.7956,-15.77082 -17.2094,-33.80942 -13.4708,-55.05307 2.2935,-13.03232 6.966,-25.18327 18.3654,-47.75981 22.8667,-45.28738 22.9639,-45.50338 26.7726,-59.5 3.2568,-11.96815 3.7273,-15.20206 4.1471,-28.5 0.5432,-17.20755 -0.9638,-28.40922 -5.7395,-42.6638 -11.5135,-34.36555 -36.3906,-61.38224 -69.7623,-75.7622 -38.5494,-16.61108 -82.5941,-12.35799 -118.2362,11.41726 -9.9821,6.65861 -22.8741,18.90071 -30.5487,29.00874 -7.2972,9.61093 -17.8901,32.18869 -21.1128,45 -2.4948,9.91771 -2.7682,12.72182 -2.7783,28.5 -0.018,28.68388 2.0794,35.67765 22.9478,76.5 18.6471,36.47723 22.8999,46.69496 26.014,62.5 5.3391,27.09868 -3.6591,50.85281 -26.1266,68.97054 -17.6009,14.19338 -30.9939,20.81641 -51.8954,25.66313 -11.2607,2.61118 -36.4604,2.62041 -45,0.0165 -21.1676,-6.45452 -36.75926,-22.36733 -48.44421,-49.44213 -3.71837,-8.6157 -8.09972,-21.50551 -17.9702,-52.86778 -10.22204,-32.47931 -24.66568,-54.07682 -47.58559,-71.15453 -8.1254,-6.05426 -32.17104,-17.52431 -42,-20.03449 -37.10995,-9.47735 -76.00579,-1.93171 -106.42106,20.64527 C 716.01708,567.92613 704.04965,644.19022 743.0566,700 c 10.09022,14.43673 28.10785,29.96634 44.4434,38.3063 9.86378,5.03586 14.16067,6.60532 42.75455,15.61635 36.61146,11.53767 50.74832,17.81077 64.74545,28.73015 22.81228,17.79623 30.23106,46.58068 21.35268,82.8472 -6.46355,26.40239 -25.73868,54.04711 -45.96059,65.91748 -10.45787,6.13882 -15.74324,7.65066 -28.89209,8.26433 -20.75856,0.96883 -33.06233,-3.02687 -75.48518,-24.51414 -46.37433,-23.48871 -53.21294,-25.63449 -81.51482,-25.5773 -16.89543,0.0341 -18.70569,0.22563 -29.5,3.12061 -23.14833,6.20825 -40.30774,15.72803 -56.38553,31.28183 -24.01387,23.23123 -36.6271,51.21963 -38.30928,85.00719 -1.56724,31.479 9.22783,61.7795 30.74865,86.3079 12.48814,14.2333 22.17296,21.7751 38.44616,29.9387 18.69172,9.3769 37.6747,13.327 59.98913,12.483 23.15525,-0.8759 35.30989,-4.5381 63.51087,-19.1358 42.26731,-21.8789 53.86465,-26.7838 71.02563,-30.0392 24.57732,-4.6622 44.73469,1.9602 62.5614,20.5536 17.92626,18.6972 28.27317,39.3751 31.96843,63.8876 4.34399,28.8159 -0.75087,48.8703 -16.49555,64.9299 -15.53687,15.8476 -28.50794,21.922 -84.55991,39.5996 -20.6587,6.5153 -30.9422,11.1274 -42.69111,19.1466 -17.53788,11.9706 -26.79831,21.9872 -37.91687,41.0129 -25.18833,43.1013 -21.84093,97.0827 8.51959,137.3899 17.99647,23.8924 44.94865,40.7307 75.08839,46.9112 11.31264,2.3198 31.59759,2.5579 44.17162,0.5185 z"
       id="path954" />
    <path
       style="fill:none;stroke:#000000;stroke-opacity:1"
       d="m 1012.0327,1724.4831 c 4.7235,-2.4426 5.9673,-6.0868 5.9673,-17.4831 0,-11.3963 -1.2438,-15.0405 -5.9673,-17.4831 -6.9659,-3.6022 -14.91889,-0.1879 -16.99787,7.2974 -1.36613,4.9187 -1.21303,16.8406 0.27161,21.1511 1.40999,4.0937 6.75196,8.0346 10.89106,8.0346 1.596,0 4.2219,-0.6826 5.8352,-1.5169 z"
       id="path952" />
    <path
       style="fill:none;stroke:#000000;stroke-opacity:1"
       d="m 2139,1807.2196 c 0,-0.4292 1.5914,-4.5538 3.5365,-9.1657 6.313,-14.9687 12.7149,-21.8643 26.406,-28.4423 L 2177.5,1765.5 h 12.5 c 12.3522,0 12.5923,0.044 20.3072,3.7114 11.2796,5.362 20.4027,14.4364 26.2428,26.1026 7.1007,14.1843 12.5987,12.686 -46.55,12.686 -28.05,0 -51,-0.3512 -51,-0.7804 z"
       id="path950" />
    <path
       style="fill:none;stroke:#000000;stroke-opacity:1"
       d="m 2210.2426,1902.9277 c 8.9931,-2.6782 24.6124,-12.1263 33.6386,-20.3479 4.1819,-3.8092 12.5636,-16.3676 14.1675,-21.2273 2.5422,-7.7031 -2.8552,-15.3397 -10.8484,-15.3488 -5.4115,-0.01 -8.7197,2.4447 -12.5534,9.3001 -4.2261,7.5569 -9.4852,12.6132 -19.6469,18.8892 -10.2371,6.3225 -13.5098,7.118 -27.098,6.5865 -10.3574,-0.4051 -12.0433,-0.7505 -18.402,-3.7705 -8.6955,-4.1298 -14.4211,-8.6659 -19.6054,-15.5324 -4.1324,-5.4733 -10.2877,-18.8202 -11.8156,-25.6205 l -0.8664,-3.8561 50.6437,-0.02 c 27.854,-0.011 53.701,-0.4619 57.4378,-1.0022 15.2101,-2.1992 21.8426,-9.6848 20.2114,-22.8108 -2.046,-16.4637 -10.2569,-32.2287 -23.6509,-45.41 -7.7624,-7.6392 -10.3021,-9.4312 -20.1192,-14.1964 -12.6767,-6.1532 -18.7996,-7.5674 -32.6691,-7.546 -12.2288,0.019 -19.2959,1.7244 -31.6341,7.6346 -8.571,4.1056 -11.1798,5.9974 -19.0353,13.8041 -5.7647,5.7289 -10.4123,11.4303 -12.6731,15.5465 -4.8995,8.9204 -10.4122,23.2908 -11.6749,30.4337 -1.4758,8.3484 -1.3033,22.0894 0.3858,30.7283 1.4495,7.4135 7.4237,22.5079 11.9969,30.3114 7.3238,12.4971 18.0631,22.0437 32.2775,28.6925 12.0785,5.6498 16.7772,6.6507 31.6831,6.7491 10.3164,0.068 14.2824,-0.329 19.8504,-1.9873 z"
       id="path948" />
    <path
       style="fill:none;stroke:#000000;stroke-opacity:1"
       d="m 2052.0327,1903.4831 c 6.3441,-3.2807 5.9673,5.3696 5.9673,-136.9831 0,-140.3644 0.2771,-133.0912 -5.2168,-136.9393 -2.7996,-1.9609 -9.0096,-2.0121 -12.698,-0.1048 -6.492,3.3572 -6.1345,-5.1157 -5.8463,138.5455 l 0.2611,130.1525 3.7353,3.423 c 4.2213,3.8684 8.7839,4.4988 13.7974,1.9062 z"
       id="path946" />
    <path
       style="fill:none;stroke:#000000;stroke-opacity:1"
       d="m 1879.0664,1876.9728 c -9.8971,-4.7862 -18.5498,-12.9946 -22.9219,-21.745 -10.8251,-21.6658 -11.7647,-37.5724 -3.3664,-56.9892 6.4544,-14.9225 12.8031,-21.6642 27.4948,-29.197 7.7111,-3.9537 8.1077,-4.0416 18.2271,-4.0416 10.2028,0 10.4579,0.058 18.6347,4.25 9.2068,4.7198 18.6614,12.8396 22.4217,19.256 1.3556,2.3131 3.6409,7.5331 5.0784,11.5999 3.5464,10.0326 4.4403,28.5128 1.8961,39.1965 -4.2811,17.9775 -13.8645,30.5458 -28.7977,37.7673 -7.9612,3.8499 -8.3545,3.9303 -19.2332,3.9303 -10.924,0 -11.2421,-0.066 -19.4336,-4.0272 z"
       id="path944" />
    <path
       style="fill:none;stroke:#000000;stroke-opacity:1"
       d="m 1915.2788,1903.5156 c 10.3243,-2.6891 23.0591,-9.8924 31.2582,-17.6807 12.9549,-12.3059 20.1652,-25.7952 24.0586,-45.0097 2.2603,-11.1552 1.4769,-32.0914 -1.6024,-42.8252 -6.2394,-21.7495 -17.239,-36.095 -36.3797,-47.4458 -7.6335,-4.5269 -12.9215,-6.9188 -17.6974,-8.0051 -9.0773,-2.0646 -25.5425,-1.9281 -33.9161,0.2811 -7.1703,1.8917 -23.8843,11.2636 -30.0956,16.8751 l -3.9044,3.5274 v -64.212 c 0,-71.4996 0.3115,-68.2214 -6.8033,-71.5976 -6.4503,-3.0609 -14.2471,0.4969 -16.1567,7.3724 -1.423,5.1237 -1.423,255.2853 0,260.409 1.9096,6.8755 9.7064,10.4333 16.1567,7.3724 4.8571,-2.3049 6.8033,-6.19 6.8033,-13.5815 v -6.1961 l 5.6545,5.1679 c 6.1969,5.6636 20.9541,13.6538 28.8455,15.6181 7.1546,1.7809 26.8296,1.7403 33.7788,-0.07 z"
       id="path942" />
    <path
       style="fill:none;stroke:#000000;stroke-opacity:1"
       d="m 1643.5,1877.1263 c -5.6918,-2.7169 -9.4664,-5.3815 -13.0823,-9.2353 -12.1231,-12.9207 -17.3675,-24.7415 -18.1416,-40.891 -0.643,-13.4142 0.6855,-20.4358 5.8527,-30.9348 5.2039,-10.5736 17.0989,-23.0241 26.3712,-27.6025 5.6434,-2.7866 6.7146,-2.9627 18.023,-2.9627 h 12.0231 l 7.4261,4.413 c 13.5427,8.0477 20.3594,15.874 26.6414,30.587 3.8231,8.954 3.8427,9.069 3.8415,22.5 0,13.3911 -0.032,13.5752 -3.8616,22.8213 -6.6831,16.1368 -14.344,24.7121 -27.9593,31.2962 -7.7893,3.7669 -8.3427,3.8817 -18.5813,3.855 -10.1386,-0.027 -10.867,-0.1775 -18.5529,-3.8462 z"
       id="path940" />
    <path
       style="fill:none;stroke:#000000;stroke-opacity:1"
       d="m 1677.7772,1903.9659 c 6.9881,-1.6121 22.2763,-9.4843 28.8593,-14.8602 l 6.1364,-5.0113 0.4099,6.4362 c 0.3453,5.4239 0.8626,6.9088 3.2886,9.4411 5.5263,5.7681 14.3067,4.7223 18.5317,-2.2073 1.9365,-3.1761 1.9895,-5.1509 1.9916,-74.2629 0,-79.9576 0.3585,-76.119 -7.4111,-79.9118 -3.5564,-1.7361 -4.2887,-1.7821 -7.9674,-0.5 -5.8764,2.048 -8.6162,6.5811 -8.6162,14.2559 v 6.0482 l -3.25,-3.0949 c -3.7244,-3.5467 -14.8909,-10.85 -22.2902,-14.5786 -6.4075,-3.2289 -14.4887,-4.7188 -25.5942,-4.7188 -11.06,0 -17.4982,1.3624 -26.4802,5.6033 -23.8408,11.2568 -42.1053,35.917 -46.4147,62.6679 -1.5267,9.4766 -0.7786,26.5924 1.5616,35.7288 5.4919,21.4412 23.9282,45.298 41.0778,53.1552 12.5713,5.7596 16.8789,6.7348 29.8899,6.7666 6.6,0.016 13.9247,-0.4147 16.2772,-0.9574 z"
       id="path938" />
    <path
       style="fill:none;stroke:#000000;stroke-opacity:1"
       d="m 1510.0373,1902.2515 c 1.8348,-1.6441 3.4401,-4.3585 3.9919,-6.75 0.5077,-2.2 0.9338,-30.1715 0.9469,-62.159 l 0.024,-58.159 10.5788,-0.341 10.5788,-0.341 3.4212,-3.7353 c 3.8664,-4.2214 4.4963,-8.7851 1.9043,-13.7974 -2.4092,-4.6589 -6.1222,-5.9673 -16.9334,-5.9673 h -9.5497 l -0.024,-19.75 c -0.026,-21.8075 -0.6789,-26.4074 -4.2537,-29.9822 -3.1783,-3.1782 -9.354,-4.0268 -13.5427,-1.8607 -5.7295,2.9628 -6.1797,5.1072 -6.1797,29.4339 v 21.9404 l -7.5002,0.3787 c -6.7964,0.3432 -7.7887,0.6672 -10.5742,3.4527 -6.0412,6.0413 -4.2258,15.6925 3.5642,18.9474 1.8953,0.7919 5.9354,1.4398 8.9781,1.4398 H 1491 v 61.6 61.6 l 3.4,3.4 c 2.8778,2.8778 4.1041,3.4 7.9842,3.4 3.5904,0 5.2496,-0.5962 7.6531,-2.75 z"
       id="path936" />
    <path
       style="fill:none;stroke:#000000;stroke-opacity:1"
       d="m 1303.2617,1877.8782 c -11.6685,-4.9318 -23.4959,-18.5248 -29.4017,-33.7905 -2.695,-6.9664 -3.7341,-26.5585 -1.8818,-35.481 2.9966,-14.4346 15.8666,-31.4967 29.5399,-39.162 6.6951,-3.7532 7.418,-3.9292 17.598,-4.2846 9.2022,-0.3213 11.2665,-0.083 15.5,1.7856 14.8279,6.5468 25.5319,17.2283 31.9507,31.8839 3.6947,8.4356 3.8092,9.054 4.2046,22.6929 l 0.4064,14.021 -3.737,9.3369 c -6.8861,17.2047 -14.4484,25.8482 -28.5116,32.5878 -7.0202,3.3644 -7.8762,3.5318 -17.901,3.5014 -9.4597,-0.029 -11.2628,-0.3425 -17.7665,-3.0914 z"
       id="path934" />
    <path
       style="fill:none;stroke:#000000;stroke-opacity:1"
       d="m 1337.2788,1903.5171 c 8.3157,-2.166 22.5098,-9.6209 28.3984,-14.9153 2.8142,-2.5302 5.388,-4.6003 5.7197,-4.6003 0.3317,0 0.6031,2.4973 0.6031,5.5497 0,6.9628 1.8967,10.6988 6.5532,12.9085 4.8527,2.3028 9.917,1.3205 13.6179,-2.6414 l 2.8289,-3.0283 0.201,-31.6443 c 0.3997,-62.9179 -0.3681,-114.4612 -1.7456,-117.1796 -1.7345,-3.4228 -5.8315,-5.4471 -10.7627,-5.3178 -3.3371,0.088 -4.6803,0.7632 -7.3858,3.7154 -3.0349,3.3116 -3.3069,4.1444 -3.3069,10.1231 0,6.1759 -1.2784,8.5589 -2.66,4.9584 -0.6363,-1.6583 -11.2087,-9.0321 -20.4077,-14.2336 -3.0622,-1.7316 -8.4622,-3.8305 -12,-4.6644 -8.4592,-1.9939 -24.4639,-1.9774 -32.288,0.033 -23.3826,6.0091 -46.1477,29.3041 -54.6491,55.921 -3.0716,9.6168 -3.8859,30.5149 -1.6496,42.3362 2.9619,15.6574 11.9337,31.6696 25.1744,44.9292 7.0354,7.0454 9.6769,8.9304 17.8976,12.772 5.3042,2.4786 11.3176,4.9015 13.3632,5.3842 6.2639,1.4779 26.2225,1.2286 32.498,-0.406 z"
       id="path932" />
    <path
       style="fill:none;stroke:#000000;stroke-opacity:1"
       d="m 1170.985,1903.4431 c 7.1906,-1.6947 20.8026,-8.546 28.2948,-14.2415 2.6773,-2.0353 6.8596,-6.1147 9.294,-9.0654 3.7796,-4.5811 4.4262,-6.0201 4.4262,-9.85 0,-3.7674 -0.5441,-5.0292 -3.4,-7.8851 -2.8833,-2.8833 -4.1006,-3.4 -8.0099,-3.4 -4.3011,0 -5.1005,0.4521 -11.9347,6.75 -4.0287,3.7125 -10.6617,8.55 -14.7401,10.75 l -7.4153,4 -15,-0.01 c -14.6964,-0.01 -15.1316,-0.072 -21.5,-3.1065 -13.8704,-6.609 -23.5005,-17.1222 -29.6637,-32.3841 -3.745,-9.2739 -3.8357,-9.7975 -3.8121,-22 0.023,-11.8236 0.2069,-12.96 3.3993,-21 6.2735,-15.7992 14.9591,-25.0273 31.2469,-33.1981 5.4237,-2.7209 7.6748,-3.2382 15.7286,-3.6144 16.8146,-0.7855 30.4782,4.223 41.7969,15.3212 7.0742,6.9364 9.8272,8.1338 14.8721,6.4689 5.0382,-1.6628 8.432,-6.2408 8.432,-11.3743 0,-3.4529 -0.6985,-5.0646 -3.75,-8.6524 -8.6964,-10.2247 -19.7272,-17.4966 -33.5551,-22.1206 -15.6109,-5.2202 -37.083,-5.0404 -49.5761,0.4152 -10.0678,4.3965 -18.9776,10.4985 -27.8209,19.0536 -10.9683,10.6108 -13.8018,14.812 -19.2517,28.5449 -7.9227,19.9636 -7.8992,40.7838 0.068,60.5746 5.816,14.4465 9.6476,20.1614 20.4272,30.4668 7.8613,7.5154 11.1891,9.9112 18.9221,13.6227 5.1608,2.4769 12.0052,5.1384 15.2098,5.9144 8.0353,1.9457 29.092,1.9567 37.3115,0.02 z"
       id="path930" />
    <path
       style="fill:none;stroke:#000000;stroke-opacity:1"
       d="m 1014.2342,1902.0834 3.2658,-2.9176 0.3015,-72.3324 c 0.2759,-66.175 0.1585,-72.6045 -1.3791,-75.5296 -4.7293,-8.9974 -18.64164,-7.3754 -21.38238,2.4928 -1.40222,5.0488 -1.40704,137.3429 -0.005,142.3902 2.39048,8.6068 12.64178,11.7553 19.19938,5.8966 z"
       id="path928" />
    <path
       style="fill:none;stroke:#000000;stroke-opacity:1"
       d="m 882.23422,1902.0834 3.26578,-2.9166 0.54801,-50.3334 c 0.61025,-56.0492 0.31087,-53.5814 7.84604,-64.6774 7.33404,-10.7998 14.39472,-15.081 26.74551,-16.2167 C 932.3936,1766.8585 936,1763.786 936,1754.8529 c 0,-3.3079 -0.65124,-4.7041 -3.54304,-7.5959 l -3.54304,-3.5431 -9.70696,0.5483 c -10.78009,0.6089 -17.33413,2.6359 -26.63836,8.2387 -3.196,1.9245 -5.98139,3.4991 -6.18975,3.4991 -0.20837,0 -0.37885,-1.1179 -0.37885,-2.4842 0,-1.3663 -1.26423,-3.8992 -2.80939,-5.6285 -2.25357,-2.5222 -3.79585,-3.239 -7.79543,-3.6234 -4.32933,-0.4159 -5.40426,-0.1271 -8.16136,2.1928 -1.74642,1.4695 -3.63596,4.3304 -4.19899,6.3576 -1.39763,5.0321 -1.39763,138.3393 0,143.3714 2.39028,8.6061 12.64092,11.7549 19.19939,5.8977 z"
       id="path926" />
    <path
       style="fill:none;stroke:#000000;stroke-opacity:1"
       d="m 709.16612,1877.9777 c -13.85506,-6.4104 -21.44442,-14.466 -28.35504,-30.0971 -4.07375,-9.2144 -4.15473,-9.6207 -4.57055,-22.9317 l -0.42332,-13.551 3.64847,-9.449 c 6.37271,-16.5043 12.31949,-23.5105 27.11789,-31.9489 l 7.89164,-4.5 h 12.09093 c 11.45285,0 12.37705,0.154 17.5124,2.9175 16.7092,8.9917 22.73806,15.4605 28.5155,30.5962 2.73006,7.1522 2.85665,8.2227 2.83622,23.9863 -0.0198,15.3079 -0.212,17.0224 -2.65982,23.7311 -5.28941,14.4966 -13.59008,23.7681 -27.21754,30.4009 -7.79188,3.7924 -8.163,3.8671 -19,3.8221 -10.06281,-0.042 -11.62027,-0.3084 -17.38678,-2.9764 z"
       id="path924" />
    <path
       style="fill:none;stroke:#000000;stroke-opacity:1"
       d="m 742.02452,1903.9013 c 7.25846,-1.5566 20.52813,-7.9127 26.98386,-12.9251 14.35385,-11.1446 22.61234,-23.8575 28.56758,-43.9762 1.59478,-5.3877 1.91775,-9.5803 1.88726,-24.5 -0.0361,-17.6709 -0.0975,-18.1828 -3.36052,-28 -4.3429,-13.0663 -8.72306,-20.7664 -16.73604,-29.4211 -5.9822,-6.4614 -16.28043,-13.8346 -27.36666,-19.5938 -5.38393,-2.7969 -14.52649,-4.4113 -25.20078,-4.45 -11.80274,-0.043 -18.41413,1.2704 -26.29922,5.2234 -7.24869,3.6339 -20.85077,12.2543 -22.53149,14.2794 -0.66737,0.8042 -1.6083,1.4621 -2.09095,1.4621 C 675.38323,1762 675,1733.8787 675,1697.6058 v -64.3943 l -2.8289,-3.0283 c -5.3525,-5.7299 -15.2892,-4.7231 -18.71203,1.896 -2.21029,4.2742 -2.23463,261.5203 -0.0252,265.793 3.44658,6.665 13.36605,7.6945 18.73718,1.9446 2.49452,-2.6704 2.8289,-3.7841 2.8289,-9.4226 0,-3.5168 0.26489,-6.3942 0.58865,-6.3942 0.32375,0 2.91125,2.0554 5.75,4.5675 5.46998,4.8407 22.45822,13.758 29.16135,15.3072 5.68037,1.3127 25.44955,1.3295 31.52452,0.027 z"
       id="path922" />
    <path
       style="fill:none;stroke:#000000;stroke-opacity:1"
       d="m 471.4839,1877.1434 c -10.09634,-4.788 -18.35608,-13.493 -24.84046,-26.1795 -5.3561,-10.4791 -7.14245,-19.5955 -6.36085,-32.4617 0.91435,-15.0516 5.70881,-25.7114 17.1868,-38.2125 5.20224,-5.666 8.37771,-8.0939 14.82542,-11.3354 l 8.20519,-4.1251 11.01032,0.3354 c 10.96281,0.334 11.04413,0.3547 18.84261,4.8167 5.04945,2.8891 10.21608,6.9909 14.54149,11.5444 5.61637,5.9126 7.43377,8.7599 11.1574,17.4804 l 4.44818,10.4174 v 13.5382 c 0,13.0862 -0.11415,13.8222 -3.41821,22.0383 -6.57373,16.3468 -15.63607,26.5688 -28.92246,32.6236 -6.95124,3.1678 -8.0655,3.3747 -18.03417,3.3489 -10.20466,-0.026 -10.94241,-0.178 -18.64126,-3.8291 z"
       id="path920" />
    <path
       style="fill:none;stroke:#000000;stroke-opacity:1"
       d="m 505.80223,1903.9588 c 7.20262,-1.6613 22.33443,-9.414 28.94777,-14.8311 l 6.25,-5.1196 v 4.5281 c 0,13.3873 11.84948,20.0759 20.40662,11.5187 l 3.09338,-3.0934 v -73.9002 -73.9002 l -2.44011,-2.5974 c -1.34207,-1.4285 -4.11061,-3.0978 -6.15233,-3.7095 -3.11865,-0.9344 -4.32743,-0.8118 -7.55988,0.7668 -4.91144,2.3985 -7.34408,7.1422 -7.34613,14.3252 l -0.002,5.4461 -3.25,-3.0949 c -7.35345,-7.0025 -24.18009,-16.3973 -32.54922,-18.173 -6.81293,-1.4456 -22.58839,-1.4456 -29.40156,-10e-5 -10.61752,2.2527 -24.54664,10.3481 -33.18398,19.2861 -11.5422,11.944 -18.21668,22.305 -22.62761,35.1256 -4.16143,12.0954 -4.36876,39.6182 -0.39073,51.8702 4.43023,13.6446 13.9653,28.3608 25.89495,39.9656 5.23338,5.0908 21.36433,13.7013 29.03027,15.496 5.38154,1.2599 25.95289,1.3197 31.28011,0.091 z"
       id="path918" />
    <path
       style="fill:none;stroke:#000000;stroke-opacity:1"
       d="M 328.03273,1903.4831 C 334.14566,1900.322 334,1901.9802 334,1835.5497 V 1775 h 13.59887 c 15.22062,0 19.39732,-1.1582 21.94518,-6.0852 1.90736,-3.6884 1.85613,-9.8984 -0.10475,-12.698 C 366.34797,1751.8033 363.05428,1751 348.04966,1751 H 334 v -39.0574 c 0,-40.0146 0.75215,-50.6581 3.86876,-54.7453 1.78492,-2.3408 10.51244,-4.8007 20.57775,-5.8 4.98381,-0.4947 6.48132,-1.1251 9.25,-3.8938 2.80083,-2.8008 3.30349,-4.0187 3.30349,-8.0035 0,-4.0502 -0.49052,-5.1905 -3.54813,-8.2481 l -3.54813,-3.5482 -9.72384,0.5924 c -17.26387,1.0518 -29.91669,6.4374 -35.93633,15.2961 -6.95754,10.2389 -8.1687,20.5137 -8.21104,69.6578 L 310,1751 h -4.54966 C 297.29017,1751 292,1755.7197 292,1763 c 0,7.085 5.68156,12 13.87166,12 h 4.0694 l 0.27947,61.5773 0.27947,61.5774 3.73531,3.4226 c 4.22131,3.868 8.78415,4.4982 13.79742,1.9058 z"
       id="path916" />
    <path
       style="fill:none;stroke:#000000;stroke-opacity:1"
       d="m 1374.7647,2034.5785 3.7353,-3.4215 0.3381,-9.8997 c 0.3983,-11.6609 -1.0008,-16.1375 -6.0279,-19.2879 -4.879,-3.0576 -10.3543,-2.1346 -14.5596,2.4542 -3.2385,3.5338 -3.2506,3.5864 -3.2506,14.1114 0,11.752 1.1784,15.4123 5.7626,17.8996 4.8739,2.6446 9.8018,1.9914 14.0021,-1.8561 z"
       id="path914" />
    <path
       style="fill:none;stroke:#000000;stroke-opacity:1"
       d="m 1889,2215.3579 c 10.1756,-2.8315 21.6319,-11.0832 27.3524,-19.7014 5.787,-8.7186 8.6476,-19.0228 8.6476,-31.1498 0,-9.7241 -0.1777,-10.5933 -3.5415,-17.317 -2.2421,-4.4817 -5.3192,-8.6773 -8.3868,-11.4353 -5.1053,-4.5901 -5.9494,-5.0589 -26.5717,-14.757 -18.0246,-8.4765 -28.2596,-14.6319 -30.0337,-18.0625 -1.853,-3.5834 -1.8878,-11.027 -0.071,-15.217 0.7674,-1.7699 2.7277,-4.7745 4.3563,-6.6771 2.7564,-3.2199 3.4379,-3.4861 9.8548,-3.8477 12.1585,-0.6853 20.6782,3.5346 25.621,12.6904 1.0345,1.9162 3.2406,3.835 5.5,4.7837 3.288,1.3806 4.2824,1.4073 7.7401,0.2084 4.6069,-1.5973 8.5326,-6.6975 8.5326,-11.0854 0,-7.8379 -8.886,-19.1821 -19,-24.2561 -9.5217,-4.7768 -14.8979,-5.9504 -27,-5.8936 -15.0649,0.071 -19.7127,2.0112 -29.098,12.1482 -7.9962,8.6366 -10.8645,15.2391 -11.6267,26.7631 -1.0237,15.4799 4.4439,26.6614 17.2247,35.2248 7.7617,5.2006 31.9212,17.4836 39.9724,20.3226 2.1849,0.7705 5.8974,3.2362 8.25,5.4794 4.2559,4.0579 4.2776,4.1147 4.2776,11.2125 0,13.9038 -5.7419,22.7237 -17.7082,27.2009 -6.4753,2.4227 -12.1057,2.5431 -19.3603,0.4138 -6.7723,-1.9876 -14.3828,-9.395 -18.9514,-18.4452 -1.7186,-3.4046 -4.272,-7.2534 -5.6742,-8.5529 -7.5257,-6.9745 -19.3059,-1.5037 -19.3059,8.9659 0,7.3059 12.7214,26.4225 22.5254,33.8493 11.4265,8.6558 30.4906,11.5826 46.4746,7.135 z"
       id="path912" />
    <path
       style="fill:none;stroke:#000000;stroke-opacity:1"
       d="m 1644,2120.6724 c 0,-0.8229 5.4553,-13.632 7.5258,-17.6706 1.2694,-2.476 4.6464,-7.1061 7.5044,-10.2891 4.1231,-4.592 7.1868,-6.7608 14.8331,-10.5 L 1683.5,2077.5 h 12 12 l 8.5616,4.1874 c 12.1004,5.9182 20.446,14.3365 26.452,26.6825 2.4675,5.0723 4.4864,9.6949 4.4864,10.2725 0,0.6402 -4.7465,1.3055 -12.157,1.7039 -12.2136,0.6567 -90.843,0.939 -90.843,0.3261 z"
       id="path910" />
    <path
       style="fill:none;stroke:#000000;stroke-opacity:1"
       d="m 1716.8476,2214.8937 c 9.9978,-2.8483 29.7503,-15.8875 36.378,-24.0143 12.2903,-15.0703 14.1544,-25.6282 5.4606,-30.9292 -7.008,-4.273 -12.9377,-1.7799 -18.5608,7.8039 -4.5098,7.6861 -7.969,11.1952 -16.9555,17.1997 -11.1937,7.4792 -14.2112,8.4219 -27.1699,8.4876 -11.2475,0.057 -11.6866,-0.026 -20,-3.7784 -9.8447,-4.4437 -15.3477,-8.6441 -20.4744,-15.6281 -3.8881,-5.2967 -11.0691,-21.0845 -12.1073,-26.6185 l -0.6232,-3.3222 55.8524,-0.3178 c 59.7007,-0.3398 59.1355,-0.2931 66.1036,-5.4662 5.4217,-4.0251 6.6002,-7.4578 5.9588,-17.3568 -1.5213,-23.4826 -19.2925,-48.2453 -43.0468,-59.9824 -20.6782,-10.2171 -39.9668,-10.7761 -60.6631,-1.7578 -20.3616,8.8724 -33.0556,22.3281 -41.8178,44.327 -5.4992,13.8066 -6.5034,19.8075 -5.9652,35.6466 0.513,15.0966 1.7332,19.634 9.7816,36.3739 3.7207,7.7387 6.5065,11.8484 12.0701,17.8058 8.8236,9.4482 12.9687,12.3679 25.7924,18.1675 7.0963,3.2093 12.0613,4.7522 17.2962,5.3747 9.7297,1.1571 24.8212,0.2268 32.6903,-2.015 z"
       id="path908" />
    <path
       style="fill:none;stroke:#000000;stroke-opacity:1"
       d="m 1475.2821,2216.638 c 1.7699,-0.7491 4.1179,-2.3705 5.2179,-3.6032 1.9289,-2.1616 2.0184,-4.0423 2.5187,-52.888 l 0.5187,-50.6468 2.8353,-6.5 c 3.7671,-8.6359 8.2779,-13.9678 16.4622,-19.4589 l 6.7685,-4.5411 h 10.2479 c 6.8401,0 11.146,0.4662 12.9484,1.402 4.0874,2.1221 11.5093,10.0929 12.8549,13.8056 0.8669,2.3919 1.2141,18.4994 1.2693,58.8945 l 0.076,55.6021 2.2866,3.3979 c 4.7279,7.0258 14.7219,6.9916 19.4718,-0.067 l 2.3314,-3.4646 -0.2949,-57.5354 c -0.2913,-56.8325 -0.3229,-57.6217 -2.5836,-64.5923 -1.8118,-5.5862 -3.5326,-8.435 -8.2581,-13.6707 -12.7428,-14.119 -20.9371,-17.7725 -39.8608,-17.7725 -14.3904,0 -19.1574,1.3017 -29.0924,7.9441 -7.0088,4.6859 -7.5224,4.8732 -7.8427,2.8585 -1.2231,-7.6944 -10.079,-11.9629 -17.19,-8.2857 -6.2977,3.2567 -6.0787,0.3566 -6.0243,79.7864 0.055,80.6973 -0.452,75.08 7.1281,78.9451 4.1236,2.1027 4.1595,2.1044 8.211,0.3896 z"
       id="path906" />
    <path
       style="fill:none;stroke:#000000;stroke-opacity:1"
       d="m 1373.8718,2215.1645 c 5.1629,-3.383 5.1282,-2.8563 5.1282,-77.7313 0,-62.3752 -0.1704,-69.9899 -1.6348,-73.0761 -4.1433,-8.7314 -17.5775,-8.5015 -21.2495,0.3636 -0.8455,2.0412 -1.0828,21.9874 -0.8854,74.4293 0.2636,70.0296 0.3147,71.6912 2.2697,73.882 4.3845,4.9134 10.8435,5.7547 16.3718,2.1325 z"
       id="path904" />
    <path
       style="fill:none;stroke:#000000;stroke-opacity:1"
       d="m 1184.2821,2216.638 c 1.7699,-0.7491 4.1179,-2.3706 5.2179,-3.6034 1.9294,-2.1623 2.0194,-4.0657 2.5498,-53.888 0.5451,-51.2027 0.5702,-51.7024 2.9242,-58.1407 2.9111,-7.9618 10.3091,-16.2519 17.526,-19.6394 4.0837,-1.9169 6.6493,-2.3477 14,-2.3512 4.95,0 10.575,0.4421 12.5,0.9875 5.3632,1.5196 11.3413,7.9384 14.6269,15.7052 l 2.8731,6.792 0.5,53.5 c 0.4569,48.883 0.6516,53.723 2.2566,56.0846 4.7214,6.9467 14.296,7.1135 19.6226,0.3419 l 2.2149,-2.8159 -0.297,-54.5553 -0.2971,-54.5553 -2.7575,-7.7933 c -4.3238,-12.2203 -8.0841,-18.7954 -13.881,-24.2717 -10.7821,-10.1859 -19.7036,-13.435 -36.8901,-13.435 -11.863,0 -18.0207,1.4245 -27.4714,6.3553 -3.3,1.7217 -6.3375,3.2836 -6.75,3.4709 -0.4125,0.1872 -0.75,-25.8194 -0.75,-57.7925 0,-64.0422 0.1595,-62.3485 -6.1797,-65.6266 -6.6363,-3.4318 -14.7866,0.2123 -16.8162,7.5186 -1.1007,3.9623 -1.4544,253.5726 -0.3671,259.0094 0.3504,1.7518 1.9292,4.4773 3.5085,6.0566 2.4848,2.4848 3.8211,3.1207 8.1366,3.8721 0.4302,0.075 2.2302,-0.4767 4,-1.2258 z"
       id="path902" />
    <path
       style="fill:none;stroke:#000000;stroke-opacity:1"
       d="m 1058.7894,2216.9246 c 11.7118,-1.2971 19.7376,-4.4293 31.6373,-12.3471 10.36,-6.8933 17.5384,-14.8986 18.2734,-20.3782 0.995,-7.4186 -4.3642,-13.1993 -12.237,-13.1993 -3.0706,0 -4.5949,0.9147 -9.7997,5.8804 -7.0471,6.7235 -14.9267,11.9544 -22.1634,14.7134 -3.9453,1.5041 -7.5312,1.8966 -17,1.8607 -11.445,-0.043 -12.3653,-0.2054 -19.898,-3.5 -5.8758,-2.57 -9.8114,-5.2371 -15.3713,-10.4166 -8.6633,-8.0706 -10.621,-10.9547 -15.29835,-22.5379 -3.32634,-8.2375 -3.43171,-8.917 -3.41159,-22 0.022,-14.3095 0.60148,-16.6154 7.66474,-30.5 2.3515,-4.6223 11.2842,-13.7347 17.8145,-18.1727 9.7856,-6.6504 14.7069,-8.4701 24.4841,-9.0534 16.1635,-0.9643 29.9018,4.0839 41.4471,15.2299 7.7501,7.482 11.5021,8.808 17.2309,6.0895 7.8851,-3.7417 8.8384,-12.2256 2.2741,-20.2365 -11.636,-14.2002 -32.211,-23.7205 -53.9362,-24.957 -16.4223,-0.9347 -29.4796,2.841 -44.5,12.8678 -5.7752,3.8551 -19.2978,16.9929 -23.10646,22.4488 -4.21604,6.0395 -11.43489,23.8288 -12.76189,31.449 -1.54314,8.8614 -1.39401,23.9662 0.3143,31.8346 1.80372,8.3079 8.46493,24.5567 12.42895,30.3182 13.15319,19.1175 33.6258,32.2735 53.8969,34.6351 9.8873,1.1519 11.3748,1.1499 22.0176,-0.029 z"
       id="path900" />
    <path
       style="fill:none;stroke:#000000;stroke-opacity:1"
       d="m 824,2193.1151 c -1.925,-0.4333 -6.42506,-2.1322 -10.00012,-3.7754 -11.19781,-5.1469 -23.52123,-20.7019 -28.12833,-35.5046 -2.67888,-8.6072 -2.62803,-28.1752 0.0961,-36.995 4.30941,-13.9523 16.33905,-28.5529 29.1742,-35.4094 7.2821,-3.8901 7.47176,-3.9307 18.35812,-3.9307 10.91762,0 11.05613,0.03 18.4943,4 11.18529,5.97 20.23123,14.9959 24.9788,24.9233 6.19858,12.9616 7.0269,16.3891 7.0269,29.0767 0,12.7226 -0.82208,16.1034 -7.11435,29.2574 -5.32042,11.1223 -12.68039,18.6087 -23.78207,24.1905 -7.50302,3.7725 -9.22342,4.2362 -16.97636,4.5764 -4.74497,0.2082 -10.20222,0.024 -12.12722,-0.4092 z"
       id="path898" />
    <path
       style="fill:none;stroke:#000000;stroke-opacity:1"
       d="m 850.5,2215.8448 c 7.60489,-1.958 21.92542,-9.619 27.75,-14.8452 l 5.75,-5.1594 0.006,3.83 c 0.008,5.6553 1.67779,10.6839 4.39461,13.2362 3.20711,3.013 9.36003,3.7863 13.42014,1.6867 6.4271,-3.3236 6.17967,-0.1147 6.17967,-80.1432 v -72.6497 l -3.4,-3.4 c -2.86444,-2.8644 -4.11249,-3.4 -7.92327,-3.4 -7.95663,0 -12.65653,6.1001 -12.67115,16.4462 l -0.006,3.9461 -3.25,-3.0512 c -8.02897,-7.5378 -23.22271,-15.837 -32.6081,-17.8113 -8.80605,-1.8524 -20.52674,-1.9178 -28.6419,-0.1598 -19.88944,4.3087 -40.72861,22.109 -51.57193,44.0514 -6.8742,13.9106 -8.22668,21.0892 -7.64516,40.5786 0.39409,13.2079 0.82969,16.5351 2.94569,22.5 5.9083,16.6551 15.58781,30.893 28.427,41.8141 6.41264,5.4546 22.19945,12.5089 30.60383,13.6752 7.14308,0.9913 22.33639,0.3755 28.24057,-1.1447 z"
       id="path896" />
    <path
       style="fill:none;stroke:#000000;stroke-opacity:1"
       d="m 538.30351,2215.7978 c 0.99193,-0.509 2.67775,-2.3592 3.74626,-4.1116 1.85343,-3.0397 1.94293,-5.429 1.94649,-51.9685 l 0.004,-48.7822 2.9884,-7.7492 c 2.34702,-6.086 4.25798,-9.0547 8.90366,-13.8319 8.47194,-8.7118 12.40058,-10.358 24.67366,-10.3391 5.46386,0.01 10.4592,0.3493 11.10076,0.7574 2.35503,1.4982 7.34009,8.5692 8.52871,12.0974 0.88062,2.6139 1.3743,19.771 1.76385,61.3004 l 0.54096,57.6705 2.39705,2.5505 c 5.25096,5.5871 14.08149,5.2467 18.50744,-0.7134 2.04695,-2.7564 2.1071,-4.0078 2.59551,-54 l 0.5,-51.1781 2.6424,-5.0044 c 4.07475,-7.7171 11.52342,-16.1324 17.698,-19.9946 5.46774,-3.4201 5.83808,-3.501 16.03315,-3.501 h 10.43612 l 3.65768,3.845 c 7.88301,8.2868 7.47275,4.7457 8.03265,69.333 0.4906,56.5935 0.5394,57.731 2.59551,60.5 4.75797,6.4076 14.61838,6.1106 19.11793,-0.5759 l 2.28656,-3.3979 -0.0174,-55.1021 c -0.0188,-59.5298 -0.32033,-63.6431 -5.4316,-74.0847 -4.26581,-8.7144 -12.69381,-17.961 -19.23887,-21.1075 -5.24109,-2.5197 -7.10027,-2.8354 -18.92192,-3.2138 -10.0043,-0.3202 -14.38659,-0.045 -18.5,1.1614 -7.04742,2.0669 -16.89834,7.9554 -23.23917,13.8914 -4.49468,4.2077 -5.18331,4.5496 -6.04259,3 -2.45892,-4.4343 -12.12403,-13.2332 -16.91744,-15.4011 -4.73136,-2.1399 -6.56363,-2.3476 -20.69105,-2.3455 -17.21748,0 -20.60477,0.8985 -30.74287,8.1321 l -4.75713,3.3943 -1.15743,-2.7644 c -2.97473,-7.1046 -11.05269,-10.1195 -17.04402,-6.361 -6.64546,4.1687 -6.36568,0.4795 -6.0679,80.0116 0.26672,71.2363 0.28981,71.967 2.36301,74.7623 3.48131,4.6937 10.0872,6.006 15.70985,3.1206 z"
       id="path894" />
  </g>
</svg>
