<?xml version="1.0" encoding="UTF-8" standalone="no"?>
<!-- Created with Inkscape (http://www.inkscape.org/) -->

<svg
   width="1200"
   height="1200"
   viewBox="0 0 317.49999 317.50001"
   version="1.1"
   id="svg5"
   inkscape:version="1.1 (c68e22c387, 2021-05-23)"
   sodipodi:docname="avatatar-logo-no-text.svg"
   inkscape:export-filename="C:\Projects\fabricatable-machines\wiki-media\avatatar-logo-no-text.png"
   inkscape:export-xdpi="200"
   inkscape:export-ydpi="200"
   xmlns:inkscape="http://www.inkscape.org/namespaces/inkscape"
   xmlns:sodipodi="http://sodipodi.sourceforge.net/DTD/sodipodi-0.dtd"
   xmlns="http://www.w3.org/2000/svg"
   xmlns:svg="http://www.w3.org/2000/svg">
  <sodipodi:namedview
     id="namedview7"
     pagecolor="#2d2d2d"
     bordercolor="#999999"
     borderopacity="1"
     inkscape:pageshadow="0"
     inkscape:pageopacity="0"
     inkscape:pagecheckerboard="0"
     inkscape:document-units="mm"
     showgrid="false"
     units="px"
     inkscape:zoom="0.48318963"
     inkscape:cx="601.21323"
     inkscape:cy="600.17844"
     inkscape:window-width="1920"
     inkscape:window-height="1028"
     inkscape:window-x="-6"
     inkscape:window-y="-6"
     inkscape:window-maximized="1"
     inkscape:current-layer="layer1" />
  <defs
     id="defs2" />
  <g
     inkscape:label="Layer 1"
     inkscape:groupmode="layer"
     id="layer1">
    <rect
       style="fill:#2d2d2d;fill-opacity:1;stroke:none;stroke-width:13.2914;stroke-linecap:round;stroke-linejoin:round;stroke-miterlimit:4;stroke-dasharray:none;stroke-opacity:1;paint-order:stroke markers fill"
       id="rect11025"
       width="317.5"
       height="317.5"
       x="0"
       y="0" />
    <path
       d="m 145.13036,200.24451 -9.61715,23.14271 c -0.12648,0.41532 -0.7553,0.68586 -1.14375,0.49218 l -1.23017,-0.42546 -2.18707,-0.54669 -3.16471,-0.39945 -1.37897,-0.0504 -1.96509,0.13403 -2.25877,0.54337 -1.99838,0.93575 -1.68916,1.25 -0.7515,0.72702 -1.23864,1.49547 -1.14497,1.79549 -0.98242,1.94038 -0.88074,2.12345 -0.75805,2.1423 -1.57222,5.08765 -1.2945,3.82693 -0.88885,1.98943 -1.56062,2.59936 -1.88679,2.37229 -2.13908,2.04908 c -1.495,1.25023 -3.15539,2.30139 -4.92261,3.12269 l -2.029643,0.82585 -2.773861,0.78121 -2.850237,0.42844 -1.795732,0.083 c -1.935235,0.0142 -3.872265,-0.22223 -5.746651,-0.7028 l -2.80309,-0.92131 -2.692829,-1.30656 c -1.796211,-1.02609 -3.449211,-2.30126 -4.903986,-3.77239 -1.456685,-1.47302 -2.714782,-3.14237 -3.719997,-4.95352 l -1.270987,-2.70415 -0.882891,-2.79665 -0.582267,-3.73192 c -0.136169,-1.92045 -0.02741,-3.85821 0.322223,-5.75144 0.350267,-1.89634 0.942081,-3.74805 1.757304,-5.49593 l 2.143495,-3.6522 c 1.162625,-1.60753 2.543527,-3.05717 4.089598,-4.30072 l 2.536724,-1.76793 2.094798,-1.1126 1.058806,-0.4602 1.799791,-0.6596 2.155187,-0.68824 2.869935,-0.86965 4.309305,-1.43733 2.066035,-0.8465 1.987167,-0.98875 1.869601,-1.17886 1.585566,-1.31072 1.672586,-1.9855 0.54967,-0.92035 0.79304,-1.9263 0.38881,-1.73356 0.12705,-1.25259 0.0114,-1.33258 -0.0338,-0.7367 -0.0907,-1.12192 c -0.14716,-1.44394 -0.41449,-2.87807 -0.83636,-4.26673 l -0.7114,-1.95804 -0.9274,-1.88751 c -0.709005,-1.26562 -1.557645,-2.45067 -2.489468,-3.5633 l -1.10356,-1.23113 -1.405953,-1.29176 -1.993364,-1.30069 -2.055067,-0.81631 -2.120816,-0.37449 -2.138607,0.01 -2.129405,0.33035 -2.072844,0.5732 -2.082273,0.775 -2.089433,0.93431 -2.025468,1.01155 -4.616609,2.45235 -1.881779,0.94041 -1.717684,0.74516 -2.311408,0.75186 -1.555142,0.35922 -3.006809,0.37582 -2.982825,-0.0305 -3.630014,-0.5893 c -1.875215,-0.46616 -3.689806,-1.17515 -5.385768,-2.10101 -1.688922,-0.92203 -3.260054,-2.059 -4.665063,-3.3739 l -2.88437,-3.2739 -1.548693,-2.47193 -1.223969,-2.68542 -0.870239,-2.88258 c -0.46746,-2.03466 -0.650769,-4.13376 -0.55112,-6.21902 l 0.3591,-3.09261 0.754954,-2.93973 1.122288,-2.75704 1.457282,-2.54532 1.75945,-2.31246 2.94058,-2.82614 c 1.476613,-1.18459 3.100016,-2.18622 4.822475,-2.97126 l 2.69736,-1.02668 2.839017,-0.67834 2.933059,-0.30208 c 2.029642,-0.0728 4.068711,0.13617 6.043578,0.61009 l 1.869485,0.53381 0.667597,0.23285 0.571649,0.21899 0.564246,0.23556 0.871193,0.39444 1.772819,0.88026 2.08657,1.10616 4.590833,2.38231 2.048971,0.92585 2.073086,0.78742 2.120346,0.60315 2.129405,0.34931 2.258667,0.0234 2.06246,-0.35623 1.065358,-0.35242 1.010705,-0.45648 1.977496,-1.2742 0.98612,-0.85854 0.856517,-0.8799 0.789799,-0.90569 1.185304,-1.53306 1.172527,-1.8288 0.942324,-1.8794 0.72596,-1.9449 0.53214,-2.07655 0.4079,-2.96755 0.0696,-1.26048 0.004,-0.84028 -0.27162,-2.43207 -0.83396,-2.50832 -1.10785,-1.84025 -1.549645,-1.70754 -1.66912,-1.32053 -1.877719,-1.13577 -1.986313,-0.95736 -2.074752,-0.828 -4.509685,-1.4771 -2.692117,-0.81558 -1.967341,-0.63574 -1.800746,-0.66951 -1.013637,-0.44712 -0.942441,-0.47344 -1.358586,-0.78085 -2.392322,-1.71174 -2.194336,-2.05995 c -1.333958,-1.43519 -2.477132,-3.04884 -3.390332,-4.78348 l -0.939336,-2.02191 -0.91547,-2.74235 -0.563651,-2.836294 -0.16589,-1.765181 c -0.10539,-1.927961 0.03484,-3.869649 0.421155,-5.761328 l 0.771185,-2.817654 1.153556,-2.728985 c 0.928238,-1.84144 2.114017,-3.551726 3.504467,-5.074882 1.403219,-1.53712 3.014925,-2.883651 4.780227,-3.985652 l 2.643771,-1.413959 2.760729,-1.029681 3.72668,-0.773693 c 1.914482,-0.23034 3.858435,-0.214813 5.769099,0.04416 1.908386,0.258487 3.783726,0.759729 5.566682,1.487711 l 3.739218,1.952428 c 1.65849,1.076463 3.17234,2.375852 4.4882,3.851871 l 1.87974,2.424783 1.13327,1.874857 0.59266,1.174562 0.19894,0.437146 0.30276,0.723807 0.66259,1.822466 0.56878,1.775684 0.79588,2.627537 1.02647,3.231532 0.77811,2.139078 0.88503,2.062117 1.01035,1.91914 1.19651,1.78691 1.45014,1.62305 1.61564,1.2864 1.31575,0.73803 2.10111,0.73945 2.39735,0.34632 1.54152,0.003 1.14951,-0.0754 0.96429,-0.097 1.43173,-0.21769 2.08945,-0.48988 1.956,-0.68252 1.89944,-0.90188 1.80696,-1.10523 1.75659,-1.32077 1.04365,-0.90103 0.89791,-0.87323 0.87501,-1.00331 0.69862,-0.98146 0.56355,-0.97611 0.80758,-2.061381 0.39586,-2.663475 -0.0953,-2.057198 -0.40089,-2.140383 -0.28868,-1.037797 -0.3523,-1.073594 -0.81451,-2.06497 -1.98381,-4.082079 -1.37302,-2.570616 -1.0692,-2.029882 -0.86712,-1.779267 -0.37486,-0.855796 -0.50231,-1.335434 c -0.47951,-1.411216 -0.82131,-2.86921 -1.01619,-4.346901 l -0.19239,-3.014447 0.20946,-2.949887 c 0.266,-1.917938 0.78455,-3.800552 1.53317,-5.586381 l 1.77317,-3.394671 c 1.02957,-1.623165 2.26356,-3.116964 3.66582,-4.431396 1.45478,-1.363594 3.09083,-2.534097 4.8534,-3.466152 l 2.70236,-1.205113 2.90431,-0.849594 c 2.04157,-0.450036 4.14533,-0.615684 6.23273,-0.496818 2.0534,0.116841 4.09114,0.508871 6.03713,1.174321 l 2.74103,1.148663 2.53028,1.481746 2.28385,1.772937 c 1.34807,1.19294 2.55354,2.54675 3.58395,4.022529 1.10463,1.581873 2.00829,3.303854 2.67994,5.112593 0.6386,1.719355 1.06751,3.51724 1.26752,5.340059 0.21841,1.989904 0.16371,4.009523 -0.15473,5.986179 l -1.03888,4.038398 -0.45754,1.174561 -0.46078,1.022759 -0.89936,1.809576 -1.34094,2.520375 -1.12503,2.120462 -1.95803,4.118003 -0.77726,2.062817 -0.58979,2.094329 -0.34561,2.161988 -0.0251,2.064491 0.43869,2.432775 0.85414,2.047541 0.60111,0.99018 0.72929,0.97801 0.88041,0.97265 0.56757,0.54717 0.89852,0.79447 3.53503,2.49044 1.88737,0.93852 1.9398,0.71677 3.6861,0.78825 1.05104,0.11267 0.56829,0.0439 0.58059,0.0343 1.20811,0.0182 2.55702,-0.29919 1.16584,-0.32126 2.19088,-1.01013 1.69156,-1.26146 1.47827,-1.56793 1.22038,-1.73916 1.03351,-1.88227 0.92466,-2.08144 0.79326,-2.125968 1.59869,-5.080235 0.6293,-2.039071 0.64528,-1.901828 0.33464,-0.874653 0.19666,-0.473073 0.18311,-0.413876 1.70407,-3.080563 1.8616,-2.447695 2.11664,-2.112708 2.33946,-1.782128 3.509,-1.894427 c 1.76876,-0.761401 3.63431,-1.297604 5.53734,-1.591779 1.90575,-0.294549 3.84912,-0.346093 5.76778,-0.152162 l 3.9699,0.76701 2.77434,1.008675 c 1.85779,0.819994 3.60113,1.896575 5.17287,3.182958 1.62076,1.326483 3.05895,2.876013 4.26062,4.591193 l 1.56908,2.594365 1.18005,2.724211 0.79685,2.814194 0.41949,2.865863 0.0503,2.889852 c -0.0685,1.475891 -0.28212,2.944995 -0.63406,4.380205 -0.42508,1.73381 -1.05223,3.4182 -1.87031,5.00474 l -1.50335,2.50011 -1.84432,2.31228 -2.16973,2.07512 c -1.18794,0.99198 -2.47908,1.85983 -3.84365,2.59032 l -1.90553,0.90761 -1.78582,0.67202 -1.95815,0.63739 -5.0256,1.54095 -2.16391,0.73981 -2.08144,0.82036 -2.00004,0.94984 -1.89849,1.13041 -1.66315,1.28902 -0.96165,0.95665 -1.26538,1.68461 -0.9496,1.98538 -0.39287,1.35906 -0.30647,2.45175 -3.5e-4,0.96904 0.0258,0.60579 0.14779,1.7289 0.79137,3.85318 c 0.40624,1.33305 0.957,2.62313 1.63795,3.83935 l 1.15225,1.82628 1.23099,1.608 0.78505,0.90438 0.84601,0.87597 1.28615,1.10235 2.05051,1.24367 2.10495,0.7441 1.27484,0.22425 2.07653,0.0674 2.16056,-0.26674 2.08479,-0.52547 4.16669,-1.6358 2.04038,-0.99914 2.06663,-1.08457 2.58578,-1.38258 1.83535,-0.9354 1.1291,-0.52844 0.7046,-0.30135 0.41529,-0.16422 0.92813,-0.33189 2.12368,-0.5948 3.03736,-0.48119 3.00206,-0.0637 2.91789,0.33096 c 1.92927,0.34954 3.81189,0.95497 5.58518,1.79131 1.73821,0.81987 3.3714,1.86161 4.8504,3.08879 l 2.10173,1.98216 1.85004,2.26223 1.54069,2.47575 0.92621,1.95851 0.95723,2.84511 c 0.5293,2.01174 0.77872,4.0964 0.74554,6.17651 -0.0329,2.06689 -0.34455,4.12935 -0.93289,6.11065 l -1.03469,2.7858 -1.37947,2.59269 -1.69442,2.37179 c -1.19234,1.45825 -2.56858,2.76563 -4.08243,3.88685 l -2.4206,1.56684 -2.61406,1.25248 c -1.62115,0.65353 -3.31771,1.12098 -5.04578,1.38138 -1.97043,0.29693 -3.98183,0.32449 -5.96062,0.087 l -3.84997,-0.80661 -0.76367,-0.2448 -0.47163,-0.16607 -0.45505,-0.17224 -0.85079,-0.35444 -1.66517,-0.78586 -1.97737,-1.02586 -4.60026,-2.4286 -2.03634,-0.97347 -2.06878,-0.86106 -2.12224,-0.70278 -2.10759,-0.46928 -2.06197,-0.18699 -1.72067,0.0915 -2.07274,0.46602 -1.05677,0.41436 -0.98672,0.5091 -1.99228,1.4345 -1.14557,1.1175 -0.42295,0.46677 -1.11739,1.34496 c -0.88361,1.13817 -1.66923,2.35462 -2.30973,3.64531 l -0.82048,1.90517 -0.62261,2.01841 -0.41638,2.0707 -0.24559,2.27848 -0.0423,1.1064 0.0268,1.21515 0.40948,2.50067 0.83263,2.14075 1.1569,1.78631 1.48283,1.56445 1.65513,1.27624 1.8522,1.1038 2.03787,0.96869 2.0961,0.82572 2.13707,0.72929 2.15854,0.67178 2.8519,0.8657 2.06759,0.67404 1.63725,0.61843 1.05223,0.46878 2.40509,1.33364 c 1.71423,1.09222 3.28215,2.41512 4.64084,3.92682 l 1.80623,2.2997 1.01549,1.63331 1.25343,2.60166 0.91656,2.74377 0.55959,2.83174 c 0.25287,1.90804 0.26495,3.84831 0.0308,5.75836 l -0.61758,3.14989 -0.96131,2.78688 c -0.78896,1.87116 -1.83749,3.63169 -3.09857,5.2237 -1.29856,1.63928 -2.82255,3.09978 -4.5159,4.32696 -1.62901,1.18065 -3.41471,2.14553 -5.29948,2.84929 l -2.81645,0.84218 -2.87507,0.46365 -2.87757,0.09 c -1.75241,-0.0568 -3.49744,-0.31722 -5.19065,-0.77179 -1.44988,-0.38917 -2.86168,-0.92096 -4.20608,-1.58855 l -2.51619,-1.46038 -2.3261,-1.79251 -2.0992,-2.12119 -1.82653,-2.42026 -1.48307,-2.63457 -0.76699,-1.80838 -0.65089,-1.86161 -0.64015,-2.05733 -0.91214,-2.99883 -0.69432,-2.14325 -0.77513,-2.12153 -0.89601,-2.07368 -1.04126,-1.95744 -1.17981,-1.74155 -1.42195,-1.5789 c -0.76141,-0.71938 -1.61542,-1.34294 -2.54508,-1.82556 l -1.02086,-0.46269 -1.46277,-0.46124 -2.35854,-0.34061 -0.80162,-0.0204 -1.32887,0.048 -2.96098,0.35601 -2.05208,0.47843 -1.92676,0.66186 c -0.38858,0.2035 -1.031,-0.0664 -1.15761,-0.48631 l -9.8204,-23.64204 -0.21613,-0.66354 -0.061,-0.45637 0.007,-0.266 0.0961,-0.42867 0.21818,-0.42078 0.34488,-0.40005 0.45793,-0.38346 0.51305,-0.34632 c 2.19433,-1.39783 4.32004,-2.90883 6.29896,-4.59751 l 2.91922,-2.74736 2.54591,-2.97364 2.72553,-4.22517 c 1.00318,-1.8646 1.81556,-3.83218 2.41929,-5.86158 0.60864,-2.04551 1.00545,-4.15393 1.1909,-6.28012 0.18334,-2.101 0.16016,-4.21944 -0.0607,-6.31686 l -0.85769,-4.79642 c -0.51592,-2.03191 -1.21909,-4.01633 -2.09743,-5.91994 -1.10642,-2.39733 -2.49091,-4.66672 -4.12398,-6.74137 -1.30462,-1.6573 -2.76788,-3.19047 -4.36873,-4.56373 -1.6259,-1.395 -3.39371,-2.62517 -5.27048,-3.65831 l -4.0291,-1.85229 -3.09942,-0.98446 -1.76315,-0.41663 -2.94153,-0.49179 c -1.94491,-0.24154 -3.91034,-0.31854 -5.86791,-0.22437 -1.90254,0.0916 -3.79757,0.34479 -5.65667,0.75927 -1.82724,0.40742 -3.61975,0.97048 -5.35045,1.68403 -1.71434,0.70697 -3.36805,1.56146 -4.93597,2.55187 -1.56753,0.9903 -3.04942,2.11642 -4.42208,3.36293 -1.38508,1.25774 -2.65916,2.63817 -3.80293,4.11885 -1.16609,1.50965 -2.19696,3.12374 -3.07913,4.81505 l -1.9399,4.51173 -1.09031,3.88599 -0.36376,1.88107 -0.5011,4.83475 c -0.0846,2.3928 0.0867,4.79707 0.5461,7.1469 l 0.95748,3.63778 c 0.79635,2.38575 1.90432,4.66517 3.26529,6.7811 l 2.38446,3.24895 c 1.75491,2.11617 3.75364,4.02457 5.88652,5.76075 1.64213,1.33686 3.38358,2.55986 5.1984,3.6509 l 0.4782,0.3141 0.40542,0.34167 0.35216,0.41281 0.19513,0.35445 0.11722,0.3795 0.0389,0.40503 -0.0565,0.567 -0.1101,0.42593 z"
       stroke="#dddddd"
       stroke-width="0.28642"
       fill-opacity="0"
       id="path1059"
       style="fill:#b8ffe5;fill-opacity:1;stroke:none"
       inkscape:export-filename="C:\Projects\fabricatable-machines\wiki-media\avatatar-logo-no-text.png"
       inkscape:export-xdpi="200"
       inkscape:export-ydpi="200" />
  </g>
</svg>
