<?xml version="1.0" encoding="UTF-8" standalone="no"?>
<!DOCTYPE svg PUBLIC "-//W3C//DTD SVG 1.1//EN" "http://www.w3.org/Graphics/SVG/1.1/DTD/svg11.dtd">
<svg width="612pt" height="792pt" viewBox="0 0 612 792" overflow="visible" version="1.1" xmlns="http://www.w3.org/2000/svg">
  <path d="M312.3175,489.8236 C311.0131,489.8236 310.4696,489.7149 309.9805,489.5518 L308.658,488.9902 L307.571,488.4467 L306.6652,487.6496 L305.7956,486.7438 L304.9622,485.693 L304.2738,484.5698 L303.6578,483.3016 L303.223,481.9972 L303.0056,480.6566 L302.9694,479.171 L303.0056,477.6855 L303.223,476.3448 L303.6578,475.0405 L304.2738,473.7723 L304.9622,472.6853 L305.7956,471.7432 L306.6652,470.765 L307.571,470.0403 L308.658,469.3881 L309.8899,468.8083 L311.0493,468.5547 L312.3175,468.5185 L313.6219,468.5547 L314.8901,468.8083 L316.0133,469.3881 L317.1003,470.0403 L318.1511,470.765 L319.0569,471.7432 L319.8903,472.6853 L320.5424,473.7723 L321.0497,475.0405 L321.5932,476.3448 L321.8468,477.6855 L321.8831,479.171 L321.8468,480.6566 L321.5932,481.9972 L321.0497,483.3016 L320.5424,484.5698 L319.8903,485.693 L319.0569,486.7438 L318.1511,487.6496 L317.1003,488.4467 L316.0133,488.9902 L314.7814,489.5518 C314.2741,489.7149 313.6219,489.8236 312.3175,489.8236 z" stroke="#DDDDDD" stroke-width="0.24" fill-opacity="0" />
  <path d="M364.0584,489.8236 C362.7541,489.8236 362.2106,489.7149 361.7214,489.5518 L360.3989,488.9902 L359.3119,488.4467 L358.4061,487.6496 L357.5365,486.7438 L356.7031,485.693 L356.0147,484.5698 L355.3987,483.3016 L354.9639,481.9972 L354.7466,480.6566 L354.7103,479.171 L354.7466,477.6855 L354.9639,476.3448 L355.3987,475.0405 L356.0147,473.7723 L356.7031,472.6853 L357.5365,471.7432 L358.4061,470.765 L359.3119,470.0403 L360.3989,469.3881 L361.6308,468.8083 L362.7903,468.5547 L364.0584,468.5185 L365.3629,468.5547 L366.631,468.8083 L367.7542,469.3881 L368.8412,470.0403 L369.892,470.765 L370.7978,471.7432 L371.6312,472.6853 L372.2834,473.7723 L372.7906,475.0405 L373.3341,476.3448 L373.5878,477.6855 L373.624,479.171 L373.5878,480.6566 L373.3341,481.9972 L372.7906,483.3016 L372.2834,484.5698 L371.6312,485.693 L370.7978,486.7438 L369.892,487.6496 L368.8412,488.4467 L367.7542,488.9902 L366.5223,489.5518 C366.015,489.7149 365.3629,489.8236 364.0584,489.8236 z" stroke="#DDDDDD" stroke-width="0.24" fill-opacity="0" />
  <path d="M399.9293,489.8236 C398.6249,489.8236 397.9727,489.7149 397.4654,489.5518 L396.2335,488.9902 L395.1465,488.4467 L394.0957,487.6496 L393.1899,486.7438 L392.3565,485.693 L391.7043,484.5698 L391.1971,483.3016 L390.6536,481.9972 L390.4,480.6566 L390.3637,479.171 L390.4,477.6855 L390.6536,476.3448 L391.1971,475.0405 L391.7043,473.7723 L392.3565,472.6491 L393.1899,471.5983 L394.0957,470.7287 L395.1465,470.0403 L396.2335,469.3881 L397.3567,468.8083 L398.6249,468.5547 L399.9293,468.5185 L401.2337,468.5547 L402.5018,468.8083 L403.6251,469.3881 L404.712,470.0403 L405.7628,470.7287 L406.6686,471.5983 L407.502,472.6491 L408.1542,473.7723 L408.6252,475.0405 L409.0238,476.3448 L409.2412,477.6855 L409.2774,479.171 L409.2412,480.6566 L409.0238,481.9972 L408.6252,483.3016 L408.1542,484.5698 L407.502,485.693 L406.6686,486.7438 L405.7628,487.6496 L404.712,488.4467 L403.6251,488.9902 L402.3931,489.5518 C401.8859,489.7149 401.2337,489.8236 399.9293,489.8236 z" stroke="#DDDDDD" stroke-width="0.24" fill-opacity="0" />
  <path d="M166.6603,451.344 L164.6493,451.5432 L163.8341,451.7788 L163.1819,451.9962 L162.5659,452.2498 L162.0949,452.6846 L161.6963,453.2643 L161.4427,453.7716 L161.2615,454.4238 L161.1891,455.2209 L161.0441,455.9456 L161.0079,458.4698 L161.0079,468.7117 L161.0079,489.8236" stroke="#DDDDDD" stroke-width="0.24" fill-opacity="0" />
  <path d="M252.3154,468.9533 C250.7936,468.9533 250.1414,469.1707 249.6704,469.3518 L248.5834,469.8591 L247.5689,470.5113 L246.7355,471.3447 L246.192,472.2143 L245.6123,473.0839 L245.1775,473.9535 L244.9239,474.8231 L244.7427,475.7108 L244.7065,476.5623" stroke="#DDDDDD" stroke-width="0.24" fill-opacity="0" />
  <path d="M294.2734,471.9969 C293.4038,470.9099 292.7516,470.4751 292.2444,470.149 L290.9762,469.4243 L289.6718,468.9533 L288.2225,468.5909 L286.8456,468.5185 L285.3963,468.5547 L284.0557,468.8083 L282.7875,469.3881 L281.6643,470.0403 L280.6135,470.765 L279.6714,471.7432 L278.6932,472.6853 L278.0047,473.7723 L277.4975,475.0405 L276.954,476.3448 L276.7003,477.6855 L276.6641,479.171 L276.7003,480.6566 L276.954,481.9972 L277.4975,483.3016 L278.0047,484.5698 L278.6932,485.693 L279.6714,486.7438 L280.6135,487.6496 L281.6643,488.4467 L282.7875,488.9902 L284.0557,489.5337 L285.3963,489.7874 L286.8456,489.8236 L288.2225,489.7874 L289.6718,489.5337 L290.9762,488.954 L292.2444,488.1931 C292.7516,487.867 293.4038,487.4322 294.2734,486.3452" stroke="#DDDDDD" stroke-width="0.24" fill-opacity="0" />
  <path d="M434.2783,478.7362 L446.7787,478.7362 C449.4962,478.7362 451.6702,478.7362 452.7572,478.5188 C453.8442,478.3014 453.8442,477.8666 453.808,477.3956 L453.5906,475.9825 L453.1558,474.7868 L452.5398,473.5549 L451.8514,472.4679 L451.018,471.5621 L450.1122,470.6925 L449.0614,469.8954 L447.9382,469.3518 L446.67,468.8083 L445.3656,468.5547 L444.0612,468.5185 L442.7569,468.5547 L441.4887,468.8083 L440.3292,469.3518 L439.0973,469.8954 L438.0103,470.6925 L437.1045,471.5983 L436.2711,472.6491 L435.6189,473.7723 L435.1117,475.0405 L434.5681,476.3448 L434.3145,477.6855 L434.2783,479.171 L434.3145,480.6566 L434.5681,481.9972 L435.1117,483.3016 L435.6189,484.5698 L436.2711,485.693 L437.1045,486.7438 L438.0103,487.6496 L439.0973,488.4467 L440.3292,488.9902 L441.4887,489.5337 L442.7569,489.7874 L444.17,489.8236 L445.9454,489.7511 L447.5396,489.2801 L449.0614,488.338 L450.6557,487.251 C451.2354,486.78 451.8876,486.1278 452.7572,484.3886" stroke="#DDDDDD" stroke-width="0.24" fill-opacity="0" />
  <path d="M238.4713,537.1635 C237.167,537.1635 236.6235,537.0548 236.1343,536.8917 L234.8118,536.3301 L233.7248,535.7866 L232.819,534.9895 L231.9494,534.0837 L231.116,533.0329 L230.4276,531.9097 L229.8116,530.6415 L229.3768,529.3372 L229.1594,527.9965 L229.1232,526.5109 L229.1594,525.0254 L229.3768,523.6848 L229.8116,522.3804 L230.4276,521.1122 L231.116,520.0252 L231.9494,519.0831 L232.819,518.1049 L233.7248,517.3802 L234.8118,516.728 L236.0437,516.1483 L237.2032,515.8947 L238.4713,515.8584 L239.7757,515.8947 L241.0439,516.1483 L242.1671,516.728 L243.2541,517.3802 L244.3049,518.1049 L245.2107,519.0831 L246.0441,520.0252 L246.6963,521.1122 L247.2035,522.3804 L247.747,523.6848 L248.0007,525.0254 L248.0369,526.5109 L248.0007,527.9965 L247.747,529.3372 L247.2035,530.6415 L246.6963,531.9097 L246.0441,533.0329 L245.2107,534.0837 L244.3049,534.9895 L243.2541,535.7866 L242.1671,536.3301 L240.9352,536.8917 C240.4279,537.0548 239.7757,537.1635 238.4713,537.1635 z" stroke="#DDDDDD" stroke-width="0.24" fill-opacity="0" />
  <path d="M205.2093,537.1635 L205.2093,527.7188 L205.2093,522.8755 L205.1369,520.4963 L204.7383,518.9745 L204.0861,517.815 L203.1803,516.8005 C202.8179,516.5106 202.3831,516.2932 201.8034,516.1845 L199.9917,516.0758 L198.8685,516.1121 L197.854,516.3295 L196.9482,516.7642 L196.1148,517.344 L195.4264,517.8875 L194.7742,518.6484 L194.1582,519.3368 L193.7234,520.0252 L193.4335,520.8586 L193.0531,521.8007 C192.9263,522.163 192.8176,522.5978 192.8176,523.4673" stroke="#DDDDDD" stroke-width="0.24" fill-opacity="0" />
  <path d="M205.2093,523.4673 C205.2093,522.5978 205.318,522.163 205.4448,521.8007 L205.8615,520.8586 L206.2963,520.0252 L206.7673,519.3368 L207.3471,518.6484 L207.8906,517.8875 L208.6877,517.344 L209.5573,516.7642 L210.4269,516.3295 L211.3327,516.1121 L212.5284,516.0758 L214.2676,516.1845 C214.8473,516.2932 215.3546,516.5106 215.7169,516.8005 L216.5503,517.815 L217.3112,518.9745 L217.746,520.4963 L217.8185,522.8755 L217.8185,527.7188 L217.8185,537.1635" stroke="#DDDDDD" stroke-width="0.24" fill-opacity="0" />
  <path d="M278.4727,519.3368 C277.6031,518.2498 276.951,517.815 276.4437,517.4889 L275.1755,516.7642 L273.8711,516.2932 L272.4218,515.9308 L271.045,515.8584 L269.5956,515.8947 L268.255,516.1483 L266.9868,516.728 L265.8636,517.3802 L264.8128,518.1049 L263.8708,519.0831 L262.8925,520.0252 L262.2041,521.1122 L261.6968,522.3804 L261.1533,523.6848 L260.8997,525.0254 L260.8634,526.5109 L260.8997,527.9965 L261.1533,529.3372 L261.6968,530.6415 L262.2041,531.9097 L262.8925,533.0329 L263.8708,534.0837 L264.8128,534.9895 L265.8636,535.7866 L266.9868,536.3301 L268.255,536.8737 L269.5956,537.1273 L271.045,537.1635 L272.4218,537.1273 L273.8711,536.8737 L275.1755,536.2939 L276.4437,535.533 C276.951,535.2069 277.6031,534.7721 278.4727,533.6851" stroke="#DDDDDD" stroke-width="0.24" fill-opacity="0" />
  <path d="M291.0819,523.6848 C291.0819,522.5978 291.1906,522.0543 291.3174,521.6014 L291.6978,520.46 L292.024,519.5542 L292.6037,518.7208 L293.2559,518.0324 L293.9081,517.4164 L294.5965,516.9454 L295.3936,516.5468 L296.1183,516.2932 L296.9517,516.1121 L297.8213,516.0758 L298.6546,516.0758 L299.3793,516.1121 L300.2126,516.2932 L301.046,516.5468 L301.7344,516.9816 L302.3866,517.5613 L303.0026,518.1049 L303.4736,518.9382 L303.9084,519.989 L304.307,521.1122 L304.5244,522.4528 L304.5606,524.5544 L304.5606,528.8299 L304.5606,537.1635" stroke="#DDDDDD" stroke-width="0.24" fill-opacity="0" />
  <path d="M348.4752,537.1635 L348.4752,527.8576 L348.4752,523.0447 L348.4027,520.5325 L347.9317,518.9745 L346.9534,517.815 L345.7939,516.8005 C345.3591,516.5106 344.8519,516.2932 344.2359,516.1845 L342.388,516.0758 L341.2648,516.1121 L340.2865,516.3295 L339.5256,516.7642 L338.6922,517.344 L337.8589,517.8875 L337.1704,518.6484 L336.5545,519.373 L336.1197,520.1702 L335.8298,520.8948 L335.4494,521.8007 C335.3225,522.163 335.2139,522.5978 335.2139,523.4673" stroke="#DDDDDD" stroke-width="0.24" fill-opacity="0" />
  <path d="M359.3451,526.0762 L371.8456,526.0762 C374.563,526.0762 376.737,526.0762 377.824,525.8588 C378.911,525.6414 378.911,525.2065 378.8748,524.7355 L378.6574,523.3224 L378.2226,522.1268 L377.6066,520.8948 L376.9182,519.8078 L376.0848,518.902 L375.179,518.0324 L374.1283,517.2353 L373.005,516.6918 L371.7369,516.1483 L370.4325,515.8947 L369.1281,515.8584 L367.8237,515.8947 L366.5555,516.1483 L365.3961,516.6918 L364.1641,517.2353 L363.0771,518.0324 L362.1713,518.9382 L361.338,519.989 L360.6858,521.1122 L360.1785,522.3804 L359.635,523.6848 L359.3813,525.0254 L359.3451,526.5109 L359.3813,527.9965 L359.635,529.3372 L360.1785,530.6415 L360.6858,531.9097 L361.338,533.0329 L362.1713,534.0837 L363.0771,534.9895 L364.1641,535.7866 L365.3961,536.3301 L366.5555,536.8737 L367.8237,537.1273 L369.2368,537.1635 L371.0122,537.0911 L372.6065,536.62 L374.1283,535.6779 L375.7225,534.5909 C376.3022,534.1199 376.9544,533.4677 377.824,531.7285" stroke="#DDDDDD" stroke-width="0.24" fill-opacity="0" />
  <path d="M401.0857,518.6846 C400.8683,518.0324 400.6509,517.7063 400.3973,517.4346 L399.5277,516.7642 L398.4769,516.2932 L397.3537,515.9308 L396.0493,515.8584 L394.6362,515.9308 L393.5492,516.3657 L392.7883,517.1628 L392.0274,518.1049 L391.5926,519.3368 L391.5202,520.5325 L391.5564,521.2934 L391.7375,521.9094 L391.955,522.3804 L392.1724,522.8152 L392.426,523.2137 L392.7883,523.4673 L393.0782,523.6848 L393.4405,523.9022 L393.7304,524.1196 L394.1289,524.337 L394.5275,524.5544 L394.9985,524.8563 L396.3029,525.4964 L397.8247,526.2211 L399.1291,526.825 L399.6002,526.982 L399.9625,527.1631 L400.2523,527.3806 L400.6147,527.598 L400.8683,527.8154 L401.1219,528.069 L401.4843,528.4675 L401.7379,528.9023 L401.9553,529.3372 L402.1365,529.8082 L402.1727,530.4604 L402.1727,531.2937 L402.1365,532.1271 L401.9553,532.8156 L401.7379,533.4677 L401.4843,534.1199 L401.0857,534.7721 L400.6147,535.3881 L399.9987,535.8591 L399.3465,536.2939 L398.6581,536.6924 L397.861,536.9461 L397.1001,537.1273 L396.1218,537.1635 L395.2159,537.1273 L394.3826,536.9461 L393.6942,536.7287 L393.042,536.4751 L392.426,536.0765 L391.955,535.6417 L391.5202,535.1707 L391.0854,534.5909 L390.6868,534.0837 L390.3607,533.4134 L389.781,532.3807" stroke="#DDDDDD" stroke-width="0.24" fill-opacity="0" />
  <path d="M291.0752,384.8956 L283.0167,404.2876 C282.9107,404.6356 282.3838,404.8623 282.0583,404.7 L281.0275,404.3435 L279.1949,403.8854 L276.5431,403.5507 L275.3876,403.5084 L273.741,403.6207 L271.8483,404.076 L270.1738,404.8601 L268.7584,405.9075 L268.1287,406.5167 L267.0908,407.7698 L266.1314,409.2743 L265.3082,410.9002 L264.5702,412.6795 L263.935,414.4746 L262.6176,418.7377 L261.5329,421.9444 L260.7881,423.6114 L259.4804,425.7895 L257.8994,427.7773 L256.107,429.4943 C254.8543,430.5419 253.463,431.4227 251.9822,432.1109 L250.2815,432.8029 L247.9572,433.4575 L245.5689,433.8165 L244.0642,433.8862 C242.4426,433.897 240.8195,433.7 239.2489,433.2973 L236.9001,432.5253 L234.6437,431.4305 C233.1386,430.5707 231.7535,429.5022 230.5345,428.2695 C229.3139,427.0352 228.2597,425.6364 227.4174,424.1188 L226.3524,421.8529 L225.6126,419.5095 L225.1247,416.3824 C225.0106,414.7732 225.1018,413.1495 225.3947,411.5631 C225.6882,409.9741 226.1841,408.4225 226.8672,406.9579 L228.6633,403.8976 C229.6375,402.5506 230.7946,401.3359 232.0901,400.2939 L234.2157,398.8125 L235.971,397.8802 L236.8582,397.4946 L238.3663,396.9419 L240.1722,396.3652 L242.577,395.6365 L246.1879,394.4321 L247.9191,393.7228 L249.5842,392.8943 L251.1508,391.9065 L252.4794,390.8082 L253.8809,389.1445 L254.3415,388.3733 L255.006,386.7592 L255.3318,385.3066 L255.4382,384.257 L255.4477,383.1404 L255.4194,382.5231 L255.3434,381.583 C255.2201,380.3731 254.9961,379.1714 254.6426,378.0078 L254.0465,376.3671 L253.2694,374.7855 C252.6753,373.725 251.9642,372.732 251.1834,371.7997 L250.2587,370.7681 L249.0806,369.6857 L247.4103,368.5958 L245.6883,367.9118 L243.9112,367.598 L242.1192,367.6058 L240.3349,367.8826 L238.598,368.3629 L236.8532,369.0123 L235.1024,369.7952 L233.4052,370.6428 L229.5368,372.6977 L227.96,373.4857 L226.5207,374.1101 L224.5839,374.7401 L223.2808,375.0411 L220.7613,375.356 L218.2619,375.3306 L215.2202,374.8368 C213.6489,374.4462 212.1284,373.8521 210.7073,373.0763 C209.2921,372.3037 207.9756,371.351 206.7983,370.2492 L204.3814,367.5059 L203.0837,365.4346 L202.0581,363.1844 L201.3289,360.769 C200.9372,359.0641 200.7836,357.3052 200.8671,355.5579 L201.168,352.9665 L201.8006,350.5032 L202.741,348.193 L203.9621,346.0602 L205.4364,344.1225 L207.9004,341.7544 C209.1377,340.7618 210.498,339.9225 211.9413,339.2647 L214.2015,338.4044 L216.5804,337.836 L219.0381,337.5829 C220.7388,337.5219 222.4474,337.6969 224.1022,338.0941 L225.6687,338.5414 L226.2281,338.7365 L226.7071,338.92 L227.1799,339.1174 L227.9099,339.4479 L229.3954,340.1855 L231.1438,341.1124 L234.9906,343.1086 L236.7075,343.8844 L238.4446,344.5442 L240.2213,345.0496 L242.0056,345.3423 L243.8982,345.3619 L245.6264,345.0634 L246.5191,344.7681 L247.366,344.3856 L249.023,343.3179 L249.8493,342.5985 L250.567,341.8612 L251.2288,341.1023 L252.222,339.8177 L253.2045,338.2853 L253.9941,336.7105 L254.6024,335.0808 L255.0483,333.3408 L255.3901,330.8542 L255.4484,329.798 L255.4524,329.0939 L255.2248,327.056 L254.526,324.9542 L253.5977,323.4122 L252.2992,321.9814 L250.9006,320.8749 L249.3272,319.9232 L247.6628,319.121 L245.9243,318.4272 L242.1455,317.1895 L239.8897,316.5061 L238.2412,315.9734 L236.7323,315.4124 L235.883,315.0383 L235.0933,314.6416 L233.9549,313.9873 L231.9503,312.553 L230.1116,310.8269 C228.993,309.6241 228.0351,308.272 227.2699,306.8185 L226.4828,305.1243 L225.7157,302.8264 L225.2434,300.4498 L225.1044,298.9707 C225.0161,297.3552 225.1336,295.7282 225.4573,294.1431 L226.1035,291.7821 L227.0701,289.4954 C227.8479,287.9524 228.8415,286.5193 230.0066,285.243 C231.1824,283.955 232.5329,282.8267 234.0121,281.9033 L236.2274,280.7185 L238.5407,279.8557 L241.6634,279.2074 C243.2676,279.0144 244.8965,279.0274 246.4975,279.2444 C248.0966,279.461 249.668,279.881 251.162,280.491 L254.2952,282.127 C255.6849,283.029 256.9534,284.1178 258.056,285.3546 L259.6311,287.3864 L260.5807,288.9574 L261.0773,289.9416 L261.244,290.3079 L261.4977,290.9144 L262.0529,292.4415 L262.5295,293.9294 L263.1964,296.1311 L264.0565,298.8389 L264.7085,300.6313 L265.4501,302.3592 L266.2967,303.9673 L267.2993,305.4646 L268.5144,306.8246 L269.8682,307.9025 L270.9707,308.5209 L272.7313,309.1405 L274.7401,309.4307 L276.0318,309.4329 L276.995,309.3697 L277.803,309.2884 L279.0027,309.106 L280.7535,308.6953 L282.3925,308.1234 L283.9841,307.3677 L285.4982,306.4416 L286.9701,305.3349 L287.8446,304.5799 L288.597,303.8482 L289.3302,303.0075 L289.9156,302.1851 L290.3878,301.3672 L291.0645,299.6399 L291.3962,297.4081 L291.3164,295.6843 L290.9805,293.8908 L290.7386,293.0212 L290.4434,292.1216 L289.7609,290.3913 L288.0986,286.9708 L286.9481,284.8168 L286.0522,283.1159 L285.3256,281.625 L285.0115,280.9079 L284.5906,279.7889 C284.1888,278.6064 283.9024,277.3847 283.7391,276.1465 L283.5779,273.6206 L283.7534,271.1488 C283.9763,269.5417 284.4108,267.9642 285.0381,266.4678 L286.5239,263.6233 C287.3866,262.2632 288.4206,261.0115 289.5956,259.9101 C290.8146,258.7675 292.1855,257.7867 293.6624,257.0057 L295.9268,255.9959 L298.3604,255.284 C300.0711,254.9069 301.8339,254.7681 303.583,254.8677 C305.3036,254.9656 307.0111,255.2941 308.6417,255.8517 L310.9385,256.8142 L313.0587,258.0558 L314.9724,259.5414 C316.102,260.541 317.1121,261.6754 317.9755,262.912 C318.9011,264.2375 319.6583,265.6804 320.2211,267.196 C320.7562,268.6367 321.1156,270.1432 321.2832,271.6706 C321.4662,273.338 321.4204,275.0303 321.1535,276.6866 L320.283,280.0705 L319.8996,281.0547 L319.5135,281.9117 L318.7599,283.428 L317.6363,285.5399 L316.6936,287.3167 L315.0529,290.7673 L314.4016,292.4958 L313.9074,294.2507 L313.6178,296.0623 L313.5968,297.7922 L313.9644,299.8307 L314.6801,301.5464 L315.1838,302.3761 L315.7949,303.1956 L316.5326,304.0106 L317.0082,304.4691 L317.7611,305.1348 L320.7232,307.2216 L322.3047,308.008 L323.9301,308.6086 L327.0188,309.2691 L327.8995,309.3635 L328.3757,309.4002 L328.8622,309.429 L329.8745,309.4442 L332.0171,309.1935 L332.994,308.9243 L334.8298,308.0779 L336.2472,307.0209 L337.4859,305.7071 L338.5085,304.2498 L339.3745,302.6726 L340.1493,300.9285 L340.814,299.1471 L342.1536,294.8902 L342.6809,293.1816 L343.2216,291.588 L343.502,290.8551 L343.6668,290.4587 L343.8202,290.1119 L345.2481,287.5306 L346.808,285.4796 L348.5816,283.7093 L350.5419,282.216 L353.4822,280.6286 C354.9643,279.9906 356.5275,279.5413 358.1221,279.2948 C359.719,279.048 361.3474,279.0048 362.9551,279.1673 L366.2816,279.81 L368.6063,280.6552 C370.163,281.3423 371.6238,282.2444 372.9408,283.3223 C374.2989,284.4338 375.504,285.7322 376.5109,287.1694 L377.8257,289.3433 L378.8145,291.626 L379.4822,293.9841 L379.8337,296.3855 L379.8758,298.807 C379.8183,300.0437 379.6394,301.2747 379.3445,302.4773 C378.9883,303.9301 378.4628,305.3415 377.7773,306.6709 L376.5176,308.7658 L374.9722,310.7033 L373.1541,312.4421 C372.1587,313.2733 371.0768,314.0005 369.9334,314.6126 L368.3367,315.3731 L366.8403,315.9362 L365.1995,316.4703 L360.9884,317.7615 L359.1752,318.3814 L357.4311,319.0688 L355.7552,319.8647 L354.1644,320.8119 L352.7708,321.892 L351.965,322.6936 L350.9047,324.1052 L350.109,325.7688 L349.7798,326.9076 L349.523,328.962 L349.5227,329.774 L349.5442,330.2816 L349.668,331.7303 L350.3311,334.959 C350.6715,336.076 351.133,337.157 351.7036,338.1761 L352.6691,339.7064 L353.7006,341.0538 L354.3584,341.8116 L355.0673,342.5456 L356.145,343.4693 L357.8632,344.5114 L359.627,345.1349 L360.6952,345.3228 L362.4352,345.3792 L364.2456,345.1557 L365.9925,344.7154 L369.4839,343.3447 L371.1936,342.5075 L372.9253,341.5987 L375.092,340.4402 L376.6299,339.6564 L377.576,339.2136 L378.1664,338.9611 L378.5144,338.8235 L379.2921,338.5454 L381.0716,338.047 L383.6167,337.6438 L386.1322,337.5904 L388.5772,337.8677 C390.1938,338.1606 391.7713,338.6679 393.2572,339.3687 C394.7137,340.0557 396.0822,340.9286 397.3215,341.9569 L399.0826,343.6178 L400.6328,345.5134 L401.9238,347.5879 L402.6999,349.229 L403.502,351.613 C403.9455,353.2987 404.1545,355.0455 404.1267,356.7885 C404.0992,358.5204 403.838,360.2486 403.345,361.9088 L402.478,364.2431 L401.3221,366.4156 L399.9023,368.403 C398.9032,369.6249 397.75,370.7204 396.4815,371.6599 L394.4532,372.9728 L392.2628,374.0223 C390.9044,374.5699 389.4828,374.9616 388.0348,375.1798 C386.3837,375.4286 384.6983,375.4517 383.0402,375.2527 L379.8142,374.5768 L379.1743,374.3717 L378.7791,374.2326 L378.3978,374.0883 L377.6849,373.7913 L376.2896,373.1328 L374.6327,372.2732 L370.778,370.2382 L369.0717,369.4225 L367.3382,368.701 L365.5599,368.1121 L363.7939,367.7189 L362.0661,367.5622 L360.6243,367.6388 L358.8875,368.0293 L358.002,368.3765 L357.1752,368.8031 L355.5058,370.0051 L354.5459,370.9415 L354.1915,371.3326 L353.2552,372.4596 C352.5148,373.4133 351.8565,374.4326 351.3198,375.5141 L350.6323,377.1105 L350.1106,378.8018 L349.7617,380.5369 L349.5559,382.4461 L349.5205,383.3732 L349.543,384.3914 L349.8861,386.4868 L350.5838,388.2806 L351.5532,389.7774 L352.7957,391.0883 L354.1826,392.1577 L355.7346,393.0826 L357.4422,393.8943 L359.1986,394.5862 L360.9893,395.1973 L362.798,395.7602 L365.1877,396.4856 L366.9202,397.0504 L368.2921,397.5686 L369.1738,397.9614 L371.1891,399.0789 C372.6255,399.9941 373.9393,401.1026 375.0778,402.3693 L376.5913,404.2963 L377.4422,405.6649 L378.4925,407.8449 L379.2605,410.144 L379.7294,412.5168 C379.9413,414.1156 379.9514,415.7414 379.7553,417.3419 L379.2378,419.9813 L378.4323,422.3165 C377.7712,423.8844 376.8926,425.3596 375.8359,426.6936 C374.7478,428.0672 373.4708,429.291 372.0519,430.3193 C370.6869,431.3086 369.1906,432.1171 367.6113,432.7068 L365.2513,433.4125 L362.8422,433.801 L360.431,433.8765 C358.9626,433.8289 357.5004,433.6107 356.0816,433.2298 C354.8667,432.9037 353.6837,432.4581 352.5572,431.8987 L350.4488,430.675 L348.4997,429.173 L346.7407,427.3956 L345.2102,425.3676 L343.9675,423.16 L343.3248,421.6447 L342.7794,420.0848 L342.243,418.3609 L341.4787,415.8481 L340.8969,414.0522 L340.2474,412.2745 L339.4966,410.5369 L338.6241,408.8967 L337.6355,407.4374 L336.444,406.1144 C335.806,405.5116 335.0904,404.9891 334.3114,404.5847 L333.456,404.197 L332.2303,403.8105 L330.254,403.5251 L329.5823,403.5082 L328.4688,403.5485 L325.9877,403.8468 L324.2682,404.2477 L322.6537,404.8023 C322.3281,404.9728 321.7898,404.7467 321.6837,404.3948 L313.4549,384.5844 L313.2738,384.0284 L313.2227,383.646 L313.229,383.4231 L313.3096,383.0639 L313.4924,382.7113 L313.7814,382.3761 L314.1651,382.0548 L314.595,381.7646 C316.4337,380.5933 318.2149,379.3272 319.8731,377.9122 L322.3192,375.6101 L324.4525,373.1184 L326.7363,369.578 C327.5769,368.0156 328.2576,366.3669 328.7635,364.6664 C329.2735,362.9524 329.606,361.1857 329.7614,359.4041 C329.915,357.6436 329.8956,355.8685 329.7106,354.111 L328.9918,350.0918 C328.5595,348.3892 327.9703,346.7264 327.2343,345.1313 C326.3072,343.1225 325.1471,341.2209 323.7787,339.4825 C322.6855,338.0938 321.4594,336.8091 320.118,335.6584 C318.7556,334.4895 317.2743,333.4587 315.7017,332.593 L312.3256,331.0409 L309.7285,330.216 L308.2511,329.8669 L305.7863,329.4548 C304.1566,329.2524 302.5097,329.1879 300.8694,329.2668 C299.2752,329.3436 297.6873,329.5557 296.1295,329.903 C294.5984,330.2444 293.0964,330.7162 291.6462,331.3141 C290.2097,331.9065 288.824,332.6225 287.5102,333.4524 C286.1967,334.2822 284.955,335.2258 283.8048,336.2703 C282.6442,337.3242 281.5766,338.4809 280.6182,339.7216 C279.6411,340.9866 278.7773,342.3391 278.0381,343.7563 L276.4126,347.5368 L275.499,350.793 L275.1942,352.3692 L274.7743,356.4204 C274.7034,358.4254 274.847,360.44 275.2319,362.409 L276.0342,365.4572 C276.7015,367.4563 277.6299,369.3663 278.7703,371.1393 L280.7683,373.8617 C282.2388,375.6349 283.9136,377.234 285.7008,378.6888 C287.0768,379.809 288.536,380.8338 290.0567,381.748 L290.4574,382.0112 L290.7971,382.2975 L291.0922,382.6434 L291.2557,382.9404 L291.3539,383.2584 L291.3865,383.5978 L291.3391,384.0729 L291.2469,384.4298 z" stroke="#DDDDDD" stroke-width="0.24" fill-opacity="0" />
  <path d="M186.4436,489.8236 C185.1392,489.8236 184.5957,489.7149 184.1065,489.5518 L182.784,488.9902 L181.697,488.4467 L180.7912,487.6496 L179.9216,486.7438 L179.0882,485.693 L178.3998,484.5698 L177.7838,483.3016 L177.349,481.9972 L177.1317,480.6566 L177.0954,479.171 L177.1317,477.6855 L177.349,476.3448 L177.7838,475.0405 L178.3998,473.7723 L179.0882,472.6853 L179.9216,471.7432 L180.7912,470.765 L181.697,470.0403 L182.784,469.3881 L184.0159,468.8083 L185.1754,468.5547 L186.4436,468.5185 L187.748,468.5547 L189.0161,468.8083 L190.1393,469.3881 L191.2263,470.0403 L192.2771,470.765 L193.1829,471.7432 L194.0163,472.6853 L194.6685,473.7723 L195.1758,475.0405 L195.7193,476.3448 L195.9729,477.6855 L196.0091,479.171 L195.9729,480.6566 L195.7193,481.9972 L195.1758,483.3016 L194.6685,484.5698 L194.0163,485.693 L193.1829,486.7438 L192.2771,487.6496 L191.2263,488.4467 L190.1393,488.9902 L188.9074,489.5518 C188.4002,489.7149 187.748,489.8236 186.4436,489.8236 z" stroke="#DDDDDD" stroke-width="0.24" fill-opacity="0" />
  <path d="M222.3144,489.8236 C221.01,489.8236 220.3578,489.7149 219.8505,489.5518 L218.6186,488.9902 L217.5316,488.4467 L216.4809,487.6496 L215.575,486.7438 L214.7417,485.693 L214.0895,484.5698 L213.5822,483.3016 L213.0387,481.9972 L212.7851,480.6566 L212.7488,479.171 L212.7851,477.6855 L213.0387,476.3448 L213.5822,475.0405 L214.0895,473.7723 L214.7417,472.6491 L215.575,471.5983 L216.4809,470.7287 L217.5316,470.0403 L218.6186,469.3881 L219.7418,468.8083 L221.01,468.5547 L222.3144,468.5185 L223.6188,468.5547 L224.8869,468.8083 L226.0102,469.3881 L227.0972,470.0403 L228.1479,470.7287 L229.0538,471.5983 L229.8871,472.6491 L230.5393,473.7723 L231.0103,475.0405 L231.4089,476.3448 L231.6263,477.6855 L231.6625,479.171 L231.6263,480.6566 L231.4089,481.9972 L231.0103,483.3016 L230.5393,484.5698 L229.8871,485.693 L229.0538,486.7438 L228.1479,487.6496 L227.0972,488.4467 L226.0102,488.9902 L224.7782,489.5518 C224.271,489.7149 223.6188,489.8236 222.3144,489.8236 z" stroke="#DDDDDD" stroke-width="0.24" fill-opacity="0" />
  <path d="M339.9272,470.0403 L336.6662,470.0403 L344.2752,470.0403" stroke="#DDDDDD" stroke-width="0.24" fill-opacity="0" />
  <path d="M335.2139,516.2932 L335.2139,537.1635" stroke="#DDDDDD" stroke-width="0.24" fill-opacity="0" />
  <path d="M319.3438,507.8147 L319.3438,509.9887" stroke="#DDDDDD" stroke-width="0.24" fill-opacity="0" />
  <path d="M319.3438,516.5106 L319.3438,537.1635" stroke="#DDDDDD" stroke-width="0.24" fill-opacity="0" />
  <path d="M291.0819,498.6839 L291.0819,537.1635" stroke="#DDDDDD" stroke-width="0.24" fill-opacity="0" />
  <path d="M248.0369,516.0758 L248.0369,536.9461" stroke="#DDDDDD" stroke-width="0.24" fill-opacity="0" />
  <path d="M192.8176,516.2932 L192.8176,537.1635" stroke="#DDDDDD" stroke-width="0.24" fill-opacity="0" />
  <path d="M422.3214,451.344 L422.3214,489.8236" stroke="#DDDDDD" stroke-width="0.24" fill-opacity="0" />
  <path d="M390.3637,451.1266 L390.3637,489.6062" stroke="#DDDDDD" stroke-width="0.24" fill-opacity="0" />
  <path d="M373.624,468.7359 L373.624,489.6062" stroke="#DDDDDD" stroke-width="0.24" fill-opacity="0" />
  <path d="M321.8831,468.7359 L321.8831,489.6062" stroke="#DDDDDD" stroke-width="0.24" fill-opacity="0" />
  <path d="M264.7072,460.4748 L264.7072,462.6487" stroke="#DDDDDD" stroke-width="0.24" fill-opacity="0" />
  <path d="M264.7072,469.1707 L264.7072,489.8236" stroke="#DDDDDD" stroke-width="0.24" fill-opacity="0" />
  <path d="M244.7065,468.9533 L244.7065,489.8236" stroke="#DDDDDD" stroke-width="0.24" fill-opacity="0" />
  <path d="M212.7489,451.1266 L212.7489,489.6062" stroke="#DDDDDD" stroke-width="0.24" fill-opacity="0" />
  <path d="M196.0091,468.7359 L196.0091,489.6062" stroke="#DDDDDD" stroke-width="0.24" fill-opacity="0" />
  <path d="M166.6603,470.0403 L158.1817,470.0403" stroke="#DDDDDD" stroke-width="0.24" fill-opacity="0" />
  <path d="M339.9272,461.9966 L339.9272,489.8236" stroke="#DDDDDD" stroke-width="0.24" fill-opacity="0" />
</svg>