%FSLAX45Y45*%
G04 Gerber Fmt 4.5, Leading zero omitted, Abs format (unit mm)*
G04 Created by KiCad (PCBNEW (6.0.0-rc1-dev-347-gd8782b751)) date 11/16/19 19:04:07*
%MOMM*%
%LPD*%
G01*
G04 APERTURE LIST*
%ADD10C,0.100000*%
%ADD11C,0.200000*%
%ADD12C,0.300000*%
G04 APERTURE END LIST*
D10*
X8331200Y-17322800D02*
X8178800Y-17170400D01*
X8280400Y-3200400D02*
X8153400Y-3327400D01*
X16154400Y-17170400D02*
X16002000Y-17322800D01*
X16135350Y-3321050D02*
X16008350Y-3194050D01*
X11074689Y-14802138D02*
G75*
G03X11074689Y-14802138I-279689J0D01*
G01*
X14420850Y-14801850D02*
G75*
G03X14420850Y-14801850I-279400J0D01*
G01*
X11069202Y-4287402D02*
G75*
G03X11069202Y-4287402I-280552J0D01*
G01*
X14403067Y-4287517D02*
G75*
G03X14403067Y-4287517I-255267J0D01*
G01*
X8178800Y-17170400D02*
X8153400Y-3327400D01*
X16002000Y-17322800D02*
X8331200Y-17322800D01*
X16135350Y-3321050D02*
X16154400Y-17170400D01*
X8280400Y-3200400D02*
X16008350Y-3194050D01*
D11*
D12*
X8434828Y-17793514D02*
X8434828Y-17493514D01*
X8506257Y-17493514D01*
X8549114Y-17507800D01*
X8577686Y-17536372D01*
X8591971Y-17564943D01*
X8606257Y-17622086D01*
X8606257Y-17664943D01*
X8591971Y-17722086D01*
X8577686Y-17750657D01*
X8549114Y-17779229D01*
X8506257Y-17793514D01*
X8434828Y-17793514D01*
X8734828Y-17793514D02*
X8734828Y-17593514D01*
X8734828Y-17650657D02*
X8749114Y-17622086D01*
X8763400Y-17607800D01*
X8791971Y-17593514D01*
X8820543Y-17593514D01*
X8920543Y-17793514D02*
X8920543Y-17593514D01*
X8920543Y-17493514D02*
X8906257Y-17507800D01*
X8920543Y-17522086D01*
X8934828Y-17507800D01*
X8920543Y-17493514D01*
X8920543Y-17522086D01*
X9106257Y-17793514D02*
X9077686Y-17779229D01*
X9063400Y-17750657D01*
X9063400Y-17493514D01*
X9263400Y-17793514D02*
X9234828Y-17779229D01*
X9220543Y-17750657D01*
X9220543Y-17493514D01*
X9606257Y-17793514D02*
X9606257Y-17493514D01*
X9706257Y-17707800D01*
X9806257Y-17493514D01*
X9806257Y-17793514D01*
X10077686Y-17793514D02*
X10077686Y-17636372D01*
X10063400Y-17607800D01*
X10034828Y-17593514D01*
X9977686Y-17593514D01*
X9949114Y-17607800D01*
X10077686Y-17779229D02*
X10049114Y-17793514D01*
X9977686Y-17793514D01*
X9949114Y-17779229D01*
X9934828Y-17750657D01*
X9934828Y-17722086D01*
X9949114Y-17693514D01*
X9977686Y-17679229D01*
X10049114Y-17679229D01*
X10077686Y-17664943D01*
X10220543Y-17593514D02*
X10220543Y-17893514D01*
X10220543Y-17607800D02*
X10249114Y-17593514D01*
X10306257Y-17593514D01*
X10334828Y-17607800D01*
X10349114Y-17622086D01*
X10363400Y-17650657D01*
X10363400Y-17736372D01*
X10349114Y-17764943D01*
X10334828Y-17779229D01*
X10306257Y-17793514D01*
X10249114Y-17793514D01*
X10220543Y-17779229D01*
X10491971Y-17764943D02*
X10506257Y-17779229D01*
X10491971Y-17793514D01*
X10477686Y-17779229D01*
X10491971Y-17764943D01*
X10491971Y-17793514D01*
X10491971Y-17607800D02*
X10506257Y-17622086D01*
X10491971Y-17636372D01*
X10477686Y-17622086D01*
X10491971Y-17607800D01*
X10491971Y-17636372D01*
M02*
