G04 #@! TF.GenerationSoftware,KiCad,Pcbnew,(6.0.0-rc1-dev-347-gd8782b751)*
G04 #@! TF.CreationDate,2019-11-16T19:03:48+01:00*
G04 #@! TF.ProjectId,nano,6E616E6F2E6B696361645F7063620000,rev?*
G04 #@! TF.SameCoordinates,Original*
G04 #@! TF.FileFunction,Soldermask,Bot*
G04 #@! TF.FilePolarity,Negative*
%FSLAX46Y46*%
G04 Gerber Fmt 4.6, Leading zero omitted, Abs format (unit mm)*
G04 Created by KiCad (PCBNEW (6.0.0-rc1-dev-347-gd8782b751)) date 11/16/19 19:03:48*
%MOMM*%
%LPD*%
G01*
G04 APERTURE LIST*
%ADD10C,1.000000*%
%ADD11C,1.100000*%
%ADD12C,0.100000*%
%ADD13C,1.425000*%
%ADD14R,3.500000X1.800000*%
%ADD15R,1.800000X3.500000*%
%ADD16R,1.500000X1.780000*%
%ADD17C,0.500000*%
%ADD18O,1.700000X1.700000*%
%ADD19R,1.700000X1.700000*%
%ADD20O,3.600000X1.800000*%
%ADD21C,1.800000*%
%ADD22R,1.780000X1.500000*%
%ADD23C,9.000000*%
%ADD24R,6.400000X5.800000*%
%ADD25R,2.200000X1.200000*%
%ADD26O,2.032000X1.727200*%
%ADD27C,2.000000*%
%ADD28C,1.500000*%
G04 APERTURE END LIST*
D10*
X151430000Y-87930000D02*
G75*
G03X151430000Y-87930000I-300000J0D01*
G01*
X148336000Y-95885000D02*
G75*
G03X148336000Y-95885000I-300000J0D01*
G01*
D11*
X101854000Y-130683000D02*
G75*
G03X101854000Y-130683000I-500000J0D01*
G01*
X98290000Y-40767000D02*
G75*
G03X98290000Y-40767000I-500000J0D01*
G01*
X101973000Y-62738000D02*
G75*
G03X101973000Y-62738000I-500000J0D01*
G01*
X98798000Y-99441000D02*
G75*
G03X98798000Y-99441000I-500000J0D01*
G01*
X101846000Y-96012000D02*
G75*
G03X101846000Y-96012000I-500000J0D01*
G01*
X98417000Y-35179000D02*
G75*
G03X98417000Y-35179000I-500000J0D01*
G01*
X113276000Y-102108000D02*
G75*
G03X113276000Y-102108000I-500000J0D01*
G01*
X99187000Y-66167000D02*
G75*
G03X99187000Y-66167000I-500000J0D01*
G01*
X98798000Y-134112000D02*
G75*
G03X98798000Y-134112000I-500000J0D01*
G01*
X87114000Y-69723000D02*
G75*
G03X87114000Y-69723000I-500000J0D01*
G01*
D12*
X83312000Y-173228000D02*
X81788000Y-171704000D01*
X82804000Y-32004000D02*
X81534000Y-33274000D01*
X161544000Y-171704000D02*
X160020000Y-173228000D01*
X161353500Y-33210500D02*
X160083500Y-31940500D01*
X110746885Y-148021384D02*
G75*
G03X110746885Y-148021384I-2796885J0D01*
G01*
X144208500Y-148018500D02*
G75*
G03X144208500Y-148018500I-2794000J0D01*
G01*
X110692022Y-42874021D02*
G75*
G03X110692022Y-42874021I-2805522J0D01*
G01*
X144030668Y-42875168D02*
G75*
G03X144030668Y-42875168I-2552668J0D01*
G01*
X81788000Y-171704000D02*
X81534000Y-33274000D01*
X160020000Y-173228000D02*
X83312000Y-173228000D01*
X161353500Y-33210500D02*
X161544000Y-171704000D01*
X82804000Y-32004000D02*
X160083500Y-31940500D01*
G04 #@! TO.C,C7*
G36*
X152033504Y-98639204D02*
X152057773Y-98642804D01*
X152081571Y-98648765D01*
X152104671Y-98657030D01*
X152126849Y-98667520D01*
X152147893Y-98680133D01*
X152167598Y-98694747D01*
X152185777Y-98711223D01*
X152202253Y-98729402D01*
X152216867Y-98749107D01*
X152229480Y-98770151D01*
X152239970Y-98792329D01*
X152248235Y-98815429D01*
X152254196Y-98839227D01*
X152257796Y-98863496D01*
X152259000Y-98888000D01*
X152259000Y-99813000D01*
X152257796Y-99837504D01*
X152254196Y-99861773D01*
X152248235Y-99885571D01*
X152239970Y-99908671D01*
X152229480Y-99930849D01*
X152216867Y-99951893D01*
X152202253Y-99971598D01*
X152185777Y-99989777D01*
X152167598Y-100006253D01*
X152147893Y-100020867D01*
X152126849Y-100033480D01*
X152104671Y-100043970D01*
X152081571Y-100052235D01*
X152057773Y-100058196D01*
X152033504Y-100061796D01*
X152009000Y-100063000D01*
X150759000Y-100063000D01*
X150734496Y-100061796D01*
X150710227Y-100058196D01*
X150686429Y-100052235D01*
X150663329Y-100043970D01*
X150641151Y-100033480D01*
X150620107Y-100020867D01*
X150600402Y-100006253D01*
X150582223Y-99989777D01*
X150565747Y-99971598D01*
X150551133Y-99951893D01*
X150538520Y-99930849D01*
X150528030Y-99908671D01*
X150519765Y-99885571D01*
X150513804Y-99861773D01*
X150510204Y-99837504D01*
X150509000Y-99813000D01*
X150509000Y-98888000D01*
X150510204Y-98863496D01*
X150513804Y-98839227D01*
X150519765Y-98815429D01*
X150528030Y-98792329D01*
X150538520Y-98770151D01*
X150551133Y-98749107D01*
X150565747Y-98729402D01*
X150582223Y-98711223D01*
X150600402Y-98694747D01*
X150620107Y-98680133D01*
X150641151Y-98667520D01*
X150663329Y-98657030D01*
X150686429Y-98648765D01*
X150710227Y-98642804D01*
X150734496Y-98639204D01*
X150759000Y-98638000D01*
X152009000Y-98638000D01*
X152033504Y-98639204D01*
X152033504Y-98639204D01*
G37*
D13*
X151384000Y-99350500D03*
D12*
G36*
X152033504Y-101614204D02*
X152057773Y-101617804D01*
X152081571Y-101623765D01*
X152104671Y-101632030D01*
X152126849Y-101642520D01*
X152147893Y-101655133D01*
X152167598Y-101669747D01*
X152185777Y-101686223D01*
X152202253Y-101704402D01*
X152216867Y-101724107D01*
X152229480Y-101745151D01*
X152239970Y-101767329D01*
X152248235Y-101790429D01*
X152254196Y-101814227D01*
X152257796Y-101838496D01*
X152259000Y-101863000D01*
X152259000Y-102788000D01*
X152257796Y-102812504D01*
X152254196Y-102836773D01*
X152248235Y-102860571D01*
X152239970Y-102883671D01*
X152229480Y-102905849D01*
X152216867Y-102926893D01*
X152202253Y-102946598D01*
X152185777Y-102964777D01*
X152167598Y-102981253D01*
X152147893Y-102995867D01*
X152126849Y-103008480D01*
X152104671Y-103018970D01*
X152081571Y-103027235D01*
X152057773Y-103033196D01*
X152033504Y-103036796D01*
X152009000Y-103038000D01*
X150759000Y-103038000D01*
X150734496Y-103036796D01*
X150710227Y-103033196D01*
X150686429Y-103027235D01*
X150663329Y-103018970D01*
X150641151Y-103008480D01*
X150620107Y-102995867D01*
X150600402Y-102981253D01*
X150582223Y-102964777D01*
X150565747Y-102946598D01*
X150551133Y-102926893D01*
X150538520Y-102905849D01*
X150528030Y-102883671D01*
X150519765Y-102860571D01*
X150513804Y-102836773D01*
X150510204Y-102812504D01*
X150509000Y-102788000D01*
X150509000Y-101863000D01*
X150510204Y-101838496D01*
X150513804Y-101814227D01*
X150519765Y-101790429D01*
X150528030Y-101767329D01*
X150538520Y-101745151D01*
X150551133Y-101724107D01*
X150565747Y-101704402D01*
X150582223Y-101686223D01*
X150600402Y-101669747D01*
X150620107Y-101655133D01*
X150641151Y-101642520D01*
X150663329Y-101632030D01*
X150686429Y-101623765D01*
X150710227Y-101617804D01*
X150734496Y-101614204D01*
X150759000Y-101613000D01*
X152009000Y-101613000D01*
X152033504Y-101614204D01*
X152033504Y-101614204D01*
G37*
D13*
X151384000Y-102325500D03*
G04 #@! TD*
D14*
G04 #@! TO.C,D5->|-1*
X111212000Y-127254000D03*
X106212000Y-127254000D03*
G04 #@! TD*
G04 #@! TO.C,D4->|-1*
X111212000Y-119380000D03*
X106212000Y-119380000D03*
G04 #@! TD*
G04 #@! TO.C,D3->|-1*
X111212000Y-123190000D03*
X106212000Y-123190000D03*
G04 #@! TD*
D15*
G04 #@! TO.C,D2->|-1*
X117602000Y-41442000D03*
X117602000Y-46442000D03*
G04 #@! TD*
D16*
G04 #@! TO.C,U19*
X153863000Y-54610000D03*
X144333000Y-52070000D03*
X153863000Y-52070000D03*
X144333000Y-54610000D03*
G04 #@! TD*
G04 #@! TO.C,U18*
X153863000Y-61722000D03*
X144333000Y-59182000D03*
X153863000Y-59182000D03*
X144333000Y-61722000D03*
G04 #@! TD*
D12*
G04 #@! TO.C,R33*
G36*
X139207504Y-58054204D02*
X139231773Y-58057804D01*
X139255571Y-58063765D01*
X139278671Y-58072030D01*
X139300849Y-58082520D01*
X139321893Y-58095133D01*
X139341598Y-58109747D01*
X139359777Y-58126223D01*
X139376253Y-58144402D01*
X139390867Y-58164107D01*
X139403480Y-58185151D01*
X139413970Y-58207329D01*
X139422235Y-58230429D01*
X139428196Y-58254227D01*
X139431796Y-58278496D01*
X139433000Y-58303000D01*
X139433000Y-59553000D01*
X139431796Y-59577504D01*
X139428196Y-59601773D01*
X139422235Y-59625571D01*
X139413970Y-59648671D01*
X139403480Y-59670849D01*
X139390867Y-59691893D01*
X139376253Y-59711598D01*
X139359777Y-59729777D01*
X139341598Y-59746253D01*
X139321893Y-59760867D01*
X139300849Y-59773480D01*
X139278671Y-59783970D01*
X139255571Y-59792235D01*
X139231773Y-59798196D01*
X139207504Y-59801796D01*
X139183000Y-59803000D01*
X138258000Y-59803000D01*
X138233496Y-59801796D01*
X138209227Y-59798196D01*
X138185429Y-59792235D01*
X138162329Y-59783970D01*
X138140151Y-59773480D01*
X138119107Y-59760867D01*
X138099402Y-59746253D01*
X138081223Y-59729777D01*
X138064747Y-59711598D01*
X138050133Y-59691893D01*
X138037520Y-59670849D01*
X138027030Y-59648671D01*
X138018765Y-59625571D01*
X138012804Y-59601773D01*
X138009204Y-59577504D01*
X138008000Y-59553000D01*
X138008000Y-58303000D01*
X138009204Y-58278496D01*
X138012804Y-58254227D01*
X138018765Y-58230429D01*
X138027030Y-58207329D01*
X138037520Y-58185151D01*
X138050133Y-58164107D01*
X138064747Y-58144402D01*
X138081223Y-58126223D01*
X138099402Y-58109747D01*
X138119107Y-58095133D01*
X138140151Y-58082520D01*
X138162329Y-58072030D01*
X138185429Y-58063765D01*
X138209227Y-58057804D01*
X138233496Y-58054204D01*
X138258000Y-58053000D01*
X139183000Y-58053000D01*
X139207504Y-58054204D01*
X139207504Y-58054204D01*
G37*
D13*
X138720500Y-58928000D03*
D12*
G36*
X142182504Y-58054204D02*
X142206773Y-58057804D01*
X142230571Y-58063765D01*
X142253671Y-58072030D01*
X142275849Y-58082520D01*
X142296893Y-58095133D01*
X142316598Y-58109747D01*
X142334777Y-58126223D01*
X142351253Y-58144402D01*
X142365867Y-58164107D01*
X142378480Y-58185151D01*
X142388970Y-58207329D01*
X142397235Y-58230429D01*
X142403196Y-58254227D01*
X142406796Y-58278496D01*
X142408000Y-58303000D01*
X142408000Y-59553000D01*
X142406796Y-59577504D01*
X142403196Y-59601773D01*
X142397235Y-59625571D01*
X142388970Y-59648671D01*
X142378480Y-59670849D01*
X142365867Y-59691893D01*
X142351253Y-59711598D01*
X142334777Y-59729777D01*
X142316598Y-59746253D01*
X142296893Y-59760867D01*
X142275849Y-59773480D01*
X142253671Y-59783970D01*
X142230571Y-59792235D01*
X142206773Y-59798196D01*
X142182504Y-59801796D01*
X142158000Y-59803000D01*
X141233000Y-59803000D01*
X141208496Y-59801796D01*
X141184227Y-59798196D01*
X141160429Y-59792235D01*
X141137329Y-59783970D01*
X141115151Y-59773480D01*
X141094107Y-59760867D01*
X141074402Y-59746253D01*
X141056223Y-59729777D01*
X141039747Y-59711598D01*
X141025133Y-59691893D01*
X141012520Y-59670849D01*
X141002030Y-59648671D01*
X140993765Y-59625571D01*
X140987804Y-59601773D01*
X140984204Y-59577504D01*
X140983000Y-59553000D01*
X140983000Y-58303000D01*
X140984204Y-58278496D01*
X140987804Y-58254227D01*
X140993765Y-58230429D01*
X141002030Y-58207329D01*
X141012520Y-58185151D01*
X141025133Y-58164107D01*
X141039747Y-58144402D01*
X141056223Y-58126223D01*
X141074402Y-58109747D01*
X141094107Y-58095133D01*
X141115151Y-58082520D01*
X141137329Y-58072030D01*
X141160429Y-58063765D01*
X141184227Y-58057804D01*
X141208496Y-58054204D01*
X141233000Y-58053000D01*
X142158000Y-58053000D01*
X142182504Y-58054204D01*
X142182504Y-58054204D01*
G37*
D13*
X141695500Y-58928000D03*
G04 #@! TD*
D12*
G04 #@! TO.C,R32*
G36*
X139461504Y-53736204D02*
X139485773Y-53739804D01*
X139509571Y-53745765D01*
X139532671Y-53754030D01*
X139554849Y-53764520D01*
X139575893Y-53777133D01*
X139595598Y-53791747D01*
X139613777Y-53808223D01*
X139630253Y-53826402D01*
X139644867Y-53846107D01*
X139657480Y-53867151D01*
X139667970Y-53889329D01*
X139676235Y-53912429D01*
X139682196Y-53936227D01*
X139685796Y-53960496D01*
X139687000Y-53985000D01*
X139687000Y-55235000D01*
X139685796Y-55259504D01*
X139682196Y-55283773D01*
X139676235Y-55307571D01*
X139667970Y-55330671D01*
X139657480Y-55352849D01*
X139644867Y-55373893D01*
X139630253Y-55393598D01*
X139613777Y-55411777D01*
X139595598Y-55428253D01*
X139575893Y-55442867D01*
X139554849Y-55455480D01*
X139532671Y-55465970D01*
X139509571Y-55474235D01*
X139485773Y-55480196D01*
X139461504Y-55483796D01*
X139437000Y-55485000D01*
X138512000Y-55485000D01*
X138487496Y-55483796D01*
X138463227Y-55480196D01*
X138439429Y-55474235D01*
X138416329Y-55465970D01*
X138394151Y-55455480D01*
X138373107Y-55442867D01*
X138353402Y-55428253D01*
X138335223Y-55411777D01*
X138318747Y-55393598D01*
X138304133Y-55373893D01*
X138291520Y-55352849D01*
X138281030Y-55330671D01*
X138272765Y-55307571D01*
X138266804Y-55283773D01*
X138263204Y-55259504D01*
X138262000Y-55235000D01*
X138262000Y-53985000D01*
X138263204Y-53960496D01*
X138266804Y-53936227D01*
X138272765Y-53912429D01*
X138281030Y-53889329D01*
X138291520Y-53867151D01*
X138304133Y-53846107D01*
X138318747Y-53826402D01*
X138335223Y-53808223D01*
X138353402Y-53791747D01*
X138373107Y-53777133D01*
X138394151Y-53764520D01*
X138416329Y-53754030D01*
X138439429Y-53745765D01*
X138463227Y-53739804D01*
X138487496Y-53736204D01*
X138512000Y-53735000D01*
X139437000Y-53735000D01*
X139461504Y-53736204D01*
X139461504Y-53736204D01*
G37*
D13*
X138974500Y-54610000D03*
D12*
G36*
X142436504Y-53736204D02*
X142460773Y-53739804D01*
X142484571Y-53745765D01*
X142507671Y-53754030D01*
X142529849Y-53764520D01*
X142550893Y-53777133D01*
X142570598Y-53791747D01*
X142588777Y-53808223D01*
X142605253Y-53826402D01*
X142619867Y-53846107D01*
X142632480Y-53867151D01*
X142642970Y-53889329D01*
X142651235Y-53912429D01*
X142657196Y-53936227D01*
X142660796Y-53960496D01*
X142662000Y-53985000D01*
X142662000Y-55235000D01*
X142660796Y-55259504D01*
X142657196Y-55283773D01*
X142651235Y-55307571D01*
X142642970Y-55330671D01*
X142632480Y-55352849D01*
X142619867Y-55373893D01*
X142605253Y-55393598D01*
X142588777Y-55411777D01*
X142570598Y-55428253D01*
X142550893Y-55442867D01*
X142529849Y-55455480D01*
X142507671Y-55465970D01*
X142484571Y-55474235D01*
X142460773Y-55480196D01*
X142436504Y-55483796D01*
X142412000Y-55485000D01*
X141487000Y-55485000D01*
X141462496Y-55483796D01*
X141438227Y-55480196D01*
X141414429Y-55474235D01*
X141391329Y-55465970D01*
X141369151Y-55455480D01*
X141348107Y-55442867D01*
X141328402Y-55428253D01*
X141310223Y-55411777D01*
X141293747Y-55393598D01*
X141279133Y-55373893D01*
X141266520Y-55352849D01*
X141256030Y-55330671D01*
X141247765Y-55307571D01*
X141241804Y-55283773D01*
X141238204Y-55259504D01*
X141237000Y-55235000D01*
X141237000Y-53985000D01*
X141238204Y-53960496D01*
X141241804Y-53936227D01*
X141247765Y-53912429D01*
X141256030Y-53889329D01*
X141266520Y-53867151D01*
X141279133Y-53846107D01*
X141293747Y-53826402D01*
X141310223Y-53808223D01*
X141328402Y-53791747D01*
X141348107Y-53777133D01*
X141369151Y-53764520D01*
X141391329Y-53754030D01*
X141414429Y-53745765D01*
X141438227Y-53739804D01*
X141462496Y-53736204D01*
X141487000Y-53735000D01*
X142412000Y-53735000D01*
X142436504Y-53736204D01*
X142436504Y-53736204D01*
G37*
D13*
X141949500Y-54610000D03*
G04 #@! TD*
D12*
G04 #@! TO.C,R31*
G36*
X145702004Y-106314204D02*
X145726273Y-106317804D01*
X145750071Y-106323765D01*
X145773171Y-106332030D01*
X145795349Y-106342520D01*
X145816393Y-106355133D01*
X145836098Y-106369747D01*
X145854277Y-106386223D01*
X145870753Y-106404402D01*
X145885367Y-106424107D01*
X145897980Y-106445151D01*
X145908470Y-106467329D01*
X145916735Y-106490429D01*
X145922696Y-106514227D01*
X145926296Y-106538496D01*
X145927500Y-106563000D01*
X145927500Y-107813000D01*
X145926296Y-107837504D01*
X145922696Y-107861773D01*
X145916735Y-107885571D01*
X145908470Y-107908671D01*
X145897980Y-107930849D01*
X145885367Y-107951893D01*
X145870753Y-107971598D01*
X145854277Y-107989777D01*
X145836098Y-108006253D01*
X145816393Y-108020867D01*
X145795349Y-108033480D01*
X145773171Y-108043970D01*
X145750071Y-108052235D01*
X145726273Y-108058196D01*
X145702004Y-108061796D01*
X145677500Y-108063000D01*
X144752500Y-108063000D01*
X144727996Y-108061796D01*
X144703727Y-108058196D01*
X144679929Y-108052235D01*
X144656829Y-108043970D01*
X144634651Y-108033480D01*
X144613607Y-108020867D01*
X144593902Y-108006253D01*
X144575723Y-107989777D01*
X144559247Y-107971598D01*
X144544633Y-107951893D01*
X144532020Y-107930849D01*
X144521530Y-107908671D01*
X144513265Y-107885571D01*
X144507304Y-107861773D01*
X144503704Y-107837504D01*
X144502500Y-107813000D01*
X144502500Y-106563000D01*
X144503704Y-106538496D01*
X144507304Y-106514227D01*
X144513265Y-106490429D01*
X144521530Y-106467329D01*
X144532020Y-106445151D01*
X144544633Y-106424107D01*
X144559247Y-106404402D01*
X144575723Y-106386223D01*
X144593902Y-106369747D01*
X144613607Y-106355133D01*
X144634651Y-106342520D01*
X144656829Y-106332030D01*
X144679929Y-106323765D01*
X144703727Y-106317804D01*
X144727996Y-106314204D01*
X144752500Y-106313000D01*
X145677500Y-106313000D01*
X145702004Y-106314204D01*
X145702004Y-106314204D01*
G37*
D13*
X145215000Y-107188000D03*
D12*
G36*
X142727004Y-106314204D02*
X142751273Y-106317804D01*
X142775071Y-106323765D01*
X142798171Y-106332030D01*
X142820349Y-106342520D01*
X142841393Y-106355133D01*
X142861098Y-106369747D01*
X142879277Y-106386223D01*
X142895753Y-106404402D01*
X142910367Y-106424107D01*
X142922980Y-106445151D01*
X142933470Y-106467329D01*
X142941735Y-106490429D01*
X142947696Y-106514227D01*
X142951296Y-106538496D01*
X142952500Y-106563000D01*
X142952500Y-107813000D01*
X142951296Y-107837504D01*
X142947696Y-107861773D01*
X142941735Y-107885571D01*
X142933470Y-107908671D01*
X142922980Y-107930849D01*
X142910367Y-107951893D01*
X142895753Y-107971598D01*
X142879277Y-107989777D01*
X142861098Y-108006253D01*
X142841393Y-108020867D01*
X142820349Y-108033480D01*
X142798171Y-108043970D01*
X142775071Y-108052235D01*
X142751273Y-108058196D01*
X142727004Y-108061796D01*
X142702500Y-108063000D01*
X141777500Y-108063000D01*
X141752996Y-108061796D01*
X141728727Y-108058196D01*
X141704929Y-108052235D01*
X141681829Y-108043970D01*
X141659651Y-108033480D01*
X141638607Y-108020867D01*
X141618902Y-108006253D01*
X141600723Y-107989777D01*
X141584247Y-107971598D01*
X141569633Y-107951893D01*
X141557020Y-107930849D01*
X141546530Y-107908671D01*
X141538265Y-107885571D01*
X141532304Y-107861773D01*
X141528704Y-107837504D01*
X141527500Y-107813000D01*
X141527500Y-106563000D01*
X141528704Y-106538496D01*
X141532304Y-106514227D01*
X141538265Y-106490429D01*
X141546530Y-106467329D01*
X141557020Y-106445151D01*
X141569633Y-106424107D01*
X141584247Y-106404402D01*
X141600723Y-106386223D01*
X141618902Y-106369747D01*
X141638607Y-106355133D01*
X141659651Y-106342520D01*
X141681829Y-106332030D01*
X141704929Y-106323765D01*
X141728727Y-106317804D01*
X141752996Y-106314204D01*
X141777500Y-106313000D01*
X142702500Y-106313000D01*
X142727004Y-106314204D01*
X142727004Y-106314204D01*
G37*
D13*
X142240000Y-107188000D03*
G04 #@! TD*
D12*
G04 #@! TO.C,R30*
G36*
X157113504Y-58253204D02*
X157137773Y-58256804D01*
X157161571Y-58262765D01*
X157184671Y-58271030D01*
X157206849Y-58281520D01*
X157227893Y-58294133D01*
X157247598Y-58308747D01*
X157265777Y-58325223D01*
X157282253Y-58343402D01*
X157296867Y-58363107D01*
X157309480Y-58384151D01*
X157319970Y-58406329D01*
X157328235Y-58429429D01*
X157334196Y-58453227D01*
X157337796Y-58477496D01*
X157339000Y-58502000D01*
X157339000Y-59427000D01*
X157337796Y-59451504D01*
X157334196Y-59475773D01*
X157328235Y-59499571D01*
X157319970Y-59522671D01*
X157309480Y-59544849D01*
X157296867Y-59565893D01*
X157282253Y-59585598D01*
X157265777Y-59603777D01*
X157247598Y-59620253D01*
X157227893Y-59634867D01*
X157206849Y-59647480D01*
X157184671Y-59657970D01*
X157161571Y-59666235D01*
X157137773Y-59672196D01*
X157113504Y-59675796D01*
X157089000Y-59677000D01*
X155839000Y-59677000D01*
X155814496Y-59675796D01*
X155790227Y-59672196D01*
X155766429Y-59666235D01*
X155743329Y-59657970D01*
X155721151Y-59647480D01*
X155700107Y-59634867D01*
X155680402Y-59620253D01*
X155662223Y-59603777D01*
X155645747Y-59585598D01*
X155631133Y-59565893D01*
X155618520Y-59544849D01*
X155608030Y-59522671D01*
X155599765Y-59499571D01*
X155593804Y-59475773D01*
X155590204Y-59451504D01*
X155589000Y-59427000D01*
X155589000Y-58502000D01*
X155590204Y-58477496D01*
X155593804Y-58453227D01*
X155599765Y-58429429D01*
X155608030Y-58406329D01*
X155618520Y-58384151D01*
X155631133Y-58363107D01*
X155645747Y-58343402D01*
X155662223Y-58325223D01*
X155680402Y-58308747D01*
X155700107Y-58294133D01*
X155721151Y-58281520D01*
X155743329Y-58271030D01*
X155766429Y-58262765D01*
X155790227Y-58256804D01*
X155814496Y-58253204D01*
X155839000Y-58252000D01*
X157089000Y-58252000D01*
X157113504Y-58253204D01*
X157113504Y-58253204D01*
G37*
D13*
X156464000Y-58964500D03*
D12*
G36*
X157113504Y-61228204D02*
X157137773Y-61231804D01*
X157161571Y-61237765D01*
X157184671Y-61246030D01*
X157206849Y-61256520D01*
X157227893Y-61269133D01*
X157247598Y-61283747D01*
X157265777Y-61300223D01*
X157282253Y-61318402D01*
X157296867Y-61338107D01*
X157309480Y-61359151D01*
X157319970Y-61381329D01*
X157328235Y-61404429D01*
X157334196Y-61428227D01*
X157337796Y-61452496D01*
X157339000Y-61477000D01*
X157339000Y-62402000D01*
X157337796Y-62426504D01*
X157334196Y-62450773D01*
X157328235Y-62474571D01*
X157319970Y-62497671D01*
X157309480Y-62519849D01*
X157296867Y-62540893D01*
X157282253Y-62560598D01*
X157265777Y-62578777D01*
X157247598Y-62595253D01*
X157227893Y-62609867D01*
X157206849Y-62622480D01*
X157184671Y-62632970D01*
X157161571Y-62641235D01*
X157137773Y-62647196D01*
X157113504Y-62650796D01*
X157089000Y-62652000D01*
X155839000Y-62652000D01*
X155814496Y-62650796D01*
X155790227Y-62647196D01*
X155766429Y-62641235D01*
X155743329Y-62632970D01*
X155721151Y-62622480D01*
X155700107Y-62609867D01*
X155680402Y-62595253D01*
X155662223Y-62578777D01*
X155645747Y-62560598D01*
X155631133Y-62540893D01*
X155618520Y-62519849D01*
X155608030Y-62497671D01*
X155599765Y-62474571D01*
X155593804Y-62450773D01*
X155590204Y-62426504D01*
X155589000Y-62402000D01*
X155589000Y-61477000D01*
X155590204Y-61452496D01*
X155593804Y-61428227D01*
X155599765Y-61404429D01*
X155608030Y-61381329D01*
X155618520Y-61359151D01*
X155631133Y-61338107D01*
X155645747Y-61318402D01*
X155662223Y-61300223D01*
X155680402Y-61283747D01*
X155700107Y-61269133D01*
X155721151Y-61256520D01*
X155743329Y-61246030D01*
X155766429Y-61237765D01*
X155790227Y-61231804D01*
X155814496Y-61228204D01*
X155839000Y-61227000D01*
X157089000Y-61227000D01*
X157113504Y-61228204D01*
X157113504Y-61228204D01*
G37*
D13*
X156464000Y-61939500D03*
G04 #@! TD*
D12*
G04 #@! TO.C,R29*
G36*
X139244004Y-60848204D02*
X139268273Y-60851804D01*
X139292071Y-60857765D01*
X139315171Y-60866030D01*
X139337349Y-60876520D01*
X139358393Y-60889133D01*
X139378098Y-60903747D01*
X139396277Y-60920223D01*
X139412753Y-60938402D01*
X139427367Y-60958107D01*
X139439980Y-60979151D01*
X139450470Y-61001329D01*
X139458735Y-61024429D01*
X139464696Y-61048227D01*
X139468296Y-61072496D01*
X139469500Y-61097000D01*
X139469500Y-62347000D01*
X139468296Y-62371504D01*
X139464696Y-62395773D01*
X139458735Y-62419571D01*
X139450470Y-62442671D01*
X139439980Y-62464849D01*
X139427367Y-62485893D01*
X139412753Y-62505598D01*
X139396277Y-62523777D01*
X139378098Y-62540253D01*
X139358393Y-62554867D01*
X139337349Y-62567480D01*
X139315171Y-62577970D01*
X139292071Y-62586235D01*
X139268273Y-62592196D01*
X139244004Y-62595796D01*
X139219500Y-62597000D01*
X138294500Y-62597000D01*
X138269996Y-62595796D01*
X138245727Y-62592196D01*
X138221929Y-62586235D01*
X138198829Y-62577970D01*
X138176651Y-62567480D01*
X138155607Y-62554867D01*
X138135902Y-62540253D01*
X138117723Y-62523777D01*
X138101247Y-62505598D01*
X138086633Y-62485893D01*
X138074020Y-62464849D01*
X138063530Y-62442671D01*
X138055265Y-62419571D01*
X138049304Y-62395773D01*
X138045704Y-62371504D01*
X138044500Y-62347000D01*
X138044500Y-61097000D01*
X138045704Y-61072496D01*
X138049304Y-61048227D01*
X138055265Y-61024429D01*
X138063530Y-61001329D01*
X138074020Y-60979151D01*
X138086633Y-60958107D01*
X138101247Y-60938402D01*
X138117723Y-60920223D01*
X138135902Y-60903747D01*
X138155607Y-60889133D01*
X138176651Y-60876520D01*
X138198829Y-60866030D01*
X138221929Y-60857765D01*
X138245727Y-60851804D01*
X138269996Y-60848204D01*
X138294500Y-60847000D01*
X139219500Y-60847000D01*
X139244004Y-60848204D01*
X139244004Y-60848204D01*
G37*
D13*
X138757000Y-61722000D03*
D12*
G36*
X142219004Y-60848204D02*
X142243273Y-60851804D01*
X142267071Y-60857765D01*
X142290171Y-60866030D01*
X142312349Y-60876520D01*
X142333393Y-60889133D01*
X142353098Y-60903747D01*
X142371277Y-60920223D01*
X142387753Y-60938402D01*
X142402367Y-60958107D01*
X142414980Y-60979151D01*
X142425470Y-61001329D01*
X142433735Y-61024429D01*
X142439696Y-61048227D01*
X142443296Y-61072496D01*
X142444500Y-61097000D01*
X142444500Y-62347000D01*
X142443296Y-62371504D01*
X142439696Y-62395773D01*
X142433735Y-62419571D01*
X142425470Y-62442671D01*
X142414980Y-62464849D01*
X142402367Y-62485893D01*
X142387753Y-62505598D01*
X142371277Y-62523777D01*
X142353098Y-62540253D01*
X142333393Y-62554867D01*
X142312349Y-62567480D01*
X142290171Y-62577970D01*
X142267071Y-62586235D01*
X142243273Y-62592196D01*
X142219004Y-62595796D01*
X142194500Y-62597000D01*
X141269500Y-62597000D01*
X141244996Y-62595796D01*
X141220727Y-62592196D01*
X141196929Y-62586235D01*
X141173829Y-62577970D01*
X141151651Y-62567480D01*
X141130607Y-62554867D01*
X141110902Y-62540253D01*
X141092723Y-62523777D01*
X141076247Y-62505598D01*
X141061633Y-62485893D01*
X141049020Y-62464849D01*
X141038530Y-62442671D01*
X141030265Y-62419571D01*
X141024304Y-62395773D01*
X141020704Y-62371504D01*
X141019500Y-62347000D01*
X141019500Y-61097000D01*
X141020704Y-61072496D01*
X141024304Y-61048227D01*
X141030265Y-61024429D01*
X141038530Y-61001329D01*
X141049020Y-60979151D01*
X141061633Y-60958107D01*
X141076247Y-60938402D01*
X141092723Y-60920223D01*
X141110902Y-60903747D01*
X141130607Y-60889133D01*
X141151651Y-60876520D01*
X141173829Y-60866030D01*
X141196929Y-60857765D01*
X141220727Y-60851804D01*
X141244996Y-60848204D01*
X141269500Y-60847000D01*
X142194500Y-60847000D01*
X142219004Y-60848204D01*
X142219004Y-60848204D01*
G37*
D13*
X141732000Y-61722000D03*
G04 #@! TD*
D17*
G04 #@! TO.C,RESET_CAP_JUMPER1*
X146080000Y-72136000D03*
D12*
G36*
X146080000Y-71386602D02*
X146104534Y-71386602D01*
X146153365Y-71391412D01*
X146201490Y-71400984D01*
X146248445Y-71415228D01*
X146293778Y-71434005D01*
X146337051Y-71457136D01*
X146377850Y-71484396D01*
X146415779Y-71515524D01*
X146450476Y-71550221D01*
X146481604Y-71588150D01*
X146508864Y-71628949D01*
X146531995Y-71672222D01*
X146550772Y-71717555D01*
X146565016Y-71764510D01*
X146574588Y-71812635D01*
X146579398Y-71861466D01*
X146579398Y-71886000D01*
X146580000Y-71886000D01*
X146580000Y-72386000D01*
X146579398Y-72386000D01*
X146579398Y-72410534D01*
X146574588Y-72459365D01*
X146565016Y-72507490D01*
X146550772Y-72554445D01*
X146531995Y-72599778D01*
X146508864Y-72643051D01*
X146481604Y-72683850D01*
X146450476Y-72721779D01*
X146415779Y-72756476D01*
X146377850Y-72787604D01*
X146337051Y-72814864D01*
X146293778Y-72837995D01*
X146248445Y-72856772D01*
X146201490Y-72871016D01*
X146153365Y-72880588D01*
X146104534Y-72885398D01*
X146080000Y-72885398D01*
X146080000Y-72886000D01*
X145580000Y-72886000D01*
X145580000Y-71386000D01*
X146080000Y-71386000D01*
X146080000Y-71386602D01*
X146080000Y-71386602D01*
G37*
D17*
X144780000Y-72136000D03*
D12*
G36*
X145280000Y-71836000D02*
X145680000Y-71836000D01*
X145680000Y-72436000D01*
X145280000Y-72436000D01*
X145280000Y-72886000D01*
X144780000Y-72886000D01*
X144780000Y-72885398D01*
X144755466Y-72885398D01*
X144706635Y-72880588D01*
X144658510Y-72871016D01*
X144611555Y-72856772D01*
X144566222Y-72837995D01*
X144522949Y-72814864D01*
X144482150Y-72787604D01*
X144444221Y-72756476D01*
X144409524Y-72721779D01*
X144378396Y-72683850D01*
X144351136Y-72643051D01*
X144328005Y-72599778D01*
X144309228Y-72554445D01*
X144294984Y-72507490D01*
X144285412Y-72459365D01*
X144280602Y-72410534D01*
X144280602Y-72386000D01*
X144280000Y-72386000D01*
X144280000Y-71886000D01*
X144280602Y-71886000D01*
X144280602Y-71861466D01*
X144285412Y-71812635D01*
X144294984Y-71764510D01*
X144309228Y-71717555D01*
X144328005Y-71672222D01*
X144351136Y-71628949D01*
X144378396Y-71588150D01*
X144409524Y-71550221D01*
X144444221Y-71515524D01*
X144482150Y-71484396D01*
X144522949Y-71457136D01*
X144566222Y-71434005D01*
X144611555Y-71415228D01*
X144658510Y-71400984D01*
X144706635Y-71391412D01*
X144755466Y-71386602D01*
X144780000Y-71386602D01*
X144780000Y-71386000D01*
X145280000Y-71386000D01*
X145280000Y-71836000D01*
X145280000Y-71836000D01*
G37*
G04 #@! TD*
D18*
G04 #@! TO.C,Serial_conn1*
X135128000Y-61722000D03*
X135128000Y-59182000D03*
X135128000Y-56642000D03*
D19*
X135128000Y-54102000D03*
G04 #@! TD*
D12*
G04 #@! TO.C,C4*
G36*
X149113504Y-71262204D02*
X149137773Y-71265804D01*
X149161571Y-71271765D01*
X149184671Y-71280030D01*
X149206849Y-71290520D01*
X149227893Y-71303133D01*
X149247598Y-71317747D01*
X149265777Y-71334223D01*
X149282253Y-71352402D01*
X149296867Y-71372107D01*
X149309480Y-71393151D01*
X149319970Y-71415329D01*
X149328235Y-71438429D01*
X149334196Y-71462227D01*
X149337796Y-71486496D01*
X149339000Y-71511000D01*
X149339000Y-72761000D01*
X149337796Y-72785504D01*
X149334196Y-72809773D01*
X149328235Y-72833571D01*
X149319970Y-72856671D01*
X149309480Y-72878849D01*
X149296867Y-72899893D01*
X149282253Y-72919598D01*
X149265777Y-72937777D01*
X149247598Y-72954253D01*
X149227893Y-72968867D01*
X149206849Y-72981480D01*
X149184671Y-72991970D01*
X149161571Y-73000235D01*
X149137773Y-73006196D01*
X149113504Y-73009796D01*
X149089000Y-73011000D01*
X148164000Y-73011000D01*
X148139496Y-73009796D01*
X148115227Y-73006196D01*
X148091429Y-73000235D01*
X148068329Y-72991970D01*
X148046151Y-72981480D01*
X148025107Y-72968867D01*
X148005402Y-72954253D01*
X147987223Y-72937777D01*
X147970747Y-72919598D01*
X147956133Y-72899893D01*
X147943520Y-72878849D01*
X147933030Y-72856671D01*
X147924765Y-72833571D01*
X147918804Y-72809773D01*
X147915204Y-72785504D01*
X147914000Y-72761000D01*
X147914000Y-71511000D01*
X147915204Y-71486496D01*
X147918804Y-71462227D01*
X147924765Y-71438429D01*
X147933030Y-71415329D01*
X147943520Y-71393151D01*
X147956133Y-71372107D01*
X147970747Y-71352402D01*
X147987223Y-71334223D01*
X148005402Y-71317747D01*
X148025107Y-71303133D01*
X148046151Y-71290520D01*
X148068329Y-71280030D01*
X148091429Y-71271765D01*
X148115227Y-71265804D01*
X148139496Y-71262204D01*
X148164000Y-71261000D01*
X149089000Y-71261000D01*
X149113504Y-71262204D01*
X149113504Y-71262204D01*
G37*
D13*
X148626500Y-72136000D03*
D12*
G36*
X152088504Y-71262204D02*
X152112773Y-71265804D01*
X152136571Y-71271765D01*
X152159671Y-71280030D01*
X152181849Y-71290520D01*
X152202893Y-71303133D01*
X152222598Y-71317747D01*
X152240777Y-71334223D01*
X152257253Y-71352402D01*
X152271867Y-71372107D01*
X152284480Y-71393151D01*
X152294970Y-71415329D01*
X152303235Y-71438429D01*
X152309196Y-71462227D01*
X152312796Y-71486496D01*
X152314000Y-71511000D01*
X152314000Y-72761000D01*
X152312796Y-72785504D01*
X152309196Y-72809773D01*
X152303235Y-72833571D01*
X152294970Y-72856671D01*
X152284480Y-72878849D01*
X152271867Y-72899893D01*
X152257253Y-72919598D01*
X152240777Y-72937777D01*
X152222598Y-72954253D01*
X152202893Y-72968867D01*
X152181849Y-72981480D01*
X152159671Y-72991970D01*
X152136571Y-73000235D01*
X152112773Y-73006196D01*
X152088504Y-73009796D01*
X152064000Y-73011000D01*
X151139000Y-73011000D01*
X151114496Y-73009796D01*
X151090227Y-73006196D01*
X151066429Y-73000235D01*
X151043329Y-72991970D01*
X151021151Y-72981480D01*
X151000107Y-72968867D01*
X150980402Y-72954253D01*
X150962223Y-72937777D01*
X150945747Y-72919598D01*
X150931133Y-72899893D01*
X150918520Y-72878849D01*
X150908030Y-72856671D01*
X150899765Y-72833571D01*
X150893804Y-72809773D01*
X150890204Y-72785504D01*
X150889000Y-72761000D01*
X150889000Y-71511000D01*
X150890204Y-71486496D01*
X150893804Y-71462227D01*
X150899765Y-71438429D01*
X150908030Y-71415329D01*
X150918520Y-71393151D01*
X150931133Y-71372107D01*
X150945747Y-71352402D01*
X150962223Y-71334223D01*
X150980402Y-71317747D01*
X151000107Y-71303133D01*
X151021151Y-71290520D01*
X151043329Y-71280030D01*
X151066429Y-71271765D01*
X151090227Y-71265804D01*
X151114496Y-71262204D01*
X151139000Y-71261000D01*
X152064000Y-71261000D01*
X152088504Y-71262204D01*
X152088504Y-71262204D01*
G37*
D13*
X151601500Y-72136000D03*
G04 #@! TD*
D20*
G04 #@! TO.C,SIGNAL_SOCKET1*
X91440000Y-168772000D03*
X91440000Y-165272000D03*
X91440000Y-161772000D03*
X91440000Y-158272000D03*
X91440000Y-154772000D03*
X91440000Y-151272000D03*
X91440000Y-147772000D03*
D12*
G36*
X93014504Y-143373204D02*
X93038773Y-143376804D01*
X93062571Y-143382765D01*
X93085671Y-143391030D01*
X93107849Y-143401520D01*
X93128893Y-143414133D01*
X93148598Y-143428747D01*
X93166777Y-143445223D01*
X93183253Y-143463402D01*
X93197867Y-143483107D01*
X93210480Y-143504151D01*
X93220970Y-143526329D01*
X93229235Y-143549429D01*
X93235196Y-143573227D01*
X93238796Y-143597496D01*
X93240000Y-143622000D01*
X93240000Y-144922000D01*
X93238796Y-144946504D01*
X93235196Y-144970773D01*
X93229235Y-144994571D01*
X93220970Y-145017671D01*
X93210480Y-145039849D01*
X93197867Y-145060893D01*
X93183253Y-145080598D01*
X93166777Y-145098777D01*
X93148598Y-145115253D01*
X93128893Y-145129867D01*
X93107849Y-145142480D01*
X93085671Y-145152970D01*
X93062571Y-145161235D01*
X93038773Y-145167196D01*
X93014504Y-145170796D01*
X92990000Y-145172000D01*
X89890000Y-145172000D01*
X89865496Y-145170796D01*
X89841227Y-145167196D01*
X89817429Y-145161235D01*
X89794329Y-145152970D01*
X89772151Y-145142480D01*
X89751107Y-145129867D01*
X89731402Y-145115253D01*
X89713223Y-145098777D01*
X89696747Y-145080598D01*
X89682133Y-145060893D01*
X89669520Y-145039849D01*
X89659030Y-145017671D01*
X89650765Y-144994571D01*
X89644804Y-144970773D01*
X89641204Y-144946504D01*
X89640000Y-144922000D01*
X89640000Y-143622000D01*
X89641204Y-143597496D01*
X89644804Y-143573227D01*
X89650765Y-143549429D01*
X89659030Y-143526329D01*
X89669520Y-143504151D01*
X89682133Y-143483107D01*
X89696747Y-143463402D01*
X89713223Y-143445223D01*
X89731402Y-143428747D01*
X89751107Y-143414133D01*
X89772151Y-143401520D01*
X89794329Y-143391030D01*
X89817429Y-143382765D01*
X89841227Y-143376804D01*
X89865496Y-143373204D01*
X89890000Y-143372000D01*
X92990000Y-143372000D01*
X93014504Y-143373204D01*
X93014504Y-143373204D01*
G37*
D21*
X91440000Y-144272000D03*
G04 #@! TD*
D20*
G04 #@! TO.C,Z_PLUG_SOCKET1*
X91567000Y-137657000D03*
X91567000Y-134157000D03*
X91567000Y-130657000D03*
X91567000Y-127157000D03*
X91567000Y-123657000D03*
X91567000Y-120157000D03*
X91567000Y-116657000D03*
D12*
G36*
X93141504Y-112258204D02*
X93165773Y-112261804D01*
X93189571Y-112267765D01*
X93212671Y-112276030D01*
X93234849Y-112286520D01*
X93255893Y-112299133D01*
X93275598Y-112313747D01*
X93293777Y-112330223D01*
X93310253Y-112348402D01*
X93324867Y-112368107D01*
X93337480Y-112389151D01*
X93347970Y-112411329D01*
X93356235Y-112434429D01*
X93362196Y-112458227D01*
X93365796Y-112482496D01*
X93367000Y-112507000D01*
X93367000Y-113807000D01*
X93365796Y-113831504D01*
X93362196Y-113855773D01*
X93356235Y-113879571D01*
X93347970Y-113902671D01*
X93337480Y-113924849D01*
X93324867Y-113945893D01*
X93310253Y-113965598D01*
X93293777Y-113983777D01*
X93275598Y-114000253D01*
X93255893Y-114014867D01*
X93234849Y-114027480D01*
X93212671Y-114037970D01*
X93189571Y-114046235D01*
X93165773Y-114052196D01*
X93141504Y-114055796D01*
X93117000Y-114057000D01*
X90017000Y-114057000D01*
X89992496Y-114055796D01*
X89968227Y-114052196D01*
X89944429Y-114046235D01*
X89921329Y-114037970D01*
X89899151Y-114027480D01*
X89878107Y-114014867D01*
X89858402Y-114000253D01*
X89840223Y-113983777D01*
X89823747Y-113965598D01*
X89809133Y-113945893D01*
X89796520Y-113924849D01*
X89786030Y-113902671D01*
X89777765Y-113879571D01*
X89771804Y-113855773D01*
X89768204Y-113831504D01*
X89767000Y-113807000D01*
X89767000Y-112507000D01*
X89768204Y-112482496D01*
X89771804Y-112458227D01*
X89777765Y-112434429D01*
X89786030Y-112411329D01*
X89796520Y-112389151D01*
X89809133Y-112368107D01*
X89823747Y-112348402D01*
X89840223Y-112330223D01*
X89858402Y-112313747D01*
X89878107Y-112299133D01*
X89899151Y-112286520D01*
X89921329Y-112276030D01*
X89944429Y-112267765D01*
X89968227Y-112261804D01*
X89992496Y-112258204D01*
X90017000Y-112257000D01*
X93117000Y-112257000D01*
X93141504Y-112258204D01*
X93141504Y-112258204D01*
G37*
D21*
X91567000Y-113157000D03*
G04 #@! TD*
D16*
G04 #@! TO.C,U3*
X114805500Y-136207500D03*
X124335500Y-138747500D03*
X114805500Y-138747500D03*
X124335500Y-136207500D03*
G04 #@! TD*
D22*
G04 #@! TO.C,U17*
X109982000Y-158811000D03*
X107442000Y-168341000D03*
X107442000Y-158811000D03*
X109982000Y-168341000D03*
G04 #@! TD*
D12*
G04 #@! TO.C,R28*
G36*
X101615504Y-167274204D02*
X101639773Y-167277804D01*
X101663571Y-167283765D01*
X101686671Y-167292030D01*
X101708849Y-167302520D01*
X101729893Y-167315133D01*
X101749598Y-167329747D01*
X101767777Y-167346223D01*
X101784253Y-167364402D01*
X101798867Y-167384107D01*
X101811480Y-167405151D01*
X101821970Y-167427329D01*
X101830235Y-167450429D01*
X101836196Y-167474227D01*
X101839796Y-167498496D01*
X101841000Y-167523000D01*
X101841000Y-168773000D01*
X101839796Y-168797504D01*
X101836196Y-168821773D01*
X101830235Y-168845571D01*
X101821970Y-168868671D01*
X101811480Y-168890849D01*
X101798867Y-168911893D01*
X101784253Y-168931598D01*
X101767777Y-168949777D01*
X101749598Y-168966253D01*
X101729893Y-168980867D01*
X101708849Y-168993480D01*
X101686671Y-169003970D01*
X101663571Y-169012235D01*
X101639773Y-169018196D01*
X101615504Y-169021796D01*
X101591000Y-169023000D01*
X100666000Y-169023000D01*
X100641496Y-169021796D01*
X100617227Y-169018196D01*
X100593429Y-169012235D01*
X100570329Y-169003970D01*
X100548151Y-168993480D01*
X100527107Y-168980867D01*
X100507402Y-168966253D01*
X100489223Y-168949777D01*
X100472747Y-168931598D01*
X100458133Y-168911893D01*
X100445520Y-168890849D01*
X100435030Y-168868671D01*
X100426765Y-168845571D01*
X100420804Y-168821773D01*
X100417204Y-168797504D01*
X100416000Y-168773000D01*
X100416000Y-167523000D01*
X100417204Y-167498496D01*
X100420804Y-167474227D01*
X100426765Y-167450429D01*
X100435030Y-167427329D01*
X100445520Y-167405151D01*
X100458133Y-167384107D01*
X100472747Y-167364402D01*
X100489223Y-167346223D01*
X100507402Y-167329747D01*
X100527107Y-167315133D01*
X100548151Y-167302520D01*
X100570329Y-167292030D01*
X100593429Y-167283765D01*
X100617227Y-167277804D01*
X100641496Y-167274204D01*
X100666000Y-167273000D01*
X101591000Y-167273000D01*
X101615504Y-167274204D01*
X101615504Y-167274204D01*
G37*
D13*
X101128500Y-168148000D03*
D12*
G36*
X104590504Y-167274204D02*
X104614773Y-167277804D01*
X104638571Y-167283765D01*
X104661671Y-167292030D01*
X104683849Y-167302520D01*
X104704893Y-167315133D01*
X104724598Y-167329747D01*
X104742777Y-167346223D01*
X104759253Y-167364402D01*
X104773867Y-167384107D01*
X104786480Y-167405151D01*
X104796970Y-167427329D01*
X104805235Y-167450429D01*
X104811196Y-167474227D01*
X104814796Y-167498496D01*
X104816000Y-167523000D01*
X104816000Y-168773000D01*
X104814796Y-168797504D01*
X104811196Y-168821773D01*
X104805235Y-168845571D01*
X104796970Y-168868671D01*
X104786480Y-168890849D01*
X104773867Y-168911893D01*
X104759253Y-168931598D01*
X104742777Y-168949777D01*
X104724598Y-168966253D01*
X104704893Y-168980867D01*
X104683849Y-168993480D01*
X104661671Y-169003970D01*
X104638571Y-169012235D01*
X104614773Y-169018196D01*
X104590504Y-169021796D01*
X104566000Y-169023000D01*
X103641000Y-169023000D01*
X103616496Y-169021796D01*
X103592227Y-169018196D01*
X103568429Y-169012235D01*
X103545329Y-169003970D01*
X103523151Y-168993480D01*
X103502107Y-168980867D01*
X103482402Y-168966253D01*
X103464223Y-168949777D01*
X103447747Y-168931598D01*
X103433133Y-168911893D01*
X103420520Y-168890849D01*
X103410030Y-168868671D01*
X103401765Y-168845571D01*
X103395804Y-168821773D01*
X103392204Y-168797504D01*
X103391000Y-168773000D01*
X103391000Y-167523000D01*
X103392204Y-167498496D01*
X103395804Y-167474227D01*
X103401765Y-167450429D01*
X103410030Y-167427329D01*
X103420520Y-167405151D01*
X103433133Y-167384107D01*
X103447747Y-167364402D01*
X103464223Y-167346223D01*
X103482402Y-167329747D01*
X103502107Y-167315133D01*
X103523151Y-167302520D01*
X103545329Y-167292030D01*
X103568429Y-167283765D01*
X103592227Y-167277804D01*
X103616496Y-167274204D01*
X103641000Y-167273000D01*
X104566000Y-167273000D01*
X104590504Y-167274204D01*
X104590504Y-167274204D01*
G37*
D13*
X104103500Y-168148000D03*
G04 #@! TD*
D12*
G04 #@! TO.C,R27*
G36*
X95772504Y-154519204D02*
X95796773Y-154522804D01*
X95820571Y-154528765D01*
X95843671Y-154537030D01*
X95865849Y-154547520D01*
X95886893Y-154560133D01*
X95906598Y-154574747D01*
X95924777Y-154591223D01*
X95941253Y-154609402D01*
X95955867Y-154629107D01*
X95968480Y-154650151D01*
X95978970Y-154672329D01*
X95987235Y-154695429D01*
X95993196Y-154719227D01*
X95996796Y-154743496D01*
X95998000Y-154768000D01*
X95998000Y-155693000D01*
X95996796Y-155717504D01*
X95993196Y-155741773D01*
X95987235Y-155765571D01*
X95978970Y-155788671D01*
X95968480Y-155810849D01*
X95955867Y-155831893D01*
X95941253Y-155851598D01*
X95924777Y-155869777D01*
X95906598Y-155886253D01*
X95886893Y-155900867D01*
X95865849Y-155913480D01*
X95843671Y-155923970D01*
X95820571Y-155932235D01*
X95796773Y-155938196D01*
X95772504Y-155941796D01*
X95748000Y-155943000D01*
X94498000Y-155943000D01*
X94473496Y-155941796D01*
X94449227Y-155938196D01*
X94425429Y-155932235D01*
X94402329Y-155923970D01*
X94380151Y-155913480D01*
X94359107Y-155900867D01*
X94339402Y-155886253D01*
X94321223Y-155869777D01*
X94304747Y-155851598D01*
X94290133Y-155831893D01*
X94277520Y-155810849D01*
X94267030Y-155788671D01*
X94258765Y-155765571D01*
X94252804Y-155741773D01*
X94249204Y-155717504D01*
X94248000Y-155693000D01*
X94248000Y-154768000D01*
X94249204Y-154743496D01*
X94252804Y-154719227D01*
X94258765Y-154695429D01*
X94267030Y-154672329D01*
X94277520Y-154650151D01*
X94290133Y-154629107D01*
X94304747Y-154609402D01*
X94321223Y-154591223D01*
X94339402Y-154574747D01*
X94359107Y-154560133D01*
X94380151Y-154547520D01*
X94402329Y-154537030D01*
X94425429Y-154528765D01*
X94449227Y-154522804D01*
X94473496Y-154519204D01*
X94498000Y-154518000D01*
X95748000Y-154518000D01*
X95772504Y-154519204D01*
X95772504Y-154519204D01*
G37*
D13*
X95123000Y-155230500D03*
D12*
G36*
X95772504Y-157494204D02*
X95796773Y-157497804D01*
X95820571Y-157503765D01*
X95843671Y-157512030D01*
X95865849Y-157522520D01*
X95886893Y-157535133D01*
X95906598Y-157549747D01*
X95924777Y-157566223D01*
X95941253Y-157584402D01*
X95955867Y-157604107D01*
X95968480Y-157625151D01*
X95978970Y-157647329D01*
X95987235Y-157670429D01*
X95993196Y-157694227D01*
X95996796Y-157718496D01*
X95998000Y-157743000D01*
X95998000Y-158668000D01*
X95996796Y-158692504D01*
X95993196Y-158716773D01*
X95987235Y-158740571D01*
X95978970Y-158763671D01*
X95968480Y-158785849D01*
X95955867Y-158806893D01*
X95941253Y-158826598D01*
X95924777Y-158844777D01*
X95906598Y-158861253D01*
X95886893Y-158875867D01*
X95865849Y-158888480D01*
X95843671Y-158898970D01*
X95820571Y-158907235D01*
X95796773Y-158913196D01*
X95772504Y-158916796D01*
X95748000Y-158918000D01*
X94498000Y-158918000D01*
X94473496Y-158916796D01*
X94449227Y-158913196D01*
X94425429Y-158907235D01*
X94402329Y-158898970D01*
X94380151Y-158888480D01*
X94359107Y-158875867D01*
X94339402Y-158861253D01*
X94321223Y-158844777D01*
X94304747Y-158826598D01*
X94290133Y-158806893D01*
X94277520Y-158785849D01*
X94267030Y-158763671D01*
X94258765Y-158740571D01*
X94252804Y-158716773D01*
X94249204Y-158692504D01*
X94248000Y-158668000D01*
X94248000Y-157743000D01*
X94249204Y-157718496D01*
X94252804Y-157694227D01*
X94258765Y-157670429D01*
X94267030Y-157647329D01*
X94277520Y-157625151D01*
X94290133Y-157604107D01*
X94304747Y-157584402D01*
X94321223Y-157566223D01*
X94339402Y-157549747D01*
X94359107Y-157535133D01*
X94380151Y-157522520D01*
X94402329Y-157512030D01*
X94425429Y-157503765D01*
X94449227Y-157497804D01*
X94473496Y-157494204D01*
X94498000Y-157493000D01*
X95748000Y-157493000D01*
X95772504Y-157494204D01*
X95772504Y-157494204D01*
G37*
D13*
X95123000Y-158205500D03*
G04 #@! TD*
D12*
G04 #@! TO.C,C6*
G36*
X151952965Y-77485204D02*
X151977234Y-77488804D01*
X152001032Y-77494765D01*
X152024132Y-77503030D01*
X152046310Y-77513520D01*
X152067354Y-77526133D01*
X152087059Y-77540747D01*
X152105238Y-77557223D01*
X152121714Y-77575402D01*
X152136328Y-77595107D01*
X152148941Y-77616151D01*
X152159431Y-77638329D01*
X152167696Y-77661429D01*
X152173657Y-77685227D01*
X152177257Y-77709496D01*
X152178461Y-77734000D01*
X152178461Y-78984000D01*
X152177257Y-79008504D01*
X152173657Y-79032773D01*
X152167696Y-79056571D01*
X152159431Y-79079671D01*
X152148941Y-79101849D01*
X152136328Y-79122893D01*
X152121714Y-79142598D01*
X152105238Y-79160777D01*
X152087059Y-79177253D01*
X152067354Y-79191867D01*
X152046310Y-79204480D01*
X152024132Y-79214970D01*
X152001032Y-79223235D01*
X151977234Y-79229196D01*
X151952965Y-79232796D01*
X151928461Y-79234000D01*
X151003461Y-79234000D01*
X150978957Y-79232796D01*
X150954688Y-79229196D01*
X150930890Y-79223235D01*
X150907790Y-79214970D01*
X150885612Y-79204480D01*
X150864568Y-79191867D01*
X150844863Y-79177253D01*
X150826684Y-79160777D01*
X150810208Y-79142598D01*
X150795594Y-79122893D01*
X150782981Y-79101849D01*
X150772491Y-79079671D01*
X150764226Y-79056571D01*
X150758265Y-79032773D01*
X150754665Y-79008504D01*
X150753461Y-78984000D01*
X150753461Y-77734000D01*
X150754665Y-77709496D01*
X150758265Y-77685227D01*
X150764226Y-77661429D01*
X150772491Y-77638329D01*
X150782981Y-77616151D01*
X150795594Y-77595107D01*
X150810208Y-77575402D01*
X150826684Y-77557223D01*
X150844863Y-77540747D01*
X150864568Y-77526133D01*
X150885612Y-77513520D01*
X150907790Y-77503030D01*
X150930890Y-77494765D01*
X150954688Y-77488804D01*
X150978957Y-77485204D01*
X151003461Y-77484000D01*
X151928461Y-77484000D01*
X151952965Y-77485204D01*
X151952965Y-77485204D01*
G37*
D13*
X151465961Y-78359000D03*
D12*
G36*
X148977965Y-77485204D02*
X149002234Y-77488804D01*
X149026032Y-77494765D01*
X149049132Y-77503030D01*
X149071310Y-77513520D01*
X149092354Y-77526133D01*
X149112059Y-77540747D01*
X149130238Y-77557223D01*
X149146714Y-77575402D01*
X149161328Y-77595107D01*
X149173941Y-77616151D01*
X149184431Y-77638329D01*
X149192696Y-77661429D01*
X149198657Y-77685227D01*
X149202257Y-77709496D01*
X149203461Y-77734000D01*
X149203461Y-78984000D01*
X149202257Y-79008504D01*
X149198657Y-79032773D01*
X149192696Y-79056571D01*
X149184431Y-79079671D01*
X149173941Y-79101849D01*
X149161328Y-79122893D01*
X149146714Y-79142598D01*
X149130238Y-79160777D01*
X149112059Y-79177253D01*
X149092354Y-79191867D01*
X149071310Y-79204480D01*
X149049132Y-79214970D01*
X149026032Y-79223235D01*
X149002234Y-79229196D01*
X148977965Y-79232796D01*
X148953461Y-79234000D01*
X148028461Y-79234000D01*
X148003957Y-79232796D01*
X147979688Y-79229196D01*
X147955890Y-79223235D01*
X147932790Y-79214970D01*
X147910612Y-79204480D01*
X147889568Y-79191867D01*
X147869863Y-79177253D01*
X147851684Y-79160777D01*
X147835208Y-79142598D01*
X147820594Y-79122893D01*
X147807981Y-79101849D01*
X147797491Y-79079671D01*
X147789226Y-79056571D01*
X147783265Y-79032773D01*
X147779665Y-79008504D01*
X147778461Y-78984000D01*
X147778461Y-77734000D01*
X147779665Y-77709496D01*
X147783265Y-77685227D01*
X147789226Y-77661429D01*
X147797491Y-77638329D01*
X147807981Y-77616151D01*
X147820594Y-77595107D01*
X147835208Y-77575402D01*
X147851684Y-77557223D01*
X147869863Y-77540747D01*
X147889568Y-77526133D01*
X147910612Y-77513520D01*
X147932790Y-77503030D01*
X147955890Y-77494765D01*
X147979688Y-77488804D01*
X148003957Y-77485204D01*
X148028461Y-77484000D01*
X148953461Y-77484000D01*
X148977965Y-77485204D01*
X148977965Y-77485204D01*
G37*
D13*
X148490961Y-78359000D03*
G04 #@! TD*
D12*
G04 #@! TO.C,C5*
G36*
X112536504Y-53227204D02*
X112560773Y-53230804D01*
X112584571Y-53236765D01*
X112607671Y-53245030D01*
X112629849Y-53255520D01*
X112650893Y-53268133D01*
X112670598Y-53282747D01*
X112688777Y-53299223D01*
X112705253Y-53317402D01*
X112719867Y-53337107D01*
X112732480Y-53358151D01*
X112742970Y-53380329D01*
X112751235Y-53403429D01*
X112757196Y-53427227D01*
X112760796Y-53451496D01*
X112762000Y-53476000D01*
X112762000Y-54401000D01*
X112760796Y-54425504D01*
X112757196Y-54449773D01*
X112751235Y-54473571D01*
X112742970Y-54496671D01*
X112732480Y-54518849D01*
X112719867Y-54539893D01*
X112705253Y-54559598D01*
X112688777Y-54577777D01*
X112670598Y-54594253D01*
X112650893Y-54608867D01*
X112629849Y-54621480D01*
X112607671Y-54631970D01*
X112584571Y-54640235D01*
X112560773Y-54646196D01*
X112536504Y-54649796D01*
X112512000Y-54651000D01*
X111262000Y-54651000D01*
X111237496Y-54649796D01*
X111213227Y-54646196D01*
X111189429Y-54640235D01*
X111166329Y-54631970D01*
X111144151Y-54621480D01*
X111123107Y-54608867D01*
X111103402Y-54594253D01*
X111085223Y-54577777D01*
X111068747Y-54559598D01*
X111054133Y-54539893D01*
X111041520Y-54518849D01*
X111031030Y-54496671D01*
X111022765Y-54473571D01*
X111016804Y-54449773D01*
X111013204Y-54425504D01*
X111012000Y-54401000D01*
X111012000Y-53476000D01*
X111013204Y-53451496D01*
X111016804Y-53427227D01*
X111022765Y-53403429D01*
X111031030Y-53380329D01*
X111041520Y-53358151D01*
X111054133Y-53337107D01*
X111068747Y-53317402D01*
X111085223Y-53299223D01*
X111103402Y-53282747D01*
X111123107Y-53268133D01*
X111144151Y-53255520D01*
X111166329Y-53245030D01*
X111189429Y-53236765D01*
X111213227Y-53230804D01*
X111237496Y-53227204D01*
X111262000Y-53226000D01*
X112512000Y-53226000D01*
X112536504Y-53227204D01*
X112536504Y-53227204D01*
G37*
D13*
X111887000Y-53938500D03*
D12*
G36*
X112536504Y-50252204D02*
X112560773Y-50255804D01*
X112584571Y-50261765D01*
X112607671Y-50270030D01*
X112629849Y-50280520D01*
X112650893Y-50293133D01*
X112670598Y-50307747D01*
X112688777Y-50324223D01*
X112705253Y-50342402D01*
X112719867Y-50362107D01*
X112732480Y-50383151D01*
X112742970Y-50405329D01*
X112751235Y-50428429D01*
X112757196Y-50452227D01*
X112760796Y-50476496D01*
X112762000Y-50501000D01*
X112762000Y-51426000D01*
X112760796Y-51450504D01*
X112757196Y-51474773D01*
X112751235Y-51498571D01*
X112742970Y-51521671D01*
X112732480Y-51543849D01*
X112719867Y-51564893D01*
X112705253Y-51584598D01*
X112688777Y-51602777D01*
X112670598Y-51619253D01*
X112650893Y-51633867D01*
X112629849Y-51646480D01*
X112607671Y-51656970D01*
X112584571Y-51665235D01*
X112560773Y-51671196D01*
X112536504Y-51674796D01*
X112512000Y-51676000D01*
X111262000Y-51676000D01*
X111237496Y-51674796D01*
X111213227Y-51671196D01*
X111189429Y-51665235D01*
X111166329Y-51656970D01*
X111144151Y-51646480D01*
X111123107Y-51633867D01*
X111103402Y-51619253D01*
X111085223Y-51602777D01*
X111068747Y-51584598D01*
X111054133Y-51564893D01*
X111041520Y-51543849D01*
X111031030Y-51521671D01*
X111022765Y-51498571D01*
X111016804Y-51474773D01*
X111013204Y-51450504D01*
X111012000Y-51426000D01*
X111012000Y-50501000D01*
X111013204Y-50476496D01*
X111016804Y-50452227D01*
X111022765Y-50428429D01*
X111031030Y-50405329D01*
X111041520Y-50383151D01*
X111054133Y-50362107D01*
X111068747Y-50342402D01*
X111085223Y-50324223D01*
X111103402Y-50307747D01*
X111123107Y-50293133D01*
X111144151Y-50280520D01*
X111166329Y-50270030D01*
X111189429Y-50261765D01*
X111213227Y-50255804D01*
X111237496Y-50252204D01*
X111262000Y-50251000D01*
X112512000Y-50251000D01*
X112536504Y-50252204D01*
X112536504Y-50252204D01*
G37*
D13*
X111887000Y-50963500D03*
G04 #@! TD*
D12*
G04 #@! TO.C,R26*
G36*
X148977965Y-83942409D02*
X149002234Y-83946009D01*
X149026032Y-83951970D01*
X149049132Y-83960235D01*
X149071310Y-83970725D01*
X149092354Y-83983338D01*
X149112059Y-83997952D01*
X149130238Y-84014428D01*
X149146714Y-84032607D01*
X149161328Y-84052312D01*
X149173941Y-84073356D01*
X149184431Y-84095534D01*
X149192696Y-84118634D01*
X149198657Y-84142432D01*
X149202257Y-84166701D01*
X149203461Y-84191205D01*
X149203461Y-85441205D01*
X149202257Y-85465709D01*
X149198657Y-85489978D01*
X149192696Y-85513776D01*
X149184431Y-85536876D01*
X149173941Y-85559054D01*
X149161328Y-85580098D01*
X149146714Y-85599803D01*
X149130238Y-85617982D01*
X149112059Y-85634458D01*
X149092354Y-85649072D01*
X149071310Y-85661685D01*
X149049132Y-85672175D01*
X149026032Y-85680440D01*
X149002234Y-85686401D01*
X148977965Y-85690001D01*
X148953461Y-85691205D01*
X148028461Y-85691205D01*
X148003957Y-85690001D01*
X147979688Y-85686401D01*
X147955890Y-85680440D01*
X147932790Y-85672175D01*
X147910612Y-85661685D01*
X147889568Y-85649072D01*
X147869863Y-85634458D01*
X147851684Y-85617982D01*
X147835208Y-85599803D01*
X147820594Y-85580098D01*
X147807981Y-85559054D01*
X147797491Y-85536876D01*
X147789226Y-85513776D01*
X147783265Y-85489978D01*
X147779665Y-85465709D01*
X147778461Y-85441205D01*
X147778461Y-84191205D01*
X147779665Y-84166701D01*
X147783265Y-84142432D01*
X147789226Y-84118634D01*
X147797491Y-84095534D01*
X147807981Y-84073356D01*
X147820594Y-84052312D01*
X147835208Y-84032607D01*
X147851684Y-84014428D01*
X147869863Y-83997952D01*
X147889568Y-83983338D01*
X147910612Y-83970725D01*
X147932790Y-83960235D01*
X147955890Y-83951970D01*
X147979688Y-83946009D01*
X148003957Y-83942409D01*
X148028461Y-83941205D01*
X148953461Y-83941205D01*
X148977965Y-83942409D01*
X148977965Y-83942409D01*
G37*
D13*
X148490961Y-84816205D03*
D12*
G36*
X151952965Y-83942409D02*
X151977234Y-83946009D01*
X152001032Y-83951970D01*
X152024132Y-83960235D01*
X152046310Y-83970725D01*
X152067354Y-83983338D01*
X152087059Y-83997952D01*
X152105238Y-84014428D01*
X152121714Y-84032607D01*
X152136328Y-84052312D01*
X152148941Y-84073356D01*
X152159431Y-84095534D01*
X152167696Y-84118634D01*
X152173657Y-84142432D01*
X152177257Y-84166701D01*
X152178461Y-84191205D01*
X152178461Y-85441205D01*
X152177257Y-85465709D01*
X152173657Y-85489978D01*
X152167696Y-85513776D01*
X152159431Y-85536876D01*
X152148941Y-85559054D01*
X152136328Y-85580098D01*
X152121714Y-85599803D01*
X152105238Y-85617982D01*
X152087059Y-85634458D01*
X152067354Y-85649072D01*
X152046310Y-85661685D01*
X152024132Y-85672175D01*
X152001032Y-85680440D01*
X151977234Y-85686401D01*
X151952965Y-85690001D01*
X151928461Y-85691205D01*
X151003461Y-85691205D01*
X150978957Y-85690001D01*
X150954688Y-85686401D01*
X150930890Y-85680440D01*
X150907790Y-85672175D01*
X150885612Y-85661685D01*
X150864568Y-85649072D01*
X150844863Y-85634458D01*
X150826684Y-85617982D01*
X150810208Y-85599803D01*
X150795594Y-85580098D01*
X150782981Y-85559054D01*
X150772491Y-85536876D01*
X150764226Y-85513776D01*
X150758265Y-85489978D01*
X150754665Y-85465709D01*
X150753461Y-85441205D01*
X150753461Y-84191205D01*
X150754665Y-84166701D01*
X150758265Y-84142432D01*
X150764226Y-84118634D01*
X150772491Y-84095534D01*
X150782981Y-84073356D01*
X150795594Y-84052312D01*
X150810208Y-84032607D01*
X150826684Y-84014428D01*
X150844863Y-83997952D01*
X150864568Y-83983338D01*
X150885612Y-83970725D01*
X150907790Y-83960235D01*
X150930890Y-83951970D01*
X150954688Y-83946009D01*
X150978957Y-83942409D01*
X151003461Y-83941205D01*
X151928461Y-83941205D01*
X151952965Y-83942409D01*
X151952965Y-83942409D01*
G37*
D13*
X151465961Y-84816205D03*
G04 #@! TD*
D12*
G04 #@! TO.C,R25*
G36*
X142763504Y-103583704D02*
X142787773Y-103587304D01*
X142811571Y-103593265D01*
X142834671Y-103601530D01*
X142856849Y-103612020D01*
X142877893Y-103624633D01*
X142897598Y-103639247D01*
X142915777Y-103655723D01*
X142932253Y-103673902D01*
X142946867Y-103693607D01*
X142959480Y-103714651D01*
X142969970Y-103736829D01*
X142978235Y-103759929D01*
X142984196Y-103783727D01*
X142987796Y-103807996D01*
X142989000Y-103832500D01*
X142989000Y-105082500D01*
X142987796Y-105107004D01*
X142984196Y-105131273D01*
X142978235Y-105155071D01*
X142969970Y-105178171D01*
X142959480Y-105200349D01*
X142946867Y-105221393D01*
X142932253Y-105241098D01*
X142915777Y-105259277D01*
X142897598Y-105275753D01*
X142877893Y-105290367D01*
X142856849Y-105302980D01*
X142834671Y-105313470D01*
X142811571Y-105321735D01*
X142787773Y-105327696D01*
X142763504Y-105331296D01*
X142739000Y-105332500D01*
X141814000Y-105332500D01*
X141789496Y-105331296D01*
X141765227Y-105327696D01*
X141741429Y-105321735D01*
X141718329Y-105313470D01*
X141696151Y-105302980D01*
X141675107Y-105290367D01*
X141655402Y-105275753D01*
X141637223Y-105259277D01*
X141620747Y-105241098D01*
X141606133Y-105221393D01*
X141593520Y-105200349D01*
X141583030Y-105178171D01*
X141574765Y-105155071D01*
X141568804Y-105131273D01*
X141565204Y-105107004D01*
X141564000Y-105082500D01*
X141564000Y-103832500D01*
X141565204Y-103807996D01*
X141568804Y-103783727D01*
X141574765Y-103759929D01*
X141583030Y-103736829D01*
X141593520Y-103714651D01*
X141606133Y-103693607D01*
X141620747Y-103673902D01*
X141637223Y-103655723D01*
X141655402Y-103639247D01*
X141675107Y-103624633D01*
X141696151Y-103612020D01*
X141718329Y-103601530D01*
X141741429Y-103593265D01*
X141765227Y-103587304D01*
X141789496Y-103583704D01*
X141814000Y-103582500D01*
X142739000Y-103582500D01*
X142763504Y-103583704D01*
X142763504Y-103583704D01*
G37*
D13*
X142276500Y-104457500D03*
D12*
G36*
X145738504Y-103583704D02*
X145762773Y-103587304D01*
X145786571Y-103593265D01*
X145809671Y-103601530D01*
X145831849Y-103612020D01*
X145852893Y-103624633D01*
X145872598Y-103639247D01*
X145890777Y-103655723D01*
X145907253Y-103673902D01*
X145921867Y-103693607D01*
X145934480Y-103714651D01*
X145944970Y-103736829D01*
X145953235Y-103759929D01*
X145959196Y-103783727D01*
X145962796Y-103807996D01*
X145964000Y-103832500D01*
X145964000Y-105082500D01*
X145962796Y-105107004D01*
X145959196Y-105131273D01*
X145953235Y-105155071D01*
X145944970Y-105178171D01*
X145934480Y-105200349D01*
X145921867Y-105221393D01*
X145907253Y-105241098D01*
X145890777Y-105259277D01*
X145872598Y-105275753D01*
X145852893Y-105290367D01*
X145831849Y-105302980D01*
X145809671Y-105313470D01*
X145786571Y-105321735D01*
X145762773Y-105327696D01*
X145738504Y-105331296D01*
X145714000Y-105332500D01*
X144789000Y-105332500D01*
X144764496Y-105331296D01*
X144740227Y-105327696D01*
X144716429Y-105321735D01*
X144693329Y-105313470D01*
X144671151Y-105302980D01*
X144650107Y-105290367D01*
X144630402Y-105275753D01*
X144612223Y-105259277D01*
X144595747Y-105241098D01*
X144581133Y-105221393D01*
X144568520Y-105200349D01*
X144558030Y-105178171D01*
X144549765Y-105155071D01*
X144543804Y-105131273D01*
X144540204Y-105107004D01*
X144539000Y-105082500D01*
X144539000Y-103832500D01*
X144540204Y-103807996D01*
X144543804Y-103783727D01*
X144549765Y-103759929D01*
X144558030Y-103736829D01*
X144568520Y-103714651D01*
X144581133Y-103693607D01*
X144595747Y-103673902D01*
X144612223Y-103655723D01*
X144630402Y-103639247D01*
X144650107Y-103624633D01*
X144671151Y-103612020D01*
X144693329Y-103601530D01*
X144716429Y-103593265D01*
X144740227Y-103587304D01*
X144764496Y-103583704D01*
X144789000Y-103582500D01*
X145714000Y-103582500D01*
X145738504Y-103583704D01*
X145738504Y-103583704D01*
G37*
D13*
X145251500Y-104457500D03*
G04 #@! TD*
D12*
G04 #@! TO.C,R24*
G36*
X142790504Y-100789704D02*
X142814773Y-100793304D01*
X142838571Y-100799265D01*
X142861671Y-100807530D01*
X142883849Y-100818020D01*
X142904893Y-100830633D01*
X142924598Y-100845247D01*
X142942777Y-100861723D01*
X142959253Y-100879902D01*
X142973867Y-100899607D01*
X142986480Y-100920651D01*
X142996970Y-100942829D01*
X143005235Y-100965929D01*
X143011196Y-100989727D01*
X143014796Y-101013996D01*
X143016000Y-101038500D01*
X143016000Y-102288500D01*
X143014796Y-102313004D01*
X143011196Y-102337273D01*
X143005235Y-102361071D01*
X142996970Y-102384171D01*
X142986480Y-102406349D01*
X142973867Y-102427393D01*
X142959253Y-102447098D01*
X142942777Y-102465277D01*
X142924598Y-102481753D01*
X142904893Y-102496367D01*
X142883849Y-102508980D01*
X142861671Y-102519470D01*
X142838571Y-102527735D01*
X142814773Y-102533696D01*
X142790504Y-102537296D01*
X142766000Y-102538500D01*
X141841000Y-102538500D01*
X141816496Y-102537296D01*
X141792227Y-102533696D01*
X141768429Y-102527735D01*
X141745329Y-102519470D01*
X141723151Y-102508980D01*
X141702107Y-102496367D01*
X141682402Y-102481753D01*
X141664223Y-102465277D01*
X141647747Y-102447098D01*
X141633133Y-102427393D01*
X141620520Y-102406349D01*
X141610030Y-102384171D01*
X141601765Y-102361071D01*
X141595804Y-102337273D01*
X141592204Y-102313004D01*
X141591000Y-102288500D01*
X141591000Y-101038500D01*
X141592204Y-101013996D01*
X141595804Y-100989727D01*
X141601765Y-100965929D01*
X141610030Y-100942829D01*
X141620520Y-100920651D01*
X141633133Y-100899607D01*
X141647747Y-100879902D01*
X141664223Y-100861723D01*
X141682402Y-100845247D01*
X141702107Y-100830633D01*
X141723151Y-100818020D01*
X141745329Y-100807530D01*
X141768429Y-100799265D01*
X141792227Y-100793304D01*
X141816496Y-100789704D01*
X141841000Y-100788500D01*
X142766000Y-100788500D01*
X142790504Y-100789704D01*
X142790504Y-100789704D01*
G37*
D13*
X142303500Y-101663500D03*
D12*
G36*
X145765504Y-100789704D02*
X145789773Y-100793304D01*
X145813571Y-100799265D01*
X145836671Y-100807530D01*
X145858849Y-100818020D01*
X145879893Y-100830633D01*
X145899598Y-100845247D01*
X145917777Y-100861723D01*
X145934253Y-100879902D01*
X145948867Y-100899607D01*
X145961480Y-100920651D01*
X145971970Y-100942829D01*
X145980235Y-100965929D01*
X145986196Y-100989727D01*
X145989796Y-101013996D01*
X145991000Y-101038500D01*
X145991000Y-102288500D01*
X145989796Y-102313004D01*
X145986196Y-102337273D01*
X145980235Y-102361071D01*
X145971970Y-102384171D01*
X145961480Y-102406349D01*
X145948867Y-102427393D01*
X145934253Y-102447098D01*
X145917777Y-102465277D01*
X145899598Y-102481753D01*
X145879893Y-102496367D01*
X145858849Y-102508980D01*
X145836671Y-102519470D01*
X145813571Y-102527735D01*
X145789773Y-102533696D01*
X145765504Y-102537296D01*
X145741000Y-102538500D01*
X144816000Y-102538500D01*
X144791496Y-102537296D01*
X144767227Y-102533696D01*
X144743429Y-102527735D01*
X144720329Y-102519470D01*
X144698151Y-102508980D01*
X144677107Y-102496367D01*
X144657402Y-102481753D01*
X144639223Y-102465277D01*
X144622747Y-102447098D01*
X144608133Y-102427393D01*
X144595520Y-102406349D01*
X144585030Y-102384171D01*
X144576765Y-102361071D01*
X144570804Y-102337273D01*
X144567204Y-102313004D01*
X144566000Y-102288500D01*
X144566000Y-101038500D01*
X144567204Y-101013996D01*
X144570804Y-100989727D01*
X144576765Y-100965929D01*
X144585030Y-100942829D01*
X144595520Y-100920651D01*
X144608133Y-100899607D01*
X144622747Y-100879902D01*
X144639223Y-100861723D01*
X144657402Y-100845247D01*
X144677107Y-100830633D01*
X144698151Y-100818020D01*
X144720329Y-100807530D01*
X144743429Y-100799265D01*
X144767227Y-100793304D01*
X144791496Y-100789704D01*
X144816000Y-100788500D01*
X145741000Y-100788500D01*
X145765504Y-100789704D01*
X145765504Y-100789704D01*
G37*
D13*
X145278500Y-101663500D03*
G04 #@! TD*
D12*
G04 #@! TO.C,R23*
G36*
X142763504Y-97995704D02*
X142787773Y-97999304D01*
X142811571Y-98005265D01*
X142834671Y-98013530D01*
X142856849Y-98024020D01*
X142877893Y-98036633D01*
X142897598Y-98051247D01*
X142915777Y-98067723D01*
X142932253Y-98085902D01*
X142946867Y-98105607D01*
X142959480Y-98126651D01*
X142969970Y-98148829D01*
X142978235Y-98171929D01*
X142984196Y-98195727D01*
X142987796Y-98219996D01*
X142989000Y-98244500D01*
X142989000Y-99494500D01*
X142987796Y-99519004D01*
X142984196Y-99543273D01*
X142978235Y-99567071D01*
X142969970Y-99590171D01*
X142959480Y-99612349D01*
X142946867Y-99633393D01*
X142932253Y-99653098D01*
X142915777Y-99671277D01*
X142897598Y-99687753D01*
X142877893Y-99702367D01*
X142856849Y-99714980D01*
X142834671Y-99725470D01*
X142811571Y-99733735D01*
X142787773Y-99739696D01*
X142763504Y-99743296D01*
X142739000Y-99744500D01*
X141814000Y-99744500D01*
X141789496Y-99743296D01*
X141765227Y-99739696D01*
X141741429Y-99733735D01*
X141718329Y-99725470D01*
X141696151Y-99714980D01*
X141675107Y-99702367D01*
X141655402Y-99687753D01*
X141637223Y-99671277D01*
X141620747Y-99653098D01*
X141606133Y-99633393D01*
X141593520Y-99612349D01*
X141583030Y-99590171D01*
X141574765Y-99567071D01*
X141568804Y-99543273D01*
X141565204Y-99519004D01*
X141564000Y-99494500D01*
X141564000Y-98244500D01*
X141565204Y-98219996D01*
X141568804Y-98195727D01*
X141574765Y-98171929D01*
X141583030Y-98148829D01*
X141593520Y-98126651D01*
X141606133Y-98105607D01*
X141620747Y-98085902D01*
X141637223Y-98067723D01*
X141655402Y-98051247D01*
X141675107Y-98036633D01*
X141696151Y-98024020D01*
X141718329Y-98013530D01*
X141741429Y-98005265D01*
X141765227Y-97999304D01*
X141789496Y-97995704D01*
X141814000Y-97994500D01*
X142739000Y-97994500D01*
X142763504Y-97995704D01*
X142763504Y-97995704D01*
G37*
D13*
X142276500Y-98869500D03*
D12*
G36*
X145738504Y-97995704D02*
X145762773Y-97999304D01*
X145786571Y-98005265D01*
X145809671Y-98013530D01*
X145831849Y-98024020D01*
X145852893Y-98036633D01*
X145872598Y-98051247D01*
X145890777Y-98067723D01*
X145907253Y-98085902D01*
X145921867Y-98105607D01*
X145934480Y-98126651D01*
X145944970Y-98148829D01*
X145953235Y-98171929D01*
X145959196Y-98195727D01*
X145962796Y-98219996D01*
X145964000Y-98244500D01*
X145964000Y-99494500D01*
X145962796Y-99519004D01*
X145959196Y-99543273D01*
X145953235Y-99567071D01*
X145944970Y-99590171D01*
X145934480Y-99612349D01*
X145921867Y-99633393D01*
X145907253Y-99653098D01*
X145890777Y-99671277D01*
X145872598Y-99687753D01*
X145852893Y-99702367D01*
X145831849Y-99714980D01*
X145809671Y-99725470D01*
X145786571Y-99733735D01*
X145762773Y-99739696D01*
X145738504Y-99743296D01*
X145714000Y-99744500D01*
X144789000Y-99744500D01*
X144764496Y-99743296D01*
X144740227Y-99739696D01*
X144716429Y-99733735D01*
X144693329Y-99725470D01*
X144671151Y-99714980D01*
X144650107Y-99702367D01*
X144630402Y-99687753D01*
X144612223Y-99671277D01*
X144595747Y-99653098D01*
X144581133Y-99633393D01*
X144568520Y-99612349D01*
X144558030Y-99590171D01*
X144549765Y-99567071D01*
X144543804Y-99543273D01*
X144540204Y-99519004D01*
X144539000Y-99494500D01*
X144539000Y-98244500D01*
X144540204Y-98219996D01*
X144543804Y-98195727D01*
X144549765Y-98171929D01*
X144558030Y-98148829D01*
X144568520Y-98126651D01*
X144581133Y-98105607D01*
X144595747Y-98085902D01*
X144612223Y-98067723D01*
X144630402Y-98051247D01*
X144650107Y-98036633D01*
X144671151Y-98024020D01*
X144693329Y-98013530D01*
X144716429Y-98005265D01*
X144740227Y-97999304D01*
X144764496Y-97995704D01*
X144789000Y-97994500D01*
X145714000Y-97994500D01*
X145738504Y-97995704D01*
X145738504Y-97995704D01*
G37*
D13*
X145251500Y-98869500D03*
G04 #@! TD*
D16*
G04 #@! TO.C,U16*
X114869000Y-148463000D03*
X124399000Y-151003000D03*
X114869000Y-151003000D03*
X124399000Y-148463000D03*
G04 #@! TD*
D12*
G04 #@! TO.C,R22*
G36*
X121608504Y-152923204D02*
X121632773Y-152926804D01*
X121656571Y-152932765D01*
X121679671Y-152941030D01*
X121701849Y-152951520D01*
X121722893Y-152964133D01*
X121742598Y-152978747D01*
X121760777Y-152995223D01*
X121777253Y-153013402D01*
X121791867Y-153033107D01*
X121804480Y-153054151D01*
X121814970Y-153076329D01*
X121823235Y-153099429D01*
X121829196Y-153123227D01*
X121832796Y-153147496D01*
X121834000Y-153172000D01*
X121834000Y-154422000D01*
X121832796Y-154446504D01*
X121829196Y-154470773D01*
X121823235Y-154494571D01*
X121814970Y-154517671D01*
X121804480Y-154539849D01*
X121791867Y-154560893D01*
X121777253Y-154580598D01*
X121760777Y-154598777D01*
X121742598Y-154615253D01*
X121722893Y-154629867D01*
X121701849Y-154642480D01*
X121679671Y-154652970D01*
X121656571Y-154661235D01*
X121632773Y-154667196D01*
X121608504Y-154670796D01*
X121584000Y-154672000D01*
X120659000Y-154672000D01*
X120634496Y-154670796D01*
X120610227Y-154667196D01*
X120586429Y-154661235D01*
X120563329Y-154652970D01*
X120541151Y-154642480D01*
X120520107Y-154629867D01*
X120500402Y-154615253D01*
X120482223Y-154598777D01*
X120465747Y-154580598D01*
X120451133Y-154560893D01*
X120438520Y-154539849D01*
X120428030Y-154517671D01*
X120419765Y-154494571D01*
X120413804Y-154470773D01*
X120410204Y-154446504D01*
X120409000Y-154422000D01*
X120409000Y-153172000D01*
X120410204Y-153147496D01*
X120413804Y-153123227D01*
X120419765Y-153099429D01*
X120428030Y-153076329D01*
X120438520Y-153054151D01*
X120451133Y-153033107D01*
X120465747Y-153013402D01*
X120482223Y-152995223D01*
X120500402Y-152978747D01*
X120520107Y-152964133D01*
X120541151Y-152951520D01*
X120563329Y-152941030D01*
X120586429Y-152932765D01*
X120610227Y-152926804D01*
X120634496Y-152923204D01*
X120659000Y-152922000D01*
X121584000Y-152922000D01*
X121608504Y-152923204D01*
X121608504Y-152923204D01*
G37*
D13*
X121121500Y-153797000D03*
D12*
G36*
X118633504Y-152923204D02*
X118657773Y-152926804D01*
X118681571Y-152932765D01*
X118704671Y-152941030D01*
X118726849Y-152951520D01*
X118747893Y-152964133D01*
X118767598Y-152978747D01*
X118785777Y-152995223D01*
X118802253Y-153013402D01*
X118816867Y-153033107D01*
X118829480Y-153054151D01*
X118839970Y-153076329D01*
X118848235Y-153099429D01*
X118854196Y-153123227D01*
X118857796Y-153147496D01*
X118859000Y-153172000D01*
X118859000Y-154422000D01*
X118857796Y-154446504D01*
X118854196Y-154470773D01*
X118848235Y-154494571D01*
X118839970Y-154517671D01*
X118829480Y-154539849D01*
X118816867Y-154560893D01*
X118802253Y-154580598D01*
X118785777Y-154598777D01*
X118767598Y-154615253D01*
X118747893Y-154629867D01*
X118726849Y-154642480D01*
X118704671Y-154652970D01*
X118681571Y-154661235D01*
X118657773Y-154667196D01*
X118633504Y-154670796D01*
X118609000Y-154672000D01*
X117684000Y-154672000D01*
X117659496Y-154670796D01*
X117635227Y-154667196D01*
X117611429Y-154661235D01*
X117588329Y-154652970D01*
X117566151Y-154642480D01*
X117545107Y-154629867D01*
X117525402Y-154615253D01*
X117507223Y-154598777D01*
X117490747Y-154580598D01*
X117476133Y-154560893D01*
X117463520Y-154539849D01*
X117453030Y-154517671D01*
X117444765Y-154494571D01*
X117438804Y-154470773D01*
X117435204Y-154446504D01*
X117434000Y-154422000D01*
X117434000Y-153172000D01*
X117435204Y-153147496D01*
X117438804Y-153123227D01*
X117444765Y-153099429D01*
X117453030Y-153076329D01*
X117463520Y-153054151D01*
X117476133Y-153033107D01*
X117490747Y-153013402D01*
X117507223Y-152995223D01*
X117525402Y-152978747D01*
X117545107Y-152964133D01*
X117566151Y-152951520D01*
X117588329Y-152941030D01*
X117611429Y-152932765D01*
X117635227Y-152926804D01*
X117659496Y-152923204D01*
X117684000Y-152922000D01*
X118609000Y-152922000D01*
X118633504Y-152923204D01*
X118633504Y-152923204D01*
G37*
D13*
X118146500Y-153797000D03*
G04 #@! TD*
D12*
G04 #@! TO.C,R21*
G36*
X151952965Y-81021409D02*
X151977234Y-81025009D01*
X152001032Y-81030970D01*
X152024132Y-81039235D01*
X152046310Y-81049725D01*
X152067354Y-81062338D01*
X152087059Y-81076952D01*
X152105238Y-81093428D01*
X152121714Y-81111607D01*
X152136328Y-81131312D01*
X152148941Y-81152356D01*
X152159431Y-81174534D01*
X152167696Y-81197634D01*
X152173657Y-81221432D01*
X152177257Y-81245701D01*
X152178461Y-81270205D01*
X152178461Y-82520205D01*
X152177257Y-82544709D01*
X152173657Y-82568978D01*
X152167696Y-82592776D01*
X152159431Y-82615876D01*
X152148941Y-82638054D01*
X152136328Y-82659098D01*
X152121714Y-82678803D01*
X152105238Y-82696982D01*
X152087059Y-82713458D01*
X152067354Y-82728072D01*
X152046310Y-82740685D01*
X152024132Y-82751175D01*
X152001032Y-82759440D01*
X151977234Y-82765401D01*
X151952965Y-82769001D01*
X151928461Y-82770205D01*
X151003461Y-82770205D01*
X150978957Y-82769001D01*
X150954688Y-82765401D01*
X150930890Y-82759440D01*
X150907790Y-82751175D01*
X150885612Y-82740685D01*
X150864568Y-82728072D01*
X150844863Y-82713458D01*
X150826684Y-82696982D01*
X150810208Y-82678803D01*
X150795594Y-82659098D01*
X150782981Y-82638054D01*
X150772491Y-82615876D01*
X150764226Y-82592776D01*
X150758265Y-82568978D01*
X150754665Y-82544709D01*
X150753461Y-82520205D01*
X150753461Y-81270205D01*
X150754665Y-81245701D01*
X150758265Y-81221432D01*
X150764226Y-81197634D01*
X150772491Y-81174534D01*
X150782981Y-81152356D01*
X150795594Y-81131312D01*
X150810208Y-81111607D01*
X150826684Y-81093428D01*
X150844863Y-81076952D01*
X150864568Y-81062338D01*
X150885612Y-81049725D01*
X150907790Y-81039235D01*
X150930890Y-81030970D01*
X150954688Y-81025009D01*
X150978957Y-81021409D01*
X151003461Y-81020205D01*
X151928461Y-81020205D01*
X151952965Y-81021409D01*
X151952965Y-81021409D01*
G37*
D13*
X151465961Y-81895205D03*
D12*
G36*
X148977965Y-81021409D02*
X149002234Y-81025009D01*
X149026032Y-81030970D01*
X149049132Y-81039235D01*
X149071310Y-81049725D01*
X149092354Y-81062338D01*
X149112059Y-81076952D01*
X149130238Y-81093428D01*
X149146714Y-81111607D01*
X149161328Y-81131312D01*
X149173941Y-81152356D01*
X149184431Y-81174534D01*
X149192696Y-81197634D01*
X149198657Y-81221432D01*
X149202257Y-81245701D01*
X149203461Y-81270205D01*
X149203461Y-82520205D01*
X149202257Y-82544709D01*
X149198657Y-82568978D01*
X149192696Y-82592776D01*
X149184431Y-82615876D01*
X149173941Y-82638054D01*
X149161328Y-82659098D01*
X149146714Y-82678803D01*
X149130238Y-82696982D01*
X149112059Y-82713458D01*
X149092354Y-82728072D01*
X149071310Y-82740685D01*
X149049132Y-82751175D01*
X149026032Y-82759440D01*
X149002234Y-82765401D01*
X148977965Y-82769001D01*
X148953461Y-82770205D01*
X148028461Y-82770205D01*
X148003957Y-82769001D01*
X147979688Y-82765401D01*
X147955890Y-82759440D01*
X147932790Y-82751175D01*
X147910612Y-82740685D01*
X147889568Y-82728072D01*
X147869863Y-82713458D01*
X147851684Y-82696982D01*
X147835208Y-82678803D01*
X147820594Y-82659098D01*
X147807981Y-82638054D01*
X147797491Y-82615876D01*
X147789226Y-82592776D01*
X147783265Y-82568978D01*
X147779665Y-82544709D01*
X147778461Y-82520205D01*
X147778461Y-81270205D01*
X147779665Y-81245701D01*
X147783265Y-81221432D01*
X147789226Y-81197634D01*
X147797491Y-81174534D01*
X147807981Y-81152356D01*
X147820594Y-81131312D01*
X147835208Y-81111607D01*
X147851684Y-81093428D01*
X147869863Y-81076952D01*
X147889568Y-81062338D01*
X147910612Y-81049725D01*
X147932790Y-81039235D01*
X147955890Y-81030970D01*
X147979688Y-81025009D01*
X148003957Y-81021409D01*
X148028461Y-81020205D01*
X148953461Y-81020205D01*
X148977965Y-81021409D01*
X148977965Y-81021409D01*
G37*
D13*
X148490961Y-81895205D03*
G04 #@! TD*
D20*
G04 #@! TO.C,PWR_IN1*
X91567000Y-38679000D03*
D12*
G36*
X93141504Y-34280204D02*
X93165773Y-34283804D01*
X93189571Y-34289765D01*
X93212671Y-34298030D01*
X93234849Y-34308520D01*
X93255893Y-34321133D01*
X93275598Y-34335747D01*
X93293777Y-34352223D01*
X93310253Y-34370402D01*
X93324867Y-34390107D01*
X93337480Y-34411151D01*
X93347970Y-34433329D01*
X93356235Y-34456429D01*
X93362196Y-34480227D01*
X93365796Y-34504496D01*
X93367000Y-34529000D01*
X93367000Y-35829000D01*
X93365796Y-35853504D01*
X93362196Y-35877773D01*
X93356235Y-35901571D01*
X93347970Y-35924671D01*
X93337480Y-35946849D01*
X93324867Y-35967893D01*
X93310253Y-35987598D01*
X93293777Y-36005777D01*
X93275598Y-36022253D01*
X93255893Y-36036867D01*
X93234849Y-36049480D01*
X93212671Y-36059970D01*
X93189571Y-36068235D01*
X93165773Y-36074196D01*
X93141504Y-36077796D01*
X93117000Y-36079000D01*
X90017000Y-36079000D01*
X89992496Y-36077796D01*
X89968227Y-36074196D01*
X89944429Y-36068235D01*
X89921329Y-36059970D01*
X89899151Y-36049480D01*
X89878107Y-36036867D01*
X89858402Y-36022253D01*
X89840223Y-36005777D01*
X89823747Y-35987598D01*
X89809133Y-35967893D01*
X89796520Y-35946849D01*
X89786030Y-35924671D01*
X89777765Y-35901571D01*
X89771804Y-35877773D01*
X89768204Y-35853504D01*
X89767000Y-35829000D01*
X89767000Y-34529000D01*
X89768204Y-34504496D01*
X89771804Y-34480227D01*
X89777765Y-34456429D01*
X89786030Y-34433329D01*
X89796520Y-34411151D01*
X89809133Y-34390107D01*
X89823747Y-34370402D01*
X89840223Y-34352223D01*
X89858402Y-34335747D01*
X89878107Y-34321133D01*
X89899151Y-34308520D01*
X89921329Y-34298030D01*
X89944429Y-34289765D01*
X89968227Y-34283804D01*
X89992496Y-34280204D01*
X90017000Y-34279000D01*
X93117000Y-34279000D01*
X93141504Y-34280204D01*
X93141504Y-34280204D01*
G37*
D21*
X91567000Y-35179000D03*
G04 #@! TD*
D20*
G04 #@! TO.C,Y2_PLUG_SOCKET1*
X106426000Y-102859000D03*
X106426000Y-99359000D03*
X106426000Y-95859000D03*
X106426000Y-92359000D03*
X106426000Y-88859000D03*
X106426000Y-85359000D03*
X106426000Y-81859000D03*
D12*
G36*
X108000504Y-77460204D02*
X108024773Y-77463804D01*
X108048571Y-77469765D01*
X108071671Y-77478030D01*
X108093849Y-77488520D01*
X108114893Y-77501133D01*
X108134598Y-77515747D01*
X108152777Y-77532223D01*
X108169253Y-77550402D01*
X108183867Y-77570107D01*
X108196480Y-77591151D01*
X108206970Y-77613329D01*
X108215235Y-77636429D01*
X108221196Y-77660227D01*
X108224796Y-77684496D01*
X108226000Y-77709000D01*
X108226000Y-79009000D01*
X108224796Y-79033504D01*
X108221196Y-79057773D01*
X108215235Y-79081571D01*
X108206970Y-79104671D01*
X108196480Y-79126849D01*
X108183867Y-79147893D01*
X108169253Y-79167598D01*
X108152777Y-79185777D01*
X108134598Y-79202253D01*
X108114893Y-79216867D01*
X108093849Y-79229480D01*
X108071671Y-79239970D01*
X108048571Y-79248235D01*
X108024773Y-79254196D01*
X108000504Y-79257796D01*
X107976000Y-79259000D01*
X104876000Y-79259000D01*
X104851496Y-79257796D01*
X104827227Y-79254196D01*
X104803429Y-79248235D01*
X104780329Y-79239970D01*
X104758151Y-79229480D01*
X104737107Y-79216867D01*
X104717402Y-79202253D01*
X104699223Y-79185777D01*
X104682747Y-79167598D01*
X104668133Y-79147893D01*
X104655520Y-79126849D01*
X104645030Y-79104671D01*
X104636765Y-79081571D01*
X104630804Y-79057773D01*
X104627204Y-79033504D01*
X104626000Y-79009000D01*
X104626000Y-77709000D01*
X104627204Y-77684496D01*
X104630804Y-77660227D01*
X104636765Y-77636429D01*
X104645030Y-77613329D01*
X104655520Y-77591151D01*
X104668133Y-77570107D01*
X104682747Y-77550402D01*
X104699223Y-77532223D01*
X104717402Y-77515747D01*
X104737107Y-77501133D01*
X104758151Y-77488520D01*
X104780329Y-77478030D01*
X104803429Y-77469765D01*
X104827227Y-77463804D01*
X104851496Y-77460204D01*
X104876000Y-77459000D01*
X107976000Y-77459000D01*
X108000504Y-77460204D01*
X108000504Y-77460204D01*
G37*
D21*
X106426000Y-78359000D03*
G04 #@! TD*
D20*
G04 #@! TO.C,Y1_PLUG_SOCKET1*
X91567000Y-102910278D03*
X91567000Y-99410278D03*
X91567000Y-95910278D03*
X91567000Y-92410278D03*
X91567000Y-88910278D03*
X91567000Y-85410278D03*
X91567000Y-81910278D03*
D12*
G36*
X93141504Y-77511482D02*
X93165773Y-77515082D01*
X93189571Y-77521043D01*
X93212671Y-77529308D01*
X93234849Y-77539798D01*
X93255893Y-77552411D01*
X93275598Y-77567025D01*
X93293777Y-77583501D01*
X93310253Y-77601680D01*
X93324867Y-77621385D01*
X93337480Y-77642429D01*
X93347970Y-77664607D01*
X93356235Y-77687707D01*
X93362196Y-77711505D01*
X93365796Y-77735774D01*
X93367000Y-77760278D01*
X93367000Y-79060278D01*
X93365796Y-79084782D01*
X93362196Y-79109051D01*
X93356235Y-79132849D01*
X93347970Y-79155949D01*
X93337480Y-79178127D01*
X93324867Y-79199171D01*
X93310253Y-79218876D01*
X93293777Y-79237055D01*
X93275598Y-79253531D01*
X93255893Y-79268145D01*
X93234849Y-79280758D01*
X93212671Y-79291248D01*
X93189571Y-79299513D01*
X93165773Y-79305474D01*
X93141504Y-79309074D01*
X93117000Y-79310278D01*
X90017000Y-79310278D01*
X89992496Y-79309074D01*
X89968227Y-79305474D01*
X89944429Y-79299513D01*
X89921329Y-79291248D01*
X89899151Y-79280758D01*
X89878107Y-79268145D01*
X89858402Y-79253531D01*
X89840223Y-79237055D01*
X89823747Y-79218876D01*
X89809133Y-79199171D01*
X89796520Y-79178127D01*
X89786030Y-79155949D01*
X89777765Y-79132849D01*
X89771804Y-79109051D01*
X89768204Y-79084782D01*
X89767000Y-79060278D01*
X89767000Y-77760278D01*
X89768204Y-77735774D01*
X89771804Y-77711505D01*
X89777765Y-77687707D01*
X89786030Y-77664607D01*
X89796520Y-77642429D01*
X89809133Y-77621385D01*
X89823747Y-77601680D01*
X89840223Y-77583501D01*
X89858402Y-77567025D01*
X89878107Y-77552411D01*
X89899151Y-77539798D01*
X89921329Y-77529308D01*
X89944429Y-77521043D01*
X89968227Y-77515082D01*
X89992496Y-77511482D01*
X90017000Y-77510278D01*
X93117000Y-77510278D01*
X93141504Y-77511482D01*
X93141504Y-77511482D01*
G37*
D21*
X91567000Y-78410278D03*
G04 #@! TD*
D20*
G04 #@! TO.C,X_PLUG_SOCKET1*
X91567000Y-69712000D03*
X91567000Y-66212000D03*
X91567000Y-62712000D03*
X91567000Y-59212000D03*
X91567000Y-55712000D03*
X91567000Y-52212000D03*
X91567000Y-48712000D03*
D12*
G36*
X93141504Y-44313204D02*
X93165773Y-44316804D01*
X93189571Y-44322765D01*
X93212671Y-44331030D01*
X93234849Y-44341520D01*
X93255893Y-44354133D01*
X93275598Y-44368747D01*
X93293777Y-44385223D01*
X93310253Y-44403402D01*
X93324867Y-44423107D01*
X93337480Y-44444151D01*
X93347970Y-44466329D01*
X93356235Y-44489429D01*
X93362196Y-44513227D01*
X93365796Y-44537496D01*
X93367000Y-44562000D01*
X93367000Y-45862000D01*
X93365796Y-45886504D01*
X93362196Y-45910773D01*
X93356235Y-45934571D01*
X93347970Y-45957671D01*
X93337480Y-45979849D01*
X93324867Y-46000893D01*
X93310253Y-46020598D01*
X93293777Y-46038777D01*
X93275598Y-46055253D01*
X93255893Y-46069867D01*
X93234849Y-46082480D01*
X93212671Y-46092970D01*
X93189571Y-46101235D01*
X93165773Y-46107196D01*
X93141504Y-46110796D01*
X93117000Y-46112000D01*
X90017000Y-46112000D01*
X89992496Y-46110796D01*
X89968227Y-46107196D01*
X89944429Y-46101235D01*
X89921329Y-46092970D01*
X89899151Y-46082480D01*
X89878107Y-46069867D01*
X89858402Y-46055253D01*
X89840223Y-46038777D01*
X89823747Y-46020598D01*
X89809133Y-46000893D01*
X89796520Y-45979849D01*
X89786030Y-45957671D01*
X89777765Y-45934571D01*
X89771804Y-45910773D01*
X89768204Y-45886504D01*
X89767000Y-45862000D01*
X89767000Y-44562000D01*
X89768204Y-44537496D01*
X89771804Y-44513227D01*
X89777765Y-44489429D01*
X89786030Y-44466329D01*
X89796520Y-44444151D01*
X89809133Y-44423107D01*
X89823747Y-44403402D01*
X89840223Y-44385223D01*
X89858402Y-44368747D01*
X89878107Y-44354133D01*
X89899151Y-44341520D01*
X89921329Y-44331030D01*
X89944429Y-44322765D01*
X89968227Y-44316804D01*
X89992496Y-44313204D01*
X90017000Y-44312000D01*
X93117000Y-44312000D01*
X93141504Y-44313204D01*
X93141504Y-44313204D01*
G37*
D21*
X91567000Y-45212000D03*
G04 #@! TD*
D23*
G04 #@! TO.C,MH4*
X107886500Y-148082000D03*
G04 #@! TD*
G04 #@! TO.C,MH3*
X141478000Y-148018500D03*
G04 #@! TD*
G04 #@! TO.C,MH2*
X107950000Y-42799000D03*
G04 #@! TD*
G04 #@! TO.C,MH1*
X141541500Y-42799000D03*
G04 #@! TD*
D12*
G04 #@! TO.C,R20*
G36*
X118052504Y-56657204D02*
X118076773Y-56660804D01*
X118100571Y-56666765D01*
X118123671Y-56675030D01*
X118145849Y-56685520D01*
X118166893Y-56698133D01*
X118186598Y-56712747D01*
X118204777Y-56729223D01*
X118221253Y-56747402D01*
X118235867Y-56767107D01*
X118248480Y-56788151D01*
X118258970Y-56810329D01*
X118267235Y-56833429D01*
X118273196Y-56857227D01*
X118276796Y-56881496D01*
X118278000Y-56906000D01*
X118278000Y-58156000D01*
X118276796Y-58180504D01*
X118273196Y-58204773D01*
X118267235Y-58228571D01*
X118258970Y-58251671D01*
X118248480Y-58273849D01*
X118235867Y-58294893D01*
X118221253Y-58314598D01*
X118204777Y-58332777D01*
X118186598Y-58349253D01*
X118166893Y-58363867D01*
X118145849Y-58376480D01*
X118123671Y-58386970D01*
X118100571Y-58395235D01*
X118076773Y-58401196D01*
X118052504Y-58404796D01*
X118028000Y-58406000D01*
X117103000Y-58406000D01*
X117078496Y-58404796D01*
X117054227Y-58401196D01*
X117030429Y-58395235D01*
X117007329Y-58386970D01*
X116985151Y-58376480D01*
X116964107Y-58363867D01*
X116944402Y-58349253D01*
X116926223Y-58332777D01*
X116909747Y-58314598D01*
X116895133Y-58294893D01*
X116882520Y-58273849D01*
X116872030Y-58251671D01*
X116863765Y-58228571D01*
X116857804Y-58204773D01*
X116854204Y-58180504D01*
X116853000Y-58156000D01*
X116853000Y-56906000D01*
X116854204Y-56881496D01*
X116857804Y-56857227D01*
X116863765Y-56833429D01*
X116872030Y-56810329D01*
X116882520Y-56788151D01*
X116895133Y-56767107D01*
X116909747Y-56747402D01*
X116926223Y-56729223D01*
X116944402Y-56712747D01*
X116964107Y-56698133D01*
X116985151Y-56685520D01*
X117007329Y-56675030D01*
X117030429Y-56666765D01*
X117054227Y-56660804D01*
X117078496Y-56657204D01*
X117103000Y-56656000D01*
X118028000Y-56656000D01*
X118052504Y-56657204D01*
X118052504Y-56657204D01*
G37*
D13*
X117565500Y-57531000D03*
D12*
G36*
X115077504Y-56657204D02*
X115101773Y-56660804D01*
X115125571Y-56666765D01*
X115148671Y-56675030D01*
X115170849Y-56685520D01*
X115191893Y-56698133D01*
X115211598Y-56712747D01*
X115229777Y-56729223D01*
X115246253Y-56747402D01*
X115260867Y-56767107D01*
X115273480Y-56788151D01*
X115283970Y-56810329D01*
X115292235Y-56833429D01*
X115298196Y-56857227D01*
X115301796Y-56881496D01*
X115303000Y-56906000D01*
X115303000Y-58156000D01*
X115301796Y-58180504D01*
X115298196Y-58204773D01*
X115292235Y-58228571D01*
X115283970Y-58251671D01*
X115273480Y-58273849D01*
X115260867Y-58294893D01*
X115246253Y-58314598D01*
X115229777Y-58332777D01*
X115211598Y-58349253D01*
X115191893Y-58363867D01*
X115170849Y-58376480D01*
X115148671Y-58386970D01*
X115125571Y-58395235D01*
X115101773Y-58401196D01*
X115077504Y-58404796D01*
X115053000Y-58406000D01*
X114128000Y-58406000D01*
X114103496Y-58404796D01*
X114079227Y-58401196D01*
X114055429Y-58395235D01*
X114032329Y-58386970D01*
X114010151Y-58376480D01*
X113989107Y-58363867D01*
X113969402Y-58349253D01*
X113951223Y-58332777D01*
X113934747Y-58314598D01*
X113920133Y-58294893D01*
X113907520Y-58273849D01*
X113897030Y-58251671D01*
X113888765Y-58228571D01*
X113882804Y-58204773D01*
X113879204Y-58180504D01*
X113878000Y-58156000D01*
X113878000Y-56906000D01*
X113879204Y-56881496D01*
X113882804Y-56857227D01*
X113888765Y-56833429D01*
X113897030Y-56810329D01*
X113907520Y-56788151D01*
X113920133Y-56767107D01*
X113934747Y-56747402D01*
X113951223Y-56729223D01*
X113969402Y-56712747D01*
X113989107Y-56698133D01*
X114010151Y-56685520D01*
X114032329Y-56675030D01*
X114055429Y-56666765D01*
X114079227Y-56660804D01*
X114103496Y-56657204D01*
X114128000Y-56656000D01*
X115053000Y-56656000D01*
X115077504Y-56657204D01*
X115077504Y-56657204D01*
G37*
D13*
X114590500Y-57531000D03*
G04 #@! TD*
D12*
G04 #@! TO.C,R19*
G36*
X113298504Y-83399204D02*
X113322773Y-83402804D01*
X113346571Y-83408765D01*
X113369671Y-83417030D01*
X113391849Y-83427520D01*
X113412893Y-83440133D01*
X113432598Y-83454747D01*
X113450777Y-83471223D01*
X113467253Y-83489402D01*
X113481867Y-83509107D01*
X113494480Y-83530151D01*
X113504970Y-83552329D01*
X113513235Y-83575429D01*
X113519196Y-83599227D01*
X113522796Y-83623496D01*
X113524000Y-83648000D01*
X113524000Y-84573000D01*
X113522796Y-84597504D01*
X113519196Y-84621773D01*
X113513235Y-84645571D01*
X113504970Y-84668671D01*
X113494480Y-84690849D01*
X113481867Y-84711893D01*
X113467253Y-84731598D01*
X113450777Y-84749777D01*
X113432598Y-84766253D01*
X113412893Y-84780867D01*
X113391849Y-84793480D01*
X113369671Y-84803970D01*
X113346571Y-84812235D01*
X113322773Y-84818196D01*
X113298504Y-84821796D01*
X113274000Y-84823000D01*
X112024000Y-84823000D01*
X111999496Y-84821796D01*
X111975227Y-84818196D01*
X111951429Y-84812235D01*
X111928329Y-84803970D01*
X111906151Y-84793480D01*
X111885107Y-84780867D01*
X111865402Y-84766253D01*
X111847223Y-84749777D01*
X111830747Y-84731598D01*
X111816133Y-84711893D01*
X111803520Y-84690849D01*
X111793030Y-84668671D01*
X111784765Y-84645571D01*
X111778804Y-84621773D01*
X111775204Y-84597504D01*
X111774000Y-84573000D01*
X111774000Y-83648000D01*
X111775204Y-83623496D01*
X111778804Y-83599227D01*
X111784765Y-83575429D01*
X111793030Y-83552329D01*
X111803520Y-83530151D01*
X111816133Y-83509107D01*
X111830747Y-83489402D01*
X111847223Y-83471223D01*
X111865402Y-83454747D01*
X111885107Y-83440133D01*
X111906151Y-83427520D01*
X111928329Y-83417030D01*
X111951429Y-83408765D01*
X111975227Y-83402804D01*
X111999496Y-83399204D01*
X112024000Y-83398000D01*
X113274000Y-83398000D01*
X113298504Y-83399204D01*
X113298504Y-83399204D01*
G37*
D13*
X112649000Y-84110500D03*
D12*
G36*
X113298504Y-86374204D02*
X113322773Y-86377804D01*
X113346571Y-86383765D01*
X113369671Y-86392030D01*
X113391849Y-86402520D01*
X113412893Y-86415133D01*
X113432598Y-86429747D01*
X113450777Y-86446223D01*
X113467253Y-86464402D01*
X113481867Y-86484107D01*
X113494480Y-86505151D01*
X113504970Y-86527329D01*
X113513235Y-86550429D01*
X113519196Y-86574227D01*
X113522796Y-86598496D01*
X113524000Y-86623000D01*
X113524000Y-87548000D01*
X113522796Y-87572504D01*
X113519196Y-87596773D01*
X113513235Y-87620571D01*
X113504970Y-87643671D01*
X113494480Y-87665849D01*
X113481867Y-87686893D01*
X113467253Y-87706598D01*
X113450777Y-87724777D01*
X113432598Y-87741253D01*
X113412893Y-87755867D01*
X113391849Y-87768480D01*
X113369671Y-87778970D01*
X113346571Y-87787235D01*
X113322773Y-87793196D01*
X113298504Y-87796796D01*
X113274000Y-87798000D01*
X112024000Y-87798000D01*
X111999496Y-87796796D01*
X111975227Y-87793196D01*
X111951429Y-87787235D01*
X111928329Y-87778970D01*
X111906151Y-87768480D01*
X111885107Y-87755867D01*
X111865402Y-87741253D01*
X111847223Y-87724777D01*
X111830747Y-87706598D01*
X111816133Y-87686893D01*
X111803520Y-87665849D01*
X111793030Y-87643671D01*
X111784765Y-87620571D01*
X111778804Y-87596773D01*
X111775204Y-87572504D01*
X111774000Y-87548000D01*
X111774000Y-86623000D01*
X111775204Y-86598496D01*
X111778804Y-86574227D01*
X111784765Y-86550429D01*
X111793030Y-86527329D01*
X111803520Y-86505151D01*
X111816133Y-86484107D01*
X111830747Y-86464402D01*
X111847223Y-86446223D01*
X111865402Y-86429747D01*
X111885107Y-86415133D01*
X111906151Y-86402520D01*
X111928329Y-86392030D01*
X111951429Y-86383765D01*
X111975227Y-86377804D01*
X111999496Y-86374204D01*
X112024000Y-86373000D01*
X113274000Y-86373000D01*
X113298504Y-86374204D01*
X113298504Y-86374204D01*
G37*
D13*
X112649000Y-87085500D03*
G04 #@! TD*
D12*
G04 #@! TO.C,R18*
G36*
X84851504Y-126253204D02*
X84875773Y-126256804D01*
X84899571Y-126262765D01*
X84922671Y-126271030D01*
X84944849Y-126281520D01*
X84965893Y-126294133D01*
X84985598Y-126308747D01*
X85003777Y-126325223D01*
X85020253Y-126343402D01*
X85034867Y-126363107D01*
X85047480Y-126384151D01*
X85057970Y-126406329D01*
X85066235Y-126429429D01*
X85072196Y-126453227D01*
X85075796Y-126477496D01*
X85077000Y-126502000D01*
X85077000Y-127752000D01*
X85075796Y-127776504D01*
X85072196Y-127800773D01*
X85066235Y-127824571D01*
X85057970Y-127847671D01*
X85047480Y-127869849D01*
X85034867Y-127890893D01*
X85020253Y-127910598D01*
X85003777Y-127928777D01*
X84985598Y-127945253D01*
X84965893Y-127959867D01*
X84944849Y-127972480D01*
X84922671Y-127982970D01*
X84899571Y-127991235D01*
X84875773Y-127997196D01*
X84851504Y-128000796D01*
X84827000Y-128002000D01*
X83902000Y-128002000D01*
X83877496Y-128000796D01*
X83853227Y-127997196D01*
X83829429Y-127991235D01*
X83806329Y-127982970D01*
X83784151Y-127972480D01*
X83763107Y-127959867D01*
X83743402Y-127945253D01*
X83725223Y-127928777D01*
X83708747Y-127910598D01*
X83694133Y-127890893D01*
X83681520Y-127869849D01*
X83671030Y-127847671D01*
X83662765Y-127824571D01*
X83656804Y-127800773D01*
X83653204Y-127776504D01*
X83652000Y-127752000D01*
X83652000Y-126502000D01*
X83653204Y-126477496D01*
X83656804Y-126453227D01*
X83662765Y-126429429D01*
X83671030Y-126406329D01*
X83681520Y-126384151D01*
X83694133Y-126363107D01*
X83708747Y-126343402D01*
X83725223Y-126325223D01*
X83743402Y-126308747D01*
X83763107Y-126294133D01*
X83784151Y-126281520D01*
X83806329Y-126271030D01*
X83829429Y-126262765D01*
X83853227Y-126256804D01*
X83877496Y-126253204D01*
X83902000Y-126252000D01*
X84827000Y-126252000D01*
X84851504Y-126253204D01*
X84851504Y-126253204D01*
G37*
D13*
X84364500Y-127127000D03*
D12*
G36*
X87826504Y-126253204D02*
X87850773Y-126256804D01*
X87874571Y-126262765D01*
X87897671Y-126271030D01*
X87919849Y-126281520D01*
X87940893Y-126294133D01*
X87960598Y-126308747D01*
X87978777Y-126325223D01*
X87995253Y-126343402D01*
X88009867Y-126363107D01*
X88022480Y-126384151D01*
X88032970Y-126406329D01*
X88041235Y-126429429D01*
X88047196Y-126453227D01*
X88050796Y-126477496D01*
X88052000Y-126502000D01*
X88052000Y-127752000D01*
X88050796Y-127776504D01*
X88047196Y-127800773D01*
X88041235Y-127824571D01*
X88032970Y-127847671D01*
X88022480Y-127869849D01*
X88009867Y-127890893D01*
X87995253Y-127910598D01*
X87978777Y-127928777D01*
X87960598Y-127945253D01*
X87940893Y-127959867D01*
X87919849Y-127972480D01*
X87897671Y-127982970D01*
X87874571Y-127991235D01*
X87850773Y-127997196D01*
X87826504Y-128000796D01*
X87802000Y-128002000D01*
X86877000Y-128002000D01*
X86852496Y-128000796D01*
X86828227Y-127997196D01*
X86804429Y-127991235D01*
X86781329Y-127982970D01*
X86759151Y-127972480D01*
X86738107Y-127959867D01*
X86718402Y-127945253D01*
X86700223Y-127928777D01*
X86683747Y-127910598D01*
X86669133Y-127890893D01*
X86656520Y-127869849D01*
X86646030Y-127847671D01*
X86637765Y-127824571D01*
X86631804Y-127800773D01*
X86628204Y-127776504D01*
X86627000Y-127752000D01*
X86627000Y-126502000D01*
X86628204Y-126477496D01*
X86631804Y-126453227D01*
X86637765Y-126429429D01*
X86646030Y-126406329D01*
X86656520Y-126384151D01*
X86669133Y-126363107D01*
X86683747Y-126343402D01*
X86700223Y-126325223D01*
X86718402Y-126308747D01*
X86738107Y-126294133D01*
X86759151Y-126281520D01*
X86781329Y-126271030D01*
X86804429Y-126262765D01*
X86828227Y-126256804D01*
X86852496Y-126253204D01*
X86877000Y-126252000D01*
X87802000Y-126252000D01*
X87826504Y-126253204D01*
X87826504Y-126253204D01*
G37*
D13*
X87339500Y-127127000D03*
G04 #@! TD*
D12*
G04 #@! TO.C,R17*
G36*
X84724504Y-91455204D02*
X84748773Y-91458804D01*
X84772571Y-91464765D01*
X84795671Y-91473030D01*
X84817849Y-91483520D01*
X84838893Y-91496133D01*
X84858598Y-91510747D01*
X84876777Y-91527223D01*
X84893253Y-91545402D01*
X84907867Y-91565107D01*
X84920480Y-91586151D01*
X84930970Y-91608329D01*
X84939235Y-91631429D01*
X84945196Y-91655227D01*
X84948796Y-91679496D01*
X84950000Y-91704000D01*
X84950000Y-92954000D01*
X84948796Y-92978504D01*
X84945196Y-93002773D01*
X84939235Y-93026571D01*
X84930970Y-93049671D01*
X84920480Y-93071849D01*
X84907867Y-93092893D01*
X84893253Y-93112598D01*
X84876777Y-93130777D01*
X84858598Y-93147253D01*
X84838893Y-93161867D01*
X84817849Y-93174480D01*
X84795671Y-93184970D01*
X84772571Y-93193235D01*
X84748773Y-93199196D01*
X84724504Y-93202796D01*
X84700000Y-93204000D01*
X83775000Y-93204000D01*
X83750496Y-93202796D01*
X83726227Y-93199196D01*
X83702429Y-93193235D01*
X83679329Y-93184970D01*
X83657151Y-93174480D01*
X83636107Y-93161867D01*
X83616402Y-93147253D01*
X83598223Y-93130777D01*
X83581747Y-93112598D01*
X83567133Y-93092893D01*
X83554520Y-93071849D01*
X83544030Y-93049671D01*
X83535765Y-93026571D01*
X83529804Y-93002773D01*
X83526204Y-92978504D01*
X83525000Y-92954000D01*
X83525000Y-91704000D01*
X83526204Y-91679496D01*
X83529804Y-91655227D01*
X83535765Y-91631429D01*
X83544030Y-91608329D01*
X83554520Y-91586151D01*
X83567133Y-91565107D01*
X83581747Y-91545402D01*
X83598223Y-91527223D01*
X83616402Y-91510747D01*
X83636107Y-91496133D01*
X83657151Y-91483520D01*
X83679329Y-91473030D01*
X83702429Y-91464765D01*
X83726227Y-91458804D01*
X83750496Y-91455204D01*
X83775000Y-91454000D01*
X84700000Y-91454000D01*
X84724504Y-91455204D01*
X84724504Y-91455204D01*
G37*
D13*
X84237500Y-92329000D03*
D12*
G36*
X87699504Y-91455204D02*
X87723773Y-91458804D01*
X87747571Y-91464765D01*
X87770671Y-91473030D01*
X87792849Y-91483520D01*
X87813893Y-91496133D01*
X87833598Y-91510747D01*
X87851777Y-91527223D01*
X87868253Y-91545402D01*
X87882867Y-91565107D01*
X87895480Y-91586151D01*
X87905970Y-91608329D01*
X87914235Y-91631429D01*
X87920196Y-91655227D01*
X87923796Y-91679496D01*
X87925000Y-91704000D01*
X87925000Y-92954000D01*
X87923796Y-92978504D01*
X87920196Y-93002773D01*
X87914235Y-93026571D01*
X87905970Y-93049671D01*
X87895480Y-93071849D01*
X87882867Y-93092893D01*
X87868253Y-93112598D01*
X87851777Y-93130777D01*
X87833598Y-93147253D01*
X87813893Y-93161867D01*
X87792849Y-93174480D01*
X87770671Y-93184970D01*
X87747571Y-93193235D01*
X87723773Y-93199196D01*
X87699504Y-93202796D01*
X87675000Y-93204000D01*
X86750000Y-93204000D01*
X86725496Y-93202796D01*
X86701227Y-93199196D01*
X86677429Y-93193235D01*
X86654329Y-93184970D01*
X86632151Y-93174480D01*
X86611107Y-93161867D01*
X86591402Y-93147253D01*
X86573223Y-93130777D01*
X86556747Y-93112598D01*
X86542133Y-93092893D01*
X86529520Y-93071849D01*
X86519030Y-93049671D01*
X86510765Y-93026571D01*
X86504804Y-93002773D01*
X86501204Y-92978504D01*
X86500000Y-92954000D01*
X86500000Y-91704000D01*
X86501204Y-91679496D01*
X86504804Y-91655227D01*
X86510765Y-91631429D01*
X86519030Y-91608329D01*
X86529520Y-91586151D01*
X86542133Y-91565107D01*
X86556747Y-91545402D01*
X86573223Y-91527223D01*
X86591402Y-91510747D01*
X86611107Y-91496133D01*
X86632151Y-91483520D01*
X86654329Y-91473030D01*
X86677429Y-91464765D01*
X86701227Y-91458804D01*
X86725496Y-91455204D01*
X86750000Y-91454000D01*
X87675000Y-91454000D01*
X87699504Y-91455204D01*
X87699504Y-91455204D01*
G37*
D13*
X87212500Y-92329000D03*
G04 #@! TD*
D12*
G04 #@! TO.C,R16*
G36*
X84724504Y-58308204D02*
X84748773Y-58311804D01*
X84772571Y-58317765D01*
X84795671Y-58326030D01*
X84817849Y-58336520D01*
X84838893Y-58349133D01*
X84858598Y-58363747D01*
X84876777Y-58380223D01*
X84893253Y-58398402D01*
X84907867Y-58418107D01*
X84920480Y-58439151D01*
X84930970Y-58461329D01*
X84939235Y-58484429D01*
X84945196Y-58508227D01*
X84948796Y-58532496D01*
X84950000Y-58557000D01*
X84950000Y-59807000D01*
X84948796Y-59831504D01*
X84945196Y-59855773D01*
X84939235Y-59879571D01*
X84930970Y-59902671D01*
X84920480Y-59924849D01*
X84907867Y-59945893D01*
X84893253Y-59965598D01*
X84876777Y-59983777D01*
X84858598Y-60000253D01*
X84838893Y-60014867D01*
X84817849Y-60027480D01*
X84795671Y-60037970D01*
X84772571Y-60046235D01*
X84748773Y-60052196D01*
X84724504Y-60055796D01*
X84700000Y-60057000D01*
X83775000Y-60057000D01*
X83750496Y-60055796D01*
X83726227Y-60052196D01*
X83702429Y-60046235D01*
X83679329Y-60037970D01*
X83657151Y-60027480D01*
X83636107Y-60014867D01*
X83616402Y-60000253D01*
X83598223Y-59983777D01*
X83581747Y-59965598D01*
X83567133Y-59945893D01*
X83554520Y-59924849D01*
X83544030Y-59902671D01*
X83535765Y-59879571D01*
X83529804Y-59855773D01*
X83526204Y-59831504D01*
X83525000Y-59807000D01*
X83525000Y-58557000D01*
X83526204Y-58532496D01*
X83529804Y-58508227D01*
X83535765Y-58484429D01*
X83544030Y-58461329D01*
X83554520Y-58439151D01*
X83567133Y-58418107D01*
X83581747Y-58398402D01*
X83598223Y-58380223D01*
X83616402Y-58363747D01*
X83636107Y-58349133D01*
X83657151Y-58336520D01*
X83679329Y-58326030D01*
X83702429Y-58317765D01*
X83726227Y-58311804D01*
X83750496Y-58308204D01*
X83775000Y-58307000D01*
X84700000Y-58307000D01*
X84724504Y-58308204D01*
X84724504Y-58308204D01*
G37*
D13*
X84237500Y-59182000D03*
D12*
G36*
X87699504Y-58308204D02*
X87723773Y-58311804D01*
X87747571Y-58317765D01*
X87770671Y-58326030D01*
X87792849Y-58336520D01*
X87813893Y-58349133D01*
X87833598Y-58363747D01*
X87851777Y-58380223D01*
X87868253Y-58398402D01*
X87882867Y-58418107D01*
X87895480Y-58439151D01*
X87905970Y-58461329D01*
X87914235Y-58484429D01*
X87920196Y-58508227D01*
X87923796Y-58532496D01*
X87925000Y-58557000D01*
X87925000Y-59807000D01*
X87923796Y-59831504D01*
X87920196Y-59855773D01*
X87914235Y-59879571D01*
X87905970Y-59902671D01*
X87895480Y-59924849D01*
X87882867Y-59945893D01*
X87868253Y-59965598D01*
X87851777Y-59983777D01*
X87833598Y-60000253D01*
X87813893Y-60014867D01*
X87792849Y-60027480D01*
X87770671Y-60037970D01*
X87747571Y-60046235D01*
X87723773Y-60052196D01*
X87699504Y-60055796D01*
X87675000Y-60057000D01*
X86750000Y-60057000D01*
X86725496Y-60055796D01*
X86701227Y-60052196D01*
X86677429Y-60046235D01*
X86654329Y-60037970D01*
X86632151Y-60027480D01*
X86611107Y-60014867D01*
X86591402Y-60000253D01*
X86573223Y-59983777D01*
X86556747Y-59965598D01*
X86542133Y-59945893D01*
X86529520Y-59924849D01*
X86519030Y-59902671D01*
X86510765Y-59879571D01*
X86504804Y-59855773D01*
X86501204Y-59831504D01*
X86500000Y-59807000D01*
X86500000Y-58557000D01*
X86501204Y-58532496D01*
X86504804Y-58508227D01*
X86510765Y-58484429D01*
X86519030Y-58461329D01*
X86529520Y-58439151D01*
X86542133Y-58418107D01*
X86556747Y-58398402D01*
X86573223Y-58380223D01*
X86591402Y-58363747D01*
X86611107Y-58349133D01*
X86632151Y-58336520D01*
X86654329Y-58326030D01*
X86677429Y-58317765D01*
X86701227Y-58311804D01*
X86725496Y-58308204D01*
X86750000Y-58307000D01*
X87675000Y-58307000D01*
X87699504Y-58308204D01*
X87699504Y-58308204D01*
G37*
D13*
X87212500Y-59182000D03*
G04 #@! TD*
D12*
G04 #@! TO.C,R12*
G36*
X131260504Y-150256204D02*
X131284773Y-150259804D01*
X131308571Y-150265765D01*
X131331671Y-150274030D01*
X131353849Y-150284520D01*
X131374893Y-150297133D01*
X131394598Y-150311747D01*
X131412777Y-150328223D01*
X131429253Y-150346402D01*
X131443867Y-150366107D01*
X131456480Y-150387151D01*
X131466970Y-150409329D01*
X131475235Y-150432429D01*
X131481196Y-150456227D01*
X131484796Y-150480496D01*
X131486000Y-150505000D01*
X131486000Y-151755000D01*
X131484796Y-151779504D01*
X131481196Y-151803773D01*
X131475235Y-151827571D01*
X131466970Y-151850671D01*
X131456480Y-151872849D01*
X131443867Y-151893893D01*
X131429253Y-151913598D01*
X131412777Y-151931777D01*
X131394598Y-151948253D01*
X131374893Y-151962867D01*
X131353849Y-151975480D01*
X131331671Y-151985970D01*
X131308571Y-151994235D01*
X131284773Y-152000196D01*
X131260504Y-152003796D01*
X131236000Y-152005000D01*
X130311000Y-152005000D01*
X130286496Y-152003796D01*
X130262227Y-152000196D01*
X130238429Y-151994235D01*
X130215329Y-151985970D01*
X130193151Y-151975480D01*
X130172107Y-151962867D01*
X130152402Y-151948253D01*
X130134223Y-151931777D01*
X130117747Y-151913598D01*
X130103133Y-151893893D01*
X130090520Y-151872849D01*
X130080030Y-151850671D01*
X130071765Y-151827571D01*
X130065804Y-151803773D01*
X130062204Y-151779504D01*
X130061000Y-151755000D01*
X130061000Y-150505000D01*
X130062204Y-150480496D01*
X130065804Y-150456227D01*
X130071765Y-150432429D01*
X130080030Y-150409329D01*
X130090520Y-150387151D01*
X130103133Y-150366107D01*
X130117747Y-150346402D01*
X130134223Y-150328223D01*
X130152402Y-150311747D01*
X130172107Y-150297133D01*
X130193151Y-150284520D01*
X130215329Y-150274030D01*
X130238429Y-150265765D01*
X130262227Y-150259804D01*
X130286496Y-150256204D01*
X130311000Y-150255000D01*
X131236000Y-150255000D01*
X131260504Y-150256204D01*
X131260504Y-150256204D01*
G37*
D13*
X130773500Y-151130000D03*
D12*
G36*
X128285504Y-150256204D02*
X128309773Y-150259804D01*
X128333571Y-150265765D01*
X128356671Y-150274030D01*
X128378849Y-150284520D01*
X128399893Y-150297133D01*
X128419598Y-150311747D01*
X128437777Y-150328223D01*
X128454253Y-150346402D01*
X128468867Y-150366107D01*
X128481480Y-150387151D01*
X128491970Y-150409329D01*
X128500235Y-150432429D01*
X128506196Y-150456227D01*
X128509796Y-150480496D01*
X128511000Y-150505000D01*
X128511000Y-151755000D01*
X128509796Y-151779504D01*
X128506196Y-151803773D01*
X128500235Y-151827571D01*
X128491970Y-151850671D01*
X128481480Y-151872849D01*
X128468867Y-151893893D01*
X128454253Y-151913598D01*
X128437777Y-151931777D01*
X128419598Y-151948253D01*
X128399893Y-151962867D01*
X128378849Y-151975480D01*
X128356671Y-151985970D01*
X128333571Y-151994235D01*
X128309773Y-152000196D01*
X128285504Y-152003796D01*
X128261000Y-152005000D01*
X127336000Y-152005000D01*
X127311496Y-152003796D01*
X127287227Y-152000196D01*
X127263429Y-151994235D01*
X127240329Y-151985970D01*
X127218151Y-151975480D01*
X127197107Y-151962867D01*
X127177402Y-151948253D01*
X127159223Y-151931777D01*
X127142747Y-151913598D01*
X127128133Y-151893893D01*
X127115520Y-151872849D01*
X127105030Y-151850671D01*
X127096765Y-151827571D01*
X127090804Y-151803773D01*
X127087204Y-151779504D01*
X127086000Y-151755000D01*
X127086000Y-150505000D01*
X127087204Y-150480496D01*
X127090804Y-150456227D01*
X127096765Y-150432429D01*
X127105030Y-150409329D01*
X127115520Y-150387151D01*
X127128133Y-150366107D01*
X127142747Y-150346402D01*
X127159223Y-150328223D01*
X127177402Y-150311747D01*
X127197107Y-150297133D01*
X127218151Y-150284520D01*
X127240329Y-150274030D01*
X127263429Y-150265765D01*
X127287227Y-150259804D01*
X127311496Y-150256204D01*
X127336000Y-150255000D01*
X128261000Y-150255000D01*
X128285504Y-150256204D01*
X128285504Y-150256204D01*
G37*
D13*
X127798500Y-151130000D03*
G04 #@! TD*
D16*
G04 #@! TO.C,U14*
X125161000Y-126848611D03*
X115631000Y-124308611D03*
X125161000Y-124308611D03*
X115631000Y-126848611D03*
G04 #@! TD*
G04 #@! TO.C,U13*
X124335500Y-159194500D03*
X114805500Y-156654500D03*
X124335500Y-156654500D03*
X114805500Y-159194500D03*
G04 #@! TD*
G04 #@! TO.C,U12*
X115631000Y-96241611D03*
X125161000Y-98781611D03*
X115631000Y-98781611D03*
X125161000Y-96241611D03*
G04 #@! TD*
G04 #@! TO.C,U11*
X115631000Y-90526611D03*
X125161000Y-93066611D03*
X115631000Y-93066611D03*
X125161000Y-90526611D03*
G04 #@! TD*
G04 #@! TO.C,U10*
X115631000Y-84811611D03*
X125161000Y-87351611D03*
X115631000Y-87351611D03*
X125161000Y-84811611D03*
G04 #@! TD*
G04 #@! TO.C,U9*
X115631000Y-79096611D03*
X125161000Y-81636611D03*
X115631000Y-81636611D03*
X125161000Y-79096611D03*
G04 #@! TD*
G04 #@! TO.C,U8*
X115631000Y-73381611D03*
X125161000Y-75921611D03*
X115631000Y-75921611D03*
X125161000Y-73381611D03*
G04 #@! TD*
G04 #@! TO.C,U7*
X115631000Y-118593611D03*
X125161000Y-121133611D03*
X115631000Y-121133611D03*
X125161000Y-118593611D03*
G04 #@! TD*
G04 #@! TO.C,U6*
X115631000Y-67691000D03*
X125161000Y-70231000D03*
X115631000Y-70231000D03*
X125161000Y-67691000D03*
G04 #@! TD*
G04 #@! TO.C,U5*
X125161000Y-112878611D03*
X115631000Y-110338611D03*
X125161000Y-110338611D03*
X115631000Y-112878611D03*
G04 #@! TD*
G04 #@! TO.C,U4*
X125161000Y-104496611D03*
X115631000Y-101956611D03*
X125161000Y-101956611D03*
X115631000Y-104496611D03*
G04 #@! TD*
G04 #@! TO.C,U2*
X114869000Y-142621000D03*
X124399000Y-145161000D03*
X114869000Y-145161000D03*
X124399000Y-142621000D03*
G04 #@! TD*
G04 #@! TO.C,U1*
X124335500Y-168084500D03*
X114805500Y-165544500D03*
X124335500Y-165544500D03*
X114805500Y-168084500D03*
G04 #@! TD*
D24*
G04 #@! TO.C,U15*
X123893000Y-52502548D03*
D25*
X117593000Y-50222548D03*
X117593000Y-52502548D03*
X117593000Y-54782548D03*
G04 #@! TD*
D12*
G04 #@! TO.C,R15*
G36*
X131260504Y-141747204D02*
X131284773Y-141750804D01*
X131308571Y-141756765D01*
X131331671Y-141765030D01*
X131353849Y-141775520D01*
X131374893Y-141788133D01*
X131394598Y-141802747D01*
X131412777Y-141819223D01*
X131429253Y-141837402D01*
X131443867Y-141857107D01*
X131456480Y-141878151D01*
X131466970Y-141900329D01*
X131475235Y-141923429D01*
X131481196Y-141947227D01*
X131484796Y-141971496D01*
X131486000Y-141996000D01*
X131486000Y-143246000D01*
X131484796Y-143270504D01*
X131481196Y-143294773D01*
X131475235Y-143318571D01*
X131466970Y-143341671D01*
X131456480Y-143363849D01*
X131443867Y-143384893D01*
X131429253Y-143404598D01*
X131412777Y-143422777D01*
X131394598Y-143439253D01*
X131374893Y-143453867D01*
X131353849Y-143466480D01*
X131331671Y-143476970D01*
X131308571Y-143485235D01*
X131284773Y-143491196D01*
X131260504Y-143494796D01*
X131236000Y-143496000D01*
X130311000Y-143496000D01*
X130286496Y-143494796D01*
X130262227Y-143491196D01*
X130238429Y-143485235D01*
X130215329Y-143476970D01*
X130193151Y-143466480D01*
X130172107Y-143453867D01*
X130152402Y-143439253D01*
X130134223Y-143422777D01*
X130117747Y-143404598D01*
X130103133Y-143384893D01*
X130090520Y-143363849D01*
X130080030Y-143341671D01*
X130071765Y-143318571D01*
X130065804Y-143294773D01*
X130062204Y-143270504D01*
X130061000Y-143246000D01*
X130061000Y-141996000D01*
X130062204Y-141971496D01*
X130065804Y-141947227D01*
X130071765Y-141923429D01*
X130080030Y-141900329D01*
X130090520Y-141878151D01*
X130103133Y-141857107D01*
X130117747Y-141837402D01*
X130134223Y-141819223D01*
X130152402Y-141802747D01*
X130172107Y-141788133D01*
X130193151Y-141775520D01*
X130215329Y-141765030D01*
X130238429Y-141756765D01*
X130262227Y-141750804D01*
X130286496Y-141747204D01*
X130311000Y-141746000D01*
X131236000Y-141746000D01*
X131260504Y-141747204D01*
X131260504Y-141747204D01*
G37*
D13*
X130773500Y-142621000D03*
D12*
G36*
X128285504Y-141747204D02*
X128309773Y-141750804D01*
X128333571Y-141756765D01*
X128356671Y-141765030D01*
X128378849Y-141775520D01*
X128399893Y-141788133D01*
X128419598Y-141802747D01*
X128437777Y-141819223D01*
X128454253Y-141837402D01*
X128468867Y-141857107D01*
X128481480Y-141878151D01*
X128491970Y-141900329D01*
X128500235Y-141923429D01*
X128506196Y-141947227D01*
X128509796Y-141971496D01*
X128511000Y-141996000D01*
X128511000Y-143246000D01*
X128509796Y-143270504D01*
X128506196Y-143294773D01*
X128500235Y-143318571D01*
X128491970Y-143341671D01*
X128481480Y-143363849D01*
X128468867Y-143384893D01*
X128454253Y-143404598D01*
X128437777Y-143422777D01*
X128419598Y-143439253D01*
X128399893Y-143453867D01*
X128378849Y-143466480D01*
X128356671Y-143476970D01*
X128333571Y-143485235D01*
X128309773Y-143491196D01*
X128285504Y-143494796D01*
X128261000Y-143496000D01*
X127336000Y-143496000D01*
X127311496Y-143494796D01*
X127287227Y-143491196D01*
X127263429Y-143485235D01*
X127240329Y-143476970D01*
X127218151Y-143466480D01*
X127197107Y-143453867D01*
X127177402Y-143439253D01*
X127159223Y-143422777D01*
X127142747Y-143404598D01*
X127128133Y-143384893D01*
X127115520Y-143363849D01*
X127105030Y-143341671D01*
X127096765Y-143318571D01*
X127090804Y-143294773D01*
X127087204Y-143270504D01*
X127086000Y-143246000D01*
X127086000Y-141996000D01*
X127087204Y-141971496D01*
X127090804Y-141947227D01*
X127096765Y-141923429D01*
X127105030Y-141900329D01*
X127115520Y-141878151D01*
X127128133Y-141857107D01*
X127142747Y-141837402D01*
X127159223Y-141819223D01*
X127177402Y-141802747D01*
X127197107Y-141788133D01*
X127218151Y-141775520D01*
X127240329Y-141765030D01*
X127263429Y-141756765D01*
X127287227Y-141750804D01*
X127311496Y-141747204D01*
X127336000Y-141746000D01*
X128261000Y-141746000D01*
X128285504Y-141747204D01*
X128285504Y-141747204D01*
G37*
D13*
X127798500Y-142621000D03*
G04 #@! TD*
D12*
G04 #@! TO.C,R14*
G36*
X131260504Y-146319204D02*
X131284773Y-146322804D01*
X131308571Y-146328765D01*
X131331671Y-146337030D01*
X131353849Y-146347520D01*
X131374893Y-146360133D01*
X131394598Y-146374747D01*
X131412777Y-146391223D01*
X131429253Y-146409402D01*
X131443867Y-146429107D01*
X131456480Y-146450151D01*
X131466970Y-146472329D01*
X131475235Y-146495429D01*
X131481196Y-146519227D01*
X131484796Y-146543496D01*
X131486000Y-146568000D01*
X131486000Y-147818000D01*
X131484796Y-147842504D01*
X131481196Y-147866773D01*
X131475235Y-147890571D01*
X131466970Y-147913671D01*
X131456480Y-147935849D01*
X131443867Y-147956893D01*
X131429253Y-147976598D01*
X131412777Y-147994777D01*
X131394598Y-148011253D01*
X131374893Y-148025867D01*
X131353849Y-148038480D01*
X131331671Y-148048970D01*
X131308571Y-148057235D01*
X131284773Y-148063196D01*
X131260504Y-148066796D01*
X131236000Y-148068000D01*
X130311000Y-148068000D01*
X130286496Y-148066796D01*
X130262227Y-148063196D01*
X130238429Y-148057235D01*
X130215329Y-148048970D01*
X130193151Y-148038480D01*
X130172107Y-148025867D01*
X130152402Y-148011253D01*
X130134223Y-147994777D01*
X130117747Y-147976598D01*
X130103133Y-147956893D01*
X130090520Y-147935849D01*
X130080030Y-147913671D01*
X130071765Y-147890571D01*
X130065804Y-147866773D01*
X130062204Y-147842504D01*
X130061000Y-147818000D01*
X130061000Y-146568000D01*
X130062204Y-146543496D01*
X130065804Y-146519227D01*
X130071765Y-146495429D01*
X130080030Y-146472329D01*
X130090520Y-146450151D01*
X130103133Y-146429107D01*
X130117747Y-146409402D01*
X130134223Y-146391223D01*
X130152402Y-146374747D01*
X130172107Y-146360133D01*
X130193151Y-146347520D01*
X130215329Y-146337030D01*
X130238429Y-146328765D01*
X130262227Y-146322804D01*
X130286496Y-146319204D01*
X130311000Y-146318000D01*
X131236000Y-146318000D01*
X131260504Y-146319204D01*
X131260504Y-146319204D01*
G37*
D13*
X130773500Y-147193000D03*
D12*
G36*
X128285504Y-146319204D02*
X128309773Y-146322804D01*
X128333571Y-146328765D01*
X128356671Y-146337030D01*
X128378849Y-146347520D01*
X128399893Y-146360133D01*
X128419598Y-146374747D01*
X128437777Y-146391223D01*
X128454253Y-146409402D01*
X128468867Y-146429107D01*
X128481480Y-146450151D01*
X128491970Y-146472329D01*
X128500235Y-146495429D01*
X128506196Y-146519227D01*
X128509796Y-146543496D01*
X128511000Y-146568000D01*
X128511000Y-147818000D01*
X128509796Y-147842504D01*
X128506196Y-147866773D01*
X128500235Y-147890571D01*
X128491970Y-147913671D01*
X128481480Y-147935849D01*
X128468867Y-147956893D01*
X128454253Y-147976598D01*
X128437777Y-147994777D01*
X128419598Y-148011253D01*
X128399893Y-148025867D01*
X128378849Y-148038480D01*
X128356671Y-148048970D01*
X128333571Y-148057235D01*
X128309773Y-148063196D01*
X128285504Y-148066796D01*
X128261000Y-148068000D01*
X127336000Y-148068000D01*
X127311496Y-148066796D01*
X127287227Y-148063196D01*
X127263429Y-148057235D01*
X127240329Y-148048970D01*
X127218151Y-148038480D01*
X127197107Y-148025867D01*
X127177402Y-148011253D01*
X127159223Y-147994777D01*
X127142747Y-147976598D01*
X127128133Y-147956893D01*
X127115520Y-147935849D01*
X127105030Y-147913671D01*
X127096765Y-147890571D01*
X127090804Y-147866773D01*
X127087204Y-147842504D01*
X127086000Y-147818000D01*
X127086000Y-146568000D01*
X127087204Y-146543496D01*
X127090804Y-146519227D01*
X127096765Y-146495429D01*
X127105030Y-146472329D01*
X127115520Y-146450151D01*
X127128133Y-146429107D01*
X127142747Y-146409402D01*
X127159223Y-146391223D01*
X127177402Y-146374747D01*
X127197107Y-146360133D01*
X127218151Y-146347520D01*
X127240329Y-146337030D01*
X127263429Y-146328765D01*
X127287227Y-146322804D01*
X127311496Y-146319204D01*
X127336000Y-146318000D01*
X128261000Y-146318000D01*
X128285504Y-146319204D01*
X128285504Y-146319204D01*
G37*
D13*
X127798500Y-147193000D03*
G04 #@! TD*
D12*
G04 #@! TO.C,R13*
G36*
X131260504Y-135524204D02*
X131284773Y-135527804D01*
X131308571Y-135533765D01*
X131331671Y-135542030D01*
X131353849Y-135552520D01*
X131374893Y-135565133D01*
X131394598Y-135579747D01*
X131412777Y-135596223D01*
X131429253Y-135614402D01*
X131443867Y-135634107D01*
X131456480Y-135655151D01*
X131466970Y-135677329D01*
X131475235Y-135700429D01*
X131481196Y-135724227D01*
X131484796Y-135748496D01*
X131486000Y-135773000D01*
X131486000Y-137023000D01*
X131484796Y-137047504D01*
X131481196Y-137071773D01*
X131475235Y-137095571D01*
X131466970Y-137118671D01*
X131456480Y-137140849D01*
X131443867Y-137161893D01*
X131429253Y-137181598D01*
X131412777Y-137199777D01*
X131394598Y-137216253D01*
X131374893Y-137230867D01*
X131353849Y-137243480D01*
X131331671Y-137253970D01*
X131308571Y-137262235D01*
X131284773Y-137268196D01*
X131260504Y-137271796D01*
X131236000Y-137273000D01*
X130311000Y-137273000D01*
X130286496Y-137271796D01*
X130262227Y-137268196D01*
X130238429Y-137262235D01*
X130215329Y-137253970D01*
X130193151Y-137243480D01*
X130172107Y-137230867D01*
X130152402Y-137216253D01*
X130134223Y-137199777D01*
X130117747Y-137181598D01*
X130103133Y-137161893D01*
X130090520Y-137140849D01*
X130080030Y-137118671D01*
X130071765Y-137095571D01*
X130065804Y-137071773D01*
X130062204Y-137047504D01*
X130061000Y-137023000D01*
X130061000Y-135773000D01*
X130062204Y-135748496D01*
X130065804Y-135724227D01*
X130071765Y-135700429D01*
X130080030Y-135677329D01*
X130090520Y-135655151D01*
X130103133Y-135634107D01*
X130117747Y-135614402D01*
X130134223Y-135596223D01*
X130152402Y-135579747D01*
X130172107Y-135565133D01*
X130193151Y-135552520D01*
X130215329Y-135542030D01*
X130238429Y-135533765D01*
X130262227Y-135527804D01*
X130286496Y-135524204D01*
X130311000Y-135523000D01*
X131236000Y-135523000D01*
X131260504Y-135524204D01*
X131260504Y-135524204D01*
G37*
D13*
X130773500Y-136398000D03*
D12*
G36*
X128285504Y-135524204D02*
X128309773Y-135527804D01*
X128333571Y-135533765D01*
X128356671Y-135542030D01*
X128378849Y-135552520D01*
X128399893Y-135565133D01*
X128419598Y-135579747D01*
X128437777Y-135596223D01*
X128454253Y-135614402D01*
X128468867Y-135634107D01*
X128481480Y-135655151D01*
X128491970Y-135677329D01*
X128500235Y-135700429D01*
X128506196Y-135724227D01*
X128509796Y-135748496D01*
X128511000Y-135773000D01*
X128511000Y-137023000D01*
X128509796Y-137047504D01*
X128506196Y-137071773D01*
X128500235Y-137095571D01*
X128491970Y-137118671D01*
X128481480Y-137140849D01*
X128468867Y-137161893D01*
X128454253Y-137181598D01*
X128437777Y-137199777D01*
X128419598Y-137216253D01*
X128399893Y-137230867D01*
X128378849Y-137243480D01*
X128356671Y-137253970D01*
X128333571Y-137262235D01*
X128309773Y-137268196D01*
X128285504Y-137271796D01*
X128261000Y-137273000D01*
X127336000Y-137273000D01*
X127311496Y-137271796D01*
X127287227Y-137268196D01*
X127263429Y-137262235D01*
X127240329Y-137253970D01*
X127218151Y-137243480D01*
X127197107Y-137230867D01*
X127177402Y-137216253D01*
X127159223Y-137199777D01*
X127142747Y-137181598D01*
X127128133Y-137161893D01*
X127115520Y-137140849D01*
X127105030Y-137118671D01*
X127096765Y-137095571D01*
X127090804Y-137071773D01*
X127087204Y-137047504D01*
X127086000Y-137023000D01*
X127086000Y-135773000D01*
X127087204Y-135748496D01*
X127090804Y-135724227D01*
X127096765Y-135700429D01*
X127105030Y-135677329D01*
X127115520Y-135655151D01*
X127128133Y-135634107D01*
X127142747Y-135614402D01*
X127159223Y-135596223D01*
X127177402Y-135579747D01*
X127197107Y-135565133D01*
X127218151Y-135552520D01*
X127240329Y-135542030D01*
X127263429Y-135533765D01*
X127287227Y-135527804D01*
X127311496Y-135524204D01*
X127336000Y-135523000D01*
X128261000Y-135523000D01*
X128285504Y-135524204D01*
X128285504Y-135524204D01*
G37*
D13*
X127798500Y-136398000D03*
G04 #@! TD*
D12*
G04 #@! TO.C,R11*
G36*
X131260504Y-117617204D02*
X131284773Y-117620804D01*
X131308571Y-117626765D01*
X131331671Y-117635030D01*
X131353849Y-117645520D01*
X131374893Y-117658133D01*
X131394598Y-117672747D01*
X131412777Y-117689223D01*
X131429253Y-117707402D01*
X131443867Y-117727107D01*
X131456480Y-117748151D01*
X131466970Y-117770329D01*
X131475235Y-117793429D01*
X131481196Y-117817227D01*
X131484796Y-117841496D01*
X131486000Y-117866000D01*
X131486000Y-119116000D01*
X131484796Y-119140504D01*
X131481196Y-119164773D01*
X131475235Y-119188571D01*
X131466970Y-119211671D01*
X131456480Y-119233849D01*
X131443867Y-119254893D01*
X131429253Y-119274598D01*
X131412777Y-119292777D01*
X131394598Y-119309253D01*
X131374893Y-119323867D01*
X131353849Y-119336480D01*
X131331671Y-119346970D01*
X131308571Y-119355235D01*
X131284773Y-119361196D01*
X131260504Y-119364796D01*
X131236000Y-119366000D01*
X130311000Y-119366000D01*
X130286496Y-119364796D01*
X130262227Y-119361196D01*
X130238429Y-119355235D01*
X130215329Y-119346970D01*
X130193151Y-119336480D01*
X130172107Y-119323867D01*
X130152402Y-119309253D01*
X130134223Y-119292777D01*
X130117747Y-119274598D01*
X130103133Y-119254893D01*
X130090520Y-119233849D01*
X130080030Y-119211671D01*
X130071765Y-119188571D01*
X130065804Y-119164773D01*
X130062204Y-119140504D01*
X130061000Y-119116000D01*
X130061000Y-117866000D01*
X130062204Y-117841496D01*
X130065804Y-117817227D01*
X130071765Y-117793429D01*
X130080030Y-117770329D01*
X130090520Y-117748151D01*
X130103133Y-117727107D01*
X130117747Y-117707402D01*
X130134223Y-117689223D01*
X130152402Y-117672747D01*
X130172107Y-117658133D01*
X130193151Y-117645520D01*
X130215329Y-117635030D01*
X130238429Y-117626765D01*
X130262227Y-117620804D01*
X130286496Y-117617204D01*
X130311000Y-117616000D01*
X131236000Y-117616000D01*
X131260504Y-117617204D01*
X131260504Y-117617204D01*
G37*
D13*
X130773500Y-118491000D03*
D12*
G36*
X128285504Y-117617204D02*
X128309773Y-117620804D01*
X128333571Y-117626765D01*
X128356671Y-117635030D01*
X128378849Y-117645520D01*
X128399893Y-117658133D01*
X128419598Y-117672747D01*
X128437777Y-117689223D01*
X128454253Y-117707402D01*
X128468867Y-117727107D01*
X128481480Y-117748151D01*
X128491970Y-117770329D01*
X128500235Y-117793429D01*
X128506196Y-117817227D01*
X128509796Y-117841496D01*
X128511000Y-117866000D01*
X128511000Y-119116000D01*
X128509796Y-119140504D01*
X128506196Y-119164773D01*
X128500235Y-119188571D01*
X128491970Y-119211671D01*
X128481480Y-119233849D01*
X128468867Y-119254893D01*
X128454253Y-119274598D01*
X128437777Y-119292777D01*
X128419598Y-119309253D01*
X128399893Y-119323867D01*
X128378849Y-119336480D01*
X128356671Y-119346970D01*
X128333571Y-119355235D01*
X128309773Y-119361196D01*
X128285504Y-119364796D01*
X128261000Y-119366000D01*
X127336000Y-119366000D01*
X127311496Y-119364796D01*
X127287227Y-119361196D01*
X127263429Y-119355235D01*
X127240329Y-119346970D01*
X127218151Y-119336480D01*
X127197107Y-119323867D01*
X127177402Y-119309253D01*
X127159223Y-119292777D01*
X127142747Y-119274598D01*
X127128133Y-119254893D01*
X127115520Y-119233849D01*
X127105030Y-119211671D01*
X127096765Y-119188571D01*
X127090804Y-119164773D01*
X127087204Y-119140504D01*
X127086000Y-119116000D01*
X127086000Y-117866000D01*
X127087204Y-117841496D01*
X127090804Y-117817227D01*
X127096765Y-117793429D01*
X127105030Y-117770329D01*
X127115520Y-117748151D01*
X127128133Y-117727107D01*
X127142747Y-117707402D01*
X127159223Y-117689223D01*
X127177402Y-117672747D01*
X127197107Y-117658133D01*
X127218151Y-117645520D01*
X127240329Y-117635030D01*
X127263429Y-117626765D01*
X127287227Y-117620804D01*
X127311496Y-117617204D01*
X127336000Y-117616000D01*
X128261000Y-117616000D01*
X128285504Y-117617204D01*
X128285504Y-117617204D01*
G37*
D13*
X127798500Y-118491000D03*
G04 #@! TD*
D12*
G04 #@! TO.C,R10*
G36*
X151398504Y-109270704D02*
X151422773Y-109274304D01*
X151446571Y-109280265D01*
X151469671Y-109288530D01*
X151491849Y-109299020D01*
X151512893Y-109311633D01*
X151532598Y-109326247D01*
X151550777Y-109342723D01*
X151567253Y-109360902D01*
X151581867Y-109380607D01*
X151594480Y-109401651D01*
X151604970Y-109423829D01*
X151613235Y-109446929D01*
X151619196Y-109470727D01*
X151622796Y-109494996D01*
X151624000Y-109519500D01*
X151624000Y-110444500D01*
X151622796Y-110469004D01*
X151619196Y-110493273D01*
X151613235Y-110517071D01*
X151604970Y-110540171D01*
X151594480Y-110562349D01*
X151581867Y-110583393D01*
X151567253Y-110603098D01*
X151550777Y-110621277D01*
X151532598Y-110637753D01*
X151512893Y-110652367D01*
X151491849Y-110664980D01*
X151469671Y-110675470D01*
X151446571Y-110683735D01*
X151422773Y-110689696D01*
X151398504Y-110693296D01*
X151374000Y-110694500D01*
X150124000Y-110694500D01*
X150099496Y-110693296D01*
X150075227Y-110689696D01*
X150051429Y-110683735D01*
X150028329Y-110675470D01*
X150006151Y-110664980D01*
X149985107Y-110652367D01*
X149965402Y-110637753D01*
X149947223Y-110621277D01*
X149930747Y-110603098D01*
X149916133Y-110583393D01*
X149903520Y-110562349D01*
X149893030Y-110540171D01*
X149884765Y-110517071D01*
X149878804Y-110493273D01*
X149875204Y-110469004D01*
X149874000Y-110444500D01*
X149874000Y-109519500D01*
X149875204Y-109494996D01*
X149878804Y-109470727D01*
X149884765Y-109446929D01*
X149893030Y-109423829D01*
X149903520Y-109401651D01*
X149916133Y-109380607D01*
X149930747Y-109360902D01*
X149947223Y-109342723D01*
X149965402Y-109326247D01*
X149985107Y-109311633D01*
X150006151Y-109299020D01*
X150028329Y-109288530D01*
X150051429Y-109280265D01*
X150075227Y-109274304D01*
X150099496Y-109270704D01*
X150124000Y-109269500D01*
X151374000Y-109269500D01*
X151398504Y-109270704D01*
X151398504Y-109270704D01*
G37*
D13*
X150749000Y-109982000D03*
D12*
G36*
X151398504Y-112245704D02*
X151422773Y-112249304D01*
X151446571Y-112255265D01*
X151469671Y-112263530D01*
X151491849Y-112274020D01*
X151512893Y-112286633D01*
X151532598Y-112301247D01*
X151550777Y-112317723D01*
X151567253Y-112335902D01*
X151581867Y-112355607D01*
X151594480Y-112376651D01*
X151604970Y-112398829D01*
X151613235Y-112421929D01*
X151619196Y-112445727D01*
X151622796Y-112469996D01*
X151624000Y-112494500D01*
X151624000Y-113419500D01*
X151622796Y-113444004D01*
X151619196Y-113468273D01*
X151613235Y-113492071D01*
X151604970Y-113515171D01*
X151594480Y-113537349D01*
X151581867Y-113558393D01*
X151567253Y-113578098D01*
X151550777Y-113596277D01*
X151532598Y-113612753D01*
X151512893Y-113627367D01*
X151491849Y-113639980D01*
X151469671Y-113650470D01*
X151446571Y-113658735D01*
X151422773Y-113664696D01*
X151398504Y-113668296D01*
X151374000Y-113669500D01*
X150124000Y-113669500D01*
X150099496Y-113668296D01*
X150075227Y-113664696D01*
X150051429Y-113658735D01*
X150028329Y-113650470D01*
X150006151Y-113639980D01*
X149985107Y-113627367D01*
X149965402Y-113612753D01*
X149947223Y-113596277D01*
X149930747Y-113578098D01*
X149916133Y-113558393D01*
X149903520Y-113537349D01*
X149893030Y-113515171D01*
X149884765Y-113492071D01*
X149878804Y-113468273D01*
X149875204Y-113444004D01*
X149874000Y-113419500D01*
X149874000Y-112494500D01*
X149875204Y-112469996D01*
X149878804Y-112445727D01*
X149884765Y-112421929D01*
X149893030Y-112398829D01*
X149903520Y-112376651D01*
X149916133Y-112355607D01*
X149930747Y-112335902D01*
X149947223Y-112317723D01*
X149965402Y-112301247D01*
X149985107Y-112286633D01*
X150006151Y-112274020D01*
X150028329Y-112263530D01*
X150051429Y-112255265D01*
X150075227Y-112249304D01*
X150099496Y-112245704D01*
X150124000Y-112244500D01*
X151374000Y-112244500D01*
X151398504Y-112245704D01*
X151398504Y-112245704D01*
G37*
D13*
X150749000Y-112957000D03*
G04 #@! TD*
D12*
G04 #@! TO.C,R9*
G36*
X136663840Y-93230206D02*
X136688109Y-93233806D01*
X136711907Y-93239767D01*
X136735007Y-93248032D01*
X136757185Y-93258522D01*
X136778229Y-93271135D01*
X136797934Y-93285749D01*
X136816113Y-93302225D01*
X136832589Y-93320404D01*
X136847203Y-93340109D01*
X136859816Y-93361153D01*
X136870306Y-93383331D01*
X136878571Y-93406431D01*
X136884532Y-93430229D01*
X136888132Y-93454498D01*
X136889336Y-93479002D01*
X136889336Y-94729002D01*
X136888132Y-94753506D01*
X136884532Y-94777775D01*
X136878571Y-94801573D01*
X136870306Y-94824673D01*
X136859816Y-94846851D01*
X136847203Y-94867895D01*
X136832589Y-94887600D01*
X136816113Y-94905779D01*
X136797934Y-94922255D01*
X136778229Y-94936869D01*
X136757185Y-94949482D01*
X136735007Y-94959972D01*
X136711907Y-94968237D01*
X136688109Y-94974198D01*
X136663840Y-94977798D01*
X136639336Y-94979002D01*
X135714336Y-94979002D01*
X135689832Y-94977798D01*
X135665563Y-94974198D01*
X135641765Y-94968237D01*
X135618665Y-94959972D01*
X135596487Y-94949482D01*
X135575443Y-94936869D01*
X135555738Y-94922255D01*
X135537559Y-94905779D01*
X135521083Y-94887600D01*
X135506469Y-94867895D01*
X135493856Y-94846851D01*
X135483366Y-94824673D01*
X135475101Y-94801573D01*
X135469140Y-94777775D01*
X135465540Y-94753506D01*
X135464336Y-94729002D01*
X135464336Y-93479002D01*
X135465540Y-93454498D01*
X135469140Y-93430229D01*
X135475101Y-93406431D01*
X135483366Y-93383331D01*
X135493856Y-93361153D01*
X135506469Y-93340109D01*
X135521083Y-93320404D01*
X135537559Y-93302225D01*
X135555738Y-93285749D01*
X135575443Y-93271135D01*
X135596487Y-93258522D01*
X135618665Y-93248032D01*
X135641765Y-93239767D01*
X135665563Y-93233806D01*
X135689832Y-93230206D01*
X135714336Y-93229002D01*
X136639336Y-93229002D01*
X136663840Y-93230206D01*
X136663840Y-93230206D01*
G37*
D13*
X136176836Y-94104002D03*
D12*
G36*
X133688840Y-93230206D02*
X133713109Y-93233806D01*
X133736907Y-93239767D01*
X133760007Y-93248032D01*
X133782185Y-93258522D01*
X133803229Y-93271135D01*
X133822934Y-93285749D01*
X133841113Y-93302225D01*
X133857589Y-93320404D01*
X133872203Y-93340109D01*
X133884816Y-93361153D01*
X133895306Y-93383331D01*
X133903571Y-93406431D01*
X133909532Y-93430229D01*
X133913132Y-93454498D01*
X133914336Y-93479002D01*
X133914336Y-94729002D01*
X133913132Y-94753506D01*
X133909532Y-94777775D01*
X133903571Y-94801573D01*
X133895306Y-94824673D01*
X133884816Y-94846851D01*
X133872203Y-94867895D01*
X133857589Y-94887600D01*
X133841113Y-94905779D01*
X133822934Y-94922255D01*
X133803229Y-94936869D01*
X133782185Y-94949482D01*
X133760007Y-94959972D01*
X133736907Y-94968237D01*
X133713109Y-94974198D01*
X133688840Y-94977798D01*
X133664336Y-94979002D01*
X132739336Y-94979002D01*
X132714832Y-94977798D01*
X132690563Y-94974198D01*
X132666765Y-94968237D01*
X132643665Y-94959972D01*
X132621487Y-94949482D01*
X132600443Y-94936869D01*
X132580738Y-94922255D01*
X132562559Y-94905779D01*
X132546083Y-94887600D01*
X132531469Y-94867895D01*
X132518856Y-94846851D01*
X132508366Y-94824673D01*
X132500101Y-94801573D01*
X132494140Y-94777775D01*
X132490540Y-94753506D01*
X132489336Y-94729002D01*
X132489336Y-93479002D01*
X132490540Y-93454498D01*
X132494140Y-93430229D01*
X132500101Y-93406431D01*
X132508366Y-93383331D01*
X132518856Y-93361153D01*
X132531469Y-93340109D01*
X132546083Y-93320404D01*
X132562559Y-93302225D01*
X132580738Y-93285749D01*
X132600443Y-93271135D01*
X132621487Y-93258522D01*
X132643665Y-93248032D01*
X132666765Y-93239767D01*
X132690563Y-93233806D01*
X132714832Y-93230206D01*
X132739336Y-93229002D01*
X133664336Y-93229002D01*
X133688840Y-93230206D01*
X133688840Y-93230206D01*
G37*
D13*
X133201836Y-94104002D03*
G04 #@! TD*
D12*
G04 #@! TO.C,R8*
G36*
X136663840Y-90690206D02*
X136688109Y-90693806D01*
X136711907Y-90699767D01*
X136735007Y-90708032D01*
X136757185Y-90718522D01*
X136778229Y-90731135D01*
X136797934Y-90745749D01*
X136816113Y-90762225D01*
X136832589Y-90780404D01*
X136847203Y-90800109D01*
X136859816Y-90821153D01*
X136870306Y-90843331D01*
X136878571Y-90866431D01*
X136884532Y-90890229D01*
X136888132Y-90914498D01*
X136889336Y-90939002D01*
X136889336Y-92189002D01*
X136888132Y-92213506D01*
X136884532Y-92237775D01*
X136878571Y-92261573D01*
X136870306Y-92284673D01*
X136859816Y-92306851D01*
X136847203Y-92327895D01*
X136832589Y-92347600D01*
X136816113Y-92365779D01*
X136797934Y-92382255D01*
X136778229Y-92396869D01*
X136757185Y-92409482D01*
X136735007Y-92419972D01*
X136711907Y-92428237D01*
X136688109Y-92434198D01*
X136663840Y-92437798D01*
X136639336Y-92439002D01*
X135714336Y-92439002D01*
X135689832Y-92437798D01*
X135665563Y-92434198D01*
X135641765Y-92428237D01*
X135618665Y-92419972D01*
X135596487Y-92409482D01*
X135575443Y-92396869D01*
X135555738Y-92382255D01*
X135537559Y-92365779D01*
X135521083Y-92347600D01*
X135506469Y-92327895D01*
X135493856Y-92306851D01*
X135483366Y-92284673D01*
X135475101Y-92261573D01*
X135469140Y-92237775D01*
X135465540Y-92213506D01*
X135464336Y-92189002D01*
X135464336Y-90939002D01*
X135465540Y-90914498D01*
X135469140Y-90890229D01*
X135475101Y-90866431D01*
X135483366Y-90843331D01*
X135493856Y-90821153D01*
X135506469Y-90800109D01*
X135521083Y-90780404D01*
X135537559Y-90762225D01*
X135555738Y-90745749D01*
X135575443Y-90731135D01*
X135596487Y-90718522D01*
X135618665Y-90708032D01*
X135641765Y-90699767D01*
X135665563Y-90693806D01*
X135689832Y-90690206D01*
X135714336Y-90689002D01*
X136639336Y-90689002D01*
X136663840Y-90690206D01*
X136663840Y-90690206D01*
G37*
D13*
X136176836Y-91564002D03*
D12*
G36*
X133688840Y-90690206D02*
X133713109Y-90693806D01*
X133736907Y-90699767D01*
X133760007Y-90708032D01*
X133782185Y-90718522D01*
X133803229Y-90731135D01*
X133822934Y-90745749D01*
X133841113Y-90762225D01*
X133857589Y-90780404D01*
X133872203Y-90800109D01*
X133884816Y-90821153D01*
X133895306Y-90843331D01*
X133903571Y-90866431D01*
X133909532Y-90890229D01*
X133913132Y-90914498D01*
X133914336Y-90939002D01*
X133914336Y-92189002D01*
X133913132Y-92213506D01*
X133909532Y-92237775D01*
X133903571Y-92261573D01*
X133895306Y-92284673D01*
X133884816Y-92306851D01*
X133872203Y-92327895D01*
X133857589Y-92347600D01*
X133841113Y-92365779D01*
X133822934Y-92382255D01*
X133803229Y-92396869D01*
X133782185Y-92409482D01*
X133760007Y-92419972D01*
X133736907Y-92428237D01*
X133713109Y-92434198D01*
X133688840Y-92437798D01*
X133664336Y-92439002D01*
X132739336Y-92439002D01*
X132714832Y-92437798D01*
X132690563Y-92434198D01*
X132666765Y-92428237D01*
X132643665Y-92419972D01*
X132621487Y-92409482D01*
X132600443Y-92396869D01*
X132580738Y-92382255D01*
X132562559Y-92365779D01*
X132546083Y-92347600D01*
X132531469Y-92327895D01*
X132518856Y-92306851D01*
X132508366Y-92284673D01*
X132500101Y-92261573D01*
X132494140Y-92237775D01*
X132490540Y-92213506D01*
X132489336Y-92189002D01*
X132489336Y-90939002D01*
X132490540Y-90914498D01*
X132494140Y-90890229D01*
X132500101Y-90866431D01*
X132508366Y-90843331D01*
X132518856Y-90821153D01*
X132531469Y-90800109D01*
X132546083Y-90780404D01*
X132562559Y-90762225D01*
X132580738Y-90745749D01*
X132600443Y-90731135D01*
X132621487Y-90718522D01*
X132643665Y-90708032D01*
X132666765Y-90699767D01*
X132690563Y-90693806D01*
X132714832Y-90690206D01*
X132739336Y-90689002D01*
X133664336Y-90689002D01*
X133688840Y-90690206D01*
X133688840Y-90690206D01*
G37*
D13*
X133201836Y-91564002D03*
G04 #@! TD*
D12*
G04 #@! TO.C,R7*
G36*
X136663840Y-88150206D02*
X136688109Y-88153806D01*
X136711907Y-88159767D01*
X136735007Y-88168032D01*
X136757185Y-88178522D01*
X136778229Y-88191135D01*
X136797934Y-88205749D01*
X136816113Y-88222225D01*
X136832589Y-88240404D01*
X136847203Y-88260109D01*
X136859816Y-88281153D01*
X136870306Y-88303331D01*
X136878571Y-88326431D01*
X136884532Y-88350229D01*
X136888132Y-88374498D01*
X136889336Y-88399002D01*
X136889336Y-89649002D01*
X136888132Y-89673506D01*
X136884532Y-89697775D01*
X136878571Y-89721573D01*
X136870306Y-89744673D01*
X136859816Y-89766851D01*
X136847203Y-89787895D01*
X136832589Y-89807600D01*
X136816113Y-89825779D01*
X136797934Y-89842255D01*
X136778229Y-89856869D01*
X136757185Y-89869482D01*
X136735007Y-89879972D01*
X136711907Y-89888237D01*
X136688109Y-89894198D01*
X136663840Y-89897798D01*
X136639336Y-89899002D01*
X135714336Y-89899002D01*
X135689832Y-89897798D01*
X135665563Y-89894198D01*
X135641765Y-89888237D01*
X135618665Y-89879972D01*
X135596487Y-89869482D01*
X135575443Y-89856869D01*
X135555738Y-89842255D01*
X135537559Y-89825779D01*
X135521083Y-89807600D01*
X135506469Y-89787895D01*
X135493856Y-89766851D01*
X135483366Y-89744673D01*
X135475101Y-89721573D01*
X135469140Y-89697775D01*
X135465540Y-89673506D01*
X135464336Y-89649002D01*
X135464336Y-88399002D01*
X135465540Y-88374498D01*
X135469140Y-88350229D01*
X135475101Y-88326431D01*
X135483366Y-88303331D01*
X135493856Y-88281153D01*
X135506469Y-88260109D01*
X135521083Y-88240404D01*
X135537559Y-88222225D01*
X135555738Y-88205749D01*
X135575443Y-88191135D01*
X135596487Y-88178522D01*
X135618665Y-88168032D01*
X135641765Y-88159767D01*
X135665563Y-88153806D01*
X135689832Y-88150206D01*
X135714336Y-88149002D01*
X136639336Y-88149002D01*
X136663840Y-88150206D01*
X136663840Y-88150206D01*
G37*
D13*
X136176836Y-89024002D03*
D12*
G36*
X133688840Y-88150206D02*
X133713109Y-88153806D01*
X133736907Y-88159767D01*
X133760007Y-88168032D01*
X133782185Y-88178522D01*
X133803229Y-88191135D01*
X133822934Y-88205749D01*
X133841113Y-88222225D01*
X133857589Y-88240404D01*
X133872203Y-88260109D01*
X133884816Y-88281153D01*
X133895306Y-88303331D01*
X133903571Y-88326431D01*
X133909532Y-88350229D01*
X133913132Y-88374498D01*
X133914336Y-88399002D01*
X133914336Y-89649002D01*
X133913132Y-89673506D01*
X133909532Y-89697775D01*
X133903571Y-89721573D01*
X133895306Y-89744673D01*
X133884816Y-89766851D01*
X133872203Y-89787895D01*
X133857589Y-89807600D01*
X133841113Y-89825779D01*
X133822934Y-89842255D01*
X133803229Y-89856869D01*
X133782185Y-89869482D01*
X133760007Y-89879972D01*
X133736907Y-89888237D01*
X133713109Y-89894198D01*
X133688840Y-89897798D01*
X133664336Y-89899002D01*
X132739336Y-89899002D01*
X132714832Y-89897798D01*
X132690563Y-89894198D01*
X132666765Y-89888237D01*
X132643665Y-89879972D01*
X132621487Y-89869482D01*
X132600443Y-89856869D01*
X132580738Y-89842255D01*
X132562559Y-89825779D01*
X132546083Y-89807600D01*
X132531469Y-89787895D01*
X132518856Y-89766851D01*
X132508366Y-89744673D01*
X132500101Y-89721573D01*
X132494140Y-89697775D01*
X132490540Y-89673506D01*
X132489336Y-89649002D01*
X132489336Y-88399002D01*
X132490540Y-88374498D01*
X132494140Y-88350229D01*
X132500101Y-88326431D01*
X132508366Y-88303331D01*
X132518856Y-88281153D01*
X132531469Y-88260109D01*
X132546083Y-88240404D01*
X132562559Y-88222225D01*
X132580738Y-88205749D01*
X132600443Y-88191135D01*
X132621487Y-88178522D01*
X132643665Y-88168032D01*
X132666765Y-88159767D01*
X132690563Y-88153806D01*
X132714832Y-88150206D01*
X132739336Y-88149002D01*
X133664336Y-88149002D01*
X133688840Y-88150206D01*
X133688840Y-88150206D01*
G37*
D13*
X133201836Y-89024002D03*
G04 #@! TD*
D12*
G04 #@! TO.C,R6*
G36*
X136663840Y-85610206D02*
X136688109Y-85613806D01*
X136711907Y-85619767D01*
X136735007Y-85628032D01*
X136757185Y-85638522D01*
X136778229Y-85651135D01*
X136797934Y-85665749D01*
X136816113Y-85682225D01*
X136832589Y-85700404D01*
X136847203Y-85720109D01*
X136859816Y-85741153D01*
X136870306Y-85763331D01*
X136878571Y-85786431D01*
X136884532Y-85810229D01*
X136888132Y-85834498D01*
X136889336Y-85859002D01*
X136889336Y-87109002D01*
X136888132Y-87133506D01*
X136884532Y-87157775D01*
X136878571Y-87181573D01*
X136870306Y-87204673D01*
X136859816Y-87226851D01*
X136847203Y-87247895D01*
X136832589Y-87267600D01*
X136816113Y-87285779D01*
X136797934Y-87302255D01*
X136778229Y-87316869D01*
X136757185Y-87329482D01*
X136735007Y-87339972D01*
X136711907Y-87348237D01*
X136688109Y-87354198D01*
X136663840Y-87357798D01*
X136639336Y-87359002D01*
X135714336Y-87359002D01*
X135689832Y-87357798D01*
X135665563Y-87354198D01*
X135641765Y-87348237D01*
X135618665Y-87339972D01*
X135596487Y-87329482D01*
X135575443Y-87316869D01*
X135555738Y-87302255D01*
X135537559Y-87285779D01*
X135521083Y-87267600D01*
X135506469Y-87247895D01*
X135493856Y-87226851D01*
X135483366Y-87204673D01*
X135475101Y-87181573D01*
X135469140Y-87157775D01*
X135465540Y-87133506D01*
X135464336Y-87109002D01*
X135464336Y-85859002D01*
X135465540Y-85834498D01*
X135469140Y-85810229D01*
X135475101Y-85786431D01*
X135483366Y-85763331D01*
X135493856Y-85741153D01*
X135506469Y-85720109D01*
X135521083Y-85700404D01*
X135537559Y-85682225D01*
X135555738Y-85665749D01*
X135575443Y-85651135D01*
X135596487Y-85638522D01*
X135618665Y-85628032D01*
X135641765Y-85619767D01*
X135665563Y-85613806D01*
X135689832Y-85610206D01*
X135714336Y-85609002D01*
X136639336Y-85609002D01*
X136663840Y-85610206D01*
X136663840Y-85610206D01*
G37*
D13*
X136176836Y-86484002D03*
D12*
G36*
X133688840Y-85610206D02*
X133713109Y-85613806D01*
X133736907Y-85619767D01*
X133760007Y-85628032D01*
X133782185Y-85638522D01*
X133803229Y-85651135D01*
X133822934Y-85665749D01*
X133841113Y-85682225D01*
X133857589Y-85700404D01*
X133872203Y-85720109D01*
X133884816Y-85741153D01*
X133895306Y-85763331D01*
X133903571Y-85786431D01*
X133909532Y-85810229D01*
X133913132Y-85834498D01*
X133914336Y-85859002D01*
X133914336Y-87109002D01*
X133913132Y-87133506D01*
X133909532Y-87157775D01*
X133903571Y-87181573D01*
X133895306Y-87204673D01*
X133884816Y-87226851D01*
X133872203Y-87247895D01*
X133857589Y-87267600D01*
X133841113Y-87285779D01*
X133822934Y-87302255D01*
X133803229Y-87316869D01*
X133782185Y-87329482D01*
X133760007Y-87339972D01*
X133736907Y-87348237D01*
X133713109Y-87354198D01*
X133688840Y-87357798D01*
X133664336Y-87359002D01*
X132739336Y-87359002D01*
X132714832Y-87357798D01*
X132690563Y-87354198D01*
X132666765Y-87348237D01*
X132643665Y-87339972D01*
X132621487Y-87329482D01*
X132600443Y-87316869D01*
X132580738Y-87302255D01*
X132562559Y-87285779D01*
X132546083Y-87267600D01*
X132531469Y-87247895D01*
X132518856Y-87226851D01*
X132508366Y-87204673D01*
X132500101Y-87181573D01*
X132494140Y-87157775D01*
X132490540Y-87133506D01*
X132489336Y-87109002D01*
X132489336Y-85859002D01*
X132490540Y-85834498D01*
X132494140Y-85810229D01*
X132500101Y-85786431D01*
X132508366Y-85763331D01*
X132518856Y-85741153D01*
X132531469Y-85720109D01*
X132546083Y-85700404D01*
X132562559Y-85682225D01*
X132580738Y-85665749D01*
X132600443Y-85651135D01*
X132621487Y-85638522D01*
X132643665Y-85628032D01*
X132666765Y-85619767D01*
X132690563Y-85613806D01*
X132714832Y-85610206D01*
X132739336Y-85609002D01*
X133664336Y-85609002D01*
X133688840Y-85610206D01*
X133688840Y-85610206D01*
G37*
D13*
X133201836Y-86484002D03*
G04 #@! TD*
D12*
G04 #@! TO.C,R5*
G36*
X136663840Y-83070206D02*
X136688109Y-83073806D01*
X136711907Y-83079767D01*
X136735007Y-83088032D01*
X136757185Y-83098522D01*
X136778229Y-83111135D01*
X136797934Y-83125749D01*
X136816113Y-83142225D01*
X136832589Y-83160404D01*
X136847203Y-83180109D01*
X136859816Y-83201153D01*
X136870306Y-83223331D01*
X136878571Y-83246431D01*
X136884532Y-83270229D01*
X136888132Y-83294498D01*
X136889336Y-83319002D01*
X136889336Y-84569002D01*
X136888132Y-84593506D01*
X136884532Y-84617775D01*
X136878571Y-84641573D01*
X136870306Y-84664673D01*
X136859816Y-84686851D01*
X136847203Y-84707895D01*
X136832589Y-84727600D01*
X136816113Y-84745779D01*
X136797934Y-84762255D01*
X136778229Y-84776869D01*
X136757185Y-84789482D01*
X136735007Y-84799972D01*
X136711907Y-84808237D01*
X136688109Y-84814198D01*
X136663840Y-84817798D01*
X136639336Y-84819002D01*
X135714336Y-84819002D01*
X135689832Y-84817798D01*
X135665563Y-84814198D01*
X135641765Y-84808237D01*
X135618665Y-84799972D01*
X135596487Y-84789482D01*
X135575443Y-84776869D01*
X135555738Y-84762255D01*
X135537559Y-84745779D01*
X135521083Y-84727600D01*
X135506469Y-84707895D01*
X135493856Y-84686851D01*
X135483366Y-84664673D01*
X135475101Y-84641573D01*
X135469140Y-84617775D01*
X135465540Y-84593506D01*
X135464336Y-84569002D01*
X135464336Y-83319002D01*
X135465540Y-83294498D01*
X135469140Y-83270229D01*
X135475101Y-83246431D01*
X135483366Y-83223331D01*
X135493856Y-83201153D01*
X135506469Y-83180109D01*
X135521083Y-83160404D01*
X135537559Y-83142225D01*
X135555738Y-83125749D01*
X135575443Y-83111135D01*
X135596487Y-83098522D01*
X135618665Y-83088032D01*
X135641765Y-83079767D01*
X135665563Y-83073806D01*
X135689832Y-83070206D01*
X135714336Y-83069002D01*
X136639336Y-83069002D01*
X136663840Y-83070206D01*
X136663840Y-83070206D01*
G37*
D13*
X136176836Y-83944002D03*
D12*
G36*
X133688840Y-83070206D02*
X133713109Y-83073806D01*
X133736907Y-83079767D01*
X133760007Y-83088032D01*
X133782185Y-83098522D01*
X133803229Y-83111135D01*
X133822934Y-83125749D01*
X133841113Y-83142225D01*
X133857589Y-83160404D01*
X133872203Y-83180109D01*
X133884816Y-83201153D01*
X133895306Y-83223331D01*
X133903571Y-83246431D01*
X133909532Y-83270229D01*
X133913132Y-83294498D01*
X133914336Y-83319002D01*
X133914336Y-84569002D01*
X133913132Y-84593506D01*
X133909532Y-84617775D01*
X133903571Y-84641573D01*
X133895306Y-84664673D01*
X133884816Y-84686851D01*
X133872203Y-84707895D01*
X133857589Y-84727600D01*
X133841113Y-84745779D01*
X133822934Y-84762255D01*
X133803229Y-84776869D01*
X133782185Y-84789482D01*
X133760007Y-84799972D01*
X133736907Y-84808237D01*
X133713109Y-84814198D01*
X133688840Y-84817798D01*
X133664336Y-84819002D01*
X132739336Y-84819002D01*
X132714832Y-84817798D01*
X132690563Y-84814198D01*
X132666765Y-84808237D01*
X132643665Y-84799972D01*
X132621487Y-84789482D01*
X132600443Y-84776869D01*
X132580738Y-84762255D01*
X132562559Y-84745779D01*
X132546083Y-84727600D01*
X132531469Y-84707895D01*
X132518856Y-84686851D01*
X132508366Y-84664673D01*
X132500101Y-84641573D01*
X132494140Y-84617775D01*
X132490540Y-84593506D01*
X132489336Y-84569002D01*
X132489336Y-83319002D01*
X132490540Y-83294498D01*
X132494140Y-83270229D01*
X132500101Y-83246431D01*
X132508366Y-83223331D01*
X132518856Y-83201153D01*
X132531469Y-83180109D01*
X132546083Y-83160404D01*
X132562559Y-83142225D01*
X132580738Y-83125749D01*
X132600443Y-83111135D01*
X132621487Y-83098522D01*
X132643665Y-83088032D01*
X132666765Y-83079767D01*
X132690563Y-83073806D01*
X132714832Y-83070206D01*
X132739336Y-83069002D01*
X133664336Y-83069002D01*
X133688840Y-83070206D01*
X133688840Y-83070206D01*
G37*
D13*
X133201836Y-83944002D03*
G04 #@! TD*
D12*
G04 #@! TO.C,R4*
G36*
X113045504Y-129428204D02*
X113069773Y-129431804D01*
X113093571Y-129437765D01*
X113116671Y-129446030D01*
X113138849Y-129456520D01*
X113159893Y-129469133D01*
X113179598Y-129483747D01*
X113197777Y-129500223D01*
X113214253Y-129518402D01*
X113228867Y-129538107D01*
X113241480Y-129559151D01*
X113251970Y-129581329D01*
X113260235Y-129604429D01*
X113266196Y-129628227D01*
X113269796Y-129652496D01*
X113271000Y-129677000D01*
X113271000Y-130927000D01*
X113269796Y-130951504D01*
X113266196Y-130975773D01*
X113260235Y-130999571D01*
X113251970Y-131022671D01*
X113241480Y-131044849D01*
X113228867Y-131065893D01*
X113214253Y-131085598D01*
X113197777Y-131103777D01*
X113179598Y-131120253D01*
X113159893Y-131134867D01*
X113138849Y-131147480D01*
X113116671Y-131157970D01*
X113093571Y-131166235D01*
X113069773Y-131172196D01*
X113045504Y-131175796D01*
X113021000Y-131177000D01*
X112096000Y-131177000D01*
X112071496Y-131175796D01*
X112047227Y-131172196D01*
X112023429Y-131166235D01*
X112000329Y-131157970D01*
X111978151Y-131147480D01*
X111957107Y-131134867D01*
X111937402Y-131120253D01*
X111919223Y-131103777D01*
X111902747Y-131085598D01*
X111888133Y-131065893D01*
X111875520Y-131044849D01*
X111865030Y-131022671D01*
X111856765Y-130999571D01*
X111850804Y-130975773D01*
X111847204Y-130951504D01*
X111846000Y-130927000D01*
X111846000Y-129677000D01*
X111847204Y-129652496D01*
X111850804Y-129628227D01*
X111856765Y-129604429D01*
X111865030Y-129581329D01*
X111875520Y-129559151D01*
X111888133Y-129538107D01*
X111902747Y-129518402D01*
X111919223Y-129500223D01*
X111937402Y-129483747D01*
X111957107Y-129469133D01*
X111978151Y-129456520D01*
X112000329Y-129446030D01*
X112023429Y-129437765D01*
X112047227Y-129431804D01*
X112071496Y-129428204D01*
X112096000Y-129427000D01*
X113021000Y-129427000D01*
X113045504Y-129428204D01*
X113045504Y-129428204D01*
G37*
D13*
X112558500Y-130302000D03*
D12*
G36*
X116020504Y-129428204D02*
X116044773Y-129431804D01*
X116068571Y-129437765D01*
X116091671Y-129446030D01*
X116113849Y-129456520D01*
X116134893Y-129469133D01*
X116154598Y-129483747D01*
X116172777Y-129500223D01*
X116189253Y-129518402D01*
X116203867Y-129538107D01*
X116216480Y-129559151D01*
X116226970Y-129581329D01*
X116235235Y-129604429D01*
X116241196Y-129628227D01*
X116244796Y-129652496D01*
X116246000Y-129677000D01*
X116246000Y-130927000D01*
X116244796Y-130951504D01*
X116241196Y-130975773D01*
X116235235Y-130999571D01*
X116226970Y-131022671D01*
X116216480Y-131044849D01*
X116203867Y-131065893D01*
X116189253Y-131085598D01*
X116172777Y-131103777D01*
X116154598Y-131120253D01*
X116134893Y-131134867D01*
X116113849Y-131147480D01*
X116091671Y-131157970D01*
X116068571Y-131166235D01*
X116044773Y-131172196D01*
X116020504Y-131175796D01*
X115996000Y-131177000D01*
X115071000Y-131177000D01*
X115046496Y-131175796D01*
X115022227Y-131172196D01*
X114998429Y-131166235D01*
X114975329Y-131157970D01*
X114953151Y-131147480D01*
X114932107Y-131134867D01*
X114912402Y-131120253D01*
X114894223Y-131103777D01*
X114877747Y-131085598D01*
X114863133Y-131065893D01*
X114850520Y-131044849D01*
X114840030Y-131022671D01*
X114831765Y-130999571D01*
X114825804Y-130975773D01*
X114822204Y-130951504D01*
X114821000Y-130927000D01*
X114821000Y-129677000D01*
X114822204Y-129652496D01*
X114825804Y-129628227D01*
X114831765Y-129604429D01*
X114840030Y-129581329D01*
X114850520Y-129559151D01*
X114863133Y-129538107D01*
X114877747Y-129518402D01*
X114894223Y-129500223D01*
X114912402Y-129483747D01*
X114932107Y-129469133D01*
X114953151Y-129456520D01*
X114975329Y-129446030D01*
X114998429Y-129437765D01*
X115022227Y-129431804D01*
X115046496Y-129428204D01*
X115071000Y-129427000D01*
X115996000Y-129427000D01*
X116020504Y-129428204D01*
X116020504Y-129428204D01*
G37*
D13*
X115533500Y-130302000D03*
G04 #@! TD*
D12*
G04 #@! TO.C,R3*
G36*
X109616504Y-112029204D02*
X109640773Y-112032804D01*
X109664571Y-112038765D01*
X109687671Y-112047030D01*
X109709849Y-112057520D01*
X109730893Y-112070133D01*
X109750598Y-112084747D01*
X109768777Y-112101223D01*
X109785253Y-112119402D01*
X109799867Y-112139107D01*
X109812480Y-112160151D01*
X109822970Y-112182329D01*
X109831235Y-112205429D01*
X109837196Y-112229227D01*
X109840796Y-112253496D01*
X109842000Y-112278000D01*
X109842000Y-113528000D01*
X109840796Y-113552504D01*
X109837196Y-113576773D01*
X109831235Y-113600571D01*
X109822970Y-113623671D01*
X109812480Y-113645849D01*
X109799867Y-113666893D01*
X109785253Y-113686598D01*
X109768777Y-113704777D01*
X109750598Y-113721253D01*
X109730893Y-113735867D01*
X109709849Y-113748480D01*
X109687671Y-113758970D01*
X109664571Y-113767235D01*
X109640773Y-113773196D01*
X109616504Y-113776796D01*
X109592000Y-113778000D01*
X108667000Y-113778000D01*
X108642496Y-113776796D01*
X108618227Y-113773196D01*
X108594429Y-113767235D01*
X108571329Y-113758970D01*
X108549151Y-113748480D01*
X108528107Y-113735867D01*
X108508402Y-113721253D01*
X108490223Y-113704777D01*
X108473747Y-113686598D01*
X108459133Y-113666893D01*
X108446520Y-113645849D01*
X108436030Y-113623671D01*
X108427765Y-113600571D01*
X108421804Y-113576773D01*
X108418204Y-113552504D01*
X108417000Y-113528000D01*
X108417000Y-112278000D01*
X108418204Y-112253496D01*
X108421804Y-112229227D01*
X108427765Y-112205429D01*
X108436030Y-112182329D01*
X108446520Y-112160151D01*
X108459133Y-112139107D01*
X108473747Y-112119402D01*
X108490223Y-112101223D01*
X108508402Y-112084747D01*
X108528107Y-112070133D01*
X108549151Y-112057520D01*
X108571329Y-112047030D01*
X108594429Y-112038765D01*
X108618227Y-112032804D01*
X108642496Y-112029204D01*
X108667000Y-112028000D01*
X109592000Y-112028000D01*
X109616504Y-112029204D01*
X109616504Y-112029204D01*
G37*
D13*
X109129500Y-112903000D03*
D12*
G36*
X112591504Y-112029204D02*
X112615773Y-112032804D01*
X112639571Y-112038765D01*
X112662671Y-112047030D01*
X112684849Y-112057520D01*
X112705893Y-112070133D01*
X112725598Y-112084747D01*
X112743777Y-112101223D01*
X112760253Y-112119402D01*
X112774867Y-112139107D01*
X112787480Y-112160151D01*
X112797970Y-112182329D01*
X112806235Y-112205429D01*
X112812196Y-112229227D01*
X112815796Y-112253496D01*
X112817000Y-112278000D01*
X112817000Y-113528000D01*
X112815796Y-113552504D01*
X112812196Y-113576773D01*
X112806235Y-113600571D01*
X112797970Y-113623671D01*
X112787480Y-113645849D01*
X112774867Y-113666893D01*
X112760253Y-113686598D01*
X112743777Y-113704777D01*
X112725598Y-113721253D01*
X112705893Y-113735867D01*
X112684849Y-113748480D01*
X112662671Y-113758970D01*
X112639571Y-113767235D01*
X112615773Y-113773196D01*
X112591504Y-113776796D01*
X112567000Y-113778000D01*
X111642000Y-113778000D01*
X111617496Y-113776796D01*
X111593227Y-113773196D01*
X111569429Y-113767235D01*
X111546329Y-113758970D01*
X111524151Y-113748480D01*
X111503107Y-113735867D01*
X111483402Y-113721253D01*
X111465223Y-113704777D01*
X111448747Y-113686598D01*
X111434133Y-113666893D01*
X111421520Y-113645849D01*
X111411030Y-113623671D01*
X111402765Y-113600571D01*
X111396804Y-113576773D01*
X111393204Y-113552504D01*
X111392000Y-113528000D01*
X111392000Y-112278000D01*
X111393204Y-112253496D01*
X111396804Y-112229227D01*
X111402765Y-112205429D01*
X111411030Y-112182329D01*
X111421520Y-112160151D01*
X111434133Y-112139107D01*
X111448747Y-112119402D01*
X111465223Y-112101223D01*
X111483402Y-112084747D01*
X111503107Y-112070133D01*
X111524151Y-112057520D01*
X111546329Y-112047030D01*
X111569429Y-112038765D01*
X111593227Y-112032804D01*
X111617496Y-112029204D01*
X111642000Y-112028000D01*
X112567000Y-112028000D01*
X112591504Y-112029204D01*
X112591504Y-112029204D01*
G37*
D13*
X112104500Y-112903000D03*
G04 #@! TD*
D12*
G04 #@! TO.C,R2*
G36*
X109743504Y-106314204D02*
X109767773Y-106317804D01*
X109791571Y-106323765D01*
X109814671Y-106332030D01*
X109836849Y-106342520D01*
X109857893Y-106355133D01*
X109877598Y-106369747D01*
X109895777Y-106386223D01*
X109912253Y-106404402D01*
X109926867Y-106424107D01*
X109939480Y-106445151D01*
X109949970Y-106467329D01*
X109958235Y-106490429D01*
X109964196Y-106514227D01*
X109967796Y-106538496D01*
X109969000Y-106563000D01*
X109969000Y-107813000D01*
X109967796Y-107837504D01*
X109964196Y-107861773D01*
X109958235Y-107885571D01*
X109949970Y-107908671D01*
X109939480Y-107930849D01*
X109926867Y-107951893D01*
X109912253Y-107971598D01*
X109895777Y-107989777D01*
X109877598Y-108006253D01*
X109857893Y-108020867D01*
X109836849Y-108033480D01*
X109814671Y-108043970D01*
X109791571Y-108052235D01*
X109767773Y-108058196D01*
X109743504Y-108061796D01*
X109719000Y-108063000D01*
X108794000Y-108063000D01*
X108769496Y-108061796D01*
X108745227Y-108058196D01*
X108721429Y-108052235D01*
X108698329Y-108043970D01*
X108676151Y-108033480D01*
X108655107Y-108020867D01*
X108635402Y-108006253D01*
X108617223Y-107989777D01*
X108600747Y-107971598D01*
X108586133Y-107951893D01*
X108573520Y-107930849D01*
X108563030Y-107908671D01*
X108554765Y-107885571D01*
X108548804Y-107861773D01*
X108545204Y-107837504D01*
X108544000Y-107813000D01*
X108544000Y-106563000D01*
X108545204Y-106538496D01*
X108548804Y-106514227D01*
X108554765Y-106490429D01*
X108563030Y-106467329D01*
X108573520Y-106445151D01*
X108586133Y-106424107D01*
X108600747Y-106404402D01*
X108617223Y-106386223D01*
X108635402Y-106369747D01*
X108655107Y-106355133D01*
X108676151Y-106342520D01*
X108698329Y-106332030D01*
X108721429Y-106323765D01*
X108745227Y-106317804D01*
X108769496Y-106314204D01*
X108794000Y-106313000D01*
X109719000Y-106313000D01*
X109743504Y-106314204D01*
X109743504Y-106314204D01*
G37*
D13*
X109256500Y-107188000D03*
D12*
G36*
X112718504Y-106314204D02*
X112742773Y-106317804D01*
X112766571Y-106323765D01*
X112789671Y-106332030D01*
X112811849Y-106342520D01*
X112832893Y-106355133D01*
X112852598Y-106369747D01*
X112870777Y-106386223D01*
X112887253Y-106404402D01*
X112901867Y-106424107D01*
X112914480Y-106445151D01*
X112924970Y-106467329D01*
X112933235Y-106490429D01*
X112939196Y-106514227D01*
X112942796Y-106538496D01*
X112944000Y-106563000D01*
X112944000Y-107813000D01*
X112942796Y-107837504D01*
X112939196Y-107861773D01*
X112933235Y-107885571D01*
X112924970Y-107908671D01*
X112914480Y-107930849D01*
X112901867Y-107951893D01*
X112887253Y-107971598D01*
X112870777Y-107989777D01*
X112852598Y-108006253D01*
X112832893Y-108020867D01*
X112811849Y-108033480D01*
X112789671Y-108043970D01*
X112766571Y-108052235D01*
X112742773Y-108058196D01*
X112718504Y-108061796D01*
X112694000Y-108063000D01*
X111769000Y-108063000D01*
X111744496Y-108061796D01*
X111720227Y-108058196D01*
X111696429Y-108052235D01*
X111673329Y-108043970D01*
X111651151Y-108033480D01*
X111630107Y-108020867D01*
X111610402Y-108006253D01*
X111592223Y-107989777D01*
X111575747Y-107971598D01*
X111561133Y-107951893D01*
X111548520Y-107930849D01*
X111538030Y-107908671D01*
X111529765Y-107885571D01*
X111523804Y-107861773D01*
X111520204Y-107837504D01*
X111519000Y-107813000D01*
X111519000Y-106563000D01*
X111520204Y-106538496D01*
X111523804Y-106514227D01*
X111529765Y-106490429D01*
X111538030Y-106467329D01*
X111548520Y-106445151D01*
X111561133Y-106424107D01*
X111575747Y-106404402D01*
X111592223Y-106386223D01*
X111610402Y-106369747D01*
X111630107Y-106355133D01*
X111651151Y-106342520D01*
X111673329Y-106332030D01*
X111696429Y-106323765D01*
X111720227Y-106317804D01*
X111744496Y-106314204D01*
X111769000Y-106313000D01*
X112694000Y-106313000D01*
X112718504Y-106314204D01*
X112718504Y-106314204D01*
G37*
D13*
X112231500Y-107188000D03*
G04 #@! TD*
D12*
G04 #@! TO.C,C3*
G36*
X151961504Y-74691204D02*
X151985773Y-74694804D01*
X152009571Y-74700765D01*
X152032671Y-74709030D01*
X152054849Y-74719520D01*
X152075893Y-74732133D01*
X152095598Y-74746747D01*
X152113777Y-74763223D01*
X152130253Y-74781402D01*
X152144867Y-74801107D01*
X152157480Y-74822151D01*
X152167970Y-74844329D01*
X152176235Y-74867429D01*
X152182196Y-74891227D01*
X152185796Y-74915496D01*
X152187000Y-74940000D01*
X152187000Y-76190000D01*
X152185796Y-76214504D01*
X152182196Y-76238773D01*
X152176235Y-76262571D01*
X152167970Y-76285671D01*
X152157480Y-76307849D01*
X152144867Y-76328893D01*
X152130253Y-76348598D01*
X152113777Y-76366777D01*
X152095598Y-76383253D01*
X152075893Y-76397867D01*
X152054849Y-76410480D01*
X152032671Y-76420970D01*
X152009571Y-76429235D01*
X151985773Y-76435196D01*
X151961504Y-76438796D01*
X151937000Y-76440000D01*
X151012000Y-76440000D01*
X150987496Y-76438796D01*
X150963227Y-76435196D01*
X150939429Y-76429235D01*
X150916329Y-76420970D01*
X150894151Y-76410480D01*
X150873107Y-76397867D01*
X150853402Y-76383253D01*
X150835223Y-76366777D01*
X150818747Y-76348598D01*
X150804133Y-76328893D01*
X150791520Y-76307849D01*
X150781030Y-76285671D01*
X150772765Y-76262571D01*
X150766804Y-76238773D01*
X150763204Y-76214504D01*
X150762000Y-76190000D01*
X150762000Y-74940000D01*
X150763204Y-74915496D01*
X150766804Y-74891227D01*
X150772765Y-74867429D01*
X150781030Y-74844329D01*
X150791520Y-74822151D01*
X150804133Y-74801107D01*
X150818747Y-74781402D01*
X150835223Y-74763223D01*
X150853402Y-74746747D01*
X150873107Y-74732133D01*
X150894151Y-74719520D01*
X150916329Y-74709030D01*
X150939429Y-74700765D01*
X150963227Y-74694804D01*
X150987496Y-74691204D01*
X151012000Y-74690000D01*
X151937000Y-74690000D01*
X151961504Y-74691204D01*
X151961504Y-74691204D01*
G37*
D13*
X151474500Y-75565000D03*
D12*
G36*
X148986504Y-74691204D02*
X149010773Y-74694804D01*
X149034571Y-74700765D01*
X149057671Y-74709030D01*
X149079849Y-74719520D01*
X149100893Y-74732133D01*
X149120598Y-74746747D01*
X149138777Y-74763223D01*
X149155253Y-74781402D01*
X149169867Y-74801107D01*
X149182480Y-74822151D01*
X149192970Y-74844329D01*
X149201235Y-74867429D01*
X149207196Y-74891227D01*
X149210796Y-74915496D01*
X149212000Y-74940000D01*
X149212000Y-76190000D01*
X149210796Y-76214504D01*
X149207196Y-76238773D01*
X149201235Y-76262571D01*
X149192970Y-76285671D01*
X149182480Y-76307849D01*
X149169867Y-76328893D01*
X149155253Y-76348598D01*
X149138777Y-76366777D01*
X149120598Y-76383253D01*
X149100893Y-76397867D01*
X149079849Y-76410480D01*
X149057671Y-76420970D01*
X149034571Y-76429235D01*
X149010773Y-76435196D01*
X148986504Y-76438796D01*
X148962000Y-76440000D01*
X148037000Y-76440000D01*
X148012496Y-76438796D01*
X147988227Y-76435196D01*
X147964429Y-76429235D01*
X147941329Y-76420970D01*
X147919151Y-76410480D01*
X147898107Y-76397867D01*
X147878402Y-76383253D01*
X147860223Y-76366777D01*
X147843747Y-76348598D01*
X147829133Y-76328893D01*
X147816520Y-76307849D01*
X147806030Y-76285671D01*
X147797765Y-76262571D01*
X147791804Y-76238773D01*
X147788204Y-76214504D01*
X147787000Y-76190000D01*
X147787000Y-74940000D01*
X147788204Y-74915496D01*
X147791804Y-74891227D01*
X147797765Y-74867429D01*
X147806030Y-74844329D01*
X147816520Y-74822151D01*
X147829133Y-74801107D01*
X147843747Y-74781402D01*
X147860223Y-74763223D01*
X147878402Y-74746747D01*
X147898107Y-74732133D01*
X147919151Y-74719520D01*
X147941329Y-74709030D01*
X147964429Y-74700765D01*
X147988227Y-74694804D01*
X148012496Y-74691204D01*
X148037000Y-74690000D01*
X148962000Y-74690000D01*
X148986504Y-74691204D01*
X148986504Y-74691204D01*
G37*
D13*
X148499500Y-75565000D03*
G04 #@! TD*
D12*
G04 #@! TO.C,C2*
G36*
X115330504Y-53278752D02*
X115354773Y-53282352D01*
X115378571Y-53288313D01*
X115401671Y-53296578D01*
X115423849Y-53307068D01*
X115444893Y-53319681D01*
X115464598Y-53334295D01*
X115482777Y-53350771D01*
X115499253Y-53368950D01*
X115513867Y-53388655D01*
X115526480Y-53409699D01*
X115536970Y-53431877D01*
X115545235Y-53454977D01*
X115551196Y-53478775D01*
X115554796Y-53503044D01*
X115556000Y-53527548D01*
X115556000Y-54452548D01*
X115554796Y-54477052D01*
X115551196Y-54501321D01*
X115545235Y-54525119D01*
X115536970Y-54548219D01*
X115526480Y-54570397D01*
X115513867Y-54591441D01*
X115499253Y-54611146D01*
X115482777Y-54629325D01*
X115464598Y-54645801D01*
X115444893Y-54660415D01*
X115423849Y-54673028D01*
X115401671Y-54683518D01*
X115378571Y-54691783D01*
X115354773Y-54697744D01*
X115330504Y-54701344D01*
X115306000Y-54702548D01*
X114056000Y-54702548D01*
X114031496Y-54701344D01*
X114007227Y-54697744D01*
X113983429Y-54691783D01*
X113960329Y-54683518D01*
X113938151Y-54673028D01*
X113917107Y-54660415D01*
X113897402Y-54645801D01*
X113879223Y-54629325D01*
X113862747Y-54611146D01*
X113848133Y-54591441D01*
X113835520Y-54570397D01*
X113825030Y-54548219D01*
X113816765Y-54525119D01*
X113810804Y-54501321D01*
X113807204Y-54477052D01*
X113806000Y-54452548D01*
X113806000Y-53527548D01*
X113807204Y-53503044D01*
X113810804Y-53478775D01*
X113816765Y-53454977D01*
X113825030Y-53431877D01*
X113835520Y-53409699D01*
X113848133Y-53388655D01*
X113862747Y-53368950D01*
X113879223Y-53350771D01*
X113897402Y-53334295D01*
X113917107Y-53319681D01*
X113938151Y-53307068D01*
X113960329Y-53296578D01*
X113983429Y-53288313D01*
X114007227Y-53282352D01*
X114031496Y-53278752D01*
X114056000Y-53277548D01*
X115306000Y-53277548D01*
X115330504Y-53278752D01*
X115330504Y-53278752D01*
G37*
D13*
X114681000Y-53990048D03*
D12*
G36*
X115330504Y-50303752D02*
X115354773Y-50307352D01*
X115378571Y-50313313D01*
X115401671Y-50321578D01*
X115423849Y-50332068D01*
X115444893Y-50344681D01*
X115464598Y-50359295D01*
X115482777Y-50375771D01*
X115499253Y-50393950D01*
X115513867Y-50413655D01*
X115526480Y-50434699D01*
X115536970Y-50456877D01*
X115545235Y-50479977D01*
X115551196Y-50503775D01*
X115554796Y-50528044D01*
X115556000Y-50552548D01*
X115556000Y-51477548D01*
X115554796Y-51502052D01*
X115551196Y-51526321D01*
X115545235Y-51550119D01*
X115536970Y-51573219D01*
X115526480Y-51595397D01*
X115513867Y-51616441D01*
X115499253Y-51636146D01*
X115482777Y-51654325D01*
X115464598Y-51670801D01*
X115444893Y-51685415D01*
X115423849Y-51698028D01*
X115401671Y-51708518D01*
X115378571Y-51716783D01*
X115354773Y-51722744D01*
X115330504Y-51726344D01*
X115306000Y-51727548D01*
X114056000Y-51727548D01*
X114031496Y-51726344D01*
X114007227Y-51722744D01*
X113983429Y-51716783D01*
X113960329Y-51708518D01*
X113938151Y-51698028D01*
X113917107Y-51685415D01*
X113897402Y-51670801D01*
X113879223Y-51654325D01*
X113862747Y-51636146D01*
X113848133Y-51616441D01*
X113835520Y-51595397D01*
X113825030Y-51573219D01*
X113816765Y-51550119D01*
X113810804Y-51526321D01*
X113807204Y-51502052D01*
X113806000Y-51477548D01*
X113806000Y-50552548D01*
X113807204Y-50528044D01*
X113810804Y-50503775D01*
X113816765Y-50479977D01*
X113825030Y-50456877D01*
X113835520Y-50434699D01*
X113848133Y-50413655D01*
X113862747Y-50393950D01*
X113879223Y-50375771D01*
X113897402Y-50359295D01*
X113917107Y-50344681D01*
X113938151Y-50332068D01*
X113960329Y-50321578D01*
X113983429Y-50313313D01*
X114007227Y-50307352D01*
X114031496Y-50303752D01*
X114056000Y-50302548D01*
X115306000Y-50302548D01*
X115330504Y-50303752D01*
X115330504Y-50303752D01*
G37*
D13*
X114681000Y-51015048D03*
G04 #@! TD*
D12*
G04 #@! TO.C,C1*
G36*
X115077504Y-59578204D02*
X115101773Y-59581804D01*
X115125571Y-59587765D01*
X115148671Y-59596030D01*
X115170849Y-59606520D01*
X115191893Y-59619133D01*
X115211598Y-59633747D01*
X115229777Y-59650223D01*
X115246253Y-59668402D01*
X115260867Y-59688107D01*
X115273480Y-59709151D01*
X115283970Y-59731329D01*
X115292235Y-59754429D01*
X115298196Y-59778227D01*
X115301796Y-59802496D01*
X115303000Y-59827000D01*
X115303000Y-61077000D01*
X115301796Y-61101504D01*
X115298196Y-61125773D01*
X115292235Y-61149571D01*
X115283970Y-61172671D01*
X115273480Y-61194849D01*
X115260867Y-61215893D01*
X115246253Y-61235598D01*
X115229777Y-61253777D01*
X115211598Y-61270253D01*
X115191893Y-61284867D01*
X115170849Y-61297480D01*
X115148671Y-61307970D01*
X115125571Y-61316235D01*
X115101773Y-61322196D01*
X115077504Y-61325796D01*
X115053000Y-61327000D01*
X114128000Y-61327000D01*
X114103496Y-61325796D01*
X114079227Y-61322196D01*
X114055429Y-61316235D01*
X114032329Y-61307970D01*
X114010151Y-61297480D01*
X113989107Y-61284867D01*
X113969402Y-61270253D01*
X113951223Y-61253777D01*
X113934747Y-61235598D01*
X113920133Y-61215893D01*
X113907520Y-61194849D01*
X113897030Y-61172671D01*
X113888765Y-61149571D01*
X113882804Y-61125773D01*
X113879204Y-61101504D01*
X113878000Y-61077000D01*
X113878000Y-59827000D01*
X113879204Y-59802496D01*
X113882804Y-59778227D01*
X113888765Y-59754429D01*
X113897030Y-59731329D01*
X113907520Y-59709151D01*
X113920133Y-59688107D01*
X113934747Y-59668402D01*
X113951223Y-59650223D01*
X113969402Y-59633747D01*
X113989107Y-59619133D01*
X114010151Y-59606520D01*
X114032329Y-59596030D01*
X114055429Y-59587765D01*
X114079227Y-59581804D01*
X114103496Y-59578204D01*
X114128000Y-59577000D01*
X115053000Y-59577000D01*
X115077504Y-59578204D01*
X115077504Y-59578204D01*
G37*
D13*
X114590500Y-60452000D03*
D12*
G36*
X118052504Y-59578204D02*
X118076773Y-59581804D01*
X118100571Y-59587765D01*
X118123671Y-59596030D01*
X118145849Y-59606520D01*
X118166893Y-59619133D01*
X118186598Y-59633747D01*
X118204777Y-59650223D01*
X118221253Y-59668402D01*
X118235867Y-59688107D01*
X118248480Y-59709151D01*
X118258970Y-59731329D01*
X118267235Y-59754429D01*
X118273196Y-59778227D01*
X118276796Y-59802496D01*
X118278000Y-59827000D01*
X118278000Y-61077000D01*
X118276796Y-61101504D01*
X118273196Y-61125773D01*
X118267235Y-61149571D01*
X118258970Y-61172671D01*
X118248480Y-61194849D01*
X118235867Y-61215893D01*
X118221253Y-61235598D01*
X118204777Y-61253777D01*
X118186598Y-61270253D01*
X118166893Y-61284867D01*
X118145849Y-61297480D01*
X118123671Y-61307970D01*
X118100571Y-61316235D01*
X118076773Y-61322196D01*
X118052504Y-61325796D01*
X118028000Y-61327000D01*
X117103000Y-61327000D01*
X117078496Y-61325796D01*
X117054227Y-61322196D01*
X117030429Y-61316235D01*
X117007329Y-61307970D01*
X116985151Y-61297480D01*
X116964107Y-61284867D01*
X116944402Y-61270253D01*
X116926223Y-61253777D01*
X116909747Y-61235598D01*
X116895133Y-61215893D01*
X116882520Y-61194849D01*
X116872030Y-61172671D01*
X116863765Y-61149571D01*
X116857804Y-61125773D01*
X116854204Y-61101504D01*
X116853000Y-61077000D01*
X116853000Y-59827000D01*
X116854204Y-59802496D01*
X116857804Y-59778227D01*
X116863765Y-59754429D01*
X116872030Y-59731329D01*
X116882520Y-59709151D01*
X116895133Y-59688107D01*
X116909747Y-59668402D01*
X116926223Y-59650223D01*
X116944402Y-59633747D01*
X116964107Y-59619133D01*
X116985151Y-59606520D01*
X117007329Y-59596030D01*
X117030429Y-59587765D01*
X117054227Y-59581804D01*
X117078496Y-59578204D01*
X117103000Y-59577000D01*
X118028000Y-59577000D01*
X118052504Y-59578204D01*
X118052504Y-59578204D01*
G37*
D13*
X117565500Y-60452000D03*
G04 #@! TD*
D26*
G04 #@! TO.C,P1*
X139446000Y-71247000D03*
X139446000Y-73787000D03*
X139446000Y-76327000D03*
X139446000Y-78867000D03*
X139446000Y-81407000D03*
X139446000Y-83947000D03*
X139446000Y-86487000D03*
X139446000Y-89027000D03*
X139446000Y-91567000D03*
X139446000Y-94107000D03*
X139446000Y-96647000D03*
X139446000Y-99187000D03*
X139446000Y-101727000D03*
X139446000Y-104267000D03*
X139446000Y-106807000D03*
G04 #@! TD*
G04 #@! TO.C,P2*
X154686000Y-71247000D03*
X154686000Y-73787000D03*
X154686000Y-76327000D03*
X154686000Y-78867000D03*
X154686000Y-81407000D03*
X154686000Y-83947000D03*
X154686000Y-86487000D03*
X154686000Y-89027000D03*
X154686000Y-91567000D03*
X154686000Y-94107000D03*
X154686000Y-96647000D03*
X154686000Y-99187000D03*
X154686000Y-101727000D03*
X154686000Y-104267000D03*
X154686000Y-106807000D03*
G04 #@! TD*
D12*
G04 #@! TO.C,R1*
G36*
X133746504Y-80427595D02*
X133770773Y-80431195D01*
X133794571Y-80437156D01*
X133817671Y-80445421D01*
X133839849Y-80455911D01*
X133860893Y-80468524D01*
X133880598Y-80483138D01*
X133898777Y-80499614D01*
X133915253Y-80517793D01*
X133929867Y-80537498D01*
X133942480Y-80558542D01*
X133952970Y-80580720D01*
X133961235Y-80603820D01*
X133967196Y-80627618D01*
X133970796Y-80651887D01*
X133972000Y-80676391D01*
X133972000Y-81926391D01*
X133970796Y-81950895D01*
X133967196Y-81975164D01*
X133961235Y-81998962D01*
X133952970Y-82022062D01*
X133942480Y-82044240D01*
X133929867Y-82065284D01*
X133915253Y-82084989D01*
X133898777Y-82103168D01*
X133880598Y-82119644D01*
X133860893Y-82134258D01*
X133839849Y-82146871D01*
X133817671Y-82157361D01*
X133794571Y-82165626D01*
X133770773Y-82171587D01*
X133746504Y-82175187D01*
X133722000Y-82176391D01*
X132797000Y-82176391D01*
X132772496Y-82175187D01*
X132748227Y-82171587D01*
X132724429Y-82165626D01*
X132701329Y-82157361D01*
X132679151Y-82146871D01*
X132658107Y-82134258D01*
X132638402Y-82119644D01*
X132620223Y-82103168D01*
X132603747Y-82084989D01*
X132589133Y-82065284D01*
X132576520Y-82044240D01*
X132566030Y-82022062D01*
X132557765Y-81998962D01*
X132551804Y-81975164D01*
X132548204Y-81950895D01*
X132547000Y-81926391D01*
X132547000Y-80676391D01*
X132548204Y-80651887D01*
X132551804Y-80627618D01*
X132557765Y-80603820D01*
X132566030Y-80580720D01*
X132576520Y-80558542D01*
X132589133Y-80537498D01*
X132603747Y-80517793D01*
X132620223Y-80499614D01*
X132638402Y-80483138D01*
X132658107Y-80468524D01*
X132679151Y-80455911D01*
X132701329Y-80445421D01*
X132724429Y-80437156D01*
X132748227Y-80431195D01*
X132772496Y-80427595D01*
X132797000Y-80426391D01*
X133722000Y-80426391D01*
X133746504Y-80427595D01*
X133746504Y-80427595D01*
G37*
D13*
X133259500Y-81301391D03*
D12*
G36*
X136721504Y-80427595D02*
X136745773Y-80431195D01*
X136769571Y-80437156D01*
X136792671Y-80445421D01*
X136814849Y-80455911D01*
X136835893Y-80468524D01*
X136855598Y-80483138D01*
X136873777Y-80499614D01*
X136890253Y-80517793D01*
X136904867Y-80537498D01*
X136917480Y-80558542D01*
X136927970Y-80580720D01*
X136936235Y-80603820D01*
X136942196Y-80627618D01*
X136945796Y-80651887D01*
X136947000Y-80676391D01*
X136947000Y-81926391D01*
X136945796Y-81950895D01*
X136942196Y-81975164D01*
X136936235Y-81998962D01*
X136927970Y-82022062D01*
X136917480Y-82044240D01*
X136904867Y-82065284D01*
X136890253Y-82084989D01*
X136873777Y-82103168D01*
X136855598Y-82119644D01*
X136835893Y-82134258D01*
X136814849Y-82146871D01*
X136792671Y-82157361D01*
X136769571Y-82165626D01*
X136745773Y-82171587D01*
X136721504Y-82175187D01*
X136697000Y-82176391D01*
X135772000Y-82176391D01*
X135747496Y-82175187D01*
X135723227Y-82171587D01*
X135699429Y-82165626D01*
X135676329Y-82157361D01*
X135654151Y-82146871D01*
X135633107Y-82134258D01*
X135613402Y-82119644D01*
X135595223Y-82103168D01*
X135578747Y-82084989D01*
X135564133Y-82065284D01*
X135551520Y-82044240D01*
X135541030Y-82022062D01*
X135532765Y-81998962D01*
X135526804Y-81975164D01*
X135523204Y-81950895D01*
X135522000Y-81926391D01*
X135522000Y-80676391D01*
X135523204Y-80651887D01*
X135526804Y-80627618D01*
X135532765Y-80603820D01*
X135541030Y-80580720D01*
X135551520Y-80558542D01*
X135564133Y-80537498D01*
X135578747Y-80517793D01*
X135595223Y-80499614D01*
X135613402Y-80483138D01*
X135633107Y-80468524D01*
X135654151Y-80455911D01*
X135676329Y-80445421D01*
X135699429Y-80437156D01*
X135723227Y-80431195D01*
X135747496Y-80427595D01*
X135772000Y-80426391D01*
X136697000Y-80426391D01*
X136721504Y-80427595D01*
X136721504Y-80427595D01*
G37*
D13*
X136234500Y-81301391D03*
G04 #@! TD*
D27*
X98679000Y-66167000D03*
X98298000Y-99441000D03*
X98298000Y-134112000D03*
X98298000Y-40132000D03*
X101346000Y-96012000D03*
X97917000Y-35179000D03*
X101473000Y-62738000D03*
X101346000Y-130683000D03*
D28*
X148336000Y-94234000D03*
D27*
X112776000Y-101981000D03*
X86741000Y-69723000D03*
D28*
X110236000Y-60198000D03*
X125476000Y-60198000D03*
X151130000Y-87884000D03*
M02*
