M48
METRIC,TZ
T1C1.000
T2C1.016
T3C1.200
T4C4.500
%
G90
G05
T1
X86741Y-69723
X97917Y-35179
X98298Y-40132
X98298Y-99441
X98298Y-134112
X98679Y-66167
X101346Y-96012
X101346Y-130683
X101473Y-62738
X110236Y-60198
X112776Y-101981
X125476Y-60198
X148336Y-94234
X151130Y-87884
X135128Y-54102
X135128Y-56642
X135128Y-59182
X135128Y-61722
T2
X154686Y-71247
X154686Y-73787
X154686Y-76327
X154686Y-78867
X154686Y-81407
X154686Y-83947
X154686Y-86487
X154686Y-89027
X154686Y-91567
X154686Y-94107
X154686Y-96647
X154686Y-99187
X154686Y-101727
X154686Y-104267
X154686Y-106807
X139446Y-71247
X139446Y-73787
X139446Y-76327
X139446Y-78867
X139446Y-81407
X139446Y-83947
X139446Y-86487
X139446Y-89027
X139446Y-91567
X139446Y-94107
X139446Y-96647
X139446Y-99187
X139446Y-101727
X139446Y-104267
X139446Y-106807
T3
X106426Y-78359
X106426Y-81859
X106426Y-85359
X106426Y-88859
X106426Y-92359
X106426Y-95859
X106426Y-99359
X106426Y-102859
X91567Y-113157
X91567Y-116657
X91567Y-120157
X91567Y-123657
X91567Y-127157
X91567Y-130657
X91567Y-134157
X91567Y-137657
X91567Y-78410
X91567Y-81910
X91567Y-85410
X91567Y-88910
X91567Y-92410
X91567Y-95910
X91567Y-99410
X91567Y-102910
X91440Y-144272
X91440Y-147772
X91440Y-151272
X91440Y-154772
X91440Y-158272
X91440Y-161772
X91440Y-165272
X91440Y-168772
X91567Y-35179
X91567Y-38679
X91567Y-45212
X91567Y-48712
X91567Y-52212
X91567Y-55712
X91567Y-59212
X91567Y-62712
X91567Y-66212
X91567Y-69712
T4
X141542Y-42799
X107950Y-42799
X141478Y-148019
X107887Y-148082
T0
M30
