  0
SECTION
  2
HEADER
  9
$ACADVER
  1
AC1009
  9
$INSBASE
 10
0.0
 20
0.0
 30
0.0
  9
$EXTMIN
 10
0.0
 20
0.0
 30
0.0
  9
$EXTMAX
 10
0.0
 20
0.0
 30
0.0
  0
ENDSEC
  0
SECTION
  2
TABLES
  0
TABLE
  2
VPORT
 70
0
  0
ENDTAB
  0
TABLE
  2
LTYPE
 70
1
  0
LTYPE
  2
CONTINUOUS
 70
0
  3
Solid line
 72
65
 73
0
 40
0.0
  0
ENDTAB
  0
TABLE
  2
LAYER
 70
1
  0
LAYER
  2
0
 70
64
 62
7
  6
continuous
  0
ENDTAB
  0
TABLE
  2
STYLE
 70
1
  0
STYLE
  2
STANDARD
 70
0
 40
0
 41
1.0
 50
0.0
 71
0
 42
1
 3
ARIAL.TTF
 4

  0
ENDTAB
  0
TABLE
  2
VIEW
 70
0
  0
ENDTAB
  0
ENDSEC
  0
SECTION
  2
BLOCKS
  0
BLOCK
  8
0
  2
MIRRORED001_CS
 70
0
 10
0.0
 20
0.0
 30
0.0
  3
MIRRORED001_CS
  0
POLYLINE
  8
0
 62
0
 70
1
 66
1
 10
0.0
 20
0.0
 30
0.0
  0
VERTEX
  8
0
 10
45.0
 20
-48.5
 30
30.15
  0
VERTEX
  8
0
 10
45.0
 20
-28.5
 30
30.15
  0
VERTEX
  8
0
 10
45.0
 20
-9.5
 30
30.15
  0
VERTEX
  8
0
 10
45.0
 20
9.5
 30
30.15
  0
VERTEX
  8
0
 10
45.0
 20
28.5
 30
30.15
  0
VERTEX
  8
0
 10
45.0
 20
48.5
 30
30.15
  0
VERTEX
  8
0
 10
80.0
 20
48.5
 30
30.15
  0
VERTEX
  8
0
 10
80.0
 20
28.5
 30
30.15
  0
VERTEX
  8
0
 10
81.0
 20
28.5
 30
30.15
  0
VERTEX
  8
0
 10
81.0
 20
46.5
 30
30.15
  0
VERTEX
  8
0
 10
161.0
 20
46.5
 30
30.15
  0
VERTEX
  8
0
 10
161.0
 20
28.5
 30
30.15
  0
VERTEX
  8
0
 10
161.0
 20
-28.5
 30
30.15
  0
VERTEX
  8
0
 10
161.0
 20
-46.5
 30
30.15
  0
VERTEX
  8
0
 10
81.0
 20
-46.5
 30
30.15
  0
VERTEX
  8
0
 10
81.0
 20
-28.5
 30
30.15
  0
VERTEX
  8
0
 10
80.0
 20
-28.5
 30
30.15
  0
VERTEX
  8
0
 10
80.0
 20
-48.5
 30
30.15
  0
SEQEND
  8
0
  0
POLYLINE
  8
0
 62
0
 70
1
 66
1
 10
0.0
 20
0.0
 30
0.0
  0
VERTEX
  8
0
 10
53.260311
 20
40.1
 30
30.15
 42
1.0
  0
VERTEX
  8
0
 10
53.260311
 20
36.9
 30
30.15
  0
VERTEX
  8
0
 10
73.260311
 20
36.9
 30
30.15
 42
1.0
  0
VERTEX
  8
0
 10
73.260311
 20
40.1
 30
30.15
  0
SEQEND
  8
0
  0
POLYLINE
  8
0
 62
0
 70
1
 66
1
 10
0.0
 20
0.0
 30
0.0
  0
VERTEX
  8
0
 10
53.260311
 20
-36.9
 30
30.15
 42
1.0
  0
VERTEX
  8
0
 10
53.260311
 20
-40.1
 30
30.15
  0
VERTEX
  8
0
 10
73.260311
 20
-40.1
 30
30.15
 42
1.0
  0
VERTEX
  8
0
 10
73.260311
 20
-36.9
 30
30.15
  0
SEQEND
  8
0
  0
ENDBLK
  0
BLOCK
  8
0
  2
FUSION001
 70
0
 10
0.0
 20
0.0
 30
0.0
  3
FUSION001
  0
POLYLINE
  8
0
 62
0
 70
0
 66
1
 10
0.0
 20
0.0
 30
0.0
  0
VERTEX
  8
0
 10
45.0
 20
-28.5
 30
30.3
  0
VERTEX
  8
0
 10
47.0
 20
-28.5
 30
30.3
  0
SEQEND
  8
0
  0
POLYLINE
  8
0
 62
0
 70
0
 66
1
 10
0.0
 20
0.0
 30
0.0
  0
VERTEX
  8
0
 10
161.0
 20
-28.5
 30
30.3
  0
VERTEX
  8
0
 10
163.0
 20
-28.5
 30
30.3
  0
SEQEND
  8
0
  0
POLYLINE
  8
0
 62
0
 70
0
 66
1
 10
0.0
 20
0.0
 30
0.0
  0
VERTEX
  8
0
 10
53.9230769231
 20
-28.5
 30
30.3
  0
VERTEX
  8
0
 10
55.9230769231
 20
-28.5
 30
30.3
  0
SEQEND
  8
0
  0
POLYLINE
  8
0
 62
0
 70
0
 66
1
 10
0.0
 20
0.0
 30
0.0
  0
VERTEX
  8
0
 10
62.8461538462
 20
-28.5
 30
30.3
  0
VERTEX
  8
0
 10
64.8461538462
 20
-28.5
 30
30.3
  0
SEQEND
  8
0
  0
POLYLINE
  8
0
 62
0
 70
0
 66
1
 10
0.0
 20
0.0
 30
0.0
  0
VERTEX
  8
0
 10
71.7692307692
 20
-28.5
 30
30.3
  0
VERTEX
  8
0
 10
73.7692307692
 20
-28.5
 30
30.3
  0
SEQEND
  8
0
  0
POLYLINE
  8
0
 62
0
 70
0
 66
1
 10
0.0
 20
0.0
 30
0.0
  0
VERTEX
  8
0
 10
80.6923076923
 20
-28.5
 30
30.3
  0
VERTEX
  8
0
 10
82.6923076923
 20
-28.5
 30
30.3
  0
SEQEND
  8
0
  0
POLYLINE
  8
0
 62
0
 70
0
 66
1
 10
0.0
 20
0.0
 30
0.0
  0
VERTEX
  8
0
 10
89.6153846154
 20
-28.5
 30
30.3
  0
VERTEX
  8
0
 10
91.6153846154
 20
-28.5
 30
30.3
  0
SEQEND
  8
0
  0
POLYLINE
  8
0
 62
0
 70
0
 66
1
 10
0.0
 20
0.0
 30
0.0
  0
VERTEX
  8
0
 10
98.5384615385
 20
-28.5
 30
30.3
  0
VERTEX
  8
0
 10
100.538461538
 20
-28.5
 30
30.3
  0
SEQEND
  8
0
  0
POLYLINE
  8
0
 62
0
 70
0
 66
1
 10
0.0
 20
0.0
 30
0.0
  0
VERTEX
  8
0
 10
107.461538462
 20
-28.5
 30
30.3
  0
VERTEX
  8
0
 10
109.461538462
 20
-28.5
 30
30.3
  0
SEQEND
  8
0
  0
POLYLINE
  8
0
 62
0
 70
0
 66
1
 10
0.0
 20
0.0
 30
0.0
  0
VERTEX
  8
0
 10
116.384615385
 20
-28.5
 30
30.3
  0
VERTEX
  8
0
 10
118.384615385
 20
-28.5
 30
30.3
  0
SEQEND
  8
0
  0
POLYLINE
  8
0
 62
0
 70
0
 66
1
 10
0.0
 20
0.0
 30
0.0
  0
VERTEX
  8
0
 10
125.307692308
 20
-28.5
 30
30.3
  0
VERTEX
  8
0
 10
127.307692308
 20
-28.5
 30
30.3
  0
SEQEND
  8
0
  0
POLYLINE
  8
0
 62
0
 70
0
 66
1
 10
0.0
 20
0.0
 30
0.0
  0
VERTEX
  8
0
 10
134.230769231
 20
-28.5
 30
30.3
  0
VERTEX
  8
0
 10
136.230769231
 20
-28.5
 30
30.3
  0
SEQEND
  8
0
  0
POLYLINE
  8
0
 62
0
 70
0
 66
1
 10
0.0
 20
0.0
 30
0.0
  0
VERTEX
  8
0
 10
143.153846154
 20
-28.5
 30
30.3
  0
VERTEX
  8
0
 10
145.153846154
 20
-28.5
 30
30.3
  0
SEQEND
  8
0
  0
POLYLINE
  8
0
 62
0
 70
0
 66
1
 10
0.0
 20
0.0
 30
0.0
  0
VERTEX
  8
0
 10
152.076923077
 20
-28.5
 30
30.3
  0
VERTEX
  8
0
 10
154.076923077
 20
-28.5
 30
30.3
  0
SEQEND
  8
0
  0
POLYLINE
  8
0
 62
0
 70
0
 66
1
 10
0.0
 20
0.0
 30
0.0
  0
VERTEX
  8
0
 10
45.0
 20
28.5
 30
30.3
  0
VERTEX
  8
0
 10
47.0
 20
28.5
 30
30.3
  0
SEQEND
  8
0
  0
POLYLINE
  8
0
 62
0
 70
0
 66
1
 10
0.0
 20
0.0
 30
0.0
  0
VERTEX
  8
0
 10
161.0
 20
28.5
 30
30.3
  0
VERTEX
  8
0
 10
163.0
 20
28.5
 30
30.3
  0
SEQEND
  8
0
  0
POLYLINE
  8
0
 62
0
 70
0
 66
1
 10
0.0
 20
0.0
 30
0.0
  0
VERTEX
  8
0
 10
53.9230769231
 20
28.5
 30
30.3
  0
VERTEX
  8
0
 10
55.9230769231
 20
28.5
 30
30.3
  0
SEQEND
  8
0
  0
POLYLINE
  8
0
 62
0
 70
0
 66
1
 10
0.0
 20
0.0
 30
0.0
  0
VERTEX
  8
0
 10
62.8461538462
 20
28.5
 30
30.3
  0
VERTEX
  8
0
 10
64.8461538462
 20
28.5
 30
30.3
  0
SEQEND
  8
0
  0
POLYLINE
  8
0
 62
0
 70
0
 66
1
 10
0.0
 20
0.0
 30
0.0
  0
VERTEX
  8
0
 10
71.7692307692
 20
28.5
 30
30.3
  0
VERTEX
  8
0
 10
73.7692307692
 20
28.5
 30
30.3
  0
SEQEND
  8
0
  0
POLYLINE
  8
0
 62
0
 70
0
 66
1
 10
0.0
 20
0.0
 30
0.0
  0
VERTEX
  8
0
 10
80.6923076923
 20
28.5
 30
30.3
  0
VERTEX
  8
0
 10
82.6923076923
 20
28.5
 30
30.3
  0
SEQEND
  8
0
  0
POLYLINE
  8
0
 62
0
 70
0
 66
1
 10
0.0
 20
0.0
 30
0.0
  0
VERTEX
  8
0
 10
89.6153846154
 20
28.5
 30
30.3
  0
VERTEX
  8
0
 10
91.6153846154
 20
28.5
 30
30.3
  0
SEQEND
  8
0
  0
POLYLINE
  8
0
 62
0
 70
0
 66
1
 10
0.0
 20
0.0
 30
0.0
  0
VERTEX
  8
0
 10
98.5384615385
 20
28.5
 30
30.3
  0
VERTEX
  8
0
 10
100.538461538
 20
28.5
 30
30.3
  0
SEQEND
  8
0
  0
POLYLINE
  8
0
 62
0
 70
0
 66
1
 10
0.0
 20
0.0
 30
0.0
  0
VERTEX
  8
0
 10
107.461538462
 20
28.5
 30
30.3
  0
VERTEX
  8
0
 10
109.461538462
 20
28.5
 30
30.3
  0
SEQEND
  8
0
  0
POLYLINE
  8
0
 62
0
 70
0
 66
1
 10
0.0
 20
0.0
 30
0.0
  0
VERTEX
  8
0
 10
116.384615385
 20
28.5
 30
30.3
  0
VERTEX
  8
0
 10
118.384615385
 20
28.5
 30
30.3
  0
SEQEND
  8
0
  0
POLYLINE
  8
0
 62
0
 70
0
 66
1
 10
0.0
 20
0.0
 30
0.0
  0
VERTEX
  8
0
 10
125.307692308
 20
28.5
 30
30.3
  0
VERTEX
  8
0
 10
127.307692308
 20
28.5
 30
30.3
  0
SEQEND
  8
0
  0
POLYLINE
  8
0
 62
0
 70
0
 66
1
 10
0.0
 20
0.0
 30
0.0
  0
VERTEX
  8
0
 10
134.230769231
 20
28.5
 30
30.3
  0
VERTEX
  8
0
 10
136.230769231
 20
28.5
 30
30.3
  0
SEQEND
  8
0
  0
POLYLINE
  8
0
 62
0
 70
0
 66
1
 10
0.0
 20
0.0
 30
0.0
  0
VERTEX
  8
0
 10
143.153846154
 20
28.5
 30
30.3
  0
VERTEX
  8
0
 10
145.153846154
 20
28.5
 30
30.3
  0
SEQEND
  8
0
  0
POLYLINE
  8
0
 62
0
 70
0
 66
1
 10
0.0
 20
0.0
 30
0.0
  0
VERTEX
  8
0
 10
152.076923077
 20
28.5
 30
30.3
  0
VERTEX
  8
0
 10
154.076923077
 20
28.5
 30
30.3
  0
SEQEND
  8
0
  0
POLYLINE
  8
0
 62
0
 70
0
 66
1
 10
0.0
 20
0.0
 30
0.0
  0
VERTEX
  8
0
 10
45.0
 20
-9.5
 30
30.3
  0
VERTEX
  8
0
 10
47.0
 20
-9.5
 30
30.3
  0
SEQEND
  8
0
  0
POLYLINE
  8
0
 62
0
 70
0
 66
1
 10
0.0
 20
0.0
 30
0.0
  0
VERTEX
  8
0
 10
161.0
 20
-9.5
 30
30.3
  0
VERTEX
  8
0
 10
163.0
 20
-9.5
 30
30.3
  0
SEQEND
  8
0
  0
POLYLINE
  8
0
 62
0
 70
0
 66
1
 10
0.0
 20
0.0
 30
0.0
  0
VERTEX
  8
0
 10
53.9230769231
 20
-9.5
 30
30.3
  0
VERTEX
  8
0
 10
55.9230769231
 20
-9.5
 30
30.3
  0
SEQEND
  8
0
  0
POLYLINE
  8
0
 62
0
 70
0
 66
1
 10
0.0
 20
0.0
 30
0.0
  0
VERTEX
  8
0
 10
62.8461538462
 20
-9.5
 30
30.3
  0
VERTEX
  8
0
 10
64.8461538462
 20
-9.5
 30
30.3
  0
SEQEND
  8
0
  0
POLYLINE
  8
0
 62
0
 70
0
 66
1
 10
0.0
 20
0.0
 30
0.0
  0
VERTEX
  8
0
 10
71.7692307692
 20
-9.5
 30
30.3
  0
VERTEX
  8
0
 10
73.7692307692
 20
-9.5
 30
30.3
  0
SEQEND
  8
0
  0
POLYLINE
  8
0
 62
0
 70
0
 66
1
 10
0.0
 20
0.0
 30
0.0
  0
VERTEX
  8
0
 10
80.6923076923
 20
-9.5
 30
30.3
  0
VERTEX
  8
0
 10
82.6923076923
 20
-9.5
 30
30.3
  0
SEQEND
  8
0
  0
POLYLINE
  8
0
 62
0
 70
0
 66
1
 10
0.0
 20
0.0
 30
0.0
  0
VERTEX
  8
0
 10
89.6153846154
 20
-9.5
 30
30.3
  0
VERTEX
  8
0
 10
91.6153846154
 20
-9.5
 30
30.3
  0
SEQEND
  8
0
  0
POLYLINE
  8
0
 62
0
 70
0
 66
1
 10
0.0
 20
0.0
 30
0.0
  0
VERTEX
  8
0
 10
98.5384615385
 20
-9.5
 30
30.3
  0
VERTEX
  8
0
 10
100.538461538
 20
-9.5
 30
30.3
  0
SEQEND
  8
0
  0
POLYLINE
  8
0
 62
0
 70
0
 66
1
 10
0.0
 20
0.0
 30
0.0
  0
VERTEX
  8
0
 10
107.461538462
 20
-9.5
 30
30.3
  0
VERTEX
  8
0
 10
109.461538462
 20
-9.5
 30
30.3
  0
SEQEND
  8
0
  0
POLYLINE
  8
0
 62
0
 70
0
 66
1
 10
0.0
 20
0.0
 30
0.0
  0
VERTEX
  8
0
 10
116.384615385
 20
-9.5
 30
30.3
  0
VERTEX
  8
0
 10
118.384615385
 20
-9.5
 30
30.3
  0
SEQEND
  8
0
  0
POLYLINE
  8
0
 62
0
 70
0
 66
1
 10
0.0
 20
0.0
 30
0.0
  0
VERTEX
  8
0
 10
125.307692308
 20
-9.5
 30
30.3
  0
VERTEX
  8
0
 10
127.307692308
 20
-9.5
 30
30.3
  0
SEQEND
  8
0
  0
POLYLINE
  8
0
 62
0
 70
0
 66
1
 10
0.0
 20
0.0
 30
0.0
  0
VERTEX
  8
0
 10
134.230769231
 20
-9.5
 30
30.3
  0
VERTEX
  8
0
 10
136.230769231
 20
-9.5
 30
30.3
  0
SEQEND
  8
0
  0
POLYLINE
  8
0
 62
0
 70
0
 66
1
 10
0.0
 20
0.0
 30
0.0
  0
VERTEX
  8
0
 10
143.153846154
 20
-9.5
 30
30.3
  0
VERTEX
  8
0
 10
145.153846154
 20
-9.5
 30
30.3
  0
SEQEND
  8
0
  0
POLYLINE
  8
0
 62
0
 70
0
 66
1
 10
0.0
 20
0.0
 30
0.0
  0
VERTEX
  8
0
 10
152.076923077
 20
-9.5
 30
30.3
  0
VERTEX
  8
0
 10
154.076923077
 20
-9.5
 30
30.3
  0
SEQEND
  8
0
  0
POLYLINE
  8
0
 62
0
 70
0
 66
1
 10
0.0
 20
0.0
 30
0.0
  0
VERTEX
  8
0
 10
45.0
 20
9.5
 30
30.3
  0
VERTEX
  8
0
 10
47.0
 20
9.5
 30
30.3
  0
SEQEND
  8
0
  0
POLYLINE
  8
0
 62
0
 70
0
 66
1
 10
0.0
 20
0.0
 30
0.0
  0
VERTEX
  8
0
 10
161.0
 20
9.5
 30
30.3
  0
VERTEX
  8
0
 10
163.0
 20
9.5
 30
30.3
  0
SEQEND
  8
0
  0
POLYLINE
  8
0
 62
0
 70
0
 66
1
 10
0.0
 20
0.0
 30
0.0
  0
VERTEX
  8
0
 10
53.9230769231
 20
9.5
 30
30.3
  0
VERTEX
  8
0
 10
55.9230769231
 20
9.5
 30
30.3
  0
SEQEND
  8
0
  0
POLYLINE
  8
0
 62
0
 70
0
 66
1
 10
0.0
 20
0.0
 30
0.0
  0
VERTEX
  8
0
 10
62.8461538462
 20
9.5
 30
30.3
  0
VERTEX
  8
0
 10
64.8461538462
 20
9.5
 30
30.3
  0
SEQEND
  8
0
  0
POLYLINE
  8
0
 62
0
 70
0
 66
1
 10
0.0
 20
0.0
 30
0.0
  0
VERTEX
  8
0
 10
71.7692307692
 20
9.5
 30
30.3
  0
VERTEX
  8
0
 10
73.7692307692
 20
9.5
 30
30.3
  0
SEQEND
  8
0
  0
POLYLINE
  8
0
 62
0
 70
0
 66
1
 10
0.0
 20
0.0
 30
0.0
  0
VERTEX
  8
0
 10
80.6923076923
 20
9.5
 30
30.3
  0
VERTEX
  8
0
 10
82.6923076923
 20
9.5
 30
30.3
  0
SEQEND
  8
0
  0
POLYLINE
  8
0
 62
0
 70
0
 66
1
 10
0.0
 20
0.0
 30
0.0
  0
VERTEX
  8
0
 10
89.6153846154
 20
9.5
 30
30.3
  0
VERTEX
  8
0
 10
91.6153846154
 20
9.5
 30
30.3
  0
SEQEND
  8
0
  0
POLYLINE
  8
0
 62
0
 70
0
 66
1
 10
0.0
 20
0.0
 30
0.0
  0
VERTEX
  8
0
 10
98.5384615385
 20
9.5
 30
30.3
  0
VERTEX
  8
0
 10
100.538461538
 20
9.5
 30
30.3
  0
SEQEND
  8
0
  0
POLYLINE
  8
0
 62
0
 70
0
 66
1
 10
0.0
 20
0.0
 30
0.0
  0
VERTEX
  8
0
 10
107.461538462
 20
9.5
 30
30.3
  0
VERTEX
  8
0
 10
109.461538462
 20
9.5
 30
30.3
  0
SEQEND
  8
0
  0
POLYLINE
  8
0
 62
0
 70
0
 66
1
 10
0.0
 20
0.0
 30
0.0
  0
VERTEX
  8
0
 10
116.384615385
 20
9.5
 30
30.3
  0
VERTEX
  8
0
 10
118.384615385
 20
9.5
 30
30.3
  0
SEQEND
  8
0
  0
POLYLINE
  8
0
 62
0
 70
0
 66
1
 10
0.0
 20
0.0
 30
0.0
  0
VERTEX
  8
0
 10
125.307692308
 20
9.5
 30
30.3
  0
VERTEX
  8
0
 10
127.307692308
 20
9.5
 30
30.3
  0
SEQEND
  8
0
  0
POLYLINE
  8
0
 62
0
 70
0
 66
1
 10
0.0
 20
0.0
 30
0.0
  0
VERTEX
  8
0
 10
134.230769231
 20
9.5
 30
30.3
  0
VERTEX
  8
0
 10
136.230769231
 20
9.5
 30
30.3
  0
SEQEND
  8
0
  0
POLYLINE
  8
0
 62
0
 70
0
 66
1
 10
0.0
 20
0.0
 30
0.0
  0
VERTEX
  8
0
 10
143.153846154
 20
9.5
 30
30.3
  0
VERTEX
  8
0
 10
145.153846154
 20
9.5
 30
30.3
  0
SEQEND
  8
0
  0
POLYLINE
  8
0
 62
0
 70
0
 66
1
 10
0.0
 20
0.0
 30
0.0
  0
VERTEX
  8
0
 10
152.076923077
 20
9.5
 30
30.3
  0
VERTEX
  8
0
 10
154.076923077
 20
9.5
 30
30.3
  0
SEQEND
  8
0
  0
ENDBLK
  0
ENDSEC
  0
SECTION
  2
ENTITIES
  0
INSERT
  2
MIRRORED001_CS
  8
0
 62
0
 10
0.0
 20
0.0
 30
0.0
  0
INSERT
  2
FUSION001
  8
0
 62
0
 10
0.0
 20
0.0
 30
0.0
  0
ENDSEC
  0
EOF
