  0
SECTION
  2
HEADER
  9
$ACADVER
  1
AC1009
  9
$INSBASE
 10
0.0
 20
0.0
 30
0.0
  9
$EXTMIN
 10
0.0
 20
0.0
 30
0.0
  9
$EXTMAX
 10
0.0
 20
0.0
 30
0.0
  0
ENDSEC
  0
SECTION
  2
TABLES
  0
TABLE
  2
VPORT
 70
0
  0
ENDTAB
  0
TABLE
  2
LTYPE
 70
1
  0
LTYPE
  2
CONTINUOUS
 70
0
  3
Solid line
 72
65
 73
0
 40
0.0
  0
ENDTAB
  0
TABLE
  2
LAYER
 70
1
  0
LAYER
  2
0
 70
64
 62
7
  6
continuous
  0
ENDTAB
  0
TABLE
  2
STYLE
 70
1
  0
STYLE
  2
STANDARD
 70
0
 40
0
 41
1.0
 50
0.0
 71
0
 42
1
 3
ARIAL.TTF
 4

  0
ENDTAB
  0
TABLE
  2
VIEW
 70
0
  0
ENDTAB
  0
ENDSEC
  0
SECTION
  2
BLOCKS
  0
BLOCK
  8
0
  2
FILLET_CS001
 70
0
 10
0.0
 20
0.0
 30
0.0
  3
FILLET_CS001
  0
POLYLINE
  8
0
 62
0
 70
1
 66
1
 10
0.0
 20
0.0
 30
0.0
  0
VERTEX
  8
0
 10
89.0
 20
48.0
 30
10.0
  0
VERTEX
  8
0
 10
89.0
 20
-48.0
 30
10.0
 42
-0.414213562373
  0
VERTEX
  8
0
 10
87.0
 20
-50.0
 30
10.0
  0
VERTEX
  8
0
 10
-29.0
 20
-50.0
 30
10.0
 42
-0.414213562373
  0
VERTEX
  8
0
 10
-31.0
 20
-48.0
 30
10.0
  0
VERTEX
  8
0
 10
-31.0
 20
48.0
 30
10.0
 42
-0.414213562373
  0
VERTEX
  8
0
 10
-29.0
 20
50.0
 30
10.0
  0
VERTEX
  8
0
 10
87.0
 20
50.0
 30
10.0
 42
-0.414213562373
  0
SEQEND
  8
0
  0
POLYLINE
  8
0
 62
0
 70
1
 66
1
 10
0.0
 20
0.0
 30
0.0
  0
VERTEX
  8
0
 10
-22.0
 20
-25.9
 30
10.0
 42
1.0
  0
VERTEX
  8
0
 10
-22.0
 20
-34.1
 30
10.0
  0
VERTEX
  8
0
 10
-12.0
 20
-34.1
 30
10.0
 42
1.0
  0
VERTEX
  8
0
 10
-12.0
 20
-25.9
 30
10.0
  0
SEQEND
  8
0
  0
POLYLINE
  8
0
 62
0
 70
1
 66
1
 10
0.0
 20
0.0
 30
0.0
  0
VERTEX
  8
0
 10
-22.0
 20
34.1
 30
10.0
 42
1.0
  0
VERTEX
  8
0
 10
-22.0
 20
25.9
 30
10.0
  0
VERTEX
  8
0
 10
-12.0
 20
25.9
 30
10.0
 42
1.0
  0
VERTEX
  8
0
 10
-12.0
 20
34.1
 30
10.0
  0
SEQEND
  8
0
  0
POLYLINE
  8
0
 62
0
 70
1
 66
1
 10
0.0
 20
0.0
 30
0.0
  0
VERTEX
  8
0
 10
50.0
 20
-45.2
 30
10.0
  0
VERTEX
  8
0
 10
61.4315353299
 20
-25.4
 30
10.0
  0
VERTEX
  8
0
 10
38.56846467
 20
-25.4
 30
10.0
  0
SEQEND
  8
0
  0
POLYLINE
  8
0
 62
0
 70
1
 66
1
 10
0.0
 20
0.0
 30
0.0
  0
VERTEX
  8
0
 10
55.0
 20
-12.0
 30
10.0
 42
1.0
  0
VERTEX
  8
0
 10
55.0
 20
12.0
 30
10.0
  0
VERTEX
  8
0
 10
47.0
 20
12.0
 30
10.0
 42
1.0
  0
VERTEX
  8
0
 10
47.0
 20
-12.0
 30
10.0
  0
SEQEND
  8
0
  0
POLYLINE
  8
0
 62
0
 70
1
 66
1
 10
0.0
 20
0.0
 30
0.0
  0
VERTEX
  8
0
 10
70.5
 20
19.0
 30
10.0
  0
VERTEX
  8
0
 10
62.5
 20
19.0
 30
10.0
 42
1.0
  0
VERTEX
  8
0
 10
62.5
 20
12.0
 30
10.0
  0
VERTEX
  8
0
 10
70.5
 20
12.0
 30
10.0
 42
1.0
  0
SEQEND
  8
0
  0
POLYLINE
  8
0
 62
0
 70
1
 66
1
 10
0.0
 20
0.0
 30
0.0
  0
VERTEX
  8
0
 10
39.5
 20
19.0
 30
10.0
  0
VERTEX
  8
0
 10
31.5
 20
19.0
 30
10.0
 42
1.0
  0
VERTEX
  8
0
 10
31.5
 20
12.0
 30
10.0
  0
VERTEX
  8
0
 10
39.5
 20
12.0
 30
10.0
 42
1.0
  0
SEQEND
  8
0
  0
POLYLINE
  8
0
 62
0
 70
1
 66
1
 10
0.0
 20
0.0
 30
0.0
  0
VERTEX
  8
0
 10
39.5
 20
-19.0
 30
10.0
  0
VERTEX
  8
0
 10
31.5
 20
-19.0
 30
10.0
 42
-1.0
  0
VERTEX
  8
0
 10
31.5
 20
-12.0
 30
10.0
  0
VERTEX
  8
0
 10
39.5
 20
-12.0
 30
10.0
 42
-1.0
  0
SEQEND
  8
0
  0
POLYLINE
  8
0
 62
0
 70
1
 66
1
 10
0.0
 20
0.0
 30
0.0
  0
VERTEX
  8
0
 10
62.5
 20
-19.0
 30
10.0
  0
VERTEX
  8
0
 10
70.5
 20
-19.0
 30
10.0
 42
1.0
  0
VERTEX
  8
0
 10
70.5
 20
-12.0
 30
10.0
  0
VERTEX
  8
0
 10
62.5
 20
-12.0
 30
10.0
 42
1.0
  0
SEQEND
  8
0
  0
POLYLINE
  8
0
 62
0
 70
1
 66
1
 10
0.0
 20
0.0
 30
0.0
  0
VERTEX
  8
0
 10
50.0
 20
45.2
 30
10.0
  0
VERTEX
  8
0
 10
61.4315353299
 20
25.4
 30
10.0
  0
VERTEX
  8
0
 10
38.56846467
 20
25.4
 30
10.0
  0
SEQEND
  8
0
  0
ENDBLK
  0
BLOCK
  8
0
  2
FILLET_CS
 70
0
 10
0.0
 20
0.0
 30
0.0
  3
FILLET_CS
  0
POLYLINE
  8
0
 62
0
 70
1
 66
1
 10
0.0
 20
0.0
 30
0.0
  0
VERTEX
  8
0
 10
89.0
 20
48.0
 30
14.0
  0
VERTEX
  8
0
 10
89.0
 20
-48.0
 30
14.0
 42
-0.414213562373
  0
VERTEX
  8
0
 10
87.0
 20
-50.0
 30
14.0
  0
VERTEX
  8
0
 10
-29.0
 20
-50.0
 30
14.0
 42
-0.414213562373
  0
VERTEX
  8
0
 10
-31.0
 20
-48.0
 30
14.0
  0
VERTEX
  8
0
 10
-31.0
 20
48.0
 30
14.0
 42
-0.414213562373
  0
VERTEX
  8
0
 10
-29.0
 20
50.0
 30
14.0
  0
VERTEX
  8
0
 10
87.0
 20
50.0
 30
14.0
 42
-0.414213562373
  0
SEQEND
  8
0
  0
POLYLINE
  8
0
 62
0
 70
1
 66
1
 10
0.0
 20
0.0
 30
0.0
  0
VERTEX
  8
0
 10
-22.0
 20
34.1
 30
14.0
 42
1.0
  0
VERTEX
  8
0
 10
-22.0
 20
25.9
 30
14.0
  0
VERTEX
  8
0
 10
-12.0
 20
25.9
 30
14.0
 42
1.0
  0
VERTEX
  8
0
 10
-12.0
 20
34.1
 30
14.0
  0
SEQEND
  8
0
  0
CIRCLE
  8
0
 62
0
 10
50.0
 20
32.0
 30
14.0
 40
4.1
  0
CIRCLE
  8
0
 62
0
 10
50.0
 20
-32.0
 30
14.0
 40
4.1
  0
POLYLINE
  8
0
 62
0
 70
1
 66
1
 10
0.0
 20
0.0
 30
0.0
  0
VERTEX
  8
0
 10
62.5
 20
-13.9
 30
14.0
 42
1.0
  0
VERTEX
  8
0
 10
62.5
 20
-17.1
 30
14.0
  0
VERTEX
  8
0
 10
70.5
 20
-17.1
 30
14.0
 42
1.0
  0
VERTEX
  8
0
 10
70.5
 20
-13.9
 30
14.0
  0
SEQEND
  8
0
  0
POLYLINE
  8
0
 62
0
 70
1
 66
1
 10
0.0
 20
0.0
 30
0.0
  0
VERTEX
  8
0
 10
31.5
 20
17.1
 30
14.0
 42
1.0
  0
VERTEX
  8
0
 10
31.5
 20
13.9
 30
14.0
  0
VERTEX
  8
0
 10
39.5
 20
13.9
 30
14.0
 42
1.0
  0
VERTEX
  8
0
 10
39.5
 20
17.1
 30
14.0
  0
SEQEND
  8
0
  0
POLYLINE
  8
0
 62
0
 70
1
 66
1
 10
0.0
 20
0.0
 30
0.0
  0
VERTEX
  8
0
 10
70.5
 20
17.1
 30
14.0
  0
VERTEX
  8
0
 10
62.5
 20
17.1
 30
14.0
 42
1.0
  0
VERTEX
  8
0
 10
62.5
 20
13.9
 30
14.0
  0
VERTEX
  8
0
 10
70.5
 20
13.9
 30
14.0
 42
1.0
  0
SEQEND
  8
0
  0
POLYLINE
  8
0
 62
0
 70
1
 66
1
 10
0.0
 20
0.0
 30
0.0
  0
VERTEX
  8
0
 10
31.5
 20
-17.1
 30
14.0
  0
VERTEX
  8
0
 10
39.5
 20
-17.1
 30
14.0
 42
1.0
  0
VERTEX
  8
0
 10
39.5
 20
-13.9
 30
14.0
  0
VERTEX
  8
0
 10
31.5
 20
-13.9
 30
14.0
 42
1.0
  0
SEQEND
  8
0
  0
POLYLINE
  8
0
 62
0
 70
1
 66
1
 10
0.0
 20
0.0
 30
0.0
  0
VERTEX
  8
0
 10
55.0
 20
-12.0
 30
14.0
 42
1.0
  0
VERTEX
  8
0
 10
55.0
 20
12.0
 30
14.0
  0
VERTEX
  8
0
 10
47.0
 20
12.0
 30
14.0
 42
1.0
  0
VERTEX
  8
0
 10
47.0
 20
-12.0
 30
14.0
  0
SEQEND
  8
0
  0
POLYLINE
  8
0
 62
0
 70
1
 66
1
 10
0.0
 20
0.0
 30
0.0
  0
VERTEX
  8
0
 10
-22.0
 20
-25.9
 30
14.0
 42
1.0
  0
VERTEX
  8
0
 10
-22.0
 20
-34.1
 30
14.0
  0
VERTEX
  8
0
 10
-12.0
 20
-34.1
 30
14.0
 42
1.0
  0
VERTEX
  8
0
 10
-12.0
 20
-25.9
 30
14.0
  0
SEQEND
  8
0
  0
ENDBLK
  0
ENDSEC
  0
SECTION
  2
ENTITIES
  0
INSERT
  2
FILLET_CS001
  8
0
 62
0
 10
0.0
 20
0.0
 30
0.0
  0
INSERT
  2
FILLET_CS
  8
0
 62
0
 10
0.0
 20
0.0
 30
0.0
  0
ENDSEC
  0
EOF
