%FSLAX45Y45*%
G04 Gerber Fmt 4.5, Leading zero omitted, Abs format (unit mm)*
G04 Created by KiCad (PCBNEW (6.0.0-rc1-dev-347-gd8782b751)) date 11/16/19 21:01:58*
%MOMM*%
%LPD*%
G01*
G04 APERTURE LIST*
%ADD10C,0.050000*%
%ADD11C,0.200000*%
%ADD12C,0.300000*%
G04 APERTURE END LIST*
D10*
X1447800Y-1574800D02*
X1549400Y-1397000D01*
X1397000Y-2209800D02*
X1447800Y-1574800D01*
X2006600Y-2463800D02*
X1397000Y-2209800D01*
X1549400Y-1397000D02*
X2362200Y-1371600D01*
D11*
X3206200Y-1809200D02*
X3296200Y-1899200D01*
X3296200Y-1809200D02*
X3206200Y-1899200D01*
X3460200Y-1809200D02*
X3550200Y-1899200D01*
X3550200Y-1809200D02*
X3460200Y-1899200D01*
D12*
X1680928Y-2932014D02*
X1680928Y-2632014D01*
X1752357Y-2632014D01*
X1795214Y-2646300D01*
X1823786Y-2674872D01*
X1838071Y-2703443D01*
X1852357Y-2760586D01*
X1852357Y-2803443D01*
X1838071Y-2860586D01*
X1823786Y-2889157D01*
X1795214Y-2917729D01*
X1752357Y-2932014D01*
X1680928Y-2932014D01*
X1980928Y-2932014D02*
X1980928Y-2732014D01*
X1980928Y-2789157D02*
X1995214Y-2760586D01*
X2009500Y-2746300D01*
X2038071Y-2732014D01*
X2066643Y-2732014D01*
X2166643Y-2932014D02*
X2166643Y-2732014D01*
X2166643Y-2632014D02*
X2152357Y-2646300D01*
X2166643Y-2660586D01*
X2180928Y-2646300D01*
X2166643Y-2632014D01*
X2166643Y-2660586D01*
X2352357Y-2932014D02*
X2323786Y-2917729D01*
X2309500Y-2889157D01*
X2309500Y-2632014D01*
X2509500Y-2932014D02*
X2480928Y-2917729D01*
X2466643Y-2889157D01*
X2466643Y-2632014D01*
X2852357Y-2932014D02*
X2852357Y-2632014D01*
X2952357Y-2846300D01*
X3052357Y-2632014D01*
X3052357Y-2932014D01*
X3323786Y-2932014D02*
X3323786Y-2774872D01*
X3309500Y-2746300D01*
X3280928Y-2732014D01*
X3223786Y-2732014D01*
X3195214Y-2746300D01*
X3323786Y-2917729D02*
X3295214Y-2932014D01*
X3223786Y-2932014D01*
X3195214Y-2917729D01*
X3180928Y-2889157D01*
X3180928Y-2860586D01*
X3195214Y-2832014D01*
X3223786Y-2817729D01*
X3295214Y-2817729D01*
X3323786Y-2803443D01*
X3466643Y-2732014D02*
X3466643Y-3032014D01*
X3466643Y-2746300D02*
X3495214Y-2732014D01*
X3552357Y-2732014D01*
X3580928Y-2746300D01*
X3595214Y-2760586D01*
X3609500Y-2789157D01*
X3609500Y-2874871D01*
X3595214Y-2903443D01*
X3580928Y-2917729D01*
X3552357Y-2932014D01*
X3495214Y-2932014D01*
X3466643Y-2917729D01*
X3738071Y-2903443D02*
X3752357Y-2917729D01*
X3738071Y-2932014D01*
X3723786Y-2917729D01*
X3738071Y-2903443D01*
X3738071Y-2932014D01*
X3738071Y-2746300D02*
X3752357Y-2760586D01*
X3738071Y-2774872D01*
X3723786Y-2760586D01*
X3738071Y-2746300D01*
X3738071Y-2774872D01*
X1304500Y-3381300D02*
X1394500Y-3471300D01*
X1394500Y-3381300D02*
X1304500Y-3471300D01*
X1738071Y-3262014D02*
X1766643Y-3262014D01*
X1795214Y-3276300D01*
X1809500Y-3290586D01*
X1823786Y-3319157D01*
X1838071Y-3376300D01*
X1838071Y-3447729D01*
X1823786Y-3504871D01*
X1809500Y-3533443D01*
X1795214Y-3547729D01*
X1766643Y-3562014D01*
X1738071Y-3562014D01*
X1709500Y-3547729D01*
X1695214Y-3533443D01*
X1680928Y-3504871D01*
X1666643Y-3447729D01*
X1666643Y-3376300D01*
X1680928Y-3319157D01*
X1695214Y-3290586D01*
X1709500Y-3276300D01*
X1738071Y-3262014D01*
X1966643Y-3533443D02*
X1980928Y-3547729D01*
X1966643Y-3562014D01*
X1952357Y-3547729D01*
X1966643Y-3533443D01*
X1966643Y-3562014D01*
X2123786Y-3562014D02*
X2180928Y-3562014D01*
X2209500Y-3547729D01*
X2223786Y-3533443D01*
X2252357Y-3490586D01*
X2266643Y-3433443D01*
X2266643Y-3319157D01*
X2252357Y-3290586D01*
X2238071Y-3276300D01*
X2209500Y-3262014D01*
X2152357Y-3262014D01*
X2123786Y-3276300D01*
X2109500Y-3290586D01*
X2095214Y-3319157D01*
X2095214Y-3390586D01*
X2109500Y-3419157D01*
X2123786Y-3433443D01*
X2152357Y-3447729D01*
X2209500Y-3447729D01*
X2238071Y-3433443D01*
X2252357Y-3419157D01*
X2266643Y-3390586D01*
X2452357Y-3262014D02*
X2480928Y-3262014D01*
X2509500Y-3276300D01*
X2523786Y-3290586D01*
X2538071Y-3319157D01*
X2552357Y-3376300D01*
X2552357Y-3447729D01*
X2538071Y-3504871D01*
X2523786Y-3533443D01*
X2509500Y-3547729D01*
X2480928Y-3562014D01*
X2452357Y-3562014D01*
X2423786Y-3547729D01*
X2409500Y-3533443D01*
X2395214Y-3504871D01*
X2380928Y-3447729D01*
X2380928Y-3376300D01*
X2395214Y-3319157D01*
X2409500Y-3290586D01*
X2423786Y-3276300D01*
X2452357Y-3262014D01*
X2680928Y-3562014D02*
X2680928Y-3362014D01*
X2680928Y-3390586D02*
X2695214Y-3376300D01*
X2723786Y-3362014D01*
X2766643Y-3362014D01*
X2795214Y-3376300D01*
X2809500Y-3404871D01*
X2809500Y-3562014D01*
X2809500Y-3404871D02*
X2823786Y-3376300D01*
X2852357Y-3362014D01*
X2895214Y-3362014D01*
X2923786Y-3376300D01*
X2938071Y-3404871D01*
X2938071Y-3562014D01*
X3080928Y-3562014D02*
X3080928Y-3362014D01*
X3080928Y-3390586D02*
X3095214Y-3376300D01*
X3123786Y-3362014D01*
X3166643Y-3362014D01*
X3195214Y-3376300D01*
X3209500Y-3404871D01*
X3209500Y-3562014D01*
X3209500Y-3404871D02*
X3223786Y-3376300D01*
X3252357Y-3362014D01*
X3295214Y-3362014D01*
X3323786Y-3376300D01*
X3338071Y-3404871D01*
X3338071Y-3562014D01*
X3923786Y-3247729D02*
X3666643Y-3633443D01*
X4309500Y-3262014D02*
X4338071Y-3262014D01*
X4366643Y-3276300D01*
X4380928Y-3290586D01*
X4395214Y-3319157D01*
X4409500Y-3376300D01*
X4409500Y-3447729D01*
X4395214Y-3504871D01*
X4380928Y-3533443D01*
X4366643Y-3547729D01*
X4338071Y-3562014D01*
X4309500Y-3562014D01*
X4280928Y-3547729D01*
X4266643Y-3533443D01*
X4252357Y-3504871D01*
X4238071Y-3447729D01*
X4238071Y-3376300D01*
X4252357Y-3319157D01*
X4266643Y-3290586D01*
X4280928Y-3276300D01*
X4309500Y-3262014D01*
X4538071Y-3533443D02*
X4552357Y-3547729D01*
X4538071Y-3562014D01*
X4523786Y-3547729D01*
X4538071Y-3533443D01*
X4538071Y-3562014D01*
X4738071Y-3262014D02*
X4766643Y-3262014D01*
X4795214Y-3276300D01*
X4809500Y-3290586D01*
X4823786Y-3319157D01*
X4838071Y-3376300D01*
X4838071Y-3447729D01*
X4823786Y-3504871D01*
X4809500Y-3533443D01*
X4795214Y-3547729D01*
X4766643Y-3562014D01*
X4738071Y-3562014D01*
X4709500Y-3547729D01*
X4695214Y-3533443D01*
X4680928Y-3504871D01*
X4666643Y-3447729D01*
X4666643Y-3376300D01*
X4680928Y-3319157D01*
X4695214Y-3290586D01*
X4709500Y-3276300D01*
X4738071Y-3262014D01*
X4938071Y-3262014D02*
X5123786Y-3262014D01*
X5023786Y-3376300D01*
X5066643Y-3376300D01*
X5095214Y-3390586D01*
X5109500Y-3404871D01*
X5123786Y-3433443D01*
X5123786Y-3504871D01*
X5109500Y-3533443D01*
X5095214Y-3547729D01*
X5066643Y-3562014D01*
X4980928Y-3562014D01*
X4952357Y-3547729D01*
X4938071Y-3533443D01*
X5395214Y-3262014D02*
X5252357Y-3262014D01*
X5238071Y-3404871D01*
X5252357Y-3390586D01*
X5280928Y-3376300D01*
X5352357Y-3376300D01*
X5380928Y-3390586D01*
X5395214Y-3404871D01*
X5409500Y-3433443D01*
X5409500Y-3504871D01*
X5395214Y-3533443D01*
X5380928Y-3547729D01*
X5352357Y-3562014D01*
X5280928Y-3562014D01*
X5252357Y-3547729D01*
X5238071Y-3533443D01*
X5523786Y-3262014D02*
X5523786Y-3319157D01*
X5638071Y-3262014D02*
X5638071Y-3319157D01*
X6080928Y-3676300D02*
X6066643Y-3662014D01*
X6038071Y-3619157D01*
X6023786Y-3590586D01*
X6009500Y-3547729D01*
X5995214Y-3476300D01*
X5995214Y-3419157D01*
X6009500Y-3347729D01*
X6023786Y-3304871D01*
X6038071Y-3276300D01*
X6066643Y-3233443D01*
X6080928Y-3219157D01*
X6180928Y-3290586D02*
X6195214Y-3276300D01*
X6223786Y-3262014D01*
X6295214Y-3262014D01*
X6323786Y-3276300D01*
X6338071Y-3290586D01*
X6352357Y-3319157D01*
X6352357Y-3347729D01*
X6338071Y-3390586D01*
X6166643Y-3562014D01*
X6352357Y-3562014D01*
X6709500Y-3562014D02*
X6709500Y-3262014D01*
X6838071Y-3562014D02*
X6838071Y-3404871D01*
X6823786Y-3376300D01*
X6795214Y-3362014D01*
X6752357Y-3362014D01*
X6723786Y-3376300D01*
X6709500Y-3390586D01*
X7023786Y-3562014D02*
X6995214Y-3547729D01*
X6980928Y-3533443D01*
X6966643Y-3504871D01*
X6966643Y-3419157D01*
X6980928Y-3390586D01*
X6995214Y-3376300D01*
X7023786Y-3362014D01*
X7066643Y-3362014D01*
X7095214Y-3376300D01*
X7109500Y-3390586D01*
X7123786Y-3419157D01*
X7123786Y-3504871D01*
X7109500Y-3533443D01*
X7095214Y-3547729D01*
X7066643Y-3562014D01*
X7023786Y-3562014D01*
X7295214Y-3562014D02*
X7266643Y-3547729D01*
X7252357Y-3519157D01*
X7252357Y-3262014D01*
X7523786Y-3547729D02*
X7495214Y-3562014D01*
X7438071Y-3562014D01*
X7409500Y-3547729D01*
X7395214Y-3519157D01*
X7395214Y-3404871D01*
X7409500Y-3376300D01*
X7438071Y-3362014D01*
X7495214Y-3362014D01*
X7523786Y-3376300D01*
X7538071Y-3404871D01*
X7538071Y-3433443D01*
X7395214Y-3462014D01*
X7652357Y-3547729D02*
X7680928Y-3562014D01*
X7738071Y-3562014D01*
X7766643Y-3547729D01*
X7780928Y-3519157D01*
X7780928Y-3504871D01*
X7766643Y-3476300D01*
X7738071Y-3462014D01*
X7695214Y-3462014D01*
X7666643Y-3447729D01*
X7652357Y-3419157D01*
X7652357Y-3404871D01*
X7666643Y-3376300D01*
X7695214Y-3362014D01*
X7738071Y-3362014D01*
X7766643Y-3376300D01*
X7880928Y-3676300D02*
X7895214Y-3662014D01*
X7923786Y-3619157D01*
X7938071Y-3590586D01*
X7952357Y-3547729D01*
X7966643Y-3476300D01*
X7966643Y-3419157D01*
X7952357Y-3347729D01*
X7938071Y-3304871D01*
X7923786Y-3276300D01*
X7895214Y-3233443D01*
X7880928Y-3219157D01*
M02*
