G04 #@! TF.GenerationSoftware,KiCad,Pcbnew,(6.0.0-rc1-dev-347-gd8782b751)*
G04 #@! TF.CreationDate,2019-06-28T15:50:58+02:00*
G04 #@! TF.ProjectId,nano,6E616E6F2E6B696361645F7063620000,rev?*
G04 #@! TF.SameCoordinates,Original*
G04 #@! TF.FileFunction,Legend,Bot*
G04 #@! TF.FilePolarity,Positive*
%FSLAX46Y46*%
G04 Gerber Fmt 4.6, Leading zero omitted, Abs format (unit mm)*
G04 Created by KiCad (PCBNEW (6.0.0-rc1-dev-347-gd8782b751)) date 06/28/19 15:50:58*
%MOMM*%
%LPD*%
G01*
G04 APERTURE LIST*
%ADD10C,0.400000*%
%ADD11C,0.300000*%
%ADD12C,0.100000*%
%ADD13C,0.120000*%
G04 APERTURE END LIST*
D10*
X96027761Y-151209428D02*
X96027761Y-150066571D01*
X96027761Y-150638000D02*
X94027761Y-150638000D01*
X94313476Y-150447523D01*
X94503952Y-150257047D01*
X94599190Y-150066571D01*
X96027761Y-152066571D02*
X94027761Y-152066571D01*
X96027761Y-153209428D02*
X94884904Y-152352285D01*
X94027761Y-153209428D02*
X95170619Y-152066571D01*
D11*
X146006142Y-79672571D02*
X146863285Y-79672571D01*
X146434714Y-79672571D02*
X146434714Y-78172571D01*
X146577571Y-78386857D01*
X146720428Y-78529714D01*
X146863285Y-78601142D01*
X145077571Y-78172571D02*
X144934714Y-78172571D01*
X144791857Y-78244000D01*
X144720428Y-78315428D01*
X144649000Y-78458285D01*
X144577571Y-78744000D01*
X144577571Y-79101142D01*
X144649000Y-79386857D01*
X144720428Y-79529714D01*
X144791857Y-79601142D01*
X144934714Y-79672571D01*
X145077571Y-79672571D01*
X145220428Y-79601142D01*
X145291857Y-79529714D01*
X145363285Y-79386857D01*
X145434714Y-79101142D01*
X145434714Y-78744000D01*
X145363285Y-78458285D01*
X145291857Y-78315428D01*
X145220428Y-78244000D01*
X145077571Y-78172571D01*
X143291857Y-78672571D02*
X143291857Y-79672571D01*
X143934714Y-78672571D02*
X143934714Y-79458285D01*
X143863285Y-79601142D01*
X143720428Y-79672571D01*
X143506142Y-79672571D01*
X143363285Y-79601142D01*
X143291857Y-79529714D01*
X142077571Y-78886857D02*
X142577571Y-78886857D01*
X142577571Y-79672571D02*
X142577571Y-78172571D01*
X141863285Y-78172571D01*
D10*
X123585238Y-152874761D02*
X123394761Y-152874761D01*
X123204285Y-152970000D01*
X123109047Y-153065238D01*
X123013809Y-153255714D01*
X122918571Y-153636666D01*
X122918571Y-154112857D01*
X123013809Y-154493809D01*
X123109047Y-154684285D01*
X123204285Y-154779523D01*
X123394761Y-154874761D01*
X123585238Y-154874761D01*
X123775714Y-154779523D01*
X123870952Y-154684285D01*
X123966190Y-154493809D01*
X124061428Y-154112857D01*
X124061428Y-153636666D01*
X123966190Y-153255714D01*
X123870952Y-153065238D01*
X123775714Y-152970000D01*
X123585238Y-152874761D01*
D11*
X145609428Y-85387571D02*
X146466571Y-85387571D01*
X146038000Y-85387571D02*
X146038000Y-83887571D01*
X146180857Y-84101857D01*
X146323714Y-84244714D01*
X146466571Y-84316142D01*
X144966571Y-85387571D02*
X144966571Y-83887571D01*
X144109428Y-85387571D02*
X144752285Y-84530428D01*
X144109428Y-83887571D02*
X144966571Y-84744714D01*
D10*
X136191571Y-105679761D02*
X137334428Y-105679761D01*
X136763000Y-105679761D02*
X136763000Y-103679761D01*
X136953476Y-103965476D01*
X137143952Y-104155952D01*
X137334428Y-104251190D01*
X135334428Y-105679761D02*
X135334428Y-103679761D01*
X134191571Y-105679761D02*
X135048714Y-104536904D01*
X134191571Y-103679761D02*
X135334428Y-104822619D01*
X136318571Y-102784761D02*
X137461428Y-102784761D01*
X136890000Y-102784761D02*
X136890000Y-100784761D01*
X137080476Y-101070476D01*
X137270952Y-101260952D01*
X137461428Y-101356190D01*
X135461428Y-102784761D02*
X135461428Y-100784761D01*
X134318571Y-102784761D02*
X135175714Y-101641904D01*
X134318571Y-100784761D02*
X135461428Y-101927619D01*
X136468571Y-99984761D02*
X137611428Y-99984761D01*
X137040000Y-99984761D02*
X137040000Y-97984761D01*
X137230476Y-98270476D01*
X137420952Y-98460952D01*
X137611428Y-98556190D01*
X135611428Y-99984761D02*
X135611428Y-97984761D01*
X134468571Y-99984761D02*
X135325714Y-98841904D01*
X134468571Y-97984761D02*
X135611428Y-99127619D01*
D12*
X82804000Y-172085000D02*
X81534000Y-170815000D01*
X82804000Y-32004000D02*
X81534000Y-33274000D01*
X161353500Y-170815000D02*
X160083500Y-172085000D01*
X161353500Y-33210500D02*
X160083500Y-31940500D01*
D11*
X96425142Y-127146857D02*
X97568000Y-127146857D01*
X98639428Y-126075428D02*
X98639428Y-128218285D01*
X100853714Y-127575428D02*
X99710857Y-127146857D01*
X100853714Y-126718285D01*
X101568000Y-127146857D02*
X102710857Y-127146857D01*
X96552142Y-123463857D02*
X97695000Y-123463857D01*
X98766428Y-122392428D02*
X98766428Y-124535285D01*
X100980714Y-123892428D02*
X99837857Y-123463857D01*
X100980714Y-123035285D01*
X101695000Y-123463857D02*
X102837857Y-123463857D01*
X96425142Y-119145857D02*
X97568000Y-119145857D01*
X98639428Y-118074428D02*
X98639428Y-120217285D01*
X100853714Y-119574428D02*
X99710857Y-119145857D01*
X100853714Y-118717285D01*
X101568000Y-119145857D02*
X102710857Y-119145857D01*
D12*
X110746885Y-148021384D02*
G75*
G03X110746885Y-148021384I-2796885J0D01*
G01*
X144208500Y-148018500D02*
G75*
G03X144208500Y-148018500I-2794000J0D01*
G01*
X110692022Y-42874021D02*
G75*
G03X110692022Y-42874021I-2805522J0D01*
G01*
X144030668Y-42875168D02*
G75*
G03X144030668Y-42875168I-2552668J0D01*
G01*
X81534000Y-170815000D02*
X81534000Y-33274000D01*
X160083500Y-172085000D02*
X82804000Y-172085000D01*
X161353500Y-33210500D02*
X161353500Y-170815000D01*
X82804000Y-32004000D02*
X160083500Y-31940500D01*
D13*
G04 #@! TO.C,R27*
X94213000Y-157320064D02*
X94213000Y-156115936D01*
X96033000Y-157320064D02*
X96033000Y-156115936D01*
G04 #@! TO.C,C6*
X149376397Y-77449000D02*
X150580525Y-77449000D01*
X149376397Y-79269000D02*
X150580525Y-79269000D01*
G04 #@! TO.C,C5*
X113051000Y-55404936D02*
X113051000Y-56609064D01*
X111231000Y-55404936D02*
X111231000Y-56609064D01*
G04 #@! TO.C,R26*
X150580525Y-85726205D02*
X149376397Y-85726205D01*
X150580525Y-83906205D02*
X149376397Y-83906205D01*
G04 #@! TO.C,R25*
X144366064Y-105367500D02*
X143161936Y-105367500D01*
X144366064Y-103547500D02*
X143161936Y-103547500D01*
G04 #@! TO.C,R24*
X144393064Y-102573500D02*
X143188936Y-102573500D01*
X144393064Y-100753500D02*
X143188936Y-100753500D01*
G04 #@! TO.C,R23*
X144366064Y-99779500D02*
X143161936Y-99779500D01*
X144366064Y-97959500D02*
X143161936Y-97959500D01*
G04 #@! TO.C,U16*
X116399000Y-147133000D02*
X118634000Y-147133000D01*
X116399000Y-152333000D02*
X116399000Y-147133000D01*
X122869000Y-152333000D02*
X116399000Y-152333000D01*
X122869000Y-147133000D02*
X122869000Y-152333000D01*
X120634000Y-147133000D02*
X122869000Y-147133000D01*
X118634000Y-147133000D02*
G75*
G03X120634000Y-147133000I1000000J0D01*
G01*
G04 #@! TO.C,R22*
X119031936Y-152887000D02*
X120236064Y-152887000D01*
X119031936Y-154707000D02*
X120236064Y-154707000D01*
G04 #@! TO.C,S1JA-13-F3*
X112971270Y-125378648D02*
X106071270Y-125378648D01*
X112971270Y-128678648D02*
X106071270Y-128678648D01*
X112971270Y-125378648D02*
X112971270Y-128678648D01*
G04 #@! TO.C,S1JA-13-F2*
X112971270Y-117417648D02*
X106071270Y-117417648D01*
X112971270Y-120717648D02*
X106071270Y-120717648D01*
X112971270Y-117417648D02*
X112971270Y-120717648D01*
G04 #@! TO.C,R21*
X149376397Y-80985205D02*
X150580525Y-80985205D01*
X149376397Y-82805205D02*
X150580525Y-82805205D01*
G04 #@! TO.C,S1JA-13-F1*
X112971270Y-121481648D02*
X106071270Y-121481648D01*
X112971270Y-124781648D02*
X106071270Y-124781648D01*
X112971270Y-121481648D02*
X112971270Y-124781648D01*
G04 #@! TO.C,R20*
X115729936Y-59923000D02*
X116934064Y-59923000D01*
X115729936Y-61743000D02*
X116934064Y-61743000D01*
G04 #@! TO.C,R19*
X111739000Y-86200064D02*
X111739000Y-84995936D01*
X113559000Y-86200064D02*
X113559000Y-84995936D01*
G04 #@! TO.C,R18*
X86454064Y-128037000D02*
X85249936Y-128037000D01*
X86454064Y-126217000D02*
X85249936Y-126217000D01*
G04 #@! TO.C,R17*
X86327064Y-93239000D02*
X85122936Y-93239000D01*
X86327064Y-91419000D02*
X85122936Y-91419000D01*
G04 #@! TO.C,R16*
X86327064Y-60092000D02*
X85122936Y-60092000D01*
X86327064Y-58272000D02*
X85122936Y-58272000D01*
G04 #@! TO.C,R12*
X128683936Y-150220000D02*
X129888064Y-150220000D01*
X128683936Y-152040000D02*
X129888064Y-152040000D01*
G04 #@! TO.C,U14*
X123631000Y-128178611D02*
X121396000Y-128178611D01*
X123631000Y-122978611D02*
X123631000Y-128178611D01*
X117161000Y-122978611D02*
X123631000Y-122978611D01*
X117161000Y-128178611D02*
X117161000Y-122978611D01*
X119396000Y-128178611D02*
X117161000Y-128178611D01*
X121396000Y-128178611D02*
G75*
G03X119396000Y-128178611I-1000000J0D01*
G01*
G04 #@! TO.C,U13*
X122805500Y-160524500D02*
X120570500Y-160524500D01*
X122805500Y-155324500D02*
X122805500Y-160524500D01*
X116335500Y-155324500D02*
X122805500Y-155324500D01*
X116335500Y-160524500D02*
X116335500Y-155324500D01*
X118570500Y-160524500D02*
X116335500Y-160524500D01*
X120570500Y-160524500D02*
G75*
G03X118570500Y-160524500I-1000000J0D01*
G01*
G04 #@! TO.C,U12*
X117161000Y-94911611D02*
X119396000Y-94911611D01*
X117161000Y-100111611D02*
X117161000Y-94911611D01*
X123631000Y-100111611D02*
X117161000Y-100111611D01*
X123631000Y-94911611D02*
X123631000Y-100111611D01*
X121396000Y-94911611D02*
X123631000Y-94911611D01*
X119396000Y-94911611D02*
G75*
G03X121396000Y-94911611I1000000J0D01*
G01*
G04 #@! TO.C,U11*
X117161000Y-89196611D02*
X119396000Y-89196611D01*
X117161000Y-94396611D02*
X117161000Y-89196611D01*
X123631000Y-94396611D02*
X117161000Y-94396611D01*
X123631000Y-89196611D02*
X123631000Y-94396611D01*
X121396000Y-89196611D02*
X123631000Y-89196611D01*
X119396000Y-89196611D02*
G75*
G03X121396000Y-89196611I1000000J0D01*
G01*
G04 #@! TO.C,U10*
X117161000Y-83481611D02*
X119396000Y-83481611D01*
X117161000Y-88681611D02*
X117161000Y-83481611D01*
X123631000Y-88681611D02*
X117161000Y-88681611D01*
X123631000Y-83481611D02*
X123631000Y-88681611D01*
X121396000Y-83481611D02*
X123631000Y-83481611D01*
X119396000Y-83481611D02*
G75*
G03X121396000Y-83481611I1000000J0D01*
G01*
G04 #@! TO.C,U9*
X117161000Y-77766611D02*
X119396000Y-77766611D01*
X117161000Y-82966611D02*
X117161000Y-77766611D01*
X123631000Y-82966611D02*
X117161000Y-82966611D01*
X123631000Y-77766611D02*
X123631000Y-82966611D01*
X121396000Y-77766611D02*
X123631000Y-77766611D01*
X119396000Y-77766611D02*
G75*
G03X121396000Y-77766611I1000000J0D01*
G01*
G04 #@! TO.C,U8*
X117161000Y-72051611D02*
X119396000Y-72051611D01*
X117161000Y-77251611D02*
X117161000Y-72051611D01*
X123631000Y-77251611D02*
X117161000Y-77251611D01*
X123631000Y-72051611D02*
X123631000Y-77251611D01*
X121396000Y-72051611D02*
X123631000Y-72051611D01*
X119396000Y-72051611D02*
G75*
G03X121396000Y-72051611I1000000J0D01*
G01*
G04 #@! TO.C,U7*
X117161000Y-117263611D02*
X119396000Y-117263611D01*
X117161000Y-122463611D02*
X117161000Y-117263611D01*
X123631000Y-122463611D02*
X117161000Y-122463611D01*
X123631000Y-117263611D02*
X123631000Y-122463611D01*
X121396000Y-117263611D02*
X123631000Y-117263611D01*
X119396000Y-117263611D02*
G75*
G03X121396000Y-117263611I1000000J0D01*
G01*
G04 #@! TO.C,U6*
X117161000Y-66361000D02*
X119396000Y-66361000D01*
X117161000Y-71561000D02*
X117161000Y-66361000D01*
X123631000Y-71561000D02*
X117161000Y-71561000D01*
X123631000Y-66361000D02*
X123631000Y-71561000D01*
X121396000Y-66361000D02*
X123631000Y-66361000D01*
X119396000Y-66361000D02*
G75*
G03X121396000Y-66361000I1000000J0D01*
G01*
G04 #@! TO.C,U5*
X123631000Y-114208611D02*
X121396000Y-114208611D01*
X123631000Y-109008611D02*
X123631000Y-114208611D01*
X117161000Y-109008611D02*
X123631000Y-109008611D01*
X117161000Y-114208611D02*
X117161000Y-109008611D01*
X119396000Y-114208611D02*
X117161000Y-114208611D01*
X121396000Y-114208611D02*
G75*
G03X119396000Y-114208611I-1000000J0D01*
G01*
G04 #@! TO.C,U4*
X123631000Y-105826611D02*
X121396000Y-105826611D01*
X123631000Y-100626611D02*
X123631000Y-105826611D01*
X117161000Y-100626611D02*
X123631000Y-100626611D01*
X117161000Y-105826611D02*
X117161000Y-100626611D01*
X119396000Y-105826611D02*
X117161000Y-105826611D01*
X121396000Y-105826611D02*
G75*
G03X119396000Y-105826611I-1000000J0D01*
G01*
G04 #@! TO.C,U3*
X116335500Y-134877500D02*
X118570500Y-134877500D01*
X116335500Y-140077500D02*
X116335500Y-134877500D01*
X122805500Y-140077500D02*
X116335500Y-140077500D01*
X122805500Y-134877500D02*
X122805500Y-140077500D01*
X120570500Y-134877500D02*
X122805500Y-134877500D01*
X118570500Y-134877500D02*
G75*
G03X120570500Y-134877500I1000000J0D01*
G01*
G04 #@! TO.C,U2*
X116399000Y-141291000D02*
X118634000Y-141291000D01*
X116399000Y-146491000D02*
X116399000Y-141291000D01*
X122869000Y-146491000D02*
X116399000Y-146491000D01*
X122869000Y-141291000D02*
X122869000Y-146491000D01*
X120634000Y-141291000D02*
X122869000Y-141291000D01*
X118634000Y-141291000D02*
G75*
G03X120634000Y-141291000I1000000J0D01*
G01*
G04 #@! TO.C,U1*
X122805500Y-169414500D02*
X120570500Y-169414500D01*
X122805500Y-164214500D02*
X122805500Y-169414500D01*
X116335500Y-164214500D02*
X122805500Y-164214500D01*
X116335500Y-169414500D02*
X116335500Y-164214500D01*
X118570500Y-169414500D02*
X116335500Y-169414500D01*
X120570500Y-169414500D02*
G75*
G03X118570500Y-169414500I-1000000J0D01*
G01*
G04 #@! TO.C,U15*
X119577000Y-52878548D02*
X118477000Y-52878548D01*
X119577000Y-52608548D02*
X119577000Y-52878548D01*
X121077000Y-52608548D02*
X119577000Y-52608548D01*
X119577000Y-59238548D02*
X116747000Y-59238548D01*
X119577000Y-59508548D02*
X119577000Y-59238548D01*
X121077000Y-59508548D02*
X119577000Y-59508548D01*
G04 #@! TO.C,R15*
X128683936Y-141711000D02*
X129888064Y-141711000D01*
X128683936Y-143531000D02*
X129888064Y-143531000D01*
G04 #@! TO.C,R14*
X128683936Y-146283000D02*
X129888064Y-146283000D01*
X128683936Y-148103000D02*
X129888064Y-148103000D01*
G04 #@! TO.C,R13*
X128683936Y-135488000D02*
X129888064Y-135488000D01*
X128683936Y-137308000D02*
X129888064Y-137308000D01*
G04 #@! TO.C,R11*
X128683936Y-117581000D02*
X129888064Y-117581000D01*
X128683936Y-119401000D02*
X129888064Y-119401000D01*
G04 #@! TO.C,R10*
X149839000Y-112071564D02*
X149839000Y-110867436D01*
X151659000Y-112071564D02*
X151659000Y-110867436D01*
G04 #@! TO.C,R9*
X134087272Y-93194002D02*
X135291400Y-93194002D01*
X134087272Y-95014002D02*
X135291400Y-95014002D01*
G04 #@! TO.C,R8*
X134087272Y-90654002D02*
X135291400Y-90654002D01*
X134087272Y-92474002D02*
X135291400Y-92474002D01*
G04 #@! TO.C,R7*
X134087272Y-88114002D02*
X135291400Y-88114002D01*
X134087272Y-89934002D02*
X135291400Y-89934002D01*
G04 #@! TO.C,R6*
X134087272Y-85574002D02*
X135291400Y-85574002D01*
X134087272Y-87394002D02*
X135291400Y-87394002D01*
G04 #@! TO.C,R5*
X134087272Y-83034002D02*
X135291400Y-83034002D01*
X134087272Y-84854002D02*
X135291400Y-84854002D01*
G04 #@! TO.C,R4*
X114648064Y-130958000D02*
X113443936Y-130958000D01*
X114648064Y-129138000D02*
X113443936Y-129138000D01*
G04 #@! TO.C,R3*
X111219064Y-113813000D02*
X110014936Y-113813000D01*
X111219064Y-111993000D02*
X110014936Y-111993000D01*
G04 #@! TO.C,R2*
X111346064Y-108098000D02*
X110141936Y-108098000D01*
X111346064Y-106278000D02*
X110141936Y-106278000D01*
G04 #@! TO.C,C3*
X149384936Y-74655000D02*
X150589064Y-74655000D01*
X149384936Y-76475000D02*
X150589064Y-76475000D01*
G04 #@! TO.C,C2*
X115845000Y-55456484D02*
X115845000Y-56660612D01*
X114025000Y-55456484D02*
X114025000Y-56660612D01*
G04 #@! TO.C,C1*
X116934064Y-64410000D02*
X115729936Y-64410000D01*
X116934064Y-62590000D02*
X115729936Y-62590000D01*
G04 #@! TO.C,R1*
X134144936Y-82211391D02*
X135349064Y-82211391D01*
X134144936Y-80391391D02*
X135349064Y-80391391D01*
G04 #@! TD*
G04 #@! TO.C,R27*
D11*
X96154761Y-161274285D02*
X95202380Y-160607619D01*
X96154761Y-160131428D02*
X94154761Y-160131428D01*
X94154761Y-160893333D01*
X94250000Y-161083809D01*
X94345238Y-161179047D01*
X94535714Y-161274285D01*
X94821428Y-161274285D01*
X95011904Y-161179047D01*
X95107142Y-161083809D01*
X95202380Y-160893333D01*
X95202380Y-160131428D01*
X94345238Y-162036190D02*
X94250000Y-162131428D01*
X94154761Y-162321904D01*
X94154761Y-162798095D01*
X94250000Y-162988571D01*
X94345238Y-163083809D01*
X94535714Y-163179047D01*
X94726190Y-163179047D01*
X95011904Y-163083809D01*
X96154761Y-161940952D01*
X96154761Y-163179047D01*
X94154761Y-163845714D02*
X94154761Y-165179047D01*
X96154761Y-164321904D01*
G04 #@! TO.C,C6*
X157984000Y-78851009D02*
X158055428Y-78922437D01*
X158269714Y-78993866D01*
X158412571Y-78993866D01*
X158626857Y-78922437D01*
X158769714Y-78779580D01*
X158841142Y-78636723D01*
X158912571Y-78351009D01*
X158912571Y-78136723D01*
X158841142Y-77851009D01*
X158769714Y-77708152D01*
X158626857Y-77565295D01*
X158412571Y-77493866D01*
X158269714Y-77493866D01*
X158055428Y-77565295D01*
X157984000Y-77636723D01*
X156698285Y-77493866D02*
X156984000Y-77493866D01*
X157126857Y-77565295D01*
X157198285Y-77636723D01*
X157341142Y-77851009D01*
X157412571Y-78136723D01*
X157412571Y-78708152D01*
X157341142Y-78851009D01*
X157269714Y-78922437D01*
X157126857Y-78993866D01*
X156841142Y-78993866D01*
X156698285Y-78922437D01*
X156626857Y-78851009D01*
X156555428Y-78708152D01*
X156555428Y-78351009D01*
X156626857Y-78208152D01*
X156698285Y-78136723D01*
X156841142Y-78065295D01*
X157126857Y-78065295D01*
X157269714Y-78136723D01*
X157341142Y-78208152D01*
X157412571Y-78351009D01*
G04 #@! TO.C,C5*
X112745714Y-51560000D02*
X112817142Y-51488571D01*
X112888571Y-51274285D01*
X112888571Y-51131428D01*
X112817142Y-50917142D01*
X112674285Y-50774285D01*
X112531428Y-50702857D01*
X112245714Y-50631428D01*
X112031428Y-50631428D01*
X111745714Y-50702857D01*
X111602857Y-50774285D01*
X111460000Y-50917142D01*
X111388571Y-51131428D01*
X111388571Y-51274285D01*
X111460000Y-51488571D01*
X111531428Y-51560000D01*
X111388571Y-52917142D02*
X111388571Y-52202857D01*
X112102857Y-52131428D01*
X112031428Y-52202857D01*
X111960000Y-52345714D01*
X111960000Y-52702857D01*
X112031428Y-52845714D01*
X112102857Y-52917142D01*
X112245714Y-52988571D01*
X112602857Y-52988571D01*
X112745714Y-52917142D01*
X112817142Y-52845714D01*
X112888571Y-52702857D01*
X112888571Y-52345714D01*
X112817142Y-52202857D01*
X112745714Y-52131428D01*
G04 #@! TO.C,R26*
X159206285Y-85768571D02*
X159706285Y-85054285D01*
X160063428Y-85768571D02*
X160063428Y-84268571D01*
X159492000Y-84268571D01*
X159349142Y-84340000D01*
X159277714Y-84411428D01*
X159206285Y-84554285D01*
X159206285Y-84768571D01*
X159277714Y-84911428D01*
X159349142Y-84982857D01*
X159492000Y-85054285D01*
X160063428Y-85054285D01*
X158634857Y-84411428D02*
X158563428Y-84340000D01*
X158420571Y-84268571D01*
X158063428Y-84268571D01*
X157920571Y-84340000D01*
X157849142Y-84411428D01*
X157777714Y-84554285D01*
X157777714Y-84697142D01*
X157849142Y-84911428D01*
X158706285Y-85768571D01*
X157777714Y-85768571D01*
X156492000Y-84268571D02*
X156777714Y-84268571D01*
X156920571Y-84340000D01*
X156992000Y-84411428D01*
X157134857Y-84625714D01*
X157206285Y-84911428D01*
X157206285Y-85482857D01*
X157134857Y-85625714D01*
X157063428Y-85697142D01*
X156920571Y-85768571D01*
X156634857Y-85768571D01*
X156492000Y-85697142D01*
X156420571Y-85625714D01*
X156349142Y-85482857D01*
X156349142Y-85125714D01*
X156420571Y-84982857D01*
X156492000Y-84911428D01*
X156634857Y-84840000D01*
X156920571Y-84840000D01*
X157063428Y-84911428D01*
X157134857Y-84982857D01*
X157206285Y-85125714D01*
G04 #@! TO.C,R25*
X149734285Y-105268571D02*
X150234285Y-104554285D01*
X150591428Y-105268571D02*
X150591428Y-103768571D01*
X150020000Y-103768571D01*
X149877142Y-103840000D01*
X149805714Y-103911428D01*
X149734285Y-104054285D01*
X149734285Y-104268571D01*
X149805714Y-104411428D01*
X149877142Y-104482857D01*
X150020000Y-104554285D01*
X150591428Y-104554285D01*
X149162857Y-103911428D02*
X149091428Y-103840000D01*
X148948571Y-103768571D01*
X148591428Y-103768571D01*
X148448571Y-103840000D01*
X148377142Y-103911428D01*
X148305714Y-104054285D01*
X148305714Y-104197142D01*
X148377142Y-104411428D01*
X149234285Y-105268571D01*
X148305714Y-105268571D01*
X146948571Y-103768571D02*
X147662857Y-103768571D01*
X147734285Y-104482857D01*
X147662857Y-104411428D01*
X147520000Y-104340000D01*
X147162857Y-104340000D01*
X147020000Y-104411428D01*
X146948571Y-104482857D01*
X146877142Y-104625714D01*
X146877142Y-104982857D01*
X146948571Y-105125714D01*
X147020000Y-105197142D01*
X147162857Y-105268571D01*
X147520000Y-105268571D01*
X147662857Y-105197142D01*
X147734285Y-105125714D01*
G04 #@! TO.C,R24*
X149664285Y-102358571D02*
X150164285Y-101644285D01*
X150521428Y-102358571D02*
X150521428Y-100858571D01*
X149950000Y-100858571D01*
X149807142Y-100930000D01*
X149735714Y-101001428D01*
X149664285Y-101144285D01*
X149664285Y-101358571D01*
X149735714Y-101501428D01*
X149807142Y-101572857D01*
X149950000Y-101644285D01*
X150521428Y-101644285D01*
X149092857Y-101001428D02*
X149021428Y-100930000D01*
X148878571Y-100858571D01*
X148521428Y-100858571D01*
X148378571Y-100930000D01*
X148307142Y-101001428D01*
X148235714Y-101144285D01*
X148235714Y-101287142D01*
X148307142Y-101501428D01*
X149164285Y-102358571D01*
X148235714Y-102358571D01*
X146950000Y-101358571D02*
X146950000Y-102358571D01*
X147307142Y-100787142D02*
X147664285Y-101858571D01*
X146735714Y-101858571D01*
G04 #@! TO.C,R23*
X149474285Y-99678571D02*
X149974285Y-98964285D01*
X150331428Y-99678571D02*
X150331428Y-98178571D01*
X149760000Y-98178571D01*
X149617142Y-98250000D01*
X149545714Y-98321428D01*
X149474285Y-98464285D01*
X149474285Y-98678571D01*
X149545714Y-98821428D01*
X149617142Y-98892857D01*
X149760000Y-98964285D01*
X150331428Y-98964285D01*
X148902857Y-98321428D02*
X148831428Y-98250000D01*
X148688571Y-98178571D01*
X148331428Y-98178571D01*
X148188571Y-98250000D01*
X148117142Y-98321428D01*
X148045714Y-98464285D01*
X148045714Y-98607142D01*
X148117142Y-98821428D01*
X148974285Y-99678571D01*
X148045714Y-99678571D01*
X147545714Y-98178571D02*
X146617142Y-98178571D01*
X147117142Y-98750000D01*
X146902857Y-98750000D01*
X146760000Y-98821428D01*
X146688571Y-98892857D01*
X146617142Y-99035714D01*
X146617142Y-99392857D01*
X146688571Y-99535714D01*
X146760000Y-99607142D01*
X146902857Y-99678571D01*
X147331428Y-99678571D01*
X147474285Y-99607142D01*
X147545714Y-99535714D01*
G04 #@! TO.C,U16*
X120094142Y-145482571D02*
X120094142Y-146696857D01*
X120022714Y-146839714D01*
X119951285Y-146911142D01*
X119808428Y-146982571D01*
X119522714Y-146982571D01*
X119379857Y-146911142D01*
X119308428Y-146839714D01*
X119237000Y-146696857D01*
X119237000Y-145482571D01*
X117737000Y-146982571D02*
X118594142Y-146982571D01*
X118165571Y-146982571D02*
X118165571Y-145482571D01*
X118308428Y-145696857D01*
X118451285Y-145839714D01*
X118594142Y-145911142D01*
X116451285Y-145482571D02*
X116737000Y-145482571D01*
X116879857Y-145554000D01*
X116951285Y-145625428D01*
X117094142Y-145839714D01*
X117165571Y-146125428D01*
X117165571Y-146696857D01*
X117094142Y-146839714D01*
X117022714Y-146911142D01*
X116879857Y-146982571D01*
X116594142Y-146982571D01*
X116451285Y-146911142D01*
X116379857Y-146839714D01*
X116308428Y-146696857D01*
X116308428Y-146339714D01*
X116379857Y-146196857D01*
X116451285Y-146125428D01*
X116594142Y-146054000D01*
X116879857Y-146054000D01*
X117022714Y-146125428D01*
X117094142Y-146196857D01*
X117165571Y-146339714D01*
G04 #@! TO.C,R22*
X115504285Y-154588571D02*
X116004285Y-153874285D01*
X116361428Y-154588571D02*
X116361428Y-153088571D01*
X115790000Y-153088571D01*
X115647142Y-153160000D01*
X115575714Y-153231428D01*
X115504285Y-153374285D01*
X115504285Y-153588571D01*
X115575714Y-153731428D01*
X115647142Y-153802857D01*
X115790000Y-153874285D01*
X116361428Y-153874285D01*
X114932857Y-153231428D02*
X114861428Y-153160000D01*
X114718571Y-153088571D01*
X114361428Y-153088571D01*
X114218571Y-153160000D01*
X114147142Y-153231428D01*
X114075714Y-153374285D01*
X114075714Y-153517142D01*
X114147142Y-153731428D01*
X115004285Y-154588571D01*
X114075714Y-154588571D01*
X113504285Y-153231428D02*
X113432857Y-153160000D01*
X113290000Y-153088571D01*
X112932857Y-153088571D01*
X112790000Y-153160000D01*
X112718571Y-153231428D01*
X112647142Y-153374285D01*
X112647142Y-153517142D01*
X112718571Y-153731428D01*
X113575714Y-154588571D01*
X112647142Y-154588571D01*
G04 #@! TO.C,R21*
X158952285Y-82720571D02*
X159452285Y-82006285D01*
X159809428Y-82720571D02*
X159809428Y-81220571D01*
X159238000Y-81220571D01*
X159095142Y-81292000D01*
X159023714Y-81363428D01*
X158952285Y-81506285D01*
X158952285Y-81720571D01*
X159023714Y-81863428D01*
X159095142Y-81934857D01*
X159238000Y-82006285D01*
X159809428Y-82006285D01*
X158380857Y-81363428D02*
X158309428Y-81292000D01*
X158166571Y-81220571D01*
X157809428Y-81220571D01*
X157666571Y-81292000D01*
X157595142Y-81363428D01*
X157523714Y-81506285D01*
X157523714Y-81649142D01*
X157595142Y-81863428D01*
X158452285Y-82720571D01*
X157523714Y-82720571D01*
X156095142Y-82720571D02*
X156952285Y-82720571D01*
X156523714Y-82720571D02*
X156523714Y-81220571D01*
X156666571Y-81434857D01*
X156809428Y-81577714D01*
X156952285Y-81649142D01*
X147145142Y-81236428D02*
X147073714Y-81165000D01*
X146930857Y-81093571D01*
X146573714Y-81093571D01*
X146430857Y-81165000D01*
X146359428Y-81236428D01*
X146288000Y-81379285D01*
X146288000Y-81522142D01*
X146359428Y-81736428D01*
X147216571Y-82593571D01*
X146288000Y-82593571D01*
X145716571Y-81236428D02*
X145645142Y-81165000D01*
X145502285Y-81093571D01*
X145145142Y-81093571D01*
X145002285Y-81165000D01*
X144930857Y-81236428D01*
X144859428Y-81379285D01*
X144859428Y-81522142D01*
X144930857Y-81736428D01*
X145788000Y-82593571D01*
X144859428Y-82593571D01*
X143930857Y-81093571D02*
X143788000Y-81093571D01*
X143645142Y-81165000D01*
X143573714Y-81236428D01*
X143502285Y-81379285D01*
X143430857Y-81665000D01*
X143430857Y-82022142D01*
X143502285Y-82307857D01*
X143573714Y-82450714D01*
X143645142Y-82522142D01*
X143788000Y-82593571D01*
X143930857Y-82593571D01*
X144073714Y-82522142D01*
X144145142Y-82450714D01*
X144216571Y-82307857D01*
X144288000Y-82022142D01*
X144288000Y-81665000D01*
X144216571Y-81379285D01*
X144145142Y-81236428D01*
X144073714Y-81165000D01*
X143930857Y-81093571D01*
G04 #@! TO.C,R20*
X112384285Y-61578571D02*
X112884285Y-60864285D01*
X113241428Y-61578571D02*
X113241428Y-60078571D01*
X112670000Y-60078571D01*
X112527142Y-60150000D01*
X112455714Y-60221428D01*
X112384285Y-60364285D01*
X112384285Y-60578571D01*
X112455714Y-60721428D01*
X112527142Y-60792857D01*
X112670000Y-60864285D01*
X113241428Y-60864285D01*
X111812857Y-60221428D02*
X111741428Y-60150000D01*
X111598571Y-60078571D01*
X111241428Y-60078571D01*
X111098571Y-60150000D01*
X111027142Y-60221428D01*
X110955714Y-60364285D01*
X110955714Y-60507142D01*
X111027142Y-60721428D01*
X111884285Y-61578571D01*
X110955714Y-61578571D01*
X110027142Y-60078571D02*
X109884285Y-60078571D01*
X109741428Y-60150000D01*
X109670000Y-60221428D01*
X109598571Y-60364285D01*
X109527142Y-60650000D01*
X109527142Y-61007142D01*
X109598571Y-61292857D01*
X109670000Y-61435714D01*
X109741428Y-61507142D01*
X109884285Y-61578571D01*
X110027142Y-61578571D01*
X110170000Y-61507142D01*
X110241428Y-61435714D01*
X110312857Y-61292857D01*
X110384285Y-61007142D01*
X110384285Y-60650000D01*
X110312857Y-60364285D01*
X110241428Y-60221428D01*
X110170000Y-60150000D01*
X110027142Y-60078571D01*
X120451428Y-60168571D02*
X120308571Y-60168571D01*
X120165714Y-60240000D01*
X120094285Y-60311428D01*
X120022857Y-60454285D01*
X119951428Y-60740000D01*
X119951428Y-61097142D01*
X120022857Y-61382857D01*
X120094285Y-61525714D01*
X120165714Y-61597142D01*
X120308571Y-61668571D01*
X120451428Y-61668571D01*
X120594285Y-61597142D01*
X120665714Y-61525714D01*
X120737142Y-61382857D01*
X120808571Y-61097142D01*
X120808571Y-60740000D01*
X120737142Y-60454285D01*
X120665714Y-60311428D01*
X120594285Y-60240000D01*
X120451428Y-60168571D01*
G04 #@! TO.C,R19*
X113581571Y-79553714D02*
X112867285Y-79053714D01*
X113581571Y-78696571D02*
X112081571Y-78696571D01*
X112081571Y-79268000D01*
X112153000Y-79410857D01*
X112224428Y-79482285D01*
X112367285Y-79553714D01*
X112581571Y-79553714D01*
X112724428Y-79482285D01*
X112795857Y-79410857D01*
X112867285Y-79268000D01*
X112867285Y-78696571D01*
X113581571Y-80982285D02*
X113581571Y-80125142D01*
X113581571Y-80553714D02*
X112081571Y-80553714D01*
X112295857Y-80410857D01*
X112438714Y-80268000D01*
X112510142Y-80125142D01*
X113581571Y-81696571D02*
X113581571Y-81982285D01*
X113510142Y-82125142D01*
X113438714Y-82196571D01*
X113224428Y-82339428D01*
X112938714Y-82410857D01*
X112367285Y-82410857D01*
X112224428Y-82339428D01*
X112153000Y-82268000D01*
X112081571Y-82125142D01*
X112081571Y-81839428D01*
X112153000Y-81696571D01*
X112224428Y-81625142D01*
X112367285Y-81553714D01*
X112724428Y-81553714D01*
X112867285Y-81625142D01*
X112938714Y-81696571D01*
X113010142Y-81839428D01*
X113010142Y-82125142D01*
X112938714Y-82268000D01*
X112867285Y-82339428D01*
X112724428Y-82410857D01*
X111954571Y-89717571D02*
X111954571Y-89860428D01*
X112026000Y-90003285D01*
X112097428Y-90074714D01*
X112240285Y-90146142D01*
X112526000Y-90217571D01*
X112883142Y-90217571D01*
X113168857Y-90146142D01*
X113311714Y-90074714D01*
X113383142Y-90003285D01*
X113454571Y-89860428D01*
X113454571Y-89717571D01*
X113383142Y-89574714D01*
X113311714Y-89503285D01*
X113168857Y-89431857D01*
X112883142Y-89360428D01*
X112526000Y-89360428D01*
X112240285Y-89431857D01*
X112097428Y-89503285D01*
X112026000Y-89574714D01*
X111954571Y-89717571D01*
G04 #@! TO.C,R18*
X86774285Y-125528571D02*
X87274285Y-124814285D01*
X87631428Y-125528571D02*
X87631428Y-124028571D01*
X87060000Y-124028571D01*
X86917142Y-124100000D01*
X86845714Y-124171428D01*
X86774285Y-124314285D01*
X86774285Y-124528571D01*
X86845714Y-124671428D01*
X86917142Y-124742857D01*
X87060000Y-124814285D01*
X87631428Y-124814285D01*
X85345714Y-125528571D02*
X86202857Y-125528571D01*
X85774285Y-125528571D02*
X85774285Y-124028571D01*
X85917142Y-124242857D01*
X86060000Y-124385714D01*
X86202857Y-124457142D01*
X84488571Y-124671428D02*
X84631428Y-124600000D01*
X84702857Y-124528571D01*
X84774285Y-124385714D01*
X84774285Y-124314285D01*
X84702857Y-124171428D01*
X84631428Y-124100000D01*
X84488571Y-124028571D01*
X84202857Y-124028571D01*
X84060000Y-124100000D01*
X83988571Y-124171428D01*
X83917142Y-124314285D01*
X83917142Y-124385714D01*
X83988571Y-124528571D01*
X84060000Y-124600000D01*
X84202857Y-124671428D01*
X84488571Y-124671428D01*
X84631428Y-124742857D01*
X84702857Y-124814285D01*
X84774285Y-124957142D01*
X84774285Y-125242857D01*
X84702857Y-125385714D01*
X84631428Y-125457142D01*
X84488571Y-125528571D01*
X84202857Y-125528571D01*
X84060000Y-125457142D01*
X83988571Y-125385714D01*
X83917142Y-125242857D01*
X83917142Y-124957142D01*
X83988571Y-124814285D01*
X84060000Y-124742857D01*
X84202857Y-124671428D01*
X86021428Y-128798571D02*
X85878571Y-128798571D01*
X85735714Y-128870000D01*
X85664285Y-128941428D01*
X85592857Y-129084285D01*
X85521428Y-129370000D01*
X85521428Y-129727142D01*
X85592857Y-130012857D01*
X85664285Y-130155714D01*
X85735714Y-130227142D01*
X85878571Y-130298571D01*
X86021428Y-130298571D01*
X86164285Y-130227142D01*
X86235714Y-130155714D01*
X86307142Y-130012857D01*
X86378571Y-129727142D01*
X86378571Y-129370000D01*
X86307142Y-129084285D01*
X86235714Y-128941428D01*
X86164285Y-128870000D01*
X86021428Y-128798571D01*
G04 #@! TO.C,R17*
X86684285Y-90848571D02*
X87184285Y-90134285D01*
X87541428Y-90848571D02*
X87541428Y-89348571D01*
X86970000Y-89348571D01*
X86827142Y-89420000D01*
X86755714Y-89491428D01*
X86684285Y-89634285D01*
X86684285Y-89848571D01*
X86755714Y-89991428D01*
X86827142Y-90062857D01*
X86970000Y-90134285D01*
X87541428Y-90134285D01*
X85255714Y-90848571D02*
X86112857Y-90848571D01*
X85684285Y-90848571D02*
X85684285Y-89348571D01*
X85827142Y-89562857D01*
X85970000Y-89705714D01*
X86112857Y-89777142D01*
X84755714Y-89348571D02*
X83755714Y-89348571D01*
X84398571Y-90848571D01*
X85841428Y-93808571D02*
X85698571Y-93808571D01*
X85555714Y-93880000D01*
X85484285Y-93951428D01*
X85412857Y-94094285D01*
X85341428Y-94380000D01*
X85341428Y-94737142D01*
X85412857Y-95022857D01*
X85484285Y-95165714D01*
X85555714Y-95237142D01*
X85698571Y-95308571D01*
X85841428Y-95308571D01*
X85984285Y-95237142D01*
X86055714Y-95165714D01*
X86127142Y-95022857D01*
X86198571Y-94737142D01*
X86198571Y-94380000D01*
X86127142Y-94094285D01*
X86055714Y-93951428D01*
X85984285Y-93880000D01*
X85841428Y-93808571D01*
G04 #@! TO.C,R16*
X86654285Y-57478571D02*
X87154285Y-56764285D01*
X87511428Y-57478571D02*
X87511428Y-55978571D01*
X86940000Y-55978571D01*
X86797142Y-56050000D01*
X86725714Y-56121428D01*
X86654285Y-56264285D01*
X86654285Y-56478571D01*
X86725714Y-56621428D01*
X86797142Y-56692857D01*
X86940000Y-56764285D01*
X87511428Y-56764285D01*
X85225714Y-57478571D02*
X86082857Y-57478571D01*
X85654285Y-57478571D02*
X85654285Y-55978571D01*
X85797142Y-56192857D01*
X85940000Y-56335714D01*
X86082857Y-56407142D01*
X83940000Y-55978571D02*
X84225714Y-55978571D01*
X84368571Y-56050000D01*
X84440000Y-56121428D01*
X84582857Y-56335714D01*
X84654285Y-56621428D01*
X84654285Y-57192857D01*
X84582857Y-57335714D01*
X84511428Y-57407142D01*
X84368571Y-57478571D01*
X84082857Y-57478571D01*
X83940000Y-57407142D01*
X83868571Y-57335714D01*
X83797142Y-57192857D01*
X83797142Y-56835714D01*
X83868571Y-56692857D01*
X83940000Y-56621428D01*
X84082857Y-56550000D01*
X84368571Y-56550000D01*
X84511428Y-56621428D01*
X84582857Y-56692857D01*
X84654285Y-56835714D01*
X85901428Y-60718571D02*
X85758571Y-60718571D01*
X85615714Y-60790000D01*
X85544285Y-60861428D01*
X85472857Y-61004285D01*
X85401428Y-61290000D01*
X85401428Y-61647142D01*
X85472857Y-61932857D01*
X85544285Y-62075714D01*
X85615714Y-62147142D01*
X85758571Y-62218571D01*
X85901428Y-62218571D01*
X86044285Y-62147142D01*
X86115714Y-62075714D01*
X86187142Y-61932857D01*
X86258571Y-61647142D01*
X86258571Y-61290000D01*
X86187142Y-61004285D01*
X86115714Y-60861428D01*
X86044285Y-60790000D01*
X85901428Y-60718571D01*
G04 #@! TO.C,R12*
X130234285Y-153888571D02*
X130734285Y-153174285D01*
X131091428Y-153888571D02*
X131091428Y-152388571D01*
X130520000Y-152388571D01*
X130377142Y-152460000D01*
X130305714Y-152531428D01*
X130234285Y-152674285D01*
X130234285Y-152888571D01*
X130305714Y-153031428D01*
X130377142Y-153102857D01*
X130520000Y-153174285D01*
X131091428Y-153174285D01*
X128805714Y-153888571D02*
X129662857Y-153888571D01*
X129234285Y-153888571D02*
X129234285Y-152388571D01*
X129377142Y-152602857D01*
X129520000Y-152745714D01*
X129662857Y-152817142D01*
X128234285Y-152531428D02*
X128162857Y-152460000D01*
X128020000Y-152388571D01*
X127662857Y-152388571D01*
X127520000Y-152460000D01*
X127448571Y-152531428D01*
X127377142Y-152674285D01*
X127377142Y-152817142D01*
X127448571Y-153031428D01*
X128305714Y-153888571D01*
X127377142Y-153888571D01*
X136027142Y-150551428D02*
X135955714Y-150480000D01*
X135812857Y-150408571D01*
X135455714Y-150408571D01*
X135312857Y-150480000D01*
X135241428Y-150551428D01*
X135170000Y-150694285D01*
X135170000Y-150837142D01*
X135241428Y-151051428D01*
X136098571Y-151908571D01*
X135170000Y-151908571D01*
X134598571Y-150551428D02*
X134527142Y-150480000D01*
X134384285Y-150408571D01*
X134027142Y-150408571D01*
X133884285Y-150480000D01*
X133812857Y-150551428D01*
X133741428Y-150694285D01*
X133741428Y-150837142D01*
X133812857Y-151051428D01*
X134670000Y-151908571D01*
X133741428Y-151908571D01*
X132812857Y-150408571D02*
X132670000Y-150408571D01*
X132527142Y-150480000D01*
X132455714Y-150551428D01*
X132384285Y-150694285D01*
X132312857Y-150980000D01*
X132312857Y-151337142D01*
X132384285Y-151622857D01*
X132455714Y-151765714D01*
X132527142Y-151837142D01*
X132670000Y-151908571D01*
X132812857Y-151908571D01*
X132955714Y-151837142D01*
X133027142Y-151765714D01*
X133098571Y-151622857D01*
X133170000Y-151337142D01*
X133170000Y-150980000D01*
X133098571Y-150694285D01*
X133027142Y-150551428D01*
X132955714Y-150480000D01*
X132812857Y-150408571D01*
G04 #@! TO.C,U14*
X119935857Y-129853428D02*
X119935857Y-128639142D01*
X120007285Y-128496285D01*
X120078714Y-128424857D01*
X120221571Y-128353428D01*
X120507285Y-128353428D01*
X120650142Y-128424857D01*
X120721571Y-128496285D01*
X120793000Y-128639142D01*
X120793000Y-129853428D01*
X122293000Y-128353428D02*
X121435857Y-128353428D01*
X121864428Y-128353428D02*
X121864428Y-129853428D01*
X121721571Y-129639142D01*
X121578714Y-129496285D01*
X121435857Y-129424857D01*
X123578714Y-129353428D02*
X123578714Y-128353428D01*
X123221571Y-129924857D02*
X122864428Y-128853428D01*
X123793000Y-128853428D01*
G04 #@! TO.C,U13*
X119046857Y-162238428D02*
X119046857Y-161024142D01*
X119118285Y-160881285D01*
X119189714Y-160809857D01*
X119332571Y-160738428D01*
X119618285Y-160738428D01*
X119761142Y-160809857D01*
X119832571Y-160881285D01*
X119904000Y-161024142D01*
X119904000Y-162238428D01*
X121404000Y-160738428D02*
X120546857Y-160738428D01*
X120975428Y-160738428D02*
X120975428Y-162238428D01*
X120832571Y-162024142D01*
X120689714Y-161881285D01*
X120546857Y-161809857D01*
X121904000Y-162238428D02*
X122832571Y-162238428D01*
X122332571Y-161667000D01*
X122546857Y-161667000D01*
X122689714Y-161595571D01*
X122761142Y-161524142D01*
X122832571Y-161381285D01*
X122832571Y-161024142D01*
X122761142Y-160881285D01*
X122689714Y-160809857D01*
X122546857Y-160738428D01*
X122118285Y-160738428D01*
X121975428Y-160809857D01*
X121904000Y-160881285D01*
G04 #@! TO.C,U12*
X121110142Y-93285571D02*
X121110142Y-94499857D01*
X121038714Y-94642714D01*
X120967285Y-94714142D01*
X120824428Y-94785571D01*
X120538714Y-94785571D01*
X120395857Y-94714142D01*
X120324428Y-94642714D01*
X120253000Y-94499857D01*
X120253000Y-93285571D01*
X118753000Y-94785571D02*
X119610142Y-94785571D01*
X119181571Y-94785571D02*
X119181571Y-93285571D01*
X119324428Y-93499857D01*
X119467285Y-93642714D01*
X119610142Y-93714142D01*
X118181571Y-93428428D02*
X118110142Y-93357000D01*
X117967285Y-93285571D01*
X117610142Y-93285571D01*
X117467285Y-93357000D01*
X117395857Y-93428428D01*
X117324428Y-93571285D01*
X117324428Y-93714142D01*
X117395857Y-93928428D01*
X118253000Y-94785571D01*
X117324428Y-94785571D01*
G04 #@! TO.C,U11*
X120856142Y-87570571D02*
X120856142Y-88784857D01*
X120784714Y-88927714D01*
X120713285Y-88999142D01*
X120570428Y-89070571D01*
X120284714Y-89070571D01*
X120141857Y-88999142D01*
X120070428Y-88927714D01*
X119999000Y-88784857D01*
X119999000Y-87570571D01*
X118499000Y-89070571D02*
X119356142Y-89070571D01*
X118927571Y-89070571D02*
X118927571Y-87570571D01*
X119070428Y-87784857D01*
X119213285Y-87927714D01*
X119356142Y-87999142D01*
X117070428Y-89070571D02*
X117927571Y-89070571D01*
X117499000Y-89070571D02*
X117499000Y-87570571D01*
X117641857Y-87784857D01*
X117784714Y-87927714D01*
X117927571Y-87999142D01*
G04 #@! TO.C,U10*
X120856142Y-81855571D02*
X120856142Y-83069857D01*
X120784714Y-83212714D01*
X120713285Y-83284142D01*
X120570428Y-83355571D01*
X120284714Y-83355571D01*
X120141857Y-83284142D01*
X120070428Y-83212714D01*
X119999000Y-83069857D01*
X119999000Y-81855571D01*
X118499000Y-83355571D02*
X119356142Y-83355571D01*
X118927571Y-83355571D02*
X118927571Y-81855571D01*
X119070428Y-82069857D01*
X119213285Y-82212714D01*
X119356142Y-82284142D01*
X117570428Y-81855571D02*
X117427571Y-81855571D01*
X117284714Y-81927000D01*
X117213285Y-81998428D01*
X117141857Y-82141285D01*
X117070428Y-82427000D01*
X117070428Y-82784142D01*
X117141857Y-83069857D01*
X117213285Y-83212714D01*
X117284714Y-83284142D01*
X117427571Y-83355571D01*
X117570428Y-83355571D01*
X117713285Y-83284142D01*
X117784714Y-83212714D01*
X117856142Y-83069857D01*
X117927571Y-82784142D01*
X117927571Y-82427000D01*
X117856142Y-82141285D01*
X117784714Y-81998428D01*
X117713285Y-81927000D01*
X117570428Y-81855571D01*
G04 #@! TO.C,U9*
X119506857Y-76140571D02*
X119506857Y-77354857D01*
X119435428Y-77497714D01*
X119364000Y-77569142D01*
X119221142Y-77640571D01*
X118935428Y-77640571D01*
X118792571Y-77569142D01*
X118721142Y-77497714D01*
X118649714Y-77354857D01*
X118649714Y-76140571D01*
X117864000Y-77640571D02*
X117578285Y-77640571D01*
X117435428Y-77569142D01*
X117364000Y-77497714D01*
X117221142Y-77283428D01*
X117149714Y-76997714D01*
X117149714Y-76426285D01*
X117221142Y-76283428D01*
X117292571Y-76212000D01*
X117435428Y-76140571D01*
X117721142Y-76140571D01*
X117864000Y-76212000D01*
X117935428Y-76283428D01*
X118006857Y-76426285D01*
X118006857Y-76783428D01*
X117935428Y-76926285D01*
X117864000Y-76997714D01*
X117721142Y-77069142D01*
X117435428Y-77069142D01*
X117292571Y-76997714D01*
X117221142Y-76926285D01*
X117149714Y-76783428D01*
G04 #@! TO.C,U8*
X119506857Y-70425571D02*
X119506857Y-71639857D01*
X119435428Y-71782714D01*
X119364000Y-71854142D01*
X119221142Y-71925571D01*
X118935428Y-71925571D01*
X118792571Y-71854142D01*
X118721142Y-71782714D01*
X118649714Y-71639857D01*
X118649714Y-70425571D01*
X117721142Y-71068428D02*
X117864000Y-70997000D01*
X117935428Y-70925571D01*
X118006857Y-70782714D01*
X118006857Y-70711285D01*
X117935428Y-70568428D01*
X117864000Y-70497000D01*
X117721142Y-70425571D01*
X117435428Y-70425571D01*
X117292571Y-70497000D01*
X117221142Y-70568428D01*
X117149714Y-70711285D01*
X117149714Y-70782714D01*
X117221142Y-70925571D01*
X117292571Y-70997000D01*
X117435428Y-71068428D01*
X117721142Y-71068428D01*
X117864000Y-71139857D01*
X117935428Y-71211285D01*
X118006857Y-71354142D01*
X118006857Y-71639857D01*
X117935428Y-71782714D01*
X117864000Y-71854142D01*
X117721142Y-71925571D01*
X117435428Y-71925571D01*
X117292571Y-71854142D01*
X117221142Y-71782714D01*
X117149714Y-71639857D01*
X117149714Y-71354142D01*
X117221142Y-71211285D01*
X117292571Y-71139857D01*
X117435428Y-71068428D01*
G04 #@! TO.C,U7*
X119379857Y-115637571D02*
X119379857Y-116851857D01*
X119308428Y-116994714D01*
X119237000Y-117066142D01*
X119094142Y-117137571D01*
X118808428Y-117137571D01*
X118665571Y-117066142D01*
X118594142Y-116994714D01*
X118522714Y-116851857D01*
X118522714Y-115637571D01*
X117951285Y-115637571D02*
X116951285Y-115637571D01*
X117594142Y-117137571D01*
G04 #@! TO.C,U6*
X119379857Y-64710571D02*
X119379857Y-65924857D01*
X119308428Y-66067714D01*
X119237000Y-66139142D01*
X119094142Y-66210571D01*
X118808428Y-66210571D01*
X118665571Y-66139142D01*
X118594142Y-66067714D01*
X118522714Y-65924857D01*
X118522714Y-64710571D01*
X117165571Y-64710571D02*
X117451285Y-64710571D01*
X117594142Y-64782000D01*
X117665571Y-64853428D01*
X117808428Y-65067714D01*
X117879857Y-65353428D01*
X117879857Y-65924857D01*
X117808428Y-66067714D01*
X117737000Y-66139142D01*
X117594142Y-66210571D01*
X117308428Y-66210571D01*
X117165571Y-66139142D01*
X117094142Y-66067714D01*
X117022714Y-65924857D01*
X117022714Y-65567714D01*
X117094142Y-65424857D01*
X117165571Y-65353428D01*
X117308428Y-65282000D01*
X117594142Y-65282000D01*
X117737000Y-65353428D01*
X117808428Y-65424857D01*
X117879857Y-65567714D01*
G04 #@! TO.C,U5*
X121285142Y-115883428D02*
X121285142Y-114669142D01*
X121356571Y-114526285D01*
X121428000Y-114454857D01*
X121570857Y-114383428D01*
X121856571Y-114383428D01*
X121999428Y-114454857D01*
X122070857Y-114526285D01*
X122142285Y-114669142D01*
X122142285Y-115883428D01*
X123570857Y-115883428D02*
X122856571Y-115883428D01*
X122785142Y-115169142D01*
X122856571Y-115240571D01*
X122999428Y-115312000D01*
X123356571Y-115312000D01*
X123499428Y-115240571D01*
X123570857Y-115169142D01*
X123642285Y-115026285D01*
X123642285Y-114669142D01*
X123570857Y-114526285D01*
X123499428Y-114454857D01*
X123356571Y-114383428D01*
X122999428Y-114383428D01*
X122856571Y-114454857D01*
X122785142Y-114526285D01*
G04 #@! TO.C,U4*
X121285142Y-107501428D02*
X121285142Y-106287142D01*
X121356571Y-106144285D01*
X121428000Y-106072857D01*
X121570857Y-106001428D01*
X121856571Y-106001428D01*
X121999428Y-106072857D01*
X122070857Y-106144285D01*
X122142285Y-106287142D01*
X122142285Y-107501428D01*
X123499428Y-107001428D02*
X123499428Y-106001428D01*
X123142285Y-107572857D02*
X122785142Y-106501428D01*
X123713714Y-106501428D01*
G04 #@! TO.C,U3*
X118744857Y-133163571D02*
X118744857Y-134377857D01*
X118673428Y-134520714D01*
X118602000Y-134592142D01*
X118459142Y-134663571D01*
X118173428Y-134663571D01*
X118030571Y-134592142D01*
X117959142Y-134520714D01*
X117887714Y-134377857D01*
X117887714Y-133163571D01*
X117316285Y-133163571D02*
X116387714Y-133163571D01*
X116887714Y-133735000D01*
X116673428Y-133735000D01*
X116530571Y-133806428D01*
X116459142Y-133877857D01*
X116387714Y-134020714D01*
X116387714Y-134377857D01*
X116459142Y-134520714D01*
X116530571Y-134592142D01*
X116673428Y-134663571D01*
X117102000Y-134663571D01*
X117244857Y-134592142D01*
X117316285Y-134520714D01*
G04 #@! TO.C,U2*
X118744857Y-139640571D02*
X118744857Y-140854857D01*
X118673428Y-140997714D01*
X118602000Y-141069142D01*
X118459142Y-141140571D01*
X118173428Y-141140571D01*
X118030571Y-141069142D01*
X117959142Y-140997714D01*
X117887714Y-140854857D01*
X117887714Y-139640571D01*
X117244857Y-139783428D02*
X117173428Y-139712000D01*
X117030571Y-139640571D01*
X116673428Y-139640571D01*
X116530571Y-139712000D01*
X116459142Y-139783428D01*
X116387714Y-139926285D01*
X116387714Y-140069142D01*
X116459142Y-140283428D01*
X117316285Y-141140571D01*
X116387714Y-141140571D01*
G04 #@! TO.C,U1*
X120396142Y-171128428D02*
X120396142Y-169914142D01*
X120467571Y-169771285D01*
X120539000Y-169699857D01*
X120681857Y-169628428D01*
X120967571Y-169628428D01*
X121110428Y-169699857D01*
X121181857Y-169771285D01*
X121253285Y-169914142D01*
X121253285Y-171128428D01*
X122753285Y-169628428D02*
X121896142Y-169628428D01*
X122324714Y-169628428D02*
X122324714Y-171128428D01*
X122181857Y-170914142D01*
X122039000Y-170771285D01*
X121896142Y-170699857D01*
G04 #@! TO.C,U15*
X128078571Y-54292857D02*
X129292857Y-54292857D01*
X129435714Y-54364285D01*
X129507142Y-54435714D01*
X129578571Y-54578571D01*
X129578571Y-54864285D01*
X129507142Y-55007142D01*
X129435714Y-55078571D01*
X129292857Y-55150000D01*
X128078571Y-55150000D01*
X129578571Y-56650000D02*
X129578571Y-55792857D01*
X129578571Y-56221428D02*
X128078571Y-56221428D01*
X128292857Y-56078571D01*
X128435714Y-55935714D01*
X128507142Y-55792857D01*
X128078571Y-58007142D02*
X128078571Y-57292857D01*
X128792857Y-57221428D01*
X128721428Y-57292857D01*
X128650000Y-57435714D01*
X128650000Y-57792857D01*
X128721428Y-57935714D01*
X128792857Y-58007142D01*
X128935714Y-58078571D01*
X129292857Y-58078571D01*
X129435714Y-58007142D01*
X129507142Y-57935714D01*
X129578571Y-57792857D01*
X129578571Y-57435714D01*
X129507142Y-57292857D01*
X129435714Y-57221428D01*
G04 #@! TO.C,R15*
X130314285Y-145518571D02*
X130814285Y-144804285D01*
X131171428Y-145518571D02*
X131171428Y-144018571D01*
X130600000Y-144018571D01*
X130457142Y-144090000D01*
X130385714Y-144161428D01*
X130314285Y-144304285D01*
X130314285Y-144518571D01*
X130385714Y-144661428D01*
X130457142Y-144732857D01*
X130600000Y-144804285D01*
X131171428Y-144804285D01*
X128885714Y-145518571D02*
X129742857Y-145518571D01*
X129314285Y-145518571D02*
X129314285Y-144018571D01*
X129457142Y-144232857D01*
X129600000Y-144375714D01*
X129742857Y-144447142D01*
X127528571Y-144018571D02*
X128242857Y-144018571D01*
X128314285Y-144732857D01*
X128242857Y-144661428D01*
X128100000Y-144590000D01*
X127742857Y-144590000D01*
X127600000Y-144661428D01*
X127528571Y-144732857D01*
X127457142Y-144875714D01*
X127457142Y-145232857D01*
X127528571Y-145375714D01*
X127600000Y-145447142D01*
X127742857Y-145518571D01*
X128100000Y-145518571D01*
X128242857Y-145447142D01*
X128314285Y-145375714D01*
X136007142Y-142001428D02*
X135935714Y-141930000D01*
X135792857Y-141858571D01*
X135435714Y-141858571D01*
X135292857Y-141930000D01*
X135221428Y-142001428D01*
X135150000Y-142144285D01*
X135150000Y-142287142D01*
X135221428Y-142501428D01*
X136078571Y-143358571D01*
X135150000Y-143358571D01*
X134578571Y-142001428D02*
X134507142Y-141930000D01*
X134364285Y-141858571D01*
X134007142Y-141858571D01*
X133864285Y-141930000D01*
X133792857Y-142001428D01*
X133721428Y-142144285D01*
X133721428Y-142287142D01*
X133792857Y-142501428D01*
X134650000Y-143358571D01*
X133721428Y-143358571D01*
X132792857Y-141858571D02*
X132650000Y-141858571D01*
X132507142Y-141930000D01*
X132435714Y-142001428D01*
X132364285Y-142144285D01*
X132292857Y-142430000D01*
X132292857Y-142787142D01*
X132364285Y-143072857D01*
X132435714Y-143215714D01*
X132507142Y-143287142D01*
X132650000Y-143358571D01*
X132792857Y-143358571D01*
X132935714Y-143287142D01*
X133007142Y-143215714D01*
X133078571Y-143072857D01*
X133150000Y-142787142D01*
X133150000Y-142430000D01*
X133078571Y-142144285D01*
X133007142Y-142001428D01*
X132935714Y-141930000D01*
X132792857Y-141858571D01*
G04 #@! TO.C,R14*
X130214285Y-149868571D02*
X130714285Y-149154285D01*
X131071428Y-149868571D02*
X131071428Y-148368571D01*
X130500000Y-148368571D01*
X130357142Y-148440000D01*
X130285714Y-148511428D01*
X130214285Y-148654285D01*
X130214285Y-148868571D01*
X130285714Y-149011428D01*
X130357142Y-149082857D01*
X130500000Y-149154285D01*
X131071428Y-149154285D01*
X128785714Y-149868571D02*
X129642857Y-149868571D01*
X129214285Y-149868571D02*
X129214285Y-148368571D01*
X129357142Y-148582857D01*
X129500000Y-148725714D01*
X129642857Y-148797142D01*
X127500000Y-148868571D02*
X127500000Y-149868571D01*
X127857142Y-148297142D02*
X128214285Y-149368571D01*
X127285714Y-149368571D01*
X136067142Y-146701428D02*
X135995714Y-146630000D01*
X135852857Y-146558571D01*
X135495714Y-146558571D01*
X135352857Y-146630000D01*
X135281428Y-146701428D01*
X135210000Y-146844285D01*
X135210000Y-146987142D01*
X135281428Y-147201428D01*
X136138571Y-148058571D01*
X135210000Y-148058571D01*
X134638571Y-146701428D02*
X134567142Y-146630000D01*
X134424285Y-146558571D01*
X134067142Y-146558571D01*
X133924285Y-146630000D01*
X133852857Y-146701428D01*
X133781428Y-146844285D01*
X133781428Y-146987142D01*
X133852857Y-147201428D01*
X134710000Y-148058571D01*
X133781428Y-148058571D01*
X132852857Y-146558571D02*
X132710000Y-146558571D01*
X132567142Y-146630000D01*
X132495714Y-146701428D01*
X132424285Y-146844285D01*
X132352857Y-147130000D01*
X132352857Y-147487142D01*
X132424285Y-147772857D01*
X132495714Y-147915714D01*
X132567142Y-147987142D01*
X132710000Y-148058571D01*
X132852857Y-148058571D01*
X132995714Y-147987142D01*
X133067142Y-147915714D01*
X133138571Y-147772857D01*
X133210000Y-147487142D01*
X133210000Y-147130000D01*
X133138571Y-146844285D01*
X133067142Y-146701428D01*
X132995714Y-146630000D01*
X132852857Y-146558571D01*
G04 #@! TO.C,R13*
X130274285Y-139208571D02*
X130774285Y-138494285D01*
X131131428Y-139208571D02*
X131131428Y-137708571D01*
X130560000Y-137708571D01*
X130417142Y-137780000D01*
X130345714Y-137851428D01*
X130274285Y-137994285D01*
X130274285Y-138208571D01*
X130345714Y-138351428D01*
X130417142Y-138422857D01*
X130560000Y-138494285D01*
X131131428Y-138494285D01*
X128845714Y-139208571D02*
X129702857Y-139208571D01*
X129274285Y-139208571D02*
X129274285Y-137708571D01*
X129417142Y-137922857D01*
X129560000Y-138065714D01*
X129702857Y-138137142D01*
X128345714Y-137708571D02*
X127417142Y-137708571D01*
X127917142Y-138280000D01*
X127702857Y-138280000D01*
X127560000Y-138351428D01*
X127488571Y-138422857D01*
X127417142Y-138565714D01*
X127417142Y-138922857D01*
X127488571Y-139065714D01*
X127560000Y-139137142D01*
X127702857Y-139208571D01*
X128131428Y-139208571D01*
X128274285Y-139137142D01*
X128345714Y-139065714D01*
X135947142Y-135901428D02*
X135875714Y-135830000D01*
X135732857Y-135758571D01*
X135375714Y-135758571D01*
X135232857Y-135830000D01*
X135161428Y-135901428D01*
X135090000Y-136044285D01*
X135090000Y-136187142D01*
X135161428Y-136401428D01*
X136018571Y-137258571D01*
X135090000Y-137258571D01*
X134518571Y-135901428D02*
X134447142Y-135830000D01*
X134304285Y-135758571D01*
X133947142Y-135758571D01*
X133804285Y-135830000D01*
X133732857Y-135901428D01*
X133661428Y-136044285D01*
X133661428Y-136187142D01*
X133732857Y-136401428D01*
X134590000Y-137258571D01*
X133661428Y-137258571D01*
X132732857Y-135758571D02*
X132590000Y-135758571D01*
X132447142Y-135830000D01*
X132375714Y-135901428D01*
X132304285Y-136044285D01*
X132232857Y-136330000D01*
X132232857Y-136687142D01*
X132304285Y-136972857D01*
X132375714Y-137115714D01*
X132447142Y-137187142D01*
X132590000Y-137258571D01*
X132732857Y-137258571D01*
X132875714Y-137187142D01*
X132947142Y-137115714D01*
X133018571Y-136972857D01*
X133090000Y-136687142D01*
X133090000Y-136330000D01*
X133018571Y-136044285D01*
X132947142Y-135901428D01*
X132875714Y-135830000D01*
X132732857Y-135758571D01*
G04 #@! TO.C,R11*
X130184285Y-121798571D02*
X130684285Y-121084285D01*
X131041428Y-121798571D02*
X131041428Y-120298571D01*
X130470000Y-120298571D01*
X130327142Y-120370000D01*
X130255714Y-120441428D01*
X130184285Y-120584285D01*
X130184285Y-120798571D01*
X130255714Y-120941428D01*
X130327142Y-121012857D01*
X130470000Y-121084285D01*
X131041428Y-121084285D01*
X128755714Y-121798571D02*
X129612857Y-121798571D01*
X129184285Y-121798571D02*
X129184285Y-120298571D01*
X129327142Y-120512857D01*
X129470000Y-120655714D01*
X129612857Y-120727142D01*
X127327142Y-121798571D02*
X128184285Y-121798571D01*
X127755714Y-121798571D02*
X127755714Y-120298571D01*
X127898571Y-120512857D01*
X128041428Y-120655714D01*
X128184285Y-120727142D01*
X130889142Y-115018428D02*
X130817714Y-114947000D01*
X130674857Y-114875571D01*
X130317714Y-114875571D01*
X130174857Y-114947000D01*
X130103428Y-115018428D01*
X130032000Y-115161285D01*
X130032000Y-115304142D01*
X130103428Y-115518428D01*
X130960571Y-116375571D01*
X130032000Y-116375571D01*
X129460571Y-115018428D02*
X129389142Y-114947000D01*
X129246285Y-114875571D01*
X128889142Y-114875571D01*
X128746285Y-114947000D01*
X128674857Y-115018428D01*
X128603428Y-115161285D01*
X128603428Y-115304142D01*
X128674857Y-115518428D01*
X129532000Y-116375571D01*
X128603428Y-116375571D01*
X127674857Y-114875571D02*
X127532000Y-114875571D01*
X127389142Y-114947000D01*
X127317714Y-115018428D01*
X127246285Y-115161285D01*
X127174857Y-115447000D01*
X127174857Y-115804142D01*
X127246285Y-116089857D01*
X127317714Y-116232714D01*
X127389142Y-116304142D01*
X127532000Y-116375571D01*
X127674857Y-116375571D01*
X127817714Y-116304142D01*
X127889142Y-116232714D01*
X127960571Y-116089857D01*
X128032000Y-115804142D01*
X128032000Y-115447000D01*
X127960571Y-115161285D01*
X127889142Y-115018428D01*
X127817714Y-114947000D01*
X127674857Y-114875571D01*
G04 #@! TO.C,R10*
X154038571Y-110668714D02*
X153324285Y-110168714D01*
X154038571Y-109811571D02*
X152538571Y-109811571D01*
X152538571Y-110383000D01*
X152610000Y-110525857D01*
X152681428Y-110597285D01*
X152824285Y-110668714D01*
X153038571Y-110668714D01*
X153181428Y-110597285D01*
X153252857Y-110525857D01*
X153324285Y-110383000D01*
X153324285Y-109811571D01*
X154038571Y-112097285D02*
X154038571Y-111240142D01*
X154038571Y-111668714D02*
X152538571Y-111668714D01*
X152752857Y-111525857D01*
X152895714Y-111383000D01*
X152967142Y-111240142D01*
X152538571Y-113025857D02*
X152538571Y-113168714D01*
X152610000Y-113311571D01*
X152681428Y-113383000D01*
X152824285Y-113454428D01*
X153110000Y-113525857D01*
X153467142Y-113525857D01*
X153752857Y-113454428D01*
X153895714Y-113383000D01*
X153967142Y-113311571D01*
X154038571Y-113168714D01*
X154038571Y-113025857D01*
X153967142Y-112883000D01*
X153895714Y-112811571D01*
X153752857Y-112740142D01*
X153467142Y-112668714D01*
X153110000Y-112668714D01*
X152824285Y-112740142D01*
X152681428Y-112811571D01*
X152610000Y-112883000D01*
X152538571Y-113025857D01*
X147403428Y-109902857D02*
X147332000Y-109974285D01*
X147260571Y-110117142D01*
X147260571Y-110474285D01*
X147332000Y-110617142D01*
X147403428Y-110688571D01*
X147546285Y-110760000D01*
X147689142Y-110760000D01*
X147903428Y-110688571D01*
X148760571Y-109831428D01*
X148760571Y-110760000D01*
X147403428Y-111331428D02*
X147332000Y-111402857D01*
X147260571Y-111545714D01*
X147260571Y-111902857D01*
X147332000Y-112045714D01*
X147403428Y-112117142D01*
X147546285Y-112188571D01*
X147689142Y-112188571D01*
X147903428Y-112117142D01*
X148760571Y-111260000D01*
X148760571Y-112188571D01*
X147260571Y-113117142D02*
X147260571Y-113260000D01*
X147332000Y-113402857D01*
X147403428Y-113474285D01*
X147546285Y-113545714D01*
X147832000Y-113617142D01*
X148189142Y-113617142D01*
X148474857Y-113545714D01*
X148617714Y-113474285D01*
X148689142Y-113402857D01*
X148760571Y-113260000D01*
X148760571Y-113117142D01*
X148689142Y-112974285D01*
X148617714Y-112902857D01*
X148474857Y-112831428D01*
X148189142Y-112760000D01*
X147832000Y-112760000D01*
X147546285Y-112831428D01*
X147403428Y-112902857D01*
X147332000Y-112974285D01*
X147260571Y-113117142D01*
G04 #@! TO.C,R9*
X142980000Y-94928571D02*
X143480000Y-94214285D01*
X143837142Y-94928571D02*
X143837142Y-93428571D01*
X143265714Y-93428571D01*
X143122857Y-93500000D01*
X143051428Y-93571428D01*
X142980000Y-93714285D01*
X142980000Y-93928571D01*
X143051428Y-94071428D01*
X143122857Y-94142857D01*
X143265714Y-94214285D01*
X143837142Y-94214285D01*
X142265714Y-94928571D02*
X141980000Y-94928571D01*
X141837142Y-94857142D01*
X141765714Y-94785714D01*
X141622857Y-94571428D01*
X141551428Y-94285714D01*
X141551428Y-93714285D01*
X141622857Y-93571428D01*
X141694285Y-93500000D01*
X141837142Y-93428571D01*
X142122857Y-93428571D01*
X142265714Y-93500000D01*
X142337142Y-93571428D01*
X142408571Y-93714285D01*
X142408571Y-94071428D01*
X142337142Y-94214285D01*
X142265714Y-94285714D01*
X142122857Y-94357142D01*
X141837142Y-94357142D01*
X141694285Y-94285714D01*
X141622857Y-94214285D01*
X141551428Y-94071428D01*
X131557142Y-93381428D02*
X131485714Y-93310000D01*
X131342857Y-93238571D01*
X130985714Y-93238571D01*
X130842857Y-93310000D01*
X130771428Y-93381428D01*
X130700000Y-93524285D01*
X130700000Y-93667142D01*
X130771428Y-93881428D01*
X131628571Y-94738571D01*
X130700000Y-94738571D01*
X130128571Y-93381428D02*
X130057142Y-93310000D01*
X129914285Y-93238571D01*
X129557142Y-93238571D01*
X129414285Y-93310000D01*
X129342857Y-93381428D01*
X129271428Y-93524285D01*
X129271428Y-93667142D01*
X129342857Y-93881428D01*
X130200000Y-94738571D01*
X129271428Y-94738571D01*
X128342857Y-93238571D02*
X128200000Y-93238571D01*
X128057142Y-93310000D01*
X127985714Y-93381428D01*
X127914285Y-93524285D01*
X127842857Y-93810000D01*
X127842857Y-94167142D01*
X127914285Y-94452857D01*
X127985714Y-94595714D01*
X128057142Y-94667142D01*
X128200000Y-94738571D01*
X128342857Y-94738571D01*
X128485714Y-94667142D01*
X128557142Y-94595714D01*
X128628571Y-94452857D01*
X128700000Y-94167142D01*
X128700000Y-93810000D01*
X128628571Y-93524285D01*
X128557142Y-93381428D01*
X128485714Y-93310000D01*
X128342857Y-93238571D01*
G04 #@! TO.C,R8*
X143030000Y-92198571D02*
X143530000Y-91484285D01*
X143887142Y-92198571D02*
X143887142Y-90698571D01*
X143315714Y-90698571D01*
X143172857Y-90770000D01*
X143101428Y-90841428D01*
X143030000Y-90984285D01*
X143030000Y-91198571D01*
X143101428Y-91341428D01*
X143172857Y-91412857D01*
X143315714Y-91484285D01*
X143887142Y-91484285D01*
X142172857Y-91341428D02*
X142315714Y-91270000D01*
X142387142Y-91198571D01*
X142458571Y-91055714D01*
X142458571Y-90984285D01*
X142387142Y-90841428D01*
X142315714Y-90770000D01*
X142172857Y-90698571D01*
X141887142Y-90698571D01*
X141744285Y-90770000D01*
X141672857Y-90841428D01*
X141601428Y-90984285D01*
X141601428Y-91055714D01*
X141672857Y-91198571D01*
X141744285Y-91270000D01*
X141887142Y-91341428D01*
X142172857Y-91341428D01*
X142315714Y-91412857D01*
X142387142Y-91484285D01*
X142458571Y-91627142D01*
X142458571Y-91912857D01*
X142387142Y-92055714D01*
X142315714Y-92127142D01*
X142172857Y-92198571D01*
X141887142Y-92198571D01*
X141744285Y-92127142D01*
X141672857Y-92055714D01*
X141601428Y-91912857D01*
X141601428Y-91627142D01*
X141672857Y-91484285D01*
X141744285Y-91412857D01*
X141887142Y-91341428D01*
X131557142Y-91041428D02*
X131485714Y-90970000D01*
X131342857Y-90898571D01*
X130985714Y-90898571D01*
X130842857Y-90970000D01*
X130771428Y-91041428D01*
X130700000Y-91184285D01*
X130700000Y-91327142D01*
X130771428Y-91541428D01*
X131628571Y-92398571D01*
X130700000Y-92398571D01*
X130128571Y-91041428D02*
X130057142Y-90970000D01*
X129914285Y-90898571D01*
X129557142Y-90898571D01*
X129414285Y-90970000D01*
X129342857Y-91041428D01*
X129271428Y-91184285D01*
X129271428Y-91327142D01*
X129342857Y-91541428D01*
X130200000Y-92398571D01*
X129271428Y-92398571D01*
X128342857Y-90898571D02*
X128200000Y-90898571D01*
X128057142Y-90970000D01*
X127985714Y-91041428D01*
X127914285Y-91184285D01*
X127842857Y-91470000D01*
X127842857Y-91827142D01*
X127914285Y-92112857D01*
X127985714Y-92255714D01*
X128057142Y-92327142D01*
X128200000Y-92398571D01*
X128342857Y-92398571D01*
X128485714Y-92327142D01*
X128557142Y-92255714D01*
X128628571Y-92112857D01*
X128700000Y-91827142D01*
X128700000Y-91470000D01*
X128628571Y-91184285D01*
X128557142Y-91041428D01*
X128485714Y-90970000D01*
X128342857Y-90898571D01*
G04 #@! TO.C,R7*
X142830000Y-89638571D02*
X143330000Y-88924285D01*
X143687142Y-89638571D02*
X143687142Y-88138571D01*
X143115714Y-88138571D01*
X142972857Y-88210000D01*
X142901428Y-88281428D01*
X142830000Y-88424285D01*
X142830000Y-88638571D01*
X142901428Y-88781428D01*
X142972857Y-88852857D01*
X143115714Y-88924285D01*
X143687142Y-88924285D01*
X142330000Y-88138571D02*
X141330000Y-88138571D01*
X141972857Y-89638571D01*
X131557142Y-88284928D02*
X131485714Y-88213500D01*
X131342857Y-88142071D01*
X130985714Y-88142071D01*
X130842857Y-88213500D01*
X130771428Y-88284928D01*
X130700000Y-88427785D01*
X130700000Y-88570642D01*
X130771428Y-88784928D01*
X131628571Y-89642071D01*
X130700000Y-89642071D01*
X130128571Y-88284928D02*
X130057142Y-88213500D01*
X129914285Y-88142071D01*
X129557142Y-88142071D01*
X129414285Y-88213500D01*
X129342857Y-88284928D01*
X129271428Y-88427785D01*
X129271428Y-88570642D01*
X129342857Y-88784928D01*
X130200000Y-89642071D01*
X129271428Y-89642071D01*
X128342857Y-88142071D02*
X128200000Y-88142071D01*
X128057142Y-88213500D01*
X127985714Y-88284928D01*
X127914285Y-88427785D01*
X127842857Y-88713500D01*
X127842857Y-89070642D01*
X127914285Y-89356357D01*
X127985714Y-89499214D01*
X128057142Y-89570642D01*
X128200000Y-89642071D01*
X128342857Y-89642071D01*
X128485714Y-89570642D01*
X128557142Y-89499214D01*
X128628571Y-89356357D01*
X128700000Y-89070642D01*
X128700000Y-88713500D01*
X128628571Y-88427785D01*
X128557142Y-88284928D01*
X128485714Y-88213500D01*
X128342857Y-88142071D01*
G04 #@! TO.C,R6*
X142744000Y-87419571D02*
X143244000Y-86705285D01*
X143601142Y-87419571D02*
X143601142Y-85919571D01*
X143029714Y-85919571D01*
X142886857Y-85991000D01*
X142815428Y-86062428D01*
X142744000Y-86205285D01*
X142744000Y-86419571D01*
X142815428Y-86562428D01*
X142886857Y-86633857D01*
X143029714Y-86705285D01*
X143601142Y-86705285D01*
X141458285Y-85919571D02*
X141744000Y-85919571D01*
X141886857Y-85991000D01*
X141958285Y-86062428D01*
X142101142Y-86276714D01*
X142172571Y-86562428D01*
X142172571Y-87133857D01*
X142101142Y-87276714D01*
X142029714Y-87348142D01*
X141886857Y-87419571D01*
X141601142Y-87419571D01*
X141458285Y-87348142D01*
X141386857Y-87276714D01*
X141315428Y-87133857D01*
X141315428Y-86776714D01*
X141386857Y-86633857D01*
X141458285Y-86562428D01*
X141601142Y-86491000D01*
X141886857Y-86491000D01*
X142029714Y-86562428D01*
X142101142Y-86633857D01*
X142172571Y-86776714D01*
X131557142Y-85744928D02*
X131485714Y-85673500D01*
X131342857Y-85602071D01*
X130985714Y-85602071D01*
X130842857Y-85673500D01*
X130771428Y-85744928D01*
X130700000Y-85887785D01*
X130700000Y-86030642D01*
X130771428Y-86244928D01*
X131628571Y-87102071D01*
X130700000Y-87102071D01*
X130128571Y-85744928D02*
X130057142Y-85673500D01*
X129914285Y-85602071D01*
X129557142Y-85602071D01*
X129414285Y-85673500D01*
X129342857Y-85744928D01*
X129271428Y-85887785D01*
X129271428Y-86030642D01*
X129342857Y-86244928D01*
X130200000Y-87102071D01*
X129271428Y-87102071D01*
X128342857Y-85602071D02*
X128200000Y-85602071D01*
X128057142Y-85673500D01*
X127985714Y-85744928D01*
X127914285Y-85887785D01*
X127842857Y-86173500D01*
X127842857Y-86530642D01*
X127914285Y-86816357D01*
X127985714Y-86959214D01*
X128057142Y-87030642D01*
X128200000Y-87102071D01*
X128342857Y-87102071D01*
X128485714Y-87030642D01*
X128557142Y-86959214D01*
X128628571Y-86816357D01*
X128700000Y-86530642D01*
X128700000Y-86173500D01*
X128628571Y-85887785D01*
X128557142Y-85744928D01*
X128485714Y-85673500D01*
X128342857Y-85602071D01*
G04 #@! TO.C,R5*
X142590000Y-84879571D02*
X143090000Y-84165285D01*
X143447142Y-84879571D02*
X143447142Y-83379571D01*
X142875714Y-83379571D01*
X142732857Y-83451000D01*
X142661428Y-83522428D01*
X142590000Y-83665285D01*
X142590000Y-83879571D01*
X142661428Y-84022428D01*
X142732857Y-84093857D01*
X142875714Y-84165285D01*
X143447142Y-84165285D01*
X141232857Y-83379571D02*
X141947142Y-83379571D01*
X142018571Y-84093857D01*
X141947142Y-84022428D01*
X141804285Y-83951000D01*
X141447142Y-83951000D01*
X141304285Y-84022428D01*
X141232857Y-84093857D01*
X141161428Y-84236714D01*
X141161428Y-84593857D01*
X141232857Y-84736714D01*
X141304285Y-84808142D01*
X141447142Y-84879571D01*
X141804285Y-84879571D01*
X141947142Y-84808142D01*
X142018571Y-84736714D01*
X131557142Y-83268428D02*
X131485714Y-83197000D01*
X131342857Y-83125571D01*
X130985714Y-83125571D01*
X130842857Y-83197000D01*
X130771428Y-83268428D01*
X130700000Y-83411285D01*
X130700000Y-83554142D01*
X130771428Y-83768428D01*
X131628571Y-84625571D01*
X130700000Y-84625571D01*
X130128571Y-83268428D02*
X130057142Y-83197000D01*
X129914285Y-83125571D01*
X129557142Y-83125571D01*
X129414285Y-83197000D01*
X129342857Y-83268428D01*
X129271428Y-83411285D01*
X129271428Y-83554142D01*
X129342857Y-83768428D01*
X130200000Y-84625571D01*
X129271428Y-84625571D01*
X128342857Y-83125571D02*
X128200000Y-83125571D01*
X128057142Y-83197000D01*
X127985714Y-83268428D01*
X127914285Y-83411285D01*
X127842857Y-83697000D01*
X127842857Y-84054142D01*
X127914285Y-84339857D01*
X127985714Y-84482714D01*
X128057142Y-84554142D01*
X128200000Y-84625571D01*
X128342857Y-84625571D01*
X128485714Y-84554142D01*
X128557142Y-84482714D01*
X128628571Y-84339857D01*
X128700000Y-84054142D01*
X128700000Y-83697000D01*
X128628571Y-83411285D01*
X128557142Y-83268428D01*
X128485714Y-83197000D01*
X128342857Y-83125571D01*
G04 #@! TO.C,R4*
X109740000Y-130988571D02*
X110240000Y-130274285D01*
X110597142Y-130988571D02*
X110597142Y-129488571D01*
X110025714Y-129488571D01*
X109882857Y-129560000D01*
X109811428Y-129631428D01*
X109740000Y-129774285D01*
X109740000Y-129988571D01*
X109811428Y-130131428D01*
X109882857Y-130202857D01*
X110025714Y-130274285D01*
X110597142Y-130274285D01*
X108454285Y-129988571D02*
X108454285Y-130988571D01*
X108811428Y-129417142D02*
X109168571Y-130488571D01*
X108240000Y-130488571D01*
X115903142Y-131655428D02*
X115831714Y-131584000D01*
X115688857Y-131512571D01*
X115331714Y-131512571D01*
X115188857Y-131584000D01*
X115117428Y-131655428D01*
X115046000Y-131798285D01*
X115046000Y-131941142D01*
X115117428Y-132155428D01*
X115974571Y-133012571D01*
X115046000Y-133012571D01*
X114474571Y-131655428D02*
X114403142Y-131584000D01*
X114260285Y-131512571D01*
X113903142Y-131512571D01*
X113760285Y-131584000D01*
X113688857Y-131655428D01*
X113617428Y-131798285D01*
X113617428Y-131941142D01*
X113688857Y-132155428D01*
X114546000Y-133012571D01*
X113617428Y-133012571D01*
X112688857Y-131512571D02*
X112546000Y-131512571D01*
X112403142Y-131584000D01*
X112331714Y-131655428D01*
X112260285Y-131798285D01*
X112188857Y-132084000D01*
X112188857Y-132441142D01*
X112260285Y-132726857D01*
X112331714Y-132869714D01*
X112403142Y-132941142D01*
X112546000Y-133012571D01*
X112688857Y-133012571D01*
X112831714Y-132941142D01*
X112903142Y-132869714D01*
X112974571Y-132726857D01*
X113046000Y-132441142D01*
X113046000Y-132084000D01*
X112974571Y-131798285D01*
X112903142Y-131655428D01*
X112831714Y-131584000D01*
X112688857Y-131512571D01*
G04 #@! TO.C,R3*
X110950000Y-111318571D02*
X111450000Y-110604285D01*
X111807142Y-111318571D02*
X111807142Y-109818571D01*
X111235714Y-109818571D01*
X111092857Y-109890000D01*
X111021428Y-109961428D01*
X110950000Y-110104285D01*
X110950000Y-110318571D01*
X111021428Y-110461428D01*
X111092857Y-110532857D01*
X111235714Y-110604285D01*
X111807142Y-110604285D01*
X110450000Y-109818571D02*
X109521428Y-109818571D01*
X110021428Y-110390000D01*
X109807142Y-110390000D01*
X109664285Y-110461428D01*
X109592857Y-110532857D01*
X109521428Y-110675714D01*
X109521428Y-111032857D01*
X109592857Y-111175714D01*
X109664285Y-111247142D01*
X109807142Y-111318571D01*
X110235714Y-111318571D01*
X110378571Y-111247142D01*
X110450000Y-111175714D01*
X107527142Y-112201428D02*
X107455714Y-112130000D01*
X107312857Y-112058571D01*
X106955714Y-112058571D01*
X106812857Y-112130000D01*
X106741428Y-112201428D01*
X106670000Y-112344285D01*
X106670000Y-112487142D01*
X106741428Y-112701428D01*
X107598571Y-113558571D01*
X106670000Y-113558571D01*
X106098571Y-112201428D02*
X106027142Y-112130000D01*
X105884285Y-112058571D01*
X105527142Y-112058571D01*
X105384285Y-112130000D01*
X105312857Y-112201428D01*
X105241428Y-112344285D01*
X105241428Y-112487142D01*
X105312857Y-112701428D01*
X106170000Y-113558571D01*
X105241428Y-113558571D01*
X104312857Y-112058571D02*
X104170000Y-112058571D01*
X104027142Y-112130000D01*
X103955714Y-112201428D01*
X103884285Y-112344285D01*
X103812857Y-112630000D01*
X103812857Y-112987142D01*
X103884285Y-113272857D01*
X103955714Y-113415714D01*
X104027142Y-113487142D01*
X104170000Y-113558571D01*
X104312857Y-113558571D01*
X104455714Y-113487142D01*
X104527142Y-113415714D01*
X104598571Y-113272857D01*
X104670000Y-112987142D01*
X104670000Y-112630000D01*
X104598571Y-112344285D01*
X104527142Y-112201428D01*
X104455714Y-112130000D01*
X104312857Y-112058571D01*
G04 #@! TO.C,R2*
X111070000Y-105638571D02*
X111570000Y-104924285D01*
X111927142Y-105638571D02*
X111927142Y-104138571D01*
X111355714Y-104138571D01*
X111212857Y-104210000D01*
X111141428Y-104281428D01*
X111070000Y-104424285D01*
X111070000Y-104638571D01*
X111141428Y-104781428D01*
X111212857Y-104852857D01*
X111355714Y-104924285D01*
X111927142Y-104924285D01*
X110498571Y-104281428D02*
X110427142Y-104210000D01*
X110284285Y-104138571D01*
X109927142Y-104138571D01*
X109784285Y-104210000D01*
X109712857Y-104281428D01*
X109641428Y-104424285D01*
X109641428Y-104567142D01*
X109712857Y-104781428D01*
X110570000Y-105638571D01*
X109641428Y-105638571D01*
X107627142Y-106561428D02*
X107555714Y-106490000D01*
X107412857Y-106418571D01*
X107055714Y-106418571D01*
X106912857Y-106490000D01*
X106841428Y-106561428D01*
X106770000Y-106704285D01*
X106770000Y-106847142D01*
X106841428Y-107061428D01*
X107698571Y-107918571D01*
X106770000Y-107918571D01*
X106198571Y-106561428D02*
X106127142Y-106490000D01*
X105984285Y-106418571D01*
X105627142Y-106418571D01*
X105484285Y-106490000D01*
X105412857Y-106561428D01*
X105341428Y-106704285D01*
X105341428Y-106847142D01*
X105412857Y-107061428D01*
X106270000Y-107918571D01*
X105341428Y-107918571D01*
X104412857Y-106418571D02*
X104270000Y-106418571D01*
X104127142Y-106490000D01*
X104055714Y-106561428D01*
X103984285Y-106704285D01*
X103912857Y-106990000D01*
X103912857Y-107347142D01*
X103984285Y-107632857D01*
X104055714Y-107775714D01*
X104127142Y-107847142D01*
X104270000Y-107918571D01*
X104412857Y-107918571D01*
X104555714Y-107847142D01*
X104627142Y-107775714D01*
X104698571Y-107632857D01*
X104770000Y-107347142D01*
X104770000Y-106990000D01*
X104698571Y-106704285D01*
X104627142Y-106561428D01*
X104555714Y-106490000D01*
X104412857Y-106418571D01*
G04 #@! TO.C,C3*
X157992539Y-76184009D02*
X158063967Y-76255437D01*
X158278253Y-76326866D01*
X158421110Y-76326866D01*
X158635396Y-76255437D01*
X158778253Y-76112580D01*
X158849681Y-75969723D01*
X158921110Y-75684009D01*
X158921110Y-75469723D01*
X158849681Y-75184009D01*
X158778253Y-75041152D01*
X158635396Y-74898295D01*
X158421110Y-74826866D01*
X158278253Y-74826866D01*
X158063967Y-74898295D01*
X157992539Y-74969723D01*
X157492539Y-74826866D02*
X156563967Y-74826866D01*
X157063967Y-75398295D01*
X156849681Y-75398295D01*
X156706824Y-75469723D01*
X156635396Y-75541152D01*
X156563967Y-75684009D01*
X156563967Y-76041152D01*
X156635396Y-76184009D01*
X156706824Y-76255437D01*
X156849681Y-76326866D01*
X157278253Y-76326866D01*
X157421110Y-76255437D01*
X157492539Y-76184009D01*
X146220967Y-76199866D02*
X147078110Y-76199866D01*
X146649539Y-76199866D02*
X146649539Y-74699866D01*
X146792396Y-74914152D01*
X146935253Y-75057009D01*
X147078110Y-75128437D01*
X145292396Y-74699866D02*
X145149539Y-74699866D01*
X145006681Y-74771295D01*
X144935253Y-74842723D01*
X144863824Y-74985580D01*
X144792396Y-75271295D01*
X144792396Y-75628437D01*
X144863824Y-75914152D01*
X144935253Y-76057009D01*
X145006681Y-76128437D01*
X145149539Y-76199866D01*
X145292396Y-76199866D01*
X145435253Y-76128437D01*
X145506681Y-76057009D01*
X145578110Y-75914152D01*
X145649539Y-75628437D01*
X145649539Y-75271295D01*
X145578110Y-74985580D01*
X145506681Y-74842723D01*
X145435253Y-74771295D01*
X145292396Y-74699866D01*
X143863824Y-74699866D02*
X143720967Y-74699866D01*
X143578110Y-74771295D01*
X143506681Y-74842723D01*
X143435253Y-74985580D01*
X143363824Y-75271295D01*
X143363824Y-75628437D01*
X143435253Y-75914152D01*
X143506681Y-76057009D01*
X143578110Y-76128437D01*
X143720967Y-76199866D01*
X143863824Y-76199866D01*
X144006681Y-76128437D01*
X144078110Y-76057009D01*
X144149539Y-75914152D01*
X144220967Y-75628437D01*
X144220967Y-75271295D01*
X144149539Y-74985580D01*
X144078110Y-74842723D01*
X144006681Y-74771295D01*
X143863824Y-74699866D01*
X142720967Y-75199866D02*
X142720967Y-76199866D01*
X142720967Y-75342723D02*
X142649539Y-75271295D01*
X142506681Y-75199866D01*
X142292396Y-75199866D01*
X142149539Y-75271295D01*
X142078110Y-75414152D01*
X142078110Y-76199866D01*
X140863824Y-75414152D02*
X141363824Y-75414152D01*
X141363824Y-76199866D02*
X141363824Y-74699866D01*
X140649539Y-74699866D01*
G04 #@! TO.C,C2*
X115475714Y-51640000D02*
X115547142Y-51568571D01*
X115618571Y-51354285D01*
X115618571Y-51211428D01*
X115547142Y-50997142D01*
X115404285Y-50854285D01*
X115261428Y-50782857D01*
X114975714Y-50711428D01*
X114761428Y-50711428D01*
X114475714Y-50782857D01*
X114332857Y-50854285D01*
X114190000Y-50997142D01*
X114118571Y-51211428D01*
X114118571Y-51354285D01*
X114190000Y-51568571D01*
X114261428Y-51640000D01*
X114261428Y-52211428D02*
X114190000Y-52282857D01*
X114118571Y-52425714D01*
X114118571Y-52782857D01*
X114190000Y-52925714D01*
X114261428Y-52997142D01*
X114404285Y-53068571D01*
X114547142Y-53068571D01*
X114761428Y-52997142D01*
X115618571Y-52140000D01*
X115618571Y-53068571D01*
X115768571Y-35250000D02*
X115768571Y-34392857D01*
X115768571Y-34821428D02*
X114268571Y-34821428D01*
X114482857Y-34678571D01*
X114625714Y-34535714D01*
X114697142Y-34392857D01*
X114268571Y-36178571D02*
X114268571Y-36321428D01*
X114340000Y-36464285D01*
X114411428Y-36535714D01*
X114554285Y-36607142D01*
X114840000Y-36678571D01*
X115197142Y-36678571D01*
X115482857Y-36607142D01*
X115625714Y-36535714D01*
X115697142Y-36464285D01*
X115768571Y-36321428D01*
X115768571Y-36178571D01*
X115697142Y-36035714D01*
X115625714Y-35964285D01*
X115482857Y-35892857D01*
X115197142Y-35821428D01*
X114840000Y-35821428D01*
X114554285Y-35892857D01*
X114411428Y-35964285D01*
X114340000Y-36035714D01*
X114268571Y-36178571D01*
X114268571Y-37607142D02*
X114268571Y-37750000D01*
X114340000Y-37892857D01*
X114411428Y-37964285D01*
X114554285Y-38035714D01*
X114840000Y-38107142D01*
X115197142Y-38107142D01*
X115482857Y-38035714D01*
X115625714Y-37964285D01*
X115697142Y-37892857D01*
X115768571Y-37750000D01*
X115768571Y-37607142D01*
X115697142Y-37464285D01*
X115625714Y-37392857D01*
X115482857Y-37321428D01*
X115197142Y-37250000D01*
X114840000Y-37250000D01*
X114554285Y-37321428D01*
X114411428Y-37392857D01*
X114340000Y-37464285D01*
X114268571Y-37607142D01*
X114768571Y-38750000D02*
X115768571Y-38750000D01*
X114911428Y-38750000D02*
X114840000Y-38821428D01*
X114768571Y-38964285D01*
X114768571Y-39178571D01*
X114840000Y-39321428D01*
X114982857Y-39392857D01*
X115768571Y-39392857D01*
X114982857Y-40607142D02*
X114982857Y-40107142D01*
X115768571Y-40107142D02*
X114268571Y-40107142D01*
X114268571Y-40821428D01*
X116340000Y-42964285D02*
X116268571Y-42892857D01*
X116054285Y-42750000D01*
X115911428Y-42678571D01*
X115697142Y-42607142D01*
X115340000Y-42535714D01*
X115054285Y-42535714D01*
X114697142Y-42607142D01*
X114482857Y-42678571D01*
X114340000Y-42750000D01*
X114125714Y-42892857D01*
X114054285Y-42964285D01*
X114268571Y-43821428D02*
X114268571Y-43964285D01*
X114340000Y-44107142D01*
X114411428Y-44178571D01*
X114554285Y-44250000D01*
X114840000Y-44321428D01*
X115197142Y-44321428D01*
X115482857Y-44250000D01*
X115625714Y-44178571D01*
X115697142Y-44107142D01*
X115768571Y-43964285D01*
X115768571Y-43821428D01*
X115697142Y-43678571D01*
X115625714Y-43607142D01*
X115482857Y-43535714D01*
X115197142Y-43464285D01*
X114840000Y-43464285D01*
X114554285Y-43535714D01*
X114411428Y-43607142D01*
X114340000Y-43678571D01*
X114268571Y-43821428D01*
X115625714Y-44964285D02*
X115697142Y-45035714D01*
X115768571Y-44964285D01*
X115697142Y-44892857D01*
X115625714Y-44964285D01*
X115768571Y-44964285D01*
X115768571Y-46464285D02*
X115768571Y-45607142D01*
X115768571Y-46035714D02*
X114268571Y-46035714D01*
X114482857Y-45892857D01*
X114625714Y-45750000D01*
X114697142Y-45607142D01*
X114768571Y-47750000D02*
X115768571Y-47750000D01*
X114768571Y-47107142D02*
X115554285Y-47107142D01*
X115697142Y-47178571D01*
X115768571Y-47321428D01*
X115768571Y-47535714D01*
X115697142Y-47678571D01*
X115625714Y-47750000D01*
X114982857Y-48964285D02*
X114982857Y-48464285D01*
X115768571Y-48464285D02*
X114268571Y-48464285D01*
X114268571Y-49178571D01*
X116340000Y-49607142D02*
X116268571Y-49678571D01*
X116054285Y-49821428D01*
X115911428Y-49892857D01*
X115697142Y-49964285D01*
X115340000Y-50035714D01*
X115054285Y-50035714D01*
X114697142Y-49964285D01*
X114482857Y-49892857D01*
X114340000Y-49821428D01*
X114125714Y-49678571D01*
X114054285Y-49607142D01*
G04 #@! TO.C,C1*
X112540000Y-64175714D02*
X112611428Y-64247142D01*
X112825714Y-64318571D01*
X112968571Y-64318571D01*
X113182857Y-64247142D01*
X113325714Y-64104285D01*
X113397142Y-63961428D01*
X113468571Y-63675714D01*
X113468571Y-63461428D01*
X113397142Y-63175714D01*
X113325714Y-63032857D01*
X113182857Y-62890000D01*
X112968571Y-62818571D01*
X112825714Y-62818571D01*
X112611428Y-62890000D01*
X112540000Y-62961428D01*
X111111428Y-64318571D02*
X111968571Y-64318571D01*
X111540000Y-64318571D02*
X111540000Y-62818571D01*
X111682857Y-63032857D01*
X111825714Y-63175714D01*
X111968571Y-63247142D01*
X123437142Y-64438571D02*
X124294285Y-64438571D01*
X123865714Y-64438571D02*
X123865714Y-62938571D01*
X124008571Y-63152857D01*
X124151428Y-63295714D01*
X124294285Y-63367142D01*
X122508571Y-62938571D02*
X122365714Y-62938571D01*
X122222857Y-63010000D01*
X122151428Y-63081428D01*
X122080000Y-63224285D01*
X122008571Y-63510000D01*
X122008571Y-63867142D01*
X122080000Y-64152857D01*
X122151428Y-64295714D01*
X122222857Y-64367142D01*
X122365714Y-64438571D01*
X122508571Y-64438571D01*
X122651428Y-64367142D01*
X122722857Y-64295714D01*
X122794285Y-64152857D01*
X122865714Y-63867142D01*
X122865714Y-63510000D01*
X122794285Y-63224285D01*
X122722857Y-63081428D01*
X122651428Y-63010000D01*
X122508571Y-62938571D01*
X120722857Y-63438571D02*
X120722857Y-64438571D01*
X121365714Y-63438571D02*
X121365714Y-64224285D01*
X121294285Y-64367142D01*
X121151428Y-64438571D01*
X120937142Y-64438571D01*
X120794285Y-64367142D01*
X120722857Y-64295714D01*
X119508571Y-63652857D02*
X120008571Y-63652857D01*
X120008571Y-64438571D02*
X120008571Y-62938571D01*
X119294285Y-62938571D01*
G04 #@! TO.C,R1*
X142109000Y-82466571D02*
X142609000Y-81752285D01*
X142966142Y-82466571D02*
X142966142Y-80966571D01*
X142394714Y-80966571D01*
X142251857Y-81038000D01*
X142180428Y-81109428D01*
X142109000Y-81252285D01*
X142109000Y-81466571D01*
X142180428Y-81609428D01*
X142251857Y-81680857D01*
X142394714Y-81752285D01*
X142966142Y-81752285D01*
X140680428Y-82466571D02*
X141537571Y-82466571D01*
X141109000Y-82466571D02*
X141109000Y-80966571D01*
X141251857Y-81180857D01*
X141394714Y-81323714D01*
X141537571Y-81395142D01*
X131557142Y-80621428D02*
X131485714Y-80550000D01*
X131342857Y-80478571D01*
X130985714Y-80478571D01*
X130842857Y-80550000D01*
X130771428Y-80621428D01*
X130700000Y-80764285D01*
X130700000Y-80907142D01*
X130771428Y-81121428D01*
X131628571Y-81978571D01*
X130700000Y-81978571D01*
X130128571Y-80621428D02*
X130057142Y-80550000D01*
X129914285Y-80478571D01*
X129557142Y-80478571D01*
X129414285Y-80550000D01*
X129342857Y-80621428D01*
X129271428Y-80764285D01*
X129271428Y-80907142D01*
X129342857Y-81121428D01*
X130200000Y-81978571D01*
X129271428Y-81978571D01*
X128342857Y-80478571D02*
X128200000Y-80478571D01*
X128057142Y-80550000D01*
X127985714Y-80621428D01*
X127914285Y-80764285D01*
X127842857Y-81050000D01*
X127842857Y-81407142D01*
X127914285Y-81692857D01*
X127985714Y-81835714D01*
X128057142Y-81907142D01*
X128200000Y-81978571D01*
X128342857Y-81978571D01*
X128485714Y-81907142D01*
X128557142Y-81835714D01*
X128628571Y-81692857D01*
X128700000Y-81407142D01*
X128700000Y-81050000D01*
X128628571Y-80764285D01*
X128557142Y-80621428D01*
X128485714Y-80550000D01*
X128342857Y-80478571D01*
G04 #@! TD*
M02*
