G04 #@! TF.GenerationSoftware,KiCad,Pcbnew,(6.0.0-rc1-dev-347-gd8782b751)*
G04 #@! TF.CreationDate,2019-11-16T23:30:42+01:00*
G04 #@! TF.ProjectId,nano,6E616E6F2E6B696361645F7063620000,rev?*
G04 #@! TF.SameCoordinates,Original*
G04 #@! TF.FileFunction,Soldermask,Bot*
G04 #@! TF.FilePolarity,Negative*
%FSLAX46Y46*%
G04 Gerber Fmt 4.6, Leading zero omitted, Abs format (unit mm)*
G04 Created by KiCad (PCBNEW (6.0.0-rc1-dev-347-gd8782b751)) date 11/16/19 23:30:42*
%MOMM*%
%LPD*%
G01*
G04 APERTURE LIST*
%ADD10C,0.100000*%
%ADD11C,1.800000*%
%ADD12R,1.800000X1.800000*%
%ADD13C,1.425000*%
%ADD14R,3.500000X1.800000*%
%ADD15R,1.800000X3.500000*%
%ADD16R,1.500000X1.780000*%
%ADD17C,0.500000*%
%ADD18O,1.700000X1.700000*%
%ADD19R,1.700000X1.700000*%
%ADD20O,3.600000X1.800000*%
%ADD21R,1.780000X1.500000*%
%ADD22C,9.000000*%
%ADD23R,6.400000X5.800000*%
%ADD24R,2.200000X1.200000*%
%ADD25O,2.032000X1.727200*%
G04 APERTURE END LIST*
D10*
X-34417000Y-79248000D02*
X-35941000Y-77724000D01*
X-34925000Y61976000D02*
X-36195000Y60706000D01*
X43815000Y-77724000D02*
X42291000Y-79248000D01*
X43624500Y60769500D02*
X42354500Y62039500D01*
X-6982115Y-54041384D02*
G75*
G03X-6982115Y-54041384I-2796885J0D01*
G01*
X26479500Y-54038500D02*
G75*
G03X26479500Y-54038500I-2794000J0D01*
G01*
X-7036978Y51105979D02*
G75*
G03X-7036978Y51105979I-2805522J0D01*
G01*
X26301668Y51104832D02*
G75*
G03X26301668Y51104832I-2552668J0D01*
G01*
X-35941000Y-77724000D02*
X-36195000Y60706000D01*
X42291000Y-79248000D02*
X-34417000Y-79248000D01*
X43624500Y60769500D02*
X43815000Y-77724000D01*
X-34925000Y61976000D02*
X42354500Y62039500D01*
D11*
G04 #@! TO.C,D1*
X37846000Y51308000D03*
D12*
X35306000Y51308000D03*
G04 #@! TD*
D10*
G04 #@! TO.C,C7*
G36*
X34304504Y-4659204D02*
X34328773Y-4662804D01*
X34352571Y-4668765D01*
X34375671Y-4677030D01*
X34397849Y-4687520D01*
X34418893Y-4700133D01*
X34438598Y-4714747D01*
X34456777Y-4731223D01*
X34473253Y-4749402D01*
X34487867Y-4769107D01*
X34500480Y-4790151D01*
X34510970Y-4812329D01*
X34519235Y-4835429D01*
X34525196Y-4859227D01*
X34528796Y-4883496D01*
X34530000Y-4908000D01*
X34530000Y-5833000D01*
X34528796Y-5857504D01*
X34525196Y-5881773D01*
X34519235Y-5905571D01*
X34510970Y-5928671D01*
X34500480Y-5950849D01*
X34487867Y-5971893D01*
X34473253Y-5991598D01*
X34456777Y-6009777D01*
X34438598Y-6026253D01*
X34418893Y-6040867D01*
X34397849Y-6053480D01*
X34375671Y-6063970D01*
X34352571Y-6072235D01*
X34328773Y-6078196D01*
X34304504Y-6081796D01*
X34280000Y-6083000D01*
X33030000Y-6083000D01*
X33005496Y-6081796D01*
X32981227Y-6078196D01*
X32957429Y-6072235D01*
X32934329Y-6063970D01*
X32912151Y-6053480D01*
X32891107Y-6040867D01*
X32871402Y-6026253D01*
X32853223Y-6009777D01*
X32836747Y-5991598D01*
X32822133Y-5971893D01*
X32809520Y-5950849D01*
X32799030Y-5928671D01*
X32790765Y-5905571D01*
X32784804Y-5881773D01*
X32781204Y-5857504D01*
X32780000Y-5833000D01*
X32780000Y-4908000D01*
X32781204Y-4883496D01*
X32784804Y-4859227D01*
X32790765Y-4835429D01*
X32799030Y-4812329D01*
X32809520Y-4790151D01*
X32822133Y-4769107D01*
X32836747Y-4749402D01*
X32853223Y-4731223D01*
X32871402Y-4714747D01*
X32891107Y-4700133D01*
X32912151Y-4687520D01*
X32934329Y-4677030D01*
X32957429Y-4668765D01*
X32981227Y-4662804D01*
X33005496Y-4659204D01*
X33030000Y-4658000D01*
X34280000Y-4658000D01*
X34304504Y-4659204D01*
X34304504Y-4659204D01*
G37*
D13*
X33655000Y-5370500D03*
D10*
G36*
X34304504Y-7634204D02*
X34328773Y-7637804D01*
X34352571Y-7643765D01*
X34375671Y-7652030D01*
X34397849Y-7662520D01*
X34418893Y-7675133D01*
X34438598Y-7689747D01*
X34456777Y-7706223D01*
X34473253Y-7724402D01*
X34487867Y-7744107D01*
X34500480Y-7765151D01*
X34510970Y-7787329D01*
X34519235Y-7810429D01*
X34525196Y-7834227D01*
X34528796Y-7858496D01*
X34530000Y-7883000D01*
X34530000Y-8808000D01*
X34528796Y-8832504D01*
X34525196Y-8856773D01*
X34519235Y-8880571D01*
X34510970Y-8903671D01*
X34500480Y-8925849D01*
X34487867Y-8946893D01*
X34473253Y-8966598D01*
X34456777Y-8984777D01*
X34438598Y-9001253D01*
X34418893Y-9015867D01*
X34397849Y-9028480D01*
X34375671Y-9038970D01*
X34352571Y-9047235D01*
X34328773Y-9053196D01*
X34304504Y-9056796D01*
X34280000Y-9058000D01*
X33030000Y-9058000D01*
X33005496Y-9056796D01*
X32981227Y-9053196D01*
X32957429Y-9047235D01*
X32934329Y-9038970D01*
X32912151Y-9028480D01*
X32891107Y-9015867D01*
X32871402Y-9001253D01*
X32853223Y-8984777D01*
X32836747Y-8966598D01*
X32822133Y-8946893D01*
X32809520Y-8925849D01*
X32799030Y-8903671D01*
X32790765Y-8880571D01*
X32784804Y-8856773D01*
X32781204Y-8832504D01*
X32780000Y-8808000D01*
X32780000Y-7883000D01*
X32781204Y-7858496D01*
X32784804Y-7834227D01*
X32790765Y-7810429D01*
X32799030Y-7787329D01*
X32809520Y-7765151D01*
X32822133Y-7744107D01*
X32836747Y-7724402D01*
X32853223Y-7706223D01*
X32871402Y-7689747D01*
X32891107Y-7675133D01*
X32912151Y-7662520D01*
X32934329Y-7652030D01*
X32957429Y-7643765D01*
X32981227Y-7637804D01*
X33005496Y-7634204D01*
X33030000Y-7633000D01*
X34280000Y-7633000D01*
X34304504Y-7634204D01*
X34304504Y-7634204D01*
G37*
D13*
X33655000Y-8345500D03*
G04 #@! TD*
D14*
G04 #@! TO.C,D5*
X-6517000Y-33274000D03*
X-11517000Y-33274000D03*
G04 #@! TD*
G04 #@! TO.C,D4*
X-6517000Y-25400000D03*
X-11517000Y-25400000D03*
G04 #@! TD*
G04 #@! TO.C,D3*
X-6517000Y-29210000D03*
X-11517000Y-29210000D03*
G04 #@! TD*
D15*
G04 #@! TO.C,D2*
X-127000Y52538000D03*
X-127000Y47538000D03*
G04 #@! TD*
D16*
G04 #@! TO.C,U19*
X36134000Y39370000D03*
X26604000Y41910000D03*
X36134000Y41910000D03*
X26604000Y39370000D03*
G04 #@! TD*
G04 #@! TO.C,U18*
X36134000Y32258000D03*
X26604000Y34798000D03*
X36134000Y34798000D03*
X26604000Y32258000D03*
G04 #@! TD*
D10*
G04 #@! TO.C,R33*
G36*
X21478504Y35925796D02*
X21502773Y35922196D01*
X21526571Y35916235D01*
X21549671Y35907970D01*
X21571849Y35897480D01*
X21592893Y35884867D01*
X21612598Y35870253D01*
X21630777Y35853777D01*
X21647253Y35835598D01*
X21661867Y35815893D01*
X21674480Y35794849D01*
X21684970Y35772671D01*
X21693235Y35749571D01*
X21699196Y35725773D01*
X21702796Y35701504D01*
X21704000Y35677000D01*
X21704000Y34427000D01*
X21702796Y34402496D01*
X21699196Y34378227D01*
X21693235Y34354429D01*
X21684970Y34331329D01*
X21674480Y34309151D01*
X21661867Y34288107D01*
X21647253Y34268402D01*
X21630777Y34250223D01*
X21612598Y34233747D01*
X21592893Y34219133D01*
X21571849Y34206520D01*
X21549671Y34196030D01*
X21526571Y34187765D01*
X21502773Y34181804D01*
X21478504Y34178204D01*
X21454000Y34177000D01*
X20529000Y34177000D01*
X20504496Y34178204D01*
X20480227Y34181804D01*
X20456429Y34187765D01*
X20433329Y34196030D01*
X20411151Y34206520D01*
X20390107Y34219133D01*
X20370402Y34233747D01*
X20352223Y34250223D01*
X20335747Y34268402D01*
X20321133Y34288107D01*
X20308520Y34309151D01*
X20298030Y34331329D01*
X20289765Y34354429D01*
X20283804Y34378227D01*
X20280204Y34402496D01*
X20279000Y34427000D01*
X20279000Y35677000D01*
X20280204Y35701504D01*
X20283804Y35725773D01*
X20289765Y35749571D01*
X20298030Y35772671D01*
X20308520Y35794849D01*
X20321133Y35815893D01*
X20335747Y35835598D01*
X20352223Y35853777D01*
X20370402Y35870253D01*
X20390107Y35884867D01*
X20411151Y35897480D01*
X20433329Y35907970D01*
X20456429Y35916235D01*
X20480227Y35922196D01*
X20504496Y35925796D01*
X20529000Y35927000D01*
X21454000Y35927000D01*
X21478504Y35925796D01*
X21478504Y35925796D01*
G37*
D13*
X20991500Y35052000D03*
D10*
G36*
X24453504Y35925796D02*
X24477773Y35922196D01*
X24501571Y35916235D01*
X24524671Y35907970D01*
X24546849Y35897480D01*
X24567893Y35884867D01*
X24587598Y35870253D01*
X24605777Y35853777D01*
X24622253Y35835598D01*
X24636867Y35815893D01*
X24649480Y35794849D01*
X24659970Y35772671D01*
X24668235Y35749571D01*
X24674196Y35725773D01*
X24677796Y35701504D01*
X24679000Y35677000D01*
X24679000Y34427000D01*
X24677796Y34402496D01*
X24674196Y34378227D01*
X24668235Y34354429D01*
X24659970Y34331329D01*
X24649480Y34309151D01*
X24636867Y34288107D01*
X24622253Y34268402D01*
X24605777Y34250223D01*
X24587598Y34233747D01*
X24567893Y34219133D01*
X24546849Y34206520D01*
X24524671Y34196030D01*
X24501571Y34187765D01*
X24477773Y34181804D01*
X24453504Y34178204D01*
X24429000Y34177000D01*
X23504000Y34177000D01*
X23479496Y34178204D01*
X23455227Y34181804D01*
X23431429Y34187765D01*
X23408329Y34196030D01*
X23386151Y34206520D01*
X23365107Y34219133D01*
X23345402Y34233747D01*
X23327223Y34250223D01*
X23310747Y34268402D01*
X23296133Y34288107D01*
X23283520Y34309151D01*
X23273030Y34331329D01*
X23264765Y34354429D01*
X23258804Y34378227D01*
X23255204Y34402496D01*
X23254000Y34427000D01*
X23254000Y35677000D01*
X23255204Y35701504D01*
X23258804Y35725773D01*
X23264765Y35749571D01*
X23273030Y35772671D01*
X23283520Y35794849D01*
X23296133Y35815893D01*
X23310747Y35835598D01*
X23327223Y35853777D01*
X23345402Y35870253D01*
X23365107Y35884867D01*
X23386151Y35897480D01*
X23408329Y35907970D01*
X23431429Y35916235D01*
X23455227Y35922196D01*
X23479496Y35925796D01*
X23504000Y35927000D01*
X24429000Y35927000D01*
X24453504Y35925796D01*
X24453504Y35925796D01*
G37*
D13*
X23966500Y35052000D03*
G04 #@! TD*
D10*
G04 #@! TO.C,R32*
G36*
X21732504Y40243796D02*
X21756773Y40240196D01*
X21780571Y40234235D01*
X21803671Y40225970D01*
X21825849Y40215480D01*
X21846893Y40202867D01*
X21866598Y40188253D01*
X21884777Y40171777D01*
X21901253Y40153598D01*
X21915867Y40133893D01*
X21928480Y40112849D01*
X21938970Y40090671D01*
X21947235Y40067571D01*
X21953196Y40043773D01*
X21956796Y40019504D01*
X21958000Y39995000D01*
X21958000Y38745000D01*
X21956796Y38720496D01*
X21953196Y38696227D01*
X21947235Y38672429D01*
X21938970Y38649329D01*
X21928480Y38627151D01*
X21915867Y38606107D01*
X21901253Y38586402D01*
X21884777Y38568223D01*
X21866598Y38551747D01*
X21846893Y38537133D01*
X21825849Y38524520D01*
X21803671Y38514030D01*
X21780571Y38505765D01*
X21756773Y38499804D01*
X21732504Y38496204D01*
X21708000Y38495000D01*
X20783000Y38495000D01*
X20758496Y38496204D01*
X20734227Y38499804D01*
X20710429Y38505765D01*
X20687329Y38514030D01*
X20665151Y38524520D01*
X20644107Y38537133D01*
X20624402Y38551747D01*
X20606223Y38568223D01*
X20589747Y38586402D01*
X20575133Y38606107D01*
X20562520Y38627151D01*
X20552030Y38649329D01*
X20543765Y38672429D01*
X20537804Y38696227D01*
X20534204Y38720496D01*
X20533000Y38745000D01*
X20533000Y39995000D01*
X20534204Y40019504D01*
X20537804Y40043773D01*
X20543765Y40067571D01*
X20552030Y40090671D01*
X20562520Y40112849D01*
X20575133Y40133893D01*
X20589747Y40153598D01*
X20606223Y40171777D01*
X20624402Y40188253D01*
X20644107Y40202867D01*
X20665151Y40215480D01*
X20687329Y40225970D01*
X20710429Y40234235D01*
X20734227Y40240196D01*
X20758496Y40243796D01*
X20783000Y40245000D01*
X21708000Y40245000D01*
X21732504Y40243796D01*
X21732504Y40243796D01*
G37*
D13*
X21245500Y39370000D03*
D10*
G36*
X24707504Y40243796D02*
X24731773Y40240196D01*
X24755571Y40234235D01*
X24778671Y40225970D01*
X24800849Y40215480D01*
X24821893Y40202867D01*
X24841598Y40188253D01*
X24859777Y40171777D01*
X24876253Y40153598D01*
X24890867Y40133893D01*
X24903480Y40112849D01*
X24913970Y40090671D01*
X24922235Y40067571D01*
X24928196Y40043773D01*
X24931796Y40019504D01*
X24933000Y39995000D01*
X24933000Y38745000D01*
X24931796Y38720496D01*
X24928196Y38696227D01*
X24922235Y38672429D01*
X24913970Y38649329D01*
X24903480Y38627151D01*
X24890867Y38606107D01*
X24876253Y38586402D01*
X24859777Y38568223D01*
X24841598Y38551747D01*
X24821893Y38537133D01*
X24800849Y38524520D01*
X24778671Y38514030D01*
X24755571Y38505765D01*
X24731773Y38499804D01*
X24707504Y38496204D01*
X24683000Y38495000D01*
X23758000Y38495000D01*
X23733496Y38496204D01*
X23709227Y38499804D01*
X23685429Y38505765D01*
X23662329Y38514030D01*
X23640151Y38524520D01*
X23619107Y38537133D01*
X23599402Y38551747D01*
X23581223Y38568223D01*
X23564747Y38586402D01*
X23550133Y38606107D01*
X23537520Y38627151D01*
X23527030Y38649329D01*
X23518765Y38672429D01*
X23512804Y38696227D01*
X23509204Y38720496D01*
X23508000Y38745000D01*
X23508000Y39995000D01*
X23509204Y40019504D01*
X23512804Y40043773D01*
X23518765Y40067571D01*
X23527030Y40090671D01*
X23537520Y40112849D01*
X23550133Y40133893D01*
X23564747Y40153598D01*
X23581223Y40171777D01*
X23599402Y40188253D01*
X23619107Y40202867D01*
X23640151Y40215480D01*
X23662329Y40225970D01*
X23685429Y40234235D01*
X23709227Y40240196D01*
X23733496Y40243796D01*
X23758000Y40245000D01*
X24683000Y40245000D01*
X24707504Y40243796D01*
X24707504Y40243796D01*
G37*
D13*
X24220500Y39370000D03*
G04 #@! TD*
D10*
G04 #@! TO.C,R31*
G36*
X27973004Y-12334204D02*
X27997273Y-12337804D01*
X28021071Y-12343765D01*
X28044171Y-12352030D01*
X28066349Y-12362520D01*
X28087393Y-12375133D01*
X28107098Y-12389747D01*
X28125277Y-12406223D01*
X28141753Y-12424402D01*
X28156367Y-12444107D01*
X28168980Y-12465151D01*
X28179470Y-12487329D01*
X28187735Y-12510429D01*
X28193696Y-12534227D01*
X28197296Y-12558496D01*
X28198500Y-12583000D01*
X28198500Y-13833000D01*
X28197296Y-13857504D01*
X28193696Y-13881773D01*
X28187735Y-13905571D01*
X28179470Y-13928671D01*
X28168980Y-13950849D01*
X28156367Y-13971893D01*
X28141753Y-13991598D01*
X28125277Y-14009777D01*
X28107098Y-14026253D01*
X28087393Y-14040867D01*
X28066349Y-14053480D01*
X28044171Y-14063970D01*
X28021071Y-14072235D01*
X27997273Y-14078196D01*
X27973004Y-14081796D01*
X27948500Y-14083000D01*
X27023500Y-14083000D01*
X26998996Y-14081796D01*
X26974727Y-14078196D01*
X26950929Y-14072235D01*
X26927829Y-14063970D01*
X26905651Y-14053480D01*
X26884607Y-14040867D01*
X26864902Y-14026253D01*
X26846723Y-14009777D01*
X26830247Y-13991598D01*
X26815633Y-13971893D01*
X26803020Y-13950849D01*
X26792530Y-13928671D01*
X26784265Y-13905571D01*
X26778304Y-13881773D01*
X26774704Y-13857504D01*
X26773500Y-13833000D01*
X26773500Y-12583000D01*
X26774704Y-12558496D01*
X26778304Y-12534227D01*
X26784265Y-12510429D01*
X26792530Y-12487329D01*
X26803020Y-12465151D01*
X26815633Y-12444107D01*
X26830247Y-12424402D01*
X26846723Y-12406223D01*
X26864902Y-12389747D01*
X26884607Y-12375133D01*
X26905651Y-12362520D01*
X26927829Y-12352030D01*
X26950929Y-12343765D01*
X26974727Y-12337804D01*
X26998996Y-12334204D01*
X27023500Y-12333000D01*
X27948500Y-12333000D01*
X27973004Y-12334204D01*
X27973004Y-12334204D01*
G37*
D13*
X27486000Y-13208000D03*
D10*
G36*
X24998004Y-12334204D02*
X25022273Y-12337804D01*
X25046071Y-12343765D01*
X25069171Y-12352030D01*
X25091349Y-12362520D01*
X25112393Y-12375133D01*
X25132098Y-12389747D01*
X25150277Y-12406223D01*
X25166753Y-12424402D01*
X25181367Y-12444107D01*
X25193980Y-12465151D01*
X25204470Y-12487329D01*
X25212735Y-12510429D01*
X25218696Y-12534227D01*
X25222296Y-12558496D01*
X25223500Y-12583000D01*
X25223500Y-13833000D01*
X25222296Y-13857504D01*
X25218696Y-13881773D01*
X25212735Y-13905571D01*
X25204470Y-13928671D01*
X25193980Y-13950849D01*
X25181367Y-13971893D01*
X25166753Y-13991598D01*
X25150277Y-14009777D01*
X25132098Y-14026253D01*
X25112393Y-14040867D01*
X25091349Y-14053480D01*
X25069171Y-14063970D01*
X25046071Y-14072235D01*
X25022273Y-14078196D01*
X24998004Y-14081796D01*
X24973500Y-14083000D01*
X24048500Y-14083000D01*
X24023996Y-14081796D01*
X23999727Y-14078196D01*
X23975929Y-14072235D01*
X23952829Y-14063970D01*
X23930651Y-14053480D01*
X23909607Y-14040867D01*
X23889902Y-14026253D01*
X23871723Y-14009777D01*
X23855247Y-13991598D01*
X23840633Y-13971893D01*
X23828020Y-13950849D01*
X23817530Y-13928671D01*
X23809265Y-13905571D01*
X23803304Y-13881773D01*
X23799704Y-13857504D01*
X23798500Y-13833000D01*
X23798500Y-12583000D01*
X23799704Y-12558496D01*
X23803304Y-12534227D01*
X23809265Y-12510429D01*
X23817530Y-12487329D01*
X23828020Y-12465151D01*
X23840633Y-12444107D01*
X23855247Y-12424402D01*
X23871723Y-12406223D01*
X23889902Y-12389747D01*
X23909607Y-12375133D01*
X23930651Y-12362520D01*
X23952829Y-12352030D01*
X23975929Y-12343765D01*
X23999727Y-12337804D01*
X24023996Y-12334204D01*
X24048500Y-12333000D01*
X24973500Y-12333000D01*
X24998004Y-12334204D01*
X24998004Y-12334204D01*
G37*
D13*
X24511000Y-13208000D03*
G04 #@! TD*
D10*
G04 #@! TO.C,R30*
G36*
X39384504Y35726796D02*
X39408773Y35723196D01*
X39432571Y35717235D01*
X39455671Y35708970D01*
X39477849Y35698480D01*
X39498893Y35685867D01*
X39518598Y35671253D01*
X39536777Y35654777D01*
X39553253Y35636598D01*
X39567867Y35616893D01*
X39580480Y35595849D01*
X39590970Y35573671D01*
X39599235Y35550571D01*
X39605196Y35526773D01*
X39608796Y35502504D01*
X39610000Y35478000D01*
X39610000Y34553000D01*
X39608796Y34528496D01*
X39605196Y34504227D01*
X39599235Y34480429D01*
X39590970Y34457329D01*
X39580480Y34435151D01*
X39567867Y34414107D01*
X39553253Y34394402D01*
X39536777Y34376223D01*
X39518598Y34359747D01*
X39498893Y34345133D01*
X39477849Y34332520D01*
X39455671Y34322030D01*
X39432571Y34313765D01*
X39408773Y34307804D01*
X39384504Y34304204D01*
X39360000Y34303000D01*
X38110000Y34303000D01*
X38085496Y34304204D01*
X38061227Y34307804D01*
X38037429Y34313765D01*
X38014329Y34322030D01*
X37992151Y34332520D01*
X37971107Y34345133D01*
X37951402Y34359747D01*
X37933223Y34376223D01*
X37916747Y34394402D01*
X37902133Y34414107D01*
X37889520Y34435151D01*
X37879030Y34457329D01*
X37870765Y34480429D01*
X37864804Y34504227D01*
X37861204Y34528496D01*
X37860000Y34553000D01*
X37860000Y35478000D01*
X37861204Y35502504D01*
X37864804Y35526773D01*
X37870765Y35550571D01*
X37879030Y35573671D01*
X37889520Y35595849D01*
X37902133Y35616893D01*
X37916747Y35636598D01*
X37933223Y35654777D01*
X37951402Y35671253D01*
X37971107Y35685867D01*
X37992151Y35698480D01*
X38014329Y35708970D01*
X38037429Y35717235D01*
X38061227Y35723196D01*
X38085496Y35726796D01*
X38110000Y35728000D01*
X39360000Y35728000D01*
X39384504Y35726796D01*
X39384504Y35726796D01*
G37*
D13*
X38735000Y35015500D03*
D10*
G36*
X39384504Y32751796D02*
X39408773Y32748196D01*
X39432571Y32742235D01*
X39455671Y32733970D01*
X39477849Y32723480D01*
X39498893Y32710867D01*
X39518598Y32696253D01*
X39536777Y32679777D01*
X39553253Y32661598D01*
X39567867Y32641893D01*
X39580480Y32620849D01*
X39590970Y32598671D01*
X39599235Y32575571D01*
X39605196Y32551773D01*
X39608796Y32527504D01*
X39610000Y32503000D01*
X39610000Y31578000D01*
X39608796Y31553496D01*
X39605196Y31529227D01*
X39599235Y31505429D01*
X39590970Y31482329D01*
X39580480Y31460151D01*
X39567867Y31439107D01*
X39553253Y31419402D01*
X39536777Y31401223D01*
X39518598Y31384747D01*
X39498893Y31370133D01*
X39477849Y31357520D01*
X39455671Y31347030D01*
X39432571Y31338765D01*
X39408773Y31332804D01*
X39384504Y31329204D01*
X39360000Y31328000D01*
X38110000Y31328000D01*
X38085496Y31329204D01*
X38061227Y31332804D01*
X38037429Y31338765D01*
X38014329Y31347030D01*
X37992151Y31357520D01*
X37971107Y31370133D01*
X37951402Y31384747D01*
X37933223Y31401223D01*
X37916747Y31419402D01*
X37902133Y31439107D01*
X37889520Y31460151D01*
X37879030Y31482329D01*
X37870765Y31505429D01*
X37864804Y31529227D01*
X37861204Y31553496D01*
X37860000Y31578000D01*
X37860000Y32503000D01*
X37861204Y32527504D01*
X37864804Y32551773D01*
X37870765Y32575571D01*
X37879030Y32598671D01*
X37889520Y32620849D01*
X37902133Y32641893D01*
X37916747Y32661598D01*
X37933223Y32679777D01*
X37951402Y32696253D01*
X37971107Y32710867D01*
X37992151Y32723480D01*
X38014329Y32733970D01*
X38037429Y32742235D01*
X38061227Y32748196D01*
X38085496Y32751796D01*
X38110000Y32753000D01*
X39360000Y32753000D01*
X39384504Y32751796D01*
X39384504Y32751796D01*
G37*
D13*
X38735000Y32040500D03*
G04 #@! TD*
D10*
G04 #@! TO.C,R29*
G36*
X21515004Y33131796D02*
X21539273Y33128196D01*
X21563071Y33122235D01*
X21586171Y33113970D01*
X21608349Y33103480D01*
X21629393Y33090867D01*
X21649098Y33076253D01*
X21667277Y33059777D01*
X21683753Y33041598D01*
X21698367Y33021893D01*
X21710980Y33000849D01*
X21721470Y32978671D01*
X21729735Y32955571D01*
X21735696Y32931773D01*
X21739296Y32907504D01*
X21740500Y32883000D01*
X21740500Y31633000D01*
X21739296Y31608496D01*
X21735696Y31584227D01*
X21729735Y31560429D01*
X21721470Y31537329D01*
X21710980Y31515151D01*
X21698367Y31494107D01*
X21683753Y31474402D01*
X21667277Y31456223D01*
X21649098Y31439747D01*
X21629393Y31425133D01*
X21608349Y31412520D01*
X21586171Y31402030D01*
X21563071Y31393765D01*
X21539273Y31387804D01*
X21515004Y31384204D01*
X21490500Y31383000D01*
X20565500Y31383000D01*
X20540996Y31384204D01*
X20516727Y31387804D01*
X20492929Y31393765D01*
X20469829Y31402030D01*
X20447651Y31412520D01*
X20426607Y31425133D01*
X20406902Y31439747D01*
X20388723Y31456223D01*
X20372247Y31474402D01*
X20357633Y31494107D01*
X20345020Y31515151D01*
X20334530Y31537329D01*
X20326265Y31560429D01*
X20320304Y31584227D01*
X20316704Y31608496D01*
X20315500Y31633000D01*
X20315500Y32883000D01*
X20316704Y32907504D01*
X20320304Y32931773D01*
X20326265Y32955571D01*
X20334530Y32978671D01*
X20345020Y33000849D01*
X20357633Y33021893D01*
X20372247Y33041598D01*
X20388723Y33059777D01*
X20406902Y33076253D01*
X20426607Y33090867D01*
X20447651Y33103480D01*
X20469829Y33113970D01*
X20492929Y33122235D01*
X20516727Y33128196D01*
X20540996Y33131796D01*
X20565500Y33133000D01*
X21490500Y33133000D01*
X21515004Y33131796D01*
X21515004Y33131796D01*
G37*
D13*
X21028000Y32258000D03*
D10*
G36*
X24490004Y33131796D02*
X24514273Y33128196D01*
X24538071Y33122235D01*
X24561171Y33113970D01*
X24583349Y33103480D01*
X24604393Y33090867D01*
X24624098Y33076253D01*
X24642277Y33059777D01*
X24658753Y33041598D01*
X24673367Y33021893D01*
X24685980Y33000849D01*
X24696470Y32978671D01*
X24704735Y32955571D01*
X24710696Y32931773D01*
X24714296Y32907504D01*
X24715500Y32883000D01*
X24715500Y31633000D01*
X24714296Y31608496D01*
X24710696Y31584227D01*
X24704735Y31560429D01*
X24696470Y31537329D01*
X24685980Y31515151D01*
X24673367Y31494107D01*
X24658753Y31474402D01*
X24642277Y31456223D01*
X24624098Y31439747D01*
X24604393Y31425133D01*
X24583349Y31412520D01*
X24561171Y31402030D01*
X24538071Y31393765D01*
X24514273Y31387804D01*
X24490004Y31384204D01*
X24465500Y31383000D01*
X23540500Y31383000D01*
X23515996Y31384204D01*
X23491727Y31387804D01*
X23467929Y31393765D01*
X23444829Y31402030D01*
X23422651Y31412520D01*
X23401607Y31425133D01*
X23381902Y31439747D01*
X23363723Y31456223D01*
X23347247Y31474402D01*
X23332633Y31494107D01*
X23320020Y31515151D01*
X23309530Y31537329D01*
X23301265Y31560429D01*
X23295304Y31584227D01*
X23291704Y31608496D01*
X23290500Y31633000D01*
X23290500Y32883000D01*
X23291704Y32907504D01*
X23295304Y32931773D01*
X23301265Y32955571D01*
X23309530Y32978671D01*
X23320020Y33000849D01*
X23332633Y33021893D01*
X23347247Y33041598D01*
X23363723Y33059777D01*
X23381902Y33076253D01*
X23401607Y33090867D01*
X23422651Y33103480D01*
X23444829Y33113970D01*
X23467929Y33122235D01*
X23491727Y33128196D01*
X23515996Y33131796D01*
X23540500Y33133000D01*
X24465500Y33133000D01*
X24490004Y33131796D01*
X24490004Y33131796D01*
G37*
D13*
X24003000Y32258000D03*
G04 #@! TD*
D17*
G04 #@! TO.C,RESET_CAP_JUMPER1*
X28351000Y21844000D03*
D10*
G36*
X28351000Y22593398D02*
X28375534Y22593398D01*
X28424365Y22588588D01*
X28472490Y22579016D01*
X28519445Y22564772D01*
X28564778Y22545995D01*
X28608051Y22522864D01*
X28648850Y22495604D01*
X28686779Y22464476D01*
X28721476Y22429779D01*
X28752604Y22391850D01*
X28779864Y22351051D01*
X28802995Y22307778D01*
X28821772Y22262445D01*
X28836016Y22215490D01*
X28845588Y22167365D01*
X28850398Y22118534D01*
X28850398Y22094000D01*
X28851000Y22094000D01*
X28851000Y21594000D01*
X28850398Y21594000D01*
X28850398Y21569466D01*
X28845588Y21520635D01*
X28836016Y21472510D01*
X28821772Y21425555D01*
X28802995Y21380222D01*
X28779864Y21336949D01*
X28752604Y21296150D01*
X28721476Y21258221D01*
X28686779Y21223524D01*
X28648850Y21192396D01*
X28608051Y21165136D01*
X28564778Y21142005D01*
X28519445Y21123228D01*
X28472490Y21108984D01*
X28424365Y21099412D01*
X28375534Y21094602D01*
X28351000Y21094602D01*
X28351000Y21094000D01*
X27851000Y21094000D01*
X27851000Y22594000D01*
X28351000Y22594000D01*
X28351000Y22593398D01*
X28351000Y22593398D01*
G37*
D17*
X27051000Y21844000D03*
D10*
G36*
X27551000Y22144000D02*
X27951000Y22144000D01*
X27951000Y21544000D01*
X27551000Y21544000D01*
X27551000Y21094000D01*
X27051000Y21094000D01*
X27051000Y21094602D01*
X27026466Y21094602D01*
X26977635Y21099412D01*
X26929510Y21108984D01*
X26882555Y21123228D01*
X26837222Y21142005D01*
X26793949Y21165136D01*
X26753150Y21192396D01*
X26715221Y21223524D01*
X26680524Y21258221D01*
X26649396Y21296150D01*
X26622136Y21336949D01*
X26599005Y21380222D01*
X26580228Y21425555D01*
X26565984Y21472510D01*
X26556412Y21520635D01*
X26551602Y21569466D01*
X26551602Y21594000D01*
X26551000Y21594000D01*
X26551000Y22094000D01*
X26551602Y22094000D01*
X26551602Y22118534D01*
X26556412Y22167365D01*
X26565984Y22215490D01*
X26580228Y22262445D01*
X26599005Y22307778D01*
X26622136Y22351051D01*
X26649396Y22391850D01*
X26680524Y22429779D01*
X26715221Y22464476D01*
X26753150Y22495604D01*
X26793949Y22522864D01*
X26837222Y22545995D01*
X26882555Y22564772D01*
X26929510Y22579016D01*
X26977635Y22588588D01*
X27026466Y22593398D01*
X27051000Y22593398D01*
X27051000Y22594000D01*
X27551000Y22594000D01*
X27551000Y22144000D01*
X27551000Y22144000D01*
G37*
G04 #@! TD*
D18*
G04 #@! TO.C,Serial_conn1*
X17399000Y32258000D03*
X17399000Y34798000D03*
X17399000Y37338000D03*
D19*
X17399000Y39878000D03*
G04 #@! TD*
D10*
G04 #@! TO.C,C4*
G36*
X31384504Y22717796D02*
X31408773Y22714196D01*
X31432571Y22708235D01*
X31455671Y22699970D01*
X31477849Y22689480D01*
X31498893Y22676867D01*
X31518598Y22662253D01*
X31536777Y22645777D01*
X31553253Y22627598D01*
X31567867Y22607893D01*
X31580480Y22586849D01*
X31590970Y22564671D01*
X31599235Y22541571D01*
X31605196Y22517773D01*
X31608796Y22493504D01*
X31610000Y22469000D01*
X31610000Y21219000D01*
X31608796Y21194496D01*
X31605196Y21170227D01*
X31599235Y21146429D01*
X31590970Y21123329D01*
X31580480Y21101151D01*
X31567867Y21080107D01*
X31553253Y21060402D01*
X31536777Y21042223D01*
X31518598Y21025747D01*
X31498893Y21011133D01*
X31477849Y20998520D01*
X31455671Y20988030D01*
X31432571Y20979765D01*
X31408773Y20973804D01*
X31384504Y20970204D01*
X31360000Y20969000D01*
X30435000Y20969000D01*
X30410496Y20970204D01*
X30386227Y20973804D01*
X30362429Y20979765D01*
X30339329Y20988030D01*
X30317151Y20998520D01*
X30296107Y21011133D01*
X30276402Y21025747D01*
X30258223Y21042223D01*
X30241747Y21060402D01*
X30227133Y21080107D01*
X30214520Y21101151D01*
X30204030Y21123329D01*
X30195765Y21146429D01*
X30189804Y21170227D01*
X30186204Y21194496D01*
X30185000Y21219000D01*
X30185000Y22469000D01*
X30186204Y22493504D01*
X30189804Y22517773D01*
X30195765Y22541571D01*
X30204030Y22564671D01*
X30214520Y22586849D01*
X30227133Y22607893D01*
X30241747Y22627598D01*
X30258223Y22645777D01*
X30276402Y22662253D01*
X30296107Y22676867D01*
X30317151Y22689480D01*
X30339329Y22699970D01*
X30362429Y22708235D01*
X30386227Y22714196D01*
X30410496Y22717796D01*
X30435000Y22719000D01*
X31360000Y22719000D01*
X31384504Y22717796D01*
X31384504Y22717796D01*
G37*
D13*
X30897500Y21844000D03*
D10*
G36*
X34359504Y22717796D02*
X34383773Y22714196D01*
X34407571Y22708235D01*
X34430671Y22699970D01*
X34452849Y22689480D01*
X34473893Y22676867D01*
X34493598Y22662253D01*
X34511777Y22645777D01*
X34528253Y22627598D01*
X34542867Y22607893D01*
X34555480Y22586849D01*
X34565970Y22564671D01*
X34574235Y22541571D01*
X34580196Y22517773D01*
X34583796Y22493504D01*
X34585000Y22469000D01*
X34585000Y21219000D01*
X34583796Y21194496D01*
X34580196Y21170227D01*
X34574235Y21146429D01*
X34565970Y21123329D01*
X34555480Y21101151D01*
X34542867Y21080107D01*
X34528253Y21060402D01*
X34511777Y21042223D01*
X34493598Y21025747D01*
X34473893Y21011133D01*
X34452849Y20998520D01*
X34430671Y20988030D01*
X34407571Y20979765D01*
X34383773Y20973804D01*
X34359504Y20970204D01*
X34335000Y20969000D01*
X33410000Y20969000D01*
X33385496Y20970204D01*
X33361227Y20973804D01*
X33337429Y20979765D01*
X33314329Y20988030D01*
X33292151Y20998520D01*
X33271107Y21011133D01*
X33251402Y21025747D01*
X33233223Y21042223D01*
X33216747Y21060402D01*
X33202133Y21080107D01*
X33189520Y21101151D01*
X33179030Y21123329D01*
X33170765Y21146429D01*
X33164804Y21170227D01*
X33161204Y21194496D01*
X33160000Y21219000D01*
X33160000Y22469000D01*
X33161204Y22493504D01*
X33164804Y22517773D01*
X33170765Y22541571D01*
X33179030Y22564671D01*
X33189520Y22586849D01*
X33202133Y22607893D01*
X33216747Y22627598D01*
X33233223Y22645777D01*
X33251402Y22662253D01*
X33271107Y22676867D01*
X33292151Y22689480D01*
X33314329Y22699970D01*
X33337429Y22708235D01*
X33361227Y22714196D01*
X33385496Y22717796D01*
X33410000Y22719000D01*
X34335000Y22719000D01*
X34359504Y22717796D01*
X34359504Y22717796D01*
G37*
D13*
X33872500Y21844000D03*
G04 #@! TD*
D20*
G04 #@! TO.C,SIGNAL_SOCKET1*
X-26289000Y-74792000D03*
X-26289000Y-71292000D03*
X-26289000Y-67792000D03*
X-26289000Y-64292000D03*
X-26289000Y-60792000D03*
X-26289000Y-57292000D03*
X-26289000Y-53792000D03*
D10*
G36*
X-24714496Y-49393204D02*
X-24690227Y-49396804D01*
X-24666429Y-49402765D01*
X-24643329Y-49411030D01*
X-24621151Y-49421520D01*
X-24600107Y-49434133D01*
X-24580402Y-49448747D01*
X-24562223Y-49465223D01*
X-24545747Y-49483402D01*
X-24531133Y-49503107D01*
X-24518520Y-49524151D01*
X-24508030Y-49546329D01*
X-24499765Y-49569429D01*
X-24493804Y-49593227D01*
X-24490204Y-49617496D01*
X-24489000Y-49642000D01*
X-24489000Y-50942000D01*
X-24490204Y-50966504D01*
X-24493804Y-50990773D01*
X-24499765Y-51014571D01*
X-24508030Y-51037671D01*
X-24518520Y-51059849D01*
X-24531133Y-51080893D01*
X-24545747Y-51100598D01*
X-24562223Y-51118777D01*
X-24580402Y-51135253D01*
X-24600107Y-51149867D01*
X-24621151Y-51162480D01*
X-24643329Y-51172970D01*
X-24666429Y-51181235D01*
X-24690227Y-51187196D01*
X-24714496Y-51190796D01*
X-24739000Y-51192000D01*
X-27839000Y-51192000D01*
X-27863504Y-51190796D01*
X-27887773Y-51187196D01*
X-27911571Y-51181235D01*
X-27934671Y-51172970D01*
X-27956849Y-51162480D01*
X-27977893Y-51149867D01*
X-27997598Y-51135253D01*
X-28015777Y-51118777D01*
X-28032253Y-51100598D01*
X-28046867Y-51080893D01*
X-28059480Y-51059849D01*
X-28069970Y-51037671D01*
X-28078235Y-51014571D01*
X-28084196Y-50990773D01*
X-28087796Y-50966504D01*
X-28089000Y-50942000D01*
X-28089000Y-49642000D01*
X-28087796Y-49617496D01*
X-28084196Y-49593227D01*
X-28078235Y-49569429D01*
X-28069970Y-49546329D01*
X-28059480Y-49524151D01*
X-28046867Y-49503107D01*
X-28032253Y-49483402D01*
X-28015777Y-49465223D01*
X-27997598Y-49448747D01*
X-27977893Y-49434133D01*
X-27956849Y-49421520D01*
X-27934671Y-49411030D01*
X-27911571Y-49402765D01*
X-27887773Y-49396804D01*
X-27863504Y-49393204D01*
X-27839000Y-49392000D01*
X-24739000Y-49392000D01*
X-24714496Y-49393204D01*
X-24714496Y-49393204D01*
G37*
D11*
X-26289000Y-50292000D03*
G04 #@! TD*
D20*
G04 #@! TO.C,Z_PLUG_SOCKET1*
X-26162000Y-43677000D03*
X-26162000Y-40177000D03*
X-26162000Y-36677000D03*
X-26162000Y-33177000D03*
X-26162000Y-29677000D03*
X-26162000Y-26177000D03*
X-26162000Y-22677000D03*
D10*
G36*
X-24587496Y-18278204D02*
X-24563227Y-18281804D01*
X-24539429Y-18287765D01*
X-24516329Y-18296030D01*
X-24494151Y-18306520D01*
X-24473107Y-18319133D01*
X-24453402Y-18333747D01*
X-24435223Y-18350223D01*
X-24418747Y-18368402D01*
X-24404133Y-18388107D01*
X-24391520Y-18409151D01*
X-24381030Y-18431329D01*
X-24372765Y-18454429D01*
X-24366804Y-18478227D01*
X-24363204Y-18502496D01*
X-24362000Y-18527000D01*
X-24362000Y-19827000D01*
X-24363204Y-19851504D01*
X-24366804Y-19875773D01*
X-24372765Y-19899571D01*
X-24381030Y-19922671D01*
X-24391520Y-19944849D01*
X-24404133Y-19965893D01*
X-24418747Y-19985598D01*
X-24435223Y-20003777D01*
X-24453402Y-20020253D01*
X-24473107Y-20034867D01*
X-24494151Y-20047480D01*
X-24516329Y-20057970D01*
X-24539429Y-20066235D01*
X-24563227Y-20072196D01*
X-24587496Y-20075796D01*
X-24612000Y-20077000D01*
X-27712000Y-20077000D01*
X-27736504Y-20075796D01*
X-27760773Y-20072196D01*
X-27784571Y-20066235D01*
X-27807671Y-20057970D01*
X-27829849Y-20047480D01*
X-27850893Y-20034867D01*
X-27870598Y-20020253D01*
X-27888777Y-20003777D01*
X-27905253Y-19985598D01*
X-27919867Y-19965893D01*
X-27932480Y-19944849D01*
X-27942970Y-19922671D01*
X-27951235Y-19899571D01*
X-27957196Y-19875773D01*
X-27960796Y-19851504D01*
X-27962000Y-19827000D01*
X-27962000Y-18527000D01*
X-27960796Y-18502496D01*
X-27957196Y-18478227D01*
X-27951235Y-18454429D01*
X-27942970Y-18431329D01*
X-27932480Y-18409151D01*
X-27919867Y-18388107D01*
X-27905253Y-18368402D01*
X-27888777Y-18350223D01*
X-27870598Y-18333747D01*
X-27850893Y-18319133D01*
X-27829849Y-18306520D01*
X-27807671Y-18296030D01*
X-27784571Y-18287765D01*
X-27760773Y-18281804D01*
X-27736504Y-18278204D01*
X-27712000Y-18277000D01*
X-24612000Y-18277000D01*
X-24587496Y-18278204D01*
X-24587496Y-18278204D01*
G37*
D11*
X-26162000Y-19177000D03*
G04 #@! TD*
D16*
G04 #@! TO.C,U3*
X-2923500Y-42227500D03*
X6606500Y-44767500D03*
X-2923500Y-44767500D03*
X6606500Y-42227500D03*
G04 #@! TD*
D21*
G04 #@! TO.C,U17*
X-7747000Y-64831000D03*
X-10287000Y-74361000D03*
X-10287000Y-64831000D03*
X-7747000Y-74361000D03*
G04 #@! TD*
D10*
G04 #@! TO.C,R28*
G36*
X-16113496Y-73294204D02*
X-16089227Y-73297804D01*
X-16065429Y-73303765D01*
X-16042329Y-73312030D01*
X-16020151Y-73322520D01*
X-15999107Y-73335133D01*
X-15979402Y-73349747D01*
X-15961223Y-73366223D01*
X-15944747Y-73384402D01*
X-15930133Y-73404107D01*
X-15917520Y-73425151D01*
X-15907030Y-73447329D01*
X-15898765Y-73470429D01*
X-15892804Y-73494227D01*
X-15889204Y-73518496D01*
X-15888000Y-73543000D01*
X-15888000Y-74793000D01*
X-15889204Y-74817504D01*
X-15892804Y-74841773D01*
X-15898765Y-74865571D01*
X-15907030Y-74888671D01*
X-15917520Y-74910849D01*
X-15930133Y-74931893D01*
X-15944747Y-74951598D01*
X-15961223Y-74969777D01*
X-15979402Y-74986253D01*
X-15999107Y-75000867D01*
X-16020151Y-75013480D01*
X-16042329Y-75023970D01*
X-16065429Y-75032235D01*
X-16089227Y-75038196D01*
X-16113496Y-75041796D01*
X-16138000Y-75043000D01*
X-17063000Y-75043000D01*
X-17087504Y-75041796D01*
X-17111773Y-75038196D01*
X-17135571Y-75032235D01*
X-17158671Y-75023970D01*
X-17180849Y-75013480D01*
X-17201893Y-75000867D01*
X-17221598Y-74986253D01*
X-17239777Y-74969777D01*
X-17256253Y-74951598D01*
X-17270867Y-74931893D01*
X-17283480Y-74910849D01*
X-17293970Y-74888671D01*
X-17302235Y-74865571D01*
X-17308196Y-74841773D01*
X-17311796Y-74817504D01*
X-17313000Y-74793000D01*
X-17313000Y-73543000D01*
X-17311796Y-73518496D01*
X-17308196Y-73494227D01*
X-17302235Y-73470429D01*
X-17293970Y-73447329D01*
X-17283480Y-73425151D01*
X-17270867Y-73404107D01*
X-17256253Y-73384402D01*
X-17239777Y-73366223D01*
X-17221598Y-73349747D01*
X-17201893Y-73335133D01*
X-17180849Y-73322520D01*
X-17158671Y-73312030D01*
X-17135571Y-73303765D01*
X-17111773Y-73297804D01*
X-17087504Y-73294204D01*
X-17063000Y-73293000D01*
X-16138000Y-73293000D01*
X-16113496Y-73294204D01*
X-16113496Y-73294204D01*
G37*
D13*
X-16600500Y-74168000D03*
D10*
G36*
X-13138496Y-73294204D02*
X-13114227Y-73297804D01*
X-13090429Y-73303765D01*
X-13067329Y-73312030D01*
X-13045151Y-73322520D01*
X-13024107Y-73335133D01*
X-13004402Y-73349747D01*
X-12986223Y-73366223D01*
X-12969747Y-73384402D01*
X-12955133Y-73404107D01*
X-12942520Y-73425151D01*
X-12932030Y-73447329D01*
X-12923765Y-73470429D01*
X-12917804Y-73494227D01*
X-12914204Y-73518496D01*
X-12913000Y-73543000D01*
X-12913000Y-74793000D01*
X-12914204Y-74817504D01*
X-12917804Y-74841773D01*
X-12923765Y-74865571D01*
X-12932030Y-74888671D01*
X-12942520Y-74910849D01*
X-12955133Y-74931893D01*
X-12969747Y-74951598D01*
X-12986223Y-74969777D01*
X-13004402Y-74986253D01*
X-13024107Y-75000867D01*
X-13045151Y-75013480D01*
X-13067329Y-75023970D01*
X-13090429Y-75032235D01*
X-13114227Y-75038196D01*
X-13138496Y-75041796D01*
X-13163000Y-75043000D01*
X-14088000Y-75043000D01*
X-14112504Y-75041796D01*
X-14136773Y-75038196D01*
X-14160571Y-75032235D01*
X-14183671Y-75023970D01*
X-14205849Y-75013480D01*
X-14226893Y-75000867D01*
X-14246598Y-74986253D01*
X-14264777Y-74969777D01*
X-14281253Y-74951598D01*
X-14295867Y-74931893D01*
X-14308480Y-74910849D01*
X-14318970Y-74888671D01*
X-14327235Y-74865571D01*
X-14333196Y-74841773D01*
X-14336796Y-74817504D01*
X-14338000Y-74793000D01*
X-14338000Y-73543000D01*
X-14336796Y-73518496D01*
X-14333196Y-73494227D01*
X-14327235Y-73470429D01*
X-14318970Y-73447329D01*
X-14308480Y-73425151D01*
X-14295867Y-73404107D01*
X-14281253Y-73384402D01*
X-14264777Y-73366223D01*
X-14246598Y-73349747D01*
X-14226893Y-73335133D01*
X-14205849Y-73322520D01*
X-14183671Y-73312030D01*
X-14160571Y-73303765D01*
X-14136773Y-73297804D01*
X-14112504Y-73294204D01*
X-14088000Y-73293000D01*
X-13163000Y-73293000D01*
X-13138496Y-73294204D01*
X-13138496Y-73294204D01*
G37*
D13*
X-13625500Y-74168000D03*
G04 #@! TD*
D10*
G04 #@! TO.C,R27*
G36*
X-21956496Y-60539204D02*
X-21932227Y-60542804D01*
X-21908429Y-60548765D01*
X-21885329Y-60557030D01*
X-21863151Y-60567520D01*
X-21842107Y-60580133D01*
X-21822402Y-60594747D01*
X-21804223Y-60611223D01*
X-21787747Y-60629402D01*
X-21773133Y-60649107D01*
X-21760520Y-60670151D01*
X-21750030Y-60692329D01*
X-21741765Y-60715429D01*
X-21735804Y-60739227D01*
X-21732204Y-60763496D01*
X-21731000Y-60788000D01*
X-21731000Y-61713000D01*
X-21732204Y-61737504D01*
X-21735804Y-61761773D01*
X-21741765Y-61785571D01*
X-21750030Y-61808671D01*
X-21760520Y-61830849D01*
X-21773133Y-61851893D01*
X-21787747Y-61871598D01*
X-21804223Y-61889777D01*
X-21822402Y-61906253D01*
X-21842107Y-61920867D01*
X-21863151Y-61933480D01*
X-21885329Y-61943970D01*
X-21908429Y-61952235D01*
X-21932227Y-61958196D01*
X-21956496Y-61961796D01*
X-21981000Y-61963000D01*
X-23231000Y-61963000D01*
X-23255504Y-61961796D01*
X-23279773Y-61958196D01*
X-23303571Y-61952235D01*
X-23326671Y-61943970D01*
X-23348849Y-61933480D01*
X-23369893Y-61920867D01*
X-23389598Y-61906253D01*
X-23407777Y-61889777D01*
X-23424253Y-61871598D01*
X-23438867Y-61851893D01*
X-23451480Y-61830849D01*
X-23461970Y-61808671D01*
X-23470235Y-61785571D01*
X-23476196Y-61761773D01*
X-23479796Y-61737504D01*
X-23481000Y-61713000D01*
X-23481000Y-60788000D01*
X-23479796Y-60763496D01*
X-23476196Y-60739227D01*
X-23470235Y-60715429D01*
X-23461970Y-60692329D01*
X-23451480Y-60670151D01*
X-23438867Y-60649107D01*
X-23424253Y-60629402D01*
X-23407777Y-60611223D01*
X-23389598Y-60594747D01*
X-23369893Y-60580133D01*
X-23348849Y-60567520D01*
X-23326671Y-60557030D01*
X-23303571Y-60548765D01*
X-23279773Y-60542804D01*
X-23255504Y-60539204D01*
X-23231000Y-60538000D01*
X-21981000Y-60538000D01*
X-21956496Y-60539204D01*
X-21956496Y-60539204D01*
G37*
D13*
X-22606000Y-61250500D03*
D10*
G36*
X-21956496Y-63514204D02*
X-21932227Y-63517804D01*
X-21908429Y-63523765D01*
X-21885329Y-63532030D01*
X-21863151Y-63542520D01*
X-21842107Y-63555133D01*
X-21822402Y-63569747D01*
X-21804223Y-63586223D01*
X-21787747Y-63604402D01*
X-21773133Y-63624107D01*
X-21760520Y-63645151D01*
X-21750030Y-63667329D01*
X-21741765Y-63690429D01*
X-21735804Y-63714227D01*
X-21732204Y-63738496D01*
X-21731000Y-63763000D01*
X-21731000Y-64688000D01*
X-21732204Y-64712504D01*
X-21735804Y-64736773D01*
X-21741765Y-64760571D01*
X-21750030Y-64783671D01*
X-21760520Y-64805849D01*
X-21773133Y-64826893D01*
X-21787747Y-64846598D01*
X-21804223Y-64864777D01*
X-21822402Y-64881253D01*
X-21842107Y-64895867D01*
X-21863151Y-64908480D01*
X-21885329Y-64918970D01*
X-21908429Y-64927235D01*
X-21932227Y-64933196D01*
X-21956496Y-64936796D01*
X-21981000Y-64938000D01*
X-23231000Y-64938000D01*
X-23255504Y-64936796D01*
X-23279773Y-64933196D01*
X-23303571Y-64927235D01*
X-23326671Y-64918970D01*
X-23348849Y-64908480D01*
X-23369893Y-64895867D01*
X-23389598Y-64881253D01*
X-23407777Y-64864777D01*
X-23424253Y-64846598D01*
X-23438867Y-64826893D01*
X-23451480Y-64805849D01*
X-23461970Y-64783671D01*
X-23470235Y-64760571D01*
X-23476196Y-64736773D01*
X-23479796Y-64712504D01*
X-23481000Y-64688000D01*
X-23481000Y-63763000D01*
X-23479796Y-63738496D01*
X-23476196Y-63714227D01*
X-23470235Y-63690429D01*
X-23461970Y-63667329D01*
X-23451480Y-63645151D01*
X-23438867Y-63624107D01*
X-23424253Y-63604402D01*
X-23407777Y-63586223D01*
X-23389598Y-63569747D01*
X-23369893Y-63555133D01*
X-23348849Y-63542520D01*
X-23326671Y-63532030D01*
X-23303571Y-63523765D01*
X-23279773Y-63517804D01*
X-23255504Y-63514204D01*
X-23231000Y-63513000D01*
X-21981000Y-63513000D01*
X-21956496Y-63514204D01*
X-21956496Y-63514204D01*
G37*
D13*
X-22606000Y-64225500D03*
G04 #@! TD*
D10*
G04 #@! TO.C,C6*
G36*
X34223965Y16494796D02*
X34248234Y16491196D01*
X34272032Y16485235D01*
X34295132Y16476970D01*
X34317310Y16466480D01*
X34338354Y16453867D01*
X34358059Y16439253D01*
X34376238Y16422777D01*
X34392714Y16404598D01*
X34407328Y16384893D01*
X34419941Y16363849D01*
X34430431Y16341671D01*
X34438696Y16318571D01*
X34444657Y16294773D01*
X34448257Y16270504D01*
X34449461Y16246000D01*
X34449461Y14996000D01*
X34448257Y14971496D01*
X34444657Y14947227D01*
X34438696Y14923429D01*
X34430431Y14900329D01*
X34419941Y14878151D01*
X34407328Y14857107D01*
X34392714Y14837402D01*
X34376238Y14819223D01*
X34358059Y14802747D01*
X34338354Y14788133D01*
X34317310Y14775520D01*
X34295132Y14765030D01*
X34272032Y14756765D01*
X34248234Y14750804D01*
X34223965Y14747204D01*
X34199461Y14746000D01*
X33274461Y14746000D01*
X33249957Y14747204D01*
X33225688Y14750804D01*
X33201890Y14756765D01*
X33178790Y14765030D01*
X33156612Y14775520D01*
X33135568Y14788133D01*
X33115863Y14802747D01*
X33097684Y14819223D01*
X33081208Y14837402D01*
X33066594Y14857107D01*
X33053981Y14878151D01*
X33043491Y14900329D01*
X33035226Y14923429D01*
X33029265Y14947227D01*
X33025665Y14971496D01*
X33024461Y14996000D01*
X33024461Y16246000D01*
X33025665Y16270504D01*
X33029265Y16294773D01*
X33035226Y16318571D01*
X33043491Y16341671D01*
X33053981Y16363849D01*
X33066594Y16384893D01*
X33081208Y16404598D01*
X33097684Y16422777D01*
X33115863Y16439253D01*
X33135568Y16453867D01*
X33156612Y16466480D01*
X33178790Y16476970D01*
X33201890Y16485235D01*
X33225688Y16491196D01*
X33249957Y16494796D01*
X33274461Y16496000D01*
X34199461Y16496000D01*
X34223965Y16494796D01*
X34223965Y16494796D01*
G37*
D13*
X33736961Y15621000D03*
D10*
G36*
X31248965Y16494796D02*
X31273234Y16491196D01*
X31297032Y16485235D01*
X31320132Y16476970D01*
X31342310Y16466480D01*
X31363354Y16453867D01*
X31383059Y16439253D01*
X31401238Y16422777D01*
X31417714Y16404598D01*
X31432328Y16384893D01*
X31444941Y16363849D01*
X31455431Y16341671D01*
X31463696Y16318571D01*
X31469657Y16294773D01*
X31473257Y16270504D01*
X31474461Y16246000D01*
X31474461Y14996000D01*
X31473257Y14971496D01*
X31469657Y14947227D01*
X31463696Y14923429D01*
X31455431Y14900329D01*
X31444941Y14878151D01*
X31432328Y14857107D01*
X31417714Y14837402D01*
X31401238Y14819223D01*
X31383059Y14802747D01*
X31363354Y14788133D01*
X31342310Y14775520D01*
X31320132Y14765030D01*
X31297032Y14756765D01*
X31273234Y14750804D01*
X31248965Y14747204D01*
X31224461Y14746000D01*
X30299461Y14746000D01*
X30274957Y14747204D01*
X30250688Y14750804D01*
X30226890Y14756765D01*
X30203790Y14765030D01*
X30181612Y14775520D01*
X30160568Y14788133D01*
X30140863Y14802747D01*
X30122684Y14819223D01*
X30106208Y14837402D01*
X30091594Y14857107D01*
X30078981Y14878151D01*
X30068491Y14900329D01*
X30060226Y14923429D01*
X30054265Y14947227D01*
X30050665Y14971496D01*
X30049461Y14996000D01*
X30049461Y16246000D01*
X30050665Y16270504D01*
X30054265Y16294773D01*
X30060226Y16318571D01*
X30068491Y16341671D01*
X30078981Y16363849D01*
X30091594Y16384893D01*
X30106208Y16404598D01*
X30122684Y16422777D01*
X30140863Y16439253D01*
X30160568Y16453867D01*
X30181612Y16466480D01*
X30203790Y16476970D01*
X30226890Y16485235D01*
X30250688Y16491196D01*
X30274957Y16494796D01*
X30299461Y16496000D01*
X31224461Y16496000D01*
X31248965Y16494796D01*
X31248965Y16494796D01*
G37*
D13*
X30761961Y15621000D03*
G04 #@! TD*
D10*
G04 #@! TO.C,C5*
G36*
X-5192496Y40752796D02*
X-5168227Y40749196D01*
X-5144429Y40743235D01*
X-5121329Y40734970D01*
X-5099151Y40724480D01*
X-5078107Y40711867D01*
X-5058402Y40697253D01*
X-5040223Y40680777D01*
X-5023747Y40662598D01*
X-5009133Y40642893D01*
X-4996520Y40621849D01*
X-4986030Y40599671D01*
X-4977765Y40576571D01*
X-4971804Y40552773D01*
X-4968204Y40528504D01*
X-4967000Y40504000D01*
X-4967000Y39579000D01*
X-4968204Y39554496D01*
X-4971804Y39530227D01*
X-4977765Y39506429D01*
X-4986030Y39483329D01*
X-4996520Y39461151D01*
X-5009133Y39440107D01*
X-5023747Y39420402D01*
X-5040223Y39402223D01*
X-5058402Y39385747D01*
X-5078107Y39371133D01*
X-5099151Y39358520D01*
X-5121329Y39348030D01*
X-5144429Y39339765D01*
X-5168227Y39333804D01*
X-5192496Y39330204D01*
X-5217000Y39329000D01*
X-6467000Y39329000D01*
X-6491504Y39330204D01*
X-6515773Y39333804D01*
X-6539571Y39339765D01*
X-6562671Y39348030D01*
X-6584849Y39358520D01*
X-6605893Y39371133D01*
X-6625598Y39385747D01*
X-6643777Y39402223D01*
X-6660253Y39420402D01*
X-6674867Y39440107D01*
X-6687480Y39461151D01*
X-6697970Y39483329D01*
X-6706235Y39506429D01*
X-6712196Y39530227D01*
X-6715796Y39554496D01*
X-6717000Y39579000D01*
X-6717000Y40504000D01*
X-6715796Y40528504D01*
X-6712196Y40552773D01*
X-6706235Y40576571D01*
X-6697970Y40599671D01*
X-6687480Y40621849D01*
X-6674867Y40642893D01*
X-6660253Y40662598D01*
X-6643777Y40680777D01*
X-6625598Y40697253D01*
X-6605893Y40711867D01*
X-6584849Y40724480D01*
X-6562671Y40734970D01*
X-6539571Y40743235D01*
X-6515773Y40749196D01*
X-6491504Y40752796D01*
X-6467000Y40754000D01*
X-5217000Y40754000D01*
X-5192496Y40752796D01*
X-5192496Y40752796D01*
G37*
D13*
X-5842000Y40041500D03*
D10*
G36*
X-5192496Y43727796D02*
X-5168227Y43724196D01*
X-5144429Y43718235D01*
X-5121329Y43709970D01*
X-5099151Y43699480D01*
X-5078107Y43686867D01*
X-5058402Y43672253D01*
X-5040223Y43655777D01*
X-5023747Y43637598D01*
X-5009133Y43617893D01*
X-4996520Y43596849D01*
X-4986030Y43574671D01*
X-4977765Y43551571D01*
X-4971804Y43527773D01*
X-4968204Y43503504D01*
X-4967000Y43479000D01*
X-4967000Y42554000D01*
X-4968204Y42529496D01*
X-4971804Y42505227D01*
X-4977765Y42481429D01*
X-4986030Y42458329D01*
X-4996520Y42436151D01*
X-5009133Y42415107D01*
X-5023747Y42395402D01*
X-5040223Y42377223D01*
X-5058402Y42360747D01*
X-5078107Y42346133D01*
X-5099151Y42333520D01*
X-5121329Y42323030D01*
X-5144429Y42314765D01*
X-5168227Y42308804D01*
X-5192496Y42305204D01*
X-5217000Y42304000D01*
X-6467000Y42304000D01*
X-6491504Y42305204D01*
X-6515773Y42308804D01*
X-6539571Y42314765D01*
X-6562671Y42323030D01*
X-6584849Y42333520D01*
X-6605893Y42346133D01*
X-6625598Y42360747D01*
X-6643777Y42377223D01*
X-6660253Y42395402D01*
X-6674867Y42415107D01*
X-6687480Y42436151D01*
X-6697970Y42458329D01*
X-6706235Y42481429D01*
X-6712196Y42505227D01*
X-6715796Y42529496D01*
X-6717000Y42554000D01*
X-6717000Y43479000D01*
X-6715796Y43503504D01*
X-6712196Y43527773D01*
X-6706235Y43551571D01*
X-6697970Y43574671D01*
X-6687480Y43596849D01*
X-6674867Y43617893D01*
X-6660253Y43637598D01*
X-6643777Y43655777D01*
X-6625598Y43672253D01*
X-6605893Y43686867D01*
X-6584849Y43699480D01*
X-6562671Y43709970D01*
X-6539571Y43718235D01*
X-6515773Y43724196D01*
X-6491504Y43727796D01*
X-6467000Y43729000D01*
X-5217000Y43729000D01*
X-5192496Y43727796D01*
X-5192496Y43727796D01*
G37*
D13*
X-5842000Y43016500D03*
G04 #@! TD*
D10*
G04 #@! TO.C,R26*
G36*
X31248965Y10037591D02*
X31273234Y10033991D01*
X31297032Y10028030D01*
X31320132Y10019765D01*
X31342310Y10009275D01*
X31363354Y9996662D01*
X31383059Y9982048D01*
X31401238Y9965572D01*
X31417714Y9947393D01*
X31432328Y9927688D01*
X31444941Y9906644D01*
X31455431Y9884466D01*
X31463696Y9861366D01*
X31469657Y9837568D01*
X31473257Y9813299D01*
X31474461Y9788795D01*
X31474461Y8538795D01*
X31473257Y8514291D01*
X31469657Y8490022D01*
X31463696Y8466224D01*
X31455431Y8443124D01*
X31444941Y8420946D01*
X31432328Y8399902D01*
X31417714Y8380197D01*
X31401238Y8362018D01*
X31383059Y8345542D01*
X31363354Y8330928D01*
X31342310Y8318315D01*
X31320132Y8307825D01*
X31297032Y8299560D01*
X31273234Y8293599D01*
X31248965Y8289999D01*
X31224461Y8288795D01*
X30299461Y8288795D01*
X30274957Y8289999D01*
X30250688Y8293599D01*
X30226890Y8299560D01*
X30203790Y8307825D01*
X30181612Y8318315D01*
X30160568Y8330928D01*
X30140863Y8345542D01*
X30122684Y8362018D01*
X30106208Y8380197D01*
X30091594Y8399902D01*
X30078981Y8420946D01*
X30068491Y8443124D01*
X30060226Y8466224D01*
X30054265Y8490022D01*
X30050665Y8514291D01*
X30049461Y8538795D01*
X30049461Y9788795D01*
X30050665Y9813299D01*
X30054265Y9837568D01*
X30060226Y9861366D01*
X30068491Y9884466D01*
X30078981Y9906644D01*
X30091594Y9927688D01*
X30106208Y9947393D01*
X30122684Y9965572D01*
X30140863Y9982048D01*
X30160568Y9996662D01*
X30181612Y10009275D01*
X30203790Y10019765D01*
X30226890Y10028030D01*
X30250688Y10033991D01*
X30274957Y10037591D01*
X30299461Y10038795D01*
X31224461Y10038795D01*
X31248965Y10037591D01*
X31248965Y10037591D01*
G37*
D13*
X30761961Y9163795D03*
D10*
G36*
X34223965Y10037591D02*
X34248234Y10033991D01*
X34272032Y10028030D01*
X34295132Y10019765D01*
X34317310Y10009275D01*
X34338354Y9996662D01*
X34358059Y9982048D01*
X34376238Y9965572D01*
X34392714Y9947393D01*
X34407328Y9927688D01*
X34419941Y9906644D01*
X34430431Y9884466D01*
X34438696Y9861366D01*
X34444657Y9837568D01*
X34448257Y9813299D01*
X34449461Y9788795D01*
X34449461Y8538795D01*
X34448257Y8514291D01*
X34444657Y8490022D01*
X34438696Y8466224D01*
X34430431Y8443124D01*
X34419941Y8420946D01*
X34407328Y8399902D01*
X34392714Y8380197D01*
X34376238Y8362018D01*
X34358059Y8345542D01*
X34338354Y8330928D01*
X34317310Y8318315D01*
X34295132Y8307825D01*
X34272032Y8299560D01*
X34248234Y8293599D01*
X34223965Y8289999D01*
X34199461Y8288795D01*
X33274461Y8288795D01*
X33249957Y8289999D01*
X33225688Y8293599D01*
X33201890Y8299560D01*
X33178790Y8307825D01*
X33156612Y8318315D01*
X33135568Y8330928D01*
X33115863Y8345542D01*
X33097684Y8362018D01*
X33081208Y8380197D01*
X33066594Y8399902D01*
X33053981Y8420946D01*
X33043491Y8443124D01*
X33035226Y8466224D01*
X33029265Y8490022D01*
X33025665Y8514291D01*
X33024461Y8538795D01*
X33024461Y9788795D01*
X33025665Y9813299D01*
X33029265Y9837568D01*
X33035226Y9861366D01*
X33043491Y9884466D01*
X33053981Y9906644D01*
X33066594Y9927688D01*
X33081208Y9947393D01*
X33097684Y9965572D01*
X33115863Y9982048D01*
X33135568Y9996662D01*
X33156612Y10009275D01*
X33178790Y10019765D01*
X33201890Y10028030D01*
X33225688Y10033991D01*
X33249957Y10037591D01*
X33274461Y10038795D01*
X34199461Y10038795D01*
X34223965Y10037591D01*
X34223965Y10037591D01*
G37*
D13*
X33736961Y9163795D03*
G04 #@! TD*
D10*
G04 #@! TO.C,R25*
G36*
X25034504Y-9603704D02*
X25058773Y-9607304D01*
X25082571Y-9613265D01*
X25105671Y-9621530D01*
X25127849Y-9632020D01*
X25148893Y-9644633D01*
X25168598Y-9659247D01*
X25186777Y-9675723D01*
X25203253Y-9693902D01*
X25217867Y-9713607D01*
X25230480Y-9734651D01*
X25240970Y-9756829D01*
X25249235Y-9779929D01*
X25255196Y-9803727D01*
X25258796Y-9827996D01*
X25260000Y-9852500D01*
X25260000Y-11102500D01*
X25258796Y-11127004D01*
X25255196Y-11151273D01*
X25249235Y-11175071D01*
X25240970Y-11198171D01*
X25230480Y-11220349D01*
X25217867Y-11241393D01*
X25203253Y-11261098D01*
X25186777Y-11279277D01*
X25168598Y-11295753D01*
X25148893Y-11310367D01*
X25127849Y-11322980D01*
X25105671Y-11333470D01*
X25082571Y-11341735D01*
X25058773Y-11347696D01*
X25034504Y-11351296D01*
X25010000Y-11352500D01*
X24085000Y-11352500D01*
X24060496Y-11351296D01*
X24036227Y-11347696D01*
X24012429Y-11341735D01*
X23989329Y-11333470D01*
X23967151Y-11322980D01*
X23946107Y-11310367D01*
X23926402Y-11295753D01*
X23908223Y-11279277D01*
X23891747Y-11261098D01*
X23877133Y-11241393D01*
X23864520Y-11220349D01*
X23854030Y-11198171D01*
X23845765Y-11175071D01*
X23839804Y-11151273D01*
X23836204Y-11127004D01*
X23835000Y-11102500D01*
X23835000Y-9852500D01*
X23836204Y-9827996D01*
X23839804Y-9803727D01*
X23845765Y-9779929D01*
X23854030Y-9756829D01*
X23864520Y-9734651D01*
X23877133Y-9713607D01*
X23891747Y-9693902D01*
X23908223Y-9675723D01*
X23926402Y-9659247D01*
X23946107Y-9644633D01*
X23967151Y-9632020D01*
X23989329Y-9621530D01*
X24012429Y-9613265D01*
X24036227Y-9607304D01*
X24060496Y-9603704D01*
X24085000Y-9602500D01*
X25010000Y-9602500D01*
X25034504Y-9603704D01*
X25034504Y-9603704D01*
G37*
D13*
X24547500Y-10477500D03*
D10*
G36*
X28009504Y-9603704D02*
X28033773Y-9607304D01*
X28057571Y-9613265D01*
X28080671Y-9621530D01*
X28102849Y-9632020D01*
X28123893Y-9644633D01*
X28143598Y-9659247D01*
X28161777Y-9675723D01*
X28178253Y-9693902D01*
X28192867Y-9713607D01*
X28205480Y-9734651D01*
X28215970Y-9756829D01*
X28224235Y-9779929D01*
X28230196Y-9803727D01*
X28233796Y-9827996D01*
X28235000Y-9852500D01*
X28235000Y-11102500D01*
X28233796Y-11127004D01*
X28230196Y-11151273D01*
X28224235Y-11175071D01*
X28215970Y-11198171D01*
X28205480Y-11220349D01*
X28192867Y-11241393D01*
X28178253Y-11261098D01*
X28161777Y-11279277D01*
X28143598Y-11295753D01*
X28123893Y-11310367D01*
X28102849Y-11322980D01*
X28080671Y-11333470D01*
X28057571Y-11341735D01*
X28033773Y-11347696D01*
X28009504Y-11351296D01*
X27985000Y-11352500D01*
X27060000Y-11352500D01*
X27035496Y-11351296D01*
X27011227Y-11347696D01*
X26987429Y-11341735D01*
X26964329Y-11333470D01*
X26942151Y-11322980D01*
X26921107Y-11310367D01*
X26901402Y-11295753D01*
X26883223Y-11279277D01*
X26866747Y-11261098D01*
X26852133Y-11241393D01*
X26839520Y-11220349D01*
X26829030Y-11198171D01*
X26820765Y-11175071D01*
X26814804Y-11151273D01*
X26811204Y-11127004D01*
X26810000Y-11102500D01*
X26810000Y-9852500D01*
X26811204Y-9827996D01*
X26814804Y-9803727D01*
X26820765Y-9779929D01*
X26829030Y-9756829D01*
X26839520Y-9734651D01*
X26852133Y-9713607D01*
X26866747Y-9693902D01*
X26883223Y-9675723D01*
X26901402Y-9659247D01*
X26921107Y-9644633D01*
X26942151Y-9632020D01*
X26964329Y-9621530D01*
X26987429Y-9613265D01*
X27011227Y-9607304D01*
X27035496Y-9603704D01*
X27060000Y-9602500D01*
X27985000Y-9602500D01*
X28009504Y-9603704D01*
X28009504Y-9603704D01*
G37*
D13*
X27522500Y-10477500D03*
G04 #@! TD*
D10*
G04 #@! TO.C,R24*
G36*
X25061504Y-6809704D02*
X25085773Y-6813304D01*
X25109571Y-6819265D01*
X25132671Y-6827530D01*
X25154849Y-6838020D01*
X25175893Y-6850633D01*
X25195598Y-6865247D01*
X25213777Y-6881723D01*
X25230253Y-6899902D01*
X25244867Y-6919607D01*
X25257480Y-6940651D01*
X25267970Y-6962829D01*
X25276235Y-6985929D01*
X25282196Y-7009727D01*
X25285796Y-7033996D01*
X25287000Y-7058500D01*
X25287000Y-8308500D01*
X25285796Y-8333004D01*
X25282196Y-8357273D01*
X25276235Y-8381071D01*
X25267970Y-8404171D01*
X25257480Y-8426349D01*
X25244867Y-8447393D01*
X25230253Y-8467098D01*
X25213777Y-8485277D01*
X25195598Y-8501753D01*
X25175893Y-8516367D01*
X25154849Y-8528980D01*
X25132671Y-8539470D01*
X25109571Y-8547735D01*
X25085773Y-8553696D01*
X25061504Y-8557296D01*
X25037000Y-8558500D01*
X24112000Y-8558500D01*
X24087496Y-8557296D01*
X24063227Y-8553696D01*
X24039429Y-8547735D01*
X24016329Y-8539470D01*
X23994151Y-8528980D01*
X23973107Y-8516367D01*
X23953402Y-8501753D01*
X23935223Y-8485277D01*
X23918747Y-8467098D01*
X23904133Y-8447393D01*
X23891520Y-8426349D01*
X23881030Y-8404171D01*
X23872765Y-8381071D01*
X23866804Y-8357273D01*
X23863204Y-8333004D01*
X23862000Y-8308500D01*
X23862000Y-7058500D01*
X23863204Y-7033996D01*
X23866804Y-7009727D01*
X23872765Y-6985929D01*
X23881030Y-6962829D01*
X23891520Y-6940651D01*
X23904133Y-6919607D01*
X23918747Y-6899902D01*
X23935223Y-6881723D01*
X23953402Y-6865247D01*
X23973107Y-6850633D01*
X23994151Y-6838020D01*
X24016329Y-6827530D01*
X24039429Y-6819265D01*
X24063227Y-6813304D01*
X24087496Y-6809704D01*
X24112000Y-6808500D01*
X25037000Y-6808500D01*
X25061504Y-6809704D01*
X25061504Y-6809704D01*
G37*
D13*
X24574500Y-7683500D03*
D10*
G36*
X28036504Y-6809704D02*
X28060773Y-6813304D01*
X28084571Y-6819265D01*
X28107671Y-6827530D01*
X28129849Y-6838020D01*
X28150893Y-6850633D01*
X28170598Y-6865247D01*
X28188777Y-6881723D01*
X28205253Y-6899902D01*
X28219867Y-6919607D01*
X28232480Y-6940651D01*
X28242970Y-6962829D01*
X28251235Y-6985929D01*
X28257196Y-7009727D01*
X28260796Y-7033996D01*
X28262000Y-7058500D01*
X28262000Y-8308500D01*
X28260796Y-8333004D01*
X28257196Y-8357273D01*
X28251235Y-8381071D01*
X28242970Y-8404171D01*
X28232480Y-8426349D01*
X28219867Y-8447393D01*
X28205253Y-8467098D01*
X28188777Y-8485277D01*
X28170598Y-8501753D01*
X28150893Y-8516367D01*
X28129849Y-8528980D01*
X28107671Y-8539470D01*
X28084571Y-8547735D01*
X28060773Y-8553696D01*
X28036504Y-8557296D01*
X28012000Y-8558500D01*
X27087000Y-8558500D01*
X27062496Y-8557296D01*
X27038227Y-8553696D01*
X27014429Y-8547735D01*
X26991329Y-8539470D01*
X26969151Y-8528980D01*
X26948107Y-8516367D01*
X26928402Y-8501753D01*
X26910223Y-8485277D01*
X26893747Y-8467098D01*
X26879133Y-8447393D01*
X26866520Y-8426349D01*
X26856030Y-8404171D01*
X26847765Y-8381071D01*
X26841804Y-8357273D01*
X26838204Y-8333004D01*
X26837000Y-8308500D01*
X26837000Y-7058500D01*
X26838204Y-7033996D01*
X26841804Y-7009727D01*
X26847765Y-6985929D01*
X26856030Y-6962829D01*
X26866520Y-6940651D01*
X26879133Y-6919607D01*
X26893747Y-6899902D01*
X26910223Y-6881723D01*
X26928402Y-6865247D01*
X26948107Y-6850633D01*
X26969151Y-6838020D01*
X26991329Y-6827530D01*
X27014429Y-6819265D01*
X27038227Y-6813304D01*
X27062496Y-6809704D01*
X27087000Y-6808500D01*
X28012000Y-6808500D01*
X28036504Y-6809704D01*
X28036504Y-6809704D01*
G37*
D13*
X27549500Y-7683500D03*
G04 #@! TD*
D10*
G04 #@! TO.C,R23*
G36*
X25034504Y-4015704D02*
X25058773Y-4019304D01*
X25082571Y-4025265D01*
X25105671Y-4033530D01*
X25127849Y-4044020D01*
X25148893Y-4056633D01*
X25168598Y-4071247D01*
X25186777Y-4087723D01*
X25203253Y-4105902D01*
X25217867Y-4125607D01*
X25230480Y-4146651D01*
X25240970Y-4168829D01*
X25249235Y-4191929D01*
X25255196Y-4215727D01*
X25258796Y-4239996D01*
X25260000Y-4264500D01*
X25260000Y-5514500D01*
X25258796Y-5539004D01*
X25255196Y-5563273D01*
X25249235Y-5587071D01*
X25240970Y-5610171D01*
X25230480Y-5632349D01*
X25217867Y-5653393D01*
X25203253Y-5673098D01*
X25186777Y-5691277D01*
X25168598Y-5707753D01*
X25148893Y-5722367D01*
X25127849Y-5734980D01*
X25105671Y-5745470D01*
X25082571Y-5753735D01*
X25058773Y-5759696D01*
X25034504Y-5763296D01*
X25010000Y-5764500D01*
X24085000Y-5764500D01*
X24060496Y-5763296D01*
X24036227Y-5759696D01*
X24012429Y-5753735D01*
X23989329Y-5745470D01*
X23967151Y-5734980D01*
X23946107Y-5722367D01*
X23926402Y-5707753D01*
X23908223Y-5691277D01*
X23891747Y-5673098D01*
X23877133Y-5653393D01*
X23864520Y-5632349D01*
X23854030Y-5610171D01*
X23845765Y-5587071D01*
X23839804Y-5563273D01*
X23836204Y-5539004D01*
X23835000Y-5514500D01*
X23835000Y-4264500D01*
X23836204Y-4239996D01*
X23839804Y-4215727D01*
X23845765Y-4191929D01*
X23854030Y-4168829D01*
X23864520Y-4146651D01*
X23877133Y-4125607D01*
X23891747Y-4105902D01*
X23908223Y-4087723D01*
X23926402Y-4071247D01*
X23946107Y-4056633D01*
X23967151Y-4044020D01*
X23989329Y-4033530D01*
X24012429Y-4025265D01*
X24036227Y-4019304D01*
X24060496Y-4015704D01*
X24085000Y-4014500D01*
X25010000Y-4014500D01*
X25034504Y-4015704D01*
X25034504Y-4015704D01*
G37*
D13*
X24547500Y-4889500D03*
D10*
G36*
X28009504Y-4015704D02*
X28033773Y-4019304D01*
X28057571Y-4025265D01*
X28080671Y-4033530D01*
X28102849Y-4044020D01*
X28123893Y-4056633D01*
X28143598Y-4071247D01*
X28161777Y-4087723D01*
X28178253Y-4105902D01*
X28192867Y-4125607D01*
X28205480Y-4146651D01*
X28215970Y-4168829D01*
X28224235Y-4191929D01*
X28230196Y-4215727D01*
X28233796Y-4239996D01*
X28235000Y-4264500D01*
X28235000Y-5514500D01*
X28233796Y-5539004D01*
X28230196Y-5563273D01*
X28224235Y-5587071D01*
X28215970Y-5610171D01*
X28205480Y-5632349D01*
X28192867Y-5653393D01*
X28178253Y-5673098D01*
X28161777Y-5691277D01*
X28143598Y-5707753D01*
X28123893Y-5722367D01*
X28102849Y-5734980D01*
X28080671Y-5745470D01*
X28057571Y-5753735D01*
X28033773Y-5759696D01*
X28009504Y-5763296D01*
X27985000Y-5764500D01*
X27060000Y-5764500D01*
X27035496Y-5763296D01*
X27011227Y-5759696D01*
X26987429Y-5753735D01*
X26964329Y-5745470D01*
X26942151Y-5734980D01*
X26921107Y-5722367D01*
X26901402Y-5707753D01*
X26883223Y-5691277D01*
X26866747Y-5673098D01*
X26852133Y-5653393D01*
X26839520Y-5632349D01*
X26829030Y-5610171D01*
X26820765Y-5587071D01*
X26814804Y-5563273D01*
X26811204Y-5539004D01*
X26810000Y-5514500D01*
X26810000Y-4264500D01*
X26811204Y-4239996D01*
X26814804Y-4215727D01*
X26820765Y-4191929D01*
X26829030Y-4168829D01*
X26839520Y-4146651D01*
X26852133Y-4125607D01*
X26866747Y-4105902D01*
X26883223Y-4087723D01*
X26901402Y-4071247D01*
X26921107Y-4056633D01*
X26942151Y-4044020D01*
X26964329Y-4033530D01*
X26987429Y-4025265D01*
X27011227Y-4019304D01*
X27035496Y-4015704D01*
X27060000Y-4014500D01*
X27985000Y-4014500D01*
X28009504Y-4015704D01*
X28009504Y-4015704D01*
G37*
D13*
X27522500Y-4889500D03*
G04 #@! TD*
D16*
G04 #@! TO.C,U16*
X-2860000Y-54483000D03*
X6670000Y-57023000D03*
X-2860000Y-57023000D03*
X6670000Y-54483000D03*
G04 #@! TD*
D10*
G04 #@! TO.C,R22*
G36*
X3879504Y-58943204D02*
X3903773Y-58946804D01*
X3927571Y-58952765D01*
X3950671Y-58961030D01*
X3972849Y-58971520D01*
X3993893Y-58984133D01*
X4013598Y-58998747D01*
X4031777Y-59015223D01*
X4048253Y-59033402D01*
X4062867Y-59053107D01*
X4075480Y-59074151D01*
X4085970Y-59096329D01*
X4094235Y-59119429D01*
X4100196Y-59143227D01*
X4103796Y-59167496D01*
X4105000Y-59192000D01*
X4105000Y-60442000D01*
X4103796Y-60466504D01*
X4100196Y-60490773D01*
X4094235Y-60514571D01*
X4085970Y-60537671D01*
X4075480Y-60559849D01*
X4062867Y-60580893D01*
X4048253Y-60600598D01*
X4031777Y-60618777D01*
X4013598Y-60635253D01*
X3993893Y-60649867D01*
X3972849Y-60662480D01*
X3950671Y-60672970D01*
X3927571Y-60681235D01*
X3903773Y-60687196D01*
X3879504Y-60690796D01*
X3855000Y-60692000D01*
X2930000Y-60692000D01*
X2905496Y-60690796D01*
X2881227Y-60687196D01*
X2857429Y-60681235D01*
X2834329Y-60672970D01*
X2812151Y-60662480D01*
X2791107Y-60649867D01*
X2771402Y-60635253D01*
X2753223Y-60618777D01*
X2736747Y-60600598D01*
X2722133Y-60580893D01*
X2709520Y-60559849D01*
X2699030Y-60537671D01*
X2690765Y-60514571D01*
X2684804Y-60490773D01*
X2681204Y-60466504D01*
X2680000Y-60442000D01*
X2680000Y-59192000D01*
X2681204Y-59167496D01*
X2684804Y-59143227D01*
X2690765Y-59119429D01*
X2699030Y-59096329D01*
X2709520Y-59074151D01*
X2722133Y-59053107D01*
X2736747Y-59033402D01*
X2753223Y-59015223D01*
X2771402Y-58998747D01*
X2791107Y-58984133D01*
X2812151Y-58971520D01*
X2834329Y-58961030D01*
X2857429Y-58952765D01*
X2881227Y-58946804D01*
X2905496Y-58943204D01*
X2930000Y-58942000D01*
X3855000Y-58942000D01*
X3879504Y-58943204D01*
X3879504Y-58943204D01*
G37*
D13*
X3392500Y-59817000D03*
D10*
G36*
X904504Y-58943204D02*
X928773Y-58946804D01*
X952571Y-58952765D01*
X975671Y-58961030D01*
X997849Y-58971520D01*
X1018893Y-58984133D01*
X1038598Y-58998747D01*
X1056777Y-59015223D01*
X1073253Y-59033402D01*
X1087867Y-59053107D01*
X1100480Y-59074151D01*
X1110970Y-59096329D01*
X1119235Y-59119429D01*
X1125196Y-59143227D01*
X1128796Y-59167496D01*
X1130000Y-59192000D01*
X1130000Y-60442000D01*
X1128796Y-60466504D01*
X1125196Y-60490773D01*
X1119235Y-60514571D01*
X1110970Y-60537671D01*
X1100480Y-60559849D01*
X1087867Y-60580893D01*
X1073253Y-60600598D01*
X1056777Y-60618777D01*
X1038598Y-60635253D01*
X1018893Y-60649867D01*
X997849Y-60662480D01*
X975671Y-60672970D01*
X952571Y-60681235D01*
X928773Y-60687196D01*
X904504Y-60690796D01*
X880000Y-60692000D01*
X-45000Y-60692000D01*
X-69504Y-60690796D01*
X-93773Y-60687196D01*
X-117571Y-60681235D01*
X-140671Y-60672970D01*
X-162849Y-60662480D01*
X-183893Y-60649867D01*
X-203598Y-60635253D01*
X-221777Y-60618777D01*
X-238253Y-60600598D01*
X-252867Y-60580893D01*
X-265480Y-60559849D01*
X-275970Y-60537671D01*
X-284235Y-60514571D01*
X-290196Y-60490773D01*
X-293796Y-60466504D01*
X-295000Y-60442000D01*
X-295000Y-59192000D01*
X-293796Y-59167496D01*
X-290196Y-59143227D01*
X-284235Y-59119429D01*
X-275970Y-59096329D01*
X-265480Y-59074151D01*
X-252867Y-59053107D01*
X-238253Y-59033402D01*
X-221777Y-59015223D01*
X-203598Y-58998747D01*
X-183893Y-58984133D01*
X-162849Y-58971520D01*
X-140671Y-58961030D01*
X-117571Y-58952765D01*
X-93773Y-58946804D01*
X-69504Y-58943204D01*
X-45000Y-58942000D01*
X880000Y-58942000D01*
X904504Y-58943204D01*
X904504Y-58943204D01*
G37*
D13*
X417500Y-59817000D03*
G04 #@! TD*
D10*
G04 #@! TO.C,R21*
G36*
X34223965Y12958591D02*
X34248234Y12954991D01*
X34272032Y12949030D01*
X34295132Y12940765D01*
X34317310Y12930275D01*
X34338354Y12917662D01*
X34358059Y12903048D01*
X34376238Y12886572D01*
X34392714Y12868393D01*
X34407328Y12848688D01*
X34419941Y12827644D01*
X34430431Y12805466D01*
X34438696Y12782366D01*
X34444657Y12758568D01*
X34448257Y12734299D01*
X34449461Y12709795D01*
X34449461Y11459795D01*
X34448257Y11435291D01*
X34444657Y11411022D01*
X34438696Y11387224D01*
X34430431Y11364124D01*
X34419941Y11341946D01*
X34407328Y11320902D01*
X34392714Y11301197D01*
X34376238Y11283018D01*
X34358059Y11266542D01*
X34338354Y11251928D01*
X34317310Y11239315D01*
X34295132Y11228825D01*
X34272032Y11220560D01*
X34248234Y11214599D01*
X34223965Y11210999D01*
X34199461Y11209795D01*
X33274461Y11209795D01*
X33249957Y11210999D01*
X33225688Y11214599D01*
X33201890Y11220560D01*
X33178790Y11228825D01*
X33156612Y11239315D01*
X33135568Y11251928D01*
X33115863Y11266542D01*
X33097684Y11283018D01*
X33081208Y11301197D01*
X33066594Y11320902D01*
X33053981Y11341946D01*
X33043491Y11364124D01*
X33035226Y11387224D01*
X33029265Y11411022D01*
X33025665Y11435291D01*
X33024461Y11459795D01*
X33024461Y12709795D01*
X33025665Y12734299D01*
X33029265Y12758568D01*
X33035226Y12782366D01*
X33043491Y12805466D01*
X33053981Y12827644D01*
X33066594Y12848688D01*
X33081208Y12868393D01*
X33097684Y12886572D01*
X33115863Y12903048D01*
X33135568Y12917662D01*
X33156612Y12930275D01*
X33178790Y12940765D01*
X33201890Y12949030D01*
X33225688Y12954991D01*
X33249957Y12958591D01*
X33274461Y12959795D01*
X34199461Y12959795D01*
X34223965Y12958591D01*
X34223965Y12958591D01*
G37*
D13*
X33736961Y12084795D03*
D10*
G36*
X31248965Y12958591D02*
X31273234Y12954991D01*
X31297032Y12949030D01*
X31320132Y12940765D01*
X31342310Y12930275D01*
X31363354Y12917662D01*
X31383059Y12903048D01*
X31401238Y12886572D01*
X31417714Y12868393D01*
X31432328Y12848688D01*
X31444941Y12827644D01*
X31455431Y12805466D01*
X31463696Y12782366D01*
X31469657Y12758568D01*
X31473257Y12734299D01*
X31474461Y12709795D01*
X31474461Y11459795D01*
X31473257Y11435291D01*
X31469657Y11411022D01*
X31463696Y11387224D01*
X31455431Y11364124D01*
X31444941Y11341946D01*
X31432328Y11320902D01*
X31417714Y11301197D01*
X31401238Y11283018D01*
X31383059Y11266542D01*
X31363354Y11251928D01*
X31342310Y11239315D01*
X31320132Y11228825D01*
X31297032Y11220560D01*
X31273234Y11214599D01*
X31248965Y11210999D01*
X31224461Y11209795D01*
X30299461Y11209795D01*
X30274957Y11210999D01*
X30250688Y11214599D01*
X30226890Y11220560D01*
X30203790Y11228825D01*
X30181612Y11239315D01*
X30160568Y11251928D01*
X30140863Y11266542D01*
X30122684Y11283018D01*
X30106208Y11301197D01*
X30091594Y11320902D01*
X30078981Y11341946D01*
X30068491Y11364124D01*
X30060226Y11387224D01*
X30054265Y11411022D01*
X30050665Y11435291D01*
X30049461Y11459795D01*
X30049461Y12709795D01*
X30050665Y12734299D01*
X30054265Y12758568D01*
X30060226Y12782366D01*
X30068491Y12805466D01*
X30078981Y12827644D01*
X30091594Y12848688D01*
X30106208Y12868393D01*
X30122684Y12886572D01*
X30140863Y12903048D01*
X30160568Y12917662D01*
X30181612Y12930275D01*
X30203790Y12940765D01*
X30226890Y12949030D01*
X30250688Y12954991D01*
X30274957Y12958591D01*
X30299461Y12959795D01*
X31224461Y12959795D01*
X31248965Y12958591D01*
X31248965Y12958591D01*
G37*
D13*
X30761961Y12084795D03*
G04 #@! TD*
D20*
G04 #@! TO.C,PWR_IN1*
X-26162000Y55301000D03*
D10*
G36*
X-24587496Y59699796D02*
X-24563227Y59696196D01*
X-24539429Y59690235D01*
X-24516329Y59681970D01*
X-24494151Y59671480D01*
X-24473107Y59658867D01*
X-24453402Y59644253D01*
X-24435223Y59627777D01*
X-24418747Y59609598D01*
X-24404133Y59589893D01*
X-24391520Y59568849D01*
X-24381030Y59546671D01*
X-24372765Y59523571D01*
X-24366804Y59499773D01*
X-24363204Y59475504D01*
X-24362000Y59451000D01*
X-24362000Y58151000D01*
X-24363204Y58126496D01*
X-24366804Y58102227D01*
X-24372765Y58078429D01*
X-24381030Y58055329D01*
X-24391520Y58033151D01*
X-24404133Y58012107D01*
X-24418747Y57992402D01*
X-24435223Y57974223D01*
X-24453402Y57957747D01*
X-24473107Y57943133D01*
X-24494151Y57930520D01*
X-24516329Y57920030D01*
X-24539429Y57911765D01*
X-24563227Y57905804D01*
X-24587496Y57902204D01*
X-24612000Y57901000D01*
X-27712000Y57901000D01*
X-27736504Y57902204D01*
X-27760773Y57905804D01*
X-27784571Y57911765D01*
X-27807671Y57920030D01*
X-27829849Y57930520D01*
X-27850893Y57943133D01*
X-27870598Y57957747D01*
X-27888777Y57974223D01*
X-27905253Y57992402D01*
X-27919867Y58012107D01*
X-27932480Y58033151D01*
X-27942970Y58055329D01*
X-27951235Y58078429D01*
X-27957196Y58102227D01*
X-27960796Y58126496D01*
X-27962000Y58151000D01*
X-27962000Y59451000D01*
X-27960796Y59475504D01*
X-27957196Y59499773D01*
X-27951235Y59523571D01*
X-27942970Y59546671D01*
X-27932480Y59568849D01*
X-27919867Y59589893D01*
X-27905253Y59609598D01*
X-27888777Y59627777D01*
X-27870598Y59644253D01*
X-27850893Y59658867D01*
X-27829849Y59671480D01*
X-27807671Y59681970D01*
X-27784571Y59690235D01*
X-27760773Y59696196D01*
X-27736504Y59699796D01*
X-27712000Y59701000D01*
X-24612000Y59701000D01*
X-24587496Y59699796D01*
X-24587496Y59699796D01*
G37*
D11*
X-26162000Y58801000D03*
G04 #@! TD*
D20*
G04 #@! TO.C,Y2_PLUG_SOCKET1*
X-11303000Y-8879000D03*
X-11303000Y-5379000D03*
X-11303000Y-1879000D03*
X-11303000Y1621000D03*
X-11303000Y5121000D03*
X-11303000Y8621000D03*
X-11303000Y12121000D03*
D10*
G36*
X-9728496Y16519796D02*
X-9704227Y16516196D01*
X-9680429Y16510235D01*
X-9657329Y16501970D01*
X-9635151Y16491480D01*
X-9614107Y16478867D01*
X-9594402Y16464253D01*
X-9576223Y16447777D01*
X-9559747Y16429598D01*
X-9545133Y16409893D01*
X-9532520Y16388849D01*
X-9522030Y16366671D01*
X-9513765Y16343571D01*
X-9507804Y16319773D01*
X-9504204Y16295504D01*
X-9503000Y16271000D01*
X-9503000Y14971000D01*
X-9504204Y14946496D01*
X-9507804Y14922227D01*
X-9513765Y14898429D01*
X-9522030Y14875329D01*
X-9532520Y14853151D01*
X-9545133Y14832107D01*
X-9559747Y14812402D01*
X-9576223Y14794223D01*
X-9594402Y14777747D01*
X-9614107Y14763133D01*
X-9635151Y14750520D01*
X-9657329Y14740030D01*
X-9680429Y14731765D01*
X-9704227Y14725804D01*
X-9728496Y14722204D01*
X-9753000Y14721000D01*
X-12853000Y14721000D01*
X-12877504Y14722204D01*
X-12901773Y14725804D01*
X-12925571Y14731765D01*
X-12948671Y14740030D01*
X-12970849Y14750520D01*
X-12991893Y14763133D01*
X-13011598Y14777747D01*
X-13029777Y14794223D01*
X-13046253Y14812402D01*
X-13060867Y14832107D01*
X-13073480Y14853151D01*
X-13083970Y14875329D01*
X-13092235Y14898429D01*
X-13098196Y14922227D01*
X-13101796Y14946496D01*
X-13103000Y14971000D01*
X-13103000Y16271000D01*
X-13101796Y16295504D01*
X-13098196Y16319773D01*
X-13092235Y16343571D01*
X-13083970Y16366671D01*
X-13073480Y16388849D01*
X-13060867Y16409893D01*
X-13046253Y16429598D01*
X-13029777Y16447777D01*
X-13011598Y16464253D01*
X-12991893Y16478867D01*
X-12970849Y16491480D01*
X-12948671Y16501970D01*
X-12925571Y16510235D01*
X-12901773Y16516196D01*
X-12877504Y16519796D01*
X-12853000Y16521000D01*
X-9753000Y16521000D01*
X-9728496Y16519796D01*
X-9728496Y16519796D01*
G37*
D11*
X-11303000Y15621000D03*
G04 #@! TD*
D20*
G04 #@! TO.C,Y1_PLUG_SOCKET1*
X-26162000Y-8930278D03*
X-26162000Y-5430278D03*
X-26162000Y-1930278D03*
X-26162000Y1569722D03*
X-26162000Y5069722D03*
X-26162000Y8569722D03*
X-26162000Y12069722D03*
D10*
G36*
X-24587496Y16468518D02*
X-24563227Y16464918D01*
X-24539429Y16458957D01*
X-24516329Y16450692D01*
X-24494151Y16440202D01*
X-24473107Y16427589D01*
X-24453402Y16412975D01*
X-24435223Y16396499D01*
X-24418747Y16378320D01*
X-24404133Y16358615D01*
X-24391520Y16337571D01*
X-24381030Y16315393D01*
X-24372765Y16292293D01*
X-24366804Y16268495D01*
X-24363204Y16244226D01*
X-24362000Y16219722D01*
X-24362000Y14919722D01*
X-24363204Y14895218D01*
X-24366804Y14870949D01*
X-24372765Y14847151D01*
X-24381030Y14824051D01*
X-24391520Y14801873D01*
X-24404133Y14780829D01*
X-24418747Y14761124D01*
X-24435223Y14742945D01*
X-24453402Y14726469D01*
X-24473107Y14711855D01*
X-24494151Y14699242D01*
X-24516329Y14688752D01*
X-24539429Y14680487D01*
X-24563227Y14674526D01*
X-24587496Y14670926D01*
X-24612000Y14669722D01*
X-27712000Y14669722D01*
X-27736504Y14670926D01*
X-27760773Y14674526D01*
X-27784571Y14680487D01*
X-27807671Y14688752D01*
X-27829849Y14699242D01*
X-27850893Y14711855D01*
X-27870598Y14726469D01*
X-27888777Y14742945D01*
X-27905253Y14761124D01*
X-27919867Y14780829D01*
X-27932480Y14801873D01*
X-27942970Y14824051D01*
X-27951235Y14847151D01*
X-27957196Y14870949D01*
X-27960796Y14895218D01*
X-27962000Y14919722D01*
X-27962000Y16219722D01*
X-27960796Y16244226D01*
X-27957196Y16268495D01*
X-27951235Y16292293D01*
X-27942970Y16315393D01*
X-27932480Y16337571D01*
X-27919867Y16358615D01*
X-27905253Y16378320D01*
X-27888777Y16396499D01*
X-27870598Y16412975D01*
X-27850893Y16427589D01*
X-27829849Y16440202D01*
X-27807671Y16450692D01*
X-27784571Y16458957D01*
X-27760773Y16464918D01*
X-27736504Y16468518D01*
X-27712000Y16469722D01*
X-24612000Y16469722D01*
X-24587496Y16468518D01*
X-24587496Y16468518D01*
G37*
D11*
X-26162000Y15569722D03*
G04 #@! TD*
D20*
G04 #@! TO.C,X_PLUG_SOCKET1*
X-26162000Y24268000D03*
X-26162000Y27768000D03*
X-26162000Y31268000D03*
X-26162000Y34768000D03*
X-26162000Y38268000D03*
X-26162000Y41768000D03*
X-26162000Y45268000D03*
D10*
G36*
X-24587496Y49666796D02*
X-24563227Y49663196D01*
X-24539429Y49657235D01*
X-24516329Y49648970D01*
X-24494151Y49638480D01*
X-24473107Y49625867D01*
X-24453402Y49611253D01*
X-24435223Y49594777D01*
X-24418747Y49576598D01*
X-24404133Y49556893D01*
X-24391520Y49535849D01*
X-24381030Y49513671D01*
X-24372765Y49490571D01*
X-24366804Y49466773D01*
X-24363204Y49442504D01*
X-24362000Y49418000D01*
X-24362000Y48118000D01*
X-24363204Y48093496D01*
X-24366804Y48069227D01*
X-24372765Y48045429D01*
X-24381030Y48022329D01*
X-24391520Y48000151D01*
X-24404133Y47979107D01*
X-24418747Y47959402D01*
X-24435223Y47941223D01*
X-24453402Y47924747D01*
X-24473107Y47910133D01*
X-24494151Y47897520D01*
X-24516329Y47887030D01*
X-24539429Y47878765D01*
X-24563227Y47872804D01*
X-24587496Y47869204D01*
X-24612000Y47868000D01*
X-27712000Y47868000D01*
X-27736504Y47869204D01*
X-27760773Y47872804D01*
X-27784571Y47878765D01*
X-27807671Y47887030D01*
X-27829849Y47897520D01*
X-27850893Y47910133D01*
X-27870598Y47924747D01*
X-27888777Y47941223D01*
X-27905253Y47959402D01*
X-27919867Y47979107D01*
X-27932480Y48000151D01*
X-27942970Y48022329D01*
X-27951235Y48045429D01*
X-27957196Y48069227D01*
X-27960796Y48093496D01*
X-27962000Y48118000D01*
X-27962000Y49418000D01*
X-27960796Y49442504D01*
X-27957196Y49466773D01*
X-27951235Y49490571D01*
X-27942970Y49513671D01*
X-27932480Y49535849D01*
X-27919867Y49556893D01*
X-27905253Y49576598D01*
X-27888777Y49594777D01*
X-27870598Y49611253D01*
X-27850893Y49625867D01*
X-27829849Y49638480D01*
X-27807671Y49648970D01*
X-27784571Y49657235D01*
X-27760773Y49663196D01*
X-27736504Y49666796D01*
X-27712000Y49668000D01*
X-24612000Y49668000D01*
X-24587496Y49666796D01*
X-24587496Y49666796D01*
G37*
D11*
X-26162000Y48768000D03*
G04 #@! TD*
D22*
G04 #@! TO.C,MH4*
X-9842500Y-54102000D03*
G04 #@! TD*
G04 #@! TO.C,MH3*
X23749000Y-54038500D03*
G04 #@! TD*
G04 #@! TO.C,MH2*
X-9779000Y51181000D03*
G04 #@! TD*
G04 #@! TO.C,MH1*
X23812500Y51181000D03*
G04 #@! TD*
D10*
G04 #@! TO.C,R20*
G36*
X323504Y37322796D02*
X347773Y37319196D01*
X371571Y37313235D01*
X394671Y37304970D01*
X416849Y37294480D01*
X437893Y37281867D01*
X457598Y37267253D01*
X475777Y37250777D01*
X492253Y37232598D01*
X506867Y37212893D01*
X519480Y37191849D01*
X529970Y37169671D01*
X538235Y37146571D01*
X544196Y37122773D01*
X547796Y37098504D01*
X549000Y37074000D01*
X549000Y35824000D01*
X547796Y35799496D01*
X544196Y35775227D01*
X538235Y35751429D01*
X529970Y35728329D01*
X519480Y35706151D01*
X506867Y35685107D01*
X492253Y35665402D01*
X475777Y35647223D01*
X457598Y35630747D01*
X437893Y35616133D01*
X416849Y35603520D01*
X394671Y35593030D01*
X371571Y35584765D01*
X347773Y35578804D01*
X323504Y35575204D01*
X299000Y35574000D01*
X-626000Y35574000D01*
X-650504Y35575204D01*
X-674773Y35578804D01*
X-698571Y35584765D01*
X-721671Y35593030D01*
X-743849Y35603520D01*
X-764893Y35616133D01*
X-784598Y35630747D01*
X-802777Y35647223D01*
X-819253Y35665402D01*
X-833867Y35685107D01*
X-846480Y35706151D01*
X-856970Y35728329D01*
X-865235Y35751429D01*
X-871196Y35775227D01*
X-874796Y35799496D01*
X-876000Y35824000D01*
X-876000Y37074000D01*
X-874796Y37098504D01*
X-871196Y37122773D01*
X-865235Y37146571D01*
X-856970Y37169671D01*
X-846480Y37191849D01*
X-833867Y37212893D01*
X-819253Y37232598D01*
X-802777Y37250777D01*
X-784598Y37267253D01*
X-764893Y37281867D01*
X-743849Y37294480D01*
X-721671Y37304970D01*
X-698571Y37313235D01*
X-674773Y37319196D01*
X-650504Y37322796D01*
X-626000Y37324000D01*
X299000Y37324000D01*
X323504Y37322796D01*
X323504Y37322796D01*
G37*
D13*
X-163500Y36449000D03*
D10*
G36*
X-2651496Y37322796D02*
X-2627227Y37319196D01*
X-2603429Y37313235D01*
X-2580329Y37304970D01*
X-2558151Y37294480D01*
X-2537107Y37281867D01*
X-2517402Y37267253D01*
X-2499223Y37250777D01*
X-2482747Y37232598D01*
X-2468133Y37212893D01*
X-2455520Y37191849D01*
X-2445030Y37169671D01*
X-2436765Y37146571D01*
X-2430804Y37122773D01*
X-2427204Y37098504D01*
X-2426000Y37074000D01*
X-2426000Y35824000D01*
X-2427204Y35799496D01*
X-2430804Y35775227D01*
X-2436765Y35751429D01*
X-2445030Y35728329D01*
X-2455520Y35706151D01*
X-2468133Y35685107D01*
X-2482747Y35665402D01*
X-2499223Y35647223D01*
X-2517402Y35630747D01*
X-2537107Y35616133D01*
X-2558151Y35603520D01*
X-2580329Y35593030D01*
X-2603429Y35584765D01*
X-2627227Y35578804D01*
X-2651496Y35575204D01*
X-2676000Y35574000D01*
X-3601000Y35574000D01*
X-3625504Y35575204D01*
X-3649773Y35578804D01*
X-3673571Y35584765D01*
X-3696671Y35593030D01*
X-3718849Y35603520D01*
X-3739893Y35616133D01*
X-3759598Y35630747D01*
X-3777777Y35647223D01*
X-3794253Y35665402D01*
X-3808867Y35685107D01*
X-3821480Y35706151D01*
X-3831970Y35728329D01*
X-3840235Y35751429D01*
X-3846196Y35775227D01*
X-3849796Y35799496D01*
X-3851000Y35824000D01*
X-3851000Y37074000D01*
X-3849796Y37098504D01*
X-3846196Y37122773D01*
X-3840235Y37146571D01*
X-3831970Y37169671D01*
X-3821480Y37191849D01*
X-3808867Y37212893D01*
X-3794253Y37232598D01*
X-3777777Y37250777D01*
X-3759598Y37267253D01*
X-3739893Y37281867D01*
X-3718849Y37294480D01*
X-3696671Y37304970D01*
X-3673571Y37313235D01*
X-3649773Y37319196D01*
X-3625504Y37322796D01*
X-3601000Y37324000D01*
X-2676000Y37324000D01*
X-2651496Y37322796D01*
X-2651496Y37322796D01*
G37*
D13*
X-3138500Y36449000D03*
G04 #@! TD*
D10*
G04 #@! TO.C,R19*
G36*
X-4430496Y10580796D02*
X-4406227Y10577196D01*
X-4382429Y10571235D01*
X-4359329Y10562970D01*
X-4337151Y10552480D01*
X-4316107Y10539867D01*
X-4296402Y10525253D01*
X-4278223Y10508777D01*
X-4261747Y10490598D01*
X-4247133Y10470893D01*
X-4234520Y10449849D01*
X-4224030Y10427671D01*
X-4215765Y10404571D01*
X-4209804Y10380773D01*
X-4206204Y10356504D01*
X-4205000Y10332000D01*
X-4205000Y9407000D01*
X-4206204Y9382496D01*
X-4209804Y9358227D01*
X-4215765Y9334429D01*
X-4224030Y9311329D01*
X-4234520Y9289151D01*
X-4247133Y9268107D01*
X-4261747Y9248402D01*
X-4278223Y9230223D01*
X-4296402Y9213747D01*
X-4316107Y9199133D01*
X-4337151Y9186520D01*
X-4359329Y9176030D01*
X-4382429Y9167765D01*
X-4406227Y9161804D01*
X-4430496Y9158204D01*
X-4455000Y9157000D01*
X-5705000Y9157000D01*
X-5729504Y9158204D01*
X-5753773Y9161804D01*
X-5777571Y9167765D01*
X-5800671Y9176030D01*
X-5822849Y9186520D01*
X-5843893Y9199133D01*
X-5863598Y9213747D01*
X-5881777Y9230223D01*
X-5898253Y9248402D01*
X-5912867Y9268107D01*
X-5925480Y9289151D01*
X-5935970Y9311329D01*
X-5944235Y9334429D01*
X-5950196Y9358227D01*
X-5953796Y9382496D01*
X-5955000Y9407000D01*
X-5955000Y10332000D01*
X-5953796Y10356504D01*
X-5950196Y10380773D01*
X-5944235Y10404571D01*
X-5935970Y10427671D01*
X-5925480Y10449849D01*
X-5912867Y10470893D01*
X-5898253Y10490598D01*
X-5881777Y10508777D01*
X-5863598Y10525253D01*
X-5843893Y10539867D01*
X-5822849Y10552480D01*
X-5800671Y10562970D01*
X-5777571Y10571235D01*
X-5753773Y10577196D01*
X-5729504Y10580796D01*
X-5705000Y10582000D01*
X-4455000Y10582000D01*
X-4430496Y10580796D01*
X-4430496Y10580796D01*
G37*
D13*
X-5080000Y9869500D03*
D10*
G36*
X-4430496Y7605796D02*
X-4406227Y7602196D01*
X-4382429Y7596235D01*
X-4359329Y7587970D01*
X-4337151Y7577480D01*
X-4316107Y7564867D01*
X-4296402Y7550253D01*
X-4278223Y7533777D01*
X-4261747Y7515598D01*
X-4247133Y7495893D01*
X-4234520Y7474849D01*
X-4224030Y7452671D01*
X-4215765Y7429571D01*
X-4209804Y7405773D01*
X-4206204Y7381504D01*
X-4205000Y7357000D01*
X-4205000Y6432000D01*
X-4206204Y6407496D01*
X-4209804Y6383227D01*
X-4215765Y6359429D01*
X-4224030Y6336329D01*
X-4234520Y6314151D01*
X-4247133Y6293107D01*
X-4261747Y6273402D01*
X-4278223Y6255223D01*
X-4296402Y6238747D01*
X-4316107Y6224133D01*
X-4337151Y6211520D01*
X-4359329Y6201030D01*
X-4382429Y6192765D01*
X-4406227Y6186804D01*
X-4430496Y6183204D01*
X-4455000Y6182000D01*
X-5705000Y6182000D01*
X-5729504Y6183204D01*
X-5753773Y6186804D01*
X-5777571Y6192765D01*
X-5800671Y6201030D01*
X-5822849Y6211520D01*
X-5843893Y6224133D01*
X-5863598Y6238747D01*
X-5881777Y6255223D01*
X-5898253Y6273402D01*
X-5912867Y6293107D01*
X-5925480Y6314151D01*
X-5935970Y6336329D01*
X-5944235Y6359429D01*
X-5950196Y6383227D01*
X-5953796Y6407496D01*
X-5955000Y6432000D01*
X-5955000Y7357000D01*
X-5953796Y7381504D01*
X-5950196Y7405773D01*
X-5944235Y7429571D01*
X-5935970Y7452671D01*
X-5925480Y7474849D01*
X-5912867Y7495893D01*
X-5898253Y7515598D01*
X-5881777Y7533777D01*
X-5863598Y7550253D01*
X-5843893Y7564867D01*
X-5822849Y7577480D01*
X-5800671Y7587970D01*
X-5777571Y7596235D01*
X-5753773Y7602196D01*
X-5729504Y7605796D01*
X-5705000Y7607000D01*
X-4455000Y7607000D01*
X-4430496Y7605796D01*
X-4430496Y7605796D01*
G37*
D13*
X-5080000Y6894500D03*
G04 #@! TD*
D10*
G04 #@! TO.C,R18*
G36*
X-32877496Y-32273204D02*
X-32853227Y-32276804D01*
X-32829429Y-32282765D01*
X-32806329Y-32291030D01*
X-32784151Y-32301520D01*
X-32763107Y-32314133D01*
X-32743402Y-32328747D01*
X-32725223Y-32345223D01*
X-32708747Y-32363402D01*
X-32694133Y-32383107D01*
X-32681520Y-32404151D01*
X-32671030Y-32426329D01*
X-32662765Y-32449429D01*
X-32656804Y-32473227D01*
X-32653204Y-32497496D01*
X-32652000Y-32522000D01*
X-32652000Y-33772000D01*
X-32653204Y-33796504D01*
X-32656804Y-33820773D01*
X-32662765Y-33844571D01*
X-32671030Y-33867671D01*
X-32681520Y-33889849D01*
X-32694133Y-33910893D01*
X-32708747Y-33930598D01*
X-32725223Y-33948777D01*
X-32743402Y-33965253D01*
X-32763107Y-33979867D01*
X-32784151Y-33992480D01*
X-32806329Y-34002970D01*
X-32829429Y-34011235D01*
X-32853227Y-34017196D01*
X-32877496Y-34020796D01*
X-32902000Y-34022000D01*
X-33827000Y-34022000D01*
X-33851504Y-34020796D01*
X-33875773Y-34017196D01*
X-33899571Y-34011235D01*
X-33922671Y-34002970D01*
X-33944849Y-33992480D01*
X-33965893Y-33979867D01*
X-33985598Y-33965253D01*
X-34003777Y-33948777D01*
X-34020253Y-33930598D01*
X-34034867Y-33910893D01*
X-34047480Y-33889849D01*
X-34057970Y-33867671D01*
X-34066235Y-33844571D01*
X-34072196Y-33820773D01*
X-34075796Y-33796504D01*
X-34077000Y-33772000D01*
X-34077000Y-32522000D01*
X-34075796Y-32497496D01*
X-34072196Y-32473227D01*
X-34066235Y-32449429D01*
X-34057970Y-32426329D01*
X-34047480Y-32404151D01*
X-34034867Y-32383107D01*
X-34020253Y-32363402D01*
X-34003777Y-32345223D01*
X-33985598Y-32328747D01*
X-33965893Y-32314133D01*
X-33944849Y-32301520D01*
X-33922671Y-32291030D01*
X-33899571Y-32282765D01*
X-33875773Y-32276804D01*
X-33851504Y-32273204D01*
X-33827000Y-32272000D01*
X-32902000Y-32272000D01*
X-32877496Y-32273204D01*
X-32877496Y-32273204D01*
G37*
D13*
X-33364500Y-33147000D03*
D10*
G36*
X-29902496Y-32273204D02*
X-29878227Y-32276804D01*
X-29854429Y-32282765D01*
X-29831329Y-32291030D01*
X-29809151Y-32301520D01*
X-29788107Y-32314133D01*
X-29768402Y-32328747D01*
X-29750223Y-32345223D01*
X-29733747Y-32363402D01*
X-29719133Y-32383107D01*
X-29706520Y-32404151D01*
X-29696030Y-32426329D01*
X-29687765Y-32449429D01*
X-29681804Y-32473227D01*
X-29678204Y-32497496D01*
X-29677000Y-32522000D01*
X-29677000Y-33772000D01*
X-29678204Y-33796504D01*
X-29681804Y-33820773D01*
X-29687765Y-33844571D01*
X-29696030Y-33867671D01*
X-29706520Y-33889849D01*
X-29719133Y-33910893D01*
X-29733747Y-33930598D01*
X-29750223Y-33948777D01*
X-29768402Y-33965253D01*
X-29788107Y-33979867D01*
X-29809151Y-33992480D01*
X-29831329Y-34002970D01*
X-29854429Y-34011235D01*
X-29878227Y-34017196D01*
X-29902496Y-34020796D01*
X-29927000Y-34022000D01*
X-30852000Y-34022000D01*
X-30876504Y-34020796D01*
X-30900773Y-34017196D01*
X-30924571Y-34011235D01*
X-30947671Y-34002970D01*
X-30969849Y-33992480D01*
X-30990893Y-33979867D01*
X-31010598Y-33965253D01*
X-31028777Y-33948777D01*
X-31045253Y-33930598D01*
X-31059867Y-33910893D01*
X-31072480Y-33889849D01*
X-31082970Y-33867671D01*
X-31091235Y-33844571D01*
X-31097196Y-33820773D01*
X-31100796Y-33796504D01*
X-31102000Y-33772000D01*
X-31102000Y-32522000D01*
X-31100796Y-32497496D01*
X-31097196Y-32473227D01*
X-31091235Y-32449429D01*
X-31082970Y-32426329D01*
X-31072480Y-32404151D01*
X-31059867Y-32383107D01*
X-31045253Y-32363402D01*
X-31028777Y-32345223D01*
X-31010598Y-32328747D01*
X-30990893Y-32314133D01*
X-30969849Y-32301520D01*
X-30947671Y-32291030D01*
X-30924571Y-32282765D01*
X-30900773Y-32276804D01*
X-30876504Y-32273204D01*
X-30852000Y-32272000D01*
X-29927000Y-32272000D01*
X-29902496Y-32273204D01*
X-29902496Y-32273204D01*
G37*
D13*
X-30389500Y-33147000D03*
G04 #@! TD*
D10*
G04 #@! TO.C,R17*
G36*
X-33004496Y2524796D02*
X-32980227Y2521196D01*
X-32956429Y2515235D01*
X-32933329Y2506970D01*
X-32911151Y2496480D01*
X-32890107Y2483867D01*
X-32870402Y2469253D01*
X-32852223Y2452777D01*
X-32835747Y2434598D01*
X-32821133Y2414893D01*
X-32808520Y2393849D01*
X-32798030Y2371671D01*
X-32789765Y2348571D01*
X-32783804Y2324773D01*
X-32780204Y2300504D01*
X-32779000Y2276000D01*
X-32779000Y1026000D01*
X-32780204Y1001496D01*
X-32783804Y977227D01*
X-32789765Y953429D01*
X-32798030Y930329D01*
X-32808520Y908151D01*
X-32821133Y887107D01*
X-32835747Y867402D01*
X-32852223Y849223D01*
X-32870402Y832747D01*
X-32890107Y818133D01*
X-32911151Y805520D01*
X-32933329Y795030D01*
X-32956429Y786765D01*
X-32980227Y780804D01*
X-33004496Y777204D01*
X-33029000Y776000D01*
X-33954000Y776000D01*
X-33978504Y777204D01*
X-34002773Y780804D01*
X-34026571Y786765D01*
X-34049671Y795030D01*
X-34071849Y805520D01*
X-34092893Y818133D01*
X-34112598Y832747D01*
X-34130777Y849223D01*
X-34147253Y867402D01*
X-34161867Y887107D01*
X-34174480Y908151D01*
X-34184970Y930329D01*
X-34193235Y953429D01*
X-34199196Y977227D01*
X-34202796Y1001496D01*
X-34204000Y1026000D01*
X-34204000Y2276000D01*
X-34202796Y2300504D01*
X-34199196Y2324773D01*
X-34193235Y2348571D01*
X-34184970Y2371671D01*
X-34174480Y2393849D01*
X-34161867Y2414893D01*
X-34147253Y2434598D01*
X-34130777Y2452777D01*
X-34112598Y2469253D01*
X-34092893Y2483867D01*
X-34071849Y2496480D01*
X-34049671Y2506970D01*
X-34026571Y2515235D01*
X-34002773Y2521196D01*
X-33978504Y2524796D01*
X-33954000Y2526000D01*
X-33029000Y2526000D01*
X-33004496Y2524796D01*
X-33004496Y2524796D01*
G37*
D13*
X-33491500Y1651000D03*
D10*
G36*
X-30029496Y2524796D02*
X-30005227Y2521196D01*
X-29981429Y2515235D01*
X-29958329Y2506970D01*
X-29936151Y2496480D01*
X-29915107Y2483867D01*
X-29895402Y2469253D01*
X-29877223Y2452777D01*
X-29860747Y2434598D01*
X-29846133Y2414893D01*
X-29833520Y2393849D01*
X-29823030Y2371671D01*
X-29814765Y2348571D01*
X-29808804Y2324773D01*
X-29805204Y2300504D01*
X-29804000Y2276000D01*
X-29804000Y1026000D01*
X-29805204Y1001496D01*
X-29808804Y977227D01*
X-29814765Y953429D01*
X-29823030Y930329D01*
X-29833520Y908151D01*
X-29846133Y887107D01*
X-29860747Y867402D01*
X-29877223Y849223D01*
X-29895402Y832747D01*
X-29915107Y818133D01*
X-29936151Y805520D01*
X-29958329Y795030D01*
X-29981429Y786765D01*
X-30005227Y780804D01*
X-30029496Y777204D01*
X-30054000Y776000D01*
X-30979000Y776000D01*
X-31003504Y777204D01*
X-31027773Y780804D01*
X-31051571Y786765D01*
X-31074671Y795030D01*
X-31096849Y805520D01*
X-31117893Y818133D01*
X-31137598Y832747D01*
X-31155777Y849223D01*
X-31172253Y867402D01*
X-31186867Y887107D01*
X-31199480Y908151D01*
X-31209970Y930329D01*
X-31218235Y953429D01*
X-31224196Y977227D01*
X-31227796Y1001496D01*
X-31229000Y1026000D01*
X-31229000Y2276000D01*
X-31227796Y2300504D01*
X-31224196Y2324773D01*
X-31218235Y2348571D01*
X-31209970Y2371671D01*
X-31199480Y2393849D01*
X-31186867Y2414893D01*
X-31172253Y2434598D01*
X-31155777Y2452777D01*
X-31137598Y2469253D01*
X-31117893Y2483867D01*
X-31096849Y2496480D01*
X-31074671Y2506970D01*
X-31051571Y2515235D01*
X-31027773Y2521196D01*
X-31003504Y2524796D01*
X-30979000Y2526000D01*
X-30054000Y2526000D01*
X-30029496Y2524796D01*
X-30029496Y2524796D01*
G37*
D13*
X-30516500Y1651000D03*
G04 #@! TD*
D10*
G04 #@! TO.C,R16*
G36*
X-33004496Y35671796D02*
X-32980227Y35668196D01*
X-32956429Y35662235D01*
X-32933329Y35653970D01*
X-32911151Y35643480D01*
X-32890107Y35630867D01*
X-32870402Y35616253D01*
X-32852223Y35599777D01*
X-32835747Y35581598D01*
X-32821133Y35561893D01*
X-32808520Y35540849D01*
X-32798030Y35518671D01*
X-32789765Y35495571D01*
X-32783804Y35471773D01*
X-32780204Y35447504D01*
X-32779000Y35423000D01*
X-32779000Y34173000D01*
X-32780204Y34148496D01*
X-32783804Y34124227D01*
X-32789765Y34100429D01*
X-32798030Y34077329D01*
X-32808520Y34055151D01*
X-32821133Y34034107D01*
X-32835747Y34014402D01*
X-32852223Y33996223D01*
X-32870402Y33979747D01*
X-32890107Y33965133D01*
X-32911151Y33952520D01*
X-32933329Y33942030D01*
X-32956429Y33933765D01*
X-32980227Y33927804D01*
X-33004496Y33924204D01*
X-33029000Y33923000D01*
X-33954000Y33923000D01*
X-33978504Y33924204D01*
X-34002773Y33927804D01*
X-34026571Y33933765D01*
X-34049671Y33942030D01*
X-34071849Y33952520D01*
X-34092893Y33965133D01*
X-34112598Y33979747D01*
X-34130777Y33996223D01*
X-34147253Y34014402D01*
X-34161867Y34034107D01*
X-34174480Y34055151D01*
X-34184970Y34077329D01*
X-34193235Y34100429D01*
X-34199196Y34124227D01*
X-34202796Y34148496D01*
X-34204000Y34173000D01*
X-34204000Y35423000D01*
X-34202796Y35447504D01*
X-34199196Y35471773D01*
X-34193235Y35495571D01*
X-34184970Y35518671D01*
X-34174480Y35540849D01*
X-34161867Y35561893D01*
X-34147253Y35581598D01*
X-34130777Y35599777D01*
X-34112598Y35616253D01*
X-34092893Y35630867D01*
X-34071849Y35643480D01*
X-34049671Y35653970D01*
X-34026571Y35662235D01*
X-34002773Y35668196D01*
X-33978504Y35671796D01*
X-33954000Y35673000D01*
X-33029000Y35673000D01*
X-33004496Y35671796D01*
X-33004496Y35671796D01*
G37*
D13*
X-33491500Y34798000D03*
D10*
G36*
X-30029496Y35671796D02*
X-30005227Y35668196D01*
X-29981429Y35662235D01*
X-29958329Y35653970D01*
X-29936151Y35643480D01*
X-29915107Y35630867D01*
X-29895402Y35616253D01*
X-29877223Y35599777D01*
X-29860747Y35581598D01*
X-29846133Y35561893D01*
X-29833520Y35540849D01*
X-29823030Y35518671D01*
X-29814765Y35495571D01*
X-29808804Y35471773D01*
X-29805204Y35447504D01*
X-29804000Y35423000D01*
X-29804000Y34173000D01*
X-29805204Y34148496D01*
X-29808804Y34124227D01*
X-29814765Y34100429D01*
X-29823030Y34077329D01*
X-29833520Y34055151D01*
X-29846133Y34034107D01*
X-29860747Y34014402D01*
X-29877223Y33996223D01*
X-29895402Y33979747D01*
X-29915107Y33965133D01*
X-29936151Y33952520D01*
X-29958329Y33942030D01*
X-29981429Y33933765D01*
X-30005227Y33927804D01*
X-30029496Y33924204D01*
X-30054000Y33923000D01*
X-30979000Y33923000D01*
X-31003504Y33924204D01*
X-31027773Y33927804D01*
X-31051571Y33933765D01*
X-31074671Y33942030D01*
X-31096849Y33952520D01*
X-31117893Y33965133D01*
X-31137598Y33979747D01*
X-31155777Y33996223D01*
X-31172253Y34014402D01*
X-31186867Y34034107D01*
X-31199480Y34055151D01*
X-31209970Y34077329D01*
X-31218235Y34100429D01*
X-31224196Y34124227D01*
X-31227796Y34148496D01*
X-31229000Y34173000D01*
X-31229000Y35423000D01*
X-31227796Y35447504D01*
X-31224196Y35471773D01*
X-31218235Y35495571D01*
X-31209970Y35518671D01*
X-31199480Y35540849D01*
X-31186867Y35561893D01*
X-31172253Y35581598D01*
X-31155777Y35599777D01*
X-31137598Y35616253D01*
X-31117893Y35630867D01*
X-31096849Y35643480D01*
X-31074671Y35653970D01*
X-31051571Y35662235D01*
X-31027773Y35668196D01*
X-31003504Y35671796D01*
X-30979000Y35673000D01*
X-30054000Y35673000D01*
X-30029496Y35671796D01*
X-30029496Y35671796D01*
G37*
D13*
X-30516500Y34798000D03*
G04 #@! TD*
D10*
G04 #@! TO.C,R12*
G36*
X13531504Y-56276204D02*
X13555773Y-56279804D01*
X13579571Y-56285765D01*
X13602671Y-56294030D01*
X13624849Y-56304520D01*
X13645893Y-56317133D01*
X13665598Y-56331747D01*
X13683777Y-56348223D01*
X13700253Y-56366402D01*
X13714867Y-56386107D01*
X13727480Y-56407151D01*
X13737970Y-56429329D01*
X13746235Y-56452429D01*
X13752196Y-56476227D01*
X13755796Y-56500496D01*
X13757000Y-56525000D01*
X13757000Y-57775000D01*
X13755796Y-57799504D01*
X13752196Y-57823773D01*
X13746235Y-57847571D01*
X13737970Y-57870671D01*
X13727480Y-57892849D01*
X13714867Y-57913893D01*
X13700253Y-57933598D01*
X13683777Y-57951777D01*
X13665598Y-57968253D01*
X13645893Y-57982867D01*
X13624849Y-57995480D01*
X13602671Y-58005970D01*
X13579571Y-58014235D01*
X13555773Y-58020196D01*
X13531504Y-58023796D01*
X13507000Y-58025000D01*
X12582000Y-58025000D01*
X12557496Y-58023796D01*
X12533227Y-58020196D01*
X12509429Y-58014235D01*
X12486329Y-58005970D01*
X12464151Y-57995480D01*
X12443107Y-57982867D01*
X12423402Y-57968253D01*
X12405223Y-57951777D01*
X12388747Y-57933598D01*
X12374133Y-57913893D01*
X12361520Y-57892849D01*
X12351030Y-57870671D01*
X12342765Y-57847571D01*
X12336804Y-57823773D01*
X12333204Y-57799504D01*
X12332000Y-57775000D01*
X12332000Y-56525000D01*
X12333204Y-56500496D01*
X12336804Y-56476227D01*
X12342765Y-56452429D01*
X12351030Y-56429329D01*
X12361520Y-56407151D01*
X12374133Y-56386107D01*
X12388747Y-56366402D01*
X12405223Y-56348223D01*
X12423402Y-56331747D01*
X12443107Y-56317133D01*
X12464151Y-56304520D01*
X12486329Y-56294030D01*
X12509429Y-56285765D01*
X12533227Y-56279804D01*
X12557496Y-56276204D01*
X12582000Y-56275000D01*
X13507000Y-56275000D01*
X13531504Y-56276204D01*
X13531504Y-56276204D01*
G37*
D13*
X13044500Y-57150000D03*
D10*
G36*
X10556504Y-56276204D02*
X10580773Y-56279804D01*
X10604571Y-56285765D01*
X10627671Y-56294030D01*
X10649849Y-56304520D01*
X10670893Y-56317133D01*
X10690598Y-56331747D01*
X10708777Y-56348223D01*
X10725253Y-56366402D01*
X10739867Y-56386107D01*
X10752480Y-56407151D01*
X10762970Y-56429329D01*
X10771235Y-56452429D01*
X10777196Y-56476227D01*
X10780796Y-56500496D01*
X10782000Y-56525000D01*
X10782000Y-57775000D01*
X10780796Y-57799504D01*
X10777196Y-57823773D01*
X10771235Y-57847571D01*
X10762970Y-57870671D01*
X10752480Y-57892849D01*
X10739867Y-57913893D01*
X10725253Y-57933598D01*
X10708777Y-57951777D01*
X10690598Y-57968253D01*
X10670893Y-57982867D01*
X10649849Y-57995480D01*
X10627671Y-58005970D01*
X10604571Y-58014235D01*
X10580773Y-58020196D01*
X10556504Y-58023796D01*
X10532000Y-58025000D01*
X9607000Y-58025000D01*
X9582496Y-58023796D01*
X9558227Y-58020196D01*
X9534429Y-58014235D01*
X9511329Y-58005970D01*
X9489151Y-57995480D01*
X9468107Y-57982867D01*
X9448402Y-57968253D01*
X9430223Y-57951777D01*
X9413747Y-57933598D01*
X9399133Y-57913893D01*
X9386520Y-57892849D01*
X9376030Y-57870671D01*
X9367765Y-57847571D01*
X9361804Y-57823773D01*
X9358204Y-57799504D01*
X9357000Y-57775000D01*
X9357000Y-56525000D01*
X9358204Y-56500496D01*
X9361804Y-56476227D01*
X9367765Y-56452429D01*
X9376030Y-56429329D01*
X9386520Y-56407151D01*
X9399133Y-56386107D01*
X9413747Y-56366402D01*
X9430223Y-56348223D01*
X9448402Y-56331747D01*
X9468107Y-56317133D01*
X9489151Y-56304520D01*
X9511329Y-56294030D01*
X9534429Y-56285765D01*
X9558227Y-56279804D01*
X9582496Y-56276204D01*
X9607000Y-56275000D01*
X10532000Y-56275000D01*
X10556504Y-56276204D01*
X10556504Y-56276204D01*
G37*
D13*
X10069500Y-57150000D03*
G04 #@! TD*
D16*
G04 #@! TO.C,U14*
X7432000Y-32868611D03*
X-2098000Y-30328611D03*
X7432000Y-30328611D03*
X-2098000Y-32868611D03*
G04 #@! TD*
G04 #@! TO.C,U13*
X6606500Y-65214500D03*
X-2923500Y-62674500D03*
X6606500Y-62674500D03*
X-2923500Y-65214500D03*
G04 #@! TD*
G04 #@! TO.C,U12*
X-2098000Y-2261611D03*
X7432000Y-4801611D03*
X-2098000Y-4801611D03*
X7432000Y-2261611D03*
G04 #@! TD*
G04 #@! TO.C,U11*
X-2098000Y3453389D03*
X7432000Y913389D03*
X-2098000Y913389D03*
X7432000Y3453389D03*
G04 #@! TD*
G04 #@! TO.C,U10*
X-2098000Y9168389D03*
X7432000Y6628389D03*
X-2098000Y6628389D03*
X7432000Y9168389D03*
G04 #@! TD*
G04 #@! TO.C,U9*
X-2098000Y14883389D03*
X7432000Y12343389D03*
X-2098000Y12343389D03*
X7432000Y14883389D03*
G04 #@! TD*
G04 #@! TO.C,U8*
X-2098000Y20598389D03*
X7432000Y18058389D03*
X-2098000Y18058389D03*
X7432000Y20598389D03*
G04 #@! TD*
G04 #@! TO.C,U7*
X-2098000Y-24613611D03*
X7432000Y-27153611D03*
X-2098000Y-27153611D03*
X7432000Y-24613611D03*
G04 #@! TD*
G04 #@! TO.C,U6*
X-2098000Y26289000D03*
X7432000Y23749000D03*
X-2098000Y23749000D03*
X7432000Y26289000D03*
G04 #@! TD*
G04 #@! TO.C,U5*
X7432000Y-18898611D03*
X-2098000Y-16358611D03*
X7432000Y-16358611D03*
X-2098000Y-18898611D03*
G04 #@! TD*
G04 #@! TO.C,U4*
X7432000Y-10516611D03*
X-2098000Y-7976611D03*
X7432000Y-7976611D03*
X-2098000Y-10516611D03*
G04 #@! TD*
G04 #@! TO.C,U2*
X-2860000Y-48641000D03*
X6670000Y-51181000D03*
X-2860000Y-51181000D03*
X6670000Y-48641000D03*
G04 #@! TD*
G04 #@! TO.C,U1*
X6606500Y-74104500D03*
X-2923500Y-71564500D03*
X6606500Y-71564500D03*
X-2923500Y-74104500D03*
G04 #@! TD*
D23*
G04 #@! TO.C,U15*
X6164000Y41477452D03*
D24*
X-136000Y43757452D03*
X-136000Y41477452D03*
X-136000Y39197452D03*
G04 #@! TD*
D10*
G04 #@! TO.C,R15*
G36*
X13531504Y-47767204D02*
X13555773Y-47770804D01*
X13579571Y-47776765D01*
X13602671Y-47785030D01*
X13624849Y-47795520D01*
X13645893Y-47808133D01*
X13665598Y-47822747D01*
X13683777Y-47839223D01*
X13700253Y-47857402D01*
X13714867Y-47877107D01*
X13727480Y-47898151D01*
X13737970Y-47920329D01*
X13746235Y-47943429D01*
X13752196Y-47967227D01*
X13755796Y-47991496D01*
X13757000Y-48016000D01*
X13757000Y-49266000D01*
X13755796Y-49290504D01*
X13752196Y-49314773D01*
X13746235Y-49338571D01*
X13737970Y-49361671D01*
X13727480Y-49383849D01*
X13714867Y-49404893D01*
X13700253Y-49424598D01*
X13683777Y-49442777D01*
X13665598Y-49459253D01*
X13645893Y-49473867D01*
X13624849Y-49486480D01*
X13602671Y-49496970D01*
X13579571Y-49505235D01*
X13555773Y-49511196D01*
X13531504Y-49514796D01*
X13507000Y-49516000D01*
X12582000Y-49516000D01*
X12557496Y-49514796D01*
X12533227Y-49511196D01*
X12509429Y-49505235D01*
X12486329Y-49496970D01*
X12464151Y-49486480D01*
X12443107Y-49473867D01*
X12423402Y-49459253D01*
X12405223Y-49442777D01*
X12388747Y-49424598D01*
X12374133Y-49404893D01*
X12361520Y-49383849D01*
X12351030Y-49361671D01*
X12342765Y-49338571D01*
X12336804Y-49314773D01*
X12333204Y-49290504D01*
X12332000Y-49266000D01*
X12332000Y-48016000D01*
X12333204Y-47991496D01*
X12336804Y-47967227D01*
X12342765Y-47943429D01*
X12351030Y-47920329D01*
X12361520Y-47898151D01*
X12374133Y-47877107D01*
X12388747Y-47857402D01*
X12405223Y-47839223D01*
X12423402Y-47822747D01*
X12443107Y-47808133D01*
X12464151Y-47795520D01*
X12486329Y-47785030D01*
X12509429Y-47776765D01*
X12533227Y-47770804D01*
X12557496Y-47767204D01*
X12582000Y-47766000D01*
X13507000Y-47766000D01*
X13531504Y-47767204D01*
X13531504Y-47767204D01*
G37*
D13*
X13044500Y-48641000D03*
D10*
G36*
X10556504Y-47767204D02*
X10580773Y-47770804D01*
X10604571Y-47776765D01*
X10627671Y-47785030D01*
X10649849Y-47795520D01*
X10670893Y-47808133D01*
X10690598Y-47822747D01*
X10708777Y-47839223D01*
X10725253Y-47857402D01*
X10739867Y-47877107D01*
X10752480Y-47898151D01*
X10762970Y-47920329D01*
X10771235Y-47943429D01*
X10777196Y-47967227D01*
X10780796Y-47991496D01*
X10782000Y-48016000D01*
X10782000Y-49266000D01*
X10780796Y-49290504D01*
X10777196Y-49314773D01*
X10771235Y-49338571D01*
X10762970Y-49361671D01*
X10752480Y-49383849D01*
X10739867Y-49404893D01*
X10725253Y-49424598D01*
X10708777Y-49442777D01*
X10690598Y-49459253D01*
X10670893Y-49473867D01*
X10649849Y-49486480D01*
X10627671Y-49496970D01*
X10604571Y-49505235D01*
X10580773Y-49511196D01*
X10556504Y-49514796D01*
X10532000Y-49516000D01*
X9607000Y-49516000D01*
X9582496Y-49514796D01*
X9558227Y-49511196D01*
X9534429Y-49505235D01*
X9511329Y-49496970D01*
X9489151Y-49486480D01*
X9468107Y-49473867D01*
X9448402Y-49459253D01*
X9430223Y-49442777D01*
X9413747Y-49424598D01*
X9399133Y-49404893D01*
X9386520Y-49383849D01*
X9376030Y-49361671D01*
X9367765Y-49338571D01*
X9361804Y-49314773D01*
X9358204Y-49290504D01*
X9357000Y-49266000D01*
X9357000Y-48016000D01*
X9358204Y-47991496D01*
X9361804Y-47967227D01*
X9367765Y-47943429D01*
X9376030Y-47920329D01*
X9386520Y-47898151D01*
X9399133Y-47877107D01*
X9413747Y-47857402D01*
X9430223Y-47839223D01*
X9448402Y-47822747D01*
X9468107Y-47808133D01*
X9489151Y-47795520D01*
X9511329Y-47785030D01*
X9534429Y-47776765D01*
X9558227Y-47770804D01*
X9582496Y-47767204D01*
X9607000Y-47766000D01*
X10532000Y-47766000D01*
X10556504Y-47767204D01*
X10556504Y-47767204D01*
G37*
D13*
X10069500Y-48641000D03*
G04 #@! TD*
D10*
G04 #@! TO.C,R14*
G36*
X13531504Y-52339204D02*
X13555773Y-52342804D01*
X13579571Y-52348765D01*
X13602671Y-52357030D01*
X13624849Y-52367520D01*
X13645893Y-52380133D01*
X13665598Y-52394747D01*
X13683777Y-52411223D01*
X13700253Y-52429402D01*
X13714867Y-52449107D01*
X13727480Y-52470151D01*
X13737970Y-52492329D01*
X13746235Y-52515429D01*
X13752196Y-52539227D01*
X13755796Y-52563496D01*
X13757000Y-52588000D01*
X13757000Y-53838000D01*
X13755796Y-53862504D01*
X13752196Y-53886773D01*
X13746235Y-53910571D01*
X13737970Y-53933671D01*
X13727480Y-53955849D01*
X13714867Y-53976893D01*
X13700253Y-53996598D01*
X13683777Y-54014777D01*
X13665598Y-54031253D01*
X13645893Y-54045867D01*
X13624849Y-54058480D01*
X13602671Y-54068970D01*
X13579571Y-54077235D01*
X13555773Y-54083196D01*
X13531504Y-54086796D01*
X13507000Y-54088000D01*
X12582000Y-54088000D01*
X12557496Y-54086796D01*
X12533227Y-54083196D01*
X12509429Y-54077235D01*
X12486329Y-54068970D01*
X12464151Y-54058480D01*
X12443107Y-54045867D01*
X12423402Y-54031253D01*
X12405223Y-54014777D01*
X12388747Y-53996598D01*
X12374133Y-53976893D01*
X12361520Y-53955849D01*
X12351030Y-53933671D01*
X12342765Y-53910571D01*
X12336804Y-53886773D01*
X12333204Y-53862504D01*
X12332000Y-53838000D01*
X12332000Y-52588000D01*
X12333204Y-52563496D01*
X12336804Y-52539227D01*
X12342765Y-52515429D01*
X12351030Y-52492329D01*
X12361520Y-52470151D01*
X12374133Y-52449107D01*
X12388747Y-52429402D01*
X12405223Y-52411223D01*
X12423402Y-52394747D01*
X12443107Y-52380133D01*
X12464151Y-52367520D01*
X12486329Y-52357030D01*
X12509429Y-52348765D01*
X12533227Y-52342804D01*
X12557496Y-52339204D01*
X12582000Y-52338000D01*
X13507000Y-52338000D01*
X13531504Y-52339204D01*
X13531504Y-52339204D01*
G37*
D13*
X13044500Y-53213000D03*
D10*
G36*
X10556504Y-52339204D02*
X10580773Y-52342804D01*
X10604571Y-52348765D01*
X10627671Y-52357030D01*
X10649849Y-52367520D01*
X10670893Y-52380133D01*
X10690598Y-52394747D01*
X10708777Y-52411223D01*
X10725253Y-52429402D01*
X10739867Y-52449107D01*
X10752480Y-52470151D01*
X10762970Y-52492329D01*
X10771235Y-52515429D01*
X10777196Y-52539227D01*
X10780796Y-52563496D01*
X10782000Y-52588000D01*
X10782000Y-53838000D01*
X10780796Y-53862504D01*
X10777196Y-53886773D01*
X10771235Y-53910571D01*
X10762970Y-53933671D01*
X10752480Y-53955849D01*
X10739867Y-53976893D01*
X10725253Y-53996598D01*
X10708777Y-54014777D01*
X10690598Y-54031253D01*
X10670893Y-54045867D01*
X10649849Y-54058480D01*
X10627671Y-54068970D01*
X10604571Y-54077235D01*
X10580773Y-54083196D01*
X10556504Y-54086796D01*
X10532000Y-54088000D01*
X9607000Y-54088000D01*
X9582496Y-54086796D01*
X9558227Y-54083196D01*
X9534429Y-54077235D01*
X9511329Y-54068970D01*
X9489151Y-54058480D01*
X9468107Y-54045867D01*
X9448402Y-54031253D01*
X9430223Y-54014777D01*
X9413747Y-53996598D01*
X9399133Y-53976893D01*
X9386520Y-53955849D01*
X9376030Y-53933671D01*
X9367765Y-53910571D01*
X9361804Y-53886773D01*
X9358204Y-53862504D01*
X9357000Y-53838000D01*
X9357000Y-52588000D01*
X9358204Y-52563496D01*
X9361804Y-52539227D01*
X9367765Y-52515429D01*
X9376030Y-52492329D01*
X9386520Y-52470151D01*
X9399133Y-52449107D01*
X9413747Y-52429402D01*
X9430223Y-52411223D01*
X9448402Y-52394747D01*
X9468107Y-52380133D01*
X9489151Y-52367520D01*
X9511329Y-52357030D01*
X9534429Y-52348765D01*
X9558227Y-52342804D01*
X9582496Y-52339204D01*
X9607000Y-52338000D01*
X10532000Y-52338000D01*
X10556504Y-52339204D01*
X10556504Y-52339204D01*
G37*
D13*
X10069500Y-53213000D03*
G04 #@! TD*
D10*
G04 #@! TO.C,R13*
G36*
X13531504Y-41544204D02*
X13555773Y-41547804D01*
X13579571Y-41553765D01*
X13602671Y-41562030D01*
X13624849Y-41572520D01*
X13645893Y-41585133D01*
X13665598Y-41599747D01*
X13683777Y-41616223D01*
X13700253Y-41634402D01*
X13714867Y-41654107D01*
X13727480Y-41675151D01*
X13737970Y-41697329D01*
X13746235Y-41720429D01*
X13752196Y-41744227D01*
X13755796Y-41768496D01*
X13757000Y-41793000D01*
X13757000Y-43043000D01*
X13755796Y-43067504D01*
X13752196Y-43091773D01*
X13746235Y-43115571D01*
X13737970Y-43138671D01*
X13727480Y-43160849D01*
X13714867Y-43181893D01*
X13700253Y-43201598D01*
X13683777Y-43219777D01*
X13665598Y-43236253D01*
X13645893Y-43250867D01*
X13624849Y-43263480D01*
X13602671Y-43273970D01*
X13579571Y-43282235D01*
X13555773Y-43288196D01*
X13531504Y-43291796D01*
X13507000Y-43293000D01*
X12582000Y-43293000D01*
X12557496Y-43291796D01*
X12533227Y-43288196D01*
X12509429Y-43282235D01*
X12486329Y-43273970D01*
X12464151Y-43263480D01*
X12443107Y-43250867D01*
X12423402Y-43236253D01*
X12405223Y-43219777D01*
X12388747Y-43201598D01*
X12374133Y-43181893D01*
X12361520Y-43160849D01*
X12351030Y-43138671D01*
X12342765Y-43115571D01*
X12336804Y-43091773D01*
X12333204Y-43067504D01*
X12332000Y-43043000D01*
X12332000Y-41793000D01*
X12333204Y-41768496D01*
X12336804Y-41744227D01*
X12342765Y-41720429D01*
X12351030Y-41697329D01*
X12361520Y-41675151D01*
X12374133Y-41654107D01*
X12388747Y-41634402D01*
X12405223Y-41616223D01*
X12423402Y-41599747D01*
X12443107Y-41585133D01*
X12464151Y-41572520D01*
X12486329Y-41562030D01*
X12509429Y-41553765D01*
X12533227Y-41547804D01*
X12557496Y-41544204D01*
X12582000Y-41543000D01*
X13507000Y-41543000D01*
X13531504Y-41544204D01*
X13531504Y-41544204D01*
G37*
D13*
X13044500Y-42418000D03*
D10*
G36*
X10556504Y-41544204D02*
X10580773Y-41547804D01*
X10604571Y-41553765D01*
X10627671Y-41562030D01*
X10649849Y-41572520D01*
X10670893Y-41585133D01*
X10690598Y-41599747D01*
X10708777Y-41616223D01*
X10725253Y-41634402D01*
X10739867Y-41654107D01*
X10752480Y-41675151D01*
X10762970Y-41697329D01*
X10771235Y-41720429D01*
X10777196Y-41744227D01*
X10780796Y-41768496D01*
X10782000Y-41793000D01*
X10782000Y-43043000D01*
X10780796Y-43067504D01*
X10777196Y-43091773D01*
X10771235Y-43115571D01*
X10762970Y-43138671D01*
X10752480Y-43160849D01*
X10739867Y-43181893D01*
X10725253Y-43201598D01*
X10708777Y-43219777D01*
X10690598Y-43236253D01*
X10670893Y-43250867D01*
X10649849Y-43263480D01*
X10627671Y-43273970D01*
X10604571Y-43282235D01*
X10580773Y-43288196D01*
X10556504Y-43291796D01*
X10532000Y-43293000D01*
X9607000Y-43293000D01*
X9582496Y-43291796D01*
X9558227Y-43288196D01*
X9534429Y-43282235D01*
X9511329Y-43273970D01*
X9489151Y-43263480D01*
X9468107Y-43250867D01*
X9448402Y-43236253D01*
X9430223Y-43219777D01*
X9413747Y-43201598D01*
X9399133Y-43181893D01*
X9386520Y-43160849D01*
X9376030Y-43138671D01*
X9367765Y-43115571D01*
X9361804Y-43091773D01*
X9358204Y-43067504D01*
X9357000Y-43043000D01*
X9357000Y-41793000D01*
X9358204Y-41768496D01*
X9361804Y-41744227D01*
X9367765Y-41720429D01*
X9376030Y-41697329D01*
X9386520Y-41675151D01*
X9399133Y-41654107D01*
X9413747Y-41634402D01*
X9430223Y-41616223D01*
X9448402Y-41599747D01*
X9468107Y-41585133D01*
X9489151Y-41572520D01*
X9511329Y-41562030D01*
X9534429Y-41553765D01*
X9558227Y-41547804D01*
X9582496Y-41544204D01*
X9607000Y-41543000D01*
X10532000Y-41543000D01*
X10556504Y-41544204D01*
X10556504Y-41544204D01*
G37*
D13*
X10069500Y-42418000D03*
G04 #@! TD*
D10*
G04 #@! TO.C,R11*
G36*
X13531504Y-23637204D02*
X13555773Y-23640804D01*
X13579571Y-23646765D01*
X13602671Y-23655030D01*
X13624849Y-23665520D01*
X13645893Y-23678133D01*
X13665598Y-23692747D01*
X13683777Y-23709223D01*
X13700253Y-23727402D01*
X13714867Y-23747107D01*
X13727480Y-23768151D01*
X13737970Y-23790329D01*
X13746235Y-23813429D01*
X13752196Y-23837227D01*
X13755796Y-23861496D01*
X13757000Y-23886000D01*
X13757000Y-25136000D01*
X13755796Y-25160504D01*
X13752196Y-25184773D01*
X13746235Y-25208571D01*
X13737970Y-25231671D01*
X13727480Y-25253849D01*
X13714867Y-25274893D01*
X13700253Y-25294598D01*
X13683777Y-25312777D01*
X13665598Y-25329253D01*
X13645893Y-25343867D01*
X13624849Y-25356480D01*
X13602671Y-25366970D01*
X13579571Y-25375235D01*
X13555773Y-25381196D01*
X13531504Y-25384796D01*
X13507000Y-25386000D01*
X12582000Y-25386000D01*
X12557496Y-25384796D01*
X12533227Y-25381196D01*
X12509429Y-25375235D01*
X12486329Y-25366970D01*
X12464151Y-25356480D01*
X12443107Y-25343867D01*
X12423402Y-25329253D01*
X12405223Y-25312777D01*
X12388747Y-25294598D01*
X12374133Y-25274893D01*
X12361520Y-25253849D01*
X12351030Y-25231671D01*
X12342765Y-25208571D01*
X12336804Y-25184773D01*
X12333204Y-25160504D01*
X12332000Y-25136000D01*
X12332000Y-23886000D01*
X12333204Y-23861496D01*
X12336804Y-23837227D01*
X12342765Y-23813429D01*
X12351030Y-23790329D01*
X12361520Y-23768151D01*
X12374133Y-23747107D01*
X12388747Y-23727402D01*
X12405223Y-23709223D01*
X12423402Y-23692747D01*
X12443107Y-23678133D01*
X12464151Y-23665520D01*
X12486329Y-23655030D01*
X12509429Y-23646765D01*
X12533227Y-23640804D01*
X12557496Y-23637204D01*
X12582000Y-23636000D01*
X13507000Y-23636000D01*
X13531504Y-23637204D01*
X13531504Y-23637204D01*
G37*
D13*
X13044500Y-24511000D03*
D10*
G36*
X10556504Y-23637204D02*
X10580773Y-23640804D01*
X10604571Y-23646765D01*
X10627671Y-23655030D01*
X10649849Y-23665520D01*
X10670893Y-23678133D01*
X10690598Y-23692747D01*
X10708777Y-23709223D01*
X10725253Y-23727402D01*
X10739867Y-23747107D01*
X10752480Y-23768151D01*
X10762970Y-23790329D01*
X10771235Y-23813429D01*
X10777196Y-23837227D01*
X10780796Y-23861496D01*
X10782000Y-23886000D01*
X10782000Y-25136000D01*
X10780796Y-25160504D01*
X10777196Y-25184773D01*
X10771235Y-25208571D01*
X10762970Y-25231671D01*
X10752480Y-25253849D01*
X10739867Y-25274893D01*
X10725253Y-25294598D01*
X10708777Y-25312777D01*
X10690598Y-25329253D01*
X10670893Y-25343867D01*
X10649849Y-25356480D01*
X10627671Y-25366970D01*
X10604571Y-25375235D01*
X10580773Y-25381196D01*
X10556504Y-25384796D01*
X10532000Y-25386000D01*
X9607000Y-25386000D01*
X9582496Y-25384796D01*
X9558227Y-25381196D01*
X9534429Y-25375235D01*
X9511329Y-25366970D01*
X9489151Y-25356480D01*
X9468107Y-25343867D01*
X9448402Y-25329253D01*
X9430223Y-25312777D01*
X9413747Y-25294598D01*
X9399133Y-25274893D01*
X9386520Y-25253849D01*
X9376030Y-25231671D01*
X9367765Y-25208571D01*
X9361804Y-25184773D01*
X9358204Y-25160504D01*
X9357000Y-25136000D01*
X9357000Y-23886000D01*
X9358204Y-23861496D01*
X9361804Y-23837227D01*
X9367765Y-23813429D01*
X9376030Y-23790329D01*
X9386520Y-23768151D01*
X9399133Y-23747107D01*
X9413747Y-23727402D01*
X9430223Y-23709223D01*
X9448402Y-23692747D01*
X9468107Y-23678133D01*
X9489151Y-23665520D01*
X9511329Y-23655030D01*
X9534429Y-23646765D01*
X9558227Y-23640804D01*
X9582496Y-23637204D01*
X9607000Y-23636000D01*
X10532000Y-23636000D01*
X10556504Y-23637204D01*
X10556504Y-23637204D01*
G37*
D13*
X10069500Y-24511000D03*
G04 #@! TD*
D10*
G04 #@! TO.C,R10*
G36*
X33669504Y-15290704D02*
X33693773Y-15294304D01*
X33717571Y-15300265D01*
X33740671Y-15308530D01*
X33762849Y-15319020D01*
X33783893Y-15331633D01*
X33803598Y-15346247D01*
X33821777Y-15362723D01*
X33838253Y-15380902D01*
X33852867Y-15400607D01*
X33865480Y-15421651D01*
X33875970Y-15443829D01*
X33884235Y-15466929D01*
X33890196Y-15490727D01*
X33893796Y-15514996D01*
X33895000Y-15539500D01*
X33895000Y-16464500D01*
X33893796Y-16489004D01*
X33890196Y-16513273D01*
X33884235Y-16537071D01*
X33875970Y-16560171D01*
X33865480Y-16582349D01*
X33852867Y-16603393D01*
X33838253Y-16623098D01*
X33821777Y-16641277D01*
X33803598Y-16657753D01*
X33783893Y-16672367D01*
X33762849Y-16684980D01*
X33740671Y-16695470D01*
X33717571Y-16703735D01*
X33693773Y-16709696D01*
X33669504Y-16713296D01*
X33645000Y-16714500D01*
X32395000Y-16714500D01*
X32370496Y-16713296D01*
X32346227Y-16709696D01*
X32322429Y-16703735D01*
X32299329Y-16695470D01*
X32277151Y-16684980D01*
X32256107Y-16672367D01*
X32236402Y-16657753D01*
X32218223Y-16641277D01*
X32201747Y-16623098D01*
X32187133Y-16603393D01*
X32174520Y-16582349D01*
X32164030Y-16560171D01*
X32155765Y-16537071D01*
X32149804Y-16513273D01*
X32146204Y-16489004D01*
X32145000Y-16464500D01*
X32145000Y-15539500D01*
X32146204Y-15514996D01*
X32149804Y-15490727D01*
X32155765Y-15466929D01*
X32164030Y-15443829D01*
X32174520Y-15421651D01*
X32187133Y-15400607D01*
X32201747Y-15380902D01*
X32218223Y-15362723D01*
X32236402Y-15346247D01*
X32256107Y-15331633D01*
X32277151Y-15319020D01*
X32299329Y-15308530D01*
X32322429Y-15300265D01*
X32346227Y-15294304D01*
X32370496Y-15290704D01*
X32395000Y-15289500D01*
X33645000Y-15289500D01*
X33669504Y-15290704D01*
X33669504Y-15290704D01*
G37*
D13*
X33020000Y-16002000D03*
D10*
G36*
X33669504Y-18265704D02*
X33693773Y-18269304D01*
X33717571Y-18275265D01*
X33740671Y-18283530D01*
X33762849Y-18294020D01*
X33783893Y-18306633D01*
X33803598Y-18321247D01*
X33821777Y-18337723D01*
X33838253Y-18355902D01*
X33852867Y-18375607D01*
X33865480Y-18396651D01*
X33875970Y-18418829D01*
X33884235Y-18441929D01*
X33890196Y-18465727D01*
X33893796Y-18489996D01*
X33895000Y-18514500D01*
X33895000Y-19439500D01*
X33893796Y-19464004D01*
X33890196Y-19488273D01*
X33884235Y-19512071D01*
X33875970Y-19535171D01*
X33865480Y-19557349D01*
X33852867Y-19578393D01*
X33838253Y-19598098D01*
X33821777Y-19616277D01*
X33803598Y-19632753D01*
X33783893Y-19647367D01*
X33762849Y-19659980D01*
X33740671Y-19670470D01*
X33717571Y-19678735D01*
X33693773Y-19684696D01*
X33669504Y-19688296D01*
X33645000Y-19689500D01*
X32395000Y-19689500D01*
X32370496Y-19688296D01*
X32346227Y-19684696D01*
X32322429Y-19678735D01*
X32299329Y-19670470D01*
X32277151Y-19659980D01*
X32256107Y-19647367D01*
X32236402Y-19632753D01*
X32218223Y-19616277D01*
X32201747Y-19598098D01*
X32187133Y-19578393D01*
X32174520Y-19557349D01*
X32164030Y-19535171D01*
X32155765Y-19512071D01*
X32149804Y-19488273D01*
X32146204Y-19464004D01*
X32145000Y-19439500D01*
X32145000Y-18514500D01*
X32146204Y-18489996D01*
X32149804Y-18465727D01*
X32155765Y-18441929D01*
X32164030Y-18418829D01*
X32174520Y-18396651D01*
X32187133Y-18375607D01*
X32201747Y-18355902D01*
X32218223Y-18337723D01*
X32236402Y-18321247D01*
X32256107Y-18306633D01*
X32277151Y-18294020D01*
X32299329Y-18283530D01*
X32322429Y-18275265D01*
X32346227Y-18269304D01*
X32370496Y-18265704D01*
X32395000Y-18264500D01*
X33645000Y-18264500D01*
X33669504Y-18265704D01*
X33669504Y-18265704D01*
G37*
D13*
X33020000Y-18977000D03*
G04 #@! TD*
D10*
G04 #@! TO.C,R9*
G36*
X18934840Y749794D02*
X18959109Y746194D01*
X18982907Y740233D01*
X19006007Y731968D01*
X19028185Y721478D01*
X19049229Y708865D01*
X19068934Y694251D01*
X19087113Y677775D01*
X19103589Y659596D01*
X19118203Y639891D01*
X19130816Y618847D01*
X19141306Y596669D01*
X19149571Y573569D01*
X19155532Y549771D01*
X19159132Y525502D01*
X19160336Y500998D01*
X19160336Y-749002D01*
X19159132Y-773506D01*
X19155532Y-797775D01*
X19149571Y-821573D01*
X19141306Y-844673D01*
X19130816Y-866851D01*
X19118203Y-887895D01*
X19103589Y-907600D01*
X19087113Y-925779D01*
X19068934Y-942255D01*
X19049229Y-956869D01*
X19028185Y-969482D01*
X19006007Y-979972D01*
X18982907Y-988237D01*
X18959109Y-994198D01*
X18934840Y-997798D01*
X18910336Y-999002D01*
X17985336Y-999002D01*
X17960832Y-997798D01*
X17936563Y-994198D01*
X17912765Y-988237D01*
X17889665Y-979972D01*
X17867487Y-969482D01*
X17846443Y-956869D01*
X17826738Y-942255D01*
X17808559Y-925779D01*
X17792083Y-907600D01*
X17777469Y-887895D01*
X17764856Y-866851D01*
X17754366Y-844673D01*
X17746101Y-821573D01*
X17740140Y-797775D01*
X17736540Y-773506D01*
X17735336Y-749002D01*
X17735336Y500998D01*
X17736540Y525502D01*
X17740140Y549771D01*
X17746101Y573569D01*
X17754366Y596669D01*
X17764856Y618847D01*
X17777469Y639891D01*
X17792083Y659596D01*
X17808559Y677775D01*
X17826738Y694251D01*
X17846443Y708865D01*
X17867487Y721478D01*
X17889665Y731968D01*
X17912765Y740233D01*
X17936563Y746194D01*
X17960832Y749794D01*
X17985336Y750998D01*
X18910336Y750998D01*
X18934840Y749794D01*
X18934840Y749794D01*
G37*
D13*
X18447836Y-124002D03*
D10*
G36*
X15959840Y749794D02*
X15984109Y746194D01*
X16007907Y740233D01*
X16031007Y731968D01*
X16053185Y721478D01*
X16074229Y708865D01*
X16093934Y694251D01*
X16112113Y677775D01*
X16128589Y659596D01*
X16143203Y639891D01*
X16155816Y618847D01*
X16166306Y596669D01*
X16174571Y573569D01*
X16180532Y549771D01*
X16184132Y525502D01*
X16185336Y500998D01*
X16185336Y-749002D01*
X16184132Y-773506D01*
X16180532Y-797775D01*
X16174571Y-821573D01*
X16166306Y-844673D01*
X16155816Y-866851D01*
X16143203Y-887895D01*
X16128589Y-907600D01*
X16112113Y-925779D01*
X16093934Y-942255D01*
X16074229Y-956869D01*
X16053185Y-969482D01*
X16031007Y-979972D01*
X16007907Y-988237D01*
X15984109Y-994198D01*
X15959840Y-997798D01*
X15935336Y-999002D01*
X15010336Y-999002D01*
X14985832Y-997798D01*
X14961563Y-994198D01*
X14937765Y-988237D01*
X14914665Y-979972D01*
X14892487Y-969482D01*
X14871443Y-956869D01*
X14851738Y-942255D01*
X14833559Y-925779D01*
X14817083Y-907600D01*
X14802469Y-887895D01*
X14789856Y-866851D01*
X14779366Y-844673D01*
X14771101Y-821573D01*
X14765140Y-797775D01*
X14761540Y-773506D01*
X14760336Y-749002D01*
X14760336Y500998D01*
X14761540Y525502D01*
X14765140Y549771D01*
X14771101Y573569D01*
X14779366Y596669D01*
X14789856Y618847D01*
X14802469Y639891D01*
X14817083Y659596D01*
X14833559Y677775D01*
X14851738Y694251D01*
X14871443Y708865D01*
X14892487Y721478D01*
X14914665Y731968D01*
X14937765Y740233D01*
X14961563Y746194D01*
X14985832Y749794D01*
X15010336Y750998D01*
X15935336Y750998D01*
X15959840Y749794D01*
X15959840Y749794D01*
G37*
D13*
X15472836Y-124002D03*
G04 #@! TD*
D10*
G04 #@! TO.C,R8*
G36*
X18934840Y3289794D02*
X18959109Y3286194D01*
X18982907Y3280233D01*
X19006007Y3271968D01*
X19028185Y3261478D01*
X19049229Y3248865D01*
X19068934Y3234251D01*
X19087113Y3217775D01*
X19103589Y3199596D01*
X19118203Y3179891D01*
X19130816Y3158847D01*
X19141306Y3136669D01*
X19149571Y3113569D01*
X19155532Y3089771D01*
X19159132Y3065502D01*
X19160336Y3040998D01*
X19160336Y1790998D01*
X19159132Y1766494D01*
X19155532Y1742225D01*
X19149571Y1718427D01*
X19141306Y1695327D01*
X19130816Y1673149D01*
X19118203Y1652105D01*
X19103589Y1632400D01*
X19087113Y1614221D01*
X19068934Y1597745D01*
X19049229Y1583131D01*
X19028185Y1570518D01*
X19006007Y1560028D01*
X18982907Y1551763D01*
X18959109Y1545802D01*
X18934840Y1542202D01*
X18910336Y1540998D01*
X17985336Y1540998D01*
X17960832Y1542202D01*
X17936563Y1545802D01*
X17912765Y1551763D01*
X17889665Y1560028D01*
X17867487Y1570518D01*
X17846443Y1583131D01*
X17826738Y1597745D01*
X17808559Y1614221D01*
X17792083Y1632400D01*
X17777469Y1652105D01*
X17764856Y1673149D01*
X17754366Y1695327D01*
X17746101Y1718427D01*
X17740140Y1742225D01*
X17736540Y1766494D01*
X17735336Y1790998D01*
X17735336Y3040998D01*
X17736540Y3065502D01*
X17740140Y3089771D01*
X17746101Y3113569D01*
X17754366Y3136669D01*
X17764856Y3158847D01*
X17777469Y3179891D01*
X17792083Y3199596D01*
X17808559Y3217775D01*
X17826738Y3234251D01*
X17846443Y3248865D01*
X17867487Y3261478D01*
X17889665Y3271968D01*
X17912765Y3280233D01*
X17936563Y3286194D01*
X17960832Y3289794D01*
X17985336Y3290998D01*
X18910336Y3290998D01*
X18934840Y3289794D01*
X18934840Y3289794D01*
G37*
D13*
X18447836Y2415998D03*
D10*
G36*
X15959840Y3289794D02*
X15984109Y3286194D01*
X16007907Y3280233D01*
X16031007Y3271968D01*
X16053185Y3261478D01*
X16074229Y3248865D01*
X16093934Y3234251D01*
X16112113Y3217775D01*
X16128589Y3199596D01*
X16143203Y3179891D01*
X16155816Y3158847D01*
X16166306Y3136669D01*
X16174571Y3113569D01*
X16180532Y3089771D01*
X16184132Y3065502D01*
X16185336Y3040998D01*
X16185336Y1790998D01*
X16184132Y1766494D01*
X16180532Y1742225D01*
X16174571Y1718427D01*
X16166306Y1695327D01*
X16155816Y1673149D01*
X16143203Y1652105D01*
X16128589Y1632400D01*
X16112113Y1614221D01*
X16093934Y1597745D01*
X16074229Y1583131D01*
X16053185Y1570518D01*
X16031007Y1560028D01*
X16007907Y1551763D01*
X15984109Y1545802D01*
X15959840Y1542202D01*
X15935336Y1540998D01*
X15010336Y1540998D01*
X14985832Y1542202D01*
X14961563Y1545802D01*
X14937765Y1551763D01*
X14914665Y1560028D01*
X14892487Y1570518D01*
X14871443Y1583131D01*
X14851738Y1597745D01*
X14833559Y1614221D01*
X14817083Y1632400D01*
X14802469Y1652105D01*
X14789856Y1673149D01*
X14779366Y1695327D01*
X14771101Y1718427D01*
X14765140Y1742225D01*
X14761540Y1766494D01*
X14760336Y1790998D01*
X14760336Y3040998D01*
X14761540Y3065502D01*
X14765140Y3089771D01*
X14771101Y3113569D01*
X14779366Y3136669D01*
X14789856Y3158847D01*
X14802469Y3179891D01*
X14817083Y3199596D01*
X14833559Y3217775D01*
X14851738Y3234251D01*
X14871443Y3248865D01*
X14892487Y3261478D01*
X14914665Y3271968D01*
X14937765Y3280233D01*
X14961563Y3286194D01*
X14985832Y3289794D01*
X15010336Y3290998D01*
X15935336Y3290998D01*
X15959840Y3289794D01*
X15959840Y3289794D01*
G37*
D13*
X15472836Y2415998D03*
G04 #@! TD*
D10*
G04 #@! TO.C,R7*
G36*
X18934840Y5829794D02*
X18959109Y5826194D01*
X18982907Y5820233D01*
X19006007Y5811968D01*
X19028185Y5801478D01*
X19049229Y5788865D01*
X19068934Y5774251D01*
X19087113Y5757775D01*
X19103589Y5739596D01*
X19118203Y5719891D01*
X19130816Y5698847D01*
X19141306Y5676669D01*
X19149571Y5653569D01*
X19155532Y5629771D01*
X19159132Y5605502D01*
X19160336Y5580998D01*
X19160336Y4330998D01*
X19159132Y4306494D01*
X19155532Y4282225D01*
X19149571Y4258427D01*
X19141306Y4235327D01*
X19130816Y4213149D01*
X19118203Y4192105D01*
X19103589Y4172400D01*
X19087113Y4154221D01*
X19068934Y4137745D01*
X19049229Y4123131D01*
X19028185Y4110518D01*
X19006007Y4100028D01*
X18982907Y4091763D01*
X18959109Y4085802D01*
X18934840Y4082202D01*
X18910336Y4080998D01*
X17985336Y4080998D01*
X17960832Y4082202D01*
X17936563Y4085802D01*
X17912765Y4091763D01*
X17889665Y4100028D01*
X17867487Y4110518D01*
X17846443Y4123131D01*
X17826738Y4137745D01*
X17808559Y4154221D01*
X17792083Y4172400D01*
X17777469Y4192105D01*
X17764856Y4213149D01*
X17754366Y4235327D01*
X17746101Y4258427D01*
X17740140Y4282225D01*
X17736540Y4306494D01*
X17735336Y4330998D01*
X17735336Y5580998D01*
X17736540Y5605502D01*
X17740140Y5629771D01*
X17746101Y5653569D01*
X17754366Y5676669D01*
X17764856Y5698847D01*
X17777469Y5719891D01*
X17792083Y5739596D01*
X17808559Y5757775D01*
X17826738Y5774251D01*
X17846443Y5788865D01*
X17867487Y5801478D01*
X17889665Y5811968D01*
X17912765Y5820233D01*
X17936563Y5826194D01*
X17960832Y5829794D01*
X17985336Y5830998D01*
X18910336Y5830998D01*
X18934840Y5829794D01*
X18934840Y5829794D01*
G37*
D13*
X18447836Y4955998D03*
D10*
G36*
X15959840Y5829794D02*
X15984109Y5826194D01*
X16007907Y5820233D01*
X16031007Y5811968D01*
X16053185Y5801478D01*
X16074229Y5788865D01*
X16093934Y5774251D01*
X16112113Y5757775D01*
X16128589Y5739596D01*
X16143203Y5719891D01*
X16155816Y5698847D01*
X16166306Y5676669D01*
X16174571Y5653569D01*
X16180532Y5629771D01*
X16184132Y5605502D01*
X16185336Y5580998D01*
X16185336Y4330998D01*
X16184132Y4306494D01*
X16180532Y4282225D01*
X16174571Y4258427D01*
X16166306Y4235327D01*
X16155816Y4213149D01*
X16143203Y4192105D01*
X16128589Y4172400D01*
X16112113Y4154221D01*
X16093934Y4137745D01*
X16074229Y4123131D01*
X16053185Y4110518D01*
X16031007Y4100028D01*
X16007907Y4091763D01*
X15984109Y4085802D01*
X15959840Y4082202D01*
X15935336Y4080998D01*
X15010336Y4080998D01*
X14985832Y4082202D01*
X14961563Y4085802D01*
X14937765Y4091763D01*
X14914665Y4100028D01*
X14892487Y4110518D01*
X14871443Y4123131D01*
X14851738Y4137745D01*
X14833559Y4154221D01*
X14817083Y4172400D01*
X14802469Y4192105D01*
X14789856Y4213149D01*
X14779366Y4235327D01*
X14771101Y4258427D01*
X14765140Y4282225D01*
X14761540Y4306494D01*
X14760336Y4330998D01*
X14760336Y5580998D01*
X14761540Y5605502D01*
X14765140Y5629771D01*
X14771101Y5653569D01*
X14779366Y5676669D01*
X14789856Y5698847D01*
X14802469Y5719891D01*
X14817083Y5739596D01*
X14833559Y5757775D01*
X14851738Y5774251D01*
X14871443Y5788865D01*
X14892487Y5801478D01*
X14914665Y5811968D01*
X14937765Y5820233D01*
X14961563Y5826194D01*
X14985832Y5829794D01*
X15010336Y5830998D01*
X15935336Y5830998D01*
X15959840Y5829794D01*
X15959840Y5829794D01*
G37*
D13*
X15472836Y4955998D03*
G04 #@! TD*
D10*
G04 #@! TO.C,R6*
G36*
X18934840Y8369794D02*
X18959109Y8366194D01*
X18982907Y8360233D01*
X19006007Y8351968D01*
X19028185Y8341478D01*
X19049229Y8328865D01*
X19068934Y8314251D01*
X19087113Y8297775D01*
X19103589Y8279596D01*
X19118203Y8259891D01*
X19130816Y8238847D01*
X19141306Y8216669D01*
X19149571Y8193569D01*
X19155532Y8169771D01*
X19159132Y8145502D01*
X19160336Y8120998D01*
X19160336Y6870998D01*
X19159132Y6846494D01*
X19155532Y6822225D01*
X19149571Y6798427D01*
X19141306Y6775327D01*
X19130816Y6753149D01*
X19118203Y6732105D01*
X19103589Y6712400D01*
X19087113Y6694221D01*
X19068934Y6677745D01*
X19049229Y6663131D01*
X19028185Y6650518D01*
X19006007Y6640028D01*
X18982907Y6631763D01*
X18959109Y6625802D01*
X18934840Y6622202D01*
X18910336Y6620998D01*
X17985336Y6620998D01*
X17960832Y6622202D01*
X17936563Y6625802D01*
X17912765Y6631763D01*
X17889665Y6640028D01*
X17867487Y6650518D01*
X17846443Y6663131D01*
X17826738Y6677745D01*
X17808559Y6694221D01*
X17792083Y6712400D01*
X17777469Y6732105D01*
X17764856Y6753149D01*
X17754366Y6775327D01*
X17746101Y6798427D01*
X17740140Y6822225D01*
X17736540Y6846494D01*
X17735336Y6870998D01*
X17735336Y8120998D01*
X17736540Y8145502D01*
X17740140Y8169771D01*
X17746101Y8193569D01*
X17754366Y8216669D01*
X17764856Y8238847D01*
X17777469Y8259891D01*
X17792083Y8279596D01*
X17808559Y8297775D01*
X17826738Y8314251D01*
X17846443Y8328865D01*
X17867487Y8341478D01*
X17889665Y8351968D01*
X17912765Y8360233D01*
X17936563Y8366194D01*
X17960832Y8369794D01*
X17985336Y8370998D01*
X18910336Y8370998D01*
X18934840Y8369794D01*
X18934840Y8369794D01*
G37*
D13*
X18447836Y7495998D03*
D10*
G36*
X15959840Y8369794D02*
X15984109Y8366194D01*
X16007907Y8360233D01*
X16031007Y8351968D01*
X16053185Y8341478D01*
X16074229Y8328865D01*
X16093934Y8314251D01*
X16112113Y8297775D01*
X16128589Y8279596D01*
X16143203Y8259891D01*
X16155816Y8238847D01*
X16166306Y8216669D01*
X16174571Y8193569D01*
X16180532Y8169771D01*
X16184132Y8145502D01*
X16185336Y8120998D01*
X16185336Y6870998D01*
X16184132Y6846494D01*
X16180532Y6822225D01*
X16174571Y6798427D01*
X16166306Y6775327D01*
X16155816Y6753149D01*
X16143203Y6732105D01*
X16128589Y6712400D01*
X16112113Y6694221D01*
X16093934Y6677745D01*
X16074229Y6663131D01*
X16053185Y6650518D01*
X16031007Y6640028D01*
X16007907Y6631763D01*
X15984109Y6625802D01*
X15959840Y6622202D01*
X15935336Y6620998D01*
X15010336Y6620998D01*
X14985832Y6622202D01*
X14961563Y6625802D01*
X14937765Y6631763D01*
X14914665Y6640028D01*
X14892487Y6650518D01*
X14871443Y6663131D01*
X14851738Y6677745D01*
X14833559Y6694221D01*
X14817083Y6712400D01*
X14802469Y6732105D01*
X14789856Y6753149D01*
X14779366Y6775327D01*
X14771101Y6798427D01*
X14765140Y6822225D01*
X14761540Y6846494D01*
X14760336Y6870998D01*
X14760336Y8120998D01*
X14761540Y8145502D01*
X14765140Y8169771D01*
X14771101Y8193569D01*
X14779366Y8216669D01*
X14789856Y8238847D01*
X14802469Y8259891D01*
X14817083Y8279596D01*
X14833559Y8297775D01*
X14851738Y8314251D01*
X14871443Y8328865D01*
X14892487Y8341478D01*
X14914665Y8351968D01*
X14937765Y8360233D01*
X14961563Y8366194D01*
X14985832Y8369794D01*
X15010336Y8370998D01*
X15935336Y8370998D01*
X15959840Y8369794D01*
X15959840Y8369794D01*
G37*
D13*
X15472836Y7495998D03*
G04 #@! TD*
D10*
G04 #@! TO.C,R5*
G36*
X18934840Y10909794D02*
X18959109Y10906194D01*
X18982907Y10900233D01*
X19006007Y10891968D01*
X19028185Y10881478D01*
X19049229Y10868865D01*
X19068934Y10854251D01*
X19087113Y10837775D01*
X19103589Y10819596D01*
X19118203Y10799891D01*
X19130816Y10778847D01*
X19141306Y10756669D01*
X19149571Y10733569D01*
X19155532Y10709771D01*
X19159132Y10685502D01*
X19160336Y10660998D01*
X19160336Y9410998D01*
X19159132Y9386494D01*
X19155532Y9362225D01*
X19149571Y9338427D01*
X19141306Y9315327D01*
X19130816Y9293149D01*
X19118203Y9272105D01*
X19103589Y9252400D01*
X19087113Y9234221D01*
X19068934Y9217745D01*
X19049229Y9203131D01*
X19028185Y9190518D01*
X19006007Y9180028D01*
X18982907Y9171763D01*
X18959109Y9165802D01*
X18934840Y9162202D01*
X18910336Y9160998D01*
X17985336Y9160998D01*
X17960832Y9162202D01*
X17936563Y9165802D01*
X17912765Y9171763D01*
X17889665Y9180028D01*
X17867487Y9190518D01*
X17846443Y9203131D01*
X17826738Y9217745D01*
X17808559Y9234221D01*
X17792083Y9252400D01*
X17777469Y9272105D01*
X17764856Y9293149D01*
X17754366Y9315327D01*
X17746101Y9338427D01*
X17740140Y9362225D01*
X17736540Y9386494D01*
X17735336Y9410998D01*
X17735336Y10660998D01*
X17736540Y10685502D01*
X17740140Y10709771D01*
X17746101Y10733569D01*
X17754366Y10756669D01*
X17764856Y10778847D01*
X17777469Y10799891D01*
X17792083Y10819596D01*
X17808559Y10837775D01*
X17826738Y10854251D01*
X17846443Y10868865D01*
X17867487Y10881478D01*
X17889665Y10891968D01*
X17912765Y10900233D01*
X17936563Y10906194D01*
X17960832Y10909794D01*
X17985336Y10910998D01*
X18910336Y10910998D01*
X18934840Y10909794D01*
X18934840Y10909794D01*
G37*
D13*
X18447836Y10035998D03*
D10*
G36*
X15959840Y10909794D02*
X15984109Y10906194D01*
X16007907Y10900233D01*
X16031007Y10891968D01*
X16053185Y10881478D01*
X16074229Y10868865D01*
X16093934Y10854251D01*
X16112113Y10837775D01*
X16128589Y10819596D01*
X16143203Y10799891D01*
X16155816Y10778847D01*
X16166306Y10756669D01*
X16174571Y10733569D01*
X16180532Y10709771D01*
X16184132Y10685502D01*
X16185336Y10660998D01*
X16185336Y9410998D01*
X16184132Y9386494D01*
X16180532Y9362225D01*
X16174571Y9338427D01*
X16166306Y9315327D01*
X16155816Y9293149D01*
X16143203Y9272105D01*
X16128589Y9252400D01*
X16112113Y9234221D01*
X16093934Y9217745D01*
X16074229Y9203131D01*
X16053185Y9190518D01*
X16031007Y9180028D01*
X16007907Y9171763D01*
X15984109Y9165802D01*
X15959840Y9162202D01*
X15935336Y9160998D01*
X15010336Y9160998D01*
X14985832Y9162202D01*
X14961563Y9165802D01*
X14937765Y9171763D01*
X14914665Y9180028D01*
X14892487Y9190518D01*
X14871443Y9203131D01*
X14851738Y9217745D01*
X14833559Y9234221D01*
X14817083Y9252400D01*
X14802469Y9272105D01*
X14789856Y9293149D01*
X14779366Y9315327D01*
X14771101Y9338427D01*
X14765140Y9362225D01*
X14761540Y9386494D01*
X14760336Y9410998D01*
X14760336Y10660998D01*
X14761540Y10685502D01*
X14765140Y10709771D01*
X14771101Y10733569D01*
X14779366Y10756669D01*
X14789856Y10778847D01*
X14802469Y10799891D01*
X14817083Y10819596D01*
X14833559Y10837775D01*
X14851738Y10854251D01*
X14871443Y10868865D01*
X14892487Y10881478D01*
X14914665Y10891968D01*
X14937765Y10900233D01*
X14961563Y10906194D01*
X14985832Y10909794D01*
X15010336Y10910998D01*
X15935336Y10910998D01*
X15959840Y10909794D01*
X15959840Y10909794D01*
G37*
D13*
X15472836Y10035998D03*
G04 #@! TD*
D10*
G04 #@! TO.C,R4*
G36*
X-4683496Y-35448204D02*
X-4659227Y-35451804D01*
X-4635429Y-35457765D01*
X-4612329Y-35466030D01*
X-4590151Y-35476520D01*
X-4569107Y-35489133D01*
X-4549402Y-35503747D01*
X-4531223Y-35520223D01*
X-4514747Y-35538402D01*
X-4500133Y-35558107D01*
X-4487520Y-35579151D01*
X-4477030Y-35601329D01*
X-4468765Y-35624429D01*
X-4462804Y-35648227D01*
X-4459204Y-35672496D01*
X-4458000Y-35697000D01*
X-4458000Y-36947000D01*
X-4459204Y-36971504D01*
X-4462804Y-36995773D01*
X-4468765Y-37019571D01*
X-4477030Y-37042671D01*
X-4487520Y-37064849D01*
X-4500133Y-37085893D01*
X-4514747Y-37105598D01*
X-4531223Y-37123777D01*
X-4549402Y-37140253D01*
X-4569107Y-37154867D01*
X-4590151Y-37167480D01*
X-4612329Y-37177970D01*
X-4635429Y-37186235D01*
X-4659227Y-37192196D01*
X-4683496Y-37195796D01*
X-4708000Y-37197000D01*
X-5633000Y-37197000D01*
X-5657504Y-37195796D01*
X-5681773Y-37192196D01*
X-5705571Y-37186235D01*
X-5728671Y-37177970D01*
X-5750849Y-37167480D01*
X-5771893Y-37154867D01*
X-5791598Y-37140253D01*
X-5809777Y-37123777D01*
X-5826253Y-37105598D01*
X-5840867Y-37085893D01*
X-5853480Y-37064849D01*
X-5863970Y-37042671D01*
X-5872235Y-37019571D01*
X-5878196Y-36995773D01*
X-5881796Y-36971504D01*
X-5883000Y-36947000D01*
X-5883000Y-35697000D01*
X-5881796Y-35672496D01*
X-5878196Y-35648227D01*
X-5872235Y-35624429D01*
X-5863970Y-35601329D01*
X-5853480Y-35579151D01*
X-5840867Y-35558107D01*
X-5826253Y-35538402D01*
X-5809777Y-35520223D01*
X-5791598Y-35503747D01*
X-5771893Y-35489133D01*
X-5750849Y-35476520D01*
X-5728671Y-35466030D01*
X-5705571Y-35457765D01*
X-5681773Y-35451804D01*
X-5657504Y-35448204D01*
X-5633000Y-35447000D01*
X-4708000Y-35447000D01*
X-4683496Y-35448204D01*
X-4683496Y-35448204D01*
G37*
D13*
X-5170500Y-36322000D03*
D10*
G36*
X-1708496Y-35448204D02*
X-1684227Y-35451804D01*
X-1660429Y-35457765D01*
X-1637329Y-35466030D01*
X-1615151Y-35476520D01*
X-1594107Y-35489133D01*
X-1574402Y-35503747D01*
X-1556223Y-35520223D01*
X-1539747Y-35538402D01*
X-1525133Y-35558107D01*
X-1512520Y-35579151D01*
X-1502030Y-35601329D01*
X-1493765Y-35624429D01*
X-1487804Y-35648227D01*
X-1484204Y-35672496D01*
X-1483000Y-35697000D01*
X-1483000Y-36947000D01*
X-1484204Y-36971504D01*
X-1487804Y-36995773D01*
X-1493765Y-37019571D01*
X-1502030Y-37042671D01*
X-1512520Y-37064849D01*
X-1525133Y-37085893D01*
X-1539747Y-37105598D01*
X-1556223Y-37123777D01*
X-1574402Y-37140253D01*
X-1594107Y-37154867D01*
X-1615151Y-37167480D01*
X-1637329Y-37177970D01*
X-1660429Y-37186235D01*
X-1684227Y-37192196D01*
X-1708496Y-37195796D01*
X-1733000Y-37197000D01*
X-2658000Y-37197000D01*
X-2682504Y-37195796D01*
X-2706773Y-37192196D01*
X-2730571Y-37186235D01*
X-2753671Y-37177970D01*
X-2775849Y-37167480D01*
X-2796893Y-37154867D01*
X-2816598Y-37140253D01*
X-2834777Y-37123777D01*
X-2851253Y-37105598D01*
X-2865867Y-37085893D01*
X-2878480Y-37064849D01*
X-2888970Y-37042671D01*
X-2897235Y-37019571D01*
X-2903196Y-36995773D01*
X-2906796Y-36971504D01*
X-2908000Y-36947000D01*
X-2908000Y-35697000D01*
X-2906796Y-35672496D01*
X-2903196Y-35648227D01*
X-2897235Y-35624429D01*
X-2888970Y-35601329D01*
X-2878480Y-35579151D01*
X-2865867Y-35558107D01*
X-2851253Y-35538402D01*
X-2834777Y-35520223D01*
X-2816598Y-35503747D01*
X-2796893Y-35489133D01*
X-2775849Y-35476520D01*
X-2753671Y-35466030D01*
X-2730571Y-35457765D01*
X-2706773Y-35451804D01*
X-2682504Y-35448204D01*
X-2658000Y-35447000D01*
X-1733000Y-35447000D01*
X-1708496Y-35448204D01*
X-1708496Y-35448204D01*
G37*
D13*
X-2195500Y-36322000D03*
G04 #@! TD*
D10*
G04 #@! TO.C,R3*
G36*
X-8112496Y-18049204D02*
X-8088227Y-18052804D01*
X-8064429Y-18058765D01*
X-8041329Y-18067030D01*
X-8019151Y-18077520D01*
X-7998107Y-18090133D01*
X-7978402Y-18104747D01*
X-7960223Y-18121223D01*
X-7943747Y-18139402D01*
X-7929133Y-18159107D01*
X-7916520Y-18180151D01*
X-7906030Y-18202329D01*
X-7897765Y-18225429D01*
X-7891804Y-18249227D01*
X-7888204Y-18273496D01*
X-7887000Y-18298000D01*
X-7887000Y-19548000D01*
X-7888204Y-19572504D01*
X-7891804Y-19596773D01*
X-7897765Y-19620571D01*
X-7906030Y-19643671D01*
X-7916520Y-19665849D01*
X-7929133Y-19686893D01*
X-7943747Y-19706598D01*
X-7960223Y-19724777D01*
X-7978402Y-19741253D01*
X-7998107Y-19755867D01*
X-8019151Y-19768480D01*
X-8041329Y-19778970D01*
X-8064429Y-19787235D01*
X-8088227Y-19793196D01*
X-8112496Y-19796796D01*
X-8137000Y-19798000D01*
X-9062000Y-19798000D01*
X-9086504Y-19796796D01*
X-9110773Y-19793196D01*
X-9134571Y-19787235D01*
X-9157671Y-19778970D01*
X-9179849Y-19768480D01*
X-9200893Y-19755867D01*
X-9220598Y-19741253D01*
X-9238777Y-19724777D01*
X-9255253Y-19706598D01*
X-9269867Y-19686893D01*
X-9282480Y-19665849D01*
X-9292970Y-19643671D01*
X-9301235Y-19620571D01*
X-9307196Y-19596773D01*
X-9310796Y-19572504D01*
X-9312000Y-19548000D01*
X-9312000Y-18298000D01*
X-9310796Y-18273496D01*
X-9307196Y-18249227D01*
X-9301235Y-18225429D01*
X-9292970Y-18202329D01*
X-9282480Y-18180151D01*
X-9269867Y-18159107D01*
X-9255253Y-18139402D01*
X-9238777Y-18121223D01*
X-9220598Y-18104747D01*
X-9200893Y-18090133D01*
X-9179849Y-18077520D01*
X-9157671Y-18067030D01*
X-9134571Y-18058765D01*
X-9110773Y-18052804D01*
X-9086504Y-18049204D01*
X-9062000Y-18048000D01*
X-8137000Y-18048000D01*
X-8112496Y-18049204D01*
X-8112496Y-18049204D01*
G37*
D13*
X-8599500Y-18923000D03*
D10*
G36*
X-5137496Y-18049204D02*
X-5113227Y-18052804D01*
X-5089429Y-18058765D01*
X-5066329Y-18067030D01*
X-5044151Y-18077520D01*
X-5023107Y-18090133D01*
X-5003402Y-18104747D01*
X-4985223Y-18121223D01*
X-4968747Y-18139402D01*
X-4954133Y-18159107D01*
X-4941520Y-18180151D01*
X-4931030Y-18202329D01*
X-4922765Y-18225429D01*
X-4916804Y-18249227D01*
X-4913204Y-18273496D01*
X-4912000Y-18298000D01*
X-4912000Y-19548000D01*
X-4913204Y-19572504D01*
X-4916804Y-19596773D01*
X-4922765Y-19620571D01*
X-4931030Y-19643671D01*
X-4941520Y-19665849D01*
X-4954133Y-19686893D01*
X-4968747Y-19706598D01*
X-4985223Y-19724777D01*
X-5003402Y-19741253D01*
X-5023107Y-19755867D01*
X-5044151Y-19768480D01*
X-5066329Y-19778970D01*
X-5089429Y-19787235D01*
X-5113227Y-19793196D01*
X-5137496Y-19796796D01*
X-5162000Y-19798000D01*
X-6087000Y-19798000D01*
X-6111504Y-19796796D01*
X-6135773Y-19793196D01*
X-6159571Y-19787235D01*
X-6182671Y-19778970D01*
X-6204849Y-19768480D01*
X-6225893Y-19755867D01*
X-6245598Y-19741253D01*
X-6263777Y-19724777D01*
X-6280253Y-19706598D01*
X-6294867Y-19686893D01*
X-6307480Y-19665849D01*
X-6317970Y-19643671D01*
X-6326235Y-19620571D01*
X-6332196Y-19596773D01*
X-6335796Y-19572504D01*
X-6337000Y-19548000D01*
X-6337000Y-18298000D01*
X-6335796Y-18273496D01*
X-6332196Y-18249227D01*
X-6326235Y-18225429D01*
X-6317970Y-18202329D01*
X-6307480Y-18180151D01*
X-6294867Y-18159107D01*
X-6280253Y-18139402D01*
X-6263777Y-18121223D01*
X-6245598Y-18104747D01*
X-6225893Y-18090133D01*
X-6204849Y-18077520D01*
X-6182671Y-18067030D01*
X-6159571Y-18058765D01*
X-6135773Y-18052804D01*
X-6111504Y-18049204D01*
X-6087000Y-18048000D01*
X-5162000Y-18048000D01*
X-5137496Y-18049204D01*
X-5137496Y-18049204D01*
G37*
D13*
X-5624500Y-18923000D03*
G04 #@! TD*
D10*
G04 #@! TO.C,R2*
G36*
X-7985496Y-12334204D02*
X-7961227Y-12337804D01*
X-7937429Y-12343765D01*
X-7914329Y-12352030D01*
X-7892151Y-12362520D01*
X-7871107Y-12375133D01*
X-7851402Y-12389747D01*
X-7833223Y-12406223D01*
X-7816747Y-12424402D01*
X-7802133Y-12444107D01*
X-7789520Y-12465151D01*
X-7779030Y-12487329D01*
X-7770765Y-12510429D01*
X-7764804Y-12534227D01*
X-7761204Y-12558496D01*
X-7760000Y-12583000D01*
X-7760000Y-13833000D01*
X-7761204Y-13857504D01*
X-7764804Y-13881773D01*
X-7770765Y-13905571D01*
X-7779030Y-13928671D01*
X-7789520Y-13950849D01*
X-7802133Y-13971893D01*
X-7816747Y-13991598D01*
X-7833223Y-14009777D01*
X-7851402Y-14026253D01*
X-7871107Y-14040867D01*
X-7892151Y-14053480D01*
X-7914329Y-14063970D01*
X-7937429Y-14072235D01*
X-7961227Y-14078196D01*
X-7985496Y-14081796D01*
X-8010000Y-14083000D01*
X-8935000Y-14083000D01*
X-8959504Y-14081796D01*
X-8983773Y-14078196D01*
X-9007571Y-14072235D01*
X-9030671Y-14063970D01*
X-9052849Y-14053480D01*
X-9073893Y-14040867D01*
X-9093598Y-14026253D01*
X-9111777Y-14009777D01*
X-9128253Y-13991598D01*
X-9142867Y-13971893D01*
X-9155480Y-13950849D01*
X-9165970Y-13928671D01*
X-9174235Y-13905571D01*
X-9180196Y-13881773D01*
X-9183796Y-13857504D01*
X-9185000Y-13833000D01*
X-9185000Y-12583000D01*
X-9183796Y-12558496D01*
X-9180196Y-12534227D01*
X-9174235Y-12510429D01*
X-9165970Y-12487329D01*
X-9155480Y-12465151D01*
X-9142867Y-12444107D01*
X-9128253Y-12424402D01*
X-9111777Y-12406223D01*
X-9093598Y-12389747D01*
X-9073893Y-12375133D01*
X-9052849Y-12362520D01*
X-9030671Y-12352030D01*
X-9007571Y-12343765D01*
X-8983773Y-12337804D01*
X-8959504Y-12334204D01*
X-8935000Y-12333000D01*
X-8010000Y-12333000D01*
X-7985496Y-12334204D01*
X-7985496Y-12334204D01*
G37*
D13*
X-8472500Y-13208000D03*
D10*
G36*
X-5010496Y-12334204D02*
X-4986227Y-12337804D01*
X-4962429Y-12343765D01*
X-4939329Y-12352030D01*
X-4917151Y-12362520D01*
X-4896107Y-12375133D01*
X-4876402Y-12389747D01*
X-4858223Y-12406223D01*
X-4841747Y-12424402D01*
X-4827133Y-12444107D01*
X-4814520Y-12465151D01*
X-4804030Y-12487329D01*
X-4795765Y-12510429D01*
X-4789804Y-12534227D01*
X-4786204Y-12558496D01*
X-4785000Y-12583000D01*
X-4785000Y-13833000D01*
X-4786204Y-13857504D01*
X-4789804Y-13881773D01*
X-4795765Y-13905571D01*
X-4804030Y-13928671D01*
X-4814520Y-13950849D01*
X-4827133Y-13971893D01*
X-4841747Y-13991598D01*
X-4858223Y-14009777D01*
X-4876402Y-14026253D01*
X-4896107Y-14040867D01*
X-4917151Y-14053480D01*
X-4939329Y-14063970D01*
X-4962429Y-14072235D01*
X-4986227Y-14078196D01*
X-5010496Y-14081796D01*
X-5035000Y-14083000D01*
X-5960000Y-14083000D01*
X-5984504Y-14081796D01*
X-6008773Y-14078196D01*
X-6032571Y-14072235D01*
X-6055671Y-14063970D01*
X-6077849Y-14053480D01*
X-6098893Y-14040867D01*
X-6118598Y-14026253D01*
X-6136777Y-14009777D01*
X-6153253Y-13991598D01*
X-6167867Y-13971893D01*
X-6180480Y-13950849D01*
X-6190970Y-13928671D01*
X-6199235Y-13905571D01*
X-6205196Y-13881773D01*
X-6208796Y-13857504D01*
X-6210000Y-13833000D01*
X-6210000Y-12583000D01*
X-6208796Y-12558496D01*
X-6205196Y-12534227D01*
X-6199235Y-12510429D01*
X-6190970Y-12487329D01*
X-6180480Y-12465151D01*
X-6167867Y-12444107D01*
X-6153253Y-12424402D01*
X-6136777Y-12406223D01*
X-6118598Y-12389747D01*
X-6098893Y-12375133D01*
X-6077849Y-12362520D01*
X-6055671Y-12352030D01*
X-6032571Y-12343765D01*
X-6008773Y-12337804D01*
X-5984504Y-12334204D01*
X-5960000Y-12333000D01*
X-5035000Y-12333000D01*
X-5010496Y-12334204D01*
X-5010496Y-12334204D01*
G37*
D13*
X-5497500Y-13208000D03*
G04 #@! TD*
D10*
G04 #@! TO.C,C3*
G36*
X34232504Y19288796D02*
X34256773Y19285196D01*
X34280571Y19279235D01*
X34303671Y19270970D01*
X34325849Y19260480D01*
X34346893Y19247867D01*
X34366598Y19233253D01*
X34384777Y19216777D01*
X34401253Y19198598D01*
X34415867Y19178893D01*
X34428480Y19157849D01*
X34438970Y19135671D01*
X34447235Y19112571D01*
X34453196Y19088773D01*
X34456796Y19064504D01*
X34458000Y19040000D01*
X34458000Y17790000D01*
X34456796Y17765496D01*
X34453196Y17741227D01*
X34447235Y17717429D01*
X34438970Y17694329D01*
X34428480Y17672151D01*
X34415867Y17651107D01*
X34401253Y17631402D01*
X34384777Y17613223D01*
X34366598Y17596747D01*
X34346893Y17582133D01*
X34325849Y17569520D01*
X34303671Y17559030D01*
X34280571Y17550765D01*
X34256773Y17544804D01*
X34232504Y17541204D01*
X34208000Y17540000D01*
X33283000Y17540000D01*
X33258496Y17541204D01*
X33234227Y17544804D01*
X33210429Y17550765D01*
X33187329Y17559030D01*
X33165151Y17569520D01*
X33144107Y17582133D01*
X33124402Y17596747D01*
X33106223Y17613223D01*
X33089747Y17631402D01*
X33075133Y17651107D01*
X33062520Y17672151D01*
X33052030Y17694329D01*
X33043765Y17717429D01*
X33037804Y17741227D01*
X33034204Y17765496D01*
X33033000Y17790000D01*
X33033000Y19040000D01*
X33034204Y19064504D01*
X33037804Y19088773D01*
X33043765Y19112571D01*
X33052030Y19135671D01*
X33062520Y19157849D01*
X33075133Y19178893D01*
X33089747Y19198598D01*
X33106223Y19216777D01*
X33124402Y19233253D01*
X33144107Y19247867D01*
X33165151Y19260480D01*
X33187329Y19270970D01*
X33210429Y19279235D01*
X33234227Y19285196D01*
X33258496Y19288796D01*
X33283000Y19290000D01*
X34208000Y19290000D01*
X34232504Y19288796D01*
X34232504Y19288796D01*
G37*
D13*
X33745500Y18415000D03*
D10*
G36*
X31257504Y19288796D02*
X31281773Y19285196D01*
X31305571Y19279235D01*
X31328671Y19270970D01*
X31350849Y19260480D01*
X31371893Y19247867D01*
X31391598Y19233253D01*
X31409777Y19216777D01*
X31426253Y19198598D01*
X31440867Y19178893D01*
X31453480Y19157849D01*
X31463970Y19135671D01*
X31472235Y19112571D01*
X31478196Y19088773D01*
X31481796Y19064504D01*
X31483000Y19040000D01*
X31483000Y17790000D01*
X31481796Y17765496D01*
X31478196Y17741227D01*
X31472235Y17717429D01*
X31463970Y17694329D01*
X31453480Y17672151D01*
X31440867Y17651107D01*
X31426253Y17631402D01*
X31409777Y17613223D01*
X31391598Y17596747D01*
X31371893Y17582133D01*
X31350849Y17569520D01*
X31328671Y17559030D01*
X31305571Y17550765D01*
X31281773Y17544804D01*
X31257504Y17541204D01*
X31233000Y17540000D01*
X30308000Y17540000D01*
X30283496Y17541204D01*
X30259227Y17544804D01*
X30235429Y17550765D01*
X30212329Y17559030D01*
X30190151Y17569520D01*
X30169107Y17582133D01*
X30149402Y17596747D01*
X30131223Y17613223D01*
X30114747Y17631402D01*
X30100133Y17651107D01*
X30087520Y17672151D01*
X30077030Y17694329D01*
X30068765Y17717429D01*
X30062804Y17741227D01*
X30059204Y17765496D01*
X30058000Y17790000D01*
X30058000Y19040000D01*
X30059204Y19064504D01*
X30062804Y19088773D01*
X30068765Y19112571D01*
X30077030Y19135671D01*
X30087520Y19157849D01*
X30100133Y19178893D01*
X30114747Y19198598D01*
X30131223Y19216777D01*
X30149402Y19233253D01*
X30169107Y19247867D01*
X30190151Y19260480D01*
X30212329Y19270970D01*
X30235429Y19279235D01*
X30259227Y19285196D01*
X30283496Y19288796D01*
X30308000Y19290000D01*
X31233000Y19290000D01*
X31257504Y19288796D01*
X31257504Y19288796D01*
G37*
D13*
X30770500Y18415000D03*
G04 #@! TD*
D10*
G04 #@! TO.C,C2*
G36*
X-2398496Y40701248D02*
X-2374227Y40697648D01*
X-2350429Y40691687D01*
X-2327329Y40683422D01*
X-2305151Y40672932D01*
X-2284107Y40660319D01*
X-2264402Y40645705D01*
X-2246223Y40629229D01*
X-2229747Y40611050D01*
X-2215133Y40591345D01*
X-2202520Y40570301D01*
X-2192030Y40548123D01*
X-2183765Y40525023D01*
X-2177804Y40501225D01*
X-2174204Y40476956D01*
X-2173000Y40452452D01*
X-2173000Y39527452D01*
X-2174204Y39502948D01*
X-2177804Y39478679D01*
X-2183765Y39454881D01*
X-2192030Y39431781D01*
X-2202520Y39409603D01*
X-2215133Y39388559D01*
X-2229747Y39368854D01*
X-2246223Y39350675D01*
X-2264402Y39334199D01*
X-2284107Y39319585D01*
X-2305151Y39306972D01*
X-2327329Y39296482D01*
X-2350429Y39288217D01*
X-2374227Y39282256D01*
X-2398496Y39278656D01*
X-2423000Y39277452D01*
X-3673000Y39277452D01*
X-3697504Y39278656D01*
X-3721773Y39282256D01*
X-3745571Y39288217D01*
X-3768671Y39296482D01*
X-3790849Y39306972D01*
X-3811893Y39319585D01*
X-3831598Y39334199D01*
X-3849777Y39350675D01*
X-3866253Y39368854D01*
X-3880867Y39388559D01*
X-3893480Y39409603D01*
X-3903970Y39431781D01*
X-3912235Y39454881D01*
X-3918196Y39478679D01*
X-3921796Y39502948D01*
X-3923000Y39527452D01*
X-3923000Y40452452D01*
X-3921796Y40476956D01*
X-3918196Y40501225D01*
X-3912235Y40525023D01*
X-3903970Y40548123D01*
X-3893480Y40570301D01*
X-3880867Y40591345D01*
X-3866253Y40611050D01*
X-3849777Y40629229D01*
X-3831598Y40645705D01*
X-3811893Y40660319D01*
X-3790849Y40672932D01*
X-3768671Y40683422D01*
X-3745571Y40691687D01*
X-3721773Y40697648D01*
X-3697504Y40701248D01*
X-3673000Y40702452D01*
X-2423000Y40702452D01*
X-2398496Y40701248D01*
X-2398496Y40701248D01*
G37*
D13*
X-3048000Y39989952D03*
D10*
G36*
X-2398496Y43676248D02*
X-2374227Y43672648D01*
X-2350429Y43666687D01*
X-2327329Y43658422D01*
X-2305151Y43647932D01*
X-2284107Y43635319D01*
X-2264402Y43620705D01*
X-2246223Y43604229D01*
X-2229747Y43586050D01*
X-2215133Y43566345D01*
X-2202520Y43545301D01*
X-2192030Y43523123D01*
X-2183765Y43500023D01*
X-2177804Y43476225D01*
X-2174204Y43451956D01*
X-2173000Y43427452D01*
X-2173000Y42502452D01*
X-2174204Y42477948D01*
X-2177804Y42453679D01*
X-2183765Y42429881D01*
X-2192030Y42406781D01*
X-2202520Y42384603D01*
X-2215133Y42363559D01*
X-2229747Y42343854D01*
X-2246223Y42325675D01*
X-2264402Y42309199D01*
X-2284107Y42294585D01*
X-2305151Y42281972D01*
X-2327329Y42271482D01*
X-2350429Y42263217D01*
X-2374227Y42257256D01*
X-2398496Y42253656D01*
X-2423000Y42252452D01*
X-3673000Y42252452D01*
X-3697504Y42253656D01*
X-3721773Y42257256D01*
X-3745571Y42263217D01*
X-3768671Y42271482D01*
X-3790849Y42281972D01*
X-3811893Y42294585D01*
X-3831598Y42309199D01*
X-3849777Y42325675D01*
X-3866253Y42343854D01*
X-3880867Y42363559D01*
X-3893480Y42384603D01*
X-3903970Y42406781D01*
X-3912235Y42429881D01*
X-3918196Y42453679D01*
X-3921796Y42477948D01*
X-3923000Y42502452D01*
X-3923000Y43427452D01*
X-3921796Y43451956D01*
X-3918196Y43476225D01*
X-3912235Y43500023D01*
X-3903970Y43523123D01*
X-3893480Y43545301D01*
X-3880867Y43566345D01*
X-3866253Y43586050D01*
X-3849777Y43604229D01*
X-3831598Y43620705D01*
X-3811893Y43635319D01*
X-3790849Y43647932D01*
X-3768671Y43658422D01*
X-3745571Y43666687D01*
X-3721773Y43672648D01*
X-3697504Y43676248D01*
X-3673000Y43677452D01*
X-2423000Y43677452D01*
X-2398496Y43676248D01*
X-2398496Y43676248D01*
G37*
D13*
X-3048000Y42964952D03*
G04 #@! TD*
D10*
G04 #@! TO.C,C1*
G36*
X-2651496Y34401796D02*
X-2627227Y34398196D01*
X-2603429Y34392235D01*
X-2580329Y34383970D01*
X-2558151Y34373480D01*
X-2537107Y34360867D01*
X-2517402Y34346253D01*
X-2499223Y34329777D01*
X-2482747Y34311598D01*
X-2468133Y34291893D01*
X-2455520Y34270849D01*
X-2445030Y34248671D01*
X-2436765Y34225571D01*
X-2430804Y34201773D01*
X-2427204Y34177504D01*
X-2426000Y34153000D01*
X-2426000Y32903000D01*
X-2427204Y32878496D01*
X-2430804Y32854227D01*
X-2436765Y32830429D01*
X-2445030Y32807329D01*
X-2455520Y32785151D01*
X-2468133Y32764107D01*
X-2482747Y32744402D01*
X-2499223Y32726223D01*
X-2517402Y32709747D01*
X-2537107Y32695133D01*
X-2558151Y32682520D01*
X-2580329Y32672030D01*
X-2603429Y32663765D01*
X-2627227Y32657804D01*
X-2651496Y32654204D01*
X-2676000Y32653000D01*
X-3601000Y32653000D01*
X-3625504Y32654204D01*
X-3649773Y32657804D01*
X-3673571Y32663765D01*
X-3696671Y32672030D01*
X-3718849Y32682520D01*
X-3739893Y32695133D01*
X-3759598Y32709747D01*
X-3777777Y32726223D01*
X-3794253Y32744402D01*
X-3808867Y32764107D01*
X-3821480Y32785151D01*
X-3831970Y32807329D01*
X-3840235Y32830429D01*
X-3846196Y32854227D01*
X-3849796Y32878496D01*
X-3851000Y32903000D01*
X-3851000Y34153000D01*
X-3849796Y34177504D01*
X-3846196Y34201773D01*
X-3840235Y34225571D01*
X-3831970Y34248671D01*
X-3821480Y34270849D01*
X-3808867Y34291893D01*
X-3794253Y34311598D01*
X-3777777Y34329777D01*
X-3759598Y34346253D01*
X-3739893Y34360867D01*
X-3718849Y34373480D01*
X-3696671Y34383970D01*
X-3673571Y34392235D01*
X-3649773Y34398196D01*
X-3625504Y34401796D01*
X-3601000Y34403000D01*
X-2676000Y34403000D01*
X-2651496Y34401796D01*
X-2651496Y34401796D01*
G37*
D13*
X-3138500Y33528000D03*
D10*
G36*
X323504Y34401796D02*
X347773Y34398196D01*
X371571Y34392235D01*
X394671Y34383970D01*
X416849Y34373480D01*
X437893Y34360867D01*
X457598Y34346253D01*
X475777Y34329777D01*
X492253Y34311598D01*
X506867Y34291893D01*
X519480Y34270849D01*
X529970Y34248671D01*
X538235Y34225571D01*
X544196Y34201773D01*
X547796Y34177504D01*
X549000Y34153000D01*
X549000Y32903000D01*
X547796Y32878496D01*
X544196Y32854227D01*
X538235Y32830429D01*
X529970Y32807329D01*
X519480Y32785151D01*
X506867Y32764107D01*
X492253Y32744402D01*
X475777Y32726223D01*
X457598Y32709747D01*
X437893Y32695133D01*
X416849Y32682520D01*
X394671Y32672030D01*
X371571Y32663765D01*
X347773Y32657804D01*
X323504Y32654204D01*
X299000Y32653000D01*
X-626000Y32653000D01*
X-650504Y32654204D01*
X-674773Y32657804D01*
X-698571Y32663765D01*
X-721671Y32672030D01*
X-743849Y32682520D01*
X-764893Y32695133D01*
X-784598Y32709747D01*
X-802777Y32726223D01*
X-819253Y32744402D01*
X-833867Y32764107D01*
X-846480Y32785151D01*
X-856970Y32807329D01*
X-865235Y32830429D01*
X-871196Y32854227D01*
X-874796Y32878496D01*
X-876000Y32903000D01*
X-876000Y34153000D01*
X-874796Y34177504D01*
X-871196Y34201773D01*
X-865235Y34225571D01*
X-856970Y34248671D01*
X-846480Y34270849D01*
X-833867Y34291893D01*
X-819253Y34311598D01*
X-802777Y34329777D01*
X-784598Y34346253D01*
X-764893Y34360867D01*
X-743849Y34373480D01*
X-721671Y34383970D01*
X-698571Y34392235D01*
X-674773Y34398196D01*
X-650504Y34401796D01*
X-626000Y34403000D01*
X299000Y34403000D01*
X323504Y34401796D01*
X323504Y34401796D01*
G37*
D13*
X-163500Y33528000D03*
G04 #@! TD*
D25*
G04 #@! TO.C,P1*
X21717000Y22733000D03*
X21717000Y20193000D03*
X21717000Y17653000D03*
X21717000Y15113000D03*
X21717000Y12573000D03*
X21717000Y10033000D03*
X21717000Y7493000D03*
X21717000Y4953000D03*
X21717000Y2413000D03*
X21717000Y-127000D03*
X21717000Y-2667000D03*
X21717000Y-5207000D03*
X21717000Y-7747000D03*
X21717000Y-10287000D03*
X21717000Y-12827000D03*
G04 #@! TD*
G04 #@! TO.C,P2*
X36957000Y22733000D03*
X36957000Y20193000D03*
X36957000Y17653000D03*
X36957000Y15113000D03*
X36957000Y12573000D03*
X36957000Y10033000D03*
X36957000Y7493000D03*
X36957000Y4953000D03*
X36957000Y2413000D03*
X36957000Y-127000D03*
X36957000Y-2667000D03*
X36957000Y-5207000D03*
X36957000Y-7747000D03*
X36957000Y-10287000D03*
X36957000Y-12827000D03*
G04 #@! TD*
D10*
G04 #@! TO.C,R1*
G36*
X16017504Y13552405D02*
X16041773Y13548805D01*
X16065571Y13542844D01*
X16088671Y13534579D01*
X16110849Y13524089D01*
X16131893Y13511476D01*
X16151598Y13496862D01*
X16169777Y13480386D01*
X16186253Y13462207D01*
X16200867Y13442502D01*
X16213480Y13421458D01*
X16223970Y13399280D01*
X16232235Y13376180D01*
X16238196Y13352382D01*
X16241796Y13328113D01*
X16243000Y13303609D01*
X16243000Y12053609D01*
X16241796Y12029105D01*
X16238196Y12004836D01*
X16232235Y11981038D01*
X16223970Y11957938D01*
X16213480Y11935760D01*
X16200867Y11914716D01*
X16186253Y11895011D01*
X16169777Y11876832D01*
X16151598Y11860356D01*
X16131893Y11845742D01*
X16110849Y11833129D01*
X16088671Y11822639D01*
X16065571Y11814374D01*
X16041773Y11808413D01*
X16017504Y11804813D01*
X15993000Y11803609D01*
X15068000Y11803609D01*
X15043496Y11804813D01*
X15019227Y11808413D01*
X14995429Y11814374D01*
X14972329Y11822639D01*
X14950151Y11833129D01*
X14929107Y11845742D01*
X14909402Y11860356D01*
X14891223Y11876832D01*
X14874747Y11895011D01*
X14860133Y11914716D01*
X14847520Y11935760D01*
X14837030Y11957938D01*
X14828765Y11981038D01*
X14822804Y12004836D01*
X14819204Y12029105D01*
X14818000Y12053609D01*
X14818000Y13303609D01*
X14819204Y13328113D01*
X14822804Y13352382D01*
X14828765Y13376180D01*
X14837030Y13399280D01*
X14847520Y13421458D01*
X14860133Y13442502D01*
X14874747Y13462207D01*
X14891223Y13480386D01*
X14909402Y13496862D01*
X14929107Y13511476D01*
X14950151Y13524089D01*
X14972329Y13534579D01*
X14995429Y13542844D01*
X15019227Y13548805D01*
X15043496Y13552405D01*
X15068000Y13553609D01*
X15993000Y13553609D01*
X16017504Y13552405D01*
X16017504Y13552405D01*
G37*
D13*
X15530500Y12678609D03*
D10*
G36*
X18992504Y13552405D02*
X19016773Y13548805D01*
X19040571Y13542844D01*
X19063671Y13534579D01*
X19085849Y13524089D01*
X19106893Y13511476D01*
X19126598Y13496862D01*
X19144777Y13480386D01*
X19161253Y13462207D01*
X19175867Y13442502D01*
X19188480Y13421458D01*
X19198970Y13399280D01*
X19207235Y13376180D01*
X19213196Y13352382D01*
X19216796Y13328113D01*
X19218000Y13303609D01*
X19218000Y12053609D01*
X19216796Y12029105D01*
X19213196Y12004836D01*
X19207235Y11981038D01*
X19198970Y11957938D01*
X19188480Y11935760D01*
X19175867Y11914716D01*
X19161253Y11895011D01*
X19144777Y11876832D01*
X19126598Y11860356D01*
X19106893Y11845742D01*
X19085849Y11833129D01*
X19063671Y11822639D01*
X19040571Y11814374D01*
X19016773Y11808413D01*
X18992504Y11804813D01*
X18968000Y11803609D01*
X18043000Y11803609D01*
X18018496Y11804813D01*
X17994227Y11808413D01*
X17970429Y11814374D01*
X17947329Y11822639D01*
X17925151Y11833129D01*
X17904107Y11845742D01*
X17884402Y11860356D01*
X17866223Y11876832D01*
X17849747Y11895011D01*
X17835133Y11914716D01*
X17822520Y11935760D01*
X17812030Y11957938D01*
X17803765Y11981038D01*
X17797804Y12004836D01*
X17794204Y12029105D01*
X17793000Y12053609D01*
X17793000Y13303609D01*
X17794204Y13328113D01*
X17797804Y13352382D01*
X17803765Y13376180D01*
X17812030Y13399280D01*
X17822520Y13421458D01*
X17835133Y13442502D01*
X17849747Y13462207D01*
X17866223Y13480386D01*
X17884402Y13496862D01*
X17904107Y13511476D01*
X17925151Y13524089D01*
X17947329Y13534579D01*
X17970429Y13542844D01*
X17994227Y13548805D01*
X18018496Y13552405D01*
X18043000Y13553609D01*
X18968000Y13553609D01*
X18992504Y13552405D01*
X18992504Y13552405D01*
G37*
D13*
X18505500Y12678609D03*
G04 #@! TD*
M02*
