G04 #@! TF.GenerationSoftware,KiCad,Pcbnew,(6.0.0-rc1-dev-347-gd8782b751)*
G04 #@! TF.CreationDate,2019-11-17T15:03:13+01:00*
G04 #@! TF.ProjectId,nano,6E616E6F2E6B696361645F7063620000,rev?*
G04 #@! TF.SameCoordinates,Original*
G04 #@! TF.FileFunction,Soldermask,Top*
G04 #@! TF.FilePolarity,Negative*
%FSLAX46Y46*%
G04 Gerber Fmt 4.6, Leading zero omitted, Abs format (unit mm)*
G04 Created by KiCad (PCBNEW (6.0.0-rc1-dev-347-gd8782b751)) date 11/17/19 15:03:13*
%MOMM*%
%LPD*%
G01*
G04 APERTURE LIST*
%ADD10C,0.100000*%
%ADD11C,1.800000*%
%ADD12R,1.800000X1.800000*%
%ADD13O,1.700000X1.700000*%
%ADD14R,1.700000X1.700000*%
%ADD15O,3.600000X1.800000*%
%ADD16C,9.000000*%
%ADD17O,2.032000X1.727200*%
G04 APERTURE END LIST*
D10*
X24130000Y-166751000D02*
X22606000Y-165227000D01*
X23622000Y-25527000D02*
X22352000Y-26797000D01*
X102362000Y-165227000D02*
X100838000Y-166751000D01*
X102171500Y-26733500D02*
X100901500Y-25463500D01*
X51564885Y-141544384D02*
G75*
G03X51564885Y-141544384I-2796885J0D01*
G01*
X85026500Y-141541500D02*
G75*
G03X85026500Y-141541500I-2794000J0D01*
G01*
X51510022Y-36397021D02*
G75*
G03X51510022Y-36397021I-2805522J0D01*
G01*
X84848668Y-36398168D02*
G75*
G03X84848668Y-36398168I-2552668J0D01*
G01*
X22606000Y-165227000D02*
X22352000Y-26797000D01*
X100838000Y-166751000D02*
X24130000Y-166751000D01*
X102171500Y-26733500D02*
X102362000Y-165227000D01*
X23622000Y-25527000D02*
X100901500Y-25463500D01*
D11*
G04 #@! TO.C,D1*
X96393000Y-36195000D03*
D12*
X93853000Y-36195000D03*
G04 #@! TD*
D13*
G04 #@! TO.C,Serial_conn1*
X75946000Y-55245000D03*
X75946000Y-52705000D03*
X75946000Y-50165000D03*
D14*
X75946000Y-47625000D03*
G04 #@! TD*
D15*
G04 #@! TO.C,SIGNAL_SOCKET1*
X32258000Y-162295000D03*
X32258000Y-158795000D03*
X32258000Y-155295000D03*
X32258000Y-151795000D03*
X32258000Y-148295000D03*
X32258000Y-144795000D03*
X32258000Y-141295000D03*
D10*
G36*
X33832504Y-136896204D02*
X33856773Y-136899804D01*
X33880571Y-136905765D01*
X33903671Y-136914030D01*
X33925849Y-136924520D01*
X33946893Y-136937133D01*
X33966598Y-136951747D01*
X33984777Y-136968223D01*
X34001253Y-136986402D01*
X34015867Y-137006107D01*
X34028480Y-137027151D01*
X34038970Y-137049329D01*
X34047235Y-137072429D01*
X34053196Y-137096227D01*
X34056796Y-137120496D01*
X34058000Y-137145000D01*
X34058000Y-138445000D01*
X34056796Y-138469504D01*
X34053196Y-138493773D01*
X34047235Y-138517571D01*
X34038970Y-138540671D01*
X34028480Y-138562849D01*
X34015867Y-138583893D01*
X34001253Y-138603598D01*
X33984777Y-138621777D01*
X33966598Y-138638253D01*
X33946893Y-138652867D01*
X33925849Y-138665480D01*
X33903671Y-138675970D01*
X33880571Y-138684235D01*
X33856773Y-138690196D01*
X33832504Y-138693796D01*
X33808000Y-138695000D01*
X30708000Y-138695000D01*
X30683496Y-138693796D01*
X30659227Y-138690196D01*
X30635429Y-138684235D01*
X30612329Y-138675970D01*
X30590151Y-138665480D01*
X30569107Y-138652867D01*
X30549402Y-138638253D01*
X30531223Y-138621777D01*
X30514747Y-138603598D01*
X30500133Y-138583893D01*
X30487520Y-138562849D01*
X30477030Y-138540671D01*
X30468765Y-138517571D01*
X30462804Y-138493773D01*
X30459204Y-138469504D01*
X30458000Y-138445000D01*
X30458000Y-137145000D01*
X30459204Y-137120496D01*
X30462804Y-137096227D01*
X30468765Y-137072429D01*
X30477030Y-137049329D01*
X30487520Y-137027151D01*
X30500133Y-137006107D01*
X30514747Y-136986402D01*
X30531223Y-136968223D01*
X30549402Y-136951747D01*
X30569107Y-136937133D01*
X30590151Y-136924520D01*
X30612329Y-136914030D01*
X30635429Y-136905765D01*
X30659227Y-136899804D01*
X30683496Y-136896204D01*
X30708000Y-136895000D01*
X33808000Y-136895000D01*
X33832504Y-136896204D01*
X33832504Y-136896204D01*
G37*
D11*
X32258000Y-137795000D03*
G04 #@! TD*
D15*
G04 #@! TO.C,Z_PLUG_SOCKET1*
X32385000Y-131180000D03*
X32385000Y-127680000D03*
X32385000Y-124180000D03*
X32385000Y-120680000D03*
X32385000Y-117180000D03*
X32385000Y-113680000D03*
X32385000Y-110180000D03*
D10*
G36*
X33959504Y-105781204D02*
X33983773Y-105784804D01*
X34007571Y-105790765D01*
X34030671Y-105799030D01*
X34052849Y-105809520D01*
X34073893Y-105822133D01*
X34093598Y-105836747D01*
X34111777Y-105853223D01*
X34128253Y-105871402D01*
X34142867Y-105891107D01*
X34155480Y-105912151D01*
X34165970Y-105934329D01*
X34174235Y-105957429D01*
X34180196Y-105981227D01*
X34183796Y-106005496D01*
X34185000Y-106030000D01*
X34185000Y-107330000D01*
X34183796Y-107354504D01*
X34180196Y-107378773D01*
X34174235Y-107402571D01*
X34165970Y-107425671D01*
X34155480Y-107447849D01*
X34142867Y-107468893D01*
X34128253Y-107488598D01*
X34111777Y-107506777D01*
X34093598Y-107523253D01*
X34073893Y-107537867D01*
X34052849Y-107550480D01*
X34030671Y-107560970D01*
X34007571Y-107569235D01*
X33983773Y-107575196D01*
X33959504Y-107578796D01*
X33935000Y-107580000D01*
X30835000Y-107580000D01*
X30810496Y-107578796D01*
X30786227Y-107575196D01*
X30762429Y-107569235D01*
X30739329Y-107560970D01*
X30717151Y-107550480D01*
X30696107Y-107537867D01*
X30676402Y-107523253D01*
X30658223Y-107506777D01*
X30641747Y-107488598D01*
X30627133Y-107468893D01*
X30614520Y-107447849D01*
X30604030Y-107425671D01*
X30595765Y-107402571D01*
X30589804Y-107378773D01*
X30586204Y-107354504D01*
X30585000Y-107330000D01*
X30585000Y-106030000D01*
X30586204Y-106005496D01*
X30589804Y-105981227D01*
X30595765Y-105957429D01*
X30604030Y-105934329D01*
X30614520Y-105912151D01*
X30627133Y-105891107D01*
X30641747Y-105871402D01*
X30658223Y-105853223D01*
X30676402Y-105836747D01*
X30696107Y-105822133D01*
X30717151Y-105809520D01*
X30739329Y-105799030D01*
X30762429Y-105790765D01*
X30786227Y-105784804D01*
X30810496Y-105781204D01*
X30835000Y-105780000D01*
X33935000Y-105780000D01*
X33959504Y-105781204D01*
X33959504Y-105781204D01*
G37*
D11*
X32385000Y-106680000D03*
G04 #@! TD*
D15*
G04 #@! TO.C,PWR_IN1*
X32385000Y-32202000D03*
D10*
G36*
X33959504Y-27803204D02*
X33983773Y-27806804D01*
X34007571Y-27812765D01*
X34030671Y-27821030D01*
X34052849Y-27831520D01*
X34073893Y-27844133D01*
X34093598Y-27858747D01*
X34111777Y-27875223D01*
X34128253Y-27893402D01*
X34142867Y-27913107D01*
X34155480Y-27934151D01*
X34165970Y-27956329D01*
X34174235Y-27979429D01*
X34180196Y-28003227D01*
X34183796Y-28027496D01*
X34185000Y-28052000D01*
X34185000Y-29352000D01*
X34183796Y-29376504D01*
X34180196Y-29400773D01*
X34174235Y-29424571D01*
X34165970Y-29447671D01*
X34155480Y-29469849D01*
X34142867Y-29490893D01*
X34128253Y-29510598D01*
X34111777Y-29528777D01*
X34093598Y-29545253D01*
X34073893Y-29559867D01*
X34052849Y-29572480D01*
X34030671Y-29582970D01*
X34007571Y-29591235D01*
X33983773Y-29597196D01*
X33959504Y-29600796D01*
X33935000Y-29602000D01*
X30835000Y-29602000D01*
X30810496Y-29600796D01*
X30786227Y-29597196D01*
X30762429Y-29591235D01*
X30739329Y-29582970D01*
X30717151Y-29572480D01*
X30696107Y-29559867D01*
X30676402Y-29545253D01*
X30658223Y-29528777D01*
X30641747Y-29510598D01*
X30627133Y-29490893D01*
X30614520Y-29469849D01*
X30604030Y-29447671D01*
X30595765Y-29424571D01*
X30589804Y-29400773D01*
X30586204Y-29376504D01*
X30585000Y-29352000D01*
X30585000Y-28052000D01*
X30586204Y-28027496D01*
X30589804Y-28003227D01*
X30595765Y-27979429D01*
X30604030Y-27956329D01*
X30614520Y-27934151D01*
X30627133Y-27913107D01*
X30641747Y-27893402D01*
X30658223Y-27875223D01*
X30676402Y-27858747D01*
X30696107Y-27844133D01*
X30717151Y-27831520D01*
X30739329Y-27821030D01*
X30762429Y-27812765D01*
X30786227Y-27806804D01*
X30810496Y-27803204D01*
X30835000Y-27802000D01*
X33935000Y-27802000D01*
X33959504Y-27803204D01*
X33959504Y-27803204D01*
G37*
D11*
X32385000Y-28702000D03*
G04 #@! TD*
D15*
G04 #@! TO.C,Y2_PLUG_SOCKET1*
X47244000Y-96382000D03*
X47244000Y-92882000D03*
X47244000Y-89382000D03*
X47244000Y-85882000D03*
X47244000Y-82382000D03*
X47244000Y-78882000D03*
X47244000Y-75382000D03*
D10*
G36*
X48818504Y-70983204D02*
X48842773Y-70986804D01*
X48866571Y-70992765D01*
X48889671Y-71001030D01*
X48911849Y-71011520D01*
X48932893Y-71024133D01*
X48952598Y-71038747D01*
X48970777Y-71055223D01*
X48987253Y-71073402D01*
X49001867Y-71093107D01*
X49014480Y-71114151D01*
X49024970Y-71136329D01*
X49033235Y-71159429D01*
X49039196Y-71183227D01*
X49042796Y-71207496D01*
X49044000Y-71232000D01*
X49044000Y-72532000D01*
X49042796Y-72556504D01*
X49039196Y-72580773D01*
X49033235Y-72604571D01*
X49024970Y-72627671D01*
X49014480Y-72649849D01*
X49001867Y-72670893D01*
X48987253Y-72690598D01*
X48970777Y-72708777D01*
X48952598Y-72725253D01*
X48932893Y-72739867D01*
X48911849Y-72752480D01*
X48889671Y-72762970D01*
X48866571Y-72771235D01*
X48842773Y-72777196D01*
X48818504Y-72780796D01*
X48794000Y-72782000D01*
X45694000Y-72782000D01*
X45669496Y-72780796D01*
X45645227Y-72777196D01*
X45621429Y-72771235D01*
X45598329Y-72762970D01*
X45576151Y-72752480D01*
X45555107Y-72739867D01*
X45535402Y-72725253D01*
X45517223Y-72708777D01*
X45500747Y-72690598D01*
X45486133Y-72670893D01*
X45473520Y-72649849D01*
X45463030Y-72627671D01*
X45454765Y-72604571D01*
X45448804Y-72580773D01*
X45445204Y-72556504D01*
X45444000Y-72532000D01*
X45444000Y-71232000D01*
X45445204Y-71207496D01*
X45448804Y-71183227D01*
X45454765Y-71159429D01*
X45463030Y-71136329D01*
X45473520Y-71114151D01*
X45486133Y-71093107D01*
X45500747Y-71073402D01*
X45517223Y-71055223D01*
X45535402Y-71038747D01*
X45555107Y-71024133D01*
X45576151Y-71011520D01*
X45598329Y-71001030D01*
X45621429Y-70992765D01*
X45645227Y-70986804D01*
X45669496Y-70983204D01*
X45694000Y-70982000D01*
X48794000Y-70982000D01*
X48818504Y-70983204D01*
X48818504Y-70983204D01*
G37*
D11*
X47244000Y-71882000D03*
G04 #@! TD*
D15*
G04 #@! TO.C,Y1_PLUG_SOCKET1*
X32385000Y-96433278D03*
X32385000Y-92933278D03*
X32385000Y-89433278D03*
X32385000Y-85933278D03*
X32385000Y-82433278D03*
X32385000Y-78933278D03*
X32385000Y-75433278D03*
D10*
G36*
X33959504Y-71034482D02*
X33983773Y-71038082D01*
X34007571Y-71044043D01*
X34030671Y-71052308D01*
X34052849Y-71062798D01*
X34073893Y-71075411D01*
X34093598Y-71090025D01*
X34111777Y-71106501D01*
X34128253Y-71124680D01*
X34142867Y-71144385D01*
X34155480Y-71165429D01*
X34165970Y-71187607D01*
X34174235Y-71210707D01*
X34180196Y-71234505D01*
X34183796Y-71258774D01*
X34185000Y-71283278D01*
X34185000Y-72583278D01*
X34183796Y-72607782D01*
X34180196Y-72632051D01*
X34174235Y-72655849D01*
X34165970Y-72678949D01*
X34155480Y-72701127D01*
X34142867Y-72722171D01*
X34128253Y-72741876D01*
X34111777Y-72760055D01*
X34093598Y-72776531D01*
X34073893Y-72791145D01*
X34052849Y-72803758D01*
X34030671Y-72814248D01*
X34007571Y-72822513D01*
X33983773Y-72828474D01*
X33959504Y-72832074D01*
X33935000Y-72833278D01*
X30835000Y-72833278D01*
X30810496Y-72832074D01*
X30786227Y-72828474D01*
X30762429Y-72822513D01*
X30739329Y-72814248D01*
X30717151Y-72803758D01*
X30696107Y-72791145D01*
X30676402Y-72776531D01*
X30658223Y-72760055D01*
X30641747Y-72741876D01*
X30627133Y-72722171D01*
X30614520Y-72701127D01*
X30604030Y-72678949D01*
X30595765Y-72655849D01*
X30589804Y-72632051D01*
X30586204Y-72607782D01*
X30585000Y-72583278D01*
X30585000Y-71283278D01*
X30586204Y-71258774D01*
X30589804Y-71234505D01*
X30595765Y-71210707D01*
X30604030Y-71187607D01*
X30614520Y-71165429D01*
X30627133Y-71144385D01*
X30641747Y-71124680D01*
X30658223Y-71106501D01*
X30676402Y-71090025D01*
X30696107Y-71075411D01*
X30717151Y-71062798D01*
X30739329Y-71052308D01*
X30762429Y-71044043D01*
X30786227Y-71038082D01*
X30810496Y-71034482D01*
X30835000Y-71033278D01*
X33935000Y-71033278D01*
X33959504Y-71034482D01*
X33959504Y-71034482D01*
G37*
D11*
X32385000Y-71933278D03*
G04 #@! TD*
D15*
G04 #@! TO.C,X_PLUG_SOCKET1*
X32385000Y-63235000D03*
X32385000Y-59735000D03*
X32385000Y-56235000D03*
X32385000Y-52735000D03*
X32385000Y-49235000D03*
X32385000Y-45735000D03*
X32385000Y-42235000D03*
D10*
G36*
X33959504Y-37836204D02*
X33983773Y-37839804D01*
X34007571Y-37845765D01*
X34030671Y-37854030D01*
X34052849Y-37864520D01*
X34073893Y-37877133D01*
X34093598Y-37891747D01*
X34111777Y-37908223D01*
X34128253Y-37926402D01*
X34142867Y-37946107D01*
X34155480Y-37967151D01*
X34165970Y-37989329D01*
X34174235Y-38012429D01*
X34180196Y-38036227D01*
X34183796Y-38060496D01*
X34185000Y-38085000D01*
X34185000Y-39385000D01*
X34183796Y-39409504D01*
X34180196Y-39433773D01*
X34174235Y-39457571D01*
X34165970Y-39480671D01*
X34155480Y-39502849D01*
X34142867Y-39523893D01*
X34128253Y-39543598D01*
X34111777Y-39561777D01*
X34093598Y-39578253D01*
X34073893Y-39592867D01*
X34052849Y-39605480D01*
X34030671Y-39615970D01*
X34007571Y-39624235D01*
X33983773Y-39630196D01*
X33959504Y-39633796D01*
X33935000Y-39635000D01*
X30835000Y-39635000D01*
X30810496Y-39633796D01*
X30786227Y-39630196D01*
X30762429Y-39624235D01*
X30739329Y-39615970D01*
X30717151Y-39605480D01*
X30696107Y-39592867D01*
X30676402Y-39578253D01*
X30658223Y-39561777D01*
X30641747Y-39543598D01*
X30627133Y-39523893D01*
X30614520Y-39502849D01*
X30604030Y-39480671D01*
X30595765Y-39457571D01*
X30589804Y-39433773D01*
X30586204Y-39409504D01*
X30585000Y-39385000D01*
X30585000Y-38085000D01*
X30586204Y-38060496D01*
X30589804Y-38036227D01*
X30595765Y-38012429D01*
X30604030Y-37989329D01*
X30614520Y-37967151D01*
X30627133Y-37946107D01*
X30641747Y-37926402D01*
X30658223Y-37908223D01*
X30676402Y-37891747D01*
X30696107Y-37877133D01*
X30717151Y-37864520D01*
X30739329Y-37854030D01*
X30762429Y-37845765D01*
X30786227Y-37839804D01*
X30810496Y-37836204D01*
X30835000Y-37835000D01*
X33935000Y-37835000D01*
X33959504Y-37836204D01*
X33959504Y-37836204D01*
G37*
D11*
X32385000Y-38735000D03*
G04 #@! TD*
D16*
G04 #@! TO.C,MH4*
X48704500Y-141605000D03*
G04 #@! TD*
G04 #@! TO.C,MH3*
X82296000Y-141541500D03*
G04 #@! TD*
G04 #@! TO.C,MH2*
X48768000Y-36322000D03*
G04 #@! TD*
G04 #@! TO.C,MH1*
X82359500Y-36322000D03*
G04 #@! TD*
D17*
G04 #@! TO.C,P1*
X80264000Y-64770000D03*
X80264000Y-67310000D03*
X80264000Y-69850000D03*
X80264000Y-72390000D03*
X80264000Y-74930000D03*
X80264000Y-77470000D03*
X80264000Y-80010000D03*
X80264000Y-82550000D03*
X80264000Y-85090000D03*
X80264000Y-87630000D03*
X80264000Y-90170000D03*
X80264000Y-92710000D03*
X80264000Y-95250000D03*
X80264000Y-97790000D03*
X80264000Y-100330000D03*
G04 #@! TD*
G04 #@! TO.C,P2*
X95504000Y-64770000D03*
X95504000Y-67310000D03*
X95504000Y-69850000D03*
X95504000Y-72390000D03*
X95504000Y-74930000D03*
X95504000Y-77470000D03*
X95504000Y-80010000D03*
X95504000Y-82550000D03*
X95504000Y-85090000D03*
X95504000Y-87630000D03*
X95504000Y-90170000D03*
X95504000Y-92710000D03*
X95504000Y-95250000D03*
X95504000Y-97790000D03*
X95504000Y-100330000D03*
G04 #@! TD*
M02*
