G04 #@! TF.GenerationSoftware,KiCad,Pcbnew,(6.0.0-rc1-dev-347-gd8782b751)*
G04 #@! TF.CreationDate,2019-11-17T15:03:13+01:00*
G04 #@! TF.ProjectId,nano,6E616E6F2E6B696361645F7063620000,rev?*
G04 #@! TF.SameCoordinates,Original*
G04 #@! TF.FileFunction,Copper,L1,Top,Signal*
G04 #@! TF.FilePolarity,Positive*
%FSLAX46Y46*%
G04 Gerber Fmt 4.6, Leading zero omitted, Abs format (unit mm)*
G04 Created by KiCad (PCBNEW (6.0.0-rc1-dev-347-gd8782b751)) date 11/17/19 15:03:13*
%MOMM*%
%LPD*%
G01*
G04 APERTURE LIST*
G04 #@! TA.AperFunction,NonConductor*
%ADD10C,0.100000*%
G04 #@! TD*
G04 #@! TA.AperFunction,ComponentPad*
%ADD11C,1.800000*%
G04 #@! TD*
G04 #@! TA.AperFunction,ComponentPad*
%ADD12R,1.800000X1.800000*%
G04 #@! TD*
G04 #@! TA.AperFunction,ComponentPad*
%ADD13O,1.700000X1.700000*%
G04 #@! TD*
G04 #@! TA.AperFunction,ComponentPad*
%ADD14R,1.700000X1.700000*%
G04 #@! TD*
G04 #@! TA.AperFunction,ComponentPad*
%ADD15O,3.600000X1.800000*%
G04 #@! TD*
G04 #@! TA.AperFunction,Conductor*
%ADD16C,0.100000*%
G04 #@! TD*
G04 #@! TA.AperFunction,ComponentPad*
%ADD17C,9.000000*%
G04 #@! TD*
G04 #@! TA.AperFunction,ComponentPad*
%ADD18O,2.032000X1.727200*%
G04 #@! TD*
G04 #@! TA.AperFunction,ViaPad*
%ADD19C,2.000000*%
G04 #@! TD*
G04 #@! TA.AperFunction,ViaPad*
%ADD20C,1.500000*%
G04 #@! TD*
G04 #@! TA.AperFunction,Conductor*
%ADD21C,0.350000*%
G04 #@! TD*
G04 #@! TA.AperFunction,Conductor*
%ADD22C,2.000000*%
G04 #@! TD*
G04 APERTURE END LIST*
D10*
X24130000Y-166751000D02*
X22606000Y-165227000D01*
X23622000Y-25527000D02*
X22352000Y-26797000D01*
X102362000Y-165227000D02*
X100838000Y-166751000D01*
X102171500Y-26733500D02*
X100901500Y-25463500D01*
X51564885Y-141544384D02*
G75*
G03X51564885Y-141544384I-2796885J0D01*
G01*
X85026500Y-141541500D02*
G75*
G03X85026500Y-141541500I-2794000J0D01*
G01*
X51510022Y-36397021D02*
G75*
G03X51510022Y-36397021I-2805522J0D01*
G01*
X84848668Y-36398168D02*
G75*
G03X84848668Y-36398168I-2552668J0D01*
G01*
X22606000Y-165227000D02*
X22352000Y-26797000D01*
X100838000Y-166751000D02*
X24130000Y-166751000D01*
X102171500Y-26733500D02*
X102362000Y-165227000D01*
X23622000Y-25527000D02*
X100901500Y-25463500D01*
D11*
G04 #@! TO.P,D1,2*
G04 #@! TO.N,Net-(D1-Pad2)*
X96393000Y-36195000D03*
D12*
G04 #@! TO.P,D1,1*
G04 #@! TO.N,ABORT*
X93853000Y-36195000D03*
G04 #@! TD*
D13*
G04 #@! TO.P,Serial_conn1,4*
G04 #@! TO.N,Rx_conn*
X75946000Y-55245000D03*
G04 #@! TO.P,Serial_conn1,3*
G04 #@! TO.N,Tx_conn*
X75946000Y-52705000D03*
G04 #@! TO.P,Serial_conn1,2*
G04 #@! TO.N,GNDS*
X75946000Y-50165000D03*
D14*
G04 #@! TO.P,Serial_conn1,1*
G04 #@! TO.N,5V_ISO*
X75946000Y-47625000D03*
G04 #@! TD*
D15*
G04 #@! TO.P,SIGNAL_SOCKET1,8*
G04 #@! TO.N,EXTRA_ALARM_OUT*
X32258000Y-162295000D03*
G04 #@! TO.P,SIGNAL_SOCKET1,7*
G04 #@! TO.N,EXTRA_ALARM_IN*
X32258000Y-158795000D03*
G04 #@! TO.P,SIGNAL_SOCKET1,6*
G04 #@! TO.N,PROBE_PLATE*
X32258000Y-155295000D03*
G04 #@! TO.P,SIGNAL_SOCKET1,5*
G04 #@! TO.N,GND_SPEED*
X32258000Y-151795000D03*
G04 #@! TO.P,SIGNAL_SOCKET1,4*
G04 #@! TO.N,SIGNAL_SPEED*
X32258000Y-148295000D03*
G04 #@! TO.P,SIGNAL_SOCKET1,3*
G04 #@! TO.N,SOURCE_SPEED*
X32258000Y-144795000D03*
G04 #@! TO.P,SIGNAL_SOCKET1,2*
G04 #@! TO.N,GND_FOR*
X32258000Y-141295000D03*
D16*
G04 #@! TD*
G04 #@! TO.N,SOURCE_FOR*
G04 #@! TO.C,SIGNAL_SOCKET1*
G36*
X33832504Y-136896204D02*
X33856773Y-136899804D01*
X33880571Y-136905765D01*
X33903671Y-136914030D01*
X33925849Y-136924520D01*
X33946893Y-136937133D01*
X33966598Y-136951747D01*
X33984777Y-136968223D01*
X34001253Y-136986402D01*
X34015867Y-137006107D01*
X34028480Y-137027151D01*
X34038970Y-137049329D01*
X34047235Y-137072429D01*
X34053196Y-137096227D01*
X34056796Y-137120496D01*
X34058000Y-137145000D01*
X34058000Y-138445000D01*
X34056796Y-138469504D01*
X34053196Y-138493773D01*
X34047235Y-138517571D01*
X34038970Y-138540671D01*
X34028480Y-138562849D01*
X34015867Y-138583893D01*
X34001253Y-138603598D01*
X33984777Y-138621777D01*
X33966598Y-138638253D01*
X33946893Y-138652867D01*
X33925849Y-138665480D01*
X33903671Y-138675970D01*
X33880571Y-138684235D01*
X33856773Y-138690196D01*
X33832504Y-138693796D01*
X33808000Y-138695000D01*
X30708000Y-138695000D01*
X30683496Y-138693796D01*
X30659227Y-138690196D01*
X30635429Y-138684235D01*
X30612329Y-138675970D01*
X30590151Y-138665480D01*
X30569107Y-138652867D01*
X30549402Y-138638253D01*
X30531223Y-138621777D01*
X30514747Y-138603598D01*
X30500133Y-138583893D01*
X30487520Y-138562849D01*
X30477030Y-138540671D01*
X30468765Y-138517571D01*
X30462804Y-138493773D01*
X30459204Y-138469504D01*
X30458000Y-138445000D01*
X30458000Y-137145000D01*
X30459204Y-137120496D01*
X30462804Y-137096227D01*
X30468765Y-137072429D01*
X30477030Y-137049329D01*
X30487520Y-137027151D01*
X30500133Y-137006107D01*
X30514747Y-136986402D01*
X30531223Y-136968223D01*
X30549402Y-136951747D01*
X30569107Y-136937133D01*
X30590151Y-136924520D01*
X30612329Y-136914030D01*
X30635429Y-136905765D01*
X30659227Y-136899804D01*
X30683496Y-136896204D01*
X30708000Y-136895000D01*
X33808000Y-136895000D01*
X33832504Y-136896204D01*
X33832504Y-136896204D01*
G37*
D11*
G04 #@! TO.P,SIGNAL_SOCKET1,1*
G04 #@! TO.N,SOURCE_FOR*
X32258000Y-137795000D03*
G04 #@! TD*
D15*
G04 #@! TO.P,Z_PLUG_SOCKET1,8*
G04 #@! TO.N,LIM_Z_IN*
X32385000Y-131180000D03*
G04 #@! TO.P,Z_PLUG_SOCKET1,7*
G04 #@! TO.N,GNDPWR*
X32385000Y-127680000D03*
G04 #@! TO.P,Z_PLUG_SOCKET1,6*
G04 #@! TO.N,+36V*
X32385000Y-124180000D03*
G04 #@! TO.P,Z_PLUG_SOCKET1,5*
G04 #@! TO.N,ALARM_IN*
X32385000Y-120680000D03*
G04 #@! TO.P,Z_PLUG_SOCKET1,4*
G04 #@! TO.N,GNDS*
X32385000Y-117180000D03*
G04 #@! TO.P,Z_PLUG_SOCKET1,3*
G04 #@! TO.N,DIR_Z_OUT*
X32385000Y-113680000D03*
G04 #@! TO.P,Z_PLUG_SOCKET1,2*
G04 #@! TO.N,GNDS*
X32385000Y-110180000D03*
D16*
G04 #@! TD*
G04 #@! TO.N,PUL_Z_OUT*
G04 #@! TO.C,Z_PLUG_SOCKET1*
G36*
X33959504Y-105781204D02*
X33983773Y-105784804D01*
X34007571Y-105790765D01*
X34030671Y-105799030D01*
X34052849Y-105809520D01*
X34073893Y-105822133D01*
X34093598Y-105836747D01*
X34111777Y-105853223D01*
X34128253Y-105871402D01*
X34142867Y-105891107D01*
X34155480Y-105912151D01*
X34165970Y-105934329D01*
X34174235Y-105957429D01*
X34180196Y-105981227D01*
X34183796Y-106005496D01*
X34185000Y-106030000D01*
X34185000Y-107330000D01*
X34183796Y-107354504D01*
X34180196Y-107378773D01*
X34174235Y-107402571D01*
X34165970Y-107425671D01*
X34155480Y-107447849D01*
X34142867Y-107468893D01*
X34128253Y-107488598D01*
X34111777Y-107506777D01*
X34093598Y-107523253D01*
X34073893Y-107537867D01*
X34052849Y-107550480D01*
X34030671Y-107560970D01*
X34007571Y-107569235D01*
X33983773Y-107575196D01*
X33959504Y-107578796D01*
X33935000Y-107580000D01*
X30835000Y-107580000D01*
X30810496Y-107578796D01*
X30786227Y-107575196D01*
X30762429Y-107569235D01*
X30739329Y-107560970D01*
X30717151Y-107550480D01*
X30696107Y-107537867D01*
X30676402Y-107523253D01*
X30658223Y-107506777D01*
X30641747Y-107488598D01*
X30627133Y-107468893D01*
X30614520Y-107447849D01*
X30604030Y-107425671D01*
X30595765Y-107402571D01*
X30589804Y-107378773D01*
X30586204Y-107354504D01*
X30585000Y-107330000D01*
X30585000Y-106030000D01*
X30586204Y-106005496D01*
X30589804Y-105981227D01*
X30595765Y-105957429D01*
X30604030Y-105934329D01*
X30614520Y-105912151D01*
X30627133Y-105891107D01*
X30641747Y-105871402D01*
X30658223Y-105853223D01*
X30676402Y-105836747D01*
X30696107Y-105822133D01*
X30717151Y-105809520D01*
X30739329Y-105799030D01*
X30762429Y-105790765D01*
X30786227Y-105784804D01*
X30810496Y-105781204D01*
X30835000Y-105780000D01*
X33935000Y-105780000D01*
X33959504Y-105781204D01*
X33959504Y-105781204D01*
G37*
D11*
G04 #@! TO.P,Z_PLUG_SOCKET1,1*
G04 #@! TO.N,PUL_Z_OUT*
X32385000Y-106680000D03*
G04 #@! TD*
D15*
G04 #@! TO.P,PWR_IN1,2*
G04 #@! TO.N,GNDPWR*
X32385000Y-32202000D03*
D16*
G04 #@! TD*
G04 #@! TO.N,+36V*
G04 #@! TO.C,PWR_IN1*
G36*
X33959504Y-27803204D02*
X33983773Y-27806804D01*
X34007571Y-27812765D01*
X34030671Y-27821030D01*
X34052849Y-27831520D01*
X34073893Y-27844133D01*
X34093598Y-27858747D01*
X34111777Y-27875223D01*
X34128253Y-27893402D01*
X34142867Y-27913107D01*
X34155480Y-27934151D01*
X34165970Y-27956329D01*
X34174235Y-27979429D01*
X34180196Y-28003227D01*
X34183796Y-28027496D01*
X34185000Y-28052000D01*
X34185000Y-29352000D01*
X34183796Y-29376504D01*
X34180196Y-29400773D01*
X34174235Y-29424571D01*
X34165970Y-29447671D01*
X34155480Y-29469849D01*
X34142867Y-29490893D01*
X34128253Y-29510598D01*
X34111777Y-29528777D01*
X34093598Y-29545253D01*
X34073893Y-29559867D01*
X34052849Y-29572480D01*
X34030671Y-29582970D01*
X34007571Y-29591235D01*
X33983773Y-29597196D01*
X33959504Y-29600796D01*
X33935000Y-29602000D01*
X30835000Y-29602000D01*
X30810496Y-29600796D01*
X30786227Y-29597196D01*
X30762429Y-29591235D01*
X30739329Y-29582970D01*
X30717151Y-29572480D01*
X30696107Y-29559867D01*
X30676402Y-29545253D01*
X30658223Y-29528777D01*
X30641747Y-29510598D01*
X30627133Y-29490893D01*
X30614520Y-29469849D01*
X30604030Y-29447671D01*
X30595765Y-29424571D01*
X30589804Y-29400773D01*
X30586204Y-29376504D01*
X30585000Y-29352000D01*
X30585000Y-28052000D01*
X30586204Y-28027496D01*
X30589804Y-28003227D01*
X30595765Y-27979429D01*
X30604030Y-27956329D01*
X30614520Y-27934151D01*
X30627133Y-27913107D01*
X30641747Y-27893402D01*
X30658223Y-27875223D01*
X30676402Y-27858747D01*
X30696107Y-27844133D01*
X30717151Y-27831520D01*
X30739329Y-27821030D01*
X30762429Y-27812765D01*
X30786227Y-27806804D01*
X30810496Y-27803204D01*
X30835000Y-27802000D01*
X33935000Y-27802000D01*
X33959504Y-27803204D01*
X33959504Y-27803204D01*
G37*
D11*
G04 #@! TO.P,PWR_IN1,1*
G04 #@! TO.N,+36V*
X32385000Y-28702000D03*
G04 #@! TD*
D15*
G04 #@! TO.P,Y2_PLUG_SOCKET1,8*
G04 #@! TO.N,LIM_Y_IN*
X47244000Y-96382000D03*
G04 #@! TO.P,Y2_PLUG_SOCKET1,7*
G04 #@! TO.N,GNDPWR*
X47244000Y-92882000D03*
G04 #@! TO.P,Y2_PLUG_SOCKET1,6*
G04 #@! TO.N,+36V*
X47244000Y-89382000D03*
G04 #@! TO.P,Y2_PLUG_SOCKET1,5*
G04 #@! TO.N,ALARM_IN*
X47244000Y-85882000D03*
G04 #@! TO.P,Y2_PLUG_SOCKET1,4*
G04 #@! TO.N,GNDS*
X47244000Y-82382000D03*
G04 #@! TO.P,Y2_PLUG_SOCKET1,3*
G04 #@! TO.N,DIR_Y_OUT*
X47244000Y-78882000D03*
G04 #@! TO.P,Y2_PLUG_SOCKET1,2*
G04 #@! TO.N,GNDS*
X47244000Y-75382000D03*
D16*
G04 #@! TD*
G04 #@! TO.N,PUL_Y_OUT*
G04 #@! TO.C,Y2_PLUG_SOCKET1*
G36*
X48818504Y-70983204D02*
X48842773Y-70986804D01*
X48866571Y-70992765D01*
X48889671Y-71001030D01*
X48911849Y-71011520D01*
X48932893Y-71024133D01*
X48952598Y-71038747D01*
X48970777Y-71055223D01*
X48987253Y-71073402D01*
X49001867Y-71093107D01*
X49014480Y-71114151D01*
X49024970Y-71136329D01*
X49033235Y-71159429D01*
X49039196Y-71183227D01*
X49042796Y-71207496D01*
X49044000Y-71232000D01*
X49044000Y-72532000D01*
X49042796Y-72556504D01*
X49039196Y-72580773D01*
X49033235Y-72604571D01*
X49024970Y-72627671D01*
X49014480Y-72649849D01*
X49001867Y-72670893D01*
X48987253Y-72690598D01*
X48970777Y-72708777D01*
X48952598Y-72725253D01*
X48932893Y-72739867D01*
X48911849Y-72752480D01*
X48889671Y-72762970D01*
X48866571Y-72771235D01*
X48842773Y-72777196D01*
X48818504Y-72780796D01*
X48794000Y-72782000D01*
X45694000Y-72782000D01*
X45669496Y-72780796D01*
X45645227Y-72777196D01*
X45621429Y-72771235D01*
X45598329Y-72762970D01*
X45576151Y-72752480D01*
X45555107Y-72739867D01*
X45535402Y-72725253D01*
X45517223Y-72708777D01*
X45500747Y-72690598D01*
X45486133Y-72670893D01*
X45473520Y-72649849D01*
X45463030Y-72627671D01*
X45454765Y-72604571D01*
X45448804Y-72580773D01*
X45445204Y-72556504D01*
X45444000Y-72532000D01*
X45444000Y-71232000D01*
X45445204Y-71207496D01*
X45448804Y-71183227D01*
X45454765Y-71159429D01*
X45463030Y-71136329D01*
X45473520Y-71114151D01*
X45486133Y-71093107D01*
X45500747Y-71073402D01*
X45517223Y-71055223D01*
X45535402Y-71038747D01*
X45555107Y-71024133D01*
X45576151Y-71011520D01*
X45598329Y-71001030D01*
X45621429Y-70992765D01*
X45645227Y-70986804D01*
X45669496Y-70983204D01*
X45694000Y-70982000D01*
X48794000Y-70982000D01*
X48818504Y-70983204D01*
X48818504Y-70983204D01*
G37*
D11*
G04 #@! TO.P,Y2_PLUG_SOCKET1,1*
G04 #@! TO.N,PUL_Y_OUT*
X47244000Y-71882000D03*
G04 #@! TD*
D15*
G04 #@! TO.P,Y1_PLUG_SOCKET1,8*
G04 #@! TO.N,LIM_Y_IN*
X32385000Y-96433278D03*
G04 #@! TO.P,Y1_PLUG_SOCKET1,7*
G04 #@! TO.N,GNDPWR*
X32385000Y-92933278D03*
G04 #@! TO.P,Y1_PLUG_SOCKET1,6*
G04 #@! TO.N,+36V*
X32385000Y-89433278D03*
G04 #@! TO.P,Y1_PLUG_SOCKET1,5*
G04 #@! TO.N,ALARM_IN*
X32385000Y-85933278D03*
G04 #@! TO.P,Y1_PLUG_SOCKET1,4*
G04 #@! TO.N,GNDS*
X32385000Y-82433278D03*
G04 #@! TO.P,Y1_PLUG_SOCKET1,3*
G04 #@! TO.N,DIR_Y_OUT*
X32385000Y-78933278D03*
G04 #@! TO.P,Y1_PLUG_SOCKET1,2*
G04 #@! TO.N,GNDS*
X32385000Y-75433278D03*
D16*
G04 #@! TD*
G04 #@! TO.N,PUL_Y_OUT*
G04 #@! TO.C,Y1_PLUG_SOCKET1*
G36*
X33959504Y-71034482D02*
X33983773Y-71038082D01*
X34007571Y-71044043D01*
X34030671Y-71052308D01*
X34052849Y-71062798D01*
X34073893Y-71075411D01*
X34093598Y-71090025D01*
X34111777Y-71106501D01*
X34128253Y-71124680D01*
X34142867Y-71144385D01*
X34155480Y-71165429D01*
X34165970Y-71187607D01*
X34174235Y-71210707D01*
X34180196Y-71234505D01*
X34183796Y-71258774D01*
X34185000Y-71283278D01*
X34185000Y-72583278D01*
X34183796Y-72607782D01*
X34180196Y-72632051D01*
X34174235Y-72655849D01*
X34165970Y-72678949D01*
X34155480Y-72701127D01*
X34142867Y-72722171D01*
X34128253Y-72741876D01*
X34111777Y-72760055D01*
X34093598Y-72776531D01*
X34073893Y-72791145D01*
X34052849Y-72803758D01*
X34030671Y-72814248D01*
X34007571Y-72822513D01*
X33983773Y-72828474D01*
X33959504Y-72832074D01*
X33935000Y-72833278D01*
X30835000Y-72833278D01*
X30810496Y-72832074D01*
X30786227Y-72828474D01*
X30762429Y-72822513D01*
X30739329Y-72814248D01*
X30717151Y-72803758D01*
X30696107Y-72791145D01*
X30676402Y-72776531D01*
X30658223Y-72760055D01*
X30641747Y-72741876D01*
X30627133Y-72722171D01*
X30614520Y-72701127D01*
X30604030Y-72678949D01*
X30595765Y-72655849D01*
X30589804Y-72632051D01*
X30586204Y-72607782D01*
X30585000Y-72583278D01*
X30585000Y-71283278D01*
X30586204Y-71258774D01*
X30589804Y-71234505D01*
X30595765Y-71210707D01*
X30604030Y-71187607D01*
X30614520Y-71165429D01*
X30627133Y-71144385D01*
X30641747Y-71124680D01*
X30658223Y-71106501D01*
X30676402Y-71090025D01*
X30696107Y-71075411D01*
X30717151Y-71062798D01*
X30739329Y-71052308D01*
X30762429Y-71044043D01*
X30786227Y-71038082D01*
X30810496Y-71034482D01*
X30835000Y-71033278D01*
X33935000Y-71033278D01*
X33959504Y-71034482D01*
X33959504Y-71034482D01*
G37*
D11*
G04 #@! TO.P,Y1_PLUG_SOCKET1,1*
G04 #@! TO.N,PUL_Y_OUT*
X32385000Y-71933278D03*
G04 #@! TD*
D15*
G04 #@! TO.P,X_PLUG_SOCKET1,8*
G04 #@! TO.N,LIM_X_IN*
X32385000Y-63235000D03*
G04 #@! TO.P,X_PLUG_SOCKET1,7*
G04 #@! TO.N,GNDPWR*
X32385000Y-59735000D03*
G04 #@! TO.P,X_PLUG_SOCKET1,6*
G04 #@! TO.N,+36V*
X32385000Y-56235000D03*
G04 #@! TO.P,X_PLUG_SOCKET1,5*
G04 #@! TO.N,ALARM_IN*
X32385000Y-52735000D03*
G04 #@! TO.P,X_PLUG_SOCKET1,4*
G04 #@! TO.N,GNDS*
X32385000Y-49235000D03*
G04 #@! TO.P,X_PLUG_SOCKET1,3*
G04 #@! TO.N,DIR_X_OUT*
X32385000Y-45735000D03*
G04 #@! TO.P,X_PLUG_SOCKET1,2*
G04 #@! TO.N,GNDS*
X32385000Y-42235000D03*
D16*
G04 #@! TD*
G04 #@! TO.N,PUL_X_OUT*
G04 #@! TO.C,X_PLUG_SOCKET1*
G36*
X33959504Y-37836204D02*
X33983773Y-37839804D01*
X34007571Y-37845765D01*
X34030671Y-37854030D01*
X34052849Y-37864520D01*
X34073893Y-37877133D01*
X34093598Y-37891747D01*
X34111777Y-37908223D01*
X34128253Y-37926402D01*
X34142867Y-37946107D01*
X34155480Y-37967151D01*
X34165970Y-37989329D01*
X34174235Y-38012429D01*
X34180196Y-38036227D01*
X34183796Y-38060496D01*
X34185000Y-38085000D01*
X34185000Y-39385000D01*
X34183796Y-39409504D01*
X34180196Y-39433773D01*
X34174235Y-39457571D01*
X34165970Y-39480671D01*
X34155480Y-39502849D01*
X34142867Y-39523893D01*
X34128253Y-39543598D01*
X34111777Y-39561777D01*
X34093598Y-39578253D01*
X34073893Y-39592867D01*
X34052849Y-39605480D01*
X34030671Y-39615970D01*
X34007571Y-39624235D01*
X33983773Y-39630196D01*
X33959504Y-39633796D01*
X33935000Y-39635000D01*
X30835000Y-39635000D01*
X30810496Y-39633796D01*
X30786227Y-39630196D01*
X30762429Y-39624235D01*
X30739329Y-39615970D01*
X30717151Y-39605480D01*
X30696107Y-39592867D01*
X30676402Y-39578253D01*
X30658223Y-39561777D01*
X30641747Y-39543598D01*
X30627133Y-39523893D01*
X30614520Y-39502849D01*
X30604030Y-39480671D01*
X30595765Y-39457571D01*
X30589804Y-39433773D01*
X30586204Y-39409504D01*
X30585000Y-39385000D01*
X30585000Y-38085000D01*
X30586204Y-38060496D01*
X30589804Y-38036227D01*
X30595765Y-38012429D01*
X30604030Y-37989329D01*
X30614520Y-37967151D01*
X30627133Y-37946107D01*
X30641747Y-37926402D01*
X30658223Y-37908223D01*
X30676402Y-37891747D01*
X30696107Y-37877133D01*
X30717151Y-37864520D01*
X30739329Y-37854030D01*
X30762429Y-37845765D01*
X30786227Y-37839804D01*
X30810496Y-37836204D01*
X30835000Y-37835000D01*
X33935000Y-37835000D01*
X33959504Y-37836204D01*
X33959504Y-37836204D01*
G37*
D11*
G04 #@! TO.P,X_PLUG_SOCKET1,1*
G04 #@! TO.N,PUL_X_OUT*
X32385000Y-38735000D03*
G04 #@! TD*
D17*
G04 #@! TO.P,MH4,1*
G04 #@! TO.N,N/C*
X48704500Y-141605000D03*
G04 #@! TD*
G04 #@! TO.P,MH3,1*
G04 #@! TO.N,N/C*
X82296000Y-141541500D03*
G04 #@! TD*
G04 #@! TO.P,MH2,1*
G04 #@! TO.N,N/C*
X48768000Y-36322000D03*
G04 #@! TD*
G04 #@! TO.P,MH1,1*
G04 #@! TO.N,N/C*
X82359500Y-36322000D03*
G04 #@! TD*
D18*
G04 #@! TO.P,P1,1*
G04 #@! TO.N,Tx*
X80264000Y-64770000D03*
G04 #@! TO.P,P1,2*
G04 #@! TO.N,Rx*
X80264000Y-67310000D03*
G04 #@! TO.P,P1,3*
G04 #@! TO.N,RESET*
X80264000Y-69850000D03*
G04 #@! TO.P,P1,4*
G04 #@! TO.N,GND*
X80264000Y-72390000D03*
G04 #@! TO.P,P1,5*
G04 #@! TO.N,PUL_X*
X80264000Y-74930000D03*
G04 #@! TO.P,P1,6*
G04 #@! TO.N,PUL_Y*
X80264000Y-77470000D03*
G04 #@! TO.P,P1,7*
G04 #@! TO.N,PUL_Z*
X80264000Y-80010000D03*
G04 #@! TO.P,P1,8*
G04 #@! TO.N,DIR_X*
X80264000Y-82550000D03*
G04 #@! TO.P,P1,9*
G04 #@! TO.N,DIR_Y*
X80264000Y-85090000D03*
G04 #@! TO.P,P1,10*
G04 #@! TO.N,DIR_Z*
X80264000Y-87630000D03*
G04 #@! TO.P,P1,11*
G04 #@! TO.N,N/C*
X80264000Y-90170000D03*
G04 #@! TO.P,P1,12*
G04 #@! TO.N,LIM_X*
X80264000Y-92710000D03*
G04 #@! TO.P,P1,13*
G04 #@! TO.N,LIM_Y*
X80264000Y-95250000D03*
G04 #@! TO.P,P1,14*
G04 #@! TO.N,SPINDLE_PWM*
X80264000Y-97790000D03*
G04 #@! TO.P,P1,15*
G04 #@! TO.N,LIM_Z*
X80264000Y-100330000D03*
G04 #@! TD*
G04 #@! TO.P,P2,1*
G04 #@! TO.N,N/C*
X95504000Y-64770000D03*
G04 #@! TO.P,P2,2*
G04 #@! TO.N,GND*
X95504000Y-67310000D03*
G04 #@! TO.P,P2,3*
G04 #@! TO.N,N/C*
X95504000Y-69850000D03*
G04 #@! TO.P,P2,4*
G04 #@! TO.N,+5V*
X95504000Y-72390000D03*
G04 #@! TO.P,P2,5*
G04 #@! TO.N,N/C*
X95504000Y-74930000D03*
G04 #@! TO.P,P2,6*
X95504000Y-77470000D03*
G04 #@! TO.P,P2,7*
G04 #@! TO.N,PROBE*
X95504000Y-80010000D03*
G04 #@! TO.P,P2,8*
G04 #@! TO.N,N/C*
X95504000Y-82550000D03*
G04 #@! TO.P,P2,9*
X95504000Y-85090000D03*
G04 #@! TO.P,P2,10*
X95504000Y-87630000D03*
G04 #@! TO.P,P2,11*
X95504000Y-90170000D03*
G04 #@! TO.P,P2,12*
G04 #@! TO.N,ABORT*
X95504000Y-92710000D03*
G04 #@! TO.P,P2,13*
G04 #@! TO.N,N/C*
X95504000Y-95250000D03*
G04 #@! TO.P,P2,14*
X95504000Y-97790000D03*
G04 #@! TO.P,P2,15*
G04 #@! TO.N,SPINDLE_EN*
X95504000Y-100330000D03*
G04 #@! TD*
D19*
G04 #@! TO.N,GNDPWR*
X39497000Y-59690000D03*
X39116000Y-92964000D03*
X39116000Y-127635000D03*
X39116000Y-33655000D03*
D20*
X36830000Y-32893000D03*
X39497000Y-35687000D03*
X39243000Y-62611000D03*
X36703000Y-127680000D03*
X36957000Y-92933278D03*
D19*
G04 #@! TO.N,+36V*
X42164000Y-89535000D03*
X41071800Y-28651200D03*
X42291000Y-56261000D03*
X42164000Y-124206000D03*
D20*
X38862000Y-28651200D03*
X36957000Y-28702000D03*
X42291000Y-59690000D03*
X42164000Y-121158000D03*
X44196000Y-89382000D03*
G04 #@! TO.N,ABORT*
X90170000Y-90424000D03*
D19*
G04 #@! TO.N,LIM_X_IN*
X53594000Y-95504000D03*
X27559000Y-63246000D03*
D20*
G04 #@! TO.N,GNDS*
X51054000Y-53721000D03*
X66294000Y-53721000D03*
G04 #@! TO.N,Net-(D1-Pad2)*
X91948000Y-81407000D03*
G04 #@! TD*
D21*
G04 #@! TO.N,GND*
X95504000Y-67310000D02*
X95351600Y-67310000D01*
D22*
G04 #@! TO.N,GNDPWR*
X33020000Y-32512000D02*
X32385000Y-32512000D01*
X33401000Y-32893000D02*
X33020000Y-32512000D01*
X39497000Y-33655000D02*
X38735000Y-32893000D01*
X38735000Y-32893000D02*
X36830000Y-32893000D01*
X39497000Y-61214000D02*
X39243000Y-61468000D01*
X39497000Y-33655000D02*
X39497000Y-35687000D01*
X39243000Y-61468000D02*
X39243000Y-94742000D01*
X39243000Y-94742000D02*
X39116000Y-94869000D01*
X39116000Y-94869000D02*
X39116000Y-127508000D01*
X36830000Y-32893000D02*
X33401000Y-32893000D01*
X39497000Y-35687000D02*
X39497000Y-61214000D01*
X39116000Y-127635000D02*
X36748000Y-127635000D01*
X36748000Y-127635000D02*
X36703000Y-127680000D01*
X36987722Y-92964000D02*
X36957000Y-92933278D01*
X39116000Y-92964000D02*
X36987722Y-92964000D01*
G04 #@! TO.N,+36V*
X42164000Y-122428000D02*
X42164000Y-124206000D01*
X42164000Y-122428000D02*
X42164000Y-123825000D01*
X41402000Y-28702000D02*
X42291000Y-29591000D01*
X42291000Y-29591000D02*
X42291000Y-90805000D01*
X42164000Y-90932000D02*
X42164000Y-122428000D01*
X42291000Y-90805000D02*
X42164000Y-90932000D01*
X41071800Y-28651200D02*
X38862000Y-28651200D01*
X38582600Y-28702000D02*
X36957000Y-28702000D01*
X38633400Y-28651200D02*
X38582600Y-28702000D01*
X38862000Y-28651200D02*
X38633400Y-28651200D01*
X36957000Y-28702000D02*
X32385000Y-28702000D01*
X42164000Y-89535000D02*
X44043000Y-89535000D01*
X44043000Y-89535000D02*
X44196000Y-89382000D01*
D21*
G04 #@! TO.N,ABORT*
X94488000Y-36830000D02*
X93853000Y-36195000D01*
X94488000Y-59436000D02*
X94488000Y-36830000D01*
X90551000Y-63373000D02*
X94488000Y-59436000D01*
X90170000Y-90424000D02*
X90551000Y-90043000D01*
X90551000Y-90043000D02*
X90551000Y-63373000D01*
G04 #@! TO.N,LIM_X_IN*
X28956000Y-134112000D02*
X28574994Y-133730994D01*
X27041011Y-63255989D02*
X27051000Y-63246000D01*
X28956000Y-134112000D02*
X27041011Y-132197011D01*
X27041011Y-132197011D02*
X27041011Y-63255989D01*
X29591000Y-134747000D02*
X28956000Y-134112000D01*
X44894500Y-134747000D02*
X29591000Y-134747000D01*
X53594000Y-95504000D02*
X53594000Y-126047500D01*
X53594000Y-126047500D02*
X44894500Y-134747000D01*
G04 #@! TO.N,GNDS*
X66294000Y-53721000D02*
X51054000Y-53721000D01*
G04 #@! TO.N,Net-(D1-Pad2)*
X91984500Y-63336500D02*
X92202000Y-63119000D01*
X91948000Y-81407000D02*
X91984500Y-75274500D01*
X91984500Y-75274500D02*
X91984500Y-63336500D01*
X95631000Y-59690000D02*
X95504000Y-59817000D01*
X95631000Y-36957000D02*
X95631000Y-59690000D01*
X96393000Y-36195000D02*
X95631000Y-36957000D01*
X95504000Y-59817000D02*
X91984500Y-63336500D01*
G04 #@! TD*
G04 #@! TO.N,+36V*
G36*
X63720523Y-26724049D02*
X63787848Y-27204106D01*
X63951485Y-44985994D01*
X63880640Y-45512973D01*
X63669312Y-45987075D01*
X63324754Y-46392040D01*
X56265264Y-52621000D01*
X52322807Y-52621000D01*
X52002811Y-52301004D01*
X51387178Y-52046000D01*
X50720822Y-52046000D01*
X50105189Y-52301004D01*
X49634004Y-52772189D01*
X49379000Y-53387822D01*
X49379000Y-54054178D01*
X49634004Y-54669811D01*
X50105189Y-55140996D01*
X50720822Y-55396000D01*
X51387178Y-55396000D01*
X52002811Y-55140996D01*
X52322807Y-54821000D01*
X55319985Y-54821000D01*
X55200233Y-93321312D01*
X55106078Y-93901003D01*
X54972310Y-94159949D01*
X54684425Y-93872064D01*
X53976906Y-93579000D01*
X53211094Y-93579000D01*
X52503575Y-93872064D01*
X51962064Y-94413575D01*
X51669000Y-95121094D01*
X51669000Y-95886906D01*
X51962064Y-96594425D01*
X52494000Y-97126361D01*
X52494001Y-125591864D01*
X44438866Y-133647000D01*
X40416809Y-133647000D01*
X40271761Y-133456109D01*
X40091436Y-133013638D01*
X40030804Y-132527986D01*
X40053789Y-129330160D01*
X40206425Y-129266936D01*
X40343120Y-129130241D01*
X40503847Y-129022847D01*
X40611242Y-128862119D01*
X40747936Y-128725425D01*
X40821915Y-128546824D01*
X40929309Y-128386097D01*
X40967021Y-128196508D01*
X41041000Y-128017906D01*
X41041000Y-127824590D01*
X41078712Y-127635000D01*
X41041000Y-127445410D01*
X41041000Y-95516009D01*
X41056309Y-95493097D01*
X41168000Y-94931590D01*
X41168000Y-94931586D01*
X41205711Y-94742001D01*
X41168000Y-94552415D01*
X41168000Y-92882000D01*
X44483247Y-92882000D01*
X44624888Y-93594079D01*
X45028249Y-94197751D01*
X45631921Y-94601112D01*
X45787206Y-94632000D01*
X45631921Y-94662888D01*
X45028249Y-95066249D01*
X44624888Y-95669921D01*
X44483247Y-96382000D01*
X44624888Y-97094079D01*
X45028249Y-97697751D01*
X45631921Y-98101112D01*
X46164257Y-98207000D01*
X48323743Y-98207000D01*
X48856079Y-98101112D01*
X49459751Y-97697751D01*
X49863112Y-97094079D01*
X50004753Y-96382000D01*
X49863112Y-95669921D01*
X49459751Y-95066249D01*
X48856079Y-94662888D01*
X48700794Y-94632000D01*
X48856079Y-94601112D01*
X49459751Y-94197751D01*
X49863112Y-93594079D01*
X50004753Y-92882000D01*
X49863112Y-92169921D01*
X49459751Y-91566249D01*
X48856079Y-91162888D01*
X48323743Y-91057000D01*
X46164257Y-91057000D01*
X45631921Y-91162888D01*
X45028249Y-91566249D01*
X44624888Y-92169921D01*
X44483247Y-92882000D01*
X41168000Y-92882000D01*
X41168000Y-89694351D01*
X44851330Y-89694351D01*
X44906382Y-89896301D01*
X45212629Y-90407305D01*
X45691117Y-90762215D01*
X46269000Y-90907000D01*
X47169000Y-90907000D01*
X47169000Y-89457000D01*
X47319000Y-89457000D01*
X47319000Y-90907000D01*
X48219000Y-90907000D01*
X48796883Y-90762215D01*
X49275371Y-90407305D01*
X49581618Y-89896301D01*
X49636670Y-89694351D01*
X49510694Y-89457000D01*
X47319000Y-89457000D01*
X47169000Y-89457000D01*
X44977306Y-89457000D01*
X44851330Y-89694351D01*
X41168000Y-89694351D01*
X41168000Y-89069649D01*
X44851330Y-89069649D01*
X44977306Y-89307000D01*
X47169000Y-89307000D01*
X47169000Y-87857000D01*
X47319000Y-87857000D01*
X47319000Y-89307000D01*
X49510694Y-89307000D01*
X49636670Y-89069649D01*
X49581618Y-88867699D01*
X49275371Y-88356695D01*
X48796883Y-88001785D01*
X48219000Y-87857000D01*
X47319000Y-87857000D01*
X47169000Y-87857000D01*
X46269000Y-87857000D01*
X45691117Y-88001785D01*
X45212629Y-88356695D01*
X44906382Y-88867699D01*
X44851330Y-89069649D01*
X41168000Y-89069649D01*
X41168000Y-75382000D01*
X44483247Y-75382000D01*
X44624888Y-76094079D01*
X45028249Y-76697751D01*
X45631921Y-77101112D01*
X45787206Y-77132000D01*
X45631921Y-77162888D01*
X45028249Y-77566249D01*
X44624888Y-78169921D01*
X44483247Y-78882000D01*
X44624888Y-79594079D01*
X45028249Y-80197751D01*
X45631921Y-80601112D01*
X45787206Y-80632000D01*
X45631921Y-80662888D01*
X45028249Y-81066249D01*
X44624888Y-81669921D01*
X44483247Y-82382000D01*
X44624888Y-83094079D01*
X45028249Y-83697751D01*
X45631921Y-84101112D01*
X45787206Y-84132000D01*
X45631921Y-84162888D01*
X45028249Y-84566249D01*
X44624888Y-85169921D01*
X44483247Y-85882000D01*
X44624888Y-86594079D01*
X45028249Y-87197751D01*
X45631921Y-87601112D01*
X46164257Y-87707000D01*
X48323743Y-87707000D01*
X48856079Y-87601112D01*
X49459751Y-87197751D01*
X49863112Y-86594079D01*
X50004753Y-85882000D01*
X49863112Y-85169921D01*
X49459751Y-84566249D01*
X48856079Y-84162888D01*
X48700794Y-84132000D01*
X48856079Y-84101112D01*
X49459751Y-83697751D01*
X49863112Y-83094079D01*
X50004753Y-82382000D01*
X49863112Y-81669921D01*
X49459751Y-81066249D01*
X48856079Y-80662888D01*
X48700794Y-80632000D01*
X48856079Y-80601112D01*
X49459751Y-80197751D01*
X49863112Y-79594079D01*
X50004753Y-78882000D01*
X49863112Y-78169921D01*
X49459751Y-77566249D01*
X48856079Y-77162888D01*
X48700794Y-77132000D01*
X48856079Y-77101112D01*
X49459751Y-76697751D01*
X49863112Y-76094079D01*
X50004753Y-75382000D01*
X49863112Y-74669921D01*
X49459751Y-74066249D01*
X48913610Y-73701329D01*
X49250588Y-73634300D01*
X49637664Y-73375664D01*
X49896300Y-72988588D01*
X49987121Y-72532000D01*
X49987121Y-71232000D01*
X49896300Y-70775412D01*
X49637664Y-70388336D01*
X49250588Y-70129700D01*
X48794000Y-70038879D01*
X45694000Y-70038879D01*
X45237412Y-70129700D01*
X44850336Y-70388336D01*
X44591700Y-70775412D01*
X44500879Y-71232000D01*
X44500879Y-72532000D01*
X44591700Y-72988588D01*
X44850336Y-73375664D01*
X45237412Y-73634300D01*
X45574390Y-73701329D01*
X45028249Y-74066249D01*
X44624888Y-74669921D01*
X44483247Y-75382000D01*
X41168000Y-75382000D01*
X41168000Y-62178078D01*
X41310309Y-61965097D01*
X41422000Y-61403590D01*
X41422000Y-61403586D01*
X41459711Y-61214001D01*
X41422000Y-61024415D01*
X41422000Y-35242900D01*
X43343000Y-35242900D01*
X43343000Y-37401100D01*
X44168907Y-39395016D01*
X45694984Y-40921093D01*
X47688900Y-41747000D01*
X49847100Y-41747000D01*
X51841016Y-40921093D01*
X53367093Y-39395016D01*
X54193000Y-37401100D01*
X54193000Y-35242900D01*
X53367093Y-33248984D01*
X51841016Y-31722907D01*
X49847100Y-30897000D01*
X47688900Y-30897000D01*
X45694984Y-31722907D01*
X44168907Y-33248984D01*
X43343000Y-35242900D01*
X41422000Y-35242900D01*
X41422000Y-33844590D01*
X41459712Y-33655000D01*
X41310309Y-32903902D01*
X41118820Y-32617319D01*
X40884847Y-32267153D01*
X40724117Y-32159757D01*
X40230243Y-31665883D01*
X40122847Y-31505153D01*
X39486097Y-31079691D01*
X38924590Y-30968000D01*
X38924589Y-30968000D01*
X38735000Y-30930288D01*
X38545411Y-30968000D01*
X34655375Y-30968000D01*
X34600751Y-30886249D01*
X34279373Y-30671511D01*
X34270705Y-30654559D01*
X34197303Y-30227000D01*
X34309320Y-30227000D01*
X34539034Y-30131849D01*
X34714850Y-29956034D01*
X34810000Y-29726320D01*
X34810000Y-28933250D01*
X34653750Y-28777000D01*
X34150712Y-28777000D01*
X34147909Y-28627000D01*
X34653750Y-28627000D01*
X34810000Y-28470750D01*
X34810000Y-27677680D01*
X34714850Y-27447966D01*
X34539034Y-27272151D01*
X34309320Y-27177000D01*
X34131205Y-27177000D01*
X34178276Y-26765043D01*
X34286424Y-26493237D01*
X63612869Y-26469140D01*
X63720523Y-26724049D01*
X63720523Y-26724049D01*
G37*
X63720523Y-26724049D02*
X63787848Y-27204106D01*
X63951485Y-44985994D01*
X63880640Y-45512973D01*
X63669312Y-45987075D01*
X63324754Y-46392040D01*
X56265264Y-52621000D01*
X52322807Y-52621000D01*
X52002811Y-52301004D01*
X51387178Y-52046000D01*
X50720822Y-52046000D01*
X50105189Y-52301004D01*
X49634004Y-52772189D01*
X49379000Y-53387822D01*
X49379000Y-54054178D01*
X49634004Y-54669811D01*
X50105189Y-55140996D01*
X50720822Y-55396000D01*
X51387178Y-55396000D01*
X52002811Y-55140996D01*
X52322807Y-54821000D01*
X55319985Y-54821000D01*
X55200233Y-93321312D01*
X55106078Y-93901003D01*
X54972310Y-94159949D01*
X54684425Y-93872064D01*
X53976906Y-93579000D01*
X53211094Y-93579000D01*
X52503575Y-93872064D01*
X51962064Y-94413575D01*
X51669000Y-95121094D01*
X51669000Y-95886906D01*
X51962064Y-96594425D01*
X52494000Y-97126361D01*
X52494001Y-125591864D01*
X44438866Y-133647000D01*
X40416809Y-133647000D01*
X40271761Y-133456109D01*
X40091436Y-133013638D01*
X40030804Y-132527986D01*
X40053789Y-129330160D01*
X40206425Y-129266936D01*
X40343120Y-129130241D01*
X40503847Y-129022847D01*
X40611242Y-128862119D01*
X40747936Y-128725425D01*
X40821915Y-128546824D01*
X40929309Y-128386097D01*
X40967021Y-128196508D01*
X41041000Y-128017906D01*
X41041000Y-127824590D01*
X41078712Y-127635000D01*
X41041000Y-127445410D01*
X41041000Y-95516009D01*
X41056309Y-95493097D01*
X41168000Y-94931590D01*
X41168000Y-94931586D01*
X41205711Y-94742001D01*
X41168000Y-94552415D01*
X41168000Y-92882000D01*
X44483247Y-92882000D01*
X44624888Y-93594079D01*
X45028249Y-94197751D01*
X45631921Y-94601112D01*
X45787206Y-94632000D01*
X45631921Y-94662888D01*
X45028249Y-95066249D01*
X44624888Y-95669921D01*
X44483247Y-96382000D01*
X44624888Y-97094079D01*
X45028249Y-97697751D01*
X45631921Y-98101112D01*
X46164257Y-98207000D01*
X48323743Y-98207000D01*
X48856079Y-98101112D01*
X49459751Y-97697751D01*
X49863112Y-97094079D01*
X50004753Y-96382000D01*
X49863112Y-95669921D01*
X49459751Y-95066249D01*
X48856079Y-94662888D01*
X48700794Y-94632000D01*
X48856079Y-94601112D01*
X49459751Y-94197751D01*
X49863112Y-93594079D01*
X50004753Y-92882000D01*
X49863112Y-92169921D01*
X49459751Y-91566249D01*
X48856079Y-91162888D01*
X48323743Y-91057000D01*
X46164257Y-91057000D01*
X45631921Y-91162888D01*
X45028249Y-91566249D01*
X44624888Y-92169921D01*
X44483247Y-92882000D01*
X41168000Y-92882000D01*
X41168000Y-89694351D01*
X44851330Y-89694351D01*
X44906382Y-89896301D01*
X45212629Y-90407305D01*
X45691117Y-90762215D01*
X46269000Y-90907000D01*
X47169000Y-90907000D01*
X47169000Y-89457000D01*
X47319000Y-89457000D01*
X47319000Y-90907000D01*
X48219000Y-90907000D01*
X48796883Y-90762215D01*
X49275371Y-90407305D01*
X49581618Y-89896301D01*
X49636670Y-89694351D01*
X49510694Y-89457000D01*
X47319000Y-89457000D01*
X47169000Y-89457000D01*
X44977306Y-89457000D01*
X44851330Y-89694351D01*
X41168000Y-89694351D01*
X41168000Y-89069649D01*
X44851330Y-89069649D01*
X44977306Y-89307000D01*
X47169000Y-89307000D01*
X47169000Y-87857000D01*
X47319000Y-87857000D01*
X47319000Y-89307000D01*
X49510694Y-89307000D01*
X49636670Y-89069649D01*
X49581618Y-88867699D01*
X49275371Y-88356695D01*
X48796883Y-88001785D01*
X48219000Y-87857000D01*
X47319000Y-87857000D01*
X47169000Y-87857000D01*
X46269000Y-87857000D01*
X45691117Y-88001785D01*
X45212629Y-88356695D01*
X44906382Y-88867699D01*
X44851330Y-89069649D01*
X41168000Y-89069649D01*
X41168000Y-75382000D01*
X44483247Y-75382000D01*
X44624888Y-76094079D01*
X45028249Y-76697751D01*
X45631921Y-77101112D01*
X45787206Y-77132000D01*
X45631921Y-77162888D01*
X45028249Y-77566249D01*
X44624888Y-78169921D01*
X44483247Y-78882000D01*
X44624888Y-79594079D01*
X45028249Y-80197751D01*
X45631921Y-80601112D01*
X45787206Y-80632000D01*
X45631921Y-80662888D01*
X45028249Y-81066249D01*
X44624888Y-81669921D01*
X44483247Y-82382000D01*
X44624888Y-83094079D01*
X45028249Y-83697751D01*
X45631921Y-84101112D01*
X45787206Y-84132000D01*
X45631921Y-84162888D01*
X45028249Y-84566249D01*
X44624888Y-85169921D01*
X44483247Y-85882000D01*
X44624888Y-86594079D01*
X45028249Y-87197751D01*
X45631921Y-87601112D01*
X46164257Y-87707000D01*
X48323743Y-87707000D01*
X48856079Y-87601112D01*
X49459751Y-87197751D01*
X49863112Y-86594079D01*
X50004753Y-85882000D01*
X49863112Y-85169921D01*
X49459751Y-84566249D01*
X48856079Y-84162888D01*
X48700794Y-84132000D01*
X48856079Y-84101112D01*
X49459751Y-83697751D01*
X49863112Y-83094079D01*
X50004753Y-82382000D01*
X49863112Y-81669921D01*
X49459751Y-81066249D01*
X48856079Y-80662888D01*
X48700794Y-80632000D01*
X48856079Y-80601112D01*
X49459751Y-80197751D01*
X49863112Y-79594079D01*
X50004753Y-78882000D01*
X49863112Y-78169921D01*
X49459751Y-77566249D01*
X48856079Y-77162888D01*
X48700794Y-77132000D01*
X48856079Y-77101112D01*
X49459751Y-76697751D01*
X49863112Y-76094079D01*
X50004753Y-75382000D01*
X49863112Y-74669921D01*
X49459751Y-74066249D01*
X48913610Y-73701329D01*
X49250588Y-73634300D01*
X49637664Y-73375664D01*
X49896300Y-72988588D01*
X49987121Y-72532000D01*
X49987121Y-71232000D01*
X49896300Y-70775412D01*
X49637664Y-70388336D01*
X49250588Y-70129700D01*
X48794000Y-70038879D01*
X45694000Y-70038879D01*
X45237412Y-70129700D01*
X44850336Y-70388336D01*
X44591700Y-70775412D01*
X44500879Y-71232000D01*
X44500879Y-72532000D01*
X44591700Y-72988588D01*
X44850336Y-73375664D01*
X45237412Y-73634300D01*
X45574390Y-73701329D01*
X45028249Y-74066249D01*
X44624888Y-74669921D01*
X44483247Y-75382000D01*
X41168000Y-75382000D01*
X41168000Y-62178078D01*
X41310309Y-61965097D01*
X41422000Y-61403590D01*
X41422000Y-61403586D01*
X41459711Y-61214001D01*
X41422000Y-61024415D01*
X41422000Y-35242900D01*
X43343000Y-35242900D01*
X43343000Y-37401100D01*
X44168907Y-39395016D01*
X45694984Y-40921093D01*
X47688900Y-41747000D01*
X49847100Y-41747000D01*
X51841016Y-40921093D01*
X53367093Y-39395016D01*
X54193000Y-37401100D01*
X54193000Y-35242900D01*
X53367093Y-33248984D01*
X51841016Y-31722907D01*
X49847100Y-30897000D01*
X47688900Y-30897000D01*
X45694984Y-31722907D01*
X44168907Y-33248984D01*
X43343000Y-35242900D01*
X41422000Y-35242900D01*
X41422000Y-33844590D01*
X41459712Y-33655000D01*
X41310309Y-32903902D01*
X41118820Y-32617319D01*
X40884847Y-32267153D01*
X40724117Y-32159757D01*
X40230243Y-31665883D01*
X40122847Y-31505153D01*
X39486097Y-31079691D01*
X38924590Y-30968000D01*
X38924589Y-30968000D01*
X38735000Y-30930288D01*
X38545411Y-30968000D01*
X34655375Y-30968000D01*
X34600751Y-30886249D01*
X34279373Y-30671511D01*
X34270705Y-30654559D01*
X34197303Y-30227000D01*
X34309320Y-30227000D01*
X34539034Y-30131849D01*
X34714850Y-29956034D01*
X34810000Y-29726320D01*
X34810000Y-28933250D01*
X34653750Y-28777000D01*
X34150712Y-28777000D01*
X34147909Y-28627000D01*
X34653750Y-28627000D01*
X34810000Y-28470750D01*
X34810000Y-27677680D01*
X34714850Y-27447966D01*
X34539034Y-27272151D01*
X34309320Y-27177000D01*
X34131205Y-27177000D01*
X34178276Y-26765043D01*
X34286424Y-26493237D01*
X63612869Y-26469140D01*
X63720523Y-26724049D01*
G04 #@! TO.N,GNDPWR*
G36*
X101197056Y-27137914D02*
X101386445Y-164823697D01*
X100434142Y-165776000D01*
X24533858Y-165776000D01*
X23580259Y-164822401D01*
X23537090Y-141295000D01*
X29497247Y-141295000D01*
X29638888Y-142007079D01*
X30042249Y-142610751D01*
X30645921Y-143014112D01*
X30801206Y-143045000D01*
X30645921Y-143075888D01*
X30042249Y-143479249D01*
X29638888Y-144082921D01*
X29497247Y-144795000D01*
X29638888Y-145507079D01*
X30042249Y-146110751D01*
X30645921Y-146514112D01*
X30801206Y-146545000D01*
X30645921Y-146575888D01*
X30042249Y-146979249D01*
X29638888Y-147582921D01*
X29497247Y-148295000D01*
X29638888Y-149007079D01*
X30042249Y-149610751D01*
X30645921Y-150014112D01*
X30801206Y-150045000D01*
X30645921Y-150075888D01*
X30042249Y-150479249D01*
X29638888Y-151082921D01*
X29497247Y-151795000D01*
X29638888Y-152507079D01*
X30042249Y-153110751D01*
X30645921Y-153514112D01*
X30801206Y-153545000D01*
X30645921Y-153575888D01*
X30042249Y-153979249D01*
X29638888Y-154582921D01*
X29497247Y-155295000D01*
X29638888Y-156007079D01*
X30042249Y-156610751D01*
X30645921Y-157014112D01*
X30801206Y-157045000D01*
X30645921Y-157075888D01*
X30042249Y-157479249D01*
X29638888Y-158082921D01*
X29497247Y-158795000D01*
X29638888Y-159507079D01*
X30042249Y-160110751D01*
X30645921Y-160514112D01*
X30801206Y-160545000D01*
X30645921Y-160575888D01*
X30042249Y-160979249D01*
X29638888Y-161582921D01*
X29497247Y-162295000D01*
X29638888Y-163007079D01*
X30042249Y-163610751D01*
X30645921Y-164014112D01*
X31178257Y-164120000D01*
X33337743Y-164120000D01*
X33870079Y-164014112D01*
X34473751Y-163610751D01*
X34877112Y-163007079D01*
X35018753Y-162295000D01*
X34877112Y-161582921D01*
X34473751Y-160979249D01*
X33870079Y-160575888D01*
X33714794Y-160545000D01*
X33870079Y-160514112D01*
X34473751Y-160110751D01*
X34877112Y-159507079D01*
X35018753Y-158795000D01*
X34877112Y-158082921D01*
X34473751Y-157479249D01*
X33870079Y-157075888D01*
X33714794Y-157045000D01*
X33870079Y-157014112D01*
X34473751Y-156610751D01*
X34877112Y-156007079D01*
X35018753Y-155295000D01*
X34877112Y-154582921D01*
X34473751Y-153979249D01*
X33870079Y-153575888D01*
X33714794Y-153545000D01*
X33870079Y-153514112D01*
X34473751Y-153110751D01*
X34877112Y-152507079D01*
X35018753Y-151795000D01*
X34877112Y-151082921D01*
X34473751Y-150479249D01*
X33870079Y-150075888D01*
X33714794Y-150045000D01*
X33870079Y-150014112D01*
X34473751Y-149610751D01*
X34877112Y-149007079D01*
X35018753Y-148295000D01*
X34877112Y-147582921D01*
X34473751Y-146979249D01*
X33870079Y-146575888D01*
X33714794Y-146545000D01*
X33870079Y-146514112D01*
X34473751Y-146110751D01*
X34877112Y-145507079D01*
X35018753Y-144795000D01*
X34877112Y-144082921D01*
X34473751Y-143479249D01*
X33870079Y-143075888D01*
X33714794Y-143045000D01*
X33870079Y-143014112D01*
X34473751Y-142610751D01*
X34877112Y-142007079D01*
X35018753Y-141295000D01*
X34877112Y-140582921D01*
X34839012Y-140525900D01*
X43279500Y-140525900D01*
X43279500Y-142684100D01*
X44105407Y-144678016D01*
X45631484Y-146204093D01*
X47625400Y-147030000D01*
X49783600Y-147030000D01*
X51777516Y-146204093D01*
X53303593Y-144678016D01*
X54129500Y-142684100D01*
X54129500Y-140525900D01*
X54103198Y-140462400D01*
X76871000Y-140462400D01*
X76871000Y-142620600D01*
X77696907Y-144614516D01*
X79222984Y-146140593D01*
X81216900Y-146966500D01*
X83375100Y-146966500D01*
X85369016Y-146140593D01*
X86895093Y-144614516D01*
X87721000Y-142620600D01*
X87721000Y-140462400D01*
X86895093Y-138468484D01*
X85369016Y-136942407D01*
X83375100Y-136116500D01*
X81216900Y-136116500D01*
X79222984Y-136942407D01*
X77696907Y-138468484D01*
X76871000Y-140462400D01*
X54103198Y-140462400D01*
X53303593Y-138531984D01*
X51777516Y-137005907D01*
X49783600Y-136180000D01*
X47625400Y-136180000D01*
X45631484Y-137005907D01*
X44105407Y-138531984D01*
X43279500Y-140525900D01*
X34839012Y-140525900D01*
X34473751Y-139979249D01*
X33927610Y-139614329D01*
X34264588Y-139547300D01*
X34651664Y-139288664D01*
X34910300Y-138901588D01*
X35001121Y-138445000D01*
X35001121Y-137145000D01*
X34910300Y-136688412D01*
X34651664Y-136301336D01*
X34264588Y-136042700D01*
X33808000Y-135951879D01*
X30708000Y-135951879D01*
X30251412Y-136042700D01*
X29864336Y-136301336D01*
X29605700Y-136688412D01*
X29514879Y-137145000D01*
X29514879Y-138445000D01*
X29605700Y-138901588D01*
X29864336Y-139288664D01*
X30251412Y-139547300D01*
X30588390Y-139614329D01*
X30042249Y-139979249D01*
X29638888Y-140582921D01*
X29497247Y-141295000D01*
X23537090Y-141295000D01*
X23388013Y-60047351D01*
X29992330Y-60047351D01*
X30047382Y-60249301D01*
X30353629Y-60760305D01*
X30832117Y-61115215D01*
X31410000Y-61260000D01*
X32310000Y-61260000D01*
X32310000Y-59810000D01*
X32460000Y-59810000D01*
X32460000Y-61260000D01*
X33360000Y-61260000D01*
X33937883Y-61115215D01*
X34416371Y-60760305D01*
X34722618Y-60249301D01*
X34777670Y-60047351D01*
X34651694Y-59810000D01*
X32460000Y-59810000D01*
X32310000Y-59810000D01*
X30118306Y-59810000D01*
X29992330Y-60047351D01*
X23388013Y-60047351D01*
X23386867Y-59422649D01*
X29992330Y-59422649D01*
X30118306Y-59660000D01*
X32310000Y-59660000D01*
X32310000Y-58210000D01*
X32460000Y-58210000D01*
X32460000Y-59660000D01*
X34651694Y-59660000D01*
X34777670Y-59422649D01*
X34722618Y-59220699D01*
X34416371Y-58709695D01*
X33937883Y-58354785D01*
X33360000Y-58210000D01*
X32460000Y-58210000D01*
X32310000Y-58210000D01*
X31410000Y-58210000D01*
X30832117Y-58354785D01*
X30353629Y-58709695D01*
X30047382Y-59220699D01*
X29992330Y-59422649D01*
X23386867Y-59422649D01*
X23355329Y-42235000D01*
X29624247Y-42235000D01*
X29765888Y-42947079D01*
X30169249Y-43550751D01*
X30772921Y-43954112D01*
X30928206Y-43985000D01*
X30772921Y-44015888D01*
X30169249Y-44419249D01*
X29765888Y-45022921D01*
X29624247Y-45735000D01*
X29765888Y-46447079D01*
X30169249Y-47050751D01*
X30772921Y-47454112D01*
X30928206Y-47485000D01*
X30772921Y-47515888D01*
X30169249Y-47919249D01*
X29765888Y-48522921D01*
X29624247Y-49235000D01*
X29765888Y-49947079D01*
X30169249Y-50550751D01*
X30772921Y-50954112D01*
X30928206Y-50985000D01*
X30772921Y-51015888D01*
X30169249Y-51419249D01*
X29765888Y-52022921D01*
X29624247Y-52735000D01*
X29765888Y-53447079D01*
X30169249Y-54050751D01*
X30772921Y-54454112D01*
X30928206Y-54485000D01*
X30772921Y-54515888D01*
X30169249Y-54919249D01*
X29765888Y-55522921D01*
X29624247Y-56235000D01*
X29765888Y-56947079D01*
X30169249Y-57550751D01*
X30772921Y-57954112D01*
X31305257Y-58060000D01*
X33464743Y-58060000D01*
X33997079Y-57954112D01*
X34600751Y-57550751D01*
X35004112Y-56947079D01*
X35145753Y-56235000D01*
X35004112Y-55522921D01*
X34600751Y-54919249D01*
X33997079Y-54515888D01*
X33841794Y-54485000D01*
X33997079Y-54454112D01*
X34600751Y-54050751D01*
X35004112Y-53447079D01*
X35145753Y-52735000D01*
X35004112Y-52022921D01*
X34600751Y-51419249D01*
X33997079Y-51015888D01*
X33841794Y-50985000D01*
X33997079Y-50954112D01*
X34600751Y-50550751D01*
X35004112Y-49947079D01*
X35145753Y-49235000D01*
X35004112Y-48522921D01*
X34600751Y-47919249D01*
X33997079Y-47515888D01*
X33841794Y-47485000D01*
X33997079Y-47454112D01*
X34600751Y-47050751D01*
X35004112Y-46447079D01*
X35145753Y-45735000D01*
X35004112Y-45022921D01*
X34600751Y-44419249D01*
X33997079Y-44015888D01*
X33841794Y-43985000D01*
X33997079Y-43954112D01*
X34600751Y-43550751D01*
X35004112Y-42947079D01*
X35145753Y-42235000D01*
X35004112Y-41522921D01*
X34600751Y-40919249D01*
X34054610Y-40554329D01*
X34391588Y-40487300D01*
X34778664Y-40228664D01*
X35037300Y-39841588D01*
X35128121Y-39385000D01*
X35128121Y-38085000D01*
X35037300Y-37628412D01*
X34778664Y-37241336D01*
X34391588Y-36982700D01*
X33935000Y-36891879D01*
X30835000Y-36891879D01*
X30378412Y-36982700D01*
X29991336Y-37241336D01*
X29732700Y-37628412D01*
X29641879Y-38085000D01*
X29641879Y-39385000D01*
X29732700Y-39841588D01*
X29991336Y-40228664D01*
X30378412Y-40487300D01*
X30715390Y-40554329D01*
X30169249Y-40919249D01*
X29765888Y-41522921D01*
X29624247Y-42235000D01*
X23355329Y-42235000D01*
X23337493Y-32514351D01*
X29992330Y-32514351D01*
X30047382Y-32716301D01*
X30353629Y-33227305D01*
X30832117Y-33582215D01*
X31410000Y-33727000D01*
X32310000Y-33727000D01*
X32310000Y-32277000D01*
X30118306Y-32277000D01*
X29992330Y-32514351D01*
X23337493Y-32514351D01*
X23336347Y-31889649D01*
X29992330Y-31889649D01*
X30118306Y-32127000D01*
X32310000Y-32127000D01*
X32310000Y-30677000D01*
X31410000Y-30677000D01*
X30832117Y-30821785D01*
X30353629Y-31176695D01*
X30047382Y-31687699D01*
X29992330Y-31889649D01*
X23336347Y-31889649D01*
X23327741Y-27200117D01*
X24026191Y-26501668D01*
X33118898Y-26494196D01*
X33088034Y-26617002D01*
X33069752Y-26777000D01*
X32195410Y-26777000D01*
X31783778Y-26858879D01*
X30835000Y-26858879D01*
X30378412Y-26949700D01*
X29991336Y-27208336D01*
X29732700Y-27595412D01*
X29641879Y-28052000D01*
X29641879Y-29352000D01*
X29732700Y-29808588D01*
X29991336Y-30195664D01*
X30378412Y-30454300D01*
X30835000Y-30545121D01*
X31783778Y-30545121D01*
X32195410Y-30627000D01*
X33149881Y-30627000D01*
X33158465Y-30677000D01*
X32460000Y-30677000D01*
X32460000Y-32127000D01*
X32480000Y-32127000D01*
X32480000Y-32277000D01*
X32460000Y-32277000D01*
X32460000Y-33727000D01*
X33360000Y-33727000D01*
X33937883Y-33582215D01*
X34416371Y-33227305D01*
X34722618Y-32716301D01*
X34729646Y-32690519D01*
X34892997Y-32778237D01*
X35155786Y-32871632D01*
X35747926Y-32985601D01*
X35886857Y-33001575D01*
X38533066Y-33104340D01*
X38924093Y-33180651D01*
X39210292Y-33337213D01*
X39435601Y-33573132D01*
X39578837Y-33866230D01*
X39637084Y-34260350D01*
X38930750Y-132531598D01*
X38937852Y-132652840D01*
X39002775Y-133172861D01*
X39064053Y-133407364D01*
X39161714Y-133647000D01*
X30046634Y-133647000D01*
X29810426Y-133410793D01*
X29810424Y-133410789D01*
X28141011Y-131741377D01*
X28141011Y-131180000D01*
X29624247Y-131180000D01*
X29765888Y-131892079D01*
X30169249Y-132495751D01*
X30772921Y-132899112D01*
X31305257Y-133005000D01*
X33464743Y-133005000D01*
X33997079Y-132899112D01*
X34600751Y-132495751D01*
X35004112Y-131892079D01*
X35145753Y-131180000D01*
X35004112Y-130467921D01*
X34600751Y-129864249D01*
X33997079Y-129460888D01*
X33464743Y-129355000D01*
X31305257Y-129355000D01*
X30772921Y-129460888D01*
X30169249Y-129864249D01*
X29765888Y-130467921D01*
X29624247Y-131180000D01*
X28141011Y-131180000D01*
X28141011Y-127992351D01*
X29992330Y-127992351D01*
X30047382Y-128194301D01*
X30353629Y-128705305D01*
X30832117Y-129060215D01*
X31410000Y-129205000D01*
X32310000Y-129205000D01*
X32310000Y-127755000D01*
X32460000Y-127755000D01*
X32460000Y-129205000D01*
X33360000Y-129205000D01*
X33937883Y-129060215D01*
X34416371Y-128705305D01*
X34722618Y-128194301D01*
X34777670Y-127992351D01*
X34651694Y-127755000D01*
X32460000Y-127755000D01*
X32310000Y-127755000D01*
X30118306Y-127755000D01*
X29992330Y-127992351D01*
X28141011Y-127992351D01*
X28141011Y-127367649D01*
X29992330Y-127367649D01*
X30118306Y-127605000D01*
X32310000Y-127605000D01*
X32310000Y-126155000D01*
X32460000Y-126155000D01*
X32460000Y-127605000D01*
X34651694Y-127605000D01*
X34777670Y-127367649D01*
X34722618Y-127165699D01*
X34416371Y-126654695D01*
X33937883Y-126299785D01*
X33360000Y-126155000D01*
X32460000Y-126155000D01*
X32310000Y-126155000D01*
X31410000Y-126155000D01*
X30832117Y-126299785D01*
X30353629Y-126654695D01*
X30047382Y-127165699D01*
X29992330Y-127367649D01*
X28141011Y-127367649D01*
X28141011Y-110180000D01*
X29624247Y-110180000D01*
X29765888Y-110892079D01*
X30169249Y-111495751D01*
X30772921Y-111899112D01*
X30928206Y-111930000D01*
X30772921Y-111960888D01*
X30169249Y-112364249D01*
X29765888Y-112967921D01*
X29624247Y-113680000D01*
X29765888Y-114392079D01*
X30169249Y-114995751D01*
X30772921Y-115399112D01*
X30928206Y-115430000D01*
X30772921Y-115460888D01*
X30169249Y-115864249D01*
X29765888Y-116467921D01*
X29624247Y-117180000D01*
X29765888Y-117892079D01*
X30169249Y-118495751D01*
X30772921Y-118899112D01*
X30928206Y-118930000D01*
X30772921Y-118960888D01*
X30169249Y-119364249D01*
X29765888Y-119967921D01*
X29624247Y-120680000D01*
X29765888Y-121392079D01*
X30169249Y-121995751D01*
X30772921Y-122399112D01*
X30928206Y-122430000D01*
X30772921Y-122460888D01*
X30169249Y-122864249D01*
X29765888Y-123467921D01*
X29624247Y-124180000D01*
X29765888Y-124892079D01*
X30169249Y-125495751D01*
X30772921Y-125899112D01*
X31305257Y-126005000D01*
X33464743Y-126005000D01*
X33997079Y-125899112D01*
X34600751Y-125495751D01*
X35004112Y-124892079D01*
X35145753Y-124180000D01*
X35004112Y-123467921D01*
X34600751Y-122864249D01*
X33997079Y-122460888D01*
X33841794Y-122430000D01*
X33997079Y-122399112D01*
X34600751Y-121995751D01*
X35004112Y-121392079D01*
X35145753Y-120680000D01*
X35004112Y-119967921D01*
X34600751Y-119364249D01*
X33997079Y-118960888D01*
X33841794Y-118930000D01*
X33997079Y-118899112D01*
X34600751Y-118495751D01*
X35004112Y-117892079D01*
X35145753Y-117180000D01*
X35004112Y-116467921D01*
X34600751Y-115864249D01*
X33997079Y-115460888D01*
X33841794Y-115430000D01*
X33997079Y-115399112D01*
X34600751Y-114995751D01*
X35004112Y-114392079D01*
X35145753Y-113680000D01*
X35004112Y-112967921D01*
X34600751Y-112364249D01*
X33997079Y-111960888D01*
X33841794Y-111930000D01*
X33997079Y-111899112D01*
X34600751Y-111495751D01*
X35004112Y-110892079D01*
X35145753Y-110180000D01*
X35004112Y-109467921D01*
X34600751Y-108864249D01*
X34054610Y-108499329D01*
X34391588Y-108432300D01*
X34778664Y-108173664D01*
X35037300Y-107786588D01*
X35128121Y-107330000D01*
X35128121Y-106030000D01*
X35037300Y-105573412D01*
X34778664Y-105186336D01*
X34391588Y-104927700D01*
X33935000Y-104836879D01*
X30835000Y-104836879D01*
X30378412Y-104927700D01*
X29991336Y-105186336D01*
X29732700Y-105573412D01*
X29641879Y-106030000D01*
X29641879Y-107330000D01*
X29732700Y-107786588D01*
X29991336Y-108173664D01*
X30378412Y-108432300D01*
X30715390Y-108499329D01*
X30169249Y-108864249D01*
X29765888Y-109467921D01*
X29624247Y-110180000D01*
X28141011Y-110180000D01*
X28141011Y-96433278D01*
X29624247Y-96433278D01*
X29765888Y-97145357D01*
X30169249Y-97749029D01*
X30772921Y-98152390D01*
X31305257Y-98258278D01*
X33464743Y-98258278D01*
X33997079Y-98152390D01*
X34600751Y-97749029D01*
X35004112Y-97145357D01*
X35145753Y-96433278D01*
X35004112Y-95721199D01*
X34600751Y-95117527D01*
X33997079Y-94714166D01*
X33464743Y-94608278D01*
X31305257Y-94608278D01*
X30772921Y-94714166D01*
X30169249Y-95117527D01*
X29765888Y-95721199D01*
X29624247Y-96433278D01*
X28141011Y-96433278D01*
X28141011Y-93245629D01*
X29992330Y-93245629D01*
X30047382Y-93447579D01*
X30353629Y-93958583D01*
X30832117Y-94313493D01*
X31410000Y-94458278D01*
X32310000Y-94458278D01*
X32310000Y-93008278D01*
X32460000Y-93008278D01*
X32460000Y-94458278D01*
X33360000Y-94458278D01*
X33937883Y-94313493D01*
X34416371Y-93958583D01*
X34722618Y-93447579D01*
X34777670Y-93245629D01*
X34651694Y-93008278D01*
X32460000Y-93008278D01*
X32310000Y-93008278D01*
X30118306Y-93008278D01*
X29992330Y-93245629D01*
X28141011Y-93245629D01*
X28141011Y-92620927D01*
X29992330Y-92620927D01*
X30118306Y-92858278D01*
X32310000Y-92858278D01*
X32310000Y-91408278D01*
X32460000Y-91408278D01*
X32460000Y-92858278D01*
X34651694Y-92858278D01*
X34777670Y-92620927D01*
X34722618Y-92418977D01*
X34416371Y-91907973D01*
X33937883Y-91553063D01*
X33360000Y-91408278D01*
X32460000Y-91408278D01*
X32310000Y-91408278D01*
X31410000Y-91408278D01*
X30832117Y-91553063D01*
X30353629Y-91907973D01*
X30047382Y-92418977D01*
X29992330Y-92620927D01*
X28141011Y-92620927D01*
X28141011Y-75433278D01*
X29624247Y-75433278D01*
X29765888Y-76145357D01*
X30169249Y-76749029D01*
X30772921Y-77152390D01*
X30928206Y-77183278D01*
X30772921Y-77214166D01*
X30169249Y-77617527D01*
X29765888Y-78221199D01*
X29624247Y-78933278D01*
X29765888Y-79645357D01*
X30169249Y-80249029D01*
X30772921Y-80652390D01*
X30928206Y-80683278D01*
X30772921Y-80714166D01*
X30169249Y-81117527D01*
X29765888Y-81721199D01*
X29624247Y-82433278D01*
X29765888Y-83145357D01*
X30169249Y-83749029D01*
X30772921Y-84152390D01*
X30928206Y-84183278D01*
X30772921Y-84214166D01*
X30169249Y-84617527D01*
X29765888Y-85221199D01*
X29624247Y-85933278D01*
X29765888Y-86645357D01*
X30169249Y-87249029D01*
X30772921Y-87652390D01*
X30928206Y-87683278D01*
X30772921Y-87714166D01*
X30169249Y-88117527D01*
X29765888Y-88721199D01*
X29624247Y-89433278D01*
X29765888Y-90145357D01*
X30169249Y-90749029D01*
X30772921Y-91152390D01*
X31305257Y-91258278D01*
X33464743Y-91258278D01*
X33997079Y-91152390D01*
X34600751Y-90749029D01*
X35004112Y-90145357D01*
X35145753Y-89433278D01*
X35004112Y-88721199D01*
X34600751Y-88117527D01*
X33997079Y-87714166D01*
X33841794Y-87683278D01*
X33997079Y-87652390D01*
X34600751Y-87249029D01*
X35004112Y-86645357D01*
X35145753Y-85933278D01*
X35004112Y-85221199D01*
X34600751Y-84617527D01*
X33997079Y-84214166D01*
X33841794Y-84183278D01*
X33997079Y-84152390D01*
X34600751Y-83749029D01*
X35004112Y-83145357D01*
X35145753Y-82433278D01*
X35004112Y-81721199D01*
X34600751Y-81117527D01*
X33997079Y-80714166D01*
X33841794Y-80683278D01*
X33997079Y-80652390D01*
X34600751Y-80249029D01*
X35004112Y-79645357D01*
X35145753Y-78933278D01*
X35004112Y-78221199D01*
X34600751Y-77617527D01*
X33997079Y-77214166D01*
X33841794Y-77183278D01*
X33997079Y-77152390D01*
X34600751Y-76749029D01*
X35004112Y-76145357D01*
X35145753Y-75433278D01*
X35004112Y-74721199D01*
X34600751Y-74117527D01*
X34054610Y-73752607D01*
X34391588Y-73685578D01*
X34778664Y-73426942D01*
X35037300Y-73039866D01*
X35128121Y-72583278D01*
X35128121Y-71283278D01*
X35037300Y-70826690D01*
X34778664Y-70439614D01*
X34391588Y-70180978D01*
X33935000Y-70090157D01*
X30835000Y-70090157D01*
X30378412Y-70180978D01*
X29991336Y-70439614D01*
X29732700Y-70826690D01*
X29641879Y-71283278D01*
X29641879Y-72583278D01*
X29732700Y-73039866D01*
X29991336Y-73426942D01*
X30378412Y-73685578D01*
X30715390Y-73752607D01*
X30169249Y-74117527D01*
X29765888Y-74721199D01*
X29624247Y-75433278D01*
X28141011Y-75433278D01*
X28141011Y-65088528D01*
X28649425Y-64877936D01*
X29190936Y-64336425D01*
X29484000Y-63628906D01*
X29484000Y-63235000D01*
X29624247Y-63235000D01*
X29765888Y-63947079D01*
X30169249Y-64550751D01*
X30772921Y-64954112D01*
X31305257Y-65060000D01*
X33464743Y-65060000D01*
X33997079Y-64954112D01*
X34600751Y-64550751D01*
X35004112Y-63947079D01*
X35145753Y-63235000D01*
X35004112Y-62522921D01*
X34600751Y-61919249D01*
X33997079Y-61515888D01*
X33464743Y-61410000D01*
X31305257Y-61410000D01*
X30772921Y-61515888D01*
X30169249Y-61919249D01*
X29765888Y-62522921D01*
X29624247Y-63235000D01*
X29484000Y-63235000D01*
X29484000Y-62863094D01*
X29190936Y-62155575D01*
X28649425Y-61614064D01*
X27941906Y-61321000D01*
X27176094Y-61321000D01*
X26468575Y-61614064D01*
X25927064Y-62155575D01*
X25634000Y-62863094D01*
X25634000Y-63628906D01*
X25927064Y-64336425D01*
X25941012Y-64350373D01*
X25941011Y-132088672D01*
X25919461Y-132197011D01*
X25941011Y-132305349D01*
X26004834Y-132626209D01*
X26247955Y-132990067D01*
X26339805Y-133051439D01*
X28254789Y-134966424D01*
X28254793Y-134966426D01*
X28736570Y-135448203D01*
X28797944Y-135540056D01*
X29161801Y-135783177D01*
X29482661Y-135847000D01*
X29591000Y-135868550D01*
X29699339Y-135847000D01*
X44786161Y-135847000D01*
X44894500Y-135868550D01*
X45002839Y-135847000D01*
X45323699Y-135783177D01*
X45687556Y-135540056D01*
X45748928Y-135448206D01*
X54295209Y-126901926D01*
X54387056Y-126840556D01*
X54630177Y-126476699D01*
X54694000Y-126155839D01*
X54715550Y-126047500D01*
X54694000Y-125939161D01*
X54694000Y-97126361D01*
X55225936Y-96594425D01*
X55519000Y-95886906D01*
X55519000Y-95288509D01*
X55634976Y-95174201D01*
X55807478Y-94939948D01*
X56096167Y-94381108D01*
X56187381Y-94104865D01*
X56288224Y-93483998D01*
X56300185Y-93338577D01*
X56389044Y-64770000D01*
X78287960Y-64770000D01*
X78426776Y-65467877D01*
X78809057Y-66040000D01*
X78426776Y-66612123D01*
X78287960Y-67310000D01*
X78426776Y-68007877D01*
X78809057Y-68580000D01*
X78426776Y-69152123D01*
X78287960Y-69850000D01*
X78426776Y-70547877D01*
X78809057Y-71120000D01*
X78426776Y-71692123D01*
X78287960Y-72390000D01*
X78426776Y-73087877D01*
X78809057Y-73660000D01*
X78426776Y-74232123D01*
X78287960Y-74930000D01*
X78426776Y-75627877D01*
X78809057Y-76200000D01*
X78426776Y-76772123D01*
X78287960Y-77470000D01*
X78426776Y-78167877D01*
X78809057Y-78740000D01*
X78426776Y-79312123D01*
X78287960Y-80010000D01*
X78426776Y-80707877D01*
X78809057Y-81280000D01*
X78426776Y-81852123D01*
X78287960Y-82550000D01*
X78426776Y-83247877D01*
X78809057Y-83820000D01*
X78426776Y-84392123D01*
X78287960Y-85090000D01*
X78426776Y-85787877D01*
X78809057Y-86360000D01*
X78426776Y-86932123D01*
X78287960Y-87630000D01*
X78426776Y-88327877D01*
X78809057Y-88900000D01*
X78426776Y-89472123D01*
X78287960Y-90170000D01*
X78426776Y-90867877D01*
X78809057Y-91440000D01*
X78426776Y-92012123D01*
X78287960Y-92710000D01*
X78426776Y-93407877D01*
X78809057Y-93980000D01*
X78426776Y-94552123D01*
X78287960Y-95250000D01*
X78426776Y-95947877D01*
X78809057Y-96520000D01*
X78426776Y-97092123D01*
X78287960Y-97790000D01*
X78426776Y-98487877D01*
X78809057Y-99060000D01*
X78426776Y-99632123D01*
X78287960Y-100330000D01*
X78426776Y-101027877D01*
X78822092Y-101619508D01*
X79413723Y-102014824D01*
X79935442Y-102118600D01*
X80592558Y-102118600D01*
X81114277Y-102014824D01*
X81705908Y-101619508D01*
X82101224Y-101027877D01*
X82240040Y-100330000D01*
X82101224Y-99632123D01*
X81718943Y-99060000D01*
X82101224Y-98487877D01*
X82240040Y-97790000D01*
X82101224Y-97092123D01*
X81718943Y-96520000D01*
X82101224Y-95947877D01*
X82240040Y-95250000D01*
X82101224Y-94552123D01*
X81718943Y-93980000D01*
X82101224Y-93407877D01*
X82240040Y-92710000D01*
X82101224Y-92012123D01*
X81718943Y-91440000D01*
X82101224Y-90867877D01*
X82240040Y-90170000D01*
X82224291Y-90090822D01*
X88495000Y-90090822D01*
X88495000Y-90757178D01*
X88750004Y-91372811D01*
X89221189Y-91843996D01*
X89836822Y-92099000D01*
X90503178Y-92099000D01*
X91118811Y-91843996D01*
X91589996Y-91372811D01*
X91845000Y-90757178D01*
X91845000Y-90090822D01*
X91651000Y-89622465D01*
X91651000Y-83082000D01*
X92281178Y-83082000D01*
X92896811Y-82826996D01*
X93367996Y-82355811D01*
X93623000Y-81740178D01*
X93623000Y-81073822D01*
X93367996Y-80458189D01*
X93055526Y-80145719D01*
X93083855Y-75386082D01*
X93084500Y-75382839D01*
X93084500Y-75277718D01*
X93085125Y-75172710D01*
X93084500Y-75169467D01*
X93084500Y-64770000D01*
X93527960Y-64770000D01*
X93666776Y-65467877D01*
X94049057Y-66040000D01*
X93666776Y-66612123D01*
X93527960Y-67310000D01*
X93666776Y-68007877D01*
X94049057Y-68580000D01*
X93666776Y-69152123D01*
X93527960Y-69850000D01*
X93666776Y-70547877D01*
X94049057Y-71120000D01*
X93666776Y-71692123D01*
X93527960Y-72390000D01*
X93666776Y-73087877D01*
X94049057Y-73660000D01*
X93666776Y-74232123D01*
X93527960Y-74930000D01*
X93666776Y-75627877D01*
X94049057Y-76200000D01*
X93666776Y-76772123D01*
X93527960Y-77470000D01*
X93666776Y-78167877D01*
X94049057Y-78740000D01*
X93666776Y-79312123D01*
X93527960Y-80010000D01*
X93666776Y-80707877D01*
X94049057Y-81280000D01*
X93666776Y-81852123D01*
X93527960Y-82550000D01*
X93666776Y-83247877D01*
X94049057Y-83820000D01*
X93666776Y-84392123D01*
X93527960Y-85090000D01*
X93666776Y-85787877D01*
X94049057Y-86360000D01*
X93666776Y-86932123D01*
X93527960Y-87630000D01*
X93666776Y-88327877D01*
X94049057Y-88900000D01*
X93666776Y-89472123D01*
X93527960Y-90170000D01*
X93666776Y-90867877D01*
X94049057Y-91440000D01*
X93666776Y-92012123D01*
X93527960Y-92710000D01*
X93666776Y-93407877D01*
X94049057Y-93980000D01*
X93666776Y-94552123D01*
X93527960Y-95250000D01*
X93666776Y-95947877D01*
X94049057Y-96520000D01*
X93666776Y-97092123D01*
X93527960Y-97790000D01*
X93666776Y-98487877D01*
X94049057Y-99060000D01*
X93666776Y-99632123D01*
X93527960Y-100330000D01*
X93666776Y-101027877D01*
X94062092Y-101619508D01*
X94653723Y-102014824D01*
X95175442Y-102118600D01*
X95832558Y-102118600D01*
X96354277Y-102014824D01*
X96945908Y-101619508D01*
X97341224Y-101027877D01*
X97480040Y-100330000D01*
X97341224Y-99632123D01*
X96958943Y-99060000D01*
X97341224Y-98487877D01*
X97480040Y-97790000D01*
X97341224Y-97092123D01*
X96958943Y-96520000D01*
X97341224Y-95947877D01*
X97480040Y-95250000D01*
X97341224Y-94552123D01*
X96958943Y-93980000D01*
X97341224Y-93407877D01*
X97480040Y-92710000D01*
X97341224Y-92012123D01*
X96958943Y-91440000D01*
X97341224Y-90867877D01*
X97480040Y-90170000D01*
X97341224Y-89472123D01*
X96958943Y-88900000D01*
X97341224Y-88327877D01*
X97480040Y-87630000D01*
X97341224Y-86932123D01*
X96958943Y-86360000D01*
X97341224Y-85787877D01*
X97480040Y-85090000D01*
X97341224Y-84392123D01*
X96958943Y-83820000D01*
X97341224Y-83247877D01*
X97480040Y-82550000D01*
X97341224Y-81852123D01*
X96958943Y-81280000D01*
X97341224Y-80707877D01*
X97480040Y-80010000D01*
X97341224Y-79312123D01*
X96958943Y-78740000D01*
X97341224Y-78167877D01*
X97480040Y-77470000D01*
X97341224Y-76772123D01*
X96958943Y-76200000D01*
X97341224Y-75627877D01*
X97480040Y-74930000D01*
X97341224Y-74232123D01*
X96958943Y-73660000D01*
X97341224Y-73087877D01*
X97480040Y-72390000D01*
X97341224Y-71692123D01*
X96958943Y-71120000D01*
X97341224Y-70547877D01*
X97480040Y-69850000D01*
X97341224Y-69152123D01*
X96958943Y-68580000D01*
X97341224Y-68007877D01*
X97480040Y-67310000D01*
X97341224Y-66612123D01*
X96958943Y-66040000D01*
X97341224Y-65467877D01*
X97480040Y-64770000D01*
X97341224Y-64072123D01*
X96945908Y-63480492D01*
X96354277Y-63085176D01*
X95832558Y-62981400D01*
X95175442Y-62981400D01*
X94653723Y-63085176D01*
X94062092Y-63480492D01*
X93666776Y-64072123D01*
X93527960Y-64770000D01*
X93084500Y-64770000D01*
X93084500Y-63792134D01*
X96332206Y-60544428D01*
X96424056Y-60483056D01*
X96667177Y-60119199D01*
X96727288Y-59817000D01*
X96752550Y-59690001D01*
X96731000Y-59581662D01*
X96731000Y-38020000D01*
X96756015Y-38020000D01*
X97426780Y-37742160D01*
X97940160Y-37228780D01*
X98218000Y-36558015D01*
X98218000Y-35831985D01*
X97940160Y-35161220D01*
X97426780Y-34647840D01*
X96756015Y-34370000D01*
X96029985Y-34370000D01*
X95414896Y-34624778D01*
X95113917Y-34423670D01*
X94753000Y-34351879D01*
X92953000Y-34351879D01*
X92592083Y-34423670D01*
X92286113Y-34628113D01*
X92081670Y-34934083D01*
X92009879Y-35295000D01*
X92009879Y-37095000D01*
X92081670Y-37455917D01*
X92286113Y-37761887D01*
X92592083Y-37966330D01*
X92953000Y-38038121D01*
X93388001Y-38038121D01*
X93388000Y-58980365D01*
X89849792Y-62518574D01*
X89757945Y-62579944D01*
X89696576Y-62671790D01*
X89514823Y-62943802D01*
X89429450Y-63373000D01*
X89451001Y-63481344D01*
X89451000Y-88908813D01*
X89221189Y-89004004D01*
X88750004Y-89475189D01*
X88495000Y-90090822D01*
X82224291Y-90090822D01*
X82101224Y-89472123D01*
X81718943Y-88900000D01*
X82101224Y-88327877D01*
X82240040Y-87630000D01*
X82101224Y-86932123D01*
X81718943Y-86360000D01*
X82101224Y-85787877D01*
X82240040Y-85090000D01*
X82101224Y-84392123D01*
X81718943Y-83820000D01*
X82101224Y-83247877D01*
X82240040Y-82550000D01*
X82101224Y-81852123D01*
X81718943Y-81280000D01*
X82101224Y-80707877D01*
X82240040Y-80010000D01*
X82101224Y-79312123D01*
X81718943Y-78740000D01*
X82101224Y-78167877D01*
X82240040Y-77470000D01*
X82101224Y-76772123D01*
X81718943Y-76200000D01*
X82101224Y-75627877D01*
X82240040Y-74930000D01*
X82101224Y-74232123D01*
X81718943Y-73660000D01*
X82101224Y-73087877D01*
X82240040Y-72390000D01*
X82101224Y-71692123D01*
X81718943Y-71120000D01*
X82101224Y-70547877D01*
X82240040Y-69850000D01*
X82101224Y-69152123D01*
X81718943Y-68580000D01*
X82101224Y-68007877D01*
X82240040Y-67310000D01*
X82101224Y-66612123D01*
X81718943Y-66040000D01*
X82101224Y-65467877D01*
X82240040Y-64770000D01*
X82101224Y-64072123D01*
X81705908Y-63480492D01*
X81114277Y-63085176D01*
X80592558Y-62981400D01*
X79935442Y-62981400D01*
X79413723Y-63085176D01*
X78822092Y-63480492D01*
X78426776Y-64072123D01*
X78287960Y-64770000D01*
X56389044Y-64770000D01*
X56419990Y-54821000D01*
X65025193Y-54821000D01*
X65345189Y-55140996D01*
X65960822Y-55396000D01*
X66627178Y-55396000D01*
X67242811Y-55140996D01*
X67713996Y-54669811D01*
X67969000Y-54054178D01*
X67969000Y-53387822D01*
X67713996Y-52772189D01*
X67242811Y-52301004D01*
X66627178Y-52046000D01*
X65960822Y-52046000D01*
X65345189Y-52301004D01*
X65025193Y-52621000D01*
X57927847Y-52621000D01*
X60711313Y-50165000D01*
X74136226Y-50165000D01*
X74273987Y-50857571D01*
X74659814Y-51435000D01*
X74273987Y-52012429D01*
X74136226Y-52705000D01*
X74273987Y-53397571D01*
X74659814Y-53975000D01*
X74273987Y-54552429D01*
X74136226Y-55245000D01*
X74273987Y-55937571D01*
X74666297Y-56524703D01*
X75253429Y-56917013D01*
X75771179Y-57020000D01*
X76120821Y-57020000D01*
X76638571Y-56917013D01*
X77225703Y-56524703D01*
X77618013Y-55937571D01*
X77755774Y-55245000D01*
X77618013Y-54552429D01*
X77232186Y-53975000D01*
X77618013Y-53397571D01*
X77755774Y-52705000D01*
X77618013Y-52012429D01*
X77232186Y-51435000D01*
X77618013Y-50857571D01*
X77755774Y-50165000D01*
X77618013Y-49472429D01*
X77417441Y-49172253D01*
X77462887Y-49141887D01*
X77667330Y-48835917D01*
X77739121Y-48475000D01*
X77739121Y-46775000D01*
X77667330Y-46414083D01*
X77462887Y-46108113D01*
X77156917Y-45903670D01*
X76796000Y-45831879D01*
X75096000Y-45831879D01*
X74735083Y-45903670D01*
X74429113Y-46108113D01*
X74224670Y-46414083D01*
X74152879Y-46775000D01*
X74152879Y-48475000D01*
X74224670Y-48835917D01*
X74429113Y-49141887D01*
X74474559Y-49172253D01*
X74273987Y-49472429D01*
X74136226Y-50165000D01*
X60711313Y-50165000D01*
X64061921Y-47208582D01*
X64154424Y-47114399D01*
X64523409Y-46680726D01*
X64663774Y-46457903D01*
X64895595Y-45937825D01*
X64967480Y-45684475D01*
X65043346Y-45120146D01*
X65051554Y-44988390D01*
X64961872Y-35242900D01*
X76934500Y-35242900D01*
X76934500Y-37401100D01*
X77760407Y-39395016D01*
X79286484Y-40921093D01*
X81280400Y-41747000D01*
X83438600Y-41747000D01*
X85432516Y-40921093D01*
X86958593Y-39395016D01*
X87784500Y-37401100D01*
X87784500Y-35242900D01*
X86958593Y-33248984D01*
X85432516Y-31722907D01*
X83438600Y-30897000D01*
X81280400Y-30897000D01*
X79286484Y-31722907D01*
X77760407Y-33248984D01*
X76934500Y-35242900D01*
X64961872Y-35242900D01*
X64887697Y-27182584D01*
X64878771Y-27062628D01*
X64806681Y-26548595D01*
X64784471Y-26468177D01*
X100497973Y-26438831D01*
X101197056Y-27137914D01*
X101197056Y-27137914D01*
G37*
X101197056Y-27137914D02*
X101386445Y-164823697D01*
X100434142Y-165776000D01*
X24533858Y-165776000D01*
X23580259Y-164822401D01*
X23537090Y-141295000D01*
X29497247Y-141295000D01*
X29638888Y-142007079D01*
X30042249Y-142610751D01*
X30645921Y-143014112D01*
X30801206Y-143045000D01*
X30645921Y-143075888D01*
X30042249Y-143479249D01*
X29638888Y-144082921D01*
X29497247Y-144795000D01*
X29638888Y-145507079D01*
X30042249Y-146110751D01*
X30645921Y-146514112D01*
X30801206Y-146545000D01*
X30645921Y-146575888D01*
X30042249Y-146979249D01*
X29638888Y-147582921D01*
X29497247Y-148295000D01*
X29638888Y-149007079D01*
X30042249Y-149610751D01*
X30645921Y-150014112D01*
X30801206Y-150045000D01*
X30645921Y-150075888D01*
X30042249Y-150479249D01*
X29638888Y-151082921D01*
X29497247Y-151795000D01*
X29638888Y-152507079D01*
X30042249Y-153110751D01*
X30645921Y-153514112D01*
X30801206Y-153545000D01*
X30645921Y-153575888D01*
X30042249Y-153979249D01*
X29638888Y-154582921D01*
X29497247Y-155295000D01*
X29638888Y-156007079D01*
X30042249Y-156610751D01*
X30645921Y-157014112D01*
X30801206Y-157045000D01*
X30645921Y-157075888D01*
X30042249Y-157479249D01*
X29638888Y-158082921D01*
X29497247Y-158795000D01*
X29638888Y-159507079D01*
X30042249Y-160110751D01*
X30645921Y-160514112D01*
X30801206Y-160545000D01*
X30645921Y-160575888D01*
X30042249Y-160979249D01*
X29638888Y-161582921D01*
X29497247Y-162295000D01*
X29638888Y-163007079D01*
X30042249Y-163610751D01*
X30645921Y-164014112D01*
X31178257Y-164120000D01*
X33337743Y-164120000D01*
X33870079Y-164014112D01*
X34473751Y-163610751D01*
X34877112Y-163007079D01*
X35018753Y-162295000D01*
X34877112Y-161582921D01*
X34473751Y-160979249D01*
X33870079Y-160575888D01*
X33714794Y-160545000D01*
X33870079Y-160514112D01*
X34473751Y-160110751D01*
X34877112Y-159507079D01*
X35018753Y-158795000D01*
X34877112Y-158082921D01*
X34473751Y-157479249D01*
X33870079Y-157075888D01*
X33714794Y-157045000D01*
X33870079Y-157014112D01*
X34473751Y-156610751D01*
X34877112Y-156007079D01*
X35018753Y-155295000D01*
X34877112Y-154582921D01*
X34473751Y-153979249D01*
X33870079Y-153575888D01*
X33714794Y-153545000D01*
X33870079Y-153514112D01*
X34473751Y-153110751D01*
X34877112Y-152507079D01*
X35018753Y-151795000D01*
X34877112Y-151082921D01*
X34473751Y-150479249D01*
X33870079Y-150075888D01*
X33714794Y-150045000D01*
X33870079Y-150014112D01*
X34473751Y-149610751D01*
X34877112Y-149007079D01*
X35018753Y-148295000D01*
X34877112Y-147582921D01*
X34473751Y-146979249D01*
X33870079Y-146575888D01*
X33714794Y-146545000D01*
X33870079Y-146514112D01*
X34473751Y-146110751D01*
X34877112Y-145507079D01*
X35018753Y-144795000D01*
X34877112Y-144082921D01*
X34473751Y-143479249D01*
X33870079Y-143075888D01*
X33714794Y-143045000D01*
X33870079Y-143014112D01*
X34473751Y-142610751D01*
X34877112Y-142007079D01*
X35018753Y-141295000D01*
X34877112Y-140582921D01*
X34839012Y-140525900D01*
X43279500Y-140525900D01*
X43279500Y-142684100D01*
X44105407Y-144678016D01*
X45631484Y-146204093D01*
X47625400Y-147030000D01*
X49783600Y-147030000D01*
X51777516Y-146204093D01*
X53303593Y-144678016D01*
X54129500Y-142684100D01*
X54129500Y-140525900D01*
X54103198Y-140462400D01*
X76871000Y-140462400D01*
X76871000Y-142620600D01*
X77696907Y-144614516D01*
X79222984Y-146140593D01*
X81216900Y-146966500D01*
X83375100Y-146966500D01*
X85369016Y-146140593D01*
X86895093Y-144614516D01*
X87721000Y-142620600D01*
X87721000Y-140462400D01*
X86895093Y-138468484D01*
X85369016Y-136942407D01*
X83375100Y-136116500D01*
X81216900Y-136116500D01*
X79222984Y-136942407D01*
X77696907Y-138468484D01*
X76871000Y-140462400D01*
X54103198Y-140462400D01*
X53303593Y-138531984D01*
X51777516Y-137005907D01*
X49783600Y-136180000D01*
X47625400Y-136180000D01*
X45631484Y-137005907D01*
X44105407Y-138531984D01*
X43279500Y-140525900D01*
X34839012Y-140525900D01*
X34473751Y-139979249D01*
X33927610Y-139614329D01*
X34264588Y-139547300D01*
X34651664Y-139288664D01*
X34910300Y-138901588D01*
X35001121Y-138445000D01*
X35001121Y-137145000D01*
X34910300Y-136688412D01*
X34651664Y-136301336D01*
X34264588Y-136042700D01*
X33808000Y-135951879D01*
X30708000Y-135951879D01*
X30251412Y-136042700D01*
X29864336Y-136301336D01*
X29605700Y-136688412D01*
X29514879Y-137145000D01*
X29514879Y-138445000D01*
X29605700Y-138901588D01*
X29864336Y-139288664D01*
X30251412Y-139547300D01*
X30588390Y-139614329D01*
X30042249Y-139979249D01*
X29638888Y-140582921D01*
X29497247Y-141295000D01*
X23537090Y-141295000D01*
X23388013Y-60047351D01*
X29992330Y-60047351D01*
X30047382Y-60249301D01*
X30353629Y-60760305D01*
X30832117Y-61115215D01*
X31410000Y-61260000D01*
X32310000Y-61260000D01*
X32310000Y-59810000D01*
X32460000Y-59810000D01*
X32460000Y-61260000D01*
X33360000Y-61260000D01*
X33937883Y-61115215D01*
X34416371Y-60760305D01*
X34722618Y-60249301D01*
X34777670Y-60047351D01*
X34651694Y-59810000D01*
X32460000Y-59810000D01*
X32310000Y-59810000D01*
X30118306Y-59810000D01*
X29992330Y-60047351D01*
X23388013Y-60047351D01*
X23386867Y-59422649D01*
X29992330Y-59422649D01*
X30118306Y-59660000D01*
X32310000Y-59660000D01*
X32310000Y-58210000D01*
X32460000Y-58210000D01*
X32460000Y-59660000D01*
X34651694Y-59660000D01*
X34777670Y-59422649D01*
X34722618Y-59220699D01*
X34416371Y-58709695D01*
X33937883Y-58354785D01*
X33360000Y-58210000D01*
X32460000Y-58210000D01*
X32310000Y-58210000D01*
X31410000Y-58210000D01*
X30832117Y-58354785D01*
X30353629Y-58709695D01*
X30047382Y-59220699D01*
X29992330Y-59422649D01*
X23386867Y-59422649D01*
X23355329Y-42235000D01*
X29624247Y-42235000D01*
X29765888Y-42947079D01*
X30169249Y-43550751D01*
X30772921Y-43954112D01*
X30928206Y-43985000D01*
X30772921Y-44015888D01*
X30169249Y-44419249D01*
X29765888Y-45022921D01*
X29624247Y-45735000D01*
X29765888Y-46447079D01*
X30169249Y-47050751D01*
X30772921Y-47454112D01*
X30928206Y-47485000D01*
X30772921Y-47515888D01*
X30169249Y-47919249D01*
X29765888Y-48522921D01*
X29624247Y-49235000D01*
X29765888Y-49947079D01*
X30169249Y-50550751D01*
X30772921Y-50954112D01*
X30928206Y-50985000D01*
X30772921Y-51015888D01*
X30169249Y-51419249D01*
X29765888Y-52022921D01*
X29624247Y-52735000D01*
X29765888Y-53447079D01*
X30169249Y-54050751D01*
X30772921Y-54454112D01*
X30928206Y-54485000D01*
X30772921Y-54515888D01*
X30169249Y-54919249D01*
X29765888Y-55522921D01*
X29624247Y-56235000D01*
X29765888Y-56947079D01*
X30169249Y-57550751D01*
X30772921Y-57954112D01*
X31305257Y-58060000D01*
X33464743Y-58060000D01*
X33997079Y-57954112D01*
X34600751Y-57550751D01*
X35004112Y-56947079D01*
X35145753Y-56235000D01*
X35004112Y-55522921D01*
X34600751Y-54919249D01*
X33997079Y-54515888D01*
X33841794Y-54485000D01*
X33997079Y-54454112D01*
X34600751Y-54050751D01*
X35004112Y-53447079D01*
X35145753Y-52735000D01*
X35004112Y-52022921D01*
X34600751Y-51419249D01*
X33997079Y-51015888D01*
X33841794Y-50985000D01*
X33997079Y-50954112D01*
X34600751Y-50550751D01*
X35004112Y-49947079D01*
X35145753Y-49235000D01*
X35004112Y-48522921D01*
X34600751Y-47919249D01*
X33997079Y-47515888D01*
X33841794Y-47485000D01*
X33997079Y-47454112D01*
X34600751Y-47050751D01*
X35004112Y-46447079D01*
X35145753Y-45735000D01*
X35004112Y-45022921D01*
X34600751Y-44419249D01*
X33997079Y-44015888D01*
X33841794Y-43985000D01*
X33997079Y-43954112D01*
X34600751Y-43550751D01*
X35004112Y-42947079D01*
X35145753Y-42235000D01*
X35004112Y-41522921D01*
X34600751Y-40919249D01*
X34054610Y-40554329D01*
X34391588Y-40487300D01*
X34778664Y-40228664D01*
X35037300Y-39841588D01*
X35128121Y-39385000D01*
X35128121Y-38085000D01*
X35037300Y-37628412D01*
X34778664Y-37241336D01*
X34391588Y-36982700D01*
X33935000Y-36891879D01*
X30835000Y-36891879D01*
X30378412Y-36982700D01*
X29991336Y-37241336D01*
X29732700Y-37628412D01*
X29641879Y-38085000D01*
X29641879Y-39385000D01*
X29732700Y-39841588D01*
X29991336Y-40228664D01*
X30378412Y-40487300D01*
X30715390Y-40554329D01*
X30169249Y-40919249D01*
X29765888Y-41522921D01*
X29624247Y-42235000D01*
X23355329Y-42235000D01*
X23337493Y-32514351D01*
X29992330Y-32514351D01*
X30047382Y-32716301D01*
X30353629Y-33227305D01*
X30832117Y-33582215D01*
X31410000Y-33727000D01*
X32310000Y-33727000D01*
X32310000Y-32277000D01*
X30118306Y-32277000D01*
X29992330Y-32514351D01*
X23337493Y-32514351D01*
X23336347Y-31889649D01*
X29992330Y-31889649D01*
X30118306Y-32127000D01*
X32310000Y-32127000D01*
X32310000Y-30677000D01*
X31410000Y-30677000D01*
X30832117Y-30821785D01*
X30353629Y-31176695D01*
X30047382Y-31687699D01*
X29992330Y-31889649D01*
X23336347Y-31889649D01*
X23327741Y-27200117D01*
X24026191Y-26501668D01*
X33118898Y-26494196D01*
X33088034Y-26617002D01*
X33069752Y-26777000D01*
X32195410Y-26777000D01*
X31783778Y-26858879D01*
X30835000Y-26858879D01*
X30378412Y-26949700D01*
X29991336Y-27208336D01*
X29732700Y-27595412D01*
X29641879Y-28052000D01*
X29641879Y-29352000D01*
X29732700Y-29808588D01*
X29991336Y-30195664D01*
X30378412Y-30454300D01*
X30835000Y-30545121D01*
X31783778Y-30545121D01*
X32195410Y-30627000D01*
X33149881Y-30627000D01*
X33158465Y-30677000D01*
X32460000Y-30677000D01*
X32460000Y-32127000D01*
X32480000Y-32127000D01*
X32480000Y-32277000D01*
X32460000Y-32277000D01*
X32460000Y-33727000D01*
X33360000Y-33727000D01*
X33937883Y-33582215D01*
X34416371Y-33227305D01*
X34722618Y-32716301D01*
X34729646Y-32690519D01*
X34892997Y-32778237D01*
X35155786Y-32871632D01*
X35747926Y-32985601D01*
X35886857Y-33001575D01*
X38533066Y-33104340D01*
X38924093Y-33180651D01*
X39210292Y-33337213D01*
X39435601Y-33573132D01*
X39578837Y-33866230D01*
X39637084Y-34260350D01*
X38930750Y-132531598D01*
X38937852Y-132652840D01*
X39002775Y-133172861D01*
X39064053Y-133407364D01*
X39161714Y-133647000D01*
X30046634Y-133647000D01*
X29810426Y-133410793D01*
X29810424Y-133410789D01*
X28141011Y-131741377D01*
X28141011Y-131180000D01*
X29624247Y-131180000D01*
X29765888Y-131892079D01*
X30169249Y-132495751D01*
X30772921Y-132899112D01*
X31305257Y-133005000D01*
X33464743Y-133005000D01*
X33997079Y-132899112D01*
X34600751Y-132495751D01*
X35004112Y-131892079D01*
X35145753Y-131180000D01*
X35004112Y-130467921D01*
X34600751Y-129864249D01*
X33997079Y-129460888D01*
X33464743Y-129355000D01*
X31305257Y-129355000D01*
X30772921Y-129460888D01*
X30169249Y-129864249D01*
X29765888Y-130467921D01*
X29624247Y-131180000D01*
X28141011Y-131180000D01*
X28141011Y-127992351D01*
X29992330Y-127992351D01*
X30047382Y-128194301D01*
X30353629Y-128705305D01*
X30832117Y-129060215D01*
X31410000Y-129205000D01*
X32310000Y-129205000D01*
X32310000Y-127755000D01*
X32460000Y-127755000D01*
X32460000Y-129205000D01*
X33360000Y-129205000D01*
X33937883Y-129060215D01*
X34416371Y-128705305D01*
X34722618Y-128194301D01*
X34777670Y-127992351D01*
X34651694Y-127755000D01*
X32460000Y-127755000D01*
X32310000Y-127755000D01*
X30118306Y-127755000D01*
X29992330Y-127992351D01*
X28141011Y-127992351D01*
X28141011Y-127367649D01*
X29992330Y-127367649D01*
X30118306Y-127605000D01*
X32310000Y-127605000D01*
X32310000Y-126155000D01*
X32460000Y-126155000D01*
X32460000Y-127605000D01*
X34651694Y-127605000D01*
X34777670Y-127367649D01*
X34722618Y-127165699D01*
X34416371Y-126654695D01*
X33937883Y-126299785D01*
X33360000Y-126155000D01*
X32460000Y-126155000D01*
X32310000Y-126155000D01*
X31410000Y-126155000D01*
X30832117Y-126299785D01*
X30353629Y-126654695D01*
X30047382Y-127165699D01*
X29992330Y-127367649D01*
X28141011Y-127367649D01*
X28141011Y-110180000D01*
X29624247Y-110180000D01*
X29765888Y-110892079D01*
X30169249Y-111495751D01*
X30772921Y-111899112D01*
X30928206Y-111930000D01*
X30772921Y-111960888D01*
X30169249Y-112364249D01*
X29765888Y-112967921D01*
X29624247Y-113680000D01*
X29765888Y-114392079D01*
X30169249Y-114995751D01*
X30772921Y-115399112D01*
X30928206Y-115430000D01*
X30772921Y-115460888D01*
X30169249Y-115864249D01*
X29765888Y-116467921D01*
X29624247Y-117180000D01*
X29765888Y-117892079D01*
X30169249Y-118495751D01*
X30772921Y-118899112D01*
X30928206Y-118930000D01*
X30772921Y-118960888D01*
X30169249Y-119364249D01*
X29765888Y-119967921D01*
X29624247Y-120680000D01*
X29765888Y-121392079D01*
X30169249Y-121995751D01*
X30772921Y-122399112D01*
X30928206Y-122430000D01*
X30772921Y-122460888D01*
X30169249Y-122864249D01*
X29765888Y-123467921D01*
X29624247Y-124180000D01*
X29765888Y-124892079D01*
X30169249Y-125495751D01*
X30772921Y-125899112D01*
X31305257Y-126005000D01*
X33464743Y-126005000D01*
X33997079Y-125899112D01*
X34600751Y-125495751D01*
X35004112Y-124892079D01*
X35145753Y-124180000D01*
X35004112Y-123467921D01*
X34600751Y-122864249D01*
X33997079Y-122460888D01*
X33841794Y-122430000D01*
X33997079Y-122399112D01*
X34600751Y-121995751D01*
X35004112Y-121392079D01*
X35145753Y-120680000D01*
X35004112Y-119967921D01*
X34600751Y-119364249D01*
X33997079Y-118960888D01*
X33841794Y-118930000D01*
X33997079Y-118899112D01*
X34600751Y-118495751D01*
X35004112Y-117892079D01*
X35145753Y-117180000D01*
X35004112Y-116467921D01*
X34600751Y-115864249D01*
X33997079Y-115460888D01*
X33841794Y-115430000D01*
X33997079Y-115399112D01*
X34600751Y-114995751D01*
X35004112Y-114392079D01*
X35145753Y-113680000D01*
X35004112Y-112967921D01*
X34600751Y-112364249D01*
X33997079Y-111960888D01*
X33841794Y-111930000D01*
X33997079Y-111899112D01*
X34600751Y-111495751D01*
X35004112Y-110892079D01*
X35145753Y-110180000D01*
X35004112Y-109467921D01*
X34600751Y-108864249D01*
X34054610Y-108499329D01*
X34391588Y-108432300D01*
X34778664Y-108173664D01*
X35037300Y-107786588D01*
X35128121Y-107330000D01*
X35128121Y-106030000D01*
X35037300Y-105573412D01*
X34778664Y-105186336D01*
X34391588Y-104927700D01*
X33935000Y-104836879D01*
X30835000Y-104836879D01*
X30378412Y-104927700D01*
X29991336Y-105186336D01*
X29732700Y-105573412D01*
X29641879Y-106030000D01*
X29641879Y-107330000D01*
X29732700Y-107786588D01*
X29991336Y-108173664D01*
X30378412Y-108432300D01*
X30715390Y-108499329D01*
X30169249Y-108864249D01*
X29765888Y-109467921D01*
X29624247Y-110180000D01*
X28141011Y-110180000D01*
X28141011Y-96433278D01*
X29624247Y-96433278D01*
X29765888Y-97145357D01*
X30169249Y-97749029D01*
X30772921Y-98152390D01*
X31305257Y-98258278D01*
X33464743Y-98258278D01*
X33997079Y-98152390D01*
X34600751Y-97749029D01*
X35004112Y-97145357D01*
X35145753Y-96433278D01*
X35004112Y-95721199D01*
X34600751Y-95117527D01*
X33997079Y-94714166D01*
X33464743Y-94608278D01*
X31305257Y-94608278D01*
X30772921Y-94714166D01*
X30169249Y-95117527D01*
X29765888Y-95721199D01*
X29624247Y-96433278D01*
X28141011Y-96433278D01*
X28141011Y-93245629D01*
X29992330Y-93245629D01*
X30047382Y-93447579D01*
X30353629Y-93958583D01*
X30832117Y-94313493D01*
X31410000Y-94458278D01*
X32310000Y-94458278D01*
X32310000Y-93008278D01*
X32460000Y-93008278D01*
X32460000Y-94458278D01*
X33360000Y-94458278D01*
X33937883Y-94313493D01*
X34416371Y-93958583D01*
X34722618Y-93447579D01*
X34777670Y-93245629D01*
X34651694Y-93008278D01*
X32460000Y-93008278D01*
X32310000Y-93008278D01*
X30118306Y-93008278D01*
X29992330Y-93245629D01*
X28141011Y-93245629D01*
X28141011Y-92620927D01*
X29992330Y-92620927D01*
X30118306Y-92858278D01*
X32310000Y-92858278D01*
X32310000Y-91408278D01*
X32460000Y-91408278D01*
X32460000Y-92858278D01*
X34651694Y-92858278D01*
X34777670Y-92620927D01*
X34722618Y-92418977D01*
X34416371Y-91907973D01*
X33937883Y-91553063D01*
X33360000Y-91408278D01*
X32460000Y-91408278D01*
X32310000Y-91408278D01*
X31410000Y-91408278D01*
X30832117Y-91553063D01*
X30353629Y-91907973D01*
X30047382Y-92418977D01*
X29992330Y-92620927D01*
X28141011Y-92620927D01*
X28141011Y-75433278D01*
X29624247Y-75433278D01*
X29765888Y-76145357D01*
X30169249Y-76749029D01*
X30772921Y-77152390D01*
X30928206Y-77183278D01*
X30772921Y-77214166D01*
X30169249Y-77617527D01*
X29765888Y-78221199D01*
X29624247Y-78933278D01*
X29765888Y-79645357D01*
X30169249Y-80249029D01*
X30772921Y-80652390D01*
X30928206Y-80683278D01*
X30772921Y-80714166D01*
X30169249Y-81117527D01*
X29765888Y-81721199D01*
X29624247Y-82433278D01*
X29765888Y-83145357D01*
X30169249Y-83749029D01*
X30772921Y-84152390D01*
X30928206Y-84183278D01*
X30772921Y-84214166D01*
X30169249Y-84617527D01*
X29765888Y-85221199D01*
X29624247Y-85933278D01*
X29765888Y-86645357D01*
X30169249Y-87249029D01*
X30772921Y-87652390D01*
X30928206Y-87683278D01*
X30772921Y-87714166D01*
X30169249Y-88117527D01*
X29765888Y-88721199D01*
X29624247Y-89433278D01*
X29765888Y-90145357D01*
X30169249Y-90749029D01*
X30772921Y-91152390D01*
X31305257Y-91258278D01*
X33464743Y-91258278D01*
X33997079Y-91152390D01*
X34600751Y-90749029D01*
X35004112Y-90145357D01*
X35145753Y-89433278D01*
X35004112Y-88721199D01*
X34600751Y-88117527D01*
X33997079Y-87714166D01*
X33841794Y-87683278D01*
X33997079Y-87652390D01*
X34600751Y-87249029D01*
X35004112Y-86645357D01*
X35145753Y-85933278D01*
X35004112Y-85221199D01*
X34600751Y-84617527D01*
X33997079Y-84214166D01*
X33841794Y-84183278D01*
X33997079Y-84152390D01*
X34600751Y-83749029D01*
X35004112Y-83145357D01*
X35145753Y-82433278D01*
X35004112Y-81721199D01*
X34600751Y-81117527D01*
X33997079Y-80714166D01*
X33841794Y-80683278D01*
X33997079Y-80652390D01*
X34600751Y-80249029D01*
X35004112Y-79645357D01*
X35145753Y-78933278D01*
X35004112Y-78221199D01*
X34600751Y-77617527D01*
X33997079Y-77214166D01*
X33841794Y-77183278D01*
X33997079Y-77152390D01*
X34600751Y-76749029D01*
X35004112Y-76145357D01*
X35145753Y-75433278D01*
X35004112Y-74721199D01*
X34600751Y-74117527D01*
X34054610Y-73752607D01*
X34391588Y-73685578D01*
X34778664Y-73426942D01*
X35037300Y-73039866D01*
X35128121Y-72583278D01*
X35128121Y-71283278D01*
X35037300Y-70826690D01*
X34778664Y-70439614D01*
X34391588Y-70180978D01*
X33935000Y-70090157D01*
X30835000Y-70090157D01*
X30378412Y-70180978D01*
X29991336Y-70439614D01*
X29732700Y-70826690D01*
X29641879Y-71283278D01*
X29641879Y-72583278D01*
X29732700Y-73039866D01*
X29991336Y-73426942D01*
X30378412Y-73685578D01*
X30715390Y-73752607D01*
X30169249Y-74117527D01*
X29765888Y-74721199D01*
X29624247Y-75433278D01*
X28141011Y-75433278D01*
X28141011Y-65088528D01*
X28649425Y-64877936D01*
X29190936Y-64336425D01*
X29484000Y-63628906D01*
X29484000Y-63235000D01*
X29624247Y-63235000D01*
X29765888Y-63947079D01*
X30169249Y-64550751D01*
X30772921Y-64954112D01*
X31305257Y-65060000D01*
X33464743Y-65060000D01*
X33997079Y-64954112D01*
X34600751Y-64550751D01*
X35004112Y-63947079D01*
X35145753Y-63235000D01*
X35004112Y-62522921D01*
X34600751Y-61919249D01*
X33997079Y-61515888D01*
X33464743Y-61410000D01*
X31305257Y-61410000D01*
X30772921Y-61515888D01*
X30169249Y-61919249D01*
X29765888Y-62522921D01*
X29624247Y-63235000D01*
X29484000Y-63235000D01*
X29484000Y-62863094D01*
X29190936Y-62155575D01*
X28649425Y-61614064D01*
X27941906Y-61321000D01*
X27176094Y-61321000D01*
X26468575Y-61614064D01*
X25927064Y-62155575D01*
X25634000Y-62863094D01*
X25634000Y-63628906D01*
X25927064Y-64336425D01*
X25941012Y-64350373D01*
X25941011Y-132088672D01*
X25919461Y-132197011D01*
X25941011Y-132305349D01*
X26004834Y-132626209D01*
X26247955Y-132990067D01*
X26339805Y-133051439D01*
X28254789Y-134966424D01*
X28254793Y-134966426D01*
X28736570Y-135448203D01*
X28797944Y-135540056D01*
X29161801Y-135783177D01*
X29482661Y-135847000D01*
X29591000Y-135868550D01*
X29699339Y-135847000D01*
X44786161Y-135847000D01*
X44894500Y-135868550D01*
X45002839Y-135847000D01*
X45323699Y-135783177D01*
X45687556Y-135540056D01*
X45748928Y-135448206D01*
X54295209Y-126901926D01*
X54387056Y-126840556D01*
X54630177Y-126476699D01*
X54694000Y-126155839D01*
X54715550Y-126047500D01*
X54694000Y-125939161D01*
X54694000Y-97126361D01*
X55225936Y-96594425D01*
X55519000Y-95886906D01*
X55519000Y-95288509D01*
X55634976Y-95174201D01*
X55807478Y-94939948D01*
X56096167Y-94381108D01*
X56187381Y-94104865D01*
X56288224Y-93483998D01*
X56300185Y-93338577D01*
X56389044Y-64770000D01*
X78287960Y-64770000D01*
X78426776Y-65467877D01*
X78809057Y-66040000D01*
X78426776Y-66612123D01*
X78287960Y-67310000D01*
X78426776Y-68007877D01*
X78809057Y-68580000D01*
X78426776Y-69152123D01*
X78287960Y-69850000D01*
X78426776Y-70547877D01*
X78809057Y-71120000D01*
X78426776Y-71692123D01*
X78287960Y-72390000D01*
X78426776Y-73087877D01*
X78809057Y-73660000D01*
X78426776Y-74232123D01*
X78287960Y-74930000D01*
X78426776Y-75627877D01*
X78809057Y-76200000D01*
X78426776Y-76772123D01*
X78287960Y-77470000D01*
X78426776Y-78167877D01*
X78809057Y-78740000D01*
X78426776Y-79312123D01*
X78287960Y-80010000D01*
X78426776Y-80707877D01*
X78809057Y-81280000D01*
X78426776Y-81852123D01*
X78287960Y-82550000D01*
X78426776Y-83247877D01*
X78809057Y-83820000D01*
X78426776Y-84392123D01*
X78287960Y-85090000D01*
X78426776Y-85787877D01*
X78809057Y-86360000D01*
X78426776Y-86932123D01*
X78287960Y-87630000D01*
X78426776Y-88327877D01*
X78809057Y-88900000D01*
X78426776Y-89472123D01*
X78287960Y-90170000D01*
X78426776Y-90867877D01*
X78809057Y-91440000D01*
X78426776Y-92012123D01*
X78287960Y-92710000D01*
X78426776Y-93407877D01*
X78809057Y-93980000D01*
X78426776Y-94552123D01*
X78287960Y-95250000D01*
X78426776Y-95947877D01*
X78809057Y-96520000D01*
X78426776Y-97092123D01*
X78287960Y-97790000D01*
X78426776Y-98487877D01*
X78809057Y-99060000D01*
X78426776Y-99632123D01*
X78287960Y-100330000D01*
X78426776Y-101027877D01*
X78822092Y-101619508D01*
X79413723Y-102014824D01*
X79935442Y-102118600D01*
X80592558Y-102118600D01*
X81114277Y-102014824D01*
X81705908Y-101619508D01*
X82101224Y-101027877D01*
X82240040Y-100330000D01*
X82101224Y-99632123D01*
X81718943Y-99060000D01*
X82101224Y-98487877D01*
X82240040Y-97790000D01*
X82101224Y-97092123D01*
X81718943Y-96520000D01*
X82101224Y-95947877D01*
X82240040Y-95250000D01*
X82101224Y-94552123D01*
X81718943Y-93980000D01*
X82101224Y-93407877D01*
X82240040Y-92710000D01*
X82101224Y-92012123D01*
X81718943Y-91440000D01*
X82101224Y-90867877D01*
X82240040Y-90170000D01*
X82224291Y-90090822D01*
X88495000Y-90090822D01*
X88495000Y-90757178D01*
X88750004Y-91372811D01*
X89221189Y-91843996D01*
X89836822Y-92099000D01*
X90503178Y-92099000D01*
X91118811Y-91843996D01*
X91589996Y-91372811D01*
X91845000Y-90757178D01*
X91845000Y-90090822D01*
X91651000Y-89622465D01*
X91651000Y-83082000D01*
X92281178Y-83082000D01*
X92896811Y-82826996D01*
X93367996Y-82355811D01*
X93623000Y-81740178D01*
X93623000Y-81073822D01*
X93367996Y-80458189D01*
X93055526Y-80145719D01*
X93083855Y-75386082D01*
X93084500Y-75382839D01*
X93084500Y-75277718D01*
X93085125Y-75172710D01*
X93084500Y-75169467D01*
X93084500Y-64770000D01*
X93527960Y-64770000D01*
X93666776Y-65467877D01*
X94049057Y-66040000D01*
X93666776Y-66612123D01*
X93527960Y-67310000D01*
X93666776Y-68007877D01*
X94049057Y-68580000D01*
X93666776Y-69152123D01*
X93527960Y-69850000D01*
X93666776Y-70547877D01*
X94049057Y-71120000D01*
X93666776Y-71692123D01*
X93527960Y-72390000D01*
X93666776Y-73087877D01*
X94049057Y-73660000D01*
X93666776Y-74232123D01*
X93527960Y-74930000D01*
X93666776Y-75627877D01*
X94049057Y-76200000D01*
X93666776Y-76772123D01*
X93527960Y-77470000D01*
X93666776Y-78167877D01*
X94049057Y-78740000D01*
X93666776Y-79312123D01*
X93527960Y-80010000D01*
X93666776Y-80707877D01*
X94049057Y-81280000D01*
X93666776Y-81852123D01*
X93527960Y-82550000D01*
X93666776Y-83247877D01*
X94049057Y-83820000D01*
X93666776Y-84392123D01*
X93527960Y-85090000D01*
X93666776Y-85787877D01*
X94049057Y-86360000D01*
X93666776Y-86932123D01*
X93527960Y-87630000D01*
X93666776Y-88327877D01*
X94049057Y-88900000D01*
X93666776Y-89472123D01*
X93527960Y-90170000D01*
X93666776Y-90867877D01*
X94049057Y-91440000D01*
X93666776Y-92012123D01*
X93527960Y-92710000D01*
X93666776Y-93407877D01*
X94049057Y-93980000D01*
X93666776Y-94552123D01*
X93527960Y-95250000D01*
X93666776Y-95947877D01*
X94049057Y-96520000D01*
X93666776Y-97092123D01*
X93527960Y-97790000D01*
X93666776Y-98487877D01*
X94049057Y-99060000D01*
X93666776Y-99632123D01*
X93527960Y-100330000D01*
X93666776Y-101027877D01*
X94062092Y-101619508D01*
X94653723Y-102014824D01*
X95175442Y-102118600D01*
X95832558Y-102118600D01*
X96354277Y-102014824D01*
X96945908Y-101619508D01*
X97341224Y-101027877D01*
X97480040Y-100330000D01*
X97341224Y-99632123D01*
X96958943Y-99060000D01*
X97341224Y-98487877D01*
X97480040Y-97790000D01*
X97341224Y-97092123D01*
X96958943Y-96520000D01*
X97341224Y-95947877D01*
X97480040Y-95250000D01*
X97341224Y-94552123D01*
X96958943Y-93980000D01*
X97341224Y-93407877D01*
X97480040Y-92710000D01*
X97341224Y-92012123D01*
X96958943Y-91440000D01*
X97341224Y-90867877D01*
X97480040Y-90170000D01*
X97341224Y-89472123D01*
X96958943Y-88900000D01*
X97341224Y-88327877D01*
X97480040Y-87630000D01*
X97341224Y-86932123D01*
X96958943Y-86360000D01*
X97341224Y-85787877D01*
X97480040Y-85090000D01*
X97341224Y-84392123D01*
X96958943Y-83820000D01*
X97341224Y-83247877D01*
X97480040Y-82550000D01*
X97341224Y-81852123D01*
X96958943Y-81280000D01*
X97341224Y-80707877D01*
X97480040Y-80010000D01*
X97341224Y-79312123D01*
X96958943Y-78740000D01*
X97341224Y-78167877D01*
X97480040Y-77470000D01*
X97341224Y-76772123D01*
X96958943Y-76200000D01*
X97341224Y-75627877D01*
X97480040Y-74930000D01*
X97341224Y-74232123D01*
X96958943Y-73660000D01*
X97341224Y-73087877D01*
X97480040Y-72390000D01*
X97341224Y-71692123D01*
X96958943Y-71120000D01*
X97341224Y-70547877D01*
X97480040Y-69850000D01*
X97341224Y-69152123D01*
X96958943Y-68580000D01*
X97341224Y-68007877D01*
X97480040Y-67310000D01*
X97341224Y-66612123D01*
X96958943Y-66040000D01*
X97341224Y-65467877D01*
X97480040Y-64770000D01*
X97341224Y-64072123D01*
X96945908Y-63480492D01*
X96354277Y-63085176D01*
X95832558Y-62981400D01*
X95175442Y-62981400D01*
X94653723Y-63085176D01*
X94062092Y-63480492D01*
X93666776Y-64072123D01*
X93527960Y-64770000D01*
X93084500Y-64770000D01*
X93084500Y-63792134D01*
X96332206Y-60544428D01*
X96424056Y-60483056D01*
X96667177Y-60119199D01*
X96727288Y-59817000D01*
X96752550Y-59690001D01*
X96731000Y-59581662D01*
X96731000Y-38020000D01*
X96756015Y-38020000D01*
X97426780Y-37742160D01*
X97940160Y-37228780D01*
X98218000Y-36558015D01*
X98218000Y-35831985D01*
X97940160Y-35161220D01*
X97426780Y-34647840D01*
X96756015Y-34370000D01*
X96029985Y-34370000D01*
X95414896Y-34624778D01*
X95113917Y-34423670D01*
X94753000Y-34351879D01*
X92953000Y-34351879D01*
X92592083Y-34423670D01*
X92286113Y-34628113D01*
X92081670Y-34934083D01*
X92009879Y-35295000D01*
X92009879Y-37095000D01*
X92081670Y-37455917D01*
X92286113Y-37761887D01*
X92592083Y-37966330D01*
X92953000Y-38038121D01*
X93388001Y-38038121D01*
X93388000Y-58980365D01*
X89849792Y-62518574D01*
X89757945Y-62579944D01*
X89696576Y-62671790D01*
X89514823Y-62943802D01*
X89429450Y-63373000D01*
X89451001Y-63481344D01*
X89451000Y-88908813D01*
X89221189Y-89004004D01*
X88750004Y-89475189D01*
X88495000Y-90090822D01*
X82224291Y-90090822D01*
X82101224Y-89472123D01*
X81718943Y-88900000D01*
X82101224Y-88327877D01*
X82240040Y-87630000D01*
X82101224Y-86932123D01*
X81718943Y-86360000D01*
X82101224Y-85787877D01*
X82240040Y-85090000D01*
X82101224Y-84392123D01*
X81718943Y-83820000D01*
X82101224Y-83247877D01*
X82240040Y-82550000D01*
X82101224Y-81852123D01*
X81718943Y-81280000D01*
X82101224Y-80707877D01*
X82240040Y-80010000D01*
X82101224Y-79312123D01*
X81718943Y-78740000D01*
X82101224Y-78167877D01*
X82240040Y-77470000D01*
X82101224Y-76772123D01*
X81718943Y-76200000D01*
X82101224Y-75627877D01*
X82240040Y-74930000D01*
X82101224Y-74232123D01*
X81718943Y-73660000D01*
X82101224Y-73087877D01*
X82240040Y-72390000D01*
X82101224Y-71692123D01*
X81718943Y-71120000D01*
X82101224Y-70547877D01*
X82240040Y-69850000D01*
X82101224Y-69152123D01*
X81718943Y-68580000D01*
X82101224Y-68007877D01*
X82240040Y-67310000D01*
X82101224Y-66612123D01*
X81718943Y-66040000D01*
X82101224Y-65467877D01*
X82240040Y-64770000D01*
X82101224Y-64072123D01*
X81705908Y-63480492D01*
X81114277Y-63085176D01*
X80592558Y-62981400D01*
X79935442Y-62981400D01*
X79413723Y-63085176D01*
X78822092Y-63480492D01*
X78426776Y-64072123D01*
X78287960Y-64770000D01*
X56389044Y-64770000D01*
X56419990Y-54821000D01*
X65025193Y-54821000D01*
X65345189Y-55140996D01*
X65960822Y-55396000D01*
X66627178Y-55396000D01*
X67242811Y-55140996D01*
X67713996Y-54669811D01*
X67969000Y-54054178D01*
X67969000Y-53387822D01*
X67713996Y-52772189D01*
X67242811Y-52301004D01*
X66627178Y-52046000D01*
X65960822Y-52046000D01*
X65345189Y-52301004D01*
X65025193Y-52621000D01*
X57927847Y-52621000D01*
X60711313Y-50165000D01*
X74136226Y-50165000D01*
X74273987Y-50857571D01*
X74659814Y-51435000D01*
X74273987Y-52012429D01*
X74136226Y-52705000D01*
X74273987Y-53397571D01*
X74659814Y-53975000D01*
X74273987Y-54552429D01*
X74136226Y-55245000D01*
X74273987Y-55937571D01*
X74666297Y-56524703D01*
X75253429Y-56917013D01*
X75771179Y-57020000D01*
X76120821Y-57020000D01*
X76638571Y-56917013D01*
X77225703Y-56524703D01*
X77618013Y-55937571D01*
X77755774Y-55245000D01*
X77618013Y-54552429D01*
X77232186Y-53975000D01*
X77618013Y-53397571D01*
X77755774Y-52705000D01*
X77618013Y-52012429D01*
X77232186Y-51435000D01*
X77618013Y-50857571D01*
X77755774Y-50165000D01*
X77618013Y-49472429D01*
X77417441Y-49172253D01*
X77462887Y-49141887D01*
X77667330Y-48835917D01*
X77739121Y-48475000D01*
X77739121Y-46775000D01*
X77667330Y-46414083D01*
X77462887Y-46108113D01*
X77156917Y-45903670D01*
X76796000Y-45831879D01*
X75096000Y-45831879D01*
X74735083Y-45903670D01*
X74429113Y-46108113D01*
X74224670Y-46414083D01*
X74152879Y-46775000D01*
X74152879Y-48475000D01*
X74224670Y-48835917D01*
X74429113Y-49141887D01*
X74474559Y-49172253D01*
X74273987Y-49472429D01*
X74136226Y-50165000D01*
X60711313Y-50165000D01*
X64061921Y-47208582D01*
X64154424Y-47114399D01*
X64523409Y-46680726D01*
X64663774Y-46457903D01*
X64895595Y-45937825D01*
X64967480Y-45684475D01*
X65043346Y-45120146D01*
X65051554Y-44988390D01*
X64961872Y-35242900D01*
X76934500Y-35242900D01*
X76934500Y-37401100D01*
X77760407Y-39395016D01*
X79286484Y-40921093D01*
X81280400Y-41747000D01*
X83438600Y-41747000D01*
X85432516Y-40921093D01*
X86958593Y-39395016D01*
X87784500Y-37401100D01*
X87784500Y-35242900D01*
X86958593Y-33248984D01*
X85432516Y-31722907D01*
X83438600Y-30897000D01*
X81280400Y-30897000D01*
X79286484Y-31722907D01*
X77760407Y-33248984D01*
X76934500Y-35242900D01*
X64961872Y-35242900D01*
X64887697Y-27182584D01*
X64878771Y-27062628D01*
X64806681Y-26548595D01*
X64784471Y-26468177D01*
X100497973Y-26438831D01*
X101197056Y-27137914D01*
G04 #@! TD*
M02*
