M48
METRIC,TZ
T1C0.900
T2C1.000
T3C1.016
T4C1.200
T5C4.500
%
G90
G05
T1
X35306Y51308
X37846Y51308
T2
X-30988Y24257
X-21844Y-40177
X-21717Y54610
X-21590Y58801
X-21590Y-5430
X-19685Y58852
X-19431Y53848
X-19431Y-5461
X-19431Y-40132
X-19304Y24892
X-19050Y51816
X-19050Y27813
X-17475Y58852
X-16383Y-2032
X-16383Y-33655
X-16383Y-36703
X-16256Y31242
X-16256Y27813
X-14351Y-1879
X-7493Y33782
X-4953Y-8001
X7747Y33782
X31623Y-2921
X33401Y6096
X17399Y39878
X17399Y37338
X17399Y34798
X17399Y32258
T3
X21717Y22733
X21717Y20193
X21717Y17653
X21717Y15113
X21717Y12573
X21717Y10033
X21717Y7493
X21717Y4953
X21717Y2413
X21717Y-127
X21717Y-2667
X21717Y-5207
X21717Y-7747
X21717Y-10287
X21717Y-12827
X36957Y22733
X36957Y20193
X36957Y17653
X36957Y15113
X36957Y12573
X36957Y10033
X36957Y7493
X36957Y4953
X36957Y2413
X36957Y-127
X36957Y-2667
X36957Y-5207
X36957Y-7747
X36957Y-10287
X36957Y-12827
T4
X-26162Y48768
X-26162Y45268
X-26162Y41768
X-26162Y38268
X-26162Y34768
X-26162Y31268
X-26162Y27768
X-26162Y24268
X-26162Y15570
X-26162Y12070
X-26162Y8570
X-26162Y5070
X-26162Y1570
X-26162Y-1930
X-26162Y-5430
X-26162Y-8930
X-26162Y58801
X-26162Y55301
X-26162Y-19177
X-26162Y-22677
X-26162Y-26177
X-26162Y-29677
X-26162Y-33177
X-26162Y-36677
X-26162Y-40177
X-26162Y-43677
X-11303Y15621
X-11303Y12121
X-11303Y8621
X-11303Y5121
X-11303Y1621
X-11303Y-1879
X-11303Y-5379
X-11303Y-8879
X-26289Y-50292
X-26289Y-53792
X-26289Y-57292
X-26289Y-60792
X-26289Y-64292
X-26289Y-67792
X-26289Y-71292
X-26289Y-74792
T5
X23813Y51181
X-9843Y-54102
X-9779Y51181
X23749Y-54039
T0
M30
