0
SECTION
2
HEADER
9
$INSUNITS
70
4
9
$ACADVER
1
AC1014
9
$HANDSEED
5
FFFF
0
ENDSEC
0
SECTION
2
TABLES
0
TABLE
2
VPORT
5
8
100
AcDbSymbolTable
0
ENDTAB
0
TABLE
2
LTYPE
5
5
100
AcDbSymbolTable
0
LTYPE
5
14
100
AcDbSymbolTableRecord
100
AcDbLinetypeTableRecord
2
BYBLOCK
70
0
0
LTYPE
5
15
100
AcDbSymbolTableRecord
100
AcDbLinetypeTableRecord
2
BYLAYER
70
0
0
ENDTAB
0
TABLE
2
LAYER
5
2
100
AcDbSymbolTable
70
2
0
LAYER
5
50
100
AcDbSymbolTableRecord
100
AcDbLayerTableRecord
2
0
70
0
6
CONTINUOUS
0
ENDTAB
0
TABLE
2
STYLE
5
3
100
AcDbSymbolTable
70
1
0
STYLE
5
11
100
AcDbSymbolTableRecord
100
AcDbTextStyleTableRecord
2
STANDARD
70
0
0
ENDTAB
0
TABLE
2
VIEW
5
6
100
AcDbSymbolTable
70
0
0
ENDTAB
0
TABLE
2
UCS
5
7
100
AcDbSymbolTable
70
0
0
ENDTAB
0
TABLE
2
APPID
5
9
100
AcDbSymbolTable
70
2
0
APPID
5
12
100
AcDbSymbolTableRecord
100
AcDbRegAppTableRecord
2
ACAD
70
0
0
ENDTAB
0
TABLE
2
DIMSTYLE
5
A
100
AcDbSymbolTable
70
1
0
ENDTAB
0
TABLE
2
BLOCK_RECORD
5
1
100
AcDbSymbolTable
70
1
0
BLOCK_RECORD
5
1F
100
AcDbSymbolTableRecord
100
AcDbBlockTableRecord
2
*MODEL_SPACE
0
BLOCK_RECORD
5
1B
100
AcDbSymbolTableRecord
100
AcDbBlockTableRecord
2
*PAPER_SPACE
0
ENDTAB
0
ENDSEC
0
SECTION
2
BLOCKS
0
BLOCK
5
20
100
AcDbEntity
100
AcDbBlockBegin
2
*MODEL_SPACE
0
ENDBLK
5
21
100
AcDbEntity
100
AcDbBlockEnd
0
BLOCK
5
1C
100
AcDbEntity
100
AcDbBlockBegin
2
*PAPER_SPACE
0
ENDBLK
5
1D
100
AcDbEntity
100
AcDbBlockEnd
0
ENDSEC
0
SECTION
2
ENTITIES
0
LWPOLYLINE
5
100
100
AcDbEntity
8
0
100
AcDbPolyline
90
4
70
1
43
0.0
10
0
20
0
10
0
20
2440
10
1220
20
2440
10
1220
20
0
0
LWPOLYLINE
5
101
100
AcDbEntity
8
0
100
AcDbPolyline
90
60
70
1
43
0.0
10
973.63402860617828
20
2213.8582867155365
10
973.63402860617828
20
2121.8582867155365
10
981.63402860617316
20
2121.8582867155383
10
981.63402860617668
20
2105.8582867155387
10
973.63402860617668
20
2105.8582867155365
10
973.63402860617794
20
2100.3582867155365
10
913.63402860617816
20
2100.3582867155224
10
913.63402860617884
20
2097.3582867155219
10
973.63402860617862
20
2097.3582867155365
10
973.6340286061801
20
2091.8582867155365
10
981.6340286061801
20
2091.8582867155383
10
981.63402860618373
20
2075.8582867155387
10
973.63402860617816
20
2075.8582867155365
10
973.63402860617816
20
1825.8582867155378
10
981.63402860617293
20
1825.8582867155396
10
981.63402860617668
20
1809.8582867155401
10
973.63402860617668
20
1809.858286715538
10
973.63402860617794
20
1804.3582867155378
10
913.63402860617816
20
1804.3582867155237
10
913.63402860617884
20
1801.3582867155237
10
973.63402860617862
20
1801.3582867155378
10
973.63402860617998
20
1795.858286715538
10
981.6340286061801
20
1795.8582867155396
10
981.63402860618362
20
1779.8582867155401
10
973.63402860617816
20
1779.858286715538
10
973.63402860617816
20
1672.8582867155387
10
773.63402860617862
20
1672.8582867155385
10
773.6340286061785
20
1779.8582867155374
10
765.63402860617862
20
1779.8582867155371
10
765.63402860617873
20
1795.8582867155371
10
773.63402860617862
20
1795.8582867155371
10
773.6340286061785
20
1801.3582867155376
10
833.63402860617839
20
1801.3582867155374
10
833.6340286061785
20
1804.3582867155374
10
773.63402860617862
20
1804.3582867155374
10
773.6340286061785
20
1809.8582867155371
10
765.63402860617862
20
1809.8582867155371
10
765.63402860617873
20
1825.8582867155371
10
773.6340286061785
20
1825.8582867155371
10
773.6340286061785
20
1905.8582867155374
10
873.63402860617839
20
1905.8582867155351
10
873.63402860617839
20
1917.8582867155362
10
773.63402860617862
20
1917.8582867155374
10
773.6340286061785
20
2075.858286715536
10
765.63402860617862
20
2075.8582867155355
10
765.63402860617873
20
2091.8582867155355
10
773.63402860617862
20
2091.8582867155355
10
773.63402860617862
20
2097.358286715536
10
833.6340286061785
20
2097.358286715536
10
833.6340286061785
20
2100.358286715536
10
773.63402860617862
20
2100.358286715536
10
773.6340286061785
20
2105.858286715536
10
765.63402860617862
20
2105.8582867155355
10
765.63402860617873
20
2121.8582867155355
10
773.63402860617862
20
2121.8582867155355
10
773.63402860617862
20
2185.8582867155369
10
873.6340286061785
20
2185.8582867155342
10
873.6340286061785
20
2197.8582867155351
10
773.63402860617862
20
2197.858286715536
10
773.63402860617862
20
2213.858286715536
0
LWPOLYLINE
5
102
100
AcDbEntity
8
0
100
AcDbPolyline
90
60
70
1
43
0.0
10
730.63402860617839
20
2213.858286715536
10
730.63402860617839
20
2121.8582867155365
10
738.63402860617327
20
2121.8582867155378
10
738.6340286061768
20
2105.8582867155378
10
730.6340286061768
20
2105.858286715536
10
730.63402860617816
20
2100.358286715536
10
670.63402860617828
20
2100.3582867155219
10
670.63402860617896
20
2097.3582867155214
10
730.63402860617884
20
2097.358286715536
10
730.63402860618021
20
2091.858286715536
10
738.63402860618021
20
2091.8582867155383
10
738.63402860618396
20
2075.8582867155383
10
730.63402860617828
20
2075.8582867155365
10
730.63402860617828
20
1825.8582867155374
10
738.63402860617316
20
1825.8582867155392
10
738.6340286061768
20
1809.8582867155394
10
730.6340286061768
20
1809.8582867155374
10
730.63402860617816
20
1804.3582867155374
10
670.63402860617828
20
1804.3582867155233
10
670.63402860617896
20
1801.358286715523
10
730.63402860617884
20
1801.3582867155376
10
730.6340286061801
20
1795.8582867155374
10
738.63402860618021
20
1795.8582867155394
10
738.63402860618385
20
1779.8582867155394
10
730.63402860617828
20
1779.8582867155378
10
730.63402860617828
20
1672.8582867155385
10
530.63402860617873
20
1672.8582867155378
10
530.63402860617873
20
1779.8582867155369
10
522.63402860617873
20
1779.8582867155369
10
522.63402860617884
20
1795.8582867155369
10
530.63402860617873
20
1795.8582867155369
10
530.63402860617873
20
1801.3582867155374
10
590.63402860617862
20
1801.3582867155369
10
590.63402860617862
20
1804.3582867155369
10
530.63402860617873
20
1804.3582867155371
10
530.63402860617873
20
1809.8582867155369
10
522.63402860617873
20
1809.8582867155367
10
522.63402860617884
20
1825.8582867155365
10
530.63402860617873
20
1825.8582867155369
10
530.63402860617873
20
1905.8582867155371
10
630.63402860617862
20
1905.8582867155349
10
630.63402860617862
20
1917.858286715536
10
530.63402860617873
20
1917.8582867155367
10
530.63402860617873
20
2075.8582867155355
10
522.63402860617873
20
2075.8582867155355
10
522.63402860617884
20
2091.8582867155355
10
530.63402860617873
20
2091.8582867155355
10
530.63402860617873
20
2097.3582867155355
10
590.63402860617862
20
2097.3582867155355
10
590.63402860617862
20
2100.3582867155355
10
530.63402860617873
20
2100.3582867155355
10
530.63402860617873
20
2105.8582867155355
10
522.63402860617873
20
2105.8582867155355
10
522.63402860617884
20
2121.8582867155355
10
530.63402860617873
20
2121.8582867155355
10
530.63402860617884
20
2185.8582867155365
10
630.63402860617873
20
2185.8582867155337
10
630.63402860617873
20
2197.8582867155346
10
530.63402860617884
20
2197.8582867155355
10
530.63402860617884
20
2213.858286715536
0
LWPOLYLINE
5
103
100
AcDbEntity
8
0
100
AcDbPolyline
90
60
70
1
43
0.0
10
487.63402860617805
20
2213.858286715536
10
487.63402860617805
20
2121.858286715536
10
495.63402860617288
20
2121.8582867155378
10
495.63402860617657
20
2105.8582867155378
10
487.63402860617657
20
2105.858286715536
10
487.63402860617788
20
2100.358286715536
10
427.63402860617794
20
2100.3582867155219
10
427.63402860617873
20
2097.3582867155214
10
487.63402860617862
20
2097.3582867155355
10
487.63402860617987
20
2091.858286715536
10
495.63402860617992
20
2091.8582867155378
10
495.63402860618351
20
2075.8582867155378
10
487.63402860617805
20
2075.858286715536
10
487.63402860617805
20
1825.8582867155371
10
495.63402860617288
20
1825.8582867155392
10
495.63402860617651
20
1809.8582867155394
10
487.63402860617651
20
1809.8582867155374
10
487.63402860617782
20
1804.3582867155374
10
427.63402860617794
20
1804.3582867155233
10
427.63402860617862
20
1801.358286715523
10
487.6340286061785
20
1801.3582867155374
10
487.63402860617987
20
1795.8582867155374
10
495.63402860617987
20
1795.8582867155392
10
495.63402860618351
20
1779.8582867155394
10
487.63402860617805
20
1779.8582867155374
10
487.63402860617805
20
1672.8582867155383
10
287.63402860617839
20
1672.8582867155378
10
287.63402860617845
20
1779.8582867155369
10
279.63402860617845
20
1779.8582867155367
10
279.63402860617845
20
1795.8582867155365
10
287.63402860617845
20
1795.8582867155365
10
287.63402860617845
20
1801.3582867155369
10
347.63402860617828
20
1801.3582867155367
10
347.63402860617828
20
1804.3582867155369
10
287.63402860617845
20
1804.3582867155369
10
287.63402860617845
20
1809.8582867155367
10
279.63402860617845
20
1809.8582867155367
10
279.63402860617845
20
1825.8582867155365
10
287.63402860617845
20
1825.8582867155365
10
287.63402860617839
20
1905.8582867155369
10
387.63402860617822
20
1905.8582867155346
10
387.63402860617822
20
1917.8582867155355
10
287.63402860617839
20
1917.8582867155367
10
287.63402860617845
20
2075.8582867155355
10
279.63402860617845
20
2075.8582867155351
10
279.63402860617845
20
2091.8582867155351
10
287.63402860617845
20
2091.8582867155351
10
287.63402860617845
20
2097.3582867155355
10
347.63402860617828
20
2097.3582867155355
10
347.63402860617828
20
2100.3582867155355
10
287.63402860617845
20
2100.3582867155355
10
287.63402860617845
20
2105.8582867155355
10
279.63402860617845
20
2105.8582867155351
10
279.63402860617845
20
2121.8582867155351
10
287.63402860617845
20
2121.8582867155351
10
287.63402860617845
20
2185.8582867155365
10
387.63402860617828
20
2185.8582867155337
10
387.63402860617828
20
2197.8582867155346
10
287.6340286061785
20
2197.8582867155355
10
287.6340286061785
20
2213.8582867155355
0
LWPOLYLINE
5
104
100
AcDbEntity
8
0
100
AcDbPolyline
90
60
70
1
43
0.0
10
244.6340286061783
20
2213.8582867155355
10
244.6340286061783
20
2121.8582867155355
10
252.63402860617308
20
2121.8582867155374
10
252.63402860617686
20
2105.8582867155374
10
244.63402860617686
20
2105.8582867155355
10
244.63402860617811
20
2100.3582867155355
10
184.63402860617822
20
2100.358286715521
10
184.63402860617893
20
2097.358286715521
10
244.63402860617884
20
2097.3582867155355
10
244.63402860618007
20
2091.8582867155355
10
252.6340286061801
20
2091.8582867155378
10
252.63402860618385
20
2075.8582867155378
10
244.6340286061783
20
2075.8582867155355
10
244.63402860617822
20
1825.8582867155369
10
252.63402860617305
20
1825.8582867155385
10
252.6340286061768
20
1809.858286715539
10
244.6340286061768
20
1809.8582867155369
10
244.63402860617805
20
1804.3582867155369
10
184.63402860617822
20
1804.3582867155226
10
184.6340286061789
20
1801.3582867155224
10
244.63402860617879
20
1801.3582867155369
10
244.63402860618004
20
1795.8582867155369
10
252.63402860618004
20
1795.8582867155387
10
252.63402860618382
20
1779.858286715539
10
244.63402860617828
20
1779.8582867155371
10
244.63402860617828
20
1672.8582867155378
10
44.634028606178674
20
1672.8582867155374
10
44.634028606178674
20
1779.8582867155365
10
36.634028606178674
20
1779.8582867155365
10
36.634028606178703
20
1795.8582867155362
10
44.634028606178688
20
1795.8582867155362
10
44.63402860617866
20
1801.3582867155367
10
104.63402860617853
20
1801.3582867155365
10
104.63402860617855
20
1804.3582867155362
10
44.634028606178688
20
1804.3582867155365
10
44.634028606178674
20
1809.8582867155365
10
36.634028606178674
20
1809.858286715536
10
36.634028606178703
20
1825.858286715536
10
44.634028606178674
20
1825.8582867155362
10
44.634028606178653
20
1905.8582867155365
10
144.63402860617848
20
1905.8582867155342
10
144.63402860617848
20
1917.8582867155353
10
44.63402860617866
20
1917.8582867155362
10
44.634028606178674
20
2075.8582867155346
10
36.634028606178674
20
2075.8582867155346
10
36.634028606178703
20
2091.8582867155346
10
44.634028606178688
20
2091.8582867155346
10
44.634028606178688
20
2097.3582867155351
10
104.63402860617856
20
2097.3582867155351
10
104.63402860617856
20
2100.3582867155351
10
44.634028606178688
20
2100.3582867155351
10
44.634028606178674
20
2105.8582867155346
10
36.634028606178674
20
2105.8582867155346
10
36.634028606178703
20
2121.8582867155346
10
44.634028606178681
20
2121.8582867155346
10
44.634028606178703
20
2185.8582867155355
10
144.63402860617859
20
2185.8582867155333
10
144.63402860617856
20
2197.8582867155342
10
44.634028606178759
20
2197.8582867155351
10
44.634028606178688
20
2213.8582867155351
0
CIRCLE
5
105
100
AcDbEntity
8
0
100
AcDbCircle
10
538.44664034814218
20
1582.7034502758515
30
2.2204460492503131e-15
40
3.999999999999984
0
CIRCLE
5
106
100
AcDbEntity
8
0
100
AcDbCircle
10
600.44664034805749
20
1582.7034502758761
30
2.2204460492503131e-15
40
3.999999999999984
0
LWPOLYLINE
5
107
100
AcDbEntity
8
0
100
AcDbPolyline
90
5
70
1
43
0.0
10
884.4466403481124
20
1642.7034502758625
42
-0.41421356237308671
10
894.44664034811024
20
1632.7034502758604
10
894.44664034809512
20
1562.7034502758606
10
5.4466403480987697
20
1562.7034502760598
10
5.4466403481161763
20
1642.7034502760591
0
CIRCLE
5
108
100
AcDbEntity
8
0
100
AcDbCircle
10
204.44664034811268
20
1634.7034502760127
30
0
40
3.0000000000000924
0
CIRCLE
5
109
100
AcDbEntity
8
0
100
AcDbCircle
10
504.44664034811154
20
1634.7034502759452
30
0
40
3.0000000000000924
0
CIRCLE
5
110
100
AcDbEntity
8
0
100
AcDbCircle
10
84.446640348113249
20
1634.7034502760393
30
0
40
2.7499999999997531
0
CIRCLE
5
111
100
AcDbEntity
8
0
100
AcDbCircle
10
234.44664034811268
20
1634.7034502760062
30
0
40
2.7499999999997531
0
CIRCLE
5
112
100
AcDbEntity
8
0
100
AcDbCircle
10
384.44664034811194
20
1634.7034502759723
30
0
40
2.7499999999997531
0
CIRCLE
5
113
100
AcDbEntity
8
0
100
AcDbCircle
10
534.44664034811137
20
1634.7034502759388
30
0
40
2.7499999999997531
0
CIRCLE
5
114
100
AcDbEntity
8
0
100
AcDbCircle
10
684.44664034811069
20
1634.7034502759052
30
0
40
2.7499999999997531
0
CIRCLE
5
115
100
AcDbEntity
8
0
100
AcDbCircle
10
804.44664034811024
20
1634.7034502758786
30
0
40
3.0000000000000924
0
CIRCLE
5
116
100
AcDbEntity
8
0
100
AcDbCircle
10
834.44664034811001
20
1634.7034502758718
30
0
40
2.7499999999997531
0
CIRCLE
5
117
100
AcDbEntity
8
0
100
AcDbCircle
10
538.44664034812047
20
1494.7034502758468
30
0
40
3.9999999999999973
0
CIRCLE
5
118
100
AcDbEntity
8
0
100
AcDbCircle
10
600.446640348036
20
1494.7034502758711
30
0
40
3.9999999999999973
0
LWPOLYLINE
5
119
100
AcDbEntity
8
0
100
AcDbPolyline
90
5
70
1
43
0.0
10
884.44664034809182
20
1554.7034502758579
42
-0.4142135623730992
10
894.44664034808966
20
1544.7034502758556
10
894.44664034807442
20
1474.7034502758556
10
5.446640348075265
20
1474.7034502760544
10
5.4466403480925862
20
1554.7034502760541
0
CIRCLE
5
120
100
AcDbEntity
8
0
100
AcDbCircle
10
204.44664034809
20
1546.703450276008
30
-2.2204460492503131e-15
40
3.0000000000001026
0
CIRCLE
5
121
100
AcDbEntity
8
0
100
AcDbCircle
10
504.44664034808972
20
1546.7034502759407
30
-2.2204460492503131e-15
40
3.0000000000001026
0
CIRCLE
5
122
100
AcDbEntity
8
0
100
AcDbCircle
10
84.446640348090085
20
1546.7034502760348
30
0
40
2.749999999999762
0
CIRCLE
5
123
100
AcDbEntity
8
0
100
AcDbCircle
10
234.44664034808989
20
1546.7034502760011
30
-2.2204460492503131e-15
40
2.749999999999762
0
CIRCLE
5
124
100
AcDbEntity
8
0
100
AcDbCircle
10
384.44664034808989
20
1546.7034502759677
30
0
40
2.749999999999762
0
CIRCLE
5
125
100
AcDbEntity
8
0
100
AcDbCircle
10
534.44664034808977
20
1546.7034502759338
30
-2.2204460492503131e-15
40
2.749999999999762
0
CIRCLE
5
126
100
AcDbEntity
8
0
100
AcDbCircle
10
684.44664034808966
20
1546.7034502759002
30
0
40
2.749999999999762
0
CIRCLE
5
127
100
AcDbEntity
8
0
100
AcDbCircle
10
804.44664034808943
20
1546.7034502758736
30
-2.2204460492503131e-15
40
3.0000000000001026
0
CIRCLE
5
128
100
AcDbEntity
8
0
100
AcDbCircle
10
834.44664034808943
20
1546.7034502758668
30
-2.2204460492503131e-15
40
2.749999999999762
0
CIRCLE
5
129
100
AcDbEntity
8
0
100
AcDbCircle
10
538.44664034810148
20
1406.7034502758447
30
0
40
3.9999999999999973
0
CIRCLE
5
130
100
AcDbEntity
8
0
100
AcDbCircle
10
600.4466403480169
20
1406.703450275869
30
0
40
3.9999999999999973
0
LWPOLYLINE
5
131
100
AcDbEntity
8
0
100
AcDbPolyline
90
5
70
1
43
0.0
10
884.44664034807272
20
1466.7034502758561
42
-0.4142135623730992
10
894.44664034807056
20
1456.7034502758538
10
894.44664034805544
20
1386.7034502758534
10
5.4466403480562224
20
1386.7034502760523
10
5.4466403480735437
20
1466.7034502760523
0
CIRCLE
5
132
100
AcDbEntity
8
0
100
AcDbCircle
10
204.44664034807096
20
1458.7034502760059
30
0
40
3.0000000000001026
0
CIRCLE
5
133
100
AcDbEntity
8
0
100
AcDbCircle
10
504.44664034807067
20
1458.7034502759386
30
0
40
3.0000000000001026
0
CIRCLE
5
134
100
AcDbEntity
8
0
100
AcDbCircle
10
84.446640348071043
20
1458.7034502760325
30
0
40
2.749999999999762
0
CIRCLE
5
135
100
AcDbEntity
8
0
100
AcDbCircle
10
234.44664034807084
20
1458.7034502759991
30
-2.2204460492503131e-15
40
2.749999999999762
0
CIRCLE
5
136
100
AcDbEntity
8
0
100
AcDbCircle
10
384.44664034807084
20
1458.7034502759657
30
0
40
2.749999999999762
0
CIRCLE
5
137
100
AcDbEntity
8
0
100
AcDbCircle
10
534.44664034807067
20
1458.703450275932
30
0
40
2.749999999999762
0
CIRCLE
5
138
100
AcDbEntity
8
0
100
AcDbCircle
10
684.44664034807056
20
1458.7034502758984
30
0
40
2.749999999999762
0
CIRCLE
5
139
100
AcDbEntity
8
0
100
AcDbCircle
10
804.44664034807033
20
1458.7034502758718
30
0
40
3.0000000000001026
0
CIRCLE
5
140
100
AcDbEntity
8
0
100
AcDbCircle
10
834.44664034807033
20
1458.703450275865
30
0
40
2.749999999999762
0
CIRCLE
5
141
100
AcDbEntity
8
0
100
AcDbCircle
10
538.44664034808238
20
1318.7034502758468
30
2.2204460492503131e-15
40
3.9999999999999973
0
CIRCLE
5
142
100
AcDbEntity
8
0
100
AcDbCircle
10
600.44664034799791
20
1318.7034502758711
30
2.2204460492503131e-15
40
3.9999999999999973
0
LWPOLYLINE
5
143
100
AcDbEntity
8
0
100
AcDbPolyline
90
5
70
1
43
0.0
10
884.44664034805373
20
1378.7034502758581
42
-0.4142135623730992
10
894.44664034805157
20
1368.7034502758559
10
894.44664034803634
20
1298.7034502758556
10
5.4466403480371799
20
1298.7034502760546
10
5.4466403480545011
20
1378.7034502760546
0
CIRCLE
5
144
100
AcDbEntity
8
0
100
AcDbCircle
10
204.44664034805191
20
1370.703450276008
30
0
40
3.0000000000001026
0
CIRCLE
5
145
100
AcDbEntity
8
0
100
AcDbCircle
10
504.44664034805163
20
1370.7034502759407
30
0
40
3.0000000000001026
0
CIRCLE
5
146
100
AcDbEntity
8
0
100
AcDbCircle
10
84.446640348052
20
1370.7034502760348
30
0
40
2.749999999999762
0
CIRCLE
5
147
100
AcDbEntity
8
0
100
AcDbCircle
10
234.4466403480518
20
1370.7034502760011
30
0
40
2.749999999999762
0
CIRCLE
5
148
100
AcDbEntity
8
0
100
AcDbCircle
10
384.4466403480518
20
1370.7034502759677
30
0
40
2.749999999999762
0
CIRCLE
5
149
100
AcDbEntity
8
0
100
AcDbCircle
10
534.44664034805169
20
1370.7034502759343
30
0
40
2.749999999999762
0
CIRCLE
5
150
100
AcDbEntity
8
0
100
AcDbCircle
10
684.44664034805157
20
1370.7034502759007
30
0
40
2.749999999999762
0
CIRCLE
5
151
100
AcDbEntity
8
0
100
AcDbCircle
10
804.44664034805123
20
1370.7034502758738
30
0
40
3.0000000000001026
0
CIRCLE
5
152
100
AcDbEntity
8
0
100
AcDbCircle
10
834.44664034805123
20
1370.703450275867
30
0
40
2.749999999999762
0
CIRCLE
5
153
100
AcDbEntity
8
0
100
AcDbCircle
10
1115.1977298816569
20
1218.2252420560314
30
0
40
3.0000000000000866
0
CIRCLE
5
154
100
AcDbEntity
8
0
100
AcDbCircle
10
815.19772988165846
20
1218.2252420560358
30
-2.2204460492503131e-15
40
3.0000000000000866
0
CIRCLE
5
155
100
AcDbEntity
8
0
100
AcDbCircle
10
623.19772988165948
20
1218.2252420560385
30
-2.2204460492503131e-15
40
2.7499999999997478
0
CIRCLE
5
156
100
AcDbEntity
8
0
100
AcDbCircle
10
1145.1977298816569
20
1218.225242056031
30
0
40
2.7499999999997478
0
CIRCLE
5
157
100
AcDbEntity
8
0
100
AcDbCircle
10
695.19772988165892
20
1218.2252420560374
30
0
40
2.7499999999997478
0
CIRCLE
5
158
100
AcDbEntity
8
0
100
AcDbCircle
10
845.19772988165823
20
1218.2252420560351
30
0
40
2.7499999999997478
0
CIRCLE
5
159
100
AcDbEntity
8
0
100
AcDbCircle
10
995.19772988165755
20
1218.225242056033
30
0
40
2.7499999999997478
0
CIRCLE
5
160
100
AcDbEntity
8
0
100
AcDbCircle
10
597.19772988165937
20
1218.2252420560387
30
0
40
2.7499999999997478
0
CIRCLE
5
161
100
AcDbEntity
8
0
100
AcDbCircle
10
405.19772988166051
20
1218.2252420560415
30
-2.2204460492503131e-15
40
3.0000000000000866
0
CIRCLE
5
162
100
AcDbEntity
8
0
100
AcDbCircle
10
105.19772988166203
20
1218.2252420560458
30
-2.2204460492503131e-15
40
3.0000000000000866
0
CIRCLE
5
163
100
AcDbEntity
8
0
100
AcDbCircle
10
525.19772988165994
20
1218.2252420560396
30
-2.2204460492503131e-15
40
2.7499999999997478
0
CIRCLE
5
164
100
AcDbEntity
8
0
100
AcDbCircle
10
375.19772988166068
20
1218.2252420560419
30
0
40
2.7499999999997478
0
CIRCLE
5
165
100
AcDbEntity
8
0
100
AcDbCircle
10
225.19772988166147
20
1218.225242056044
30
0
40
2.7499999999997478
0
CIRCLE
5
166
100
AcDbEntity
8
0
100
AcDbCircle
10
75.19772988166217
20
1218.225242056046
30
0
40
2.7499999999997478
0
LWPOLYLINE
5
167
100
AcDbEntity
8
0
100
AcDbPolyline
90
4
70
1
43
0.0
10
1215.1977298816566
20
1290.2252420560283
10
1215.1977298816555
20
1210.2252420560287
10
5.1977298816617212
20
1210.2252420560453
10
5.1977298816628092
20
1290.2252420560446
0
CIRCLE
5
168
100
AcDbEntity
8
0
100
AcDbCircle
10
107.21084728210528
20
1192.1710686564868
30
0
40
3.0000000000000897
0
CIRCLE
5
169
100
AcDbEntity
8
0
100
AcDbCircle
10
407.21084728210394
20
1192.1710686566012
30
0
40
3.0000000000000897
0
CIRCLE
5
170
100
AcDbEntity
8
0
100
AcDbCircle
10
599.21084728210303
20
1192.1710686566742
30
0
40
2.7499999999997504
0
CIRCLE
5
171
100
AcDbEntity
8
0
100
AcDbCircle
10
77.210847282105277
20
1192.1710686564754
30
0
40
2.7499999999997504
0
CIRCLE
5
172
100
AcDbEntity
8
0
100
AcDbCircle
10
527.21084728210349
20
1192.1710686566466
30
0
40
2.7499999999997504
0
CIRCLE
5
173
100
AcDbEntity
8
0
100
AcDbCircle
10
377.21084728210417
20
1192.1710686565898
30
0
40
2.7499999999997504
0
CIRCLE
5
174
100
AcDbEntity
8
0
100
AcDbCircle
10
227.21084728210479
20
1192.1710686565327
30
0
40
2.7499999999997504
0
CIRCLE
5
175
100
AcDbEntity
8
0
100
AcDbCircle
10
625.21084728210315
20
1192.1710686566842
30
0
40
2.7499999999997504
0
CIRCLE
5
176
100
AcDbEntity
8
0
100
AcDbCircle
10
817.21084728210212
20
1192.1710686567574
30
0
40
3.0000000000000897
0
CIRCLE
5
177
100
AcDbEntity
8
0
100
AcDbCircle
10
1117.210847282101
20
1192.1710686568715
30
0
40
3.0000000000000897
0
CIRCLE
5
178
100
AcDbEntity
8
0
100
AcDbCircle
10
697.21084728210269
20
1192.1710686567117
30
0
40
2.7499999999997504
0
CIRCLE
5
179
100
AcDbEntity
8
0
100
AcDbCircle
10
847.21084728210201
20
1192.1710686567687
30
0
40
2.7499999999997504
0
CIRCLE
5
180
100
AcDbEntity
8
0
100
AcDbCircle
10
997.21084728210144
20
1192.1710686568258
30
0
40
2.7499999999997504
0
CIRCLE
5
181
100
AcDbEntity
8
0
100
AcDbCircle
10
1147.210847282101
20
1192.1710686568829
30
0
40
2.7499999999997504
0
LWPOLYLINE
5
182
100
AcDbEntity
8
0
100
AcDbPolyline
90
4
70
1
43
0.0
10
7.2108472821336065
20
1120.1710686564504
10
7.2108472821032876
20
1200.17106865645
10
1217.2108472820983
20
1200.1710686569115
10
1217.2108472821285
20
1120.171068656912
0
CIRCLE
5
183
100
AcDbEntity
8
0
100
AcDbCircle
10
105.00033333333349
20
114.00000000000006
30
0
40
2.5
0
LWPOLYLINE
5
184
100
AcDbEntity
8
0
100
AcDbPolyline
90
4
70
1
43
0.0
10
101.00033333333357
20
136.99999999999989
10
101.00033333333357
20
120.99999999999994
10
109.00033333333354
20
120.99999999999994
10
109.00033333333354
20
136.99999999999989
0
LWPOLYLINE
5
185
100
AcDbEntity
8
0
100
AcDbPolyline
90
4
70
1
43
0.0
10
109.00033333333354
20
666.99999999999989
10
101.00033333333357
20
666.99999999999989
10
101.00033333333357
20
651
10
109.00033333333354
20
651
0
CIRCLE
5
186
100
AcDbEntity
8
0
100
AcDbCircle
10
105.00033333333349
20
674
30
0
40
2.5
0
LWPOLYLINE
5
187
100
AcDbEntity
8
0
100
AcDbPolyline
90
4
70
1
43
0.0
10
109.00033333333354
20
696.99999999999989
10
101.00033333333357
20
696.99999999999989
10
101.00033333333357
20
681
10
109.00033333333354
20
681
0
LWPOLYLINE
5
188
100
AcDbEntity
8
0
100
AcDbPolyline
90
4
70
1
43
0.0
10
109.00033333333354
20
106.99999999999989
10
101.00033333333357
20
106.99999999999989
10
101.00033333333357
20
90.999999999999943
10
109.00033333333354
20
90.999999999999943
0
CIRCLE
5
189
100
AcDbEntity
8
0
100
AcDbCircle
10
1114.9996666666666
20
674
30
0
40
2.5
0
CIRCLE
5
190
100
AcDbEntity
8
0
100
AcDbCircle
10
1114.9996666666666
20
114.00000000000006
30
0
40
2.5
0
LWPOLYLINE
5
191
100
AcDbEntity
8
0
100
AcDbPolyline
90
4
70
1
43
0.0
10
1118.9996666666666
20
696.99999999999989
10
1110.9996666666668
20
696.99999999999989
10
1110.9996666666668
20
681
10
1118.9996666666666
20
681
0
LWPOLYLINE
5
192
100
AcDbEntity
8
0
100
AcDbPolyline
90
4
70
1
43
0.0
10
1110.9996666666668
20
136.99999999999989
10
1110.9996666666668
20
120.99999999999994
10
1118.9996666666666
20
120.99999999999994
10
1118.9996666666666
20
136.99999999999989
0
LWPOLYLINE
5
193
100
AcDbEntity
8
0
100
AcDbPolyline
90
4
70
1
43
0.0
10
1118.9996666666666
20
666.99999999999989
10
1110.9996666666668
20
666.99999999999989
10
1110.9996666666668
20
651
10
1118.9996666666666
20
651
0
LWPOLYLINE
5
194
100
AcDbEntity
8
0
100
AcDbPolyline
90
4
70
1
43
0.0
10
1118.9996666666666
20
106.99999999999989
10
1110.9996666666668
20
106.99999999999989
10
1110.9996666666668
20
90.999999999999943
10
1118.9996666666666
20
90.999999999999943
0
CIRCLE
5
195
100
AcDbEntity
8
0
100
AcDbCircle
10
60
20
294.00000000000006
30
0
40
2.9999999999999716
0
CIRCLE
5
196
100
AcDbEntity
8
0
100
AcDbCircle
10
1160
20
294.00000000000006
30
0
40
2.9999999999999716
0
CIRCLE
5
197
100
AcDbEntity
8
0
100
AcDbCircle
10
8.000000000220524
20
989.99999999971487
30
0
40
3.0000000000001137
0
CIRCLE
5
198
100
AcDbEntity
8
0
100
AcDbCircle
10
8.0000000004569927
20
389.9999999997151
30
0
40
3.0000000000001137
0
CIRCLE
5
199
100
AcDbEntity
8
0
100
AcDbCircle
10
8.0000000005751559
20
89.999999999715214
30
0
40
3.0000000000001137
0
CIRCLE
5
200
100
AcDbEntity
8
0
100
AcDbCircle
10
8.000000000587022
20
59.999999999715214
30
0
40
2.7499999999997726
0
CIRCLE
5
201
100
AcDbEntity
8
0
100
AcDbCircle
10
8.0000000003387584
20
689.9999999997151
30
0
40
3.0000000000001137
0
CIRCLE
5
202
100
AcDbEntity
8
0
100
AcDbCircle
10
8.0000000002323191
20
959.99999999971487
30
0
40
2.7499999999997726
0
CIRCLE
5
203
100
AcDbEntity
8
0
100
AcDbCircle
10
8.0000000003505534
20
659.9999999997151
30
0
40
2.7499999999997726
0
CIRCLE
5
204
100
AcDbEntity
8
0
100
AcDbCircle
10
8.0000000005279048
20
209.99999999971507
30
0
40
2.7499999999997726
0
CIRCLE
5
205
100
AcDbEntity
8
0
100
AcDbCircle
10
8.0000000004096705
20
509.9999999997151
30
0
40
2.7499999999997726
0
CIRCLE
5
206
100
AcDbEntity
8
0
100
AcDbCircle
10
8.0000000002915073
20
809.99999999971487
30
0
40
2.7499999999997726
0
CIRCLE
5
207
100
AcDbEntity
8
0
100
AcDbCircle
10
8.0000000004687877
20
359.9999999997151
30
0
40
2.7499999999997726
0
CIRCLE
5
208
100
AcDbEntity
8
0
100
AcDbCircle
10
783.66666666666674
20
114.00000000000006
30
0
40
2.5
0
CIRCLE
5
209
100
AcDbEntity
8
0
100
AcDbCircle
10
783.66666666666674
20
674
30
0
40
2.5
0
LWPOLYLINE
5
210
100
AcDbEntity
8
0
100
AcDbPolyline
90
4
70
1
43
0.0
10
779.66666666666686
20
90.999999999999943
10
787.66666666666674
20
90.999999999999943
10
787.66666666666674
20
106.99999999999989
10
779.66666666666686
20
106.99999999999989
0
LWPOLYLINE
5
211
100
AcDbEntity
8
0
100
AcDbPolyline
90
4
70
1
43
0.0
10
787.66666666666674
20
681
10
787.66666666666674
20
696.99999999999989
10
779.66666666666686
20
696.99999999999989
10
779.66666666666686
20
681
0
LWPOLYLINE
5
212
100
AcDbEntity
8
0
100
AcDbPolyline
90
4
70
1
43
0.0
10
787.66666666666674
20
651
10
787.66666666666674
20
666.99999999999989
10
779.66666666666686
20
666.99999999999989
10
779.66666666666686
20
651
0
LWPOLYLINE
5
213
100
AcDbEntity
8
0
100
AcDbPolyline
90
4
70
1
43
0.0
10
787.66666666666674
20
120.99999999999994
10
787.66666666666674
20
136.99999999999989
10
779.66666666666686
20
136.99999999999989
10
779.66666666666686
20
120.99999999999994
0
CIRCLE
5
214
100
AcDbEntity
8
0
100
AcDbCircle
10
436.33333333333337
20
114.00000000000006
30
0
40
2.5
0
CIRCLE
5
215
100
AcDbEntity
8
0
100
AcDbCircle
10
436.33333333333337
20
674
30
0
40
2.5
0
LWPOLYLINE
5
216
100
AcDbEntity
8
0
100
AcDbPolyline
90
4
70
1
43
0.0
10
432.33333333333348
20
90.999999999999943
10
440.33333333333348
20
90.999999999999943
10
440.33333333333348
20
106.99999999999989
10
432.33333333333348
20
106.99999999999989
0
LWPOLYLINE
5
217
100
AcDbEntity
8
0
100
AcDbPolyline
90
4
70
1
43
0.0
10
440.33333333333348
20
681
10
440.33333333333348
20
696.99999999999989
10
432.33333333333348
20
696.99999999999989
10
432.33333333333348
20
681
0
LWPOLYLINE
5
218
100
AcDbEntity
8
0
100
AcDbPolyline
90
4
70
1
43
0.0
10
440.33333333333348
20
651
10
440.33333333333348
20
666.99999999999989
10
432.33333333333348
20
666.99999999999989
10
432.33333333333348
20
651
0
LWPOLYLINE
5
219
100
AcDbEntity
8
0
100
AcDbPolyline
90
4
70
1
43
0.0
10
440.33333333333348
20
120.99999999999994
10
440.33333333333348
20
136.99999999999989
10
432.33333333333348
20
136.99999999999989
10
432.33333333333348
20
120.99999999999994
0
CIRCLE
5
220
100
AcDbEntity
8
0
100
AcDbCircle
10
945
20
625.99999999999966
30
0
40
2.5
0
CIRCLE
5
221
100
AcDbEntity
8
0
100
AcDbCircle
10
274.99999999999994
20
625.99999999999966
30
0
40
2.5
0
CIRCLE
5
222
100
AcDbEntity
8
0
100
AcDbCircle
10
609.99999999999989
20
625.99999999999955
30
0
40
2.5
0
CIRCLE
5
223
100
AcDbEntity
8
0
100
AcDbCircle
10
945
20
321.99999999999989
30
0
40
2.5
0
CIRCLE
5
224
100
AcDbEntity
8
0
100
AcDbCircle
10
274.99999999999989
20
929.99999999999977
30
0
40
2.5
0
CIRCLE
5
225
100
AcDbEntity
8
0
100
AcDbCircle
10
944.99999999999989
20
929.99999999999977
30
0
40
2.5
0
CIRCLE
5
226
100
AcDbEntity
8
0
100
AcDbCircle
10
609.99999999999989
20
321.99999999999977
30
0
40
2.5
0
CIRCLE
5
227
100
AcDbEntity
8
0
100
AcDbCircle
10
609.99999999999989
20
929.99999999999955
30
0
40
2.5
0
CIRCLE
5
228
100
AcDbEntity
8
0
100
AcDbCircle
10
274.99999999999994
20
321.99999999999989
30
0
40
2.5
0
LWPOLYLINE
5
229
100
AcDbEntity
8
0
100
AcDbPolyline
90
4
70
1
43
0.0
10
602.99999999999977
20
629.99999999999977
10
586.99999999999977
20
629.99999999999977
10
586.99999999999977
20
621.99999999999955
10
602.99999999999977
20
621.99999999999955
0
LWPOLYLINE
5
230
100
AcDbEntity
8
0
100
AcDbPolyline
90
4
70
1
43
0.0
10
938
20
629.99999999999977
10
921.99999999999989
20
629.99999999999977
10
921.99999999999989
20
621.99999999999955
10
938
20
621.99999999999955
0
LWPOLYLINE
5
231
100
AcDbEntity
8
0
100
AcDbPolyline
90
4
70
1
43
0.0
10
268
20
629.99999999999977
10
251.99999999999994
20
629.99999999999977
10
251.99999999999994
20
621.99999999999955
10
268
20
621.99999999999955
0
LWPOLYLINE
5
232
100
AcDbEntity
8
0
100
AcDbPolyline
90
4
70
1
43
0.0
10
632.99999999999977
20
621.99999999999955
10
632.99999999999977
20
629.99999999999977
10
616.99999999999977
20
629.99999999999977
10
616.99999999999977
20
621.99999999999955
0
LWPOLYLINE
5
233
100
AcDbEntity
8
0
100
AcDbPolyline
90
4
70
1
43
0.0
10
297.99999999999989
20
933.99999999999977
10
281.99999999999989
20
933.99999999999977
10
281.99999999999994
20
925.99999999999966
10
297.99999999999989
20
925.99999999999966
0
LWPOLYLINE
5
234
100
AcDbEntity
8
0
100
AcDbPolyline
90
4
70
1
43
0.0
10
602.99999999999977
20
933.99999999999977
10
586.99999999999977
20
933.99999999999977
10
586.99999999999977
20
925.99999999999966
10
602.99999999999977
20
925.99999999999966
0
LWPOLYLINE
5
235
100
AcDbEntity
8
0
100
AcDbPolyline
90
4
70
1
43
0.0
10
938
20
933.99999999999977
10
921.99999999999989
20
933.99999999999977
10
921.99999999999977
20
925.99999999999966
10
937.99999999999977
20
925.99999999999966
0
LWPOLYLINE
5
236
100
AcDbEntity
8
0
100
AcDbPolyline
90
4
70
1
43
0.0
10
297.99999999999994
20
629.99999999999977
10
281.99999999999994
20
629.99999999999977
10
281.99999999999994
20
621.99999999999955
10
297.99999999999989
20
621.99999999999955
0
LWPOLYLINE
5
237
100
AcDbEntity
8
0
100
AcDbPolyline
90
4
70
1
43
0.0
10
968
20
621.99999999999955
10
968
20
629.99999999999977
10
951.99999999999989
20
629.99999999999977
10
951.99999999999989
20
621.99999999999955
0
LWPOLYLINE
5
238
100
AcDbEntity
8
0
100
AcDbPolyline
90
4
70
1
43
0.0
10
297.99999999999994
20
325.99999999999994
10
281.99999999999994
20
325.99999999999994
10
281.99999999999994
20
317.99999999999983
10
297.99999999999994
20
317.99999999999983
0
LWPOLYLINE
5
239
100
AcDbEntity
8
0
100
AcDbPolyline
90
4
70
1
43
0.0
10
632.99999999999977
20
925.99999999999966
10
632.99999999999977
20
933.99999999999977
10
616.99999999999977
20
933.99999999999977
10
616.99999999999977
20
925.99999999999966
0
LWPOLYLINE
5
240
100
AcDbEntity
8
0
100
AcDbPolyline
90
4
70
1
43
0.0
10
967.99999999999977
20
925.99999999999966
10
967.99999999999977
20
933.99999999999977
10
951.99999999999989
20
933.99999999999977
10
951.99999999999989
20
925.99999999999966
0
LWPOLYLINE
5
241
100
AcDbEntity
8
0
100
AcDbPolyline
90
4
70
1
43
0.0
10
267.99999999999989
20
933.99999999999977
10
251.99999999999989
20
933.99999999999977
10
251.99999999999989
20
925.99999999999966
10
267.99999999999989
20
925.99999999999966
0
LWPOLYLINE
5
242
100
AcDbEntity
8
0
100
AcDbPolyline
90
4
70
1
43
0.0
10
268
20
325.99999999999994
10
251.99999999999994
20
325.99999999999994
10
251.99999999999994
20
317.99999999999983
10
268
20
317.99999999999983
0
LWPOLYLINE
5
243
100
AcDbEntity
8
0
100
AcDbPolyline
90
4
70
1
43
0.0
10
938
20
325.99999999999994
10
921.99999999999989
20
325.99999999999994
10
921.99999999999989
20
317.99999999999983
10
938
20
317.99999999999983
0
LWPOLYLINE
5
244
100
AcDbEntity
8
0
100
AcDbPolyline
90
4
70
1
43
0.0
10
632.99999999999977
20
317.99999999999983
10
632.99999999999977
20
325.99999999999994
10
616.99999999999977
20
325.99999999999994
10
616.99999999999977
20
317.99999999999983
0
LWPOLYLINE
5
245
100
AcDbEntity
8
0
100
AcDbPolyline
90
4
70
1
43
0.0
10
602.99999999999977
20
325.99999999999994
10
586.99999999999977
20
325.99999999999994
10
586.99999999999977
20
317.99999999999983
10
602.99999999999977
20
317.99999999999983
0
LWPOLYLINE
5
246
100
AcDbEntity
8
0
100
AcDbPolyline
90
4
70
1
43
0.0
10
968
20
317.99999999999983
10
968
20
325.99999999999994
10
951.99999999999989
20
325.99999999999994
10
951.99999999999989
20
317.99999999999983
0
LWPOLYLINE
5
247
100
AcDbEntity
8
0
100
AcDbPolyline
90
4
70
1
43
0.0
10
952.00000000000045
20
37.999999999999829
10
952.00000000000045
20
29.999999999999716
10
968.00000000000057
20
29.999999999999716
10
968.00000000000045
20
37.999999999999545
0
CIRCLE
5
248
100
AcDbEntity
8
0
100
AcDbCircle
10
945.00000000000045
20
33.999999999999773
30
0
40
2.5
0
LWPOLYLINE
5
249
100
AcDbEntity
8
0
100
AcDbPolyline
90
4
70
1
43
0.0
10
922.00000000000045
20
37.999999999999829
10
922.00000000000045
20
29.999999999999716
10
938.00000000000045
20
29.999999999999716
10
938.00000000000045
20
37.999999999999829
0
LWPOLYLINE
5
250
100
AcDbEntity
8
0
100
AcDbPolyline
90
4
70
1
43
0.0
10
617.00000000000091
20
38.000000000000114
10
617.00000000000091
20
30
10
633.00000000000091
20
30
10
633.00000000000091
20
38.000000000000114
0
CIRCLE
5
251
100
AcDbEntity
8
0
100
AcDbCircle
10
610.00000000000091
20
34.000000000000057
30
0
40
2.5
0
LWPOLYLINE
5
252
100
AcDbEntity
8
0
100
AcDbPolyline
90
4
70
1
43
0.0
10
587.00000000000091
20
37.999999999999829
10
587.00000000000091
20
29.999999999999716
10
603.00000000000091
20
30
10
603.00000000000091
20
38.000000000000114
0
LWPOLYLINE
5
253
100
AcDbEntity
8
0
100
AcDbPolyline
90
4
70
1
43
0.0
10
282.00000000000045
20
38.000000000000398
10
282.0000000000004
20
30.000000000000284
10
298.00000000000051
20
30.000000000000284
10
298.00000000000051
20
38.000000000000398
0
CIRCLE
5
254
100
AcDbEntity
8
0
100
AcDbCircle
10
275.00000000000045
20
34.000000000000341
30
0
40
2.5
0
LWPOLYLINE
5
255
100
AcDbEntity
8
0
100
AcDbPolyline
90
4
70
1
43
0.0
10
252.0000000000006
20
30.000000000000568
10
268.0000000000004
20
30.000000000000284
10
268.00000000000045
20
38.000000000000398
10
252.00000000000068
20
38.000000000000682
0
CIRCLE
5
256
100
AcDbEntity
8
0
100
AcDbCircle
10
1211.9999999999986
20
60
30
0
40
2.7499999999997726
0
CIRCLE
5
257
100
AcDbEntity
8
0
100
AcDbCircle
10
1211.9999999999986
20
90
30
0
40
3.0000000000001137
0
CIRCLE
5
258
100
AcDbEntity
8
0
100
AcDbCircle
10
1211.9999999999986
20
210
30
0
40
2.7499999999997726
0
CIRCLE
5
259
100
AcDbEntity
8
0
100
AcDbCircle
10
1211.9999999999986
20
360
30
0
40
2.7499999999997726
0
CIRCLE
5
260
100
AcDbEntity
8
0
100
AcDbCircle
10
1211.9999999999986
20
510
30
0
40
2.7499999999997726
0
CIRCLE
5
261
100
AcDbEntity
8
0
100
AcDbCircle
10
1211.9999999999989
20
660
30
0
40
2.7499999999997726
0
CIRCLE
5
262
100
AcDbEntity
8
0
100
AcDbCircle
10
1211.9999999999989
20
810
30
0
40
2.7499999999997726
0
CIRCLE
5
263
100
AcDbEntity
8
0
100
AcDbCircle
10
1211.9999999999989
20
960
30
0
40
2.7499999999997726
0
CIRCLE
5
264
100
AcDbEntity
8
0
100
AcDbCircle
10
1211.9999999999986
20
390
30
0
40
3.0000000000001137
0
CIRCLE
5
265
100
AcDbEntity
8
0
100
AcDbCircle
10
1211.9999999999989
20
690
30
0
40
3.0000000000001137
0
CIRCLE
5
266
100
AcDbEntity
8
0
100
AcDbCircle
10
1211.9999999999989
20
990
30
0
40
3.0000000000001137
0
LWPOLYLINE
5
267
100
AcDbEntity
8
0
100
AcDbPolyline
90
10
70
1
43
0.0
10
10.304886114681642
20
1108.5
42
-0.54232614462661888
10
5.695113885664763
20
1108.5
10
-7.1054273576010019e-14
20
1108.5
10
-4.4408920985006262e-15
20
9.9999999999997158
42
0.41421356237308676
10
10
20
1.1102230246251565e-15
10
1210
20
7.3274719625260332e-14
42
0.41421356237310203
10
1220
20
10
10
1220
20
1108.5
10
1214.304886114322
20
1108.5
42
-0.54232614454661932
10
1209.6951138856762
20
1108.5
0
ENDSEC
0
SECTION
2
OBJECTS
0
DICTIONARY
5
C
100
AcDbDictionary
3
ACAD_GROUP
350
D
3
ACAD_MLINESTYLE
350
17
0
DICTIONARY
5
D
100
AcDbDictionary
0
DICTIONARY
5
1A
330
C
100
AcDbDictionary
0
DICTIONARY
5
17
100
AcDbDictionary
0
ENDSEC
0
EOF
