0
SECTION
2
HEADER
9
$INSUNITS
70
4
9
$ACADVER
1
AC1014
9
$HANDSEED
5
FFFF
0
ENDSEC
0
SECTION
2
TABLES
0
TABLE
2
VPORT
5
8
100
AcDbSymbolTable
0
ENDTAB
0
TABLE
2
LTYPE
5
5
100
AcDbSymbolTable
0
LTYPE
5
14
100
AcDbSymbolTableRecord
100
AcDbLinetypeTableRecord
2
BYBLOCK
70
0
0
LTYPE
5
15
100
AcDbSymbolTableRecord
100
AcDbLinetypeTableRecord
2
BYLAYER
70
0
0
ENDTAB
0
TABLE
2
LAYER
5
2
100
AcDbSymbolTable
70
2
0
LAYER
5
50
100
AcDbSymbolTableRecord
100
AcDbLayerTableRecord
2
0
70
0
6
CONTINUOUS
0
ENDTAB
0
TABLE
2
STYLE
5
3
100
AcDbSymbolTable
70
1
0
STYLE
5
11
100
AcDbSymbolTableRecord
100
AcDbTextStyleTableRecord
2
STANDARD
70
0
0
ENDTAB
0
TABLE
2
VIEW
5
6
100
AcDbSymbolTable
70
0
0
ENDTAB
0
TABLE
2
UCS
5
7
100
AcDbSymbolTable
70
0
0
ENDTAB
0
TABLE
2
APPID
5
9
100
AcDbSymbolTable
70
2
0
APPID
5
12
100
AcDbSymbolTableRecord
100
AcDbRegAppTableRecord
2
ACAD
70
0
0
ENDTAB
0
TABLE
2
DIMSTYLE
5
A
100
AcDbSymbolTable
70
1
0
ENDTAB
0
TABLE
2
BLOCK_RECORD
5
1
100
AcDbSymbolTable
70
1
0
BLOCK_RECORD
5
1F
100
AcDbSymbolTableRecord
100
AcDbBlockTableRecord
2
*MODEL_SPACE
0
BLOCK_RECORD
5
1B
100
AcDbSymbolTableRecord
100
AcDbBlockTableRecord
2
*PAPER_SPACE
0
ENDTAB
0
ENDSEC
0
SECTION
2
BLOCKS
0
BLOCK
5
20
100
AcDbEntity
100
AcDbBlockBegin
2
*MODEL_SPACE
0
ENDBLK
5
21
100
AcDbEntity
100
AcDbBlockEnd
0
BLOCK
5
1C
100
AcDbEntity
100
AcDbBlockBegin
2
*PAPER_SPACE
0
ENDBLK
5
1D
100
AcDbEntity
100
AcDbBlockEnd
0
ENDSEC
0
SECTION
2
ENTITIES
0
LWPOLYLINE
5
100
100
AcDbEntity
8
0
100
AcDbPolyline
90
8
70
1
43
0.0
10
101.00033333333293
20
1732.9999999999993
42
-0.99999999999999989
10
101.00033333333307
20
1739.3999999999992
10
101.00033333333293
20
1742.5999999999995
42
-0.99999999999999989
10
101.00033333333307
20
1748.9999999999991
10
109.00033333333319
20
1748.9999999999991
42
-0.99999999999999989
10
109.00033333333305
20
1742.5999999999995
10
109.00033333333319
20
1739.3999999999992
42
-0.99999999999999989
10
109.00033333333305
20
1732.9999999999993
0
LWPOLYLINE
5
101
100
AcDbEntity
8
0
100
AcDbPolyline
90
8
70
1
43
0.0
10
101.00033333333293
20
1762.9999999999993
42
-0.99999999999999989
10
101.00033333333307
20
1769.3999999999992
10
101.00033333333293
20
1772.5999999999995
42
-0.99999999999999989
10
101.00033333333307
20
1778.9999999999991
10
109.00033333333319
20
1778.9999999999991
42
-0.99999999999999989
10
109.00033333333305
20
1772.5999999999995
10
109.00033333333319
20
1769.3999999999992
42
-0.99999999999999989
10
109.00033333333305
20
1762.9999999999993
0
LWPOLYLINE
5
102
100
AcDbEntity
8
0
100
AcDbPolyline
90
8
70
1
43
0.0
10
101.00033333333307
20
612.9999999999992
42
-0.99999999999999989
10
101.00033333333315
20
619.39999999999918
10
101.00033333333307
20
622.59999999999923
42
-0.99999999999999989
10
101.00033333333315
20
628.99999999999932
10
109.00033333333319
20
628.99999999999932
42
-0.99999999999999989
10
109.00033333333312
20
622.59999999999923
10
109.00033333333319
20
619.39999999999918
42
-0.99999999999999989
10
109.00033333333312
20
612.9999999999992
0
LWPOLYLINE
5
103
100
AcDbEntity
8
0
100
AcDbPolyline
90
8
70
1
43
0.0
10
101.000333333333
20
642.99999999999932
42
-0.99999999999999989
10
101.00033333333315
20
649.39999999999918
10
101.000333333333
20
652.59999999999934
42
-0.99999999999999989
10
101.00033333333315
20
658.9999999999992
10
109.00033333333326
20
658.9999999999992
42
-0.99999999999999989
10
109.00033333333312
20
652.59999999999934
10
109.00033333333326
20
649.39999999999918
42
-0.99999999999999989
10
109.00033333333312
20
642.99999999999932
0
LWPOLYLINE
5
104
100
AcDbEntity
8
0
100
AcDbPolyline
90
8
70
1
43
0.0
10
101.00033333333293
20
1172.9999999999993
42
-0.99999999999999989
10
101.00033333333307
20
1179.3999999999992
10
101.00033333333293
20
1182.5999999999995
42
-0.99999999999999989
10
101.00033333333307
20
1188.9999999999991
10
109.00033333333319
20
1188.9999999999991
42
-0.99999999999999989
10
109.00033333333305
20
1182.5999999999995
10
109.00033333333319
20
1179.3999999999992
42
-0.99999999999999989
10
109.00033333333305
20
1172.9999999999993
0
LWPOLYLINE
5
105
100
AcDbEntity
8
0
100
AcDbPolyline
90
8
70
1
43
0.0
10
101.00033333333293
20
1202.9999999999993
42
-0.99999999999999989
10
101.00033333333307
20
1209.3999999999992
10
101.00033333333293
20
1212.5999999999995
42
-0.99999999999999989
10
101.00033333333307
20
1218.9999999999991
10
109.00033333333319
20
1218.9999999999991
42
-0.99999999999999989
10
109.00033333333305
20
1212.5999999999995
10
109.00033333333319
20
1209.3999999999992
42
-0.99999999999999989
10
109.00033333333305
20
1202.9999999999993
0
LWPOLYLINE
5
106
100
AcDbEntity
8
0
100
AcDbPolyline
90
8
70
1
43
0.0
10
1110.9996666666668
20
1202.9999999999993
42
-0.99999999999999989
10
1110.9996666666664
20
1209.3999999999992
10
1110.9996666666668
20
1212.5999999999995
42
-0.99999999999999989
10
1110.9996666666664
20
1218.9999999999991
10
1118.9996666666664
20
1218.9999999999991
42
-0.99999999999999989
10
1118.9996666666664
20
1212.5999999999995
10
1118.9996666666664
20
1209.3999999999992
42
-0.99999999999999989
10
1118.9996666666664
20
1202.9999999999993
0
LWPOLYLINE
5
107
100
AcDbEntity
8
0
100
AcDbPolyline
90
8
70
1
43
0.0
10
1110.9996666666668
20
1172.9999999999993
42
-0.99999999999999989
10
1110.9996666666664
20
1179.3999999999992
10
1110.9996666666668
20
1182.5999999999995
42
-0.99999999999999989
10
1110.9996666666664
20
1188.9999999999991
10
1118.9996666666664
20
1188.9999999999991
42
-0.99999999999999989
10
1118.9996666666664
20
1182.5999999999995
10
1118.9996666666664
20
1179.3999999999992
42
-0.99999999999999989
10
1118.9996666666664
20
1172.9999999999993
0
LWPOLYLINE
5
108
100
AcDbEntity
8
0
100
AcDbPolyline
90
8
70
1
43
0.0
10
1110.9996666666666
20
642.99999999999932
42
-0.99999999999999989
10
1110.9996666666666
20
649.39999999999918
10
1110.9996666666666
20
652.59999999999934
42
-0.99999999999999989
10
1110.9996666666666
20
658.9999999999992
10
1118.9996666666666
20
658.9999999999992
42
-0.99999999999999989
10
1118.9996666666666
20
652.59999999999934
10
1118.9996666666666
20
649.39999999999918
42
-0.99999999999999989
10
1118.9996666666666
20
642.99999999999932
0
LWPOLYLINE
5
109
100
AcDbEntity
8
0
100
AcDbPolyline
90
8
70
1
43
0.0
10
1110.9996666666666
20
612.99999999999932
42
-0.99999999999999989
10
1110.9996666666666
20
619.39999999999918
10
1110.9996666666666
20
622.59999999999923
42
-0.99999999999999989
10
1110.9996666666666
20
628.99999999999909
10
1118.9996666666666
20
628.99999999999909
42
-0.99999999999999989
10
1118.9996666666666
20
622.59999999999923
10
1118.9996666666666
20
619.39999999999918
42
-0.99999999999999989
10
1118.9996666666666
20
612.99999999999932
0
LWPOLYLINE
5
110
100
AcDbEntity
8
0
100
AcDbPolyline
90
8
70
1
43
0.0
10
1110.9996666666668
20
1762.9999999999993
42
-0.99999999999999989
10
1110.9996666666664
20
1769.3999999999992
10
1110.9996666666668
20
1772.5999999999995
42
-0.99999999999999989
10
1110.9996666666664
20
1778.9999999999991
10
1118.9996666666664
20
1778.9999999999991
42
-0.99999999999999989
10
1118.9996666666664
20
1772.5999999999995
10
1118.9996666666664
20
1769.3999999999992
42
-0.99999999999999989
10
1118.9996666666664
20
1762.9999999999993
0
LWPOLYLINE
5
111
100
AcDbEntity
8
0
100
AcDbPolyline
90
8
70
1
43
0.0
10
1110.9996666666668
20
1732.9999999999993
42
-0.99999999999999989
10
1110.9996666666664
20
1739.3999999999992
10
1110.9996666666668
20
1742.5999999999995
42
-0.99999999999999989
10
1110.9996666666664
20
1748.9999999999991
10
1118.9996666666664
20
1748.9999999999991
42
-0.99999999999999989
10
1118.9996666666664
20
1742.5999999999995
10
1118.9996666666664
20
1739.3999999999992
42
-0.99999999999999989
10
1118.9996666666664
20
1732.9999999999993
0
LWPOLYLINE
5
112
100
AcDbEntity
8
0
100
AcDbPolyline
90
8
70
1
43
0.0
10
857.00000000000023
20
111.60000000000018
42
-0.99999999999999989
10
857.00000000000023
20
118.00000000000011
10
869.00000000000023
20
117.99999999999763
42
-0.99999999999999989
10
869.00000000000023
20
111.59999999999769
10
869.00000000000023
20
108.39999999999726
42
-0.99999999999999989
10
869.00000000000023
20
101.99999999999733
10
857.00000000000023
20
101.99999999999726
42
-0.99999999999999989
10
857.00000000000023
20
108.39999999999719
0
LWPOLYLINE
5
113
100
AcDbEntity
8
0
100
AcDbPolyline
90
8
70
1
43
0.0
10
857.00000000000023
20
141.59999999999735
42
-0.99999999999999989
10
857.00000000000023
20
147.99999999999727
10
868.99999999999989
20
147.99999999999721
42
-0.99999999999999989
10
869.00000000000023
20
141.59999999999741
10
868.99999999999989
20
138.39999999999998
42
-0.99999999999999989
10
869.00000000000023
20
132.00000000000017
10
857.00000000000023
20
132.00000000000011
42
-0.99999999999999989
10
857.00000000000023
20
138.40000000000003
0
LWPOLYLINE
5
114
100
AcDbEntity
8
0
100
AcDbPolyline
90
8
70
1
43
0.0
10
603.99999999999989
20
111.60000000002888
42
-0.99999999999999989
10
604
20
118.00000000002889
10
616.00000000000011
20
118.00000000002946
42
-0.99999999999999989
10
616
20
111.60000000002945
10
616.00000000000011
20
108.40000000002938
42
-0.99999999999999989
10
616
20
102.00000000002937
10
603.99999999999989
20
102.00000000002937
42
-0.99999999999999989
10
604
20
108.40000000002938
0
LWPOLYLINE
5
115
100
AcDbEntity
8
0
100
AcDbPolyline
90
8
70
1
43
0.0
10
603.99999999999989
20
141.60000000002947
42
-0.99999999999999989
10
604
20
148.00000000002944
10
616.00000000000011
20
148.00000000002944
42
-0.99999999999999989
10
616
20
141.60000000002947
10
616.00000000000011
20
138.40000000002908
42
-0.99999999999999989
10
616
20
132.0000000000291
10
603.99999999999989
20
132.0000000000291
42
-0.99999999999999989
10
604
20
138.40000000002908
0
LWPOLYLINE
5
116
100
AcDbEntity
8
0
100
AcDbPolyline
90
8
70
1
43
0.0
10
351.00000000000364
20
111.60000000003457
42
-0.99999999999999989
10
351.00000000000364
20
118.00000000003458
10
363.00000000000364
20
118.00000000003571
42
-0.99999999999999989
10
363.00000000000364
20
111.60000000003571
10
363.00000000000364
20
108.40000000003592
42
-0.99999999999999989
10
363.00000000000364
20
102.00000000003591
10
351.00000000000364
20
102.00000000003591
42
-0.99999999999999989
10
351.00000000000364
20
108.40000000003592
0
LWPOLYLINE
5
117
100
AcDbEntity
8
0
100
AcDbPolyline
90
8
70
1
43
0.0
10
351.00000000000364
20
141.60000000003572
42
-0.99999999999999989
10
351.00000000000364
20
148.0000000000357
10
363.00000000000364
20
148.0000000000357
42
-0.99999999999999989
10
363.00000000000364
20
141.60000000003572
10
363.00000000000364
20
138.4000000000342
42
-0.99999999999999989
10
363.00000000000364
20
132.00000000003422
10
351.00000000000364
20
132.00000000003422
42
-0.99999999999999989
10
351.00000000000364
20
138.4000000000342
0
LWPOLYLINE
5
118
100
AcDbEntity
8
0
100
AcDbPolyline
90
8
70
1
43
0.0
10
109.00000000000979
20
111.59999999999876
42
-0.99999999999999989
10
109.00000000001661
20
117.99999999999876
10
121.00000000001664
20
117.99999999999535
42
-0.99999999999999989
10
121.00000000001664
20
111.59999999999535
10
121.00000000001664
20
108.39999999999527
42
-0.99999999999999989
10
121.00000000001664
20
101.99999999999527
10
109.00000000001661
20
101.99999999999527
42
-0.99999999999999989
10
109.00000000001661
20
108.39999999999527
0
LWPOLYLINE
5
119
100
AcDbEntity
8
0
100
AcDbPolyline
90
8
70
1
43
0.0
10
109.00000000001661
20
141.59999999999536
42
-0.99999999999999989
10
109.00000000001661
20
147.99999999999534
10
121.00000000001664
20
147.99999999999534
42
-0.99999999999999989
10
121.00000000001664
20
141.59999999999536
10
121.00000000000982
20
138.39999999999867
42
-0.99999999999999989
10
121.00000000001664
20
131.99999999999869
10
109.00000000000979
20
131.99999999999869
42
-0.99999999999999989
10
109.00000000001661
20
138.39999999999867
0
LWPOLYLINE
5
120
100
AcDbEntity
8
0
100
AcDbPolyline
90
8
70
1
43
0.0
10
857.00000000000023
20
407.59999999999962
42
-0.99999999999999989
10
857.00000000000023
20
413.99999999999966
10
868.99999999999989
20
413.99999999999682
42
-0.99999999999999989
10
869.00000000000023
20
407.59999999999707
10
868.99999999999989
20
404.39999999999685
42
-0.99999999999999989
10
869.00000000000023
20
397.99999999999716
10
857.00000000000023
20
397.99999999999682
42
-0.99999999999999989
10
857.00000000000023
20
404.39999999999685
0
LWPOLYLINE
5
121
100
AcDbEntity
8
0
100
AcDbPolyline
90
8
70
1
43
0.0
10
857.00000000000023
20
437.59999999999678
42
-0.99999999999999989
10
857.00000000000023
20
443.99999999999682
10
868.99999999999989
20
443.99999999999665
42
-0.99999999999999989
10
869.00000000000023
20
437.59999999999695
10
868.99999999999989
20
434.39999999999952
42
-0.99999999999999989
10
869.00000000000023
20
427.99999999999983
10
857.00000000000023
20
427.99999999999966
42
-0.99999999999999989
10
857.00000000000023
20
434.39999999999969
0
LWPOLYLINE
5
122
100
AcDbEntity
8
0
100
AcDbPolyline
90
8
70
1
43
0.0
10
603.99999999999989
20
407.60000000002856
42
-0.99999999999999989
10
604
20
414.00000000002854
10
616.00000000000011
20
414.00000000002899
42
-0.99999999999999989
10
616
20
407.60000000002896
10
616.00000000000011
20
404.40000000002902
42
-0.99999999999999989
10
616
20
398.00000000002905
10
603.99999999999989
20
398.00000000002905
42
-0.99999999999999989
10
604
20
404.40000000002902
0
LWPOLYLINE
5
123
100
AcDbEntity
8
0
100
AcDbPolyline
90
8
70
1
43
0.0
10
603.99999999999989
20
437.60000000002896
42
-0.99999999999999989
10
604
20
444.00000000002899
10
616.00000000000011
20
444.00000000002899
42
-0.99999999999999989
10
616
20
437.60000000002896
10
616.00000000000011
20
434.40000000002863
42
-0.99999999999999989
10
616
20
428.00000000002859
10
603.99999999999989
20
428.00000000002859
42
-0.99999999999999989
10
604
20
434.40000000002863
0
LWPOLYLINE
5
124
100
AcDbEntity
8
0
100
AcDbPolyline
90
8
70
1
43
0.0
10
351.00000000000364
20
407.60000000003396
42
-0.99999999999999989
10
351.00000000000364
20
414.00000000003394
10
363.00000000000364
20
414.00000000003536
42
-0.99999999999999989
10
363.00000000000364
20
407.60000000003538
10
363.00000000000364
20
404.40000000003556
42
-0.99999999999999989
10
363.00000000000364
20
398.00000000003558
10
351.00000000000364
20
398.00000000003558
42
-0.99999999999999989
10
351.00000000000364
20
404.40000000003556
0
LWPOLYLINE
5
125
100
AcDbEntity
8
0
100
AcDbPolyline
90
8
70
1
43
0.0
10
351.00000000000364
20
437.60000000003538
42
-0.99999999999999989
10
351.00000000000364
20
444.00000000003536
10
363.00000000000364
20
444.00000000003536
42
-0.99999999999999989
10
363.00000000000364
20
437.60000000003538
10
363.00000000000364
20
434.40000000003414
42
-0.99999999999999989
10
363.00000000000364
20
428.00000000003416
10
351.00000000000364
20
428.00000000003416
42
-0.99999999999999989
10
351.00000000000364
20
434.40000000003414
0
LWPOLYLINE
5
126
100
AcDbEntity
8
0
100
AcDbPolyline
90
8
70
1
43
0.0
10
109.00000000000972
20
407.59999999999843
42
-0.99999999999999989
10
109.00000000001661
20
413.99999999999841
10
121.00000000001671
20
413.999999999995
42
-0.99999999999999989
10
121.00000000001664
20
407.59999999999502
10
121.00000000001671
20
404.39999999999492
42
-0.99999999999999989
10
121.00000000001664
20
397.99999999999494
10
109.00000000001654
20
397.99999999999494
42
-0.99999999999999989
10
109.00000000001661
20
404.39999999999492
0
LWPOLYLINE
5
127
100
AcDbEntity
8
0
100
AcDbPolyline
90
8
70
1
43
0.0
10
109.00000000001668
20
437.59999999999502
42
-0.99999999999999989
10
109.00000000001661
20
443.999999999995
10
121.00000000001685
20
443.999999999995
42
-0.99999999999999989
10
121.00000000001664
20
437.59999999999502
10
121.00000000000989
20
434.39999999999833
42
-0.99999999999999989
10
121.00000000001664
20
427.99999999999835
10
109.00000000000972
20
427.99999999999835
42
-0.99999999999999989
10
109.00000000001661
20
434.39999999999833
0
LWPOLYLINE
5
128
100
AcDbEntity
8
0
100
AcDbPolyline
90
8
70
1
43
0.0
10
779.6666666666664
20
1732.9999999999993
42
-0.99999999999999989
10
779.6666666666664
20
1739.3999999999992
10
779.6666666666664
20
1742.5999999999995
42
-0.99999999999999989
10
779.6666666666664
20
1748.9999999999991
10
787.66666666666663
20
1748.9999999999991
42
-0.99999999999999989
10
787.6666666666664
20
1742.5999999999995
10
787.66666666666663
20
1739.3999999999992
42
-0.99999999999999989
10
787.6666666666664
20
1732.9999999999993
0
LWPOLYLINE
5
129
100
AcDbEntity
8
0
100
AcDbPolyline
90
8
70
1
43
0.0
10
779.66666666666686
20
1172.9999999999993
42
-0.99999999999999989
10
779.66666666666652
20
1179.3999999999992
10
779.66666666666686
20
1182.5999999999995
42
-0.99999999999999989
10
779.66666666666652
20
1188.9999999999991
10
787.66666666666652
20
1188.9999999999991
42
-0.99999999999999989
10
787.66666666666652
20
1182.5999999999995
10
787.66666666666652
20
1179.3999999999992
42
-0.99999999999999989
10
787.66666666666652
20
1172.9999999999993
0
LWPOLYLINE
5
130
100
AcDbEntity
8
0
100
AcDbPolyline
90
8
70
1
43
0.0
10
779.66666666666652
20
612.99999999999932
42
-0.99999999999999989
10
779.66666666666652
20
619.39999999999918
10
779.66666666666652
20
622.59999999999923
42
-0.99999999999999989
10
779.66666666666652
20
628.99999999999909
10
787.66666666666652
20
628.99999999999909
42
-0.99999999999999989
10
787.66666666666652
20
622.59999999999923
10
787.66666666666652
20
619.39999999999918
42
-0.99999999999999989
10
787.66666666666652
20
612.99999999999932
0
LWPOLYLINE
5
131
100
AcDbEntity
8
0
100
AcDbPolyline
90
8
70
1
43
0.0
10
787.66666666666663
20
1769.3999999999992
42
-0.99999999999999989
10
787.6666666666664
20
1762.9999999999993
10
779.6666666666664
20
1762.9999999999993
42
-0.99999999999999989
10
779.6666666666664
20
1769.3999999999992
10
779.66666666666686
20
1772.5999999999995
42
-0.99999999999999989
10
779.66666666666652
20
1778.9999999999991
10
787.66666666666663
20
1778.9999999999991
42
-0.99999999999999989
10
787.6666666666664
20
1772.5999999999995
0
LWPOLYLINE
5
132
100
AcDbEntity
8
0
100
AcDbPolyline
90
8
70
1
43
0.0
10
787.66666666666652
20
1209.3999999999992
42
-0.99999999999999989
10
787.66666666666652
20
1202.9999999999993
10
779.66666666666686
20
1202.9999999999993
42
-0.99999999999999989
10
779.66666666666652
20
1209.3999999999992
10
779.66666666666686
20
1212.5999999999995
42
-0.99999999999999989
10
779.66666666666652
20
1218.9999999999991
10
787.66666666666652
20
1218.9999999999991
42
-0.99999999999999989
10
787.66666666666652
20
1212.5999999999995
0
LWPOLYLINE
5
133
100
AcDbEntity
8
0
100
AcDbPolyline
90
8
70
1
43
0.0
10
787.66666666666652
20
649.39999999999918
42
-0.99999999999999989
10
787.66666666666652
20
642.99999999999932
10
779.66666666666652
20
642.99999999999932
42
-0.99999999999999989
10
779.66666666666652
20
649.39999999999918
10
779.66666666666652
20
652.59999999999934
42
-0.99999999999999989
10
779.66666666666652
20
658.9999999999992
10
787.66666666666652
20
658.9999999999992
42
-0.99999999999999989
10
787.66666666666652
20
652.59999999999934
0
LWPOLYLINE
5
134
100
AcDbEntity
8
0
100
AcDbPolyline
90
8
70
1
43
0.0
10
432.33333333333314
20
1762.9999999999993
42
-0.99999999999999989
10
432.33333333333314
20
1769.3999999999992
10
432.33333333333326
20
1772.5999999999995
42
-0.99999999999999989
10
432.33333333333314
20
1778.9999999999991
10
440.33333333333337
20
1778.9999999999991
42
-0.99999999999999989
10
440.33333333333309
20
1772.5999999999995
10
440.33333333333337
20
1769.3999999999992
42
-0.99999999999999989
10
440.33333333333309
20
1762.9999999999993
0
LWPOLYLINE
5
135
100
AcDbEntity
8
0
100
AcDbPolyline
90
8
70
1
43
0.0
10
432.33333333333314
20
1202.9999999999993
42
-0.99999999999999989
10
432.33333333333314
20
1209.3999999999992
10
432.33333333333314
20
1212.5999999999995
42
-0.99999999999999989
10
432.33333333333314
20
1218.9999999999991
10
440.33333333333337
20
1218.9999999999991
42
-0.99999999999999989
10
440.33333333333309
20
1212.5999999999995
10
440.33333333333337
20
1209.3999999999992
42
-0.99999999999999989
10
440.33333333333309
20
1202.9999999999993
0
LWPOLYLINE
5
136
100
AcDbEntity
8
0
100
AcDbPolyline
90
8
70
1
43
0.0
10
432.3333333333332
20
642.99999999999932
42
-0.99999999999999989
10
432.3333333333332
20
649.39999999999918
10
432.3333333333332
20
652.59999999999934
42
-0.99999999999999989
10
432.3333333333332
20
658.9999999999992
10
440.33333333333348
20
658.9999999999992
42
-0.99999999999999989
10
440.33333333333314
20
652.59999999999934
10
440.33333333333348
20
649.39999999999918
42
-0.99999999999999989
10
440.33333333333314
20
642.99999999999932
0
LWPOLYLINE
5
137
100
AcDbEntity
8
0
100
AcDbPolyline
90
8
70
1
43
0.0
10
440.33333333333348
20
619.39999999999918
42
-0.99999999999999989
10
440.33333333333314
20
612.9999999999992
10
432.3333333333332
20
612.9999999999992
42
-0.99999999999999989
10
432.3333333333332
20
619.39999999999918
10
432.3333333333332
20
622.59999999999923
42
-0.99999999999999989
10
432.3333333333332
20
628.99999999999932
10
440.33333333333348
20
628.99999999999932
42
-0.99999999999999989
10
440.33333333333314
20
622.59999999999923
0
LWPOLYLINE
5
138
100
AcDbEntity
8
0
100
AcDbPolyline
90
8
70
1
43
0.0
10
440.33333333333337
20
1179.3999999999992
42
-0.99999999999999989
10
440.33333333333309
20
1172.9999999999993
10
432.33333333333314
20
1172.9999999999993
42
-0.99999999999999989
10
432.33333333333314
20
1179.3999999999992
10
432.33333333333314
20
1182.5999999999995
42
-0.99999999999999989
10
432.33333333333314
20
1188.9999999999991
10
440.33333333333337
20
1188.9999999999991
42
-0.99999999999999989
10
440.33333333333309
20
1182.5999999999995
0
LWPOLYLINE
5
139
100
AcDbEntity
8
0
100
AcDbPolyline
90
8
70
1
43
0.0
10
440.33333333333326
20
1739.3999999999992
42
-0.99999999999999989
10
440.33333333333309
20
1732.9999999999993
10
432.33333333333297
20
1732.9999999999993
42
-0.99999999999999989
10
432.33333333333314
20
1739.3999999999992
10
432.33333333333314
20
1742.5999999999995
42
-0.99999999999999989
10
432.33333333333314
20
1748.9999999999991
10
440.33333333333337
20
1748.9999999999991
42
-0.99999999999999989
10
440.33333333333309
20
1742.5999999999995
0
LWPOLYLINE
5
140
100
AcDbEntity
8
0
100
AcDbPolyline
90
8
70
1
43
0.0
10
1110.9999999999986
20
404.40000000017551
42
-0.99999999999999989
10
1110.9999999999989
20
398.00000000017548
10
1098.9999999999989
20
398.00000000017565
42
-0.99999999999999989
10
1098.9999999999984
20
404.40000000017534
10
1099.0000000000032
20
407.60000000015452
42
-0.99999999999999989
10
1098.9999999999986
20
414.0000000001545
10
1111.000000000003
20
414.00000000015439
42
-0.99999999999999989
10
1110.9999999999986
20
407.60000000015464
0
LWPOLYLINE
5
141
100
AcDbEntity
8
0
100
AcDbPolyline
90
8
70
1
43
0.0
10
1111.000000000003
20
434.40000000015448
42
-0.99999999999999989
10
1110.9999999999986
20
428.00000000015473
10
1098.9999999999986
20
428.00000000017531
42
-0.99999999999999989
10
1098.9999999999986
20
434.40000000017534
10
1098.9999999999986
20
437.60000000017527
42
-0.99999999999999989
10
1098.9999999999986
20
444.00000000017531
10
1110.9999999999986
20
444.00000000017531
42
-0.99999999999999989
10
1110.9999999999986
20
437.60000000017544
0
LWPOLYLINE
5
142
100
AcDbEntity
8
0
100
AcDbPolyline
90
8
70
1
43
0.0
10
1110.9999999999986
20
108.40000000017582
42
-0.99999999999999989
10
1110.9999999999989
20
102.00000000017582
10
1098.9999999999989
20
102.00000000017589
42
-0.99999999999999989
10
1098.9999999999984
20
108.40000000017568
10
1099.0000000000032
20
111.60000000015508
42
-0.99999999999999989
10
1098.9999999999986
20
118.00000000015501
10
1111.000000000003
20
118.00000000015494
42
-0.99999999999999989
10
1110.9999999999986
20
111.60000000015515
0
LWPOLYLINE
5
143
100
AcDbEntity
8
0
100
AcDbPolyline
90
8
70
1
43
0.0
10
1111.000000000003
20
138.40000000015488
42
-0.99999999999999989
10
1110.9999999999986
20
132.00000000015507
10
1098.9999999999986
20
132.00000000017576
42
-0.99999999999999989
10
1098.9999999999986
20
138.40000000017568
10
1098.9999999999986
20
141.60000000017556
42
-0.99999999999999989
10
1098.9999999999986
20
148.00000000017548
10
1110.9999999999986
20
148.00000000017548
42
-0.99999999999999989
10
1110.9999999999986
20
141.60000000017561
0
CIRCLE
5
144
100
AcDbEntity
8
0
100
AcDbCircle
10
105.0003333333332
20
635.99999999999909
30
0
40
2.5
0
CIRCLE
5
145
100
AcDbEntity
8
0
100
AcDbCircle
10
105.00033333333313
20
1195.9999999999991
30
0
40
2.5
0
CIRCLE
5
146
100
AcDbEntity
8
0
100
AcDbCircle
10
105.00033333333313
20
1755.9999999999991
30
0
40
2.5
0
CIRCLE
5
147
100
AcDbEntity
8
0
100
AcDbCircle
10
1114.9996666666666
20
635.99999999999909
30
0
40
2.5
0
CIRCLE
5
148
100
AcDbEntity
8
0
100
AcDbCircle
10
1114.9996666666666
20
1195.9999999999991
30
0
40
2.5
0
CIRCLE
5
149
100
AcDbEntity
8
0
100
AcDbCircle
10
1114.9996666666666
20
1755.9999999999991
30
0
40
2.5
0
CIRCLE
5
150
100
AcDbEntity
8
0
100
AcDbCircle
10
1160
20
355.99999999999966
30
0
40
2.9999999999999716
0
CIRCLE
5
151
100
AcDbEntity
8
0
100
AcDbCircle
10
60
20
355.99999999999966
30
0
40
2.9999999999999716
0
LINE
5
152
100
AcDbEntity
8
0
100
AcDbLine
10
-7.1054273576010019e-14
20
1880.9999999999991
30
0
11
4.3511434484224826e-14
21
10
31
0
0
ARC
5
153
100
AcDbEntity
8
0
100
AcDbCircle
10
10.000000000000002
20
10
30
0
40
9.9999999999999591
100
AcDbArc
50
180
51
270
0
LINE
5
154
100
AcDbEntity
8
0
100
AcDbLine
10
10.000000000000004
20
-2.2204460492503131e-15
30
0
11
1210
21
7.3478807948841202e-14
31
0
0
ARC
5
155
100
AcDbEntity
8
0
100
AcDbCircle
10
1210.0000000000002
20
9.9999999999999041
30
0
40
9.9999999999998312
100
AcDbArc
50
-90.000000000001322
51
0
0
LINE
5
156
100
AcDbEntity
8
0
100
AcDbLine
10
1220
20
10.000000000000002
30
0
11
1219.9999999999998
21
1880.9999999999991
31
0
0
CIRCLE
5
157
100
AcDbEntity
8
0
100
AcDbCircle
10
1211.9999999998977
20
1700.000000000284
30
0
40
3.0000000000001137
0
CIRCLE
5
158
100
AcDbEntity
8
0
100
AcDbCircle
10
1211.9999999999732
20
1508.000000000284
30
0
40
2.7499999999997726
0
CIRCLE
5
159
100
AcDbEntity
8
0
100
AcDbCircle
10
1211.999999999945
20
1580.000000000284
30
0
40
2.7499999999997726
0
CIRCLE
5
160
100
AcDbEntity
8
0
100
AcDbCircle
10
1211.9999999998859
20
1730.0000000002842
30
0
40
2.7499999999997726
0
CIRCLE
5
161
100
AcDbEntity
8
0
100
AcDbCircle
10
1211.9999999999834
20
1482.0000000002838
30
0
40
2.7499999999997726
0
CIRCLE
5
162
100
AcDbEntity
8
0
100
AcDbCircle
10
1212.0000000000591
20
1290.000000000284
30
0
40
3.0000000000001137
0
CIRCLE
5
163
100
AcDbEntity
8
0
100
AcDbCircle
10
1212.0000000001774
20
990.00000000028399
30
0
40
3.0000000000001137
0
CIRCLE
5
164
100
AcDbEntity
8
0
100
AcDbCircle
10
1212.0000000002956
20
690.00000000028399
30
0
40
3.0000000000001137
0
CIRCLE
5
165
100
AcDbEntity
8
0
100
AcDbCircle
10
1212.0000000004138
20
390.00000000028422
30
0
40
3.0000000000001137
0
CIRCLE
5
166
100
AcDbEntity
8
0
100
AcDbCircle
10
1212.0000000000118
20
1410.000000000284
30
0
40
2.7499999999997726
0
CIRCLE
5
167
100
AcDbEntity
8
0
100
AcDbCircle
10
1212.0000000000709
20
1260.000000000284
30
0
40
2.7499999999997726
0
CIRCLE
5
168
100
AcDbEntity
8
0
100
AcDbCircle
10
1212.0000000001301
20
1110.000000000284
30
0
40
2.7499999999997726
0
CIRCLE
5
169
100
AcDbEntity
8
0
100
AcDbCircle
10
1212.0000000001892
20
960.00000000028399
30
0
40
2.7499999999997726
0
CIRCLE
5
170
100
AcDbEntity
8
0
100
AcDbCircle
10
1212.0000000002483
20
810.00000000028399
30
0
40
2.7499999999997726
0
CIRCLE
5
171
100
AcDbEntity
8
0
100
AcDbCircle
10
1212.0000000003074
20
660.00000000028399
30
0
40
2.7499999999997726
0
CIRCLE
5
172
100
AcDbEntity
8
0
100
AcDbCircle
10
1212.0000000003665
20
510.00000000028393
30
0
40
2.7499999999997726
0
CIRCLE
5
173
100
AcDbEntity
8
0
100
AcDbCircle
10
1212.0000000004256
20
360.00000000028422
30
0
40
2.7499999999997726
0
CIRCLE
5
174
100
AcDbEntity
8
0
100
AcDbCircle
10
1212.0000000004848
20
210.00000000028422
30
0
40
2.7499999999997726
0
CIRCLE
5
175
100
AcDbEntity
8
0
100
AcDbCircle
10
1212.0000000005321
20
90.000000000284217
30
0
40
3.0000000000001137
0
CIRCLE
5
176
100
AcDbEntity
8
0
100
AcDbCircle
10
1212.0000000005439
20
60.000000000284217
30
0
40
2.7499999999997726
0
CIRCLE
5
177
100
AcDbEntity
8
0
100
AcDbCircle
10
8.0000000000006821
20
989.99999999999909
30
0
40
3.0000000000001137
0
CIRCLE
5
178
100
AcDbEntity
8
0
100
AcDbCircle
10
8.0000000000006821
20
1289.9999999999991
30
0
40
3.0000000000001137
0
CIRCLE
5
179
100
AcDbEntity
8
0
100
AcDbCircle
10
8.000000000000469
20
389.99999999999915
30
0
40
3.0000000000001137
0
CIRCLE
5
180
100
AcDbEntity
8
0
100
AcDbCircle
10
8.0000000000003268
20
89.999999999999147
30
0
40
3.0000000000001137
0
CIRCLE
5
181
100
AcDbEntity
8
0
100
AcDbCircle
10
8.0000000000003268
20
59.999999999999147
30
0
40
2.7499999999997726
0
CIRCLE
5
182
100
AcDbEntity
8
0
100
AcDbCircle
10
8.00000000000054
20
689.99999999999909
30
0
40
3.0000000000001137
0
CIRCLE
5
183
100
AcDbEntity
8
0
100
AcDbCircle
10
8.0000000000007532
20
1481.9999999999991
30
0
40
2.7499999999997726
0
CIRCLE
5
184
100
AcDbEntity
8
0
100
AcDbCircle
10
8.0000000000006821
20
959.99999999999909
30
0
40
2.7499999999997726
0
CIRCLE
5
185
100
AcDbEntity
8
0
100
AcDbCircle
10
8.0000000000007532
20
1409.9999999999991
30
0
40
2.7499999999997726
0
CIRCLE
5
186
100
AcDbEntity
8
0
100
AcDbCircle
10
8.00000000000054
20
659.99999999999909
30
0
40
2.7499999999997726
0
CIRCLE
5
187
100
AcDbEntity
8
0
100
AcDbCircle
10
8.0000000000006821
20
1259.9999999999991
30
0
40
2.7499999999997726
0
CIRCLE
5
188
100
AcDbEntity
8
0
100
AcDbCircle
10
8.0000000000003979
20
209.99999999999915
30
0
40
2.7499999999997726
0
CIRCLE
5
189
100
AcDbEntity
8
0
100
AcDbCircle
10
8.000000000000469
20
509.99999999999915
30
0
40
2.7499999999997726
0
CIRCLE
5
190
100
AcDbEntity
8
0
100
AcDbCircle
10
8.0000000000006111
20
809.99999999999909
30
0
40
2.7499999999997726
0
CIRCLE
5
191
100
AcDbEntity
8
0
100
AcDbCircle
10
8.0000000000006111
20
1109.9999999999991
30
0
40
2.7499999999997726
0
CIRCLE
5
192
100
AcDbEntity
8
0
100
AcDbCircle
10
8.000000000000469
20
359.99999999999915
30
0
40
2.7499999999997726
0
CIRCLE
5
193
100
AcDbEntity
8
0
100
AcDbCircle
10
8.0000000000007532
20
1507.9999999999993
30
0
40
2.7499999999997726
0
CIRCLE
5
194
100
AcDbEntity
8
0
100
AcDbCircle
10
8.0000000000008242
20
1699.9999999999991
30
0
40
3.0000000000001137
0
CIRCLE
5
195
100
AcDbEntity
8
0
100
AcDbCircle
10
8.0000000000008242
20
1579.9999999999991
30
0
40
2.7499999999997726
0
CIRCLE
5
196
100
AcDbEntity
8
0
100
AcDbCircle
10
8.0000000000008242
20
1729.9999999999991
30
0
40
2.7499999999997726
0
CIRCLE
5
197
100
AcDbEntity
8
0
100
AcDbCircle
10
275.00000000000006
20
843.99999999999955
30
0
40
2.5
0
LWPOLYLINE
5
198
100
AcDbEntity
8
0
100
AcDbPolyline
90
8
70
1
43
0.0
10
931.60000000000025
20
847.99999999999955
42
-0.99999999999999989
10
938.00000000000011
20
847.99999999999955
10
938.00000000000011
20
839.99999999999943
42
-0.99999999999999989
10
931.60000000000025
20
839.99999999999943
10
928.39999999999986
20
839.99999999999943
42
-0.99999999999999989
10
922
20
839.99999999999943
10
922
20
847.99999999999955
42
-0.99999999999999989
10
928.39999999999986
20
847.99999999999955
0
LWPOLYLINE
5
199
100
AcDbEntity
8
0
100
AcDbPolyline
90
8
70
1
43
0.0
10
626.60000000000014
20
847.99999999999932
42
-0.99999999999999989
10
633.00000000000011
20
847.99999999999955
10
633.00000000000011
20
839.99999999999977
42
-0.99999999999999989
10
626.60000000000014
20
839.99999999999943
10
623.40000000000009
20
839.99999999999943
42
-0.99999999999999989
10
617.00000000000011
20
839.99999999999943
10
617.00000000000011
20
847.99999999999955
42
-0.99999999999999989
10
623.40000000000009
20
847.99999999999955
0
LWPOLYLINE
5
200
100
AcDbEntity
8
0
100
AcDbPolyline
90
8
70
1
43
0.0
10
291.60000000000002
20
847.99999999999955
42
-0.99999999999999989
10
298.00000000000006
20
847.99999999999955
10
298.00000000000006
20
839.99999999999943
42
-0.99999999999999989
10
291.60000000000002
20
839.99999999999943
10
288.40000000000009
20
839.99999999999943
42
-0.99999999999999989
10
282.00000000000011
20
839.99999999999943
10
282.00000000000011
20
847.99999999999955
42
-0.99999999999999989
10
288.40000000000009
20
847.99999999999955
0
CIRCLE
5
201
100
AcDbEntity
8
0
100
AcDbCircle
10
610.00000000000011
20
843.99999999999955
30
0
40
2.5
0
LWPOLYLINE
5
202
100
AcDbEntity
8
0
100
AcDbPolyline
90
8
70
1
43
0.0
10
961.60000000000025
20
847.99999999999955
42
-0.99999999999999989
10
968.00000000000011
20
847.99999999999955
10
968.00000000000011
20
839.99999999999943
42
-0.99999999999999989
10
961.60000000000025
20
839.99999999999943
10
958.39999999999986
20
839.99999999999943
42
-0.99999999999999989
10
952
20
839.99999999999943
10
952
20
847.99999999999955
42
-0.99999999999999989
10
958.39999999999986
20
847.99999999999955
0
LWPOLYLINE
5
203
100
AcDbEntity
8
0
100
AcDbPolyline
90
8
70
1
43
0.0
10
603.00000000000011
20
839.99999999999977
42
-0.99999999999999989
10
596.60000000000014
20
839.99999999999943
10
593.40000000000009
20
839.99999999999943
42
-0.99999999999999989
10
587.00000000000011
20
839.99999999999943
10
587.00000000000011
20
847.99999999999955
42
-0.99999999999999989
10
593.40000000000009
20
847.99999999999955
10
596.60000000000014
20
847.99999999999932
42
-0.99999999999999989
10
603.00000000000011
20
847.99999999999955
0
LWPOLYLINE
5
204
100
AcDbEntity
8
0
100
AcDbPolyline
90
8
70
1
43
0.0
10
268.00000000000006
20
839.99999999999943
42
-0.99999999999999989
10
261.60000000000002
20
839.99999999999943
10
258.40000000000009
20
839.99999999999943
42
-0.99999999999999989
10
252.00000000000011
20
839.99999999999943
10
252.00000000000011
20
847.99999999999955
42
-0.99999999999999989
10
258.40000000000009
20
847.99999999999955
10
261.60000000000002
20
847.99999999999955
42
-0.99999999999999989
10
268.00000000000006
20
847.99999999999955
0
CIRCLE
5
205
100
AcDbEntity
8
0
100
AcDbCircle
10
945
20
843.99999999999955
30
0
40
2.5
0
CIRCLE
5
206
100
AcDbEntity
8
0
100
AcDbCircle
10
275
20
1147.9999999999995
30
0
40
2.5
0
LWPOLYLINE
5
207
100
AcDbEntity
8
0
100
AcDbPolyline
90
8
70
1
43
0.0
10
931.59999999999991
20
1151.9999999999995
42
-0.99999999999999989
10
937.99999999999977
20
1151.9999999999995
10
937.99999999999977
20
1143.9999999999995
42
-0.99999999999999989
10
931.59999999999991
20
1143.9999999999993
10
928.39999999999986
20
1143.9999999999995
42
-0.99999999999999989
10
922
20
1143.9999999999993
10
922
20
1151.9999999999995
42
-0.99999999999999989
10
928.39999999999986
20
1151.9999999999995
0
LWPOLYLINE
5
208
100
AcDbEntity
8
0
100
AcDbPolyline
90
8
70
1
43
0.0
10
626.60000000000002
20
1151.9999999999995
42
-0.99999999999999989
10
633
20
1151.9999999999995
10
633
20
1144
42
-0.99999999999999989
10
626.60000000000002
20
1143.9999999999993
10
623.40000000000009
20
1144
42
-0.99999999999999989
10
617
20
1143.9999999999993
10
617
20
1151.9999999999993
42
-0.99999999999999989
10
623.40000000000009
20
1151.9999999999995
0
LWPOLYLINE
5
209
100
AcDbEntity
8
0
100
AcDbPolyline
90
8
70
1
43
0.0
10
291.60000000000008
20
1151.9999999999995
42
-0.99999999999999989
10
298.00000000000006
20
1151.9999999999995
10
298
20
1144
42
-0.99999999999999989
10
291.60000000000008
20
1143.9999999999993
10
288.39999999999986
20
1144
42
-0.99999999999999989
10
281.99999999999994
20
1143.9999999999993
10
281.99999999999994
20
1151.9999999999995
42
-0.99999999999999989
10
288.39999999999998
20
1151.9999999999995
0
CIRCLE
5
210
100
AcDbEntity
8
0
100
AcDbCircle
10
610
20
1147.9999999999995
30
0
40
2.5
0
LWPOLYLINE
5
211
100
AcDbEntity
8
0
100
AcDbPolyline
90
8
70
1
43
0.0
10
961.59999999999991
20
1151.9999999999995
42
-0.99999999999999989
10
967.99999999999977
20
1151.9999999999995
10
967.99999999999977
20
1143.9999999999995
42
-0.99999999999999989
10
961.59999999999991
20
1143.9999999999993
10
958.39999999999975
20
1143.9999999999995
42
-0.99999999999999989
10
951.99999999999989
20
1143.9999999999993
10
951.99999999999989
20
1151.9999999999995
42
-0.99999999999999989
10
958.39999999999975
20
1151.9999999999995
0
LWPOLYLINE
5
212
100
AcDbEntity
8
0
100
AcDbPolyline
90
8
70
1
43
0.0
10
603
20
1144
42
-0.99999999999999989
10
596.60000000000002
20
1143.9999999999993
10
593.40000000000009
20
1144
42
-0.99999999999999989
10
587
20
1143.9999999999993
10
587
20
1151.9999999999993
42
-0.99999999999999989
10
593.40000000000009
20
1151.9999999999995
10
596.60000000000002
20
1151.9999999999995
42
-0.99999999999999989
10
603
20
1151.9999999999995
0
LWPOLYLINE
5
213
100
AcDbEntity
8
0
100
AcDbPolyline
90
8
70
1
43
0.0
10
267.99999999999989
20
1144
42
-0.99999999999999989
10
261.59999999999997
20
1143.9999999999993
10
258.39999999999986
20
1144
42
-0.99999999999999989
10
251.99999999999994
20
1143.9999999999993
10
251.99999999999994
20
1151.9999999999995
42
-0.99999999999999989
10
258.39999999999998
20
1151.9999999999995
10
261.59999999999997
20
1151.9999999999995
42
-0.99999999999999989
10
268
20
1151.9999999999995
0
CIRCLE
5
214
100
AcDbEntity
8
0
100
AcDbCircle
10
945
20
1147.9999999999995
30
0
40
2.5
0
CIRCLE
5
215
100
AcDbEntity
8
0
100
AcDbCircle
10
275
20
1451.9999999999993
30
0
40
2.5
0
LWPOLYLINE
5
216
100
AcDbEntity
8
0
100
AcDbPolyline
90
8
70
1
43
0.0
10
931.60000000000025
20
1455.9999999999995
42
-0.99999999999999989
10
938.00000000000011
20
1455.9999999999995
10
938.00000000000011
20
1447.9999999999998
42
-0.99999999999999989
10
931.60000000000025
20
1447.9999999999993
10
928.40000000000009
20
1447.9999999999998
42
-0.99999999999999989
10
922.00000000000023
20
1447.9999999999993
10
922.00000000000023
20
1456
42
-0.99999999999999989
10
928.40000000000009
20
1455.9999999999993
0
LWPOLYLINE
5
217
100
AcDbEntity
8
0
100
AcDbPolyline
90
8
70
1
43
0.0
10
626.59999999999991
20
1455.9999999999995
42
-0.99999999999999989
10
633
20
1455.9999999999995
10
633.00000000000011
20
1447.9999999999998
42
-0.99999999999999989
10
626.59999999999991
20
1447.9999999999993
10
623.40000000000009
20
1447.9999999999998
42
-0.99999999999999989
10
617
20
1447.9999999999993
10
617.00000000000011
20
1455.9999999999993
42
-0.99999999999999989
10
623.39999999999998
20
1455.9999999999993
0
LWPOLYLINE
5
218
100
AcDbEntity
8
0
100
AcDbPolyline
90
8
70
1
43
0.0
10
291.60000000000019
20
1455.9999999999986
42
-0.99999999999999989
10
298.00000000000006
20
1455.9999999999995
10
297.99999999999972
20
1447.9999999999995
42
-0.99999999999999989
10
291.60000000000002
20
1447.9999999999991
10
288.39999999999981
20
1447.9999999999993
42
-0.99999999999999989
10
281.99999999999994
20
1447.9999999999993
10
281.99999999999989
20
1455.9999999999989
42
-0.99999999999999989
10
288.40000000000003
20
1455.9999999999993
0
CIRCLE
5
219
100
AcDbEntity
8
0
100
AcDbCircle
10
610
20
1451.9999999999993
30
0
40
2.5
0
LWPOLYLINE
5
220
100
AcDbEntity
8
0
100
AcDbPolyline
90
8
70
1
43
0.0
10
961.60000000000025
20
1455.9999999999995
42
-0.99999999999999989
10
968.00000000000011
20
1455.9999999999995
10
968.00000000000011
20
1447.9999999999998
42
-0.99999999999999989
10
961.60000000000025
20
1447.9999999999993
10
958.39999999999975
20
1447.9999999999998
42
-0.99999999999999989
10
951.99999999999989
20
1447.9999999999993
10
951.99999999999989
20
1456
42
-0.99999999999999989
10
958.39999999999975
20
1455.9999999999993
0
LWPOLYLINE
5
221
100
AcDbEntity
8
0
100
AcDbPolyline
90
8
70
1
43
0.0
10
603.00000000000011
20
1447.9999999999998
42
-0.99999999999999989
10
596.59999999999991
20
1447.9999999999993
10
593.40000000000009
20
1447.9999999999998
42
-0.99999999999999989
10
587
20
1447.9999999999993
10
587.00000000000011
20
1455.9999999999993
42
-0.99999999999999989
10
593.39999999999998
20
1455.9999999999993
10
596.59999999999991
20
1455.9999999999995
42
-0.99999999999999989
10
603
20
1455.9999999999995
0
LWPOLYLINE
5
222
100
AcDbEntity
8
0
100
AcDbPolyline
90
8
70
1
43
0.0
10
267.99999999999966
20
1447.9999999999995
42
-0.99999999999999989
10
261.59999999999997
20
1447.9999999999991
10
258.39999999999981
20
1447.9999999999993
42
-0.99999999999999989
10
251.99999999999994
20
1447.9999999999993
10
251.99999999999989
20
1455.9999999999989
42
-0.99999999999999989
10
258.40000000000003
20
1455.9999999999993
10
261.60000000000014
20
1455.9999999999986
42
-0.99999999999999989
10
268
20
1455.9999999999995
0
CIRCLE
5
223
100
AcDbEntity
8
0
100
AcDbCircle
10
945
20
1451.9999999999995
30
0
40
2.5
0
CIRCLE
5
224
100
AcDbEntity
8
0
100
AcDbCircle
10
275
20
1755.9999999999993
30
0
40
2.5
0
LWPOLYLINE
5
225
100
AcDbEntity
8
0
100
AcDbPolyline
90
8
70
1
43
0.0
10
931.60000000000025
20
1759.9999999999995
42
-0.99999999999999989
10
938.00000000000011
20
1759.9999999999995
10
938.00000000000011
20
1751.9999999999993
42
-0.99999999999999989
10
931.60000000000025
20
1751.9999999999993
10
928.40000000000009
20
1751.9999999999993
42
-0.99999999999999989
10
922.00000000000023
20
1751.9999999999993
10
922.00000000000023
20
1759.9999999999995
42
-0.99999999999999989
10
928.40000000000009
20
1759.9999999999995
0
LWPOLYLINE
5
226
100
AcDbEntity
8
0
100
AcDbPolyline
90
8
70
1
43
0.0
10
626.60000000000002
20
1759.9999999999995
42
-0.99999999999999989
10
633
20
1759.9999999999995
10
633
20
1751.9999999999993
42
-0.99999999999999989
10
626.60000000000002
20
1751.9999999999993
10
623.40000000000009
20
1751.9999999999993
42
-0.99999999999999989
10
617
20
1751.9999999999993
10
617
20
1759.9999999999995
42
-0.99999999999999989
10
623.40000000000009
20
1759.9999999999995
0
LWPOLYLINE
5
227
100
AcDbEntity
8
0
100
AcDbPolyline
90
8
70
1
43
0.0
10
291.60000000000002
20
1759.9999999999995
42
-0.99999999999999989
10
298.00000000000006
20
1759.9999999999995
10
298.00000000000006
20
1751.9999999999993
42
-0.99999999999999989
10
291.60000000000002
20
1751.9999999999993
10
288.40000000000003
20
1751.9999999999993
42
-0.99999999999999989
10
282
20
1751.9999999999993
10
282
20
1759.9999999999995
42
-0.99999999999999989
10
288.40000000000003
20
1759.9999999999995
0
CIRCLE
5
228
100
AcDbEntity
8
0
100
AcDbCircle
10
610
20
1755.9999999999993
30
0
40
2.5
0
LWPOLYLINE
5
229
100
AcDbEntity
8
0
100
AcDbPolyline
90
8
70
1
43
0.0
10
961.60000000000025
20
1759.9999999999995
42
-0.99999999999999989
10
968.00000000000011
20
1759.9999999999995
10
968.00000000000011
20
1751.9999999999993
42
-0.99999999999999989
10
961.60000000000025
20
1751.9999999999993
10
958.39999999999975
20
1751.9999999999993
42
-0.99999999999999989
10
951.99999999999989
20
1751.9999999999993
10
951.99999999999989
20
1759.9999999999995
42
-0.99999999999999989
10
958.39999999999975
20
1759.9999999999995
0
LWPOLYLINE
5
230
100
AcDbEntity
8
0
100
AcDbPolyline
90
8
70
1
43
0.0
10
603
20
1751.9999999999993
42
-0.99999999999999989
10
596.60000000000002
20
1751.9999999999993
10
593.40000000000009
20
1751.9999999999993
42
-0.99999999999999989
10
587
20
1751.9999999999993
10
587
20
1759.9999999999995
42
-0.99999999999999989
10
593.40000000000009
20
1759.9999999999995
10
596.60000000000002
20
1759.9999999999995
42
-0.99999999999999989
10
603
20
1759.9999999999995
0
LWPOLYLINE
5
231
100
AcDbEntity
8
0
100
AcDbPolyline
90
8
70
1
43
0.0
10
268
20
1751.9999999999993
42
-0.99999999999999989
10
261.59999999999997
20
1751.9999999999993
10
258.40000000000003
20
1751.9999999999993
42
-0.99999999999999989
10
252.00000000000003
20
1751.9999999999993
10
252.00000000000003
20
1759.9999999999995
42
-0.99999999999999989
10
258.40000000000003
20
1759.9999999999995
10
261.59999999999997
20
1759.9999999999995
42
-0.99999999999999989
10
268
20
1759.9999999999995
0
CIRCLE
5
232
100
AcDbEntity
8
0
100
AcDbCircle
10
945
20
1755.9999999999993
30
0
40
2.5
0
CIRCLE
5
233
100
AcDbEntity
8
0
100
AcDbCircle
10
436.3333333333332
20
1195.9999999999991
30
0
40
2.5
0
CIRCLE
5
234
100
AcDbEntity
8
0
100
AcDbCircle
10
436.33333333333326
20
635.99999999999909
30
0
40
2.5
0
CIRCLE
5
235
100
AcDbEntity
8
0
100
AcDbCircle
10
436.33333333333314
20
1755.9999999999991
30
0
40
2.5
0
CIRCLE
5
236
100
AcDbEntity
8
0
100
AcDbCircle
10
783.66666666666652
20
1195.9999999999991
30
0
40
2.5
0
CIRCLE
5
237
100
AcDbEntity
8
0
100
AcDbCircle
10
783.66666666666663
20
635.99999999999909
30
0
40
2.5
0
CIRCLE
5
238
100
AcDbEntity
8
0
100
AcDbCircle
10
783.66666666666652
20
1755.9999999999991
30
0
40
2.5
0
CIRCLE
5
239
100
AcDbEntity
8
0
100
AcDbCircle
10
115.0000000000167
20
420.999999999995
30
0
40
2.5
0
CIRCLE
5
240
100
AcDbEntity
8
0
100
AcDbCircle
10
357.00000000000364
20
421.00000000003547
30
0
40
2.5
0
CIRCLE
5
241
100
AcDbEntity
8
0
100
AcDbCircle
10
610
20
421.0000000000291
30
0
40
2.5
0
CIRCLE
5
242
100
AcDbEntity
8
0
100
AcDbCircle
10
863.00000000000011
20
420.99999999999693
30
0
40
2.5
0
CIRCLE
5
243
100
AcDbEntity
8
0
100
AcDbCircle
10
1104.9999999999986
20
421.00000000017542
30
0
40
2.5
0
CIRCLE
5
244
100
AcDbEntity
8
0
100
AcDbCircle
10
995.49999999999591
20
312.00000000001694
30
0
40
2.5
0
CIRCLE
5
245
100
AcDbEntity
8
0
100
AcDbCircle
10
738.49999999999545
20
312.00000000001324
30
0
40
2.5
0
CIRCLE
5
246
100
AcDbEntity
8
0
100
AcDbCircle
10
481.49999999999636
20
312.0000000000104
30
0
40
2.5
0
CIRCLE
5
247
100
AcDbEntity
8
0
100
AcDbCircle
10
224.49999999999568
20
312.00000000000728
30
0
40
2.5
0
LWPOLYLINE
5
248
100
AcDbEntity
8
0
100
AcDbPolyline
90
8
70
1
43
0.0
10
951.99999999999977
20
559.99999999999886
42
-0.99999999999999989
10
958.39999999999986
20
559.99999999999943
10
961.60000000000014
20
559.99999999999909
42
-0.99999999999999989
10
968
20
559.99999999999909
10
968.00000000000057
20
551.9999999999992
42
-0.99999999999999989
10
961.60000000000036
20
551.9999999999992
10
958.4000000000002
20
551.99999999999909
42
-0.99999999999999989
10
952
20
551.99999999999909
0
CIRCLE
5
249
100
AcDbEntity
8
0
100
AcDbCircle
10
945
20
555.99999999999909
30
0
40
2.5
0
LWPOLYLINE
5
250
100
AcDbEntity
8
0
100
AcDbPolyline
90
8
70
1
43
0.0
10
921.99999999999977
20
559.99999999999886
42
-0.99999999999999989
10
928.39999999999986
20
559.99999999999943
10
931.60000000000014
20
559.99999999999909
42
-0.99999999999999989
10
938
20
559.99999999999909
10
938
20
551.99999999999909
42
-0.99999999999999989
10
931.60000000000014
20
551.99999999999909
10
928.4000000000002
20
551.99999999999909
42
-0.99999999999999989
10
922
20
551.99999999999909
0
LWPOLYLINE
5
251
100
AcDbEntity
8
0
100
AcDbPolyline
90
8
70
1
43
0.0
10
633.00000000000045
20
551.99999999999909
42
-0.99999999999999989
10
626.60000000000048
20
551.99999999999909
10
623.40000000000055
20
551.99999999999886
42
-0.99999999999999989
10
617.00000000000045
20
551.9999999999992
10
617.00000000000057
20
559.99999999999886
42
-0.99999999999999989
10
623.40000000000043
20
559.99999999999943
10
626.60000000000048
20
559.99999999999898
42
-0.99999999999999989
10
633.00000000000045
20
559.99999999999932
0
CIRCLE
5
252
100
AcDbEntity
8
0
100
AcDbCircle
10
610.00000000000045
20
555.9999999999992
30
0
40
2.5
0
LWPOLYLINE
5
253
100
AcDbEntity
8
0
100
AcDbPolyline
90
8
70
1
43
0.0
10
587.00000000000034
20
559.99999999999864
42
-0.99999999999999989
10
593.40000000000043
20
559.99999999999943
10
596.60000000000048
20
559.99999999999898
42
-0.99999999999999989
10
603.00000000000045
20
559.99999999999932
10
603.00000000000045
20
551.99999999999909
42
-0.99999999999999989
10
596.60000000000048
20
551.99999999999909
10
593.40000000000032
20
551.99999999999886
42
-0.99999999999999989
10
587.00000000000045
20
551.99999999999886
0
LWPOLYLINE
5
254
100
AcDbEntity
8
0
100
AcDbPolyline
90
8
70
1
43
0.0
10
282.00000000000011
20
559.99999999999886
42
-0.99999999999999989
10
288.40000000000009
20
559.99999999999943
10
291.60000000000008
20
559.99999999999909
42
-0.99999999999999989
10
298.00000000000006
20
559.99999999999909
10
298.00000000000006
20
551.99999999999909
42
-0.99999999999999989
10
291.60000000000008
20
551.99999999999909
10
288.40000000000009
20
551.99999999999909
42
-0.99999999999999989
10
282.00000000000011
20
551.99999999999909
0
CIRCLE
5
255
100
AcDbEntity
8
0
100
AcDbCircle
10
275
20
555.99999999999909
30
0
40
2.5
0
LWPOLYLINE
5
256
100
AcDbEntity
8
0
100
AcDbPolyline
90
8
70
1
43
0.0
10
261.60000000000002
20
559.99999999999909
42
-0.99999999999999989
10
268.00000000000006
20
559.99999999999909
10
268.00000000000006
20
551.99999999999909
42
-0.99999999999999989
10
261.60000000000002
20
551.99999999999909
10
258.40000000000026
20
551.99999999999932
42
-0.99999999999999989
10
252.00000000000023
20
551.99999999999932
10
252.00000000000023
20
559.99999999999943
42
-0.99999999999999989
10
258.40000000000026
20
559.99999999999943
0
LWPOLYLINE
5
257
100
AcDbEntity
8
0
100
AcDbPolyline
90
8
70
1
43
0.0
10
468.09999999999604
20
318.00000000000779
42
-0.99999999999999989
10
474.49999999999602
20
318.00000000001035
10
474.49999999999636
20
306.00000000000909
42
-0.99999999999999989
10
468.09999999999633
20
306.00000000000904
10
464.89999999999657
20
306.00000000000995
42
-0.99999999999999989
10
458.49999999999653
20
306.00000000001
10
458.49999999999625
20
318.00000000001023
42
-0.99999999999999989
10
464.89999999999623
20
318.00000000000989
0
LWPOLYLINE
5
258
100
AcDbEntity
8
0
100
AcDbPolyline
90
8
70
1
43
0.0
10
241.09999999999565
20
318.00000000000779
42
-0.99999999999999989
10
247.49999999999568
20
318.00000000000779
10
247.49999999999596
20
306.00000000000108
42
-0.99999999999999989
10
241.09999999999593
20
306.00000000000108
10
237.89999999999588
20
306.00000000000563
42
-0.99999999999999989
10
231.49999999999585
20
306.00000000000733
10
231.49999999999574
20
318.00000000000739
42
-0.99999999999999989
10
237.89999999999571
20
318.00000000000762
0
LWPOLYLINE
5
259
100
AcDbEntity
8
0
100
AcDbPolyline
90
8
70
1
43
0.0
10
211.09999999999553
20
318.00000000000495
42
-0.99999999999999989
10
217.49999999999551
20
318.00000000000722
10
217.49999999999579
20
306.00000000000591
42
-0.99999999999999989
10
211.09999999999582
20
306.00000000000591
10
207.89999999999588
20
306.00000000000693
42
-0.99999999999999989
10
201.49999999999585
20
306.00000000000693
10
201.49999999999557
20
318.00000000000682
42
-0.99999999999999989
10
207.8999999999956
20
318.00000000000705
0
LWPOLYLINE
5
260
100
AcDbEntity
8
0
100
AcDbPolyline
90
8
70
1
43
0.0
10
725.09999999999491
20
318.00000000001063
42
-0.99999999999999989
10
731.49999999999511
20
318.00000000001319
10
731.49999999999534
20
306.00000000001188
42
-0.99999999999999989
10
725.09999999999548
20
306.00000000001188
10
721.89999999999543
20
306.00000000001285
42
-0.99999999999999989
10
715.49999999999557
20
306.00000000001285
10
715.49999999999523
20
318.0000000000129
42
-0.99999999999999989
10
721.89999999999509
20
318.0000000000129
0
LWPOLYLINE
5
261
100
AcDbEntity
8
0
100
AcDbPolyline
90
8
70
1
43
0.0
10
498.09999999999616
20
318.00000000001063
42
-0.99999999999999989
10
504.49999999999619
20
318.00000000001091
10
504.49999999999648
20
306.00000000000165
42
-0.99999999999999989
10
498.0999999999965
20
306.00000000000165
10
494.8999999999964
20
306.00000000000847
42
-0.99999999999999989
10
488.49999999999636
20
306.00000000001046
10
488.49999999999625
20
318.00000000001046
42
-0.99999999999999989
10
494.89999999999623
20
318.0000000000108
0
LWPOLYLINE
5
262
100
AcDbEntity
8
0
100
AcDbPolyline
90
8
70
1
43
0.0
10
982.09999999999536
20
318.00000000001432
42
-0.99999999999999989
10
988.49999999999557
20
318.00000000001688
10
988.49999999999579
20
306.00000000001558
42
-0.99999999999999989
10
982.09999999999593
20
306.00000000001558
10
978.89999999999588
20
306.0000000000166
42
-0.99999999999999989
10
972.49999999999602
20
306.0000000000166
10
972.49999999999568
20
318.0000000000166
42
-0.99999999999999989
10
978.89999999999554
20
318.0000000000166
0
LWPOLYLINE
5
263
100
AcDbEntity
8
0
100
AcDbPolyline
90
8
70
1
43
0.0
10
755.09999999999536
20
318.00000000001347
42
-0.99999999999999989
10
761.49999999999523
20
318.00000000001376
10
761.49999999999545
20
306.00000000000222
42
-0.99999999999999989
10
755.09999999999559
20
306.00000000000222
10
751.89999999999532
20
306.00000000001131
42
-0.99999999999999989
10
745.49999999999545
20
306.0000000000133
10
745.49999999999523
20
318.00000000001347
42
-0.99999999999999989
10
751.89999999999509
20
318.00000000001347
0
LWPOLYLINE
5
264
100
AcDbEntity
8
0
100
AcDbPolyline
90
8
70
1
43
0.0
10
1012.0999999999958
20
318.00000000001717
42
-0.99999999999999989
10
1018.4999999999957
20
318.00000000001745
10
1018.4999999999959
20
306.00000000000296
42
-0.99999999999999989
10
1012.099999999996
20
306.00000000000296
10
1008.8999999999954
20
306.00000000001501
42
-0.99999999999999989
10
1002.4999999999959
20
306.000000000017
10
1002.4999999999957
20
318.00000000001717
42
-0.99999999999999989
10
1008.8999999999955
20
318.00000000001717
0
CIRCLE
5
265
100
AcDbEntity
8
0
100
AcDbCircle
10
115.0000000000167
20
124.99999999999517
30
0
40
2.5
0
CIRCLE
5
266
100
AcDbEntity
8
0
100
AcDbCircle
10
357.00000000000375
20
125.00000000003581
30
0
40
2.5
0
CIRCLE
5
267
100
AcDbEntity
8
0
100
AcDbCircle
10
610
20
125.00000000002927
30
0
40
2.5
0
CIRCLE
5
268
100
AcDbEntity
8
0
100
AcDbCircle
10
863.00000000000011
20
124.99999999999744
30
0
40
2.5
0
CIRCLE
5
269
100
AcDbEntity
8
0
100
AcDbCircle
10
1104.9999999999986
20
125.00000000017593
30
0
40
2.5
0
CIRCLE
5
270
100
AcDbEntity
8
0
100
AcDbCircle
10
995.49999999999591
20
32.000000000017224
30
0
40
2.5
0
CIRCLE
5
271
100
AcDbEntity
8
0
100
AcDbCircle
10
738.49999999999545
20
32.000000000013529
30
0
40
2.5
0
CIRCLE
5
272
100
AcDbEntity
8
0
100
AcDbCircle
10
481.49999999999636
20
32.000000000010687
30
0
40
2.5
0
CIRCLE
5
273
100
AcDbEntity
8
0
100
AcDbCircle
10
224.49999999999568
20
32.00000000000756
30
0
40
2.5
0
LWPOLYLINE
5
274
100
AcDbEntity
8
0
100
AcDbPolyline
90
8
70
1
43
0.0
10
468.09999999999604
20
38.000000000008285
42
-0.99999999999999989
10
474.49999999999602
20
38.00000000001063
10
474.49999999999636
20
26.000000000009393
42
-0.99999999999999989
10
468.09999999999633
20
26.000000000009322
10
464.89999999999657
20
26.00000000001053
42
-0.99999999999999989
10
458.49999999999653
20
26.000000000010459
10
458.49999999999625
20
38.000000000010274
42
-0.99999999999999989
10
464.89999999999623
20
38.000000000010346
0
LWPOLYLINE
5
275
100
AcDbEntity
8
0
100
AcDbPolyline
90
8
70
1
43
0.0
10
241.09999999999559
20
38.000000000008072
42
-0.99999999999999989
10
247.49999999999559
20
38.000000000008072
10
247.49999999999588
20
26.000000000001364
42
-0.99999999999999989
10
241.09999999999587
20
26.000000000001364
10
237.8999999999958
20
26.000000000005343
42
-0.99999999999999989
10
231.49999999999579
20
26.000000000007617
10
231.49999999999565
20
38.000000000007503
42
-0.99999999999999989
10
237.89999999999566
20
38.000000000008072
0
LWPOLYLINE
5
276
100
AcDbEntity
8
0
100
AcDbPolyline
90
8
70
1
43
0.0
10
211.09999999999545
20
38.00000000000523
42
-0.99999999999999989
10
217.49999999999545
20
38.000000000007503
10
217.49999999999574
20
26.00000000000648
42
-0.99999999999999989
10
211.09999999999573
20
26.00000000000648
10
207.89999999999588
20
26.000000000007049
42
-0.99999999999999989
10
201.49999999999585
20
26.000000000007049
10
201.49999999999557
20
38.000000000006935
42
-0.99999999999999989
10
207.8999999999956
20
38.000000000007503
0
LWPOLYLINE
5
277
100
AcDbEntity
8
0
100
AcDbPolyline
90
8
70
1
43
0.0
10
725.09999999999525
20
38.000000000011198
42
-0.99999999999999989
10
731.49999999999511
20
38.000000000013472
10
731.49999999999534
20
26.000000000012164
42
-0.99999999999999989
10
725.09999999999548
20
26.000000000012164
10
721.89999999999543
20
26.000000000013301
42
-0.99999999999999989
10
715.49999999999557
20
26.000000000013301
10
715.49999999999523
20
38.000000000012903
42
-0.99999999999999989
10
721.89999999999509
20
38.000000000013472
0
LWPOLYLINE
5
278
100
AcDbEntity
8
0
100
AcDbPolyline
90
8
70
1
43
0.0
10
498.09999999999616
20
38.000000000011127
42
-0.99999999999999989
10
504.49999999999619
20
38.000000000011198
10
504.49999999999648
20
26.000000000002004
42
-0.99999999999999989
10
498.0999999999965
20
26.000000000001933
10
494.8999999999964
20
26.000000000008967
42
-0.99999999999999989
10
488.49999999999636
20
26.000000000010743
10
488.49999999999625
20
38.000000000010843
42
-0.99999999999999989
10
494.89999999999623
20
38.000000000010914
0
LWPOLYLINE
5
279
100
AcDbEntity
8
0
100
AcDbPolyline
90
8
70
1
43
0.0
10
982.0999999999957
20
38.000000000014893
42
-0.99999999999999989
10
988.49999999999557
20
38.000000000017167
10
988.49999999999579
20
26.000000000015859
42
-0.99999999999999989
10
982.09999999999593
20
26.000000000015859
10
978.89999999999588
20
26.000000000016712
42
-0.99999999999999989
10
972.49999999999602
20
26.000000000016712
10
972.49999999999568
20
38.000000000016882
42
-0.99999999999999989
10
978.89999999999554
20
38.000000000016882
0
LWPOLYLINE
5
280
100
AcDbEntity
8
0
100
AcDbPolyline
90
8
70
1
43
0.0
10
755.09999999999536
20
38.00000000001404
42
-0.99999999999999989
10
761.49999999999523
20
38.00000000001404
10
761.49999999999545
20
26.000000000002501
42
-0.99999999999999989
10
755.09999999999559
20
26.000000000002501
10
751.89999999999498
20
26.00000000001188
42
-0.99999999999999989
10
745.49999999999545
20
26.000000000013586
10
745.49999999999523
20
38.000000000013472
42
-0.99999999999999989
10
751.89999999999509
20
38.00000000001404
0
LWPOLYLINE
5
281
100
AcDbEntity
8
0
100
AcDbPolyline
90
8
70
1
43
0.0
10
1012.0999999999958
20
38.000000000017735
42
-0.99999999999999989
10
1018.4999999999957
20
38.000000000017735
10
1018.4999999999959
20
26.00000000000307
42
-0.99999999999999989
10
1012.099999999996
20
26.00000000000307
10
1008.8999999999958
20
26.000000000015007
42
-0.99999999999999989
10
1002.4999999999959
20
26.00000000001728
10
1002.4999999999957
20
38.000000000017451
42
-0.99999999999999989
10
1008.8999999999955
20
38.000000000017451
0
LWPOLYLINE
5
282
100
AcDbEntity
8
0
100
AcDbPolyline
90
4
70
1
43
0.0
10
0
20
0
10
0
20
2440
10
1220
20
2440
10
1220
20
0
0
ARC
5
283
100
AcDbEntity
8
0
100
AcDbCircle
10
8.0000000000008988
20
1879.9999999999991
30
0
40
3.3000000000000069
100
AcDbArc
50
-197.63970139423591
51
17.639701394235907
0
LINE
5
284
100
AcDbEntity
8
0
100
AcDbLine
10
4.8551629612975233
20
1880.9999999999991
30
0
11
-7.1054273576010019e-14
21
1880.9999999999991
31
0
0
LINE
5
285
100
AcDbEntity
8
0
100
AcDbLine
10
1208.8551629610329
20
1880.9999999999991
30
0
11
11.144837038704338
21
1880.9999999999991
31
0
0
ARC
5
286
100
AcDbEntity
8
0
100
AcDbCircle
10
1211.9999999998267
20
1880.000000000284
30
0
40
3.3000000000001761
100
AcDbArc
50
-197.63970138904548
51
17.639701389048046
0
LINE
5
287
100
AcDbEntity
8
0
100
AcDbLine
10
1220
20
1880.9999999999991
30
0
11
1215.1448370386206
21
1880.9999999999991
31
0
0
ARC
5
288
100
AcDbEntity
8
0
100
AcDbCircle
10
981.23242684575519
20
2188.1126107573641
30
-7.5210316014933541e-44
40
3.2000000000002151
100
AcDbArc
50
-45.000000000001421
51
135
0
LINE
5
289
100
AcDbEntity
8
0
100
AcDbLine
10
983.49516854555213
20
2185.849869057567
30
2.8215951768677339e-30
11
983.49516854555236
21
2182.3753524571603
31
-2.8421709430404007e-13
0
LINE
5
290
100
AcDbEntity
8
0
100
AcDbLine
10
983.49516854555236
20
2182.3753524571603
30
-2.8421709430404007e-13
11
999.49516854555225
21
2182.3753524571603
31
-2.8421709430404007e-13
0
LINE
5
291
100
AcDbEntity
8
0
100
AcDbLine
10
999.49516854555225
20
2182.3753524571603
30
-2.8421709430404007e-13
11
999.49516854555225
21
2190.3753524571603
31
0
0
ARC
5
292
100
AcDbEntity
8
0
100
AcDbCircle
10
1002.6951685455529
20
2190.3753524571603
30
-1.1122806560578236e-43
40
3.1999999999999318
100
AcDbArc
50
0
51
180
0
LINE
5
293
100
AcDbEntity
8
0
100
AcDbLine
10
1005.8951685455529
20
2190.3753524571598
30
-5.0487097933848117e-30
11
1115.9951685455585
21
2190.3753524571589
31
1.2621774483536189e-28
0
LINE
5
294
100
AcDbEntity
8
0
100
AcDbLine
10
1115.9951685455585
20
2190.3753524571589
30
1.2621774483536189e-28
11
1115.9951685455601
21
2390.3753524571589
31
-2.8421709430404007e-13
0
LINE
5
295
100
AcDbEntity
8
0
100
AcDbLine
10
1115.9951685455601
20
2390.3753524571589
30
-2.8421709430404007e-13
11
1091.9951685455494
21
2390.3753524571589
31
-2.8421709430404012e-13
0
LINE
5
296
100
AcDbEntity
8
0
100
AcDbLine
10
1091.9951685455494
20
2390.3753524571589
30
-2.8421709430404012e-13
11
1091.9951685455485
21
2296.775352457159
31
9.8954711951005286e-28
0
ARC
5
297
100
AcDbEntity
8
0
100
AcDbCircle
10
1091.9951685455487
20
2293.5753524571592
30
-2.1895288505075267e-46
40
3.1999999999999318
100
AcDbArc
50
-90.000000000012221
51
90.000000000004079
0
LINE
5
298
100
AcDbEntity
8
0
100
AcDbLine
10
1091.995168545548
20
2290.3753524571594
30
-2.2502460003367685e-30
11
1079.9951685455483
21
2290.3753524571589
31
-1.5777218104420236e-29
0
ARC
5
299
100
AcDbEntity
8
0
100
AcDbCircle
10
1079.9951685455489
20
2293.5753524571596
30
-2.8421709430404007e-13
40
3.1999999999999318
100
AcDbArc
50
90.000000000008143
51
269.99999999998778
0
LINE
5
300
100
AcDbEntity
8
0
100
AcDbLine
10
1079.9951685455485
20
2296.7753524571594
30
-2.8421709430404007e-13
11
1079.9951685455494
21
2390.3753524571589
31
-2.8421709430404108e-13
0
LINE
5
301
100
AcDbEntity
8
0
100
AcDbLine
10
1079.9951685455494
20
2390.3753524571589
30
-2.8421709430404108e-13
11
1005.8951685455581
21
2390.3753524571598
31
-2.8421709430404018e-13
0
ARC
5
302
100
AcDbEntity
8
0
100
AcDbCircle
10
1002.6951685455582
20
2390.3753524571607
30
-1.1470261760153656e-54
40
3.1999999999999318
100
AcDbArc
50
180
51
360
0
LINE
5
303
100
AcDbEntity
8
0
100
AcDbLine
10
999.49516854555827
20
2390.3753524571603
30
5.1791991241445259e-41
11
999.49516854555759
21
2398.3753524571644
31
-6.4763141968508634e-28
0
LINE
5
304
100
AcDbEntity
8
0
100
AcDbLine
10
999.49516854555759
20
2398.3753524571644
30
-6.4763141968508634e-28
11
983.49516854555759
21
2398.3753524571644
31
-1.076197220601459e-41
0
LINE
5
305
100
AcDbEntity
8
0
100
AcDbLine
10
983.49516854555759
20
2398.3753524571644
30
-1.076197220601459e-41
11
983.4951685455577
21
2394.9008358567585
31
-2.8421709430404007e-13
0
ARC
5
306
100
AcDbEntity
8
0
100
AcDbCircle
10
981.23242684576041
20
2392.6380941569623
30
2.8753314709576178e-45
40
3.2000000000001143
100
AcDbArc
50
-134.99999999987332
51
44.999999999985604
0
LINE
5
307
100
AcDbEntity
8
0
100
AcDbLine
10
978.96968514596836
20
2390.3753524571603
30
-2.2271146165781461e-30
11
977.99516854555793
21
2390.3753524571644
31
2.2482535798831728e-28
0
LINE
5
308
100
AcDbEntity
8
0
100
AcDbLine
10
977.99516854555793
20
2390.3753524571644
30
2.2482535798831728e-28
11
977.99516854555793
21
2330.3753524571644
31
-5.3967439317704975e-28
0
LINE
5
309
100
AcDbEntity
8
0
100
AcDbLine
10
977.99516854555793
20
2330.3753524571644
30
-5.3967439317704975e-28
11
974.99516854555782
21
2330.3753524571644
31
-7.8886090522114633e-30
0
LINE
5
310
100
AcDbEntity
8
0
100
AcDbLine
10
974.99516854555782
20
2330.3753524571644
30
-7.8886090522114633e-30
11
974.99516854555782
21
2390.3753524571603
31
3.4803413835804883e-29
0
LINE
5
311
100
AcDbEntity
8
0
100
AcDbLine
10
974.99516854555782
20
2390.3753524571603
30
3.4803413835804883e-29
11
974.02065194514535
21
2390.3753524571603
31
4.9297920996396658e-71
0
ARC
5
312
100
AcDbEntity
8
0
100
AcDbCircle
10
971.75791024535397
20
2392.6380941569632
30
-3.5032461608120427e-44
40
3.1999999999997124
100
AcDbArc
50
134.99999999998991
51
314.99999999985323
0
LINE
5
313
100
AcDbEntity
8
0
100
AcDbLine
10
969.4951685455577
20
2394.9008358567603
30
-2.9724027968319924e-31
11
969.49516854555759
21
2398.3753524571644
31
1.9392753605877048e-29
0
LINE
5
314
100
AcDbEntity
8
0
100
AcDbLine
10
969.49516854555759
20
2398.3753524571644
30
1.9392753605877048e-29
11
953.49516854555759
21
2398.3753524571644
31
1.5777218104409474e-29
0
LINE
5
315
100
AcDbEntity
8
0
100
AcDbLine
10
953.49516854555759
20
2398.3753524571644
30
1.5777218104409474e-29
11
953.4951685455577
21
2390.3753524571603
31
-2.8421709430403942e-13
0
ARC
5
316
100
AcDbEntity
8
0
100
AcDbCircle
10
950.29516854555834
20
2390.3753524571612
30
1.1502123598376305e-54
40
3.1999999999999318
100
AcDbArc
50
180
51
360
0
LINE
5
317
100
AcDbEntity
8
0
100
AcDbLine
10
947.09516854555841
20
2390.3753524571612
30
5.1791991241454813e-41
11
849.99516854555168
21
2390.3753524571612
31
5.0487097934142029e-28
0
LINE
5
318
100
AcDbEntity
8
0
100
AcDbLine
10
849.99516854555168
20
2390.3753524571612
30
5.0487097934142029e-28
11
849.99516854554849
21
2296.7753524571613
31
-1.9435033255300607e-28
0
ARC
5
319
100
AcDbEntity
8
0
100
AcDbCircle
10
849.99516854554918
20
2293.575352457161
30
-2.7369110631344083e-47
40
3.1999999999999318
100
AcDbArc
50
-90.000000000020364
51
90.000000000012221
0
LINE
5
320
100
AcDbEntity
8
0
100
AcDbLine
10
849.99516854554804
20
2290.3753524571612
30
-3.3655249128987684e-31
11
837.99516854554804
21
2290.3753524571612
31
-1.5777218104420236e-29
0
ARC
5
321
100
AcDbEntity
8
0
100
AcDbCircle
10
837.99516854554918
20
2293.5753524571614
30
3.8097801998830964e-44
40
3.1999999999999318
100
AcDbArc
50
90.000000000014239
51
269.99999999997965
0
LINE
5
322
100
AcDbEntity
8
0
100
AcDbLine
10
837.99516854554838
20
2296.7753524571613
30
3.4082512131464728e-30
11
837.99516854555179
21
2390.3753524571616
31
5.5081307529203786e-29
0
LINE
5
323
100
AcDbEntity
8
0
100
AcDbLine
10
837.99516854555179
20
2390.3753524571616
30
5.5081307529203786e-29
11
748.89516854555779
21
2390.3753524571625
31
1.2621774483535886e-28
0
ARC
5
324
100
AcDbEntity
8
0
100
AcDbCircle
10
745.69516854555798
20
2390.375352457163
30
-1.1470261760153656e-54
40
3.2000000000000739
100
AcDbArc
50
180
51
360
0
LINE
5
325
100
AcDbEntity
8
0
100
AcDbLine
10
742.49516854555793
20
2390.3753524571625
30
5.1791991241445259e-41
11
742.49516854555691
21
2398.3753524571644
31
1.3718524976803252e-27
0
LINE
5
326
100
AcDbEntity
8
0
100
AcDbLine
10
742.49516854555691
20
2398.3753524571644
30
1.3718524976803252e-27
11
726.49516854555702
21
2398.3753524571648
31
1.5777218104409474e-29
0
LINE
5
327
100
AcDbEntity
8
0
100
AcDbLine
10
726.49516854555702
20
2398.3753524571648
30
1.5777218104409474e-29
11
726.49516854555702
21
2394.9008358567589
31
-2.8421709430404007e-13
0
ARC
5
328
100
AcDbEntity
8
0
100
AcDbCircle
10
724.23242684575996
20
2392.6380941569623
30
-4.4009529895201286e-44
40
3.1999999999998128
100
AcDbArc
50
-134.99999999992517
51
44.999999999994245
0
LINE
5
329
100
AcDbEntity
8
0
100
AcDbLine
10
721.96968514596608
20
2390.3753524571625
30
-2.2271146165779089e-30
11
720.99516854555736
21
2390.3753524571648
31
-8.7169130026904783e-28
0
LINE
5
330
100
AcDbEntity
8
0
100
AcDbLine
10
720.99516854555736
20
2390.3753524571648
30
-8.7169130026904783e-28
11
720.99516854555736
21
2330.3753524571648
31
-5.3967439317704975e-28
0
LINE
5
331
100
AcDbEntity
8
0
100
AcDbLine
10
720.99516854555736
20
2330.3753524571648
30
-5.3967439317704975e-28
11
717.99516854555714
21
2330.3753524571648
31
-3.9443045261064043e-30
0
LINE
5
332
100
AcDbEntity
8
0
100
AcDbLine
10
717.99516854555714
20
2330.3753524571648
30
-3.9443045261064043e-30
11
717.99516854555714
21
2390.3753524571625
31
3.4803413836184242e-29
0
LINE
5
333
100
AcDbEntity
8
0
100
AcDbLine
10
717.99516854555714
20
2390.3753524571625
30
3.4803413836184242e-29
11
717.0206519451466
21
2390.3753524571625
31
-9.8607613152626476e-31
0
ARC
5
334
100
AcDbEntity
8
0
100
AcDbCircle
10
714.7579102453534
20
2392.6380941569632
30
-2.5792649858978664e-43
40
3.1999999999999136
100
AcDbArc
50
134.99999999998991
51
314.99999999990501
0
LINE
5
335
100
AcDbEntity
8
0
100
AcDbLine
10
712.49516854555714
20
2394.9008358567603
30
2.2271146168782503e-30
11
712.49516854555714
21
2398.3753524571644
31
1.6129933558756859e-29
0
LINE
5
336
100
AcDbEntity
8
0
100
AcDbLine
10
712.49516854555714
20
2398.3753524571644
30
1.6129933558756859e-29
11
696.49516854555702
21
2398.3753524571648
31
1.5777218104409474e-29
0
LINE
5
337
100
AcDbEntity
8
0
100
AcDbLine
10
696.49516854555702
20
2398.3753524571648
30
1.5777218104409474e-29
11
696.49516854555714
21
2390.3753524571625
31
-2.8421709430404149e-13
0
ARC
5
338
100
AcDbEntity
8
0
100
AcDbCircle
10
693.29516854555789
20
2390.3753524571634
30
-2.8421709430404007e-13
40
3.1999999999999318
100
AcDbArc
50
180
51
360
0
LINE
5
339
100
AcDbEntity
8
0
100
AcDbLine
10
690.09516854555795
20
2390.3753524571634
30
-2.8421709430404007e-13
11
596.99516854555191
21
2390.3753524571634
31
-2.5243548967075104e-28
0
LINE
5
340
100
AcDbEntity
8
0
100
AcDbLine
10
596.99516854555191
20
2390.3753524571634
30
-2.5243548967075104e-28
11
596.99516854555225
21
2296.7753524571635
31
-2.8421709430404007e-13
0
ARC
5
341
100
AcDbEntity
8
0
100
AcDbCircle
10
596.99516854555304
20
2293.5753524571642
30
-2.8421709430404007e-13
40
3.200000000000216
100
AcDbArc
50
-90.000000000020364
51
90.000000000014239
0
LINE
5
342
100
AcDbEntity
8
0
100
AcDbLine
10
596.99516854555191
20
2290.3753524571639
30
-2.8421709430404007e-13
11
584.99516854555191
21
2290.3753524571634
31
-2.8421709430404007e-13
0
ARC
5
343
100
AcDbEntity
8
0
100
AcDbCircle
10
584.99516854555293
20
2293.5753524571637
30
1.642146637880645e-46
40
3.200000000000216
100
AcDbArc
50
90.000000000012221
51
269.9999999999817
0
LINE
5
344
100
AcDbEntity
8
0
100
AcDbLine
10
584.99516854555225
20
2296.7753524571635
30
8.6765142851146184e-31
11
584.99516854555191
21
2390.3753524571639
31
1.7990210666387704e-29
0
LINE
5
345
100
AcDbEntity
8
0
100
AcDbLine
10
584.99516854555191
20
2390.3753524571639
30
1.7990210666387704e-29
11
491.89516854555893
21
2390.3753524571644
31
-3.0268046829416036e-42
0
ARC
5
346
100
AcDbEntity
8
0
100
AcDbCircle
10
488.695168545559
20
2390.3753524571653
30
-1.7173530802007836e-54
40
3.2000000000000739
100
AcDbArc
50
180
51
360
0
LINE
5
347
100
AcDbEntity
8
0
100
AcDbLine
10
485.4951685455589
20
2390.3753524571648
30
5.179199124144528e-41
11
485.49516854555782
21
2398.3753524571644
31
1.3718524976799319e-27
0
LINE
5
348
100
AcDbEntity
8
0
100
AcDbLine
10
485.49516854555782
20
2398.3753524571644
30
1.3718524976799319e-27
11
469.49516854555787
21
2398.3753524571648
31
1.5777218104409474e-29
0
LINE
5
349
100
AcDbEntity
8
0
100
AcDbLine
10
469.49516854555787
20
2398.3753524571648
30
1.5777218104409474e-29
11
469.49516854555804
21
2394.9008358567594
31
-2.8421709430404007e-13
0
ARC
5
350
100
AcDbEntity
8
0
100
AcDbCircle
10
467.23242684576093
20
2392.6380941569623
30
-2.8421709430404007e-13
40
3.2000000000001143
100
AcDbArc
50
-134.99999999998488
51
44.999999999999275
0
LINE
5
351
100
AcDbEntity
8
0
100
AcDbLine
10
464.9696851459646
20
2390.3753524571648
30
-2.8421709430404007e-13
11
463.99516854555822
21
2390.3753524571648
31
6.9518367272601468e-28
0
LINE
5
352
100
AcDbEntity
8
0
100
AcDbLine
10
463.99516854555822
20
2390.3753524571648
30
6.9518367272601468e-28
11
463.99516854555822
21
2330.3753524571648
31
-5.3967439317704975e-28
0
LINE
5
353
100
AcDbEntity
8
0
100
AcDbLine
10
463.99516854555822
20
2330.3753524571648
30
-5.3967439317704975e-28
11
460.9951685455581
21
2330.3753524571648
31
-3.9443045261064043e-30
0
LINE
5
354
100
AcDbEntity
8
0
100
AcDbLine
10
460.9951685455581
20
2330.3753524571648
30
-3.9443045261064043e-30
11
460.9951685455581
21
2390.3753524571648
31
-1.566984167812172e-28
0
LINE
5
355
100
AcDbEntity
8
0
100
AcDbLine
10
460.9951685455581
20
2390.3753524571648
30
-1.566984167812172e-28
11
460.02065194515012
21
2390.3753524571648
31
4.9297920996169313e-71
0
ARC
5
356
100
AcDbEntity
8
0
100
AcDbCircle
10
457.75791024535454
20
2392.6380941569632
30
3.5470367378221932e-44
40
3.1999999999999131
100
AcDbArc
50
134.99999999999426
51
314.99999999996402
0
LINE
5
357
100
AcDbEntity
8
0
100
AcDbLine
10
455.49516854555793
20
2394.9008358567603
30
2.2271146167078762e-30
11
455.49516854555782
21
2398.3753524571648
31
1.6129933558770704e-29
0
LINE
5
358
100
AcDbEntity
8
0
100
AcDbLine
10
455.49516854555782
20
2398.3753524571648
30
1.6129933558770704e-29
11
439.49516854555793
21
2398.3753524571648
31
1.5777218104409474e-29
0
LINE
5
359
100
AcDbEntity
8
0
100
AcDbLine
10
439.49516854555793
20
2398.3753524571648
30
1.5777218104409474e-29
11
439.49516854555804
21
2390.3753524571648
31
-2.8421709430404149e-13
0
ARC
5
360
100
AcDbEntity
8
0
100
AcDbCircle
10
436.29516854555874
20
2390.3753524571657
30
-2.8421709430404007e-13
40
3.1999999999999318
100
AcDbArc
50
180
51
360
0
LINE
5
361
100
AcDbEntity
8
0
100
AcDbLine
10
433.09516854555881
20
2390.3753524571657
30
-2.8421709430404007e-13
11
343.99516854555151
21
2390.3753524571657
31
-1.2621774483538913e-28
0
LINE
5
362
100
AcDbEntity
8
0
100
AcDbLine
10
343.99516854555151
20
2390.3753524571657
30
-1.2621774483538913e-28
11
343.99516854555088
21
2296.7753524571663
31
-2.8421709430404002e-13
0
ARC
5
363
100
AcDbEntity
8
0
100
AcDbCircle
10
343.99516854555281
20
2293.5753524571664
30
-2.8421709430404007e-13
40
3.1999999999999318
100
AcDbArc
50
-90.000000000016286
51
90.000000000034603
0
LINE
5
364
100
AcDbEntity
8
0
100
AcDbLine
10
343.99516854555191
20
2290.3753524571666
30
-2.8421709430404007e-13
11
331.99516854555202
21
2290.3753524571657
31
-2.8421709430404007e-13
0
ARC
5
365
100
AcDbEntity
8
0
100
AcDbCircle
10
331.99516854555293
20
2293.5753524571664
30
-1.8610995229313977e-44
40
3.1999999999999318
100
AcDbArc
50
90.000000000016286
51
269.99999999998369
0
LINE
5
366
100
AcDbEntity
8
0
100
AcDbLine
10
331.99516854555202
20
2296.7753524571663
30
3.4082512133531783e-30
11
331.99516854555162
21
2390.3753524571662
31
2.8868007792613943e-29
0
LINE
5
367
100
AcDbEntity
8
0
100
AcDbLine
10
331.99516854555162
20
2390.3753524571662
30
2.8868007792613943e-29
11
234.89516854555836
21
2390.3753524571666
31
-1.2621774483536492e-28
0
ARC
5
368
100
AcDbEntity
8
0
100
AcDbCircle
10
231.69516854555852
20
2390.3753524571675
30
-1.1438399921931007e-54
40
3.2000000000000739
100
AcDbArc
50
180
51
360
0
LINE
5
369
100
AcDbEntity
8
0
100
AcDbLine
10
228.49516854555844
20
2390.3753524571671
30
5.179199124144528e-41
11
228.49516854555753
21
2398.3753524571644
31
1.3718524976794503e-27
0
LINE
5
370
100
AcDbEntity
8
0
100
AcDbLine
10
228.49516854555753
20
2398.3753524571644
30
1.3718524976794503e-27
11
212.49516854555759
21
2398.3753524571648
31
-1.076197220601459e-41
0
LINE
5
371
100
AcDbEntity
8
0
100
AcDbLine
10
212.49516854555759
20
2398.3753524571648
30
-1.076197220601459e-41
11
212.49516854555768
21
2394.9008358567594
31
-2.8421709430404007e-13
0
ARC
5
372
100
AcDbEntity
8
0
100
AcDbCircle
10
210.2324268457607
20
2392.6380941569623
30
-2.8421709430404007e-13
40
3.2000000000001396
100
AcDbArc
50
-135.00000000004317
51
45.00000000000108
0
LINE
5
373
100
AcDbEntity
8
0
100
AcDbLine
10
207.96968514596205
20
2390.3753524571671
30
-2.8421709430404007e-13
11
206.99516854555782
21
2390.3753524571648
31
-5.4036972007656725e-28
0
LINE
5
374
100
AcDbEntity
8
0
100
AcDbLine
10
206.99516854555782
20
2390.3753524571648
30
-5.4036972007656725e-28
11
206.99516854555785
21
2330.3753524571648
31
-5.3967439317704975e-28
0
LINE
5
375
100
AcDbEntity
8
0
100
AcDbLine
10
206.99516854555785
20
2330.3753524571648
30
-5.3967439317704975e-28
11
203.9951685455577
21
2330.3753524571648
31
-7.8886090522114633e-30
0
LINE
5
376
100
AcDbEntity
8
0
100
AcDbLine
10
203.9951685455577
20
2330.3753524571648
30
-7.8886090522114633e-30
11
203.99516854555768
21
2390.3753524571671
31
-4.700675655043889e-28
0
LINE
5
377
100
AcDbEntity
8
0
100
AcDbLine
10
203.99516854555768
20
2390.3753524571671
30
-4.700675655043889e-28
11
203.020651945152
21
2390.3753524571671
31
4.9297920996055182e-71
0
ARC
5
378
100
AcDbEntity
8
0
100
AcDbCircle
10
200.75791024535434
20
2392.6380941569637
30
5.3862409722485156e-43
40
3.2000000000000139
100
AcDbArc
50
134.99999999999605
51
315.00000000001336
0
LINE
5
379
100
AcDbEntity
8
0
100
AcDbLine
10
198.49516854555759
20
2394.9008358567608
30
2.2271146165399887e-30
11
198.49516854555748
21
2398.3753524571648
31
1.9392753605872059e-29
0
LINE
5
380
100
AcDbEntity
8
0
100
AcDbLine
10
198.49516854555748
20
2398.3753524571648
30
1.9392753605872059e-29
11
182.49516854555759
21
2398.3753524571648
31
1.5777218104409474e-29
0
LINE
5
381
100
AcDbEntity
8
0
100
AcDbLine
10
182.49516854555759
20
2398.3753524571648
30
1.5777218104409474e-29
11
182.49516854555765
21
2390.3753524571671
31
-2.8421709430404149e-13
0
ARC
5
382
100
AcDbEntity
8
0
100
AcDbCircle
10
179.29516854555843
20
2390.375352457168
30
-2.8421709430404007e-13
40
3.1999999999999318
100
AcDbArc
50
180
51
360
0
LINE
5
383
100
AcDbEntity
8
0
100
AcDbLine
10
176.09516854555849
20
2390.375352457168
30
-2.8421709430404007e-13
11
101.99516854555321
21
2390.375352457168
31
-2.7409397962193412e-41
0
LINE
5
384
100
AcDbEntity
8
0
100
AcDbLine
10
101.99516854555321
20
2390.375352457168
30
-2.7409397962193412e-41
11
101.99516854555236
21
2296.7753524571681
31
1.7936620343357659e-42
0
ARC
5
385
100
AcDbEntity
8
0
100
AcDbCircle
10
101.99516854555299
20
2293.5753524571683
30
-2.7369110631344083e-47
40
3.1999999999996476
100
AcDbArc
50
-90.000000000019853
51
90.000000000011198
0
LINE
5
386
100
AcDbEntity
8
0
100
AcDbLine
10
101.99516854555188
20
2290.3753524571684
30
-3.3655249116935019e-31
11
89.995168545552033
21
2290.375352457168
31
-1.5777218104420236e-29
0
ARC
5
387
100
AcDbEntity
8
0
100
AcDbCircle
10
89.995168545552957
20
2293.5753524571687
30
-2.8421709430404007e-13
40
3.1999999999999318
100
AcDbArc
50
90.000000000009663
51
269.99999999998346
0
LINE
5
388
100
AcDbEntity
8
0
100
AcDbLine
10
89.995168545552417
20
2296.7753524571685
30
-2.8421709430404007e-13
11
89.995168545553227
21
2390.375352457168
31
-2.8421709430404007e-13
0
LINE
5
389
100
AcDbEntity
8
0
100
AcDbLine
10
89.995168545553227
20
2390.375352457168
30
-2.8421709430404007e-13
11
65.995168545556382
21
2390.3753524571684
31
-2.8421709430404012e-13
0
LINE
5
390
100
AcDbEntity
8
0
100
AcDbLine
10
65.995168545556382
20
2390.3753524571684
30
-2.8421709430404012e-13
11
65.99516854555462
21
2190.375352457168
31
3.9460564755386849e-41
0
LINE
5
391
100
AcDbEntity
8
0
100
AcDbLine
10
65.99516854555462
20
2190.375352457168
30
3.9460564755386849e-41
11
176.09516854555346
21
2190.3753524571675
31
2.9595423566540126e-41
0
ARC
5
392
100
AcDbEntity
8
0
100
AcDbCircle
10
179.29516854555345
20
2190.375352457168
30
-2.8421709430404007e-13
40
3.1999999999999318
100
AcDbArc
50
0
51
180
0
LINE
5
393
100
AcDbEntity
8
0
100
AcDbLine
10
182.49516854555338
20
2190.3753524571671
30
-2.8421709430404007e-13
11
182.49516854555253
21
2182.3753524571671
31
-2.8421709430404002e-13
0
LINE
5
394
100
AcDbEntity
8
0
100
AcDbLine
10
182.49516854555253
20
2182.3753524571671
30
-2.8421709430404002e-13
11
198.49516854555247
21
2182.3753524571671
31
-2.8421709430404007e-13
0
LINE
5
395
100
AcDbEntity
8
0
100
AcDbLine
10
198.49516854555247
20
2182.3753524571671
30
-2.8421709430404007e-13
11
198.4951685455525
21
2185.8498690575739
31
0
0
ARC
5
396
100
AcDbEntity
8
0
100
AcDbCircle
10
200.75791024534936
20
2188.1126107573705
30
6.0430996274007736e-44
40
3.1999999999999136
100
AcDbArc
50
44.999999999983444
51
224.99999999999673
0
LINE
5
397
100
AcDbEntity
8
0
100
AcDbLine
10
203.02065194514682
20
2190.3753524571666
30
-2.9724028010989111e-31
11
203.99516854555236
21
2190.3753524571671
31
-3.8456969129524326e-29
0
LINE
5
398
100
AcDbEntity
8
0
100
AcDbLine
10
203.99516854555236
20
2190.3753524571671
30
-3.8456969129524326e-29
11
203.9951685455529
21
2250.3753524571671
31
0
0
LINE
5
399
100
AcDbEntity
8
0
100
AcDbLine
10
203.9951685455529
20
2250.3753524571671
30
0
11
206.99516854555299
21
2250.3753524571671
31
3.944304526105059e-30
0
LINE
5
400
100
AcDbEntity
8
0
100
AcDbLine
10
206.99516854555299
20
2250.3753524571671
30
3.944304526105059e-30
11
206.99516854555245
21
2190.3753524571671
31
7.0849650356262751e-41
0
LINE
5
401
100
AcDbEntity
8
0
100
AcDbLine
10
206.99516854555245
20
2190.3753524571671
30
7.0849650356262751e-41
11
207.96968514595804
21
2190.3753524571671
31
-4.9297920996048e-71
0
ARC
5
402
100
AcDbEntity
8
0
100
AcDbCircle
10
210.23242684575558
20
2188.1126107573705
30
-2.8421709430404007e-13
40
3.2000000000001396
100
AcDbArc
50
-45.000000000001783
51
135.00000000001188
0
LINE
5
403
100
AcDbEntity
8
0
100
AcDbLine
10
212.4951685455525
20
2185.8498690575734
30
-2.8421709430404007e-13
11
212.4951685455525
21
2182.3753524571666
31
-2.8421709430403982e-13
0
LINE
5
404
100
AcDbEntity
8
0
100
AcDbLine
10
212.4951685455525
20
2182.3753524571666
30
-2.8421709430403982e-13
11
228.49516854555247
21
2182.3753524571666
31
-2.8421709430404007e-13
0
LINE
5
405
100
AcDbEntity
8
0
100
AcDbLine
10
228.49516854555247
20
2182.3753524571666
30
-2.8421709430404007e-13
11
228.49516854555253
21
2190.3753524571671
31
-2.5243548966984062e-29
0
ARC
5
406
100
AcDbEntity
8
0
100
AcDbCircle
10
231.69516854555326
20
2190.3753524571671
30
-6.5316768356430543e-55
40
3.2000000000000739
100
AcDbArc
50
0
51
180
0
LINE
5
407
100
AcDbEntity
8
0
100
AcDbLine
10
234.89516854555333
20
2190.3753524571666
30
2.9556247895421799e-41
11
433.09516854555346
21
2190.3753524571653
31
2.9595423566540126e-41
0
ARC
5
408
100
AcDbEntity
8
0
100
AcDbCircle
10
436.29516854555345
20
2190.3753524571657
30
-2.8421709430404007e-13
40
3.1999999999999318
100
AcDbArc
50
0
51
180
0
LINE
5
409
100
AcDbEntity
8
0
100
AcDbLine
10
439.49516854555338
20
2190.3753524571648
30
-2.8421709430404007e-13
11
439.49516854555247
21
2182.3753524571648
31
-2.8421709430404002e-13
0
LINE
5
410
100
AcDbEntity
8
0
100
AcDbLine
10
439.49516854555247
20
2182.3753524571648
30
-2.8421709430404002e-13
11
455.49516854555236
21
2182.3753524571648
31
-2.8421709430404007e-13
0
LINE
5
411
100
AcDbEntity
8
0
100
AcDbLine
10
455.49516854555236
20
2182.3753524571648
30
-2.8421709430404007e-13
11
455.49516854555236
21
2185.8498690575716
31
0
0
ARC
5
412
100
AcDbEntity
8
0
100
AcDbCircle
10
457.75791024534954
20
2188.1126107573677
30
4.8169634711165587e-44
40
3.2000000000002649
100
AcDbArc
50
44.99999999999568
51
224.99999999998704
0
LINE
5
413
100
AcDbEntity
8
0
100
AcDbLine
10
460.02065194514694
20
2190.3753524571648
30
2.2271146165956886e-30
11
460.99516854555225
21
2190.3753524571648
31
-3.944304526105059e-30
0
LINE
5
414
100
AcDbEntity
8
0
100
AcDbLine
10
460.99516854555225
20
2190.3753524571648
30
-3.944304526105059e-30
11
460.99516854555281
21
2250.3753524571648
31
0
0
LINE
5
415
100
AcDbEntity
8
0
100
AcDbLine
10
460.99516854555281
20
2250.3753524571648
30
0
11
463.99516854555293
21
2250.3753524571648
31
3.944304526105059e-30
0
LINE
5
416
100
AcDbEntity
8
0
100
AcDbLine
10
463.99516854555293
20
2250.3753524571648
30
3.944304526105059e-30
11
463.99516854555247
21
2190.3753524571648
31
7.0849650356262751e-41
0
LINE
5
417
100
AcDbEntity
8
0
100
AcDbLine
10
463.99516854555247
20
2190.3753524571648
30
7.0849650356262751e-41
11
464.96968514595801
21
2190.3753524571648
31
9.8607613152626476e-31
0
ARC
5
418
100
AcDbEntity
8
0
100
AcDbCircle
10
467.23242684575558
20
2188.1126107573682
30
-2.8421709430404007e-13
40
3.2000000000001143
100
AcDbArc
50
-45.000000000002139
51
135.00000000001225
0
LINE
5
419
100
AcDbEntity
8
0
100
AcDbLine
10
469.49516854555247
20
2185.8498690575711
30
-2.8421709430404007e-13
11
469.49516854555247
21
2182.3753524571648
31
-2.8421709430404007e-13
0
LINE
5
420
100
AcDbEntity
8
0
100
AcDbLine
10
469.49516854555247
20
2182.3753524571648
30
-2.8421709430404007e-13
11
485.49516854555236
21
2182.3753524571648
31
-2.8421709430404007e-13
0
LINE
5
421
100
AcDbEntity
8
0
100
AcDbLine
10
485.49516854555236
20
2182.3753524571648
30
-2.8421709430404007e-13
11
485.49516854555242
21
2190.3753524571648
31
-2.5243548966984062e-29
0
ARC
5
422
100
AcDbEntity
8
0
100
AcDbCircle
10
488.69516854555354
20
2190.3753524571648
30
3.1543219840422555e-55
40
3.1999999999999318
100
AcDbArc
50
0
51
180
0
LINE
5
423
100
AcDbEntity
8
0
100
AcDbLine
10
491.89516854555347
20
2190.3753524571644
30
2.9556247895421799e-41
11
690.09516854555341
21
2190.375352457163
31
2.9595423566540126e-41
0
ARC
5
424
100
AcDbEntity
8
0
100
AcDbCircle
10
693.29516854555345
20
2190.3753524571634
30
-2.8421709430404007e-13
40
3.1999999999997897
100
AcDbArc
50
0
51
180
0
LINE
5
425
100
AcDbEntity
8
0
100
AcDbLine
10
696.49516854555327
20
2190.3753524571625
30
-2.8421709430404007e-13
11
696.49516854555247
21
2182.3753524571625
31
-2.8421709430404002e-13
0
LINE
5
426
100
AcDbEntity
8
0
100
AcDbLine
10
696.49516854555247
20
2182.3753524571625
30
-2.8421709430404002e-13
11
712.49516854555236
21
2182.3753524571625
31
-2.8421709430404007e-13
0
LINE
5
427
100
AcDbEntity
8
0
100
AcDbLine
10
712.49516854555236
20
2182.3753524571625
30
-2.8421709430404007e-13
11
712.49516854555236
21
2185.8498690575689
31
0
0
ARC
5
428
100
AcDbEntity
8
0
100
AcDbCircle
10
714.75791024534931
20
2188.1126107573659
30
-6.8532253020885585e-44
40
3.1999999999999131
100
AcDbArc
50
44.999999999992802
51
225.00000000000142
0
LINE
5
429
100
AcDbEntity
8
0
100
AcDbLine
10
717.02065194514648
20
2190.3753524571625
30
-2.8215951768018105e-30
11
717.99516854555225
21
2190.3753524571625
31
3.5498740734945531e-29
0
LINE
5
430
100
AcDbEntity
8
0
100
AcDbLine
10
717.99516854555225
20
2190.3753524571625
30
3.5498740734945531e-29
11
717.99516854555281
21
2250.3753524571625
31
0
0
LINE
5
431
100
AcDbEntity
8
0
100
AcDbLine
10
717.99516854555281
20
2250.3753524571625
30
0
11
720.99516854555293
21
2250.3753524571625
31
3.944304526105059e-30
0
LINE
5
432
100
AcDbEntity
8
0
100
AcDbLine
10
720.99516854555293
20
2250.3753524571625
30
3.944304526105059e-30
11
720.99516854555236
21
2190.3753524571625
31
7.0849650356262751e-41
0
LINE
5
433
100
AcDbEntity
8
0
100
AcDbLine
10
720.99516854555236
20
2190.3753524571625
30
7.0849650356262751e-41
11
721.96968514595801
21
2190.3753524571625
31
-4.9297920996050686e-71
0
ARC
5
434
100
AcDbEntity
8
0
100
AcDbCircle
10
724.23242684575553
20
2188.1126107573664
30
-4.8333849374953651e-44
40
3.2000000000001143
100
AcDbArc
50
-45.000000000001421
51
135.00000000001728
0
LINE
5
435
100
AcDbEntity
8
0
100
AcDbLine
10
726.49516854555247
20
2185.8498690575693
30
2.8215951768677409e-30
11
726.49516854555247
21
2182.3753524571621
31
-2.8421709430404007e-13
0
LINE
5
436
100
AcDbEntity
8
0
100
AcDbLine
10
726.49516854555247
20
2182.3753524571621
30
-2.8421709430404007e-13
11
742.49516854555236
21
2182.3753524571621
31
-2.8421709430404007e-13
0
LINE
5
437
100
AcDbEntity
8
0
100
AcDbLine
10
742.49516854555236
20
2182.3753524571621
30
-2.8421709430404007e-13
11
742.49516854555236
21
2190.3753524571625
31
-2.5243548966984062e-29
0
ARC
5
438
100
AcDbEntity
8
0
100
AcDbCircle
10
745.69516854555309
20
2190.3753524571625
30
-1.1122806560578236e-43
40
3.1999999999999318
100
AcDbArc
50
0
51
180
0
LINE
5
439
100
AcDbEntity
8
0
100
AcDbLine
10
748.89516854555291
20
2190.3753524571621
30
-5.0487097933848117e-30
11
947.09516854555295
21
2190.3753524571607
31
5.0487097934147715e-28
0
ARC
5
440
100
AcDbEntity
8
0
100
AcDbCircle
10
950.29516854555311
20
2190.3753524571612
30
-1.1210387714598537e-43
40
3.1999999999999318
100
AcDbArc
50
0
51
180
0
LINE
5
441
100
AcDbEntity
8
0
100
AcDbLine
10
953.49516854555304
20
2190.3753524571603
30
-5.0487097933928832e-30
11
953.49516854555247
21
2182.3753524571603
31
-2.8421709430404007e-13
0
LINE
5
442
100
AcDbEntity
8
0
100
AcDbLine
10
953.49516854555247
20
2182.3753524571603
30
-2.8421709430404007e-13
11
969.49516854555225
21
2182.3753524571603
31
-2.8421709430404007e-13
0
LINE
5
443
100
AcDbEntity
8
0
100
AcDbLine
10
969.49516854555225
20
2182.3753524571603
30
-2.8421709430404007e-13
11
969.49516854555225
21
2185.849869057567
31
0
0
ARC
5
444
100
AcDbEntity
8
0
100
AcDbCircle
10
971.75791024534885
20
2188.1126107573637
30
7.4443980917255907e-44
40
3.1999999999999136
100
AcDbArc
50
44.99999999998272
51
225
0
LINE
5
445
100
AcDbEntity
8
0
100
AcDbLine
10
974.02065194514637
20
2190.3753524571598
30
-5.3459500735170421e-30
11
974.99516854555213
21
2190.3753524571603
31
-5.1275958839365767e-29
0
LINE
5
446
100
AcDbEntity
8
0
100
AcDbLine
10
974.99516854555213
20
2190.3753524571603
30
-5.1275958839365767e-29
11
974.99516854555281
21
2250.3753524571603
31
0
0
LINE
5
447
100
AcDbEntity
8
0
100
AcDbLine
10
974.99516854555281
20
2250.3753524571603
30
0
11
977.99516854555281
21
2250.3753524571603
31
3.944304526105059e-30
0
LINE
5
448
100
AcDbEntity
8
0
100
AcDbLine
10
977.99516854555281
20
2250.3753524571603
30
3.944304526105059e-30
11
977.99516854555225
21
2190.3753524571603
31
7.0849650356262751e-41
0
LINE
5
449
100
AcDbEntity
8
0
100
AcDbLine
10
977.99516854555225
20
2190.3753524571603
30
7.0849650356262751e-41
11
978.96968514595812
21
2190.3753524571612
31
-2.8215951768678842e-30
0
ARC
5
450
100
AcDbEntity
8
0
100
AcDbCircle
10
981.23242684575348
20
1938.1126107573641
30
-2.8421709430404007e-13
40
3.2000000000002151
100
AcDbArc
50
-45
51
135
0
LINE
5
451
100
AcDbEntity
8
0
100
AcDbLine
10
983.49516854555054
20
1935.849869057567
30
-2.8421709430404007e-13
11
983.49516854555065
21
1932.37535245716
31
-2.8421709430404007e-13
0
LINE
5
452
100
AcDbEntity
8
0
100
AcDbLine
10
983.49516854555065
20
1932.37535245716
30
-2.8421709430404007e-13
11
999.49516854555043
21
1932.37535245716
31
-2.8421709430404007e-13
0
LINE
5
453
100
AcDbEntity
8
0
100
AcDbLine
10
999.49516854555043
20
1932.37535245716
30
-2.8421709430404007e-13
11
999.49516854555054
21
1940.3753524571603
31
1.1210387714598537e-43
0
ARC
5
454
100
AcDbEntity
8
0
100
AcDbCircle
10
1002.6951685455513
20
1940.3753524571605
30
7.1370517618733862e-55
40
3.1999999999999318
100
AcDbArc
50
0
51
180
0
LINE
5
455
100
AcDbEntity
8
0
100
AcDbLine
10
1005.8951685455511
20
1940.3753524571598
30
3.2019268553373034e-41
11
1115.9951685455567
21
1940.3753524571589
31
-1.2621774483536189e-28
0
LINE
5
456
100
AcDbEntity
8
0
100
AcDbLine
10
1115.9951685455567
20
1940.3753524571589
30
-1.2621774483536189e-28
11
1115.9951685455585
21
2140.3753524571589
31
-2.8421709430404007e-13
0
LINE
5
457
100
AcDbEntity
8
0
100
AcDbLine
10
1115.9951685455585
20
2140.3753524571589
30
-2.8421709430404007e-13
11
1091.9951685455476
21
2140.3753524571589
31
-2.8421709430404007e-13
0
LINE
5
458
100
AcDbEntity
8
0
100
AcDbLine
10
1091.9951685455476
20
2140.3753524571589
30
-2.8421709430404007e-13
11
1091.9951685455467
21
2046.7753524571592
31
3.9884807368056284e-28
0
ARC
5
459
100
AcDbEntity
8
0
100
AcDbCircle
10
1091.9951685455471
20
2043.5753524571592
30
-2.1895288505075267e-46
40
3.1999999999999318
100
AcDbArc
50
-90.000000000012221
51
90.000000000008143
0
LINE
5
460
100
AcDbEntity
8
0
100
AcDbLine
10
1091.9951685455464
20
2040.3753524571594
30
3.1772851014173608e-30
11
1079.9951685455467
21
2040.3753524571587
31
-1.5777218104420236e-29
0
ARC
5
461
100
AcDbEntity
8
0
100
AcDbCircle
10
1079.9951685455471
20
2043.5753524571596
30
-2.8421709430404007e-13
40
3.1999999999999318
100
AcDbArc
50
90.000000000008143
51
269.99999999999187
0
LINE
5
462
100
AcDbEntity
8
0
100
AcDbLine
10
1079.9951685455467
20
2046.7753524571594
30
-2.8421709430404007e-13
11
1079.9951685455476
21
2140.3753524571589
31
-2.8421709430404048e-13
0
LINE
5
463
100
AcDbEntity
8
0
100
AcDbLine
10
1079.9951685455476
20
2140.3753524571589
30
-2.8421709430404048e-13
11
1005.8951685455564
21
2140.3753524571598
31
-2.8421709430404007e-13
0
ARC
5
464
100
AcDbEntity
8
0
100
AcDbCircle
10
1002.6951685455565
20
2140.3753524571607
30
-1.236239323038783e-54
40
3.1999999999999318
100
AcDbArc
50
180
51
360
0
LINE
5
465
100
AcDbEntity
8
0
100
AcDbLine
10
999.49516854555657
20
2140.3753524571603
30
5.6107990511565655e-41
11
999.495168545556
21
2148.3753524571648
31
-6.0404685467160328e-28
0
LINE
5
466
100
AcDbEntity
8
0
100
AcDbLine
10
999.495168545556
20
2148.3753524571648
30
-6.0404685467160328e-28
11
983.49516854555588
21
2148.3753524571644
31
-1.1658803223182481e-41
0
LINE
5
467
100
AcDbEntity
8
0
100
AcDbLine
10
983.49516854555588
20
2148.3753524571644
30
-1.1658803223182481e-41
11
983.495168545556
21
2144.9008358567585
31
-2.8421709430404007e-13
0
ARC
5
468
100
AcDbEntity
8
0
100
AcDbCircle
10
981.23242684575882
20
2142.6380941569623
30
-2.8421709430404007e-13
40
3.2000000000001143
100
AcDbArc
50
-134.99999999987332
51
44.999999999987047
0
LINE
5
469
100
AcDbEntity
8
0
100
AcDbLine
10
978.96968514596676
20
2140.3753524571603
30
-2.8421709430404007e-13
11
977.99516854555623
21
2140.3753524571644
31
-2.8421709430404038e-13
0
LINE
5
470
100
AcDbEntity
8
0
100
AcDbLine
10
977.99516854555623
20
2140.3753524571644
30
-2.8421709430404038e-13
11
977.99516854555623
21
2080.3753524571644
31
-2.8421709430403997e-13
0
LINE
5
471
100
AcDbEntity
8
0
100
AcDbLine
10
977.99516854555623
20
2080.3753524571644
30
-2.8421709430403997e-13
11
974.99516854555623
21
2080.3753524571644
31
-2.8421709430404007e-13
0
LINE
5
472
100
AcDbEntity
8
0
100
AcDbLine
10
974.99516854555623
20
2080.3753524571644
30
-2.8421709430404007e-13
11
974.99516854555623
21
2140.3753524571603
31
1.3341102698840625e-28
0
LINE
5
473
100
AcDbEntity
8
0
100
AcDbLine
10
974.99516854555623
20
2140.3753524571603
30
1.3341102698840625e-28
11
974.02065194514364
21
2140.3753524571603
31
5.8175187324737759e-71
0
ARC
5
474
100
AcDbEntity
8
0
100
AcDbCircle
10
971.7579102453526
20
2142.6380941569632
30
4.9031761696052925e-44
40
3.1999999999998128
100
AcDbArc
50
134.99999999999284
51
314.99999999984885
0
LINE
5
475
100
AcDbEntity
8
0
100
AcDbLine
10
969.49516854555611
20
2144.9008358567603
30
1.3608929614966094e-30
11
969.495168545556
21
2148.3753524571644
31
-2.8691369247685933e-29
0
LINE
5
476
100
AcDbEntity
8
0
100
AcDbLine
10
969.495168545556
20
2148.3753524571644
30
-2.8691369247685933e-29
11
953.49516854555588
21
2148.3753524571644
31
1.5777218104408577e-29
0
LINE
5
477
100
AcDbEntity
8
0
100
AcDbLine
10
953.49516854555588
20
2148.3753524571644
30
1.5777218104408577e-29
11
953.49516854555588
21
2140.3753524571603
31
-2.8421709430403947e-13
0
ARC
5
478
100
AcDbEntity
8
0
100
AcDbCircle
10
950.29516854555663
20
2140.3753524571612
30
-2.8421709430404007e-13
40
3.1999999999999318
100
AcDbArc
50
180
51
360
0
LINE
5
479
100
AcDbEntity
8
0
100
AcDbLine
10
947.0951685455567
20
2140.3753524571612
30
-2.8421709430404007e-13
11
849.99516854554997
21
2140.3753524571616
31
-2.8421709430404048e-13
0
LINE
5
480
100
AcDbEntity
8
0
100
AcDbLine
10
849.99516854554997
20
2140.3753524571616
30
-2.8421709430404048e-13
11
849.9951685455469
21
2046.7753524571613
31
-2.8421709430403997e-13
0
ARC
5
481
100
AcDbEntity
8
0
100
AcDbCircle
10
849.99516854554736
20
2043.5753524571612
30
-2.8421709430404007e-13
40
3.1999999999999318
100
AcDbArc
50
-90.000000000020364
51
90.000000000008143
0
LINE
5
482
100
AcDbEntity
8
0
100
AcDbLine
10
849.99516854554622
20
2040.3753524571612
30
-2.8421709430404007e-13
11
837.99516854554656
21
2040.3753524571609
31
-2.8421709430404007e-13
0
ARC
5
483
100
AcDbEntity
8
0
100
AcDbCircle
10
837.99516854554759
20
2043.5753524571614
30
-1.4998272625976558e-44
40
3.1999999999999318
100
AcDbArc
50
90.000000000016286
51
269.9999999999817
0
LINE
5
484
100
AcDbEntity
8
0
100
AcDbLine
10
837.99516854554668
20
2046.7753524571615
30
-1.3297132841346133e-30
11
837.99516854555009
21
2140.3753524571616
31
1.0993843688687771e-29
0
LINE
5
485
100
AcDbEntity
8
0
100
AcDbLine
10
837.99516854555009
20
2140.3753524571616
30
1.0993843688687771e-29
11
748.89516854555609
21
2140.3753524571625
31
-1.2621774483536516e-28
0
ARC
5
486
100
AcDbEntity
8
0
100
AcDbCircle
10
745.69516854555627
20
2140.375352457163
30
-1.236239323038783e-54
40
3.1999999999999318
100
AcDbArc
50
180
51
360
0
LINE
5
487
100
AcDbEntity
8
0
100
AcDbLine
10
742.49516854555634
20
2140.3753524571625
30
5.6107990511565655e-41
11
742.49516854555554
21
2148.3753524571648
31
1.4154370626937921e-27
0
LINE
5
488
100
AcDbEntity
8
0
100
AcDbLine
10
742.49516854555554
20
2148.3753524571648
30
1.4154370626937921e-27
11
726.49516854555543
21
2148.3753524571648
31
1.5777218104408577e-29
0
LINE
5
489
100
AcDbEntity
8
0
100
AcDbLine
10
726.49516854555543
20
2148.3753524571648
30
1.5777218104408577e-29
11
726.49516854555543
21
2144.9008358567589
31
-2.8421709430404002e-13
0
ARC
5
490
100
AcDbEntity
8
0
100
AcDbCircle
10
724.23242684575825
20
2142.6380941569623
30
-2.8421709430404007e-13
40
3.1999999999998128
100
AcDbArc
50
-134.99999999992517
51
44.999999999992802
0
LINE
5
491
100
AcDbEntity
8
0
100
AcDbLine
10
721.96968514596438
20
2140.3753524571625
30
-2.8421709430404007e-13
11
720.99516854555577
21
2140.3753524571648
31
-2.8421709430404038e-13
0
LINE
5
492
100
AcDbEntity
8
0
100
AcDbLine
10
720.99516854555577
20
2140.3753524571648
30
-2.8421709430404038e-13
11
720.99516854555577
21
2080.3753524571648
31
1.1902446268249959e-28
0
LINE
5
493
100
AcDbEntity
8
0
100
AcDbLine
10
720.99516854555577
20
2080.3753524571648
30
1.1902446268249959e-28
11
717.99516854555566
21
2080.3753524571648
31
-1.4573504028978101e-42
0
LINE
5
494
100
AcDbEntity
8
0
100
AcDbLine
10
717.99516854555566
20
2080.3753524571648
30
-1.4573504028978101e-42
11
717.99516854555566
21
2140.3753524571625
31
-1.1902446268192292e-28
0
LINE
5
495
100
AcDbEntity
8
0
100
AcDbLine
10
717.99516854555566
20
2140.3753524571625
30
-1.1902446268192292e-28
11
717.020651945145
21
2140.3753524571625
31
5.8175187324626411e-71
0
ARC
5
496
100
AcDbEntity
8
0
100
AcDbCircle
10
714.75791024535181
20
2142.6380941569632
30
2.0012293693638794e-43
40
3.1999999999999136
100
AcDbArc
50
134.99999999998991
51
314.99999999990501
0
LINE
5
497
100
AcDbEntity
8
0
100
AcDbLine
10
712.49516854555554
20
2144.9008358567603
30
1.3608929613366995e-30
11
712.49516854555532
21
2148.3753524571644
31
2.1886967592904595e-30
0
LINE
5
498
100
AcDbEntity
8
0
100
AcDbLine
10
712.49516854555532
20
2148.3753524571644
30
2.1886967592904595e-30
11
696.49516854555543
21
2148.3753524571648
31
1.5777218104408577e-29
0
LINE
5
499
100
AcDbEntity
8
0
100
AcDbLine
10
696.49516854555543
20
2148.3753524571648
30
1.5777218104408577e-29
11
696.49516854555543
21
2140.3753524571625
31
-2.8421709430404149e-13
0
ARC
5
500
100
AcDbEntity
8
0
100
AcDbCircle
10
693.29516854555618
20
2140.3753524571634
30
-2.8421709430404007e-13
40
3.1999999999997897
100
AcDbArc
50
180
51
360
0
LINE
5
501
100
AcDbEntity
8
0
100
AcDbLine
10
690.09516854555636
20
2140.3753524571634
30
-2.8421709430404007e-13
11
596.99516854555031
21
2140.3753524571639
31
-2.8421709430404048e-13
0
LINE
5
502
100
AcDbEntity
8
0
100
AcDbLine
10
596.99516854555031
20
2140.3753524571639
30
-2.8421709430404048e-13
11
596.99516854555065
21
2046.7753524571638
31
-2.8421709430404012e-13
0
ARC
5
503
100
AcDbEntity
8
0
100
AcDbCircle
10
596.99516854555134
20
2043.5753524571642
30
-2.8421709430404007e-13
40
3.200000000000216
100
AcDbArc
50
-90.000000000020364
51
90.000000000012221
0
LINE
5
504
100
AcDbEntity
8
0
100
AcDbLine
10
596.9951685455502
20
2040.3753524571639
30
-2.8421709430404007e-13
11
584.99516854555031
21
2040.3753524571632
31
-2.8421709430404007e-13
0
ARC
5
505
100
AcDbEntity
8
0
100
AcDbCircle
10
584.99516854555134
20
2043.5753524571635
30
-1.3684555315672042e-47
40
3.200000000000216
100
AcDbArc
50
90.000000000012221
51
269.9999999999817
0
LINE
5
506
100
AcDbEntity
8
0
100
AcDbLine
10
584.99516854555065
20
2046.7753524571638
30
2.1204211575015768e-31
11
584.99516854555031
21
2140.3753524571639
31
5.2372836479959218e-29
0
LINE
5
507
100
AcDbEntity
8
0
100
AcDbLine
10
584.99516854555031
20
2140.3753524571639
30
5.2372836479959218e-29
11
491.89516854555734
21
2140.3753524571648
31
-3.2790384065200726e-42
0
ARC
5
508
100
AcDbEntity
8
0
100
AcDbCircle
10
488.69516854555735
20
2140.3753524571657
30
-5.9263019094127225e-55
40
3.2000000000000739
100
AcDbArc
50
180
51
360
0
LINE
5
509
100
AcDbEntity
8
0
100
AcDbLine
10
485.49516854555725
20
2140.3753524571648
30
5.6107990511565176e-41
11
485.49516854555628
21
2148.3753524571648
31
1.4154370626933817e-27
0
LINE
5
510
100
AcDbEntity
8
0
100
AcDbLine
10
485.49516854555628
20
2148.3753524571648
30
1.4154370626933817e-27
11
469.49516854555634
21
2148.3753524571648
31
1.5777218104408577e-29
0
LINE
5
511
100
AcDbEntity
8
0
100
AcDbLine
10
469.49516854555634
20
2148.3753524571648
30
1.5777218104408577e-29
11
469.4951685455564
21
2144.9008358567594
31
-2.8421709430404002e-13
0
ARC
5
512
100
AcDbEntity
8
0
100
AcDbCircle
10
467.23242684575939
20
2142.6380941569623
30
-2.8421709430404007e-13
40
3.2000000000001143
100
AcDbArc
50
-134.99999999998559
51
45.000000000000718
0
LINE
5
513
100
AcDbEntity
8
0
100
AcDbLine
10
464.96968514596301
20
2140.3753524571648
30
-2.8421709430404007e-13
11
463.99516854555662
21
2140.3753524571648
31
-2.8421709430404068e-13
0
LINE
5
514
100
AcDbEntity
8
0
100
AcDbLine
10
463.99516854555662
20
2140.3753524571648
30
-2.8421709430404068e-13
11
463.99516854555657
21
2080.3753524571648
31
1.1902446268249959e-28
0
LINE
5
515
100
AcDbEntity
8
0
100
AcDbLine
10
463.99516854555657
20
2080.3753524571648
30
1.1902446268249959e-28
11
460.99516854555645
21
2080.3753524571648
31
-1.4573504028978101e-42
0
LINE
5
516
100
AcDbEntity
8
0
100
AcDbLine
10
460.99516854555645
20
2080.3753524571648
30
-1.4573504028978101e-42
11
460.99516854555645
21
2140.3753524571648
31
1.9607031927231208e-28
0
LINE
5
517
100
AcDbEntity
8
0
100
AcDbLine
10
460.99516854555645
20
2140.3753524571648
30
1.9607031927231208e-28
11
460.02065194514853
21
2140.3753524571648
31
5.8175187324469475e-71
0
ARC
5
518
100
AcDbEntity
8
0
100
AcDbCircle
10
457.75791024535295
20
2142.6380941569632
30
-1.8392042344263224e-44
40
3.1999999999999131
100
AcDbArc
50
134.99999999999426
51
314.99999999996402
0
LINE
5
519
100
AcDbEntity
8
0
100
AcDbLine
10
455.49516854555634
20
2144.9008358567603
30
-1.1634619355662653e-30
11
455.49516854555628
21
2148.3753524571648
31
2.1886967593054814e-30
0
LINE
5
520
100
AcDbEntity
8
0
100
AcDbLine
10
455.49516854555628
20
2148.3753524571648
30
2.1886967593054814e-30
11
439.49516854555634
21
2148.3753524571648
31
1.5777218104408577e-29
0
LINE
5
521
100
AcDbEntity
8
0
100
AcDbLine
10
439.49516854555634
20
2148.3753524571648
30
1.5777218104408577e-29
11
439.4951685455564
21
2140.3753524571648
31
-2.8421709430404149e-13
0
ARC
5
522
100
AcDbEntity
8
0
100
AcDbCircle
10
436.2951685455572
20
2140.3753524571657
30
-2.8421709430404007e-13
40
3.1999999999999318
100
AcDbArc
50
180
51
360
0
LINE
5
523
100
AcDbEntity
8
0
100
AcDbLine
10
433.09516854555727
20
2140.3753524571657
30
-2.8421709430404007e-13
11
343.99516854554997
21
2140.3753524571662
31
-2.8421709430404058e-13
0
LINE
5
524
100
AcDbEntity
8
0
100
AcDbLine
10
343.99516854554997
20
2140.3753524571662
30
-2.8421709430404058e-13
11
343.99516854554923
21
2046.7753524571663
31
-2.8421709430404012e-13
0
ARC
5
525
100
AcDbEntity
8
0
100
AcDbCircle
10
343.99516854555122
20
2043.5753524571664
30
-2.8421709430404007e-13
40
3.1999999999999318
100
AcDbArc
50
-90.000000000016286
51
90.000000000035627
0
LINE
5
526
100
AcDbEntity
8
0
100
AcDbLine
10
343.99516854555031
20
2040.3753524571664
30
-2.8421709430404007e-13
11
331.99516854555037
21
2040.3753524571657
31
-2.8421709430404007e-13
0
ARC
5
527
100
AcDbEntity
8
0
100
AcDbCircle
10
331.99516854555134
20
2043.5753524571664
30
7.225445206674838e-45
40
3.1999999999999318
100
AcDbArc
50
90.000000000016286
51
269.99999999998266
0
LINE
5
528
100
AcDbEntity
8
0
100
AcDbLine
10
331.99516854555043
20
2046.7753524571663
30
-1.3297132839268655e-30
11
331.99516854555009
21
2140.3753524571662
31
5.7750177685015511e-29
0
LINE
5
529
100
AcDbEntity
8
0
100
AcDbLine
10
331.99516854555009
20
2140.3753524571662
30
5.7750177685015511e-29
11
234.89516854555683
21
2140.3753524571666
31
1.2621774483535862e-28
0
ARC
5
530
100
AcDbEntity
8
0
100
AcDbCircle
10
231.69516854555681
20
2140.3753524571675
30
-1.2266807715719883e-54
40
3.2000000000000739
100
AcDbArc
50
180
51
360
0
LINE
5
531
100
AcDbEntity
8
0
100
AcDbLine
10
228.49516854555674
20
2140.3753524571671
30
5.6107990511565176e-41
11
228.49516854555583
21
2148.3753524571648
31
1.4154370626928821e-27
0
LINE
5
532
100
AcDbEntity
8
0
100
AcDbLine
10
228.49516854555583
20
2148.3753524571648
30
1.4154370626928821e-27
11
212.49516854555588
21
2148.3753524571648
31
-1.1658803223182481e-41
0
LINE
5
533
100
AcDbEntity
8
0
100
AcDbLine
10
212.49516854555588
20
2148.3753524571648
30
-1.1658803223182481e-41
11
212.49516854555597
21
2144.9008358567594
31
-2.8421709430404007e-13
0
ARC
5
534
100
AcDbEntity
8
0
100
AcDbCircle
10
210.23242684575905
20
2142.6380941569623
30
-2.8421709430404007e-13
40
3.2000000000001396
100
AcDbArc
50
-135.00000000004283
51
45.000000000001805
0
LINE
5
535
100
AcDbEntity
8
0
100
AcDbLine
10
207.96968514596043
20
2140.3753524571671
30
-2.8421709430404007e-13
11
206.99516854555611
21
2140.3753524571648
31
2.3074181477695721e-28
0
LINE
5
536
100
AcDbEntity
8
0
100
AcDbLine
10
206.99516854555611
20
2140.3753524571648
30
2.3074181477695721e-28
11
206.99516854555611
21
2080.3753524571648
31
1.1902446268249959e-28
0
LINE
5
537
100
AcDbEntity
8
0
100
AcDbLine
10
206.99516854555611
20
2080.3753524571648
30
1.1902446268249959e-28
11
203.99516854555606
21
2080.3753524571648
31
-7.8886090522115754e-30
0
LINE
5
538
100
AcDbEntity
8
0
100
AcDbLine
10
203.99516854555606
20
2080.3753524571648
30
-7.8886090522115754e-30
11
203.99516854555606
21
2140.3753524571671
31
-1.1902446268101354e-28
0
LINE
5
539
100
AcDbEntity
8
0
100
AcDbLine
10
203.99516854555606
20
2140.3753524571671
30
-1.1902446268101354e-28
11
203.02065194515029
21
2140.3753524571671
31
5.8175187324334794e-71
0
ARC
5
540
100
AcDbEntity
8
0
100
AcDbCircle
10
200.75791024535272
20
2142.6380941569637
30
-1.2275046118157821e-44
40
3.2000000000000139
100
AcDbArc
50
134.99999999999642
51
315.00000000001222
0
LINE
5
541
100
AcDbEntity
8
0
100
AcDbLine
10
198.49516854555594
20
2144.9008358567608
30
1.3608929609541288e-30
11
198.49516854555586
21
2148.3753524571648
31
-2.8691369247691314e-29
0
LINE
5
542
100
AcDbEntity
8
0
100
AcDbLine
10
198.49516854555586
20
2148.3753524571648
30
-2.8691369247691314e-29
11
182.49516854555588
21
2148.3753524571648
31
1.5777218104408577e-29
0
LINE
5
543
100
AcDbEntity
8
0
100
AcDbLine
10
182.49516854555588
20
2148.3753524571648
30
1.5777218104408577e-29
11
182.49516854555594
21
2140.3753524571671
31
-2.8421709430404149e-13
0
ARC
5
544
100
AcDbEntity
8
0
100
AcDbCircle
10
179.29516854555672
20
2140.375352457168
30
-2.8421709430404007e-13
40
3.1999999999999318
100
AcDbArc
50
180
51
360
0
LINE
5
545
100
AcDbEntity
8
0
100
AcDbLine
10
176.09516854555679
20
2140.375352457168
30
-2.8421709430404007e-13
11
101.99516854555151
21
2140.375352457168
31
-1.262177448353916e-28
0
LINE
5
546
100
AcDbEntity
8
0
100
AcDbLine
10
101.99516854555151
20
2140.375352457168
30
-1.262177448353916e-28
11
101.99516854555063
21
2046.7753524571685
31
0
0
ARC
5
547
100
AcDbEntity
8
0
100
AcDbCircle
10
101.99516854555135
20
2043.5753524571683
30
4.3790577010150533e-46
40
3.1999999999996476
100
AcDbArc
50
-90.000000000019597
51
90.000000000012975
0
LINE
5
548
100
AcDbEntity
8
0
100
AcDbLine
10
101.99516854555026
20
2040.3753524571687
30
2.6257882817709572e-30
11
89.995168545550328
21
2040.375352457168
31
-1.5777218104420236e-29
0
ARC
5
549
100
AcDbEntity
8
0
100
AcDbCircle
10
89.995168545551323
20
2043.5753524571687
30
-2.8421709430404007e-13
40
3.1999999999999318
100
AcDbArc
50
90.000000000009408
51
269.99999999998221
0
LINE
5
550
100
AcDbEntity
8
0
100
AcDbLine
10
89.995168545550797
20
2046.7753524571685
30
-2.8421709430404007e-13
11
89.99516854555155
21
2140.375352457168
31
-2.8421709430404007e-13
0
LINE
5
551
100
AcDbEntity
8
0
100
AcDbLine
10
89.99516854555155
20
2140.375352457168
30
-2.8421709430404007e-13
11
65.995168545554677
21
2140.3753524571684
31
-2.8421709430404007e-13
0
LINE
5
552
100
AcDbEntity
8
0
100
AcDbLine
10
65.995168545554677
20
2140.3753524571684
30
-2.8421709430404007e-13
11
65.995168545552815
21
1940.3753524571684
31
2.152394441202919e-41
0
LINE
5
553
100
AcDbEntity
8
0
100
AcDbLine
10
65.995168545552815
20
1940.3753524571684
30
2.152394441202919e-41
11
176.09516854555167
21
1940.3753524571675
31
3.206170886375182e-41
0
ARC
5
554
100
AcDbEntity
8
0
100
AcDbCircle
10
179.29516854555169
20
1940.3753524571678
30
-2.8421709430404007e-13
40
3.1999999999999318
100
AcDbArc
50
0
51
180
0
LINE
5
555
100
AcDbEntity
8
0
100
AcDbLine
10
182.49516854555162
20
1940.3753524571673
30
-2.8421709430404007e-13
11
182.49516854555077
21
1932.3753524571671
31
-2.8421709430404007e-13
0
LINE
5
556
100
AcDbEntity
8
0
100
AcDbLine
10
182.49516854555077
20
1932.3753524571671
30
-2.8421709430404007e-13
11
198.49516854555071
21
1932.3753524571671
31
-2.8421709430404007e-13
0
LINE
5
557
100
AcDbEntity
8
0
100
AcDbLine
10
198.49516854555071
20
1932.3753524571671
30
-2.8421709430404007e-13
11
198.49516854555074
21
1935.8498690575739
31
5.6051938572992683e-44
0
ARC
5
558
100
AcDbEntity
8
0
100
AcDbCircle
10
200.75791024534766
20
1938.1126107573709
30
1.064111021346658e-43
40
3.1999999999997124
100
AcDbArc
50
44.999999999983444
51
225.00000000000176
0
LINE
5
559
100
AcDbEntity
8
0
100
AcDbLine
10
203.02065194514512
20
1940.3753524571671
30
-1.1634619356882923e-30
11
203.9951685455506
21
1940.3753524571671
31
5.9164567891575885e-30
0
LINE
5
560
100
AcDbEntity
8
0
100
AcDbLine
10
203.9951685455506
20
1940.3753524571671
30
5.9164567891575885e-30
11
203.99516854555117
21
2000.3753524571671
31
8.9683101716788293e-43
0
LINE
5
561
100
AcDbEntity
8
0
100
AcDbLine
10
203.99516854555117
20
2000.3753524571671
30
8.9683101716788293e-43
11
206.99516854555128
21
2000.3753524571671
31
-1.7908936789825415e-70
0
LINE
5
562
100
AcDbEntity
8
0
100
AcDbLine
10
206.99516854555128
20
2000.3753524571671
30
-1.7908936789825415e-70
11
206.99516854555071
21
1940.3753524571671
31
6.7262326287591219e-41
0
LINE
5
563
100
AcDbEntity
8
0
100
AcDbLine
10
206.99516854555071
20
1940.3753524571671
30
6.7262326287591219e-41
11
207.96968514595625
21
1940.3753524571671
31
-9.8607613152626476e-31
0
ARC
5
564
100
AcDbEntity
8
0
100
AcDbCircle
10
210.23242684575388
20
1938.1126107573707
30
-2.8421709430404007e-13
40
3.2000000000001396
100
AcDbArc
50
-45.000000000004675
51
135.00000000001583
0
LINE
5
565
100
AcDbEntity
8
0
100
AcDbLine
10
212.4951685455508
20
1935.8498690575734
30
-2.8421709430404007e-13
11
212.4951685455508
21
1932.3753524571669
31
-2.8421709430403987e-13
0
LINE
5
566
100
AcDbEntity
8
0
100
AcDbLine
10
212.4951685455508
20
1932.3753524571669
30
-2.8421709430403987e-13
11
228.49516854555071
21
1932.3753524571669
31
-2.8421709430404007e-13
0
LINE
5
567
100
AcDbEntity
8
0
100
AcDbLine
10
228.49516854555071
20
1932.3753524571669
30
-2.8421709430404007e-13
11
228.49516854555077
21
1940.3753524571671
31
2.524354896716242e-29
0
ARC
5
568
100
AcDbEntity
8
0
100
AcDbCircle
10
231.69516854555161
20
1940.3753524571673
30
-1.1210387714598537e-43
40
3.1999999999999318
100
AcDbArc
50
0
51
180
0
LINE
5
569
100
AcDbEntity
8
0
100
AcDbLine
10
234.89516854555154
20
1940.3753524571666
30
-5.0487097933824604e-30
11
433.0951685455517
21
1940.3753524571653
31
-2.5243548967069172e-28
0
ARC
5
570
100
AcDbEntity
8
0
100
AcDbCircle
10
436.29516854555186
20
1940.3753524571655
30
-2.8421709430404007e-13
40
3.1999999999999318
100
AcDbArc
50
0
51
180
0
LINE
5
571
100
AcDbEntity
8
0
100
AcDbLine
10
439.49516854555179
20
1940.375352457165
30
-2.8421709430404007e-13
11
439.49516854555077
21
1932.3753524571648
31
-2.8421709430404007e-13
0
LINE
5
572
100
AcDbEntity
8
0
100
AcDbLine
10
439.49516854555077
20
1932.3753524571648
30
-2.8421709430404007e-13
11
455.49516854555071
21
1932.3753524571648
31
-2.8421709430404007e-13
0
LINE
5
573
100
AcDbEntity
8
0
100
AcDbLine
10
455.49516854555071
20
1932.3753524571648
30
-2.8421709430404007e-13
11
455.49516854555071
21
1935.8498690575716
31
5.6051938572992683e-44
0
ARC
5
574
100
AcDbEntity
8
0
100
AcDbCircle
10
457.75791024534783
20
1938.1126107573684
30
-6.1796075648756734e-44
40
3.2000000000000641
100
AcDbArc
50
44.999999999989925
51
224.99999999999639
0
LINE
5
575
100
AcDbEntity
8
0
100
AcDbLine
10
460.02065194514523
20
1940.375352457165
30
1.3608929610165894e-30
11
460.99516854555065
21
1940.3753524571648
31
3.8456969129524326e-29
0
LINE
5
576
100
AcDbEntity
8
0
100
AcDbLine
10
460.99516854555065
20
1940.3753524571648
30
3.8456969129524326e-29
11
460.99516854555122
21
2000.3753524571648
31
8.9683101716788293e-43
0
LINE
5
577
100
AcDbEntity
8
0
100
AcDbLine
10
460.99516854555122
20
2000.3753524571648
30
8.9683101716788293e-43
11
463.99516854555134
21
2000.3753524571648
31
-1.7908936789825415e-70
0
LINE
5
578
100
AcDbEntity
8
0
100
AcDbLine
10
463.99516854555134
20
2000.3753524571648
30
-1.7908936789825415e-70
11
463.99516854555077
21
1940.3753524571648
31
6.7262326287591219e-41
0
LINE
5
579
100
AcDbEntity
8
0
100
AcDbLine
10
463.99516854555077
20
1940.3753524571648
30
6.7262326287591219e-41
11
464.9696851459563
21
1940.3753524571648
31
-9.8607613152626476e-31
0
ARC
5
580
100
AcDbEntity
8
0
100
AcDbCircle
10
467.23242684575388
20
1938.1126107573684
30
-2.8421709430404007e-13
40
3.2000000000001143
100
AcDbArc
50
-45.000000000005038
51
135.00000000001512
0
LINE
5
581
100
AcDbEntity
8
0
100
AcDbLine
10
469.49516854555077
20
1935.8498690575711
30
-2.8421709430404007e-13
11
469.49516854555077
21
1932.3753524571648
31
-2.8421709430404007e-13
0
LINE
5
582
100
AcDbEntity
8
0
100
AcDbLine
10
469.49516854555077
20
1932.3753524571648
30
-2.8421709430404007e-13
11
485.49516854555071
21
1932.3753524571646
31
-2.8421709430404007e-13
0
LINE
5
583
100
AcDbEntity
8
0
100
AcDbLine
10
485.49516854555071
20
1932.3753524571646
30
-2.8421709430404007e-13
11
485.49516854555077
21
1940.3753524571648
31
2.524354896716242e-29
0
ARC
5
584
100
AcDbEntity
8
0
100
AcDbCircle
10
488.69516854555184
20
1940.375352457165
30
3.6003877191593421e-55
40
3.1999999999999318
100
AcDbArc
50
0
51
180
0
LINE
5
585
100
AcDbEntity
8
0
100
AcDbLine
10
491.89516854555177
20
1940.3753524571644
30
3.2019268553373743e-41
11
690.0951685455517
21
1940.375352457163
31
-5.0487097934141545e-28
0
ARC
5
586
100
AcDbEntity
8
0
100
AcDbCircle
10
693.29516854555186
20
1940.3753524571632
30
-2.8421709430404007e-13
40
3.1999999999997897
100
AcDbArc
50
0
51
180
0
LINE
5
587
100
AcDbEntity
8
0
100
AcDbLine
10
696.49516854555156
20
1940.3753524571628
30
-2.8421709430404007e-13
11
696.49516854555077
21
1932.3753524571625
31
-2.8421709430404007e-13
0
LINE
5
588
100
AcDbEntity
8
0
100
AcDbLine
10
696.49516854555077
20
1932.3753524571625
30
-2.8421709430404007e-13
11
712.49516854555065
21
1932.3753524571625
31
-2.8421709430404007e-13
0
LINE
5
589
100
AcDbEntity
8
0
100
AcDbLine
10
712.49516854555065
20
1932.3753524571625
30
-2.8421709430404007e-13
11
712.49516854555065
21
1935.8498690575689
31
5.6051938572992683e-44
0
ARC
5
590
100
AcDbEntity
8
0
100
AcDbCircle
10
714.7579102453476
20
1938.1126107573659
30
-3.6871665842546749e-43
40
3.2000000000001143
100
AcDbArc
50
44.99999999999568
51
225.00000000000142
0
LINE
5
591
100
AcDbEntity
8
0
100
AcDbLine
10
717.02065194514478
20
1940.3753524571628
30
-8.7365266257934483e-30
11
717.99516854555054
21
1940.3753524571625
31
-2.9582283945787943e-29
0
LINE
5
592
100
AcDbEntity
8
0
100
AcDbLine
10
717.99516854555054
20
1940.3753524571625
30
-2.9582283945787943e-29
11
717.99516854555122
21
2000.3753524571625
31
8.9683101716788293e-43
0
LINE
5
593
100
AcDbEntity
8
0
100
AcDbLine
10
717.99516854555122
20
2000.3753524571625
30
8.9683101716788293e-43
11
720.99516854555122
21
2000.3753524571625
31
-1.7908936789825415e-70
0
LINE
5
594
100
AcDbEntity
8
0
100
AcDbLine
10
720.99516854555122
20
2000.3753524571625
30
-1.7908936789825415e-70
11
720.99516854555065
21
1940.3753524571625
31
6.7262326287591219e-41
0
LINE
5
595
100
AcDbEntity
8
0
100
AcDbLine
10
720.99516854555065
20
1940.3753524571625
30
6.7262326287591219e-41
11
721.96968514595642
21
1940.3753524571625
31
-5.8175187324329494e-71
0
ARC
5
596
100
AcDbEntity
8
0
100
AcDbCircle
10
724.23242684575382
20
1938.1126107573664
30
-2.8421709430404007e-13
40
3.2000000000001143
100
AcDbArc
50
-45.000000000001421
51
135.00000000001583
0
LINE
5
597
100
AcDbEntity
8
0
100
AcDbLine
10
726.49516854555077
20
1935.8498690575693
30
-2.8421709430404007e-13
11
726.49516854555077
21
1932.3753524571623
31
-2.8421709430404007e-13
0
LINE
5
598
100
AcDbEntity
8
0
100
AcDbLine
10
726.49516854555077
20
1932.3753524571623
30
-2.8421709430404007e-13
11
742.49516854555065
21
1932.3753524571623
31
-2.8421709430404007e-13
0
LINE
5
599
100
AcDbEntity
8
0
100
AcDbLine
10
742.49516854555065
20
1932.3753524571623
30
-2.8421709430404007e-13
11
742.49516854555077
21
1940.3753524571625
31
2.524354896716242e-29
0
ARC
5
600
100
AcDbEntity
8
0
100
AcDbCircle
10
745.69516854555161
20
1940.3753524571628
30
7.1370517618733862e-55
40
3.1999999999997897
100
AcDbArc
50
0
51
180
0
LINE
5
601
100
AcDbEntity
8
0
100
AcDbLine
10
748.89516854555143
20
1940.3753524571621
30
3.2019268553373034e-41
11
947.09516854555147
21
1940.3753524571607
31
-5.0487097934141545e-28
0
ARC
5
602
100
AcDbEntity
8
0
100
AcDbCircle
10
950.29516854555141
20
1940.3753524571609
30
-2.8421709430404007e-13
40
3.1999999999997897
100
AcDbArc
50
0
51
180
0
LINE
5
603
100
AcDbEntity
8
0
100
AcDbLine
10
953.49516854555122
20
1940.3753524571605
30
-2.8421709430404007e-13
11
953.49516854555054
21
1932.3753524571603
31
-2.8421709430404007e-13
0
LINE
5
604
100
AcDbEntity
8
0
100
AcDbLine
10
953.49516854555054
20
1932.3753524571603
30
-2.8421709430404007e-13
11
969.49516854555043
21
1932.3753524571603
31
-2.8421709430404007e-13
0
LINE
5
605
100
AcDbEntity
8
0
100
AcDbLine
10
969.49516854555043
20
1932.3753524571603
30
-2.8421709430404007e-13
11
969.49516854555043
21
1935.849869057567
31
5.6051938572992683e-44
0
ARC
5
606
100
AcDbEntity
8
0
100
AcDbCircle
10
971.75791024534715
20
1938.1126107573641
30
1.0028042135324472e-43
40
3.1999999999997124
100
AcDbArc
50
44.99999999998272
51
225.00000000000429
0
LINE
5
607
100
AcDbEntity
8
0
100
AcDbLine
10
974.02065194514466
20
1940.3753524571603
30
-3.6878168323877397e-30
11
974.99516854555043
21
1940.3753524571603
31
3.944304526105059e-30
0
LINE
5
608
100
AcDbEntity
8
0
100
AcDbLine
10
974.99516854555043
20
1940.3753524571603
30
3.944304526105059e-30
11
974.995168545551
21
2000.3753524571603
31
8.9683101716788293e-43
0
LINE
5
609
100
AcDbEntity
8
0
100
AcDbLine
10
974.995168545551
20
2000.3753524571603
30
8.9683101716788293e-43
11
977.99516854555111
21
2000.3753524571603
31
-1.7908936789825415e-70
0
LINE
5
610
100
AcDbEntity
8
0
100
AcDbLine
10
977.99516854555111
20
2000.3753524571603
30
-1.7908936789825415e-70
11
977.99516854555054
21
1940.3753524571603
31
-2.8421709430404007e-13
0
LINE
5
611
100
AcDbEntity
8
0
100
AcDbLine
10
977.99516854555054
20
1940.3753524571603
30
-2.8421709430404007e-13
11
978.96968514595642
21
1940.3753524571612
31
-2.8421709430404007e-13
0
ARC
5
612
100
AcDbEntity
8
0
100
AcDbCircle
10
981.2324268457553
20
2188.1126107573637
30
0
40
3.2000000000000139
100
AcDbArc
50
-44.999999999994245
51
135.00000000001296
0
LINE
5
613
100
AcDbEntity
8
0
100
AcDbLine
10
978.96968514595767
20
2190.3753524571603
30
-2.9724028011940597e-31
11
974.02065194514648
21
2190.3753524571603
31
2.5035699508749711e-70
0
ARC
5
614
100
AcDbEntity
8
0
100
AcDbCircle
10
971.75791024534897
20
2188.1126107573637
30
0
40
3.2000000000001143
100
AcDbArc
50
44.999999999988482
51
225.00000000001009
0
LINE
5
615
100
AcDbEntity
8
0
100
AcDbLine
10
969.49516854555225
20
2185.8498690575661
30
-2.2271146165668471e-30
11
969.49516854555236
21
2182.3753524571603
31
0
0
LINE
5
616
100
AcDbEntity
8
0
100
AcDbLine
10
969.49516854555236
20
2182.3753524571603
30
0
11
953.49516854555247
21
2182.3753524571603
31
1.5777218104420236e-29
0
LINE
5
617
100
AcDbEntity
8
0
100
AcDbLine
10
953.49516854555247
20
2182.3753524571603
30
1.5777218104420236e-29
11
953.49516854555247
21
2190.3753524571603
31
-2.8421709430404007e-13
0
ARC
5
618
100
AcDbEntity
8
0
100
AcDbCircle
10
950.29516854555311
20
2190.3753524571612
30
0
40
3.1999999999993634
100
AcDbArc
50
0
51
180
0
LINE
5
619
100
AcDbEntity
8
0
100
AcDbLine
10
947.09516854555318
20
2190.3753524571607
30
5.111936797857729e-41
11
748.89516854555313
21
2190.3753524571621
31
2.5243548967069418e-28
0
ARC
5
620
100
AcDbEntity
8
0
100
AcDbCircle
10
745.69516854555309
20
2190.3753524571625
30
0
40
3.2000000000000739
100
AcDbArc
50
0
51
180
0
LINE
5
621
100
AcDbEntity
8
0
100
AcDbLine
10
742.49516854555304
20
2190.3753524571621
30
2.9595423566540004e-41
11
742.49516854555259
21
2182.3753524571621
31
0
0
LINE
5
622
100
AcDbEntity
8
0
100
AcDbLine
10
742.49516854555259
20
2182.3753524571621
30
0
11
726.49516854555259
21
2182.3753524571621
31
8.0939281650873409e-70
0
LINE
5
623
100
AcDbEntity
8
0
100
AcDbLine
10
726.49516854555259
20
2182.3753524571621
30
8.0939281650873409e-70
11
726.49516854555259
21
2185.8498690575693
31
-2.8421709430404007e-13
0
ARC
5
624
100
AcDbEntity
8
0
100
AcDbCircle
10
724.23242684575553
20
2188.1126107573659
30
0
40
3.2000000000000139
100
AcDbArc
50
-44.999999999994245
51
135.00000000001151
0
LINE
5
625
100
AcDbEntity
8
0
100
AcDbLine
10
721.96968514595801
20
2190.3753524571625
30
-2.821595176826582e-30
11
717.02065194514648
21
2190.3753524571625
31
2.5035699508750609e-70
0
ARC
5
626
100
AcDbEntity
8
0
100
AcDbCircle
10
714.75791024534919
20
2188.1126107573659
30
0
40
3.2000000000000139
100
AcDbArc
50
44.99999999999136
51
225.00000000000574
0
LINE
5
627
100
AcDbEntity
8
0
100
AcDbLine
10
712.49516854555259
20
2185.8498690575689
30
-2.2271146165690061e-30
11
712.49516854555259
21
2182.3753524571621
31
0
0
LINE
5
628
100
AcDbEntity
8
0
100
AcDbLine
10
712.49516854555259
20
2182.3753524571621
30
0
11
696.49516854555259
21
2182.3753524571625
31
1.5777218104420236e-29
0
LINE
5
629
100
AcDbEntity
8
0
100
AcDbLine
10
696.49516854555259
20
2182.3753524571625
30
1.5777218104420236e-29
11
696.49516854555259
21
2190.3753524571625
31
-2.8421709430404007e-13
0
ARC
5
630
100
AcDbEntity
8
0
100
AcDbCircle
10
693.29516854555334
20
2190.3753524571634
30
-2.8421709430404007e-13
40
3.1999999999992212
100
AcDbArc
50
0
51
180
0
LINE
5
631
100
AcDbEntity
8
0
100
AcDbLine
10
690.09516854555341
20
2190.375352457163
30
-2.8421709430404007e-13
11
491.89516854555347
21
2190.3753524571644
31
5.0487097934141796e-28
0
ARC
5
632
100
AcDbEntity
8
0
100
AcDbCircle
10
488.69516854555349
20
2190.3753524571648
30
0
40
3.2000000000000028
100
AcDbArc
50
0
51
180
0
LINE
5
633
100
AcDbEntity
8
0
100
AcDbLine
10
485.4951685455535
20
2190.3753524571644
30
2.9595423566540014e-41
11
485.49516854555247
21
2182.3753524571644
31
-1.9604605122868565e-30
0
LINE
5
634
100
AcDbEntity
8
0
100
AcDbLine
10
485.49516854555247
20
2182.3753524571644
30
-1.9604605122868565e-30
11
469.49516854555259
21
2182.3753524571648
31
8.0939281650873409e-70
0
LINE
5
635
100
AcDbEntity
8
0
100
AcDbLine
10
469.49516854555259
20
2182.3753524571648
30
8.0939281650873409e-70
11
469.49516854555259
21
2185.8498690575716
31
-2.8421709430404007e-13
0
ARC
5
636
100
AcDbEntity
8
0
100
AcDbCircle
10
467.23242684575564
20
2188.1126107573682
30
0
40
3.1999999999999136
100
AcDbArc
50
-44.99999999999568
51
135.00000000001873
0
LINE
5
637
100
AcDbEntity
8
0
100
AcDbLine
10
464.96968514595801
20
2190.3753524571644
30
2.2271146165979545e-30
11
460.02065194514694
21
2190.3753524571648
31
2.5035699508748447e-70
0
ARC
5
638
100
AcDbEntity
8
0
100
AcDbCircle
10
457.75791024534948
20
2188.1126107573682
30
0
40
3.2000000000001143
100
AcDbArc
50
44.999999999989207
51
225.00000000000648
0
LINE
5
639
100
AcDbEntity
8
0
100
AcDbLine
10
455.49516854555247
20
2185.8498690575707
30
-2.2271146165641485e-30
11
455.49516854555247
21
2182.3753524571648
31
0
0
LINE
5
640
100
AcDbEntity
8
0
100
AcDbLine
10
455.49516854555247
20
2182.3753524571648
30
0
11
439.49516854555259
21
2182.3753524571648
31
1.5777218104420236e-29
0
LINE
5
641
100
AcDbEntity
8
0
100
AcDbLine
10
439.49516854555259
20
2182.3753524571648
30
1.5777218104420236e-29
11
439.49516854555264
21
2190.3753524571648
31
-2.8421709430404007e-13
0
ARC
5
642
100
AcDbEntity
8
0
100
AcDbCircle
10
436.29516854555339
20
2190.3753524571657
30
-2.8421709430404007e-13
40
3.1999999999992212
100
AcDbArc
50
0
51
180
0
LINE
5
643
100
AcDbEntity
8
0
100
AcDbLine
10
433.09516854555341
20
2190.3753524571653
30
-2.8421709430404007e-13
11
234.8951685455533
21
2190.3753524571666
31
-2.9595423566540126e-41
0
ARC
5
644
100
AcDbEntity
8
0
100
AcDbCircle
10
231.69516854555332
20
2190.3753524571671
30
0
40
3.1999999999999673
100
AcDbArc
50
0
51
180
0
LINE
5
645
100
AcDbEntity
8
0
100
AcDbLine
10
228.49516854555333
20
2190.3753524571666
30
2.9595423566540014e-41
11
228.49516854555253
21
2182.3753524571666
31
-1.9604605122868565e-30
0
LINE
5
646
100
AcDbEntity
8
0
100
AcDbLine
10
228.49516854555253
20
2182.3753524571666
30
-1.9604605122868565e-30
11
212.49516854555259
21
2182.3753524571666
31
8.0939281650873409e-70
0
LINE
5
647
100
AcDbEntity
8
0
100
AcDbLine
10
212.49516854555259
20
2182.3753524571666
30
8.0939281650873409e-70
11
212.4951685455527
21
2185.8498690575739
31
-2.8421709430404018e-13
0
ARC
5
648
100
AcDbEntity
8
0
100
AcDbCircle
10
210.23242684575564
20
2188.1126107573705
30
-2.8421709430404007e-13
40
3.2000000000000388
100
AcDbArc
50
-44.999999999994245
51
135.00000000001296
0
LINE
5
649
100
AcDbEntity
8
0
100
AcDbLine
10
207.96968514595801
20
2190.3753524571671
30
-2.8421709430404007e-13
11
203.02065194514688
21
2190.3753524571671
31
2.503569950874863e-70
0
ARC
5
650
100
AcDbEntity
8
0
100
AcDbCircle
10
200.75791024534942
20
2188.1126107573705
30
0
40
3.2000000000001143
100
AcDbArc
50
44.999999999989207
51
225.00000000000213
0
LINE
5
651
100
AcDbEntity
8
0
100
AcDbLine
10
198.49516854555253
20
2185.8498690575734
30
2.9724028014194928e-31
11
198.4951685455525
21
2182.3753524571666
31
0
0
LINE
5
652
100
AcDbEntity
8
0
100
AcDbLine
10
198.4951685455525
20
2182.3753524571666
30
0
11
182.49516854555259
21
2182.3753524571671
31
1.5777218104420236e-29
0
LINE
5
653
100
AcDbEntity
8
0
100
AcDbLine
10
182.49516854555259
20
2182.3753524571671
30
1.5777218104420236e-29
11
182.49516854555267
21
2190.3753524571671
31
-2.8421709430404007e-13
0
ARC
5
654
100
AcDbEntity
8
0
100
AcDbCircle
10
179.29516854555339
20
2190.375352457168
30
-2.8421709430404007e-13
40
3.1999999999992923
100
AcDbArc
50
0
51
180
0
LINE
5
655
100
AcDbEntity
8
0
100
AcDbLine
10
176.09516854555338
20
2190.3753524571675
30
-2.8421709430404007e-13
11
65.99516854555462
21
2190.375352457168
31
-1.2621774483539148e-28
0
LINE
5
656
100
AcDbEntity
8
0
100
AcDbLine
10
65.99516854555462
20
2190.375352457168
30
-1.2621774483539148e-28
11
65.995168545556439
21
2390.375352457168
31
3.5873240686715317e-42
0
LINE
5
657
100
AcDbEntity
8
0
100
AcDbLine
10
65.995168545556439
20
2390.375352457168
30
3.5873240686715317e-42
11
89.995168545553312
21
2390.375352457168
31
3.1554436208844844e-29
0
LINE
5
658
100
AcDbEntity
8
0
100
AcDbLine
10
89.995168545553312
20
2390.375352457168
30
3.1554436208844844e-29
11
89.995168545552403
21
2296.7753524571685
31
-2.8421709430404007e-13
0
ARC
5
659
100
AcDbEntity
8
0
100
AcDbCircle
10
89.995168545553028
20
2293.5753524571687
30
-2.8421709430404007e-13
40
3.1999999999999318
100
AcDbArc
50
90.000000000011198
51
269.99999999998295
0
LINE
5
660
100
AcDbEntity
8
0
100
AcDbLine
10
89.995168545552076
20
2290.3753524571684
30
-2.8421709430404007e-13
11
101.99516854555199
21
2290.375352457168
31
-2.8421709430404007e-13
0
ARC
5
661
100
AcDbEntity
8
0
100
AcDbCircle
10
101.99516854555291
20
2293.5753524571687
30
0
40
3.2000000000005002
100
AcDbArc
50
-90.000000000016541
51
90.000000000006878
0
LINE
5
662
100
AcDbEntity
8
0
100
AcDbLine
10
101.99516854555253
20
2296.7753524571685
30
-2.2188396266228965e-31
11
101.99516854555333
21
2390.375352457168
31
-8.9683101716788293e-43
0
LINE
5
663
100
AcDbEntity
8
0
100
AcDbLine
10
101.99516854555333
20
2390.375352457168
30
-8.9683101716788293e-43
11
176.09516854555858
21
2390.3753524571675
31
-1.2621774483533449e-28
0
ARC
5
664
100
AcDbEntity
8
0
100
AcDbCircle
10
179.29516854555851
20
2390.375352457168
30
-2.8421709430404007e-13
40
3.1999999999999318
100
AcDbArc
50
180
51
360
0
LINE
5
665
100
AcDbEntity
8
0
100
AcDbLine
10
182.4951685455585
20
2390.3753524571671
30
-2.8421709430404007e-13
11
182.49516854555736
21
2398.3753524571657
31
-2.8421709430403871e-13
0
LINE
5
666
100
AcDbEntity
8
0
100
AcDbLine
10
182.49516854555736
20
2398.3753524571657
30
-2.8421709430403871e-13
11
198.49516854555731
21
2398.3753524571657
31
-2.8421709430404007e-13
0
LINE
5
667
100
AcDbEntity
8
0
100
AcDbLine
10
198.49516854555731
20
2398.3753524571657
30
-2.8421709430404007e-13
11
198.49516854555742
21
2394.9008358567603
31
-1.9392753605968917e-29
0
ARC
5
668
100
AcDbEntity
8
0
100
AcDbCircle
10
200.75791024535425
20
2392.6380941569632
30
0
40
3.1999999999998878
100
AcDbArc
50
134.99999999999713
51
315.00000000002012
0
LINE
5
669
100
AcDbEntity
8
0
100
AcDbLine
10
203.020651945152
20
2390.3753524571671
30
2.8215951768147526e-30
11
207.9696851459621
21
2390.3753524571671
31
-2.5035699508743235e-70
0
ARC
5
670
100
AcDbEntity
8
0
100
AcDbCircle
10
210.2324268457607
20
2392.6380941569623
30
-2.8421709430404007e-13
40
3.1999999999999136
100
AcDbArc
50
-135.00000000004246
51
45.000000000004313
0
LINE
5
671
100
AcDbEntity
8
0
100
AcDbLine
10
212.49516854555742
20
2394.9008358567594
30
-2.8421709430404007e-13
11
212.49516854555733
21
2398.3753524571657
31
-2.8421709430404002e-13
0
LINE
5
672
100
AcDbEntity
8
0
100
AcDbLine
10
212.49516854555733
20
2398.3753524571657
30
-2.8421709430404002e-13
11
228.49516854555731
21
2398.3753524571657
31
-2.8421709430404007e-13
0
LINE
5
673
100
AcDbEntity
8
0
100
AcDbLine
10
228.49516854555731
20
2398.3753524571657
30
-2.8421709430404007e-13
11
228.49516854555736
21
2390.3753524571666
31
1.6542695508209629e-29
0
ARC
5
674
100
AcDbEntity
8
0
100
AcDbCircle
10
231.69516854555843
20
2390.3753524571675
30
0
40
3.2000000000010687
100
AcDbArc
50
180
51
360
0
LINE
5
675
100
AcDbEntity
8
0
100
AcDbLine
10
234.89516854555845
20
2390.3753524571666
30
5.1785266348180487e-41
11
331.99516854555293
21
2390.3753524571657
31
3.0268046829416036e-42
0
LINE
5
676
100
AcDbEntity
8
0
100
AcDbLine
10
331.99516854555293
20
2390.3753524571657
30
3.0268046829416036e-42
11
331.99516854555213
21
2296.7753524571658
31
8.9683101716788293e-43
0
ARC
5
677
100
AcDbEntity
8
0
100
AcDbCircle
10
331.99516854555299
20
2293.5753524571664
30
0
40
3.1999999999996476
100
AcDbArc
50
90.000000000015277
51
269.99999999998369
0
LINE
5
678
100
AcDbEntity
8
0
100
AcDbLine
10
331.99516854555208
20
2290.3753524571666
30
-1.4629662480528086e-30
11
343.99516854555196
21
2290.3753524571657
31
1.5777218104420236e-29
0
ARC
5
679
100
AcDbEntity
8
0
100
AcDbCircle
10
343.9951685455527
20
2293.5753524571664
30
-2.8421709430404007e-13
40
3.2000000000005002
100
AcDbArc
50
-90.00000000001323
51
90.000000000014239
0
LINE
5
680
100
AcDbEntity
8
0
100
AcDbLine
10
343.99516854555191
20
2296.7753524571663
30
-2.8421709430404007e-13
11
343.99516854555281
21
2390.3753524571657
31
-2.8421709430404007e-13
0
LINE
5
681
100
AcDbEntity
8
0
100
AcDbLine
10
343.99516854555281
20
2390.3753524571657
30
-2.8421709430404007e-13
11
433.09516854555881
21
2390.3753524571653
31
-2.8421709430403982e-13
0
ARC
5
682
100
AcDbEntity
8
0
100
AcDbCircle
10
436.29516854555879
20
2390.3753524571657
30
-2.8421709430404007e-13
40
3.2000000000000028
100
AcDbArc
50
180
51
360
0
LINE
5
683
100
AcDbEntity
8
0
100
AcDbLine
10
439.49516854555884
20
2390.3753524571648
30
-2.8421709430404007e-13
11
439.49516854555776
21
2398.3753524571657
31
-2.8421709430403871e-13
0
LINE
5
684
100
AcDbEntity
8
0
100
AcDbLine
10
439.49516854555776
20
2398.3753524571657
30
-2.8421709430403871e-13
11
455.4951685455577
21
2398.3753524571657
31
-2.8421709430404007e-13
0
LINE
5
685
100
AcDbEntity
8
0
100
AcDbLine
10
455.4951685455577
20
2398.3753524571657
30
-2.8421709430404007e-13
11
455.49516854555776
21
2394.9008358567603
31
-1.6129933558864872e-29
0
ARC
5
686
100
AcDbEntity
8
0
100
AcDbCircle
10
457.75791024535465
20
2392.6380941569632
30
0
40
3.1999999999999136
100
AcDbArc
50
134.99999999999787
51
314.99999999996186
0
LINE
5
687
100
AcDbEntity
8
0
100
AcDbLine
10
460.02065194515006
20
2390.3753524571648
30
1.0394659866936046e-29
11
464.96968514596455
21
2390.3753524571648
31
-2.5035699508765347e-70
0
ARC
5
688
100
AcDbEntity
8
0
100
AcDbCircle
10
467.23242684576093
20
2392.6380941569623
30
0
40
3.1999999999999633
100
AcDbArc
50
-134.99999999998559
51
44.999999999997115
0
LINE
5
689
100
AcDbEntity
8
0
100
AcDbLine
10
469.49516854555776
20
2394.9008358567589
30
2.227114616644067e-30
11
469.49516854555776
21
2398.3753524571657
31
-2.8421709430404007e-13
0
LINE
5
690
100
AcDbEntity
8
0
100
AcDbLine
10
469.49516854555776
20
2398.3753524571657
30
-2.8421709430404007e-13
11
485.4951685455577
21
2398.3753524571657
31
-2.8421709430404007e-13
0
LINE
5
691
100
AcDbEntity
8
0
100
AcDbLine
10
485.4951685455577
20
2398.3753524571657
30
-2.8421709430404007e-13
11
485.49516854555776
21
2390.3753524571644
31
1.6542695508015466e-29
0
ARC
5
692
100
AcDbEntity
8
0
100
AcDbCircle
10
488.69516854555889
20
2390.3753524571653
30
0
40
3.2000000000011397
100
AcDbArc
50
180
51
360
0
LINE
5
693
100
AcDbEntity
8
0
100
AcDbLine
10
491.89516854555893
20
2390.3753524571644
30
5.1785266348180487e-41
11
584.99516854555327
21
2390.3753524571634
31
-4.7096544510599267e-69
0
LINE
5
694
100
AcDbEntity
8
0
100
AcDbLine
10
584.99516854555327
20
2390.3753524571634
30
-4.7096544510599267e-69
11
584.99516854555236
21
2296.7753524571635
31
1.7936620343357659e-42
0
ARC
5
695
100
AcDbEntity
8
0
100
AcDbCircle
10
584.99516854555304
20
2293.5753524571637
30
0
40
3.1999999999999318
100
AcDbArc
50
90.000000000012221
51
269.99999999998369
0
LINE
5
696
100
AcDbEntity
8
0
100
AcDbLine
10
584.99516854555213
20
2290.3753524571639
30
-2.8548556755645865e-30
11
596.99516854555191
21
2290.3753524571634
31
1.5777218104420236e-29
0
ARC
5
697
100
AcDbEntity
8
0
100
AcDbCircle
10
596.99516854555281
20
2293.5753524571637
30
-2.8421709430404007e-13
40
3.2000000000005002
100
AcDbArc
50
-90.000000000016286
51
90.000000000010175
0
LINE
5
698
100
AcDbEntity
8
0
100
AcDbLine
10
596.99516854555225
20
2296.7753524571635
30
-2.8421709430404007e-13
11
596.99516854555316
21
2390.3753524571634
31
-2.8421709430404007e-13
0
LINE
5
699
100
AcDbEntity
8
0
100
AcDbLine
10
596.99516854555316
20
2390.3753524571634
30
-2.8421709430404007e-13
11
690.09516854555795
21
2390.3753524571634
31
-2.8421709430403967e-13
0
ARC
5
700
100
AcDbEntity
8
0
100
AcDbCircle
10
693.29516854555789
20
2390.3753524571634
30
-2.8421709430404007e-13
40
3.1999999999999318
100
AcDbArc
50
180
51
360
0
LINE
5
701
100
AcDbEntity
8
0
100
AcDbLine
10
696.49516854555782
20
2390.3753524571625
30
-2.8421709430404007e-13
11
696.49516854555691
21
2398.3753524571657
31
-2.8421709430404007e-13
0
LINE
5
702
100
AcDbEntity
8
0
100
AcDbLine
10
696.49516854555691
20
2398.3753524571657
30
-2.8421709430404007e-13
11
712.49516854555679
21
2398.3753524571657
31
-2.8421709430404007e-13
0
LINE
5
703
100
AcDbEntity
8
0
100
AcDbLine
10
712.49516854555679
20
2398.3753524571657
30
-2.8421709430404007e-13
11
712.49516854555679
21
2394.9008358567603
31
-1.6129933558851027e-29
0
ARC
5
704
100
AcDbEntity
8
0
100
AcDbCircle
10
714.75791024535351
20
2392.6380941569632
30
0
40
3.1999999999998128
100
AcDbArc
50
134.99999999999571
51
314.99999999990359
0
LINE
5
705
100
AcDbEntity
8
0
100
AcDbLine
10
717.0206519451466
20
2390.3753524571625
30
2.821595176794446e-30
11
721.96968514596597
21
2390.3753524571625
31
-7.8886090522101181e-30
0
ARC
5
706
100
AcDbEntity
8
0
100
AcDbCircle
10
724.23242684575996
20
2392.6380941569623
30
0
40
3.1999999999999131
100
AcDbArc
50
-134.99999999992659
51
44.999999999994245
0
LINE
5
707
100
AcDbEntity
8
0
100
AcDbLine
10
726.49516854555702
20
2394.9008358567589
30
-2.8215951765932104e-30
11
726.49516854555691
21
2398.3753524571657
31
-2.8421709430404007e-13
0
LINE
5
708
100
AcDbEntity
8
0
100
AcDbLine
10
726.49516854555691
20
2398.3753524571657
30
-2.8421709430404007e-13
11
742.49516854555679
21
2398.3753524571657
31
-2.8421709430404007e-13
0
LINE
5
709
100
AcDbEntity
8
0
100
AcDbLine
10
742.49516854555679
20
2398.3753524571657
30
-2.8421709430404007e-13
11
742.49516854555691
21
2390.3753524571621
31
1.6542695507843274e-29
0
ARC
5
710
100
AcDbEntity
8
0
100
AcDbCircle
10
745.69516854555786
20
2390.375352457163
30
0
40
3.2000000000009265
100
AcDbArc
50
180
51
360
0
LINE
5
711
100
AcDbEntity
8
0
100
AcDbLine
10
748.89516854555779
20
2390.3753524571621
30
-5.0487097933625822e-30
11
837.99516854555293
21
2390.3753524571612
31
3.0268046829416036e-42
0
LINE
5
712
100
AcDbEntity
8
0
100
AcDbLine
10
837.99516854555293
20
2390.3753524571612
30
3.0268046829416036e-42
11
837.99516854554849
21
2296.7753524571613
31
-1.7936620343357659e-42
0
ARC
5
713
100
AcDbEntity
8
0
100
AcDbCircle
10
837.99516854554918
20
2293.5753524571614
30
0
40
3.1999999999999318
100
AcDbArc
50
90.000000000012221
51
269.99999999998579
0
LINE
5
714
100
AcDbEntity
8
0
100
AcDbLine
10
837.99516854554838
20
2290.3753524571616
30
-2.7851994228316632e-30
11
849.99516854554815
21
2290.3753524571612
31
1.5777218104420236e-29
0
ARC
5
715
100
AcDbEntity
8
0
100
AcDbCircle
10
849.99516854554918
20
2293.575352457161
30
0
40
3.200000000000216
100
AcDbArc
50
-90.000000000018318
51
90.000000000012221
0
LINE
5
716
100
AcDbEntity
8
0
100
AcDbLine
10
849.99516854554849
20
2296.7753524571613
30
-2.2188396284825159e-31
11
849.99516854555293
21
2390.3753524571612
31
1.7936620343357659e-42
0
LINE
5
717
100
AcDbEntity
8
0
100
AcDbLine
10
849.99516854555293
20
2390.3753524571612
30
1.7936620343357659e-42
11
947.09516854555829
21
2390.3753524571607
31
2.7241242146474434e-41
0
ARC
5
718
100
AcDbEntity
8
0
100
AcDbCircle
10
950.29516854555834
20
2390.3753524571612
30
0
40
3.2000000000000739
100
AcDbArc
50
180
51
360
0
LINE
5
719
100
AcDbEntity
8
0
100
AcDbLine
10
953.49516854555827
20
2390.3753524571603
30
-5.0487097933928237e-30
11
953.49516854555748
21
2398.3753524571657
31
-2.8421709430404007e-13
0
LINE
5
720
100
AcDbEntity
8
0
100
AcDbLine
10
953.49516854555748
20
2398.3753524571657
30
-2.8421709430404007e-13
11
969.49516854555736
21
2398.3753524571657
31
-2.8421709430404007e-13
0
LINE
5
721
100
AcDbEntity
8
0
100
AcDbLine
10
969.49516854555736
20
2398.3753524571657
30
-2.8421709430404007e-13
11
969.49516854555759
21
2394.9008358567598
31
-1.9392753605973905e-29
0
ARC
5
722
100
AcDbEntity
8
0
100
AcDbCircle
10
971.7579102453542
20
2392.6380941569632
30
0
40
3.1999999999997124
100
AcDbArc
50
135
51
314.99999999984885
0
LINE
5
723
100
AcDbEntity
8
0
100
AcDbLine
10
974.02065194514523
20
2390.3753524571603
30
2.8215951767941563e-30
11
978.96968514596847
21
2390.3753524571603
31
-2.5035699508809378e-70
0
ARC
5
724
100
AcDbEntity
8
0
100
AcDbCircle
10
981.23242684576041
20
2392.6380941569619
30
0
40
3.1999999999998128
100
AcDbArc
50
-134.99999999987767
51
44.999999999994245
0
LINE
5
725
100
AcDbEntity
8
0
100
AcDbLine
10
983.49516854555748
20
2394.9008358567585
30
-5.3459500731501437e-30
11
983.49516854555748
21
2398.3753524571657
31
-2.8421709430404002e-13
0
LINE
5
726
100
AcDbEntity
8
0
100
AcDbLine
10
983.49516854555748
20
2398.3753524571657
30
-2.8421709430404002e-13
11
999.49516854555736
21
2398.3753524571657
31
-2.8421709430404007e-13
0
LINE
5
727
100
AcDbEntity
8
0
100
AcDbLine
10
999.49516854555736
20
2398.3753524571657
30
-2.8421709430404007e-13
11
999.49516854555759
21
2390.3753524571603
31
1.6542695507706507e-29
0
ARC
5
728
100
AcDbEntity
8
0
100
AcDbCircle
10
1002.6951685455582
20
2390.3753524571607
30
0
40
3.2000000000006423
100
AcDbArc
50
180
51
360
0
LINE
5
729
100
AcDbEntity
8
0
100
AcDbLine
10
1005.8951685455581
20
2390.3753524571598
30
-5.0487097933625822e-30
11
1079.9951685455494
21
2390.3753524571589
31
3.7865323450605051e-28
0
LINE
5
730
100
AcDbEntity
8
0
100
AcDbLine
10
1079.9951685455494
20
2390.3753524571589
30
3.7865323450605051e-28
11
1079.9951685455485
21
2296.7753524571594
31
-2.8421709430403912e-13
0
ARC
5
731
100
AcDbEntity
8
0
100
AcDbCircle
10
1079.9951685455489
20
2293.5753524571596
30
-2.8421709430404007e-13
40
3.1999999999999318
100
AcDbArc
50
90.000000000008143
51
269.99999999998369
0
LINE
5
732
100
AcDbEntity
8
0
100
AcDbLine
10
1079.995168545548
20
2290.3753524571594
30
-2.8421709430404007e-13
11
1091.995168545548
21
2290.3753524571589
31
-2.8421709430404007e-13
0
ARC
5
733
100
AcDbEntity
8
0
100
AcDbCircle
10
1091.9951685455487
20
2293.5753524571592
30
0
40
3.2000000000005002
100
AcDbArc
50
-90.000000000012221
51
90.000000000004079
0
LINE
5
734
100
AcDbEntity
8
0
100
AcDbLine
10
1091.9951685455485
20
2296.775352457159
30
1.8087270542081096e-30
11
1091.9951685455494
21
2390.3753524571589
31
-9.8954711951005286e-28
0
LINE
5
735
100
AcDbEntity
8
0
100
AcDbLine
10
1091.9951685455494
20
2390.3753524571589
30
-9.8954711951005286e-28
11
1115.9951685455603
21
2390.3753524571589
31
3.1554436208875785e-29
0
LINE
5
736
100
AcDbEntity
8
0
100
AcDbLine
10
1115.9951685455603
20
2390.3753524571589
30
3.1554436208875785e-29
11
1115.9951685455587
21
2190.3753524571589
31
-2.8421709430404007e-13
0
LINE
5
737
100
AcDbEntity
8
0
100
AcDbLine
10
1115.9951685455587
20
2190.3753524571589
30
-2.8421709430404007e-13
11
1005.895168545553
21
2190.3753524571598
31
-2.8421709430404018e-13
0
ARC
5
738
100
AcDbEntity
8
0
100
AcDbCircle
10
1002.6951685455529
20
2190.3753524571603
30
0
40
3.2000000000000739
100
AcDbArc
50
0
51
180
0
LINE
5
739
100
AcDbEntity
8
0
100
AcDbLine
10
999.49516854555304
20
2190.3753524571598
30
2.9595423566540004e-41
11
999.49516854555236
21
2182.3753524571598
31
0
0
LINE
5
740
100
AcDbEntity
8
0
100
AcDbLine
10
999.49516854555236
20
2182.3753524571598
30
0
11
983.49516854555247
21
2182.3753524571603
31
8.0939281650873409e-70
0
LINE
5
741
100
AcDbEntity
8
0
100
AcDbLine
10
983.49516854555247
20
2182.3753524571603
30
8.0939281650873409e-70
11
983.49516854555236
21
2185.849869057567
31
2.9724028011884598e-31
0
ARC
5
742
100
AcDbEntity
8
0
100
AcDbCircle
10
981.23242684575359
20
1938.1126107573639
30
-2.8421709430404007e-13
40
3.2000000000000139
100
AcDbArc
50
-44.999999999997094
51
135.00000000001583
0
LINE
5
743
100
AcDbEntity
8
0
100
AcDbLine
10
978.96968514595596
20
1940.3753524571603
30
-2.8421709430404007e-13
11
974.02065194514478
21
1940.3753524571603
31
-2.8421709430404007e-13
0
ARC
5
744
100
AcDbEntity
8
0
100
AcDbCircle
10
971.75791024534738
20
1938.1126107573639
30
0
40
3.1999999999999136
100
AcDbArc
50
44.999999999987047
51
225.00000000000574
0
LINE
5
745
100
AcDbEntity
8
0
100
AcDbLine
10
969.49516854555054
20
1935.8498690575666
30
3.6878168324271112e-30
11
969.49516854555077
21
1932.3753524571603
31
-5.6051938572992683e-44
0
LINE
5
746
100
AcDbEntity
8
0
100
AcDbLine
10
969.49516854555077
20
1932.3753524571603
30
-5.6051938572992683e-44
11
953.49516854555065
21
1932.3753524571603
31
1.5777218104420236e-29
0
LINE
5
747
100
AcDbEntity
8
0
100
AcDbLine
10
953.49516854555065
20
1932.3753524571603
30
1.5777218104420236e-29
11
953.49516854555077
21
1940.3753524571605
31
-2.8421709430404007e-13
0
ARC
5
748
100
AcDbEntity
8
0
100
AcDbCircle
10
950.29516854555129
20
1940.3753524571609
30
-2.8421709430404007e-13
40
3.1999999999995055
100
AcDbArc
50
0
51
180
0
LINE
5
749
100
AcDbEntity
8
0
100
AcDbLine
10
947.09516854555136
20
1940.3753524571607
30
-2.8421709430404007e-13
11
748.89516854555131
21
1940.3753524571621
31
-2.8421709430403982e-13
0
ARC
5
750
100
AcDbEntity
8
0
100
AcDbCircle
10
745.6951685455515
20
1940.3753524571628
30
0
40
3.1999999999997897
100
AcDbArc
50
0
51
180
0
LINE
5
751
100
AcDbEntity
8
0
100
AcDbLine
10
742.49516854555156
20
1940.3753524571621
30
3.2061708863751809e-41
11
742.49516854555065
21
1932.3753524571621
31
-1.1210387714598537e-43
0
LINE
5
752
100
AcDbEntity
8
0
100
AcDbLine
10
742.49516854555065
20
1932.3753524571621
30
-1.1210387714598537e-43
11
726.49516854555088
21
1932.3753524571623
31
9.5514329545731558e-70
0
LINE
5
753
100
AcDbEntity
8
0
100
AcDbLine
10
726.49516854555088
20
1932.3753524571623
30
9.5514329545731558e-70
11
726.49516854555088
21
1935.8498690575693
31
-2.8421709430404007e-13
0
ARC
5
754
100
AcDbEntity
8
0
100
AcDbCircle
10
724.23242684575382
20
1938.1126107573662
30
-2.8421709430404007e-13
40
3.2000000000000139
100
AcDbArc
50
-44.999999999997094
51
135.00000000001583
0
LINE
5
755
100
AcDbEntity
8
0
100
AcDbLine
10
721.96968514595619
20
1940.3753524571625
30
-2.8421709430404007e-13
11
717.02065194514478
21
1940.3753524571625
31
-2.8421709430404007e-13
0
ARC
5
756
100
AcDbEntity
8
0
100
AcDbCircle
10
714.75791024534738
20
1938.1126107573662
30
0
40
3.1999999999998128
100
AcDbArc
50
44.999999999987047
51
225.00000000000861
0
LINE
5
757
100
AcDbEntity
8
0
100
AcDbLine
10
712.49516854555077
20
1935.8498690575689
30
1.1634619357190506e-30
11
712.49516854555077
21
1932.3753524571625
31
-5.6051938572992683e-44
0
LINE
5
758
100
AcDbEntity
8
0
100
AcDbLine
10
712.49516854555077
20
1932.3753524571625
30
-5.6051938572992683e-44
11
696.49516854555088
21
1932.3753524571625
31
1.5777218104420236e-29
0
LINE
5
759
100
AcDbEntity
8
0
100
AcDbLine
10
696.49516854555088
20
1932.3753524571625
30
1.5777218104420236e-29
11
696.495168545551
21
1940.3753524571628
31
-2.8421709430404007e-13
0
ARC
5
760
100
AcDbEntity
8
0
100
AcDbCircle
10
693.29516854555163
20
1940.3753524571632
30
-2.8421709430404007e-13
40
3.1999999999993634
100
AcDbArc
50
0
51
180
0
LINE
5
761
100
AcDbEntity
8
0
100
AcDbLine
10
690.0951685455517
20
1940.375352457163
30
-2.8421709430404007e-13
11
491.89516854555177
21
1940.3753524571644
31
-2.8421709430403957e-13
0
ARC
5
762
100
AcDbEntity
8
0
100
AcDbCircle
10
488.69516854555178
20
1940.375352457165
30
0
40
3.2000000000000028
100
AcDbArc
50
0
51
180
0
LINE
5
763
100
AcDbEntity
8
0
100
AcDbLine
10
485.49516854555179
20
1940.3753524571644
30
3.206170886375182e-41
11
485.49516854555077
21
1932.3753524571644
31
7.2100475109057915e-30
0
LINE
5
764
100
AcDbEntity
8
0
100
AcDbLine
10
485.49516854555077
20
1932.3753524571644
30
7.2100475109057915e-30
11
469.49516854555088
21
1932.3753524571646
31
9.5514329545731558e-70
0
LINE
5
765
100
AcDbEntity
8
0
100
AcDbLine
10
469.49516854555088
20
1932.3753524571646
30
9.5514329545731558e-70
11
469.49516854555088
21
1935.8498690575716
31
-2.8421709430404007e-13
0
ARC
5
766
100
AcDbEntity
8
0
100
AcDbCircle
10
467.23242684575393
20
1938.1126107573684
30
-2.8421709430404007e-13
40
3.1999999999999136
100
AcDbArc
50
-44.999999999998572
51
135.0000000000216
0
LINE
5
767
100
AcDbEntity
8
0
100
AcDbLine
10
464.9696851459563
20
1940.3753524571644
30
-2.8421709430404007e-13
11
460.02065194514523
21
1940.3753524571648
31
-2.8421709430404007e-13
0
ARC
5
768
100
AcDbEntity
8
0
100
AcDbCircle
10
457.75791024534777
20
1938.1126107573684
30
0
40
3.1999999999999136
100
AcDbArc
50
44.999999999986322
51
225.00000000000358
0
LINE
5
769
100
AcDbEntity
8
0
100
AcDbLine
10
455.49516854555077
20
1935.8498690575711
30
3.6878168324314777e-30
11
455.49516854555088
21
1932.3753524571646
31
-5.6051938572992683e-44
0
LINE
5
770
100
AcDbEntity
8
0
100
AcDbLine
10
455.49516854555088
20
1932.3753524571646
30
-5.6051938572992683e-44
11
439.49516854555088
21
1932.3753524571648
31
1.5777218104420236e-29
0
LINE
5
771
100
AcDbEntity
8
0
100
AcDbLine
10
439.49516854555088
20
1932.3753524571648
30
1.5777218104420236e-29
11
439.49516854555094
21
1940.375352457165
31
-2.8421709430404007e-13
0
ARC
5
772
100
AcDbEntity
8
0
100
AcDbCircle
10
436.29516854555175
20
1940.3753524571655
30
-2.8421709430404007e-13
40
3.1999999999991502
100
AcDbArc
50
0
51
180
0
LINE
5
773
100
AcDbEntity
8
0
100
AcDbLine
10
433.09516854555176
20
1940.3753524571653
30
-2.8421709430404007e-13
11
234.8951685455516
21
1940.3753524571666
31
-2.8421709430404007e-13
0
ARC
5
774
100
AcDbEntity
8
0
100
AcDbCircle
10
231.69516854555155
20
1940.3753524571673
30
0
40
3.2000000000000384
100
AcDbArc
50
0
51
180
0
LINE
5
775
100
AcDbEntity
8
0
100
AcDbLine
10
228.49516854555156
20
1940.3753524571666
30
3.206170886375182e-41
11
228.49516854555077
21
1932.3753524571666
31
7.2100475109057915e-30
0
LINE
5
776
100
AcDbEntity
8
0
100
AcDbLine
10
228.49516854555077
20
1932.3753524571666
30
7.2100475109057915e-30
11
212.49516854555083
21
1932.3753524571669
31
9.5514329545731558e-70
0
LINE
5
777
100
AcDbEntity
8
0
100
AcDbLine
10
212.49516854555083
20
1932.3753524571669
30
9.5514329545731558e-70
11
212.49516854555094
21
1935.8498690575739
31
-2.8421709430404012e-13
0
ARC
5
778
100
AcDbEntity
8
0
100
AcDbCircle
10
210.23242684575393
20
1938.1126107573707
30
-2.8421709430404007e-13
40
3.1999999999999886
100
AcDbArc
50
-44.999999999997812
51
135.00000000001583
0
LINE
5
779
100
AcDbEntity
8
0
100
AcDbLine
10
207.9696851459563
20
1940.3753524571671
30
-2.8421709430404007e-13
11
203.02065194514512
21
1940.3753524571671
31
2.9543974254690254e-70
0
ARC
5
780
100
AcDbEntity
8
0
100
AcDbCircle
10
200.75791024534772
20
1938.1126107573707
30
0
40
3.1999999999998634
100
AcDbArc
50
44.999999999987047
51
225.00000000000503
0
LINE
5
781
100
AcDbEntity
8
0
100
AcDbLine
10
198.49516854555083
20
1935.8498690575734
30
3.68781683243026e-30
11
198.4951685455508
21
1932.3753524571669
31
-5.6051938572992683e-44
0
LINE
5
782
100
AcDbEntity
8
0
100
AcDbLine
10
198.4951685455508
20
1932.3753524571669
30
-5.6051938572992683e-44
11
182.49516854555083
21
1932.3753524571671
31
1.5777218104420236e-29
0
LINE
5
783
100
AcDbEntity
8
0
100
AcDbLine
10
182.49516854555083
20
1932.3753524571671
30
1.5777218104420236e-29
11
182.49516854555088
21
1940.3753524571673
31
-2.8421709430404007e-13
0
ARC
5
784
100
AcDbEntity
8
0
100
AcDbCircle
10
179.2951685455516
20
1940.3753524571678
30
-2.8421709430404007e-13
40
3.1999999999992923
100
AcDbArc
50
0
51
180
0
LINE
5
785
100
AcDbEntity
8
0
100
AcDbLine
10
176.09516854555159
20
1940.3753524571675
30
-2.8421709430404007e-13
11
65.995168545552843
21
1940.375352457168
31
1.2621774483532983e-28
0
LINE
5
786
100
AcDbEntity
8
0
100
AcDbLine
10
65.995168545552843
20
1940.375352457168
30
1.2621774483532983e-28
11
65.995168545554762
21
2140.375352457168
31
2.152394441202919e-41
0
LINE
5
787
100
AcDbEntity
8
0
100
AcDbLine
10
65.995168545554762
20
2140.375352457168
30
2.152394441202919e-41
11
89.995168545551607
21
2140.375352457168
31
4.7363888094178823e-42
0
LINE
5
788
100
AcDbEntity
8
0
100
AcDbLine
10
89.995168545551607
20
2140.375352457168
30
4.7363888094178823e-42
11
89.995168545550669
21
2046.7753524571685
31
-2.8421709430404007e-13
0
ARC
5
789
100
AcDbEntity
8
0
100
AcDbCircle
10
89.995168545551394
20
2043.5753524571687
30
-2.8421709430404007e-13
40
3.1999999999999318
100
AcDbArc
50
90.000000000012975
51
269.99999999998266
0
LINE
5
790
100
AcDbEntity
8
0
100
AcDbLine
10
89.995168545550428
20
2040.3753524571687
30
-2.8421709430404007e-13
11
101.99516854555029
21
2040.375352457168
31
-2.8421709430404007e-13
0
ARC
5
791
100
AcDbEntity
8
0
100
AcDbCircle
10
101.99516854555128
20
2043.5753524571687
30
0
40
3.2000000000005002
100
AcDbArc
50
-90.000000000017806
51
90.000000000007134
0
LINE
5
792
100
AcDbEntity
8
0
100
AcDbLine
10
101.99516854555088
20
2046.7753524571685
30
-2.2171834390948838e-30
11
101.99516854555165
21
2140.375352457168
31
0
0
LINE
5
793
100
AcDbEntity
8
0
100
AcDbLine
10
101.99516854555165
20
2140.375352457168
30
0
11
176.09516854555687
21
2140.375352457168
31
2.9693514459042879e-41
0
ARC
5
794
100
AcDbEntity
8
0
100
AcDbCircle
10
179.29516854555681
20
2140.375352457168
30
-2.8421709430404007e-13
40
3.1999999999999318
100
AcDbArc
50
180
51
360
0
LINE
5
795
100
AcDbEntity
8
0
100
AcDbLine
10
182.49516854555679
20
2140.3753524571671
30
-2.8421709430404007e-13
11
182.49516854555566
21
2148.3753524571657
31
-2.8421709430403866e-13
0
LINE
5
796
100
AcDbEntity
8
0
100
AcDbLine
10
182.49516854555566
20
2148.3753524571657
30
-2.8421709430403866e-13
11
198.4951685455556
21
2148.3753524571657
31
-2.8421709430404007e-13
0
LINE
5
797
100
AcDbEntity
8
0
100
AcDbLine
10
198.4951685455556
20
2148.3753524571657
30
-2.8421709430404007e-13
11
198.49516854555571
21
2144.9008358567603
31
2.8691369247586385e-29
0
ARC
5
798
100
AcDbEntity
8
0
100
AcDbCircle
10
200.75791024535263
20
2142.6380941569632
30
0
40
3.1999999999999384
100
AcDbArc
50
134.99999999999821
51
315.00000000002012
0
LINE
5
799
100
AcDbEntity
8
0
100
AcDbLine
10
203.02065194515038
20
2140.3753524571671
30
3.6878168323903587e-30
11
207.9696851459604
21
2140.3753524571671
31
-2.954397425468389e-70
0
ARC
5
800
100
AcDbEntity
8
0
100
AcDbCircle
10
210.23242684575905
20
2142.6380941569623
30
-2.8421709430404007e-13
40
3.1999999999999633
100
AcDbArc
50
-135.00000000004317
51
45.000000000003958
0
LINE
5
801
100
AcDbEntity
8
0
100
AcDbLine
10
212.4951685455558
20
2144.9008358567594
30
-2.8421709430404007e-13
11
212.49516854555569
21
2148.3753524571657
31
-2.8421709430404007e-13
0
LINE
5
802
100
AcDbEntity
8
0
100
AcDbLine
10
212.49516854555569
20
2148.3753524571657
30
-2.8421709430404007e-13
11
228.4951685455556
21
2148.3753524571657
31
-2.8421709430404007e-13
0
LINE
5
803
100
AcDbEntity
8
0
100
AcDbLine
10
228.4951685455556
20
2148.3753524571657
30
-2.8421709430404007e-13
11
228.49516854555566
21
2140.3753524571671
31
-2.7041869505243246e-29
0
ARC
5
804
100
AcDbEntity
8
0
100
AcDbCircle
10
231.69516854555673
20
2140.3753524571675
30
0
40
3.2000000000010687
100
AcDbArc
50
180
51
360
0
LINE
5
805
100
AcDbEntity
8
0
100
AcDbLine
10
234.89516854555674
20
2140.3753524571666
30
-5.0487097933583791e-30
11
331.99516854555122
21
2140.3753524571657
31
3.2790384065200726e-42
0
LINE
5
806
100
AcDbEntity
8
0
100
AcDbLine
10
331.99516854555122
20
2140.3753524571657
30
3.2790384065200726e-42
11
331.99516854555048
21
2046.775352457166
31
0
0
ARC
5
807
100
AcDbEntity
8
0
100
AcDbCircle
10
331.99516854555145
20
2043.5753524571664
30
0
40
3.1999999999996476
100
AcDbArc
50
90.000000000017295
51
269.99999999998266
0
LINE
5
808
100
AcDbEntity
8
0
100
AcDbLine
10
331.99516854555048
20
2040.3753524571664
30
1.7149378986211422e-30
11
343.99516854555031
21
2040.3753524571657
31
1.5777218104420236e-29
0
ARC
5
809
100
AcDbEntity
8
0
100
AcDbCircle
10
343.99516854555117
20
2043.5753524571664
30
-2.8421709430404007e-13
40
3.2000000000005002
100
AcDbArc
50
-90.000000000015277
51
90.000000000015277
0
LINE
5
810
100
AcDbEntity
8
0
100
AcDbLine
10
343.99516854555031
20
2046.7753524571663
30
-2.8421709430404007e-13
11
343.99516854555117
21
2140.3753524571657
31
-2.8421709430404007e-13
0
LINE
5
811
100
AcDbEntity
8
0
100
AcDbLine
10
343.99516854555117
20
2140.3753524571657
30
-2.8421709430404007e-13
11
433.09516854555727
21
2140.3753524571653
31
-2.8421709430404007e-13
0
ARC
5
812
100
AcDbEntity
8
0
100
AcDbCircle
10
436.29516854555726
20
2140.3753524571657
30
-2.8421709430404007e-13
40
3.2000000000000028
100
AcDbArc
50
180
51
360
0
LINE
5
813
100
AcDbEntity
8
0
100
AcDbLine
10
439.49516854555725
20
2140.3753524571648
30
-2.8421709430404007e-13
11
439.49516854555617
21
2148.3753524571657
31
-2.8421709430403866e-13
0
LINE
5
814
100
AcDbEntity
8
0
100
AcDbLine
10
439.49516854555617
20
2148.3753524571657
30
-2.8421709430403866e-13
11
455.49516854555611
21
2148.3753524571657
31
-2.8421709430404007e-13
0
LINE
5
815
100
AcDbEntity
8
0
100
AcDbLine
10
455.49516854555611
20
2148.3753524571657
30
-2.8421709430404007e-13
11
455.49516854555623
21
2144.9008358567603
31
-2.188696759407496e-30
0
ARC
5
816
100
AcDbEntity
8
0
100
AcDbCircle
10
457.75791024535306
20
2142.6380941569632
30
0
40
3.1999999999999136
100
AcDbArc
50
134.99999999999713
51
314.99999999996186
0
LINE
5
817
100
AcDbEntity
8
0
100
AcDbLine
10
460.02065194514847
20
2140.3753524571648
30
1.1634619356872747e-30
11
464.96968514596296
21
2140.3753524571648
31
-2.9543974254709975e-70
0
ARC
5
818
100
AcDbEntity
8
0
100
AcDbCircle
10
467.23242684575939
20
2142.6380941569623
30
-2.8421709430404007e-13
40
3.1999999999999633
100
AcDbArc
50
-134.99999999998633
51
44.99999999999784
0
LINE
5
819
100
AcDbEntity
8
0
100
AcDbLine
10
469.49516854555617
20
2144.9008358567589
30
-2.8421709430404007e-13
11
469.49516854555617
21
2148.3753524571657
31
-2.8421709430404012e-13
0
LINE
5
820
100
AcDbEntity
8
0
100
AcDbLine
10
469.49516854555617
20
2148.3753524571657
30
-2.8421709430404012e-13
11
485.49516854555611
21
2148.3753524571657
31
-2.8421709430404007e-13
0
LINE
5
821
100
AcDbEntity
8
0
100
AcDbLine
10
485.49516854555611
20
2148.3753524571657
30
-2.8421709430404007e-13
11
485.49516854555611
21
2140.3753524571648
31
-2.7041869505452208e-29
0
ARC
5
822
100
AcDbEntity
8
0
100
AcDbCircle
10
488.69516854555729
20
2140.3753524571653
30
0
40
3.2000000000011397
100
AcDbArc
50
180
51
360
0
LINE
5
823
100
AcDbEntity
8
0
100
AcDbLine
10
491.89516854555728
20
2140.3753524571644
30
5.6100705210527802e-41
11
584.99516854555168
21
2140.3753524571634
31
-5.5577400504419373e-69
0
LINE
5
824
100
AcDbEntity
8
0
100
AcDbLine
10
584.99516854555168
20
2140.3753524571634
30
-5.5577400504419373e-69
11
584.99516854555065
21
2046.7753524571638
31
-8.9683101716788293e-43
0
ARC
5
825
100
AcDbEntity
8
0
100
AcDbCircle
10
584.99516854555145
20
2043.5753524571637
30
0
40
3.1999999999999318
100
AcDbArc
50
90.000000000014239
51
269.9999999999817
0
LINE
5
826
100
AcDbEntity
8
0
100
AcDbLine
10
584.99516854555043
20
2040.3753524571639
30
-7.1381981501142334e-32
11
596.99516854555031
21
2040.3753524571632
31
1.5777218104420236e-29
0
ARC
5
827
100
AcDbEntity
8
0
100
AcDbCircle
10
596.99516854555122
20
2043.5753524571637
30
-2.8421709430404007e-13
40
3.2000000000005002
100
AcDbArc
50
-90.000000000016286
51
90.000000000008143
0
LINE
5
828
100
AcDbEntity
8
0
100
AcDbLine
10
596.99516854555077
20
2046.7753524571638
30
-2.8421709430404007e-13
11
596.99516854555145
21
2140.3753524571634
31
-2.8421709430404007e-13
0
LINE
5
829
100
AcDbEntity
8
0
100
AcDbLine
10
596.99516854555145
20
2140.3753524571634
30
-2.8421709430404007e-13
11
690.09516854555636
21
2140.3753524571634
31
-2.8421709430403967e-13
0
ARC
5
830
100
AcDbEntity
8
0
100
AcDbCircle
10
693.29516854555641
20
2140.3753524571634
30
-2.8421709430404007e-13
40
3.1999999999999318
100
AcDbArc
50
180
51
360
0
LINE
5
831
100
AcDbEntity
8
0
100
AcDbLine
10
696.49516854555623
20
2140.3753524571625
30
-2.8421709430404007e-13
11
696.49516854555543
21
2148.3753524571657
31
-2.8421709430404002e-13
0
LINE
5
832
100
AcDbEntity
8
0
100
AcDbLine
10
696.49516854555543
20
2148.3753524571657
30
-2.8421709430404002e-13
11
712.4951685455552
21
2148.3753524571657
31
-2.8421709430404007e-13
0
LINE
5
833
100
AcDbEntity
8
0
100
AcDbLine
10
712.4951685455552
20
2148.3753524571657
30
-2.8421709430404007e-13
11
712.4951685455552
21
2144.9008358567603
31
-2.188696759392474e-30
0
ARC
5
834
100
AcDbEntity
8
0
100
AcDbCircle
10
714.75791024535192
20
2142.6380941569632
30
0
40
3.1999999999998128
100
AcDbArc
50
134.99999999999571
51
314.99999999990359
0
LINE
5
835
100
AcDbEntity
8
0
100
AcDbLine
10
717.020651945145
20
2140.3753524571625
30
-3.88524785774527e-30
11
721.96968514596438
21
2140.3753524571625
31
-2.9543974254739239e-70
0
ARC
5
836
100
AcDbEntity
8
0
100
AcDbCircle
10
724.23242684575825
20
2142.6380941569623
30
-2.8421709430404007e-13
40
3.1999999999998128
100
AcDbArc
50
-134.99999999992517
51
44.999999999994245
0
LINE
5
837
100
AcDbEntity
8
0
100
AcDbLine
10
726.49516854555532
20
2144.9008358567589
30
-2.8421709430404007e-13
11
726.49516854555532
21
2148.3753524571657
31
-2.8421709430404012e-13
0
LINE
5
838
100
AcDbEntity
8
0
100
AcDbLine
10
726.49516854555532
20
2148.3753524571657
30
-2.8421709430404012e-13
11
742.4951685455552
21
2148.3753524571657
31
-2.8421709430404007e-13
0
LINE
5
839
100
AcDbEntity
8
0
100
AcDbLine
10
742.4951685455552
20
2148.3753524571657
30
-2.8421709430404007e-13
11
742.4951685455552
21
2140.3753524571625
31
-2.7041869505638749e-29
0
ARC
5
840
100
AcDbEntity
8
0
100
AcDbCircle
10
745.69516854555627
20
2140.375352457163
30
0
40
3.2000000000010687
100
AcDbArc
50
180
51
360
0
LINE
5
841
100
AcDbEntity
8
0
100
AcDbLine
10
748.8951685455562
20
2140.3753524571621
30
5.6100705210527027e-41
11
837.99516854555134
21
2140.3753524571612
31
3.2790384065200726e-42
0
LINE
5
842
100
AcDbEntity
8
0
100
AcDbLine
10
837.99516854555134
20
2140.3753524571612
30
3.2790384065200726e-42
11
837.9951685455469
21
2046.7753524571615
31
-2.6904930515036488e-42
0
ARC
5
843
100
AcDbEntity
8
0
100
AcDbCircle
10
837.99516854554759
20
2043.5753524571614
30
0
40
3.1999999999999318
100
AcDbArc
50
90.000000000012221
51
269.99999999998369
0
LINE
5
844
100
AcDbEntity
8
0
100
AcDbLine
10
837.99516854554668
20
2040.3753524571616
30
2.0098695795418131e-30
11
849.99516854554656
21
2040.3753524571609
31
1.5777218104420236e-29
0
ARC
5
845
100
AcDbEntity
8
0
100
AcDbCircle
10
849.99516854554736
20
2043.5753524571612
30
-2.8421709430404007e-13
40
3.200000000000216
100
AcDbArc
50
-90.000000000014239
51
90.000000000008143
0
LINE
5
846
100
AcDbEntity
8
0
100
AcDbLine
10
849.9951685455469
20
2046.7753524571613
30
-2.8421709430404007e-13
11
849.99516854555122
21
2140.3753524571612
31
-2.8421709430404007e-13
0
LINE
5
847
100
AcDbEntity
8
0
100
AcDbLine
10
849.99516854555122
20
2140.3753524571612
30
-2.8421709430404007e-13
11
947.0951685455567
21
2140.3753524571607
31
-2.8421709430404033e-13
0
ARC
5
848
100
AcDbEntity
8
0
100
AcDbCircle
10
950.29516854555663
20
2140.3753524571612
30
-2.8421709430404007e-13
40
3.1999999999999318
100
AcDbArc
50
180
51
360
0
LINE
5
849
100
AcDbEntity
8
0
100
AcDbLine
10
953.49516854555657
20
2140.3753524571603
30
-2.8421709430404007e-13
11
953.49516854555588
21
2148.3753524571657
31
-2.8421709430404002e-13
0
LINE
5
850
100
AcDbEntity
8
0
100
AcDbLine
10
953.49516854555588
20
2148.3753524571657
30
-2.8421709430404002e-13
11
969.49516854555566
21
2148.3753524571657
31
-2.8421709430404007e-13
0
LINE
5
851
100
AcDbEntity
8
0
100
AcDbLine
10
969.49516854555566
20
2148.3753524571657
30
-2.8421709430404007e-13
11
969.49516854555577
21
2144.9008358567598
31
2.8691369247581004e-29
0
ARC
5
852
100
AcDbEntity
8
0
100
AcDbCircle
10
971.7579102453526
20
2142.6380941569632
30
0
40
3.1999999999998128
100
AcDbArc
50
135.0000000000029
51
314.99999999984885
0
LINE
5
853
100
AcDbEntity
8
0
100
AcDbLine
10
974.02065194514364
20
2140.3753524571603
30
-3.8852478577417394e-30
11
978.96968514596676
21
2140.3753524571603
31
-2.954397425476194e-70
0
ARC
5
854
100
AcDbEntity
8
0
100
AcDbCircle
10
981.23242684575882
20
2142.6380941569619
30
-2.8421709430404007e-13
40
3.1999999999999136
100
AcDbArc
50
-134.99999999987912
51
44.999999999994245
0
LINE
5
855
100
AcDbEntity
8
0
100
AcDbLine
10
983.49516854555588
20
2144.9008358567585
30
-2.8421709430404007e-13
11
983.49516854555577
21
2148.3753524571657
31
-2.8421709430404007e-13
0
LINE
5
856
100
AcDbEntity
8
0
100
AcDbLine
10
983.49516854555577
20
2148.3753524571657
30
-2.8421709430404007e-13
11
999.49516854555566
21
2148.3753524571657
31
-2.8421709430404007e-13
0
LINE
5
857
100
AcDbEntity
8
0
100
AcDbLine
10
999.49516854555566
20
2148.3753524571657
30
-2.8421709430404007e-13
11
999.49516854555566
21
2140.3753524571603
31
-2.7041869505788295e-29
0
ARC
5
858
100
AcDbEntity
8
0
100
AcDbCircle
10
1002.6951685455565
20
2140.3753524571607
30
0
40
3.2000000000007844
100
AcDbArc
50
180
51
360
0
LINE
5
859
100
AcDbEntity
8
0
100
AcDbLine
10
1005.8951685455564
20
2140.3753524571598
30
5.6100705210527027e-41
11
1079.9951685455476
21
2140.3753524571589
31
7.5730646901213322e-28
0
LINE
5
860
100
AcDbEntity
8
0
100
AcDbLine
10
1079.9951685455476
20
2140.3753524571589
30
7.5730646901213322e-28
11
1079.9951685455469
21
2046.7753524571594
31
-2.8421709430403967e-13
0
ARC
5
861
100
AcDbEntity
8
0
100
AcDbCircle
10
1079.9951685455471
20
2043.5753524571596
30
-2.8421709430404007e-13
40
3.1999999999999318
100
AcDbArc
50
90.000000000004079
51
269.99999999998778
0
LINE
5
862
100
AcDbEntity
8
0
100
AcDbLine
10
1079.9951685455464
20
2040.3753524571596
30
-2.8421709430404007e-13
11
1091.9951685455464
21
2040.3753524571589
31
-2.8421709430404007e-13
0
ARC
5
863
100
AcDbEntity
8
0
100
AcDbCircle
10
1091.9951685455471
20
2043.5753524571592
30
0
40
3.200000000000216
100
AcDbArc
50
-90.000000000012221
51
90.000000000004079
0
LINE
5
864
100
AcDbEntity
8
0
100
AcDbLine
10
1091.9951685455469
20
2046.7753524571592
30
-1.6656866195166757e-30
11
1091.9951685455478
21
2140.3753524571589
31
-3.9884807368056284e-28
0
LINE
5
865
100
AcDbEntity
8
0
100
AcDbLine
10
1091.9951685455478
20
2140.3753524571589
30
-3.9884807368056284e-28
11
1115.9951685455587
21
2140.3753524571589
31
3.8255448076067511e-41
0
LINE
5
866
100
AcDbEntity
8
0
100
AcDbLine
10
1115.9951685455587
20
2140.3753524571589
30
3.8255448076067511e-41
11
1115.9951685455569
21
1940.3753524571589
31
-2.8421709430404007e-13
0
LINE
5
867
100
AcDbEntity
8
0
100
AcDbLine
10
1115.9951685455569
20
1940.3753524571589
30
-2.8421709430404007e-13
11
1005.8951685455511
21
1940.3753524571598
31
-2.8421709430403997e-13
0
ARC
5
868
100
AcDbEntity
8
0
100
AcDbCircle
10
1002.6951685455513
20
1940.3753524571605
30
0
40
3.1999999999999318
100
AcDbArc
50
0
51
180
0
LINE
5
869
100
AcDbEntity
8
0
100
AcDbLine
10
999.49516854555122
20
1940.3753524571598
30
3.2061708863751809e-41
11
999.49516854555054
21
1932.37535245716
31
-1.1210387714598537e-43
0
LINE
5
870
100
AcDbEntity
8
0
100
AcDbLine
10
999.49516854555054
20
1932.37535245716
30
-1.1210387714598537e-43
11
983.49516854555065
21
1932.37535245716
31
9.5514329545731558e-70
0
LINE
5
871
100
AcDbEntity
8
0
100
AcDbLine
10
983.49516854555065
20
1932.37535245716
30
9.5514329545731558e-70
11
983.49516854555065
21
1935.849869057567
31
-2.8421709430404007e-13
0
ENDSEC
0
SECTION
2
OBJECTS
0
DICTIONARY
5
C
100
AcDbDictionary
3
ACAD_GROUP
350
D
3
ACAD_MLINESTYLE
350
17
0
DICTIONARY
5
D
100
AcDbDictionary
0
DICTIONARY
5
1A
330
C
100
AcDbDictionary
0
DICTIONARY
5
17
100
AcDbDictionary
0
ENDSEC
0
EOF
