0
SECTION
2
HEADER
9
$INSUNITS
70
4
9
$ACADVER
1
AC1014
9
$HANDSEED
5
FFFF
0
ENDSEC
0
SECTION
2
TABLES
0
TABLE
2
VPORT
5
8
100
AcDbSymbolTable
0
ENDTAB
0
TABLE
2
LTYPE
5
5
100
AcDbSymbolTable
0
LTYPE
5
14
100
AcDbSymbolTableRecord
100
AcDbLinetypeTableRecord
2
BYBLOCK
70
0
0
LTYPE
5
15
100
AcDbSymbolTableRecord
100
AcDbLinetypeTableRecord
2
BYLAYER
70
0
0
ENDTAB
0
TABLE
2
LAYER
5
2
100
AcDbSymbolTable
70
2
0
LAYER
5
50
100
AcDbSymbolTableRecord
100
AcDbLayerTableRecord
2
0
70
0
6
CONTINUOUS
0
ENDTAB
0
TABLE
2
STYLE
5
3
100
AcDbSymbolTable
70
1
0
STYLE
5
11
100
AcDbSymbolTableRecord
100
AcDbTextStyleTableRecord
2
STANDARD
70
0
0
ENDTAB
0
TABLE
2
VIEW
5
6
100
AcDbSymbolTable
70
0
0
ENDTAB
0
TABLE
2
UCS
5
7
100
AcDbSymbolTable
70
0
0
ENDTAB
0
TABLE
2
APPID
5
9
100
AcDbSymbolTable
70
2
0
APPID
5
12
100
AcDbSymbolTableRecord
100
AcDbRegAppTableRecord
2
ACAD
70
0
0
ENDTAB
0
TABLE
2
DIMSTYLE
5
A
100
AcDbSymbolTable
70
1
0
ENDTAB
0
TABLE
2
BLOCK_RECORD
5
1
100
AcDbSymbolTable
70
1
0
BLOCK_RECORD
5
1F
100
AcDbSymbolTableRecord
100
AcDbBlockTableRecord
2
*MODEL_SPACE
0
BLOCK_RECORD
5
1B
100
AcDbSymbolTableRecord
100
AcDbBlockTableRecord
2
*PAPER_SPACE
0
ENDTAB
0
ENDSEC
0
SECTION
2
BLOCKS
0
BLOCK
5
20
100
AcDbEntity
100
AcDbBlockBegin
2
*MODEL_SPACE
0
ENDBLK
5
21
100
AcDbEntity
100
AcDbBlockEnd
0
BLOCK
5
1C
100
AcDbEntity
100
AcDbBlockBegin
2
*PAPER_SPACE
0
ENDBLK
5
1D
100
AcDbEntity
100
AcDbBlockEnd
0
ENDSEC
0
SECTION
2
ENTITIES
0
LWPOLYLINE
5
100
100
AcDbEntity
8
0
100
AcDbPolyline
90
56
70
1
43
0.0
10
607.92044183308792
20
96.125541591821985
10
607.92044183309338
20
112.12554159182197
10
595.92044183309338
20
112.12554159182609
10
595.92044183309781
20
125.12554159182659
10
346.65619859885533
20
190.37796128664493
42
0.064096241315056521
10
339.058802472499
20
191.35590808396398
10
22.920441833095371
20
191.35590808395267
10
22.920441833106935
20
133.12554159179666
10
10.920441833107015
20
133.1255415917974
10
10.920441833105698
20
109.1255415917974
10
22.920441833098351
20
109.12554159179669
10
22.920441833098462
20
104.62554159179666
10
22.920441833098568
20
101.62554159179669
10
22.920441833098785
20
97.125541591796662
10
10.920441833104984
20
97.125541591797344
10
10.920441833103638
20
73.125541591797372
10
22.920441833103666
20
73.125541591796676
10
22.920441833101393
20
25.125541591806012
10
72.920441833101393
20
25.125541591807806
10
72.920441833101819
20
13.125541591807806
10
96.920441833101805
20
13.12554159180867
10
96.920441833101378
20
25.12554159180867
10
101.42044183310141
20
25.125541591808826
10
104.42044183310138
20
25.125541591808936
10
108.92044183310141
20
25.1255415918091
10
108.92044183310183
20
13.1255415918091
10
132.92044183310182
20
13.125541591809961
10
132.92044183310139
20
25.125541591809963
10
272.92044183310139
20
25.125541591814994
10
272.92044183310179
20
13.12554159181499
10
296.92044183310179
20
13.125541591815855
10
296.92044183310139
20
25.125541591815853
10
301.42044183310139
20
25.125541591816017
10
304.42044183310139
20
25.125541591816123
10
308.92044183310139
20
25.125541591816287
10
308.92044183310185
20
13.125541591816285
10
332.92044183310179
20
13.125541591817147
10
332.92044183310139
20
25.12554159181715
10
472.92044183310139
20
25.125541591822177
10
472.92044183310179
20
13.125541591822179
10
496.92044183310179
20
13.12554159182304
10
496.92044183310139
20
25.12554159182304
10
501.42044183310139
20
25.125541591823204
10
504.42044183310139
20
25.12554159182331
10
508.92044183310139
20
25.12554159182347
10
508.92044183310185
20
13.125541591823474
10
532.92044183310179
20
13.125541591824334
10
532.92044183310145
20
25.125541591824337
10
595.92044183310134
20
25.125541591826597
10
595.92044183310009
20
61.204525405078336
10
556.92044183310009
20
61.204525405076936
10
556.92044183309974
20
70.20452540507695
10
595.92044183309986
20
70.204525405078343
10
595.92044183309906
20
88.625541591826106
10
595.92044183309906
20
91.625541591826078
10
595.92044183308781
20
96.125541591826092
0
LWPOLYLINE
5
101
100
AcDbEntity
8
0
100
AcDbPolyline
90
56
70
1
43
0.0
10
607.92044183308792
20
303.12554159182196
10
607.92044183309338
20
319.12554159182196
10
595.92044183309338
20
319.12554159182611
10
595.92044183309781
20
332.12554159182662
10
346.65619859885533
20
397.3779612866449
42
0.064096241315056521
10
339.058802472499
20
398.35590808396398
10
22.920441833095371
20
398.35590808395267
10
22.920441833106935
20
340.12554159179666
10
10.920441833107015
20
340.12554159179734
10
10.920441833105698
20
316.1255415917974
10
22.920441833098351
20
316.12554159179672
10
22.920441833098462
20
311.6255415917966
10
22.920441833098568
20
308.62554159179666
10
22.920441833098785
20
304.12554159179666
10
10.920441833104984
20
304.12554159179734
10
10.920441833103638
20
280.12554159179734
10
22.920441833103666
20
280.12554159179666
10
22.920441833101393
20
232.12554159180601
10
72.920441833101393
20
232.1255415918078
10
72.920441833101819
20
220.1255415918078
10
96.920441833101805
20
220.12554159180866
10
96.920441833101378
20
232.12554159180866
10
101.42044183310141
20
232.12554159180883
10
104.42044183310138
20
232.12554159180894
10
108.92044183310141
20
232.12554159180908
10
108.92044183310183
20
220.12554159180911
10
132.92044183310182
20
220.12554159180996
10
132.92044183310139
20
232.12554159180996
10
272.92044183310139
20
232.12554159181497
10
272.92044183310179
20
220.12554159181502
10
296.92044183310179
20
220.12554159181582
10
296.92044183310139
20
232.12554159181587
10
301.42044183310139
20
232.12554159181599
10
304.42044183310139
20
232.1255415918161
10
308.92044183310139
20
232.12554159181627
10
308.92044183310185
20
220.1255415918163
10
332.92044183310179
20
220.12554159181715
10
332.92044183310139
20
232.12554159181713
10
472.92044183310139
20
232.12554159182218
10
472.92044183310179
20
220.12554159182218
10
496.92044183310179
20
220.12554159182304
10
496.92044183310139
20
232.12554159182304
10
501.42044183310139
20
232.12554159182318
10
504.42044183310139
20
232.12554159182329
10
508.92044183310139
20
232.12554159182346
10
508.92044183310185
20
220.12554159182346
10
532.92044183310179
20
220.12554159182432
10
532.92044183310145
20
232.12554159182432
10
595.92044183310134
20
232.12554159182659
10
595.92044183310009
20
268.20452540507836
10
556.92044183310009
20
268.20452540507694
10
556.92044183309974
20
277.20452540507694
10
595.92044183309986
20
277.20452540507836
10
595.92044183309906
20
295.62554159182611
10
595.92044183309906
20
298.62554159182605
10
595.92044183308781
20
303.12554159182605
0
LWPOLYLINE
5
102
100
AcDbEntity
8
0
100
AcDbPolyline
90
56
70
1
43
0.0
10
607.92044183308792
20
510.12554159182201
10
607.92044183309338
20
526.12554159182196
10
595.92044183309338
20
526.12554159182605
10
595.92044183309781
20
539.12554159182662
10
346.65619859885533
20
604.3779612866449
42
0.064096241315056521
10
339.058802472499
20
605.35590808396398
10
22.920441833095371
20
605.35590808395273
10
22.920441833106935
20
547.12554159179672
10
10.920441833107015
20
547.1255415917974
10
10.920441833105698
20
523.1255415917974
10
22.920441833098351
20
523.12554159179672
10
22.920441833098462
20
518.62554159179672
10
22.920441833098568
20
515.62554159179672
10
22.920441833098785
20
511.12554159179666
10
10.920441833104984
20
511.1255415917974
10
10.920441833103638
20
487.1255415917974
10
22.920441833103666
20
487.12554159179666
10
22.920441833101393
20
439.12554159180604
10
72.920441833101393
20
439.12554159180786
10
72.920441833101819
20
427.12554159180786
10
96.920441833101805
20
427.12554159180866
10
96.920441833101378
20
439.12554159180871
10
101.42044183310141
20
439.12554159180877
10
104.42044183310138
20
439.12554159180894
10
108.92044183310141
20
439.12554159180911
10
108.92044183310183
20
427.12554159180911
10
132.92044183310182
20
427.12554159180996
10
132.92044183310139
20
439.12554159181002
10
272.92044183310139
20
439.12554159181502
10
272.92044183310179
20
427.12554159181502
10
296.92044183310179
20
427.12554159181587
10
296.92044183310139
20
439.12554159181587
10
301.42044183310139
20
439.12554159181605
10
304.42044183310139
20
439.12554159181616
10
308.92044183310139
20
439.12554159181633
10
308.92044183310185
20
427.12554159181627
10
332.92044183310179
20
427.12554159181713
10
332.92044183310139
20
439.12554159181718
10
472.92044183310139
20
439.12554159182218
10
472.92044183310179
20
427.12554159182218
10
496.92044183310179
20
427.12554159182304
10
496.92044183310139
20
439.12554159182309
10
501.42044183310139
20
439.12554159182326
10
504.42044183310139
20
439.12554159182332
10
508.92044183310139
20
439.12554159182349
10
508.92044183310185
20
427.12554159182355
10
532.92044183310179
20
427.1255415918244
10
532.92044183310145
20
439.12554159182434
10
595.92044183310134
20
439.12554159182662
10
595.92044183310009
20
475.20452540507836
10
556.92044183310009
20
475.20452540507699
10
556.92044183309974
20
484.20452540507699
10
595.92044183309986
20
484.20452540507836
10
595.92044183309906
20
502.62554159182616
10
595.92044183309906
20
505.62554159182611
10
595.92044183308781
20
510.12554159182616
0
LWPOLYLINE
5
103
100
AcDbEntity
8
0
100
AcDbPolyline
90
56
70
1
43
0.0
10
607.92044183308792
20
717.12554159182196
10
607.92044183309338
20
733.12554159182196
10
595.92044183309338
20
733.12554159182594
10
595.92044183309781
20
746.1255415918265
10
346.65619859885533
20
811.37796128664468
42
0.064096241315056854
10
339.058802472499
20
812.35590808396387
10
22.920441833095371
20
812.35590808395261
10
22.920441833106935
20
754.1255415917966
10
10.920441833107015
20
754.1255415917974
10
10.920441833105698
20
730.12554159179729
10
22.920441833098351
20
730.1255415917966
10
22.920441833098462
20
725.62554159179649
10
22.920441833098568
20
722.6255415917966
10
22.920441833098785
20
718.12554159179649
10
10.920441833104984
20
718.1255415917974
10
10.920441833103638
20
694.1255415917974
10
22.920441833103666
20
694.1255415917966
10
22.920441833101393
20
646.12554159180593
10
72.920441833101393
20
646.12554159180775
10
72.920441833101819
20
634.12554159180775
10
96.920441833101805
20
634.12554159180854
10
96.920441833101378
20
646.12554159180854
10
101.42044183310141
20
646.12554159180877
10
104.42044183310138
20
646.12554159180877
10
108.92044183310141
20
646.125541591809
10
108.92044183310183
20
634.125541591809
10
132.92044183310182
20
634.12554159180991
10
132.92044183310139
20
646.12554159180991
10
272.92044183310139
20
646.12554159181491
10
272.92044183310179
20
634.12554159181491
10
296.92044183310179
20
634.1255415918157
10
296.92044183310139
20
646.1255415918157
10
301.42044183310139
20
646.12554159181605
10
304.42044183310139
20
646.12554159181616
10
308.92044183310139
20
646.12554159181616
10
308.92044183310185
20
634.12554159181616
10
332.92044183310179
20
634.12554159181707
10
332.92044183310139
20
646.12554159181718
10
472.92044183310139
20
646.12554159182207
10
472.92044183310179
20
634.12554159182207
10
496.92044183310179
20
634.12554159182287
10
496.92044183310139
20
646.12554159182298
10
501.42044183310139
20
646.12554159182309
10
504.42044183310139
20
646.12554159182321
10
508.92044183310139
20
646.12554159182332
10
508.92044183310185
20
634.12554159182343
10
532.92044183310179
20
634.12554159182423
10
532.92044183310145
20
646.12554159182423
10
595.92044183310134
20
646.1255415918265
10
595.92044183310009
20
682.20452540507824
10
556.92044183310009
20
682.20452540507677
10
556.92044183309974
20
691.20452540507688
10
595.92044183309986
20
691.20452540507824
10
595.92044183309906
20
709.62554159182605
10
595.92044183309906
20
712.62554159182605
10
595.92044183308781
20
717.12554159182605
0
LWPOLYLINE
5
104
100
AcDbEntity
8
0
100
AcDbPolyline
90
56
70
1
43
0.0
10
607.92044183308792
20
924.12554159182173
10
607.92044183309338
20
940.12554159182184
10
595.92044183309338
20
940.12554159182605
10
595.92044183309781
20
953.1255415918265
10
346.65619859885533
20
1018.3779612866448
42
0.064096241315056854
10
339.058802472499
20
1019.355908083964
10
22.920441833095371
20
1019.3559080839526
10
22.920441833106935
20
961.12554159179672
10
10.920441833107015
20
961.1255415917974
10
10.920441833105698
20
937.12554159179729
10
22.920441833098351
20
937.1255415917966
10
22.920441833098462
20
932.62554159179672
10
22.920441833098568
20
929.62554159179672
10
22.920441833098785
20
925.1255415917966
10
10.920441833104984
20
925.12554159179729
10
10.920441833103638
20
901.1255415917974
10
22.920441833103666
20
901.12554159179672
10
22.920441833101393
20
853.12554159180593
10
72.920441833101393
20
853.12554159180775
10
72.920441833101819
20
841.12554159180775
10
96.920441833101805
20
841.12554159180854
10
96.920441833101378
20
853.12554159180866
10
101.42044183310141
20
853.12554159180877
10
104.42044183310138
20
853.12554159180877
10
108.92044183310141
20
853.125541591809
10
108.92044183310183
20
841.125541591809
10
132.92044183310182
20
841.12554159180991
10
132.92044183310139
20
853.12554159180991
10
272.92044183310139
20
853.12554159181491
10
272.92044183310179
20
841.12554159181502
10
296.92044183310179
20
841.12554159181582
10
296.92044183310139
20
853.1255415918157
10
301.42044183310139
20
853.12554159181605
10
304.42044183310139
20
853.12554159181616
10
308.92044183310139
20
853.12554159181616
10
308.92044183310185
20
841.12554159181627
10
332.92044183310179
20
841.12554159181718
10
332.92044183310139
20
853.12554159181718
10
472.92044183310139
20
853.12554159182218
10
472.92044183310179
20
841.12554159182207
10
496.92044183310179
20
841.12554159182298
10
496.92044183310139
20
853.12554159182298
10
501.42044183310139
20
853.12554159182309
10
504.42044183310139
20
853.12554159182332
10
508.92044183310139
20
853.12554159182343
10
508.92044183310185
20
841.12554159182332
10
532.92044183310179
20
841.12554159182423
10
532.92044183310145
20
853.12554159182423
10
595.92044183310134
20
853.1255415918265
10
595.92044183310009
20
889.20452540507824
10
556.92044183310009
20
889.20452540507677
10
556.92044183309974
20
898.20452540507688
10
595.92044183309986
20
898.20452540507836
10
595.92044183309906
20
916.62554159182605
10
595.92044183309906
20
919.62554159182605
10
595.92044183308781
20
924.12554159182605
0
LWPOLYLINE
5
105
100
AcDbEntity
8
0
100
AcDbPolyline
90
56
70
1
43
0.0
10
607.92044183308792
20
1131.125541591822
10
607.92044183309338
20
1147.125541591822
10
595.92044183309338
20
1147.125541591826
10
595.92044183309781
20
1160.1255415918265
10
346.65619859885533
20
1225.3779612866447
42
0.064096241315056854
10
339.058802472499
20
1226.3559080839639
10
22.920441833095371
20
1226.3559080839527
10
22.920441833106935
20
1168.1255415917967
10
10.920441833107015
20
1168.1255415917974
10
10.920441833105698
20
1144.1255415917974
10
22.920441833098351
20
1144.1255415917967
10
22.920441833098462
20
1139.6255415917967
10
22.920441833098568
20
1136.6255415917967
10
22.920441833098785
20
1132.1255415917967
10
10.920441833104984
20
1132.1255415917974
10
10.920441833103638
20
1108.1255415917974
10
22.920441833103666
20
1108.1255415917967
10
22.920441833101393
20
1060.125541591806
10
72.920441833101393
20
1060.1255415918079
10
72.920441833101819
20
1048.1255415918079
10
96.920441833101805
20
1048.1255415918085
10
96.920441833101378
20
1060.1255415918085
10
101.42044183310141
20
1060.1255415918088
10
104.42044183310138
20
1060.1255415918088
10
108.92044183310141
20
1060.125541591809
10
108.92044183310183
20
1048.125541591809
10
132.92044183310182
20
1048.1255415918099
10
132.92044183310139
20
1060.1255415918099
10
272.92044183310139
20
1060.1255415918149
10
272.92044183310179
20
1048.1255415918149
10
296.92044183310179
20
1048.1255415918158
10
296.92044183310139
20
1060.1255415918158
10
301.42044183310139
20
1060.125541591816
10
304.42044183310139
20
1060.1255415918163
10
308.92044183310139
20
1060.1255415918163
10
308.92044183310185
20
1048.1255415918163
10
332.92044183310179
20
1048.1255415918172
10
332.92044183310139
20
1060.1255415918172
10
472.92044183310139
20
1060.1255415918222
10
472.92044183310179
20
1048.1255415918222
10
496.92044183310179
20
1048.1255415918231
10
496.92044183310139
20
1060.1255415918231
10
501.42044183310139
20
1060.1255415918231
10
504.42044183310139
20
1060.1255415918233
10
508.92044183310139
20
1060.1255415918235
10
508.92044183310185
20
1048.1255415918233
10
532.92044183310179
20
1048.1255415918242
10
532.92044183310145
20
1060.1255415918242
10
595.92044183310134
20
1060.1255415918265
10
595.92044183310009
20
1096.2045254050784
10
556.92044183310009
20
1096.2045254050768
10
556.92044183309974
20
1105.204525405077
10
595.92044183309986
20
1105.2045254050784
10
595.92044183309906
20
1123.625541591826
10
595.92044183309906
20
1126.625541591826
10
595.92044183308781
20
1131.125541591826
0
LWPOLYLINE
5
106
100
AcDbEntity
8
0
100
AcDbPolyline
90
38
70
1
43
0.0
10
1201.6561661968283
20
120.37239957431886
10
1201.6561661968283
20
117.37239957431889
10
1201.6561661968285
20
112.87239957431893
10
1213.6561661968287
20
112.87239957431933
10
1213.6561661968294
20
88.872399574319331
10
1201.6561661968294
20
88.872399574318948
10
1201.6561661968299
20
68.872399574319871
10
951.81607082762412
20
14.369760968463872
42
-0.053747944691924954
10
945.42194636666022
20
13.680427497522725
10
628.65616619683169
20
13.680427497512735
10
628.65616619683078
20
38.680427497513165
10
616.65616619683067
20
38.680427497512767
10
616.65616619682987
20
62.680427497512753
10
628.6561661968301
20
62.680427497513129
10
628.65616619682999
20
67.180427497511033
10
628.65616619682987
20
70.180427497511005
10
628.65616619682964
20
74.680427497511886
10
616.65616619682953
20
74.680427497511502
10
616.65616619682874
20
98.680427497511488
10
628.65616619682885
20
98.680427497511857
10
628.6561661968276
20
139.06437165109207
10
616.6561661968276
20
139.0643716510917
10
616.65616619682692
20
163.06437165109168
10
628.65616619682692
20
163.06437165109205
10
628.65616619682669
20
167.56437165109003
10
628.65616619682658
20
170.56437165109
10
628.65616619682646
20
175.0643716510908
10
616.65616619682646
20
175.06437165109043
10
616.65616619682567
20
199.0643716510904
10
628.65616619682567
20
199.06437165109082
10
628.65616619682487
20
224.0643716510904
10
945.42194636665397
20
224.06437165110054
42
-0.053747944691925849
10
951.81607082761798
20
223.37503818015983
10
1201.6561661968267
20
168.87239957431987
10
1201.6561661968276
20
148.87239957431768
10
1213.6561661968276
20
148.87239957431805
10
1213.6561661968283
20
124.87239957431808
10
1201.6561661968281
20
124.87239957431768
0
CIRCLE
5
107
100
AcDbEntity
8
0
100
AcDbCircle
10
1108.6561661968283
20
118.8723995743169
30
0
40
2.5
0
LWPOLYLINE
5
108
100
AcDbEntity
8
0
100
AcDbPolyline
90
4
70
1
43
0.0
10
1102.6561661968285
20
112.87239957431672
10
1078.6561661968285
20
112.87239957431595
10
1078.6561661968281
20
124.87239957431596
10
1102.6561661968281
20
124.87239957431672
0
LWPOLYLINE
5
109
100
AcDbEntity
8
0
100
AcDbPolyline
90
4
70
1
43
0.0
10
1138.6561661968285
20
112.87239957431787
10
1114.6561661968283
20
112.87239957431709
10
1114.6561661968283
20
124.8723995743171
10
1138.6561661968281
20
124.87239957431785
0
LWPOLYLINE
5
110
100
AcDbEntity
8
0
100
AcDbPolyline
90
4
70
1
43
0.0
10
938.65616619682839
20
112.87239957431147
10
914.65616619682828
20
112.87239957431071
10
914.65616619682817
20
124.87239957431072
10
938.65616619682805
20
124.87239957431149
0
LWPOLYLINE
5
111
100
AcDbEntity
8
0
100
AcDbPolyline
90
4
70
1
43
0.0
10
902.65616619682851
20
112.87239957431034
10
878.65616619682851
20
112.87239957430955
10
878.65616619682805
20
124.87239957430957
10
902.65616619682805
20
124.87239957431032
0
LWPOLYLINE
5
112
100
AcDbEntity
8
0
100
AcDbPolyline
90
4
70
1
43
0.0
10
738.65616619682839
20
112.87239957430509
10
714.65616619682828
20
112.87239957430432
10
714.65616619682817
20
124.87239957430434
10
738.65616619682805
20
124.87239957430511
0
LWPOLYLINE
5
113
100
AcDbEntity
8
0
100
AcDbPolyline
90
4
70
1
43
0.0
10
702.65616619682851
20
112.87239957430394
10
678.65616619682851
20
112.87239957430317
10
678.65616619682805
20
124.87239957430319
10
702.65616619682805
20
124.87239957430396
0
CIRCLE
5
114
100
AcDbEntity
8
0
100
AcDbCircle
10
908.65616619682828
20
118.87239957431052
30
0
40
2.5
0
CIRCLE
5
115
100
AcDbEntity
8
0
100
AcDbCircle
10
708.65616619682828
20
118.87239957430413
30
0
40
2.5
0
LWPOLYLINE
5
116
100
AcDbEntity
8
0
100
AcDbPolyline
90
38
70
1
43
0.0
10
1201.6561661968215
20
360.37239957431927
10
1201.6561661968215
20
357.37239957431933
10
1201.6561661968217
20
352.87239957431939
10
1213.6561661968219
20
352.87239957431973
10
1213.6561661968226
20
328.87239957431973
10
1201.6561661968226
20
328.87239957431939
10
1201.6561661968231
20
308.8723995743203
10
951.8160708276173
20
254.36976096846428
42
-0.053747944691924954
10
945.4219463666534
20
253.68042749752317
10
628.65616619682487
20
253.68042749751316
10
628.65616619682396
20
278.68042749751362
10
616.65616619682385
20
278.68042749751316
10
616.65616619682305
20
302.68042749751316
10
628.65616619682328
20
302.68042749751356
10
628.65616619682316
20
307.18042749751146
10
628.65616619682305
20
310.1804274975114
10
628.65616619682282
20
314.68042749751231
10
616.65616619682271
20
314.68042749751191
10
616.65616619682191
20
338.68042749751191
10
628.65616619682203
20
338.68042749751231
10
628.65616619682078
20
379.06437165109253
10
616.65616619682078
20
379.06437165109207
10
616.6561661968201
20
403.06437165109207
10
628.6561661968201
20
403.06437165109242
10
628.65616619681987
20
407.56437165109043
10
628.65616619681975
20
410.56437165109037
10
628.65616619681964
20
415.06437165109116
10
616.65616619681964
20
415.06437165109082
10
616.65616619681884
20
439.06437165109082
10
628.65616619681884
20
439.06437165109128
10
628.65616619681805
20
464.06437165109082
10
945.42194636664715
20
464.064371651101
42
-0.053747944691925849
10
951.81607082761116
20
463.37503818016023
10
1201.6561661968199
20
408.8723995743203
10
1201.6561661968208
20
388.87239957431808
10
1213.6561661968208
20
388.87239957431848
10
1213.6561661968215
20
364.87239957431848
10
1201.6561661968212
20
364.87239957431814
0
CIRCLE
5
117
100
AcDbEntity
8
0
100
AcDbCircle
10
1108.6561661968215
20
358.87239957431734
30
0
40
2.5
0
LWPOLYLINE
5
118
100
AcDbEntity
8
0
100
AcDbPolyline
90
4
70
1
43
0.0
10
1102.6561661968217
20
352.87239957431717
10
1078.6561661968217
20
352.87239957431638
10
1078.6561661968212
20
364.87239957431632
10
1102.6561661968212
20
364.87239957431711
0
LWPOLYLINE
5
119
100
AcDbEntity
8
0
100
AcDbPolyline
90
4
70
1
43
0.0
10
1138.6561661968217
20
352.87239957431831
10
1114.6561661968215
20
352.87239957431751
10
1114.6561661968215
20
364.87239957431757
10
1138.6561661968212
20
364.87239957431825
0
LWPOLYLINE
5
120
100
AcDbEntity
8
0
100
AcDbPolyline
90
4
70
1
43
0.0
10
938.65616619682157
20
352.87239957431188
10
914.65616619682146
20
352.87239957431109
10
914.65616619682135
20
364.87239957431115
10
938.65616619682123
20
364.87239957431194
0
LWPOLYLINE
5
121
100
AcDbEntity
8
0
100
AcDbPolyline
90
4
70
1
43
0.0
10
902.65616619682169
20
352.87239957431075
10
878.65616619682169
20
352.87239957430995
10
878.65616619682123
20
364.87239957431001
10
902.65616619682123
20
364.87239957431075
0
LWPOLYLINE
5
122
100
AcDbEntity
8
0
100
AcDbPolyline
90
4
70
1
43
0.0
10
738.65616619682157
20
352.87239957430552
10
714.65616619682146
20
352.87239957430472
10
714.65616619682135
20
364.87239957430472
10
738.65616619682123
20
364.87239957430552
0
LWPOLYLINE
5
123
100
AcDbEntity
8
0
100
AcDbPolyline
90
4
70
1
43
0.0
10
702.65616619682169
20
352.87239957430438
10
678.65616619682169
20
352.87239957430359
10
678.65616619682123
20
364.87239957430359
10
702.65616619682123
20
364.87239957430438
0
CIRCLE
5
124
100
AcDbEntity
8
0
100
AcDbCircle
10
908.65616619682146
20
358.87239957431092
30
0
40
2.5
0
CIRCLE
5
125
100
AcDbEntity
8
0
100
AcDbCircle
10
708.65616619682146
20
358.87239957430461
30
0
40
2.5
0
LWPOLYLINE
5
126
100
AcDbEntity
8
0
100
AcDbPolyline
90
38
70
1
43
0.0
10
1201.656166196814
20
600.37239957431927
10
1201.656166196814
20
597.37239957431927
10
1201.6561661968142
20
592.87239957431939
10
1213.6561661968144
20
592.87239957431973
10
1213.6561661968151
20
568.87239957431973
10
1201.6561661968151
20
568.87239957431939
10
1201.6561661968153
20
548.8723995743203
10
951.81607082760991
20
494.36976096846428
42
-0.053747944691925294
10
945.42194636664601
20
493.68042749752311
10
628.65616619681737
20
493.68042749751311
10
628.65616619681634
20
518.68042749751362
10
616.65616619681634
20
518.68042749751316
10
616.65616619681555
20
542.68042749751316
10
628.65616619681578
20
542.68042749751351
10
628.65616619681555
20
547.18042749751146
10
628.65616619681543
20
550.18042749751146
10
628.65616619681532
20
554.68042749751226
10
616.65616619681521
20
554.68042749751191
10
616.65616619681441
20
578.68042749751191
10
628.65616619681441
20
578.68042749751237
10
628.65616619681327
20
619.06437165109242
10
616.65616619681327
20
619.06437165109207
10
616.65616619681248
20
643.06437165109196
10
628.65616619681259
20
643.06437165109242
10
628.65616619681236
20
647.56437165109048
10
628.65616619681225
20
650.56437165109048
10
628.65616619681214
20
655.06437165109116
10
616.65616619681214
20
655.06437165109094
10
616.65616619681134
20
679.06437165109082
10
628.65616619681134
20
679.06437165109128
10
628.65616619681055
20
704.06437165109082
10
945.42194636663965
20
704.06437165110083
42
-0.053747944691926182
10
951.81607082760365
20
703.37503818016
10
1201.6561661968124
20
648.8723995743203
10
1201.656166196813
20
628.87239957431814
10
1213.6561661968133
20
628.87239957431848
10
1213.656166196814
20
604.87239957431848
10
1201.6561661968137
20
604.87239957431814
0
CIRCLE
5
127
100
AcDbEntity
8
0
100
AcDbCircle
10
1108.656166196814
20
598.87239957431734
30
0
40
2.5
0
LWPOLYLINE
5
128
100
AcDbEntity
8
0
100
AcDbPolyline
90
4
70
1
43
0.0
10
1102.656166196814
20
592.87239957431711
10
1078.656166196814
20
592.87239957431643
10
1078.6561661968137
20
604.87239957431632
10
1102.6561661968137
20
604.87239957431711
0
LWPOLYLINE
5
129
100
AcDbEntity
8
0
100
AcDbPolyline
90
4
70
1
43
0.0
10
1138.6561661968142
20
592.87239957431825
10
1114.6561661968142
20
592.87239957431757
10
1114.6561661968137
20
604.87239957431757
10
1138.6561661968137
20
604.87239957431825
0
LWPOLYLINE
5
130
100
AcDbEntity
8
0
100
AcDbPolyline
90
4
70
1
43
0.0
10
938.65616619681418
20
592.87239957431188
10
914.65616619681418
20
592.87239957431109
10
914.65616619681373
20
604.8723995743112
10
938.65616619681373
20
604.87239957431188
0
LWPOLYLINE
5
131
100
AcDbEntity
8
0
100
AcDbPolyline
90
4
70
1
43
0.0
10
902.65616619681396
20
592.87239957431075
10
878.65616619681407
20
592.87239957430995
10
878.65616619681373
20
604.87239957431007
10
902.65616619681384
20
604.87239957431075
0
LWPOLYLINE
5
132
100
AcDbEntity
8
0
100
AcDbPolyline
90
4
70
1
43
0.0
10
738.65616619681418
20
592.87239957430552
10
714.65616619681418
20
592.87239957430472
10
714.65616619681373
20
604.87239957430472
10
738.65616619681373
20
604.87239957430552
0
LWPOLYLINE
5
133
100
AcDbEntity
8
0
100
AcDbPolyline
90
4
70
1
43
0.0
10
702.65616619681396
20
592.87239957430438
10
678.65616619681407
20
592.87239957430359
10
678.65616619681373
20
604.87239957430359
10
702.65616619681384
20
604.87239957430438
0
CIRCLE
5
134
100
AcDbEntity
8
0
100
AcDbCircle
10
908.65616619681396
20
598.87239957431098
30
0
40
2.5
0
CIRCLE
5
135
100
AcDbEntity
8
0
100
AcDbCircle
10
708.65616619681396
20
598.87239957430461
30
0
40
2.5
0
LWPOLYLINE
5
136
100
AcDbEntity
8
0
100
AcDbPolyline
90
38
70
1
43
0.0
10
1201.6561661968062
20
840.37239957431939
10
1201.6561661968065
20
837.37239957431939
10
1201.6561661968067
20
832.8723995743195
10
1213.6561661968067
20
832.87239957431996
10
1213.6561661968076
20
808.87239957431984
10
1201.6561661968076
20
808.87239957431939
10
1201.6561661968078
20
788.87239957432041
10
951.81607082760229
20
734.36976096846433
42
-0.053747944691925294
10
945.42194636663839
20
733.6804274975234
10
628.65616619680975
20
733.68042749751328
10
628.65616619680884
20
758.68042749751362
10
616.65616619680884
20
758.68042749751339
10
616.65616619680804
20
782.68042749751339
10
628.65616619680827
20
782.68042749751373
10
628.65616619680804
20
787.18042749751157
10
628.65616619680793
20
790.18042749751157
10
628.65616619680782
20
794.68042749751248
10
616.6561661968077
20
794.68042749751203
10
616.65616619680691
20
818.68042749751214
10
628.65616619680691
20
818.68042749751237
10
628.65616619680577
20
859.06437165109253
10
616.65616619680577
20
859.06437165109219
10
616.65616619680497
20
883.0643716510923
10
628.65616619680497
20
883.06437165109264
10
628.65616619680486
20
887.5643716510906
10
628.65616619680475
20
890.5643716510906
10
628.65616619680463
20
895.06437165109128
10
616.65616619680452
20
895.06437165109105
10
616.65616619680372
20
919.06437165109094
10
628.65616619680384
20
919.06437165109139
10
628.65616619680304
20
944.06437165109094
10
945.42194636663214
20
944.06437165110094
42
-0.053747944691926182
10
951.81607082759615
20
943.37503818016012
10
1201.6561661968049
20
888.87239957432041
10
1201.6561661968055
20
868.87239957431825
10
1213.6561661968058
20
868.87239957431859
10
1213.6561661968065
20
844.87239957431848
10
1201.6561661968062
20
844.87239957431825
0
CIRCLE
5
137
100
AcDbEntity
8
0
100
AcDbCircle
10
1108.6561661968065
20
838.87239957431746
30
0
40
2.5
0
LWPOLYLINE
5
138
100
AcDbEntity
8
0
100
AcDbPolyline
90
4
70
1
43
0.0
10
1102.6561661968067
20
832.87239957431723
10
1078.6561661968067
20
832.87239957431655
10
1078.6561661968062
20
844.87239957431655
10
1102.6561661968062
20
844.87239957431734
0
LWPOLYLINE
5
139
100
AcDbEntity
8
0
100
AcDbPolyline
90
4
70
1
43
0.0
10
1138.6561661968065
20
832.87239957431837
10
1114.6561661968065
20
832.87239957431768
10
1114.6561661968062
20
844.87239957431768
10
1138.6561661968062
20
844.87239957431848
0
LWPOLYLINE
5
140
100
AcDbEntity
8
0
100
AcDbPolyline
90
4
70
1
43
0.0
10
938.65616619680645
20
832.87239957431211
10
914.65616619680645
20
832.87239957431143
10
914.65616619680634
20
844.87239957431132
10
938.65616619680623
20
844.87239957431211
0
LWPOLYLINE
5
141
100
AcDbEntity
8
0
100
AcDbPolyline
90
4
70
1
43
0.0
10
902.65616619680657
20
832.87239957431098
10
878.65616619680668
20
832.87239957431029
10
878.65616619680623
20
844.87239957431018
10
902.65616619680611
20
844.87239957431098
0
LWPOLYLINE
5
142
100
AcDbEntity
8
0
100
AcDbPolyline
90
4
70
1
43
0.0
10
738.65616619680645
20
832.87239957430575
10
714.65616619680645
20
832.87239957430484
10
714.65616619680634
20
844.87239957430484
10
738.65616619680623
20
844.87239957430575
0
LWPOLYLINE
5
143
100
AcDbEntity
8
0
100
AcDbPolyline
90
4
70
1
43
0.0
10
702.65616619680657
20
832.87239957430438
10
678.65616619680668
20
832.8723995743037
10
678.65616619680623
20
844.8723995743037
10
702.65616619680611
20
844.87239957430461
0
CIRCLE
5
144
100
AcDbEntity
8
0
100
AcDbCircle
10
908.65616619680634
20
838.87239957431109
30
0
40
2.5
0
CIRCLE
5
145
100
AcDbEntity
8
0
100
AcDbCircle
10
708.65616619680634
20
838.87239957430461
30
0
40
2.5
0
LWPOLYLINE
5
146
100
AcDbEntity
8
0
100
AcDbPolyline
90
38
70
1
43
0.0
10
1201.6561661967987
20
1080.3723995743194
10
1201.6561661967989
20
1077.3723995743194
10
1201.6561661967992
20
1072.8723995743194
10
1213.6561661967992
20
1072.8723995743198
10
1213.6561661968001
20
1048.8723995743198
10
1201.6561661968001
20
1048.8723995743194
10
1201.6561661968003
20
1028.8723995743205
10
951.81607082759479
20
974.36976096846433
42
-0.053747944691925294
10
945.421946366631
20
973.6804274975234
10
628.65616619680225
20
973.68042749751328
10
628.65616619680134
20
998.68042749751362
10
616.65616619680134
20
998.68042749751339
10
616.65616619680054
20
1022.6804274975134
10
628.65616619680065
20
1022.6804274975137
10
628.65616619680054
20
1027.1804274975116
10
628.65616619680043
20
1030.1804274975116
10
628.65616619680031
20
1034.6804274975125
10
616.6561661968002
20
1034.680427497512
10
616.6561661967994
20
1058.680427497512
10
628.6561661967994
20
1058.6804274975125
10
628.65616619679815
20
1099.0643716510926
10
616.65616619679827
20
1099.0643716510922
10
616.65616619679747
20
1123.0643716510922
10
628.65616619679747
20
1123.0643716510926
10
628.65616619679724
20
1127.5643716510906
10
628.65616619679724
20
1130.5643716510906
10
628.65616619679702
20
1135.0643716510913
10
616.65616619679702
20
1135.0643716510911
10
616.65616619679622
20
1159.0643716510911
10
628.65616619679622
20
1159.0643716510913
10
628.65616619679554
20
1184.0643716510911
10
945.42194636662452
20
1184.0643716511008
42
-0.053747944691926182
10
951.81607082758865
20
1183.3750381801601
10
1201.6561661967971
20
1128.8723995743205
10
1201.656166196798
20
1108.8723995743183
10
1213.656166196798
20
1108.8723995743185
10
1213.6561661967989
20
1084.8723995743185
10
1201.6561661967987
20
1084.8723995743183
0
CIRCLE
5
147
100
AcDbEntity
8
0
100
AcDbCircle
10
1108.6561661967989
20
1078.8723995743176
30
0
40
2.5
0
LWPOLYLINE
5
148
100
AcDbEntity
8
0
100
AcDbPolyline
90
4
70
1
43
0.0
10
1102.6561661967989
20
1072.8723995743171
10
1078.6561661967989
20
1072.8723995743164
10
1078.6561661967987
20
1084.8723995743167
10
1102.6561661967987
20
1084.8723995743173
0
LWPOLYLINE
5
149
100
AcDbEntity
8
0
100
AcDbPolyline
90
4
70
1
43
0.0
10
1138.6561661967992
20
1072.8723995743185
10
1114.6561661967989
20
1072.8723995743176
10
1114.6561661967987
20
1084.8723995743176
10
1138.6561661967987
20
1084.8723995743185
0
LWPOLYLINE
5
150
100
AcDbEntity
8
0
100
AcDbPolyline
90
4
70
1
43
0.0
10
938.65616619679918
20
1072.8723995743121
10
914.65616619679906
20
1072.8723995743114
10
914.65616619679861
20
1084.8723995743112
10
938.65616619679872
20
1084.8723995743121
0
LWPOLYLINE
5
151
100
AcDbEntity
8
0
100
AcDbPolyline
90
4
70
1
43
0.0
10
902.65616619679895
20
1072.872399574311
10
878.65616619679895
20
1072.8723995743103
10
878.65616619679872
20
1084.8723995743101
10
902.65616619679872
20
1084.872399574311
0
LWPOLYLINE
5
152
100
AcDbEntity
8
0
100
AcDbPolyline
90
4
70
1
43
0.0
10
738.65616619679918
20
1072.8723995743057
10
714.65616619679906
20
1072.8723995743048
10
714.65616619679861
20
1084.8723995743048
10
738.65616619679872
20
1084.8723995743057
0
LWPOLYLINE
5
153
100
AcDbEntity
8
0
100
AcDbPolyline
90
4
70
1
43
0.0
10
702.65616619679895
20
1072.8723995743044
10
678.65616619679895
20
1072.8723995743037
10
678.65616619679872
20
1084.8723995743037
10
702.65616619679872
20
1084.8723995743046
0
CIRCLE
5
154
100
AcDbEntity
8
0
100
AcDbCircle
10
908.65616619679884
20
1078.872399574311
30
0
40
2.5
0
CIRCLE
5
155
100
AcDbEntity
8
0
100
AcDbCircle
10
708.65616619679884
20
1078.8723995743046
30
0
40
2.5
0
LWPOLYLINE
5
156
100
AcDbEntity
8
0
100
AcDbPolyline
90
38
70
1
43
0.0
10
1201.6561661967912
20
1320.3723995743198
10
1201.6561661967912
20
1317.3723995743198
10
1201.6561661967914
20
1312.8723995743201
10
1213.6561661967917
20
1312.8723995743203
10
1213.6561661967924
20
1288.8723995743203
10
1201.6561661967924
20
1288.8723995743201
10
1201.6561661967926
20
1268.8723995743208
10
951.81607082758717
20
1214.3697609684648
42
-0.053747944691925294
10
945.42194636662327
20
1213.6804274975239
10
628.65616619679463
20
1213.6804274975136
10
628.65616619679361
20
1238.6804274975141
10
616.65616619679361
20
1238.6804274975138
10
616.65616619679281
20
1262.6804274975138
10
628.65616619679304
20
1262.6804274975141
10
628.65616619679281
20
1267.180427497512
10
628.6561661967927
20
1270.180427497512
10
628.65616619679258
20
1274.6804274975127
10
616.65616619679247
20
1274.6804274975125
10
616.65616619679167
20
1298.6804274975125
10
628.65616619679167
20
1298.6804274975129
10
628.65616619679054
20
1339.0643716510931
10
616.65616619679054
20
1339.0643716510929
10
616.65616619678974
20
1363.0643716510929
10
628.65616619678985
20
1363.0643716510929
10
628.65616619678963
20
1367.5643716510911
10
628.65616619678951
20
1370.5643716510913
10
628.6561661967894
20
1375.0643716510917
10
616.6561661967894
20
1375.0643716510913
10
616.6561661967886
20
1399.0643716510913
10
628.6561661967886
20
1399.0643716510917
10
628.65616619678781
20
1424.0643716510913
10
945.42194636661691
20
1424.064371651102
42
-0.053747944691925738
10
951.81607082758092
20
1423.375038180161
10
1201.6561661967896
20
1368.8723995743208
10
1201.6561661967903
20
1348.8723995743185
10
1213.6561661967905
20
1348.8723995743192
10
1213.6561661967912
20
1324.8723995743192
10
1201.656166196791
20
1324.8723995743189
0
CIRCLE
5
157
100
AcDbEntity
8
0
100
AcDbCircle
10
1108.6561661967912
20
1318.872399574318
30
0
40
2.5
0
LWPOLYLINE
5
158
100
AcDbEntity
8
0
100
AcDbPolyline
90
4
70
1
43
0.0
10
1102.6561661967912
20
1312.8723995743176
10
1078.6561661967912
20
1312.8723995743169
10
1078.656166196791
20
1324.8723995743169
10
1102.656166196791
20
1324.8723995743176
0
LWPOLYLINE
5
159
100
AcDbEntity
8
0
100
AcDbPolyline
90
4
70
1
43
0.0
10
1138.6561661967914
20
1312.8723995743189
10
1114.6561661967914
20
1312.8723995743185
10
1114.656166196791
20
1324.872399574318
10
1138.656166196791
20
1324.8723995743189
0
LWPOLYLINE
5
160
100
AcDbEntity
8
0
100
AcDbPolyline
90
4
70
1
43
0.0
10
938.65616619679145
20
1312.8723995743123
10
914.65616619679145
20
1312.8723995743117
10
914.65616619679099
20
1324.8723995743117
10
938.65616619679099
20
1324.8723995743123
0
LWPOLYLINE
5
161
100
AcDbEntity
8
0
100
AcDbPolyline
90
4
70
1
43
0.0
10
902.65616619679122
20
1312.8723995743112
10
878.65616619679133
20
1312.8723995743103
10
878.65616619679099
20
1324.8723995743105
10
902.6561661967911
20
1324.8723995743112
0
LWPOLYLINE
5
162
100
AcDbEntity
8
0
100
AcDbPolyline
90
4
70
1
43
0.0
10
738.65616619679145
20
1312.8723995743062
10
714.65616619679145
20
1312.8723995743053
10
714.65616619679099
20
1324.8723995743053
10
738.65616619679099
20
1324.872399574306
0
LWPOLYLINE
5
163
100
AcDbEntity
8
0
100
AcDbPolyline
90
4
70
1
43
0.0
10
702.65616619679122
20
1312.8723995743051
10
678.65616619679133
20
1312.8723995743042
10
678.65616619679099
20
1324.8723995743039
10
702.6561661967911
20
1324.8723995743048
0
CIRCLE
5
164
100
AcDbEntity
8
0
100
AcDbCircle
10
908.65616619679122
20
1318.8723995743114
30
0
40
2.5
0
CIRCLE
5
165
100
AcDbEntity
8
0
100
AcDbCircle
10
708.65616619679122
20
1318.8723995743053
30
0
40
2.5
0
CIRCLE
5
166
100
AcDbEntity
8
0
100
AcDbCircle
10
1152.0018761153351
20
1786.8967684822462
30
0
40
1.5000000000000633
0
CIRCLE
5
167
100
AcDbEntity
8
0
100
AcDbCircle
10
1152.0018761153351
20
1695.3059767133484
30
0
40
1.5000000000000633
0
CIRCLE
5
168
100
AcDbEntity
8
0
100
AcDbCircle
10
1122.0018761153351
20
1804.6013725977969
30
0
40
1.5000000000000067
0
CIRCLE
5
169
100
AcDbEntity
8
0
100
AcDbCircle
10
1182.0018761153353
20
1677.6013725977978
30
0
40
1.5000000000000067
0
CIRCLE
5
170
100
AcDbEntity
8
0
100
AcDbCircle
10
1182.0018761153353
20
1804.6013725977969
30
0
40
1.5000000000000067
0
CIRCLE
5
171
100
AcDbEntity
8
0
100
AcDbCircle
10
1122.0018761153351
20
1677.6013725977978
30
0
40
1.5000000000000067
0
LWPOLYLINE
5
172
100
AcDbEntity
8
0
100
AcDbPolyline
90
8
70
1
43
0.0
10
1196.0018761153356
20
1674.6013725977978
42
-0.41421356237309503
10
1195.0018761153356
20
1673.6013725977978
10
1112.0018761153351
20
1673.6013725977978
42
-0.41421356237313667
10
1111.0018761153351
20
1674.6013725977978
10
1111.0018761153351
20
1807.6013725977966
42
-0.41421356237309503
10
1112.0018761153351
20
1808.6013725977966
10
1195.0018761153356
20
1808.6013725977966
42
-0.41421356237309503
10
1196.0018761153356
20
1807.6013725977966
0
CIRCLE
5
173
100
AcDbEntity
8
0
100
AcDbCircle
10
1036.7438517134538
20
1578.5967343889229
30
0
40
1.50000000000005
0
CIRCLE
5
174
100
AcDbEntity
8
0
100
AcDbCircle
10
1128.3346434823513
20
1578.5967343889188
30
0
40
1.50000000000005
0
CIRCLE
5
175
100
AcDbEntity
8
0
100
AcDbCircle
10
1146.0392475979004
20
1548.5967343889181
30
0
40
1.4999999999999933
0
CIRCLE
5
176
100
AcDbEntity
8
0
100
AcDbCircle
10
1019.0392475979017
20
1548.596734388924
30
0
40
1.4999999999999933
0
CIRCLE
5
177
100
AcDbEntity
8
0
100
AcDbCircle
10
1146.0392475979031
20
1608.5967343889179
30
0
40
1.4999999999999933
0
CIRCLE
5
178
100
AcDbEntity
8
0
100
AcDbCircle
10
1019.0392475979046
20
1608.5967343889238
30
0
40
1.4999999999999933
0
CIRCLE
5
179
100
AcDbEntity
8
0
100
AcDbCircle
10
1004.0392475978999
20
1501.5967343889251
30
0
40
1.4999999999999933
0
CIRCLE
5
180
100
AcDbEntity
8
0
100
AcDbCircle
10
1163.5392475978981
20
1501.5967343889179
30
0
40
1.4999999999999933
0
CIRCLE
5
181
100
AcDbEntity
8
0
100
AcDbCircle
10
1004.0392475979052
20
1613.5967343889247
30
0
40
1.4999999999999933
0
CIRCLE
5
182
100
AcDbEntity
8
0
100
AcDbCircle
10
1163.5392475979033
20
1613.5967343889172
30
0
40
1.4999999999999933
0
LWPOLYLINE
5
183
100
AcDbEntity
8
0
100
AcDbPolyline
90
16
70
1
43
0.0
10
1169.4534611602764
20
1618.1825208265436
42
-0.19891236737967105
10
1170.0392475979036
20
1616.7683072641705
10
1170.0392475978979
20
1498.4251615136636
42
-0.19891236737967105
10
1169.4534611602708
20
1497.0109479512905
10
1165.6250340355245
20
1493.1825208265445
42
-0.19891236737970255
10
1164.2108204731512
20
1492.5967343889174
10
1000.8676747226457
20
1492.5967343889256
42
-0.19891236737966561
10
999.4534611602727
20
1493.1825208265525
10
995.6250340355266
20
1497.0109479512985
42
-0.19891236737964496
10
995.0392475978997
20
1498.4251615136716
10
995.03924759790539
20
1616.7683072641787
42
-0.19891236737963411
10
995.62503403553239
20
1618.1825208265516
10
999.45346116027895
20
1622.0109479512976
42
-0.19891236737965037
10
1000.8676747226519
20
1622.5967343889242
10
1164.2108204731574
20
1622.596734388917
42
-0.1989123673796841
10
1165.6250340355305
20
1622.0109479512898
0
CIRCLE
5
184
100
AcDbEntity
8
0
100
AcDbCircle
10
1043.4625322100856
20
1786.0521956760572
30
0
40
1.5000000000000497
0
CIRCLE
5
185
100
AcDbEntity
8
0
100
AcDbCircle
10
1043.4625322100856
20
1694.4614039071594
30
0
40
1.5000000000000497
0
CIRCLE
5
186
100
AcDbEntity
8
0
100
AcDbCircle
10
1013.4625322100856
20
1803.756799791608
30
0
40
1.4999999999999929
0
CIRCLE
5
187
100
AcDbEntity
8
0
100
AcDbCircle
10
1073.4625322100856
20
1676.7567997916085
30
0
40
1.4999999999999929
0
CIRCLE
5
188
100
AcDbEntity
8
0
100
AcDbCircle
10
1073.4625322100853
20
1803.756799791608
30
0
40
1.4999999999999929
0
CIRCLE
5
189
100
AcDbEntity
8
0
100
AcDbCircle
10
1013.4625322100858
20
1676.7567997916085
30
0
40
1.4999999999999929
0
LWPOLYLINE
5
190
100
AcDbEntity
8
0
100
AcDbPolyline
90
8
70
1
43
0.0
10
1087.4625322100856
20
1673.7567997916085
42
-0.41421356237309503
10
1086.4625322100856
20
1672.7567997916085
10
1003.4625322100858
20
1672.7567997916085
42
-0.41421356237309503
10
1002.4625322100859
20
1673.7567997916085
10
1002.4625322100856
20
1806.7567997916076
42
-0.4142135623731783
10
1003.4625322100856
20
1807.7567997916076
10
1086.4625322100851
20
1807.7567997916076
42
-0.41421356237309503
10
1087.4625322100851
20
1806.7567997916078
0
CIRCLE
5
191
100
AcDbEntity
8
0
100
AcDbCircle
10
928.36731504146269
20
1786.0812047260565
30
0
40
1.5000000000000631
0
CIRCLE
5
192
100
AcDbEntity
8
0
100
AcDbCircle
10
928.36731504146269
20
1694.4904129571573
30
0
40
1.5000000000000631
0
CIRCLE
5
193
100
AcDbEntity
8
0
100
AcDbCircle
10
898.36731504146326
20
1803.7858088416074
30
0
40
1.5000000000000062
0
CIRCLE
5
194
100
AcDbEntity
8
0
100
AcDbCircle
10
958.36731504146223
20
1676.7858088416069
30
0
40
1.5000000000000062
0
CIRCLE
5
195
100
AcDbEntity
8
0
100
AcDbCircle
10
958.36731504146223
20
1803.7858088416074
30
0
40
1.5000000000000062
0
CIRCLE
5
196
100
AcDbEntity
8
0
100
AcDbCircle
10
898.36731504146326
20
1676.7858088416069
30
0
40
1.5000000000000062
0
LWPOLYLINE
5
197
100
AcDbEntity
8
0
100
AcDbPolyline
90
8
70
1
43
0.0
10
972.36731504146201
20
1673.7858088416067
42
-0.41421356237309503
10
971.36731504146212
20
1672.7858088416067
10
888.36731504146337
20
1672.7858088416067
42
-0.41421356237309503
10
887.36731504146348
20
1673.7858088416067
10
887.36731504146348
20
1806.7858088416074
42
-0.41421356237309503
10
888.36731504146337
20
1807.7858088416074
10
971.36731504146212
20
1807.7858088416074
42
-0.41421356237309503
10
972.36731504146201
20
1806.7858088416074
0
LWPOLYLINE
5
198
100
AcDbEntity
8
0
100
AcDbPolyline
90
4
70
1
43
0.0
10
747.85594851391875
20
1518.4165621917095
10
771.85594851391852
20
1518.4165621917109
10
771.85594851391909
20
1506.4165621917109
10
747.85594851391932
20
1506.4165621917095
0
CIRCLE
5
199
100
AcDbEntity
8
0
100
AcDbCircle
10
777.85594851391897
20
1512.4165621917111
30
0
40
2.4999999999999907
0
CIRCLE
5
200
100
AcDbEntity
8
0
100
AcDbCircle
10
878.2398926674972
20
1512.4165621917589
30
0
40
2.4999999999999907
0
LWPOLYLINE
5
201
100
AcDbEntity
8
0
100
AcDbPolyline
90
4
70
1
43
0.0
10
884.23989266749561
20
1518.4165621917575
10
908.23989266749538
20
1518.4165621917566
10
908.23989266749459
20
1506.4165621917568
10
884.23989266749481
20
1506.4165621917575
0
LWPOLYLINE
5
202
100
AcDbEntity
8
0
100
AcDbPolyline
90
4
70
1
43
0.0
10
848.23989266749709
20
1518.4165621917573
10
872.23989266749686
20
1518.4165621917587
10
872.23989266749732
20
1506.4165621917584
10
848.23989266749754
20
1506.4165621917573
0
LWPOLYLINE
5
203
100
AcDbEntity
8
0
100
AcDbPolyline
90
4
70
1
43
0.0
10
783.85594851391727
20
1518.4165621917098
10
807.85594851391704
20
1518.4165621917089
10
807.85594851391647
20
1506.4165621917091
10
783.8559485139167
20
1506.4165621917098
0
CIRCLE
5
204
100
AcDbEntity
8
0
100
AcDbCircle
10
828.04792059071087
20
1596.4165621916941
30
0
40
2.4999999999999907
0
LWPOLYLINE
5
205
100
AcDbEntity
8
0
100
AcDbPolyline
90
4
70
1
43
0.0
10
834.04792059071224
20
1626.4165621916939
10
834.0479205907111
20
1602.4165621916941
10
822.04792059071121
20
1602.4165621916948
10
822.04792059071235
20
1626.4165621916945
0
LWPOLYLINE
5
206
100
AcDbEntity
8
0
100
AcDbPolyline
90
4
70
1
43
0.0
10
834.04792059071065
20
1590.4165621916941
10
834.04792059070951
20
1566.4165621916941
10
822.04792059070951
20
1566.4165621916948
10
822.04792059071087
20
1590.4165621916945
0
LWPOLYLINE
5
207
100
AcDbEntity
8
0
100
AcDbPolyline
90
12
70
1
43
0.0
10
710.85594851392
20
1529.5895170723479
42
-0.1353168959091253
10
711.27974242537994
20
1531.1267750823674
10
809.17508209743971
20
1695.1841866938689
42
-0.26409416388442658
10
811.75128818597977
20
1696.6469286838494
10
844.34455299545118
20
1696.646928683848
42
-0.26409416388443596
10
846.92075908399124
20
1695.1841866938673
10
944.81609875603635
20
1531.1267750823599
42
-0.13531689590909826
10
945.23989266749606
20
1529.5895170723409
10
945.2398926674947
20
1497.4165621916984
42
-0.41421356237310897
10
942.23989266749436
20
1494.4165621916982
10
713.85594851391818
20
1494.4165621917073
42
-0.41421356237308116
10
710.85594851391829
20
1497.4165621917073
0
CIRCLE
5
208
100
AcDbEntity
8
0
100
AcDbCircle
10
899.56394899831935
20
1548.4165621917
30
0
40
2.4999999999999907
0
CIRCLE
5
209
100
AcDbEntity
8
0
100
AcDbCircle
10
792.04792059071167
20
1607.9359194031144
30
0
40
2.4999999999999907
0
CIRCLE
5
210
100
AcDbEntity
8
0
100
AcDbCircle
10
738.04792059070837
20
1528.4165621917064
30
0
40
2.9999999999999893
0
CIRCLE
5
211
100
AcDbEntity
8
0
100
AcDbCircle
10
864.04792059071133
20
1607.9359194031117
30
0
40
2.4999999999999907
0
CIRCLE
5
212
100
AcDbEntity
8
0
100
AcDbCircle
10
756.53189218309819
20
1548.4165621917055
30
0
40
2.4999999999999907
0
CIRCLE
5
213
100
AcDbEntity
8
0
100
AcDbCircle
10
918.04792059070735
20
1528.4165621916991
30
0
40
2.9999999999999893
0
LWPOLYLINE
5
214
100
AcDbEntity
8
0
100
AcDbPolyline
90
4
70
1
43
0.0
10
770.85654811396785
20
1772.3967920562168
10
746.85654811396785
20
1772.3967920562159
10
746.85654811396762
20
1784.3967920562159
10
770.85654811396751
20
1784.3967920562168
0
CIRCLE
5
215
100
AcDbEntity
8
0
100
AcDbCircle
10
740.85654811396762
20
1778.3967920562156
30
0
40
2.4999999999999951
0
CIRCLE
5
216
100
AcDbEntity
8
0
100
AcDbCircle
10
640.47260396038905
20
1778.3967920561702
30
0
40
2.4999999999999951
0
LWPOLYLINE
5
217
100
AcDbEntity
8
0
100
AcDbPolyline
90
4
70
1
43
0.0
10
634.47260396039064
20
1772.3967920561718
10
610.47260396039076
20
1772.3967920561731
10
610.47260396039155
20
1784.3967920561729
10
634.47260396039144
20
1784.3967920561715
0
LWPOLYLINE
5
218
100
AcDbEntity
8
0
100
AcDbPolyline
90
4
70
1
43
0.0
10
670.47260396038939
20
1772.3967920561711
10
646.47260396038951
20
1772.3967920561702
10
646.47260396038905
20
1784.3967920561704
10
670.47260396038894
20
1784.3967920561713
0
LWPOLYLINE
5
219
100
AcDbEntity
8
0
100
AcDbPolyline
90
4
70
1
43
0.0
10
734.8565481139691
20
1772.3967920562172
10
710.85654811396921
20
1772.3967920562186
10
710.85654811397012
20
1784.3967920562186
10
734.85654811397001
20
1784.396792056217
0
CIRCLE
5
220
100
AcDbEntity
8
0
100
AcDbCircle
10
690.66457603717379
20
1694.3967920562336
30
0
40
2.4999999999999951
0
LWPOLYLINE
5
221
100
AcDbEntity
8
0
100
AcDbPolyline
90
4
70
1
43
0.0
10
684.66457603717186
20
1664.3967920562338
10
684.66457603717345
20
1688.3967920562338
10
696.66457603717333
20
1688.3967920562332
10
696.66457603717174
20
1664.3967920562336
0
LWPOLYLINE
5
222
100
AcDbEntity
8
0
100
AcDbPolyline
90
4
70
1
43
0.0
10
684.66457603717413
20
1700.3967920562336
10
684.66457603717572
20
1724.3967920562338
10
696.66457603717572
20
1724.3967920562332
10
696.66457603717413
20
1700.3967920562332
0
LWPOLYLINE
5
223
100
AcDbEntity
8
0
100
AcDbPolyline
90
12
70
1
43
0.0
10
807.85654811396648
20
1761.223837175577
42
-0.13531689590912188
10
807.43275420250654
20
1759.6865791655578
10
709.53741453044313
20
1595.6291675540583
42
-0.26409416388445484
10
706.96120844190295
20
1594.1664255640776
10
674.36794363243155
20
1594.1664255640796
42
-0.26409416388443596
10
671.79173754389149
20
1595.6291675540604
10
573.89639787184956
20
1759.68657916557
42
-0.13531689590913704
10
573.47260396038973
20
1761.2238371755896
10
573.47260396039178
20
1793.3967920562322
42
-0.41421356237309503
10
576.47260396039212
20
1796.396792056232
10
804.85654811396898
20
1796.3967920562186
42
-0.41421356237309503
10
807.85654811396864
20
1793.3967920562181
0
CIRCLE
5
224
100
AcDbEntity
8
0
100
AcDbCircle
10
619.14854762956622
20
1742.3967920562293
30
0
40
2.4999999999999951
0
CIRCLE
5
225
100
AcDbEntity
8
0
100
AcDbCircle
10
726.66457603717288
20
1682.8774348448128
30
0
40
2.4999999999999951
0
CIRCLE
5
226
100
AcDbEntity
8
0
100
AcDbCircle
10
780.66457603717799
20
1762.39679205622
30
0
40
2.9999999999999942
0
CIRCLE
5
227
100
AcDbEntity
8
0
100
AcDbCircle
10
654.66457603717322
20
1682.8774348448169
30
0
40
2.4999999999999951
0
CIRCLE
5
228
100
AcDbEntity
8
0
100
AcDbCircle
10
762.1806044447876
20
1742.3967920562211
30
0
40
2.4999999999999951
0
CIRCLE
5
229
100
AcDbEntity
8
0
100
AcDbCircle
10
600.66457603717856
20
1762.3967920562304
30
0
40
2.9999999999999942
0
LWPOLYLINE
5
230
100
AcDbEntity
8
0
100
AcDbPolyline
90
4
70
1
43
0.0
10
472.85594851392023
20
1518.4165621917155
10
496.85594851392005
20
1518.4165621917168
10
496.85594851392062
20
1506.4165621917168
10
472.85594851392079
20
1506.4165621917155
0
CIRCLE
5
231
100
AcDbEntity
8
0
100
AcDbCircle
10
502.8559485139204
20
1512.4165621917173
30
0
40
2.4999999999999947
0
CIRCLE
5
232
100
AcDbEntity
8
0
100
AcDbCircle
10
603.23989266749879
20
1512.416562191765
30
0
40
2.4999999999999947
0
LWPOLYLINE
5
233
100
AcDbEntity
8
0
100
AcDbPolyline
90
4
70
1
43
0.0
10
609.23989266749709
20
1518.4165621917634
10
633.23989266749697
20
1518.4165621917625
10
633.23989266749641
20
1506.4165621917628
10
609.23989266749663
20
1506.4165621917637
0
LWPOLYLINE
5
234
100
AcDbEntity
8
0
100
AcDbPolyline
90
4
70
1
43
0.0
10
573.23989266749857
20
1518.4165621917628
10
597.23989266749845
20
1518.4165621917643
10
597.23989266749891
20
1506.4165621917643
10
573.23989266749913
20
1506.416562191763
0
LWPOLYLINE
5
235
100
AcDbEntity
8
0
100
AcDbPolyline
90
4
70
1
43
0.0
10
508.8559485139188
20
1518.4165621917157
10
532.85594851391863
20
1518.4165621917148
10
532.85594851391795
20
1506.416562191715
10
508.85594851391818
20
1506.4165621917159
0
CIRCLE
5
236
100
AcDbEntity
8
0
100
AcDbCircle
10
553.04792059071258
20
1596.4165621917005
30
0
40
2.4999999999999947
0
LWPOLYLINE
5
237
100
AcDbEntity
8
0
100
AcDbPolyline
90
4
70
1
43
0.0
10
559.04792059071383
20
1626.4165621917002
10
559.04792059071281
20
1602.4165621917
10
547.04792059071292
20
1602.4165621917005
10
547.04792059071383
20
1626.4165621917007
0
LWPOLYLINE
5
238
100
AcDbEntity
8
0
100
AcDbPolyline
90
4
70
1
43
0.0
10
559.04792059071224
20
1590.4165621917002
10
559.0479205907111
20
1566.4165621917002
10
547.04792059071121
20
1566.4165621917005
10
547.04792059071224
20
1590.4165621917009
0
LWPOLYLINE
5
239
100
AcDbEntity
8
0
100
AcDbPolyline
90
12
70
1
43
0.0
10
435.85594851392125
20
1529.5895170723541
42
-0.13531689590911908
10
436.27974242538107
20
1531.1267750823733
10
534.17508209744119
20
1695.1841866938753
42
-0.26409416388443635
10
536.75128818598137
20
1696.6469286838558
10
569.34455299545277
20
1696.646928683854
42
-0.26409416388444229
10
571.92075908399283
20
1695.1841866938735
10
669.81609875603806
20
1531.1267750823661
42
-0.13531689590909826
10
670.23989266749777
20
1529.589517072347
10
670.23989266749641
20
1497.4165621917041
42
-0.41421356237308116
10
667.23989266749618
20
1494.4165621917043
10
438.85594851391954
20
1494.4165621917132
42
-0.41421356237308116
10
435.85594851391977
20
1497.4165621917132
0
CIRCLE
5
240
100
AcDbEntity
8
0
100
AcDbCircle
10
624.56394899832094
20
1548.4165621917059
30
0
40
2.4999999999999947
0
CIRCLE
5
241
100
AcDbEntity
8
0
100
AcDbCircle
10
517.04792059071315
20
1607.9359194031204
30
0
40
2.4999999999999947
0
CIRCLE
5
242
100
AcDbEntity
8
0
100
AcDbCircle
10
463.04792059070985
20
1528.416562191712
30
0
40
2.9999999999999938
0
CIRCLE
5
243
100
AcDbEntity
8
0
100
AcDbCircle
10
589.04792059071292
20
1607.9359194031179
30
0
40
2.4999999999999947
0
CIRCLE
5
244
100
AcDbEntity
8
0
100
AcDbCircle
10
481.53189218309967
20
1548.4165621917114
30
0
40
2.4999999999999947
0
CIRCLE
5
245
100
AcDbEntity
8
0
100
AcDbCircle
10
643.04792059070894
20
1528.4165621917052
30
0
40
2.9999999999999938
0
LWPOLYLINE
5
246
100
AcDbEntity
8
0
100
AcDbPolyline
90
4
70
1
43
0.0
10
495.85654811396972
20
1772.3967920562334
10
471.85654811396978
20
1772.3967920562325
10
471.85654811396944
20
1784.3967920562322
10
495.85654811396932
20
1784.3967920562332
0
CIRCLE
5
247
100
AcDbEntity
8
0
100
AcDbCircle
10
465.85654811396955
20
1778.3967920562322
30
0
40
2.4999999999999951
0
CIRCLE
5
248
100
AcDbEntity
8
0
100
AcDbCircle
10
365.47260396039098
20
1778.3967920561868
30
0
40
2.4999999999999951
0
LWPOLYLINE
5
249
100
AcDbEntity
8
0
100
AcDbPolyline
90
4
70
1
43
0.0
10
359.47260396039263
20
1772.3967920561881
10
335.47260396039269
20
1772.3967920561895
10
335.47260396039349
20
1784.3967920561895
10
359.47260396039337
20
1784.3967920561881
0
LWPOLYLINE
5
250
100
AcDbEntity
8
0
100
AcDbPolyline
90
4
70
1
43
0.0
10
395.47260396039121
20
1772.3967920561877
10
371.47260396039133
20
1772.3967920561868
10
371.47260396039093
20
1784.3967920561868
10
395.47260396039087
20
1784.3967920561877
0
LWPOLYLINE
5
251
100
AcDbEntity
8
0
100
AcDbPolyline
90
4
70
1
43
0.0
10
459.85654811397114
20
1772.3967920562336
10
435.8565481139712
20
1772.396792056235
10
435.856548113972
20
1784.3967920562352
10
459.85654811397188
20
1784.3967920562336
0
CIRCLE
5
252
100
AcDbEntity
8
0
100
AcDbCircle
10
415.66457603717566
20
1694.39679205625
30
0
40
2.4999999999999951
0
LWPOLYLINE
5
253
100
AcDbEntity
8
0
100
AcDbPolyline
90
4
70
1
43
0.0
10
409.66457603717373
20
1664.3967920562502
10
409.66457603717527
20
1688.3967920562504
10
421.66457603717527
20
1688.3967920562498
10
421.66457603717367
20
1664.39679205625
0
LWPOLYLINE
5
254
100
AcDbEntity
8
0
100
AcDbPolyline
90
4
70
1
43
0.0
10
409.66457603717618
20
1700.3967920562502
10
409.66457603717771
20
1724.3967920562502
10
421.6645760371776
20
1724.3967920562498
10
421.66457603717606
20
1700.3967920562495
0
LWPOLYLINE
5
255
100
AcDbEntity
8
0
100
AcDbPolyline
90
12
70
1
43
0.0
10
532.85654811396842
20
1761.2238371755936
42
-0.13531689590912493
10
532.43275420250836
20
1759.6865791655741
10
434.53741453044518
20
1595.6291675540747
42
-0.26409416388446744
10
431.96120844190466
20
1594.1664255640942
10
399.36794363243331
20
1594.1664255640962
42
-0.26409416388442969
10
396.79173754389342
20
1595.629167554077
10
298.89639787185149
20
1759.6865791655864
42
-0.13531689590913704
10
298.47260396039167
20
1761.2238371756061
10
298.47260396039366
20
1793.3967920562486
42
-0.41421356237309159
10
301.47260396039405
20
1796.3967920562484
10
529.8565481139708
20
1796.396792056235
42
-0.41421356237310197
10
532.85654811397058
20
1793.3967920562347
0
CIRCLE
5
256
100
AcDbEntity
8
0
100
AcDbCircle
10
344.14854762956816
20
1742.3967920562459
30
0
40
2.4999999999999951
0
CIRCLE
5
257
100
AcDbEntity
8
0
100
AcDbCircle
10
451.66457603717481
20
1682.8774348448292
30
0
40
2.4999999999999951
0
CIRCLE
5
258
100
AcDbEntity
8
0
100
AcDbCircle
10
505.66457603717993
20
1762.3967920562363
30
0
40
2.9999999999999942
0
CIRCLE
5
259
100
AcDbEntity
8
0
100
AcDbCircle
10
379.66457603717504
20
1682.8774348448335
30
0
40
2.4999999999999951
0
CIRCLE
5
260
100
AcDbEntity
8
0
100
AcDbCircle
10
487.18060444478959
20
1742.3967920562377
30
0
40
2.4999999999999951
0
CIRCLE
5
261
100
AcDbEntity
8
0
100
AcDbCircle
10
325.6645760371805
20
1762.396792056247
30
0
40
2.9999999999999942
0
CIRCLE
5
262
100
AcDbEntity
8
0
100
AcDbCircle
10
517.96629519812063
20
1428.6897287953309
30
0
40
2.0999999999999606
0
CIRCLE
5
263
100
AcDbEntity
8
0
100
AcDbCircle
10
521.13296186477896
20
1451.6897287953325
30
0
40
2.0999999999999606
0
CIRCLE
5
264
100
AcDbEntity
8
0
100
AcDbCircle
10
521.1329618647959
20
1405.689728795332
30
0
40
2.0999999999999606
0
CIRCLE
5
265
100
AcDbEntity
8
0
100
AcDbCircle
10
574.79962853144582
20
1451.6897287953523
30
0
40
2.0999999999999606
0
CIRCLE
5
266
100
AcDbEntity
8
0
100
AcDbCircle
10
574.79962853146276
20
1405.6897287953518
30
0
40
2.0999999999999606
0
CIRCLE
5
267
100
AcDbEntity
8
0
100
AcDbCircle
10
577.96629519812109
20
1428.6897287953529
30
0
40
2.0999999999999606
0
LWPOLYLINE
5
268
100
AcDbEntity
8
0
100
AcDbPolyline
90
16
70
1
43
0.0
10
582.96629519813007
20
1404.518155920101
42
-0.19891236737962742
10
582.38050876050374
20
1403.1039423577276
10
578.5520816357589
20
1399.2755152329801
42
-0.19891236737992507
10
577.13786807338624
20
1398.6897287953527
10
518.17187932878642
20
1398.6897287953309
42
-0.2189436654381188
10
516.65336612405611
20
1399.3881460484181
10
513.44778199339908
20
1403.1279942008484
42
-0.17903345403192775
10
512.9662951981295
20
1404.4295769477594
10
512.96629519811188
20
1452.8613016705835
42
-0.198912367379697
10
513.55208163573809
20
1454.2755152329564
10
517.38050876048294
20
1458.1039423577045
42
-0.19891236737970164
10
518.7947223228557
20
1458.6897287953318
10
577.13786807336351
20
1458.6897287953527
42
-0.19891236737993453
10
578.55208163573695
20
1458.1039423577263
10
582.3805087604851
20
1454.2755152329812
42
-0.19891236737962556
10
582.96629519811245
20
1452.8613016706086
0
LWPOLYLINE
5
269
100
AcDbEntity
8
0
100
AcDbPolyline
90
4
70
1
43
0.0
10
197.85594851392065
20
1518.4165621917291
10
221.85594851392051
20
1518.4165621917305
10
221.85594851392108
20
1506.4165621917305
10
197.85594851392122
20
1506.4165621917291
0
CIRCLE
5
270
100
AcDbEntity
8
0
100
AcDbCircle
10
227.85594851392085
20
1512.4165621917309
30
0
40
2.4999999999999942
0
CIRCLE
5
271
100
AcDbEntity
8
0
100
AcDbCircle
10
328.23989266749919
20
1512.4165621917787
30
0
40
2.4999999999999942
0
LWPOLYLINE
5
272
100
AcDbEntity
8
0
100
AcDbPolyline
90
4
70
1
43
0.0
10
334.23989266749749
20
1518.4165621917771
10
358.23989266749732
20
1518.4165621917762
10
358.23989266749675
20
1506.4165621917759
10
334.23989266749692
20
1506.4165621917773
0
LWPOLYLINE
5
273
100
AcDbEntity
8
0
100
AcDbPolyline
90
4
70
1
43
0.0
10
298.23989266749896
20
1518.4165621917764
10
322.23989266749879
20
1518.416562191778
10
322.23989266749936
20
1506.416562191778
10
298.23989266749953
20
1506.4165621917766
0
LWPOLYLINE
5
274
100
AcDbEntity
8
0
100
AcDbPolyline
90
4
70
1
43
0.0
10
233.85594851391917
20
1518.4165621917293
10
257.85594851391903
20
1518.4165621917284
10
257.85594851391852
20
1506.4165621917286
10
233.85594851391863
20
1506.4165621917296
0
CIRCLE
5
275
100
AcDbEntity
8
0
100
AcDbCircle
10
278.04792059071292
20
1596.4165621917141
30
0
40
2.4999999999999947
0
LWPOLYLINE
5
276
100
AcDbEntity
8
0
100
AcDbPolyline
90
4
70
1
43
0.0
10
284.04792059071423
20
1626.4165621917139
10
284.04792059071315
20
1602.4165621917136
10
272.0479205907132
20
1602.4165621917141
10
272.04792059071428
20
1626.4165621917143
0
LWPOLYLINE
5
277
100
AcDbEntity
8
0
100
AcDbPolyline
90
4
70
1
43
0.0
10
284.04792059071258
20
1590.4165621917139
10
284.0479205907115
20
1566.4165621917139
10
272.04792059071156
20
1566.4165621917141
10
272.04792059071269
20
1590.4165621917145
0
LWPOLYLINE
5
278
100
AcDbEntity
8
0
100
AcDbPolyline
90
12
70
1
43
0.0
10
160.85594851392173
20
1529.5895170723677
42
-0.13531689590912066
10
161.27974242538161
20
1531.126775082387
10
259.17508209744165
20
1695.1841866938892
42
-0.2640941638844394
10
261.75128818598188
20
1696.6469286838694
10
294.34455299545311
20
1696.6469286838678
42
-0.26409416388443918
10
296.92075908399312
20
1695.1841866938871
10
394.81609875603829
20
1531.1267750823797
42
-0.13531689590909521
10
395.239892667498
20
1529.5895170723606
10
395.23989266749663
20
1497.4165621917177
42
-0.41421356237308116
10
392.23989266749641
20
1494.416562191718
10
163.85594851392003
20
1494.4165621917268
42
-0.41421356237307771
10
160.85594851392023
20
1497.4165621917268
0
CIRCLE
5
279
100
AcDbEntity
8
0
100
AcDbCircle
10
349.56394899832128
20
1548.4165621917195
30
0
40
2.4999999999999942
0
CIRCLE
5
280
100
AcDbEntity
8
0
100
AcDbCircle
10
242.0479205907136
20
1607.935919403134
30
0
40
2.4999999999999942
0
CIRCLE
5
281
100
AcDbEntity
8
0
100
AcDbCircle
10
188.04792059071025
20
1528.4165621917257
30
0
40
2.9999999999999933
0
CIRCLE
5
282
100
AcDbEntity
8
0
100
AcDbCircle
10
314.0479205907132
20
1607.9359194031315
30
0
40
2.4999999999999942
0
CIRCLE
5
283
100
AcDbEntity
8
0
100
AcDbCircle
10
206.53189218310013
20
1548.416562191725
30
0
40
2.4999999999999942
0
CIRCLE
5
284
100
AcDbEntity
8
0
100
AcDbCircle
10
368.04792059070928
20
1528.4165621917189
30
0
40
2.9999999999999933
0
LWPOLYLINE
5
285
100
AcDbEntity
8
0
100
AcDbPolyline
90
4
70
1
43
0.0
10
220.85654811396896
20
1772.3967920562495
10
196.85654811396898
20
1772.3967920562486
10
196.85654811396864
20
1784.3967920562486
10
220.85654811396864
20
1784.3967920562495
0
CIRCLE
5
286
100
AcDbEntity
8
0
100
AcDbCircle
10
190.8565481139687
20
1778.3967920562484
30
0
40
2.5000000000000009
0
CIRCLE
5
287
100
AcDbEntity
8
0
100
AcDbCircle
10
90.472603960389762
20
1778.3967920562029
30
0
40
2.5000000000000009
0
LWPOLYLINE
5
288
100
AcDbEntity
8
0
100
AcDbPolyline
90
4
70
1
43
0.0
10
84.472603960391339
20
1772.3967920562043
10
60.472603960391339
20
1772.3967920562059
10
60.472603960392128
20
1784.3967920562056
10
84.472603960392135
20
1784.3967920562043
0
LWPOLYLINE
5
289
100
AcDbEntity
8
0
100
AcDbPolyline
90
4
70
1
43
0.0
10
120.47260396039007
20
1772.3967920562038
10
96.472603960390089
20
1772.3967920562029
10
96.472603960389733
20
1784.3967920562031
10
120.47260396038973
20
1784.396792056204
0
LWPOLYLINE
5
290
100
AcDbEntity
8
0
100
AcDbPolyline
90
4
70
1
43
0.0
10
184.85654811397023
20
1772.3967920562498
10
160.85654811397023
20
1772.3967920562513
10
160.85654811397103
20
1784.3967920562513
10
184.856548113971
20
1784.3967920562498
0
CIRCLE
5
291
100
AcDbEntity
8
0
100
AcDbCircle
10
140.66457603717464
20
1694.3967920562661
30
0
40
2.5000000000000009
0
LWPOLYLINE
5
292
100
AcDbEntity
8
0
100
AcDbPolyline
90
4
70
1
43
0.0
10
134.66457603717268
20
1664.3967920562663
10
134.66457603717427
20
1688.3967920562666
10
146.66457603717424
20
1688.3967920562659
10
146.66457603717271
20
1664.3967920562659
0
LWPOLYLINE
5
293
100
AcDbEntity
8
0
100
AcDbPolyline
90
4
70
1
43
0.0
10
134.66457603717507
20
1700.3967920562663
10
134.66457603717663
20
1724.3967920562663
10
146.66457603717663
20
1724.3967920562659
10
146.66457603717507
20
1700.3967920562659
0
LWPOLYLINE
5
294
100
AcDbEntity
8
0
100
AcDbPolyline
90
12
70
1
43
0.0
10
257.8565481139679
20
1761.2238371756098
42
-0.13531689590912188
10
257.43275420250785
20
1759.6865791655905
10
159.53741453044418
20
1595.6291675540908
42
-0.26409416388446272
10
156.96120844190378
20
1594.1664255641103
10
124.36794363243224
20
1594.1664255641124
42
-0.2640941638844328
10
121.79173754389228
20
1595.6291675540931
10
23.896397871849885
20
1759.6865791656028
42
-0.13531689590911872
10
23.472603960390156
20
1761.2238371756223
10
23.472603960392178
20
1793.3967920562648
42
-0.41421356237308943
10
26.472603960392505
20
1796.3967920562645
10
254.85654811397026
20
1796.3967920562513
42
-0.41421356237310197
10
257.85654811397006
20
1793.3967920562509
0
CIRCLE
5
295
100
AcDbEntity
8
0
100
AcDbCircle
10
69.148547629566806
20
1742.396792056262
30
0
40
2.5000000000000009
0
CIRCLE
5
296
100
AcDbEntity
8
0
100
AcDbCircle
10
176.66457603717393
20
1682.8774348448453
30
0
40
2.5000000000000009
0
CIRCLE
5
297
100
AcDbEntity
8
0
100
AcDbCircle
10
230.66457603717922
20
1762.3967920562527
30
0
40
3.0000000000000022
0
CIRCLE
5
298
100
AcDbEntity
8
0
100
AcDbCircle
10
104.66457603717386
20
1682.8774348448496
30
0
40
2.5000000000000009
0
CIRCLE
5
299
100
AcDbEntity
8
0
100
AcDbCircle
10
212.18060444478883
20
1742.3967920562538
30
0
40
2.5000000000000009
0
CIRCLE
5
300
100
AcDbEntity
8
0
100
AcDbCircle
10
50.664576037179131
20
1762.3967920562632
30
0
40
3.0000000000000022
0
LWPOLYLINE
5
301
100
AcDbEntity
8
0
100
AcDbPolyline
90
4
70
1
43
0.0
10
93.234845084860737
20
1355.0987131068948
10
93.234845084869193
20
1371.0987131068944
10
105.23484508486914
20
1371.0987131068878
10
105.23484508486069
20
1355.0987131068882
0
CIRCLE
5
302
100
AcDbEntity
8
0
100
AcDbCircle
10
99.234845084872333
20
1377.0987131068912
30
0
40
2.4999999999999893
0
LWPOLYLINE
5
303
100
AcDbEntity
8
0
100
AcDbPolyline
90
4
70
1
43
0.0
10
129.23484508490426
20
1442.09871310687
10
105.23484508490439
20
1442.0987131068828
10
105.23484508491073
20
1454.0987131068823
10
129.2348450849106
20
1454.0987131068698
0
CIRCLE
5
304
100
AcDbEntity
8
0
100
AcDbCircle
10
99.234845084909324
20
1448.0987131068846
30
0
40
2.4999999999999893
0
LWPOLYLINE
5
305
100
AcDbEntity
8
0
100
AcDbPolyline
90
4
70
1
43
0.0
10
93.234845084905672
20
1442.0987131068885
10
69.2348450849058
20
1442.0987131069035
10
69.234845084913275
20
1454.0987131069032
10
93.234845084913161
20
1454.0987131068882
0
CIRCLE
5
306
100
AcDbEntity
8
0
100
AcDbCircle
10
99.234845084885222
20
1401.5197292936384
30
0
40
3.9999999999999862
0
LWPOLYLINE
5
307
100
AcDbEntity
8
0
100
AcDbPolyline
90
12
70
1
43
0.0
10
37.234845084918177
20
1463.0987131069223
42
-0.41421356237308032
10
40.234845084919556
20
1466.0987131069205
10
158.23484508491907
20
1466.0987131068578
42
-0.41421356237310897
10
161.23484508491748
20
1463.0987131068559
10
161.23484508490543
20
1440.2062580970878
42
-0.10399925063094936
10
160.98079018217305
20
1438.9980422542897
10
113.85347038641486
20
1331.8904972640858
42
-0.29740282266165707
10
111.1075252891458
20
1330.0987131068855
10
87.362164880549216
20
1330.0987131068978
42
-0.29740282266165452
10
84.616219783281892
20
1331.890497264101
10
37.488899987636906
20
1438.9980422543554
42
-0.1039992506309277
10
37.23484508490592
20
1440.2062580971537
0
LWPOLYLINE
5
308
100
AcDbEntity
8
0
100
AcDbPolyline
90
4
70
1
43
0.0
10
183.27227716054452
20
1370.8492722218416
10
183.272277160545
20
1354.8492722218416
10
171.27227716054495
20
1354.8492722218411
10
171.27227716054446
20
1370.8492722218411
0
CIRCLE
5
309
100
AcDbEntity
8
0
100
AcDbCircle
10
177.27227716054517
20
1348.8492722218414
30
0
40
2.5000000000000138
0
LWPOLYLINE
5
310
100
AcDbEntity
8
0
100
AcDbPolyline
90
4
70
1
43
0.0
10
147.27227716054924
20
1283.8492722218457
10
171.27227716054935
20
1283.8492722218461
10
171.27227716054972
20
1271.8492722218461
10
147.27227716054961
20
1271.8492722218455
0
CIRCLE
5
311
100
AcDbEntity
8
0
100
AcDbCircle
10
177.27227716054782
20
1277.8492722218473
30
0
40
2.5000000000000138
0
LWPOLYLINE
5
312
100
AcDbEntity
8
0
100
AcDbPolyline
90
4
70
1
43
0.0
10
183.27227716054819
20
1283.8492722218471
10
207.2722771605483
20
1283.8492722218452
10
207.27227716054753
20
1271.8492722218452
10
183.27227716054739
20
1271.8492722218471
0
CIRCLE
5
313
100
AcDbEntity
8
0
100
AcDbCircle
10
177.27227716054588
20
1324.4282560350939
30
0
40
4.0000000000000266
0
LWPOLYLINE
5
314
100
AcDbEntity
8
0
100
AcDbPolyline
90
12
70
1
43
0.0
10
239.27227716054807
20
1262.8492722218443
42
-0.41421356237309503
10
236.27227716054824
20
1259.8492722218441
10
118.27227716054752
20
1259.8492722218411
42
-0.41421356237308982
10
115.2722771605474
20
1262.8492722218409
10
115.27227716054671
20
1285.7417272316097
42
-0.10399925063093668
10
115.52633206327843
20
1286.9499430744079
10
162.65365185897701
20
1394.0574880646398
42
-0.29740282266164697
10
165.39959695624529
20
1395.8492722218416
10
189.14495736484213
20
1395.8492722218421
42
-0.29740282266166823
10
191.89090246211055
20
1394.05748806464
10
239.01822225781558
20
1286.9499430744111
42
-0.10399925063095856
10
239.27227716054742
20
1285.7417272316127
0
LWPOLYLINE
5
315
100
AcDbEntity
8
0
100
AcDbPolyline
90
4
70
1
43
0.0
10
333.27227716054279
20
1370.8492722218448
10
333.2722771605433
20
1354.849272221845
10
321.2722771605433
20
1354.8492722218448
10
321.27227716054273
20
1370.8492722218446
0
CIRCLE
5
316
100
AcDbEntity
8
0
100
AcDbCircle
10
327.27227716054347
20
1348.8492722218448
30
0
40
2.5000000000000138
0
LWPOLYLINE
5
317
100
AcDbEntity
8
0
100
AcDbPolyline
90
4
70
1
43
0.0
10
297.27227716054756
20
1283.8492722218489
10
321.27227716054767
20
1283.8492722218496
10
321.27227716054801
20
1271.8492722218496
10
297.2722771605479
20
1271.8492722218489
0
CIRCLE
5
318
100
AcDbEntity
8
0
100
AcDbCircle
10
327.27227716054614
20
1277.8492722218507
30
0
40
2.5000000000000138
0
LWPOLYLINE
5
319
100
AcDbEntity
8
0
100
AcDbPolyline
90
4
70
1
43
0.0
10
333.27227716054642
20
1283.8492722218505
10
357.27227716054654
20
1283.8492722218487
10
357.27227716054585
20
1271.8492722218487
10
333.27227716054563
20
1271.8492722218505
0
CIRCLE
5
320
100
AcDbEntity
8
0
100
AcDbCircle
10
327.27227716054421
20
1324.4282560350973
30
0
40
4.0000000000000266
0
LWPOLYLINE
5
321
100
AcDbEntity
8
0
100
AcDbPolyline
90
12
70
1
43
0.0
10
389.27227716054637
20
1262.8492722218475
42
-0.41421356237310197
10
386.27227716054648
20
1259.8492722218475
10
268.2722771605458
20
1259.8492722218446
42
-0.41421356237308815
10
265.27227716054574
20
1262.8492722218443
10
265.272277160545
20
1285.7417272316134
42
-0.10399925063093646
10
265.52633206327675
20
1286.9499430744113
10
312.65365185897531
20
1394.0574880646432
42
-0.29740282266164697
10
315.39959695624356
20
1395.8492722218448
10
339.14495736484042
20
1395.8492722218452
42
-0.29740282266166235
10
341.89090246210873
20
1394.0574880646434
10
389.01822225781393
20
1286.9499430744145
42
-0.10399925063095834
10
389.27227716054574
20
1285.7417272316161
0
LWPOLYLINE
5
322
100
AcDbEntity
8
0
100
AcDbPolyline
90
4
70
1
43
0.0
10
393.23484508484307
20
1355.0987131067368
10
393.23484508485149
20
1371.0987131067368
10
405.23484508485154
20
1371.0987131067302
10
405.23484508484319
20
1355.0987131067302
0
CIRCLE
5
323
100
AcDbEntity
8
0
100
AcDbCircle
10
399.23484508485473
20
1377.0987131067332
30
0
40
2.5000000000000133
0
LWPOLYLINE
5
324
100
AcDbEntity
8
0
100
AcDbPolyline
90
4
70
1
43
0.0
10
429.2348450848869
20
1442.0987131067127
10
405.23484508488679
20
1442.0987131067254
10
405.2348450848931
20
1454.0987131067254
10
429.23484508489321
20
1454.0987131067127
0
CIRCLE
5
325
100
AcDbEntity
8
0
100
AcDbCircle
10
399.23484508489173
20
1448.0987131067275
30
0
40
2.5000000000000133
0
LWPOLYLINE
5
326
100
AcDbEntity
8
0
100
AcDbPolyline
90
4
70
1
43
0.0
10
393.23484508488804
20
1442.0987131067313
10
369.23484508488792
20
1442.0987131067463
10
369.23484508489537
20
1454.0987131067461
10
393.23484508489548
20
1454.0987131067311
0
CIRCLE
5
327
100
AcDbEntity
8
0
100
AcDbCircle
10
399.23484508486757
20
1401.5197292934809
30
0
40
4.0000000000000249
0
LWPOLYLINE
5
328
100
AcDbEntity
8
0
100
AcDbPolyline
90
12
70
1
43
0.0
10
337.23484508489975
20
1463.0987131067654
42
-0.41421356237308116
10
340.23484508490139
20
1466.0987131067641
10
458.23484508490202
20
1466.0987131067009
42
-0.41421356237310897
10
461.23484508490048
20
1463.0987131066991
10
461.23484508488838
20
1440.2062580969302
42
-0.103999250630924
10
460.980790182156
20
1438.9980422541325
10
413.85347038639765
20
1331.8904972639275
42
-0.29740282266165258
10
411.10752528912832
20
1330.0987131067268
10
387.36216488053145
20
1330.0987131067393
42
-0.29740282266165813
10
384.61621978326406
20
1331.8904972639427
10
337.48889998761877
20
1438.998042254198
42
-0.10399925063095138
10
337.23484508488764
20
1440.2062580969969
0
CIRCLE
5
329
100
AcDbEntity
8
0
100
AcDbCircle
10
477.27227716054387
20
1324.4282560350996
30
0
40
4.0000000000000266
0
CIRCLE
5
330
100
AcDbEntity
8
0
100
AcDbCircle
10
477.27227716054387
20
1324.4282560350996
30
0
40
4.0000000000000266
0
LWPOLYLINE
5
331
100
AcDbEntity
8
0
100
AcDbPolyline
90
16
70
1
43
0.0
10
84.912555007768887
20
1262.2103184181708
10
84.912555007751109
20
1310.5534641686781
42
0.19891236737969514
10
84.326768570123804
20
1311.9676777310508
10
80.498341445375729
20
1315.7961048557959
42
0.19891236737964374
10
79.08412788300231
20
1316.3818912934223
10
20.740982132494899
20
1316.3818912934007
42
0.19891236737977386
10
19.32676857012213
20
1315.7961048557738
10
15.498341445377225
20
1311.967677731026
42
0.19891236737972801
10
14.912555007750779
20
1310.5534641686529
10
14.912555007768729
20
1262.1217394458295
42
0.17903345403192503
10
15.394041803038236
20
1260.8201566989183
10
18.599625933695357
20
1257.0803085464879
42
0.21894366543799615
10
20.118139138425679
20
1256.3818912934009
10
79.084127883025118
20
1256.3818912934223
42
0.19891236737958884
10
80.498341445397571
20
1256.9676777310497
10
84.326768570142505
20
1260.7961048557975
42
0.19891236737955137
0
CIRCLE
5
332
100
AcDbEntity
8
0
100
AcDbCircle
10
19.912555007759778
20
1286.3818912934007
30
0
40
2.7500000000000631
0
CIRCLE
5
333
100
AcDbEntity
8
0
100
AcDbCircle
10
76.745888341084765
20
1309.3818912934216
30
0
40
2.7500000000000631
0
CIRCLE
5
334
100
AcDbEntity
8
0
100
AcDbCircle
10
79.91255500775992
20
1286.3818912934225
30
0
40
2.7500000000000631
0
CIRCLE
5
335
100
AcDbEntity
8
0
100
AcDbCircle
10
23.079221674418307
20
1309.3818912934016
30
0
40
2.7500000000000631
0
CIRCLE
5
336
100
AcDbEntity
8
0
100
AcDbCircle
10
23.079221674435217
20
1263.3818912934018
30
0
40
2.7500000000000631
0
CIRCLE
5
337
100
AcDbEntity
8
0
100
AcDbCircle
10
76.745888341101676
20
1263.3818912934216
30
0
40
2.7500000000000631
0
LWPOLYLINE
5
338
100
AcDbEntity
8
0
100
AcDbPolyline
90
44
70
1
43
0.0
10
1201.6561661967912
20
1317.3723995743198
10
1158.6561661967912
20
1317.3723995743189
42
-0.99999999999999989
10
1158.6561661967912
20
1320.3723995743185
10
1201.6561661967912
20
1320.3723995743198
10
1201.6561661967912
20
1324.8723995743189
10
1213.656166196791
20
1324.8723995743189
10
1213.6561661967903
20
1348.8723995743185
10
1201.6561661967903
20
1348.8723995743183
10
1201.6561661967896
20
1368.8723995743201
10
951.81607082758251
20
1423.3750381801592
42
0.053747944691927861
10
945.42194636661839
20
1424.0643716511001
10
628.65616619679088
20
1424.0643716510899
10
628.65616619679167
20
1399.0643716510906
10
616.65616619679167
20
1399.0643716510906
10
616.65616619679247
20
1375.0643716510908
10
628.65616619679247
20
1375.0643716510911
10
628.65616619679292
20
1370.5643716510913
10
671.6561661967927
20
1370.5643716510922
42
-0.99999999999999989
10
671.6561661967927
20
1367.5643716510926
10
628.65616619679292
20
1367.5643716510913
10
628.65616619679281
20
1363.0643716510922
10
616.65616619679292
20
1363.0643716510922
10
616.65616619679372
20
1339.0643716510926
10
628.65616619679361
20
1339.0643716510929
10
628.65616619679474
20
1298.6804274975132
10
616.65616619679486
20
1298.6804274975129
10
616.65616619679565
20
1274.6804274975129
10
628.65616619679554
20
1274.6804274975134
10
628.65616619679611
20
1270.1804274975134
10
671.65616619679577
20
1270.1804274975148
42
-0.99999999999999989
10
671.65616619679577
20
1267.180427497515
10
628.65616619679611
20
1267.1804274975136
10
628.65616619679588
20
1262.6804274975148
10
616.65616619679599
20
1262.6804274975145
10
616.65616619679679
20
1238.6804274975148
10
628.65616619679668
20
1238.6804274975152
10
628.65616619679747
20
1213.6804274975152
10
945.42194636662452
20
1213.6804274975252
42
0.053747944691925766
10
951.81607082758842
20
1214.3697609684664
10
1201.6561661967926
20
1268.8723995743214
10
1201.6561661967924
20
1288.8723995743203
10
1213.6561661967924
20
1288.8723995743205
10
1213.6561661967914
20
1312.8723995743203
10
1201.6561661967917
20
1312.8723995743201
0
CIRCLE
5
339
100
AcDbEntity
8
0
100
AcDbCircle
10
1108.6561661967917
20
1318.872399574318
30
0
40
2.4999999999999867
0
LWPOLYLINE
5
340
100
AcDbEntity
8
0
100
AcDbPolyline
90
4
70
1
43
0.0
10
1102.6561661967919
20
1312.8723995743178
10
1078.6561661967921
20
1312.8723995743169
10
1078.6561661967917
20
1324.8723995743169
10
1102.6561661967914
20
1324.8723995743176
0
LWPOLYLINE
5
341
100
AcDbEntity
8
0
100
AcDbPolyline
90
4
70
1
43
0.0
10
1138.6561661967917
20
1312.8723995743189
10
1114.6561661967919
20
1312.872399574318
10
1114.6561661967914
20
1324.872399574318
10
1138.6561661967912
20
1324.8723995743189
0
LWPOLYLINE
5
342
100
AcDbEntity
8
0
100
AcDbPolyline
90
4
70
1
43
0.0
10
938.6561661967927
20
1312.8723995743126
10
914.65616619679281
20
1312.8723995743119
10
914.65616619679236
20
1324.8723995743114
10
938.65616619679236
20
1324.8723995743126
0
LWPOLYLINE
5
343
100
AcDbEntity
8
0
100
AcDbPolyline
90
4
70
1
43
0.0
10
902.65616619679304
20
1312.8723995743117
10
878.65616619679315
20
1312.8723995743107
10
878.6561661967927
20
1324.8723995743103
10
902.65616619679247
20
1324.8723995743114
0
LWPOLYLINE
5
344
100
AcDbEntity
8
0
100
AcDbPolyline
90
4
70
1
43
0.0
10
738.65616619679383
20
1312.8723995743062
10
714.65616619679395
20
1312.8723995743053
10
714.65616619679349
20
1324.8723995743053
10
738.65616619679349
20
1324.872399574306
0
LWPOLYLINE
5
345
100
AcDbEntity
8
0
100
AcDbPolyline
90
4
70
1
43
0.0
10
702.65616619679406
20
1312.8723995743051
10
678.65616619679417
20
1312.8723995743042
10
678.65616619679361
20
1324.8723995743039
10
702.65616619679361
20
1324.8723995743048
0
CIRCLE
5
346
100
AcDbEntity
8
0
100
AcDbCircle
10
908.6561661967927
20
1318.8723995743114
30
0
40
2.4999999999999867
0
CIRCLE
5
347
100
AcDbEntity
8
0
100
AcDbCircle
10
708.65616619679372
20
1318.8723995743053
30
0
40
2.4999999999999867
0
LWPOLYLINE
5
348
100
AcDbEntity
8
0
100
AcDbPolyline
90
44
70
1
43
0.0
10
1201.6561661967989
20
1077.3723995743196
10
1158.6561661967989
20
1077.372399574318
42
-0.99999999999999989
10
1158.6561661967989
20
1080.372399574318
10
1201.6561661967987
20
1080.3723995743194
10
1201.6561661967989
20
1084.872399574318
10
1213.6561661967987
20
1084.8723995743185
10
1213.656166196798
20
1108.8723995743183
10
1201.656166196798
20
1108.8723995743178
10
1201.6561661967971
20
1128.8723995743198
10
951.81607082759012
20
1183.375038180159
42
0.053747944691927861
10
945.421946366626
20
1184.0643716510997
10
628.65616619679849
20
1184.0643716510895
10
628.65616619679929
20
1159.0643716510904
10
616.6561661967994
20
1159.0643716510899
10
616.6561661968002
20
1135.0643716510901
10
628.65616619680009
20
1135.0643716510906
10
628.65616619680065
20
1130.5643716510908
10
671.65616619680031
20
1130.5643716510922
42
-0.99999999999999989
10
671.65616619680031
20
1127.5643716510922
10
628.65616619680065
20
1127.5643716510908
10
628.65616619680054
20
1123.0643716510922
10
616.65616619680054
20
1123.0643716510915
10
616.65616619680134
20
1099.064371651092
10
628.65616619680134
20
1099.0643716510924
10
628.65616619680247
20
1058.6804274975127
10
616.65616619680247
20
1058.6804274975123
10
616.65616619680327
20
1034.6804274975127
10
628.65616619680327
20
1034.6804274975129
10
628.65616619680372
20
1030.1804274975129
10
671.6561661968035
20
1030.1804274975145
42
-0.99999999999999989
10
671.6561661968035
20
1027.1804274975145
10
628.65616619680372
20
1027.1804274975132
10
628.65616619680361
20
1022.6804274975144
10
616.65616619680361
20
1022.6804274975141
10
616.65616619680441
20
998.68042749751442
10
628.65616619680441
20
998.68042749751476
10
628.6561661968052
20
973.68042749751476
10
945.42194636663226
20
973.68042749752476
42
0.053747944691925766
10
951.81607082759615
20
974.36976096846593
10
1201.6561661968003
20
1028.872399574321
10
1201.6561661968001
20
1048.8723995743198
10
1213.6561661967999
20
1048.8723995743203
10
1213.6561661967992
20
1072.8723995743201
10
1201.6561661967992
20
1072.8723995743196
0
CIRCLE
5
349
100
AcDbEntity
8
0
100
AcDbCircle
10
1108.6561661967994
20
1078.8723995743176
30
0
40
2.4999999999999867
0
LWPOLYLINE
5
350
100
AcDbEntity
8
0
100
AcDbPolyline
90
4
70
1
43
0.0
10
1102.6561661967996
20
1072.8723995743173
10
1078.6561661967996
20
1072.8723995743167
10
1078.6561661967992
20
1084.8723995743167
10
1102.6561661967992
20
1084.8723995743173
0
LWPOLYLINE
5
351
100
AcDbEntity
8
0
100
AcDbPolyline
90
4
70
1
43
0.0
10
1138.6561661967994
20
1072.8723995743185
10
1114.6561661967994
20
1072.8723995743178
10
1114.6561661967989
20
1084.8723995743176
10
1138.6561661967989
20
1084.8723995743185
0
LWPOLYLINE
5
352
100
AcDbEntity
8
0
100
AcDbPolyline
90
4
70
1
43
0.0
10
938.65616619680043
20
1072.8723995743121
10
914.65616619680054
20
1072.8723995743114
10
914.65616619680009
20
1084.8723995743112
10
938.65616619679997
20
1084.8723995743121
0
LWPOLYLINE
5
353
100
AcDbEntity
8
0
100
AcDbPolyline
90
4
70
1
43
0.0
10
902.65616619680077
20
1072.872399574311
10
878.65616619680077
20
1072.8723995743103
10
878.65616619680043
20
1084.8723995743101
10
902.6561661968002
20
1084.8723995743107
0
LWPOLYLINE
5
354
100
AcDbEntity
8
0
100
AcDbPolyline
90
4
70
1
43
0.0
10
738.65616619680156
20
1072.8723995743057
10
714.65616619680168
20
1072.8723995743051
10
714.65616619680122
20
1084.8723995743048
10
738.65616619680111
20
1084.8723995743055
0
LWPOLYLINE
5
355
100
AcDbEntity
8
0
100
AcDbPolyline
90
4
70
1
43
0.0
10
702.65616619680168
20
1072.8723995743046
10
678.65616619680179
20
1072.8723995743039
10
678.65616619680122
20
1084.8723995743037
10
702.65616619680134
20
1084.8723995743044
0
CIRCLE
5
356
100
AcDbEntity
8
0
100
AcDbCircle
10
908.65616619680043
20
1078.872399574311
30
0
40
2.4999999999999867
0
CIRCLE
5
357
100
AcDbEntity
8
0
100
AcDbCircle
10
708.65616619680145
20
1078.8723995743046
30
0
40
2.4999999999999867
0
LWPOLYLINE
5
358
100
AcDbEntity
8
0
100
AcDbPolyline
90
44
70
1
43
0.0
10
1201.6561661968065
20
837.3723995743195
10
1158.6561661968065
20
837.37239957431814
42
-0.99999999999999989
10
1158.6561661968065
20
840.37239957431791
10
1201.6561661968062
20
840.37239957431939
10
1201.6561661968065
20
844.87239957431814
10
1213.6561661968062
20
844.87239957431848
10
1213.6561661968055
20
868.87239957431825
10
1201.6561661968055
20
868.8723995743178
10
1201.6561661968049
20
888.87239957431984
10
951.81607082759774
20
943.37503818015898
42
0.053747944691927861
10
945.42194636663351
20
944.06437165109969
10
628.65616619680611
20
944.06437165108957
10
628.65616619680691
20
919.06437165109037
10
616.65616619680691
20
919.0643716510898
10
616.6561661968077
20
895.06437165109014
10
628.65616619680759
20
895.0643716510906
10
628.65616619680804
20
890.56437165109071
10
671.65616619680793
20
890.5643716510923
42
-0.99999999999999989
10
671.65616619680793
20
887.56437165109219
10
628.65616619680816
20
887.56437165109082
10
628.65616619680804
20
883.06437165109219
10
616.65616619680816
20
883.06437165109162
10
616.65616619680895
20
859.06437165109196
10
628.65616619680884
20
859.06437165109242
10
628.65616619680998
20
818.68042749751271
10
616.65616619681009
20
818.68042749751226
10
616.65616619681077
20
794.6804274975126
10
628.65616619681077
20
794.68042749751305
10
628.65616619681111
20
790.18042749751305
10
671.65616619681077
20
790.18042749751442
42
-0.99999999999999989
10
671.656166196811
20
787.18042749751464
10
628.65616619681123
20
787.18042749751316
10
628.65616619681111
20
782.68042749751442
10
616.65616619681123
20
782.68042749751407
10
616.65616619681191
20
758.68042749751442
10
628.65616619681191
20
758.68042749751476
10
628.65616619681271
20
733.68042749751476
10
945.42194636663976
20
733.68042749752476
42
0.053747944691925766
10
951.81607082760365
20
734.36976096846593
10
1201.6561661968078
20
788.87239957432098
10
1201.6561661968076
20
808.87239957431984
10
1213.6561661968076
20
808.8723995743203
10
1213.6561661968067
20
832.87239957432007
10
1201.6561661968067
20
832.87239957431962
0
CIRCLE
5
359
100
AcDbEntity
8
0
100
AcDbCircle
10
1108.6561661968067
20
838.87239957431746
30
0
40
2.4999999999999867
0
LWPOLYLINE
5
360
100
AcDbEntity
8
0
100
AcDbPolyline
90
4
70
1
43
0.0
10
1102.6561661968071
20
832.87239957431734
10
1078.6561661968071
20
832.87239957431666
10
1078.6561661968067
20
844.87239957431655
10
1102.6561661968067
20
844.87239957431723
0
LWPOLYLINE
5
361
100
AcDbEntity
8
0
100
AcDbPolyline
90
4
70
1
43
0.0
10
1138.6561661968069
20
832.87239957431848
10
1114.6561661968071
20
832.8723995743178
10
1114.6561661968067
20
844.87239957431768
10
1138.6561661968065
20
844.87239957431837
0
LWPOLYLINE
5
362
100
AcDbEntity
8
0
100
AcDbPolyline
90
4
70
1
43
0.0
10
938.65616619680804
20
832.87239957431211
10
914.65616619680816
20
832.87239957431143
10
914.6561661968077
20
844.87239957431132
10
938.65616619680748
20
844.872399574312
0
LWPOLYLINE
5
363
100
AcDbEntity
8
0
100
AcDbPolyline
90
4
70
1
43
0.0
10
902.65616619680816
20
832.87239957431098
10
878.65616619680827
20
832.87239957431029
10
878.65616619680782
20
844.87239957431018
10
902.6561661968077
20
844.87239957431086
0
LWPOLYLINE
5
364
100
AcDbEntity
8
0
100
AcDbPolyline
90
4
70
1
43
0.0
10
738.65616619680918
20
832.87239957430575
10
714.65616619680929
20
832.87239957430506
10
714.65616619680873
20
844.87239957430484
10
738.65616619680861
20
844.87239957430563
0
LWPOLYLINE
5
365
100
AcDbEntity
8
0
100
AcDbPolyline
90
4
70
1
43
0.0
10
702.65616619680929
20
832.87239957430461
10
678.65616619680941
20
832.87239957430393
10
678.65616619680895
20
844.8723995743037
10
702.65616619680873
20
844.8723995743045
0
CIRCLE
5
366
100
AcDbEntity
8
0
100
AcDbCircle
10
908.65616619680793
20
838.87239957431109
30
0
40
2.4999999999999867
0
CIRCLE
5
367
100
AcDbEntity
8
0
100
AcDbCircle
10
708.65616619680907
20
838.87239957430461
30
0
40
2.4999999999999867
0
LWPOLYLINE
5
368
100
AcDbEntity
8
0
100
AcDbPolyline
90
44
70
1
43
0.0
10
1201.656166196814
20
597.37239957431927
10
1158.656166196814
20
597.37239957431802
42
-0.99999999999999989
10
1158.656166196814
20
600.37239957431791
10
1201.656166196814
20
600.37239957431927
10
1201.656166196814
20
604.87239957431802
10
1213.6561661968137
20
604.87239957431837
10
1213.656166196813
20
628.87239957431814
10
1201.656166196813
20
628.87239957431768
10
1201.6561661968124
20
648.87239957431973
10
951.81607082760524
20
703.37503818015875
42
0.053747944691927729
10
945.42194636664112
20
704.06437165109946
10
628.65616619681361
20
704.06437165108957
10
628.65616619681441
20
679.06437165109025
10
616.65616619681441
20
679.06437165108969
10
616.65616619681521
20
655.06437165109003
10
628.65616619681521
20
655.06437165109048
10
628.65616619681566
20
650.5643716510906
10
671.65616619681543
20
650.56437165109185
42
-0.99999999999999989
10
671.65616619681543
20
647.56437165109207
10
628.65616619681566
20
647.5643716510906
10
628.65616619681555
20
643.06437165109196
10
616.65616619681566
20
643.06437165109151
10
616.65616619681646
20
619.06437165109185
10
628.65616619681634
20
619.06437165109219
10
628.65616619681748
20
578.68042749751248
10
616.65616619681759
20
578.68042749751214
10
616.65616619681839
20
554.6804274975126
10
628.65616619681828
20
554.68042749751294
10
628.65616619681884
20
550.18042749751294
10
671.6561661968185
20
550.18042749751442
42
-0.99999999999999989
10
671.6561661968185
20
547.1804274975143
10
628.65616619681884
20
547.18042749751294
10
628.65616619681862
20
542.6804274975143
10
616.65616619681873
20
542.68042749751396
10
616.65616619681953
20
518.6804274975143
10
628.65616619681941
20
518.68042749751464
10
628.65616619682021
20
493.68042749751453
10
945.42194636664726
20
493.68042749752453
42
0.053747944691925641
10
951.81607082761116
20
494.36976096846564
10
1201.6561661968153
20
548.87239957432098
10
1201.6561661968151
20
568.87239957431984
10
1213.6561661968151
20
568.87239957432007
10
1213.6561661968142
20
592.87239957431984
10
1201.6561661968144
20
592.87239957431939
0
CIRCLE
5
369
100
AcDbEntity
8
0
100
AcDbCircle
10
1108.6561661968144
20
598.87239957431734
30
0
40
2.4999999999999867
0
LWPOLYLINE
5
370
100
AcDbEntity
8
0
100
AcDbPolyline
90
4
70
1
43
0.0
10
1102.6561661968146
20
592.87239957431723
10
1078.6561661968149
20
592.87239957431643
10
1078.6561661968144
20
604.8723995743162
10
1102.6561661968142
20
604.872399574317
0
LWPOLYLINE
5
371
100
AcDbEntity
8
0
100
AcDbPolyline
90
4
70
1
43
0.0
10
1138.6561661968144
20
592.87239957431837
10
1114.6561661968146
20
592.87239957431757
10
1114.6561661968142
20
604.87239957431734
10
1138.656166196814
20
604.87239957431814
0
LWPOLYLINE
5
372
100
AcDbEntity
8
0
100
AcDbPolyline
90
4
70
1
43
0.0
10
938.65616619681543
20
592.872399574312
10
914.65616619681555
20
592.8723995743112
10
914.65616619681509
20
604.87239957431109
10
938.65616619681509
20
604.87239957431177
0
LWPOLYLINE
5
373
100
AcDbEntity
8
0
100
AcDbPolyline
90
4
70
1
43
0.0
10
902.65616619681578
20
592.87239957431086
10
878.65616619681589
20
592.87239957431007
10
878.65616619681543
20
604.87239957430984
10
902.65616619681521
20
604.87239957431063
0
LWPOLYLINE
5
374
100
AcDbEntity
8
0
100
AcDbPolyline
90
4
70
1
43
0.0
10
738.65616619681657
20
592.87239957430563
10
714.65616619681668
20
592.87239957430484
10
714.65616619681623
20
604.87239957430472
10
738.65616619681623
20
604.8723995743054
0
LWPOLYLINE
5
375
100
AcDbEntity
8
0
100
AcDbPolyline
90
4
70
1
43
0.0
10
702.6561661968168
20
592.87239957430438
10
678.65616619681691
20
592.8723995743037
10
678.65616619681634
20
604.87239957430359
10
702.65616619681634
20
604.87239957430427
0
CIRCLE
5
376
100
AcDbEntity
8
0
100
AcDbCircle
10
908.65616619681543
20
598.87239957431098
30
0
40
2.4999999999999867
0
CIRCLE
5
377
100
AcDbEntity
8
0
100
AcDbCircle
10
708.65616619681646
20
598.87239957430461
30
0
40
2.4999999999999867
0
LWPOLYLINE
5
378
100
AcDbEntity
8
0
100
AcDbPolyline
90
44
70
1
43
0.0
10
1201.6561661968215
20
357.37239957431933
10
1158.6561661968217
20
357.37239957431797
42
-0.99999999999999989
10
1158.6561661968217
20
360.37239957431791
10
1201.6561661968215
20
360.37239957431927
10
1201.6561661968215
20
364.87239957431802
10
1213.6561661968212
20
364.87239957431837
10
1213.6561661968205
20
388.87239957431808
10
1201.6561661968208
20
388.87239957431774
10
1201.6561661968199
20
408.87239957431967
10
951.81607082761275
20
463.37503818015887
42
0.053747944691927861
10
945.42194636664863
20
464.06437165109963
10
628.65616619682112
20
464.06437165108946
10
628.65616619682191
20
439.0643716510902
10
616.65616619682191
20
439.0643716510898
10
616.65616619682271
20
415.06437165109014
10
628.65616619682271
20
415.06437165109048
10
628.65616619682305
20
410.56437165109065
10
671.65616619682294
20
410.56437165109202
42
-0.99999999999999989
10
671.65616619682294
20
407.56437165109207
10
628.65616619682316
20
407.5643716510906
10
628.65616619682316
20
403.06437165109185
10
616.65616619682316
20
403.06437165109151
10
616.65616619682396
20
379.0643716510919
10
628.65616619682396
20
379.06437165109224
10
628.6561661968251
20
338.68042749751254
10
616.6561661968251
20
338.6804274975122
10
616.65616619682589
20
314.68042749751254
10
628.65616619682578
20
314.68042749751288
10
628.65616619682623
20
310.18042749751294
10
671.65616619682578
20
310.18042749751436
42
-0.99999999999999989
10
671.65616619682612
20
307.18042749751436
10
628.65616619682635
20
307.18042749751299
10
628.65616619682623
20
302.6804274975143
10
616.65616619682623
20
302.6804274975139
10
616.65616619682703
20
278.68042749751424
10
628.65616619682692
20
278.68042749751464
10
628.65616619682771
20
253.68042749751456
10
945.42194636665488
20
253.68042749752451
42
0.053747944691925641
10
951.81607082761866
20
254.36976096846564
10
1201.6561661968231
20
308.87239957432098
10
1201.6561661968226
20
328.87239957431979
10
1213.6561661968226
20
328.87239957432007
10
1213.6561661968217
20
352.87239957431979
10
1201.6561661968219
20
352.87239957431945
0
CIRCLE
5
379
100
AcDbEntity
8
0
100
AcDbCircle
10
1108.6561661968219
20
358.87239957431734
30
0
40
2.4999999999999867
0
LWPOLYLINE
5
380
100
AcDbEntity
8
0
100
AcDbPolyline
90
4
70
1
43
0.0
10
1102.6561661968221
20
352.87239957431723
10
1078.6561661968224
20
352.87239957431643
10
1078.6561661968219
20
364.87239957431626
10
1102.6561661968217
20
364.87239957431706
0
LWPOLYLINE
5
381
100
AcDbEntity
8
0
100
AcDbPolyline
90
4
70
1
43
0.0
10
1138.6561661968219
20
352.87239957431837
10
1114.6561661968221
20
352.87239957431757
10
1114.6561661968217
20
364.8723995743174
10
1138.6561661968217
20
364.87239957431819
0
LWPOLYLINE
5
382
100
AcDbEntity
8
0
100
AcDbPolyline
90
4
70
1
43
0.0
10
938.65616619682316
20
352.872399574312
10
914.65616619682328
20
352.8723995743112
10
914.65616619682282
20
364.87239957431109
10
938.6561661968226
20
364.87239957431177
0
LWPOLYLINE
5
383
100
AcDbEntity
8
0
100
AcDbPolyline
90
4
70
1
43
0.0
10
902.65616619682316
20
352.87239957431086
10
878.65616619682328
20
352.87239957431007
10
878.65616619682282
20
364.87239957430984
10
902.65616619682282
20
364.87239957431063
0
LWPOLYLINE
5
384
100
AcDbEntity
8
0
100
AcDbPolyline
90
4
70
1
43
0.0
10
738.6561661968243
20
352.87239957430563
10
714.65616619682442
20
352.87239957430484
10
714.65616619682373
20
364.87239957430467
10
738.65616619682373
20
364.8723995743054
0
LWPOLYLINE
5
385
100
AcDbEntity
8
0
100
AcDbPolyline
90
4
70
1
43
0.0
10
702.6561661968243
20
352.87239957430444
10
678.65616619682442
20
352.87239957430364
10
678.65616619682396
20
364.87239957430353
10
702.65616619682373
20
364.87239957430427
0
CIRCLE
5
386
100
AcDbEntity
8
0
100
AcDbCircle
10
908.65616619682305
20
358.87239957431092
30
0
40
2.4999999999999867
0
CIRCLE
5
387
100
AcDbEntity
8
0
100
AcDbCircle
10
708.65616619682419
20
358.87239957430461
30
0
40
2.4999999999999867
0
LWPOLYLINE
5
388
100
AcDbEntity
8
0
100
AcDbPolyline
90
44
70
1
43
0.0
10
1201.6561661968283
20
117.37239957431891
10
1158.6561661968285
20
117.37239957431754
42
-0.99999999999999989
10
1158.6561661968285
20
120.37239957431748
10
1201.6561661968283
20
120.37239957431885
10
1201.6561661968283
20
124.87239957431757
10
1213.6561661968281
20
124.87239957431797
10
1213.6561661968274
20
148.87239957431757
10
1201.6561661968276
20
148.8723995743172
10
1201.6561661968265
20
168.8723995743191
10
951.8160708276198
20
223.37503818015813
42
0.053747944691927861
10
945.42194636665567
20
224.06437165109892
10
628.65616619682839
20
224.06437165108878
10
628.65616619682919
20
199.06437165108952
10
616.65616619682919
20
199.06437165108915
10
616.65616619682999
20
175.06437165108952
10
628.65616619682999
20
175.06437165108991
10
628.65616619683055
20
170.56437165109003
10
671.65616619683021
20
170.56437165109142
42
-0.99999999999999989
10
671.65616619683021
20
167.56437165109151
10
628.65616619683044
20
167.56437165109014
10
628.65616619683033
20
163.06437165109139
10
616.65616619683044
20
163.06437165109099
10
616.65616619683124
20
139.06437165109136
10
628.65616619683112
20
139.06437165109173
10
628.65616619683226
20
98.680427497512198
10
616.65616619683237
20
98.680427497511815
10
616.65616619683317
20
74.680427497512213
10
628.65616619683306
20
74.680427497512596
10
628.65616619683362
20
70.180427497512639
10
671.65616619683328
20
70.18042749751406
42
-0.99999999999999989
10
671.65616619683328
20
67.180427497514074
10
628.65616619683362
20
67.18042749751271
10
628.6561661968334
20
62.680427497514025
10
616.65616619683351
20
62.680427497513655
10
616.65616619683431
20
38.68042749751406
10
628.65616619683419
20
38.680427497514444
10
628.6561661968351
20
13.680427497514421
10
945.42194636666181
20
13.680427497524402
42
0.053747944691926938
10
951.81607082762582
20
14.369760968465535
10
1201.6561661968299
20
68.872399574320667
10
1201.6561661968294
20
88.872399574319417
10
1213.6561661968294
20
88.8723995743198
10
1213.6561661968285
20
112.87239957431942
10
1201.6561661968287
20
112.87239957431902
0
CIRCLE
5
389
100
AcDbEntity
8
0
100
AcDbCircle
10
1108.6561661968287
20
118.8723995743169
30
0
40
2.4999999999999849
0
LWPOLYLINE
5
390
100
AcDbEntity
8
0
100
AcDbPolyline
90
4
70
1
43
0.0
10
1102.656166196829
20
112.8723995743168
10
1078.6561661968292
20
112.87239957431603
10
1078.6561661968287
20
124.87239957431585
10
1102.6561661968285
20
124.87239957431662
0
LWPOLYLINE
5
391
100
AcDbEntity
8
0
100
AcDbPolyline
90
4
70
1
43
0.0
10
1138.6561661968287
20
112.87239957431795
10
1114.656166196829
20
112.8723995743172
10
1114.6561661968285
20
124.872399574317
10
1138.6561661968285
20
124.87239957431777
0
LWPOLYLINE
5
392
100
AcDbEntity
8
0
100
AcDbPolyline
90
4
70
1
43
0.0
10
938.65616619682999
20
112.87239957431157
10
914.65616619683021
20
112.87239957431082
10
914.65616619682987
20
124.87239957431061
10
938.65616619682964
20
124.8723995743114
0
LWPOLYLINE
5
393
100
AcDbEntity
8
0
100
AcDbPolyline
90
4
70
1
43
0.0
10
902.6561661968301
20
112.87239957431042
10
878.65616619683033
20
112.87239957430967
10
878.6561661968301
20
124.87239957430947
10
902.65616619682976
20
124.87239957431024
0
LWPOLYLINE
5
394
100
AcDbEntity
8
0
100
AcDbPolyline
90
4
70
1
43
0.0
10
738.65616619683124
20
112.87239957430518
10
714.65616619683146
20
112.87239957430442
10
714.65616619683124
20
124.87239957430424
10
738.65616619683078
20
124.87239957430501
0
LWPOLYLINE
5
395
100
AcDbEntity
8
0
100
AcDbPolyline
90
4
70
1
43
0.0
10
702.65616619683146
20
112.87239957430404
10
678.65616619683169
20
112.87239957430329
10
678.65616619683124
20
124.87239957430307
10
702.65616619683112
20
124.87239957430387
0
CIRCLE
5
396
100
AcDbEntity
8
0
100
AcDbCircle
10
908.6561661968301
20
118.87239957431052
30
0
40
2.4999999999999849
0
CIRCLE
5
397
100
AcDbEntity
8
0
100
AcDbCircle
10
708.65616619683124
20
118.87239957430413
30
0
40
2.4999999999999849
0
LWPOLYLINE
5
398
100
AcDbEntity
8
0
100
AcDbPolyline
90
66
70
1
43
0.0
10
595.92044183308531
20
88.625541591825851
10
552.92044183308553
20
88.625541591840786
42
-0.99999999999999989
10
552.92044183308633
20
91.625541591840758
10
595.92044183308633
20
91.625541591825794
10
595.92044183308781
20
96.125541591825808
10
607.92044183308792
20
96.125541591821644
10
607.92044183309338
20
112.12554159182154
10
595.92044183309326
20
112.12554159182572
10
595.9204418330977
20
125.12554159182616
10
346.65619859885504
20
190.37796128664564
42
0.064096241315054869
10
339.05880247249888
20
191.35590808396466
10
22.920441833095179
20
191.35590808395506
10
22.920441833106793
20
133.12554159179933
10
10.920441833106898
20
133.1255415918001
10
10.920441833105555
20
109.1255415918002
10
22.920441833105496
20
109.12554159179946
10
22.920441833105222
20
104.62554159179945
10
65.920441833105258
20
104.62554159179678
42
-0.99999999999999989
10
65.920441833105002
20
101.6255415917968
10
22.92044183310507
20
101.62554159179949
10
22.920441833104874
20
97.125541591799475
10
10.920441833104837
20
97.125541591800243
10
10.920441833103494
20
73.125541591800356
10
22.920441833103506
20
73.125541591799589
10
22.920441833101243
20
25.125541591809124
10
72.920441833101236
20
25.125541591810652
10
72.920441833101677
20
13.125541591810698
10
96.920441833101663
20
13.125541591811432
10
96.920441833101236
20
25.125541591811384
10
101.42044183310125
20
25.125541591811515
10
101.42044183309969
20
68.125541591811341
42
-0.99999999999999989
10
104.42044183309969
20
68.125541591811441
10
104.42044183310124
20
25.125541591811611
10
108.92044183310126
20
25.125541591811746
10
108.92044183310176
20
13.125541591811796
10
132.92044183310173
20
13.125541591812528
10
132.92044183310128
20
25.125541591812485
10
272.92044183310134
20
25.125541591816749
10
272.92044183310173
20
13.125541591816797
10
296.92044183310173
20
13.125541591817528
10
296.92044183310134
20
25.12554159181748
10
301.42044183310134
20
25.125541591817615
10
301.4204418330998
20
68.125541591817438
42
-0.99999999999999989
10
304.4204418330998
20
68.125541591817523
10
304.42044183310134
20
25.125541591817711
10
308.92044183310134
20
25.12554159181785
10
308.92044183310179
20
13.125541591817896
10
332.92044183310173
20
13.12554159181863
10
332.92044183310139
20
25.125541591818582
10
472.92044183310139
20
25.125541591822849
10
472.92044183310179
20
13.125541591822895
10
496.92044183310179
20
13.125541591823627
10
496.92044183310139
20
25.125541591823577
10
501.42044183310139
20
25.125541591823719
10
501.42044183309986
20
68.125541591823534
42
-0.99999999999999989
10
504.4204418330998
20
68.125541591823634
10
504.42044183310139
20
25.125541591823808
10
508.92044183310139
20
25.125541591823939
10
508.92044183310185
20
13.125541591823993
10
532.92044183310179
20
13.125541591824728
10
532.92044183310145
20
25.125541591824675
10
595.92044183310134
20
25.1255415918266
10
595.92044183309997
20
61.204525405078201
10
556.92044183310009
20
61.204525405077007
10
556.92044183309974
20
70.204525405076964
10
595.92044183309974
20
70.204525405078158
0
LWPOLYLINE
5
399
100
AcDbEntity
8
0
100
AcDbPolyline
90
66
70
1
43
0.0
10
595.92044183308531
20
295.62554159182588
10
552.92044183308553
20
295.62554159184077
42
-0.99999999999999989
10
552.92044183308633
20
298.62554159184077
10
595.92044183308633
20
298.62554159182582
10
595.92044183308781
20
303.12554159182582
10
607.92044183308792
20
303.12554159182162
10
607.92044183309338
20
319.1255415918215
10
595.92044183309326
20
319.12554159182571
10
595.9204418330977
20
332.12554159182616
10
346.65619859885504
20
397.37796128664564
42
0.064096241315055091
10
339.05880247249888
20
398.35590808396466
10
22.920441833095179
20
398.355908083955
10
22.920441833106793
20
340.12554159179933
10
10.920441833106898
20
340.12554159180013
10
10.920441833105555
20
316.12554159180024
10
22.920441833105496
20
316.12554159179945
10
22.920441833105222
20
311.62554159179945
10
65.920441833105258
20
311.62554159179678
42
-0.99999999999999989
10
65.920441833105002
20
308.62554159179683
10
22.92044183310507
20
308.62554159179945
10
22.920441833104874
20
304.12554159179945
10
10.920441833104837
20
304.12554159180024
10
10.920441833103494
20
280.12554159180036
10
22.920441833103506
20
280.12554159179956
10
22.920441833101243
20
232.12554159180911
10
72.920441833101236
20
232.12554159181065
10
72.920441833101677
20
220.12554159181067
10
96.920441833101663
20
220.12554159181144
10
96.920441833101236
20
232.12554159181138
10
101.42044183310125
20
232.1255415918115
10
101.42044183309969
20
275.12554159181138
42
-0.99999999999999989
10
104.42044183309969
20
275.12554159181144
10
104.42044183310124
20
232.12554159181161
10
108.92044183310126
20
232.12554159181173
10
108.92044183310176
20
220.12554159181178
10
132.92044183310173
20
220.12554159181252
10
132.92044183310128
20
232.12554159181249
10
272.92044183310134
20
232.12554159181676
10
272.92044183310173
20
220.12554159181678
10
296.92044183310173
20
220.12554159181749
10
296.92044183310134
20
232.12554159181747
10
301.42044183310134
20
232.12554159181761
10
301.4204418330998
20
275.12554159181741
42
-0.99999999999999989
10
304.4204418330998
20
275.12554159181752
10
304.42044183310134
20
232.12554159181769
10
308.92044183310134
20
232.12554159181786
10
308.92044183310179
20
220.12554159181786
10
332.92044183310173
20
220.1255415918186
10
332.92044183310139
20
232.12554159181855
10
472.92044183310139
20
232.12554159182287
10
472.92044183310179
20
220.12554159182287
10
496.92044183310179
20
220.12554159182361
10
496.92044183310139
20
232.12554159182358
10
501.42044183310139
20
232.12554159182372
10
501.42044183309986
20
275.12554159182355
42
-0.99999999999999989
10
504.4204418330998
20
275.12554159182361
10
504.42044183310139
20
232.12554159182378
10
508.92044183310139
20
232.12554159182395
10
508.92044183310185
20
220.12554159182397
10
532.92044183310179
20
220.12554159182471
10
532.92044183310145
20
232.12554159182469
10
595.92044183310134
20
232.12554159182659
10
595.92044183309997
20
268.20452540507813
10
556.92044183310009
20
268.20452540507699
10
556.92044183309974
20
277.20452540507699
10
595.92044183309974
20
277.20452540507813
0
LWPOLYLINE
5
400
100
AcDbEntity
8
0
100
AcDbPolyline
90
66
70
1
43
0.0
10
595.92044183308531
20
502.62554159182582
10
552.92044183308553
20
502.62554159184083
42
-0.99999999999999989
10
552.92044183308633
20
505.62554159184083
10
595.92044183308633
20
505.62554159182582
10
595.92044183308781
20
510.12554159182582
10
607.92044183308792
20
510.12554159182162
10
607.92044183309338
20
526.1255415918215
10
595.92044183309326
20
526.12554159182571
10
595.9204418330977
20
539.12554159182616
10
346.65619859885504
20
604.3779612866457
42
0.064096241315055091
10
339.05880247249888
20
605.35590808396466
10
22.920441833095179
20
605.355908083955
10
22.920441833106793
20
547.12554159179933
10
10.920441833106898
20
547.12554159180013
10
10.920441833105555
20
523.12554159180024
10
22.920441833105496
20
523.12554159179945
10
22.920441833105222
20
518.62554159179945
10
65.920441833105258
20
518.62554159179683
42
-0.99999999999999989
10
65.920441833105002
20
515.62554159179683
10
22.92044183310507
20
515.62554159179956
10
22.920441833104874
20
511.1255415917995
10
10.920441833104837
20
511.1255415918003
10
10.920441833103494
20
487.12554159180036
10
22.920441833103506
20
487.12554159179956
10
22.920441833101243
20
439.12554159180922
10
72.920441833101236
20
439.1255415918107
10
72.920441833101677
20
427.12554159181076
10
96.920441833101663
20
427.12554159181144
10
96.920441833101236
20
439.12554159181138
10
101.42044183310125
20
439.12554159181155
10
101.42044183309969
20
482.12554159181133
42
-0.99999999999999989
10
104.42044183309969
20
482.12554159181144
10
104.42044183310124
20
439.12554159181161
10
108.92044183310126
20
439.12554159181178
10
108.92044183310176
20
427.12554159181184
10
132.92044183310173
20
427.12554159181252
10
132.92044183310128
20
439.12554159181246
10
272.92044183310134
20
439.12554159181673
10
272.92044183310173
20
427.12554159181684
10
296.92044183310173
20
427.12554159181758
10
296.92044183310134
20
439.12554159181752
10
301.42044183310134
20
439.12554159181764
10
301.4204418330998
20
482.12554159181741
42
-0.99999999999999989
10
304.4204418330998
20
482.12554159181758
10
304.42044183310134
20
439.12554159181775
10
308.92044183310134
20
439.12554159181786
10
308.92044183310179
20
427.12554159181792
10
332.92044183310173
20
427.12554159181866
10
332.92044183310139
20
439.1255415918186
10
472.92044183310139
20
439.12554159182287
10
472.92044183310179
20
427.12554159182298
10
496.92044183310179
20
427.12554159182366
10
496.92044183310139
20
439.12554159182355
10
501.42044183310139
20
439.12554159182372
10
501.42044183309986
20
482.12554159182355
42
-0.99999999999999989
10
504.4204418330998
20
482.12554159182366
10
504.42044183310139
20
439.12554159182383
10
508.92044183310139
20
439.125541591824
10
508.92044183310185
20
427.125541591824
10
532.92044183310179
20
427.12554159182474
10
532.92044183310145
20
439.12554159182469
10
595.92044183310134
20
439.12554159182662
10
595.92044183309997
20
475.20452540507824
10
556.92044183310009
20
475.20452540507699
10
556.92044183309974
20
484.20452540507699
10
595.92044183309974
20
484.20452540507819
0
LWPOLYLINE
5
401
100
AcDbEntity
8
0
100
AcDbPolyline
90
66
70
1
43
0.0
10
595.92044183308531
20
709.62554159182571
10
552.92044183308553
20
709.62554159184083
42
-0.99999999999999989
10
552.92044183308633
20
712.6255415918406
10
595.92044183308633
20
712.62554159182571
10
595.92044183308781
20
717.12554159182559
10
607.92044183308792
20
717.1255415918215
10
607.92044183309338
20
733.1255415918215
10
595.92044183309326
20
733.12554159182571
10
595.9204418330977
20
746.12554159182605
10
346.65619859885504
20
811.37796128664547
42
0.064096241315055091
10
339.05880247249888
20
812.35590808396466
10
22.920441833095179
20
812.355908083955
10
22.920441833106793
20
754.12554159179933
10
10.920441833106898
20
754.12554159180002
10
10.920441833105555
20
730.12554159180002
10
22.920441833105496
20
730.12554159179945
10
22.920441833105222
20
725.62554159179945
10
65.920441833105258
20
725.62554159179683
42
-0.99999999999999989
10
65.920441833105002
20
722.62554159179672
10
22.92044183310507
20
722.62554159179945
10
22.920441833104874
20
718.12554159179945
10
10.920441833104837
20
718.12554159180024
10
10.920441833103494
20
694.12554159180013
10
22.920441833103506
20
694.12554159179945
10
22.920441833101243
20
646.125541591809
10
72.920441833101236
20
646.12554159181059
10
72.920441833101677
20
634.12554159181059
10
96.920441833101663
20
634.12554159181138
10
96.920441833101236
20
646.12554159181127
10
101.42044183310125
20
646.1255415918115
10
101.42044183309969
20
689.12554159181116
42
-0.99999999999999989
10
104.42044183309969
20
689.12554159181138
10
104.42044183310124
20
646.12554159181161
10
108.92044183310126
20
646.12554159181161
10
108.92044183310176
20
634.12554159181173
10
132.92044183310173
20
634.12554159181252
10
132.92044183310128
20
646.12554159181241
10
272.92044183310134
20
646.1255415918165
10
272.92044183310173
20
634.12554159181673
10
296.92044183310173
20
634.12554159181741
10
296.92044183310134
20
646.12554159181741
10
301.42044183310134
20
646.12554159181752
10
301.4204418330998
20
689.12554159181741
42
-0.99999999999999989
10
304.4204418330998
20
689.12554159181741
10
304.42044183310134
20
646.12554159181752
10
308.92044183310134
20
646.12554159181764
10
308.92044183310179
20
634.12554159181786
10
332.92044183310173
20
634.12554159181855
10
332.92044183310139
20
646.12554159181855
10
472.92044183310139
20
646.12554159182264
10
472.92044183310179
20
634.12554159182287
10
496.92044183310179
20
634.12554159182355
10
496.92044183310139
20
646.12554159182355
10
501.42044183310139
20
646.12554159182366
10
501.42044183309986
20
689.12554159182355
42
-0.99999999999999989
10
504.4204418330998
20
689.12554159182355
10
504.42044183310139
20
646.12554159182366
10
508.92044183310139
20
646.12554159182378
10
508.92044183310185
20
634.12554159182389
10
532.92044183310179
20
634.12554159182457
10
532.92044183310145
20
646.12554159182446
10
595.92044183310134
20
646.1255415918265
10
595.92044183309997
20
682.20452540507813
10
556.92044183310009
20
682.20452540507699
10
556.92044183309974
20
691.20452540507699
10
595.92044183309974
20
691.20452540507802
0
LWPOLYLINE
5
402
100
AcDbEntity
8
0
100
AcDbPolyline
90
66
70
1
43
0.0
10
595.92044183308531
20
916.62554159182582
10
552.92044183308553
20
916.62554159184083
42
-0.99999999999999989
10
552.92044183308633
20
919.6255415918406
10
595.92044183308633
20
919.62554159182571
10
595.92044183308781
20
924.12554159182559
10
607.92044183308792
20
924.1255415918215
10
607.92044183309338
20
940.12554159182162
10
595.92044183309326
20
940.12554159182571
10
595.9204418330977
20
953.12554159182605
10
346.65619859885504
20
1018.3779612866455
42
0.064096241315055091
10
339.05880247249888
20
1019.3559080839647
10
22.920441833095179
20
1019.3559080839549
10
22.920441833106793
20
961.12554159179933
10
10.920441833106898
20
961.12554159180013
10
10.920441833105555
20
937.12554159180013
10
22.920441833105496
20
937.12554159179945
10
22.920441833105222
20
932.62554159179945
10
65.920441833105258
20
932.6255415917966
42
-0.99999999999999989
10
65.920441833105002
20
929.62554159179672
10
22.92044183310507
20
929.62554159179945
10
22.920441833104874
20
925.12554159179945
10
10.920441833104837
20
925.12554159180024
10
10.920441833103494
20
901.12554159180024
10
22.920441833103506
20
901.12554159179945
10
22.920441833101243
20
853.125541591809
10
72.920441833101236
20
853.12554159181047
10
72.920441833101677
20
841.12554159181059
10
96.920441833101663
20
841.1255415918115
10
96.920441833101236
20
853.12554159181127
10
101.42044183310125
20
853.1255415918115
10
101.42044183309969
20
896.12554159181116
42
-0.99999999999999989
10
104.42044183309969
20
896.1255415918115
10
104.42044183310124
20
853.12554159181161
10
108.92044183310126
20
853.12554159181161
10
108.92044183310176
20
841.12554159181173
10
132.92044183310173
20
841.12554159181263
10
132.92044183310128
20
853.12554159181241
10
272.92044183310134
20
853.12554159181661
10
272.92044183310173
20
841.12554159181673
10
296.92044183310173
20
841.12554159181752
10
296.92044183310134
20
853.12554159181741
10
301.42044183310134
20
853.12554159181764
10
301.4204418330998
20
896.12554159181741
42
-0.99999999999999989
10
304.4204418330998
20
896.12554159181741
10
304.42044183310134
20
853.12554159181764
10
308.92044183310134
20
853.12554159181775
10
308.92044183310179
20
841.12554159181786
10
332.92044183310173
20
841.12554159181866
10
332.92044183310139
20
853.12554159181855
10
472.92044183310139
20
853.12554159182264
10
472.92044183310179
20
841.12554159182287
10
496.92044183310179
20
841.12554159182366
10
496.92044183310139
20
853.12554159182355
10
501.42044183310139
20
853.12554159182366
10
501.42044183309986
20
896.12554159182355
42
-0.99999999999999989
10
504.4204418330998
20
896.12554159182355
10
504.42044183310139
20
853.12554159182366
10
508.92044183310139
20
853.12554159182378
10
508.92044183310185
20
841.125541591824
10
532.92044183310179
20
841.12554159182469
10
532.92044183310145
20
853.12554159182457
10
595.92044183310134
20
853.1255415918265
10
595.92044183309997
20
889.20452540507813
10
556.92044183310009
20
889.20452540507699
10
556.92044183309974
20
898.20452540507699
10
595.92044183309974
20
898.20452540507802
0
LWPOLYLINE
5
403
100
AcDbEntity
8
0
100
AcDbPolyline
90
66
70
1
43
0.0
10
595.92044183308531
20
1123.6255415918258
10
552.92044183308553
20
1123.6255415918408
42
-0.99999999999999989
10
552.92044183308633
20
1126.6255415918406
10
595.92044183308633
20
1126.6255415918258
10
595.92044183308781
20
1131.1255415918256
10
607.92044183308792
20
1131.1255415918215
10
607.92044183309338
20
1147.1255415918217
10
595.92044183309326
20
1147.1255415918258
10
595.9204418330977
20
1160.125541591826
10
346.65619859885504
20
1225.3779612866456
42
0.064096241315055091
10
339.05880247249888
20
1226.3559080839648
10
22.920441833095179
20
1226.355908083955
10
22.920441833106793
20
1168.1255415917994
10
10.920441833106898
20
1168.1255415918001
10
10.920441833105555
20
1144.1255415918001
10
22.920441833105496
20
1144.1255415917994
10
22.920441833105222
20
1139.6255415917994
10
65.920441833105258
20
1139.6255415917969
42
-0.99999999999999989
10
65.920441833105002
20
1136.6255415917967
10
22.92044183310507
20
1136.6255415917994
10
22.920441833104874
20
1132.1255415917994
10
10.920441833104837
20
1132.1255415918004
10
10.920441833103494
20
1108.1255415918004
10
22.920441833103506
20
1108.1255415917994
10
22.920441833101243
20
1060.125541591809
10
72.920441833101236
20
1060.1255415918106
10
72.920441833101677
20
1048.1255415918106
10
96.920441833101663
20
1048.1255415918115
10
96.920441833101236
20
1060.1255415918113
10
101.42044183310125
20
1060.1255415918115
10
101.42044183309969
20
1103.1255415918113
42
-0.99999999999999989
10
104.42044183309969
20
1103.1255415918115
10
104.42044183310124
20
1060.1255415918117
10
108.92044183310126
20
1060.1255415918117
10
108.92044183310176
20
1048.1255415918117
10
132.92044183310173
20
1048.1255415918126
10
132.92044183310128
20
1060.1255415918124
10
272.92044183310134
20
1060.1255415918167
10
272.92044183310173
20
1048.1255415918167
10
296.92044183310173
20
1048.1255415918176
10
296.92044183310134
20
1060.1255415918174
10
301.42044183310134
20
1060.1255415918176
10
301.4204418330998
20
1103.1255415918174
42
-0.99999999999999989
10
304.4204418330998
20
1103.1255415918174
10
304.42044183310134
20
1060.1255415918176
10
308.92044183310134
20
1060.1255415918176
10
308.92044183310179
20
1048.1255415918179
10
332.92044183310173
20
1048.1255415918188
10
332.92044183310139
20
1060.1255415918185
10
472.92044183310139
20
1060.1255415918226
10
472.92044183310179
20
1048.1255415918229
10
496.92044183310179
20
1048.1255415918238
10
496.92044183310139
20
1060.1255415918235
10
501.42044183310139
20
1060.1255415918238
10
501.42044183309986
20
1103.1255415918235
42
-0.99999999999999989
10
504.4204418330998
20
1103.1255415918235
10
504.42044183310139
20
1060.1255415918238
10
508.92044183310139
20
1060.1255415918238
10
508.92044183310185
20
1048.125541591824
10
532.92044183310179
20
1048.1255415918247
10
532.92044183310145
20
1060.1255415918245
10
595.92044183310134
20
1060.1255415918265
10
595.92044183309997
20
1096.2045254050781
10
556.92044183310009
20
1096.204525405077
10
556.92044183309974
20
1105.204525405077
10
595.92044183309974
20
1105.2045254050781
0
LWPOLYLINE
5
404
100
AcDbEntity
8
0
100
AcDbPolyline
90
4
70
1
43
0.0
10
483.27227716054244
20
1370.8492722218471
10
483.27227716054296
20
1354.8492722218473
10
471.2722771605429
20
1354.8492722218471
10
471.27227716054233
20
1370.8492722218468
0
CIRCLE
5
405
100
AcDbEntity
8
0
100
AcDbCircle
10
477.27227716054307
20
1348.8492722218471
30
0
40
2.5000000000000138
0
LWPOLYLINE
5
406
100
AcDbEntity
8
0
100
AcDbPolyline
90
4
70
1
43
0.0
10
447.27227716054722
20
1283.8492722218512
10
471.27227716054733
20
1283.8492722218518
10
471.27227716054767
20
1271.8492722218518
10
447.27227716054756
20
1271.8492722218512
0
CIRCLE
5
407
100
AcDbEntity
8
0
100
AcDbCircle
10
477.2722771605458
20
1277.849272221853
30
0
40
2.5000000000000138
0
LWPOLYLINE
5
408
100
AcDbEntity
8
0
100
AcDbPolyline
90
4
70
1
43
0.0
10
483.27227716054608
20
1283.8492722218527
10
507.2722771605462
20
1283.8492722218509
10
507.27227716054551
20
1271.8492722218509
10
483.27227716054529
20
1271.8492722218527
0
CIRCLE
5
409
100
AcDbEntity
8
0
100
AcDbCircle
10
477.27227716054387
20
1324.4282560350996
30
0
40
4.0000000000000266
0
LWPOLYLINE
5
410
100
AcDbEntity
8
0
100
AcDbPolyline
90
12
70
1
43
0.0
10
539.27227716054608
20
1262.8492722218498
42
-0.41421356237310197
10
536.27227716054608
20
1259.8492722218498
10
418.27227716054546
20
1259.8492722218466
42
-0.41421356237308815
10
415.27227716054534
20
1262.8492722218466
10
415.27227716054472
20
1285.7417272316156
42
-0.10399925063093904
10
415.52633206327641
20
1286.9499430744136
10
462.65365185897502
20
1394.0574880646452
42
-0.29740282266165469
10
465.39959695624333
20
1395.8492722218471
10
489.14495736484008
20
1395.8492722218475
42
-0.29740282266166235
10
491.89090246210839
20
1394.0574880646457
10
539.01822225781359
20
1286.9499430744168
42
-0.10399925063095834
10
539.2722771605454
20
1285.7417272316184
0
LWPOLYLINE
5
411
100
AcDbEntity
8
0
100
AcDbPolyline
90
4
70
1
43
0.0
10
243.23484508484401
20
1355.0987131068164
10
243.23484508485248
20
1371.0987131068164
10
255.23484508485254
20
1371.0987131068098
10
255.2348450848441
20
1355.0987131068098
0
CIRCLE
5
412
100
AcDbEntity
8
0
100
AcDbCircle
10
249.23484508485569
20
1377.0987131068127
30
0
40
2.5000000000000133
0
LWPOLYLINE
5
413
100
AcDbEntity
8
0
100
AcDbPolyline
90
4
70
1
43
0.0
10
279.23484508488792
20
1442.0987131067923
10
255.23484508488781
20
1442.098713106805
10
255.23484508489415
20
1454.098713106805
10
279.23484508489423
20
1454.0987131067923
0
CIRCLE
5
414
100
AcDbEntity
8
0
100
AcDbCircle
10
249.2348450848927
20
1448.0987131068071
30
0
40
2.5000000000000133
0
LWPOLYLINE
5
415
100
AcDbEntity
8
0
100
AcDbPolyline
90
4
70
1
43
0.0
10
243.23484508488903
20
1442.0987131068109
10
219.23484508488889
20
1442.0987131068259
10
219.23484508489636
20
1454.0987131068257
10
243.23484508489645
20
1454.0987131068107
0
CIRCLE
5
416
100
AcDbEntity
8
0
100
AcDbCircle
10
249.2348450848686
20
1401.5197292935604
30
0
40
4.0000000000000249
0
LWPOLYLINE
5
417
100
AcDbEntity
8
0
100
AcDbPolyline
90
12
70
1
43
0.0
10
187.23484508490071
20
1463.098713106845
42
-0.41421356237307771
10
190.23484508490236
20
1466.0987131068437
10
308.23484508490304
20
1466.0987131067805
42
-0.41421356237310897
10
311.23484508490145
20
1463.0987131067786
10
311.2348450848894
20
1440.2062580970098
42
-0.10399925063092411
10
310.98079018215702
20
1438.9980422542121
10
263.85347038639856
20
1331.8904972640071
42
-0.29740282266166224
10
261.10752528912923
20
1330.0987131068064
10
237.36216488053248
20
1330.0987131068189
42
-0.29740282266165813
10
234.61621978326508
20
1331.8904972640223
10
187.48889998761979
20
1438.9980422542781
42
-0.10399925063094892
10
187.23484508488869
20
1440.2062580970764
0
LWPOLYLINE
5
418
100
AcDbEntity
8
0
100
AcDbPolyline
90
4
70
1
43
0.0
10
0
20
2440
10
0
20
0
10
1220
20
0
10
1220
20
2440
0
ENDSEC
0
SECTION
2
OBJECTS
0
DICTIONARY
5
C
100
AcDbDictionary
3
ACAD_GROUP
350
D
3
ACAD_MLINESTYLE
350
17
0
DICTIONARY
5
D
100
AcDbDictionary
0
DICTIONARY
5
1A
330
C
100
AcDbDictionary
0
DICTIONARY
5
17
100
AcDbDictionary
0
ENDSEC
0
EOF
