0
SECTION
2
HEADER
9
$INSUNITS
70
4
9
$ACADVER
1
AC1014
9
$HANDSEED
5
FFFF
0
ENDSEC
0
SECTION
2
TABLES
0
TABLE
2
VPORT
5
8
100
AcDbSymbolTable
0
ENDTAB
0
TABLE
2
LTYPE
5
5
100
AcDbSymbolTable
0
LTYPE
5
14
100
AcDbSymbolTableRecord
100
AcDbLinetypeTableRecord
2
BYBLOCK
70
0
0
LTYPE
5
15
100
AcDbSymbolTableRecord
100
AcDbLinetypeTableRecord
2
BYLAYER
70
0
0
ENDTAB
0
TABLE
2
LAYER
5
2
100
AcDbSymbolTable
70
2
0
LAYER
5
50
100
AcDbSymbolTableRecord
100
AcDbLayerTableRecord
2
0
70
0
6
CONTINUOUS
0
ENDTAB
0
TABLE
2
STYLE
5
3
100
AcDbSymbolTable
70
1
0
STYLE
5
11
100
AcDbSymbolTableRecord
100
AcDbTextStyleTableRecord
2
STANDARD
70
0
0
ENDTAB
0
TABLE
2
VIEW
5
6
100
AcDbSymbolTable
70
0
0
ENDTAB
0
TABLE
2
UCS
5
7
100
AcDbSymbolTable
70
0
0
ENDTAB
0
TABLE
2
APPID
5
9
100
AcDbSymbolTable
70
2
0
APPID
5
12
100
AcDbSymbolTableRecord
100
AcDbRegAppTableRecord
2
ACAD
70
0
0
ENDTAB
0
TABLE
2
DIMSTYLE
5
A
100
AcDbSymbolTable
70
1
0
ENDTAB
0
TABLE
2
BLOCK_RECORD
5
1
100
AcDbSymbolTable
70
1
0
BLOCK_RECORD
5
1F
100
AcDbSymbolTableRecord
100
AcDbBlockTableRecord
2
*MODEL_SPACE
0
BLOCK_RECORD
5
1B
100
AcDbSymbolTableRecord
100
AcDbBlockTableRecord
2
*PAPER_SPACE
0
ENDTAB
0
ENDSEC
0
SECTION
2
BLOCKS
0
BLOCK
5
20
100
AcDbEntity
100
AcDbBlockBegin
2
*MODEL_SPACE
0
ENDBLK
5
21
100
AcDbEntity
100
AcDbBlockEnd
0
BLOCK
5
1C
100
AcDbEntity
100
AcDbBlockBegin
2
*PAPER_SPACE
0
ENDBLK
5
1D
100
AcDbEntity
100
AcDbBlockEnd
0
ENDSEC
0
SECTION
2
ENTITIES
0
LWPOLYLINE
5
100
100
AcDbEntity
8
0
100
AcDbPolyline
90
4
70
1
43
0.0
10
0
20
0
10
0
20
2440
10
1220
20
2440
10
1220
20
0
0
CIRCLE
5
101
100
AcDbEntity
8
0
100
AcDbCircle
10
105.0003333333332
20
635.99999999999909
30
0
40
2.5
0
LWPOLYLINE
5
102
100
AcDbEntity
8
0
100
AcDbPolyline
90
4
70
1
43
0.0
10
109.00033333333305
20
1748.9999999999991
10
101.00033333333307
20
1748.9999999999991
10
101.00033333333307
20
1732.9999999999993
10
109.00033333333305
20
1732.9999999999993
0
LWPOLYLINE
5
103
100
AcDbEntity
8
0
100
AcDbPolyline
90
4
70
1
43
0.0
10
109.00033333333305
20
1778.9999999999991
10
101.00033333333307
20
1778.9999999999991
10
101.00033333333307
20
1762.9999999999993
10
109.00033333333305
20
1762.9999999999993
0
LWPOLYLINE
5
104
100
AcDbEntity
8
0
100
AcDbPolyline
90
4
70
1
43
0.0
10
109.00033333333312
20
628.9999999999992
10
101.00033333333315
20
628.9999999999992
10
101.00033333333315
20
612.99999999999932
10
109.00033333333312
20
612.99999999999932
0
LWPOLYLINE
5
105
100
AcDbEntity
8
0
100
AcDbPolyline
90
4
70
1
43
0.0
10
109.00033333333312
20
658.9999999999992
10
101.00033333333315
20
658.9999999999992
10
101.00033333333315
20
642.99999999999932
10
109.00033333333312
20
642.99999999999932
0
CIRCLE
5
106
100
AcDbEntity
8
0
100
AcDbCircle
10
105.00033333333313
20
1195.9999999999991
30
0
40
2.5
0
CIRCLE
5
107
100
AcDbEntity
8
0
100
AcDbCircle
10
105.00033333333313
20
1755.9999999999991
30
0
40
2.5
0
LWPOLYLINE
5
108
100
AcDbEntity
8
0
100
AcDbPolyline
90
4
70
1
43
0.0
10
109.00033333333305
20
1188.9999999999991
10
101.00033333333307
20
1188.9999999999991
10
101.00033333333307
20
1172.9999999999993
10
109.00033333333305
20
1172.9999999999993
0
LWPOLYLINE
5
109
100
AcDbEntity
8
0
100
AcDbPolyline
90
4
70
1
43
0.0
10
109.00033333333305
20
1218.9999999999991
10
101.00033333333307
20
1218.9999999999991
10
101.00033333333307
20
1202.9999999999993
10
109.00033333333305
20
1202.9999999999993
0
CIRCLE
5
110
100
AcDbEntity
8
0
100
AcDbCircle
10
1114.9996666666666
20
635.99999999999909
30
0
40
2.5
0
CIRCLE
5
111
100
AcDbEntity
8
0
100
AcDbCircle
10
1114.9996666666666
20
1195.9999999999991
30
0
40
2.5
0
LWPOLYLINE
5
112
100
AcDbEntity
8
0
100
AcDbPolyline
90
4
70
1
43
0.0
10
1118.9996666666666
20
1218.9999999999991
10
1110.9996666666666
20
1218.9999999999991
10
1110.9996666666664
20
1202.9999999999993
10
1118.9996666666664
20
1202.9999999999993
0
LWPOLYLINE
5
113
100
AcDbEntity
8
0
100
AcDbPolyline
90
4
70
1
43
0.0
10
1118.9996666666666
20
1188.9999999999991
10
1110.9996666666666
20
1188.9999999999991
10
1110.9996666666664
20
1172.9999999999993
10
1118.9996666666664
20
1172.9999999999993
0
LWPOLYLINE
5
114
100
AcDbEntity
8
0
100
AcDbPolyline
90
4
70
1
43
0.0
10
1118.9996666666666
20
658.9999999999992
10
1110.9996666666666
20
658.9999999999992
10
1110.9996666666666
20
642.99999999999932
10
1118.9996666666666
20
642.99999999999932
0
CIRCLE
5
115
100
AcDbEntity
8
0
100
AcDbCircle
10
1114.9996666666666
20
1755.9999999999991
30
0
40
2.5
0
LWPOLYLINE
5
116
100
AcDbEntity
8
0
100
AcDbPolyline
90
4
70
1
43
0.0
10
1118.9996666666666
20
628.9999999999992
10
1110.9996666666666
20
628.9999999999992
10
1110.9996666666666
20
612.99999999999932
10
1118.9996666666666
20
612.99999999999932
0
LWPOLYLINE
5
117
100
AcDbEntity
8
0
100
AcDbPolyline
90
4
70
1
43
0.0
10
1118.9996666666666
20
1778.9999999999991
10
1110.9996666666666
20
1778.9999999999991
10
1110.9996666666664
20
1762.9999999999993
10
1118.9996666666664
20
1762.9999999999993
0
LWPOLYLINE
5
118
100
AcDbEntity
8
0
100
AcDbPolyline
90
4
70
1
43
0.0
10
1118.9996666666666
20
1748.9999999999991
10
1110.9996666666666
20
1748.9999999999991
10
1110.9996666666664
20
1732.9999999999993
10
1118.9996666666664
20
1732.9999999999993
0
CIRCLE
5
119
100
AcDbEntity
8
0
100
AcDbCircle
10
1160
20
355.99999999999966
30
0
40
2.9999999999999716
0
CIRCLE
5
120
100
AcDbEntity
8
0
100
AcDbCircle
10
60
20
355.99999999999966
30
0
40
2.9999999999999716
0
LWPOLYLINE
5
121
100
AcDbEntity
8
0
100
AcDbPolyline
90
10
70
1
43
0.0
10
1214.5617376914277
20
1880.9999999999991
42
-1.4638501092479395
10
1209.4382623082256
20
1880.9999999999991
10
10.561737691490549
20
1880.9999999999991
42
-1.4638501094229843
10
5.4382623085112201
20
1880.9999999999991
10
-7.1054273576010019e-14
20
1880.9999999999991
10
4.3298697960381105e-14
20
10
42
0.41421356237309509
10
10
20
-2.2204460492503131e-15
10
1210
20
7.3274719625260332e-14
42
0.41421356237310203
10
1220
20
10
10
1219.9999999999998
20
1880.9999999999991
0
CIRCLE
5
122
100
AcDbEntity
8
0
100
AcDbCircle
10
1211.9999999998977
20
1700.000000000284
30
0
40
3.0000000000001137
0
CIRCLE
5
123
100
AcDbEntity
8
0
100
AcDbCircle
10
1211.9999999999732
20
1508.000000000284
30
0
40
2.7499999999997726
0
CIRCLE
5
124
100
AcDbEntity
8
0
100
AcDbCircle
10
1211.999999999945
20
1580.000000000284
30
0
40
2.7499999999997726
0
CIRCLE
5
125
100
AcDbEntity
8
0
100
AcDbCircle
10
1211.9999999998859
20
1730.0000000002842
30
0
40
2.7499999999997726
0
CIRCLE
5
126
100
AcDbEntity
8
0
100
AcDbCircle
10
1211.9999999999834
20
1482.0000000002838
30
0
40
2.7499999999997726
0
CIRCLE
5
127
100
AcDbEntity
8
0
100
AcDbCircle
10
1212.0000000000591
20
1290.000000000284
30
0
40
3.0000000000001137
0
CIRCLE
5
128
100
AcDbEntity
8
0
100
AcDbCircle
10
1212.0000000001774
20
990.00000000028399
30
0
40
3.0000000000001137
0
CIRCLE
5
129
100
AcDbEntity
8
0
100
AcDbCircle
10
1212.0000000002956
20
690.00000000028399
30
0
40
3.0000000000001137
0
CIRCLE
5
130
100
AcDbEntity
8
0
100
AcDbCircle
10
1212.0000000004138
20
390.00000000028422
30
0
40
3.0000000000001137
0
CIRCLE
5
131
100
AcDbEntity
8
0
100
AcDbCircle
10
1212.0000000000118
20
1410.000000000284
30
0
40
2.7499999999997726
0
CIRCLE
5
132
100
AcDbEntity
8
0
100
AcDbCircle
10
1212.0000000000709
20
1260.000000000284
30
0
40
2.7499999999997726
0
CIRCLE
5
133
100
AcDbEntity
8
0
100
AcDbCircle
10
1212.0000000001301
20
1110.000000000284
30
0
40
2.7499999999997726
0
CIRCLE
5
134
100
AcDbEntity
8
0
100
AcDbCircle
10
1212.0000000001892
20
960.00000000028399
30
0
40
2.7499999999997726
0
CIRCLE
5
135
100
AcDbEntity
8
0
100
AcDbCircle
10
1212.0000000002483
20
810.00000000028399
30
0
40
2.7499999999997726
0
CIRCLE
5
136
100
AcDbEntity
8
0
100
AcDbCircle
10
1212.0000000003074
20
660.00000000028399
30
0
40
2.7499999999997726
0
CIRCLE
5
137
100
AcDbEntity
8
0
100
AcDbCircle
10
1212.0000000003665
20
510.00000000028393
30
0
40
2.7499999999997726
0
CIRCLE
5
138
100
AcDbEntity
8
0
100
AcDbCircle
10
1212.0000000004256
20
360.00000000028422
30
0
40
2.7499999999997726
0
CIRCLE
5
139
100
AcDbEntity
8
0
100
AcDbCircle
10
1212.0000000004848
20
210.00000000028422
30
0
40
2.7499999999997726
0
CIRCLE
5
140
100
AcDbEntity
8
0
100
AcDbCircle
10
1212.0000000005321
20
90.000000000284217
30
0
40
3.0000000000001137
0
CIRCLE
5
141
100
AcDbEntity
8
0
100
AcDbCircle
10
1212.0000000005439
20
60.000000000284217
30
0
40
2.7499999999997726
0
CIRCLE
5
142
100
AcDbEntity
8
0
100
AcDbCircle
10
8.0000000000006821
20
989.99999999999909
30
0
40
3.0000000000001137
0
CIRCLE
5
143
100
AcDbEntity
8
0
100
AcDbCircle
10
8.0000000000006821
20
1289.9999999999991
30
0
40
3.0000000000001137
0
CIRCLE
5
144
100
AcDbEntity
8
0
100
AcDbCircle
10
8.000000000000469
20
389.99999999999915
30
0
40
3.0000000000001137
0
CIRCLE
5
145
100
AcDbEntity
8
0
100
AcDbCircle
10
8.0000000000003268
20
89.999999999999147
30
0
40
3.0000000000001137
0
CIRCLE
5
146
100
AcDbEntity
8
0
100
AcDbCircle
10
8.0000000000003268
20
59.999999999999147
30
0
40
2.7499999999997726
0
CIRCLE
5
147
100
AcDbEntity
8
0
100
AcDbCircle
10
8.00000000000054
20
689.99999999999909
30
0
40
3.0000000000001137
0
CIRCLE
5
148
100
AcDbEntity
8
0
100
AcDbCircle
10
8.0000000000007532
20
1481.9999999999991
30
0
40
2.7499999999997726
0
CIRCLE
5
149
100
AcDbEntity
8
0
100
AcDbCircle
10
8.0000000000006821
20
959.99999999999909
30
0
40
2.7499999999997726
0
CIRCLE
5
150
100
AcDbEntity
8
0
100
AcDbCircle
10
8.0000000000007532
20
1409.9999999999991
30
0
40
2.7499999999997726
0
CIRCLE
5
151
100
AcDbEntity
8
0
100
AcDbCircle
10
8.00000000000054
20
659.99999999999909
30
0
40
2.7499999999997726
0
CIRCLE
5
152
100
AcDbEntity
8
0
100
AcDbCircle
10
8.0000000000006821
20
1259.9999999999991
30
0
40
2.7499999999997726
0
CIRCLE
5
153
100
AcDbEntity
8
0
100
AcDbCircle
10
8.0000000000003979
20
209.99999999999915
30
0
40
2.7499999999997726
0
CIRCLE
5
154
100
AcDbEntity
8
0
100
AcDbCircle
10
8.000000000000469
20
509.99999999999915
30
0
40
2.7499999999997726
0
CIRCLE
5
155
100
AcDbEntity
8
0
100
AcDbCircle
10
8.0000000000006111
20
809.99999999999909
30
0
40
2.7499999999997726
0
CIRCLE
5
156
100
AcDbEntity
8
0
100
AcDbCircle
10
8.0000000000006111
20
1109.9999999999991
30
0
40
2.7499999999997726
0
CIRCLE
5
157
100
AcDbEntity
8
0
100
AcDbCircle
10
8.000000000000469
20
359.99999999999915
30
0
40
2.7499999999997726
0
CIRCLE
5
158
100
AcDbEntity
8
0
100
AcDbCircle
10
8.0000000000007532
20
1507.9999999999993
30
0
40
2.7499999999997726
0
CIRCLE
5
159
100
AcDbEntity
8
0
100
AcDbCircle
10
8.0000000000008242
20
1699.9999999999991
30
0
40
3.0000000000001137
0
CIRCLE
5
160
100
AcDbEntity
8
0
100
AcDbCircle
10
8.0000000000008242
20
1579.9999999999991
30
0
40
2.7499999999997726
0
CIRCLE
5
161
100
AcDbEntity
8
0
100
AcDbCircle
10
8.0000000000008242
20
1729.9999999999991
30
0
40
2.7499999999997726
0
CIRCLE
5
162
100
AcDbEntity
8
0
100
AcDbCircle
10
275.00000000000006
20
843.99999999999955
30
0
40
2.5
0
LWPOLYLINE
5
163
100
AcDbEntity
8
0
100
AcDbPolyline
90
4
70
1
43
0.0
10
922
20
847.99999999999955
10
922
20
839.99999999999943
10
938.00000000000011
20
839.99999999999943
10
938
20
847.99999999999955
0
LWPOLYLINE
5
164
100
AcDbEntity
8
0
100
AcDbPolyline
90
4
70
1
43
0.0
10
617
20
847.99999999999955
10
617
20
839.99999999999943
10
633
20
839.99999999999943
10
633
20
847.99999999999955
0
LWPOLYLINE
5
165
100
AcDbEntity
8
0
100
AcDbPolyline
90
4
70
1
43
0.0
10
282
20
847.99999999999955
10
282
20
839.99999999999943
10
298.00000000000006
20
839.99999999999943
10
298.00000000000006
20
847.99999999999955
0
CIRCLE
5
166
100
AcDbEntity
8
0
100
AcDbCircle
10
610.00000000000011
20
843.99999999999955
30
0
40
2.5
0
LWPOLYLINE
5
167
100
AcDbEntity
8
0
100
AcDbPolyline
90
4
70
1
43
0.0
10
952
20
847.99999999999955
10
952
20
839.99999999999943
10
968.00000000000011
20
839.99999999999943
10
968.00000000000011
20
847.99999999999955
0
LWPOLYLINE
5
168
100
AcDbEntity
8
0
100
AcDbPolyline
90
4
70
1
43
0.0
10
603
20
847.99999999999955
10
587
20
847.99999999999955
10
587
20
839.99999999999943
10
603
20
839.99999999999943
0
LWPOLYLINE
5
169
100
AcDbEntity
8
0
100
AcDbPolyline
90
4
70
1
43
0.0
10
268.00000000000006
20
847.99999999999955
10
252.00000000000003
20
847.99999999999955
10
252.00000000000003
20
839.99999999999943
10
268.00000000000006
20
839.99999999999943
0
CIRCLE
5
170
100
AcDbEntity
8
0
100
AcDbCircle
10
945
20
843.99999999999955
30
0
40
2.5
0
CIRCLE
5
171
100
AcDbEntity
8
0
100
AcDbCircle
10
275
20
1147.9999999999995
30
0
40
2.5
0
LWPOLYLINE
5
172
100
AcDbEntity
8
0
100
AcDbPolyline
90
4
70
1
43
0.0
10
922
20
1151.9999999999995
10
922
20
1143.9999999999995
10
938
20
1143.9999999999995
10
938
20
1151.9999999999995
0
LWPOLYLINE
5
173
100
AcDbEntity
8
0
100
AcDbPolyline
90
4
70
1
43
0.0
10
617
20
1151.9999999999995
10
617
20
1143.9999999999995
10
633
20
1143.9999999999995
10
633
20
1151.9999999999995
0
LWPOLYLINE
5
174
100
AcDbEntity
8
0
100
AcDbPolyline
90
4
70
1
43
0.0
10
281.99999999999994
20
1151.9999999999995
10
281.99999999999994
20
1143.9999999999995
10
298.00000000000006
20
1143.9999999999995
10
298
20
1151.9999999999995
0
CIRCLE
5
175
100
AcDbEntity
8
0
100
AcDbCircle
10
610
20
1147.9999999999995
30
0
40
2.5
0
LWPOLYLINE
5
176
100
AcDbEntity
8
0
100
AcDbPolyline
90
4
70
1
43
0.0
10
951.99999999999989
20
1151.9999999999995
10
951.99999999999989
20
1143.9999999999995
10
968
20
1143.9999999999995
10
967.99999999999977
20
1151.9999999999995
0
LWPOLYLINE
5
177
100
AcDbEntity
8
0
100
AcDbPolyline
90
4
70
1
43
0.0
10
603
20
1151.9999999999995
10
587
20
1151.9999999999995
10
587
20
1143.9999999999995
10
603
20
1143.9999999999995
0
LWPOLYLINE
5
178
100
AcDbEntity
8
0
100
AcDbPolyline
90
4
70
1
43
0.0
10
268
20
1151.9999999999995
10
251.99999999999994
20
1151.9999999999995
10
251.99999999999994
20
1143.9999999999995
10
268
20
1143.9999999999995
0
CIRCLE
5
179
100
AcDbEntity
8
0
100
AcDbCircle
10
945
20
1147.9999999999995
30
0
40
2.5
0
CIRCLE
5
180
100
AcDbEntity
8
0
100
AcDbCircle
10
275
20
1451.9999999999993
30
0
40
2.5
0
LWPOLYLINE
5
181
100
AcDbEntity
8
0
100
AcDbPolyline
90
4
70
1
43
0.0
10
922
20
1455.9999999999995
10
922
20
1447.9999999999995
10
938
20
1447.9999999999995
10
938
20
1455.9999999999995
0
LWPOLYLINE
5
182
100
AcDbEntity
8
0
100
AcDbPolyline
90
4
70
1
43
0.0
10
617
20
1455.9999999999995
10
617
20
1447.9999999999995
10
633
20
1447.9999999999995
10
633
20
1455.9999999999995
0
LWPOLYLINE
5
183
100
AcDbEntity
8
0
100
AcDbPolyline
90
4
70
1
43
0.0
10
281.99999999999994
20
1455.9999999999993
10
281.99999999999994
20
1447.9999999999993
10
298
20
1447.9999999999993
10
298
20
1455.9999999999993
0
CIRCLE
5
184
100
AcDbEntity
8
0
100
AcDbCircle
10
610
20
1451.9999999999993
30
0
40
2.5
0
LWPOLYLINE
5
185
100
AcDbEntity
8
0
100
AcDbPolyline
90
4
70
1
43
0.0
10
951.99999999999989
20
1455.9999999999995
10
951.99999999999989
20
1447.9999999999995
10
968
20
1447.9999999999995
10
967.99999999999977
20
1455.9999999999995
0
LWPOLYLINE
5
186
100
AcDbEntity
8
0
100
AcDbPolyline
90
4
70
1
43
0.0
10
603
20
1455.9999999999995
10
587
20
1455.9999999999995
10
587
20
1447.9999999999995
10
603
20
1447.9999999999995
0
LWPOLYLINE
5
187
100
AcDbEntity
8
0
100
AcDbPolyline
90
4
70
1
43
0.0
10
268
20
1455.9999999999993
10
251.99999999999994
20
1455.9999999999993
10
251.99999999999994
20
1447.9999999999993
10
268
20
1447.9999999999993
0
CIRCLE
5
188
100
AcDbEntity
8
0
100
AcDbCircle
10
945
20
1451.9999999999995
30
0
40
2.5
0
CIRCLE
5
189
100
AcDbEntity
8
0
100
AcDbCircle
10
275
20
1755.9999999999993
30
0
40
2.5
0
LWPOLYLINE
5
190
100
AcDbEntity
8
0
100
AcDbPolyline
90
4
70
1
43
0.0
10
922
20
1759.9999999999995
10
922
20
1751.9999999999993
10
938
20
1751.9999999999993
10
938
20
1759.9999999999995
0
LWPOLYLINE
5
191
100
AcDbEntity
8
0
100
AcDbPolyline
90
4
70
1
43
0.0
10
617
20
1759.9999999999995
10
617
20
1751.9999999999993
10
633
20
1751.9999999999993
10
633
20
1759.9999999999995
0
LWPOLYLINE
5
192
100
AcDbEntity
8
0
100
AcDbPolyline
90
4
70
1
43
0.0
10
281.99999999999994
20
1759.9999999999995
10
281.99999999999994
20
1751.9999999999993
10
298
20
1751.9999999999993
10
298
20
1759.9999999999995
0
CIRCLE
5
193
100
AcDbEntity
8
0
100
AcDbCircle
10
610
20
1755.9999999999993
30
0
40
2.5
0
LWPOLYLINE
5
194
100
AcDbEntity
8
0
100
AcDbPolyline
90
4
70
1
43
0.0
10
951.99999999999989
20
1759.9999999999995
10
951.99999999999989
20
1751.9999999999993
10
968
20
1751.9999999999993
10
967.99999999999977
20
1759.9999999999995
0
LWPOLYLINE
5
195
100
AcDbEntity
8
0
100
AcDbPolyline
90
4
70
1
43
0.0
10
603
20
1759.9999999999995
10
587
20
1759.9999999999995
10
587
20
1751.9999999999993
10
603
20
1751.9999999999993
0
LWPOLYLINE
5
196
100
AcDbEntity
8
0
100
AcDbPolyline
90
4
70
1
43
0.0
10
268
20
1759.9999999999995
10
251.99999999999994
20
1759.9999999999995
10
251.99999999999994
20
1751.9999999999993
10
268
20
1751.9999999999993
0
CIRCLE
5
197
100
AcDbEntity
8
0
100
AcDbCircle
10
945
20
1755.9999999999993
30
0
40
2.5
0
CIRCLE
5
198
100
AcDbEntity
8
0
100
AcDbCircle
10
436.3333333333332
20
1195.9999999999991
30
0
40
2.5
0
LWPOLYLINE
5
199
100
AcDbEntity
8
0
100
AcDbPolyline
90
4
70
1
43
0.0
10
432.33333333333314
20
1778.9999999999991
10
432.33333333333314
20
1762.9999999999993
10
440.33333333333309
20
1762.9999999999993
10
440.33333333333314
20
1778.9999999999991
0
LWPOLYLINE
5
200
100
AcDbEntity
8
0
100
AcDbPolyline
90
4
70
1
43
0.0
10
432.33333333333314
20
1748.9999999999991
10
432.33333333333314
20
1732.9999999999993
10
440.33333333333309
20
1732.9999999999993
10
440.33333333333309
20
1748.9999999999991
0
LWPOLYLINE
5
201
100
AcDbEntity
8
0
100
AcDbPolyline
90
4
70
1
43
0.0
10
432.3333333333332
20
1218.9999999999991
10
432.3333333333332
20
1202.9999999999993
10
440.33333333333314
20
1202.9999999999993
10
440.33333333333314
20
1218.9999999999991
0
LWPOLYLINE
5
202
100
AcDbEntity
8
0
100
AcDbPolyline
90
4
70
1
43
0.0
10
432.3333333333332
20
1188.9999999999991
10
432.3333333333332
20
1172.9999999999993
10
440.33333333333314
20
1172.9999999999993
10
440.33333333333314
20
1188.9999999999991
0
LWPOLYLINE
5
203
100
AcDbEntity
8
0
100
AcDbPolyline
90
4
70
1
43
0.0
10
432.3333333333332
20
658.9999999999992
10
432.3333333333332
20
642.99999999999932
10
440.33333333333314
20
642.99999999999932
10
440.33333333333314
20
658.9999999999992
0
LWPOLYLINE
5
204
100
AcDbEntity
8
0
100
AcDbPolyline
90
4
70
1
43
0.0
10
432.3333333333332
20
628.9999999999992
10
432.3333333333332
20
612.99999999999932
10
440.33333333333314
20
612.99999999999932
10
440.33333333333314
20
628.9999999999992
0
CIRCLE
5
205
100
AcDbEntity
8
0
100
AcDbCircle
10
436.33333333333326
20
635.99999999999909
30
0
40
2.5
0
CIRCLE
5
206
100
AcDbEntity
8
0
100
AcDbCircle
10
436.33333333333314
20
1755.9999999999991
30
0
40
2.5
0
CIRCLE
5
207
100
AcDbEntity
8
0
100
AcDbCircle
10
783.66666666666652
20
1195.9999999999991
30
0
40
2.5
0
LWPOLYLINE
5
208
100
AcDbEntity
8
0
100
AcDbPolyline
90
4
70
1
43
0.0
10
779.6666666666664
20
1778.9999999999991
10
779.6666666666664
20
1762.9999999999993
10
787.66666666666652
20
1762.9999999999993
10
787.66666666666652
20
1778.9999999999991
0
LWPOLYLINE
5
209
100
AcDbEntity
8
0
100
AcDbPolyline
90
4
70
1
43
0.0
10
779.6666666666664
20
1748.9999999999991
10
779.6666666666664
20
1732.9999999999993
10
787.66666666666652
20
1732.9999999999993
10
787.6666666666664
20
1748.9999999999991
0
LWPOLYLINE
5
210
100
AcDbEntity
8
0
100
AcDbPolyline
90
4
70
1
43
0.0
10
779.66666666666652
20
1218.9999999999991
10
779.66666666666652
20
1202.9999999999993
10
787.66666666666652
20
1202.9999999999993
10
787.66666666666652
20
1218.9999999999991
0
LWPOLYLINE
5
211
100
AcDbEntity
8
0
100
AcDbPolyline
90
4
70
1
43
0.0
10
779.66666666666652
20
1188.9999999999991
10
779.66666666666652
20
1172.9999999999993
10
787.66666666666652
20
1172.9999999999993
10
787.66666666666652
20
1188.9999999999991
0
LWPOLYLINE
5
212
100
AcDbEntity
8
0
100
AcDbPolyline
90
4
70
1
43
0.0
10
779.66666666666652
20
658.9999999999992
10
779.66666666666652
20
642.99999999999932
10
787.66666666666652
20
642.99999999999932
10
787.66666666666652
20
658.9999999999992
0
LWPOLYLINE
5
213
100
AcDbEntity
8
0
100
AcDbPolyline
90
4
70
1
43
0.0
10
779.66666666666652
20
628.9999999999992
10
779.66666666666652
20
612.99999999999932
10
787.66666666666652
20
612.99999999999932
10
787.66666666666652
20
628.9999999999992
0
CIRCLE
5
214
100
AcDbEntity
8
0
100
AcDbCircle
10
783.66666666666663
20
635.99999999999909
30
0
40
2.5
0
CIRCLE
5
215
100
AcDbEntity
8
0
100
AcDbCircle
10
783.66666666666652
20
1755.9999999999991
30
0
40
2.5
0
LWPOLYLINE
5
216
100
AcDbEntity
8
0
100
AcDbPolyline
90
4
70
1
43
0.0
10
121.00000000001664
20
413.99999999999494
10
109.00000000001661
20
413.99999999999494
10
109.00000000001661
20
397.999999999995
10
121.00000000001664
20
397.999999999995
0
CIRCLE
5
217
100
AcDbEntity
8
0
100
AcDbCircle
10
115.0000000000167
20
420.999999999995
30
0
40
2.5
0
LWPOLYLINE
5
218
100
AcDbEntity
8
0
100
AcDbPolyline
90
4
70
1
43
0.0
10
109.00000000001661
20
443.99999999999494
10
109.00000000001661
20
427.999999999995
10
121.00000000001664
20
427.999999999995
10
121.00000000001664
20
443.99999999999494
0
LWPOLYLINE
5
219
100
AcDbEntity
8
0
100
AcDbPolyline
90
4
70
1
43
0.0
10
363.00000000000364
20
414.00000000003547
10
351.00000000000364
20
414.00000000003547
10
351.00000000000364
20
398.00000000003547
10
363.00000000000364
20
398.00000000003547
0
CIRCLE
5
220
100
AcDbEntity
8
0
100
AcDbCircle
10
357.00000000000364
20
421.00000000003547
30
0
40
2.5
0
LWPOLYLINE
5
221
100
AcDbEntity
8
0
100
AcDbPolyline
90
4
70
1
43
0.0
10
351.00000000000364
20
444.00000000003547
10
351.00000000000364
20
428.00000000003547
10
363.00000000000364
20
428.00000000003547
10
363.00000000000364
20
444.00000000003547
0
LWPOLYLINE
5
222
100
AcDbEntity
8
0
100
AcDbPolyline
90
4
70
1
43
0.0
10
616
20
414.00000000002905
10
604
20
414.00000000002905
10
604
20
398.0000000000291
10
616
20
398.0000000000291
0
CIRCLE
5
223
100
AcDbEntity
8
0
100
AcDbCircle
10
610
20
421.0000000000291
30
0
40
2.5
0
LWPOLYLINE
5
224
100
AcDbEntity
8
0
100
AcDbPolyline
90
4
70
1
43
0.0
10
604
20
444.00000000002905
10
604
20
428.0000000000291
10
616
20
428.0000000000291
10
616
20
444.00000000002905
0
LWPOLYLINE
5
225
100
AcDbEntity
8
0
100
AcDbPolyline
90
4
70
1
43
0.0
10
869.00000000000023
20
413.99999999999704
10
857.00000000000023
20
413.99999999999704
10
857
20
397.99999999999699
10
869
20
397.99999999999716
0
CIRCLE
5
226
100
AcDbEntity
8
0
100
AcDbCircle
10
863.00000000000011
20
420.99999999999693
30
0
40
2.5
0
LWPOLYLINE
5
227
100
AcDbEntity
8
0
100
AcDbPolyline
90
4
70
1
43
0.0
10
857.00000000000023
20
443.99999999999693
10
857.00000000000023
20
427.99999999999716
10
869
20
427.99999999999716
10
869.00000000000023
20
443.99999999999693
0
LWPOLYLINE
5
228
100
AcDbEntity
8
0
100
AcDbPolyline
90
4
70
1
43
0.0
10
1098.9999999999984
20
428.00000000017548
10
1110.9999999999986
20
428.00000000017548
10
1110.9999999999989
20
444.00000000017542
10
1098.9999999999986
20
444.00000000017542
0
CIRCLE
5
229
100
AcDbEntity
8
0
100
AcDbCircle
10
1104.9999999999986
20
421.00000000017542
30
0
40
2.5
0
LWPOLYLINE
5
230
100
AcDbEntity
8
0
100
AcDbPolyline
90
4
70
1
43
0.0
10
1110.9999999999986
20
398.00000000017548
10
1110.9999999999986
20
414.00000000017542
10
1098.9999999999984
20
414.00000000017542
10
1098.9999999999986
20
398.00000000017548
0
CIRCLE
5
231
100
AcDbEntity
8
0
100
AcDbCircle
10
995.49999999999591
20
312.00000000001694
30
0
40
2.5
0
CIRCLE
5
232
100
AcDbEntity
8
0
100
AcDbCircle
10
738.49999999999545
20
312.00000000001324
30
0
40
2.5
0
CIRCLE
5
233
100
AcDbEntity
8
0
100
AcDbCircle
10
481.49999999999636
20
312.0000000000104
30
0
40
2.5
0
CIRCLE
5
234
100
AcDbEntity
8
0
100
AcDbCircle
10
224.49999999999568
20
312.00000000000728
30
0
40
2.5
0
LWPOLYLINE
5
235
100
AcDbEntity
8
0
100
AcDbPolyline
90
4
70
1
43
0.0
10
952
20
559.99999999999909
10
952
20
551.99999999999909
10
968.00000000000023
20
551.99999999999932
10
968
20
559.99999999999909
0
CIRCLE
5
236
100
AcDbEntity
8
0
100
AcDbCircle
10
945
20
555.99999999999909
30
0
40
2.5
0
LWPOLYLINE
5
237
100
AcDbEntity
8
0
100
AcDbPolyline
90
4
70
1
43
0.0
10
922
20
559.99999999999909
10
922
20
551.99999999999909
10
938
20
551.99999999999909
10
938
20
559.99999999999909
0
LWPOLYLINE
5
238
100
AcDbEntity
8
0
100
AcDbPolyline
90
4
70
1
43
0.0
10
617.00000000000045
20
559.99999999999932
10
617.00000000000045
20
551.9999999999992
10
633.00000000000045
20
551.9999999999992
10
633.00000000000045
20
559.99999999999932
0
CIRCLE
5
239
100
AcDbEntity
8
0
100
AcDbCircle
10
610.00000000000045
20
555.9999999999992
30
0
40
2.5
0
LWPOLYLINE
5
240
100
AcDbEntity
8
0
100
AcDbPolyline
90
4
70
1
43
0.0
10
587.00000000000045
20
559.99999999999898
10
587.00000000000045
20
551.99999999999886
10
603.00000000000045
20
551.9999999999992
10
603.00000000000045
20
559.99999999999932
0
LWPOLYLINE
5
241
100
AcDbEntity
8
0
100
AcDbPolyline
90
4
70
1
43
0.0
10
282
20
559.99999999999909
10
282
20
551.99999999999909
10
298.00000000000006
20
551.99999999999909
10
298.00000000000006
20
559.99999999999909
0
CIRCLE
5
242
100
AcDbEntity
8
0
100
AcDbCircle
10
275
20
555.99999999999909
30
0
40
2.5
0
LWPOLYLINE
5
243
100
AcDbEntity
8
0
100
AcDbPolyline
90
4
70
1
43
0.0
10
252.00000000000017
20
551.99999999999932
10
268
20
551.99999999999909
10
268
20
559.99999999999909
10
252.00000000000017
20
559.99999999999943
0
LWPOLYLINE
5
244
100
AcDbEntity
8
0
100
AcDbPolyline
90
4
70
1
43
0.0
10
458.49999999999653
20
306.00000000001
10
474.49999999999648
20
306.00000000001017
10
474.49999999999619
20
318.00000000001035
10
458.49999999999625
20
318.00000000001006
0
LWPOLYLINE
5
245
100
AcDbEntity
8
0
100
AcDbPolyline
90
4
70
1
43
0.0
10
231.49999999999565
20
318.0000000000075
10
231.49999999999594
20
306.00000000000733
10
247.49999999999588
20
305.99999999999955
10
247.49999999999559
20
318.00000000000779
0
LWPOLYLINE
5
246
100
AcDbEntity
8
0
100
AcDbPolyline
90
4
70
1
43
0.0
10
201.49999999999557
20
318.00000000000693
10
201.49999999999585
20
306.00000000000693
10
217.49999999999588
20
306.00000000000705
10
217.49999999999559
20
318.00000000000722
0
LWPOLYLINE
5
247
100
AcDbEntity
8
0
100
AcDbPolyline
90
4
70
1
43
0.0
10
715.49999999999557
20
306.00000000001285
10
731.49999999999545
20
306.00000000001302
10
731.49999999999523
20
318.00000000001319
10
715.49999999999523
20
318.0000000000129
0
LWPOLYLINE
5
248
100
AcDbEntity
8
0
100
AcDbPolyline
90
4
70
1
43
0.0
10
488.49999999999625
20
318.00000000001063
10
488.49999999999653
20
306.00000000001046
10
504.49999999999648
20
305.99999999999955
10
504.49999999999619
20
318.00000000001091
0
LWPOLYLINE
5
249
100
AcDbEntity
8
0
100
AcDbPolyline
90
4
70
1
43
0.0
10
972.49999999999602
20
306.0000000000166
10
988.49999999999591
20
306.00000000001671
10
988.49999999999568
20
318.00000000001688
10
972.49999999999568
20
318.0000000000166
0
LWPOLYLINE
5
250
100
AcDbEntity
8
0
100
AcDbPolyline
90
4
70
1
43
0.0
10
745.49999999999523
20
318.00000000001347
10
745.49999999999557
20
306.0000000000133
10
761.49999999999545
20
305.99999999999955
10
761.49999999999523
20
318.00000000001376
0
LWPOLYLINE
5
251
100
AcDbEntity
8
0
100
AcDbPolyline
90
4
70
1
43
0.0
10
1002.4999999999957
20
318.00000000001717
10
1002.499999999996
20
306.000000000017
10
1018.4999999999959
20
305.99999999999955
10
1018.4999999999957
20
318.00000000001745
0
LWPOLYLINE
5
252
100
AcDbEntity
8
0
100
AcDbPolyline
90
4
70
1
43
0.0
10
121.00000000001664
20
117.99999999999528
10
109.00000000001661
20
117.99999999999528
10
109.00000000001661
20
101.99999999999534
10
121.00000000001664
20
101.99999999999534
0
CIRCLE
5
253
100
AcDbEntity
8
0
100
AcDbCircle
10
115.0000000000167
20
124.99999999999517
30
0
40
2.5
0
LWPOLYLINE
5
254
100
AcDbEntity
8
0
100
AcDbPolyline
90
4
70
1
43
0.0
10
109.00000000001661
20
147.99999999999528
10
109.00000000001661
20
131.99999999999534
10
121.00000000001664
20
131.99999999999534
10
121.00000000001664
20
147.99999999999528
0
LWPOLYLINE
5
255
100
AcDbEntity
8
0
100
AcDbPolyline
90
4
70
1
43
0.0
10
363.00000000000364
20
118.00000000003564
10
351.00000000000364
20
118.00000000003564
10
351.00000000000364
20
102.00000000003598
10
363.00000000000364
20
102.00000000003598
0
CIRCLE
5
256
100
AcDbEntity
8
0
100
AcDbCircle
10
357.00000000000375
20
125.00000000003581
30
0
40
2.5
0
LWPOLYLINE
5
257
100
AcDbEntity
8
0
100
AcDbPolyline
90
4
70
1
43
0.0
10
351.00000000000364
20
148.00000000003564
10
351.00000000000364
20
132.00000000003598
10
363.00000000000364
20
132.00000000003598
10
363.00000000000364
20
148.00000000003564
0
LWPOLYLINE
5
258
100
AcDbEntity
8
0
100
AcDbPolyline
90
4
70
1
43
0.0
10
616
20
118.00000000002939
10
604
20
118.00000000002939
10
604
20
102.00000000002944
10
616
20
102.00000000002944
0
CIRCLE
5
259
100
AcDbEntity
8
0
100
AcDbCircle
10
610
20
125.00000000002927
30
0
40
2.5
0
LWPOLYLINE
5
260
100
AcDbEntity
8
0
100
AcDbPolyline
90
4
70
1
43
0.0
10
604
20
148.00000000002939
10
604
20
132.00000000002944
10
616
20
132.00000000002944
10
616
20
148.00000000002939
0
LWPOLYLINE
5
261
100
AcDbEntity
8
0
100
AcDbPolyline
90
4
70
1
43
0.0
10
869.00000000000023
20
117.99999999999756
10
857.00000000000023
20
117.99999999999756
10
857.00000000000023
20
101.99999999999733
10
869.00000000000023
20
101.99999999999733
0
CIRCLE
5
262
100
AcDbEntity
8
0
100
AcDbCircle
10
863.00000000000011
20
124.99999999999744
30
0
40
2.5
0
LWPOLYLINE
5
263
100
AcDbEntity
8
0
100
AcDbPolyline
90
4
70
1
43
0.0
10
857.00000000000023
20
147.99999999999727
10
857.00000000000023
20
131.99999999999733
10
869
20
131.99999999999733
10
869.00000000000023
20
147.99999999999727
0
LWPOLYLINE
5
264
100
AcDbEntity
8
0
100
AcDbPolyline
90
4
70
1
43
0.0
10
1098.9999999999984
20
132.00000000017582
10
1110.9999999999986
20
132.00000000017582
10
1110.9999999999989
20
148.00000000017576
10
1098.9999999999986
20
148.00000000017576
0
CIRCLE
5
265
100
AcDbEntity
8
0
100
AcDbCircle
10
1104.9999999999986
20
125.00000000017593
30
0
40
2.5
0
LWPOLYLINE
5
266
100
AcDbEntity
8
0
100
AcDbPolyline
90
4
70
1
43
0.0
10
1110.9999999999986
20
102.00000000017582
10
1110.9999999999986
20
118.00000000017576
10
1098.9999999999984
20
118.00000000017576
10
1098.9999999999986
20
102.00000000017582
0
CIRCLE
5
267
100
AcDbEntity
8
0
100
AcDbCircle
10
995.49999999999591
20
32.000000000017224
30
0
40
2.5
0
CIRCLE
5
268
100
AcDbEntity
8
0
100
AcDbCircle
10
738.49999999999545
20
32.000000000013529
30
0
40
2.5
0
CIRCLE
5
269
100
AcDbEntity
8
0
100
AcDbCircle
10
481.49999999999636
20
32.000000000010687
30
0
40
2.5
0
CIRCLE
5
270
100
AcDbEntity
8
0
100
AcDbCircle
10
224.49999999999568
20
32.00000000000756
30
0
40
2.5
0
LWPOLYLINE
5
271
100
AcDbEntity
8
0
100
AcDbPolyline
90
4
70
1
43
0.0
10
458.49999999999653
20
26.000000000010459
10
474.49999999999648
20
26.000000000010459
10
474.49999999999619
20
38.00000000001063
10
458.49999999999625
20
38.000000000010346
0
LWPOLYLINE
5
272
100
AcDbEntity
8
0
100
AcDbPolyline
90
4
70
1
43
0.0
10
231.49999999999565
20
38.000000000007788
10
231.49999999999594
20
26.000000000007617
10
247.49999999999588
20
25.999999999999659
10
247.49999999999559
20
38.000000000008072
0
LWPOLYLINE
5
273
100
AcDbEntity
8
0
100
AcDbPolyline
90
4
70
1
43
0.0
10
201.49999999999557
20
38.000000000007219
10
201.49999999999585
20
26.000000000007049
10
217.49999999999588
20
26.000000000007333
10
217.49999999999559
20
38.000000000007503
0
LWPOLYLINE
5
274
100
AcDbEntity
8
0
100
AcDbPolyline
90
4
70
1
43
0.0
10
715.49999999999557
20
26.000000000013301
10
731.49999999999545
20
26.000000000013301
10
731.49999999999523
20
38.000000000013472
10
715.49999999999523
20
38.000000000013188
0
LWPOLYLINE
5
275
100
AcDbEntity
8
0
100
AcDbPolyline
90
4
70
1
43
0.0
10
488.49999999999625
20
38.000000000010914
10
488.49999999999653
20
26.000000000010743
10
504.49999999999648
20
25.999999999999659
10
504.49999999999619
20
38.000000000011198
0
LWPOLYLINE
5
276
100
AcDbEntity
8
0
100
AcDbPolyline
90
4
70
1
43
0.0
10
972.49999999999602
20
26.000000000016712
10
988.49999999999591
20
26.000000000016996
10
988.49999999999568
20
38.000000000017167
10
972.49999999999568
20
38.000000000016882
0
LWPOLYLINE
5
277
100
AcDbEntity
8
0
100
AcDbPolyline
90
4
70
1
43
0.0
10
745.49999999999523
20
38.000000000013756
10
745.49999999999557
20
26.000000000013586
10
761.49999999999545
20
25.999999999999659
10
761.49999999999523
20
38.00000000001404
0
LWPOLYLINE
5
278
100
AcDbEntity
8
0
100
AcDbPolyline
90
4
70
1
43
0.0
10
1002.4999999999957
20
38.000000000017451
10
1002.499999999996
20
26.00000000001728
10
1018.4999999999959
20
25.999999999999659
10
1018.4999999999957
20
38.000000000017735
0
LWPOLYLINE
5
279
100
AcDbEntity
8
0
100
AcDbPolyline
90
120
70
1
43
0.0
10
1079.9951685455494
20
2390.3753524571589
10
1079.9951685455483
20
2290.3753524571589
10
1091.995168545548
20
2290.3753524571589
10
1091.9951685455494
20
2390.3753524571589
10
1115.9951685455601
20
2390.3753524571589
10
1115.9951685455585
20
2190.3753524571589
10
999.49516854555225
20
2190.3753524571603
10
999.49516854555225
20
2182.3753524571603
10
983.49516854555247
20
2182.3753524571603
10
983.49516854555247
20
2190.3753524571603
10
977.99516854555225
20
2190.3753524571603
10
977.99516854555281
20
2250.3753524571603
10
974.99516854555281
20
2250.3753524571603
10
974.99516854555225
20
2190.3753524571603
10
969.49516854555225
20
2190.3753524571603
10
969.49516854555225
20
2182.3753524571603
10
953.49516854555247
20
2182.3753524571603
10
953.49516854555236
20
2190.3753524571603
10
742.49516854555236
20
2190.3753524571625
10
742.49516854555236
20
2182.3753524571621
10
726.49516854555247
20
2182.3753524571621
10
726.49516854555247
20
2190.3753524571625
10
720.99516854555236
20
2190.3753524571625
10
720.99516854555293
20
2250.3753524571625
10
717.99516854555281
20
2250.3753524571625
10
717.99516854555225
20
2190.3753524571625
10
712.49516854555236
20
2190.3753524571625
10
712.49516854555236
20
2182.3753524571625
10
696.49516854555247
20
2182.3753524571625
10
696.49516854555247
20
2190.3753524571625
10
485.49516854555242
20
2190.3753524571648
10
485.49516854555236
20
2182.3753524571648
10
469.49516854555247
20
2182.3753524571648
10
469.49516854555259
20
2190.3753524571648
10
463.99516854555247
20
2190.3753524571648
10
463.99516854555293
20
2250.3753524571648
10
460.99516854555281
20
2250.3753524571648
10
460.99516854555236
20
2190.3753524571648
10
455.49516854555242
20
2190.3753524571648
10
455.49516854555236
20
2182.3753524571648
10
439.49516854555247
20
2182.3753524571648
10
439.49516854555259
20
2190.3753524571648
10
228.49516854555253
20
2190.3753524571671
10
228.49516854555247
20
2182.3753524571666
10
212.49516854555253
20
2182.3753524571666
10
212.49516854555259
20
2190.3753524571671
10
206.99516854555245
20
2190.3753524571671
10
206.99516854555299
20
2250.3753524571671
10
203.9951685455529
20
2250.3753524571671
10
203.99516854555236
20
2190.3753524571671
10
198.49516854555253
20
2190.3753524571671
10
198.49516854555247
20
2182.3753524571671
10
182.49516854555253
20
2182.3753524571671
10
182.49516854555267
20
2190.3753524571671
10
65.99516854555462
20
2190.375352457168
10
65.995168545556382
20
2390.3753524571684
10
89.995168545553213
20
2390.375352457168
10
89.995168545552033
20
2290.375352457168
10
101.99516854555196
20
2290.375352457168
10
101.99516854555321
20
2390.375352457168
10
182.49516854555765
20
2390.3753524571671
10
182.49516854555759
20
2398.3753524571648
10
198.49516854555753
20
2398.3753524571648
10
198.49516854555759
20
2390.3753524571648
10
203.99516854555768
20
2390.3753524571648
10
203.9951685455577
20
2330.3753524571648
10
206.99516854555785
20
2330.3753524571648
10
206.99516854555782
20
2390.3753524571648
10
212.49516854555765
20
2390.3753524571648
10
212.49516854555759
20
2398.3753524571648
10
228.49516854555753
20
2398.3753524571644
10
228.49516854555753
20
2390.3753524571666
10
331.99516854555162
20
2390.3753524571657
10
331.99516854555202
20
2290.3753524571657
10
343.99516854555191
20
2290.3753524571657
10
343.99516854555145
20
2390.3753524571657
10
439.49516854555804
20
2390.3753524571648
10
439.49516854555793
20
2398.3753524571648
10
455.49516854555782
20
2398.3753524571648
10
455.49516854555793
20
2390.3753524571648
10
460.99516854555804
20
2390.3753524571648
10
460.9951685455581
20
2330.3753524571648
10
463.99516854555822
20
2330.3753524571648
10
463.99516854555816
20
2390.3753524571648
10
469.49516854555804
20
2390.3753524571648
10
469.49516854555787
20
2398.3753524571648
10
485.49516854555782
20
2398.3753524571644
10
485.49516854555793
20
2390.3753524571644
10
584.99516854555191
20
2390.3753524571634
10
584.99516854555191
20
2290.3753524571634
10
596.99516854555191
20
2290.3753524571634
10
596.99516854555191
20
2390.3753524571634
10
696.49516854555714
20
2390.3753524571625
10
696.49516854555702
20
2398.3753524571648
10
712.49516854555691
20
2398.3753524571648
10
712.49516854555714
20
2390.3753524571648
10
717.99516854555714
20
2390.3753524571648
10
717.99516854555714
20
2330.3753524571648
10
720.99516854555736
20
2330.3753524571648
10
720.99516854555736
20
2390.3753524571648
10
726.49516854555714
20
2390.3753524571648
10
726.49516854555702
20
2398.3753524571648
10
742.49516854555691
20
2398.3753524571644
10
742.49516854555714
20
2390.3753524571625
10
837.99516854555168
20
2390.3753524571616
10
837.99516854554804
20
2290.3753524571612
10
849.99516854554815
20
2290.3753524571607
10
849.99516854555168
20
2390.3753524571612
10
953.4951685455577
20
2390.3753524571603
10
953.49516854555759
20
2398.3753524571644
10
969.49516854555759
20
2398.3753524571644
10
969.4951685455577
20
2390.3753524571644
10
974.99516854555782
20
2390.3753524571644
10
974.99516854555782
20
2330.3753524571644
10
977.99516854555793
20
2330.3753524571644
10
977.99516854555793
20
2390.3753524571644
10
983.4951685455577
20
2390.3753524571644
10
983.49516854555759
20
2398.3753524571644
10
999.49516854555759
20
2398.3753524571644
10
999.4951685455577
20
2390.3753524571598
0
LWPOLYLINE
5
280
100
AcDbEntity
8
0
100
AcDbPolyline
90
120
70
1
43
0.0
10
1079.9951685455476
20
2140.3753524571589
10
1079.9951685455467
20
2040.3753524571589
10
1091.9951685455462
20
2040.3753524571587
10
1091.9951685455476
20
2140.3753524571589
10
1115.9951685455585
20
2140.3753524571589
10
1115.9951685455567
20
1940.3753524571589
10
999.49516854555054
20
1940.3753524571603
10
999.49516854555043
20
1932.37535245716
10
983.49516854555054
20
1932.37535245716
10
983.49516854555065
20
1940.3753524571603
10
977.99516854555054
20
1940.3753524571603
10
977.99516854555111
20
2000.3753524571603
10
974.995168545551
20
2000.3753524571603
10
974.99516854555043
20
1940.3753524571603
10
969.49516854555054
20
1940.3753524571605
10
969.49516854555043
20
1932.3753524571603
10
953.49516854555054
20
1932.3753524571603
10
953.49516854555077
20
1940.3753524571603
10
742.49516854555077
20
1940.3753524571625
10
742.49516854555065
20
1932.3753524571623
10
726.49516854555077
20
1932.3753524571623
10
726.49516854555088
20
1940.3753524571625
10
720.99516854555065
20
1940.3753524571625
10
720.99516854555122
20
2000.3753524571625
10
717.99516854555122
20
2000.3753524571625
10
717.99516854555065
20
1940.3753524571625
10
712.49516854555077
20
1940.3753524571628
10
712.49516854555065
20
1932.3753524571625
10
696.49516854555077
20
1932.3753524571625
10
696.49516854555088
20
1940.3753524571625
10
485.49516854555077
20
1940.3753524571648
10
485.49516854555071
20
1932.3753524571646
10
469.49516854555077
20
1932.3753524571646
10
469.49516854555088
20
1940.3753524571648
10
463.99516854555077
20
1940.3753524571648
10
463.99516854555134
20
2000.3753524571648
10
460.99516854555122
20
2000.3753524571648
10
460.99516854555065
20
1940.3753524571648
10
455.49516854555077
20
1940.375352457165
10
455.49516854555071
20
1932.3753524571648
10
439.49516854555077
20
1932.3753524571648
10
439.49516854555088
20
1940.3753524571648
10
228.49516854555077
20
1940.3753524571671
10
228.49516854555071
20
1932.3753524571669
10
212.49516854555077
20
1932.3753524571669
10
212.49516854555083
20
1940.3753524571671
10
206.99516854555071
20
1940.3753524571671
10
206.99516854555128
20
2000.3753524571671
10
203.99516854555117
20
2000.3753524571671
10
203.9951685455506
20
1940.3753524571671
10
198.49516854555077
20
1940.3753524571673
10
198.49516854555071
20
1932.3753524571671
10
182.49516854555077
20
1932.3753524571671
10
182.49516854555088
20
1940.3753524571671
10
65.995168545552815
20
1940.3753524571684
10
65.995168545554677
20
2140.3753524571684
10
89.995168545551536
20
2140.375352457168
10
89.995168545550328
20
2040.375352457168
10
101.99516854555021
20
2040.375352457168
10
101.99516854555151
20
2140.375352457168
10
182.49516854555594
20
2140.3753524571671
10
182.49516854555588
20
2148.3753524571648
10
198.49516854555583
20
2148.3753524571648
10
198.49516854555588
20
2140.3753524571648
10
203.99516854555606
20
2140.3753524571648
10
203.99516854555606
20
2080.3753524571648
10
206.99516854555611
20
2080.3753524571648
10
206.99516854555611
20
2140.3753524571648
10
212.49516854555594
20
2140.3753524571648
10
212.49516854555588
20
2148.3753524571648
10
228.49516854555583
20
2148.3753524571648
10
228.49516854555594
20
2140.3753524571666
10
331.99516854555009
20
2140.3753524571657
10
331.99516854555037
20
2040.3753524571657
10
343.99516854555026
20
2040.3753524571657
10
343.99516854554986
20
2140.3753524571657
10
439.4951685455564
20
2140.3753524571648
10
439.49516854555634
20
2148.3753524571648
10
455.49516854555628
20
2148.3753524571648
10
455.49516854555634
20
2140.3753524571648
10
460.99516854555645
20
2140.3753524571648
10
460.99516854555645
20
2080.3753524571648
10
463.99516854555657
20
2080.3753524571648
10
463.99516854555657
20
2140.3753524571648
10
469.4951685455564
20
2140.3753524571648
10
469.49516854555634
20
2148.3753524571648
10
485.49516854555628
20
2148.3753524571648
10
485.49516854555634
20
2140.3753524571648
10
584.99516854555043
20
2140.3753524571634
10
584.99516854555031
20
2040.3753524571632
10
596.9951685455502
20
2040.3753524571632
10
596.99516854555031
20
2140.3753524571634
10
696.49516854555543
20
2140.3753524571625
10
696.49516854555543
20
2148.3753524571648
10
712.49516854555554
20
2148.3753524571648
10
712.49516854555554
20
2140.3753524571648
10
717.99516854555566
20
2140.3753524571648
10
717.99516854555566
20
2080.3753524571648
10
720.99516854555577
20
2080.3753524571648
10
720.99516854555577
20
2140.3753524571648
10
726.49516854555543
20
2140.3753524571648
10
726.49516854555543
20
2148.3753524571648
10
742.49516854555554
20
2148.3753524571648
10
742.49516854555532
20
2140.3753524571625
10
837.9951685455502
20
2140.3753524571616
10
837.99516854554656
20
2040.3753524571609
10
849.99516854554622
20
2040.3753524571607
10
849.99516854554997
20
2140.3753524571612
10
953.49516854555588
20
2140.3753524571603
10
953.49516854555588
20
2148.3753524571644
10
969.495168545556
20
2148.3753524571644
10
969.495168545556
20
2140.3753524571644
10
974.99516854555623
20
2140.3753524571644
10
974.99516854555623
20
2080.3753524571644
10
977.99516854555623
20
2080.3753524571644
10
977.99516854555623
20
2140.3753524571644
10
983.49516854555588
20
2140.3753524571644
10
983.49516854555588
20
2148.3753524571644
10
999.495168545556
20
2148.3753524571648
10
999.495168545556
20
2140.3753524571598
0
LWPOLYLINE
5
281
100
AcDbEntity
8
0
100
AcDbPolyline
90
88
70
1
43
0.0
10
1079.9951685455483
20
2290.3753524571589
10
1079.9951685455494
20
2390.3753524571589
10
999.49516854555759
20
2390.3753524571603
10
999.49516854555736
20
2398.3753524571657
10
983.49516854555748
20
2398.3753524571657
10
983.49516854555759
20
2390.3753524571657
10
969.49516854555759
20
2390.3753524571657
10
969.49516854555736
20
2398.3753524571657
10
953.49516854555748
20
2398.3753524571657
10
953.49516854555748
20
2390.3753524571603
10
849.99516854555281
20
2390.3753524571616
10
849.99516854554815
20
2290.3753524571612
10
837.99516854554827
20
2290.3753524571612
10
837.99516854555293
20
2390.3753524571612
10
742.49516854555691
20
2390.3753524571621
10
742.49516854555679
20
2398.3753524571657
10
726.49516854555668
20
2398.3753524571657
10
726.49516854555691
20
2390.3753524571657
10
712.49516854555691
20
2390.3753524571657
10
712.49516854555679
20
2398.3753524571657
10
696.49516854555691
20
2398.3753524571657
10
696.49516854555702
20
2390.3753524571625
10
596.99516854555304
20
2390.3753524571634
10
596.99516854555191
20
2290.3753524571634
10
584.99516854555213
20
2290.3753524571634
10
584.99516854555327
20
2390.3753524571634
10
485.49516854555776
20
2390.3753524571644
10
485.4951685455577
20
2398.3753524571657
10
469.49516854555776
20
2398.3753524571657
10
469.49516854555782
20
2390.3753524571657
10
455.49516854555776
20
2390.3753524571657
10
455.4951685455577
20
2398.3753524571657
10
439.49516854555776
20
2398.3753524571657
10
439.49516854555782
20
2390.3753524571648
10
343.9951685455527
20
2390.3753524571657
10
343.99516854555196
20
2290.3753524571657
10
331.99516854555208
20
2290.3753524571657
10
331.99516854555293
20
2390.3753524571657
10
228.49516854555736
20
2390.3753524571666
10
228.49516854555731
20
2398.3753524571657
10
212.49516854555736
20
2398.3753524571657
10
212.49516854555742
20
2390.3753524571657
10
198.49516854555736
20
2390.3753524571657
10
198.49516854555731
20
2398.3753524571657
10
182.49516854555736
20
2398.3753524571657
10
182.4951685455575
20
2390.3753524571671
10
101.9951685455533
20
2390.375352457168
10
101.99516854555199
20
2290.375352457168
10
89.995168545552133
20
2290.375352457168
10
89.995168545553312
20
2390.375352457168
10
65.995168545556439
20
2390.375352457168
10
65.99516854555462
20
2190.3753524571684
10
182.49516854555267
20
2190.3753524571671
10
182.49516854555259
20
2182.3753524571671
10
198.49516854555253
20
2182.3753524571666
10
198.49516854555262
20
2190.3753524571671
10
212.49516854555267
20
2190.3753524571671
10
212.49516854555259
20
2182.3753524571666
10
228.49516854555253
20
2182.3753524571666
10
228.49516854555264
20
2190.3753524571671
10
439.49516854555264
20
2190.3753524571648
10
439.49516854555259
20
2182.3753524571648
10
455.49516854555247
20
2182.3753524571648
10
455.49516854555259
20
2190.3753524571648
10
469.49516854555264
20
2190.3753524571648
10
469.49516854555259
20
2182.3753524571648
10
485.49516854555247
20
2182.3753524571644
10
485.49516854555264
20
2190.3753524571648
10
696.49516854555259
20
2190.3753524571625
10
696.49516854555259
20
2182.3753524571625
10
712.49516854555259
20
2182.3753524571621
10
712.49516854555259
20
2190.3753524571625
10
726.49516854555259
20
2190.3753524571625
10
726.49516854555259
20
2182.3753524571621
10
742.49516854555259
20
2182.3753524571621
10
742.49516854555259
20
2190.3753524571625
10
953.49516854555247
20
2190.3753524571603
10
953.49516854555247
20
2182.3753524571603
10
969.49516854555236
20
2182.3753524571603
10
969.49516854555236
20
2190.3753524571603
10
983.49516854555247
20
2190.3753524571603
10
983.49516854555247
20
2182.3753524571603
10
999.49516854555236
20
2182.3753524571598
10
999.49516854555236
20
2190.3753524571603
10
1115.9951685455587
20
2190.3753524571589
10
1115.9951685455603
20
2390.3753524571589
10
1091.9951685455494
20
2390.3753524571589
10
1091.995168545548
20
2290.3753524571589
0
LWPOLYLINE
5
282
100
AcDbEntity
8
0
100
AcDbPolyline
90
88
70
1
43
0.0
10
1079.9951685455467
20
2040.3753524571587
10
1079.9951685455476
20
2140.3753524571589
10
999.49516854555566
20
2140.3753524571603
10
999.49516854555566
20
2148.3753524571657
10
983.49516854555588
20
2148.3753524571657
10
983.49516854555588
20
2140.3753524571657
10
969.49516854555566
20
2140.3753524571657
10
969.49516854555566
20
2148.3753524571657
10
953.49516854555588
20
2148.3753524571657
10
953.49516854555588
20
2140.3753524571603
10
849.99516854555145
20
2140.3753524571616
10
849.99516854554656
20
2040.3753524571609
10
837.99516854554656
20
2040.3753524571609
10
837.99516854555134
20
2140.3753524571616
10
742.4951685455552
20
2140.3753524571625
10
742.4951685455552
20
2148.3753524571657
10
726.49516854555532
20
2148.3753524571657
10
726.49516854555532
20
2140.3753524571657
10
712.4951685455552
20
2140.3753524571657
10
712.4951685455552
20
2148.3753524571657
10
696.49516854555543
20
2148.3753524571657
10
696.49516854555532
20
2140.3753524571625
10
596.99516854555145
20
2140.3753524571634
10
596.99516854555031
20
2040.3753524571632
10
584.99516854555043
20
2040.3753524571632
10
584.99516854555168
20
2140.3753524571639
10
485.49516854555611
20
2140.3753524571648
10
485.49516854555611
20
2148.3753524571657
10
469.49516854555617
20
2148.3753524571657
10
469.49516854555623
20
2140.3753524571657
10
455.49516854555623
20
2140.3753524571657
10
455.49516854555611
20
2148.3753524571657
10
439.49516854555617
20
2148.3753524571657
10
439.49516854555623
20
2140.3753524571648
10
343.99516854555117
20
2140.3753524571657
10
343.99516854555031
20
2040.3753524571657
10
331.99516854555043
20
2040.3753524571657
10
331.99516854555122
20
2140.3753524571662
10
228.49516854555566
20
2140.3753524571671
10
228.4951685455556
20
2148.3753524571657
10
212.49516854555566
20
2148.3753524571657
10
212.49516854555571
20
2140.3753524571657
10
198.49516854555566
20
2140.3753524571657
10
198.4951685455556
20
2148.3753524571657
10
182.49516854555566
20
2148.3753524571657
10
182.4951685455558
20
2140.3753524571671
10
101.99516854555164
20
2140.375352457168
10
101.99516854555029
20
2040.375352457168
10
89.995168545550399
20
2040.375352457168
10
89.995168545551607
20
2140.375352457168
10
65.995168545554762
20
2140.375352457168
10
65.995168545552843
20
1940.3753524571684
10
182.49516854555088
20
1940.3753524571673
10
182.49516854555083
20
1932.3753524571671
10
198.49516854555077
20
1932.3753524571669
10
198.49516854555083
20
1940.3753524571671
10
212.49516854555088
20
1940.3753524571671
10
212.49516854555083
20
1932.3753524571669
10
228.49516854555077
20
1932.3753524571666
10
228.49516854555102
20
1940.3753524571671
10
439.49516854555094
20
1940.375352457165
10
439.49516854555088
20
1932.3753524571648
10
455.49516854555088
20
1932.3753524571646
10
455.49516854555094
20
1940.3753524571648
10
469.49516854555094
20
1940.3753524571648
10
469.49516854555088
20
1932.3753524571646
10
485.49516854555077
20
1932.3753524571644
10
485.49516854555094
20
1940.3753524571648
10
696.495168545551
20
1940.3753524571628
10
696.49516854555088
20
1932.3753524571625
10
712.49516854555065
20
1932.3753524571623
10
712.49516854555077
20
1940.3753524571625
10
726.495168545551
20
1940.3753524571625
10
726.49516854555088
20
1932.3753524571623
10
742.49516854555065
20
1932.3753524571621
10
742.49516854555077
20
1940.3753524571625
10
953.49516854555077
20
1940.3753524571605
10
953.49516854555065
20
1932.3753524571603
10
969.49516854555054
20
1932.37535245716
10
969.49516854555077
20
1940.3753524571603
10
983.49516854555077
20
1940.3753524571603
10
983.49516854555065
20
1932.37535245716
10
999.49516854555054
20
1932.37535245716
10
999.49516854555054
20
1940.3753524571603
10
1115.9951685455569
20
1940.3753524571589
10
1115.9951685455587
20
2140.3753524571589
10
1091.9951685455478
20
2140.3753524571589
10
1091.9951685455464
20
2040.3753524571589
0
ENDSEC
0
SECTION
2
OBJECTS
0
DICTIONARY
5
C
100
AcDbDictionary
3
ACAD_GROUP
350
D
3
ACAD_MLINESTYLE
350
17
0
DICTIONARY
5
D
100
AcDbDictionary
0
DICTIONARY
5
1A
330
C
100
AcDbDictionary
0
DICTIONARY
5
17
100
AcDbDictionary
0
ENDSEC
0
EOF
