0
SECTION
2
HEADER
9
$INSUNITS
70
4
9
$ACADVER
1
AC1014
9
$HANDSEED
5
FFFF
0
ENDSEC
0
SECTION
2
TABLES
0
TABLE
2
VPORT
5
8
100
AcDbSymbolTable
0
ENDTAB
0
TABLE
2
LTYPE
5
5
100
AcDbSymbolTable
0
LTYPE
5
14
100
AcDbSymbolTableRecord
100
AcDbLinetypeTableRecord
2
BYBLOCK
70
0
0
LTYPE
5
15
100
AcDbSymbolTableRecord
100
AcDbLinetypeTableRecord
2
BYLAYER
70
0
0
ENDTAB
0
TABLE
2
LAYER
5
2
100
AcDbSymbolTable
70
2
0
LAYER
5
50
100
AcDbSymbolTableRecord
100
AcDbLayerTableRecord
2
0
70
0
6
CONTINUOUS
0
ENDTAB
0
TABLE
2
STYLE
5
3
100
AcDbSymbolTable
70
1
0
STYLE
5
11
100
AcDbSymbolTableRecord
100
AcDbTextStyleTableRecord
2
STANDARD
70
0
0
ENDTAB
0
TABLE
2
VIEW
5
6
100
AcDbSymbolTable
70
0
0
ENDTAB
0
TABLE
2
UCS
5
7
100
AcDbSymbolTable
70
0
0
ENDTAB
0
TABLE
2
APPID
5
9
100
AcDbSymbolTable
70
2
0
APPID
5
12
100
AcDbSymbolTableRecord
100
AcDbRegAppTableRecord
2
ACAD
70
0
0
ENDTAB
0
TABLE
2
DIMSTYLE
5
A
100
AcDbSymbolTable
70
1
0
ENDTAB
0
TABLE
2
BLOCK_RECORD
5
1
100
AcDbSymbolTable
70
1
0
BLOCK_RECORD
5
1F
100
AcDbSymbolTableRecord
100
AcDbBlockTableRecord
2
*MODEL_SPACE
0
BLOCK_RECORD
5
1B
100
AcDbSymbolTableRecord
100
AcDbBlockTableRecord
2
*PAPER_SPACE
0
ENDTAB
0
ENDSEC
0
SECTION
2
BLOCKS
0
BLOCK
5
20
100
AcDbEntity
100
AcDbBlockBegin
2
*MODEL_SPACE
0
ENDBLK
5
21
100
AcDbEntity
100
AcDbBlockEnd
0
BLOCK
5
1C
100
AcDbEntity
100
AcDbBlockBegin
2
*PAPER_SPACE
0
ENDBLK
5
1D
100
AcDbEntity
100
AcDbBlockEnd
0
ENDSEC
0
SECTION
2
ENTITIES
0
LWPOLYLINE
5
100
100
AcDbEntity
8
0
100
AcDbPolyline
90
4
70
1
43
0.0
10
0
20
0
10
0
20
2440
10
1220
20
2440
10
1220
20
0
0
ARC
5
101
100
AcDbEntity
8
0
100
AcDbCircle
10
42.371286906385237
20
2094.1210284153244
30
0
40
3.2000000000000388
100
AcDbArc
50
-135.00000000018576
51
44.999999999808466
0
LINE
5
102
100
AcDbEntity
8
0
100
AcDbLine
10
40.108545206580779
20
2091.8582867155346
30
0
11
36.634028606178688
21
2091.8582867155346
31
7.8886090522101181e-30
0
LINE
5
103
100
AcDbEntity
8
0
100
AcDbLine
10
36.634028606178688
20
2091.8582867155346
30
7.8886090522101181e-30
11
36.634028606178674
21
2075.8582867155346
31
-2.9841138502236374e-42
0
LINE
5
104
100
AcDbEntity
8
0
100
AcDbLine
10
36.634028606178674
20
2075.8582867155346
30
-2.9841138502236374e-42
11
40.108545206595949
21
2075.8582867155346
31
3.5527136788005009e-14
0
ARC
5
105
100
AcDbEntity
8
0
100
AcDbCircle
10
42.371286906385563
20
2073.5955450157307
30
1.5939770031694794e-43
40
3.1999999999998439
100
AcDbArc
50
-45.000000000096236
51
134.99999999981935
0
LINE
5
106
100
AcDbEntity
8
0
100
AcDbLine
10
44.63402860617866
20
2071.3328033159301
30
5.0487097934144807e-30
11
44.63402860617866
21
1917.8582867155362
31
3.5527136788005009e-14
0
LINE
5
107
100
AcDbEntity
8
0
100
AcDbLine
10
44.63402860617866
20
1917.8582867155362
30
3.5527136788005009e-14
11
140.10854520659583
21
1917.8582867155367
31
3.5527136788005009e-14
0
ARC
5
108
100
AcDbEntity
8
0
100
AcDbCircle
10
142.37128690638485
20
1915.5955450157317
30
-5.8416629731540812e-43
40
3.1999999999998128
100
AcDbArc
50
-45.000000000080959
51
134.99999999979741
0
LINE
5
109
100
AcDbEntity
8
0
100
AcDbLine
10
144.63402860617848
20
1913.3328033159316
30
5.0487097934037209e-30
11
144.63402860617848
21
1910.3837701151244
31
3.5527136788005009e-14
0
ARC
5
110
100
AcDbEntity
8
0
100
AcDbCircle
10
142.37128690638474
20
1908.1210284153246
30
3.5527136788005003e-14
40
3.2000000000002897
100
AcDbArc
50
-135.00000000022848
51
45.000000000076646
0
LINE
5
111
100
AcDbEntity
8
0
100
AcDbLine
10
140.1085452065785
20
1905.8582867155365
30
3.5527136788005009e-14
11
44.634028606178653
21
1905.8582867155362
31
3.5527136788005009e-14
0
LINE
5
112
100
AcDbEntity
8
0
100
AcDbLine
10
44.634028606178653
20
1905.8582867155362
30
3.5527136788005009e-14
11
44.634028606178646
21
1830.3837701151267
31
3.5527136788005009e-14
0
ARC
5
113
100
AcDbEntity
8
0
100
AcDbCircle
10
42.371286906384967
20
1828.1210284153262
30
0
40
3.1999999999999762
100
AcDbArc
50
-135.00000000017454
51
45.000000000086004
0
LINE
5
114
100
AcDbEntity
8
0
100
AcDbLine
10
40.108545206581169
20
1825.8582867155362
30
0
11
36.634028606178688
21
1825.858286715536
31
0
0
LINE
5
115
100
AcDbEntity
8
0
100
AcDbLine
10
36.634028606178688
20
1825.858286715536
30
0
11
36.634028606178674
21
1809.858286715536
31
-2.9841138502236374e-42
0
LINE
5
116
100
AcDbEntity
8
0
100
AcDbLine
10
36.634028606178674
20
1809.858286715536
30
-2.9841138502236374e-42
11
40.108545206594314
21
1809.8582867155365
31
0
0
ARC
5
117
100
AcDbEntity
8
0
100
AcDbCircle
10
42.371286906385066
20
1807.595545015733
30
7.0940734756443864e-44
40
3.199999999999819
100
AcDbArc
50
-45.000000000083766
51
134.99999999983953
0
LINE
5
118
100
AcDbEntity
8
0
100
AcDbLine
10
44.634028606178695
20
1805.3328033159328
30
5.0487097934075464e-30
11
44.634028606178688
21
1804.3582867155365
31
3.5527136788005009e-14
0
LINE
5
119
100
AcDbEntity
8
0
100
AcDbLine
10
44.634028606178688
20
1804.3582867155365
30
3.5527136788005009e-14
11
104.63402860617855
21
1804.3582867155362
31
3.5527136788005136e-14
0
LINE
5
120
100
AcDbEntity
8
0
100
AcDbLine
10
104.63402860617855
20
1804.3582867155362
30
3.5527136788005136e-14
11
104.63402860617853
21
1801.3582867155365
31
3.5527136788005009e-14
0
LINE
5
121
100
AcDbEntity
8
0
100
AcDbLine
10
104.63402860617853
20
1801.3582867155365
30
3.5527136788005009e-14
11
44.63402860617866
21
1801.3582867155367
31
-1.2621774483536189e-28
0
LINE
5
122
100
AcDbEntity
8
0
100
AcDbLine
10
44.63402860617866
20
1801.3582867155367
30
-1.2621774483536189e-28
11
44.634028606178688
21
1800.3837701151269
31
-2.4651903288174792e-31
0
ARC
5
123
100
AcDbEntity
8
0
100
AcDbCircle
10
42.371286906384796
20
1798.1210284153269
30
3.5527136788005009e-14
40
3.1999999999999194
100
AcDbArc
50
-135.00000000016419
51
45.000000000077542
0
LINE
5
124
100
AcDbEntity
8
0
100
AcDbLine
10
40.108545206581361
20
1795.8582867155365
30
3.5527136788005016e-14
11
36.634028606178688
21
1795.8582867155362
31
3.5527136788005016e-14
0
LINE
5
125
100
AcDbEntity
8
0
100
AcDbLine
10
36.634028606178688
20
1795.8582867155362
30
3.5527136788005016e-14
11
36.634028606178674
21
1779.8582867155365
31
3.5527136788005009e-14
0
LINE
5
126
100
AcDbEntity
8
0
100
AcDbLine
10
36.634028606178674
20
1779.8582867155365
30
3.5527136788005009e-14
11
40.108545206594137
21
1779.8582867155365
31
0
0
ARC
5
127
100
AcDbEntity
8
0
100
AcDbCircle
10
42.371286906384867
20
1777.595545015733
30
3.5527136788005009e-14
40
3.1999999999999447
100
AcDbArc
50
-45.000000000081421
51
134.99999999983925
0
LINE
5
128
100
AcDbEntity
8
0
100
AcDbLine
10
44.634028606178681
20
1775.3328033159328
30
3.5527136788005016e-14
11
44.634028606178632
21
1672.8582867155374
31
3.5527136788005009e-14
0
LINE
5
129
100
AcDbEntity
8
0
100
AcDbLine
10
44.634028606178632
20
1672.8582867155374
30
3.5527136788005009e-14
11
244.63402860617828
21
1672.8582867155378
31
3.5527136788005009e-14
0
LINE
5
130
100
AcDbEntity
8
0
100
AcDbLine
10
244.63402860617828
20
1672.8582867155378
30
3.5527136788005009e-14
11
244.63402860617822
21
1775.3328033159403
31
3.5527136788005009e-14
0
ARC
5
131
100
AcDbEntity
8
0
100
AcDbCircle
10
246.89677030597824
20
1777.5955450157339
30
3.5527136788005009e-14
40
3.1999999999999384
100
AcDbArc
50
45.000000000180641
51
224.9999999999194
0
LINE
5
132
100
AcDbEntity
8
0
100
AcDbLine
10
249.15951200576808
20
1779.858286715538
30
3.5527136788005003e-14
11
252.63402860618382
21
1779.858286715539
31
0
0
LINE
5
133
100
AcDbEntity
8
0
100
AcDbLine
10
252.63402860618382
20
1779.858286715539
30
0
11
252.63402860618004
21
1795.8582867155387
31
4.9303806597837182e-31
0
LINE
5
134
100
AcDbEntity
8
0
100
AcDbLine
10
252.63402860618004
20
1795.8582867155387
30
4.9303806597837182e-31
11
249.15951200578297
21
1795.858286715538
31
3.5527136788005016e-14
0
ARC
5
135
100
AcDbEntity
8
0
100
AcDbCircle
10
246.89677030597949
20
1798.1210284153283
30
3.5527136788005009e-14
40
3.2000000000001894
100
AcDbArc
50
135.00000000010508
51
315.00000000016769
0
LINE
5
136
100
AcDbEntity
8
0
100
AcDbLine
10
244.63402860617822
20
1800.3837701151213
30
3.5527136788005009e-14
11
244.63402860617879
21
1801.3582867155369
31
3.5527136788005009e-14
0
LINE
5
137
100
AcDbEntity
8
0
100
AcDbLine
10
244.63402860617879
20
1801.3582867155369
30
3.5527136788005009e-14
11
184.6340286061789
21
1801.3582867155224
31
3.5527136788005009e-14
0
LINE
5
138
100
AcDbEntity
8
0
100
AcDbLine
10
184.6340286061789
20
1801.3582867155224
30
3.5527136788005009e-14
11
184.63402860617822
21
1804.3582867155226
31
7.3955709868415913e-31
0
LINE
5
139
100
AcDbEntity
8
0
100
AcDbLine
10
184.63402860617822
20
1804.3582867155226
30
7.3955709868415913e-31
11
244.63402860617805
21
1804.3582867155369
31
3.5527136788005009e-14
0
LINE
5
140
100
AcDbEntity
8
0
100
AcDbLine
10
244.63402860617805
20
1804.3582867155369
30
3.5527136788005009e-14
11
244.63402860617828
21
1805.3328033159389
31
3.5527136788005009e-14
0
ARC
5
141
100
AcDbEntity
8
0
100
AcDbCircle
10
246.89677030597693
20
1807.5955450157337
30
0
40
3.2000000000001396
100
AcDbArc
50
45.000000000177401
51
224.99999999995103
0
LINE
5
142
100
AcDbEntity
8
0
100
AcDbLine
10
249.15951200576703
20
1809.8582867155378
30
0
11
252.6340286061768
21
1809.858286715539
31
0
0
LINE
5
143
100
AcDbEntity
8
0
100
AcDbLine
10
252.6340286061768
20
1809.858286715539
30
0
11
252.63402860617305
21
1825.8582867155385
31
4.9303806597837182e-31
0
LINE
5
144
100
AcDbEntity
8
0
100
AcDbLine
10
252.63402860617305
20
1825.8582867155385
30
4.9303806597837182e-31
11
249.15951200578183
21
1825.858286715538
31
0
0
ARC
5
145
100
AcDbEntity
8
0
100
AcDbCircle
10
246.89677030597778
20
1828.1210284153278
30
-3.7703686805739609e-43
40
3.1999999999999886
100
AcDbArc
50
135.00000000006619
51
315.00000000018065
0
LINE
5
146
100
AcDbEntity
8
0
100
AcDbLine
10
244.63402860617822
20
1830.3837701151222
30
-1.0705611123127196e-41
11
244.6340286061783
21
2071.3328033159382
31
3.5527136788004946e-14
0
ARC
5
147
100
AcDbEntity
8
0
100
AcDbCircle
10
246.89677030597878
20
2073.5955450157321
30
3.5527136788005009e-14
40
3.1999999999999136
100
AcDbArc
50
45.000000000200785
51
224.99999999991647
0
LINE
5
148
100
AcDbEntity
8
0
100
AcDbLine
10
249.15951200576771
20
2075.8582867155369
30
3.5527136788005009e-14
11
252.63402860618382
21
2075.8582867155378
31
3.5527136788005009e-14
0
LINE
5
149
100
AcDbEntity
8
0
100
AcDbLine
10
252.63402860618382
20
2075.8582867155378
30
3.5527136788005009e-14
11
252.6340286061801
21
2091.8582867155378
31
3.5527136788005009e-14
0
LINE
5
150
100
AcDbEntity
8
0
100
AcDbLine
10
252.6340286061801
20
2091.8582867155378
30
3.5527136788005009e-14
11
249.15951200578468
21
2091.8582867155365
31
0
0
ARC
5
151
100
AcDbEntity
8
0
100
AcDbCircle
10
246.89677030598006
20
2094.1210284153258
30
3.5527136788005009e-14
40
3.2000000000001898
100
AcDbArc
50
135.0000000001238
51
315.00000000019361
0
LINE
5
152
100
AcDbEntity
8
0
100
AcDbLine
10
244.63402860617822
20
2096.3837701151178
30
3.5527136788005009e-14
11
244.63402860617884
21
2097.3582867155355
31
3.5527136788005009e-14
0
LINE
5
153
100
AcDbEntity
8
0
100
AcDbLine
10
244.63402860617884
20
2097.3582867155355
30
3.5527136788005009e-14
11
184.63402860617893
21
2097.358286715521
31
3.5527136788005009e-14
0
LINE
5
154
100
AcDbEntity
8
0
100
AcDbLine
10
184.63402860617893
20
2097.358286715521
30
3.5527136788005009e-14
11
184.63402860617822
21
2100.358286715521
31
3.5527136788005009e-14
0
LINE
5
155
100
AcDbEntity
8
0
100
AcDbLine
10
184.63402860617822
20
2100.358286715521
30
3.5527136788005009e-14
11
244.63402860617811
21
2100.3582867155355
31
3.5527136788005009e-14
0
LINE
5
156
100
AcDbEntity
8
0
100
AcDbLine
10
244.63402860617811
20
2100.3582867155355
30
3.5527136788005009e-14
11
244.6340286061783
21
2101.3328033159369
31
3.5527136788005009e-14
0
ARC
5
157
100
AcDbEntity
8
0
100
AcDbCircle
10
246.89677030597755
20
2103.5955450157317
30
3.5527136788005009e-14
40
3.1999999999999136
100
AcDbArc
50
45.000000000200785
51
224.99999999994347
0
LINE
5
158
100
AcDbEntity
8
0
100
AcDbLine
10
249.15951200576649
20
2105.8582867155365
30
3.5527136788005009e-14
11
252.6340286061768
21
2105.8582867155374
31
0
0
LINE
5
159
100
AcDbEntity
8
0
100
AcDbLine
10
252.6340286061768
20
2105.8582867155374
30
0
11
252.63402860617308
21
2121.8582867155374
31
4.9303806597837182e-31
0
LINE
5
160
100
AcDbEntity
8
0
100
AcDbLine
10
252.63402860617308
20
2121.8582867155374
30
4.9303806597837182e-31
11
249.15951200578331
21
2121.8582867155365
31
3.5527136788005009e-14
0
ARC
5
161
100
AcDbEntity
8
0
100
AcDbCircle
10
246.89677030597829
20
2124.1210284153253
30
3.5527136788005003e-14
40
3.2000000000001143
100
AcDbArc
50
135.00000000007199
51
315.00000000020435
0
LINE
5
162
100
AcDbEntity
8
0
100
AcDbLine
10
244.63402860617828
20
2126.3837701151197
30
3.5527136788005009e-14
11
244.6340286061783
21
2213.8582867155351
31
1.6314619783057575e-41
0
LINE
5
163
100
AcDbEntity
8
0
100
AcDbLine
10
244.6340286061783
20
2213.8582867155351
30
1.6314619783057575e-41
11
44.634028606178688
21
2213.8582867155351
31
3.5527136788005009e-14
0
LINE
5
164
100
AcDbEntity
8
0
100
AcDbLine
10
44.634028606178688
20
2213.8582867155351
30
3.5527136788005009e-14
11
44.634028606178759
21
2197.8582867155351
31
-4.93038065768121e-31
0
LINE
5
165
100
AcDbEntity
8
0
100
AcDbLine
10
44.634028606178759
20
2197.8582867155351
30
-4.93038065768121e-31
11
140.10854520659757
21
2197.8582867155355
31
3.5527136788005136e-14
0
ARC
5
166
100
AcDbEntity
8
0
100
AcDbCircle
10
142.37128690638548
20
2195.5955450157298
30
-9.85287982728387e-44
40
3.1999999999998257
100
AcDbArc
50
-45.000000000096435
51
134.99999999977476
0
LINE
5
167
100
AcDbEntity
8
0
100
AcDbLine
10
144.63402860617856
20
2193.3328033159291
30
-1.208734917819457e-41
11
144.63402860617859
21
2190.3837701151228
31
3.5527136788005009e-14
0
ARC
5
168
100
AcDbEntity
8
0
100
AcDbCircle
10
142.37128690638545
20
2188.1210284153221
30
3.5527136788005009e-14
40
3.1999999999997373
100
AcDbArc
50
-135.00000000026955
51
45.000000000095717
0
LINE
5
169
100
AcDbEntity
8
0
100
AcDbLine
10
140.10854520657801
20
2185.858286715536
30
3.5527136788005009e-14
11
44.634028606178703
21
2185.8582867155355
31
3.5527136788005009e-14
0
LINE
5
170
100
AcDbEntity
8
0
100
AcDbLine
10
44.634028606178703
20
2185.8582867155355
30
3.5527136788005009e-14
11
44.634028606178681
21
2126.3837701151247
31
3.5527136788004997e-14
0
ARC
5
171
100
AcDbEntity
8
0
100
AcDbCircle
10
42.371286906385407
20
2124.121028415324
30
3.5527136788005009e-14
40
3.1999999999999194
100
AcDbArc
50
-135.00000000019307
51
45.000000000094005
0
LINE
5
172
100
AcDbEntity
8
0
100
AcDbLine
10
40.108545206580828
20
2121.8582867155346
30
3.5527136788005016e-14
11
36.634028606178688
21
2121.8582867155346
31
3.5527136788005016e-14
0
LINE
5
173
100
AcDbEntity
8
0
100
AcDbLine
10
36.634028606178688
20
2121.8582867155346
30
3.5527136788005016e-14
11
36.634028606178674
21
2105.8582867155346
31
3.5527136788005009e-14
0
LINE
5
174
100
AcDbEntity
8
0
100
AcDbLine
10
36.634028606178674
20
2105.8582867155346
30
3.5527136788005009e-14
11
40.108545206595984
21
2105.8582867155346
31
0
0
ARC
5
175
100
AcDbEntity
8
0
100
AcDbCircle
10
42.371286906385599
20
2103.5955450157303
30
3.5527136788005016e-14
40
3.1999999999998319
100
AcDbArc
50
-45.000000000096435
51
134.99999999981364
0
LINE
5
176
100
AcDbEntity
8
0
100
AcDbLine
10
44.634028606178681
20
2101.3328033159296
30
3.5527136788005016e-14
11
44.634028606178688
21
2100.3582867155351
31
3.5527136788005009e-14
0
LINE
5
177
100
AcDbEntity
8
0
100
AcDbLine
10
44.634028606178688
20
2100.3582867155351
30
3.5527136788005009e-14
11
104.63402860617856
21
2100.3582867155351
31
3.5527136788005009e-14
0
LINE
5
178
100
AcDbEntity
8
0
100
AcDbLine
10
104.63402860617856
20
2100.3582867155351
30
3.5527136788005009e-14
11
104.63402860617856
21
2097.3582867155351
31
3.5527136788005009e-14
0
LINE
5
179
100
AcDbEntity
8
0
100
AcDbLine
10
104.63402860617856
20
2097.3582867155351
30
3.5527136788005009e-14
11
44.634028606178688
21
2097.3582867155351
31
3.5527136788005009e-14
0
LINE
5
180
100
AcDbEntity
8
0
100
AcDbLine
10
44.634028606178688
20
2097.3582867155351
30
3.5527136788005009e-14
11
44.634028606189695
21
2096.3837701151137
31
0
0
ARC
5
181
100
AcDbEntity
8
0
100
AcDbCircle
10
285.37128690638502
20
2094.1210284153244
30
0
40
3.2000000000000388
100
AcDbArc
50
-135.00000000019216
51
44.999999999814321
0
LINE
5
182
100
AcDbEntity
8
0
100
AcDbLine
10
283.10854520658052
20
2091.8582867155351
30
0
11
279.63402860617845
21
2091.8582867155351
31
7.8886090522101181e-30
0
LINE
5
183
100
AcDbEntity
8
0
100
AcDbLine
10
279.63402860617845
20
2091.8582867155351
30
7.8886090522101181e-30
11
279.63402860617845
21
2075.8582867155351
31
-2.9841138502236374e-42
0
LINE
5
184
100
AcDbEntity
8
0
100
AcDbLine
10
279.63402860617845
20
2075.8582867155351
30
-2.9841138502236374e-42
11
283.10854520659569
21
2075.8582867155355
31
3.5527136788005009e-14
0
ARC
5
185
100
AcDbEntity
8
0
100
AcDbCircle
10
285.37128690638531
20
2073.5955450157307
30
-1.5808398300664343e-43
40
3.1999999999998381
100
AcDbArc
50
-45.000000000090687
51
134.99999999980784
0
LINE
5
186
100
AcDbEntity
8
0
100
AcDbLine
10
287.63402860617839
20
2071.3328033159305
30
5.0487097934144814e-30
11
287.63402860617839
21
1917.8582867155367
31
3.5527136788005009e-14
0
LINE
5
187
100
AcDbEntity
8
0
100
AcDbLine
10
287.63402860617839
20
1917.8582867155367
30
3.5527136788005009e-14
11
383.10854520659564
21
1917.8582867155369
31
3.5527136788005009e-14
0
ARC
5
188
100
AcDbEntity
8
0
100
AcDbCircle
10
385.37128690638468
20
1915.5955450157319
30
9.0208588640910099e-44
40
3.1999999999998128
100
AcDbArc
50
-45.000000000081322
51
134.99999999979775
0
LINE
5
189
100
AcDbEntity
8
0
100
AcDbLine
10
387.63402860617828
20
1913.3328033159319
30
5.0487097934037209e-30
11
387.63402860617822
21
1910.3837701151249
31
3.5527136788005009e-14
0
ARC
5
190
100
AcDbEntity
8
0
100
AcDbCircle
10
385.37128690638451
20
1908.1210284153246
30
3.5527136788005003e-14
40
3.2000000000000641
100
AcDbArc
50
-135.00000000023317
51
45.000000000082764
0
LINE
5
191
100
AcDbEntity
8
0
100
AcDbLine
10
383.10854520657836
20
1905.8582867155369
30
3.5527136788005009e-14
11
287.63402860617839
21
1905.8582867155369
31
3.5527136788005009e-14
0
LINE
5
192
100
AcDbEntity
8
0
100
AcDbLine
10
287.63402860617839
20
1905.8582867155369
30
3.5527136788005009e-14
11
287.63402860617839
21
1830.3837701151269
31
3.5527136788005009e-14
0
ARC
5
193
100
AcDbEntity
8
0
100
AcDbCircle
10
285.37128690638474
20
1828.1210284153269
30
0
40
3.1999999999999886
100
AcDbArc
50
-135.00000000017488
51
45.000000000080597
0
LINE
5
194
100
AcDbEntity
8
0
100
AcDbLine
10
283.10854520658091
20
1825.8582867155369
30
0
11
279.63402860617845
21
1825.8582867155365
31
0
0
LINE
5
195
100
AcDbEntity
8
0
100
AcDbLine
10
279.63402860617845
20
1825.8582867155365
30
0
11
279.63402860617845
21
1809.8582867155367
31
-2.9841138502236374e-42
0
LINE
5
196
100
AcDbEntity
8
0
100
AcDbLine
10
279.63402860617845
20
1809.8582867155367
30
-2.9841138502236374e-42
11
283.1085452065941
21
1809.8582867155367
31
0
0
ARC
5
197
100
AcDbEntity
8
0
100
AcDbCircle
10
285.37128690638485
20
1807.5955450157335
30
6.1306807814210747e-44
40
3.1999999999998128
100
AcDbArc
50
-45.000000000081322
51
134.9999999998424
0
LINE
5
198
100
AcDbEntity
8
0
100
AcDbLine
10
287.63402860617845
20
1805.3328033159335
30
5.0487097934075464e-30
11
287.63402860617845
21
1804.3582867155369
31
3.5527136788005009e-14
0
LINE
5
199
100
AcDbEntity
8
0
100
AcDbLine
10
287.63402860617845
20
1804.3582867155369
30
3.5527136788005009e-14
11
347.63402860617828
21
1804.3582867155369
31
3.5527136788005136e-14
0
LINE
5
200
100
AcDbEntity
8
0
100
AcDbLine
10
347.63402860617828
20
1804.3582867155369
30
3.5527136788005136e-14
11
347.63402860617828
21
1801.3582867155367
31
3.5527136788005009e-14
0
LINE
5
201
100
AcDbEntity
8
0
100
AcDbLine
10
347.63402860617828
20
1801.3582867155367
30
3.5527136788005009e-14
11
287.63402860617845
21
1801.3582867155369
31
-1.2621774483536189e-28
0
LINE
5
202
100
AcDbEntity
8
0
100
AcDbLine
10
287.63402860617845
20
1801.3582867155369
30
-1.2621774483536189e-28
11
287.63402860617845
21
1800.3837701151272
31
-2.4651903288174792e-31
0
ARC
5
203
100
AcDbEntity
8
0
100
AcDbCircle
10
285.37128690638451
20
1798.1210284153276
30
3.5527136788005009e-14
40
3.2000000000001143
100
AcDbArc
50
-135.00000000016121
51
45.000000000071246
0
LINE
5
204
100
AcDbEntity
8
0
100
AcDbLine
10
283.10854520658108
20
1795.8582867155369
30
3.5527136788005016e-14
11
279.63402860617845
21
1795.8582867155365
31
3.5527136788005016e-14
0
LINE
5
205
100
AcDbEntity
8
0
100
AcDbLine
10
279.63402860617845
20
1795.8582867155365
30
3.5527136788005016e-14
11
279.63402860617845
21
1779.8582867155367
31
3.5527136788005009e-14
0
LINE
5
206
100
AcDbEntity
8
0
100
AcDbLine
10
279.63402860617845
20
1779.8582867155367
30
3.5527136788005009e-14
11
283.10854520659393
21
1779.8582867155369
31
0
0
ARC
5
207
100
AcDbEntity
8
0
100
AcDbCircle
10
285.37128690638463
20
1777.5955450157335
30
3.5527136788005009e-14
40
3.1999999999999633
100
AcDbArc
50
-45.000000000078423
51
134.99999999983882
0
LINE
5
208
100
AcDbEntity
8
0
100
AcDbLine
10
287.63402860617845
20
1775.3328033159335
30
3.5527136788005016e-14
11
287.63402860617839
21
1672.8582867155378
31
3.5527136788005009e-14
0
LINE
5
209
100
AcDbEntity
8
0
100
AcDbLine
10
287.63402860617839
20
1672.8582867155378
30
3.5527136788005009e-14
11
487.63402860617805
21
1672.8582867155383
31
3.5527136788005009e-14
0
LINE
5
210
100
AcDbEntity
8
0
100
AcDbLine
10
487.63402860617805
20
1672.8582867155383
30
3.5527136788005009e-14
11
487.63402860617805
21
1775.3328033159405
31
3.5527136788005009e-14
0
ARC
5
211
100
AcDbEntity
8
0
100
AcDbCircle
10
489.89677030597807
20
1777.5955450157346
30
3.5527136788005009e-14
40
3.1999999999999136
100
AcDbArc
50
45.000000000181359
51
224.99999999992517
0
LINE
5
212
100
AcDbEntity
8
0
100
AcDbLine
10
492.15951200576785
20
1779.8582867155387
30
3.5527136788005003e-14
11
495.63402860618351
21
1779.8582867155394
31
0
0
LINE
5
213
100
AcDbEntity
8
0
100
AcDbLine
10
495.63402860618351
20
1779.8582867155394
30
0
11
495.63402860617987
21
1795.8582867155392
31
4.9303806597837182e-31
0
LINE
5
214
100
AcDbEntity
8
0
100
AcDbLine
10
495.63402860617987
20
1795.8582867155392
30
4.9303806597837182e-31
11
492.15951200578274
21
1795.8582867155385
31
3.5527136788005016e-14
0
ARC
5
215
100
AcDbEntity
8
0
100
AcDbCircle
10
489.8967703059792
20
1798.121028415329
30
3.5527136788005009e-14
40
3.1999999999999633
100
AcDbArc
50
135.00000000011084
51
315.00000000016553
0
LINE
5
216
100
AcDbEntity
8
0
100
AcDbLine
10
487.63402860617794
20
1800.3837701151215
30
3.5527136788005009e-14
11
487.63402860617862
21
1801.3582867155374
31
3.5527136788005009e-14
0
LINE
5
217
100
AcDbEntity
8
0
100
AcDbLine
10
487.63402860617862
20
1801.3582867155374
30
3.5527136788005009e-14
11
427.63402860617862
21
1801.358286715523
31
3.5527136788005009e-14
0
LINE
5
218
100
AcDbEntity
8
0
100
AcDbLine
10
427.63402860617862
20
1801.358286715523
30
3.5527136788005009e-14
11
427.63402860617794
21
1804.3582867155233
31
7.3955709868415913e-31
0
LINE
5
219
100
AcDbEntity
8
0
100
AcDbLine
10
427.63402860617794
20
1804.3582867155233
30
7.3955709868415913e-31
11
487.63402860617782
21
1804.3582867155374
31
3.5527136788005009e-14
0
LINE
5
220
100
AcDbEntity
8
0
100
AcDbLine
10
487.63402860617782
20
1804.3582867155374
30
3.5527136788005009e-14
11
487.63402860617805
21
1805.3328033159394
31
3.5527136788005009e-14
0
ARC
5
221
100
AcDbEntity
8
0
100
AcDbCircle
10
489.89677030597676
20
1807.5955450157344
30
0
40
3.2000000000001143
100
AcDbArc
50
45.000000000174879
51
224.99999999995322
0
LINE
5
222
100
AcDbEntity
8
0
100
AcDbLine
10
492.15951200576683
20
1809.8582867155383
30
0
11
495.63402860617657
21
1809.8582867155394
31
0
0
LINE
5
223
100
AcDbEntity
8
0
100
AcDbLine
10
495.63402860617657
20
1809.8582867155394
30
0
11
495.63402860617288
21
1825.8582867155392
31
4.9303806597837182e-31
0
LINE
5
224
100
AcDbEntity
8
0
100
AcDbLine
10
495.63402860617288
20
1825.8582867155392
30
4.9303806597837182e-31
11
492.15951200578161
21
1825.8582867155383
31
0
0
ARC
5
225
100
AcDbEntity
8
0
100
AcDbCircle
10
489.8967703059775
20
1828.1210284153283
30
-2.9777592366902363e-43
40
3.1999999999999136
100
AcDbArc
50
135.0000000000648
51
315.00000000017843
0
LINE
5
226
100
AcDbEntity
8
0
100
AcDbLine
10
487.63402860617805
20
1830.3837701151226
30
-1.0705611123127196e-41
11
487.63402860617811
21
2071.3328033159387
31
3.5527136788004946e-14
0
ARC
5
227
100
AcDbEntity
8
0
100
AcDbCircle
10
489.89677030597846
20
2073.5955450157321
30
3.5527136788005009e-14
40
3.1999999999999136
100
AcDbArc
50
45.000000000206541
51
224.99999999991221
0
LINE
5
228
100
AcDbEntity
8
0
100
AcDbLine
10
492.1595120057674
20
2075.8582867155374
30
3.5527136788005009e-14
11
495.63402860618362
21
2075.8582867155378
31
3.5527136788005009e-14
0
LINE
5
229
100
AcDbEntity
8
0
100
AcDbLine
10
495.63402860618362
20
2075.8582867155378
30
3.5527136788005009e-14
11
495.63402860617992
21
2091.8582867155378
31
3.5527136788005009e-14
0
LINE
5
230
100
AcDbEntity
8
0
100
AcDbLine
10
495.63402860617992
20
2091.8582867155378
30
3.5527136788005009e-14
11
492.15951200578445
21
2091.8582867155369
31
0
0
ARC
5
231
100
AcDbEntity
8
0
100
AcDbCircle
10
489.89677030597977
20
2094.1210284153258
30
3.5527136788005009e-14
40
3.2000000000001143
100
AcDbArc
50
135.00000000011659
51
315.00000000020003
0
LINE
5
232
100
AcDbEntity
8
0
100
AcDbLine
10
487.63402860617805
20
2096.3837701151183
30
3.5527136788005009e-14
11
487.63402860617862
21
2097.3582867155355
31
3.5527136788005009e-14
0
LINE
5
233
100
AcDbEntity
8
0
100
AcDbLine
10
487.63402860617862
20
2097.3582867155355
30
3.5527136788005009e-14
11
427.63402860617873
21
2097.3582867155214
31
3.5527136788005009e-14
0
LINE
5
234
100
AcDbEntity
8
0
100
AcDbLine
10
427.63402860617873
20
2097.3582867155214
30
3.5527136788005009e-14
11
427.63402860617794
21
2100.3582867155219
31
3.5527136788005009e-14
0
LINE
5
235
100
AcDbEntity
8
0
100
AcDbLine
10
427.63402860617794
20
2100.3582867155219
30
3.5527136788005009e-14
11
487.63402860617788
21
2100.358286715536
31
3.5527136788005009e-14
0
LINE
5
236
100
AcDbEntity
8
0
100
AcDbLine
10
487.63402860617788
20
2100.358286715536
30
3.5527136788005009e-14
11
487.63402860617811
21
2101.3328033159373
31
3.5527136788005009e-14
0
ARC
5
237
100
AcDbEntity
8
0
100
AcDbCircle
10
489.89677030597733
20
2103.5955450157321
30
3.5527136788005009e-14
40
3.1999999999999633
100
AcDbArc
50
45.000000000200075
51
224.99999999994387
0
LINE
5
238
100
AcDbEntity
8
0
100
AcDbLine
10
492.15951200576632
20
2105.8582867155369
30
3.5527136788005009e-14
11
495.63402860617663
21
2105.8582867155378
31
0
0
LINE
5
239
100
AcDbEntity
8
0
100
AcDbLine
10
495.63402860617663
20
2105.8582867155378
30
0
11
495.63402860617288
21
2121.8582867155378
31
4.9303806597837182e-31
0
LINE
5
240
100
AcDbEntity
8
0
100
AcDbLine
10
495.63402860617288
20
2121.8582867155378
30
4.9303806597837182e-31
11
492.15951200578309
21
2121.8582867155369
31
3.5527136788005009e-14
0
ARC
5
241
100
AcDbEntity
8
0
100
AcDbCircle
10
489.89677030597807
20
2124.1210284153258
30
3.5527136788005003e-14
40
3.2000000000001143
100
AcDbArc
50
135.00000000007773
51
315.00000000020435
0
LINE
5
242
100
AcDbEntity
8
0
100
AcDbLine
10
487.63402860617805
20
2126.3837701151197
30
3.5527136788005009e-14
11
487.63402860617805
21
2213.858286715536
31
1.6314619783057575e-41
0
LINE
5
243
100
AcDbEntity
8
0
100
AcDbLine
10
487.63402860617805
20
2213.858286715536
30
1.6314619783057575e-41
11
287.6340286061785
21
2213.8582867155355
31
3.5527136788005009e-14
0
LINE
5
244
100
AcDbEntity
8
0
100
AcDbLine
10
287.6340286061785
20
2213.8582867155355
30
3.5527136788005009e-14
11
287.6340286061785
21
2197.8582867155355
31
-4.93038065768121e-31
0
LINE
5
245
100
AcDbEntity
8
0
100
AcDbLine
10
287.6340286061785
20
2197.8582867155355
30
-4.93038065768121e-31
11
383.10854520659734
21
2197.858286715536
31
3.5527136788005136e-14
0
ARC
5
246
100
AcDbEntity
8
0
100
AcDbCircle
10
385.37128690638525
20
2195.5955450157303
30
-4.1513467005622706e-43
40
3.2000000000000139
100
AcDbArc
50
-45.000000000102901
51
134.99999999977476
0
LINE
5
247
100
AcDbEntity
8
0
100
AcDbLine
10
387.63402860617828
20
2193.3328033159291
30
-1.208734917819457e-41
11
387.63402860617828
21
2190.3837701151233
31
3.5527136788005009e-14
0
ARC
5
248
100
AcDbEntity
8
0
100
AcDbCircle
10
385.37128690638525
20
2188.1210284153226
30
3.5527136788005009e-14
40
3.1999999999999633
100
AcDbArc
50
-135.00000000026989
51
45.000000000097153
0
LINE
5
249
100
AcDbEntity
8
0
100
AcDbLine
10
383.10854520657779
20
2185.8582867155365
30
3.5527136788005009e-14
11
287.63402860617845
21
2185.858286715536
31
3.5527136788005009e-14
0
LINE
5
250
100
AcDbEntity
8
0
100
AcDbLine
10
287.63402860617845
20
2185.858286715536
30
3.5527136788005009e-14
11
287.63402860617845
21
2126.3837701151251
31
3.5527136788004997e-14
0
ARC
5
251
100
AcDbEntity
8
0
100
AcDbCircle
10
285.37128690638519
20
2124.1210284153244
30
3.5527136788005009e-14
40
3.1999999999999136
100
AcDbArc
50
-135.00000000019287
51
45.000000000094282
0
LINE
5
252
100
AcDbEntity
8
0
100
AcDbLine
10
283.10854520658063
20
2121.8582867155351
30
3.5527136788005016e-14
11
279.63402860617845
21
2121.8582867155351
31
3.5527136788005016e-14
0
LINE
5
253
100
AcDbEntity
8
0
100
AcDbLine
10
279.63402860617845
20
2121.8582867155351
30
3.5527136788005016e-14
11
279.63402860617845
21
2105.8582867155351
31
3.5527136788005009e-14
0
LINE
5
254
100
AcDbEntity
8
0
100
AcDbLine
10
279.63402860617845
20
2105.8582867155351
30
3.5527136788005009e-14
11
283.10854520659575
21
2105.8582867155355
31
0
0
ARC
5
255
100
AcDbEntity
8
0
100
AcDbCircle
10
285.37128690638536
20
2103.5955450157307
30
3.5527136788005016e-14
40
3.1999999999998381
100
AcDbArc
50
-45.000000000090687
51
134.99999999980784
0
LINE
5
256
100
AcDbEntity
8
0
100
AcDbLine
10
287.63402860617845
20
2101.3328033159305
30
3.5527136788005016e-14
11
287.63402860617845
21
2100.3582867155355
31
3.5527136788005009e-14
0
LINE
5
257
100
AcDbEntity
8
0
100
AcDbLine
10
287.63402860617845
20
2100.3582867155355
30
3.5527136788005009e-14
11
347.63402860617828
21
2100.3582867155355
31
3.5527136788005009e-14
0
LINE
5
258
100
AcDbEntity
8
0
100
AcDbLine
10
347.63402860617828
20
2100.3582867155355
30
3.5527136788005009e-14
11
347.63402860617828
21
2097.3582867155355
31
3.5527136788005009e-14
0
LINE
5
259
100
AcDbEntity
8
0
100
AcDbLine
10
347.63402860617828
20
2097.3582867155355
30
3.5527136788005009e-14
11
287.63402860617845
21
2097.3582867155355
31
3.5527136788005009e-14
0
LINE
5
260
100
AcDbEntity
8
0
100
AcDbLine
10
287.63402860617845
20
2097.3582867155355
30
3.5527136788005009e-14
11
287.63402860618947
21
2096.3837701151142
31
0
0
ARC
5
261
100
AcDbEntity
8
0
100
AcDbCircle
10
528.37128690638542
20
2094.1210284153249
30
0
40
3.2000000000000641
100
AcDbArc
50
-135.00000000019287
51
44.999999999808558
0
LINE
5
262
100
AcDbEntity
8
0
100
AcDbLine
10
526.10854520658086
20
2091.8582867155355
30
0
11
522.63402860617873
21
2091.8582867155355
31
7.8886090522101181e-30
0
LINE
5
263
100
AcDbEntity
8
0
100
AcDbLine
10
522.63402860617873
20
2091.8582867155355
30
7.8886090522101181e-30
11
522.63402860617873
21
2075.8582867155355
31
-2.9841138502236374e-42
0
LINE
5
264
100
AcDbEntity
8
0
100
AcDbLine
10
522.63402860617873
20
2075.8582867155355
30
-2.9841138502236374e-42
11
526.10854520659598
21
2075.8582867155355
31
3.5527136788005009e-14
0
ARC
5
265
100
AcDbEntity
8
0
100
AcDbCircle
10
528.37128690638565
20
2073.5955450157312
30
1.5895979454684644e-43
40
3.1999999999998128
100
AcDbArc
50
-45.000000000096435
51
134.99999999981432
0
LINE
5
266
100
AcDbEntity
8
0
100
AcDbLine
10
530.63402860617873
20
2071.3328033159305
30
5.04870979341448e-30
11
530.63402860617873
21
1917.8582867155367
31
3.5527136788005009e-14
0
LINE
5
267
100
AcDbEntity
8
0
100
AcDbLine
10
530.63402860617873
20
1917.8582867155367
30
3.5527136788005009e-14
11
626.10854520659586
21
1917.8582867155374
31
3.5527136788005009e-14
0
ARC
5
268
100
AcDbEntity
8
0
100
AcDbCircle
10
628.37128690638497
20
1915.5955450157321
30
-5.4387896646606963e-43
40
3.1999999999998128
100
AcDbArc
50
-45.000000000080611
51
134.99999999979562
0
LINE
5
269
100
AcDbEntity
8
0
100
AcDbLine
10
630.63402860617862
20
1913.3328033159321
30
5.0487097934037209e-30
11
630.63402860617862
21
1910.3837701151249
31
3.5527136788005009e-14
0
ARC
5
270
100
AcDbEntity
8
0
100
AcDbCircle
10
628.37128690638485
20
1908.1210284153253
30
3.5527136788005003e-14
40
3.2000000000002649
100
AcDbArc
50
-135.0000000002274
51
45.000000000073406
0
LINE
5
271
100
AcDbEntity
8
0
100
AcDbLine
10
626.1085452065787
20
1905.8582867155371
30
3.5527136788005009e-14
11
530.63402860617873
21
1905.8582867155369
31
3.5527136788005009e-14
0
LINE
5
272
100
AcDbEntity
8
0
100
AcDbLine
10
530.63402860617873
20
1905.8582867155369
30
3.5527136788005009e-14
11
530.63402860617873
21
1830.3837701151272
31
3.5527136788005009e-14
0
ARC
5
273
100
AcDbEntity
8
0
100
AcDbCircle
10
528.37128690638508
20
1828.1210284153269
30
0
40
3.1999999999999633
100
AcDbArc
50
-135.00000000017417
51
45.000000000083489
0
LINE
5
274
100
AcDbEntity
8
0
100
AcDbLine
10
526.10854520658131
20
1825.8582867155369
30
0
11
522.63402860617884
21
1825.8582867155365
31
0
0
LINE
5
275
100
AcDbEntity
8
0
100
AcDbLine
10
522.63402860617884
20
1825.8582867155365
30
0
11
522.63402860617873
21
1809.8582867155367
31
-2.9841138502236374e-42
0
LINE
5
276
100
AcDbEntity
8
0
100
AcDbLine
10
522.63402860617873
20
1809.8582867155367
30
-2.9841138502236374e-42
11
526.10854520659439
21
1809.8582867155369
31
0
0
ARC
5
277
100
AcDbEntity
8
0
100
AcDbCircle
10
528.37128690638519
20
1807.5955450157335
30
1.0071832712334623e-43
40
3.1999999999998128
100
AcDbArc
50
-45.000000000080611
51
134.99999999984021
0
LINE
5
278
100
AcDbEntity
8
0
100
AcDbLine
10
530.63402860617884
20
1805.3328033159335
30
5.0487097934075464e-30
11
530.63402860617873
21
1804.3582867155371
31
3.5527136788005009e-14
0
LINE
5
279
100
AcDbEntity
8
0
100
AcDbLine
10
530.63402860617873
20
1804.3582867155371
30
3.5527136788005009e-14
11
590.63402860617862
21
1804.3582867155369
31
3.5527136788005136e-14
0
LINE
5
280
100
AcDbEntity
8
0
100
AcDbLine
10
590.63402860617862
20
1804.3582867155369
30
3.5527136788005136e-14
11
590.63402860617862
21
1801.3582867155369
31
3.5527136788005009e-14
0
LINE
5
281
100
AcDbEntity
8
0
100
AcDbLine
10
590.63402860617862
20
1801.3582867155369
30
3.5527136788005009e-14
11
530.63402860617873
21
1801.3582867155374
31
-1.2621774483536189e-28
0
LINE
5
282
100
AcDbEntity
8
0
100
AcDbLine
10
530.63402860617873
20
1801.3582867155374
30
-1.2621774483536189e-28
11
530.63402860617873
21
1800.3837701151274
31
-2.4651903288174792e-31
0
ARC
5
283
100
AcDbEntity
8
0
100
AcDbCircle
10
528.37128690638485
20
1798.1210284153276
30
3.5527136788005009e-14
40
3.1999999999999131
100
AcDbArc
50
-135.00000000016408
51
45.000000000074849
0
LINE
5
284
100
AcDbEntity
8
0
100
AcDbLine
10
526.10854520658143
20
1795.8582867155371
30
3.5527136788005016e-14
11
522.63402860617884
21
1795.8582867155369
31
3.5527136788005016e-14
0
LINE
5
285
100
AcDbEntity
8
0
100
AcDbLine
10
522.63402860617884
20
1795.8582867155369
30
3.5527136788005016e-14
11
522.63402860617873
21
1779.8582867155369
31
3.5527136788005009e-14
0
LINE
5
286
100
AcDbEntity
8
0
100
AcDbLine
10
522.63402860617873
20
1779.8582867155369
30
3.5527136788005009e-14
11
526.10854520659416
21
1779.8582867155369
31
0
0
ARC
5
287
100
AcDbEntity
8
0
100
AcDbCircle
10
528.37128690638497
20
1777.5955450157333
30
3.5527136788005009e-14
40
3.1999999999997626
100
AcDbArc
50
-45.000000000076284
51
134.99999999983737
0
LINE
5
288
100
AcDbEntity
8
0
100
AcDbLine
10
530.63402860617873
20
1775.3328033159335
30
3.5527136788005016e-14
11
530.63402860617873
21
1672.8582867155378
31
3.5527136788005009e-14
0
LINE
5
289
100
AcDbEntity
8
0
100
AcDbLine
10
530.63402860617873
20
1672.8582867155378
30
3.5527136788005009e-14
11
730.63402860617828
21
1672.8582867155385
31
3.5527136788005009e-14
0
LINE
5
290
100
AcDbEntity
8
0
100
AcDbLine
10
730.63402860617828
20
1672.8582867155385
30
3.5527136788005009e-14
11
730.63402860617828
21
1775.332803315941
31
3.5527136788005009e-14
0
ARC
5
291
100
AcDbEntity
8
0
100
AcDbCircle
10
732.89677030597841
20
1777.5955450157346
30
3.5527136788005009e-14
40
3.1999999999999136
100
AcDbArc
50
45.000000000181359
51
224.99999999991795
0
LINE
5
292
100
AcDbEntity
8
0
100
AcDbLine
10
735.15951200576819
20
1779.8582867155387
30
3.5527136788005003e-14
11
738.63402860618396
21
1779.8582867155394
31
0
0
LINE
5
293
100
AcDbEntity
8
0
100
AcDbLine
10
738.63402860618396
20
1779.8582867155394
30
0
11
738.63402860618021
21
1795.8582867155394
31
4.9303806597837182e-31
0
LINE
5
294
100
AcDbEntity
8
0
100
AcDbLine
10
738.63402860618021
20
1795.8582867155394
30
4.9303806597837182e-31
11
735.15951200578297
21
1795.8582867155385
31
3.5527136788005016e-14
0
ARC
5
295
100
AcDbEntity
8
0
100
AcDbCircle
10
732.89677030597954
20
1798.121028415329
30
3.5527136788005009e-14
40
3.2000000000002151
100
AcDbArc
50
135.00000000010508
51
315.00000000016411
0
LINE
5
296
100
AcDbEntity
8
0
100
AcDbLine
10
730.63402860617828
20
1800.3837701151219
30
3.5527136788005009e-14
11
730.63402860617884
21
1801.3582867155376
31
3.5527136788005009e-14
0
LINE
5
297
100
AcDbEntity
8
0
100
AcDbLine
10
730.63402860617884
20
1801.3582867155376
30
3.5527136788005009e-14
11
670.63402860617896
21
1801.358286715523
31
3.5527136788005009e-14
0
LINE
5
298
100
AcDbEntity
8
0
100
AcDbLine
10
670.63402860617896
20
1801.358286715523
30
3.5527136788005009e-14
11
670.63402860617828
21
1804.3582867155233
31
7.3955709868415913e-31
0
LINE
5
299
100
AcDbEntity
8
0
100
AcDbLine
10
670.63402860617828
20
1804.3582867155233
30
7.3955709868415913e-31
11
730.63402860617816
21
1804.3582867155374
31
3.5527136788005009e-14
0
LINE
5
300
100
AcDbEntity
8
0
100
AcDbLine
10
730.63402860617816
20
1804.3582867155374
30
3.5527136788005009e-14
11
730.63402860617828
21
1805.3328033159394
31
3.5527136788005009e-14
0
ARC
5
301
100
AcDbEntity
8
0
100
AcDbCircle
10
732.89677030597704
20
1807.5955450157344
30
0
40
3.2000000000001143
100
AcDbArc
50
45.000000000175604
51
224.99999999995248
0
LINE
5
302
100
AcDbEntity
8
0
100
AcDbLine
10
735.15951200576706
20
1809.8582867155383
30
0
11
738.6340286061768
21
1809.8582867155394
31
0
0
LINE
5
303
100
AcDbEntity
8
0
100
AcDbLine
10
738.6340286061768
20
1809.8582867155394
30
0
11
738.63402860617316
21
1825.8582867155392
31
4.9303806597837182e-31
0
LINE
5
304
100
AcDbEntity
8
0
100
AcDbLine
10
738.63402860617316
20
1825.8582867155392
30
4.9303806597837182e-31
11
735.15951200578183
21
1825.8582867155385
31
0
0
ARC
5
305
100
AcDbEntity
8
0
100
AcDbCircle
10
732.89677030597784
20
1828.1210284153283
30
-4.5673571821587006e-43
40
3.2000000000000139
100
AcDbArc
50
135.00000000006619
51
315.00000000017997
0
LINE
5
306
100
AcDbEntity
8
0
100
AcDbLine
10
730.63402860617828
20
1830.3837701151226
30
-1.0705611123127196e-41
11
730.63402860617828
21
2071.3328033159387
31
3.5527136788004946e-14
0
ARC
5
307
100
AcDbEntity
8
0
100
AcDbCircle
10
732.89677030597886
20
2073.5955450157326
30
3.5527136788005009e-14
40
3.1999999999999136
100
AcDbArc
50
45.000000000201503
51
224.99999999991508
0
LINE
5
308
100
AcDbEntity
8
0
100
AcDbLine
10
735.15951200576774
20
2075.8582867155374
30
3.5527136788005009e-14
11
738.63402860618396
21
2075.8582867155383
31
3.5527136788005009e-14
0
LINE
5
309
100
AcDbEntity
8
0
100
AcDbLine
10
738.63402860618396
20
2075.8582867155383
30
3.5527136788005009e-14
11
738.63402860618021
21
2091.8582867155383
31
3.5527136788005009e-14
0
LINE
5
310
100
AcDbEntity
8
0
100
AcDbLine
10
738.63402860618021
20
2091.8582867155383
30
3.5527136788005009e-14
11
735.15951200578479
21
2091.8582867155369
31
0
0
ARC
5
311
100
AcDbEntity
8
0
100
AcDbCircle
10
732.89677030598011
20
2094.1210284153267
30
3.5527136788005009e-14
40
3.2000000000000139
100
AcDbArc
50
135.0000000001238
51
315.00000000018855
0
LINE
5
312
100
AcDbEntity
8
0
100
AcDbLine
10
730.63402860617828
20
2096.3837701151188
30
3.5527136788005009e-14
11
730.63402860617896
21
2097.358286715536
31
3.5527136788005009e-14
0
LINE
5
313
100
AcDbEntity
8
0
100
AcDbLine
10
730.63402860617896
20
2097.358286715536
30
3.5527136788005009e-14
11
670.63402860617896
21
2097.3582867155214
31
3.5527136788005009e-14
0
LINE
5
314
100
AcDbEntity
8
0
100
AcDbLine
10
670.63402860617896
20
2097.3582867155214
30
3.5527136788005009e-14
11
670.63402860617828
21
2100.3582867155219
31
3.5527136788005009e-14
0
LINE
5
315
100
AcDbEntity
8
0
100
AcDbLine
10
670.63402860617828
20
2100.3582867155219
30
3.5527136788005009e-14
11
730.63402860617816
21
2100.358286715536
31
3.5527136788005009e-14
0
LINE
5
316
100
AcDbEntity
8
0
100
AcDbLine
10
730.63402860617816
20
2100.358286715536
30
3.5527136788005009e-14
11
730.63402860617828
21
2101.3328033159373
31
3.5527136788005009e-14
0
ARC
5
317
100
AcDbEntity
8
0
100
AcDbCircle
10
732.89677030597761
20
2103.5955450157321
30
3.5527136788005009e-14
40
3.1999999999999136
100
AcDbArc
50
45.000000000207265
51
224.99999999994242
0
LINE
5
318
100
AcDbEntity
8
0
100
AcDbLine
10
735.15951200576649
20
2105.8582867155374
30
3.5527136788005009e-14
11
738.63402860617703
21
2105.8582867155378
31
0
0
LINE
5
319
100
AcDbEntity
8
0
100
AcDbLine
10
738.63402860617703
20
2105.8582867155378
30
0
11
738.63402860617327
21
2121.8582867155378
31
4.9303806597837182e-31
0
LINE
5
320
100
AcDbEntity
8
0
100
AcDbLine
10
738.63402860617327
20
2121.8582867155378
30
4.9303806597837182e-31
11
735.15951200578343
21
2121.8582867155369
31
3.5527136788005009e-14
0
ARC
5
321
100
AcDbEntity
8
0
100
AcDbCircle
10
732.89677030597863
20
2124.1210284153258
30
3.5527136788005003e-14
40
3.2000000000002151
100
AcDbArc
50
135.00000000007483
51
315.00000000020151
0
LINE
5
322
100
AcDbEntity
8
0
100
AcDbLine
10
730.63402860617839
20
2126.3837701151201
30
3.5527136788005009e-14
11
730.63402860617839
21
2213.858286715536
31
1.6314619783057575e-41
0
LINE
5
323
100
AcDbEntity
8
0
100
AcDbLine
10
730.63402860617839
20
2213.858286715536
30
1.6314619783057575e-41
11
530.63402860617884
21
2213.858286715536
31
3.5527136788005009e-14
0
LINE
5
324
100
AcDbEntity
8
0
100
AcDbLine
10
530.63402860617884
20
2213.858286715536
30
3.5527136788005009e-14
11
530.63402860617884
21
2197.8582867155355
31
-4.93038065768121e-31
0
LINE
5
325
100
AcDbEntity
8
0
100
AcDbLine
10
530.63402860617884
20
2197.8582867155355
30
-4.93038065768121e-31
11
626.10854520659768
21
2197.858286715536
31
3.5527136788005136e-14
0
ARC
5
326
100
AcDbEntity
8
0
100
AcDbCircle
10
628.37128690638554
20
2195.5955450157303
30
-9.8090892502737195e-44
40
3.199999999999863
100
AcDbArc
50
-45.000000000096435
51
134.99999999977402
0
LINE
5
327
100
AcDbEntity
8
0
100
AcDbLine
10
630.63402860617862
20
2193.3328033159296
30
-1.208734917819457e-41
11
630.63402860617873
21
2190.3837701151233
31
3.5527136788005009e-14
0
ARC
5
328
100
AcDbEntity
8
0
100
AcDbCircle
10
628.37128690638554
20
2188.1210284153226
30
3.5527136788005009e-14
40
3.1999999999997124
100
AcDbArc
50
-135.00000000026918
51
45.000000000094992
0
LINE
5
329
100
AcDbEntity
8
0
100
AcDbLine
10
626.10854520657813
20
2185.8582867155365
30
3.5527136788005009e-14
11
530.63402860617873
21
2185.8582867155365
31
3.5527136788005009e-14
0
LINE
5
330
100
AcDbEntity
8
0
100
AcDbLine
10
530.63402860617873
20
2185.8582867155365
30
3.5527136788005009e-14
11
530.63402860617873
21
2126.3837701151251
31
3.5527136788004997e-14
0
ARC
5
331
100
AcDbEntity
8
0
100
AcDbCircle
10
528.37128690638554
20
2124.1210284153244
30
3.5527136788005009e-14
40
3.1999999999999136
100
AcDbArc
50
-135.00000000019864
51
45.000000000094992
0
LINE
5
332
100
AcDbEntity
8
0
100
AcDbLine
10
526.10854520658097
20
2121.8582867155355
30
3.5527136788005016e-14
11
522.63402860617884
21
2121.8582867155355
31
3.5527136788005016e-14
0
LINE
5
333
100
AcDbEntity
8
0
100
AcDbLine
10
522.63402860617884
20
2121.8582867155355
30
3.5527136788005016e-14
11
522.63402860617873
21
2105.8582867155355
31
3.5527136788005009e-14
0
LINE
5
334
100
AcDbEntity
8
0
100
AcDbLine
10
522.63402860617873
20
2105.8582867155355
30
3.5527136788005009e-14
11
526.10854520659598
21
2105.8582867155355
31
0
0
ARC
5
335
100
AcDbEntity
8
0
100
AcDbCircle
10
528.37128690638565
20
2103.5955450157307
30
3.5527136788005016e-14
40
3.199999999999863
100
AcDbArc
50
-45.000000000090687
51
134.99999999980858
0
LINE
5
336
100
AcDbEntity
8
0
100
AcDbLine
10
530.63402860617873
20
2101.3328033159305
30
3.5527136788005016e-14
11
530.63402860617873
21
2100.3582867155355
31
3.5527136788005009e-14
0
LINE
5
337
100
AcDbEntity
8
0
100
AcDbLine
10
530.63402860617873
20
2100.3582867155355
30
3.5527136788005009e-14
11
590.63402860617862
21
2100.3582867155355
31
3.5527136788005009e-14
0
LINE
5
338
100
AcDbEntity
8
0
100
AcDbLine
10
590.63402860617862
20
2100.3582867155355
30
3.5527136788005009e-14
11
590.63402860617862
21
2097.3582867155355
31
3.5527136788005009e-14
0
LINE
5
339
100
AcDbEntity
8
0
100
AcDbLine
10
590.63402860617862
20
2097.3582867155355
30
3.5527136788005009e-14
11
530.63402860617873
21
2097.3582867155355
31
3.5527136788005009e-14
0
LINE
5
340
100
AcDbEntity
8
0
100
AcDbLine
10
530.63402860617873
20
2097.3582867155355
30
3.5527136788005009e-14
11
530.63402860618987
21
2096.3837701151142
31
0
0
ARC
5
341
100
AcDbEntity
8
0
100
AcDbCircle
10
771.37128690638508
20
2094.1210284153253
30
0
40
3.2000000000000139
100
AcDbArc
50
-135.00000000018568
51
44.999999999808558
0
LINE
5
342
100
AcDbEntity
8
0
100
AcDbLine
10
769.10854520658063
20
2091.8582867155355
30
0
11
765.63402860617862
21
2091.8582867155355
31
7.8886090522101181e-30
0
LINE
5
343
100
AcDbEntity
8
0
100
AcDbLine
10
765.63402860617862
20
2091.8582867155355
30
7.8886090522101181e-30
11
765.63402860617862
21
2075.8582867155355
31
-2.9841138502236374e-42
0
LINE
5
344
100
AcDbEntity
8
0
100
AcDbLine
10
765.63402860617862
20
2075.8582867155355
30
-2.9841138502236374e-42
11
769.10854520659586
21
2075.858286715536
31
3.5527136788005009e-14
0
ARC
5
345
100
AcDbEntity
8
0
100
AcDbCircle
10
771.37128690638531
20
2073.5955450157317
30
-1.5808398300664343e-43
40
3.1999999999999136
100
AcDbArc
50
-45.000000000095014
51
134.99999999981145
0
LINE
5
346
100
AcDbEntity
8
0
100
AcDbLine
10
773.6340286061785
20
2071.332803315931
30
5.0487097934144814e-30
11
773.63402860617862
21
1917.8582867155374
31
3.5527136788005009e-14
0
LINE
5
347
100
AcDbEntity
8
0
100
AcDbLine
10
773.63402860617862
20
1917.8582867155374
30
3.5527136788005009e-14
11
869.10854520659564
21
1917.8582867155376
31
3.5527136788005009e-14
0
ARC
5
348
100
AcDbEntity
8
0
100
AcDbCircle
10
871.37128690638474
20
1915.5955450157326
30
1.6990743879938407e-43
40
3.1999999999998128
100
AcDbArc
50
-45.00000000008351
51
134.99999999979849
0
LINE
5
349
100
AcDbEntity
8
0
100
AcDbLine
10
873.63402860617839
20
1913.3328033159323
30
5.0487097934037209e-30
11
873.63402860617839
21
1910.3837701151256
31
3.5527136788005009e-14
0
ARC
5
350
100
AcDbEntity
8
0
100
AcDbCircle
10
871.37128690638451
20
1908.1210284153253
30
3.5527136788005003e-14
40
3.2000000000000139
100
AcDbArc
50
-135.00000000023033
51
45.000000000080597
0
LINE
5
351
100
AcDbEntity
8
0
100
AcDbLine
10
869.10854520657836
20
1905.8582867155374
30
3.5527136788005009e-14
11
773.6340286061785
21
1905.8582867155374
31
3.5527136788005009e-14
0
LINE
5
352
100
AcDbEntity
8
0
100
AcDbLine
10
773.6340286061785
20
1905.8582867155374
30
3.5527136788005009e-14
11
773.6340286061785
21
1830.3837701151274
31
3.5527136788005009e-14
0
ARC
5
353
100
AcDbEntity
8
0
100
AcDbCircle
10
771.37128690638474
20
1828.1210284153276
30
0
40
3.1999999999999131
100
AcDbArc
50
-135.00000000016985
51
45.000000000076284
0
LINE
5
354
100
AcDbEntity
8
0
100
AcDbLine
10
769.10854520658108
20
1825.8582867155374
30
0
11
765.63402860617862
21
1825.8582867155371
31
0
0
LINE
5
355
100
AcDbEntity
8
0
100
AcDbLine
10
765.63402860617862
20
1825.8582867155371
30
0
11
765.63402860617862
21
1809.8582867155371
31
-2.9841138502236374e-42
0
LINE
5
356
100
AcDbEntity
8
0
100
AcDbLine
10
765.63402860617862
20
1809.8582867155371
30
-2.9841138502236374e-42
11
769.10854520659416
21
1809.8582867155371
31
0
0
ARC
5
357
100
AcDbEntity
8
0
100
AcDbCircle
10
771.37128690638497
20
1807.5955450157339
30
1.7866555420141418e-43
40
3.1999999999999136
100
AcDbArc
50
-45.000000000077705
51
134.99999999984311
0
LINE
5
358
100
AcDbEntity
8
0
100
AcDbLine
10
773.63402860617862
20
1805.3328033159341
30
5.0487097934075464e-30
11
773.63402860617862
21
1804.3582867155374
31
3.5527136788005009e-14
0
LINE
5
359
100
AcDbEntity
8
0
100
AcDbLine
10
773.63402860617862
20
1804.3582867155374
30
3.5527136788005009e-14
11
833.6340286061785
21
1804.3582867155374
31
3.5527136788005136e-14
0
LINE
5
360
100
AcDbEntity
8
0
100
AcDbLine
10
833.6340286061785
20
1804.3582867155374
30
3.5527136788005136e-14
11
833.63402860617839
21
1801.3582867155374
31
3.5527136788005009e-14
0
LINE
5
361
100
AcDbEntity
8
0
100
AcDbLine
10
833.63402860617839
20
1801.3582867155374
30
3.5527136788005009e-14
11
773.6340286061785
21
1801.3582867155376
31
-1.2621774483536189e-28
0
LINE
5
362
100
AcDbEntity
8
0
100
AcDbLine
10
773.6340286061785
20
1801.3582867155376
30
-1.2621774483536189e-28
11
773.63402860617862
21
1800.3837701151278
31
-2.4651903288174792e-31
0
ARC
5
363
100
AcDbEntity
8
0
100
AcDbCircle
10
771.37128690638463
20
1798.1210284153281
30
3.5527136788005009e-14
40
3.2000000000001143
100
AcDbArc
50
-135.00000000016121
51
45.000000000073406
0
LINE
5
364
100
AcDbEntity
8
0
100
AcDbLine
10
769.1085452065812
20
1795.8582867155374
30
3.5527136788005016e-14
11
765.63402860617862
21
1795.8582867155371
31
3.5527136788005016e-14
0
LINE
5
365
100
AcDbEntity
8
0
100
AcDbLine
10
765.63402860617862
20
1795.8582867155371
30
3.5527136788005016e-14
11
765.63402860617862
21
1779.8582867155371
31
3.5527136788005009e-14
0
LINE
5
366
100
AcDbEntity
8
0
100
AcDbLine
10
765.63402860617862
20
1779.8582867155371
30
3.5527136788005009e-14
11
769.10854520659404
21
1779.8582867155374
31
0
0
ARC
5
367
100
AcDbEntity
8
0
100
AcDbCircle
10
771.37128690638463
20
1777.5955450157337
30
3.5527136788005009e-14
40
3.1999999999998128
100
AcDbArc
50
-45.000000000071964
51
134.9999999998345
0
LINE
5
368
100
AcDbEntity
8
0
100
AcDbLine
10
773.6340286061785
20
1775.3328033159341
30
3.5527136788005016e-14
11
773.6340286061785
21
1672.8582867155385
31
3.5527136788005009e-14
0
LINE
5
369
100
AcDbEntity
8
0
100
AcDbLine
10
773.6340286061785
20
1672.8582867155385
30
3.5527136788005009e-14
11
973.63402860617816
21
1672.8582867155387
31
3.5527136788005009e-14
0
LINE
5
370
100
AcDbEntity
8
0
100
AcDbLine
10
973.63402860617816
20
1672.8582867155387
30
3.5527136788005009e-14
11
973.63402860617816
21
1775.3328033159412
31
3.5527136788005009e-14
0
ARC
5
371
100
AcDbEntity
8
0
100
AcDbCircle
10
975.89677030597829
20
1777.5955450157353
30
3.5527136788005009e-14
40
3.1999999999999136
100
AcDbArc
50
45.000000000178481
51
224.99999999992372
0
LINE
5
372
100
AcDbEntity
8
0
100
AcDbLine
10
978.15951200576808
20
1779.8582867155392
30
3.5527136788005003e-14
11
981.63402860618373
21
1779.8582867155401
31
0
0
LINE
5
373
100
AcDbEntity
8
0
100
AcDbLine
10
981.63402860618373
20
1779.8582867155401
30
0
11
981.6340286061801
21
1795.8582867155396
31
4.9303806597837182e-31
0
LINE
5
374
100
AcDbEntity
8
0
100
AcDbLine
10
981.6340286061801
20
1795.8582867155396
30
4.9303806597837182e-31
11
978.15951200578286
21
1795.8582867155392
31
3.5527136788005016e-14
0
ARC
5
375
100
AcDbEntity
8
0
100
AcDbCircle
10
975.89677030597943
20
1798.1210284153294
30
3.5527136788005009e-14
40
3.2000000000000139
100
AcDbArc
50
135.00000000010797
51
315.00000000016695
0
LINE
5
376
100
AcDbEntity
8
0
100
AcDbLine
10
973.63402860617816
20
1800.3837701151222
30
3.5527136788005009e-14
11
973.63402860617862
21
1801.3582867155378
31
3.5527136788005009e-14
0
LINE
5
377
100
AcDbEntity
8
0
100
AcDbLine
10
973.63402860617862
20
1801.3582867155378
30
3.5527136788005009e-14
11
913.63402860617884
21
1801.3582867155237
31
3.5527136788005009e-14
0
LINE
5
378
100
AcDbEntity
8
0
100
AcDbLine
10
913.63402860617884
20
1801.3582867155237
30
3.5527136788005009e-14
11
913.63402860617816
21
1804.3582867155237
31
7.3955709868415913e-31
0
LINE
5
379
100
AcDbEntity
8
0
100
AcDbLine
10
913.63402860617816
20
1804.3582867155237
30
7.3955709868415913e-31
11
973.63402860617794
21
1804.3582867155378
31
3.5527136788005009e-14
0
LINE
5
380
100
AcDbEntity
8
0
100
AcDbLine
10
973.63402860617794
20
1804.3582867155378
30
3.5527136788005009e-14
11
973.63402860617816
21
1805.3328033159401
31
3.5527136788005009e-14
0
ARC
5
381
100
AcDbEntity
8
0
100
AcDbCircle
10
975.89677030597682
20
1807.5955450157348
30
0
40
3.2000000000001143
100
AcDbArc
50
45.000000000177039
51
224.99999999995103
0
LINE
5
382
100
AcDbEntity
8
0
100
AcDbLine
10
978.15951200576694
20
1809.858286715539
30
0
11
981.63402860617668
21
1809.8582867155401
31
0
0
LINE
5
383
100
AcDbEntity
8
0
100
AcDbLine
10
981.63402860617668
20
1809.8582867155401
30
0
11
981.63402860617293
21
1825.8582867155396
31
4.9303806597837182e-31
0
LINE
5
384
100
AcDbEntity
8
0
100
AcDbLine
10
981.63402860617293
20
1825.8582867155396
30
4.9303806597837182e-31
11
978.15951200578172
21
1825.8582867155387
31
0
0
ARC
5
385
100
AcDbEntity
8
0
100
AcDbCircle
10
975.89677030597773
20
1828.121028415329
30
-4.5673571821587006e-43
40
3.2000000000000139
100
AcDbArc
50
135.00000000006619
51
315.00000000017417
0
LINE
5
386
100
AcDbEntity
8
0
100
AcDbLine
10
973.63402860617816
20
1830.3837701151233
30
-1.0705611123127196e-41
11
973.63402860617816
21
2071.3328033159396
31
3.5527136788004946e-14
0
ARC
5
387
100
AcDbEntity
8
0
100
AcDbCircle
10
975.89677030597863
20
2073.595545015733
30
3.5527136788005009e-14
40
3.1999999999999136
100
AcDbArc
50
45.000000000200075
51
224.99999999991076
0
LINE
5
388
100
AcDbEntity
8
0
100
AcDbLine
10
978.15951200576762
20
2075.8582867155378
30
3.5527136788005009e-14
11
981.63402860618373
21
2075.8582867155387
31
3.5527136788005009e-14
0
LINE
5
389
100
AcDbEntity
8
0
100
AcDbLine
10
981.63402860618373
20
2075.8582867155387
30
3.5527136788005009e-14
11
981.6340286061801
21
2091.8582867155383
31
3.5527136788005009e-14
0
LINE
5
390
100
AcDbEntity
8
0
100
AcDbLine
10
981.6340286061801
20
2091.8582867155383
30
3.5527136788005009e-14
11
978.15951200578468
21
2091.8582867155378
31
0
0
ARC
5
391
100
AcDbEntity
8
0
100
AcDbCircle
10
975.89677030598
20
2094.1210284153267
30
3.5527136788005009e-14
40
3.2000000000002151
100
AcDbArc
50
135.0000000001238
51
315.00000000020003
0
LINE
5
392
100
AcDbEntity
8
0
100
AcDbLine
10
973.63402860617816
20
2096.3837701151188
30
3.5527136788005009e-14
11
973.63402860617884
21
2097.3582867155365
31
3.5527136788005009e-14
0
LINE
5
393
100
AcDbEntity
8
0
100
AcDbLine
10
973.63402860617884
20
2097.3582867155365
30
3.5527136788005009e-14
11
913.63402860617884
21
2097.3582867155219
31
3.5527136788005009e-14
0
LINE
5
394
100
AcDbEntity
8
0
100
AcDbLine
10
913.63402860617884
20
2097.3582867155219
30
3.5527136788005009e-14
11
913.63402860617816
21
2100.3582867155224
31
3.5527136788005009e-14
0
LINE
5
395
100
AcDbEntity
8
0
100
AcDbLine
10
913.63402860617816
20
2100.3582867155224
30
3.5527136788005009e-14
11
973.63402860617794
21
2100.3582867155365
31
3.5527136788005009e-14
0
LINE
5
396
100
AcDbEntity
8
0
100
AcDbLine
10
973.63402860617794
20
2100.3582867155365
30
3.5527136788005009e-14
11
973.63402860617816
21
2101.3328033159378
31
3.5527136788005009e-14
0
ARC
5
397
100
AcDbEntity
8
0
100
AcDbCircle
10
975.89677030597738
20
2103.5955450157326
30
3.5527136788005009e-14
40
3.1999999999999136
100
AcDbArc
50
45.000000000200075
51
224.99999999994387
0
LINE
5
398
100
AcDbEntity
8
0
100
AcDbLine
10
978.15951200576637
20
2105.8582867155374
30
3.5527136788005009e-14
11
981.6340286061768
21
2105.8582867155387
31
0
0
LINE
5
399
100
AcDbEntity
8
0
100
AcDbLine
10
981.6340286061768
20
2105.8582867155387
30
0
11
981.63402860617316
21
2121.8582867155383
31
4.9303806597837182e-31
0
LINE
5
400
100
AcDbEntity
8
0
100
AcDbLine
10
981.63402860617316
20
2121.8582867155383
30
4.9303806597837182e-31
11
978.1595120057832
21
2121.8582867155378
31
3.5527136788005009e-14
0
ARC
5
401
100
AcDbEntity
8
0
100
AcDbCircle
10
975.89677030597841
20
2124.1210284153262
30
3.5527136788005003e-14
40
3.2000000000002151
100
AcDbArc
50
135.00000000007341
51
315.00000000020725
0
LINE
5
402
100
AcDbEntity
8
0
100
AcDbLine
10
973.63402860617828
20
2126.3837701151206
30
3.5527136788005009e-14
11
973.63402860617828
21
2213.8582867155365
31
1.6314619783057575e-41
0
LINE
5
403
100
AcDbEntity
8
0
100
AcDbLine
10
973.63402860617828
20
2213.8582867155365
30
1.6314619783057575e-41
11
773.63402860617862
21
2213.858286715536
31
3.5527136788005009e-14
0
LINE
5
404
100
AcDbEntity
8
0
100
AcDbLine
10
773.63402860617862
20
2213.858286715536
30
3.5527136788005009e-14
11
773.63402860617862
21
2197.858286715536
31
-4.93038065768121e-31
0
LINE
5
405
100
AcDbEntity
8
0
100
AcDbLine
10
773.63402860617862
20
2197.858286715536
30
-4.93038065768121e-31
11
869.10854520659757
21
2197.8582867155365
31
3.5527136788005136e-14
0
ARC
5
406
100
AcDbEntity
8
0
100
AcDbCircle
10
871.37128690638542
20
2195.5955450157307
30
-3.363116314379561e-43
40
3.2000000000000139
100
AcDbArc
50
-45.000000000096435
51
134.99999999977402
0
LINE
5
407
100
AcDbEntity
8
0
100
AcDbLine
10
873.6340286061785
20
2193.3328033159301
30
-1.208734917819457e-41
11
873.6340286061785
21
2190.3837701151238
31
3.5527136788005009e-14
0
ARC
5
408
100
AcDbEntity
8
0
100
AcDbCircle
10
871.37128690638531
20
2188.1210284153235
30
3.5527136788005009e-14
40
3.2000000000001143
100
AcDbArc
50
-135.00000000026341
51
45.000000000089237
0
LINE
5
409
100
AcDbEntity
8
0
100
AcDbLine
10
869.1085452065779
20
2185.8582867155369
30
3.5527136788005009e-14
11
773.63402860617862
21
2185.8582867155365
31
3.5527136788005009e-14
0
LINE
5
410
100
AcDbEntity
8
0
100
AcDbLine
10
773.63402860617862
20
2185.8582867155365
30
3.5527136788005009e-14
11
773.63402860617862
21
2126.3837701151256
31
3.5527136788004997e-14
0
ARC
5
411
100
AcDbEntity
8
0
100
AcDbCircle
10
771.37128690638531
20
2124.1210284153249
30
3.5527136788005009e-14
40
3.1999999999999136
100
AcDbArc
50
-135.00000000019287
51
45.000000000093557
0
LINE
5
412
100
AcDbEntity
8
0
100
AcDbLine
10
769.10854520658074
20
2121.8582867155355
30
3.5527136788005016e-14
11
765.63402860617873
21
2121.8582867155355
31
3.5527136788005016e-14
0
LINE
5
413
100
AcDbEntity
8
0
100
AcDbLine
10
765.63402860617873
20
2121.8582867155355
30
3.5527136788005016e-14
11
765.63402860617862
21
2105.8582867155355
31
3.5527136788005009e-14
0
LINE
5
414
100
AcDbEntity
8
0
100
AcDbLine
10
765.63402860617862
20
2105.8582867155355
30
3.5527136788005009e-14
11
769.10854520659586
21
2105.858286715536
31
0
0
ARC
5
415
100
AcDbEntity
8
0
100
AcDbCircle
10
771.37128690638565
20
2103.5955450157317
30
3.5527136788005016e-14
40
3.1999999999998128
100
AcDbArc
50
-45.000000000097863
51
134.99999999981577
0
LINE
5
416
100
AcDbEntity
8
0
100
AcDbLine
10
773.63402860617862
20
2101.332803315931
30
3.5527136788005016e-14
11
773.63402860617862
21
2100.358286715536
31
3.5527136788005009e-14
0
LINE
5
417
100
AcDbEntity
8
0
100
AcDbLine
10
773.63402860617862
20
2100.358286715536
30
3.5527136788005009e-14
11
833.6340286061785
21
2100.358286715536
31
3.5527136788005009e-14
0
LINE
5
418
100
AcDbEntity
8
0
100
AcDbLine
10
833.6340286061785
20
2100.358286715536
30
3.5527136788005009e-14
11
833.6340286061785
21
2097.358286715536
31
3.5527136788005009e-14
0
LINE
5
419
100
AcDbEntity
8
0
100
AcDbLine
10
833.6340286061785
20
2097.358286715536
30
3.5527136788005009e-14
11
773.63402860617862
21
2097.358286715536
31
3.5527136788005009e-14
0
LINE
5
420
100
AcDbEntity
8
0
100
AcDbLine
10
773.63402860617862
20
2097.358286715536
30
3.5527136788005009e-14
11
773.63402860618953
21
2096.3837701151147
31
0
0
CIRCLE
5
421
100
AcDbEntity
8
0
100
AcDbCircle
10
538.44664034814218
20
1582.7034502758515
30
2.2204460492503131e-15
40
3.999999999999984
0
CIRCLE
5
422
100
AcDbEntity
8
0
100
AcDbCircle
10
600.44664034805749
20
1582.7034502758761
30
2.2204460492503131e-15
40
3.999999999999984
0
LWPOLYLINE
5
423
100
AcDbEntity
8
0
100
AcDbPolyline
90
5
70
1
43
0.0
10
884.4466403481124
20
1642.7034502758625
42
-0.41421356237308671
10
894.44664034811024
20
1632.7034502758604
10
894.44664034809512
20
1562.7034502758606
10
5.4466403480987697
20
1562.7034502760598
10
5.4466403481161763
20
1642.7034502760591
0
CIRCLE
5
424
100
AcDbEntity
8
0
100
AcDbCircle
10
204.44664034811268
20
1634.7034502760127
30
0
40
3.0000000000000924
0
CIRCLE
5
425
100
AcDbEntity
8
0
100
AcDbCircle
10
504.44664034811154
20
1634.7034502759452
30
0
40
3.0000000000000924
0
CIRCLE
5
426
100
AcDbEntity
8
0
100
AcDbCircle
10
84.446640348113249
20
1634.7034502760393
30
0
40
2.7499999999997531
0
CIRCLE
5
427
100
AcDbEntity
8
0
100
AcDbCircle
10
234.44664034811268
20
1634.7034502760062
30
0
40
2.7499999999997531
0
CIRCLE
5
428
100
AcDbEntity
8
0
100
AcDbCircle
10
384.44664034811194
20
1634.7034502759723
30
0
40
2.7499999999997531
0
CIRCLE
5
429
100
AcDbEntity
8
0
100
AcDbCircle
10
534.44664034811137
20
1634.7034502759388
30
0
40
2.7499999999997531
0
CIRCLE
5
430
100
AcDbEntity
8
0
100
AcDbCircle
10
684.44664034811069
20
1634.7034502759052
30
0
40
2.7499999999997531
0
CIRCLE
5
431
100
AcDbEntity
8
0
100
AcDbCircle
10
804.44664034811024
20
1634.7034502758786
30
0
40
3.0000000000000924
0
CIRCLE
5
432
100
AcDbEntity
8
0
100
AcDbCircle
10
834.44664034811001
20
1634.7034502758718
30
0
40
2.7499999999997531
0
CIRCLE
5
433
100
AcDbEntity
8
0
100
AcDbCircle
10
538.44664034812047
20
1494.7034502758468
30
0
40
3.9999999999999973
0
CIRCLE
5
434
100
AcDbEntity
8
0
100
AcDbCircle
10
600.446640348036
20
1494.7034502758711
30
0
40
3.9999999999999973
0
LWPOLYLINE
5
435
100
AcDbEntity
8
0
100
AcDbPolyline
90
5
70
1
43
0.0
10
884.44664034809182
20
1554.7034502758579
42
-0.4142135623730992
10
894.44664034808966
20
1544.7034502758556
10
894.44664034807442
20
1474.7034502758556
10
5.446640348075265
20
1474.7034502760544
10
5.4466403480925862
20
1554.7034502760541
0
CIRCLE
5
436
100
AcDbEntity
8
0
100
AcDbCircle
10
204.44664034809
20
1546.703450276008
30
-2.2204460492503131e-15
40
3.0000000000001026
0
CIRCLE
5
437
100
AcDbEntity
8
0
100
AcDbCircle
10
504.44664034808972
20
1546.7034502759407
30
-2.2204460492503131e-15
40
3.0000000000001026
0
CIRCLE
5
438
100
AcDbEntity
8
0
100
AcDbCircle
10
84.446640348090085
20
1546.7034502760348
30
0
40
2.749999999999762
0
CIRCLE
5
439
100
AcDbEntity
8
0
100
AcDbCircle
10
234.44664034808989
20
1546.7034502760011
30
-2.2204460492503131e-15
40
2.749999999999762
0
CIRCLE
5
440
100
AcDbEntity
8
0
100
AcDbCircle
10
384.44664034808989
20
1546.7034502759677
30
0
40
2.749999999999762
0
CIRCLE
5
441
100
AcDbEntity
8
0
100
AcDbCircle
10
534.44664034808977
20
1546.7034502759338
30
-2.2204460492503131e-15
40
2.749999999999762
0
CIRCLE
5
442
100
AcDbEntity
8
0
100
AcDbCircle
10
684.44664034808966
20
1546.7034502759002
30
0
40
2.749999999999762
0
CIRCLE
5
443
100
AcDbEntity
8
0
100
AcDbCircle
10
804.44664034808943
20
1546.7034502758736
30
-2.2204460492503131e-15
40
3.0000000000001026
0
CIRCLE
5
444
100
AcDbEntity
8
0
100
AcDbCircle
10
834.44664034808943
20
1546.7034502758668
30
-2.2204460492503131e-15
40
2.749999999999762
0
CIRCLE
5
445
100
AcDbEntity
8
0
100
AcDbCircle
10
538.44664034810148
20
1406.7034502758447
30
0
40
3.9999999999999973
0
CIRCLE
5
446
100
AcDbEntity
8
0
100
AcDbCircle
10
600.4466403480169
20
1406.703450275869
30
0
40
3.9999999999999973
0
LWPOLYLINE
5
447
100
AcDbEntity
8
0
100
AcDbPolyline
90
5
70
1
43
0.0
10
884.44664034807272
20
1466.7034502758561
42
-0.4142135623730992
10
894.44664034807056
20
1456.7034502758538
10
894.44664034805544
20
1386.7034502758534
10
5.4466403480562224
20
1386.7034502760523
10
5.4466403480735437
20
1466.7034502760523
0
CIRCLE
5
448
100
AcDbEntity
8
0
100
AcDbCircle
10
204.44664034807096
20
1458.7034502760059
30
0
40
3.0000000000001026
0
CIRCLE
5
449
100
AcDbEntity
8
0
100
AcDbCircle
10
504.44664034807067
20
1458.7034502759386
30
0
40
3.0000000000001026
0
CIRCLE
5
450
100
AcDbEntity
8
0
100
AcDbCircle
10
84.446640348071043
20
1458.7034502760325
30
0
40
2.749999999999762
0
CIRCLE
5
451
100
AcDbEntity
8
0
100
AcDbCircle
10
234.44664034807084
20
1458.7034502759991
30
-2.2204460492503131e-15
40
2.749999999999762
0
CIRCLE
5
452
100
AcDbEntity
8
0
100
AcDbCircle
10
384.44664034807084
20
1458.7034502759657
30
0
40
2.749999999999762
0
CIRCLE
5
453
100
AcDbEntity
8
0
100
AcDbCircle
10
534.44664034807067
20
1458.703450275932
30
0
40
2.749999999999762
0
CIRCLE
5
454
100
AcDbEntity
8
0
100
AcDbCircle
10
684.44664034807056
20
1458.7034502758984
30
0
40
2.749999999999762
0
CIRCLE
5
455
100
AcDbEntity
8
0
100
AcDbCircle
10
804.44664034807033
20
1458.7034502758718
30
0
40
3.0000000000001026
0
CIRCLE
5
456
100
AcDbEntity
8
0
100
AcDbCircle
10
834.44664034807033
20
1458.703450275865
30
0
40
2.749999999999762
0
CIRCLE
5
457
100
AcDbEntity
8
0
100
AcDbCircle
10
538.44664034808238
20
1318.7034502758468
30
2.2204460492503131e-15
40
3.9999999999999973
0
CIRCLE
5
458
100
AcDbEntity
8
0
100
AcDbCircle
10
600.44664034799791
20
1318.7034502758711
30
2.2204460492503131e-15
40
3.9999999999999973
0
LWPOLYLINE
5
459
100
AcDbEntity
8
0
100
AcDbPolyline
90
5
70
1
43
0.0
10
884.44664034805373
20
1378.7034502758581
42
-0.4142135623730992
10
894.44664034805157
20
1368.7034502758559
10
894.44664034803634
20
1298.7034502758556
10
5.4466403480371799
20
1298.7034502760546
10
5.4466403480545011
20
1378.7034502760546
0
CIRCLE
5
460
100
AcDbEntity
8
0
100
AcDbCircle
10
204.44664034805191
20
1370.703450276008
30
0
40
3.0000000000001026
0
CIRCLE
5
461
100
AcDbEntity
8
0
100
AcDbCircle
10
504.44664034805163
20
1370.7034502759407
30
0
40
3.0000000000001026
0
CIRCLE
5
462
100
AcDbEntity
8
0
100
AcDbCircle
10
84.446640348052
20
1370.7034502760348
30
0
40
2.749999999999762
0
CIRCLE
5
463
100
AcDbEntity
8
0
100
AcDbCircle
10
234.4466403480518
20
1370.7034502760011
30
0
40
2.749999999999762
0
CIRCLE
5
464
100
AcDbEntity
8
0
100
AcDbCircle
10
384.4466403480518
20
1370.7034502759677
30
0
40
2.749999999999762
0
CIRCLE
5
465
100
AcDbEntity
8
0
100
AcDbCircle
10
534.44664034805169
20
1370.7034502759343
30
0
40
2.749999999999762
0
CIRCLE
5
466
100
AcDbEntity
8
0
100
AcDbCircle
10
684.44664034805157
20
1370.7034502759007
30
0
40
2.749999999999762
0
CIRCLE
5
467
100
AcDbEntity
8
0
100
AcDbCircle
10
804.44664034805123
20
1370.7034502758738
30
0
40
3.0000000000001026
0
CIRCLE
5
468
100
AcDbEntity
8
0
100
AcDbCircle
10
834.44664034805123
20
1370.703450275867
30
0
40
2.749999999999762
0
CIRCLE
5
469
100
AcDbEntity
8
0
100
AcDbCircle
10
1115.1977298816569
20
1218.2252420560314
30
0
40
3.0000000000000866
0
CIRCLE
5
470
100
AcDbEntity
8
0
100
AcDbCircle
10
815.19772988165846
20
1218.2252420560358
30
-2.2204460492503131e-15
40
3.0000000000000866
0
CIRCLE
5
471
100
AcDbEntity
8
0
100
AcDbCircle
10
623.19772988165948
20
1218.2252420560385
30
-2.2204460492503131e-15
40
2.7499999999997478
0
CIRCLE
5
472
100
AcDbEntity
8
0
100
AcDbCircle
10
1145.1977298816569
20
1218.225242056031
30
0
40
2.7499999999997478
0
CIRCLE
5
473
100
AcDbEntity
8
0
100
AcDbCircle
10
695.19772988165892
20
1218.2252420560374
30
0
40
2.7499999999997478
0
CIRCLE
5
474
100
AcDbEntity
8
0
100
AcDbCircle
10
845.19772988165823
20
1218.2252420560351
30
0
40
2.7499999999997478
0
CIRCLE
5
475
100
AcDbEntity
8
0
100
AcDbCircle
10
995.19772988165755
20
1218.225242056033
30
0
40
2.7499999999997478
0
CIRCLE
5
476
100
AcDbEntity
8
0
100
AcDbCircle
10
597.19772988165937
20
1218.2252420560387
30
0
40
2.7499999999997478
0
CIRCLE
5
477
100
AcDbEntity
8
0
100
AcDbCircle
10
405.19772988166051
20
1218.2252420560415
30
-2.2204460492503131e-15
40
3.0000000000000866
0
CIRCLE
5
478
100
AcDbEntity
8
0
100
AcDbCircle
10
105.19772988166203
20
1218.2252420560458
30
-2.2204460492503131e-15
40
3.0000000000000866
0
CIRCLE
5
479
100
AcDbEntity
8
0
100
AcDbCircle
10
525.19772988165994
20
1218.2252420560396
30
-2.2204460492503131e-15
40
2.7499999999997478
0
CIRCLE
5
480
100
AcDbEntity
8
0
100
AcDbCircle
10
375.19772988166068
20
1218.2252420560419
30
0
40
2.7499999999997478
0
CIRCLE
5
481
100
AcDbEntity
8
0
100
AcDbCircle
10
225.19772988166147
20
1218.225242056044
30
0
40
2.7499999999997478
0
CIRCLE
5
482
100
AcDbEntity
8
0
100
AcDbCircle
10
75.19772988166217
20
1218.225242056046
30
0
40
2.7499999999997478
0
LWPOLYLINE
5
483
100
AcDbEntity
8
0
100
AcDbPolyline
90
4
70
1
43
0.0
10
1215.1977298816566
20
1290.2252420560283
10
1215.1977298816555
20
1210.2252420560287
10
5.1977298816617212
20
1210.2252420560453
10
5.1977298816628092
20
1290.2252420560446
0
CIRCLE
5
484
100
AcDbEntity
8
0
100
AcDbCircle
10
107.21084728210528
20
1192.1710686564868
30
0
40
3.0000000000000897
0
CIRCLE
5
485
100
AcDbEntity
8
0
100
AcDbCircle
10
407.21084728210394
20
1192.1710686566012
30
0
40
3.0000000000000897
0
CIRCLE
5
486
100
AcDbEntity
8
0
100
AcDbCircle
10
599.21084728210303
20
1192.1710686566742
30
0
40
2.7499999999997504
0
CIRCLE
5
487
100
AcDbEntity
8
0
100
AcDbCircle
10
77.210847282105277
20
1192.1710686564754
30
0
40
2.7499999999997504
0
CIRCLE
5
488
100
AcDbEntity
8
0
100
AcDbCircle
10
527.21084728210349
20
1192.1710686566466
30
0
40
2.7499999999997504
0
CIRCLE
5
489
100
AcDbEntity
8
0
100
AcDbCircle
10
377.21084728210417
20
1192.1710686565898
30
0
40
2.7499999999997504
0
CIRCLE
5
490
100
AcDbEntity
8
0
100
AcDbCircle
10
227.21084728210479
20
1192.1710686565327
30
0
40
2.7499999999997504
0
CIRCLE
5
491
100
AcDbEntity
8
0
100
AcDbCircle
10
625.21084728210315
20
1192.1710686566842
30
0
40
2.7499999999997504
0
CIRCLE
5
492
100
AcDbEntity
8
0
100
AcDbCircle
10
817.21084728210212
20
1192.1710686567574
30
0
40
3.0000000000000897
0
CIRCLE
5
493
100
AcDbEntity
8
0
100
AcDbCircle
10
1117.210847282101
20
1192.1710686568715
30
0
40
3.0000000000000897
0
CIRCLE
5
494
100
AcDbEntity
8
0
100
AcDbCircle
10
697.21084728210269
20
1192.1710686567117
30
0
40
2.7499999999997504
0
CIRCLE
5
495
100
AcDbEntity
8
0
100
AcDbCircle
10
847.21084728210201
20
1192.1710686567687
30
0
40
2.7499999999997504
0
CIRCLE
5
496
100
AcDbEntity
8
0
100
AcDbCircle
10
997.21084728210144
20
1192.1710686568258
30
0
40
2.7499999999997504
0
CIRCLE
5
497
100
AcDbEntity
8
0
100
AcDbCircle
10
1147.210847282101
20
1192.1710686568829
30
0
40
2.7499999999997504
0
LWPOLYLINE
5
498
100
AcDbEntity
8
0
100
AcDbPolyline
90
4
70
1
43
0.0
10
7.2108472821336065
20
1120.1710686564504
10
7.2108472821032876
20
1200.17106865645
10
1217.2108472820983
20
1200.1710686569115
10
1217.2108472821285
20
1120.171068656912
0
LWPOLYLINE
5
499
100
AcDbEntity
8
0
100
AcDbPolyline
90
8
70
1
43
0.0
10
109.00033333333354
20
136.99999999999994
42
-0.99999999999999989
10
109.00033333333354
20
130.59999999999997
10
109.00033333333354
20
127.39999999999988
42
-0.99999999999999989
10
109.00033333333354
20
120.99999999999987
10
101.00033333333357
20
120.99999999999987
42
-0.99999999999999989
10
101.00033333333357
20
127.39999999999988
10
101.00033333333357
20
130.59999999999997
42
-0.99999999999999989
10
101.00033333333357
20
136.99999999999994
0
LWPOLYLINE
5
500
100
AcDbEntity
8
0
100
AcDbPolyline
90
8
70
1
43
0.0
10
101.00033333333343
20
651
42
-0.99999999999999989
10
101.00033333333357
20
657.39999999999986
10
101.00033333333343
20
660.60000000000002
42
-0.99999999999999989
10
101.00033333333357
20
666.99999999999989
10
109.00033333333369
20
666.99999999999989
42
-0.99999999999999989
10
109.00033333333354
20
660.60000000000002
10
109.00033333333369
20
657.39999999999986
42
-0.99999999999999989
10
109.00033333333354
20
651
0
LWPOLYLINE
5
501
100
AcDbEntity
8
0
100
AcDbPolyline
90
8
70
1
43
0.0
10
101.00033333333343
20
681
42
-0.99999999999999989
10
101.00033333333357
20
687.39999999999986
10
101.00033333333343
20
690.60000000000002
42
-0.99999999999999989
10
101.00033333333357
20
696.99999999999989
10
109.00033333333369
20
696.99999999999989
42
-0.99999999999999989
10
109.00033333333354
20
690.60000000000002
10
109.00033333333369
20
687.39999999999986
42
-0.99999999999999989
10
109.00033333333354
20
681
0
LWPOLYLINE
5
502
100
AcDbEntity
8
0
100
AcDbPolyline
90
8
70
1
43
0.0
10
109.00033333333354
20
97.399999999999878
42
-0.99999999999999989
10
109.00033333333354
20
90.999999999999872
10
101.00033333333357
20
90.999999999999872
42
-0.99999999999999989
10
101.00033333333357
20
97.399999999999878
10
101.00033333333357
20
100.59999999999995
42
-0.99999999999999989
10
101.00033333333357
20
106.99999999999996
10
109.00033333333354
20
106.99999999999996
42
-0.99999999999999989
10
109.00033333333354
20
100.59999999999995
0
LWPOLYLINE
5
503
100
AcDbEntity
8
0
100
AcDbPolyline
90
8
70
1
43
0.0
10
1110.9996666666668
20
681
42
-0.99999999999999989
10
1110.9996666666668
20
687.39999999999986
10
1110.9996666666668
20
690.60000000000002
42
-0.99999999999999989
10
1110.9996666666668
20
696.99999999999989
10
1118.9996666666666
20
696.99999999999989
42
-0.99999999999999989
10
1118.9996666666666
20
690.60000000000002
10
1118.9996666666666
20
687.39999999999986
42
-0.99999999999999989
10
1118.9996666666666
20
681
0
LWPOLYLINE
5
504
100
AcDbEntity
8
0
100
AcDbPolyline
90
8
70
1
43
0.0
10
1118.9996666666666
20
136.99999999999989
42
-0.99999999999999989
10
1118.9996666666666
20
130.60000000000002
10
1118.9996666666666
20
127.39999999999981
42
-0.99999999999999989
10
1118.9996666666666
20
120.99999999999994
10
1110.9996666666668
20
120.99999999999994
42
-0.99999999999999989
10
1110.9996666666668
20
127.39999999999981
10
1110.9996666666668
20
130.60000000000002
42
-0.99999999999999989
10
1110.9996666666668
20
136.99999999999989
0
LWPOLYLINE
5
505
100
AcDbEntity
8
0
100
AcDbPolyline
90
8
70
1
43
0.0
10
1110.9996666666668
20
651
42
-0.99999999999999989
10
1110.9996666666668
20
657.39999999999986
10
1110.9996666666668
20
660.60000000000002
42
-0.99999999999999989
10
1110.9996666666668
20
666.99999999999989
10
1118.9996666666666
20
666.99999999999989
42
-0.99999999999999989
10
1118.9996666666666
20
660.60000000000002
10
1118.9996666666666
20
657.39999999999986
42
-0.99999999999999989
10
1118.9996666666666
20
651
0
LWPOLYLINE
5
506
100
AcDbEntity
8
0
100
AcDbPolyline
90
8
70
1
43
0.0
10
1118.9996666666666
20
97.399999999999807
42
-0.99999999999999989
10
1118.9996666666666
20
90.999999999999943
10
1110.9996666666668
20
90.999999999999943
42
-0.99999999999999989
10
1110.9996666666668
20
97.399999999999807
10
1110.9996666666668
20
100.60000000000002
42
-0.99999999999999989
10
1110.9996666666668
20
106.99999999999989
10
1118.9996666666666
20
106.99999999999989
42
-0.99999999999999989
10
1118.9996666666666
20
100.60000000000002
0
LWPOLYLINE
5
507
100
AcDbEntity
8
0
100
AcDbPolyline
90
8
70
1
43
0.0
10
432.33333333333348
20
90.999999999999872
42
-0.99999999999999989
10
432.33333333333348
20
97.399999999999878
10
432.33333333333348
20
100.59999999999995
42
-0.99999999999999989
10
432.33333333333348
20
106.99999999999996
10
440.33333333333348
20
106.99999999999996
42
-0.99999999999999989
10
440.33333333333348
20
100.59999999999995
10
440.33333333333354
20
97.39999999999992
42
-0.99999999999999989
10
440.33333333333337
20
90.999999999999872
0
LWPOLYLINE
5
508
100
AcDbEntity
8
0
100
AcDbPolyline
90
8
70
1
43
0.0
10
440.33333333333366
20
687.39999999999986
42
-0.99999999999999989
10
440.33333333333337
20
681
10
432.33333333333343
20
681
42
-0.99999999999999989
10
432.33333333333343
20
687.39999999999986
10
432.33333333333343
20
690.60000000000002
42
-0.99999999999999989
10
432.33333333333343
20
696.99999999999989
10
440.33333333333366
20
696.99999999999989
42
-0.99999999999999989
10
440.33333333333337
20
690.60000000000002
0
LWPOLYLINE
5
509
100
AcDbEntity
8
0
100
AcDbPolyline
90
8
70
1
43
0.0
10
440.33333333333348
20
127.39999999999988
42
-0.99999999999999989
10
440.33333333333348
20
120.99999999999987
10
432.33333333333348
20
120.99999999999987
42
-0.99999999999999989
10
432.33333333333348
20
127.39999999999988
10
432.33333333333348
20
130.59999999999997
42
-0.99999999999999989
10
432.33333333333348
20
136.99999999999994
10
440.33333333333348
20
136.99999999999994
42
-0.99999999999999989
10
440.33333333333348
20
130.59999999999997
0
LWPOLYLINE
5
510
100
AcDbEntity
8
0
100
AcDbPolyline
90
8
70
1
43
0.0
10
779.66666666666686
20
90.999999999999943
42
-0.99999999999999989
10
779.66666666666686
20
97.399999999999807
10
779.66666666666686
20
100.60000000000002
42
-0.99999999999999989
10
779.66666666666686
20
106.99999999999989
10
787.66666666666674
20
106.99999999999989
42
-0.99999999999999989
10
787.66666666666674
20
100.60000000000002
10
787.66666666666674
20
97.399999999999807
42
-0.99999999999999989
10
787.66666666666674
20
90.999999999999943
0
LWPOLYLINE
5
511
100
AcDbEntity
8
0
100
AcDbPolyline
90
8
70
1
43
0.0
10
787.66666666666674
20
687.39999999999986
42
-0.99999999999999989
10
787.66666666666674
20
681
10
779.66666666666686
20
681
42
-0.99999999999999989
10
779.66666666666686
20
687.39999999999986
10
779.66666666666686
20
690.60000000000002
42
-0.99999999999999989
10
779.66666666666686
20
696.99999999999989
10
787.66666666666674
20
696.99999999999989
42
-0.99999999999999989
10
787.66666666666674
20
690.60000000000002
0
LWPOLYLINE
5
512
100
AcDbEntity
8
0
100
AcDbPolyline
90
8
70
1
43
0.0
10
787.66666666666674
20
127.39999999999981
42
-0.99999999999999989
10
787.66666666666674
20
120.99999999999994
10
779.66666666666686
20
120.99999999999994
42
-0.99999999999999989
10
779.66666666666686
20
127.39999999999981
10
779.66666666666686
20
130.60000000000002
42
-0.99999999999999989
10
779.66666666666686
20
136.99999999999989
10
787.66666666666674
20
136.99999999999989
42
-0.99999999999999989
10
787.66666666666674
20
130.60000000000002
0
LWPOLYLINE
5
513
100
AcDbEntity
8
0
100
AcDbPolyline
90
8
70
1
43
0.0
10
787.66666666666674
20
666.99999999999989
42
-0.99999999999999989
10
787.66666666666674
20
660.60000000000002
10
787.66666666666674
20
657.39999999999986
42
-0.99999999999999989
10
787.66666666666674
20
651
10
779.66666666666686
20
651
42
-0.99999999999999989
10
779.66666666666686
20
657.39999999999986
10
779.66666666666686
20
660.60000000000002
42
-0.99999999999999989
10
779.66666666666686
20
666.99999999999989
0
LWPOLYLINE
5
514
100
AcDbEntity
8
0
100
AcDbPolyline
90
8
70
1
43
0.0
10
440.33333333333366
20
666.99999999999989
42
-0.99999999999999989
10
440.33333333333337
20
660.60000000000002
10
440.33333333333366
20
657.39999999999986
42
-0.99999999999999989
10
440.33333333333337
20
651
10
432.33333333333343
20
651
42
-0.99999999999999989
10
432.33333333333343
20
657.39999999999986
10
432.33333333333343
20
660.60000000000002
42
-0.99999999999999989
10
432.33333333333343
20
666.99999999999989
0
CIRCLE
5
515
100
AcDbEntity
8
0
100
AcDbCircle
10
105.00033333333349
20
114.00000000000006
30
0
40
2.5
0
CIRCLE
5
516
100
AcDbEntity
8
0
100
AcDbCircle
10
105.00033333333349
20
674
30
0
40
2.5
0
CIRCLE
5
517
100
AcDbEntity
8
0
100
AcDbCircle
10
1114.9996666666666
20
674
30
0
40
2.5
0
CIRCLE
5
518
100
AcDbEntity
8
0
100
AcDbCircle
10
1114.9996666666666
20
114.00000000000006
30
0
40
2.5
0
CIRCLE
5
519
100
AcDbEntity
8
0
100
AcDbCircle
10
60
20
294.00000000000006
30
0
40
2.9999999999999716
0
CIRCLE
5
520
100
AcDbEntity
8
0
100
AcDbCircle
10
1160
20
294.00000000000006
30
0
40
2.9999999999999716
0
CIRCLE
5
521
100
AcDbEntity
8
0
100
AcDbCircle
10
8.000000000220524
20
989.99999999971487
30
0
40
3.0000000000001137
0
CIRCLE
5
522
100
AcDbEntity
8
0
100
AcDbCircle
10
8.0000000004569927
20
389.9999999997151
30
0
40
3.0000000000001137
0
CIRCLE
5
523
100
AcDbEntity
8
0
100
AcDbCircle
10
8.0000000005751559
20
89.999999999715214
30
0
40
3.0000000000001137
0
CIRCLE
5
524
100
AcDbEntity
8
0
100
AcDbCircle
10
8.000000000587022
20
59.999999999715214
30
0
40
2.7499999999997726
0
CIRCLE
5
525
100
AcDbEntity
8
0
100
AcDbCircle
10
8.0000000003387584
20
689.9999999997151
30
0
40
3.0000000000001137
0
CIRCLE
5
526
100
AcDbEntity
8
0
100
AcDbCircle
10
8.0000000002323191
20
959.99999999971487
30
0
40
2.7499999999997726
0
CIRCLE
5
527
100
AcDbEntity
8
0
100
AcDbCircle
10
8.0000000003505534
20
659.9999999997151
30
0
40
2.7499999999997726
0
CIRCLE
5
528
100
AcDbEntity
8
0
100
AcDbCircle
10
8.0000000005279048
20
209.99999999971507
30
0
40
2.7499999999997726
0
CIRCLE
5
529
100
AcDbEntity
8
0
100
AcDbCircle
10
8.0000000004096705
20
509.9999999997151
30
0
40
2.7499999999997726
0
CIRCLE
5
530
100
AcDbEntity
8
0
100
AcDbCircle
10
8.0000000002915073
20
809.99999999971487
30
0
40
2.7499999999997726
0
CIRCLE
5
531
100
AcDbEntity
8
0
100
AcDbCircle
10
8.0000000004687877
20
359.9999999997151
30
0
40
2.7499999999997726
0
CIRCLE
5
532
100
AcDbEntity
8
0
100
AcDbCircle
10
783.66666666666674
20
114.00000000000006
30
0
40
2.5
0
CIRCLE
5
533
100
AcDbEntity
8
0
100
AcDbCircle
10
783.66666666666674
20
674
30
0
40
2.5
0
CIRCLE
5
534
100
AcDbEntity
8
0
100
AcDbCircle
10
436.33333333333337
20
114.00000000000006
30
0
40
2.5
0
CIRCLE
5
535
100
AcDbEntity
8
0
100
AcDbCircle
10
436.33333333333337
20
674
30
0
40
2.5
0
CIRCLE
5
536
100
AcDbEntity
8
0
100
AcDbCircle
10
945
20
625.99999999999966
30
0
40
2.5
0
CIRCLE
5
537
100
AcDbEntity
8
0
100
AcDbCircle
10
274.99999999999994
20
625.99999999999966
30
0
40
2.5
0
CIRCLE
5
538
100
AcDbEntity
8
0
100
AcDbCircle
10
609.99999999999989
20
625.99999999999955
30
0
40
2.5
0
CIRCLE
5
539
100
AcDbEntity
8
0
100
AcDbCircle
10
945
20
321.99999999999989
30
0
40
2.5
0
CIRCLE
5
540
100
AcDbEntity
8
0
100
AcDbCircle
10
274.99999999999989
20
929.99999999999977
30
0
40
2.5
0
CIRCLE
5
541
100
AcDbEntity
8
0
100
AcDbCircle
10
944.99999999999989
20
929.99999999999977
30
0
40
2.5
0
CIRCLE
5
542
100
AcDbEntity
8
0
100
AcDbCircle
10
609.99999999999989
20
321.99999999999977
30
0
40
2.5
0
CIRCLE
5
543
100
AcDbEntity
8
0
100
AcDbCircle
10
609.99999999999989
20
929.99999999999955
30
0
40
2.5
0
CIRCLE
5
544
100
AcDbEntity
8
0
100
AcDbCircle
10
274.99999999999994
20
321.99999999999989
30
0
40
2.5
0
LWPOLYLINE
5
545
100
AcDbEntity
8
0
100
AcDbPolyline
90
8
70
1
43
0.0
10
586.99999999999989
20
629.99999999999955
42
-0.99999999999999989
10
593.39999999999986
20
629.99999999999977
10
596.59999999999991
20
629.99999999999977
42
-0.99999999999999989
10
602.99999999999989
20
629.99999999999977
10
602.99999999999989
20
621.99999999999955
42
-0.99999999999999989
10
596.59999999999991
20
621.99999999999955
10
593.39999999999986
20
621.99999999999977
42
-0.99999999999999989
10
586.99999999999989
20
621.99999999999955
0
LWPOLYLINE
5
546
100
AcDbEntity
8
0
100
AcDbPolyline
90
8
70
1
43
0.0
10
928.39999999999975
20
621.99999999999955
42
-0.99999999999999989
10
921.99999999999989
20
621.99999999999955
10
921.99999999999989
20
629.99999999999977
42
-0.99999999999999989
10
928.39999999999975
20
629.99999999999977
10
931.60000000000014
20
629.99999999999977
42
-0.99999999999999989
10
938
20
629.99999999999977
10
938
20
621.99999999999955
42
-0.99999999999999989
10
931.60000000000014
20
621.99999999999955
0
LWPOLYLINE
5
547
100
AcDbEntity
8
0
100
AcDbPolyline
90
8
70
1
43
0.0
10
251.99999999999994
20
629.99999999999977
42
-0.99999999999999989
10
258.39999999999998
20
629.99999999999977
10
261.60000000000002
20
629.99999999999977
42
-0.99999999999999989
10
268.00000000000006
20
629.99999999999977
10
268.00000000000006
20
621.99999999999955
42
-0.99999999999999989
10
261.60000000000002
20
621.99999999999955
10
258.39999999999998
20
621.99999999999955
42
-0.99999999999999989
10
251.99999999999994
20
621.99999999999955
0
LWPOLYLINE
5
548
100
AcDbEntity
8
0
100
AcDbPolyline
90
8
70
1
43
0.0
10
616.99999999999989
20
629.99999999999955
42
-0.99999999999999989
10
623.39999999999986
20
629.99999999999977
10
626.59999999999991
20
629.99999999999977
42
-0.99999999999999989
10
632.99999999999989
20
629.99999999999977
10
632.99999999999989
20
621.99999999999955
42
-0.99999999999999989
10
626.59999999999991
20
621.99999999999955
10
623.39999999999986
20
621.99999999999977
42
-0.99999999999999989
10
616.99999999999989
20
621.99999999999955
0
LWPOLYLINE
5
549
100
AcDbEntity
8
0
100
AcDbPolyline
90
8
70
1
43
0.0
10
281.99999999999989
20
933.99999999999977
42
-0.99999999999999989
10
288.39999999999986
20
933.99999999999977
10
291.59999999999991
20
933.99999999999977
42
-0.99999999999999989
10
297.99999999999994
20
933.99999999999977
10
297.99999999999994
20
925.99999999999966
42
-0.99999999999999989
10
291.59999999999991
20
925.99999999999966
10
288.39999999999986
20
925.99999999999966
42
-0.99999999999999989
10
281.99999999999989
20
925.99999999999966
0
LWPOLYLINE
5
550
100
AcDbEntity
8
0
100
AcDbPolyline
90
8
70
1
43
0.0
10
593.39999999999975
20
926
42
-0.99999999999999989
10
586.99999999999977
20
925.99999999999966
10
586.99999999999977
20
933.99999999999955
42
-0.99999999999999989
10
593.39999999999975
20
933.99999999999977
10
596.5999999999998
20
933.99999999999977
42
-0.99999999999999989
10
602.99999999999977
20
933.99999999999977
10
602.99999999999977
20
925.99999999999966
42
-0.99999999999999989
10
596.5999999999998
20
925.99999999999966
0
LWPOLYLINE
5
551
100
AcDbEntity
8
0
100
AcDbPolyline
90
8
70
1
43
0.0
10
921.99999999999989
20
933.99999999999977
42
-0.99999999999999989
10
928.39999999999975
20
933.99999999999977
10
931.59999999999991
20
933.99999999999977
42
-0.99999999999999989
10
937.99999999999977
20
933.99999999999977
10
937.99999999999977
20
925.99999999999966
42
-0.99999999999999989
10
931.59999999999991
20
925.99999999999966
10
928.39999999999975
20
925.99999999999966
42
-0.99999999999999989
10
921.99999999999989
20
925.99999999999966
0
LWPOLYLINE
5
552
100
AcDbEntity
8
0
100
AcDbPolyline
90
8
70
1
43
0.0
10
288.39999999999998
20
621.99999999999955
42
-0.99999999999999989
10
281.99999999999994
20
621.99999999999955
10
281.99999999999994
20
629.99999999999977
42
-0.99999999999999989
10
288.39999999999998
20
629.99999999999977
10
291.59999999999991
20
629.99999999999977
42
-0.99999999999999989
10
297.99999999999989
20
629.99999999999977
10
297.99999999999989
20
621.99999999999955
42
-0.99999999999999989
10
291.59999999999991
20
621.99999999999955
0
LWPOLYLINE
5
553
100
AcDbEntity
8
0
100
AcDbPolyline
90
8
70
1
43
0.0
10
961.60000000000014
20
629.99999999999977
42
-0.99999999999999989
10
968
20
629.99999999999977
10
968
20
621.99999999999955
42
-0.99999999999999989
10
961.60000000000014
20
621.99999999999955
10
958.39999999999975
20
621.99999999999955
42
-0.99999999999999989
10
951.99999999999989
20
621.99999999999955
10
951.99999999999989
20
629.99999999999977
42
-0.99999999999999989
10
958.39999999999975
20
629.99999999999977
0
LWPOLYLINE
5
554
100
AcDbEntity
8
0
100
AcDbPolyline
90
8
70
1
43
0.0
10
288.39999999999998
20
317.99999999999983
42
-0.99999999999999989
10
281.99999999999994
20
317.99999999999983
10
281.99999999999994
20
325.99999999999994
42
-0.99999999999999989
10
288.39999999999998
20
325.99999999999994
10
291.59999999999997
20
325.99999999999994
42
-0.99999999999999989
10
298
20
325.99999999999994
10
298
20
317.99999999999983
42
-0.99999999999999989
10
291.59999999999997
20
317.99999999999983
0
LWPOLYLINE
5
555
100
AcDbEntity
8
0
100
AcDbPolyline
90
8
70
1
43
0.0
10
623.39999999999975
20
926
42
-0.99999999999999989
10
616.99999999999977
20
925.99999999999966
10
616.99999999999977
20
933.99999999999955
42
-0.99999999999999989
10
623.39999999999975
20
933.99999999999977
10
626.5999999999998
20
933.99999999999977
42
-0.99999999999999989
10
632.99999999999977
20
933.99999999999977
10
632.99999999999977
20
925.99999999999966
42
-0.99999999999999989
10
626.5999999999998
20
925.99999999999966
0
LWPOLYLINE
5
556
100
AcDbEntity
8
0
100
AcDbPolyline
90
8
70
1
43
0.0
10
951.99999999999989
20
933.99999999999977
42
-0.99999999999999989
10
958.39999999999975
20
933.99999999999977
10
961.59999999999991
20
933.99999999999977
42
-0.99999999999999989
10
967.99999999999977
20
933.99999999999977
10
967.99999999999977
20
925.99999999999966
42
-0.99999999999999989
10
961.59999999999991
20
925.99999999999966
10
958.39999999999975
20
925.99999999999966
42
-0.99999999999999989
10
951.99999999999989
20
925.99999999999966
0
LWPOLYLINE
5
557
100
AcDbEntity
8
0
100
AcDbPolyline
90
8
70
1
43
0.0
10
267.99999999999989
20
925.99999999999966
42
-0.99999999999999989
10
261.59999999999991
20
925.99999999999966
10
258.39999999999986
20
925.99999999999966
42
-0.99999999999999989
10
251.99999999999989
20
925.99999999999966
10
251.99999999999989
20
933.99999999999977
42
-0.99999999999999989
10
258.39999999999986
20
933.99999999999977
10
261.59999999999991
20
933.99999999999977
42
-0.99999999999999989
10
267.99999999999989
20
933.99999999999977
0
LWPOLYLINE
5
558
100
AcDbEntity
8
0
100
AcDbPolyline
90
8
70
1
43
0.0
10
258.39999999999998
20
317.99999999999983
42
-0.99999999999999989
10
251.99999999999994
20
317.99999999999983
10
251.99999999999994
20
325.99999999999994
42
-0.99999999999999989
10
258.39999999999998
20
325.99999999999994
10
261.60000000000002
20
325.99999999999994
42
-0.99999999999999989
10
268.00000000000006
20
325.99999999999994
10
268.00000000000006
20
317.99999999999983
42
-0.99999999999999989
10
261.60000000000002
20
317.99999999999983
0
LWPOLYLINE
5
559
100
AcDbEntity
8
0
100
AcDbPolyline
90
8
70
1
43
0.0
10
938
20
317.99999999999983
42
-0.99999999999999989
10
931.60000000000014
20
317.99999999999983
10
928.39999999999975
20
317.99999999999983
42
-0.99999999999999989
10
921.99999999999989
20
317.99999999999983
10
921.99999999999989
20
325.99999999999994
42
-0.99999999999999989
10
928.39999999999975
20
325.99999999999994
10
931.60000000000014
20
325.99999999999994
42
-0.99999999999999989
10
938
20
325.99999999999994
0
LWPOLYLINE
5
560
100
AcDbEntity
8
0
100
AcDbPolyline
90
8
70
1
43
0.0
10
616.99999999999977
20
325.99999999999994
42
-0.99999999999999989
10
623.39999999999986
20
325.99999999999994
10
626.5999999999998
20
325.99999999999977
42
-0.99999999999999989
10
632.99999999999977
20
325.99999999999994
10
632.99999999999977
20
317.99999999999989
42
-0.99999999999999989
10
626.5999999999998
20
317.99999999999983
10
623.39999999999986
20
317.99999999999977
42
-0.99999999999999989
10
616.99999999999977
20
317.99999999999983
0
LWPOLYLINE
5
561
100
AcDbEntity
8
0
100
AcDbPolyline
90
8
70
1
43
0.0
10
602.99999999999977
20
317.99999999999989
42
-0.99999999999999989
10
596.5999999999998
20
317.99999999999983
10
593.39999999999986
20
317.99999999999977
42
-0.99999999999999989
10
586.99999999999977
20
317.99999999999983
10
586.99999999999977
20
325.99999999999994
42
-0.99999999999999989
10
593.39999999999986
20
325.99999999999994
10
596.5999999999998
20
325.99999999999977
42
-0.99999999999999989
10
602.99999999999977
20
325.99999999999994
0
LWPOLYLINE
5
562
100
AcDbEntity
8
0
100
AcDbPolyline
90
8
70
1
43
0.0
10
951.99999999999989
20
325.99999999999994
42
-0.99999999999999989
10
958.39999999999975
20
325.99999999999994
10
961.60000000000014
20
325.99999999999994
42
-0.99999999999999989
10
968
20
325.99999999999994
10
968
20
317.99999999999983
42
-0.99999999999999989
10
961.60000000000014
20
317.99999999999983
10
958.39999999999975
20
317.99999999999983
42
-0.99999999999999989
10
951.99999999999989
20
317.99999999999983
0
LWPOLYLINE
5
563
100
AcDbEntity
8
0
100
AcDbPolyline
90
8
70
1
43
0.0
10
961.60000000000059
20
37.999999999999545
42
-0.99999999999999989
10
968.00000000000045
20
37.999999999999545
10
968.00000000000068
20
29.999999999999716
42
-0.99999999999999989
10
961.60000000000082
20
29.999999999999716
10
958.40000000000032
20
29.999999999999716
42
-0.99999999999999989
10
952.00000000000045
20
29.999999999999716
10
952.00000000000045
20
37.999999999999545
42
-0.99999999999999989
10
958.40000000000032
20
38.000000000000114
0
CIRCLE
5
564
100
AcDbEntity
8
0
100
AcDbCircle
10
945.00000000000045
20
33.999999999999773
30
0
40
2.5
0
LWPOLYLINE
5
565
100
AcDbEntity
8
0
100
AcDbPolyline
90
8
70
1
43
0.0
10
931.60000000000059
20
37.999999999999829
42
-0.99999999999999989
10
938.00000000000045
20
37.999999999999829
10
938.00000000000045
20
29.999999999999716
42
-0.99999999999999989
10
931.60000000000059
20
29.999999999999716
10
928.40000000000032
20
29.999999999999716
42
-0.99999999999999989
10
922.00000000000045
20
29.999999999999716
10
922.00000000000045
20
37.999999999999545
42
-0.99999999999999989
10
928.40000000000032
20
38.000000000000114
0
LWPOLYLINE
5
566
100
AcDbEntity
8
0
100
AcDbPolyline
90
8
70
1
43
0.0
10
626.60000000000093
20
38.000000000000043
42
-0.99999999999999989
10
633.00000000000091
20
38.000000000000114
10
633.00000000000091
20
30.000000000000071
42
-0.99999999999999989
10
626.60000000000093
20
30
10
623.400000000001
20
30.000000000000071
42
-0.99999999999999989
10
617.00000000000091
20
30
10
617.00000000000091
20
38.000000000000185
42
-0.99999999999999989
10
623.400000000001
20
38.000000000000114
0
CIRCLE
5
567
100
AcDbEntity
8
0
100
AcDbCircle
10
610.00000000000091
20
34.000000000000057
30
0
40
2.5
0
LWPOLYLINE
5
568
100
AcDbEntity
8
0
100
AcDbPolyline
90
8
70
1
43
0.0
10
596.60000000000093
20
38.000000000000043
42
-0.99999999999999989
10
603.00000000000091
20
38.000000000000114
10
603.00000000000091
20
30.000000000000071
42
-0.99999999999999989
10
596.60000000000093
20
30
10
593.400000000001
20
29.999999999999645
42
-0.99999999999999989
10
587.00000000000091
20
29.999999999999716
10
587.00000000000091
20
37.999999999999474
42
-0.99999999999999989
10
593.400000000001
20
38.000000000000114
0
LWPOLYLINE
5
569
100
AcDbEntity
8
0
100
AcDbPolyline
90
8
70
1
43
0.0
10
291.60000000000048
20
38.000000000000398
42
-0.99999999999999989
10
298.00000000000051
20
38.000000000000398
10
298.00000000000051
20
30.000000000000284
42
-0.99999999999999989
10
291.60000000000048
20
30.000000000000284
10
288.40000000000038
20
30.000000000000284
42
-0.99999999999999989
10
282.0000000000004
20
30.000000000000284
10
282.00000000000045
20
38.000000000000114
42
-0.99999999999999989
10
288.40000000000043
20
38.000000000000682
0
CIRCLE
5
570
100
AcDbEntity
8
0
100
AcDbCircle
10
275.00000000000045
20
34.000000000000341
30
0
40
2.5
0
LWPOLYLINE
5
571
100
AcDbEntity
8
0
100
AcDbPolyline
90
8
70
1
43
0.0
10
268.0000000000004
20
30.000000000000284
42
-0.99999999999999989
10
261.60000000000036
20
30.000000000000284
10
258.4000000000006
20
30.000000000000568
42
-0.99999999999999989
10
252.0000000000006
20
30.000000000000568
10
252.00000000000068
20
38.000000000000682
42
-0.99999999999999989
10
258.40000000000066
20
38.000000000000682
10
261.60000000000048
20
38.000000000000398
42
-0.99999999999999989
10
268.00000000000045
20
38.000000000000398
0
CIRCLE
5
572
100
AcDbEntity
8
0
100
AcDbCircle
10
1211.9999999999986
20
60
30
0
40
2.7499999999997726
0
CIRCLE
5
573
100
AcDbEntity
8
0
100
AcDbCircle
10
1211.9999999999986
20
90
30
0
40
3.0000000000001137
0
CIRCLE
5
574
100
AcDbEntity
8
0
100
AcDbCircle
10
1211.9999999999986
20
210
30
0
40
2.7499999999997726
0
CIRCLE
5
575
100
AcDbEntity
8
0
100
AcDbCircle
10
1211.9999999999986
20
360
30
0
40
2.7499999999997726
0
CIRCLE
5
576
100
AcDbEntity
8
0
100
AcDbCircle
10
1211.9999999999986
20
510
30
0
40
2.7499999999997726
0
CIRCLE
5
577
100
AcDbEntity
8
0
100
AcDbCircle
10
1211.9999999999989
20
660
30
0
40
2.7499999999997726
0
CIRCLE
5
578
100
AcDbEntity
8
0
100
AcDbCircle
10
1211.9999999999989
20
810
30
0
40
2.7499999999997726
0
CIRCLE
5
579
100
AcDbEntity
8
0
100
AcDbCircle
10
1211.9999999999989
20
960
30
0
40
2.7499999999997726
0
CIRCLE
5
580
100
AcDbEntity
8
0
100
AcDbCircle
10
1211.9999999999986
20
390
30
0
40
3.0000000000001137
0
CIRCLE
5
581
100
AcDbEntity
8
0
100
AcDbCircle
10
1211.9999999999989
20
690
30
0
40
3.0000000000001137
0
CIRCLE
5
582
100
AcDbEntity
8
0
100
AcDbCircle
10
1211.9999999999989
20
990
30
0
40
3.0000000000001137
0
LWPOLYLINE
5
583
100
AcDbEntity
8
0
100
AcDbPolyline
90
10
70
1
43
0.0
10
10.939387691661741
20
1108.5000000000064
42
-0.61237243576395373
10
5.0606123086846724
20
1108.5000000000064
10
-7.1054273576010019e-14
20
1108.5
10
-4.4408920985006262e-15
20
9.9999999999997158
42
0.41421356237308676
10
10
20
1.1102230246251565e-15
10
1210
20
7.3274719625260332e-14
42
0.41421356237310203
10
1220
20
10
10
1220
20
1108.5
10
1214.9393876913423
20
1108.5000000000064
42
-0.61237243569727873
10
1209.0606123086559
20
1108.5000000000064
0
ARC
5
584
100
AcDbEntity
8
0
100
AcDbCircle
10
771.37128690638519
20
2094.1210284153253
30
0
40
3.1999999999999136
100
AcDbArc
50
-135.00000000019287
51
45.000000000089237
0
LINE
5
585
100
AcDbEntity
8
0
100
AcDbLine
10
773.63402860617839
20
2096.3837701151256
30
-5.04870979341448e-30
11
773.63402860617839
21
2101.3328033159305
31
3.5527136788005009e-14
0
ARC
5
586
100
AcDbEntity
8
0
100
AcDbCircle
10
771.37128690638542
20
2103.5955450157317
30
3.5527136788005009e-14
40
3.1999999999999136
100
AcDbArc
50
-45.000000000103604
51
134.99999999981722
0
LINE
5
587
100
AcDbEntity
8
0
100
AcDbLine
10
769.10854520659598
20
2105.8582867155355
30
3.5527136788004997e-14
11
765.63402860617862
21
2105.858286715536
31
7.8886090522101181e-30
0
LINE
5
588
100
AcDbEntity
8
0
100
AcDbLine
10
765.63402860617862
20
2105.858286715536
30
7.8886090522101181e-30
11
765.63402860617839
21
2121.858286715536
31
2.9841138502236374e-42
0
LINE
5
589
100
AcDbEntity
8
0
100
AcDbLine
10
765.63402860617839
20
2121.858286715536
30
2.9841138502236374e-42
11
769.10854520658063
21
2121.8582867155355
31
3.5527136788005009e-14
0
ARC
5
590
100
AcDbEntity
8
0
100
AcDbCircle
10
771.37128690638531
20
2124.1210284153249
30
3.5527136788005009e-14
40
3.2000000000000139
100
AcDbArc
50
-135.00000000019432
51
45.000000000094992
0
LINE
5
591
100
AcDbEntity
8
0
100
AcDbLine
10
773.6340286061785
20
2126.3837701151256
30
3.5527136788005003e-14
11
773.63402860617839
21
2185.8582867155365
31
7.9878775231430465e-41
0
LINE
5
592
100
AcDbEntity
8
0
100
AcDbLine
10
773.63402860617839
20
2185.8582867155365
30
7.9878775231430465e-41
11
869.10854520657779
21
2185.8582867155365
31
3.5527136788005009e-14
0
ARC
5
593
100
AcDbEntity
8
0
100
AcDbCircle
10
871.37128690638531
20
2188.1210284153231
30
3.5527136788005009e-14
40
3.2000000000002151
100
AcDbArc
50
-135.00000000026486
51
45.000000000096435
0
LINE
5
594
100
AcDbEntity
8
0
100
AcDbLine
10
873.63402860617839
20
2190.3837701151238
30
3.5527136788005009e-14
11
873.63402860617839
21
2193.3328033159296
31
3.5527136788005009e-14
0
ARC
5
595
100
AcDbEntity
8
0
100
AcDbCircle
10
871.37128690638531
20
2195.5955450157303
30
0
40
3.2000000000000139
100
AcDbArc
50
-45.000000000096435
51
134.99999999976109
0
LINE
5
596
100
AcDbEntity
8
0
100
AcDbLine
10
869.10854520659757
20
2197.8582867155369
30
-1.1807089485329606e-41
11
773.6340286061785
21
2197.858286715536
31
0
0
LINE
5
597
100
AcDbEntity
8
0
100
AcDbLine
10
773.6340286061785
20
2197.858286715536
30
0
11
773.6340286061785
21
2213.858286715536
31
3.5527136788005009e-14
0
LINE
5
598
100
AcDbEntity
8
0
100
AcDbLine
10
773.6340286061785
20
2213.858286715536
30
3.5527136788005009e-14
11
973.63402860617816
21
2213.8582867155365
31
0
0
LINE
5
599
100
AcDbEntity
8
0
100
AcDbLine
10
973.63402860617816
20
2213.8582867155365
30
0
11
973.63402860617816
21
2126.3837701151201
31
3.5527136788005009e-14
0
ARC
5
600
100
AcDbEntity
8
0
100
AcDbCircle
10
975.89677030597829
20
2124.1210284153262
30
3.5527136788005009e-14
40
3.2000000000000139
100
AcDbArc
50
135.00000000007918
51
315.00000000020583
0
LINE
5
601
100
AcDbEntity
8
0
100
AcDbLine
10
978.15951200578343
20
2121.8582867155374
30
3.5527136788005016e-14
11
981.63402860617282
21
2121.8582867155383
31
3.5527136788005009e-14
0
LINE
5
602
100
AcDbEntity
8
0
100
AcDbLine
10
981.63402860617282
20
2121.8582867155383
30
3.5527136788005009e-14
11
981.63402860617657
21
2105.8582867155387
31
3.5527136788005009e-14
0
LINE
5
603
100
AcDbEntity
8
0
100
AcDbLine
10
981.63402860617657
20
2105.8582867155387
30
3.5527136788005009e-14
11
978.15951200576649
21
2105.8582867155374
31
7.8886090522101181e-30
0
ARC
5
604
100
AcDbEntity
8
0
100
AcDbCircle
10
975.8967703059775
20
2103.5955450157326
30
3.5527136788005009e-14
40
3.1999999999999136
100
AcDbArc
50
45.000000000200075
51
224.99999999993662
0
LINE
5
605
100
AcDbEntity
8
0
100
AcDbLine
10
973.63402860617816
20
2101.3328033159382
30
3.5527136788005009e-14
11
973.63402860617816
21
2096.3837701151188
31
3.5527136788005009e-14
0
ARC
5
606
100
AcDbEntity
8
0
100
AcDbCircle
10
975.89677030597977
20
2094.1210284153267
30
3.5527136788005009e-14
40
3.2000000000001143
100
AcDbArc
50
135.00000000012091
51
315.00000000020293
0
LINE
5
607
100
AcDbEntity
8
0
100
AcDbLine
10
978.15951200578468
20
2091.8582867155378
30
3.5527136788005016e-14
11
981.63402860617998
21
2091.8582867155383
31
0
0
LINE
5
608
100
AcDbEntity
8
0
100
AcDbLine
10
981.63402860617998
20
2091.8582867155383
30
0
11
981.63402860618362
21
2075.8582867155387
31
-4.9303806597837182e-31
0
LINE
5
609
100
AcDbEntity
8
0
100
AcDbLine
10
981.63402860618362
20
2075.8582867155387
30
-4.9303806597837182e-31
11
978.15951200576762
21
2075.8582867155378
31
3.5527136788005009e-14
0
ARC
5
610
100
AcDbEntity
8
0
100
AcDbCircle
10
975.89677030597863
20
2073.595545015733
30
3.5527136788005009e-14
40
3.1999999999999136
100
AcDbArc
50
45.000000000200075
51
224.99999999991076
0
LINE
5
611
100
AcDbEntity
8
0
100
AcDbLine
10
973.63402860617816
20
2071.3328033159396
30
3.5527136788005009e-14
11
973.63402860617816
21
1830.3837701151228
31
3.5527136788005009e-14
0
ARC
5
612
100
AcDbEntity
8
0
100
AcDbCircle
10
975.8967703059775
20
1828.1210284153285
30
0
40
3.1999999999999136
100
AcDbArc
50
135.00000000006335
51
315.00000000018423
0
LINE
5
613
100
AcDbEntity
8
0
100
AcDbLine
10
978.15951200578183
20
1825.8582867155387
30
0
11
981.63402860617293
21
1825.8582867155396
31
-7.8886090522101181e-30
0
LINE
5
614
100
AcDbEntity
8
0
100
AcDbLine
10
981.63402860617293
20
1825.8582867155396
30
-7.8886090522101181e-30
11
981.63402860617657
21
1809.8582867155396
31
-4.9303806597837182e-31
0
LINE
5
615
100
AcDbEntity
8
0
100
AcDbLine
10
981.63402860617657
20
1809.8582867155396
30
-4.9303806597837182e-31
11
978.15951200576694
21
1809.858286715539
31
0
0
ARC
5
616
100
AcDbEntity
8
0
100
AcDbCircle
10
975.89677030597682
20
1807.5955450157353
30
0
40
3.1999999999999131
100
AcDbArc
50
45.000000000171276
51
224.99999999995103
0
LINE
5
617
100
AcDbEntity
8
0
100
AcDbLine
10
973.63402860617794
20
1805.3328033159403
30
5.048709793394967e-30
11
973.63402860617816
21
1800.3837701151222
31
3.5527136788005009e-14
0
ARC
5
618
100
AcDbEntity
8
0
100
AcDbCircle
10
975.89677030597932
20
1798.1210284153292
30
3.5527136788005009e-14
40
3.2000000000001143
100
AcDbArc
50
135.00000000010363
51
315.00000000016695
0
LINE
5
619
100
AcDbEntity
8
0
100
AcDbLine
10
978.15951200578297
20
1795.8582867155387
30
3.5527136788005016e-14
11
981.63402860617998
21
1795.8582867155401
31
3.5527136788005009e-14
0
LINE
5
620
100
AcDbEntity
8
0
100
AcDbLine
10
981.63402860617998
20
1795.8582867155401
30
3.5527136788005009e-14
11
981.63402860618351
21
1779.8582867155401
31
3.5527136788005009e-14
0
LINE
5
621
100
AcDbEntity
8
0
100
AcDbLine
10
981.63402860618351
20
1779.8582867155401
30
3.5527136788005009e-14
11
978.15951200576808
21
1779.858286715539
31
0
0
ARC
5
622
100
AcDbEntity
8
0
100
AcDbCircle
10
975.89677030597829
20
1777.5955450157353
30
3.5527136788005009e-14
40
3.1999999999997124
100
AcDbArc
50
45.000000000175604
51
224.99999999992082
0
LINE
5
623
100
AcDbEntity
8
0
100
AcDbLine
10
973.63402860617816
20
1775.3328033159414
30
3.5527136788005009e-14
11
973.63402860617816
21
1672.858286715539
31
3.5527136788005009e-14
0
LINE
5
624
100
AcDbEntity
8
0
100
AcDbLine
10
973.63402860617816
20
1672.858286715539
30
3.5527136788005009e-14
11
773.63402860617839
21
1672.8582867155385
31
3.5527136788005009e-14
0
LINE
5
625
100
AcDbEntity
8
0
100
AcDbLine
10
773.63402860617839
20
1672.8582867155385
30
3.5527136788005009e-14
11
773.63402860617839
21
1775.3328033159341
31
3.5527136788005009e-14
0
ARC
5
626
100
AcDbEntity
8
0
100
AcDbCircle
10
771.37128690638463
20
1777.5955450157339
30
3.5527136788005009e-14
40
3.1999999999999136
100
AcDbArc
50
-45.000000000076284
51
134.99999999984021
0
LINE
5
627
100
AcDbEntity
8
0
100
AcDbLine
10
769.10854520659404
20
1779.8582867155371
30
3.5527136788005009e-14
11
765.63402860617839
21
1779.8582867155374
31
0
0
LINE
5
628
100
AcDbEntity
8
0
100
AcDbLine
10
765.63402860617839
20
1779.8582867155374
30
0
11
765.63402860617839
21
1795.8582867155374
31
2.9841138502236374e-42
0
LINE
5
629
100
AcDbEntity
8
0
100
AcDbLine
10
765.63402860617839
20
1795.8582867155374
30
2.9841138502236374e-42
11
769.1085452065812
21
1795.8582867155371
31
3.5527136788005009e-14
0
ARC
5
630
100
AcDbEntity
8
0
100
AcDbCircle
10
771.37128690638463
20
1798.1210284153278
30
3.5527136788005009e-14
40
3.2000000000001143
100
AcDbArc
50
-135.00000000016121
51
45.000000000079162
0
LINE
5
631
100
AcDbEntity
8
0
100
AcDbLine
10
773.63402860617839
20
1800.3837701151278
30
3.5527136788005009e-14
11
773.63402860617839
21
1805.3328033159337
31
3.5527136788005009e-14
0
ARC
5
632
100
AcDbEntity
8
0
100
AcDbCircle
10
771.37128690638497
20
1807.5955450157339
30
0
40
3.1999999999999131
100
AcDbArc
50
-45.000000000086352
51
134.99999999984169
0
LINE
5
633
100
AcDbEntity
8
0
100
AcDbLine
10
769.10854520659427
20
1809.8582867155371
30
-5.0487097934144807e-30
11
765.63402860617862
21
1809.8582867155371
31
7.8886090522101181e-30
0
LINE
5
634
100
AcDbEntity
8
0
100
AcDbLine
10
765.63402860617862
20
1809.8582867155371
30
7.8886090522101181e-30
11
765.63402860617839
21
1825.8582867155371
31
2.9841138502236374e-42
0
LINE
5
635
100
AcDbEntity
8
0
100
AcDbLine
10
765.63402860617839
20
1825.8582867155371
30
2.9841138502236374e-42
11
769.10854520658108
21
1825.8582867155371
31
0
0
ARC
5
636
100
AcDbEntity
8
0
100
AcDbCircle
10
771.37128690638474
20
1828.1210284153276
30
0
40
3.2000000000001143
100
AcDbArc
50
-135.00000000016698
51
45.000000000077726
0
LINE
5
637
100
AcDbEntity
8
0
100
AcDbLine
10
773.63402860617839
20
1830.3837701151274
30
-5.04870979341448e-30
11
773.63402860617839
21
1905.8582867155374
31
3.5527136788004997e-14
0
LINE
5
638
100
AcDbEntity
8
0
100
AcDbLine
10
773.63402860617839
20
1905.8582867155374
30
3.5527136788004997e-14
11
869.10854520657836
21
1905.8582867155378
31
3.5527136788005009e-14
0
ARC
5
639
100
AcDbEntity
8
0
100
AcDbCircle
10
871.37128690638463
20
1908.1210284153253
30
3.5527136788005009e-14
40
3.1999999999999136
100
AcDbArc
50
-135.00000000023749
51
45.000000000083489
0
LINE
5
640
100
AcDbEntity
8
0
100
AcDbLine
10
873.63402860617828
20
1910.3837701151256
30
3.5527136788005016e-14
11
873.63402860617828
21
1913.3328033159323
31
9.8607613152681477e-31
0
ARC
5
641
100
AcDbEntity
8
0
100
AcDbCircle
10
871.37128690638463
20
1915.5955450157326
30
0
40
3.1999999999998128
100
AcDbArc
50
-45.00000000008351
51
134.99999999979704
0
LINE
5
642
100
AcDbEntity
8
0
100
AcDbLine
10
869.10854520659564
20
1917.8582867155376
30
-5.0487097934144807e-30
11
773.63402860617839
21
1917.8582867155374
31
0
0
LINE
5
643
100
AcDbEntity
8
0
100
AcDbLine
10
773.63402860617839
20
1917.8582867155374
30
0
11
773.63402860617839
21
2071.332803315931
31
3.5527136788005041e-14
0
ARC
5
644
100
AcDbEntity
8
0
100
AcDbCircle
10
771.37128690638531
20
2073.5955450157317
30
0
40
3.1999999999998128
100
AcDbArc
50
-45.000000000096435
51
134.99999999981145
0
LINE
5
645
100
AcDbEntity
8
0
100
AcDbLine
10
769.10854520659586
20
2075.858286715536
30
-8.0045259725377785e-42
11
765.63402860617839
21
2075.858286715536
31
3.5527136788005016e-14
0
LINE
5
646
100
AcDbEntity
8
0
100
AcDbLine
10
765.63402860617839
20
2075.858286715536
30
3.5527136788005016e-14
11
765.63402860617839
21
2091.858286715536
31
3.5527136788005009e-14
0
LINE
5
647
100
AcDbEntity
8
0
100
AcDbLine
10
765.63402860617839
20
2091.858286715536
30
3.5527136788005009e-14
11
769.10854520658063
21
2091.858286715536
31
5.04870979341448e-30
0
ARC
5
648
100
AcDbEntity
8
0
100
AcDbCircle
10
528.37128690638542
20
2094.1210284153249
30
0
40
3.1999999999999136
100
AcDbArc
50
-135.00000000019287
51
45.000000000094992
0
LINE
5
649
100
AcDbEntity
8
0
100
AcDbLine
10
530.63402860617862
20
2096.3837701151256
30
-5.04870979341448e-30
11
530.63402860617862
21
2101.3328033159301
31
3.5527136788005009e-14
0
ARC
5
650
100
AcDbEntity
8
0
100
AcDbCircle
10
528.37128690638554
20
2103.5955450157307
30
3.5527136788005009e-14
40
3.2000000000000139
100
AcDbArc
50
-45.000000000096435
51
134.99999999981145
0
LINE
5
651
100
AcDbEntity
8
0
100
AcDbLine
10
526.10854520659609
20
2105.8582867155351
30
3.5527136788004997e-14
11
522.63402860617862
21
2105.8582867155355
31
7.8886090522101181e-30
0
LINE
5
652
100
AcDbEntity
8
0
100
AcDbLine
10
522.63402860617862
20
2105.8582867155355
30
7.8886090522101181e-30
11
522.63402860617862
21
2121.8582867155355
31
2.9841138502236374e-42
0
LINE
5
653
100
AcDbEntity
8
0
100
AcDbLine
10
522.63402860617862
20
2121.8582867155355
30
2.9841138502236374e-42
11
526.10854520658086
21
2121.8582867155355
31
3.5527136788005009e-14
0
ARC
5
654
100
AcDbEntity
8
0
100
AcDbCircle
10
528.37128690638554
20
2124.1210284153244
30
3.5527136788005009e-14
40
3.1999999999999633
100
AcDbArc
50
-135.00000000020009
51
45.000000000094992
0
LINE
5
655
100
AcDbEntity
8
0
100
AcDbLine
10
530.63402860617873
20
2126.3837701151251
30
3.5527136788005003e-14
11
530.63402860617862
21
2185.8582867155365
31
7.9878775231430465e-41
0
LINE
5
656
100
AcDbEntity
8
0
100
AcDbLine
10
530.63402860617862
20
2185.8582867155365
30
7.9878775231430465e-41
11
626.10854520657813
21
2185.8582867155365
31
3.5527136788005009e-14
0
ARC
5
657
100
AcDbEntity
8
0
100
AcDbCircle
10
628.37128690638554
20
2188.1210284153231
30
3.5527136788005009e-14
40
3.2000000000001143
100
AcDbArc
50
-135.00000000026341
51
45.000000000090679
0
LINE
5
658
100
AcDbEntity
8
0
100
AcDbLine
10
630.63402860617862
20
2190.3837701151233
30
3.5527136788005009e-14
11
630.63402860617862
21
2193.3328033159291
31
3.5527136788005009e-14
0
ARC
5
659
100
AcDbEntity
8
0
100
AcDbCircle
10
628.37128690638542
20
2195.5955450157303
30
0
40
3.2000000000002649
100
AcDbArc
50
-45.000000000100755
51
134.99999999976683
0
LINE
5
660
100
AcDbEntity
8
0
100
AcDbLine
10
626.10854520659768
20
2197.8582867155365
30
-1.1807089485329606e-41
11
530.63402860617873
21
2197.8582867155355
31
0
0
LINE
5
661
100
AcDbEntity
8
0
100
AcDbLine
10
530.63402860617873
20
2197.8582867155355
30
0
11
530.63402860617873
21
2213.8582867155355
31
3.5527136788005009e-14
0
LINE
5
662
100
AcDbEntity
8
0
100
AcDbLine
10
530.63402860617873
20
2213.8582867155355
30
3.5527136788005009e-14
11
730.63402860617828
21
2213.858286715536
31
0
0
LINE
5
663
100
AcDbEntity
8
0
100
AcDbLine
10
730.63402860617828
20
2213.858286715536
30
0
11
730.63402860617828
21
2126.3837701151197
31
3.5527136788005009e-14
0
ARC
5
664
100
AcDbEntity
8
0
100
AcDbCircle
10
732.89677030597841
20
2124.1210284153258
30
3.5527136788005009e-14
40
3.2000000000000139
100
AcDbArc
50
135.00000000007918
51
315.00000000020583
0
LINE
5
665
100
AcDbEntity
8
0
100
AcDbLine
10
735.15951200578354
20
2121.8582867155369
30
3.5527136788005016e-14
11
738.63402860617293
21
2121.8582867155383
31
3.5527136788005009e-14
0
LINE
5
666
100
AcDbEntity
8
0
100
AcDbLine
10
738.63402860617293
20
2121.8582867155383
30
3.5527136788005009e-14
11
738.63402860617668
21
2105.8582867155378
31
3.5527136788005009e-14
0
LINE
5
667
100
AcDbEntity
8
0
100
AcDbLine
10
738.63402860617668
20
2105.8582867155378
30
3.5527136788005009e-14
11
735.1595120057666
21
2105.8582867155374
31
7.8886090522101181e-30
0
ARC
5
668
100
AcDbEntity
8
0
100
AcDbCircle
10
732.89677030597773
20
2103.5955450157321
30
3.5527136788005009e-14
40
3.1999999999999136
100
AcDbArc
50
45.000000000207265
51
224.99999999993523
0
LINE
5
669
100
AcDbEntity
8
0
100
AcDbLine
10
730.63402860617828
20
2101.3328033159378
30
3.5527136788005009e-14
11
730.63402860617828
21
2096.3837701151183
31
3.5527136788005009e-14
0
ARC
5
670
100
AcDbEntity
8
0
100
AcDbCircle
10
732.89677030598
20
2094.1210284153262
30
3.5527136788005009e-14
40
3.1999999999999136
100
AcDbArc
50
135.00000000012236
51
315.00000000020151
0
LINE
5
671
100
AcDbEntity
8
0
100
AcDbLine
10
735.15951200578479
20
2091.8582867155374
30
3.5527136788005016e-14
11
738.6340286061801
21
2091.8582867155383
31
0
0
LINE
5
672
100
AcDbEntity
8
0
100
AcDbLine
10
738.6340286061801
20
2091.8582867155383
30
0
11
738.63402860618385
21
2075.8582867155378
31
-4.9303806597837182e-31
0
LINE
5
673
100
AcDbEntity
8
0
100
AcDbLine
10
738.63402860618385
20
2075.8582867155378
30
-4.9303806597837182e-31
11
735.15951200576774
21
2075.8582867155374
31
3.5527136788005009e-14
0
ARC
5
674
100
AcDbEntity
8
0
100
AcDbCircle
10
732.89677030597886
20
2073.5955450157326
30
3.5527136788005009e-14
40
3.1999999999999136
100
AcDbArc
50
45.000000000201503
51
224.99999999990357
0
LINE
5
675
100
AcDbEntity
8
0
100
AcDbLine
10
730.63402860617828
20
2071.3328033159396
30
3.5527136788005009e-14
11
730.63402860617828
21
1830.3837701151224
31
3.5527136788005009e-14
0
ARC
5
676
100
AcDbEntity
8
0
100
AcDbCircle
10
732.89677030597773
20
1828.1210284153281
30
0
40
3.1999999999999136
100
AcDbArc
50
135.0000000000648
51
315.00000000018423
0
LINE
5
677
100
AcDbEntity
8
0
100
AcDbLine
10
735.15951200578206
20
1825.8582867155383
30
0
11
738.63402860617316
21
1825.8582867155394
31
-7.8886090522101181e-30
0
LINE
5
678
100
AcDbEntity
8
0
100
AcDbLine
10
738.63402860617316
20
1825.8582867155394
30
-7.8886090522101181e-30
11
738.63402860617668
21
1809.8582867155394
31
-4.9303806597837182e-31
0
LINE
5
679
100
AcDbEntity
8
0
100
AcDbLine
10
738.63402860617668
20
1809.8582867155394
30
-4.9303806597837182e-31
11
735.15951200576706
21
1809.8582867155383
31
0
0
ARC
5
680
100
AcDbEntity
8
0
100
AcDbCircle
10
732.89677030597704
20
1807.5955450157346
30
0
40
3.1999999999999131
100
AcDbArc
50
45.000000000172726
51
224.99999999995103
0
LINE
5
681
100
AcDbEntity
8
0
100
AcDbLine
10
730.63402860617816
20
1805.3328033159396
30
5.048709793394967e-30
11
730.63402860617828
21
1800.3837701151215
31
3.5527136788005009e-14
0
ARC
5
682
100
AcDbEntity
8
0
100
AcDbCircle
10
732.89677030597943
20
1798.121028415329
30
3.5527136788005009e-14
40
3.1999999999999131
100
AcDbArc
50
135.0000000001094
51
315.00000000016837
0
LINE
5
683
100
AcDbEntity
8
0
100
AcDbLine
10
735.1595120057832
20
1795.8582867155385
30
3.5527136788005016e-14
11
738.6340286061801
21
1795.8582867155396
31
3.5527136788005009e-14
0
LINE
5
684
100
AcDbEntity
8
0
100
AcDbLine
10
738.6340286061801
20
1795.8582867155396
30
3.5527136788005009e-14
11
738.63402860618362
21
1779.8582867155394
31
3.5527136788005009e-14
0
LINE
5
685
100
AcDbEntity
8
0
100
AcDbLine
10
738.63402860618362
20
1779.8582867155394
30
3.5527136788005009e-14
11
735.15951200576819
21
1779.8582867155387
31
0
0
ARC
5
686
100
AcDbEntity
8
0
100
AcDbCircle
10
732.89677030597841
20
1777.5955450157346
30
3.5527136788005009e-14
40
3.1999999999999136
100
AcDbArc
50
45.000000000181359
51
224.99999999991795
0
LINE
5
687
100
AcDbEntity
8
0
100
AcDbLine
10
730.63402860617828
20
1775.332803315941
30
3.5527136788005009e-14
11
730.63402860617828
21
1672.8582867155385
31
3.5527136788005009e-14
0
LINE
5
688
100
AcDbEntity
8
0
100
AcDbLine
10
730.63402860617828
20
1672.8582867155385
30
3.5527136788005009e-14
11
530.63402860617862
21
1672.8582867155383
31
3.5527136788005009e-14
0
LINE
5
689
100
AcDbEntity
8
0
100
AcDbLine
10
530.63402860617862
20
1672.8582867155383
30
3.5527136788005009e-14
11
530.63402860617862
21
1775.3328033159337
31
1.9112226517638403e-41
0
ARC
5
690
100
AcDbEntity
8
0
100
AcDbCircle
10
528.37128690638485
20
1777.5955450157335
30
3.5527136788005009e-14
40
3.1999999999996618
100
AcDbArc
50
-45.000000000076284
51
134.99999999984021
0
LINE
5
691
100
AcDbEntity
8
0
100
AcDbLine
10
526.10854520659427
20
1779.8582867155367
30
3.5527136788005009e-14
11
522.63402860617862
21
1779.8582867155369
31
0
0
LINE
5
692
100
AcDbEntity
8
0
100
AcDbLine
10
522.63402860617862
20
1779.8582867155369
30
0
11
522.63402860617862
21
1795.8582867155369
31
2.9841138502236374e-42
0
LINE
5
693
100
AcDbEntity
8
0
100
AcDbLine
10
522.63402860617862
20
1795.8582867155369
30
2.9841138502236374e-42
11
526.10854520658131
21
1795.8582867155369
31
3.5527136788005009e-14
0
ARC
5
694
100
AcDbEntity
8
0
100
AcDbCircle
10
528.37128690638485
20
1798.1210284153276
30
3.5527136788005009e-14
40
3.2000000000001649
100
AcDbArc
50
-135.00000000016263
51
45.000000000076284
0
LINE
5
695
100
AcDbEntity
8
0
100
AcDbLine
10
530.63402860617862
20
1800.3837701151274
30
3.5527136788005009e-14
11
530.63402860617862
21
1805.3328033159332
31
3.5527136788005009e-14
0
ARC
5
696
100
AcDbEntity
8
0
100
AcDbCircle
10
528.37128690638508
20
1807.5955450157335
30
0
40
3.1999999999999633
100
AcDbArc
50
-45.000000000084931
51
134.99999999984021
0
LINE
5
697
100
AcDbEntity
8
0
100
AcDbLine
10
526.1085452065945
20
1809.8582867155367
30
-5.0487097934144807e-30
11
522.63402860617862
21
1809.8582867155369
31
3.5527136788005016e-14
0
LINE
5
698
100
AcDbEntity
8
0
100
AcDbLine
10
522.63402860617862
20
1809.8582867155369
30
3.5527136788005016e-14
11
522.63402860617862
21
1825.8582867155369
31
2.9841138502236374e-42
0
LINE
5
699
100
AcDbEntity
8
0
100
AcDbLine
10
522.63402860617862
20
1825.8582867155369
30
2.9841138502236374e-42
11
526.1085452065812
21
1825.8582867155365
31
0
0
ARC
5
700
100
AcDbEntity
8
0
100
AcDbCircle
10
528.37128690638497
20
1828.1210284153269
30
0
40
3.2000000000001649
100
AcDbArc
50
-135.0000000001684
51
45.000000000080597
0
LINE
5
701
100
AcDbEntity
8
0
100
AcDbLine
10
530.63402860617862
20
1830.3837701151269
30
-5.04870979341448e-30
11
530.63402860617862
21
1905.8582867155371
31
3.5527136788004997e-14
0
LINE
5
702
100
AcDbEntity
8
0
100
AcDbLine
10
530.63402860617862
20
1905.8582867155371
30
3.5527136788004997e-14
11
626.10854520657858
21
1905.8582867155374
31
3.5527136788005009e-14
0
ARC
5
703
100
AcDbEntity
8
0
100
AcDbCircle
10
628.37128690638485
20
1908.1210284153249
30
3.5527136788005009e-14
40
3.1999999999999633
100
AcDbArc
50
-135.00000000023749
51
45.000000000083489
0
LINE
5
704
100
AcDbEntity
8
0
100
AcDbLine
10
630.6340286061785
20
1910.3837701151251
30
3.5527136788005016e-14
11
630.63402860617839
21
1913.3328033159319
31
3.5527136788005009e-14
0
ARC
5
705
100
AcDbEntity
8
0
100
AcDbCircle
10
628.37128690638474
20
1915.5955450157321
30
0
40
3.2000000000000139
100
AcDbArc
50
-45.00000000008351
51
134.99999999979272
0
LINE
5
706
100
AcDbEntity
8
0
100
AcDbLine
10
626.10854520659586
20
1917.8582867155374
30
-5.0487097934144807e-30
11
530.63402860617862
21
1917.8582867155367
31
0
0
LINE
5
707
100
AcDbEntity
8
0
100
AcDbLine
10
530.63402860617862
20
1917.8582867155367
30
0
11
530.63402860617862
21
2071.3328033159305
31
3.5527136788005041e-14
0
ARC
5
708
100
AcDbEntity
8
0
100
AcDbCircle
10
528.37128690638554
20
2073.5955450157312
30
0
40
3.1999999999998128
100
AcDbArc
50
-45.000000000096435
51
134.9999999998129
0
LINE
5
709
100
AcDbEntity
8
0
100
AcDbLine
10
526.10854520659598
20
2075.8582867155355
30
-8.0045259725377785e-42
11
522.63402860617862
21
2075.8582867155355
31
3.5527136788005016e-14
0
LINE
5
710
100
AcDbEntity
8
0
100
AcDbLine
10
522.63402860617862
20
2075.8582867155355
30
3.5527136788005016e-14
11
522.63402860617862
21
2091.8582867155355
31
3.5527136788005009e-14
0
LINE
5
711
100
AcDbEntity
8
0
100
AcDbLine
10
522.63402860617862
20
2091.8582867155355
30
3.5527136788005009e-14
11
526.10854520658086
21
2091.8582867155355
31
5.04870979341448e-30
0
ARC
5
712
100
AcDbEntity
8
0
100
AcDbCircle
10
285.37128690638508
20
2094.1210284153244
30
0
40
3.1999999999999136
100
AcDbArc
50
-135.00000000019864
51
45.000000000094992
0
LINE
5
713
100
AcDbEntity
8
0
100
AcDbLine
10
287.63402860617828
20
2096.3837701151251
30
-5.04870979341448e-30
11
287.63402860617828
21
2101.3328033159301
31
3.5527136788005009e-14
0
ARC
5
714
100
AcDbEntity
8
0
100
AcDbCircle
10
285.37128690638525
20
2103.5955450157307
30
3.5527136788005009e-14
40
3.2000000000000139
100
AcDbArc
50
-45.000000000097145
51
134.99999999981216
0
LINE
5
715
100
AcDbEntity
8
0
100
AcDbLine
10
283.10854520659575
20
2105.8582867155351
30
3.5527136788004997e-14
11
279.63402860617828
21
2105.8582867155355
31
7.8886090522101181e-30
0
LINE
5
716
100
AcDbEntity
8
0
100
AcDbLine
10
279.63402860617828
20
2105.8582867155355
30
7.8886090522101181e-30
11
279.63402860617828
21
2121.8582867155355
31
2.9841138502236374e-42
0
LINE
5
717
100
AcDbEntity
8
0
100
AcDbLine
10
279.63402860617828
20
2121.8582867155355
30
2.9841138502236374e-42
11
283.10854520658057
21
2121.8582867155351
31
3.5527136788005009e-14
0
ARC
5
718
100
AcDbEntity
8
0
100
AcDbCircle
10
285.37128690638514
20
2124.1210284153244
30
3.5527136788005009e-14
40
3.1999999999999136
100
AcDbArc
50
-135.00000000019287
51
45.000000000095717
0
LINE
5
719
100
AcDbEntity
8
0
100
AcDbLine
10
287.63402860617828
20
2126.3837701151251
30
3.5527136788005003e-14
11
287.63402860617828
21
2185.858286715536
31
7.9878775231430465e-41
0
LINE
5
720
100
AcDbEntity
8
0
100
AcDbLine
10
287.63402860617828
20
2185.858286715536
30
7.9878775231430465e-41
11
383.10854520657767
21
2185.858286715536
31
3.5527136788005009e-14
0
ARC
5
721
100
AcDbEntity
8
0
100
AcDbCircle
10
385.37128690638519
20
2188.1210284153226
30
3.5527136788005009e-14
40
3.2000000000001649
100
AcDbArc
50
-135.00000000026486
51
45.000000000097153
0
LINE
5
722
100
AcDbEntity
8
0
100
AcDbLine
10
387.63402860617822
20
2190.3837701151233
30
3.5527136788005009e-14
11
387.63402860617822
21
2193.3328033159291
31
3.5527136788005009e-14
0
ARC
5
723
100
AcDbEntity
8
0
100
AcDbCircle
10
385.37128690638508
20
2195.5955450157298
30
0
40
3.2000000000000641
100
AcDbArc
50
-45.000000000095724
51
134.99999999976683
0
LINE
5
724
100
AcDbEntity
8
0
100
AcDbLine
10
383.10854520659734
20
2197.858286715536
30
-1.1807089485329606e-41
11
287.63402860617833
21
2197.8582867155355
31
0
0
LINE
5
725
100
AcDbEntity
8
0
100
AcDbLine
10
287.63402860617833
20
2197.8582867155355
30
0
11
287.63402860617828
21
2213.8582867155351
31
3.5527136788005009e-14
0
LINE
5
726
100
AcDbEntity
8
0
100
AcDbLine
10
287.63402860617828
20
2213.8582867155351
30
3.5527136788005009e-14
11
487.63402860617794
21
2213.858286715536
31
0
0
LINE
5
727
100
AcDbEntity
8
0
100
AcDbLine
10
487.63402860617794
20
2213.858286715536
30
0
11
487.63402860617794
21
2126.3837701151197
31
3.5527136788005009e-14
0
ARC
5
728
100
AcDbEntity
8
0
100
AcDbCircle
10
489.89677030597807
20
2124.1210284153258
30
3.5527136788005009e-14
40
3.1999999999999633
100
AcDbArc
50
135.00000000007918
51
315.00000000020583
0
LINE
5
729
100
AcDbEntity
8
0
100
AcDbLine
10
492.1595120057832
20
2121.8582867155369
30
3.5527136788005016e-14
11
495.63402860617271
21
2121.8582867155378
31
3.5527136788005009e-14
0
LINE
5
730
100
AcDbEntity
8
0
100
AcDbLine
10
495.63402860617271
20
2121.8582867155378
30
3.5527136788005009e-14
11
495.63402860617646
21
2105.8582867155378
31
3.5527136788005009e-14
0
LINE
5
731
100
AcDbEntity
8
0
100
AcDbLine
10
495.63402860617646
20
2105.8582867155378
30
3.5527136788005009e-14
11
492.15951200576626
21
2105.8582867155369
31
7.8886090522101181e-30
0
ARC
5
732
100
AcDbEntity
8
0
100
AcDbCircle
10
489.89677030597733
20
2103.5955450157321
30
3.5527136788005009e-14
40
3.1999999999999136
100
AcDbArc
50
45.000000000200785
51
224.99999999993594
0
LINE
5
733
100
AcDbEntity
8
0
100
AcDbLine
10
487.63402860617794
20
2101.3328033159378
30
3.5527136788005009e-14
11
487.63402860617794
21
2096.3837701151183
31
3.5527136788005009e-14
0
ARC
5
734
100
AcDbEntity
8
0
100
AcDbCircle
10
489.89677030597966
20
2094.1210284153258
30
3.5527136788005009e-14
40
3.2000000000001143
100
AcDbArc
50
135.00000000011659
51
315.00000000020151
0
LINE
5
735
100
AcDbEntity
8
0
100
AcDbLine
10
492.15951200578445
20
2091.8582867155369
30
3.5527136788005016e-14
11
495.6340286061797
21
2091.8582867155378
31
0
0
LINE
5
736
100
AcDbEntity
8
0
100
AcDbLine
10
495.6340286061797
20
2091.8582867155378
30
0
11
495.63402860618339
21
2075.8582867155378
31
-4.9303806597837182e-31
0
LINE
5
737
100
AcDbEntity
8
0
100
AcDbLine
10
495.63402860618339
20
2075.8582867155378
30
-4.9303806597837182e-31
11
492.15951200576745
21
2075.8582867155374
31
3.5527136788005009e-14
0
ARC
5
738
100
AcDbEntity
8
0
100
AcDbCircle
10
489.89677030597846
20
2073.5955450157321
30
3.5527136788005009e-14
40
3.1999999999999633
100
AcDbArc
50
45.00000000020583
51
224.99999999990428
0
LINE
5
739
100
AcDbEntity
8
0
100
AcDbLine
10
487.63402860617794
20
2071.3328033159391
30
3.5527136788005009e-14
11
487.63402860617782
21
1830.3837701151224
31
3.5527136788005009e-14
0
ARC
5
740
100
AcDbEntity
8
0
100
AcDbCircle
10
489.89677030597738
20
1828.1210284153281
30
0
40
3.2000000000000139
100
AcDbArc
50
135.00000000006619
51
315.00000000018349
0
LINE
5
741
100
AcDbEntity
8
0
100
AcDbLine
10
492.15951200578166
20
1825.8582867155383
30
0
11
495.63402860617265
21
1825.8582867155392
31
-7.8886090522101181e-30
0
LINE
5
742
100
AcDbEntity
8
0
100
AcDbLine
10
495.63402860617265
20
1825.8582867155392
30
-7.8886090522101181e-30
11
495.63402860617634
21
1809.8582867155392
31
-4.9303806597837182e-31
0
LINE
5
743
100
AcDbEntity
8
0
100
AcDbLine
10
495.63402860617634
20
1809.8582867155392
30
-4.9303806597837182e-31
11
492.15951200576683
21
1809.8582867155383
31
0
0
ARC
5
744
100
AcDbEntity
8
0
100
AcDbCircle
10
489.8967703059767
20
1807.5955450157346
30
0
40
3.1999999999999633
100
AcDbArc
50
45.000000000171276
51
224.99999999995177
0
LINE
5
745
100
AcDbEntity
8
0
100
AcDbLine
10
487.63402860617788
20
1805.3328033159396
30
5.048709793394967e-30
11
487.63402860617788
21
1800.3837701151215
31
3.5527136788005009e-14
0
ARC
5
746
100
AcDbEntity
8
0
100
AcDbCircle
10
489.89677030597909
20
1798.1210284153285
30
3.5527136788005009e-14
40
3.2000000000001649
100
AcDbArc
50
135.00000000010436
51
315.0000000001699
0
LINE
5
747
100
AcDbEntity
8
0
100
AcDbLine
10
492.15951200578274
20
1795.8582867155383
30
3.5527136788005016e-14
11
495.6340286061797
21
1795.8582867155394
31
3.5527136788005009e-14
0
LINE
5
748
100
AcDbEntity
8
0
100
AcDbLine
10
495.6340286061797
20
1795.8582867155394
30
3.5527136788005009e-14
11
495.63402860618339
21
1779.8582867155394
31
3.5527136788005009e-14
0
LINE
5
749
100
AcDbEntity
8
0
100
AcDbLine
10
495.63402860618339
20
1779.8582867155394
30
3.5527136788005009e-14
11
492.15951200576791
21
1779.8582867155383
31
0
0
ARC
5
750
100
AcDbEntity
8
0
100
AcDbCircle
10
489.89677030597807
20
1777.5955450157346
30
3.5527136788005009e-14
40
3.1999999999997626
100
AcDbArc
50
45.000000000174879
51
224.99999999991724
0
LINE
5
751
100
AcDbEntity
8
0
100
AcDbLine
10
487.63402860617788
20
1775.332803315941
30
3.5527136788005009e-14
11
487.63402860617788
21
1672.8582867155385
31
3.5527136788005009e-14
0
LINE
5
752
100
AcDbEntity
8
0
100
AcDbLine
10
487.63402860617788
20
1672.8582867155385
30
3.5527136788005009e-14
11
287.63402860617828
21
1672.8582867155378
31
3.5527136788005009e-14
0
LINE
5
753
100
AcDbEntity
8
0
100
AcDbLine
10
287.63402860617828
20
1672.8582867155378
30
3.5527136788005009e-14
11
287.63402860617828
21
1775.3328033159335
31
3.5527136788005009e-14
0
ARC
5
754
100
AcDbEntity
8
0
100
AcDbCircle
10
285.37128690638451
20
1777.5955450157335
30
3.5527136788005009e-14
40
3.1999999999998878
100
AcDbArc
50
-45.000000000079183
51
134.99999999984021
0
LINE
5
755
100
AcDbEntity
8
0
100
AcDbLine
10
283.10854520659393
20
1779.8582867155367
30
3.5527136788005009e-14
11
279.63402860617828
21
1779.8582867155369
31
0
0
LINE
5
756
100
AcDbEntity
8
0
100
AcDbLine
10
279.63402860617828
20
1779.8582867155369
30
0
11
279.63402860617828
21
1795.8582867155369
31
2.9841138502236374e-42
0
LINE
5
757
100
AcDbEntity
8
0
100
AcDbLine
10
279.63402860617828
20
1795.8582867155369
30
2.9841138502236374e-42
11
283.10854520658108
21
1795.8582867155365
31
3.5527136788005009e-14
0
ARC
5
758
100
AcDbEntity
8
0
100
AcDbCircle
10
285.37128690638451
20
1798.1210284153271
30
3.5527136788005009e-14
40
3.2000000000001143
100
AcDbArc
50
-135.00000000016121
51
45.000000000079162
0
LINE
5
759
100
AcDbEntity
8
0
100
AcDbLine
10
287.63402860617828
20
1800.3837701151272
30
3.5527136788005009e-14
11
287.63402860617828
21
1805.3328033159332
31
3.5527136788005009e-14
0
ARC
5
760
100
AcDbEntity
8
0
100
AcDbCircle
10
285.37128690638474
20
1807.5955450157335
30
0
40
3.1999999999999886
100
AcDbArc
50
-45.000000000084931
51
134.99999999984098
0
LINE
5
761
100
AcDbEntity
8
0
100
AcDbLine
10
283.1085452065941
20
1809.8582867155367
30
-5.0487097934144807e-30
11
279.63402860617828
21
1809.8582867155367
31
7.8886090522101181e-30
0
LINE
5
762
100
AcDbEntity
8
0
100
AcDbLine
10
279.63402860617828
20
1809.8582867155367
30
7.8886090522101181e-30
11
279.63402860617828
21
1825.8582867155365
31
2.9841138502236374e-42
0
LINE
5
763
100
AcDbEntity
8
0
100
AcDbLine
10
279.63402860617828
20
1825.8582867155365
30
2.9841138502236374e-42
11
283.10854520658091
21
1825.8582867155365
31
0
0
ARC
5
764
100
AcDbEntity
8
0
100
AcDbCircle
10
285.37128690638463
20
1828.1210284153269
30
0
40
3.2000000000001143
100
AcDbArc
50
-135.00000000016766
51
45.000000000081322
0
LINE
5
765
100
AcDbEntity
8
0
100
AcDbLine
10
287.63402860617822
20
1830.3837701151269
30
-5.04870979341448e-30
11
287.63402860617828
21
1905.8582867155369
31
3.5527136788004997e-14
0
LINE
5
766
100
AcDbEntity
8
0
100
AcDbLine
10
287.63402860617828
20
1905.8582867155369
30
3.5527136788004997e-14
11
383.10854520657824
21
1905.8582867155371
31
3.5527136788005009e-14
0
ARC
5
767
100
AcDbEntity
8
0
100
AcDbCircle
10
385.37128690638451
20
1908.1210284153246
30
3.5527136788005009e-14
40
3.1999999999999136
100
AcDbArc
50
-135.00000000023749
51
45.000000000083489
0
LINE
5
768
100
AcDbEntity
8
0
100
AcDbLine
10
387.63402860617816
20
1910.3837701151249
30
3.5527136788005016e-14
11
387.63402860617811
21
1913.3328033159319
31
9.8607613152681477e-31
0
ARC
5
769
100
AcDbEntity
8
0
100
AcDbCircle
10
385.37128690638451
20
1915.5955450157319
30
0
40
3.1999999999997626
100
AcDbArc
50
-45.000000000081322
51
134.99999999979562
0
LINE
5
770
100
AcDbEntity
8
0
100
AcDbLine
10
383.10854520659564
20
1917.8582867155369
30
-5.0487097934144807e-30
11
287.63402860617828
21
1917.8582867155367
31
0
0
LINE
5
771
100
AcDbEntity
8
0
100
AcDbLine
10
287.63402860617828
20
1917.8582867155367
30
0
11
287.63402860617828
21
2071.3328033159305
31
3.5527136788005041e-14
0
ARC
5
772
100
AcDbEntity
8
0
100
AcDbCircle
10
285.37128690638519
20
2073.5955450157307
30
0
40
3.1999999999998381
100
AcDbArc
50
-45.000000000090687
51
134.99999999980571
0
LINE
5
773
100
AcDbEntity
8
0
100
AcDbLine
10
283.10854520659575
20
2075.8582867155355
30
-8.0045259725377785e-42
11
279.63402860617828
21
2075.8582867155355
31
3.5527136788005016e-14
0
LINE
5
774
100
AcDbEntity
8
0
100
AcDbLine
10
279.63402860617828
20
2075.8582867155355
30
3.5527136788005016e-14
11
279.63402860617828
21
2091.8582867155355
31
3.5527136788005009e-14
0
LINE
5
775
100
AcDbEntity
8
0
100
AcDbLine
10
279.63402860617828
20
2091.8582867155355
30
3.5527136788005009e-14
11
283.10854520658052
21
2091.8582867155355
31
5.04870979341448e-30
0
ARC
5
776
100
AcDbEntity
8
0
100
AcDbCircle
10
42.371286906385315
20
2094.1210284153244
30
0
40
3.1999999999999069
100
AcDbArc
50
-135.00000000019278
51
45.000000000094914
0
LINE
5
777
100
AcDbEntity
8
0
100
AcDbLine
10
44.634028606178518
20
2096.3837701151251
30
-5.04870979341448e-30
11
44.634028606178546
21
2101.3328033159296
31
3.5527136788005009e-14
0
ARC
5
778
100
AcDbEntity
8
0
100
AcDbCircle
10
42.371286906385492
20
2103.5955450157303
30
3.5527136788005009e-14
40
3.2000000000000139
100
AcDbArc
50
-45.000000000096797
51
134.9999999998121
0
LINE
5
779
100
AcDbEntity
8
0
100
AcDbLine
10
40.108545206595998
20
2105.8582867155346
30
3.5527136788004997e-14
11
36.634028606178546
21
2105.8582867155346
31
7.8886090522101181e-30
0
LINE
5
780
100
AcDbEntity
8
0
100
AcDbLine
10
36.634028606178546
20
2105.8582867155346
30
7.8886090522101181e-30
11
36.634028606178546
21
2121.8582867155346
31
2.9841138502236374e-42
0
LINE
5
781
100
AcDbEntity
8
0
100
AcDbLine
10
36.634028606178546
20
2121.8582867155346
30
2.9841138502236374e-42
11
40.108545206580814
21
2121.8582867155346
31
3.5527136788005009e-14
0
ARC
5
782
100
AcDbEntity
8
0
100
AcDbCircle
10
42.371286906385386
20
2124.121028415324
30
3.5527136788005009e-14
40
3.1999999999999194
100
AcDbArc
50
-135.00000000019295
51
45.000000000095355
0
LINE
5
783
100
AcDbEntity
8
0
100
AcDbLine
10
44.634028606178553
20
2126.3837701151247
30
3.5527136788005003e-14
11
44.634028606178553
21
2185.8582867155355
31
7.9878775231430465e-41
0
LINE
5
784
100
AcDbEntity
8
0
100
AcDbLine
10
44.634028606178553
20
2185.8582867155355
30
7.9878775231430465e-41
11
140.10854520657799
21
2185.8582867155355
31
3.5527136788005009e-14
0
ARC
5
785
100
AcDbEntity
8
0
100
AcDbCircle
10
142.37128690638539
20
2188.1210284153221
30
3.5527136788005009e-14
40
3.2000000000001272
100
AcDbArc
50
-135.00000000026341
51
45.000000000096797
0
LINE
5
786
100
AcDbEntity
8
0
100
AcDbLine
10
144.63402860617845
20
2190.3837701151228
30
3.5527136788005009e-14
11
144.63402860617845
21
2193.3328033159287
31
3.5527136788005009e-14
0
ARC
5
787
100
AcDbEntity
8
0
100
AcDbCircle
10
142.37128690638536
20
2195.5955450157298
30
0
40
3.20000000000024
100
AcDbArc
50
-45.000000000102183
51
134.99999999976717
0
LINE
5
788
100
AcDbEntity
8
0
100
AcDbLine
10
140.1085452065976
20
2197.858286715536
30
-1.1807089485329606e-41
11
44.634028606178617
21
2197.8582867155351
31
0
0
LINE
5
789
100
AcDbEntity
8
0
100
AcDbLine
10
44.634028606178617
20
2197.8582867155351
30
0
11
44.634028606178546
21
2213.8582867155351
31
3.5527136788005009e-14
0
LINE
5
790
100
AcDbEntity
8
0
100
AcDbLine
10
44.634028606178546
20
2213.8582867155351
30
3.5527136788005009e-14
11
244.63402860617819
21
2213.8582867155351
31
3.5527136788005009e-14
0
LINE
5
791
100
AcDbEntity
8
0
100
AcDbLine
10
244.63402860617819
20
2213.8582867155351
30
3.5527136788005009e-14
11
244.63402860617819
21
2126.3837701151192
31
3.5527136788005009e-14
0
ARC
5
792
100
AcDbEntity
8
0
100
AcDbCircle
10
246.89677030597829
20
2124.1210284153253
30
3.5527136788005009e-14
40
3.1999999999999633
100
AcDbArc
50
135.00000000007878
51
315.00000000020515
0
LINE
5
793
100
AcDbEntity
8
0
100
AcDbLine
10
249.15951200578337
20
2121.8582867155365
30
3.5527136788005016e-14
11
252.63402860617299
21
2121.8582867155378
31
3.5527136788005009e-14
0
LINE
5
794
100
AcDbEntity
8
0
100
AcDbLine
10
252.63402860617299
20
2121.8582867155378
30
3.5527136788005009e-14
11
252.63402860617671
21
2105.8582867155374
31
3.5527136788005009e-14
0
LINE
5
795
100
AcDbEntity
8
0
100
AcDbLine
10
252.63402860617671
20
2105.8582867155374
30
3.5527136788005009e-14
11
249.15951200576657
21
2105.8582867155365
31
7.8886090522101181e-30
0
ARC
5
796
100
AcDbEntity
8
0
100
AcDbCircle
10
246.89677030597755
20
2103.5955450157317
30
3.5527136788005009e-14
40
3.1999999999999633
100
AcDbArc
50
45.000000000199705
51
224.99999999993628
0
LINE
5
797
100
AcDbEntity
8
0
100
AcDbLine
10
244.63402860617819
20
2101.3328033159373
30
3.5527136788005009e-14
11
244.63402860617816
21
2096.3837701151178
31
3.5527136788005009e-14
0
ARC
5
798
100
AcDbEntity
8
0
100
AcDbCircle
10
246.89677030597994
20
2094.1210284153258
30
3.5527136788005009e-14
40
3.1999999999999633
100
AcDbArc
50
135.00000000012307
51
315.00000000020185
0
LINE
5
799
100
AcDbEntity
8
0
100
AcDbLine
10
249.15951200578476
20
2091.8582867155369
30
3.5527136788005016e-14
11
252.63402860617998
21
2091.8582867155378
31
0
0
LINE
5
800
100
AcDbEntity
8
0
100
AcDbLine
10
252.63402860617998
20
2091.8582867155378
30
0
11
252.6340286061837
21
2075.8582867155374
31
-4.9303806597837182e-31
0
LINE
5
801
100
AcDbEntity
8
0
100
AcDbLine
10
252.6340286061837
20
2075.8582867155374
30
-4.9303806597837182e-31
11
249.15951200576774
21
2075.8582867155369
31
3.5527136788005009e-14
0
ARC
5
802
100
AcDbEntity
8
0
100
AcDbCircle
10
246.89677030597875
20
2073.5955450157321
30
3.5527136788005009e-14
40
3.1999999999999633
100
AcDbArc
50
45.000000000200075
51
224.99999999990968
0
LINE
5
803
100
AcDbEntity
8
0
100
AcDbLine
10
244.63402860617819
20
2071.3328033159387
30
3.5527136788005009e-14
11
244.63402860617811
21
1830.3837701151219
31
3.5527136788005009e-14
0
ARC
5
804
100
AcDbEntity
8
0
100
AcDbCircle
10
246.89677030597767
20
1828.1210284153276
30
0
40
3.1999999999999886
100
AcDbArc
50
135.00000000006619
51
315.00000000018315
0
LINE
5
805
100
AcDbEntity
8
0
100
AcDbLine
10
249.15951200578192
20
1825.8582867155378
30
0
11
252.6340286061729
21
1825.8582867155387
31
-7.8886090522101181e-30
0
LINE
5
806
100
AcDbEntity
8
0
100
AcDbLine
10
252.6340286061729
20
1825.8582867155387
30
-7.8886090522101181e-30
11
252.63402860617668
21
1809.858286715539
31
-4.9303806597837182e-31
0
LINE
5
807
100
AcDbEntity
8
0
100
AcDbLine
10
252.63402860617668
20
1809.858286715539
30
-4.9303806597837182e-31
11
249.15951200576706
21
1809.8582867155378
31
0
0
ARC
5
808
100
AcDbEntity
8
0
100
AcDbCircle
10
246.89677030597696
20
1807.5955450157339
30
3.5527136788005009e-14
40
3.1999999999999384
100
AcDbArc
50
45.000000000174531
51
224.99999999994927
0
LINE
5
809
100
AcDbEntity
8
0
100
AcDbLine
10
244.63402860617816
20
1805.3328033159391
30
3.5527136788005016e-14
11
244.63402860617811
21
1800.383770115121
31
3.5527136788005009e-14
0
ARC
5
810
100
AcDbEntity
8
0
100
AcDbCircle
10
246.89677030597937
20
1798.1210284153283
30
3.5527136788005009e-14
40
3.1999999999999886
100
AcDbArc
50
135.00000000010797
51
315.00000000017019
0
LINE
5
811
100
AcDbEntity
8
0
100
AcDbLine
10
249.15951200578306
20
1795.858286715538
30
3.5527136788005016e-14
11
252.6340286061799
21
1795.8582867155392
31
3.5527136788005009e-14
0
LINE
5
812
100
AcDbEntity
8
0
100
AcDbLine
10
252.6340286061799
20
1795.8582867155392
30
3.5527136788005009e-14
11
252.63402860618368
21
1779.858286715539
31
3.5527136788005009e-14
0
LINE
5
813
100
AcDbEntity
8
0
100
AcDbLine
10
252.63402860618368
20
1779.858286715539
30
3.5527136788005009e-14
11
249.15951200576814
21
1779.858286715538
31
0
0
ARC
5
814
100
AcDbEntity
8
0
100
AcDbCircle
10
246.89677030597829
20
1777.5955450157339
30
3.5527136788005009e-14
40
3.1999999999999633
100
AcDbArc
50
45.000000000180641
51
224.99999999991795
0
LINE
5
815
100
AcDbEntity
8
0
100
AcDbLine
10
244.63402860617816
20
1775.3328033159403
30
3.5527136788005009e-14
11
244.63402860617811
21
1672.8582867155378
31
3.5527136788005009e-14
0
LINE
5
816
100
AcDbEntity
8
0
100
AcDbLine
10
244.63402860617811
20
1672.8582867155378
30
3.5527136788005009e-14
11
44.634028606178511
21
1672.8582867155376
31
3.5527136788005009e-14
0
LINE
5
817
100
AcDbEntity
8
0
100
AcDbLine
10
44.634028606178511
20
1672.8582867155376
30
3.5527136788005009e-14
11
44.634028606178532
21
1775.3328033159332
31
3.5527136788005009e-14
0
ARC
5
818
100
AcDbEntity
8
0
100
AcDbCircle
10
42.371286906384782
20
1777.595545015733
30
3.5527136788005009e-14
40
3.1999999999997
100
AcDbArc
50
-45.000000000076483
51
134.99999999984377
0
LINE
5
819
100
AcDbEntity
8
0
100
AcDbLine
10
40.108545206594151
20
1779.858286715536
30
3.5527136788005009e-14
11
36.634028606178546
21
1779.8582867155365
31
0
0
LINE
5
820
100
AcDbEntity
8
0
100
AcDbLine
10
36.634028606178546
20
1779.8582867155365
30
0
11
36.634028606178546
21
1795.8582867155362
31
2.9841138502236374e-42
0
LINE
5
821
100
AcDbEntity
8
0
100
AcDbLine
10
36.634028606178546
20
1795.8582867155362
30
2.9841138502236374e-42
11
40.108545206581347
21
1795.8582867155362
31
3.5527136788005009e-14
0
ARC
5
822
100
AcDbEntity
8
0
100
AcDbCircle
10
42.371286906384782
20
1798.1210284153269
30
3.5527136788005009e-14
40
3.2000000000001205
100
AcDbArc
50
-135.00000000016132
51
45.000000000079254
0
LINE
5
823
100
AcDbEntity
8
0
100
AcDbLine
10
44.634028606178539
20
1800.3837701151269
30
3.5527136788005009e-14
11
44.634028606178546
21
1805.3328033159326
31
3.5527136788005009e-14
0
ARC
5
824
100
AcDbEntity
8
0
100
AcDbCircle
10
42.37128690638496
20
1807.595545015733
30
0
40
3.1999999999999886
100
AcDbArc
50
-45.000000000087169
51
134.99999999984377
0
LINE
5
825
100
AcDbEntity
8
0
100
AcDbLine
10
40.108545206594329
20
1809.858286715536
30
-5.0487097934144807e-30
11
36.634028606178546
21
1809.8582867155365
31
3.5527136788005016e-14
0
LINE
5
826
100
AcDbEntity
8
0
100
AcDbLine
10
36.634028606178546
20
1809.8582867155365
30
3.5527136788005016e-14
11
36.634028606178546
21
1825.8582867155362
31
2.9841138502236374e-42
0
LINE
5
827
100
AcDbEntity
8
0
100
AcDbLine
10
36.634028606178546
20
1825.8582867155362
30
2.9841138502236374e-42
11
40.108545206581134
21
1825.858286715536
31
0
0
ARC
5
828
100
AcDbEntity
8
0
100
AcDbCircle
10
42.371286906384853
20
1828.1210284153262
30
0
40
3.2000000000001205
100
AcDbArc
50
-135.00000000017064
51
45.000000000083752
0
LINE
5
829
100
AcDbEntity
8
0
100
AcDbLine
10
44.634028606178482
20
1830.3837701151265
30
-5.04870979341448e-30
11
44.634028606178518
21
1905.8582867155365
31
3.5527136788004997e-14
0
LINE
5
830
100
AcDbEntity
8
0
100
AcDbLine
10
44.634028606178518
20
1905.8582867155365
30
3.5527136788004997e-14
11
140.1085452065785
21
1905.8582867155369
31
3.5527136788005009e-14
0
ARC
5
831
100
AcDbEntity
8
0
100
AcDbCircle
10
142.37128690638477
20
1908.1210284153244
30
3.5527136788005009e-14
40
3.1999999999999136
100
AcDbArc
50
-135.00000000023749
51
45.000000000084199
0
LINE
5
832
100
AcDbEntity
8
0
100
AcDbLine
10
144.63402860617836
20
1910.3837701151247
30
3.5527136788005016e-14
11
144.63402860617836
21
1913.3328033159314
31
3.5527136788005009e-14
0
ARC
5
833
100
AcDbEntity
8
0
100
AcDbCircle
10
142.37128690638474
20
1915.5955450157317
30
0
40
3.2000000000000011
100
AcDbArc
50
-45.000000000083809
51
134.99999999979599
0
LINE
5
834
100
AcDbEntity
8
0
100
AcDbLine
10
140.10854520659583
20
1917.8582867155367
30
-5.0487097934144807e-30
11
44.634028606178532
21
1917.8582867155362
31
0
0
LINE
5
835
100
AcDbEntity
8
0
100
AcDbLine
10
44.634028606178532
20
1917.8582867155362
30
0
11
44.634028606178539
21
2071.3328033159301
31
3.5527136788005041e-14
0
ARC
5
836
100
AcDbEntity
8
0
100
AcDbCircle
10
42.371286906385457
20
2073.5955450157307
30
0
40
3.1999999999998319
100
AcDbArc
50
-45.000000000096435
51
134.99999999981182
0
LINE
5
837
100
AcDbEntity
8
0
100
AcDbLine
10
40.108545206595984
20
2075.8582867155351
30
-8.0045259725377785e-42
11
36.634028606178546
21
2075.8582867155346
31
3.5527136788005016e-14
0
LINE
5
838
100
AcDbEntity
8
0
100
AcDbLine
10
36.634028606178546
20
2075.8582867155346
30
3.5527136788005016e-14
11
36.634028606178546
21
2091.8582867155346
31
3.5527136788005009e-14
0
LINE
5
839
100
AcDbEntity
8
0
100
AcDbLine
10
36.634028606178546
20
2091.8582867155346
30
3.5527136788005009e-14
11
40.108545206580757
21
2091.8582867155351
31
5.04870979341448e-30
0
CIRCLE
5
840
100
AcDbEntity
8
0
100
AcDbCircle
10
1017.025308326715
20
2265.1466174697275
30
-3.6361557350031013e-30
40
1.5000000000000568
0
CIRCLE
5
841
100
AcDbEntity
8
0
100
AcDbCircle
10
1017.0253083267278
20
2330.1466174697275
30
-1.5469069313318278e-29
40
1.5000000000000568
0
CIRCLE
5
842
100
AcDbEntity
8
0
100
AcDbCircle
10
27.025308326728918
20
2265.1466174699221
30
1.0168910106364605e-29
40
1.4999999999999858
0
CIRCLE
5
843
100
AcDbEntity
8
0
100
AcDbCircle
10
27.025308326741637
20
2330.1466174699221
30
-2.9274135154685985e-29
40
1.4999999999999858
0
LWPOLYLINE
5
844
100
AcDbEntity
8
0
100
AcDbPolyline
90
8
70
1
43
0.0
10
1032.0253083267125
20
2252.6466174697252
42
-0.41421356237309503
10
1027.0253083267116
20
2247.6466174697262
10
17.025308326725522
20
2247.6466174699244
42
-0.41421356237305784
10
12.025308326726661
20
2252.6466174699249
10
12.025308326744335
20
2342.6466174699249
42
-0.41421356237308266
10
17.025308326744977
20
2347.646617469924
10
1027.0253083267314
20
2347.6466174697262
42
-0.41421356237306173
10
1032.0253083267303
20
2342.6466174697248
0
CIRCLE
5
845
100
AcDbEntity
8
0
100
AcDbCircle
10
1077.6840118097857
20
1340.3755907432533
30
-1.7872629883913549e-30
40
1.5000000000000571
0
CIRCLE
5
846
100
AcDbEntity
8
0
100
AcDbCircle
10
1142.6840118097857
20
1340.3755907432437
30
-4.2524533172070168e-30
40
1.5000000000000571
0
CIRCLE
5
847
100
AcDbEntity
8
0
100
AcDbCircle
10
1077.6840118099285
20
2330.3755907432396
30
-1.7872629883913549e-30
40
1.499999999999986
0
CIRCLE
5
848
100
AcDbEntity
8
0
100
AcDbCircle
10
1142.6840118099285
20
2330.3755907432301
30
-5.2385294487332815e-30
40
1.499999999999986
0
LWPOLYLINE
5
849
100
AcDbEntity
8
0
100
AcDbPolyline
90
8
70
1
43
0.0
10
1065.1840118097837
20
1325.3755907432549
42
-0.41421356237310336
10
1060.1840118097844
20
1330.3755907432558
10
1060.1840118099301
20
2340.3755907432424
42
-0.41421356237309503
10
1065.1840118099308
20
2345.3755907432414
10
1155.1840118099308
20
2345.3755907432283
42
-0.41421356237310336
10
1160.1840118099301
20
2340.3755907432273
10
1160.1840118097844
20
1330.3755907432412
42
-0.41421356237309503
10
1155.1840118097837
20
1325.3755907432421
0
ENDSEC
0
SECTION
2
OBJECTS
0
DICTIONARY
5
C
100
AcDbDictionary
3
ACAD_GROUP
350
D
3
ACAD_MLINESTYLE
350
17
0
DICTIONARY
5
D
100
AcDbDictionary
0
DICTIONARY
5
1A
330
C
100
AcDbDictionary
0
DICTIONARY
5
17
100
AcDbDictionary
0
ENDSEC
0
EOF
