0
SECTION
2
HEADER
9
$INSUNITS
70
4
9
$ACADVER
1
AC1014
9
$HANDSEED
5
FFFF
0
ENDSEC
0
SECTION
2
TABLES
0
TABLE
2
VPORT
5
8
100
AcDbSymbolTable
0
ENDTAB
0
TABLE
2
LTYPE
5
5
100
AcDbSymbolTable
0
LTYPE
5
14
100
AcDbSymbolTableRecord
100
AcDbLinetypeTableRecord
2
BYBLOCK
70
0
0
LTYPE
5
15
100
AcDbSymbolTableRecord
100
AcDbLinetypeTableRecord
2
BYLAYER
70
0
0
ENDTAB
0
TABLE
2
LAYER
5
2
100
AcDbSymbolTable
70
2
0
LAYER
5
50
100
AcDbSymbolTableRecord
100
AcDbLayerTableRecord
2
0
70
0
6
CONTINUOUS
0
ENDTAB
0
TABLE
2
STYLE
5
3
100
AcDbSymbolTable
70
1
0
STYLE
5
11
100
AcDbSymbolTableRecord
100
AcDbTextStyleTableRecord
2
STANDARD
70
0
0
ENDTAB
0
TABLE
2
VIEW
5
6
100
AcDbSymbolTable
70
0
0
ENDTAB
0
TABLE
2
UCS
5
7
100
AcDbSymbolTable
70
0
0
ENDTAB
0
TABLE
2
APPID
5
9
100
AcDbSymbolTable
70
2
0
APPID
5
12
100
AcDbSymbolTableRecord
100
AcDbRegAppTableRecord
2
ACAD
70
0
0
ENDTAB
0
TABLE
2
DIMSTYLE
5
A
100
AcDbSymbolTable
70
1
0
ENDTAB
0
TABLE
2
BLOCK_RECORD
5
1
100
AcDbSymbolTable
70
1
0
BLOCK_RECORD
5
1F
100
AcDbSymbolTableRecord
100
AcDbBlockTableRecord
2
*MODEL_SPACE
0
BLOCK_RECORD
5
1B
100
AcDbSymbolTableRecord
100
AcDbBlockTableRecord
2
*PAPER_SPACE
0
ENDTAB
0
ENDSEC
0
SECTION
2
BLOCKS
0
BLOCK
5
20
100
AcDbEntity
100
AcDbBlockBegin
2
*MODEL_SPACE
0
ENDBLK
5
21
100
AcDbEntity
100
AcDbBlockEnd
0
BLOCK
5
1C
100
AcDbEntity
100
AcDbBlockBegin
2
*PAPER_SPACE
0
ENDBLK
5
1D
100
AcDbEntity
100
AcDbBlockEnd
0
ENDSEC
0
SECTION
2
ENTITIES
0
LWPOLYLINE
5
100
100
AcDbEntity
8
0
100
AcDbPolyline
90
4
70
1
43
0.0
10
1199.2505857086392
20
-8.8926061248690775
10
1180.7505857086392
20
-8.8926061248690758
10
1180.7505857086394
20
2431.1073938751306
10
1199.2505857086396
20
2431.1073938751306
0
CIRCLE
5
101
100
AcDbEntity
8
0
100
AcDbCircle
10
1139.2505857086396
20
2381.1073938751306
30
9.8607613152626476e-31
40
2.9999999999999716
0
CIRCLE
5
102
100
AcDbEntity
8
0
100
AcDbCircle
10
1139.2505857086392
20
41.107393875130924
30
0
40
2.9999999999999716
0
CIRCLE
5
103
100
AcDbEntity
8
0
100
AcDbCircle
10
39.250585708639534
20
2381.1073938751306
30
9.8607613152626476e-31
40
2.9999999999999716
0
CIRCLE
5
104
100
AcDbEntity
8
0
100
AcDbCircle
10
39.25058570863925
20
41.107393875131208
30
0
40
2.9999999999999716
0
CIRCLE
5
105
100
AcDbEntity
8
0
100
AcDbCircle
10
79.250585708639534
20
2331.107393875131
30
9.8607613152626476e-31
40
2.0000000000000284
0
CIRCLE
5
106
100
AcDbEntity
8
0
100
AcDbCircle
10
419.25058570863951
20
2331.107393875131
30
9.8607613152626476e-31
40
2.0000000000000284
0
CIRCLE
5
107
100
AcDbEntity
8
0
100
AcDbCircle
10
759.25058570863951
20
2331.107393875131
30
9.8607613152626476e-31
40
2.0000000000000284
0
CIRCLE
5
108
100
AcDbEntity
8
0
100
AcDbCircle
10
1099.2505857086396
20
2331.107393875131
30
9.8607613152626476e-31
40
2.0000000000000284
0
CIRCLE
5
109
100
AcDbEntity
8
0
100
AcDbCircle
10
79.250585708639534
20
1957.774060541798
30
0
40
2.0000000000000284
0
CIRCLE
5
110
100
AcDbEntity
8
0
100
AcDbCircle
10
419.25058570863951
20
1957.7740605417978
30
0
40
2.0000000000000284
0
CIRCLE
5
111
100
AcDbEntity
8
0
100
AcDbCircle
10
759.25058570863951
20
1957.7740605417978
30
0
40
2.0000000000000284
0
CIRCLE
5
112
100
AcDbEntity
8
0
100
AcDbCircle
10
1099.2505857086396
20
1957.7740605417978
30
0
40
2.0000000000000284
0
CIRCLE
5
113
100
AcDbEntity
8
0
100
AcDbCircle
10
79.250585708639463
20
1584.4407272084645
30
9.8607613152626476e-31
40
2.0000000000000284
0
CIRCLE
5
114
100
AcDbEntity
8
0
100
AcDbCircle
10
419.25058570863945
20
1584.4407272084645
30
9.8607613152626476e-31
40
2.0000000000000284
0
CIRCLE
5
115
100
AcDbEntity
8
0
100
AcDbCircle
10
759.25058570863939
20
1584.4407272084645
30
9.8607613152626476e-31
40
2.0000000000000284
0
CIRCLE
5
116
100
AcDbEntity
8
0
100
AcDbCircle
10
1099.2505857086394
20
1584.4407272084643
30
9.8607613152626476e-31
40
2.0000000000000284
0
CIRCLE
5
117
100
AcDbEntity
8
0
100
AcDbCircle
10
79.250585708639392
20
1211.1073938751313
30
0
40
2.0000000000000284
0
CIRCLE
5
118
100
AcDbEntity
8
0
100
AcDbCircle
10
419.25058570863939
20
1211.107393875131
30
0
40
2.0000000000000284
0
CIRCLE
5
119
100
AcDbEntity
8
0
100
AcDbCircle
10
759.25058570863939
20
1211.107393875131
30
0
40
2.0000000000000284
0
CIRCLE
5
120
100
AcDbEntity
8
0
100
AcDbCircle
10
1099.2505857086394
20
1211.107393875131
30
0
40
2.0000000000000284
0
CIRCLE
5
121
100
AcDbEntity
8
0
100
AcDbCircle
10
79.250585708639321
20
837.77406054179778
30
0
40
2.0000000000000284
0
CIRCLE
5
122
100
AcDbEntity
8
0
100
AcDbCircle
10
419.25058570863933
20
837.77406054179778
30
0
40
2.0000000000000284
0
CIRCLE
5
123
100
AcDbEntity
8
0
100
AcDbCircle
10
759.25058570863939
20
837.77406054179778
30
0
40
2.0000000000000284
0
CIRCLE
5
124
100
AcDbEntity
8
0
100
AcDbCircle
10
1099.2505857086394
20
837.77406054179778
30
0
40
2.0000000000000284
0
CIRCLE
5
125
100
AcDbEntity
8
0
100
AcDbCircle
10
79.25058570863925
20
464.44072720846464
30
9.8607613152626476e-31
40
2.0000000000000284
0
CIRCLE
5
126
100
AcDbEntity
8
0
100
AcDbCircle
10
419.25058570863928
20
464.44072720846452
30
9.8607613152626476e-31
40
2.0000000000000284
0
CIRCLE
5
127
100
AcDbEntity
8
0
100
AcDbCircle
10
759.25058570863928
20
464.44072720846452
30
9.8607613152626476e-31
40
2.0000000000000284
0
CIRCLE
5
128
100
AcDbEntity
8
0
100
AcDbCircle
10
1099.2505857086392
20
464.44072720846435
30
9.8607613152626476e-31
40
2.0000000000000284
0
CIRCLE
5
129
100
AcDbEntity
8
0
100
AcDbCircle
10
79.25058570863925
20
91.107393875131208
30
0
40
2.0000000000000284
0
CIRCLE
5
130
100
AcDbEntity
8
0
100
AcDbCircle
10
419.25058570863928
20
91.107393875131066
30
0
40
2.0000000000000284
0
CIRCLE
5
131
100
AcDbEntity
8
0
100
AcDbCircle
10
759.25058570863928
20
91.107393875131066
30
0
40
2.0000000000000284
0
CIRCLE
5
132
100
AcDbEntity
8
0
100
AcDbCircle
10
1099.2505857086392
20
91.107393875130924
30
0
40
2.0000000000000284
0
LWPOLYLINE
5
133
100
AcDbEntity
8
0
100
AcDbPolyline
90
4
70
1
43
0.0
10
-2.2494142913608757
20
-8.8926061248687915
10
-2.2494142913605231
20
2431.1073938751306
10
1180.7505857086396
20
2431.1073938751306
10
1180.7505857086394
20
-8.8926061248689621
0
LWPOLYLINE
5
134
100
AcDbEntity
8
0
100
AcDbPolyline
90
4
70
1
43
0.0
10
-2.2494142913607362
20
-8.8926061248687933
10
-20.74941429136075
20
-8.8926061248687915
10
-20.749414291360466
20
2431.1073938751306
10
-2.2494142913603836
20
2431.1073938751306
0
ENDSEC
0
SECTION
2
OBJECTS
0
DICTIONARY
5
C
100
AcDbDictionary
3
ACAD_GROUP
350
D
3
ACAD_MLINESTYLE
350
17
0
DICTIONARY
5
D
100
AcDbDictionary
0
DICTIONARY
5
1A
330
C
100
AcDbDictionary
0
DICTIONARY
5
17
100
AcDbDictionary
0
ENDSEC
0
EOF
