0
SECTION
2
HEADER
9
$INSUNITS
70
4
9
$ACADVER
1
AC1014
9
$HANDSEED
5
FFFF
0
ENDSEC
0
SECTION
2
TABLES
0
TABLE
2
VPORT
5
8
100
AcDbSymbolTable
0
ENDTAB
0
TABLE
2
LTYPE
5
5
100
AcDbSymbolTable
0
LTYPE
5
14
100
AcDbSymbolTableRecord
100
AcDbLinetypeTableRecord
2
BYBLOCK
70
0
0
LTYPE
5
15
100
AcDbSymbolTableRecord
100
AcDbLinetypeTableRecord
2
BYLAYER
70
0
0
ENDTAB
0
TABLE
2
LAYER
5
2
100
AcDbSymbolTable
70
2
0
LAYER
5
50
100
AcDbSymbolTableRecord
100
AcDbLayerTableRecord
2
0
70
0
6
CONTINUOUS
0
ENDTAB
0
TABLE
2
STYLE
5
3
100
AcDbSymbolTable
70
1
0
STYLE
5
11
100
AcDbSymbolTableRecord
100
AcDbTextStyleTableRecord
2
STANDARD
70
0
0
ENDTAB
0
TABLE
2
VIEW
5
6
100
AcDbSymbolTable
70
0
0
ENDTAB
0
TABLE
2
UCS
5
7
100
AcDbSymbolTable
70
0
0
ENDTAB
0
TABLE
2
APPID
5
9
100
AcDbSymbolTable
70
2
0
APPID
5
12
100
AcDbSymbolTableRecord
100
AcDbRegAppTableRecord
2
ACAD
70
0
0
ENDTAB
0
TABLE
2
DIMSTYLE
5
A
100
AcDbSymbolTable
70
1
0
ENDTAB
0
TABLE
2
BLOCK_RECORD
5
1
100
AcDbSymbolTable
70
1
0
BLOCK_RECORD
5
1F
100
AcDbSymbolTableRecord
100
AcDbBlockTableRecord
2
*MODEL_SPACE
0
BLOCK_RECORD
5
1B
100
AcDbSymbolTableRecord
100
AcDbBlockTableRecord
2
*PAPER_SPACE
0
ENDTAB
0
ENDSEC
0
SECTION
2
BLOCKS
0
BLOCK
5
20
100
AcDbEntity
100
AcDbBlockBegin
2
*MODEL_SPACE
0
ENDBLK
5
21
100
AcDbEntity
100
AcDbBlockEnd
0
BLOCK
5
1C
100
AcDbEntity
100
AcDbBlockBegin
2
*PAPER_SPACE
0
ENDBLK
5
1D
100
AcDbEntity
100
AcDbBlockEnd
0
ENDSEC
0
SECTION
2
ENTITIES
0
LWPOLYLINE
5
100
100
AcDbEntity
8
0
100
AcDbPolyline
90
4
70
1
43
0.0
10
-20.749414291360786
20
-8.8926061248687915
10
-20.74941429136075
20
2431.107393875131
10
1199.2505857086392
20
2431.107393875131
10
1199.2505857086392
20
-8.8926061248688182
0
CIRCLE
5
101
100
AcDbEntity
8
0
100
AcDbCircle
10
1077.7502523753074
20
145.10739387513155
30
0
40
2.9999999999999716
0
CIRCLE
5
102
100
AcDbEntity
8
0
100
AcDbCircle
10
98.750919041974115
20
1397.1073938751306
30
0
40
2.9999999999999716
0
CIRCLE
5
103
100
AcDbEntity
8
0
100
AcDbCircle
10
1077.7502523753067
20
1577.1073938751306
30
0
40
2.9999999999999716
0
CIRCLE
5
104
100
AcDbEntity
8
0
100
AcDbCircle
10
98.750919041974043
20
325.10739387513127
30
0
40
2.9999999999999716
0
CIRCLE
5
105
100
AcDbEntity
8
0
100
AcDbCircle
10
1077.7502523753071
20
325.10739387513155
30
0
40
2.9999999999999716
0
CIRCLE
5
106
100
AcDbEntity
8
0
100
AcDbCircle
10
98.750919041974115
20
1577.1073938751306
30
0
40
2.9999999999999716
0
CIRCLE
5
107
100
AcDbEntity
8
0
100
AcDbCircle
10
1077.7502523753069
20
1397.1073938751306
30
0
40
2.9999999999999716
0
CIRCLE
5
108
100
AcDbEntity
8
0
100
AcDbCircle
10
98.750919041974043
20
145.10739387513127
30
0
40
2.9999999999999716
0
LWPOLYLINE
5
109
100
AcDbEntity
8
0
100
AcDbPolyline
90
4
70
1
43
0.0
10
581.25058570864019
20
21.107393875130924
10
581.25058570864019
20
29.107393875131038
10
565.25058570864019
20
29.107393875131038
10
565.25058570864019
20
21.107393875130924
0
LWPOLYLINE
5
110
100
AcDbEntity
8
0
100
AcDbPolyline
90
4
70
1
43
0.0
10
595.25058570864019
20
21.107393875130924
10
611.25058570864019
20
21.107393875130924
10
611.25058570864019
20
29.107393875131038
10
595.25058570864019
20
29.107393875131038
0
CIRCLE
5
111
100
AcDbEntity
8
0
100
AcDbCircle
10
588.25058570864019
20
25.107393875130981
30
0
40
2.5
0
CIRCLE
5
112
100
AcDbEntity
8
0
100
AcDbCircle
10
83.250919041974001
20
105.10739387513127
30
0
40
2.5
0
CIRCLE
5
113
100
AcDbEntity
8
0
100
AcDbCircle
10
83.25091904197393
20
665.10739387513127
30
0
40
2.5
0
LWPOLYLINE
5
114
100
AcDbEntity
8
0
100
AcDbPolyline
90
4
70
1
43
0.0
10
79.250919041974086
20
82.107393875131152
10
87.250919041974058
20
82.107393875131152
10
87.250919041974058
20
98.107393875131095
10
79.250919041974086
20
98.107393875131095
0
LWPOLYLINE
5
115
100
AcDbEntity
8
0
100
AcDbPolyline
90
4
70
1
43
0.0
10
79.250919041974015
20
642.10739387513115
10
87.250919041973987
20
642.10739387513115
10
87.250919041973987
20
658.10739387513104
10
79.250919041974015
20
658.10739387513104
0
LWPOLYLINE
5
116
100
AcDbEntity
8
0
100
AcDbPolyline
90
4
70
1
43
0.0
10
79.250919041974086
20
112.10739387513115
10
87.250919041974058
20
112.10739387513115
10
87.250919041974129
20
128.10739387513109
10
79.250919041974086
20
128.10739387513109
0
LWPOLYLINE
5
117
100
AcDbEntity
8
0
100
AcDbPolyline
90
4
70
1
43
0.0
10
79.250919041974015
20
672.10739387513115
10
87.250919041973987
20
672.10739387513115
10
87.250919041973987
20
688.10739387513104
10
79.250919041974015
20
688.10739387513104
0
CIRCLE
5
118
100
AcDbEntity
8
0
100
AcDbCircle
10
1093.2502523753074
20
105.10739387513127
30
0
40
2.5
0
CIRCLE
5
119
100
AcDbEntity
8
0
100
AcDbCircle
10
1093.2502523753071
20
665.10739387513127
30
0
40
2.5
0
LWPOLYLINE
5
120
100
AcDbEntity
8
0
100
AcDbPolyline
90
4
70
1
43
0.0
10
1089.2502523753074
20
112.10739387513115
10
1097.2502523753074
20
112.10739387513115
10
1097.2502523753074
20
128.10739387513109
10
1089.2502523753071
20
128.10739387513109
0
LWPOLYLINE
5
121
100
AcDbEntity
8
0
100
AcDbPolyline
90
4
70
1
43
0.0
10
1089.2502523753071
20
672.10739387513115
10
1097.2502523753071
20
672.10739387513115
10
1097.2502523753071
20
688.10739387513104
10
1089.2502523753071
20
688.10739387513104
0
LWPOLYLINE
5
122
100
AcDbEntity
8
0
100
AcDbPolyline
90
4
70
1
43
0.0
10
1089.2502523753074
20
82.107393875131152
10
1097.2502523753074
20
82.107393875131152
10
1097.2502523753071
20
98.107393875131095
10
1089.2502523753071
20
98.107393875131095
0
LWPOLYLINE
5
123
100
AcDbEntity
8
0
100
AcDbPolyline
90
4
70
1
43
0.0
10
1089.2502523753071
20
642.10739387513115
10
1097.2502523753071
20
642.10739387513115
10
1097.2502523753071
20
658.10739387513104
10
1089.2502523753071
20
658.10739387513104
0
CIRCLE
5
124
100
AcDbEntity
8
0
100
AcDbCircle
10
923.2505857086403
20
1833.1073938751308
30
0
40
2.5
0
LWPOLYLINE
5
125
100
AcDbEntity
8
0
100
AcDbPolyline
90
4
70
1
43
0.0
10
260.25058570864024
20
1837.1073938751308
10
260.25058570864024
20
1829.1073938751308
10
276.2505857086403
20
1829.1073938751308
10
276.2505857086403
20
1837.1073938751308
0
LWPOLYLINE
5
126
100
AcDbEntity
8
0
100
AcDbPolyline
90
4
70
1
43
0.0
10
565.2505857086403
20
1837.1073938751308
10
565.2505857086403
20
1829.1073938751308
10
581.2505857086403
20
1829.1073938751308
10
581.2505857086403
20
1837.1073938751308
0
LWPOLYLINE
5
127
100
AcDbEntity
8
0
100
AcDbPolyline
90
4
70
1
43
0.0
10
900.25058570864019
20
1837.1073938751308
10
900.25058570864019
20
1829.1073938751308
10
916.25058570864041
20
1829.1073938751308
10
916.2505857086403
20
1837.1073938751308
0
CIRCLE
5
128
100
AcDbEntity
8
0
100
AcDbCircle
10
588.2505857086403
20
1833.1073938751308
30
0
40
2.5
0
LWPOLYLINE
5
129
100
AcDbEntity
8
0
100
AcDbPolyline
90
4
70
1
43
0.0
10
230.25058570864024
20
1837.1073938751308
10
230.25058570864024
20
1829.1073938751308
10
246.25058570864036
20
1829.1073938751308
10
246.25058570864036
20
1837.1073938751308
0
LWPOLYLINE
5
130
100
AcDbEntity
8
0
100
AcDbPolyline
90
4
70
1
43
0.0
10
611.2505857086403
20
1837.1073938751308
10
595.2505857086403
20
1837.1073938751308
10
595.2505857086403
20
1829.1073938751308
10
611.2505857086403
20
1829.1073938751308
0
LWPOLYLINE
5
131
100
AcDbEntity
8
0
100
AcDbPolyline
90
4
70
1
43
0.0
10
946.25058570864041
20
1837.1073938751308
10
930.2505857086403
20
1837.1073938751308
10
930.25058570864019
20
1829.1073938751308
10
946.25058570864041
20
1829.1073938751308
0
CIRCLE
5
132
100
AcDbEntity
8
0
100
AcDbCircle
10
253.2505857086403
20
1833.1073938751308
30
0
40
2.5
0
CIRCLE
5
133
100
AcDbEntity
8
0
100
AcDbCircle
10
923.2505857086403
20
1529.1073938751308
30
0
40
2.5
0
LWPOLYLINE
5
134
100
AcDbEntity
8
0
100
AcDbPolyline
90
4
70
1
43
0.0
10
260.25058570864024
20
1533.107393875131
10
260.25058570864024
20
1525.107393875131
10
276.25058570864024
20
1525.107393875131
10
276.25058570864024
20
1533.107393875131
0
LWPOLYLINE
5
135
100
AcDbEntity
8
0
100
AcDbPolyline
90
4
70
1
43
0.0
10
565.2505857086403
20
1533.1073938751308
10
565.2505857086403
20
1525.1073938751306
10
581.2505857086403
20
1525.1073938751306
10
581.2505857086403
20
1533.1073938751308
0
LWPOLYLINE
5
136
100
AcDbEntity
8
0
100
AcDbPolyline
90
4
70
1
43
0.0
10
900.25058570864019
20
1533.1073938751308
10
900.25058570864019
20
1525.1073938751306
10
916.2505857086403
20
1525.1073938751306
10
916.2505857086403
20
1533.1073938751308
0
CIRCLE
5
137
100
AcDbEntity
8
0
100
AcDbCircle
10
588.25058570864019
20
1529.107393875131
30
0
40
2.5
0
LWPOLYLINE
5
138
100
AcDbEntity
8
0
100
AcDbPolyline
90
4
70
1
43
0.0
10
230.25058570864024
20
1533.107393875131
10
230.25058570864024
20
1525.107393875131
10
246.25058570864027
20
1525.107393875131
10
246.25058570864027
20
1533.107393875131
0
LWPOLYLINE
5
139
100
AcDbEntity
8
0
100
AcDbPolyline
90
4
70
1
43
0.0
10
611.2505857086403
20
1533.1073938751308
10
595.2505857086403
20
1533.1073938751308
10
595.2505857086403
20
1525.1073938751306
10
611.2505857086403
20
1525.1073938751306
0
LWPOLYLINE
5
140
100
AcDbEntity
8
0
100
AcDbPolyline
90
4
70
1
43
0.0
10
946.25058570864007
20
1533.1073938751308
10
930.25058570864019
20
1533.1073938751308
10
930.25058570864019
20
1525.1073938751306
10
946.2505857086403
20
1525.1073938751306
0
CIRCLE
5
141
100
AcDbEntity
8
0
100
AcDbCircle
10
253.25058570864024
20
1529.107393875131
30
0
40
2.5
0
CIRCLE
5
142
100
AcDbEntity
8
0
100
AcDbCircle
10
923.2505857086403
20
1225.107393875131
30
0
40
2.5
0
LWPOLYLINE
5
143
100
AcDbEntity
8
0
100
AcDbPolyline
90
4
70
1
43
0.0
10
260.25058570864024
20
1229.107393875131
10
260.25058570864024
20
1221.107393875131
10
276.25058570864024
20
1221.107393875131
10
276.25058570864024
20
1229.107393875131
0
LWPOLYLINE
5
144
100
AcDbEntity
8
0
100
AcDbPolyline
90
4
70
1
43
0.0
10
565.25058570864019
20
1229.107393875131
10
565.25058570864019
20
1221.107393875131
10
581.25058570864019
20
1221.107393875131
10
581.25058570864019
20
1229.107393875131
0
LWPOLYLINE
5
145
100
AcDbEntity
8
0
100
AcDbPolyline
90
4
70
1
43
0.0
10
900.25058570864019
20
1229.107393875131
10
900.25058570864019
20
1221.107393875131
10
916.2505857086403
20
1221.107393875131
10
916.2505857086403
20
1229.107393875131
0
CIRCLE
5
146
100
AcDbEntity
8
0
100
AcDbCircle
10
588.25058570864019
20
1225.107393875131
30
0
40
2.5
0
LWPOLYLINE
5
147
100
AcDbEntity
8
0
100
AcDbPolyline
90
4
70
1
43
0.0
10
230.25058570864024
20
1229.107393875131
10
230.25058570864024
20
1221.107393875131
10
246.25058570864027
20
1221.107393875131
10
246.25058570864027
20
1229.107393875131
0
LWPOLYLINE
5
148
100
AcDbEntity
8
0
100
AcDbPolyline
90
4
70
1
43
0.0
10
611.25058570864019
20
1229.107393875131
10
595.25058570864019
20
1229.107393875131
10
595.2505857086403
20
1221.107393875131
10
611.2505857086403
20
1221.107393875131
0
LWPOLYLINE
5
149
100
AcDbEntity
8
0
100
AcDbPolyline
90
4
70
1
43
0.0
10
946.25058570864007
20
1229.107393875131
10
930.25058570864019
20
1229.107393875131
10
930.25058570864019
20
1221.107393875131
10
946.2505857086403
20
1221.107393875131
0
CIRCLE
5
150
100
AcDbEntity
8
0
100
AcDbCircle
10
253.25058570864024
20
1225.107393875131
30
0
40
2.5
0
CIRCLE
5
151
100
AcDbEntity
8
0
100
AcDbCircle
10
923.25058570864019
20
921.10739387513092
30
0
40
2.5
0
LWPOLYLINE
5
152
100
AcDbEntity
8
0
100
AcDbPolyline
90
4
70
1
43
0.0
10
260.25058570864019
20
925.10739387513104
10
260.25058570864019
20
917.10739387513081
10
276.25058570864019
20
917.10739387513081
10
276.25058570864019
20
925.10739387513104
0
LWPOLYLINE
5
153
100
AcDbEntity
8
0
100
AcDbPolyline
90
4
70
1
43
0.0
10
565.25058570864019
20
925.10739387513104
10
565.25058570864019
20
917.10739387513081
10
581.25058570864019
20
917.10739387513081
10
581.25058570864019
20
925.10739387513104
0
LWPOLYLINE
5
154
100
AcDbEntity
8
0
100
AcDbPolyline
90
4
70
1
43
0.0
10
900.25058570864019
20
925.10739387513104
10
900.25058570864019
20
917.10739387513081
10
916.25058570864007
20
917.10739387513081
10
916.2505857086403
20
925.10739387513104
0
CIRCLE
5
155
100
AcDbEntity
8
0
100
AcDbCircle
10
588.25058570864019
20
921.10739387513092
30
0
40
2.5
0
LWPOLYLINE
5
156
100
AcDbEntity
8
0
100
AcDbPolyline
90
4
70
1
43
0.0
10
230.25058570864019
20
925.10739387513104
10
230.25058570864019
20
917.10739387513081
10
246.25058570864019
20
917.10739387513081
10
246.25058570864019
20
925.10739387513104
0
LWPOLYLINE
5
157
100
AcDbEntity
8
0
100
AcDbPolyline
90
4
70
1
43
0.0
10
611.25058570864019
20
925.10739387513104
10
595.25058570864019
20
925.10739387513104
10
595.25058570864019
20
917.10739387513081
10
611.25058570864019
20
917.10739387513081
0
LWPOLYLINE
5
158
100
AcDbEntity
8
0
100
AcDbPolyline
90
4
70
1
43
0.0
10
946.25058570864007
20
925.10739387513104
10
930.25058570864019
20
925.10739387513104
10
930.25058570864019
20
917.10739387513081
10
946.25058570864007
20
917.10739387513081
0
CIRCLE
5
159
100
AcDbEntity
8
0
100
AcDbCircle
10
253.25058570864016
20
921.10739387513092
30
0
40
2.5
0
CIRCLE
5
160
100
AcDbEntity
8
0
100
AcDbCircle
10
923.25058570864019
20
617.10739387513081
30
0
40
2.5
0
LWPOLYLINE
5
161
100
AcDbEntity
8
0
100
AcDbPolyline
90
4
70
1
43
0.0
10
260.25058570864019
20
621.10739387513092
10
260.25058570864019
20
613.10739387513081
10
276.25058570864019
20
613.10739387513081
10
276.25058570864019
20
621.10739387513092
0
LWPOLYLINE
5
162
100
AcDbEntity
8
0
100
AcDbPolyline
90
4
70
1
43
0.0
10
565.25058570864019
20
621.10739387513092
10
565.25058570864019
20
613.10739387513081
10
581.25058570864019
20
613.10739387513081
10
581.25058570864019
20
621.10739387513092
0
LWPOLYLINE
5
163
100
AcDbEntity
8
0
100
AcDbPolyline
90
4
70
1
43
0.0
10
900.25058570864019
20
621.10739387513092
10
900.25058570864019
20
613.10739387513081
10
916.25058570864007
20
613.10739387513081
10
916.2505857086403
20
621.10739387513092
0
CIRCLE
5
164
100
AcDbEntity
8
0
100
AcDbCircle
10
588.25058570864019
20
617.10739387513081
30
0
40
2.5
0
LWPOLYLINE
5
165
100
AcDbEntity
8
0
100
AcDbPolyline
90
4
70
1
43
0.0
10
230.25058570864019
20
621.10739387513092
10
230.25058570864019
20
613.10739387513081
10
246.25058570864019
20
613.10739387513081
10
246.25058570864019
20
621.10739387513092
0
LWPOLYLINE
5
166
100
AcDbEntity
8
0
100
AcDbPolyline
90
4
70
1
43
0.0
10
611.25058570864019
20
621.10739387513092
10
595.25058570864019
20
621.10739387513092
10
595.25058570864019
20
613.10739387513081
10
611.25058570864019
20
613.10739387513081
0
LWPOLYLINE
5
167
100
AcDbEntity
8
0
100
AcDbPolyline
90
4
70
1
43
0.0
10
946.25058570864007
20
621.10739387513092
10
930.25058570864019
20
621.10739387513092
10
930.25058570864019
20
613.10739387513081
10
946.25058570864007
20
613.10739387513081
0
CIRCLE
5
168
100
AcDbEntity
8
0
100
AcDbCircle
10
253.25058570864016
20
617.10739387513081
30
0
40
2.5
0
CIRCLE
5
169
100
AcDbEntity
8
0
100
AcDbCircle
10
923.25058570864019
20
313.10739387513109
30
0
40
2.5
0
LWPOLYLINE
5
170
100
AcDbEntity
8
0
100
AcDbPolyline
90
4
70
1
43
0.0
10
565.25058570864007
20
317.10739387513115
10
565.25058570864007
20
309.10739387513104
10
581.25058570864007
20
309.10739387513104
10
581.25058570864007
20
317.10739387513115
0
LWPOLYLINE
5
171
100
AcDbEntity
8
0
100
AcDbPolyline
90
4
70
1
43
0.0
10
900.25058570864019
20
317.10739387513115
10
900.25058570864019
20
309.10739387513104
10
916.25058570864007
20
309.10739387513104
10
916.2505857086403
20
317.10739387513115
0
CIRCLE
5
172
100
AcDbEntity
8
0
100
AcDbCircle
10
588.25058570864019
20
313.10739387513109
30
0
40
2.5
0
LWPOLYLINE
5
173
100
AcDbEntity
8
0
100
AcDbPolyline
90
4
70
1
43
0.0
10
611.25058570864007
20
317.10739387513115
10
595.25058570864007
20
317.10739387513115
10
595.25058570864007
20
309.10739387513104
10
611.25058570864007
20
309.10739387513104
0
LWPOLYLINE
5
174
100
AcDbEntity
8
0
100
AcDbPolyline
90
4
70
1
43
0.0
10
946.25058570864007
20
317.10739387513115
10
930.25058570864019
20
317.10739387513115
10
930.25058570864019
20
309.10739387513104
10
946.25058570864007
20
309.10739387513104
0
CIRCLE
5
175
100
AcDbEntity
8
0
100
AcDbCircle
10
414.58391904197379
20
1785.1073938751313
30
0
40
2.5
0
LWPOLYLINE
5
176
100
AcDbEntity
8
0
100
AcDbPolyline
90
4
70
1
43
0.0
10
418.58391904197362
20
642.10739387513115
10
418.58391904197367
20
658.10739387513104
10
410.58391904197373
20
658.10739387513104
10
410.58391904197367
20
642.10739387513115
0
LWPOLYLINE
5
177
100
AcDbEntity
8
0
100
AcDbPolyline
90
4
70
1
43
0.0
10
418.58391904197367
20
672.10739387513115
10
418.58391904197367
20
688.10739387513104
10
410.58391904197373
20
688.10739387513104
10
410.58391904197373
20
672.10739387513115
0
LWPOLYLINE
5
178
100
AcDbEntity
8
0
100
AcDbPolyline
90
4
70
1
43
0.0
10
418.58391904197367
20
1202.107393875131
10
418.58391904197379
20
1218.107393875131
10
410.58391904197379
20
1218.107393875131
10
410.58391904197379
20
1202.107393875131
0
LWPOLYLINE
5
179
100
AcDbEntity
8
0
100
AcDbPolyline
90
4
70
1
43
0.0
10
418.58391904197379
20
1232.107393875131
10
418.58391904197379
20
1248.107393875131
10
410.58391904197379
20
1248.107393875131
10
410.58391904197379
20
1232.107393875131
0
LWPOLYLINE
5
180
100
AcDbEntity
8
0
100
AcDbPolyline
90
4
70
1
43
0.0
10
418.58391904197367
20
1762.107393875131
10
418.58391904197379
20
1778.107393875131
10
410.58391904197379
20
1778.107393875131
10
410.58391904197379
20
1762.107393875131
0
LWPOLYLINE
5
181
100
AcDbEntity
8
0
100
AcDbPolyline
90
4
70
1
43
0.0
10
418.58391904197379
20
1792.107393875131
10
418.58391904197379
20
1808.107393875131
10
410.58391904197379
20
1808.107393875131
10
410.58391904197379
20
1792.107393875131
0
CIRCLE
5
182
100
AcDbEntity
8
0
100
AcDbCircle
10
414.58391904197367
20
1225.1073938751313
30
0
40
2.5
0
CIRCLE
5
183
100
AcDbEntity
8
0
100
AcDbCircle
10
414.58391904197367
20
665.10739387513127
30
0
40
2.5
0
CIRCLE
5
184
100
AcDbEntity
8
0
100
AcDbCircle
10
761.91725237530704
20
1785.1073938751313
30
0
40
2.5
0
LWPOLYLINE
5
185
100
AcDbEntity
8
0
100
AcDbPolyline
90
4
70
1
43
0.0
10
765.91725237530693
20
112.10739387513115
10
765.91725237530693
20
128.10739387513109
10
757.91725237530704
20
128.10739387513109
10
757.91725237530704
20
112.10739387513115
0
LWPOLYLINE
5
186
100
AcDbEntity
8
0
100
AcDbPolyline
90
4
70
1
43
0.0
10
765.91725237530704
20
642.10739387513115
10
765.91725237530704
20
658.10739387513104
10
757.91725237530704
20
658.10739387513104
10
757.91725237530704
20
642.10739387513115
0
LWPOLYLINE
5
187
100
AcDbEntity
8
0
100
AcDbPolyline
90
4
70
1
43
0.0
10
765.91725237530704
20
672.10739387513115
10
765.91725237530704
20
688.10739387513104
10
757.91725237530704
20
688.10739387513104
10
757.91725237530716
20
672.10739387513115
0
LWPOLYLINE
5
188
100
AcDbEntity
8
0
100
AcDbPolyline
90
4
70
1
43
0.0
10
765.91725237530704
20
1202.107393875131
10
765.91725237530704
20
1218.107393875131
10
757.91725237530716
20
1218.107393875131
10
757.91725237530716
20
1202.107393875131
0
LWPOLYLINE
5
189
100
AcDbEntity
8
0
100
AcDbPolyline
90
4
70
1
43
0.0
10
765.91725237530704
20
1232.107393875131
10
765.91725237530704
20
1248.107393875131
10
757.91725237530716
20
1248.107393875131
10
757.91725237530716
20
1232.107393875131
0
LWPOLYLINE
5
190
100
AcDbEntity
8
0
100
AcDbPolyline
90
4
70
1
43
0.0
10
765.91725237530704
20
1762.107393875131
10
765.91725237530704
20
1778.107393875131
10
757.91725237530716
20
1778.107393875131
10
757.91725237530716
20
1762.107393875131
0
LWPOLYLINE
5
191
100
AcDbEntity
8
0
100
AcDbPolyline
90
4
70
1
43
0.0
10
765.91725237530704
20
1792.107393875131
10
765.91725237530704
20
1808.107393875131
10
757.91725237530716
20
1808.107393875131
10
757.91725237530716
20
1792.107393875131
0
LWPOLYLINE
5
192
100
AcDbEntity
8
0
100
AcDbPolyline
90
4
70
1
43
0.0
10
757.91725237530704
20
82.107393875131152
10
765.91725237530693
20
82.107393875131152
10
765.91725237530693
20
98.107393875131095
10
757.91725237530704
20
98.107393875131095
0
CIRCLE
5
193
100
AcDbEntity
8
0
100
AcDbCircle
10
761.91725237530704
20
1225.1073938751313
30
0
40
2.5
0
CIRCLE
5
194
100
AcDbEntity
8
0
100
AcDbCircle
10
761.91725237530704
20
665.10739387513127
30
0
40
2.5
0
CIRCLE
5
195
100
AcDbEntity
8
0
100
AcDbCircle
10
761.91725237530704
20
105.10739387513127
30
0
40
2.5
0
CIRCLE
5
196
100
AcDbEntity
8
0
100
AcDbCircle
10
923.25058570864053
20
25.107393875130981
30
0
40
2.5
0
LWPOLYLINE
5
197
100
AcDbEntity
8
0
100
AcDbPolyline
90
4
70
1
43
0.0
10
946.25058570864053
20
21.10739387513064
10
946.25058570864076
20
29.107393875130754
10
930.25058570864064
20
29.107393875131038
10
930.25058570864053
20
21.107393875130924
0
LWPOLYLINE
5
198
100
AcDbEntity
8
0
100
AcDbPolyline
90
4
70
1
43
0.0
10
916.25058570864053
20
21.107393875130924
10
916.25058570864076
20
29.107393875131038
10
900.25058570864076
20
29.107393875131038
10
900.25058570864064
20
21.107393875130924
0
CIRCLE
5
199
100
AcDbEntity
8
0
100
AcDbCircle
10
3.6505857086402926
20
1837.1073938751308
30
0
40
2.1000000000000085
0
CIRCLE
5
200
100
AcDbEntity
8
0
100
AcDbCircle
10
33.650585708640293
20
1837.1073938751308
30
0
40
2.1000000000000085
0
LWPOLYLINE
5
201
100
AcDbEntity
8
0
100
AcDbPolyline
90
4
70
1
43
0.0
10
79.250919041973873
20
1762.107393875131
10
87.250919041973845
20
1762.107393875131
10
87.250919041973845
20
1778.107393875131
10
79.250919041973873
20
1778.107393875131
0
LWPOLYLINE
5
202
100
AcDbEntity
8
0
100
AcDbPolyline
90
4
70
1
43
0.0
10
79.250919041973873
20
1808.107393875131
10
79.250919041973873
20
1792.107393875131
10
87.250919041973845
20
1792.107393875131
10
87.250919041973845
20
1808.107393875131
0
LWPOLYLINE
5
203
100
AcDbEntity
8
0
100
AcDbPolyline
90
4
70
1
43
0.0
10
79.250919041973873
20
1202.107393875131
10
87.250919041973845
20
1202.107393875131
10
87.250919041973845
20
1218.107393875131
10
79.250919041973873
20
1218.107393875131
0
LWPOLYLINE
5
204
100
AcDbEntity
8
0
100
AcDbPolyline
90
4
70
1
43
0.0
10
79.250919041973873
20
1232.107393875131
10
87.250919041973845
20
1232.107393875131
10
87.250919041973845
20
1248.107393875131
10
79.250919041973873
20
1248.107393875131
0
CIRCLE
5
205
100
AcDbEntity
8
0
100
AcDbCircle
10
83.250919041973788
20
1785.1073938751313
30
0
40
2.5
0
CIRCLE
5
206
100
AcDbEntity
8
0
100
AcDbCircle
10
83.250919041973788
20
1225.1073938751313
30
0
40
2.5
0
LWPOLYLINE
5
207
100
AcDbEntity
8
0
100
AcDbPolyline
90
4
70
1
43
0.0
10
1089.2502523753071
20
1762.107393875131
10
1097.2502523753069
20
1762.107393875131
10
1097.2502523753069
20
1778.107393875131
10
1089.2502523753071
20
1778.107393875131
0
LWPOLYLINE
5
208
100
AcDbEntity
8
0
100
AcDbPolyline
90
4
70
1
43
0.0
10
1089.2502523753071
20
1232.107393875131
10
1097.2502523753069
20
1232.107393875131
10
1097.2502523753069
20
1248.107393875131
10
1089.2502523753071
20
1248.107393875131
0
LWPOLYLINE
5
209
100
AcDbEntity
8
0
100
AcDbPolyline
90
4
70
1
43
0.0
10
1089.2502523753071
20
1808.107393875131
10
1089.2502523753071
20
1792.107393875131
10
1097.2502523753069
20
1792.107393875131
10
1097.2502523753069
20
1808.107393875131
0
LWPOLYLINE
5
210
100
AcDbEntity
8
0
100
AcDbPolyline
90
4
70
1
43
0.0
10
1089.2502523753071
20
1202.107393875131
10
1097.2502523753069
20
1202.107393875131
10
1097.2502523753069
20
1218.107393875131
10
1089.2502523753071
20
1218.107393875131
0
CIRCLE
5
211
100
AcDbEntity
8
0
100
AcDbCircle
10
1093.2502523753069
20
1225.1073938751313
30
0
40
2.5
0
CIRCLE
5
212
100
AcDbEntity
8
0
100
AcDbCircle
10
1093.2502523753069
20
1785.1073938751313
30
0
40
2.5
0
LWPOLYLINE
5
213
100
AcDbEntity
8
0
100
AcDbPolyline
90
6
70
1
43
0.0
10
-10.749414291360743
20
-8.8926061248687915
42
-0.41421356237309509
10
-20.74941429136075
20
1.1073938751312085
10
-20.74941429136075
20
2122.357393875131
10
1127.250585708641
20
2122.357393875131
10
1127.250585708641
20
1.1073938751312102
42
-0.41421356237310619
10
1117.2505857086408
20
-8.8926061248688857
0
CIRCLE
5
214
100
AcDbEntity
8
0
100
AcDbCircle
10
253.25058570864053
20
313.10739387513109
30
0
40
2.5
0
CIRCLE
5
215
100
AcDbEntity
8
0
100
AcDbCircle
10
253.25058570864002
20
25.107393875130981
30
0
40
2.5
0
CIRCLE
5
216
100
AcDbEntity
8
0
100
AcDbCircle
10
414.58391904197362
20
105.10739387513127
30
0
40
2.5
0
LWPOLYLINE
5
217
100
AcDbEntity
8
0
100
AcDbPolyline
90
4
70
1
43
0.0
10
246.25058570863999
20
29.107393875131038
10
230.2505857086399
20
29.107393875130754
10
230.25058570863976
20
21.107393875130924
10
246.25058570863999
20
21.107393875130924
0
LWPOLYLINE
5
218
100
AcDbEntity
8
0
100
AcDbPolyline
90
4
70
1
43
0.0
10
246.25058570864047
20
309.10739387513104
10
246.25058570864047
20
317.10739387513115
10
230.25058570864053
20
317.10739387513115
10
230.25058570864053
20
309.10739387513104
0
LWPOLYLINE
5
219
100
AcDbEntity
8
0
100
AcDbPolyline
90
4
70
1
43
0.0
10
260.25058570864007
20
21.107393875130924
10
276.2505857086399
20
21.107393875130924
10
276.2505857086399
20
29.107393875131038
10
260.2505857086399
20
29.107393875131038
0
LWPOLYLINE
5
220
100
AcDbEntity
8
0
100
AcDbPolyline
90
4
70
1
43
0.0
10
260.25058570864053
20
309.10739387513104
10
276.25058570864047
20
309.10739387513104
10
276.25058570864053
20
317.10739387513115
10
260.25058570864053
20
317.10739387513115
0
LWPOLYLINE
5
221
100
AcDbEntity
8
0
100
AcDbPolyline
90
4
70
1
43
0.0
10
418.58391904197362
20
82.107393875131152
10
418.58391904197362
20
98.107393875131095
10
410.58391904197367
20
98.107393875131095
10
410.58391904197367
20
82.107393875131152
0
LWPOLYLINE
5
222
100
AcDbEntity
8
0
100
AcDbPolyline
90
4
70
1
43
0.0
10
410.58391904197367
20
128.10739387513109
10
410.58391904197367
20
112.10739387513115
10
418.58391904197362
20
112.10739387513115
10
418.58391904197362
20
128.10739387513109
0
CIRCLE
5
223
100
AcDbEntity
8
0
100
AcDbCircle
10
253.2505857086403
20
2137.107393875131
30
0
40
2.5
0
LWPOLYLINE
5
224
100
AcDbEntity
8
0
100
AcDbPolyline
90
4
70
1
43
0.0
10
930.25058570864053
20
2133.1073938751306
10
946.25058570864041
20
2133.1073938751306
10
946.25058570864041
20
2141.107393875131
10
930.2505857086403
20
2141.107393875131
0
LWPOLYLINE
5
225
100
AcDbEntity
8
0
100
AcDbPolyline
90
4
70
1
43
0.0
10
595.2505857086403
20
2133.1073938751306
10
611.2505857086403
20
2133.1073938751306
10
611.2505857086403
20
2141.107393875131
10
595.2505857086403
20
2141.107393875131
0
LWPOLYLINE
5
226
100
AcDbEntity
8
0
100
AcDbPolyline
90
4
70
1
43
0.0
10
246.25058570864036
20
2133.1073938751306
10
246.25058570864036
20
2141.107393875131
10
230.25058570864033
20
2141.107393875131
10
230.25058570864033
20
2133.1073938751306
0
CIRCLE
5
227
100
AcDbEntity
8
0
100
AcDbCircle
10
588.2505857086403
20
2137.107393875131
30
0
40
2.5
0
LWPOLYLINE
5
228
100
AcDbEntity
8
0
100
AcDbPolyline
90
4
70
1
43
0.0
10
916.25058570864041
20
2133.1073938751306
10
916.25058570864041
20
2141.107393875131
10
900.2505857086403
20
2141.107393875131
10
900.2505857086403
20
2133.1073938751306
0
LWPOLYLINE
5
229
100
AcDbEntity
8
0
100
AcDbPolyline
90
4
70
1
43
0.0
10
581.2505857086403
20
2133.1073938751306
10
581.2505857086403
20
2141.107393875131
10
565.2505857086403
20
2141.107393875131
10
565.2505857086403
20
2133.1073938751306
0
LWPOLYLINE
5
230
100
AcDbEntity
8
0
100
AcDbPolyline
90
4
70
1
43
0.0
10
276.2505857086403
20
2133.1073938751306
10
276.2505857086403
20
2141.107393875131
10
260.2505857086403
20
2141.107393875131
10
260.2505857086403
20
2133.1073938751306
0
CIRCLE
5
231
100
AcDbEntity
8
0
100
AcDbCircle
10
923.2505857086403
20
2137.107393875131
30
0
40
2.5
0
LWPOLYLINE
5
232
100
AcDbEntity
8
0
100
AcDbPolyline
90
4
70
1
43
0.0
10
1127.2505857086403
20
2147.357393875131
10
1127.2505857086403
20
2122.357393875131
10
-20.749414291360821
20
2122.357393875131
10
-20.749414291360893
20
2147.357393875131
0
ARC
5
233
100
AcDbEntity
8
0
100
AcDbCircle
10
236.34427298848863
20
2404.0270272417765
30
-1.7691393112100816e-43
40
3.1999999999999633
100
AcDbArc
50
-135.00000000000432
51
45.000000000001442
0
LINE
5
234
100
AcDbEntity
8
0
100
AcDbLine
10
234.08153128869168
20
2401.7642855419799
30
-4.3604973600728402e-44
11
95.6073480216196
21
2401.764285541979
31
-1.4210854715202004e-13
0
LINE
5
235
100
AcDbEntity
8
0
100
AcDbLine
10
95.6073480216196
20
2401.764285541979
30
-1.4210854715202004e-13
11
95.607348021619813
21
2306.2897689415736
31
-1.4210854715202004e-13
0
ARC
5
236
100
AcDbEntity
8
0
100
AcDbCircle
10
93.344606321822738
20
2304.027027241777
30
-1.4210854715202004e-13
40
3.2000000000001982
100
AcDbArc
50
-122.88081082547251
51
44.99999999999406
0
ARC
5
237
100
AcDbEntity
8
0
100
AcDbCircle
10
89.870089721416662
20
2304.0270272417765
30
-1.4210854715202004e-13
40
3.1999999999998128
100
AcDbArc
50
134.99999999999605
51
302.88081082547643
0
LINE
5
238
100
AcDbEntity
8
0
100
AcDbLine
10
87.607348021619913
20
2306.2897689415736
30
-1.4210854715202004e-13
11
87.607348021619629
21
2401.7642855419795
31
-1.4210854715202004e-13
0
LINE
5
239
100
AcDbEntity
8
0
100
AcDbLine
10
87.607348021619629
20
2401.7642855419795
30
-1.4210854715202004e-13
11
71.607014688286185
21
2401.764285541979
31
-1.4210854715202004e-13
0
LINE
5
240
100
AcDbEntity
8
0
100
AcDbLine
10
71.607014688286185
20
2401.764285541979
30
-1.4210854715202004e-13
11
71.607014688286796
21
2201.7642855419799
31
-1.4210854715202004e-13
0
LINE
5
241
100
AcDbEntity
8
0
100
AcDbLine
10
71.607014688286796
20
2201.7642855419799
30
-1.4210854715202004e-13
11
234.0815312886923
21
2201.7642855419804
31
-1.4210854715202004e-13
0
ARC
5
242
100
AcDbEntity
8
0
100
AcDbCircle
10
236.34427298848925
20
2199.5015438421833
30
-1.4210854715202001e-13
40
3.1999999999999384
100
AcDbArc
50
-44.99999999999568
51
134.99999999999858
0
LINE
5
243
100
AcDbEntity
8
0
100
AcDbLine
10
238.6070146882862
20
2197.2388021423867
30
-1.4210854715202004e-13
11
238.60701468828623
21
2193.7642855419804
31
-1.4210854715202004e-13
0
LINE
5
244
100
AcDbEntity
8
0
100
AcDbLine
10
238.60701468828623
20
2193.7642855419804
30
-1.4210854715202004e-13
11
254.60701468828617
21
2193.7642855419804
31
-1.4210854715202004e-13
0
LINE
5
245
100
AcDbEntity
8
0
100
AcDbLine
10
254.60701468828617
20
2193.7642855419804
30
-1.4210854715202004e-13
11
254.60701468828617
21
2197.2388021423867
31
-1.4210854715202004e-13
0
ARC
5
246
100
AcDbEntity
8
0
100
AcDbCircle
10
256.86975638808315
20
2199.5015438421833
30
-1.4210854715202004e-13
40
3.1999999999999633
100
AcDbArc
50
45.000000000001442
51
224.99999999999534
0
LINE
5
247
100
AcDbEntity
8
0
100
AcDbLine
10
259.13249808788009
20
2201.7642855419804
30
-1.4210854715202004e-13
11
260.10701468828637
21
2201.7642855419804
31
-1.4210854715202004e-13
0
LINE
5
248
100
AcDbEntity
8
0
100
AcDbLine
10
260.10701468828637
20
2201.7642855419804
30
-1.4210854715202004e-13
11
260.1070146882862
21
2253.7642855419799
31
-1.4210854715202004e-13
0
LINE
5
249
100
AcDbEntity
8
0
100
AcDbLine
10
260.1070146882862
20
2253.7642855419799
30
-1.4210854715202004e-13
11
263.10701468828643
21
2253.7642855419799
31
-1.4210854715202004e-13
0
LINE
5
250
100
AcDbEntity
8
0
100
AcDbLine
10
263.10701468828643
20
2253.7642855419799
30
-1.4210854715202004e-13
11
263.10701468828654
21
2201.7642855419804
31
-1.4210854715202004e-13
0
LINE
5
251
100
AcDbEntity
8
0
100
AcDbLine
10
263.10701468828654
20
2201.7642855419804
30
-1.4210854715202004e-13
11
264.08153128869225
21
2201.7642855419804
31
-1.4210854715202004e-13
0
ARC
5
252
100
AcDbEntity
8
0
100
AcDbCircle
10
266.34427298848919
20
2199.5015438421833
30
-1.4210854715202001e-13
40
3.1999999999999384
100
AcDbArc
50
-44.99999999999568
51
134.99999999999858
0
LINE
5
253
100
AcDbEntity
8
0
100
AcDbLine
10
268.60701468828614
20
2197.2388021423867
30
-1.4210854715202004e-13
11
268.60701468828609
21
2193.7642855419804
31
-1.4210854715202004e-13
0
LINE
5
254
100
AcDbEntity
8
0
100
AcDbLine
10
268.60701468828609
20
2193.7642855419804
30
-1.4210854715202004e-13
11
284.60701468828597
21
2193.7642855419804
31
-1.4210854715202004e-13
0
LINE
5
255
100
AcDbEntity
8
0
100
AcDbLine
10
284.60701468828597
20
2193.7642855419804
30
-1.4210854715202004e-13
11
284.60701468828603
21
2197.2388021423867
31
-1.4210854715202004e-13
0
ARC
5
256
100
AcDbEntity
8
0
100
AcDbCircle
10
286.86975638808298
20
2199.5015438421838
30
-7.7071415537864939e-44
40
3.1999999999999633
100
AcDbArc
50
44.999999999994962
51
225.00000000000142
0
LINE
5
257
100
AcDbEntity
8
0
100
AcDbLine
10
289.13249808787998
20
2201.7642855419804
30
-3.1265427875109353e-43
11
569.08153128869105
21
2201.7642855419817
31
-1.3692503041960086e-39
0
ARC
5
258
100
AcDbEntity
8
0
100
AcDbCircle
10
571.344272988488
20
2199.5015438421847
30
4.431606393427234e-43
40
3.1999999999999633
100
AcDbArc
50
-45
51
134.99999999999858
0
LINE
5
259
100
AcDbEntity
8
0
100
AcDbLine
10
573.60701468828506
20
2197.2388021423876
30
2.4987610754934135e-43
11
573.60701468828506
21
2193.7642855419817
31
-1.4210854715202004e-13
0
LINE
5
260
100
AcDbEntity
8
0
100
AcDbLine
10
573.60701468828506
20
2193.7642855419817
30
-1.4210854715202004e-13
11
589.60701468828495
21
2193.7642855419817
31
-1.4210854715202004e-13
0
LINE
5
261
100
AcDbEntity
8
0
100
AcDbLine
10
589.60701468828495
20
2193.7642855419817
30
-1.4210854715202004e-13
11
589.60701468828495
21
2197.2388021423876
31
-1.4210854715202004e-13
0
ARC
5
262
100
AcDbEntity
8
0
100
AcDbCircle
10
591.8697563880819
20
2199.5015438421847
30
-1.4210854715202004e-13
40
3.1999999999999633
100
AcDbArc
50
45.000000000001442
51
225.00000000000142
0
LINE
5
263
100
AcDbEntity
8
0
100
AcDbLine
10
594.13249808787884
20
2201.7642855419817
30
-1.4210854715202001e-13
11
595.10701468828518
21
2201.7642855419817
31
-4.7664288613320793e-42
0
LINE
5
264
100
AcDbEntity
8
0
100
AcDbLine
10
595.10701468828518
20
2201.7642855419817
30
-4.7664288613320793e-42
11
595.10701468828506
21
2253.7642855419817
31
0
0
LINE
5
265
100
AcDbEntity
8
0
100
AcDbLine
10
595.10701468828506
20
2253.7642855419817
30
0
11
598.10701468828518
21
2253.7642855419817
31
-1.4210854715202004e-13
0
LINE
5
266
100
AcDbEntity
8
0
100
AcDbLine
10
598.10701468828518
20
2253.7642855419817
30
-1.4210854715202004e-13
11
598.10701468828529
21
2201.7642855419817
31
-1.4210854715202004e-13
0
LINE
5
267
100
AcDbEntity
8
0
100
AcDbLine
10
598.10701468828529
20
2201.7642855419817
30
-1.4210854715202004e-13
11
599.08153128869105
21
2201.7642855419817
31
-4.7664288613290506e-42
0
ARC
5
268
100
AcDbEntity
8
0
100
AcDbCircle
10
601.34427298848789
20
2199.5015438421847
30
-1.4210854715202004e-13
40
3.2000000000000139
100
AcDbArc
50
-44.999999999994245
51
134.99999999999713
0
LINE
5
269
100
AcDbEntity
8
0
100
AcDbLine
10
603.60701468828495
20
2197.2388021423881
30
-1.4210854715202001e-13
11
603.60701468828483
21
2193.7642855419817
31
-1.4210854715202004e-13
0
LINE
5
270
100
AcDbEntity
8
0
100
AcDbLine
10
603.60701468828483
20
2193.7642855419817
30
-1.4210854715202004e-13
11
619.60701468828483
21
2193.7642855419817
31
-1.4210854715202004e-13
0
LINE
5
271
100
AcDbEntity
8
0
100
AcDbLine
10
619.60701468828483
20
2193.7642855419817
30
-1.4210854715202004e-13
11
619.60701468828483
21
2197.2388021423876
31
-1.4210854715202004e-13
0
ARC
5
272
100
AcDbEntity
8
0
100
AcDbCircle
10
621.86975638808178
20
2199.5015438421847
30
-1.4210854715202004e-13
40
3.1999999999999633
100
AcDbArc
50
45.000000000001442
51
225.00000000000142
0
LINE
5
273
100
AcDbEntity
8
0
100
AcDbLine
10
624.13249808787873
20
2201.7642855419817
30
-1.4210854715202006e-13
11
904.0815312886898
21
2201.7642855419826
31
-1.4210854715202004e-13
0
ARC
5
274
100
AcDbEntity
8
0
100
AcDbCircle
10
906.34427298848686
20
2199.5015438421856
30
-1.4210854715202004e-13
40
3.2000000000000139
100
AcDbArc
50
-45
51
135
0
LINE
5
275
100
AcDbEntity
8
0
100
AcDbLine
10
908.60701468828393
20
2197.2388021423885
30
-1.4210854715202004e-13
11
908.60701468828381
21
2193.7642855419826
31
-1.4210854715202004e-13
0
LINE
5
276
100
AcDbEntity
8
0
100
AcDbLine
10
908.60701468828381
20
2193.7642855419826
30
-1.4210854715202004e-13
11
924.6070146882837
21
2193.7642855419826
31
-1.4210854715202004e-13
0
LINE
5
277
100
AcDbEntity
8
0
100
AcDbLine
10
924.6070146882837
20
2193.7642855419826
30
-1.4210854715202004e-13
11
924.6070146882837
21
2197.2388021423885
31
0
0
ARC
5
278
100
AcDbEntity
8
0
100
AcDbCircle
10
926.86975638808065
20
2199.501543842186
30
-8.2326284779083003e-44
40
3.1999999999999136
100
AcDbArc
50
44.99999999999568
51
225.00000000000716
0
LINE
5
279
100
AcDbEntity
8
0
100
AcDbLine
10
929.13249808787759
20
2201.7642855419826
30
-1.6019300583255328e-43
11
930.10701468828393
21
2201.7642855419826
31
-4.7664288613319716e-42
0
LINE
5
280
100
AcDbEntity
8
0
100
AcDbLine
10
930.10701468828393
20
2201.7642855419826
30
-4.7664288613319716e-42
11
930.1070146882837
21
2253.7642855419826
31
0
0
LINE
5
281
100
AcDbEntity
8
0
100
AcDbLine
10
930.1070146882837
20
2253.7642855419826
30
0
11
933.10701468828393
21
2253.7642855419826
31
-1.4210854715202004e-13
0
LINE
5
282
100
AcDbEntity
8
0
100
AcDbLine
10
933.10701468828393
20
2253.7642855419826
30
-1.4210854715202004e-13
11
933.10701468828415
21
2201.7642855419826
31
-1.4210854715202004e-13
0
LINE
5
283
100
AcDbEntity
8
0
100
AcDbLine
10
933.10701468828415
20
2201.7642855419826
30
-1.4210854715202004e-13
11
934.0815312886898
21
2201.7642855419826
31
-4.766428861329192e-42
0
ARC
5
284
100
AcDbEntity
8
0
100
AcDbCircle
10
936.34427298848664
20
2199.501543842186
30
7.1816546296646875e-43
40
3.2000000000001143
100
AcDbArc
50
-44.999999999998572
51
135.0000000000029
0
LINE
5
285
100
AcDbEntity
8
0
100
AcDbLine
10
938.60701468828381
20
2197.238802142389
30
1.6019300583255326e-43
11
938.60701468828381
21
2193.7642855419831
31
-1.4210854715202004e-13
0
LINE
5
286
100
AcDbEntity
8
0
100
AcDbLine
10
938.60701468828381
20
2193.7642855419831
30
-1.4210854715202004e-13
11
954.6070146882837
21
2193.7642855419831
31
-1.4210854715202004e-13
0
LINE
5
287
100
AcDbEntity
8
0
100
AcDbLine
10
954.6070146882837
20
2193.7642855419831
30
-1.4210854715202004e-13
11
954.6070146882837
21
2197.238802142389
31
-1.4210854715202004e-13
0
ARC
5
288
100
AcDbEntity
8
0
100
AcDbCircle
10
956.86975638808065
20
2199.501543842186
30
-1.4210854715202004e-13
40
3.1999999999999136
100
AcDbArc
50
44.99999999999568
51
225.00000000000142
0
LINE
5
289
100
AcDbEntity
8
0
100
AcDbLine
10
959.13249808787759
20
2201.7642855419826
30
-1.4210854715202004e-13
11
1121.607014688283
21
2201.7642855419836
31
-1.4210854715202004e-13
0
LINE
5
290
100
AcDbEntity
8
0
100
AcDbLine
10
1121.607014688283
20
2201.7642855419836
30
-1.4210854715202004e-13
11
1121.6070146882826
21
2401.7642855419826
31
0
0
LINE
5
291
100
AcDbEntity
8
0
100
AcDbLine
10
1121.6070146882826
20
2401.7642855419826
30
0
11
1105.6066813549496
21
2401.7642855419826
31
-1.4210854715202004e-13
0
LINE
5
292
100
AcDbEntity
8
0
100
AcDbLine
10
1105.6066813549496
20
2401.7642855419826
30
-1.4210854715202004e-13
11
1105.6066813549498
21
2306.2897689415768
31
0
0
ARC
5
293
100
AcDbEntity
8
0
100
AcDbCircle
10
1103.3439396551528
20
2304.0270272417802
30
1.2506588794098992e-42
40
3.1999999999999407
100
AcDbArc
50
-122.8808108254786
51
44.999999999994245
0
ARC
5
294
100
AcDbEntity
8
0
100
AcDbCircle
10
1099.8694230547464
20
2304.0270272417797
30
0
40
3.2000000000000139
100
AcDbArc
50
134.99999999998559
51
302.88081082548302
0
LINE
5
295
100
AcDbEntity
8
0
100
AcDbLine
10
1097.6066813549501
20
2306.2897689415772
30
0
11
1097.6066813549496
21
2401.7642855419826
31
0
0
LINE
5
296
100
AcDbEntity
8
0
100
AcDbLine
10
1097.6066813549496
20
2401.7642855419826
30
0
11
959.13249808787691
21
2401.7642855419822
31
6.7728691681434065e-40
0
ARC
5
297
100
AcDbEntity
8
0
100
AcDbCircle
10
956.86975638808008
20
2404.0270272417793
30
-1.4210854715202004e-13
40
3.2000000000000139
100
AcDbArc
50
135
51
314.9999999999971
0
LINE
5
298
100
AcDbEntity
8
0
100
AcDbLine
10
954.60701468828302
20
2406.2897689415763
30
-1.4210854715202004e-13
11
954.60701468828302
21
2409.7642855419822
31
0
0
LINE
5
299
100
AcDbEntity
8
0
100
AcDbLine
10
954.60701468828302
20
2409.7642855419822
30
0
11
938.60701468828313
21
2409.7642855419822
31
7.825711922148766e-41
0
LINE
5
300
100
AcDbEntity
8
0
100
AcDbLine
10
938.60701468828313
20
2409.7642855419822
30
7.825711922148766e-41
11
938.60701468828313
21
2406.2897689415763
31
0
0
ARC
5
301
100
AcDbEntity
8
0
100
AcDbCircle
10
936.34427298848607
20
2404.0270272417793
30
-1.9267853884466235e-44
40
3.1999999999999136
100
AcDbArc
50
-134.99999999999858
51
45
0
LINE
5
302
100
AcDbEntity
8
0
100
AcDbLine
10
934.08153128868912
20
2401.7642855419822
30
-3.4636663429049565e-44
11
933.10701468828358
21
2401.7642855419822
31
-1.4210854715202004e-13
0
LINE
5
303
100
AcDbEntity
8
0
100
AcDbLine
10
933.10701468828358
20
2401.7642855419822
30
-1.4210854715202004e-13
11
933.1070146882837
21
2349.7642855419822
31
0
0
LINE
5
304
100
AcDbEntity
8
0
100
AcDbLine
10
933.1070146882837
20
2349.7642855419822
30
0
11
930.10701468828358
21
2349.7642855419822
31
1.4673209854029824e-41
0
LINE
5
305
100
AcDbEntity
8
0
100
AcDbLine
10
930.10701468828358
20
2349.7642855419822
30
1.4673209854029824e-41
11
930.10701468828347
21
2401.7642855419822
31
0
0
LINE
5
306
100
AcDbEntity
8
0
100
AcDbLine
10
930.10701468828347
20
2401.7642855419822
30
0
11
929.13249808787714
21
2401.7642855419822
31
4.7664288613319716e-42
0
ARC
5
307
100
AcDbEntity
8
0
100
AcDbCircle
10
926.86975638808008
20
2404.0270272417793
30
0
40
3.2000000000000139
100
AcDbArc
50
135.0000000000058
51
315
0
LINE
5
308
100
AcDbEntity
8
0
100
AcDbLine
10
924.60701468828302
20
2406.2897689415759
30
0
11
924.60701468828324
21
2409.7642855419822
31
0
0
LINE
5
309
100
AcDbEntity
8
0
100
AcDbLine
10
924.60701468828324
20
2409.7642855419822
30
0
11
908.60701468828324
21
2409.7642855419822
31
7.8257119221487823e-41
0
LINE
5
310
100
AcDbEntity
8
0
100
AcDbLine
10
908.60701468828324
20
2409.7642855419822
30
7.8257119221487823e-41
11
908.60701468828324
21
2406.2897689415759
31
-1.4210854715202004e-13
0
ARC
5
311
100
AcDbEntity
8
0
100
AcDbCircle
10
906.34427298848618
20
2404.0270272417793
30
-1.4210854715202004e-13
40
3.1999999999999136
100
AcDbArc
50
-134.99999999999713
51
44.999999999994245
0
LINE
5
312
100
AcDbEntity
8
0
100
AcDbLine
10
904.08153128868935
20
2401.7642855419822
30
-1.4210854715202004e-13
11
774.27368135495044
21
2401.7642855419817
31
-1.4210854715202004e-13
0
LINE
5
313
100
AcDbEntity
8
0
100
AcDbLine
10
774.27368135495044
20
2401.7642855419817
30
-1.4210854715202004e-13
11
774.27368135495067
21
2306.2897689415759
31
-1.4210854715202004e-13
0
ARC
5
314
100
AcDbEntity
8
0
100
AcDbCircle
10
772.01093965515372
20
2304.0270272417788
30
-1.4210854715202004e-13
40
3.1999999999999407
100
AcDbArc
50
-122.88081082547689
51
45.000000000001442
0
ARC
5
315
100
AcDbEntity
8
0
100
AcDbCircle
10
768.53642305474762
20
2304.0270272417788
30
-1.4210854715202004e-13
40
3.2000000000002151
100
AcDbArc
50
134.99999999999858
51
302.88081082547689
0
LINE
5
316
100
AcDbEntity
8
0
100
AcDbLine
10
766.27368135495067
20
2306.2897689415759
30
-1.4210854715202004e-13
11
766.27368135495033
21
2401.7642855419817
31
0
0
LINE
5
317
100
AcDbEntity
8
0
100
AcDbLine
10
766.27368135495033
20
2401.7642855419817
30
0
11
624.13249808787805
21
2401.7642855419813
31
-1.4210854715202004e-13
0
ARC
5
318
100
AcDbEntity
8
0
100
AcDbCircle
10
621.86975638808121
20
2404.0270272417779
30
-1.4210854715202004e-13
40
3.1999999999999633
100
AcDbArc
50
134.99999999999858
51
315.0000000000029
0
LINE
5
319
100
AcDbEntity
8
0
100
AcDbLine
10
619.60701468828427
20
2406.2897689415749
30
-1.4210854715202004e-13
11
619.60701468828427
21
2409.7642855419808
31
-1.4210854715202004e-13
0
LINE
5
320
100
AcDbEntity
8
0
100
AcDbLine
10
619.60701468828427
20
2409.7642855419808
30
-1.4210854715202004e-13
11
603.60701468828427
21
2409.7642855419813
31
-1.4210854715202004e-13
0
LINE
5
321
100
AcDbEntity
8
0
100
AcDbLine
10
603.60701468828427
20
2409.7642855419813
30
-1.4210854715202004e-13
11
603.60701468828427
21
2406.2897689415749
31
0
0
ARC
5
322
100
AcDbEntity
8
0
100
AcDbCircle
10
601.34427298848732
20
2404.0270272417779
30
-1.4210854715202004e-13
40
3.1999999999999633
100
AcDbArc
50
-135.00000000000432
51
45.000000000001442
0
LINE
5
323
100
AcDbEntity
8
0
100
AcDbLine
10
599.08153128869037
20
2401.7642855419813
30
-1.4210854715202004e-13
11
598.10701468828472
21
2401.7642855419813
31
-1.4210854715202004e-13
0
LINE
5
324
100
AcDbEntity
8
0
100
AcDbLine
10
598.10701468828472
20
2401.7642855419813
30
-1.4210854715202004e-13
11
598.10701468828483
21
2349.7642855419813
31
-1.4210854715202004e-13
0
LINE
5
325
100
AcDbEntity
8
0
100
AcDbLine
10
598.10701468828483
20
2349.7642855419813
30
-1.4210854715202004e-13
11
595.10701468828472
21
2349.7642855419813
31
1.4673209854029824e-41
0
LINE
5
326
100
AcDbEntity
8
0
100
AcDbLine
10
595.10701468828472
20
2349.7642855419813
30
1.4673209854029824e-41
11
595.10701468828461
21
2401.7642855419813
31
0
0
LINE
5
327
100
AcDbEntity
8
0
100
AcDbLine
10
595.10701468828461
20
2401.7642855419813
30
0
11
594.13249808787828
21
2401.7642855419813
31
-1.4210854715202004e-13
0
ARC
5
328
100
AcDbEntity
8
0
100
AcDbCircle
10
591.86975638808133
20
2404.0270272417779
30
-1.7516230804060213e-45
40
3.2000000000000139
100
AcDbArc
50
134.99999999999858
51
315.00000000000432
0
LINE
5
329
100
AcDbEntity
8
0
100
AcDbLine
10
589.60701468828438
20
2406.2897689415749
30
-2.0194839173657906e-29
11
589.60701468828438
21
2409.7642855419808
31
0
0
LINE
5
330
100
AcDbEntity
8
0
100
AcDbLine
10
589.60701468828438
20
2409.7642855419808
30
0
11
573.60701468828438
21
2409.7642855419808
31
7.825711922148766e-41
0
LINE
5
331
100
AcDbEntity
8
0
100
AcDbLine
10
573.60701468828438
20
2409.7642855419808
30
7.825711922148766e-41
11
573.60701468828438
21
2406.2897689415749
31
0
0
ARC
5
332
100
AcDbEntity
8
0
100
AcDbCircle
10
571.34427298848755
20
2404.0270272417779
30
3.8013607780354379e-43
40
3.1999999999999633
100
AcDbArc
50
-135.0000000000058
51
45.000000000002878
0
LINE
5
333
100
AcDbEntity
8
0
100
AcDbLine
10
569.08153128869048
20
2401.7642855419813
30
-2.0194839173657774e-29
11
426.94034802161821
21
2401.7642855419804
31
6.9522247032591461e-40
0
LINE
5
334
100
AcDbEntity
8
0
100
AcDbLine
10
426.94034802161821
20
2401.7642855419804
30
6.9522247032591461e-40
11
426.9403480216186
21
2306.2897689415745
31
-1.4210854715202004e-13
0
ARC
5
335
100
AcDbEntity
8
0
100
AcDbCircle
10
424.67760632182171
20
2304.0270272417779
30
-1.4210854715202004e-13
40
3.1999999999999789
100
AcDbArc
50
-122.88081082547774
51
44.999999999996398
0
ARC
5
336
100
AcDbEntity
8
0
100
AcDbCircle
10
421.20308972141544
20
2304.0270272417779
30
-1.4210854715202004e-13
40
3.2000000000001143
100
AcDbArc
50
134.99999999999787
51
302.88081082547865
0
LINE
5
337
100
AcDbEntity
8
0
100
AcDbLine
10
418.94034802161855
20
2306.2897689415749
30
-1.4210854715202004e-13
11
418.94034802161821
21
2401.7642855419804
31
-1.4210854715202004e-13
0
LINE
5
338
100
AcDbEntity
8
0
100
AcDbLine
10
418.94034802161821
20
2401.7642855419804
30
-1.4210854715202004e-13
11
289.13249808787941
21
2401.7642855419799
31
-1.4210854715202004e-13
0
ARC
5
339
100
AcDbEntity
8
0
100
AcDbCircle
10
286.86975638808241
20
2404.027027241777
30
0
40
3.1999999999999886
100
AcDbArc
50
135.00000000000503
51
314.99999999999932
0
LINE
5
340
100
AcDbEntity
8
0
100
AcDbLine
10
284.6070146882854
20
2406.2897689415736
30
0
11
284.6070146882854
21
2409.7642855419799
31
0
0
LINE
5
341
100
AcDbEntity
8
0
100
AcDbLine
10
284.6070146882854
20
2409.7642855419799
30
0
11
268.60701468828546
21
2409.7642855419799
31
7.8257119221487486e-41
0
LINE
5
342
100
AcDbEntity
8
0
100
AcDbLine
10
268.60701468828546
20
2409.7642855419799
30
7.8257119221487486e-41
11
268.60701468828546
21
2406.2897689415736
31
-1.4210854715202004e-13
0
ARC
5
343
100
AcDbEntity
8
0
100
AcDbCircle
10
266.34427298848857
20
2404.027027241777
30
-1.4210854715202004e-13
40
3.1999999999999633
100
AcDbArc
50
-134.99999999999858
51
44.999999999996398
0
LINE
5
344
100
AcDbEntity
8
0
100
AcDbLine
10
264.08153128869162
20
2401.7642855419799
30
-1.4210854715202004e-13
11
263.10701468828597
21
2401.7642855419799
31
-1.4210854715202004e-13
0
LINE
5
345
100
AcDbEntity
8
0
100
AcDbLine
10
263.10701468828597
20
2401.7642855419799
30
-1.4210854715202004e-13
11
263.10701468828609
21
2349.7642855419799
31
-1.4210854715202004e-13
0
LINE
5
346
100
AcDbEntity
8
0
100
AcDbLine
10
263.10701468828609
20
2349.7642855419799
30
-1.4210854715202004e-13
11
260.10701468828591
21
2349.7642855419799
31
-1.4210854715202004e-13
0
LINE
5
347
100
AcDbEntity
8
0
100
AcDbLine
10
260.10701468828591
20
2349.7642855419799
30
-1.4210854715202004e-13
11
260.1070146882858
21
2401.7642855419799
31
-1.4210854715202004e-13
0
LINE
5
348
100
AcDbEntity
8
0
100
AcDbLine
10
260.1070146882858
20
2401.7642855419799
30
-1.4210854715202004e-13
11
259.13249808787953
21
2401.7642855419799
31
-1.4210854715202004e-13
0
ARC
5
349
100
AcDbEntity
8
0
100
AcDbCircle
10
256.86975638808246
20
2404.027027241777
30
-1.4210854715202004e-13
40
3.1999999999999633
100
AcDbArc
50
135.00000000000432
51
315
0
LINE
5
350
100
AcDbEntity
8
0
100
AcDbLine
10
254.60701468828552
20
2406.2897689415736
30
-1.4210854715202004e-13
11
254.60701468828552
21
2409.7642855419799
31
0
0
LINE
5
351
100
AcDbEntity
8
0
100
AcDbLine
10
254.60701468828552
20
2409.7642855419799
30
0
11
238.60701468828557
21
2409.7642855419799
31
7.825711922148766e-41
0
LINE
5
352
100
AcDbEntity
8
0
100
AcDbLine
10
238.60701468828557
20
2409.7642855419799
30
7.825711922148766e-41
11
238.60701468828557
21
2406.2897689415736
31
-3.0774973412595632e-43
0
ARC
5
353
100
AcDbEntity
8
0
100
AcDbCircle
10
236.34427298848863
20
2404.027027241777
30
0
40
3.1999999999999633
100
AcDbArc
50
-135.00000000000432
51
45.000000000001442
0
LINE
5
354
100
AcDbEntity
8
0
100
AcDbLine
10
238.60701468828557
20
2406.289768941574
30
-7.9478214287443766e-44
11
238.60701468828557
21
2409.7642855419799
31
0
0
LINE
5
355
100
AcDbEntity
8
0
100
AcDbLine
10
238.60701468828557
20
2409.7642855419799
30
0
11
254.60701468828552
21
2409.7642855419799
31
-7.825711922148766e-41
0
LINE
5
356
100
AcDbEntity
8
0
100
AcDbLine
10
254.60701468828552
20
2409.7642855419799
30
-7.825711922148766e-41
11
254.60701468828552
21
2406.289768941574
31
-1.4210854715202004e-13
0
ARC
5
357
100
AcDbEntity
8
0
100
AcDbCircle
10
256.86975638808246
20
2404.027027241777
30
-1.4210854715202004e-13
40
3.1999999999999633
100
AcDbArc
50
134.99999999999858
51
315.00000000000506
0
LINE
5
358
100
AcDbEntity
8
0
100
AcDbLine
10
259.13249808787947
20
2401.7642855419804
30
-1.4210854715202001e-13
11
264.08153128869168
21
2401.7642855419804
31
-1.4210854715202004e-13
0
ARC
5
359
100
AcDbEntity
8
0
100
AcDbCircle
10
266.34427298848857
20
2404.027027241777
30
-1.4210854715202004e-13
40
3.1999999999999136
100
AcDbArc
50
-135.00000000000361
51
45.000000000001442
0
LINE
5
360
100
AcDbEntity
8
0
100
AcDbLine
10
268.60701468828552
20
2406.289768941574
30
-1.4210854715202004e-13
11
268.60701468828546
21
2409.7642855419799
31
-1.4210854715202004e-13
0
LINE
5
361
100
AcDbEntity
8
0
100
AcDbLine
10
268.60701468828546
20
2409.7642855419799
30
-1.4210854715202004e-13
11
284.60701468828535
21
2409.7642855419799
31
-1.4210854715202004e-13
0
LINE
5
362
100
AcDbEntity
8
0
100
AcDbLine
10
284.60701468828535
20
2409.7642855419799
30
-1.4210854715202004e-13
11
284.6070146882854
21
2406.2897689415745
31
0
0
ARC
5
363
100
AcDbEntity
8
0
100
AcDbCircle
10
286.86975638808241
20
2404.027027241777
30
0
40
3.2000000000001894
100
AcDbArc
50
134.99999999999355
51
315.00000000000506
0
LINE
5
364
100
AcDbEntity
8
0
100
AcDbLine
10
289.13249808787941
20
2401.7642855419804
30
2.0194839173657923e-29
11
418.94034802161832
21
2401.7642855419808
31
-1.4210854715202006e-13
0
LINE
5
365
100
AcDbEntity
8
0
100
AcDbLine
10
418.94034802161832
20
2401.7642855419808
30
-1.4210854715202006e-13
11
418.9403480216186
21
2306.2897689415749
31
-1.4210854715202004e-13
0
ARC
5
366
100
AcDbEntity
8
0
100
AcDbCircle
10
421.20308972141561
20
2304.0270272417779
30
-1.4210854715202004e-13
40
3.1999999999999633
100
AcDbArc
50
134.99999999999929
51
302.88081082547689
0
ARC
5
367
100
AcDbEntity
8
0
100
AcDbCircle
10
424.6776063218216
20
2304.0270272417779
30
-1.4210854715202004e-13
40
3.1999999999999016
100
AcDbArc
50
-122.88081082547519
51
45.000000000000718
0
LINE
5
368
100
AcDbEntity
8
0
100
AcDbLine
10
426.9403480216186
20
2306.2897689415749
30
-1.4210854715202006e-13
11
426.94034802161821
21
2401.7642855419808
31
-1.4210854715202004e-13
0
LINE
5
369
100
AcDbEntity
8
0
100
AcDbLine
10
426.94034802161821
20
2401.7642855419808
30
-1.4210854715202004e-13
11
569.08153128869048
21
2401.7642855419813
31
-1.4210854715202001e-13
0
ARC
5
370
100
AcDbEntity
8
0
100
AcDbCircle
10
571.34427298848755
20
2404.0270272417783
30
0
40
3.1999999999999633
100
AcDbArc
50
-135
51
44.99999999999568
0
LINE
5
371
100
AcDbEntity
8
0
100
AcDbLine
10
573.60701468828449
20
2406.2897689415749
30
0
11
573.60701468828438
21
2409.7642855419813
31
0
0
LINE
5
372
100
AcDbEntity
8
0
100
AcDbLine
10
573.60701468828438
20
2409.7642855419813
30
0
11
589.60701468828438
21
2409.7642855419813
31
-7.825711922148766e-41
0
LINE
5
373
100
AcDbEntity
8
0
100
AcDbLine
10
589.60701468828438
20
2409.7642855419813
30
-7.825711922148766e-41
11
589.60701468828438
21
2406.2897689415754
31
0
0
ARC
5
374
100
AcDbEntity
8
0
100
AcDbCircle
10
591.86975638808133
20
2404.0270272417783
30
0
40
3.2000000000001645
100
AcDbArc
50
134.99999999999858
51
314.99999999999858
0
LINE
5
375
100
AcDbEntity
8
0
100
AcDbLine
10
594.13249808787828
20
2401.7642855419813
30
0
11
599.08153128869048
21
2401.7642855419813
31
-1.4210854715202004e-13
0
ARC
5
376
100
AcDbEntity
8
0
100
AcDbCircle
10
601.34427298848732
20
2404.0270272417783
30
-1.4210854715202004e-13
40
3.1999999999999136
100
AcDbArc
50
-134.99999999999713
51
44.99999999999568
0
LINE
5
377
100
AcDbEntity
8
0
100
AcDbLine
10
603.60701468828427
20
2406.2897689415749
30
-1.4210854715202006e-13
11
603.60701468828427
21
2409.7642855419817
31
0
0
LINE
5
378
100
AcDbEntity
8
0
100
AcDbLine
10
603.60701468828427
20
2409.7642855419817
30
0
11
619.60701468828427
21
2409.7642855419817
31
-7.825711922148766e-41
0
LINE
5
379
100
AcDbEntity
8
0
100
AcDbLine
10
619.60701468828427
20
2409.7642855419817
30
-7.825711922148766e-41
11
619.60701468828427
21
2406.2897689415754
31
-1.4210854715202004e-13
0
ARC
5
380
100
AcDbEntity
8
0
100
AcDbCircle
10
621.86975638808121
20
2404.0270272417783
30
-1.4210854715202004e-13
40
3.1999999999999633
100
AcDbArc
50
134.99999999999858
51
315.00000000000432
0
LINE
5
381
100
AcDbEntity
8
0
100
AcDbLine
10
624.13249808787816
20
2401.7642855419817
30
-1.4210854715202004e-13
11
766.27368135495044
21
2401.7642855419817
31
-1.4210854715202006e-13
0
LINE
5
382
100
AcDbEntity
8
0
100
AcDbLine
10
766.27368135495044
20
2401.7642855419817
30
-1.4210854715202006e-13
11
766.27368135495078
21
2306.2897689415759
31
-1.4210854715202004e-13
0
ARC
5
383
100
AcDbEntity
8
0
100
AcDbCircle
10
768.53642305474762
20
2304.0270272417793
30
-1.4210854715202004e-13
40
3.1999999999999136
100
AcDbArc
50
135.0000000000029
51
302.88081082547689
0
ARC
5
384
100
AcDbEntity
8
0
100
AcDbCircle
10
772.01093965515372
20
2304.0270272417793
30
-1.4210854715202004e-13
40
3.1999999999999407
100
AcDbArc
50
-122.88081082547689
51
44.99999999999568
0
LINE
5
385
100
AcDbEntity
8
0
100
AcDbLine
10
774.27368135495067
20
2306.2897689415759
30
-1.4210854715202006e-13
11
774.27368135495044
21
2401.7642855419822
31
-1.4210854715202004e-13
0
LINE
5
386
100
AcDbEntity
8
0
100
AcDbLine
10
774.27368135495044
20
2401.7642855419822
30
-1.4210854715202004e-13
11
904.08153128868946
21
2401.7642855419826
31
-1.4210854715202001e-13
0
ARC
5
387
100
AcDbEntity
8
0
100
AcDbCircle
10
906.34427298848641
20
2404.0270272417793
30
-1.4210854715202004e-13
40
3.1999999999999136
100
AcDbArc
50
-135.00000000000432
51
45.000000000002878
0
LINE
5
388
100
AcDbEntity
8
0
100
AcDbLine
10
908.60701468828324
20
2406.2897689415763
30
-1.4210854715202004e-13
11
908.60701468828324
21
2409.7642855419822
31
-1.4210854715202004e-13
0
LINE
5
389
100
AcDbEntity
8
0
100
AcDbLine
10
908.60701468828324
20
2409.7642855419822
30
-1.4210854715202004e-13
11
924.60701468828324
21
2409.7642855419826
31
-1.4210854715202004e-13
0
LINE
5
390
100
AcDbEntity
8
0
100
AcDbLine
10
924.60701468828324
20
2409.7642855419826
30
-1.4210854715202004e-13
11
924.60701468828324
21
2406.2897689415768
31
0
0
ARC
5
391
100
AcDbEntity
8
0
100
AcDbCircle
10
926.86975638808008
20
2404.0270272417793
30
0
40
3.2000000000001143
100
AcDbArc
50
134.99999999999139
51
315.0000000000029
0
LINE
5
392
100
AcDbEntity
8
0
100
AcDbLine
10
929.13249808787691
20
2401.7642855419826
30
2.0194839173657923e-29
11
934.08153128868912
21
2401.7642855419826
31
-2.4206067576690989e-41
0
ARC
5
393
100
AcDbEntity
8
0
100
AcDbCircle
10
936.34427298848607
20
2404.0270272417797
30
0
40
3.2000000000001143
100
AcDbArc
50
-134.99999999999858
51
45.000000000001442
0
LINE
5
394
100
AcDbEntity
8
0
100
AcDbLine
10
938.60701468828302
20
2406.2897689415768
30
0
11
938.60701468828313
21
2409.7642855419826
31
0
0
LINE
5
395
100
AcDbEntity
8
0
100
AcDbLine
10
938.60701468828313
20
2409.7642855419826
30
0
11
954.60701468828302
21
2409.7642855419826
31
-7.825711922148766e-41
0
LINE
5
396
100
AcDbEntity
8
0
100
AcDbLine
10
954.60701468828302
20
2409.7642855419826
30
-7.825711922148766e-41
11
954.60701468828302
21
2406.2897689415768
31
0
0
ARC
5
397
100
AcDbEntity
8
0
100
AcDbCircle
10
956.86975638808008
20
2404.0270272417797
30
-1.4210854715202004e-13
40
3.2000000000000139
100
AcDbArc
50
135
51
314.9999999999971
0
LINE
5
398
100
AcDbEntity
8
0
100
AcDbLine
10
959.13249808787691
20
2401.7642855419826
30
-1.4210854715202001e-13
11
1097.6066813549494
21
2401.7642855419836
31
-1.4210854715202004e-13
0
LINE
5
399
100
AcDbEntity
8
0
100
AcDbLine
10
1097.6066813549494
20
2401.7642855419836
30
-1.4210854715202004e-13
11
1097.6066813549498
21
2306.2897689415777
31
0
0
ARC
5
400
100
AcDbEntity
8
0
100
AcDbCircle
10
1099.8694230547467
20
2304.0270272417802
30
0
40
3.2000000000000139
100
AcDbArc
50
134.99999999999139
51
302.88081082547518
0
ARC
5
401
100
AcDbEntity
8
0
100
AcDbCircle
10
1103.3439396551526
20
2304.0270272417806
30
0
40
3.2000000000001796
100
AcDbArc
50
-122.88081082547076
51
45
0
LINE
5
402
100
AcDbEntity
8
0
100
AcDbLine
10
1105.6066813549496
20
2306.2897689415777
30
-1.9744756342101403e-29
11
1105.6066813549496
21
2401.7642855419831
31
0
0
LINE
5
403
100
AcDbEntity
8
0
100
AcDbLine
10
1105.6066813549496
20
2401.7642855419831
30
0
11
1121.6070146882826
21
2401.7642855419836
31
-7.8258749578137452e-41
0
LINE
5
404
100
AcDbEntity
8
0
100
AcDbLine
10
1121.6070146882826
20
2401.7642855419836
30
-7.8258749578137452e-41
11
1121.607014688283
21
2201.764285541984
31
-1.4210854715202004e-13
0
LINE
5
405
100
AcDbEntity
8
0
100
AcDbLine
10
1121.607014688283
20
2201.764285541984
30
-1.4210854715202004e-13
11
959.13249808787759
21
2201.7642855419831
31
7.9467422600322115e-40
0
ARC
5
406
100
AcDbEntity
8
0
100
AcDbCircle
10
956.86975638808065
20
2199.501543842186
30
-1.4210854715202004e-13
40
3.1999999999999136
100
AcDbArc
50
45.000000000001442
51
224.99999999999568
0
LINE
5
407
100
AcDbEntity
8
0
100
AcDbLine
10
954.6070146882837
20
2197.2388021423894
30
-1.4210854715202004e-13
11
954.6070146882837
21
2193.7642855419831
31
-1.4210854715202004e-13
0
LINE
5
408
100
AcDbEntity
8
0
100
AcDbLine
10
954.6070146882837
20
2193.7642855419831
30
-1.4210854715202004e-13
11
938.60701468828381
21
2193.7642855419831
31
-1.4210854715202004e-13
0
LINE
5
409
100
AcDbEntity
8
0
100
AcDbLine
10
938.60701468828381
20
2193.7642855419831
30
-1.4210854715202004e-13
11
938.60701468828381
21
2197.2388021423894
31
-1.4210854715202004e-13
0
ARC
5
410
100
AcDbEntity
8
0
100
AcDbCircle
10
936.34427298848675
20
2199.501543842186
30
0
40
3.2000000000000139
100
AcDbArc
50
-44.999999999994245
51
134.99999999999713
0
LINE
5
411
100
AcDbEntity
8
0
100
AcDbLine
10
934.08153128868992
20
2201.7642855419831
30
0
11
929.13249808787771
21
2201.7642855419831
31
2.4206067576690989e-41
0
ARC
5
412
100
AcDbEntity
8
0
100
AcDbCircle
10
926.86975638808065
20
2199.501543842186
30
0
40
3.2000000000000139
100
AcDbArc
50
45
51
224.99999999999568
0
LINE
5
413
100
AcDbEntity
8
0
100
AcDbLine
10
924.6070146882837
20
2197.2388021423894
30
-1.601930058325533e-43
11
924.6070146882837
21
2193.7642855419831
31
-1.4210854715202004e-13
0
LINE
5
414
100
AcDbEntity
8
0
100
AcDbLine
10
924.6070146882837
20
2193.7642855419831
30
-1.4210854715202004e-13
11
908.60701468828381
21
2193.7642855419831
31
7.8257119221487823e-41
0
LINE
5
415
100
AcDbEntity
8
0
100
AcDbLine
10
908.60701468828381
20
2193.7642855419831
30
7.8257119221487823e-41
11
908.60701468828381
21
2197.238802142389
31
-1.4210854715202004e-13
0
ARC
5
416
100
AcDbEntity
8
0
100
AcDbCircle
10
906.34427298848686
20
2199.501543842186
30
-1.4210854715202004e-13
40
3.2000000000001143
100
AcDbArc
50
-45.000000000001421
51
134.99999999999713
0
LINE
5
417
100
AcDbEntity
8
0
100
AcDbLine
10
904.08153128869003
20
2201.7642855419831
30
-1.4210854715202004e-13
11
624.13249808787884
21
2201.7642855419817
31
-1.4210854715202004e-13
0
ARC
5
418
100
AcDbEntity
8
0
100
AcDbCircle
10
621.8697563880819
20
2199.5015438421851
30
-1.4210854715202004e-13
40
3.1999999999999633
100
AcDbArc
50
44.99999999999568
51
225
0
LINE
5
419
100
AcDbEntity
8
0
100
AcDbLine
10
619.60701468828483
20
2197.2388021423881
30
-1.4210854715202004e-13
11
619.60701468828483
21
2193.7642855419822
31
-1.4210854715202004e-13
0
LINE
5
420
100
AcDbEntity
8
0
100
AcDbLine
10
619.60701468828483
20
2193.7642855419822
30
-1.4210854715202004e-13
11
603.60701468828495
21
2193.7642855419822
31
-1.4210854715202004e-13
0
LINE
5
421
100
AcDbEntity
8
0
100
AcDbLine
10
603.60701468828495
20
2193.7642855419822
30
-1.4210854715202004e-13
11
603.60701468828495
21
2197.2388021423881
31
-1.4210854715202004e-13
0
ARC
5
422
100
AcDbEntity
8
0
100
AcDbCircle
10
601.344272988488
20
2199.5015438421851
30
-1.4210854715202004e-13
40
3.2000000000001645
100
AcDbArc
50
-45.000000000001421
51
135.00000000000432
0
LINE
5
423
100
AcDbEntity
8
0
100
AcDbLine
10
599.08153128869105
20
2201.7642855419817
30
-1.4210854715202004e-13
11
594.13249808787884
21
2201.7642855419817
31
2.4206067576690953e-41
0
ARC
5
424
100
AcDbEntity
8
0
100
AcDbCircle
10
591.8697563880819
20
2199.5015438421851
30
-1.4210854715202004e-13
40
3.1999999999999633
100
AcDbArc
50
44.99999999999568
51
225.00000000000142
0
LINE
5
425
100
AcDbEntity
8
0
100
AcDbLine
10
589.60701468828495
20
2197.2388021423881
30
-1.4210854715202004e-13
11
589.60701468828495
21
2193.7642855419817
31
-1.4210854715202004e-13
0
LINE
5
426
100
AcDbEntity
8
0
100
AcDbLine
10
589.60701468828495
20
2193.7642855419817
30
-1.4210854715202004e-13
11
573.60701468828506
21
2193.7642855419817
31
-1.4210854715202004e-13
0
LINE
5
427
100
AcDbEntity
8
0
100
AcDbLine
10
573.60701468828506
20
2193.7642855419817
30
-1.4210854715202004e-13
11
573.60701468828506
21
2197.2388021423881
31
-1.4210854715202004e-13
0
ARC
5
428
100
AcDbEntity
8
0
100
AcDbCircle
10
571.344272988488
20
2199.5015438421847
30
0
40
3.1999999999999633
100
AcDbArc
50
-44.999999999994245
51
134.99999999999858
0
LINE
5
429
100
AcDbEntity
8
0
100
AcDbLine
10
569.08153128869105
20
2201.7642855419817
30
0
11
289.13249808787998
21
2201.7642855419808
31
1.3692503041960086e-39
0
ARC
5
430
100
AcDbEntity
8
0
100
AcDbCircle
10
286.86975638808303
20
2199.5015438421838
30
0
40
3.1999999999999633
100
AcDbArc
50
45.000000000001442
51
224.99999999999568
0
LINE
5
431
100
AcDbEntity
8
0
100
AcDbLine
10
284.60701468828609
20
2197.2388021423872
30
-2.8574934823605702e-43
11
284.60701468828609
21
2193.7642855419808
31
-1.4210854715202004e-13
0
LINE
5
432
100
AcDbEntity
8
0
100
AcDbLine
10
284.60701468828609
20
2193.7642855419808
30
-1.4210854715202004e-13
11
268.60701468828614
21
2193.7642855419808
31
-1.4210854715202004e-13
0
LINE
5
433
100
AcDbEntity
8
0
100
AcDbLine
10
268.60701468828614
20
2193.7642855419808
30
-1.4210854715202004e-13
11
268.60701468828609
21
2197.2388021423867
31
-1.4210854715202004e-13
0
ARC
5
434
100
AcDbEntity
8
0
100
AcDbCircle
10
266.34427298848919
20
2199.5015438421838
30
-1.4210854715202004e-13
40
3.2000000000001143
100
AcDbArc
50
-45.000000000002139
51
134.99999999999929
0
LINE
5
435
100
AcDbEntity
8
0
100
AcDbLine
10
264.08153128869219
20
2201.7642855419808
30
-1.4210854715202004e-13
11
259.13249808788009
21
2201.7642855419808
31
-1.4210854715202004e-13
0
ARC
5
436
100
AcDbEntity
8
0
100
AcDbCircle
10
256.86975638808315
20
2199.5015438421838
30
-1.4210854715202004e-13
40
3.2000000000001645
100
AcDbArc
50
45.000000000001442
51
225.00000000000142
0
LINE
5
437
100
AcDbEntity
8
0
100
AcDbLine
10
254.6070146882862
20
2197.2388021423867
30
-1.4210854715202004e-13
11
254.60701468828617
21
2193.7642855419808
31
-1.4210854715202004e-13
0
LINE
5
438
100
AcDbEntity
8
0
100
AcDbLine
10
254.60701468828617
20
2193.7642855419808
30
-1.4210854715202004e-13
11
238.60701468828623
21
2193.7642855419808
31
-1.4210854715202004e-13
0
LINE
5
439
100
AcDbEntity
8
0
100
AcDbLine
10
238.60701468828623
20
2193.7642855419808
30
-1.4210854715202004e-13
11
238.60701468828623
21
2197.2388021423867
31
-1.4210854715202004e-13
0
ARC
5
440
100
AcDbEntity
8
0
100
AcDbCircle
10
236.34427298848925
20
2199.5015438421838
30
-1.4210854715202004e-13
40
3.1999999999999633
100
AcDbArc
50
-45.000000000001066
51
135.00000000000469
0
LINE
5
441
100
AcDbEntity
8
0
100
AcDbLine
10
234.08153128869228
20
2201.7642855419804
30
-1.4210854715202004e-13
11
71.607014688286768
21
2201.7642855419799
31
7.9467422600322148e-40
0
LINE
5
442
100
AcDbEntity
8
0
100
AcDbLine
10
71.607014688286768
20
2201.7642855419799
30
7.9467422600322148e-40
11
71.607014688286171
21
2401.7642855419795
31
-1.4210854715202004e-13
0
LINE
5
443
100
AcDbEntity
8
0
100
AcDbLine
10
71.607014688286171
20
2401.7642855419795
30
-1.4210854715202004e-13
11
87.607348021619643
21
2401.7642855419799
31
-1.4210854715202004e-13
0
LINE
5
444
100
AcDbEntity
8
0
100
AcDbLine
10
87.607348021619643
20
2401.7642855419799
30
-1.4210854715202004e-13
11
87.607348021619913
21
2306.289768941574
31
-1.4210854715202004e-13
0
ARC
5
445
100
AcDbEntity
8
0
100
AcDbCircle
10
89.870089721416591
20
2304.027027241777
30
-1.4210854715202004e-13
40
3.1999999999999633
100
AcDbArc
50
134.99999999999517
51
302.88081082547751
0
ARC
5
446
100
AcDbEntity
8
0
100
AcDbCircle
10
93.34460632182271
20
2304.027027241777
30
-1.4210854715202004e-13
40
3.1999999999999407
100
AcDbArc
50
-122.88081082547646
51
44.999999999993875
0
LINE
5
447
100
AcDbEntity
8
0
100
AcDbLine
10
95.607348021619799
20
2306.2897689415736
30
-1.4210854715202006e-13
11
95.6073480216196
21
2401.7642855419799
31
-1.4210854715202004e-13
0
LINE
5
448
100
AcDbEntity
8
0
100
AcDbLine
10
95.6073480216196
20
2401.7642855419799
30
-1.4210854715202004e-13
11
234.08153128869168
21
2401.7642855419804
31
3.2163508913717983e-44
0
ENDSEC
0
SECTION
2
OBJECTS
0
DICTIONARY
5
C
100
AcDbDictionary
3
ACAD_GROUP
350
D
3
ACAD_MLINESTYLE
350
17
0
DICTIONARY
5
D
100
AcDbDictionary
0
DICTIONARY
5
1A
330
C
100
AcDbDictionary
0
DICTIONARY
5
17
100
AcDbDictionary
0
ENDSEC
0
EOF
