0
SECTION
2
HEADER
9
$INSUNITS
70
4
9
$ACADVER
1
AC1014
9
$HANDSEED
5
FFFF
0
ENDSEC
0
SECTION
2
TABLES
0
TABLE
2
VPORT
5
8
100
AcDbSymbolTable
0
ENDTAB
0
TABLE
2
LTYPE
5
5
100
AcDbSymbolTable
0
LTYPE
5
14
100
AcDbSymbolTableRecord
100
AcDbLinetypeTableRecord
2
BYBLOCK
70
0
0
LTYPE
5
15
100
AcDbSymbolTableRecord
100
AcDbLinetypeTableRecord
2
BYLAYER
70
0
0
ENDTAB
0
TABLE
2
LAYER
5
2
100
AcDbSymbolTable
70
2
0
LAYER
5
50
100
AcDbSymbolTableRecord
100
AcDbLayerTableRecord
2
0
70
0
6
CONTINUOUS
0
ENDTAB
0
TABLE
2
STYLE
5
3
100
AcDbSymbolTable
70
1
0
STYLE
5
11
100
AcDbSymbolTableRecord
100
AcDbTextStyleTableRecord
2
STANDARD
70
0
0
ENDTAB
0
TABLE
2
VIEW
5
6
100
AcDbSymbolTable
70
0
0
ENDTAB
0
TABLE
2
UCS
5
7
100
AcDbSymbolTable
70
0
0
ENDTAB
0
TABLE
2
APPID
5
9
100
AcDbSymbolTable
70
2
0
APPID
5
12
100
AcDbSymbolTableRecord
100
AcDbRegAppTableRecord
2
ACAD
70
0
0
ENDTAB
0
TABLE
2
DIMSTYLE
5
A
100
AcDbSymbolTable
70
1
0
ENDTAB
0
TABLE
2
BLOCK_RECORD
5
1
100
AcDbSymbolTable
70
1
0
BLOCK_RECORD
5
1F
100
AcDbSymbolTableRecord
100
AcDbBlockTableRecord
2
*MODEL_SPACE
0
BLOCK_RECORD
5
1B
100
AcDbSymbolTableRecord
100
AcDbBlockTableRecord
2
*PAPER_SPACE
0
ENDTAB
0
ENDSEC
0
SECTION
2
BLOCKS
0
BLOCK
5
20
100
AcDbEntity
100
AcDbBlockBegin
2
*MODEL_SPACE
0
ENDBLK
5
21
100
AcDbEntity
100
AcDbBlockEnd
0
BLOCK
5
1C
100
AcDbEntity
100
AcDbBlockBegin
2
*PAPER_SPACE
0
ENDBLK
5
1D
100
AcDbEntity
100
AcDbBlockEnd
0
ENDSEC
0
SECTION
2
ENTITIES
0
LWPOLYLINE
5
100
100
AcDbEntity
8
0
100
AcDbPolyline
90
4
70
1
43
0.0
10
1.921403842748722e-42
20
-59.626357116773079
10
0
20
2380.3736428832271
10
1219.9999999999998
20
2380.3736428832271
10
1219.9999999999998
20
-59.626357116773022
0
ARC
5
101
100
AcDbEntity
8
0
100
AcDbCircle
10
236.34427298848857
20
2344.4006701250046
30
-1.7516230804060213e-45
40
3.1999999999999633
100
AcDbArc
50
-134.99999999999892
51
44.99999999999568
0
LINE
5
102
100
AcDbEntity
8
0
100
AcDbLine
10
234.08153128869159
20
2342.1379284252075
30
2.0194839173657915e-29
11
95.607348021619529
21
2342.1379284252071
31
7.5147495845782132e-40
0
LINE
5
103
100
AcDbEntity
8
0
100
AcDbLine
10
95.607348021619529
20
2342.1379284252071
30
7.5147495845782132e-40
11
95.607348021619742
21
2246.6634118248012
31
-1.4210854715202004e-13
0
ARC
5
104
100
AcDbEntity
8
0
100
AcDbCircle
10
93.34460632182271
20
2244.4006701250046
30
-1.4210854715202004e-13
40
3.1999999999999789
100
AcDbArc
50
-122.88081082547754
51
44.9999999999946
0
ARC
5
105
100
AcDbEntity
8
0
100
AcDbCircle
10
89.870089721416505
20
2244.4006701250041
30
-1.4210854715202004e-13
40
3.1999999999999504
100
AcDbArc
50
134.99999999999497
51
302.88081082548217
0
LINE
5
106
100
AcDbEntity
8
0
100
AcDbLine
10
87.607348021619842
20
2246.6634118248012
30
-1.4210854715202004e-13
11
87.607348021619558
21
2342.1379284252071
31
-1.4210854715202004e-13
0
LINE
5
107
100
AcDbEntity
8
0
100
AcDbLine
10
87.607348021619558
20
2342.1379284252071
30
-1.4210854715202004e-13
11
71.607014688286114
21
2342.1379284252071
31
-1.4210854715202004e-13
0
LINE
5
108
100
AcDbEntity
8
0
100
AcDbLine
10
71.607014688286114
20
2342.1379284252071
30
-1.4210854715202004e-13
11
71.607014688286725
21
2142.1379284252075
31
0
0
LINE
5
109
100
AcDbEntity
8
0
100
AcDbLine
10
71.607014688286725
20
2142.1379284252075
30
0
11
234.08153128869225
21
2142.137928425208
31
-1.4210854715202004e-13
0
ARC
5
110
100
AcDbEntity
8
0
100
AcDbCircle
10
236.34427298848919
20
2139.8751867254114
30
0
40
3.1999999999999384
100
AcDbArc
50
-45.000000000001783
51
135.00000000000432
0
LINE
5
111
100
AcDbEntity
8
0
100
AcDbLine
10
238.60701468828611
20
2137.6124450256143
30
0
11
238.60701468828614
21
2134.137928425208
31
0
0
LINE
5
112
100
AcDbEntity
8
0
100
AcDbLine
10
238.60701468828614
20
2134.137928425208
30
0
11
254.60701468828609
21
2134.137928425208
31
-8.6829176758063654e-41
0
LINE
5
113
100
AcDbEntity
8
0
100
AcDbLine
10
254.60701468828609
20
2134.137928425208
30
-8.6829176758063654e-41
11
254.60701468828609
21
2137.6124450256143
31
0
0
ARC
5
114
100
AcDbEntity
8
0
100
AcDbCircle
10
256.86975638808303
20
2139.8751867254114
30
-8.2326284779083003e-44
40
3.1999999999999633
100
AcDbArc
50
44.999999999994962
51
225.00000000000142
0
LINE
5
115
100
AcDbEntity
8
0
100
AcDbLine
10
259.13249808788004
20
2142.137928425208
30
2.019483917365792e-29
11
260.10701468828631
21
2142.137928425208
31
-1.4210854715202004e-13
0
LINE
5
116
100
AcDbEntity
8
0
100
AcDbLine
10
260.10701468828631
20
2142.137928425208
30
-1.4210854715202004e-13
11
260.10701468828614
21
2194.137928425208
31
-1.4210854715202004e-13
0
LINE
5
117
100
AcDbEntity
8
0
100
AcDbLine
10
260.10701468828614
20
2194.137928425208
30
-1.4210854715202004e-13
11
263.10701468828631
21
2194.137928425208
31
-1.6280470642137924e-41
0
LINE
5
118
100
AcDbEntity
8
0
100
AcDbLine
10
263.10701468828631
20
2194.137928425208
30
-1.6280470642137924e-41
11
263.10701468828648
21
2142.137928425208
31
0
0
LINE
5
119
100
AcDbEntity
8
0
100
AcDbLine
10
263.10701468828648
20
2142.137928425208
30
0
11
264.08153128869219
21
2142.137928425208
31
-1.4210854715202004e-13
0
ARC
5
120
100
AcDbEntity
8
0
100
AcDbCircle
10
266.34427298848914
20
2139.8751867254114
30
0
40
3.1999999999999384
100
AcDbArc
50
-45.000000000002139
51
135.00000000000432
0
LINE
5
121
100
AcDbEntity
8
0
100
AcDbLine
10
268.60701468828603
20
2137.6124450256143
30
0
11
268.60701468828603
21
2134.137928425208
31
-1.4210854715202004e-13
0
LINE
5
122
100
AcDbEntity
8
0
100
AcDbLine
10
268.60701468828603
20
2134.137928425208
30
-1.4210854715202004e-13
11
284.60701468828591
21
2134.137928425208
31
-8.682917675806347e-41
0
LINE
5
123
100
AcDbEntity
8
0
100
AcDbLine
10
284.60701468828591
20
2134.137928425208
30
-8.682917675806347e-41
11
284.60701468828586
21
2137.6124450256143
31
0
0
ARC
5
124
100
AcDbEntity
8
0
100
AcDbCircle
10
286.86975638808286
20
2139.8751867254114
30
-8.2326284779083003e-44
40
3.1999999999999633
100
AcDbArc
50
45.000000000001442
51
225.00000000000071
0
LINE
5
125
100
AcDbEntity
8
0
100
AcDbLine
10
289.13249808787981
20
2142.1379284252084
30
2.019483917365792e-29
11
569.08153128869094
21
2142.1379284252093
31
-1.4210854715202004e-13
0
ARC
5
126
100
AcDbEntity
8
0
100
AcDbCircle
10
571.34427298848789
20
2139.8751867254123
30
4.4319450869816302e-43
40
3.1999999999999633
100
AcDbArc
50
-45.000000000001421
51
134.99999999999858
0
LINE
5
127
100
AcDbEntity
8
0
100
AcDbLine
10
573.60701468828483
20
2137.6124450256152
30
-2.0194839173657643e-29
11
573.60701468828483
21
2134.1379284252093
31
0
0
LINE
5
128
100
AcDbEntity
8
0
100
AcDbLine
10
573.60701468828483
20
2134.1379284252093
30
0
11
589.60701468828483
21
2134.1379284252093
31
-8.6829176758063654e-41
0
LINE
5
129
100
AcDbEntity
8
0
100
AcDbLine
10
589.60701468828483
20
2134.1379284252093
30
-8.6829176758063654e-41
11
589.60701468828483
21
2137.6124450256152
31
0
0
ARC
5
130
100
AcDbEntity
8
0
100
AcDbCircle
10
591.86975638808178
20
2139.8751867254123
30
0
40
3.1999999999999633
100
AcDbArc
50
45.000000000001442
51
225.00000000000142
0
LINE
5
131
100
AcDbEntity
8
0
100
AcDbLine
10
594.13249808787873
20
2142.1379284252093
30
0
11
595.10701468828506
21
2142.1379284252093
31
-1.4210854715202004e-13
0
LINE
5
132
100
AcDbEntity
8
0
100
AcDbLine
10
595.10701468828506
20
2142.1379284252093
30
-1.4210854715202004e-13
11
595.10701468828483
21
2194.1379284252093
31
-1.4210854715202004e-13
0
LINE
5
133
100
AcDbEntity
8
0
100
AcDbLine
10
595.10701468828483
20
2194.1379284252093
30
-1.4210854715202004e-13
11
598.10701468828506
21
2194.1379284252093
31
-1.6280470642137924e-41
0
LINE
5
134
100
AcDbEntity
8
0
100
AcDbLine
10
598.10701468828506
20
2194.1379284252093
30
-1.6280470642137924e-41
11
598.10701468828518
21
2142.1379284252093
31
0
0
LINE
5
135
100
AcDbEntity
8
0
100
AcDbLine
10
598.10701468828518
20
2142.1379284252093
30
0
11
599.08153128869094
21
2142.1379284252093
31
-1.4210854715202004e-13
0
ARC
5
136
100
AcDbEntity
8
0
100
AcDbCircle
10
601.34427298848777
20
2139.8751867254123
30
4.5191875474475351e-43
40
3.2000000000000139
100
AcDbArc
50
-45
51
134.99999999999713
0
LINE
5
137
100
AcDbEntity
8
0
100
AcDbLine
10
603.60701468828483
20
2137.6124450256152
30
2.6781272789269911e-43
11
603.60701468828483
21
2134.1379284252093
31
0
0
LINE
5
138
100
AcDbEntity
8
0
100
AcDbLine
10
603.60701468828483
20
2134.1379284252093
30
0
11
619.60701468828472
21
2134.1379284252093
31
-8.6829176758063654e-41
0
LINE
5
139
100
AcDbEntity
8
0
100
AcDbLine
10
619.60701468828472
20
2134.1379284252093
30
-8.6829176758063654e-41
11
619.60701468828472
21
2137.6124450256152
31
0
0
ARC
5
140
100
AcDbEntity
8
0
100
AcDbCircle
10
621.86975638808178
20
2139.8751867254127
30
0
40
3.1999999999999136
100
AcDbArc
50
44.99999999999568
51
225.00000000000574
0
LINE
5
141
100
AcDbEntity
8
0
100
AcDbLine
10
624.13249808787873
20
2142.1379284252093
30
0
11
904.0815312886898
21
2142.1379284252107
31
-1.4210854715202004e-13
0
ARC
5
142
100
AcDbEntity
8
0
100
AcDbCircle
10
906.34427298848664
20
2139.8751867254132
30
0
40
3.2000000000000139
100
AcDbArc
50
-44.999999999994245
51
134.99999999999139
0
LINE
5
143
100
AcDbEntity
8
0
100
AcDbLine
10
908.6070146882837
20
2137.6124450256166
30
0
11
908.6070146882837
21
2134.1379284252107
31
-1.4210854715202004e-13
0
LINE
5
144
100
AcDbEntity
8
0
100
AcDbLine
10
908.6070146882837
20
2134.1379284252107
30
-1.4210854715202004e-13
11
924.60701468828358
21
2134.1379284252107
31
-8.6829176758063858e-41
0
LINE
5
145
100
AcDbEntity
8
0
100
AcDbLine
10
924.60701468828358
20
2134.1379284252107
30
-8.6829176758063858e-41
11
924.6070146882837
21
2137.6124450256166
31
0
0
ARC
5
146
100
AcDbEntity
8
0
100
AcDbCircle
10
926.86975638808065
20
2139.8751867254136
30
1.7516230804060213e-45
40
3.1999999999999136
100
AcDbArc
50
45.000000000001442
51
225.00000000000142
0
LINE
5
147
100
AcDbEntity
8
0
100
AcDbLine
10
929.13249808787759
20
2142.1379284252107
30
2.019483917365792e-29
11
930.1070146882837
21
2142.1379284252107
31
-5.288529634396404e-42
0
LINE
5
148
100
AcDbEntity
8
0
100
AcDbLine
10
930.1070146882837
20
2142.1379284252107
30
-5.288529634396404e-42
11
930.1070146882837
21
2194.1379284252107
31
0
0
LINE
5
149
100
AcDbEntity
8
0
100
AcDbLine
10
930.1070146882837
20
2194.1379284252107
30
0
11
933.10701468828381
21
2194.1379284252107
31
-1.6280470642137924e-41
0
LINE
5
150
100
AcDbEntity
8
0
100
AcDbLine
10
933.10701468828381
20
2194.1379284252107
30
-1.6280470642137924e-41
11
933.10701468828415
21
2142.1379284252107
31
0
0
LINE
5
151
100
AcDbEntity
8
0
100
AcDbLine
10
933.10701468828415
20
2142.1379284252107
30
0
11
934.08153128868958
21
2142.1379284252107
31
-5.2885296343933198e-42
0
ARC
5
152
100
AcDbEntity
8
0
100
AcDbCircle
10
936.34427298848664
20
2139.8751867254136
30
0
40
3.2000000000000139
100
AcDbArc
50
-45
51
135
0
LINE
5
153
100
AcDbEntity
8
0
100
AcDbLine
10
938.6070146882837
20
2137.6124450256166
30
0
11
938.6070146882837
21
2134.1379284252107
31
0
0
LINE
5
154
100
AcDbEntity
8
0
100
AcDbLine
10
938.6070146882837
20
2134.1379284252107
30
0
11
954.60701468828358
21
2134.1379284252107
31
-8.6829176758063654e-41
0
LINE
5
155
100
AcDbEntity
8
0
100
AcDbLine
10
954.60701468828358
20
2134.1379284252107
30
-8.6829176758063654e-41
11
954.60701468828358
21
2137.6124450256166
31
0
0
ARC
5
156
100
AcDbEntity
8
0
100
AcDbCircle
10
956.86975638808065
20
2139.8751867254136
30
1.7516230804060213e-45
40
3.1999999999999136
100
AcDbArc
50
45.000000000001442
51
225
0
LINE
5
157
100
AcDbEntity
8
0
100
AcDbLine
10
959.13249808787759
20
2142.1379284252107
30
2.019483917365792e-29
11
1121.607014688283
21
2142.1379284252112
31
-1.4210854715202004e-13
0
LINE
5
158
100
AcDbEntity
8
0
100
AcDbLine
10
1121.607014688283
20
2142.1379284252112
30
-1.4210854715202004e-13
11
1121.6070146882826
21
2342.1379284252107
31
-1.4210854715202004e-13
0
LINE
5
159
100
AcDbEntity
8
0
100
AcDbLine
10
1121.6070146882826
20
2342.1379284252107
30
-1.4210854715202004e-13
11
1105.6066813549494
21
2342.1379284252107
31
2.9582283946656748e-30
0
LINE
5
160
100
AcDbEntity
8
0
100
AcDbLine
10
1105.6066813549494
20
2342.1379284252107
30
2.9582283946656748e-30
11
1105.6066813549498
21
2246.6634118248048
31
0
0
ARC
5
161
100
AcDbEntity
8
0
100
AcDbCircle
10
1103.343939655153
20
2244.4006701250073
30
0
40
3.199999999999779
100
AcDbArc
50
-122.88081082548644
51
45.000000000008633
0
ARC
5
162
100
AcDbEntity
8
0
100
AcDbCircle
10
1099.8694230547467
20
2244.4006701250078
30
0
40
3.2000000000000139
100
AcDbArc
50
134.99999999999713
51
302.88081082547518
0
LINE
5
163
100
AcDbEntity
8
0
100
AcDbLine
10
1097.6066813549498
20
2246.6634118248048
30
0
11
1097.6066813549494
21
2342.1379284252107
31
0
0
LINE
5
164
100
AcDbEntity
8
0
100
AcDbLine
10
1097.6066813549494
20
2342.1379284252107
30
0
11
959.13249808787691
21
2342.1379284252098
31
7.5147495845782312e-40
0
ARC
5
165
100
AcDbEntity
8
0
100
AcDbCircle
10
956.86975638808008
20
2344.4006701250073
30
0
40
3.2000000000001143
100
AcDbArc
50
135.00000000000719
51
314.99999999999136
0
LINE
5
166
100
AcDbEntity
8
0
100
AcDbLine
10
954.6070146882829
20
2346.6634118248039
30
0
11
954.6070146882829
21
2350.1379284252102
31
0
0
LINE
5
167
100
AcDbEntity
8
0
100
AcDbLine
10
954.6070146882829
20
2350.1379284252102
30
0
11
938.60701468828302
21
2350.1379284252102
31
8.6829176758063654e-41
0
LINE
5
168
100
AcDbEntity
8
0
100
AcDbLine
10
938.60701468828302
20
2350.1379284252102
30
8.6829176758063654e-41
11
938.60701468828302
21
2346.6634118248039
31
0
0
ARC
5
169
100
AcDbEntity
8
0
100
AcDbCircle
10
936.34427298848607
20
2344.4006701250069
30
3.5032461608120427e-45
40
3.1999999999999136
100
AcDbArc
50
-134.99999999999858
51
45.000000000001442
0
LINE
5
170
100
AcDbEntity
8
0
100
AcDbLine
10
934.08153128868912
20
2342.1379284252098
30
2.019483917365792e-29
11
933.10701468828358
21
2342.1379284252098
31
5.2885296343933198e-42
0
LINE
5
171
100
AcDbEntity
8
0
100
AcDbLine
10
933.10701468828358
20
2342.1379284252098
30
5.2885296343933198e-42
11
933.10701468828358
21
2290.1379284252102
31
0
0
LINE
5
172
100
AcDbEntity
8
0
100
AcDbLine
10
933.10701468828358
20
2290.1379284252102
30
0
11
930.10701468828358
21
2290.1379284252102
31
1.6280470642137924e-41
0
LINE
5
173
100
AcDbEntity
8
0
100
AcDbLine
10
930.10701468828358
20
2290.1379284252102
30
1.6280470642137924e-41
11
930.10701468828324
21
2342.1379284252098
31
0
0
LINE
5
174
100
AcDbEntity
8
0
100
AcDbLine
10
930.10701468828324
20
2342.1379284252098
30
0
11
929.13249808787714
21
2342.1379284252098
31
5.288529634396404e-42
0
ARC
5
175
100
AcDbEntity
8
0
100
AcDbCircle
10
926.86975638808008
20
2344.4006701250069
30
0
40
3.2000000000000139
100
AcDbArc
50
135
51
315
0
LINE
5
176
100
AcDbEntity
8
0
100
AcDbLine
10
924.60701468828302
20
2346.6634118248039
30
0
11
924.60701468828324
21
2350.1379284252098
31
1.4210854715202004e-13
0
LINE
5
177
100
AcDbEntity
8
0
100
AcDbLine
10
924.60701468828324
20
2350.1379284252098
30
1.4210854715202004e-13
11
908.60701468828324
21
2350.1379284252098
31
8.6829176758063858e-41
0
LINE
5
178
100
AcDbEntity
8
0
100
AcDbLine
10
908.60701468828324
20
2350.1379284252098
30
8.6829176758063858e-41
11
908.60701468828302
21
2346.6634118248039
31
0
0
ARC
5
179
100
AcDbEntity
8
0
100
AcDbCircle
10
906.34427298848607
20
2344.4006701250069
30
3.5032461608120427e-45
40
3.1999999999999136
100
AcDbArc
50
-134.99999999999858
51
45.000000000001442
0
LINE
5
180
100
AcDbEntity
8
0
100
AcDbLine
10
904.08153128868912
20
2342.1379284252098
30
2.019483917365792e-29
11
774.27368135495033
21
2342.1379284252093
31
-1.4210854715202004e-13
0
LINE
5
181
100
AcDbEntity
8
0
100
AcDbLine
10
774.27368135495033
20
2342.1379284252093
30
-1.4210854715202004e-13
11
774.27368135495044
21
2246.6634118248035
31
0
0
ARC
5
182
100
AcDbEntity
8
0
100
AcDbCircle
10
772.01093965515372
20
2244.4006701250064
30
-1.4210854715202006e-13
40
3.199999999999779
100
AcDbArc
50
-122.8808108254786
51
45.000000000004313
0
ARC
5
183
100
AcDbEntity
8
0
100
AcDbCircle
10
768.5364230547475
20
2244.4006701250064
30
-1.4210854715202004e-13
40
3.2000000000002151
100
AcDbArc
50
134.99999999999426
51
302.88081082547689
0
LINE
5
184
100
AcDbEntity
8
0
100
AcDbLine
10
766.27368135495044
20
2246.6634118248039
30
-1.4210854715202004e-13
11
766.27368135495021
21
2342.1379284252093
31
0
0
LINE
5
185
100
AcDbEntity
8
0
100
AcDbLine
10
766.27368135495021
20
2342.1379284252093
30
0
11
624.13249808787793
21
2342.1379284252089
31
7.7137512040606012e-40
0
ARC
5
186
100
AcDbEntity
8
0
100
AcDbCircle
10
621.8697563880811
20
2344.4006701250059
30
-1.4210854715202004e-13
40
3.1999999999999633
100
AcDbArc
50
135.00000000000432
51
314.9999999999971
0
LINE
5
187
100
AcDbEntity
8
0
100
AcDbLine
10
619.60701468828415
20
2346.6634118248026
30
-1.4210854715202001e-13
11
619.60701468828415
21
2350.1379284252089
31
0
0
LINE
5
188
100
AcDbEntity
8
0
100
AcDbLine
10
619.60701468828415
20
2350.1379284252089
30
0
11
603.60701468828415
21
2350.1379284252089
31
8.6829176758063654e-41
0
LINE
5
189
100
AcDbEntity
8
0
100
AcDbLine
10
603.60701468828415
20
2350.1379284252089
30
8.6829176758063654e-41
11
603.60701468828415
21
2346.6634118248026
31
0
0
ARC
5
190
100
AcDbEntity
8
0
100
AcDbCircle
10
601.34427298848721
20
2344.4006701250059
30
-8.2326284779083003e-44
40
3.1999999999999633
100
AcDbArc
50
-134.99999999999858
51
44.99999999999568
0
LINE
5
191
100
AcDbEntity
8
0
100
AcDbLine
10
599.08153128869026
20
2342.1379284252089
30
-1.6019300583255316e-43
11
598.10701468828461
21
2342.1379284252089
31
-1.4210854715202004e-13
0
LINE
5
192
100
AcDbEntity
8
0
100
AcDbLine
10
598.10701468828461
20
2342.1379284252089
30
-1.4210854715202004e-13
11
598.10701468828472
21
2290.1379284252089
31
-1.4210854715202004e-13
0
LINE
5
193
100
AcDbEntity
8
0
100
AcDbLine
10
598.10701468828472
20
2290.1379284252089
30
-1.4210854715202004e-13
11
595.10701468828461
21
2290.1379284252089
31
1.6280470642137924e-41
0
LINE
5
194
100
AcDbEntity
8
0
100
AcDbLine
10
595.10701468828461
20
2290.1379284252089
30
1.6280470642137924e-41
11
595.10701468828438
21
2342.1379284252089
31
0
0
LINE
5
195
100
AcDbEntity
8
0
100
AcDbLine
10
595.10701468828438
20
2342.1379284252089
30
0
11
594.13249808787816
21
2342.1379284252089
31
5.2885296343965296e-42
0
ARC
5
196
100
AcDbEntity
8
0
100
AcDbCircle
10
591.86975638808121
20
2344.4006701250059
30
-3.9937006233257287e-43
40
3.2000000000000139
100
AcDbArc
50
135.0000000000058
51
314.99999999999858
0
LINE
5
197
100
AcDbEntity
8
0
100
AcDbLine
10
589.60701468828415
20
2346.6634118248026
30
-2.0194839173658066e-29
11
589.60701468828427
21
2350.1379284252089
31
0
0
LINE
5
198
100
AcDbEntity
8
0
100
AcDbLine
10
589.60701468828427
20
2350.1379284252089
30
0
11
573.60701468828427
21
2350.1379284252089
31
8.6829176758063654e-41
0
LINE
5
199
100
AcDbEntity
8
0
100
AcDbLine
10
573.60701468828427
20
2350.1379284252089
30
8.6829176758063654e-41
11
573.60701468828427
21
2346.6634118248026
31
0
0
ARC
5
200
100
AcDbEntity
8
0
100
AcDbCircle
10
571.34427298848732
20
2344.4006701250059
30
6.481005397502279e-44
40
3.1999999999999633
100
AcDbArc
50
-134.99999999999858
51
44.99999999999568
0
LINE
5
201
100
AcDbEntity
8
0
100
AcDbLine
10
569.08153128869037
20
2342.1379284252089
30
1.2431976514583781e-43
11
426.94034802161809
21
2342.137928425208
31
7.7137512040606094e-40
0
LINE
5
202
100
AcDbEntity
8
0
100
AcDbLine
10
426.94034802161809
20
2342.137928425208
30
7.7137512040606094e-40
11
426.94034802161843
21
2246.6634118248026
31
-1.4210854715202004e-13
0
ARC
5
203
100
AcDbEntity
8
0
100
AcDbCircle
10
424.67760632182154
20
2244.400670125005
30
-1.4210854715202006e-13
40
3.1999999999997404
100
AcDbArc
50
-122.88081082548217
51
45.000000000007915
0
ARC
5
204
100
AcDbEntity
8
0
100
AcDbCircle
10
421.20308972141527
20
2244.4006701250055
30
-1.4210854715202004e-13
40
3.2000000000001143
100
AcDbArc
50
134.99999999999713
51
302.88081082547865
0
LINE
5
205
100
AcDbEntity
8
0
100
AcDbLine
10
418.94034802161843
20
2246.6634118248026
30
-1.4210854715202004e-13
11
418.94034802161804
21
2342.1379284252084
31
-1.4210854715202004e-13
0
LINE
5
206
100
AcDbEntity
8
0
100
AcDbLine
10
418.94034802161804
20
2342.1379284252084
30
-1.4210854715202004e-13
11
289.13249808787924
21
2342.137928425208
31
7.0444429665505293e-40
0
ARC
5
207
100
AcDbEntity
8
0
100
AcDbCircle
10
286.86975638808229
20
2344.4006701250046
30
0
40
3.1999999999999886
100
AcDbArc
50
134.99999999999929
51
315.00000000000432
0
LINE
5
208
100
AcDbEntity
8
0
100
AcDbLine
10
284.60701468828529
20
2346.6634118248016
30
0
11
284.60701468828529
21
2350.1379284252075
31
0
0
LINE
5
209
100
AcDbEntity
8
0
100
AcDbLine
10
284.60701468828529
20
2350.1379284252075
30
0
11
268.60701468828535
21
2350.1379284252075
31
8.682917675806347e-41
0
LINE
5
210
100
AcDbEntity
8
0
100
AcDbLine
10
268.60701468828535
20
2350.1379284252075
30
8.682917675806347e-41
11
268.6070146882854
21
2346.6634118248016
31
-1.4210854715202004e-13
0
ARC
5
211
100
AcDbEntity
8
0
100
AcDbCircle
10
266.34427298848846
20
2344.4006701250046
30
-1.4210854715202004e-13
40
3.1999999999999633
100
AcDbArc
50
-135.00000000000432
51
45.000000000001442
0
LINE
5
212
100
AcDbEntity
8
0
100
AcDbLine
10
264.08153128869151
20
2342.137928425208
30
-1.4210854715202001e-13
11
263.10701468828591
21
2342.137928425208
31
-1.4210854715202004e-13
0
LINE
5
213
100
AcDbEntity
8
0
100
AcDbLine
10
263.10701468828591
20
2342.137928425208
30
-1.4210854715202004e-13
11
263.10701468828603
21
2290.137928425208
31
-1.4210854715202004e-13
0
LINE
5
214
100
AcDbEntity
8
0
100
AcDbLine
10
263.10701468828603
20
2290.137928425208
30
-1.4210854715202004e-13
11
260.10701468828586
21
2290.137928425208
31
1.6280470642137924e-41
0
LINE
5
215
100
AcDbEntity
8
0
100
AcDbLine
10
260.10701468828586
20
2290.137928425208
30
1.6280470642137924e-41
11
260.10701468828574
21
2342.137928425208
31
0
0
LINE
5
216
100
AcDbEntity
8
0
100
AcDbLine
10
260.10701468828574
20
2342.137928425208
30
0
11
259.13249808787947
21
2342.137928425208
31
-1.4210854715202004e-13
0
ARC
5
217
100
AcDbEntity
8
0
100
AcDbCircle
10
256.86975638808241
20
2344.4006701250046
30
0
40
3.1999999999999633
100
AcDbArc
50
134.99999999999858
51
315.00000000000574
0
LINE
5
218
100
AcDbEntity
8
0
100
AcDbLine
10
254.60701468828546
20
2346.6634118248016
30
0
11
254.60701468828546
21
2350.1379284252075
31
0
0
LINE
5
219
100
AcDbEntity
8
0
100
AcDbLine
10
254.60701468828546
20
2350.1379284252075
30
0
11
238.60701468828552
21
2350.1379284252075
31
8.6829176758063654e-41
0
LINE
5
220
100
AcDbEntity
8
0
100
AcDbLine
10
238.60701468828552
20
2350.1379284252075
30
8.6829176758063654e-41
11
238.60701468828552
21
2346.6634118248012
31
-2.019483917365792e-29
0
CIRCLE
5
221
100
AcDbEntity
8
0
100
AcDbCircle
10
440.33333333333428
20
59.373642883226978
30
3.5527136788005009e-14
40
2.5
0
CIRCLE
5
222
100
AcDbEntity
8
0
100
AcDbCircle
10
279.0000000000008
20
-20.626357116773306
30
0
40
2.5
0
CIRCLE
5
223
100
AcDbEntity
8
0
100
AcDbCircle
10
279.00000000000119
20
267.37364288322669
30
0
40
2.5
0
LWPOLYLINE
5
224
100
AcDbEntity
8
0
100
AcDbPolyline
90
6
70
1
43
0.0
10
15.000000000000002
20
-54.626357116773079
42
-0.41421356237309548
10
5
20
-44.626357116773079
10
4.9999999999997158
20
2076.6236428832262
10
1153.0000000000016
20
2076.6236428832267
10
1153.0000000000016
20
-44.626357116773079
42
-0.41421356237310231
10
1143.0000000000016
20
-54.626357116773079
0
CIRCLE
5
225
100
AcDbEntity
8
0
100
AcDbCircle
10
1118.9996666666675
20
1739.3736428832269
30
0
40
2.5
0
CIRCLE
5
226
100
AcDbEntity
8
0
100
AcDbCircle
10
1118.9996666666675
20
1179.3736428832269
30
0
40
2.5
0
CIRCLE
5
227
100
AcDbEntity
8
0
100
AcDbCircle
10
109.0003333333344
20
1179.3736428832269
30
0
40
2.5
0
CIRCLE
5
228
100
AcDbEntity
8
0
100
AcDbCircle
10
109.0003333333344
20
1739.3736428832269
30
0
40
2.5
0
CIRCLE
5
229
100
AcDbEntity
8
0
100
AcDbCircle
10
59.40000000000083
20
1791.3736428832267
30
3.5527136788005009e-14
40
2.1000000000000085
0
CIRCLE
5
230
100
AcDbEntity
8
0
100
AcDbCircle
10
29.40000000000083
20
1791.3736428832267
30
3.5527136788005009e-14
40
2.1000000000000085
0
LWPOLYLINE
5
231
100
AcDbEntity
8
0
100
AcDbPolyline
90
8
70
1
43
0.0
10
935.6000000000015
20
-16.626357116773249
42
-0.99999999999999989
10
942.00000000000136
20
-16.626357116773249
10
942.00000000000136
20
-24.626357116773363
42
-0.99999999999999989
10
935.6000000000015
20
-24.626357116773363
10
932.40000000000123
20
-24.626357116773363
42
-0.99999999999999989
10
926.00000000000136
20
-24.626357116773363
10
926.00000000000136
20
-16.626357116773534
42
-0.99999999999999989
10
932.40000000000123
20
-16.626357116772965
0
LWPOLYLINE
5
232
100
AcDbEntity
8
0
100
AcDbPolyline
90
8
70
1
43
0.0
10
972.00000000000159
20
-24.626357116773363
42
-0.99999999999999989
10
965.60000000000173
20
-24.626357116773363
10
962.40000000000123
20
-24.626357116773363
42
-0.99999999999999989
10
956.00000000000136
20
-24.626357116773363
10
956.00000000000136
20
-16.626357116773534
42
-0.99999999999999989
10
962.40000000000123
20
-16.626357116772965
10
965.6000000000015
20
-16.626357116773534
42
-0.99999999999999989
10
972.00000000000136
20
-16.626357116773534
0
CIRCLE
5
233
100
AcDbEntity
8
0
100
AcDbCircle
10
949.00000000000136
20
-20.626357116773306
30
0
40
2.5
0
CIRCLE
5
234
100
AcDbEntity
8
0
100
AcDbCircle
10
787.66666666666765
20
59.373642883226978
30
3.5527136788005009e-14
40
2.5
0
CIRCLE
5
235
100
AcDbEntity
8
0
100
AcDbCircle
10
787.66666666666765
20
619.37364288322681
30
0
40
2.5
0
CIRCLE
5
236
100
AcDbEntity
8
0
100
AcDbCircle
10
787.66666666666765
20
1179.3736428832269
30
0
40
2.5
0
CIRCLE
5
237
100
AcDbEntity
8
0
100
AcDbCircle
10
787.66666666666765
20
1739.3736428832269
30
0
40
2.5
0
CIRCLE
5
238
100
AcDbEntity
8
0
100
AcDbCircle
10
440.33333333333428
20
619.37364288322681
30
0
40
2.5
0
CIRCLE
5
239
100
AcDbEntity
8
0
100
AcDbCircle
10
440.33333333333428
20
1179.3736428832269
30
0
40
2.5
0
CIRCLE
5
240
100
AcDbEntity
8
0
100
AcDbCircle
10
440.33333333333428
20
1739.3736428832269
30
0
40
2.5
0
LWPOLYLINE
5
241
100
AcDbEntity
8
0
100
AcDbPolyline
90
8
70
1
43
0.0
10
965.60000000000105
20
271.37364288322669
42
-0.99999999999999989
10
972.00000000000091
20
271.37364288322669
10
972.00000000000091
20
263.37364288322658
42
-0.99999999999999989
10
965.60000000000105
20
263.37364288322658
10
962.40000000000066
20
263.37364288322658
42
-0.99999999999999989
10
956.0000000000008
20
263.37364288322658
10
956.0000000000008
20
271.37364288322669
42
-0.99999999999999989
10
962.40000000000066
20
271.37364288322669
0
LWPOLYLINE
5
242
100
AcDbEntity
8
0
100
AcDbPolyline
90
8
70
1
43
0.0
10
630.60000000000082
20
271.37364288322664
42
-0.99999999999999989
10
637.00000000000091
20
271.37364288322669
10
637.00000000000091
20
263.37364288322669
42
-0.99999999999999989
10
630.60000000000082
20
263.37364288322658
10
627.40000000000089
20
263.37364288322652
42
-0.99999999999999989
10
621.00000000000091
20
263.37364288322658
10
621.00000000000091
20
271.37364288322681
42
-0.99999999999999989
10
627.40000000000089
20
271.37364288322669
0
CIRCLE
5
243
100
AcDbEntity
8
0
100
AcDbCircle
10
614.0000000000008
20
267.37364288322669
30
0
40
2.5
0
LWPOLYLINE
5
244
100
AcDbEntity
8
0
100
AcDbPolyline
90
8
70
1
43
0.0
10
926.0000000000008
20
271.37364288322669
42
-0.99999999999999989
10
932.40000000000066
20
271.37364288322669
10
935.60000000000105
20
271.37364288322669
42
-0.99999999999999989
10
942.00000000000091
20
271.37364288322669
10
942.00000000000091
20
263.37364288322658
42
-0.99999999999999989
10
935.60000000000105
20
263.37364288322658
10
932.40000000000066
20
263.37364288322658
42
-0.99999999999999989
10
926.0000000000008
20
263.37364288322658
0
LWPOLYLINE
5
245
100
AcDbEntity
8
0
100
AcDbPolyline
90
8
70
1
43
0.0
10
591.00000000000091
20
271.37364288322681
42
-0.99999999999999989
10
597.40000000000089
20
271.37364288322669
10
600.60000000000082
20
271.37364288322664
42
-0.99999999999999989
10
607.00000000000091
20
271.37364288322669
10
607.00000000000091
20
263.37364288322669
42
-0.99999999999999989
10
600.60000000000082
20
263.37364288322658
10
597.40000000000089
20
263.37364288322652
42
-0.99999999999999989
10
591.00000000000091
20
263.37364288322658
0
CIRCLE
5
246
100
AcDbEntity
8
0
100
AcDbCircle
10
949.00000000000091
20
267.37364288322669
30
0
40
2.5
0
CIRCLE
5
247
100
AcDbEntity
8
0
100
AcDbCircle
10
279.00000000000085
20
571.37364288322647
30
0
40
2.5
0
LWPOLYLINE
5
248
100
AcDbEntity
8
0
100
AcDbPolyline
90
8
70
1
43
0.0
10
965.60000000000105
20
575.37364288322647
42
-0.99999999999999989
10
972.00000000000091
20
575.37364288322647
10
972.00000000000091
20
567.37364288322635
42
-0.99999999999999989
10
965.60000000000105
20
567.37364288322635
10
962.40000000000066
20
567.37364288322635
42
-0.99999999999999989
10
956.0000000000008
20
567.37364288322635
10
956.0000000000008
20
575.37364288322647
42
-0.99999999999999989
10
962.40000000000066
20
575.37364288322647
0
LWPOLYLINE
5
249
100
AcDbEntity
8
0
100
AcDbPolyline
90
8
70
1
43
0.0
10
630.60000000000082
20
575.37364288322635
42
-0.99999999999999989
10
637.00000000000091
20
575.37364288322647
10
637.00000000000091
20
567.37364288322647
42
-0.99999999999999989
10
630.60000000000082
20
567.37364288322635
10
627.40000000000089
20
567.37364288322635
42
-0.99999999999999989
10
621.00000000000091
20
567.37364288322635
10
621.00000000000091
20
575.37364288322647
42
-0.99999999999999989
10
627.40000000000089
20
575.37364288322647
0
LWPOLYLINE
5
250
100
AcDbEntity
8
0
100
AcDbPolyline
90
8
70
1
43
0.0
10
256.00000000000085
20
575.37364288322647
42
-0.99999999999999989
10
262.40000000000089
20
575.37364288322647
10
265.60000000000088
20
575.37364288322647
42
-0.99999999999999989
10
272.00000000000091
20
575.37364288322647
10
272.00000000000091
20
567.37364288322635
42
-0.99999999999999989
10
265.60000000000088
20
567.37364288322635
10
262.40000000000089
20
567.37364288322635
42
-0.99999999999999989
10
256.00000000000085
20
567.37364288322635
0
CIRCLE
5
251
100
AcDbEntity
8
0
100
AcDbCircle
10
614.0000000000008
20
571.37364288322647
30
0
40
2.5
0
LWPOLYLINE
5
252
100
AcDbEntity
8
0
100
AcDbPolyline
90
8
70
1
43
0.0
10
926.0000000000008
20
575.37364288322647
42
-0.99999999999999989
10
932.40000000000066
20
575.37364288322647
10
935.60000000000105
20
575.37364288322647
42
-0.99999999999999989
10
942.00000000000091
20
575.37364288322647
10
942.00000000000091
20
567.37364288322635
42
-0.99999999999999989
10
935.60000000000105
20
567.37364288322635
10
932.40000000000066
20
567.37364288322635
42
-0.99999999999999989
10
926.0000000000008
20
567.37364288322635
0
LWPOLYLINE
5
253
100
AcDbEntity
8
0
100
AcDbPolyline
90
8
70
1
43
0.0
10
591.00000000000091
20
575.37364288322647
42
-0.99999999999999989
10
597.40000000000089
20
575.37364288322647
10
600.60000000000082
20
575.37364288322635
42
-0.99999999999999989
10
607.00000000000091
20
575.37364288322647
10
607.00000000000091
20
567.37364288322647
42
-0.99999999999999989
10
600.60000000000082
20
567.37364288322635
10
597.40000000000089
20
567.37364288322635
42
-0.99999999999999989
10
591.00000000000091
20
567.37364288322635
0
LWPOLYLINE
5
254
100
AcDbEntity
8
0
100
AcDbPolyline
90
8
70
1
43
0.0
10
286.00000000000085
20
575.37364288322647
42
-0.99999999999999989
10
292.40000000000089
20
575.37364288322647
10
295.60000000000082
20
575.37364288322647
42
-0.99999999999999989
10
302.00000000000085
20
575.37364288322647
10
302.00000000000085
20
567.37364288322635
42
-0.99999999999999989
10
295.60000000000082
20
567.37364288322635
10
292.40000000000089
20
567.37364288322635
42
-0.99999999999999989
10
286.00000000000085
20
567.37364288322635
0
CIRCLE
5
255
100
AcDbEntity
8
0
100
AcDbCircle
10
949.00000000000091
20
571.37364288322647
30
0
40
2.5
0
CIRCLE
5
256
100
AcDbEntity
8
0
100
AcDbCircle
10
279.00000000000085
20
875.37364288322669
30
3.5527136788005009e-14
40
2.5
0
LWPOLYLINE
5
257
100
AcDbEntity
8
0
100
AcDbPolyline
90
8
70
1
43
0.0
10
965.60000000000105
20
879.37364288322669
42
-0.99999999999999989
10
972.00000000000091
20
879.37364288322669
10
972.00000000000091
20
871.37364288322658
42
-0.99999999999999989
10
965.60000000000105
20
871.37364288322658
10
962.40000000000066
20
871.37364288322658
42
-0.99999999999999989
10
956.0000000000008
20
871.37364288322658
10
956.0000000000008
20
879.37364288322669
42
-0.99999999999999989
10
962.40000000000066
20
879.37364288322669
0
LWPOLYLINE
5
258
100
AcDbEntity
8
0
100
AcDbPolyline
90
8
70
1
43
0.0
10
630.60000000000082
20
879.37364288322647
42
-0.99999999999999989
10
637.00000000000091
20
879.37364288322669
10
637.00000000000091
20
871.37364288322692
42
-0.99999999999999989
10
630.60000000000082
20
871.37364288322658
10
627.40000000000089
20
871.37364288322658
42
-0.99999999999999989
10
621.00000000000091
20
871.37364288322658
10
621.00000000000091
20
879.37364288322669
42
-0.99999999999999989
10
627.40000000000089
20
879.37364288322669
0
LWPOLYLINE
5
259
100
AcDbEntity
8
0
100
AcDbPolyline
90
8
70
1
43
0.0
10
256.00000000000085
20
879.37364288322669
42
-0.99999999999999989
10
262.40000000000089
20
879.37364288322669
10
265.60000000000088
20
879.37364288322669
42
-0.99999999999999989
10
272.00000000000091
20
879.37364288322669
10
272.00000000000091
20
871.37364288322658
42
-0.99999999999999989
10
265.60000000000088
20
871.37364288322658
10
262.40000000000089
20
871.37364288322658
42
-0.99999999999999989
10
256.00000000000085
20
871.37364288322658
0
CIRCLE
5
260
100
AcDbEntity
8
0
100
AcDbCircle
10
614.0000000000008
20
875.37364288322669
30
3.5527136788005009e-14
40
2.5
0
LWPOLYLINE
5
261
100
AcDbEntity
8
0
100
AcDbPolyline
90
8
70
1
43
0.0
10
926.0000000000008
20
879.37364288322669
42
-0.99999999999999989
10
932.40000000000066
20
879.37364288322669
10
935.60000000000105
20
879.37364288322669
42
-0.99999999999999989
10
942.00000000000091
20
879.37364288322669
10
942.00000000000091
20
871.37364288322658
42
-0.99999999999999989
10
935.60000000000105
20
871.37364288322658
10
932.40000000000066
20
871.37364288322658
42
-0.99999999999999989
10
926.0000000000008
20
871.37364288322658
0
LWPOLYLINE
5
262
100
AcDbEntity
8
0
100
AcDbPolyline
90
8
70
1
43
0.0
10
591.00000000000091
20
879.37364288322669
42
-0.99999999999999989
10
597.40000000000089
20
879.37364288322669
10
600.60000000000082
20
879.37364288322647
42
-0.99999999999999989
10
607.00000000000091
20
879.37364288322669
10
607.00000000000091
20
871.37364288322692
42
-0.99999999999999989
10
600.60000000000082
20
871.37364288322658
10
597.40000000000089
20
871.37364288322658
42
-0.99999999999999989
10
591.00000000000091
20
871.37364288322658
0
LWPOLYLINE
5
263
100
AcDbEntity
8
0
100
AcDbPolyline
90
8
70
1
43
0.0
10
292.40000000000089
20
871.37364288322658
42
-0.99999999999999989
10
286.00000000000085
20
871.37364288322658
10
286.00000000000085
20
879.37364288322669
42
-0.99999999999999989
10
292.40000000000089
20
879.37364288322669
10
295.60000000000082
20
879.37364288322669
42
-0.99999999999999989
10
302.00000000000085
20
879.37364288322669
10
302.00000000000085
20
871.37364288322658
42
-0.99999999999999989
10
295.60000000000082
20
871.37364288322658
0
CIRCLE
5
264
100
AcDbEntity
8
0
100
AcDbCircle
10
949.00000000000091
20
875.37364288322669
30
3.5527136788005009e-14
40
2.5
0
CIRCLE
5
265
100
AcDbEntity
8
0
100
AcDbCircle
10
279.00000000000085
20
1179.3736428832267
30
0
40
2.5
0
LWPOLYLINE
5
266
100
AcDbEntity
8
0
100
AcDbPolyline
90
8
70
1
43
0.0
10
956.0000000000008
20
1183.3736428832267
42
-0.99999999999999989
10
962.40000000000066
20
1183.3736428832267
10
965.60000000000105
20
1183.3736428832267
42
-0.99999999999999989
10
972.00000000000091
20
1183.3736428832267
10
972.00000000000091
20
1175.3736428832267
42
-0.99999999999999989
10
965.60000000000105
20
1175.3736428832267
10
962.40000000000066
20
1175.3736428832267
42
-0.99999999999999989
10
956.0000000000008
20
1175.3736428832267
0
LWPOLYLINE
5
267
100
AcDbEntity
8
0
100
AcDbPolyline
90
8
70
1
43
0.0
10
621.00000000000091
20
1183.3736428832267
42
-0.99999999999999989
10
627.40000000000089
20
1183.3736428832267
10
630.60000000000082
20
1183.3736428832265
42
-0.99999999999999989
10
637.00000000000091
20
1183.3736428832267
10
637.00000000000091
20
1175.3736428832269
42
-0.99999999999999989
10
630.60000000000082
20
1175.3736428832267
10
627.40000000000089
20
1175.3736428832267
42
-0.99999999999999989
10
621.00000000000091
20
1175.3736428832267
0
LWPOLYLINE
5
268
100
AcDbEntity
8
0
100
AcDbPolyline
90
8
70
1
43
0.0
10
262.40000000000089
20
1175.3736428832267
42
-0.99999999999999989
10
256.00000000000085
20
1175.3736428832267
10
256.00000000000085
20
1183.3736428832267
42
-0.99999999999999989
10
262.40000000000089
20
1183.3736428832267
10
265.60000000000088
20
1183.3736428832267
42
-0.99999999999999989
10
272.00000000000091
20
1183.3736428832267
10
272.00000000000091
20
1175.3736428832267
42
-0.99999999999999989
10
265.60000000000088
20
1175.3736428832267
0
CIRCLE
5
269
100
AcDbEntity
8
0
100
AcDbCircle
10
614.0000000000008
20
1179.3736428832267
30
0
40
2.5
0
LWPOLYLINE
5
270
100
AcDbEntity
8
0
100
AcDbPolyline
90
8
70
1
43
0.0
10
932.40000000000066
20
1175.3736428832267
42
-0.99999999999999989
10
926.0000000000008
20
1175.3736428832267
10
926.0000000000008
20
1183.3736428832267
42
-0.99999999999999989
10
932.40000000000066
20
1183.3736428832267
10
935.60000000000105
20
1183.3736428832267
42
-0.99999999999999989
10
942.00000000000091
20
1183.3736428832267
10
942.00000000000091
20
1175.3736428832267
42
-0.99999999999999989
10
935.60000000000105
20
1175.3736428832267
0
LWPOLYLINE
5
271
100
AcDbEntity
8
0
100
AcDbPolyline
90
8
70
1
43
0.0
10
597.40000000000089
20
1175.3736428832267
42
-0.99999999999999989
10
591.00000000000091
20
1175.3736428832267
10
591.00000000000091
20
1183.3736428832267
42
-0.99999999999999989
10
597.40000000000089
20
1183.3736428832267
10
600.60000000000082
20
1183.3736428832265
42
-0.99999999999999989
10
607.00000000000091
20
1183.3736428832267
10
607.00000000000091
20
1175.3736428832269
42
-0.99999999999999989
10
600.60000000000082
20
1175.3736428832267
0
LWPOLYLINE
5
272
100
AcDbEntity
8
0
100
AcDbPolyline
90
8
70
1
43
0.0
10
292.40000000000089
20
1175.3736428832267
42
-0.99999999999999989
10
286.00000000000085
20
1175.3736428832267
10
286.00000000000085
20
1183.3736428832267
42
-0.99999999999999989
10
292.40000000000089
20
1183.3736428832267
10
295.60000000000082
20
1183.3736428832267
42
-0.99999999999999989
10
302.00000000000085
20
1183.3736428832267
10
302.00000000000085
20
1175.3736428832267
42
-0.99999999999999989
10
295.60000000000082
20
1175.3736428832267
0
CIRCLE
5
273
100
AcDbEntity
8
0
100
AcDbCircle
10
949.00000000000091
20
1179.3736428832267
30
0
40
2.5
0
CIRCLE
5
274
100
AcDbEntity
8
0
100
AcDbCircle
10
279.00000000000085
20
1483.3736428832265
30
3.5527136788005009e-14
40
2.5
0
LWPOLYLINE
5
275
100
AcDbEntity
8
0
100
AcDbPolyline
90
8
70
1
43
0.0
10
956.0000000000008
20
1487.3736428832271
42
-0.99999999999999989
10
962.40000000000066
20
1487.3736428832265
10
965.60000000000105
20
1487.3736428832267
42
-0.99999999999999989
10
972.00000000000091
20
1487.3736428832267
10
972.00000000000091
20
1479.3736428832267
42
-0.99999999999999989
10
965.60000000000105
20
1479.3736428832267
10
962.40000000000066
20
1479.3736428832267
42
-0.99999999999999989
10
956.0000000000008
20
1479.3736428832267
0
LWPOLYLINE
5
276
100
AcDbEntity
8
0
100
AcDbPolyline
90
8
70
1
43
0.0
10
621.00000000000102
20
1487.3736428832265
42
-0.99999999999999989
10
627.40000000000089
20
1487.3736428832265
10
630.60000000000082
20
1487.3736428832267
42
-0.99999999999999989
10
637.00000000000091
20
1487.3736428832267
10
637.00000000000068
20
1479.3736428832267
42
-0.99999999999999989
10
630.60000000000082
20
1479.3736428832267
10
627.40000000000089
20
1479.3736428832267
42
-0.99999999999999989
10
621.00000000000091
20
1479.3736428832267
0
LWPOLYLINE
5
277
100
AcDbEntity
8
0
100
AcDbPolyline
90
8
70
1
43
0.0
10
262.40000000000089
20
1479.3736428832267
42
-0.99999999999999989
10
256.00000000000085
20
1479.3736428832267
10
256.00000000000102
20
1487.3736428832271
42
-0.99999999999999989
10
262.40000000000089
20
1487.3736428832265
10
265.60000000000088
20
1487.3736428832267
42
-0.99999999999999989
10
272.00000000000091
20
1487.3736428832267
10
272.00000000000091
20
1479.3736428832267
42
-0.99999999999999989
10
265.60000000000088
20
1479.3736428832267
0
CIRCLE
5
278
100
AcDbEntity
8
0
100
AcDbCircle
10
614.0000000000008
20
1483.3736428832265
30
3.5527136788005009e-14
40
2.5
0
LWPOLYLINE
5
279
100
AcDbEntity
8
0
100
AcDbPolyline
90
8
70
1
43
0.0
10
932.40000000000066
20
1479.3736428832267
42
-0.99999999999999989
10
926.0000000000008
20
1479.3736428832267
10
926.0000000000008
20
1487.3736428832271
42
-0.99999999999999989
10
932.40000000000066
20
1487.3736428832265
10
935.60000000000105
20
1487.3736428832267
42
-0.99999999999999989
10
942.00000000000091
20
1487.3736428832267
10
942.00000000000091
20
1479.3736428832267
42
-0.99999999999999989
10
935.60000000000105
20
1479.3736428832267
0
LWPOLYLINE
5
280
100
AcDbEntity
8
0
100
AcDbPolyline
90
8
70
1
43
0.0
10
597.40000000000089
20
1479.3736428832267
42
-0.99999999999999989
10
591.00000000000091
20
1479.3736428832267
10
591.00000000000102
20
1487.3736428832265
42
-0.99999999999999989
10
597.40000000000089
20
1487.3736428832265
10
600.60000000000082
20
1487.3736428832267
42
-0.99999999999999989
10
607.00000000000091
20
1487.3736428832267
10
607.00000000000068
20
1479.3736428832267
42
-0.99999999999999989
10
600.60000000000082
20
1479.3736428832267
0
LWPOLYLINE
5
281
100
AcDbEntity
8
0
100
AcDbPolyline
90
8
70
1
43
0.0
10
292.40000000000089
20
1479.3736428832267
42
-0.99999999999999989
10
286.00000000000085
20
1479.3736428832267
10
286.00000000000102
20
1487.3736428832271
42
-0.99999999999999989
10
292.40000000000089
20
1487.3736428832265
10
295.60000000000082
20
1487.3736428832267
42
-0.99999999999999989
10
302.00000000000085
20
1487.3736428832267
10
302.00000000000085
20
1479.3736428832267
42
-0.99999999999999989
10
295.60000000000082
20
1479.3736428832267
0
CIRCLE
5
282
100
AcDbEntity
8
0
100
AcDbCircle
10
949.00000000000091
20
1483.3736428832265
30
3.5527136788005009e-14
40
2.5
0
CIRCLE
5
283
100
AcDbEntity
8
0
100
AcDbCircle
10
279.00000000000085
20
1787.3736428832265
30
0
40
2.5
0
LWPOLYLINE
5
284
100
AcDbEntity
8
0
100
AcDbPolyline
90
8
70
1
43
0.0
10
956.0000000000008
20
1791.3736428832267
42
-0.99999999999999989
10
962.40000000000066
20
1791.3736428832267
10
965.60000000000105
20
1791.3736428832267
42
-0.99999999999999989
10
972.00000000000091
20
1791.3736428832267
10
972.00000000000091
20
1783.3736428832265
42
-0.99999999999999989
10
965.60000000000105
20
1783.3736428832265
10
962.40000000000066
20
1783.3736428832265
42
-0.99999999999999989
10
956.0000000000008
20
1783.3736428832265
0
LWPOLYLINE
5
285
100
AcDbEntity
8
0
100
AcDbPolyline
90
8
70
1
43
0.0
10
621.00000000000091
20
1791.3736428832267
42
-0.99999999999999989
10
627.40000000000089
20
1791.3736428832267
10
630.60000000000082
20
1791.3736428832267
42
-0.99999999999999989
10
637.00000000000091
20
1791.3736428832267
10
637.00000000000091
20
1783.3736428832265
42
-0.99999999999999989
10
630.60000000000082
20
1783.3736428832265
10
627.40000000000089
20
1783.3736428832265
42
-0.99999999999999989
10
621.00000000000091
20
1783.3736428832265
0
LWPOLYLINE
5
286
100
AcDbEntity
8
0
100
AcDbPolyline
90
8
70
1
43
0.0
10
262.40000000000089
20
1783.3736428832265
42
-0.99999999999999989
10
256.00000000000085
20
1783.3736428832265
10
256.00000000000085
20
1791.3736428832267
42
-0.99999999999999989
10
262.40000000000089
20
1791.3736428832267
10
265.60000000000088
20
1791.3736428832267
42
-0.99999999999999989
10
272.00000000000091
20
1791.3736428832267
10
272.00000000000091
20
1783.3736428832265
42
-0.99999999999999989
10
265.60000000000088
20
1783.3736428832265
0
CIRCLE
5
287
100
AcDbEntity
8
0
100
AcDbCircle
10
614.0000000000008
20
1787.3736428832265
30
0
40
2.5
0
LWPOLYLINE
5
288
100
AcDbEntity
8
0
100
AcDbPolyline
90
8
70
1
43
0.0
10
932.40000000000066
20
1783.3736428832265
42
-0.99999999999999989
10
926.0000000000008
20
1783.3736428832265
10
926.0000000000008
20
1791.3736428832267
42
-0.99999999999999989
10
932.40000000000066
20
1791.3736428832267
10
935.60000000000105
20
1791.3736428832267
42
-0.99999999999999989
10
942.00000000000091
20
1791.3736428832267
10
942.00000000000091
20
1783.3736428832265
42
-0.99999999999999989
10
935.60000000000105
20
1783.3736428832265
0
LWPOLYLINE
5
289
100
AcDbEntity
8
0
100
AcDbPolyline
90
8
70
1
43
0.0
10
597.40000000000089
20
1783.3736428832265
42
-0.99999999999999989
10
591.00000000000091
20
1783.3736428832265
10
591.00000000000091
20
1791.3736428832267
42
-0.99999999999999989
10
597.40000000000089
20
1791.3736428832267
10
600.60000000000082
20
1791.3736428832267
42
-0.99999999999999989
10
607.00000000000091
20
1791.3736428832267
10
607.00000000000091
20
1783.3736428832265
42
-0.99999999999999989
10
600.60000000000082
20
1783.3736428832265
0
LWPOLYLINE
5
290
100
AcDbEntity
8
0
100
AcDbPolyline
90
8
70
1
43
0.0
10
292.40000000000089
20
1783.3736428832265
42
-0.99999999999999989
10
286.00000000000085
20
1783.3736428832265
10
286.00000000000085
20
1791.3736428832267
42
-0.99999999999999989
10
292.40000000000089
20
1791.3736428832267
10
295.60000000000082
20
1791.3736428832267
42
-0.99999999999999989
10
302.00000000000085
20
1791.3736428832267
10
302.00000000000085
20
1783.3736428832265
42
-0.99999999999999989
10
295.60000000000082
20
1783.3736428832265
0
CIRCLE
5
291
100
AcDbEntity
8
0
100
AcDbCircle
10
949.00000000000091
20
1787.3736428832265
30
0
40
2.5
0
CIRCLE
5
292
100
AcDbEntity
8
0
100
AcDbCircle
10
1118.999666666668
20
619.37364288322681
30
0
40
2.5
0
CIRCLE
5
293
100
AcDbEntity
8
0
100
AcDbCircle
10
1118.999666666668
20
59.373642883226978
30
3.5527136788005009e-14
40
2.5
0
CIRCLE
5
294
100
AcDbEntity
8
0
100
AcDbCircle
10
109.00033333333461
20
619.37364288322681
30
0
40
2.5
0
CIRCLE
5
295
100
AcDbEntity
8
0
100
AcDbCircle
10
109.00033333333475
20
59.373642883226978
30
3.5527136788005009e-14
40
2.5
0
CIRCLE
5
296
100
AcDbEntity
8
0
100
AcDbCircle
10
614.00000000000091
20
-20.626357116773306
30
0
40
2.5
0
LWPOLYLINE
5
297
100
AcDbEntity
8
0
100
AcDbPolyline
90
8
70
1
43
0.0
10
621.00000000000091
20
-16.626357116773178
42
-0.99999999999999989
10
627.40000000000089
20
-16.626357116773249
10
630.60000000000082
20
-16.62635711677332
42
-0.99999999999999989
10
637.00000000000091
20
-16.626357116773249
10
637.00000000000091
20
-24.626357116773292
42
-0.99999999999999989
10
630.60000000000082
20
-24.626357116773363
10
627.40000000000089
20
-24.626357116773434
42
-0.99999999999999989
10
621.00000000000091
20
-24.626357116773363
0
LWPOLYLINE
5
298
100
AcDbEntity
8
0
100
AcDbPolyline
90
8
70
1
43
0.0
10
597.40000000000089
20
-24.626357116773434
42
-0.99999999999999989
10
591.00000000000091
20
-24.626357116773363
10
591.00000000000091
20
-16.626357116773178
42
-0.99999999999999989
10
597.40000000000089
20
-16.626357116773249
10
600.60000000000082
20
-16.62635711677332
42
-0.99999999999999989
10
607.00000000000091
20
-16.626357116773249
10
607.00000000000091
20
-24.626357116773292
42
-0.99999999999999989
10
600.60000000000082
20
-24.626357116773363
0
CIRCLE
5
299
100
AcDbEntity
8
0
100
AcDbCircle
10
119.50041774729442
20
99.344588925282409
30
0
40
2.9999999999999716
0
CIRCLE
5
300
100
AcDbEntity
8
0
100
AcDbCircle
10
1108.4996666666675
20
1351.3736428832262
30
0
40
2.9999999999999716
0
CIRCLE
5
301
100
AcDbEntity
8
0
100
AcDbCircle
10
119.50041774729442
20
1531.3445889252819
30
0
40
2.9999999999999716
0
CIRCLE
5
302
100
AcDbEntity
8
0
100
AcDbCircle
10
1108.4996666666677
20
279.37364288322715
30
0
40
2.9999999999999716
0
CIRCLE
5
303
100
AcDbEntity
8
0
100
AcDbCircle
10
119.50041774729442
20
279.34458892528244
30
0
40
2.9999999999999716
0
CIRCLE
5
304
100
AcDbEntity
8
0
100
AcDbCircle
10
1108.4996666666673
20
1531.3736428832262
30
0
40
2.9999999999999716
0
CIRCLE
5
305
100
AcDbEntity
8
0
100
AcDbCircle
10
119.50041774729442
20
1351.3445889252819
30
0
40
2.9999999999999716
0
CIRCLE
5
306
100
AcDbEntity
8
0
100
AcDbCircle
10
1108.499666666668
20
99.37364288322712
30
0
40
2.9999999999999716
0
LWPOLYLINE
5
307
100
AcDbEntity
8
0
100
AcDbPolyline
90
8
70
1
43
0.0
10
444.33333333333439
20
1732.3736428832267
42
-0.99999999999999989
10
444.33333333333439
20
1725.9736428832271
10
444.33333333333439
20
1722.7736428832268
42
-0.99999999999999989
10
444.33333333333439
20
1716.3736428832269
10
436.33333333333439
20
1716.3736428832269
42
-0.99999999999999989
10
436.33333333333439
20
1722.7736428832268
10
436.33333333333439
20
1725.9736428832271
42
-0.99999999999999989
10
436.33333333333439
20
1732.3736428832267
0
LWPOLYLINE
5
308
100
AcDbEntity
8
0
100
AcDbPolyline
90
8
70
1
43
0.0
10
444.33333333333439
20
1172.3736428832267
42
-0.99999999999999989
10
444.33333333333439
20
1165.9736428832271
10
444.33333333333439
20
1162.7736428832268
42
-0.99999999999999989
10
444.33333333333439
20
1156.3736428832269
10
436.33333333333439
20
1156.3736428832269
42
-0.99999999999999989
10
436.33333333333439
20
1162.7736428832268
10
436.33333333333439
20
1165.9736428832271
42
-0.99999999999999989
10
436.33333333333439
20
1172.3736428832267
0
LWPOLYLINE
5
309
100
AcDbEntity
8
0
100
AcDbPolyline
90
8
70
1
43
0.0
10
444.33333333333439
20
612.37364288322669
42
-0.99999999999999989
10
444.33333333333439
20
605.97364288322672
10
444.33333333333439
20
602.77364288322667
42
-0.99999999999999989
10
444.33333333333439
20
596.37364288322669
10
436.33333333333439
20
596.37364288322669
42
-0.99999999999999989
10
436.33333333333439
20
602.77364288322667
10
436.33333333333439
20
605.97364288322672
42
-0.99999999999999989
10
436.33333333333439
20
612.37364288322669
0
LWPOLYLINE
5
310
100
AcDbEntity
8
0
100
AcDbPolyline
90
8
70
1
43
0.0
10
791.66666666666765
20
1732.3736428832267
42
-0.99999999999999989
10
791.66666666666765
20
1725.9736428832271
10
791.66666666666765
20
1722.7736428832268
42
-0.99999999999999989
10
791.66666666666765
20
1716.3736428832269
10
783.66666666666777
20
1716.3736428832269
42
-0.99999999999999989
10
783.66666666666777
20
1722.7736428832268
10
783.66666666666777
20
1725.9736428832271
42
-0.99999999999999989
10
783.66666666666777
20
1732.3736428832267
0
LWPOLYLINE
5
311
100
AcDbEntity
8
0
100
AcDbPolyline
90
8
70
1
43
0.0
10
791.66666666666765
20
1172.3736428832267
42
-0.99999999999999989
10
791.66666666666765
20
1165.9736428832271
10
791.66666666666765
20
1162.7736428832268
42
-0.99999999999999989
10
791.66666666666765
20
1156.3736428832269
10
783.66666666666777
20
1156.3736428832269
42
-0.99999999999999989
10
783.66666666666777
20
1162.7736428832268
10
783.66666666666777
20
1165.9736428832271
42
-0.99999999999999989
10
783.66666666666777
20
1172.3736428832267
0
LWPOLYLINE
5
312
100
AcDbEntity
8
0
100
AcDbPolyline
90
8
70
1
43
0.0
10
791.66666666666765
20
612.37364288322669
42
-0.99999999999999989
10
791.66666666666765
20
605.97364288322683
10
791.66666666666765
20
602.77364288322656
42
-0.99999999999999989
10
791.66666666666765
20
596.37364288322669
10
783.66666666666777
20
596.37364288322669
42
-0.99999999999999989
10
783.66666666666777
20
602.77364288322656
10
783.66666666666777
20
605.97364288322683
42
-0.99999999999999989
10
783.66666666666777
20
612.37364288322669
0
LWPOLYLINE
5
313
100
AcDbEntity
8
0
100
AcDbPolyline
90
8
70
1
43
0.0
10
436.33333333333417
20
75.973642883226873
42
-0.99999999999999989
10
436.33333333333434
20
82.373642883226879
10
444.33333333333445
20
82.373642883226879
42
-0.99999999999999989
10
444.33333333333428
20
75.973642883226873
10
444.33333333333445
20
72.773642883226799
42
-0.99999999999999989
10
444.33333333333428
20
66.373642883226793
10
436.33333333333417
20
66.373642883226793
42
-0.99999999999999989
10
436.33333333333434
20
72.773642883226799
0
LWPOLYLINE
5
314
100
AcDbEntity
8
0
100
AcDbPolyline
90
8
70
1
43
0.0
10
436.33333333333445
20
36.373642883226758
42
-0.99999999999999989
10
436.33333333333434
20
42.773642883226799
10
436.33333333333417
20
45.973642883226873
42
-0.99999999999999989
10
436.33333333333434
20
52.373642883226879
10
444.33333333333445
20
52.373642883226879
42
-0.99999999999999989
10
444.33333333333428
20
45.973642883226873
10
444.33333333333445
20
42.773642883226799
42
-0.99999999999999989
10
444.33333333333428
20
36.373642883226793
0
LWPOLYLINE
5
315
100
AcDbEntity
8
0
100
AcDbPolyline
90
8
70
1
43
0.0
10
292.40000000000123
20
263.37364288322658
42
-0.99999999999999989
10
286.00000000000125
20
263.37364288322658
10
286.00000000000125
20
271.37364288322669
42
-0.99999999999999989
10
292.40000000000123
20
271.37364288322669
10
295.60000000000122
20
271.37364288322669
42
-0.99999999999999989
10
302.00000000000119
20
271.37364288322669
10
302.00000000000119
20
263.37364288322658
42
-0.99999999999999989
10
295.60000000000122
20
263.37364288322658
0
LWPOLYLINE
5
316
100
AcDbEntity
8
0
100
AcDbPolyline
90
8
70
1
43
0.0
10
272.00000000000114
20
263.37364288322658
42
-0.99999999999999989
10
265.60000000000116
20
263.37364288322658
10
262.40000000000123
20
263.37364288322658
42
-0.99999999999999989
10
256.00000000000125
20
263.37364288322658
10
256.00000000000125
20
271.37364288322669
42
-0.99999999999999989
10
262.40000000000123
20
271.37364288322669
10
265.60000000000116
20
271.37364288322669
42
-0.99999999999999989
10
272.00000000000114
20
271.37364288322669
0
LWPOLYLINE
5
317
100
AcDbEntity
8
0
100
AcDbPolyline
90
8
70
1
43
0.0
10
286.00000000000068
20
-16.626357116773249
42
-0.99999999999999989
10
292.40000000000066
20
-16.626357116773249
10
295.60000000000065
20
-16.626357116773249
42
-0.99999999999999989
10
302.00000000000068
20
-16.626357116773249
10
302.00000000000057
20
-24.626357116773363
42
-0.99999999999999989
10
295.60000000000059
20
-24.626357116773363
10
292.40000000000077
20
-24.626357116773363
42
-0.99999999999999989
10
286.0000000000008
20
-24.626357116773363
0
LWPOLYLINE
5
318
100
AcDbEntity
8
0
100
AcDbPolyline
90
8
70
1
43
0.0
10
272.00000000000074
20
-24.626357116773363
42
-0.99999999999999989
10
265.6000000000007
20
-24.626357116773363
10
262.40000000000055
20
-24.626357116773363
42
-0.99999999999999989
10
256.00000000000051
20
-24.626357116773363
10
256.00000000000068
20
-16.626357116773534
42
-0.99999999999999989
10
262.40000000000066
20
-16.626357116773534
10
265.6000000000007
20
-16.626357116773249
42
-0.99999999999999989
10
272.00000000000074
20
-16.626357116773249
0
LWPOLYLINE
5
319
100
AcDbEntity
8
0
100
AcDbPolyline
90
8
70
1
43
0.0
10
791.66666666666765
20
42.773642883226728
42
-0.99999999999999989
10
791.66666666666765
20
36.373642883226864
10
783.66666666666777
20
36.373642883226864
42
-0.99999999999999989
10
783.66666666666777
20
42.773642883226728
10
783.66666666666777
20
45.973642883226944
42
-0.99999999999999989
10
783.66666666666777
20
52.373642883226807
10
791.66666666666765
20
52.373642883226807
42
-0.99999999999999989
10
791.66666666666765
20
45.973642883226944
0
LWPOLYLINE
5
320
100
AcDbEntity
8
0
100
AcDbPolyline
90
8
70
1
43
0.0
10
791.66666666666765
20
1752.7736428832268
42
-0.99999999999999989
10
791.66666666666765
20
1746.3736428832269
10
783.66666666666777
20
1746.3736428832269
42
-0.99999999999999989
10
783.66666666666777
20
1752.7736428832268
10
783.66666666666777
20
1755.9736428832271
42
-0.99999999999999989
10
783.66666666666777
20
1762.3736428832267
10
791.66666666666765
20
1762.3736428832267
42
-0.99999999999999989
10
791.66666666666765
20
1755.9736428832271
0
LWPOLYLINE
5
321
100
AcDbEntity
8
0
100
AcDbPolyline
90
8
70
1
43
0.0
10
783.66666666666777
20
1195.9736428832271
42
-0.99999999999999989
10
783.66666666666777
20
1202.3736428832267
10
791.66666666666765
20
1202.3736428832267
42
-0.99999999999999989
10
791.66666666666765
20
1195.9736428832271
10
791.66666666666765
20
1192.7736428832268
42
-0.99999999999999989
10
791.66666666666765
20
1186.3736428832269
10
783.66666666666777
20
1186.3736428832269
42
-0.99999999999999989
10
783.66666666666777
20
1192.7736428832268
0
LWPOLYLINE
5
322
100
AcDbEntity
8
0
100
AcDbPolyline
90
8
70
1
43
0.0
10
783.66666666666777
20
635.97364288322683
42
-0.99999999999999989
10
783.66666666666777
20
642.37364288322669
10
791.66666666666765
20
642.37364288322669
42
-0.99999999999999989
10
791.66666666666765
20
635.97364288322683
10
791.66666666666765
20
632.77364288322656
42
-0.99999999999999989
10
791.66666666666765
20
626.37364288322669
10
783.66666666666777
20
626.37364288322669
42
-0.99999999999999989
10
783.66666666666777
20
632.77364288322656
0
LWPOLYLINE
5
323
100
AcDbEntity
8
0
100
AcDbPolyline
90
8
70
1
43
0.0
10
783.66666666666777
20
75.973642883226944
42
-0.99999999999999989
10
783.66666666666777
20
82.373642883226807
10
791.66666666666765
20
82.373642883226807
42
-0.99999999999999989
10
791.66666666666765
20
75.973642883226944
10
791.66666666666765
20
72.773642883226728
42
-0.99999999999999989
10
791.66666666666765
20
66.373642883226864
10
783.66666666666777
20
66.373642883226864
42
-0.99999999999999989
10
783.66666666666777
20
72.773642883226728
0
LWPOLYLINE
5
324
100
AcDbEntity
8
0
100
AcDbPolyline
90
8
70
1
43
0.0
10
444.33333333333439
20
1752.7736428832268
42
-0.99999999999999989
10
444.33333333333439
20
1746.3736428832269
10
436.33333333333439
20
1746.3736428832269
42
-0.99999999999999989
10
436.33333333333439
20
1752.7736428832268
10
436.33333333333439
20
1755.9736428832271
42
-0.99999999999999989
10
436.33333333333439
20
1762.3736428832267
10
444.33333333333439
20
1762.3736428832267
42
-0.99999999999999989
10
444.33333333333439
20
1755.9736428832271
0
LWPOLYLINE
5
325
100
AcDbEntity
8
0
100
AcDbPolyline
90
8
70
1
43
0.0
10
436.33333333333439
20
1195.9736428832271
42
-0.99999999999999989
10
436.33333333333439
20
1202.3736428832267
10
444.33333333333439
20
1202.3736428832267
42
-0.99999999999999989
10
444.33333333333439
20
1195.9736428832271
10
444.33333333333439
20
1192.7736428832268
42
-0.99999999999999989
10
444.33333333333439
20
1186.3736428832269
10
436.33333333333439
20
1186.3736428832269
42
-0.99999999999999989
10
436.33333333333439
20
1192.7736428832268
0
LWPOLYLINE
5
326
100
AcDbEntity
8
0
100
AcDbPolyline
90
8
70
1
43
0.0
10
436.33333333333451
20
635.97364288322683
42
-0.99999999999999989
10
436.33333333333439
20
642.37364288322681
10
444.33333333333422
20
642.37364288322681
42
-0.99999999999999989
10
444.33333333333439
20
635.97364288322672
10
444.33333333333439
20
632.77364288322667
42
-0.99999999999999989
10
444.33333333333439
20
626.37364288322669
10
436.33333333333439
20
626.37364288322669
42
-0.99999999999999989
10
436.33333333333439
20
632.77364288322667
0
LWPOLYLINE
5
327
100
AcDbEntity
8
0
100
AcDbPolyline
90
8
70
1
43
0.0
10
105.00033333333434
20
1725.9736428832271
42
-0.99999999999999989
10
105.00033333333448
20
1732.3736428832267
10
113.00033333333459
20
1732.3736428832267
42
-0.99999999999999989
10
113.00033333333445
20
1725.9736428832271
10
113.00033333333459
20
1722.7736428832268
42
-0.99999999999999989
10
113.00033333333445
20
1716.3736428832269
10
105.00033333333434
20
1716.3736428832269
42
-0.99999999999999989
10
105.00033333333448
20
1722.7736428832268
0
LWPOLYLINE
5
328
100
AcDbEntity
8
0
100
AcDbPolyline
90
8
70
1
43
0.0
10
113.00033333333459
20
1752.7736428832268
42
-0.99999999999999989
10
113.00033333333445
20
1746.3736428832269
10
105.00033333333434
20
1746.3736428832269
42
-0.99999999999999989
10
105.00033333333448
20
1752.7736428832268
10
105.00033333333434
20
1755.9736428832271
42
-0.99999999999999989
10
105.00033333333448
20
1762.3736428832267
10
113.00033333333459
20
1762.3736428832267
42
-0.99999999999999989
10
113.00033333333445
20
1755.9736428832271
0
LWPOLYLINE
5
329
100
AcDbEntity
8
0
100
AcDbPolyline
90
8
70
1
43
0.0
10
105.00033333333434
20
1165.9736428832271
42
-0.99999999999999989
10
105.00033333333448
20
1172.3736428832267
10
113.00033333333459
20
1172.3736428832267
42
-0.99999999999999989
10
113.00033333333445
20
1165.9736428832271
10
113.00033333333459
20
1162.7736428832268
42
-0.99999999999999989
10
113.00033333333445
20
1156.3736428832269
10
105.00033333333434
20
1156.3736428832269
42
-0.99999999999999989
10
105.00033333333448
20
1162.7736428832268
0
LWPOLYLINE
5
330
100
AcDbEntity
8
0
100
AcDbPolyline
90
8
70
1
43
0.0
10
105.00033333333434
20
1195.9736428832271
42
-0.99999999999999989
10
105.00033333333448
20
1202.3736428832267
10
113.00033333333459
20
1202.3736428832267
42
-0.99999999999999989
10
113.00033333333445
20
1195.9736428832271
10
113.00033333333459
20
1192.7736428832268
42
-0.99999999999999989
10
113.00033333333445
20
1186.3736428832269
10
105.00033333333434
20
1186.3736428832269
42
-0.99999999999999989
10
105.00033333333448
20
1192.7736428832268
0
LWPOLYLINE
5
331
100
AcDbEntity
8
0
100
AcDbPolyline
90
8
70
1
43
0.0
10
1114.9996666666677
20
1725.9736428832271
42
-0.99999999999999989
10
1114.9996666666677
20
1732.3736428832267
10
1122.9996666666675
20
1732.3736428832267
42
-0.99999999999999989
10
1122.9996666666675
20
1725.9736428832271
10
1122.9996666666675
20
1722.7736428832268
42
-0.99999999999999989
10
1122.9996666666675
20
1716.3736428832269
10
1114.9996666666677
20
1716.3736428832269
42
-0.99999999999999989
10
1114.9996666666677
20
1722.7736428832268
0
LWPOLYLINE
5
332
100
AcDbEntity
8
0
100
AcDbPolyline
90
8
70
1
43
0.0
10
1114.9996666666677
20
1195.9736428832271
42
-0.99999999999999989
10
1114.9996666666677
20
1202.3736428832267
10
1122.9996666666675
20
1202.3736428832267
42
-0.99999999999999989
10
1122.9996666666675
20
1195.9736428832271
10
1122.9996666666675
20
1192.7736428832268
42
-0.99999999999999989
10
1122.9996666666675
20
1186.3736428832269
10
1114.9996666666677
20
1186.3736428832269
42
-0.99999999999999989
10
1114.9996666666677
20
1192.7736428832268
0
LWPOLYLINE
5
333
100
AcDbEntity
8
0
100
AcDbPolyline
90
8
70
1
43
0.0
10
1122.9996666666675
20
1752.7736428832268
42
-0.99999999999999989
10
1122.9996666666675
20
1746.3736428832269
10
1114.9996666666677
20
1746.3736428832269
42
-0.99999999999999989
10
1114.9996666666677
20
1752.7736428832268
10
1114.9996666666677
20
1755.9736428832271
42
-0.99999999999999989
10
1114.9996666666677
20
1762.3736428832267
10
1122.9996666666675
20
1762.3736428832267
42
-0.99999999999999989
10
1122.9996666666675
20
1755.9736428832271
0
LWPOLYLINE
5
334
100
AcDbEntity
8
0
100
AcDbPolyline
90
8
70
1
43
0.0
10
1114.9996666666677
20
1165.9736428832271
42
-0.99999999999999989
10
1114.9996666666677
20
1172.3736428832267
10
1122.9996666666675
20
1172.3736428832267
42
-0.99999999999999989
10
1122.9996666666675
20
1165.9736428832271
10
1122.9996666666675
20
1162.7736428832268
42
-0.99999999999999989
10
1122.9996666666675
20
1156.3736428832269
10
1114.9996666666677
20
1156.3736428832269
42
-0.99999999999999989
10
1114.9996666666677
20
1162.7736428832268
0
LWPOLYLINE
5
335
100
AcDbEntity
8
0
100
AcDbPolyline
90
8
70
1
43
0.0
10
1114.9996666666677
20
605.9736428832266
42
-0.99999999999999989
10
1114.999666666668
20
612.37364288322669
10
1122.999666666668
20
612.37364288322681
42
-0.99999999999999989
10
1122.9996666666677
20
605.97364288322683
10
1122.999666666668
20
602.77364288322678
42
-0.99999999999999989
10
1122.9996666666677
20
596.37364288322669
10
1114.9996666666677
20
596.37364288322658
42
-0.99999999999999989
10
1114.999666666668
20
602.77364288322656
0
LWPOLYLINE
5
336
100
AcDbEntity
8
0
100
AcDbPolyline
90
8
70
1
43
0.0
10
1114.999666666668
20
45.973642883226873
42
-0.99999999999999989
10
1114.999666666668
20
52.373642883226807
10
1122.999666666668
20
52.373642883226879
42
-0.99999999999999989
10
1122.999666666668
20
45.973642883226944
10
1122.999666666668
20
42.773642883226799
42
-0.99999999999999989
10
1122.999666666668
20
36.373642883226864
10
1114.999666666668
20
36.373642883226793
42
-0.99999999999999989
10
1114.999666666668
20
42.773642883226728
0
LWPOLYLINE
5
337
100
AcDbEntity
8
0
100
AcDbPolyline
90
8
70
1
43
0.0
10
1114.9996666666677
20
635.9736428832266
42
-0.99999999999999989
10
1114.999666666668
20
642.37364288322669
10
1122.999666666668
20
642.37364288322681
42
-0.99999999999999989
10
1122.9996666666677
20
635.97364288322683
10
1122.999666666668
20
632.77364288322678
42
-0.99999999999999989
10
1122.9996666666677
20
626.37364288322669
10
1114.9996666666677
20
626.37364288322658
42
-0.99999999999999989
10
1114.999666666668
20
632.77364288322656
0
LWPOLYLINE
5
338
100
AcDbEntity
8
0
100
AcDbPolyline
90
8
70
1
43
0.0
10
1114.999666666668
20
75.973642883226873
42
-0.99999999999999989
10
1114.999666666668
20
82.373642883226807
10
1122.999666666668
20
82.373642883226879
42
-0.99999999999999989
10
1122.999666666668
20
75.973642883226944
10
1122.999666666668
20
72.773642883226799
42
-0.99999999999999989
10
1122.999666666668
20
66.373642883226864
10
1114.999666666668
20
66.373642883226793
42
-0.99999999999999989
10
1114.999666666668
20
72.773642883226728
0
LWPOLYLINE
5
339
100
AcDbEntity
8
0
100
AcDbPolyline
90
8
70
1
43
0.0
10
105.00033333333479
20
635.97364288322683
42
-0.99999999999999989
10
105.00033333333469
20
642.37364288322681
10
113.00033333333457
20
642.37364288322681
42
-0.99999999999999989
10
113.00033333333467
20
635.97364288322672
10
113.00033333333474
20
632.77364288322667
42
-0.99999999999999989
10
113.00033333333467
20
626.37364288322669
10
105.00033333333462
20
626.37364288322669
42
-0.99999999999999989
10
105.00033333333469
20
632.77364288322667
0
LWPOLYLINE
5
340
100
AcDbEntity
8
0
100
AcDbPolyline
90
8
70
1
43
0.0
10
105.00033333333484
20
75.973642883226873
42
-0.99999999999999989
10
105.00033333333484
20
82.373642883226879
10
113.00033333333481
20
82.373642883226879
42
-0.99999999999999989
10
113.00033333333481
20
75.973642883226873
10
113.00033333333481
20
72.773642883226799
42
-0.99999999999999989
10
113.00033333333481
20
66.373642883226793
10
105.00033333333484
20
66.373642883226793
42
-0.99999999999999989
10
105.00033333333484
20
72.773642883226799
0
LWPOLYLINE
5
341
100
AcDbEntity
8
0
100
AcDbPolyline
90
8
70
1
43
0.0
10
105.00033333333462
20
605.97364288322672
42
-0.99999999999999989
10
105.00033333333469
20
612.37364288322669
10
113.00033333333474
20
612.37364288322669
42
-0.99999999999999989
10
113.00033333333467
20
605.97364288322672
10
113.00033333333474
20
602.77364288322667
42
-0.99999999999999989
10
113.00033333333467
20
596.37364288322669
10
105.00033333333462
20
596.37364288322669
42
-0.99999999999999989
10
105.00033333333469
20
602.77364288322667
0
LWPOLYLINE
5
342
100
AcDbEntity
8
0
100
AcDbPolyline
90
8
70
1
43
0.0
10
105.00033333333484
20
45.973642883226873
42
-0.99999999999999989
10
105.00033333333484
20
52.373642883226879
10
113.00033333333481
20
52.373642883226879
42
-0.99999999999999989
10
113.00033333333481
20
45.973642883226873
10
113.00033333333481
20
42.773642883226799
42
-0.99999999999999989
10
113.00033333333481
20
36.373642883226793
10
105.00033333333484
20
36.373642883226793
42
-0.99999999999999989
10
105.00033333333484
20
42.773642883226799
0
CIRCLE
5
343
100
AcDbEntity
8
0
100
AcDbCircle
10
279.00000000000085
20
2091.3736428832267
30
0
40
2.5
0
LWPOLYLINE
5
344
100
AcDbEntity
8
0
100
AcDbPolyline
90
8
70
1
43
0.0
10
962.40000000000066
20
2087.3736428832262
42
-0.99999999999999989
10
956.0000000000008
20
2087.3736428832262
10
956.0000000000008
20
2095.3736428832262
42
-0.99999999999999989
10
962.40000000000066
20
2095.3736428832262
10
965.60000000000105
20
2095.3736428832262
42
-0.99999999999999989
10
972.00000000000091
20
2095.3736428832262
10
972.00000000000091
20
2087.3736428832262
42
-0.99999999999999989
10
965.60000000000105
20
2087.3736428832262
0
LWPOLYLINE
5
345
100
AcDbEntity
8
0
100
AcDbPolyline
90
8
70
1
43
0.0
10
627.40000000000089
20
2087.3736428832262
42
-0.99999999999999989
10
621.00000000000091
20
2087.3736428832262
10
621.00000000000091
20
2095.3736428832262
42
-0.99999999999999989
10
627.40000000000089
20
2095.3736428832262
10
630.60000000000082
20
2095.3736428832262
42
-0.99999999999999989
10
637.00000000000091
20
2095.3736428832262
10
637.00000000000091
20
2087.3736428832262
42
-0.99999999999999989
10
630.60000000000082
20
2087.3736428832262
0
LWPOLYLINE
5
346
100
AcDbEntity
8
0
100
AcDbPolyline
90
8
70
1
43
0.0
10
272.00000000000091
20
2087.3736428832262
42
-0.99999999999999989
10
265.60000000000088
20
2087.3736428832262
10
262.40000000000089
20
2087.3736428832262
42
-0.99999999999999989
10
256.00000000000085
20
2087.3736428832262
10
256.00000000000085
20
2095.3736428832262
42
-0.99999999999999989
10
262.40000000000089
20
2095.3736428832262
10
265.60000000000088
20
2095.3736428832262
42
-0.99999999999999989
10
272.00000000000091
20
2095.3736428832262
0
CIRCLE
5
347
100
AcDbEntity
8
0
100
AcDbCircle
10
614.0000000000008
20
2091.3736428832267
30
0
40
2.5
0
LWPOLYLINE
5
348
100
AcDbEntity
8
0
100
AcDbPolyline
90
8
70
1
43
0.0
10
935.60000000000105
20
2095.3736428832262
42
-0.99999999999999989
10
942.00000000000091
20
2095.3736428832262
10
942.00000000000091
20
2087.3736428832262
42
-0.99999999999999989
10
935.60000000000105
20
2087.3736428832262
10
932.40000000000066
20
2087.3736428832262
42
-0.99999999999999989
10
926.0000000000008
20
2087.3736428832262
10
926.0000000000008
20
2095.3736428832262
42
-0.99999999999999989
10
932.40000000000066
20
2095.3736428832262
0
LWPOLYLINE
5
349
100
AcDbEntity
8
0
100
AcDbPolyline
90
8
70
1
43
0.0
10
600.60000000000082
20
2095.3736428832262
42
-0.99999999999999989
10
607.00000000000091
20
2095.3736428832262
10
607.00000000000091
20
2087.3736428832262
42
-0.99999999999999989
10
600.60000000000082
20
2087.3736428832262
10
597.40000000000089
20
2087.3736428832262
42
-0.99999999999999989
10
591.00000000000091
20
2087.3736428832262
10
591.00000000000091
20
2095.3736428832262
42
-0.99999999999999989
10
597.40000000000089
20
2095.3736428832262
0
LWPOLYLINE
5
350
100
AcDbEntity
8
0
100
AcDbPolyline
90
8
70
1
43
0.0
10
295.60000000000082
20
2095.3736428832262
42
-0.99999999999999989
10
302.00000000000085
20
2095.3736428832262
10
302.00000000000085
20
2087.3736428832262
42
-0.99999999999999989
10
295.60000000000082
20
2087.3736428832262
10
292.40000000000089
20
2087.3736428832262
42
-0.99999999999999989
10
286.00000000000085
20
2087.3736428832262
10
286.00000000000085
20
2095.3736428832262
42
-0.99999999999999989
10
292.40000000000089
20
2095.3736428832262
0
CIRCLE
5
351
100
AcDbEntity
8
0
100
AcDbCircle
10
949.00000000000091
20
2091.3736428832267
30
0
40
2.5
0
LWPOLYLINE
5
352
100
AcDbEntity
8
0
100
AcDbPolyline
90
4
70
1
43
0.0
10
1153.0000000000009
20
2101.6236428832262
10
1153.0000000000009
20
2076.6236428832262
10
4.9999999999997158
20
2076.6236428832262
10
4.9999999999997158
20
2101.6236428832262
0
ARC
5
353
100
AcDbEntity
8
0
100
AcDbCircle
10
236.34427298848857
20
2344.400670125005
30
0
40
3.1999999999999633
100
AcDbArc
50
-134.99999999999892
51
44.99999999999568
0
LINE
5
354
100
AcDbEntity
8
0
100
AcDbLine
10
238.60701468828552
20
2346.6634118248016
30
-7.9478214287443766e-44
11
238.60701468828552
21
2350.137928425208
31
0
0
LINE
5
355
100
AcDbEntity
8
0
100
AcDbLine
10
238.60701468828552
20
2350.137928425208
30
0
11
254.60701468828546
21
2350.137928425208
31
-8.6829176758063654e-41
0
LINE
5
356
100
AcDbEntity
8
0
100
AcDbLine
10
254.60701468828546
20
2350.137928425208
30
-8.6829176758063654e-41
11
254.60701468828546
21
2346.6634118248016
31
0
0
ARC
5
357
100
AcDbEntity
8
0
100
AcDbCircle
10
256.86975638808241
20
2344.400670125005
30
0
40
3.1999999999999633
100
AcDbArc
50
135.00000000000432
51
314.99999999999932
0
LINE
5
358
100
AcDbEntity
8
0
100
AcDbLine
10
259.13249808787941
20
2342.137928425208
30
2.0194839173657965e-29
11
264.08153128869162
21
2342.137928425208
31
-1.4210854715202004e-13
0
ARC
5
359
100
AcDbEntity
8
0
100
AcDbCircle
10
266.34427298848846
20
2344.400670125005
30
-1.4210854715202004e-13
40
3.1999999999999136
100
AcDbArc
50
-134.99999999999713
51
44.999999999994962
0
LINE
5
360
100
AcDbEntity
8
0
100
AcDbLine
10
268.60701468828546
20
2346.6634118248016
30
-1.4210854715202004e-13
11
268.6070146882854
21
2350.137928425208
31
0
0
LINE
5
361
100
AcDbEntity
8
0
100
AcDbLine
10
268.6070146882854
20
2350.137928425208
30
0
11
284.60701468828529
21
2350.137928425208
31
-1.4210854715202004e-13
0
LINE
5
362
100
AcDbEntity
8
0
100
AcDbLine
10
284.60701468828529
20
2350.137928425208
30
-1.4210854715202004e-13
11
284.60701468828529
21
2346.6634118248021
31
0
0
ARC
5
363
100
AcDbEntity
8
0
100
AcDbCircle
10
286.86975638808229
20
2344.400670125005
30
0
40
3.2000000000001894
100
AcDbArc
50
134.99999999999929
51
314.99999999999858
0
LINE
5
364
100
AcDbEntity
8
0
100
AcDbLine
10
289.13249808787924
20
2342.137928425208
30
2.0194839173657965e-29
11
418.94034802161821
21
2342.1379284252084
31
2.0707598761347099e-29
0
LINE
5
365
100
AcDbEntity
8
0
100
AcDbLine
10
418.94034802161821
20
2342.1379284252084
30
2.0707598761347099e-29
11
418.94034802161849
21
2246.6634118248026
31
0
0
ARC
5
366
100
AcDbEntity
8
0
100
AcDbCircle
10
421.20308972141544
20
2244.4006701250059
30
-1.4210854715202004e-13
40
3.1999999999999633
100
AcDbArc
50
135.00000000000432
51
302.88081082547774
0
ARC
5
367
100
AcDbEntity
8
0
100
AcDbCircle
10
424.67760632182149
20
2244.4006701250059
30
-1.4210854715202004e-13
40
3.1999999999999016
100
AcDbArc
50
-122.88081082547519
51
44.99999999999568
0
LINE
5
368
100
AcDbEntity
8
0
100
AcDbLine
10
426.94034802161843
20
2246.6634118248026
30
-1.4210854715202004e-13
11
426.94034802161809
21
2342.1379284252084
31
-1.4210854715202004e-13
0
LINE
5
369
100
AcDbEntity
8
0
100
AcDbLine
10
426.94034802161809
20
2342.1379284252084
30
-1.4210854715202004e-13
11
569.08153128869037
21
2342.1379284252093
31
-1.4210854715202006e-13
0
ARC
5
370
100
AcDbEntity
8
0
100
AcDbCircle
10
571.34427298848732
20
2344.4006701250059
30
0
40
3.1999999999999633
100
AcDbArc
50
-135.00000000000432
51
45.000000000001442
0
LINE
5
371
100
AcDbEntity
8
0
100
AcDbLine
10
573.60701468828427
20
2346.663411824803
30
0
11
573.60701468828427
21
2350.1379284252089
31
0
0
LINE
5
372
100
AcDbEntity
8
0
100
AcDbLine
10
573.60701468828427
20
2350.1379284252089
30
0
11
589.60701468828415
21
2350.1379284252089
31
-8.6829176758063654e-41
0
LINE
5
373
100
AcDbEntity
8
0
100
AcDbLine
10
589.60701468828415
20
2350.1379284252089
30
-8.6829176758063654e-41
11
589.60701468828427
21
2346.663411824803
31
0
0
ARC
5
374
100
AcDbEntity
8
0
100
AcDbCircle
10
591.86975638808121
20
2344.4006701250059
30
0
40
3.2000000000001645
100
AcDbArc
50
134.99999999999858
51
315.00000000000432
0
LINE
5
375
100
AcDbEntity
8
0
100
AcDbLine
10
594.13249808787816
20
2342.1379284252093
30
0
11
599.08153128869026
21
2342.1379284252093
31
-2.6857529910927698e-41
0
ARC
5
376
100
AcDbEntity
8
0
100
AcDbCircle
10
601.34427298848732
20
2344.4006701250059
30
0
40
3.1999999999999633
100
AcDbArc
50
-135.0000000000058
51
45.000000000001442
0
LINE
5
377
100
AcDbEntity
8
0
100
AcDbLine
10
603.60701468828427
20
2346.663411824803
30
0
11
603.60701468828415
21
2350.1379284252093
31
0
0
LINE
5
378
100
AcDbEntity
8
0
100
AcDbLine
10
603.60701468828415
20
2350.1379284252093
30
0
11
619.60701468828415
21
2350.1379284252093
31
-8.6829176758063654e-41
0
LINE
5
379
100
AcDbEntity
8
0
100
AcDbLine
10
619.60701468828415
20
2350.1379284252093
30
-8.6829176758063654e-41
11
619.60701468828415
21
2346.663411824803
31
-1.4210854715202004e-13
0
ARC
5
380
100
AcDbEntity
8
0
100
AcDbCircle
10
621.8697563880811
20
2344.4006701250064
30
-1.4210854715202004e-13
40
3.1999999999999633
100
AcDbArc
50
135.00000000000432
51
314.99999999999858
0
LINE
5
381
100
AcDbEntity
8
0
100
AcDbLine
10
624.13249808787805
20
2342.1379284252093
30
-1.4210854715202006e-13
11
766.27368135495033
21
2342.1379284252098
31
-1.4210854715202001e-13
0
LINE
5
382
100
AcDbEntity
8
0
100
AcDbLine
10
766.27368135495033
20
2342.1379284252098
30
-1.4210854715202001e-13
11
766.27368135495067
21
2246.6634118248039
31
0
0
ARC
5
383
100
AcDbEntity
8
0
100
AcDbCircle
10
768.5364230547475
20
2244.4006701250069
30
-1.4210854715202004e-13
40
3.1999999999999136
100
AcDbArc
50
134.99999999999713
51
302.88081082547689
0
ARC
5
384
100
AcDbEntity
8
0
100
AcDbCircle
10
772.01093965515361
20
2244.4006701250069
30
-1.4210854715202004e-13
40
3.1999999999999407
100
AcDbArc
50
-122.88081082547689
51
45.000000000001442
0
LINE
5
385
100
AcDbEntity
8
0
100
AcDbLine
10
774.27368135495055
20
2246.6634118248039
30
-1.4210854715202004e-13
11
774.27368135495021
21
2342.1379284252098
31
-1.4210854715202004e-13
0
LINE
5
386
100
AcDbEntity
8
0
100
AcDbLine
10
774.27368135495021
20
2342.1379284252098
30
-1.4210854715202004e-13
11
904.08153128868912
21
2342.1379284252102
31
-2.0707598762755965e-29
0
ARC
5
387
100
AcDbEntity
8
0
100
AcDbCircle
10
906.34427298848607
20
2344.4006701250073
30
0
40
3.1999999999999136
100
AcDbArc
50
-134.99999999999858
51
44.99999999999568
0
LINE
5
388
100
AcDbEntity
8
0
100
AcDbLine
10
908.60701468828302
20
2346.6634118248039
30
-7.9478214287443766e-44
11
908.60701468828313
21
2350.1379284252102
31
0
0
LINE
5
389
100
AcDbEntity
8
0
100
AcDbLine
10
908.60701468828313
20
2350.1379284252102
30
0
11
924.60701468828302
21
2350.1379284252102
31
-8.6829176758063858e-41
0
LINE
5
390
100
AcDbEntity
8
0
100
AcDbLine
10
924.60701468828302
20
2350.1379284252102
30
-8.6829176758063858e-41
11
924.60701468828324
21
2346.6634118248044
31
0
0
ARC
5
391
100
AcDbEntity
8
0
100
AcDbCircle
10
926.86975638808008
20
2344.4006701250073
30
0
40
3.2000000000001143
100
AcDbArc
50
134.99999999999713
51
314.9999999999971
0
LINE
5
392
100
AcDbEntity
8
0
100
AcDbLine
10
929.13249808787691
20
2342.1379284252102
30
2.0194839173657965e-29
11
934.08153128868901
21
2342.1379284252102
31
-2.6857529910927652e-41
0
ARC
5
393
100
AcDbEntity
8
0
100
AcDbCircle
10
936.34427298848607
20
2344.4006701250073
30
0
40
3.2000000000002151
100
AcDbArc
50
-135
51
45.000000000001442
0
LINE
5
394
100
AcDbEntity
8
0
100
AcDbLine
10
938.60701468828302
20
2346.6634118248044
30
0
11
938.60701468828302
21
2350.1379284252102
31
0
0
LINE
5
395
100
AcDbEntity
8
0
100
AcDbLine
10
938.60701468828302
20
2350.1379284252102
30
0
11
954.6070146882829
21
2350.1379284252102
31
-8.6829176758063654e-41
0
LINE
5
396
100
AcDbEntity
8
0
100
AcDbLine
10
954.6070146882829
20
2350.1379284252102
30
-8.6829176758063654e-41
11
954.6070146882829
21
2346.6634118248044
31
0
0
ARC
5
397
100
AcDbEntity
8
0
100
AcDbCircle
10
956.86975638807996
20
2344.4006701250073
30
0
40
3.2000000000000139
100
AcDbArc
50
135
51
315.0000000000029
0
LINE
5
398
100
AcDbEntity
8
0
100
AcDbLine
10
959.1324980878768
20
2342.1379284252107
30
2.0194839173657965e-29
11
1097.6066813549494
21
2342.1379284252112
31
-1.4210854715202004e-13
0
LINE
5
399
100
AcDbEntity
8
0
100
AcDbLine
10
1097.6066813549494
20
2342.1379284252112
30
-1.4210854715202004e-13
11
1097.6066813549496
21
2246.6634118248053
31
0
0
ARC
5
400
100
AcDbEntity
8
0
100
AcDbCircle
10
1099.8694230547464
20
2244.4006701250082
30
0
40
3.1999999999998128
100
AcDbArc
50
134.99999999999713
51
302.88081082547518
0
ARC
5
401
100
AcDbEntity
8
0
100
AcDbCircle
10
1103.3439396551526
20
2244.4006701250082
30
0
40
3.2000000000000179
100
AcDbArc
50
-122.8808108254786
51
45
0
LINE
5
402
100
AcDbEntity
8
0
100
AcDbLine
10
1105.6066813549496
20
2246.6634118248053
30
0
11
1105.6066813549494
21
2342.1379284252107
31
0
0
LINE
5
403
100
AcDbEntity
8
0
100
AcDbLine
10
1105.6066813549494
20
2342.1379284252107
30
0
11
1121.6070146882826
21
2342.1379284252112
31
-8.6830985699245423e-41
0
LINE
5
404
100
AcDbEntity
8
0
100
AcDbLine
10
1121.6070146882826
20
2342.1379284252112
30
-8.6830985699245423e-41
11
1121.607014688283
21
2142.1379284252116
31
0
0
LINE
5
405
100
AcDbEntity
8
0
100
AcDbLine
10
1121.607014688283
20
2142.1379284252116
30
0
11
959.13249808787759
21
2142.1379284252112
31
-1.4210854715202004e-13
0
ARC
5
406
100
AcDbEntity
8
0
100
AcDbCircle
10
956.86975638808065
20
2139.8751867254141
30
0
40
3.2000000000001143
100
AcDbArc
50
45.000000000001442
51
225.00000000000142
0
LINE
5
407
100
AcDbEntity
8
0
100
AcDbLine
10
954.6070146882837
20
2137.612445025617
30
0
11
954.60701468828358
21
2134.1379284252112
31
0
0
LINE
5
408
100
AcDbEntity
8
0
100
AcDbLine
10
954.60701468828358
20
2134.1379284252112
30
0
11
938.6070146882837
21
2134.1379284252112
31
8.6829176758063654e-41
0
LINE
5
409
100
AcDbEntity
8
0
100
AcDbLine
10
938.6070146882837
20
2134.1379284252112
30
8.6829176758063654e-41
11
938.6070146882837
21
2137.612445025617
31
0
0
ARC
5
410
100
AcDbEntity
8
0
100
AcDbCircle
10
936.34427298848664
20
2139.8751867254141
30
0
40
3.2000000000000139
100
AcDbArc
50
-45
51
135.0000000000029
0
LINE
5
411
100
AcDbEntity
8
0
100
AcDbLine
10
934.0815312886898
20
2142.1379284252107
30
-2.019483917365792e-29
11
929.13249808787771
21
2142.1379284252107
31
2.6857529910927652e-41
0
ARC
5
412
100
AcDbEntity
8
0
100
AcDbCircle
10
926.86975638808065
20
2139.8751867254141
30
0
40
3.2000000000000139
100
AcDbArc
50
44.999999999994245
51
225.00000000000142
0
LINE
5
413
100
AcDbEntity
8
0
100
AcDbLine
10
924.6070146882837
20
2137.612445025617
30
0
11
924.6070146882837
21
2134.1379284252112
31
0
0
LINE
5
414
100
AcDbEntity
8
0
100
AcDbLine
10
924.6070146882837
20
2134.1379284252112
30
0
11
908.60701468828381
21
2134.1379284252112
31
8.6829176758063858e-41
0
LINE
5
415
100
AcDbEntity
8
0
100
AcDbLine
10
908.60701468828381
20
2134.1379284252112
30
8.6829176758063858e-41
11
908.6070146882837
21
2137.6124450256166
31
0
0
ARC
5
416
100
AcDbEntity
8
0
100
AcDbCircle
10
906.34427298848675
20
2139.8751867254141
30
0
40
3.2000000000001143
100
AcDbArc
50
-45.000000000007176
51
135.0000000000029
0
LINE
5
417
100
AcDbEntity
8
0
100
AcDbLine
10
904.08153128868992
20
2142.1379284252107
30
-2.019483917365792e-29
11
624.13249808787873
21
2142.1379284252098
31
-1.4210854715202004e-13
0
ARC
5
418
100
AcDbEntity
8
0
100
AcDbCircle
10
621.86975638808167
20
2139.8751867254127
30
0
40
3.1999999999999633
100
AcDbArc
50
45
51
224.99999999999568
0
LINE
5
419
100
AcDbEntity
8
0
100
AcDbLine
10
619.60701468828472
20
2137.6124450256161
30
0
11
619.60701468828472
21
2134.1379284252098
31
-1.4210854715202004e-13
0
LINE
5
420
100
AcDbEntity
8
0
100
AcDbLine
10
619.60701468828472
20
2134.1379284252098
30
-1.4210854715202004e-13
11
603.60701468828483
21
2134.1379284252098
31
8.6829176758063654e-41
0
LINE
5
421
100
AcDbEntity
8
0
100
AcDbLine
10
603.60701468828483
20
2134.1379284252098
30
8.6829176758063654e-41
11
603.60701468828483
21
2137.6124450256161
31
0
0
ARC
5
422
100
AcDbEntity
8
0
100
AcDbCircle
10
601.34427298848789
20
2139.8751867254127
30
0
40
3.1999999999999633
100
AcDbArc
50
-44.99999999999568
51
134.99999999999858
0
LINE
5
423
100
AcDbEntity
8
0
100
AcDbLine
10
599.08153128869094
20
2142.1379284252098
30
-2.0194839173657906e-29
11
594.13249808787873
21
2142.1379284252098
31
-1.4210854715202004e-13
0
ARC
5
424
100
AcDbEntity
8
0
100
AcDbCircle
10
591.86975638808178
20
2139.8751867254127
30
0
40
3.1999999999999633
100
AcDbArc
50
45.000000000001442
51
224.99999999999568
0
LINE
5
425
100
AcDbEntity
8
0
100
AcDbLine
10
589.60701468828483
20
2137.6124450256161
30
-3.0368596857941446e-43
11
589.60701468828483
21
2134.1379284252098
31
0
0
LINE
5
426
100
AcDbEntity
8
0
100
AcDbLine
10
589.60701468828483
20
2134.1379284252098
30
0
11
573.60701468828495
21
2134.1379284252098
31
8.6829176758063654e-41
0
LINE
5
427
100
AcDbEntity
8
0
100
AcDbLine
10
573.60701468828495
20
2134.1379284252098
30
8.6829176758063654e-41
11
573.60701468828495
21
2137.6124450256157
31
0
0
ARC
5
428
100
AcDbEntity
8
0
100
AcDbCircle
10
571.344272988488
20
2139.8751867254127
30
0
40
3.2000000000001645
100
AcDbArc
50
-45.000000000001421
51
134.99999999999858
0
LINE
5
429
100
AcDbEntity
8
0
100
AcDbLine
10
569.08153128869105
20
2142.1379284252098
30
-2.3193948720598372e-43
11
289.13249808787987
21
2142.1379284252084
31
1.5192340054401452e-39
0
ARC
5
430
100
AcDbEntity
8
0
100
AcDbCircle
10
286.86975638808286
20
2139.8751867254118
30
0
40
3.1999999999999633
100
AcDbArc
50
44.999999999994962
51
225.00000000000213
0
LINE
5
431
100
AcDbEntity
8
0
100
AcDbLine
10
284.60701468828597
20
2137.6124450256148
30
-2.8574934823605702e-43
11
284.60701468828591
21
2134.1379284252089
31
0
0
LINE
5
432
100
AcDbEntity
8
0
100
AcDbLine
10
284.60701468828591
20
2134.1379284252089
30
0
11
268.60701468828603
21
2134.1379284252089
31
8.682917675806347e-41
0
LINE
5
433
100
AcDbEntity
8
0
100
AcDbLine
10
268.60701468828603
20
2134.1379284252089
30
8.682917675806347e-41
11
268.60701468828603
21
2137.6124450256148
31
0
0
ARC
5
434
100
AcDbEntity
8
0
100
AcDbCircle
10
266.34427298848914
20
2139.8751867254118
30
0
40
3.2000000000001143
100
AcDbArc
50
-45.000000000002139
51
135.00000000000503
0
LINE
5
435
100
AcDbEntity
8
0
100
AcDbLine
10
264.08153128869213
20
2142.1379284252084
30
-2.019483917365792e-29
11
259.13249808788004
21
2142.1379284252084
31
-1.4210854715202004e-13
0
ARC
5
436
100
AcDbEntity
8
0
100
AcDbCircle
10
256.86975638808303
20
2139.8751867254118
30
0
40
3.1999999999999633
100
AcDbArc
50
44.999999999994962
51
225.00000000000213
0
LINE
5
437
100
AcDbEntity
8
0
100
AcDbLine
10
254.60701468828614
20
2137.6124450256148
30
0
11
254.60701468828609
21
2134.1379284252084
31
0
0
LINE
5
438
100
AcDbEntity
8
0
100
AcDbLine
10
254.60701468828609
20
2134.1379284252084
30
0
11
238.60701468828614
21
2134.1379284252084
31
8.6829176758063654e-41
0
LINE
5
439
100
AcDbEntity
8
0
100
AcDbLine
10
238.60701468828614
20
2134.1379284252084
30
8.6829176758063654e-41
11
238.60701468828614
21
2137.6124450256148
31
0
0
ARC
5
440
100
AcDbEntity
8
0
100
AcDbCircle
10
236.34427298848919
20
2139.8751867254114
30
0
40
3.1999999999999633
100
AcDbArc
50
-44.99999999999568
51
134.99999999999929
0
LINE
5
441
100
AcDbEntity
8
0
100
AcDbLine
10
234.08153128869219
20
2142.1379284252084
30
-2.019483917365792e-29
11
71.607014688286696
21
2142.137928425208
31
-1.4210854715202004e-13
0
LINE
5
442
100
AcDbEntity
8
0
100
AcDbLine
10
71.607014688286696
20
2142.137928425208
30
-1.4210854715202004e-13
11
71.6070146882861
21
2342.1379284252071
31
-1.4210854715202004e-13
0
LINE
5
443
100
AcDbEntity
8
0
100
AcDbLine
10
71.6070146882861
20
2342.1379284252071
30
-1.4210854715202004e-13
11
87.607348021619572
21
2342.1379284252075
31
-1.4210854715202004e-13
0
LINE
5
444
100
AcDbEntity
8
0
100
AcDbLine
10
87.607348021619572
20
2342.1379284252075
30
-1.4210854715202004e-13
11
87.607348021619842
21
2246.6634118248016
31
-1.4210854715202004e-13
0
ARC
5
445
100
AcDbEntity
8
0
100
AcDbCircle
10
89.87008972141652
20
2244.4006701250046
30
-1.4210854715202004e-13
40
3.1999999999999633
100
AcDbArc
50
134.99999999999517
51
302.88081082547751
0
ARC
5
446
100
AcDbEntity
8
0
100
AcDbCircle
10
93.344606321822639
20
2244.4006701250046
30
-1.4210854715202004e-13
40
3.1999999999999407
100
AcDbArc
50
-122.88081082547646
51
44.999999999999638
0
LINE
5
447
100
AcDbEntity
8
0
100
AcDbLine
10
95.607348021619728
20
2246.6634118248016
30
-1.4210854715202004e-13
11
95.607348021619529
21
2342.1379284252075
31
-1.4210854715202004e-13
0
LINE
5
448
100
AcDbEntity
8
0
100
AcDbLine
10
95.607348021619529
20
2342.1379284252075
30
-1.4210854715202004e-13
11
234.08153128869159
21
2342.137928425208
31
3.2163508913717983e-44
0
ENDSEC
0
SECTION
2
OBJECTS
0
DICTIONARY
5
C
100
AcDbDictionary
3
ACAD_GROUP
350
D
3
ACAD_MLINESTYLE
350
17
0
DICTIONARY
5
D
100
AcDbDictionary
0
DICTIONARY
5
1A
330
C
100
AcDbDictionary
0
DICTIONARY
5
17
100
AcDbDictionary
0
ENDSEC
0
EOF
