<?xml version="1.0" standalone="no"?><!DOCTYPE svg PUBLIC "-//W3C//DTD SVG 1.1//EN" "http://www.w3.org/Graphics/SVG/1.1/DTD/svg11.dtd"><svg xmlns="http://www.w3.org/2000/svg" viewBox="0 0 650 400" version="1.1"><clipPath id="box"><rect x="0" y="0" width="650" height="400" style="fill:none;stroke:none;" /></clipPath><g clip-path="url(#box)"><rect x="0.00" y="0.00" width="650.00" height="400.00" style="fill:#FFFFFF;stroke:none;" /><path d="M0.00 378.00 L650.00 378.00 M0.00 307.00 L650.00 307.00 M0.00 235.00 L650.00 235.00 M0.00 164.00 L650.00 164.00 M0.00 92.00 L650.00 92.00 M0.00 21.00 L650.00 21.00 M0.00 0.00 L0.00 400.00 M81.00 0.00 L81.00 400.00 M162.00 0.00 L162.00 400.00 M243.00 0.00 L243.00 400.00 M325.00 0.00 L325.00 400.00 M406.00 0.00 L406.00 400.00 M487.00 0.00 L487.00 400.00 M568.00 0.00 L568.00 400.00 M650.00 0.00 L650.00 400.00 " style="fill:none;stroke:#D0D0D0;stroke-width:1;" /><path d="M81.25 0.00 L81.25 400.00 " style="fill:none;stroke:#000000;stroke-width:1;" /><path d="M74.75 450.00 L87.75 450.00 M74.75 378.57 L87.75 378.57 M74.75 307.14 L87.75 307.14 M74.75 235.71 L87.75 235.71 M74.75 164.29 L87.75 164.29 M74.75 92.86 L87.75 92.86 M74.75 21.43 L87.75 21.43 " style="fill:none;stroke:#000000;stroke-width:1;" /><path d="M0.00 307.14 L650.00 307.14 " style="fill:none;stroke:#000000;stroke-width:1;" /><path d="M0.00 300.64 L0.00 313.64 M81.25 300.64 L81.25 313.64 M162.50 300.64 L162.50 313.64 M243.75 300.64 L243.75 313.64 M325.00 300.64 L325.00 313.64 M406.25 300.64 L406.25 313.64 M487.50 300.64 L487.50 313.64 M568.75 300.64 L568.75 313.64 M650.00 300.64 L650.00 313.64 " style="fill:none;stroke:#000000;stroke-width:1;" /><text x="89.375" y="381.0714285714286" text-anchor="start" style="font:10px Droid Sans,Trebuchet MS,Arial,Helvetica,sans-serif;stroke:none;fill:#000000">-0.5</text><text x="89.375" y="309.64285714285717" text-anchor="start" style="font:10px Droid Sans,Trebuchet MS,Arial,Helvetica,sans-serif;stroke:none;fill:#000000">0</text><text x="89.375" y="238.21428571428572" text-anchor="start" style="font:10px Droid Sans,Trebuchet MS,Arial,Helvetica,sans-serif;stroke:none;fill:#000000">0.5</text><text x="89.375" y="166.78571428571428" text-anchor="start" style="font:10px Droid Sans,Trebuchet MS,Arial,Helvetica,sans-serif;stroke:none;fill:#000000">1</text><text x="89.375" y="95.35714285714285" text-anchor="start" style="font:10px Droid Sans,Trebuchet MS,Arial,Helvetica,sans-serif;stroke:none;fill:#000000">1.5</text><text x="89.375" y="23.928571428571416" text-anchor="start" style="font:10px Droid Sans,Trebuchet MS,Arial,Helvetica,sans-serif;stroke:none;fill:#000000">2</text><text x="81.25" y="323.26785714285717" text-anchor="middle" style="font:10px Droid Sans,Trebuchet MS,Arial,Helvetica,sans-serif;stroke:none;fill:#000000">0</text><text x="162.5" y="323.26785714285717" text-anchor="middle" style="font:10px Droid Sans,Trebuchet MS,Arial,Helvetica,sans-serif;stroke:none;fill:#000000">0.5</text><text x="243.75" y="323.26785714285717" text-anchor="middle" style="font:10px Droid Sans,Trebuchet MS,Arial,Helvetica,sans-serif;stroke:none;fill:#000000">1</text><text x="325" y="323.26785714285717" text-anchor="middle" style="font:10px Droid Sans,Trebuchet MS,Arial,Helvetica,sans-serif;stroke:none;fill:#000000">1.5</text><text x="406.25" y="323.26785714285717" text-anchor="middle" style="font:10px Droid Sans,Trebuchet MS,Arial,Helvetica,sans-serif;stroke:none;fill:#000000">2</text><text x="487.5" y="323.26785714285717" text-anchor="middle" style="font:10px Droid Sans,Trebuchet MS,Arial,Helvetica,sans-serif;stroke:none;fill:#000000">2.5</text><text x="568.75" y="323.26785714285717" text-anchor="middle" style="font:10px Droid Sans,Trebuchet MS,Arial,Helvetica,sans-serif;stroke:none;fill:#000000">3</text><path d="M81.25 307.14 L81.25 307.14 L81.25 307.14 L81.25 307.11 L81.25 307.08 L81.25 307.03 L81.25 306.96 L81.26 306.89 L81.26 306.79 L81.26 306.69 L81.27 306.56 L81.28 306.43 L81.29 306.28 L81.30 306.12 L81.31 305.94 L81.32 305.75 L81.34 305.54 L81.36 305.32 L81.38 305.08 L81.41 304.83 L81.44 304.57 L81.47 304.30 L81.50 304.00 L81.54 303.70 L81.58 303.38 L81.62 303.05 L81.67 302.70 L81.72 302.34 L81.78 301.97 L81.84 301.58 L81.91 301.18 L81.98 300.76 L82.05 300.33 L82.13 299.89 L82.22 299.43 L82.31 298.96 L82.40 298.48 L82.51 297.99 L82.61 297.48 L82.73 296.95 L82.84 296.42 L82.97 295.87 L83.10 295.30 L83.24 294.73 L83.38 294.14 L83.53 293.54 L83.69 292.92 L83.86 292.29 L84.03 291.65 L84.21 291.00 L84.40 290.33 L84.59 289.65 L84.80 288.96 L85.01 288.26 L85.23 287.54 L85.45 286.82 L85.69 286.07 L85.93 285.32 L86.18 284.56 L86.45 283.78 L86.72 282.99 L87.00 282.19 L87.28 281.38 L87.58 280.55 L87.89 279.72 L88.21 278.87 L88.53 278.01 L88.87 277.14 L89.21 276.26 L89.57 275.37 L89.94 274.46 L90.31 273.55 L90.70 272.62 L91.10 271.69 L91.51 270.74 L91.93 269.78 L92.36 268.81 L92.80 267.83 L93.25 266.84 L93.72 265.84 L94.19 264.84 L94.68 263.82 L95.18 262.79 L95.69 261.75 L96.21 260.70 L96.75 259.64 L97.29 258.57 L97.85 257.49 L98.42 256.40 L99.00 255.31 L99.60 254.20 L100.21 253.09 L100.83 251.96 L101.46 250.83 L102.11 249.69 L102.77 248.54 L103.44 247.38 L104.13 246.22 L104.83 245.04 L105.54 243.86 L106.27 242.67 L107.01 241.47 L107.76 240.27 L108.53 239.05 L109.31 237.83 L110.11 236.60 L110.92 235.37 L111.74 234.12 L112.58 232.87 L113.43 231.62 L114.30 230.36 L115.18 229.09 L116.07 227.81 L116.98 226.53 L117.91 225.24 L118.85 223.94 L119.80 222.64 L120.77 221.33 L121.75 220.02 L122.75 218.70 L123.77 217.38 L124.79 216.05 L125.84 214.72 L126.90 213.38 L127.97 212.03 L129.06 210.69 L130.16 209.33 L131.29 207.97 L132.42 206.61 L133.57 205.25 L134.74 203.87 L135.92 202.50 L137.12 201.12 L138.33 199.74 L139.56 198.35 L140.81 196.96 L142.07 195.57 L143.35 194.18 L144.64 192.78 L145.95 191.38 L147.27 189.97 L148.61 188.57 L149.97 187.16 L151.34 185.75 L152.73 184.33 L154.14 182.92 L155.56 181.50 L157.00 180.08 L158.45 178.66 L159.92 177.24 L161.41 175.82 L162.91 174.39 L164.43 172.97 L165.96 171.54 L167.51 170.11 L169.08 168.68 L170.66 167.26 L172.26 165.83 L173.88 164.40 L175.51 162.97 L177.15 161.54 L178.82 160.11 L180.50 158.69 L182.20 157.26 L183.91 155.83 L185.64 154.41 L187.38 152.98 L189.15 151.56 L190.92 150.14 L192.72 148.72 L194.53 147.30 L196.35 145.88 L198.20 144.46 L200.06 143.05 L201.93 141.64 L203.82 140.23 L205.73 138.82 L207.65 137.42 L209.59 136.02 L211.54 134.62 L213.51 133.22 L215.50 131.83 L217.50 130.44 L219.52 129.05 L221.55 127.67 L223.60 126.29 L225.67 124.92 L227.75 123.54 L229.84 122.18 L231.96 120.81 L234.08 119.46 L236.23 118.10 L238.38 116.75 L240.56 115.41 L242.75 114.07 L244.95 112.73 L247.17 111.40 L249.40 110.08 L251.65 108.76 L253.92 107.45 L256.20 106.14 L258.49 104.84 L260.80 103.54 L263.12 102.25 L265.46 100.97 L267.81 99.69 L270.18 98.42 L272.56 97.15 L274.96 95.90 L277.37 94.65 L279.79 93.40 L282.23 92.16 L284.68 90.94 L287.15 89.71 L289.63 88.50 L292.12 87.29 L294.63 86.09 L297.15 84.90 L299.68 83.72 L302.23 82.54 L304.79 81.37 L307.37 80.21 L309.96 79.06 L312.56 77.92 L315.17 76.79 L317.80 75.66 L320.44 74.55 L323.09 73.44 L325.75 72.34 L328.43 71.25 L331.12 70.17 L333.82 69.10 L336.54 68.04 L339.26 66.99 L342.00 65.95 L344.75 64.92 L347.51 63.90 L350.28 62.89 L353.07 61.89 L355.86 60.89 L358.67 59.91 L361.49 58.94 L364.32 57.98 L367.16 57.04 L370.01 56.10 L372.87 55.17 L375.74 54.25 L378.62 53.35 L381.51 52.45 L384.41 51.57 L387.33 50.70 L390.25 49.84 L393.18 48.99 L396.12 48.15 L399.07 47.32 L402.03 46.51 L405.00 45.71 L407.98 44.92 L410.97 44.14 L413.96 43.37 L416.97 42.62 L419.98 41.87 L423.00 41.14 L426.03 40.42 L429.07 39.72 L432.12 39.03 L435.17 38.35 L438.23 37.68 L441.30 37.02 L444.38 36.38 L447.46 35.75 L450.55 35.13 L453.65 34.53 L456.75 33.94 L459.86 33.36 L462.98 32.79 L466.11 32.24 L469.24 31.70 L472.37 31.18 L475.51 30.67 L478.66 30.17 L481.81 29.68 L484.97 29.21 L488.14 28.75 L491.31 28.31 L494.48 27.88 L497.66 27.46 L500.84 27.06 L504.03 26.67 L507.22 26.29 L510.42 25.93 L513.62 25.58 L516.83 25.24 L520.04 24.92 L523.25 24.61 L526.46 24.32 L529.68 24.04 L532.90 23.78 L536.13 23.53 L539.36 23.29 L542.59 23.07 L545.82 22.86 L549.05 22.66 L552.29 22.48 L555.53 22.32 L558.77 22.17 L562.01 22.03 L565.26 21.90 L568.50 21.79 L571.75 21.70 L574.99 21.62 L578.24 21.55 L581.49 21.50 L584.74 21.46 L587.99 21.44 L591.24 21.43 " style="fill:none;stroke:#ff0000;stroke-width:1;" /></g></svg>