<?xml version="1.0" standalone="no"?><!DOCTYPE svg PUBLIC "-//W3C//DTD SVG 1.1//EN" "http://www.w3.org/Graphics/SVG/1.1/DTD/svg11.dtd"><svg xmlns="http://www.w3.org/2000/svg" viewBox="0 0 650 400" version="1.1"><clipPath id="box"><rect x="0" y="0" width="650" height="400" style="fill:none;stroke:none;" /></clipPath><g clip-path="url(#box)"><rect x="0.00" y="0.00" width="650.00" height="400.00" style="fill:#FFFFFF;stroke:none;" /><path d="M0.00 336.00 L650.00 336.00 M0.00 271.00 L650.00 271.00 M0.00 205.00 L650.00 205.00 M0.00 140.00 L650.00 140.00 M0.00 74.00 L650.00 74.00 M0.00 9.00 L650.00 9.00 M19.00 0.00 L19.00 400.00 M85.00 0.00 L85.00 400.00 M151.00 0.00 L151.00 400.00 M216.00 0.00 L216.00 400.00 M282.00 0.00 L282.00 400.00 M347.00 0.00 L347.00 400.00 M413.00 0.00 L413.00 400.00 M478.00 0.00 L478.00 400.00 M544.00 0.00 L544.00 400.00 M609.00 0.00 L609.00 400.00 " style="fill:none;stroke:#D0D0D0;stroke-width:1;" /><path d="M347.65 0.00 L347.65 400.00 " style="fill:none;stroke:#000000;stroke-width:1;" /><path d="M341.15 402.42 L354.15 402.42 M341.15 336.89 L354.15 336.89 M341.15 271.35 L354.15 271.35 M341.15 205.82 L354.15 205.82 M341.15 140.28 L354.15 140.28 M341.15 74.74 L354.15 74.74 M341.15 9.21 L354.15 9.21 " style="fill:none;stroke:#000000;stroke-width:1;" /><path d="M0.00 140.28 L650.00 140.28 " style="fill:none;stroke:#000000;stroke-width:1;" /><path d="M-45.57 133.78 L-45.57 146.78 M19.97 133.78 L19.97 146.78 M85.51 133.78 L85.51 146.78 M151.04 133.78 L151.04 146.78 M216.58 133.78 L216.58 146.78 M282.11 133.78 L282.11 146.78 M347.65 133.78 L347.65 146.78 M413.19 133.78 L413.19 146.78 M478.72 133.78 L478.72 146.78 M544.26 133.78 L544.26 146.78 M609.79 133.78 L609.79 146.78 " style="fill:none;stroke:#000000;stroke-width:1;" /><text x="355.7746" y="339.3880000000002" text-anchor="start" style="font:10px Droid Sans,Trebuchet MS,Arial,Helvetica,sans-serif;stroke:none;fill:#000000">-15</text><text x="355.7746" y="273.85200000000015" text-anchor="start" style="font:10px Droid Sans,Trebuchet MS,Arial,Helvetica,sans-serif;stroke:none;fill:#000000">-10</text><text x="355.7746" y="208.3160000000001" text-anchor="start" style="font:10px Droid Sans,Trebuchet MS,Arial,Helvetica,sans-serif;stroke:none;fill:#000000">-5</text><text x="355.7746" y="142.78" text-anchor="start" style="font:10px Droid Sans,Trebuchet MS,Arial,Helvetica,sans-serif;stroke:none;fill:#000000">0</text><text x="355.7746" y="77.24399999999994" text-anchor="start" style="font:10px Droid Sans,Trebuchet MS,Arial,Helvetica,sans-serif;stroke:none;fill:#000000">5</text><text x="355.7746" y="11.70799999999987" text-anchor="start" style="font:10px Droid Sans,Trebuchet MS,Arial,Helvetica,sans-serif;stroke:none;fill:#000000">10</text><text x="19.969599999999605" y="156.405" text-anchor="middle" style="font:10px Droid Sans,Trebuchet MS,Arial,Helvetica,sans-serif;stroke:none;fill:#000000">-25</text><text x="85.5055999999997" y="156.405" text-anchor="middle" style="font:10px Droid Sans,Trebuchet MS,Arial,Helvetica,sans-serif;stroke:none;fill:#000000">-20</text><text x="151.0415999999998" y="156.405" text-anchor="middle" style="font:10px Droid Sans,Trebuchet MS,Arial,Helvetica,sans-serif;stroke:none;fill:#000000">-15</text><text x="216.57759999999985" y="156.405" text-anchor="middle" style="font:10px Droid Sans,Trebuchet MS,Arial,Helvetica,sans-serif;stroke:none;fill:#000000">-10</text><text x="282.1135999999999" y="156.405" text-anchor="middle" style="font:10px Droid Sans,Trebuchet MS,Arial,Helvetica,sans-serif;stroke:none;fill:#000000">-5</text><text x="347.6496" y="156.405" text-anchor="middle" style="font:10px Droid Sans,Trebuchet MS,Arial,Helvetica,sans-serif;stroke:none;fill:#000000">0</text><text x="413.1856000000001" y="156.405" text-anchor="middle" style="font:10px Droid Sans,Trebuchet MS,Arial,Helvetica,sans-serif;stroke:none;fill:#000000">5</text><text x="478.72160000000025" y="156.405" text-anchor="middle" style="font:10px Droid Sans,Trebuchet MS,Arial,Helvetica,sans-serif;stroke:none;fill:#000000">10</text><text x="544.2576000000004" y="156.405" text-anchor="middle" style="font:10px Droid Sans,Trebuchet MS,Arial,Helvetica,sans-serif;stroke:none;fill:#000000">15</text><text x="609.7936000000004" y="156.405" text-anchor="middle" style="font:10px Droid Sans,Trebuchet MS,Arial,Helvetica,sans-serif;stroke:none;fill:#000000">20</text><path d="M360.76 140.28 L360.76 140.28 L360.76 140.15 L360.75 140.02 L360.75 139.89 L360.75 139.76 L360.74 139.62 L360.73 139.49 L360.72 139.36 L360.71 139.23 L360.70 139.10 L360.69 138.97 L360.68 138.84 L360.66 138.71 L360.65 138.58 L360.63 138.45 L360.61 138.32 L360.59 138.19 L360.57 138.06 L360.55 137.93 L360.52 137.80 L360.50 137.68 L360.47 137.55 L360.44 137.42 L360.41 137.29 L360.38 137.16 L360.35 137.04 L360.32 136.91 L360.28 136.78 L360.25 136.66 L360.21 136.53 L360.17 136.41 L360.13 136.28 L360.09 136.16 L360.05 136.03 L360.01 135.91 L359.96 135.79 L359.92 135.66 L359.87 135.54 L359.82 135.42 L359.77 135.30 L359.72 135.18 L359.67 135.06 L359.62 134.94 L359.56 134.82 L359.51 134.70 L359.45 134.58 L359.39 134.46 L359.34 134.34 L359.28 134.23 L359.21 134.11 L359.15 134.00 L359.09 133.88 L359.02 133.77 L358.96 133.65 L358.89 133.54 L358.82 133.43 L358.75 133.32 L358.68 133.21 L358.61 133.10 L358.54 132.99 L358.47 132.88 L358.39 132.77 L358.32 132.66 L358.24 132.56 L358.16 132.45 L358.08 132.35 L358.00 132.24 L357.92 132.14 L357.84 132.04 L357.76 131.94 L357.67 131.84 L357.59 131.74 L357.50 131.64 L357.42 131.54 L357.33 131.44 L357.24 131.35 L357.15 131.25 L357.06 131.16 L356.97 131.06 L356.88 130.97 L356.78 130.88 L356.69 130.79 L356.59 130.70 L356.50 130.61 L356.40 130.52 L356.30 130.43 L356.20 130.35 L356.10 130.26 L356.00 130.18 L355.90 130.09 L355.80 130.01 L355.69 129.93 L355.59 129.85 L355.49 129.77 L355.38 129.70 L355.27 129.62 L355.17 129.54 L355.06 129.47 L354.95 129.39 L354.84 129.32 L354.73 129.25 L354.62 129.18 L354.51 129.11 L354.40 129.04 L354.28 128.98 L354.17 128.91 L354.06 128.85 L353.94 128.78 L353.83 128.72 L353.71 128.66 L353.59 128.60 L353.48 128.54 L353.36 128.48 L353.24 128.43 L353.12 128.37 L353.00 128.32 L352.88 128.26 L352.76 128.21 L352.64 128.16 L352.52 128.11 L352.40 128.06 L352.28 128.02 L352.15 127.97 L352.03 127.93 L351.91 127.88 L351.78 127.84 L351.66 127.80 L351.53 127.76 L351.41 127.72 L351.28 127.69 L351.16 127.65 L351.03 127.62 L350.90 127.58 L350.78 127.55 L350.65 127.52 L350.52 127.49 L350.39 127.46 L350.26 127.44 L350.14 127.41 L350.01 127.39 L349.88 127.36 L349.75 127.34 L349.62 127.32 L349.49 127.30 L349.36 127.28 L349.23 127.27 L349.10 127.25 L348.97 127.24 L348.84 127.23 L348.71 127.22 L348.58 127.21 L348.45 127.20 L348.32 127.19 L348.18 127.18 L348.05 127.18 L347.92 127.18 L347.79 127.17 L347.66 127.17 L347.53 127.17 L347.40 127.18 L347.27 127.18 L347.14 127.18 L347.00 127.19 L346.87 127.20 L346.74 127.20 L346.61 127.21 L346.48 127.22 L346.35 127.24 L346.22 127.25 L346.09 127.27 L345.96 127.28 L345.83 127.30 L345.70 127.32 L345.57 127.34 L345.44 127.36 L345.31 127.38 L345.18 127.41 L345.06 127.43 L344.93 127.46 L344.80 127.49 L344.67 127.52 L344.54 127.55 L344.42 127.58 L344.29 127.61 L344.16 127.64 L344.04 127.68 L343.91 127.72 L343.79 127.76 L343.66 127.79 L343.54 127.83 L343.41 127.88 L343.29 127.92 L343.16 127.96 L343.04 128.01 L342.92 128.06 L342.80 128.10 L342.68 128.15 L342.56 128.20 L342.43 128.25 L342.31 128.31 L342.20 128.36 L342.08 128.42 L341.96 128.47 L341.84 128.53 L341.72 128.59 L341.61 128.65 L341.49 128.71 L341.37 128.77 L341.26 128.84 L341.15 128.90 L341.03 128.97 L340.92 129.03 L340.81 129.10 L340.70 129.17 L340.59 129.24 L340.48 129.31 L340.37 129.38 L340.26 129.46 L340.15 129.53 L340.04 129.61 L339.94 129.68 L339.83 129.76 L339.73 129.84 L339.62 129.92 L339.52 130.00 L339.42 130.08 L339.31 130.16 L339.21 130.25 L339.11 130.33 L339.01 130.42 L338.92 130.51 L338.82 130.59 L338.72 130.68 L338.63 130.77 L338.53 130.86 L338.44 130.95 L338.35 131.05 L338.25 131.14 L338.16 131.24 L338.07 131.33 L337.98 131.43 L337.90 131.52 L337.81 131.62 L337.72 131.72 L337.64 131.82 L337.55 131.92 L337.47 132.02 L337.39 132.12 L337.31 132.23 L337.23 132.33 L337.15 132.44 L337.07 132.54 L336.99 132.65 L336.92 132.75 L336.84 132.86 L336.77 132.97 L336.70 133.08 L336.63 133.19 L336.56 133.30 L336.49 133.41 L336.42 133.52 L336.35 133.64 L336.29 133.75 L336.22 133.86 L336.16 133.98 L336.09 134.09 L336.03 134.21 L335.97 134.33 L335.91 134.44 L335.86 134.56 L335.80 134.68 L335.74 134.80 L335.69 134.92 L335.64 135.04 L335.59 135.16 L335.53 135.28 L335.49 135.40 L335.44 135.52 L335.39 135.64 L335.34 135.77 L335.30 135.89 L335.26 136.01 L335.21 136.14 L335.17 136.26 L335.13 136.39 L335.10 136.51 L335.06 136.64 L335.02 136.76 L334.99 136.89 L334.96 137.02 L334.92 137.14 L334.89 137.27 L334.86 137.40 L334.83 137.53 L334.81 137.66 L334.78 137.78 L334.76 137.91 L334.73 138.04 L334.71 138.17 L334.69 138.30 L334.67 138.43 L334.66 138.56 L334.64 138.69 L334.62 138.82 L334.61 138.95 L334.60 139.08 L334.59 139.21 L334.58 139.34 L334.57 139.47 L334.56 139.60 L334.55 139.73 L334.55 139.87 L334.55 140.00 L334.54 140.13 L334.54 140.26 L334.54 140.39 L334.54 140.52 L334.55 140.65 L334.55 140.78 L334.56 140.91 L334.56 141.05 L334.57 141.18 L334.58 141.31 L334.59 141.44 L334.61 141.57 L334.62 141.70 L334.63 141.83 L334.65 141.96 L334.67 142.09 L334.69 142.22 L334.71 142.35 L334.73 142.48 L334.75 142.61 L334.77 142.73 L334.80 142.86 L334.83 142.99 L334.85 143.12 L334.88 143.25 L334.91 143.38 L334.94 143.50 L334.98 143.63 L335.01 143.76 L335.05 143.88 L335.08 144.01 L335.12 144.13 L335.16 144.26 L335.20 144.38 L335.24 144.51 L335.29 144.63 L335.33 144.75 L335.38 144.88 L335.42 145.00 L335.47 145.12 L335.52 145.24 L335.57 145.36 L335.62 145.49 L335.67 145.61 L335.73 145.73 L335.78 145.84 L335.84 145.96 L335.90 146.08 L335.95 146.20 L336.01 146.31 L336.07 146.43 L336.14 146.55 L336.20 146.66 L336.26 146.77 L336.33 146.89 L336.40 147.00 L336.46 147.11 L336.53 147.22 L336.60 147.34 L336.67 147.45 L336.75 147.55 L336.82 147.66 L336.89 147.77 L336.97 147.88 L337.05 147.99 L337.12 148.09 L337.20 148.20 L337.28 148.30 L337.36 148.40 L337.44 148.51 L337.53 148.61 L337.61 148.71 L337.70 148.81 L337.78 148.91 L337.87 149.01 L337.96 149.10 L338.04 149.20 L338.13 149.29 L338.23 149.39 L338.32 149.48 L338.41 149.58 L338.50 149.67 L338.60 149.76 L338.69 149.85 L338.79 149.94 L338.89 150.03 L338.98 150.11 L339.08 150.20 L339.18 150.28 L339.28 150.37 L339.38 150.45 L339.49 150.53 L339.59 150.62 L339.69 150.70 L339.80 150.77 L339.90 150.85 L340.01 150.93 L340.12 151.01 L340.22 151.08 L340.33 151.15 L340.44 151.23 L340.55 151.30 L340.66 151.37 L340.77 151.44 L340.88 151.51 L341.00 151.57 L341.11 151.64 L341.22 151.70 L341.34 151.77 L341.45 151.83 L341.57 151.89 L341.69 151.95 L341.80 152.01 L341.92 152.07 L342.04 152.13 L342.16 152.18 L342.28 152.24 L342.40 152.29 L342.52 152.34 L342.64 152.39 L342.76 152.44 L342.88 152.49 L343.00 152.54 L343.13 152.58 L343.25 152.63 L343.37 152.67 L343.50 152.71 L343.62 152.75 L343.75 152.79 L343.87 152.83 L344.00 152.87 L344.12 152.90 L344.25 152.94 L344.38 152.97 L344.50 153.00 L344.63 153.03 L344.76 153.06 L344.89 153.09 L345.01 153.12 L345.14 153.15 L345.27 153.17 L345.40 153.19 L345.53 153.21 L345.66 153.24 L345.79 153.25 L345.92 153.27 L346.05 153.29 L346.18 153.30 L346.31 153.32 L346.44 153.33 L346.57 153.34 L346.70 153.35 L346.83 153.36 L346.96 153.37 L347.09 153.38 L347.23 153.38 L347.36 153.38 L347.49 153.39 L347.62 153.39 L347.75 153.39 L347.88 153.39 L348.01 153.38 L348.14 153.38 L348.27 153.37 L348.40 153.37 L348.54 153.36 L348.67 153.35 L348.80 153.34 L348.93 153.32 L349.06 153.31 L349.19 153.30 L349.32 153.28 L349.45 153.26 L349.58 153.24 L349.71 153.22 L349.84 153.20 L349.97 153.18 L350.09 153.16 L350.22 153.13 L350.35 153.11 L350.48 153.08 L350.61 153.05 L350.73 153.02 L350.86 152.99 L350.99 152.95 L351.12 152.92 L351.24 152.89 L351.37 152.85 L351.49 152.81 L351.62 152.77 L351.74 152.73 L351.87 152.69 L351.99 152.65 L352.11 152.60 L352.24 152.56 L352.36 152.51 L352.48 152.46 L352.60 152.41 L352.72 152.36 L352.85 152.31 L352.97 152.26 L353.09 152.21 L353.20 152.15 L353.32 152.10 L353.44 152.04 L353.56 151.98 L353.67 151.92 L353.79 151.86 L353.91 151.80 L354.02 151.73 L354.14 151.67 L354.25 151.60 L354.36 151.54 L354.47 151.47 L354.59 151.40 L354.70 151.33 L354.81 151.26 L354.92 151.19 L355.02 151.12 L355.13 151.04 L355.24 150.97 L355.35 150.89 L355.45 150.81 L355.56 150.73 L355.66 150.65 L355.76 150.57 L355.87 150.49 L355.97 150.41 L356.07 150.33 L356.17 150.24 L356.27 150.15 L356.37 150.07 L356.46 149.98 L356.56 149.89 L356.66 149.80 L356.75 149.71 L356.85 149.62 L356.94 149.53 L357.03 149.43 L357.12 149.34 L357.21 149.24 L357.30 149.15 L357.39 149.05 L357.48 148.95 L357.56 148.86 L357.65 148.76 L357.73 148.66 L357.82 148.55 L357.90 148.45 L357.98 148.35 L358.06 148.25 L358.14 148.14 L358.22 148.04 L358.29 147.93 L358.37 147.82 L358.44 147.72 L358.52 147.61 L358.59 147.50 L358.66 147.39 L358.73 147.28 L358.80 147.17 L358.87 147.05 L358.94 146.94 L359.00 146.83 L359.07 146.72 L359.13 146.60 L359.19 146.49 L359.26 146.37 L359.32 146.25 L359.38 146.14 L359.43 146.02 L359.49 145.90 L359.55 145.78 L359.60 145.66 L359.65 145.54 L359.71 145.42 L359.76 145.30 L359.81 145.18 L359.85 145.06 L359.90 144.94 L359.95 144.81 L359.99 144.69 L360.04 144.57 L360.08 144.44 L360.12 144.32 L360.16 144.19 L360.20 144.07 L360.23 143.94 L360.27 143.82 L360.31 143.69 L360.34 143.56 L360.37 143.44 L360.40 143.31 L360.43 143.18 L360.46 143.05 L360.49 142.92 L360.51 142.80 L360.54 142.67 L360.56 142.54 L360.58 142.41 L360.60 142.28 L360.62 142.15 L360.64 142.02 L360.66 141.89 L360.67 141.76 L360.69 141.63 L360.70 141.50 L360.71 141.37 L360.72 141.24 L360.73 141.11 L360.74 140.98 L360.74 140.85 L360.75 140.71 L360.75 140.58 L360.76 140.45 L360.76 140.32 " style="fill:none;stroke:#ff0000;stroke-width:1;" /><path d="M360.76 140.28 L360.76 140.28 L360.76 140.28 L360.76 140.28 L360.76 140.28 L360.77 140.28 L360.77 140.28 L360.78 140.28 L360.79 140.28 L360.80 140.28 L360.81 140.28 L360.82 140.28 L360.84 140.27 L360.85 140.27 L360.87 140.27 L360.88 140.27 L360.90 140.27 L360.92 140.26 L360.94 140.26 L360.97 140.25 L360.99 140.25 L361.02 140.25 L361.04 140.24 L361.07 140.23 L361.10 140.23 L361.13 140.22 L361.16 140.21 L361.19 140.20 L361.23 140.19 L361.26 140.18 L361.30 140.17 L361.33 140.16 L361.37 140.15 L361.41 140.14 L361.45 140.12 L361.49 140.11 L361.54 140.09 L361.58 140.08 L361.62 140.06 L361.67 140.04 L361.72 140.02 L361.76 140.00 L361.81 139.98 L361.86 139.96 L361.91 139.94 L361.96 139.91 L362.02 139.89 L362.07 139.86 L362.13 139.84 L362.18 139.81 L362.24 139.78 L362.29 139.75 L362.35 139.72 L362.41 139.68 L362.47 139.65 L362.53 139.61 L362.59 139.57 L362.65 139.54 L362.72 139.50 L362.78 139.46 L362.84 139.41 L362.91 139.37 L362.97 139.32 L363.04 139.28 L363.11 139.23 L363.17 139.18 L363.24 139.13 L363.31 139.08 L363.38 139.02 L363.45 138.97 L363.52 138.91 L363.59 138.85 L363.66 138.79 L363.73 138.73 L363.80 138.67 L363.87 138.60 L363.94 138.54 L364.01 138.47 L364.09 138.40 L364.16 138.33 L364.23 138.26 L364.30 138.18 L364.38 138.11 L364.45 138.03 L364.52 137.95 L364.60 137.87 L364.67 137.79 L364.74 137.70 L364.82 137.61 L364.89 137.53 L364.96 137.44 L365.04 137.35 L365.11 137.25 L365.18 137.16 L365.26 137.06 L365.33 136.96 L365.40 136.86 L365.47 136.76 L365.55 136.66 L365.62 136.55 L365.69 136.44 L365.76 136.33 L365.83 136.22 L365.90 136.11 L365.97 135.99 L366.04 135.88 L366.11 135.76 L366.18 135.64 L366.25 135.52 L366.31 135.39 L366.38 135.27 L366.44 135.14 L366.51 135.01 L366.57 134.88 L366.64 134.75 L366.70 134.61 L366.76 134.47 L366.82 134.33 L366.88 134.19 L366.94 134.05 L367.00 133.91 L367.06 133.76 L367.12 133.62 L367.17 133.47 L367.23 133.32 L367.28 133.16 L367.33 133.01 L367.38 132.85 L367.43 132.69 L367.48 132.53 L367.53 132.37 L367.57 132.21 L367.62 132.04 L367.66 131.88 L367.70 131.71 L367.75 131.54 L367.79 131.37 L367.82 131.19 L367.86 131.02 L367.89 130.84 L367.93 130.66 L367.96 130.48 L367.99 130.30 L368.02 130.12 L368.05 129.93 L368.07 129.75 L368.10 129.56 L368.12 129.37 L368.14 129.18 L368.16 128.99 L368.17 128.79 L368.19 128.60 L368.20 128.40 L368.21 128.20 L368.22 128.00 L368.23 127.80 L368.23 127.60 L368.24 127.39 L368.24 127.19 L368.24 126.98 L368.23 126.78 L368.23 126.57 L368.22 126.36 L368.21 126.14 L368.20 125.93 L368.19 125.72 L368.17 125.50 L368.15 125.29 L368.13 125.07 L368.11 124.85 L368.08 124.63 L368.06 124.41 L368.03 124.19 L368.00 123.97 L367.96 123.74 L367.92 123.52 L367.88 123.29 L367.84 123.07 L367.80 122.84 L367.75 122.61 L367.70 122.38 L367.65 122.16 L367.59 121.93 L367.54 121.69 L367.47 121.46 L367.41 121.23 L367.35 121.00 L367.28 120.76 L367.21 120.53 L367.13 120.30 L367.06 120.06 L366.98 119.83 L366.90 119.59 L366.81 119.35 L366.72 119.12 L366.63 118.88 L366.54 118.64 L366.44 118.40 L366.35 118.17 L366.24 117.93 L366.14 117.69 L366.03 117.45 L365.92 117.21 L365.81 116.98 L365.69 116.74 L365.57 116.50 L365.45 116.26 L365.32 116.02 L365.20 115.78 L365.06 115.55 L364.93 115.31 L364.79 115.07 L364.65 114.83 L364.51 114.60 L364.36 114.36 L364.21 114.12 L364.06 113.89 L363.90 113.65 L363.74 113.42 L363.58 113.18 L363.42 112.95 L363.25 112.71 L363.08 112.48 L362.90 112.25 L362.73 112.02 L362.55 111.79 L362.36 111.56 L362.18 111.33 L361.99 111.10 L361.79 110.87 L361.60 110.65 L361.40 110.42 L361.19 110.20 L360.99 109.97 L360.78 109.75 L360.57 109.53 L360.35 109.31 L360.14 109.09 L359.91 108.87 L359.69 108.66 L359.46 108.44 L359.23 108.23 L359.00 108.02 L358.76 107.81 L358.52 107.60 L358.28 107.39 L358.03 107.19 L357.79 106.98 L357.53 106.78 L357.28 106.58 L357.02 106.38 L356.76 106.18 L356.50 105.99 L356.23 105.80 L355.96 105.60 L355.69 105.41 L355.41 105.23 L355.13 105.04 L354.85 104.86 L354.56 104.68 L354.28 104.50 L353.99 104.32 L353.69 104.15 L353.40 103.97 L353.10 103.80 L352.79 103.64 L352.49 103.47 L352.18 103.31 L351.87 103.15 L351.56 102.99 L351.24 102.84 L350.92 102.68 L350.60 102.53 L350.28 102.39 L349.95 102.24 L349.62 102.10 L349.29 101.96 L348.96 101.83 L348.62 101.69 L348.28 101.56 L347.94 101.43 L347.59 101.31 L347.25 101.19 L346.90 101.07 L346.55 100.95 L346.19 100.84 L345.83 100.73 L345.48 100.63 L345.11 100.52 L344.75 100.43 L344.39 100.33 L344.02 100.24 L343.65 100.15 L343.27 100.06 L342.90 99.98 L342.52 99.90 L342.15 99.83 L341.76 99.75 L341.38 99.69 L341.00 99.62 L340.61 99.56 L340.22 99.50 L339.83 99.45 L339.44 99.40 L339.05 99.35 L338.65 99.31 L338.25 99.27 L337.85 99.24 L337.45 99.21 L337.05 99.18 L336.65 99.16 L336.24 99.14 L335.84 99.12 L335.43 99.11 L335.02 99.11 L334.61 99.10 L334.20 99.10 L333.78 99.11 L333.37 99.12 L332.95 99.13 L332.53 99.15 L332.12 99.17 L331.70 99.20 L331.28 99.23 L330.86 99.27 L330.43 99.31 L330.01 99.35 L329.59 99.40 L329.16 99.45 L328.74 99.51 L328.31 99.57 L327.88 99.64 L327.46 99.71 L327.03 99.78 L326.60 99.86 L326.17 99.94 L325.74 100.03 L325.31 100.13 L324.88 100.22 L324.45 100.33 L324.02 100.43 L323.59 100.54 L323.16 100.66 L322.73 100.78 L322.30 100.91 L321.87 101.04 L321.43 101.17 L321.00 101.31 L320.57 101.46 L320.14 101.61 L319.71 101.76 L319.28 101.92 L318.85 102.08 L318.42 102.25 L318.00 102.42 L317.57 102.60 L317.14 102.78 L316.71 102.97 L316.29 103.16 L315.86 103.36 L315.44 103.56 L315.01 103.77 L314.59 103.98 L314.17 104.19 L313.75 104.41 L313.33 104.64 L312.91 104.87 L312.49 105.11 L312.08 105.35 L311.66 105.59 L311.25 105.84 L310.84 106.09 L310.43 106.35 L310.02 106.62 L309.61 106.89 L309.21 107.16 L308.80 107.44 L308.40 107.72 L308.00 108.01 L307.60 108.30 L307.20 108.60 L306.81 108.90 L306.41 109.21 L306.02 109.52 L305.63 109.84 L305.25 110.16 L304.86 110.49 L304.48 110.82 L304.10 111.15 L303.72 111.49 L303.35 111.84 L302.98 112.19 L302.61 112.54 L302.24 112.90 L301.88 113.26 L301.51 113.63 L301.16 114.00 L300.80 114.38 L300.45 114.76 L300.10 115.15 L299.75 115.54 L299.40 115.93 L299.06 116.33 L298.72 116.73 L298.39 117.14 L298.06 117.55 L297.73 117.97 L297.41 118.39 L297.08 118.81 L296.77 119.24 L296.45 119.68 L296.14 120.11 L295.83 120.56 L295.53 121.00 L295.23 121.45 L294.94 121.91 L294.64 122.36 L294.36 122.83 L294.07 123.29 L293.79 123.76 L293.52 124.24 L293.24 124.71 L292.98 125.20 L292.71 125.68 L292.45 126.17 L292.20 126.66 L291.95 127.16 L291.70 127.66 L291.46 128.17 L291.22 128.67 L290.99 129.18 L290.76 129.70 L290.54 130.22 L290.32 130.74 L290.10 131.26 L289.89 131.79 L289.69 132.32 L289.49 132.86 L289.30 133.40 L289.11 133.94 L288.92 134.48 L288.74 135.03 L288.57 135.58 L288.40 136.13 L288.23 136.69 L288.07 137.25 L287.92 137.81 L287.77 138.37 L287.63 138.94 L287.49 139.51 L287.36 140.08 L287.23 140.66 L287.11 141.24 L286.99 141.82 L286.88 142.40 L286.78 142.99 L286.68 143.57 L286.58 144.16 L286.50 144.75 L286.41 145.35 L286.34 145.94 L286.27 146.54 L286.20 147.14 L286.14 147.74 L286.09 148.35 L286.04 148.95 L286.00 149.56 L285.97 150.17 L285.94 150.78 L285.92 151.39 L285.90 152.01 L285.89 152.62 L285.88 153.24 L285.89 153.86 L285.89 154.48 L285.91 155.10 L285.93 155.72 L285.95 156.34 L285.99 156.97 L286.03 157.59 L286.07 158.22 L286.12 158.84 L286.18 159.47 L286.25 160.10 L286.32 160.73 L286.39 161.35 L286.48 161.98 L286.57 162.61 L286.67 163.24 L286.77 163.87 L286.88 164.51 L287.00 165.14 L287.12 165.77 L287.25 166.40 L287.38 167.03 L287.53 167.66 L287.68 168.29 L287.83 168.92 L288.00 169.55 L288.17 170.18 L288.34 170.81 L288.52 171.44 L288.71 172.07 L288.91 172.69 L289.11 173.32 L289.32 173.95 L289.54 174.57 L289.76 175.20 L289.99 175.82 L290.22 176.44 L290.47 177.06 L290.72 177.68 L290.97 178.30 L291.23 178.92 L291.50 179.53 L291.78 180.15 L292.06 180.76 L292.35 181.37 L292.65 181.98 L292.95 182.58 L293.26 183.19 L293.58 183.79 L293.90 184.39 L294.23 184.99 L294.56 185.59 L294.91 186.18 L295.26 186.78 L295.61 187.37 L295.97 187.95 L296.34 188.54 L296.72 189.12 L297.10 189.70 L297.49 190.28 L297.88 190.85 L298.28 191.42 L298.69 191.99 L299.11 192.55 L299.53 193.12 L299.95 193.68 L300.39 194.23 L300.83 194.78 L301.27 195.33 L301.73 195.88 L302.18 196.42 L302.65 196.96 L303.12 197.49 L303.60 198.02 L304.08 198.55 L304.57 199.07 L305.07 199.59 L305.57 200.10 L306.08 200.62 L306.59 201.12 L307.11 201.62 L307.64 202.12 L308.17 202.62 L308.71 203.10 L309.25 203.59 L309.80 204.07 L310.35 204.54 L310.91 205.02 L311.48 205.48 L312.05 205.94 L312.63 206.40 L313.21 206.85 L313.80 207.29 L314.40 207.74 L315.00 208.17 L315.60 208.60 L316.21 209.03 L316.83 209.45 L317.45 209.86 L318.07 210.27 L318.71 210.67 L319.34 211.07 L319.98 211.46 L320.63 211.85 L321.28 212.23 L321.94 212.60 L322.60 212.97 L323.27 213.33 L323.94 213.69 L324.61 214.04 L325.29 214.38 L325.98 214.72 L326.67 215.05 L327.36 215.38 L328.06 215.70 L328.76 216.01 L329.47 216.31 L330.18 216.61 L330.89 216.90 L331.61 217.19 L332.34 217.47 L333.06 217.74 L333.79 218.01 L334.53 218.27 L335.27 218.52 L336.01 218.76 L336.76 219.00 L337.51 219.23 L338.26 219.45 L339.02 219.67 L339.78 219.88 L340.54 220.08 L341.31 220.27 L342.08 220.46 L342.85 220.64 L343.63 220.81 L344.41 220.98 L345.19 221.13 L345.97 221.28 L346.76 221.43 L347.55 221.56 L348.34 221.69 L349.14 221.80 L349.94 221.92 L350.74 222.02 L351.54 222.11 L352.34 222.20 L353.15 222.28 L353.96 222.35 L354.77 222.42 L355.58 222.47 L356.40 222.52 L357.21 222.56 L358.03 222.59 L358.85 222.61 L359.67 222.63 L360.49 222.63 L361.32 222.63 L362.14 222.62 L362.97 222.61 L363.80 222.58 L364.63 222.54 L365.45 222.50 L366.28 222.45 L367.12 222.39 L367.95 222.32 L368.78 222.25 L369.61 222.16 L370.44 222.07 L371.28 221.96 L372.11 221.85 L372.94 221.74 L373.78 221.61 L374.61 221.47 L375.45 221.33 L376.28 221.17 L377.11 221.01 L377.95 220.84 L378.78 220.66 L379.61 220.47 L380.44 220.28 L381.27 220.07 L382.10 219.86 L382.93 219.64 L383.76 219.41 L384.58 219.17 L385.41 218.92 L386.23 218.66 L387.06 218.40 L387.88 218.13 L388.70 217.84 L389.51 217.55 L390.33 217.25 L391.15 216.94 L391.96 216.63 L392.77 216.30 L393.58 215.97 L394.38 215.62 L395.19 215.27 L395.99 214.91 L396.79 214.54 L397.59 214.17 L398.38 213.78 L399.17 213.39 L399.96 212.99 L400.75 212.58 L401.53 212.16 L402.31 211.73 L403.08 211.29 L403.86 210.85 L404.63 210.39 L405.39 209.93 L406.16 209.46 L406.92 208.99 L407.67 208.50 L408.42 208.00 L409.17 207.50 L409.92 206.99 L410.66 206.47 L411.39 205.94 L412.12 205.41 L412.85 204.87 L413.57 204.31 L414.29 203.76 L415.00 203.19 L415.71 202.61 L416.42 202.03 L417.12 201.44 L417.81 200.84 L418.50 200.23 L419.18 199.62 L419.86 199.00 L420.54 198.37 L421.20 197.73 L421.87 197.08 L422.52 196.43 L423.18 195.77 L423.82 195.10 L424.46 194.43 L425.09 193.75 L425.72 193.06 L426.35 192.36 L426.96 191.66 L427.57 190.95 L428.17 190.23 L428.77 189.50 L429.36 188.77 L429.95 188.03 L430.52 187.29 L431.09 186.54 L431.66 185.78 L432.22 185.01 L432.77 184.24 L433.31 183.46 L433.84 182.67 L434.37 181.88 L434.90 181.08 L435.41 180.28 L435.92 179.47 L436.42 178.65 L436.91 177.83 L437.39 177.00 L437.87 176.17 L438.34 175.33 L438.80 174.48 L439.25 173.63 L439.70 172.77 L440.14 171.91 L440.57 171.04 L440.99 170.16 L441.40 169.28 L441.81 168.40 L442.20 167.51 L442.59 166.61 L442.97 165.71 L443.34 164.81 L443.70 163.90 L444.06 162.98 L444.40 162.06 L444.74 161.14 L445.07 160.21 L445.38 159.27 L445.69 158.34 L446.00 157.39 L446.29 156.45 L446.57 155.50 L446.84 154.54 L447.11 153.58 L447.36 152.62 L447.61 151.66 L447.84 150.69 L448.07 149.71 L448.29 148.74 L448.50 147.76 L448.69 146.77 L448.88 145.79 L449.06 144.80 L449.23 143.80 L449.39 142.81 L449.54 141.81 L449.68 140.81 L449.81 139.80 L449.93 138.80 L450.04 137.79 L450.14 136.78 L450.23 135.76 L450.31 134.75 L450.38 133.73 L450.44 132.71 L450.49 131.69 L450.53 130.66 L450.56 129.64 L450.58 128.61 L450.59 127.58 L450.59 126.55 L450.58 125.52 L450.56 124.49 L450.53 123.46 L450.48 122.42 L450.43 121.39 L450.37 120.35 L450.29 119.32 L450.21 118.28 L450.12 117.24 L450.01 116.21 L449.89 115.17 L449.77 114.13 L449.63 113.09 L449.48 112.06 L449.33 111.02 L449.16 109.98 L448.98 108.94 L448.79 107.91 L448.59 106.87 L448.38 105.84 L448.16 104.81 L447.92 103.77 L447.68 102.74 L447.43 101.71 L447.17 100.68 L446.89 99.65 L446.61 98.63 L446.31 97.60 L446.00 96.58 L445.69 95.56 L445.36 94.54 L445.02 93.52 L444.67 92.51 L444.31 91.50 L443.94 90.49 L443.56 89.48 L443.17 88.48 L442.77 87.47 L442.36 86.47 L441.94 85.48 L441.50 84.49 L441.06 83.50 L440.61 82.51 L440.14 81.53 L439.67 80.55 L439.18 79.57 L438.69 78.60 L438.18 77.63 L437.67 76.66 L437.14 75.70 L436.60 74.75 L436.06 73.80 L435.50 72.85 L434.93 71.90 L434.36 70.97 L433.77 70.03 L433.17 69.10 L432.57 68.18 L431.95 67.26 L431.32 66.35 L430.69 65.44 L430.04 64.53 L429.39 63.64 L428.72 62.74 L428.04 61.86 L427.36 60.98 L426.66 60.10 L425.96 59.23 L425.25 58.37 L424.52 57.51 L423.79 56.66 L423.05 55.82 L422.30 54.98 L421.54 54.15 L420.77 53.32 L419.99 52.51 L419.20 51.69 L418.40 50.89 L417.60 50.09 L416.78 49.30 L415.96 48.52 L415.13 47.75 L414.29 46.98 L413.44 46.22 L412.58 45.47 L411.71 44.72 L410.84 43.99 L409.95 43.26 L409.06 42.54 L408.16 41.83 L407.26 41.12 L406.34 40.43 L405.42 39.74 L404.48 39.06 L403.55 38.39 L402.60 37.73 L401.64 37.07 L400.68 36.43 L399.71 35.80 L398.73 35.17 L397.75 34.55 L396.76 33.94 L395.76 33.35 L394.75 32.76 L393.74 32.18 L392.72 31.61 L391.69 31.05 L390.66 30.49 L389.62 29.95 L388.57 29.42 L387.52 28.90 L386.46 28.39 L385.39 27.89 L384.32 27.40 L383.24 26.92 L382.16 26.45 L381.07 25.98 L379.98 25.53 L378.87 25.10 L377.77 24.67 L376.66 24.25 L375.54 23.84 L374.42 23.44 L373.29 23.06 L372.16 22.68 L371.02 22.32 L369.87 21.96 L368.73 21.62 L367.58 21.29 L366.42 20.97 L365.26 20.66 L364.09 20.37 L362.92 20.08 L361.75 19.81 L360.57 19.54 L359.39 19.29 L358.21 19.05 L357.02 18.82 L355.82 18.61 L354.63 18.40 L353.43 18.21 L352.23 18.03 L351.02 17.86 L349.81 17.70 L348.60 17.55 L347.39 17.42 L346.17 17.30 L344.96 17.19 L343.73 17.09 L342.51 17.01 L341.29 16.93 L340.06 16.87 L338.83 16.82 L337.60 16.79 L336.37 16.76 L335.13 16.75 L333.90 16.75 L332.66 16.76 L331.42 16.79 L330.18 16.82 L328.94 16.87 L327.70 16.94 L326.46 17.01 L325.22 17.10 L323.98 17.20 L322.74 17.31 L321.50 17.44 L320.25 17.57 L319.01 17.72 L317.77 17.89 L316.53 18.06 L315.29 18.25 L314.05 18.45 L312.81 18.66 L311.57 18.89 L310.33 19.13 L309.10 19.38 L307.86 19.64 L306.63 19.92 L305.39 20.21 L304.16 20.51 L302.94 20.82 L301.71 21.15 L300.48 21.49 L299.26 21.84 L298.04 22.20 L296.82 22.58 L295.61 22.97 L294.40 23.37 L293.19 23.79 L291.98 24.21 L290.78 24.65 L289.58 25.11 L288.38 25.57 L287.19 26.05 L286.00 26.54 L284.81 27.04 L283.63 27.55 L282.45 28.08 L281.28 28.62 L280.11 29.17 L278.94 29.73 L277.78 30.31 L276.62 30.89 L275.47 31.49 L274.33 32.11 L273.18 32.73 L272.05 33.37 L270.92 34.01 L269.79 34.67 L268.67 35.35 L267.56 36.03 L266.45 36.72 L265.35 37.43 L264.25 38.15 L263.16 38.88 L262.07 39.62 L261.00 40.38 L259.92 41.14 L258.86 41.92 L257.80 42.71 L256.75 43.51 L255.71 44.32 L254.67 45.14 L253.64 45.97 L252.62 46.82 L251.60 47.67 L250.60 48.54 L249.60 49.41 L248.60 50.30 L247.62 51.20 L246.65 52.11 L245.68 53.03 L244.72 53.96 L243.77 54.90 L242.83 55.85 L241.89 56.81 L240.97 57.79 L240.05 58.77 L239.14 59.76 L238.25 60.76 L237.36 61.77 L236.48 62.80 L235.61 63.83 L234.75 64.87 L233.90 65.92 L233.06 66.98 L232.23 68.05 L231.40 69.13 L230.59 70.22 L229.79 71.31 L229.00 72.42 L228.22 73.54 L227.45 74.66 L226.69 75.79 L225.94 76.93 L225.21 78.08 L224.48 79.24 L223.76 80.41 L223.06 81.58 L222.36 82.77 L221.68 83.96 L221.01 85.16 L220.35 86.36 L219.70 87.58 L219.06 88.80 L218.44 90.03 L217.82 91.27 L217.22 92.51 L216.63 93.76 L216.05 95.02 L215.49 96.29 L214.93 97.56 L214.39 98.84 L213.86 100.12 L213.35 101.41 L212.84 102.71 L212.35 104.02 L211.87 105.33 L211.40 106.64 L210.95 107.97 L210.51 109.29 L210.08 110.63 L209.67 111.97 L209.26 113.31 L208.88 114.66 L208.50 116.01 L208.14 117.37 L207.79 118.74 L207.45 120.11 L207.13 121.48 L206.82 122.86 L206.53 124.24 L206.24 125.63 L205.98 127.02 L205.72 128.41 L205.48 129.81 L205.25 131.21 L205.04 132.62 L204.84 134.03 L204.65 135.44 L204.48 136.85 L204.33 138.27 L204.18 139.69 L204.05 141.12 L203.94 142.54 L203.84 143.97 L203.75 145.40 L203.68 146.83 L203.62 148.27 L203.58 149.71 L203.55 151.14 L203.53 152.58 L203.53 154.03 L203.54 155.47 L203.57 156.91 L203.61 158.36 L203.67 159.80 L203.74 161.25 L203.83 162.69 L203.93 164.14 L204.04 165.59 L204.17 167.03 L204.32 168.48 L204.48 169.93 L204.65 171.37 L204.84 172.82 L205.04 174.27 L205.26 175.71 L205.49 177.15 L205.74 178.60 L206.00 180.04 L206.28 181.48 L206.57 182.92 L206.87 184.35 L207.19 185.79 L207.53 187.22 L207.88 188.65 L208.24 190.08 L208.62 191.50 L209.01 192.93 L209.42 194.35 L209.84 195.77 L210.28 197.18 L210.73 198.59 L211.19 200.00 L211.67 201.40 L212.17 202.81 L212.68 204.20 L213.20 205.60 L213.74 206.98 L214.29 208.37 L214.86 209.75 L215.44 211.13 L216.03 212.50 L216.64 213.86 L217.27 215.23 L217.90 216.58 L218.56 217.93 L219.22 219.28 L219.90 220.62 L220.60 221.95 L221.30 223.28 L222.03 224.60 L222.76 225.92 L223.51 227.23 L224.27 228.54 L225.05 229.83 L225.84 231.12 L226.64 232.41 L227.46 233.68 L228.29 234.95 L229.14 236.21 L229.99 237.47 L230.86 238.72 L231.75 239.96 L232.64 241.19 L233.55 242.41 L234.48 243.63 L235.41 244.83 L236.36 246.03 L237.32 247.22 L238.30 248.41 L239.28 249.58 L240.28 250.74 L241.30 251.90 L242.32 253.04 L243.36 254.18 L244.40 255.31 L245.47 256.42 L246.54 257.53 L247.62 258.63 L248.72 259.72 L249.83 260.80 L250.95 261.86 L252.08 262.92 L253.22 263.97 L254.38 265.00 L255.54 266.03 L256.72 267.04 L257.91 268.05 L259.11 269.04 L260.32 270.02 L261.54 270.99 L262.77 271.95 L264.01 272.90 L265.26 273.83 L266.53 274.75 L267.80 275.67 L269.08 276.56 L270.38 277.45 L271.68 278.33 L272.99 279.19 L274.31 280.04 L275.65 280.88 L276.99 281.70 L278.34 282.51 L279.70 283.31 L281.07 284.10 L282.45 284.87 L283.83 285.63 L285.23 286.38 L286.63 287.11 L288.04 287.83 L289.46 288.54 L290.89 289.23 L292.33 289.91 L293.78 290.58 L295.23 291.23 L296.69 291.86 L298.16 292.49 L299.63 293.10 L301.11 293.69 L302.60 294.27 L304.10 294.84 L305.60 295.39 L307.11 295.92 L308.63 296.45 L310.15 296.95 L311.68 297.44 L313.22 297.92 L314.76 298.38 L316.30 298.83 L317.86 299.26 L319.41 299.68 L320.98 300.08 L322.55 300.47 L324.12 300.84 L325.70 301.19 L327.28 301.53 L328.87 301.86 L330.46 302.17 L332.06 302.46 L333.66 302.74 L335.27 303.00 L336.87 303.24 L338.49 303.47 L340.10 303.69 L341.72 303.88 L343.34 304.06 L344.97 304.23 L346.60 304.38 L348.23 304.51 L349.86 304.63 L351.50 304.73 L353.14 304.81 L354.78 304.88 L356.42 304.93 L358.06 304.97 L359.71 304.99 " style="fill:none;stroke:#ff0000;stroke-width:1;" /></g></svg>