0
SECTION
2
HEADER
9
$INSUNITS
70
4
9
$ACADVER
1
AC1014
9
$HANDSEED
5
FFFF
0
ENDSEC
0
SECTION
2
TABLES
0
TABLE
2
VPORT
5
8
100
AcDbSymbolTable
0
ENDTAB
0
TABLE
2
LTYPE
5
5
100
AcDbSymbolTable
0
LTYPE
5
14
100
AcDbSymbolTableRecord
100
AcDbLinetypeTableRecord
2
BYBLOCK
70
0
0
LTYPE
5
15
100
AcDbSymbolTableRecord
100
AcDbLinetypeTableRecord
2
BYLAYER
70
0
0
ENDTAB
0
TABLE
2
LAYER
5
2
100
AcDbSymbolTable
70
2
0
LAYER
5
50
100
AcDbSymbolTableRecord
100
AcDbLayerTableRecord
2
0
70
0
6
CONTINUOUS
0
ENDTAB
0
TABLE
2
STYLE
5
3
100
AcDbSymbolTable
70
1
0
STYLE
5
11
100
AcDbSymbolTableRecord
100
AcDbTextStyleTableRecord
2
STANDARD
70
0
0
ENDTAB
0
TABLE
2
VIEW
5
6
100
AcDbSymbolTable
70
0
0
ENDTAB
0
TABLE
2
UCS
5
7
100
AcDbSymbolTable
70
0
0
ENDTAB
0
TABLE
2
APPID
5
9
100
AcDbSymbolTable
70
2
0
APPID
5
12
100
AcDbSymbolTableRecord
100
AcDbRegAppTableRecord
2
ACAD
70
0
0
ENDTAB
0
TABLE
2
DIMSTYLE
5
A
100
AcDbSymbolTable
70
1
0
ENDTAB
0
TABLE
2
BLOCK_RECORD
5
1
100
AcDbSymbolTable
70
1
0
BLOCK_RECORD
5
1F
100
AcDbSymbolTableRecord
100
AcDbBlockTableRecord
2
*MODEL_SPACE
0
BLOCK_RECORD
5
1B
100
AcDbSymbolTableRecord
100
AcDbBlockTableRecord
2
*PAPER_SPACE
0
ENDTAB
0
ENDSEC
0
SECTION
2
BLOCKS
0
BLOCK
5
20
100
AcDbEntity
100
AcDbBlockBegin
2
*MODEL_SPACE
0
ENDBLK
5
21
100
AcDbEntity
100
AcDbBlockEnd
0
BLOCK
5
1C
100
AcDbEntity
100
AcDbBlockBegin
2
*PAPER_SPACE
0
ENDBLK
5
1D
100
AcDbEntity
100
AcDbBlockEnd
0
ENDSEC
0
SECTION
2
ENTITIES
0
LWPOLYLINE
5
100
100
AcDbEntity
8
0
100
AcDbPolyline
90
8
70
1
43
0.0
10
-287.49999999998903
20
529.50000000000296
42
-0.41421356237309509
10
-292.49999999998903
20
534.50000000000296
10
-292.49999999998903
20
584.50000000000296
42
-0.41421356237309509
10
-287.49999999998903
20
589.50000000000296
10
-167.49999999998903
20
589.50000000000296
42
-0.41421356237309509
10
-162.49999999998903
20
584.50000000000296
10
-162.49999999998903
20
534.50000000000296
42
-0.41421356237309509
10
-167.49999999998903
20
529.50000000000296
0
LWPOLYLINE
5
101
100
AcDbEntity
8
0
100
AcDbPolyline
90
4
70
1
43
0.0
10
-182.49999999998923
20
547.00000000000296
10
-172.4999999999892
20
547.00000000000296
42
0.99999999999999989
10
-172.4999999999892
20
552.00000000000296
10
-182.49999999998923
20
552.00000000000296
42
0.99999999999999989
0
LWPOLYLINE
5
102
100
AcDbEntity
8
0
100
AcDbPolyline
90
4
70
1
43
0.0
10
-282.49999999998926
20
547.00000000000296
10
-272.49999999998926
20
547.00000000000296
42
0.99999999999999989
10
-272.49999999998926
20
552.00000000000296
10
-282.49999999998926
20
552.00000000000296
42
0.99999999999999989
0
LWPOLYLINE
5
103
100
AcDbEntity
8
0
100
AcDbPolyline
90
4
70
1
43
0.0
10
-172.4999999999892
20
572.00000000000296
42
-0.99999999999999989
10
-172.4999999999892
20
567.00000000000296
10
-182.49999999998923
20
567.00000000000296
42
-0.99999999999999989
10
-182.49999999998923
20
572.00000000000296
0
LWPOLYLINE
5
104
100
AcDbEntity
8
0
100
AcDbPolyline
90
4
70
1
43
0.0
10
-282.49999999998926
20
567.00000000000296
10
-272.49999999998926
20
567.00000000000296
42
0.99999999999999989
10
-272.49999999998926
20
572.00000000000296
10
-282.49999999998926
20
572.00000000000296
42
0.99999999999999989
0
CIRCLE
5
105
100
AcDbEntity
8
0
100
AcDbCircle
10
-203.92999999998915
20
583.07000000000301
30
9.321938255652461e-14
40
5.0000000000000098
0
CIRCLE
5
106
100
AcDbEntity
8
0
100
AcDbCircle
10
-203.92999999998915
20
535.93000000000302
30
9.321938255652461e-14
40
5.0000000000000098
0
CIRCLE
5
107
100
AcDbEntity
8
0
100
AcDbCircle
10
-251.06999999998922
20
583.07000000000301
30
-9.3219382556524736e-14
40
5.0000000000000098
0
CIRCLE
5
108
100
AcDbEntity
8
0
100
AcDbCircle
10
-251.06999999998922
20
535.93000000000302
30
-9.3219382556524736e-14
40
5.0000000000000098
0
CIRCLE
5
109
100
AcDbEntity
8
0
100
AcDbCircle
10
-227.49999999998917
20
559.50000000000296
30
0
40
20
0
CIRCLE
5
110
100
AcDbEntity
8
0
100
AcDbCircle
10
-203.92999999998921
20
583.07000000000301
30
-3.9351511988917789e-17
40
2
0
CIRCLE
5
111
100
AcDbEntity
8
0
100
AcDbCircle
10
-251.06999999998922
20
583.07000000000301
30
3.9351511988412918e-17
40
2
0
CIRCLE
5
112
100
AcDbEntity
8
0
100
AcDbCircle
10
-251.06999999998922
20
535.93000000000302
30
3.9351511988412918e-17
40
2
0
CIRCLE
5
113
100
AcDbEntity
8
0
100
AcDbCircle
10
-203.92999999998915
20
535.93000000000302
30
-3.9351511988412918e-17
40
2
0
LWPOLYLINE
5
114
100
AcDbEntity
8
0
100
AcDbPolyline
90
8
70
1
43
0.0
10
-287.49999999998903
20
529.50000000000296
42
-0.41421356237310125
10
-292.49999999998903
20
534.50000000000296
10
-292.49999999998897
20
584.50000000000296
42
-0.41421356237310125
10
-287.49999999998903
20
589.50000000000296
10
-167.49999999998903
20
589.50000000000296
42
-0.41421356237310125
10
-162.49999999998903
20
584.50000000000296
10
-162.49999999998906
20
534.50000000000296
42
-0.41421356237310125
10
-167.49999999998903
20
529.50000000000296
0
CIRCLE
5
115
100
AcDbEntity
8
0
100
AcDbCircle
10
-203.92999999998915
20
583.07000000000301
30
0
40
5.0000000000000098
0
CIRCLE
5
116
100
AcDbEntity
8
0
100
AcDbCircle
10
-203.92999999998915
20
535.93000000000302
30
0
40
5.0000000000000098
0
CIRCLE
5
117
100
AcDbEntity
8
0
100
AcDbCircle
10
-251.06999999998922
20
583.07000000000301
30
0
40
5.0000000000000098
0
CIRCLE
5
118
100
AcDbEntity
8
0
100
AcDbCircle
10
-251.06999999998922
20
535.93000000000302
30
0
40
5.0000000000000098
0
LWPOLYLINE
5
119
100
AcDbEntity
8
0
100
AcDbPolyline
90
4
70
1
43
0.0
10
-182.49999999998923
20
547.00000000000296
10
-172.4999999999892
20
547.00000000000296
42
0.99999999999999989
10
-172.4999999999892
20
552.00000000000296
10
-182.49999999998923
20
552.00000000000296
42
0.99999999999999989
0
LWPOLYLINE
5
120
100
AcDbEntity
8
0
100
AcDbPolyline
90
4
70
1
43
0.0
10
-282.49999999998926
20
547.00000000000296
10
-272.49999999998926
20
547.00000000000296
42
0.99999999999999989
10
-272.49999999998926
20
552.00000000000296
10
-282.49999999998926
20
552.00000000000296
42
0.99999999999999989
0
LWPOLYLINE
5
121
100
AcDbEntity
8
0
100
AcDbPolyline
90
4
70
1
43
0.0
10
-172.4999999999892
20
572.00000000000296
42
-0.99999999999999989
10
-172.4999999999892
20
567.00000000000296
10
-182.49999999998923
20
567.00000000000296
42
-0.99999999999999989
10
-182.49999999998923
20
572.00000000000296
0
CIRCLE
5
122
100
AcDbEntity
8
0
100
AcDbCircle
10
-227.49999999998917
20
559.50000000000296
30
0
40
20
0
LWPOLYLINE
5
123
100
AcDbEntity
8
0
100
AcDbPolyline
90
4
70
1
43
0.0
10
-282.49999999998926
20
567.00000000000296
10
-272.49999999998926
20
567.00000000000296
42
0.99999999999999989
10
-272.49999999998926
20
572.00000000000296
10
-282.49999999998926
20
572.00000000000296
42
0.99999999999999989
0
ENDSEC
0
SECTION
2
OBJECTS
0
DICTIONARY
5
C
100
AcDbDictionary
3
ACAD_GROUP
350
D
3
ACAD_MLINESTYLE
350
17
0
DICTIONARY
5
D
100
AcDbDictionary
0
DICTIONARY
5
1A
330
C
100
AcDbDictionary
0
DICTIONARY
5
17
100
AcDbDictionary
0
ENDSEC
0
EOF
