  0
SECTION
  2
HEADER
  9
$ACADVER
  1
AC1009
  9
$INSBASE
 10
0.0
 20
0.0
 30
0.0
  9
$EXTMIN
 10
0.0
 20
0.0
 30
0.0
  9
$EXTMAX
 10
0.0
 20
0.0
 30
0.0
  0
ENDSEC
  0
SECTION
  2
TABLES
  0
TABLE
  2
VPORT
 70
0
  0
ENDTAB
  0
TABLE
  2
LTYPE
 70
1
  0
LTYPE
  2
CONTINUOUS
 70
0
  3
Solid line
 72
65
 73
0
 40
0.0
  0
ENDTAB
  0
TABLE
  2
LAYER
 70
1
  0
LAYER
  2
0
 70
64
 62
7
  6
continuous
  0
ENDTAB
  0
TABLE
  2
STYLE
 70
1
  0
STYLE
  2
STANDARD
 70
0
 40
0
 41
1.0
 50
0.0
 71
0
 42
1
 3
ARIAL.TTF
 4

  0
ENDTAB
  0
TABLE
  2
VIEW
 70
0
  0
ENDTAB
  0
ENDSEC
  0
SECTION
  2
BLOCKS
  0
BLOCK
  8
0
  2
SHAPE2DVIEW
 70
0
 10
0.0
 20
0.0
 30
0.0
  3
SHAPE2DVIEW
  0
LINE
  8
0
 62
0
 10
77.0
 20
13.0
 30
0.0
 11
77.0
 21
-26.0
 31
0.0
  0
ARC
  8
0
 62
0
 10
74.0
 20
13.0
 30
0.0
 40
3.0
 50
-0.0
 51
90.0
  0
ARC
  8
0
 62
0
 10
74.0
 20
-26.0
 30
0.0
 40
3.0
 50
-90.0
 51
-0.0
  0
LINE
  8
0
 62
0
 10
60.0
 20
16.0
 30
0.0
 11
74.0
 21
16.0
 31
0.0
  0
LINE
  8
0
 62
0
 10
53.0
 20
16.0
 30
0.0
 11
60.0
 21
16.0
 31
0.0
  0
LINE
  8
0
 62
0
 10
60.0
 20
-29.0
 30
0.0
 11
74.0
 21
-29.0
 31
0.0
  0
LINE
  8
0
 62
0
 10
53.0
 20
-29.0
 30
0.0
 11
60.0
 21
-29.0
 31
0.0
  0
ARC
  8
0
 62
0
 10
53.0
 20
13.0
 30
0.0
 40
3.0
 50
90.0
 51
-180.0
  0
ARC
  8
0
 62
0
 10
53.0
 20
-26.0
 30
0.0
 40
3.0
 50
-180.0
 51
-90.0
  0
LINE
  8
0
 62
0
 10
50.0
 20
13.0
 30
0.0
 11
50.0
 21
-26.0
 31
0.0
  0
ARC
  8
0
 62
0
 10
55.0
 20
-14.0
 30
0.0
 40
2.0
 50
-0.0
 51
-180.0
  0
LINE
  8
0
 62
0
 10
57.0
 20
-14.0
 30
0.0
 11
57.0
 21
-24.0
 31
0.0
  0
ARC
  8
0
 62
0
 10
55.0
 20
-24.0
 30
0.0
 40
2.0
 50
-180.0
 51
-0.0
  0
LINE
  8
0
 62
0
 10
53.0
 20
-14.0
 30
0.0
 11
53.0
 21
-24.0
 31
0.0
  0
CIRCLE
  8
0
 62
0
 10
70.5
 20
-14.5
 30
0.0
 40
1.55
  0
CIRCLE
  8
0
 62
0
 10
70.5
 20
-23.5
 30
0.0
 40
1.55
  0
CIRCLE
  8
0
 62
0
 10
70.5
 20
0.0
 30
0.0
 40
3.1
  0
LINE
  8
0
 62
0
 10
70.5
 20
-17.9
 30
0.0
 11
65.6502577388
 21
-26.3
 31
0.0
  0
LINE
  8
0
 62
0
 10
65.6502577388
 20
-26.3
 30
0.0
 11
75.3497422612
 21
-26.3
 31
0.0
  0
LINE
  8
0
 62
0
 10
75.3497422612
 20
-26.3
 30
0.0
 11
70.5
 21
-17.9
 31
0.0
  0
LINE
  8
0
 62
0
 10
65.6502577388
 20
-17.3
 30
0.0
 11
75.3497422612
 21
-17.3
 31
0.0
  0
LINE
  8
0
 62
0
 10
75.3497422612
 20
-17.3
 30
0.0
 11
70.5
 21
-8.9
 31
0.0
  0
LINE
  8
0
 62
0
 10
70.5
 20
-8.9
 30
0.0
 11
65.6502577388
 21
-17.3
 31
0.0
  0
LINE
  8
0
 62
0
 10
60.0
 20
16.0
 30
0.0
 11
60.0
 21
-29.0
 31
0.0
  0
LINE
  8
0
 62
0
 10
70.5
 20
-8.9
 30
0.0
 11
65.6502577388
 21
-17.3
 31
0.0
  0
LINE
  8
0
 62
0
 10
75.3497422612
 20
-17.3
 30
0.0
 11
70.5
 21
-8.9
 31
0.0
  0
LINE
  8
0
 62
0
 10
70.5
 20
-17.9
 30
0.0
 11
65.6502577388
 21
-26.3
 31
0.0
  0
LINE
  8
0
 62
0
 10
77.0
 20
13.0
 30
0.0
 11
77.0
 21
-26.0
 31
0.0
  0
ARC
  8
0
 62
0
 10
74.0
 20
13.0
 30
0.0
 40
3.0
 50
-0.0
 51
90.0
  0
ARC
  8
0
 62
0
 10
74.0
 20
-26.0
 30
0.0
 40
3.0
 50
-90.0
 51
-0.0
  0
LINE
  8
0
 62
0
 10
74.0
 20
16.0
 30
0.0
 11
53.0
 21
16.0
 31
0.0
  0
LINE
  8
0
 62
0
 10
74.0
 20
-29.0
 30
0.0
 11
53.0
 21
-29.0
 31
0.0
  0
ARC
  8
0
 62
0
 10
53.0
 20
13.0
 30
0.0
 40
3.0
 50
90.0
 51
-180.0
  0
ARC
  8
0
 62
0
 10
53.0
 20
-26.0
 30
0.0
 40
3.0
 50
-180.0
 51
-90.0
  0
LINE
  8
0
 62
0
 10
50.0
 20
13.0
 30
0.0
 11
50.0
 21
-26.0
 31
0.0
  0
ARC
  8
0
 62
0
 10
55.0
 20
-14.0
 30
0.0
 40
2.0
 50
-0.0
 51
-180.0
  0
LINE
  8
0
 62
0
 10
57.0
 20
-24.0
 30
0.0
 11
57.0
 21
-14.0
 31
0.0
  0
ARC
  8
0
 62
0
 10
55.0
 20
-24.0
 30
0.0
 40
2.0
 50
-180.0
 51
-0.0
  0
LINE
  8
0
 62
0
 10
53.0
 20
-24.0
 30
0.0
 11
53.0
 21
-14.0
 31
0.0
  0
CIRCLE
  8
0
 62
0
 10
70.5
 20
-14.5
 30
0.0
 40
1.55
  0
CIRCLE
  8
0
 62
0
 10
70.5
 20
-23.5
 30
0.0
 40
1.55
  0
CIRCLE
  8
0
 62
0
 10
70.5
 20
-1.7763568394e-15
 30
0.0
 40
3.1
  0
LINE
  8
0
 62
0
 10
60.0
 20
16.0
 30
0.0
 11
60.0
 21
-29.0
 31
0.0
  0
LINE
  8
0
 62
0
 10
65.6502577388
 20
-17.3
 30
0.0
 11
75.3497422612
 21
-17.3
 31
0.0
  0
LINE
  8
0
 62
0
 10
75.3497422612
 20
-26.3
 30
0.0
 11
70.5
 21
-17.9
 31
0.0
  0
LINE
  8
0
 62
0
 10
65.6502577388
 20
-26.3
 30
0.0
 11
75.3497422612
 21
-26.3
 31
0.0
  0
ENDBLK
  0
ENDSEC
  0
SECTION
  2
ENTITIES
  0
INSERT
  2
SHAPE2DVIEW
  8
0
 62
0
 10
0.0
 20
0.0
 30
0.0
  0
ENDSEC
  0
EOF
