<?xml version="1.0" standalone="no"?>
 <!DOCTYPE svg PUBLIC "-//W3C//DTD SVG 1.1//EN" 
 "http://www.w3.org/Graphics/SVG/1.1/DTD/svg11.dtd"> 
<svg xmlns="http://www.w3.org/2000/svg" version="1.1" 
    width="29.7002cm" height="21.0007cm" viewBox="0 0 116930 82680 ">
<title>SVG Picture created as nano-F.Mask.svg date 2019/03/18 12:32:55 </title>
  <desc>Picture generated by PCBNEW </desc>
<g style="fill:#000000; fill-opacity:1;stroke:#000000; stroke-opacity:1;
stroke-linecap:round; stroke-linejoin:round; "
 transform="translate(0 0) scale(1 1)">
</g>
<g style="fill:#000000; fill-opacity:0.0; 
stroke:#000000; stroke-width:-0.000393701; stroke-opacity:1; 
stroke-linecap:round; stroke-linejoin:round;">
</g>
<g style="fill:#000000; fill-opacity:0.0; 
stroke:#000000; stroke-width:393.701; stroke-opacity:1; 
stroke-linecap:round; stroke-linejoin:round;">
</g>
<g style="fill:#000000; fill-opacity:1.0; 
stroke:#000000; stroke-width:0; stroke-opacity:1; 
stroke-linecap:round; stroke-linejoin:round;">
<circle cx="59500" cy="34618.1" r="314.961" /> 
</g>
<g style="fill:#000000; fill-opacity:0.0; 
stroke:#000000; stroke-width:393.701; stroke-opacity:1; 
stroke-linecap:round; stroke-linejoin:round;">
</g>
<g style="fill:#000000; fill-opacity:1.0; 
stroke:#000000; stroke-width:0; stroke-opacity:1; 
stroke-linecap:round; stroke-linejoin:round;">
<circle cx="58281.9" cy="37750" r="314.961" /> 
</g>
<g style="fill:#000000; fill-opacity:0.0; 
stroke:#000000; stroke-width:433.071; stroke-opacity:1; 
stroke-linecap:round; stroke-linejoin:round;">
</g>
<g style="fill:#000000; fill-opacity:1.0; 
stroke:#000000; stroke-width:0; stroke-opacity:1; 
stroke-linecap:round; stroke-linejoin:round;">
<circle cx="38704.7" cy="52795.3" r="413.386" /> 
</g>
<g style="fill:#000000; fill-opacity:0.0; 
stroke:#000000; stroke-width:433.071; stroke-opacity:1; 
stroke-linecap:round; stroke-linejoin:round;">
</g>
<g style="fill:#000000; fill-opacity:1.0; 
stroke:#000000; stroke-width:0; stroke-opacity:1; 
stroke-linecap:round; stroke-linejoin:round;">
<circle cx="39885.8" cy="51452.8" r="413.386" /> 
</g>
<g style="fill:#000000; fill-opacity:0.0; 
stroke:#000000; stroke-width:433.071; stroke-opacity:1; 
stroke-linecap:round; stroke-linejoin:round;">
</g>
<g style="fill:#000000; fill-opacity:1.0; 
stroke:#000000; stroke-width:0; stroke-opacity:1; 
stroke-linecap:round; stroke-linejoin:round;">
<circle cx="44401.6" cy="40169.3" r="413.386" /> 
</g>
<g style="fill:#000000; fill-opacity:0.0; 
stroke:#000000; stroke-width:433.071; stroke-opacity:1; 
stroke-linecap:round; stroke-linejoin:round;">
</g>
<g style="fill:#000000; fill-opacity:1.0; 
stroke:#000000; stroke-width:0; stroke-opacity:1; 
stroke-linecap:round; stroke-linejoin:round;">
<circle cx="38700.8" cy="39157.5" r="413.386" /> 
</g>
<g style="fill:#000000; fill-opacity:0.0; 
stroke:#000000; stroke-width:433.071; stroke-opacity:1; 
stroke-linecap:round; stroke-linejoin:round;">
</g>
<g style="fill:#000000; fill-opacity:1.0; 
stroke:#000000; stroke-width:0; stroke-opacity:1; 
stroke-linecap:round; stroke-linejoin:round;">
<circle cx="39889.8" cy="37783.5" r="413.386" /> 
</g>
<g style="fill:#000000; fill-opacity:0.0; 
stroke:#000000; stroke-width:433.071; stroke-opacity:1; 
stroke-linecap:round; stroke-linejoin:round;">
</g>
<g style="fill:#000000; fill-opacity:1.0; 
stroke:#000000; stroke-width:0; stroke-opacity:1; 
stroke-linecap:round; stroke-linejoin:round;">
<circle cx="34133.9" cy="27456.7" r="413.386" /> 
</g>
<g style="fill:#000000; fill-opacity:0.0; 
stroke:#000000; stroke-width:433.071; stroke-opacity:1; 
stroke-linecap:round; stroke-linejoin:round;">
</g>
<g style="fill:#000000; fill-opacity:1.0; 
stroke:#000000; stroke-width:0; stroke-opacity:1; 
stroke-linecap:round; stroke-linejoin:round;">
<circle cx="38830.7" cy="26047.2" r="413.386" /> 
</g>
<g style="fill:#000000; fill-opacity:0.0; 
stroke:#000000; stroke-width:433.071; stroke-opacity:1; 
stroke-linecap:round; stroke-linejoin:round;">
</g>
<g style="fill:#000000; fill-opacity:1.0; 
stroke:#000000; stroke-width:0; stroke-opacity:1; 
stroke-linecap:round; stroke-linejoin:round;">
<circle cx="39960.6" cy="24708.7" r="413.386" /> 
</g>
<g style="fill:#000000; fill-opacity:0.0; 
stroke:#000000; stroke-width:433.071; stroke-opacity:1; 
stroke-linecap:round; stroke-linejoin:round;">
</g>
<g style="fill:#000000; fill-opacity:1.0; 
stroke:#000000; stroke-width:0; stroke-opacity:1; 
stroke-linecap:round; stroke-linejoin:round;">
<circle cx="38547.2" cy="13842.5" r="413.386" /> 
</g>
<g style="fill:#000000; fill-opacity:0.0; 
stroke:#000000; stroke-width:433.071; stroke-opacity:1; 
stroke-linecap:round; stroke-linejoin:round;">
</g>
<g style="fill:#000000; fill-opacity:1.0; 
stroke:#000000; stroke-width:0; stroke-opacity:1; 
stroke-linecap:round; stroke-linejoin:round;">
<circle cx="38515.7" cy="16051.2" r="413.386" /> 
</g>
<g style="fill:#000000; fill-opacity:1.0; 
stroke:#000000; stroke-width:39.3701; stroke-opacity:1; 
stroke-linecap:round; stroke-linejoin:round;">
</g>
<g style="fill:#000000; fill-opacity:0.0; 
stroke:#000000; stroke-width:39.3701; stroke-opacity:1; 
stroke-linecap:round; stroke-linejoin:round;">
<path d="M32600 67750
L32100 67250
" />
<path d="M32600 12600
L32100 13100
" />
<path d="M63525 67250
L63025 67750
" />
<path d="M63525 13075
L63025 12575
" />
<circle cx="42500" cy="58276.1" r="1101.14" /> 
<circle cx="55675" cy="58275" r="1100" /> 
<circle cx="42475" cy="16879.5" r="1104.54" /> 
<circle cx="55700" cy="16880" r="1004.99" /> 
<path d="M32100 67250
L32100 13100
" />
<path d="M63025 67750
L32600 67750
" />
<path d="M63525 13075
L63525 67250
" />
<path d="M32600 12600
L63025 12575
" />
</g>
<g style="fill:#000000; fill-opacity:0.0; 
stroke:#000000; stroke-width:708.661; stroke-opacity:1; 
stroke-linecap:round; stroke-linejoin:round;">
<path d="M36354 66445
L35645 66445
" />
<path d="M36354 65067
L35645 65067
" />
<path d="M36354 63689
L35645 63689
" />
<path d="M36354 62311
L35645 62311
" />
<path d="M36354 60933
L35645 60933
" />
<path d="M36354 59555
L35645 59555
" />
<path d="M36354 58177
L35645 58177
" />
</g>
<g style="fill:#000000; fill-opacity:0.0; 
stroke:#000000; stroke-width:0; stroke-opacity:1; 
stroke-linecap:round; stroke-linejoin:round;">
</g>
<g style="fill:#000000; fill-opacity:1.0; 
stroke:#000000; stroke-width:0; stroke-opacity:1; 
stroke-linecap:round; stroke-linejoin:round;">
<polyline style="fill-rule:evenodd;"
points="36619,56446
36629,56447
36638,56449
36647,56453
36656,56457
36664,56462
36672,56468
36679,56474
36686,56481
36692,56489
36697,56497
36701,56506
36704,56515
36706,56524
36708,56534
36708,56544
36708,57055
36708,57065
36706,57075
36704,57084
36701,57093
36697,57102
36692,57110
36686,57118
36679,57125
36672,57131
36664,57137
36656,57142
36647,57146
36638,57150
36629,57152
36619,57153
36610,57154
35389,57154
35380,57153
35370,57152
35361,57150
35352,57146
35343,57142
35335,57137
35327,57131
35320,57125
35313,57118
35307,57110
35302,57102
35298,57093
35295,57084
35293,57075
35291,57065
35291,57055
35291,56544
35291,56534
35293,56524
35295,56515
35298,56506
35302,56497
35307,56489
35313,56481
35320,56474
35327,56468
35335,56462
35343,56457
35352,56453
35361,56449
35370,56447
35380,56446
35389,56445
36610,56445
36619,56446
" /> 
<polyline style="fill-rule:evenodd;"
points="59677,20755
59686,20757
59696,20759
59705,20763
59714,20767
59722,20772
59730,20777
59737,20784
59743,20791
59749,20799
59754,20807
59758,20816
59761,20825
59764,20834
59765,20844
59766,20853
59766,21346
59765,21355
59764,21365
59761,21374
59758,21383
59754,21392
59749,21400
59743,21408
59737,21415
59730,21422
59722,21427
59714,21432
59705,21436
59696,21440
59686,21442
59677,21444
59667,21444
59303,21444
59293,21444
59284,21442
59274,21440
59265,21436
59257,21432
59248,21427
59241,21422
59233,21415
59227,21408
59221,21400
59216,21392
59212,21383
59209,21374
59207,21365
59205,21355
59205,21346
59205,20853
59205,20844
59207,20834
59209,20825
59212,20816
59216,20807
59221,20799
59227,20791
59233,20784
59241,20777
59248,20772
59257,20767
59265,20763
59274,20759
59284,20757
59293,20755
59303,20755
59667,20755
59677,20755
" /> 
<polyline style="fill-rule:evenodd;"
points="58506,20755
58515,20757
58525,20759
58534,20763
58542,20767
58551,20772
58558,20777
58566,20784
58572,20791
58578,20799
58583,20807
58587,20816
58590,20825
58592,20834
58594,20844
58594,20853
58594,21346
58594,21355
58592,21365
58590,21374
58587,21383
58583,21392
58578,21400
58572,21408
58566,21415
58558,21422
58551,21427
58542,21432
58534,21436
58525,21440
58515,21442
58506,21444
58496,21444
58132,21444
58122,21444
58113,21442
58103,21440
58094,21436
58085,21432
58077,21427
58069,21422
58062,21415
58056,21408
58050,21400
58045,21392
58041,21383
58038,21374
58035,21365
58034,21355
58033,21346
58033,20853
58034,20844
58035,20834
58038,20825
58041,20816
58045,20807
58050,20799
58056,20791
58062,20784
58069,20777
58077,20772
58085,20767
58094,20763
58103,20759
58113,20757
58122,20755
58132,20755
58496,20755
58506,20755
" /> 
</g>
<g style="fill:#000000; fill-opacity:1.0; 
stroke:#000000; stroke-width:708.661; stroke-opacity:1; 
stroke-linecap:round; stroke-linejoin:round;">
</g>
<g style="fill:#000000; fill-opacity:0.0; 
stroke:#000000; stroke-width:708.661; stroke-opacity:1; 
stroke-linecap:round; stroke-linejoin:round;">
<path d="M36404 54195
L35695 54195
" />
<path d="M36404 52817
L35695 52817
" />
<path d="M36404 51439
L35695 51439
" />
<path d="M36404 50061
L35695 50061
" />
<path d="M36404 48683
L35695 48683
" />
<path d="M36404 47305
L35695 47305
" />
<path d="M36404 45927
L35695 45927
" />
</g>
<g style="fill:#000000; fill-opacity:0.0; 
stroke:#000000; stroke-width:0; stroke-opacity:1; 
stroke-linecap:round; stroke-linejoin:round;">
</g>
<g style="fill:#000000; fill-opacity:1.0; 
stroke:#000000; stroke-width:0; stroke-opacity:1; 
stroke-linecap:round; stroke-linejoin:round;">
<polyline style="fill-rule:evenodd;"
points="36669,44196
36679,44197
36688,44199
36697,44203
36706,44207
36714,44212
36722,44218
36729,44224
36736,44231
36742,44239
36747,44247
36751,44256
36754,44265
36756,44274
36758,44284
36758,44294
36758,44805
36758,44815
36756,44825
36754,44834
36751,44843
36747,44852
36742,44860
36736,44868
36729,44875
36722,44881
36714,44887
36706,44892
36697,44896
36688,44900
36679,44902
36669,44903
36660,44904
35439,44904
35430,44903
35420,44902
35411,44900
35402,44896
35393,44892
35385,44887
35377,44881
35370,44875
35363,44868
35357,44860
35352,44852
35348,44843
35345,44834
35343,44825
35341,44815
35341,44805
35341,44294
35341,44284
35343,44274
35345,44265
35348,44256
35352,44247
35357,44239
35363,44231
35370,44224
35377,44218
35385,44212
35393,44207
35402,44203
35411,44199
35420,44197
35430,44196
35439,44195
36660,44195
36669,44196
" /> 
</g>
<g style="fill:#000000; fill-opacity:1.0; 
stroke:#000000; stroke-width:708.661; stroke-opacity:1; 
stroke-linecap:round; stroke-linejoin:round;">
</g>
<g style="fill:#000000; fill-opacity:0.0; 
stroke:#000000; stroke-width:708.661; stroke-opacity:1; 
stroke-linecap:round; stroke-linejoin:round;">
<path d="M36404 15227
L35695 15227
" />
</g>
<g style="fill:#000000; fill-opacity:0.0; 
stroke:#000000; stroke-width:0; stroke-opacity:1; 
stroke-linecap:round; stroke-linejoin:round;">
</g>
<g style="fill:#000000; fill-opacity:1.0; 
stroke:#000000; stroke-width:0; stroke-opacity:1; 
stroke-linecap:round; stroke-linejoin:round;">
<polyline style="fill-rule:evenodd;"
points="36669,13496
36679,13497
36688,13499
36697,13503
36706,13507
36714,13512
36722,13518
36729,13524
36736,13531
36742,13539
36747,13547
36751,13556
36754,13565
36756,13574
36758,13584
36758,13594
36758,14105
36758,14115
36756,14125
36754,14134
36751,14143
36747,14152
36742,14160
36736,14168
36729,14175
36722,14181
36714,14187
36706,14192
36697,14196
36688,14200
36679,14202
36669,14203
36660,14204
35439,14204
35430,14203
35420,14202
35411,14200
35402,14196
35393,14192
35385,14187
35377,14181
35370,14175
35363,14168
35357,14160
35352,14152
35348,14143
35345,14134
35343,14125
35341,14115
35341,14105
35341,13594
35341,13584
35343,13574
35345,13565
35348,13556
35352,13547
35357,13539
35363,13531
35370,13524
35377,13518
35385,13512
35393,13507
35402,13503
35411,13499
35420,13497
35430,13496
35439,13495
36660,13495
36669,13496
" /> 
</g>
<g style="fill:#000000; fill-opacity:1.0; 
stroke:#000000; stroke-width:708.661; stroke-opacity:1; 
stroke-linecap:round; stroke-linejoin:round;">
</g>
<g style="fill:#000000; fill-opacity:0.0; 
stroke:#000000; stroke-width:708.661; stroke-opacity:1; 
stroke-linecap:round; stroke-linejoin:round;">
<path d="M42254 40495
L41545 40495
" />
<path d="M42254 39117
L41545 39117
" />
<path d="M42254 37739
L41545 37739
" />
<path d="M42254 36361
L41545 36361
" />
<path d="M42254 34983
L41545 34983
" />
<path d="M42254 33605
L41545 33605
" />
<path d="M42254 32227
L41545 32227
" />
</g>
<g style="fill:#000000; fill-opacity:0.0; 
stroke:#000000; stroke-width:0; stroke-opacity:1; 
stroke-linecap:round; stroke-linejoin:round;">
</g>
<g style="fill:#000000; fill-opacity:1.0; 
stroke:#000000; stroke-width:0; stroke-opacity:1; 
stroke-linecap:round; stroke-linejoin:round;">
<polyline style="fill-rule:evenodd;"
points="42519,30496
42529,30497
42538,30499
42547,30503
42556,30507
42564,30512
42572,30518
42579,30524
42586,30531
42592,30539
42597,30547
42601,30556
42604,30565
42606,30574
42608,30584
42608,30594
42608,31105
42608,31115
42606,31125
42604,31134
42601,31143
42597,31152
42592,31160
42586,31168
42579,31175
42572,31181
42564,31187
42556,31192
42547,31196
42538,31200
42529,31202
42519,31203
42510,31204
41289,31204
41280,31203
41270,31202
41261,31200
41252,31196
41243,31192
41235,31187
41227,31181
41220,31175
41213,31168
41207,31160
41202,31152
41198,31143
41195,31134
41193,31125
41191,31115
41191,31105
41191,30594
41191,30584
41193,30574
41195,30565
41198,30556
41202,30547
41207,30539
41213,30531
41220,30524
41227,30518
41235,30512
41243,30507
41252,30503
41261,30499
41270,30497
41280,30496
41289,30495
42510,30495
42519,30496
" /> 
</g>
<g style="fill:#000000; fill-opacity:1.0; 
stroke:#000000; stroke-width:708.661; stroke-opacity:1; 
stroke-linecap:round; stroke-linejoin:round;">
</g>
<g style="fill:#000000; fill-opacity:0.0; 
stroke:#000000; stroke-width:708.661; stroke-opacity:1; 
stroke-linecap:round; stroke-linejoin:round;">
<path d="M36404 40515
L35695 40515
" />
<path d="M36404 39137
L35695 39137
" />
<path d="M36404 37759
L35695 37759
" />
<path d="M36404 36381
L35695 36381
" />
<path d="M36404 35004
L35695 35004
" />
<path d="M36404 33626
L35695 33626
" />
<path d="M36404 32248
L35695 32248
" />
</g>
<g style="fill:#000000; fill-opacity:0.0; 
stroke:#000000; stroke-width:0; stroke-opacity:1; 
stroke-linecap:round; stroke-linejoin:round;">
</g>
<g style="fill:#000000; fill-opacity:1.0; 
stroke:#000000; stroke-width:0; stroke-opacity:1; 
stroke-linecap:round; stroke-linejoin:round;">
<polyline style="fill-rule:evenodd;"
points="36669,30516
36679,30517
36688,30520
36697,30523
36706,30527
36714,30532
36722,30538
36729,30544
36736,30551
36742,30559
36747,30567
36751,30576
36754,30585
36756,30595
36758,30604
36758,30614
36758,31126
36758,31135
36756,31145
36754,31154
36751,31163
36747,31172
36742,31180
36736,31188
36729,31195
36722,31202
36714,31207
36706,31212
36697,31217
36688,31220
36679,31222
36669,31224
36660,31224
35439,31224
35430,31224
35420,31222
35411,31220
35402,31217
35393,31212
35385,31207
35377,31202
35370,31195
35363,31188
35357,31180
35352,31172
35348,31163
35345,31154
35343,31145
35341,31135
35341,31126
35341,30614
35341,30604
35343,30595
35345,30585
35348,30576
35352,30567
35357,30559
35363,30551
35370,30544
35377,30538
35385,30532
35393,30527
35402,30523
35411,30520
35420,30517
35430,30516
35439,30515
36660,30515
36669,30516
" /> 
</g>
<g style="fill:#000000; fill-opacity:1.0; 
stroke:#000000; stroke-width:708.661; stroke-opacity:1; 
stroke-linecap:round; stroke-linejoin:round;">
</g>
<g style="fill:#000000; fill-opacity:0.0; 
stroke:#000000; stroke-width:708.661; stroke-opacity:1; 
stroke-linecap:round; stroke-linejoin:round;">
<path d="M36404 27445
L35695 27445
" />
<path d="M36404 26067
L35695 26067
" />
<path d="M36404 24689
L35695 24689
" />
<path d="M36404 23311
L35695 23311
" />
<path d="M36404 21933
L35695 21933
" />
<path d="M36404 20555
L35695 20555
" />
<path d="M36404 19177
L35695 19177
" />
</g>
<g style="fill:#000000; fill-opacity:0.0; 
stroke:#000000; stroke-width:0; stroke-opacity:1; 
stroke-linecap:round; stroke-linejoin:round;">
</g>
<g style="fill:#000000; fill-opacity:1.0; 
stroke:#000000; stroke-width:0; stroke-opacity:1; 
stroke-linecap:round; stroke-linejoin:round;">
<polyline style="fill-rule:evenodd;"
points="36669,17446
36679,17447
36688,17449
36697,17453
36706,17457
36714,17462
36722,17468
36729,17474
36736,17481
36742,17489
36747,17497
36751,17506
36754,17515
36756,17524
36758,17534
36758,17544
36758,18055
36758,18065
36756,18075
36754,18084
36751,18093
36747,18102
36742,18110
36736,18118
36729,18125
36722,18131
36714,18137
36706,18142
36697,18146
36688,18150
36679,18152
36669,18153
36660,18154
35439,18154
35430,18153
35420,18152
35411,18150
35402,18146
35393,18142
35385,18137
35377,18131
35370,18125
35363,18118
35357,18110
35352,18102
35348,18093
35345,18084
35343,18075
35341,18065
35341,18055
35341,17544
35341,17534
35343,17524
35345,17515
35348,17506
35352,17497
35357,17489
35363,17481
35370,17474
35377,17468
35385,17462
35393,17457
35402,17453
35411,17449
35420,17447
35430,17446
35439,17445
36660,17445
36669,17446
" /> 
<circle cx="42475" cy="58300" r="1771.65" /> 
</g>
<g style="fill:#000000; fill-opacity:1.0; 
stroke:#000000; stroke-width:39.3701; stroke-opacity:1; 
stroke-linecap:round; stroke-linejoin:round;">
</g>
<g style="fill:#000000; fill-opacity:1.0; 
stroke:#000000; stroke-width:0; stroke-opacity:1; 
stroke-linecap:round; stroke-linejoin:round;">
<circle cx="55700" cy="58275" r="1771.65" /> 
</g>
<g style="fill:#000000; fill-opacity:1.0; 
stroke:#000000; stroke-width:39.3701; stroke-opacity:1; 
stroke-linecap:round; stroke-linejoin:round;">
</g>
<g style="fill:#000000; fill-opacity:1.0; 
stroke:#000000; stroke-width:0; stroke-opacity:1; 
stroke-linecap:round; stroke-linejoin:round;">
<circle cx="42500" cy="16850" r="1771.65" /> 
</g>
<g style="fill:#000000; fill-opacity:1.0; 
stroke:#000000; stroke-width:39.3701; stroke-opacity:1; 
stroke-linecap:round; stroke-linejoin:round;">
</g>
<g style="fill:#000000; fill-opacity:1.0; 
stroke:#000000; stroke-width:0; stroke-opacity:1; 
stroke-linecap:round; stroke-linejoin:round;">
<circle cx="55725" cy="16850" r="1771.65" /> 
</g>
<g style="fill:#000000; fill-opacity:1.0; 
stroke:#000000; stroke-width:39.3701; stroke-opacity:1; 
stroke-linecap:round; stroke-linejoin:round;">
</g>
<g style="fill:#000000; fill-opacity:1.0; 
stroke:#000000; stroke-width:680; stroke-opacity:1; 
stroke-linecap:round; stroke-linejoin:round;">
</g>
<g style="fill:#000000; fill-opacity:0.0; 
stroke:#000000; stroke-width:680; stroke-opacity:1; 
stroke-linecap:round; stroke-linejoin:round;">
<path d="M54960 28050
L54840 28050
" />
<path d="M54960 29050
L54840 29050
" />
<path d="M54960 30050
L54840 30050
" />
<path d="M54960 31050
L54840 31050
" />
<path d="M54960 32050
L54840 32050
" />
<path d="M54960 33050
L54840 33050
" />
<path d="M54960 34050
L54840 34050
" />
<path d="M54960 35050
L54840 35050
" />
<path d="M54960 36050
L54840 36050
" />
<path d="M54960 37050
L54840 37050
" />
<path d="M54960 38050
L54840 38050
" />
<path d="M54960 39050
L54840 39050
" />
<path d="M54960 40050
L54840 40050
" />
<path d="M54960 41050
L54840 41050
" />
<path d="M54960 42050
L54840 42050
" />
<path d="M60960 28050
L60840 28050
" />
<path d="M60960 29050
L60840 29050
" />
<path d="M60960 30050
L60840 30050
" />
<path d="M60960 31050
L60840 31050
" />
<path d="M60960 32050
L60840 32050
" />
<path d="M60960 33050
L60840 33050
" />
<path d="M60960 34050
L60840 34050
" />
<path d="M60960 35050
L60840 35050
" />
<path d="M60960 36050
L60840 36050
" />
<path d="M60960 37050
L60840 37050
" />
<path d="M60960 38050
L60840 38050
" />
<path d="M60960 39050
L60840 39050
" />
<path d="M60960 40050
L60840 40050
" />
<path d="M60960 41050
L60840 41050
" />
<path d="M60960 42050
L60840 42050
" />
</g>
<g style="fill:#000000; fill-opacity:1.0; 
stroke:#000000; stroke-width:0; stroke-opacity:1; 
stroke-linecap:round; stroke-linejoin:round;">
<circle cx="38850" cy="26050" r="393.701" /> 
</g>
<g style="fill:#000000; fill-opacity:1.0; 
stroke:#000000; stroke-width:39.3701; stroke-opacity:1; 
stroke-linecap:round; stroke-linejoin:round;">
</g>
<g style="fill:#000000; fill-opacity:1.0; 
stroke:#000000; stroke-width:0; stroke-opacity:1; 
stroke-linecap:round; stroke-linejoin:round;">
<circle cx="38700" cy="39150" r="393.701" /> 
</g>
<g style="fill:#000000; fill-opacity:1.0; 
stroke:#000000; stroke-width:39.3701; stroke-opacity:1; 
stroke-linecap:round; stroke-linejoin:round;">
</g>
<g style="fill:#000000; fill-opacity:1.0; 
stroke:#000000; stroke-width:0; stroke-opacity:1; 
stroke-linecap:round; stroke-linejoin:round;">
<circle cx="38700" cy="52800" r="393.701" /> 
</g>
<g style="fill:#000000; fill-opacity:1.0; 
stroke:#000000; stroke-width:39.3701; stroke-opacity:1; 
stroke-linecap:round; stroke-linejoin:round;">
</g>
<g style="fill:#000000; fill-opacity:1.0; 
stroke:#000000; stroke-width:0; stroke-opacity:1; 
stroke-linecap:round; stroke-linejoin:round;">
<circle cx="38500" cy="16050" r="393.701" /> 
</g>
<g style="fill:#000000; fill-opacity:1.0; 
stroke:#000000; stroke-width:39.3701; stroke-opacity:1; 
stroke-linecap:round; stroke-linejoin:round;">
</g>
<g style="fill:#000000; fill-opacity:1.0; 
stroke:#000000; stroke-width:0; stroke-opacity:1; 
stroke-linecap:round; stroke-linejoin:round;">
<circle cx="39900" cy="37800" r="393.701" /> 
</g>
<g style="fill:#000000; fill-opacity:1.0; 
stroke:#000000; stroke-width:39.3701; stroke-opacity:1; 
stroke-linecap:round; stroke-linejoin:round;">
</g>
<g style="fill:#000000; fill-opacity:1.0; 
stroke:#000000; stroke-width:0; stroke-opacity:1; 
stroke-linecap:round; stroke-linejoin:round;">
<circle cx="38550" cy="13850" r="393.701" /> 
</g>
<g style="fill:#000000; fill-opacity:1.0; 
stroke:#000000; stroke-width:39.3701; stroke-opacity:1; 
stroke-linecap:round; stroke-linejoin:round;">
</g>
<g style="fill:#000000; fill-opacity:1.0; 
stroke:#000000; stroke-width:0; stroke-opacity:1; 
stroke-linecap:round; stroke-linejoin:round;">
<circle cx="39950" cy="24700" r="393.701" /> 
</g>
<g style="fill:#000000; fill-opacity:1.0; 
stroke:#000000; stroke-width:39.3701; stroke-opacity:1; 
stroke-linecap:round; stroke-linejoin:round;">
</g>
<g style="fill:#000000; fill-opacity:1.0; 
stroke:#000000; stroke-width:0; stroke-opacity:1; 
stroke-linecap:round; stroke-linejoin:round;">
<circle cx="39900" cy="51450" r="393.701" /> 
</g>
<g style="fill:#000000; fill-opacity:1.0; 
stroke:#000000; stroke-width:39.3701; stroke-opacity:1; 
stroke-linecap:round; stroke-linejoin:round;">
</g>
<g style="fill:#000000; fill-opacity:1.0; 
stroke:#000000; stroke-width:0; stroke-opacity:1; 
stroke-linecap:round; stroke-linejoin:round;">
<circle cx="58300" cy="37750" r="295.276" /> 
</g>
<g style="fill:#000000; fill-opacity:1.0; 
stroke:#000000; stroke-width:39.3701; stroke-opacity:1; 
stroke-linecap:round; stroke-linejoin:round;">
</g>
<g style="fill:#000000; fill-opacity:1.0; 
stroke:#000000; stroke-width:0; stroke-opacity:1; 
stroke-linecap:round; stroke-linejoin:round;">
<circle cx="44400" cy="40150" r="393.701" /> 
</g>
<g style="fill:#000000; fill-opacity:1.0; 
stroke:#000000; stroke-width:39.3701; stroke-opacity:1; 
stroke-linecap:round; stroke-linejoin:round;">
</g>
<g style="fill:#000000; fill-opacity:1.0; 
stroke:#000000; stroke-width:0; stroke-opacity:1; 
stroke-linecap:round; stroke-linejoin:round;">
<circle cx="34150" cy="27450" r="393.701" /> 
</g>
<g style="fill:#000000; fill-opacity:1.0; 
stroke:#000000; stroke-width:39.3701; stroke-opacity:1; 
stroke-linecap:round; stroke-linejoin:round;">
</g>
<g style="fill:#000000; fill-opacity:1.0; 
stroke:#000000; stroke-width:0; stroke-opacity:1; 
stroke-linecap:round; stroke-linejoin:round;">
<circle cx="59500" cy="34600" r="295.276" /> 
</g>
<g style="fill:#000000; fill-opacity:1.0; 
stroke:#000000; stroke-width:39.3701; stroke-opacity:1; 
stroke-linecap:round; stroke-linejoin:round;">
</g> 
</svg>
