<?xml version="1.0" standalone="no"?>
 <!DOCTYPE svg PUBLIC "-//W3C//DTD SVG 1.1//EN" 
 "http://www.w3.org/Graphics/SVG/1.1/DTD/svg11.dtd"> 
<svg xmlns="http://www.w3.org/2000/svg" version="1.1" 
    width="29.7002cm" height="21.0007cm" viewBox="0 0 116930 82680 ">
<title>SVG Picture created as nano-B.SilkS.svg date 2019/03/18 12:32:55 </title>
  <desc>Picture generated by PCBNEW </desc>
<g style="fill:#000000; fill-opacity:1;stroke:#000000; stroke-opacity:1;
stroke-linecap:round; stroke-linejoin:round; "
 transform="translate(0 0) scale(1 1)">
</g>
<g style="fill:#000000; fill-opacity:0.0; 
stroke:#000000; stroke-width:-0.000393701; stroke-opacity:1; 
stroke-linecap:round; stroke-linejoin:round;">
</g>
<g style="fill:#000000; fill-opacity:0.0; 
stroke:#000000; stroke-width:157.48; stroke-opacity:1; 
stroke-linecap:round; stroke-linejoin:round;">
<path d="M37806 59531
L37806 59081
" />
<path d="M37806 59306
L37018 59306
L37131 59231
L37206 59156
L37243 59081
" />
<path d="M37806 59868
L37018 59868
" />
<path d="M37806 60318
L37356 59981
" />
<path d="M37018 60318
L37468 59868
" />
</g>
<g style="fill:#000000; fill-opacity:0.0; 
stroke:#000000; stroke-width:118.11; stroke-opacity:1; 
stroke-linecap:round; stroke-linejoin:round;">
<path d="M57482 31367
L57820 31367
" />
<path d="M57651 31367
L57651 30776
L57707 30860
L57763 30917
L57820 30945
" />
<path d="M57117 30776
L57060 30776
L57004 30804
L56976 30832
L56948 30889
L56920 31001
L56920 31142
L56948 31254
L56976 31310
L57004 31339
L57060 31367
L57117 31367
L57173 31339
L57201 31310
L57229 31254
L57257 31142
L57257 31001
L57229 30889
L57201 30832
L57173 30804
L57117 30776
" />
<path d="M56414 30973
L56414 31367
" />
<path d="M56667 30973
L56667 31282
L56639 31339
L56582 31367
L56498 31367
L56442 31339
L56414 31310
" />
<path d="M55936 31057
L56132 31057
" />
<path d="M56132 31367
L56132 30776
L55851 30776
" />
</g>
<g style="fill:#000000; fill-opacity:0.0; 
stroke:#000000; stroke-width:157.48; stroke-opacity:1; 
stroke-linecap:round; stroke-linejoin:round;">
<path d="M48655 60186
L48580 60186
L48505 60224
L48468 60261
L48430 60336
L48393 60486
L48393 60674
L48430 60824
L48468 60899
L48505 60936
L48580 60974
L48655 60974
L48730 60936
L48768 60899
L48805 60824
L48843 60674
L48843 60486
L48805 60336
L48768 60261
L48730 60224
L48655 60186
" />
</g>
<g style="fill:#000000; fill-opacity:0.0; 
stroke:#000000; stroke-width:118.11; stroke-opacity:1; 
stroke-linecap:round; stroke-linejoin:round;">
<path d="M57326 33617
L57664 33617
" />
<path d="M57495 33617
L57495 33026
L57551 33110
L57607 33167
L57664 33195
" />
<path d="M57073 33617
L57073 33026
" />
<path d="M56735 33617
L56989 33279
" />
<path d="M56735 33026
L57073 33364
" />
</g>
<g style="fill:#000000; fill-opacity:0.0; 
stroke:#000000; stroke-width:157.48; stroke-opacity:1; 
stroke-linecap:round; stroke-linejoin:round;">
<path d="M53618 41606
L54068 41606
" />
<path d="M53843 41606
L53843 40818
L53918 40931
L53993 41006
L54068 41043
" />
<path d="M53281 41606
L53281 40818
" />
<path d="M52831 41606
L53168 41156
" />
<path d="M52831 40818
L53281 41268
" />
<path d="M53668 40466
L54118 40466
" />
<path d="M53893 40466
L53893 39679
L53968 39791
L54043 39866
L54118 39904
" />
<path d="M53331 40466
L53331 39679
" />
<path d="M52881 40466
L53218 40016
" />
<path d="M52881 39679
L53331 40128
" />
<path d="M53727 39364
L54177 39364
" />
<path d="M53952 39364
L53952 38576
L54027 38689
L54102 38764
L54177 38801
" />
<path d="M53390 39364
L53390 38576
" />
<path d="M52940 39364
L53277 38914
" />
<path d="M52940 38576
L53390 39026
" />
</g>
<g style="fill:#000000; fill-opacity:0.0; 
stroke:#000000; stroke-width:39.3701; stroke-opacity:1; 
stroke-linecap:round; stroke-linejoin:round;">
<path d="M32600 67750
L32100 67250
" />
<path d="M32600 12600
L32100 13100
" />
<path d="M63525 67250
L63025 67750
" />
<path d="M63525 13075
L63025 12575
" />
</g>
<g style="fill:#000000; fill-opacity:0.0; 
stroke:#000000; stroke-width:118.11; stroke-opacity:1; 
stroke-linecap:round; stroke-linejoin:round;">
<path d="M37962 50057
L38412 50057
" />
<path d="M38834 49635
L38834 50479
" />
<path d="M39706 50226
L39256 50057
L39706 49889
" />
<path d="M39987 50057
L40437 50057
" />
<path d="M38012 48607
L38462 48607
" />
<path d="M38884 48185
L38884 49029
" />
<path d="M39756 48776
L39306 48607
L39756 48439
" />
<path d="M40037 48607
L40487 48607
" />
<path d="M37962 46907
L38412 46907
" />
<path d="M38834 46485
L38834 47329
" />
<path d="M39706 47076
L39256 46907
L39706 46739
" />
<path d="M39987 46907
L40437 46907
" />
</g>
<g style="fill:#000000; fill-opacity:0.0; 
stroke:#000000; stroke-width:39.3701; stroke-opacity:1; 
stroke-linecap:round; stroke-linejoin:round;">
<circle cx="42500" cy="58276.1" r="1101.14" /> 
<circle cx="55675" cy="58275" r="1100" /> 
<circle cx="42475" cy="16879.5" r="1104.54" /> 
<circle cx="55700" cy="16880" r="1004.99" /> 
<path d="M32100 67250
L32100 13100
" />
<path d="M63025 67750
L32600 67750
" />
<path d="M63525 13075
L63525 67250
" />
<path d="M32600 12600
L63025 12575
" />
</g>
<g style="fill:#000000; fill-opacity:0.0; 
stroke:#000000; stroke-width:47.2441; stroke-opacity:1; 
stroke-linecap:round; stroke-linejoin:round;">
<path d="M37091 61937
L37091 61462
" />
<path d="M37808 61937
L37808 61462
" />
<path d="M58809 30491
L59283 30491
" />
<path d="M58809 31208
L59283 31208
" />
<path d="M44508 21812
L44508 22287
" />
<path d="M43791 21812
L43791 22287
" />
<path d="M59283 33750
L58809 33750
" />
<path d="M59283 33033
L58809 33033
" />
<path d="M56837 41483
L56362 41483
" />
<path d="M56837 40766
L56362 40766
" />
<path d="M56847 40383
L56373 40383
" />
<path d="M56847 39666
L56373 39666
" />
<path d="M56837 39283
L56362 39283
" />
<path d="M56837 38566
L56362 38566
" />
<path d="M45826 57926
L46706 57926
" />
<path d="M45826 59973
L45826 57926
" />
<path d="M48373 59973
L45826 59973
" />
<path d="M48373 57926
L48373 59973
" />
<path d="M47493 57926
L48373 57926
" />
<path d="M46706.3 57926.4 A393.701 393.701 0.0 0 0 47493.7 57926.4 " />
<path d="M46862 60191
L47337 60191
" />
<path d="M46862 60908
L47337 60908
" />
<path d="M44476 49361
L41760 49361
" />
<path d="M44476 50660
L41760 50660
" />
<path d="M44476 49361
L44476 50660
" />
<path d="M44476 46227
L41760 46227
" />
<path d="M44476 47526
L41760 47526
" />
<path d="M44476 46227
L44476 47526
" />
<path d="M58809 31883
L59283 31883
" />
<path d="M58809 32600
L59283 32600
" />
<path d="M44476 47827
L41760 47827
" />
<path d="M44476 49126
L41760 49126
" />
<path d="M44476 47827
L44476 49126
" />
<path d="M45562 23591
L46037 23591
" />
<path d="M45562 24308
L46037 24308
" />
<path d="M43991 33937
L43991 33462
" />
<path d="M44708 33937
L44708 33462
" />
<path d="M34037 50408
L33562 50408
" />
<path d="M34037 49691
L33562 49691
" />
<path d="M33987 36708
L33512 36708
" />
<path d="M33987 35991
L33512 35991
" />
<path d="M33987 23658
L33512 23658
" />
<path d="M33987 22941
L33512 22941
" />
<path d="M50662 59141
L51137 59141
" />
<path d="M50662 59858
L51137 59858
" />
<path d="M48673 50464
L47793 50464
" />
<path d="M48673 48416
L48673 50464
" />
<path d="M46126 48416
L48673 48416
" />
<path d="M46126 50464
L46126 48416
" />
<path d="M47006 50464
L46126 50464
" />
<path d="M47793.7 50464 A393.701 393.701 0.0 0 0 47006.3 50464 " />
<path d="M48348 63198
L47468 63198
" />
<path d="M48348 61151
L48348 63198
" />
<path d="M45801 61151
L48348 61151
" />
<path d="M45801 63198
L45801 61151
" />
<path d="M46681 63198
L45801 63198
" />
<path d="M47468.7 63198.6 A393.701 393.701 0.0 0 0 46681.3 63198.6 " />
<path d="M46126 37366
L47006 37366
" />
<path d="M46126 39414
L46126 37366
" />
<path d="M48673 39414
L46126 39414
" />
<path d="M48673 37366
L48673 39414
" />
<path d="M47793 37366
L48673 37366
" />
<path d="M47006.3 37366.8 A393.701 393.701 0.0 0 0 47793.7 37366.8 " />
<path d="M46126 35116
L47006 35116
" />
<path d="M46126 37164
L46126 35116
" />
<path d="M48673 37164
L46126 37164
" />
<path d="M48673 35116
L48673 37164
" />
<path d="M47793 35116
L48673 35116
" />
<path d="M47006.3 35116.8 A393.701 393.701 0.0 0 0 47793.7 35116.8 " />
<path d="M46126 32866
L47006 32866
" />
<path d="M46126 34914
L46126 32866
" />
<path d="M48673 34914
L46126 34914
" />
<path d="M48673 32866
L48673 34914
" />
<path d="M47793 32866
L48673 32866
" />
<path d="M47006.3 32866.8 A393.701 393.701 0.0 0 0 47793.7 32866.8 " />
<path d="M46126 30616
L47006 30616
" />
<path d="M46126 32664
L46126 30616
" />
<path d="M48673 32664
L46126 32664
" />
<path d="M48673 30616
L48673 32664
" />
<path d="M47793 30616
L48673 30616
" />
<path d="M47006.3 30616.8 A393.701 393.701 0.0 0 0 47793.7 30616.8 " />
<path d="M46126 28366
L47006 28366
" />
<path d="M46126 30414
L46126 28366
" />
<path d="M48673 30414
L46126 30414
" />
<path d="M48673 28366
L48673 30414
" />
<path d="M47793 28366
L48673 28366
" />
<path d="M47006.3 28366.8 A393.701 393.701 0.0 0 0 47793.7 28366.8 " />
<path d="M46126 46166
L47006 46166
" />
<path d="M46126 48214
L46126 46166
" />
<path d="M48673 48214
L46126 48214
" />
<path d="M48673 46166
L48673 48214
" />
<path d="M47793 46166
L48673 46166
" />
<path d="M47006.3 46166.8 A393.701 393.701 0.0 0 0 47793.7 46166.8 " />
<path d="M46126 26126
L47006 26126
" />
<path d="M46126 28173
L46126 26126
" />
<path d="M48673 28173
L46126 28173
" />
<path d="M48673 26126
L48673 28173
" />
<path d="M47793 26126
L48673 26126
" />
<path d="M47006.3 26126.4 A393.701 393.701 0.0 0 0 47793.7 26126.4 " />
<path d="M48673 44964
L47793 44964
" />
<path d="M48673 42916
L48673 44964
" />
<path d="M46126 42916
L48673 42916
" />
<path d="M46126 44964
L46126 42916
" />
<path d="M47006 44964
L46126 44964
" />
<path d="M47793.7 44964 A393.701 393.701 0.0 0 0 47006.3 44964 " />
<path d="M48673 41664
L47793 41664
" />
<path d="M48673 39616
L48673 41664
" />
<path d="M46126 39616
L48673 39616
" />
<path d="M46126 41664
L46126 39616
" />
<path d="M47006 41664
L46126 41664
" />
<path d="M47793.7 41664 A393.701 393.701 0.0 0 0 47006.3 41664 " />
<path d="M45801 53101
L46681 53101
" />
<path d="M45801 55148
L45801 53101
" />
<path d="M48348 55148
L45801 55148
" />
<path d="M48348 53101
L48348 55148
" />
<path d="M47468 53101
L48348 53101
" />
<path d="M46681.3 53101.4 A393.701 393.701 0.0 0 0 47468.7 53101.4 " />
<path d="M45826 55626
L46706 55626
" />
<path d="M45826 57673
L45826 55626
" />
<path d="M48373 57673
L45826 57673
" />
<path d="M48373 55626
L48373 57673
" />
<path d="M47493 55626
L48373 55626
" />
<path d="M46706.3 55626.4 A393.701 393.701 0.0 0 0 47493.7 55626.4 " />
<path d="M48348 66698
L47468 66698
" />
<path d="M48348 64651
L48348 66698
" />
<path d="M45801 64651
L48348 64651
" />
<path d="M45801 66698
L45801 64651
" />
<path d="M46681 66698
L45801 66698
" />
<path d="M47468.7 66698.6 A393.701 393.701 0.0 0 0 46681.3 66698.6 " />
<path d="M47077 20818
L46644 20818
" />
<path d="M47077 20712
L47077 20818
" />
<path d="M47668 20712
L47077 20712
" />
<path d="M47077 23322
L45963 23322
" />
<path d="M47077 23428
L47077 23322
" />
<path d="M47668 23428
L47077 23428
" />
<path d="M50662 55791
L51137 55791
" />
<path d="M50662 56508
L51137 56508
" />
<path d="M50662 57591
L51137 57591
" />
<path d="M50662 58308
L51137 58308
" />
<path d="M50662 53341
L51137 53341
" />
<path d="M50662 54058
L51137 54058
" />
<path d="M50662 46291
L51137 46291
" />
<path d="M50662 47008
L51137 47008
" />
<path d="M58991 44122
L58991 43648
" />
<path d="M59708 44122
L59708 43648
" />
<path d="M52790 36690
L53264 36690
" />
<path d="M52790 37407
L53264 37407
" />
<path d="M52790 35690
L53264 35690
" />
<path d="M52790 36407
L53264 36407
" />
<path d="M52790 34690
L53264 34690
" />
<path d="M52790 35407
L53264 35407
" />
<path d="M52790 33690
L53264 33690
" />
<path d="M52790 34407
L53264 34407
" />
<path d="M52790 32690
L53264 32690
" />
<path d="M52790 33407
L53264 33407
" />
<path d="M45137 51558
L44662 51558
" />
<path d="M45137 50841
L44662 50841
" />
<path d="M43787 44808
L43312 44808
" />
<path d="M43787 44091
L43312 44091
" />
<path d="M43837 42558
L43362 42558
" />
<path d="M43837 41841
L43362 41841
" />
<path d="M58812 29391
L59287 29391
" />
<path d="M58812 30108
L59287 30108
" />
<path d="M45608 21833
L45608 22307
" />
<path d="M44891 21833
L44891 22307
" />
<path d="M46037 25358
L45562 25358
" />
<path d="M46037 24641
L45562 24641
" />
<path d="M52812 32366
L53287 32366
" />
<path d="M52812 31650
L53287 31650
" />
</g>
<g style="fill:#000000; fill-opacity:0.0; 
stroke:#000000; stroke-width:118.11; stroke-opacity:1; 
stroke-linecap:round; stroke-linejoin:round;">
<path d="M37856 63493
L37481 63231
" />
<path d="M37856 63043
L37068 63043
L37068 63343
L37106 63418
L37143 63456
L37218 63493
L37331 63493
L37406 63456
L37443 63418
L37481 63343
L37481 63043
" />
<path d="M37143 63793
L37106 63831
L37068 63906
L37068 64093
L37106 64168
L37143 64206
L37218 64243
L37293 64243
L37406 64206
L37856 63756
L37856 64243
" />
<path d="M37068 64506
L37068 65031
L37856 64693
" />
<path d="M62198 31043
L62226 31071
L62310 31099
L62367 31099
L62451 31071
L62507 31015
L62535 30959
L62564 30846
L62564 30762
L62535 30650
L62507 30593
L62451 30537
L62367 30509
L62310 30509
L62226 30537
L62198 30565
" />
<path d="M61692 30509
L61804 30509
L61860 30537
L61889 30565
L61945 30650
L61973 30762
L61973 30987
L61945 31043
L61917 31071
L61860 31099
L61748 31099
L61692 31071
L61664 31043
L61635 30987
L61635 30846
L61664 30790
L61692 30762
L61748 30734
L61860 30734
L61917 30762
L61945 30790
L61973 30846
" />
<path d="M44388 20299
L44416 20271
L44444 20186
L44444 20130
L44416 20046
L44359 19989
L44303 19961
L44191 19933
L44106 19933
L43994 19961
L43938 19989
L43881 20046
L43853 20130
L43853 20186
L43881 20271
L43910 20299
" />
<path d="M43853 20833
L43853 20552
L44134 20524
L44106 20552
L44078 20608
L44078 20749
L44106 20805
L44134 20833
L44191 20861
L44331 20861
L44388 20833
L44416 20805
L44444 20749
L44444 20608
L44416 20552
L44388 20524
" />
<path d="M62679 33767
L62876 33485
" />
<path d="M63017 33767
L63017 33176
L62792 33176
L62735 33204
L62707 33232
L62679 33289
L62679 33373
L62707 33429
L62735 33457
L62792 33485
L63017 33485
" />
<path d="M62454 33232
L62426 33204
L62370 33176
L62229 33176
L62173 33204
L62145 33232
L62117 33289
L62117 33345
L62145 33429
L62482 33767
L62117 33767
" />
<path d="M61611 33176
L61723 33176
L61779 33204
L61807 33232
L61864 33317
L61892 33429
L61892 33654
L61864 33710
L61835 33739
L61779 33767
L61667 33767
L61611 33739
L61582 33710
L61554 33654
L61554 33514
L61582 33457
L61611 33429
L61667 33401
L61779 33401
L61835 33429
L61864 33457
L61892 33514
" />
<path d="M58950 41444
L59147 41163
" />
<path d="M59287 41444
L59287 40853
L59062 40853
L59006 40881
L58978 40910
L58950 40966
L58950 41050
L58978 41106
L59006 41134
L59062 41163
L59287 41163
" />
<path d="M58725 40910
L58697 40881
L58641 40853
L58500 40853
L58444 40881
L58416 40910
L58388 40966
L58388 41022
L58416 41106
L58753 41444
L58388 41444
" />
<path d="M57853 40853
L58134 40853
L58163 41134
L58134 41106
L58078 41078
L57938 41078
L57881 41106
L57853 41134
L57825 41191
L57825 41331
L57853 41388
L57881 41416
L57938 41444
L58078 41444
L58134 41416
L58163 41388
" />
<path d="M58922 40298
L59119 40017
" />
<path d="M59260 40298
L59260 39708
L59035 39708
L58979 39736
L58951 39764
L58922 39820
L58922 39904
L58951 39961
L58979 39989
L59035 40017
L59260 40017
" />
<path d="M58697 39764
L58669 39736
L58613 39708
L58473 39708
L58416 39736
L58388 39764
L58360 39820
L58360 39876
L58388 39961
L58726 40298
L58360 40298
" />
<path d="M57854 39904
L57854 40298
" />
<path d="M57994 39679
L58135 40101
L57769 40101
" />
<path d="M58848 39243
L59044 38962
" />
<path d="M59185 39243
L59185 38652
L58960 38652
L58904 38681
L58876 38709
L58848 38765
L58848 38849
L58876 38906
L58904 38934
L58960 38962
L59185 38962
" />
<path d="M58623 38709
L58595 38681
L58538 38652
L58398 38652
L58341 38681
L58313 38709
L58285 38765
L58285 38821
L58313 38906
L58651 39243
L58285 39243
" />
<path d="M58088 38652
L57723 38652
L57920 38877
L57835 38877
L57779 38906
L57751 38934
L57723 38990
L57723 39131
L57751 39187
L57779 39215
L57835 39243
L58004 39243
L58060 39215
L58088 39187
" />
<path d="M47281 57276
L47281 57754
L47253 57810
L47224 57839
L47168 57867
L47056 57867
L46999 57839
L46971 57810
L46943 57754
L46943 57276
" />
<path d="M46353 57867
L46690 57867
" />
<path d="M46521 57867
L46521 57276
L46578 57360
L46634 57417
L46690 57445
" />
<path d="M45846 57276
L45959 57276
L46015 57304
L46043 57332
L46100 57417
L46128 57529
L46128 57754
L46100 57810
L46071 57839
L46015 57867
L45903 57867
L45846 57839
L45818 57810
L45790 57754
L45790 57614
L45818 57557
L45846 57529
L45903 57501
L46015 57501
L46071 57529
L46100 57557
L46128 57614
" />
<path d="M45474 60861
L45670 60580
" />
<path d="M45811 60861
L45811 60271
L45586 60271
L45530 60299
L45502 60327
L45474 60383
L45474 60467
L45502 60524
L45530 60552
L45586 60580
L45811 60580
" />
<path d="M45249 60327
L45221 60299
L45164 60271
L45024 60271
L44967 60299
L44939 60327
L44911 60383
L44911 60439
L44939 60524
L45277 60861
L44911 60861
" />
<path d="M44686 60327
L44658 60299
L44602 60271
L44461 60271
L44405 60299
L44377 60327
L44349 60383
L44349 60439
L44377 60524
L44714 60861
L44349 60861
" />
<path d="M62579 32567
L62776 32285
" />
<path d="M62917 32567
L62917 31976
L62692 31976
L62635 32004
L62607 32032
L62579 32089
L62579 32173
L62607 32229
L62635 32257
L62692 32285
L62917 32285
" />
<path d="M62354 32032
L62326 32004
L62270 31976
L62129 31976
L62073 32004
L62045 32032
L62017 32089
L62017 32145
L62045 32229
L62382 32567
L62017 32567
" />
<path d="M61454 32567
L61792 32567
" />
<path d="M61623 32567
L61623 31976
L61679 32060
L61735 32117
L61792 32145
" />
<path d="M57931 31982
L57903 31954
L57846 31926
L57706 31926
L57649 31954
L57621 31982
L57593 32039
L57593 32095
L57621 32179
L57959 32517
L57593 32517
" />
<path d="M57368 31982
L57340 31954
L57284 31926
L57143 31926
L57087 31954
L57059 31982
L57031 32039
L57031 32095
L57059 32179
L57396 32517
L57031 32517
" />
<path d="M56665 31926
L56609 31926
L56553 31954
L56525 31982
L56496 32039
L56468 32151
L56468 32292
L56496 32404
L56525 32460
L56553 32489
L56609 32517
L56665 32517
L56721 32489
L56750 32460
L56778 32404
L56806 32292
L56806 32151
L56778 32039
L56750 31982
L56721 31954
L56665 31926
" />
<path d="M44245 24243
L44442 23962
" />
<path d="M44583 24243
L44583 23652
L44358 23652
L44302 23681
L44273 23709
L44245 23765
L44245 23849
L44273 23906
L44302 23934
L44358 23962
L44583 23962
" />
<path d="M44020 23709
L43992 23681
L43936 23652
L43795 23652
L43739 23681
L43711 23709
L43683 23765
L43683 23821
L43711 23906
L44048 24243
L43683 24243
" />
<path d="M43317 23652
L43261 23652
L43205 23681
L43177 23709
L43149 23765
L43120 23877
L43120 24018
L43149 24131
L43177 24187
L43205 24215
L43261 24243
L43317 24243
L43374 24215
L43402 24187
L43430 24131
L43458 24018
L43458 23877
L43430 23765
L43402 23709
L43374 23681
L43317 23652
" />
<path d="M47421 23688
L47365 23688
L47309 23716
L47281 23744
L47253 23800
L47224 23913
L47224 24053
L47253 24166
L47281 24222
L47309 24250
L47365 24278
L47421 24278
L47478 24250
L47506 24222
L47534 24166
L47562 24053
L47562 23913
L47534 23800
L47506 23744
L47478 23716
L47421 23688
" />
<path d="M44717 31320
L44435 31123
" />
<path d="M44717 30982
L44126 30982
L44126 31207
L44154 31264
L44182 31292
L44239 31320
L44323 31320
L44379 31292
L44407 31264
L44435 31207
L44435 30982
" />
<path d="M44717 31882
L44717 31545
" />
<path d="M44717 31714
L44126 31714
L44210 31657
L44267 31601
L44295 31545
" />
<path d="M44717 32164
L44717 32276
L44689 32332
L44660 32360
L44576 32417
L44464 32445
L44239 32445
L44182 32417
L44154 32388
L44126 32332
L44126 32220
L44154 32164
L44182 32135
L44239 32107
L44379 32107
L44435 32135
L44464 32164
L44492 32220
L44492 32332
L44464 32388
L44435 32417
L44379 32445
" />
<path d="M44076 35321
L44076 35378
L44104 35434
L44132 35462
L44189 35490
L44301 35518
L44442 35518
L44554 35490
L44610 35462
L44639 35434
L44667 35378
L44667 35321
L44639 35265
L44610 35237
L44554 35209
L44442 35181
L44301 35181
L44189 35209
L44132 35237
L44104 35265
L44076 35321
" />
<path d="M34163 49420
L34359 49139
" />
<path d="M34500 49420
L34500 48830
L34275 48830
L34219 48858
L34191 48886
L34163 48942
L34163 49026
L34191 49083
L34219 49111
L34275 49139
L34500 49139
" />
<path d="M33600 49420
L33938 49420
" />
<path d="M33769 49420
L33769 48830
L33825 48914
L33881 48970
L33938 48998
" />
<path d="M33263 49083
L33319 49055
L33347 49026
L33375 48970
L33375 48942
L33347 48886
L33319 48858
L33263 48830
L33150 48830
L33094 48858
L33066 48886
L33038 48942
L33038 48970
L33066 49026
L33094 49055
L33150 49083
L33263 49083
L33319 49111
L33347 49139
L33375 49195
L33375 49308
L33347 49364
L33319 49392
L33263 49420
L33150 49420
L33094 49392
L33066 49364
L33038 49308
L33038 49195
L33066 49139
L33094 49111
L33150 49083
" />
<path d="M33866 50708
L33810 50708
L33754 50736
L33726 50764
L33697 50820
L33669 50933
L33669 51073
L33697 51186
L33726 51242
L33754 51270
L33810 51298
L33866 51298
L33922 51270
L33951 51242
L33979 51186
L34007 51073
L34007 50933
L33979 50820
L33951 50764
L33922 50736
L33866 50708
" />
<path d="M34127 35767
L34324 35485
" />
<path d="M34465 35767
L34465 35176
L34240 35176
L34183 35204
L34155 35232
L34127 35289
L34127 35373
L34155 35429
L34183 35457
L34240 35485
L34465 35485
" />
<path d="M33565 35767
L33902 35767
" />
<path d="M33733 35767
L33733 35176
L33790 35260
L33846 35317
L33902 35345
" />
<path d="M33368 35176
L32974 35176
L33227 35767
" />
<path d="M33795 36932
L33739 36932
L33683 36960
L33655 36988
L33627 37044
L33598 37157
L33598 37298
L33627 37410
L33655 37466
L33683 37494
L33739 37523
L33795 37523
L33852 37494
L33880 37466
L33908 37410
L33936 37298
L33936 37157
L33908 37044
L33880 36988
L33852 36960
L33795 36932
" />
<path d="M34115 22629
L34312 22348
" />
<path d="M34453 22629
L34453 22038
L34228 22038
L34172 22066
L34143 22095
L34115 22151
L34115 22235
L34143 22291
L34172 22320
L34228 22348
L34453 22348
" />
<path d="M33553 22629
L33890 22629
" />
<path d="M33722 22629
L33722 22038
L33778 22123
L33834 22179
L33890 22207
" />
<path d="M33047 22038
L33159 22038
L33215 22066
L33244 22095
L33300 22179
L33328 22291
L33328 22516
L33300 22573
L33272 22601
L33215 22629
L33103 22629
L33047 22601
L33019 22573
L32991 22516
L32991 22376
L33019 22320
L33047 22291
L33103 22263
L33215 22263
L33272 22291
L33300 22320
L33328 22376
" />
<path d="M33819 23904
L33763 23904
L33706 23933
L33678 23961
L33650 24017
L33622 24129
L33622 24270
L33650 24383
L33678 24439
L33706 24467
L33763 24495
L33819 24495
L33875 24467
L33903 24439
L33931 24383
L33960 24270
L33960 24129
L33931 24017
L33903 23961
L33875 23933
L33819 23904
" />
<path d="M51273 60586
L51470 60304
" />
<path d="M51610 60586
L51610 59995
L51385 59995
L51329 60023
L51301 60051
L51273 60107
L51273 60192
L51301 60248
L51329 60276
L51385 60304
L51610 60304
" />
<path d="M50710 60586
L51048 60586
" />
<path d="M50879 60586
L50879 59995
L50935 60079
L50992 60136
L51048 60164
" />
<path d="M50485 60051
L50457 60023
L50401 59995
L50260 59995
L50204 60023
L50176 60051
L50148 60107
L50148 60164
L50176 60248
L50514 60586
L50148 60586
" />
<path d="M53553 59272
L53525 59244
L53469 59215
L53329 59215
L53272 59244
L53244 59272
L53216 59328
L53216 59384
L53244 59469
L53582 59806
L53216 59806
" />
<path d="M52991 59272
L52963 59244
L52907 59215
L52766 59215
L52710 59244
L52682 59272
L52654 59328
L52654 59384
L52682 59469
L53019 59806
L52654 59806
" />
<path d="M52288 59215
L52232 59215
L52176 59244
L52147 59272
L52119 59328
L52091 59440
L52091 59581
L52119 59694
L52147 59750
L52176 59778
L52232 59806
L52288 59806
L52344 59778
L52372 59750
L52401 59694
L52429 59581
L52429 59440
L52401 59328
L52372 59272
L52344 59244
L52288 59215
" />
<path d="M47218 51123
L47218 50645
L47246 50589
L47275 50560
L47331 50532
L47443 50532
L47500 50560
L47528 50589
L47556 50645
L47556 51123
" />
<path d="M48146 50532
L47809 50532
" />
<path d="M47978 50532
L47978 51123
L47921 51039
L47865 50982
L47809 50954
" />
<path d="M48653 50926
L48653 50532
" />
<path d="M48512 51151
L48371 50729
L48737 50729
" />
<path d="M46868 63873
L46868 63395
L46896 63339
L46925 63310
L46981 63282
L47093 63282
L47150 63310
L47178 63339
L47206 63395
L47206 63873
" />
<path d="M47796 63282
L47459 63282
" />
<path d="M47628 63282
L47628 63873
L47571 63789
L47515 63732
L47459 63704
" />
<path d="M47993 63873
L48359 63873
L48162 63648
L48246 63648
L48303 63620
L48331 63592
L48359 63535
L48359 63395
L48331 63339
L48303 63310
L48246 63282
L48078 63282
L48021 63310
L47993 63339
" />
<path d="M47681 36726
L47681 37204
L47653 37260
L47624 37289
L47568 37317
L47456 37317
L47399 37289
L47371 37260
L47343 37204
L47343 36726
" />
<path d="M46753 37317
L47090 37317
" />
<path d="M46921 37317
L46921 36726
L46978 36810
L47034 36867
L47090 36895
" />
<path d="M46528 36782
L46500 36754
L46443 36726
L46303 36726
L46246 36754
L46218 36782
L46190 36839
L46190 36895
L46218 36979
L46556 37317
L46190 37317
" />
<path d="M47581 34476
L47581 34954
L47553 35010
L47524 35039
L47468 35067
L47356 35067
L47299 35039
L47271 35010
L47243 34954
L47243 34476
" />
<path d="M46653 35067
L46990 35067
" />
<path d="M46821 35067
L46821 34476
L46878 34560
L46934 34617
L46990 34645
" />
<path d="M46090 35067
L46428 35067
" />
<path d="M46259 35067
L46259 34476
L46315 34560
L46371 34617
L46428 34645
" />
<path d="M47581 32226
L47581 32704
L47553 32760
L47524 32789
L47468 32817
L47356 32817
L47299 32789
L47271 32760
L47243 32704
L47243 32226
" />
<path d="M46653 32817
L46990 32817
" />
<path d="M46821 32817
L46821 32226
L46878 32310
L46934 32367
L46990 32395
" />
<path d="M46287 32226
L46231 32226
L46175 32254
L46146 32282
L46118 32339
L46090 32451
L46090 32592
L46118 32704
L46146 32760
L46175 32789
L46231 32817
L46287 32817
L46343 32789
L46371 32760
L46400 32704
L46428 32592
L46428 32451
L46400 32339
L46371 32282
L46343 32254
L46287 32226
" />
<path d="M47049 29976
L47049 30454
L47021 30510
L46993 30539
L46937 30567
L46824 30567
L46768 30539
L46740 30510
L46712 30454
L46712 29976
" />
<path d="M46403 30567
L46290 30567
L46234 30539
L46206 30510
L46150 30426
L46121 30314
L46121 30089
L46150 30032
L46178 30004
L46234 29976
L46346 29976
L46403 30004
L46431 30032
L46459 30089
L46459 30229
L46431 30285
L46403 30314
L46346 30342
L46234 30342
L46178 30314
L46150 30285
L46121 30229
" />
<path d="M47049 27726
L47049 28204
L47021 28260
L46993 28289
L46937 28317
L46824 28317
L46768 28289
L46740 28260
L46712 28204
L46712 27726
" />
<path d="M46346 27979
L46403 27951
L46431 27923
L46459 27867
L46459 27839
L46431 27782
L46403 27754
L46346 27726
L46234 27726
L46178 27754
L46150 27782
L46121 27839
L46121 27867
L46150 27923
L46178 27951
L46234 27979
L46346 27979
L46403 28007
L46431 28035
L46459 28092
L46459 28204
L46431 28260
L46403 28289
L46346 28317
L46234 28317
L46178 28289
L46150 28260
L46121 28204
L46121 28092
L46150 28035
L46178 28007
L46234 27979
" />
<path d="M46999 45526
L46999 46004
L46971 46060
L46943 46089
L46887 46117
L46774 46117
L46718 46089
L46690 46060
L46662 46004
L46662 45526
" />
<path d="M46437 45526
L46043 45526
L46296 46117
" />
<path d="M46999 25476
L46999 25954
L46971 26010
L46943 26039
L46887 26067
L46774 26067
L46718 26039
L46690 26010
L46662 25954
L46662 25476
" />
<path d="M46128 25476
L46240 25476
L46296 25504
L46325 25532
L46381 25617
L46409 25729
L46409 25954
L46381 26010
L46353 26039
L46296 26067
L46184 26067
L46128 26039
L46100 26010
L46071 25954
L46071 25814
L46100 25757
L46128 25729
L46184 25701
L46296 25701
L46353 25729
L46381 25757
L46409 25814
" />
<path d="M47750 45623
L47750 45145
L47778 45089
L47806 45060
L47862 45032
L47975 45032
L48031 45060
L48059 45089
L48087 45145
L48087 45623
" />
<path d="M48649 45623
L48368 45623
L48340 45342
L48368 45370
L48424 45398
L48565 45398
L48621 45370
L48649 45342
L48678 45285
L48678 45145
L48649 45089
L48621 45060
L48565 45032
L48424 45032
L48368 45060
L48340 45089
" />
<path d="M47750 42323
L47750 41845
L47778 41789
L47806 41760
L47862 41732
L47975 41732
L48031 41760
L48059 41789
L48087 41845
L48087 42323
" />
<path d="M48621 42126
L48621 41732
" />
<path d="M48481 42351
L48340 41929
L48706 41929
" />
<path d="M46749 52426
L46749 52904
L46721 52960
L46693 52989
L46637 53017
L46524 53017
L46468 52989
L46440 52960
L46412 52904
L46412 52426
" />
<path d="M46187 52426
L45821 52426
L46018 52651
L45934 52651
L45878 52679
L45850 52707
L45821 52764
L45821 52904
L45850 52960
L45878 52989
L45934 53017
L46103 53017
L46159 52989
L46187 52960
" />
<path d="M46749 54976
L46749 55454
L46721 55510
L46693 55539
L46637 55567
L46524 55567
L46468 55539
L46440 55510
L46412 55454
L46412 54976
" />
<path d="M46159 55032
L46131 55004
L46075 54976
L45934 54976
L45878 55004
L45850 55032
L45821 55089
L45821 55145
L45850 55229
L46187 55567
L45821 55567
" />
<path d="M47400 67373
L47400 66895
L47428 66839
L47456 66810
L47512 66782
L47625 66782
L47681 66810
L47709 66839
L47737 66895
L47737 67373
" />
<path d="M48328 66782
L47990 66782
" />
<path d="M48159 66782
L48159 67373
L48103 67289
L48046 67232
L47990 67204
" />
<path d="M50424 21375
L50902 21375
L50958 21403
L50987 21431
L51015 21487
L51015 21600
L50987 21656
L50958 21684
L50902 21712
L50424 21712
" />
<path d="M51015 22303
L51015 21965
" />
<path d="M51015 22134
L50424 22134
L50508 22078
L50565 22021
L50593 21965
" />
<path d="M50424 22837
L50424 22556
L50705 22528
L50677 22556
L50649 22612
L50649 22753
L50677 22809
L50705 22837
L50762 22865
L50902 22865
L50958 22837
L50987 22809
L51015 22753
L51015 22612
L50987 22556
L50958 22528
" />
<path d="M51304 57290
L51501 57009
" />
<path d="M51642 57290
L51642 56700
L51417 56700
L51361 56728
L51332 56756
L51304 56812
L51304 56897
L51332 56953
L51361 56981
L51417 57009
L51642 57009
" />
<path d="M50742 57290
L51079 57290
" />
<path d="M50911 57290
L50911 56700
L50967 56784
L51023 56840
L51079 56868
" />
<path d="M50208 56700
L50489 56700
L50517 56981
L50489 56953
L50433 56925
L50292 56925
L50236 56953
L50208 56981
L50179 57037
L50179 57178
L50208 57234
L50236 57262
L50292 57290
L50433 57290
L50489 57262
L50517 57234
" />
<path d="M53546 55906
L53517 55877
L53461 55849
L53321 55849
L53264 55877
L53236 55906
L53208 55962
L53208 56018
L53236 56102
L53574 56440
L53208 56440
" />
<path d="M52983 55906
L52955 55877
L52899 55849
L52758 55849
L52702 55877
L52674 55906
L52646 55962
L52646 56018
L52674 56102
L53011 56440
L52646 56440
" />
<path d="M52280 55849
L52224 55849
L52168 55877
L52140 55906
L52111 55962
L52083 56074
L52083 56215
L52111 56327
L52140 56384
L52168 56412
L52224 56440
L52280 56440
L52336 56412
L52365 56384
L52393 56327
L52421 56215
L52421 56074
L52393 55962
L52365 55906
L52336 55877
L52280 55849
" />
<path d="M51265 59003
L51462 58722
" />
<path d="M51602 59003
L51602 58412
L51377 58412
L51321 58440
L51293 58469
L51265 58525
L51265 58609
L51293 58665
L51321 58694
L51377 58722
L51602 58722
" />
<path d="M50703 59003
L51040 59003
" />
<path d="M50871 59003
L50871 58412
L50928 58497
L50984 58553
L51040 58581
" />
<path d="M50196 58609
L50196 59003
" />
<path d="M50337 58384
L50478 58806
L50112 58806
" />
<path d="M53569 57756
L53541 57728
L53485 57700
L53344 57700
L53288 57728
L53260 57756
L53232 57812
L53232 57868
L53260 57953
L53597 58290
L53232 58290
" />
<path d="M53007 57756
L52979 57728
L52922 57700
L52782 57700
L52726 57728
L52697 57756
L52669 57812
L52669 57868
L52697 57953
L53035 58290
L52669 58290
" />
<path d="M52304 57700
L52248 57700
L52191 57728
L52163 57756
L52135 57812
L52107 57925
L52107 58065
L52135 58178
L52163 58234
L52191 58262
L52248 58290
L52304 58290
L52360 58262
L52388 58234
L52416 58178
L52444 58065
L52444 57925
L52416 57812
L52388 57756
L52360 57728
L52304 57700
" />
<path d="M51289 54806
L51485 54525
" />
<path d="M51626 54806
L51626 54215
L51401 54215
L51345 54244
L51317 54272
L51289 54328
L51289 54412
L51317 54469
L51345 54497
L51401 54525
L51626 54525
" />
<path d="M50726 54806
L51064 54806
" />
<path d="M50895 54806
L50895 54215
L50951 54300
L51007 54356
L51064 54384
" />
<path d="M50529 54215
L50164 54215
L50361 54440
L50276 54440
L50220 54469
L50192 54497
L50164 54553
L50164 54694
L50192 54750
L50220 54778
L50276 54806
L50445 54806
L50501 54778
L50529 54750
" />
<path d="M53522 53504
L53494 53476
L53438 53448
L53297 53448
L53241 53476
L53213 53504
L53185 53560
L53185 53616
L53213 53701
L53550 54038
L53185 54038
" />
<path d="M52960 53504
L52931 53476
L52875 53448
L52735 53448
L52678 53476
L52650 53504
L52622 53560
L52622 53616
L52650 53701
L52988 54038
L52622 54038
" />
<path d="M52257 53448
L52200 53448
L52144 53476
L52116 53504
L52088 53560
L52060 53673
L52060 53813
L52088 53926
L52116 53982
L52144 54010
L52200 54038
L52257 54038
L52313 54010
L52341 53982
L52369 53926
L52397 53813
L52397 53673
L52369 53560
L52341 53504
L52313 53476
L52257 53448
" />
<path d="M51253 47952
L51450 47670
" />
<path d="M51591 47952
L51591 47361
L51366 47361
L51309 47389
L51281 47417
L51253 47474
L51253 47558
L51281 47614
L51309 47642
L51366 47670
L51591 47670
" />
<path d="M50691 47952
L51028 47952
" />
<path d="M50859 47952
L50859 47361
L50916 47446
L50972 47502
L51028 47530
" />
<path d="M50128 47952
L50466 47952
" />
<path d="M50297 47952
L50297 47361
L50353 47446
L50410 47502
L50466 47530
" />
<path d="M51531 45282
L51503 45254
L51446 45226
L51306 45226
L51249 45254
L51221 45282
L51193 45339
L51193 45395
L51221 45479
L51559 45817
L51193 45817
" />
<path d="M50968 45282
L50940 45254
L50884 45226
L50743 45226
L50687 45254
L50659 45282
L50631 45339
L50631 45395
L50659 45479
L50996 45817
L50631 45817
" />
<path d="M50265 45226
L50209 45226
L50153 45254
L50125 45282
L50096 45339
L50068 45451
L50068 45592
L50096 45704
L50125 45760
L50153 45789
L50209 45817
L50265 45817
L50321 45789
L50350 45760
L50378 45704
L50406 45592
L50406 45451
L50378 45339
L50350 45282
L50321 45254
L50265 45226
" />
<path d="M60645 43570
L60363 43373
" />
<path d="M60645 43232
L60054 43232
L60054 43457
L60082 43514
L60110 43542
L60167 43570
L60251 43570
L60307 43542
L60335 43514
L60363 43457
L60363 43232
" />
<path d="M60645 44132
L60645 43795
" />
<path d="M60645 43964
L60054 43964
L60138 43907
L60195 43851
L60223 43795
" />
<path d="M60054 44498
L60054 44554
L60082 44610
L60110 44638
L60167 44667
L60279 44695
L60420 44695
L60532 44667
L60588 44638
L60616 44610
L60645 44554
L60645 44498
L60616 44442
L60588 44414
L60532 44385
L60420 44357
L60279 44357
L60167 44385
L60110 44414
L60082 44442
L60054 44498
" />
<path d="M58032 43268
L58004 43296
L57976 43353
L57976 43493
L58004 43550
L58032 43578
L58089 43606
L58145 43606
L58229 43578
L58567 43240
L58567 43606
" />
<path d="M58032 43831
L58004 43859
L57976 43915
L57976 44056
L58004 44112
L58032 44140
L58089 44168
L58145 44168
L58229 44140
L58567 43803
L58567 44168
" />
<path d="M57976 44534
L57976 44590
L58004 44646
L58032 44674
L58089 44703
L58201 44731
L58342 44731
L58454 44703
L58510 44674
L58539 44646
L58567 44590
L58567 44534
L58539 44478
L58510 44449
L58454 44421
L58342 44393
L58201 44393
L58089 44421
L58032 44449
L58004 44478
L57976 44534
" />
<path d="M56291 37373
L56488 37092
" />
<path d="M56628 37373
L56628 36782
L56403 36782
L56347 36811
L56319 36839
L56291 36895
L56291 36979
L56319 37035
L56347 37064
L56403 37092
L56628 37092
" />
<path d="M56010 37373
L55897 37373
L55841 37345
L55813 37317
L55757 37232
L55728 37120
L55728 36895
L55757 36839
L55785 36811
L55841 36782
L55953 36782
L56010 36811
L56038 36839
L56066 36895
L56066 37035
L56038 37092
L56010 37120
L55953 37148
L55841 37148
L55785 37120
L55757 37092
L55728 37035
" />
<path d="M51794 36764
L51766 36736
L51709 36708
L51569 36708
L51512 36736
L51484 36764
L51456 36820
L51456 36876
L51484 36961
L51822 37298
L51456 37298
" />
<path d="M51231 36764
L51203 36736
L51147 36708
L51006 36708
L50950 36736
L50922 36764
L50894 36820
L50894 36876
L50922 36961
L51259 37298
L50894 37298
" />
<path d="M50528 36708
L50472 36708
L50416 36736
L50388 36764
L50359 36820
L50331 36933
L50331 37073
L50359 37186
L50388 37242
L50416 37270
L50472 37298
L50528 37298
L50584 37270
L50613 37242
L50641 37186
L50669 37073
L50669 36933
L50641 36820
L50613 36764
L50584 36736
L50528 36708
" />
<path d="M56311 36298
L56507 36017
" />
<path d="M56648 36298
L56648 35708
L56423 35708
L56367 35736
L56339 35764
L56311 35820
L56311 35904
L56339 35961
L56367 35989
L56423 36017
L56648 36017
" />
<path d="M55973 35961
L56029 35933
L56057 35904
L56086 35848
L56086 35820
L56057 35764
L56029 35736
L55973 35708
L55861 35708
L55804 35736
L55776 35764
L55748 35820
L55748 35848
L55776 35904
L55804 35933
L55861 35961
L55973 35961
L56029 35989
L56057 36017
L56086 36073
L56086 36186
L56057 36242
L56029 36270
L55973 36298
L55861 36298
L55804 36270
L55776 36242
L55748 36186
L55748 36073
L55776 36017
L55804 35989
L55861 35961
" />
<path d="M51794 35843
L51766 35814
L51709 35786
L51569 35786
L51512 35814
L51484 35843
L51456 35899
L51456 35955
L51484 36039
L51822 36377
L51456 36377
" />
<path d="M51231 35843
L51203 35814
L51147 35786
L51006 35786
L50950 35814
L50922 35843
L50894 35899
L50894 35955
L50922 36039
L51259 36377
L50894 36377
" />
<path d="M50528 35786
L50472 35786
L50416 35814
L50388 35843
L50359 35899
L50331 36011
L50331 36152
L50359 36264
L50388 36321
L50416 36349
L50472 36377
L50528 36377
L50584 36349
L50613 36321
L50641 36264
L50669 36152
L50669 36011
L50641 35899
L50613 35843
L50584 35814
L50528 35786
" />
<path d="M56232 35290
L56429 35009
" />
<path d="M56569 35290
L56569 34700
L56344 34700
L56288 34728
L56260 34756
L56232 34812
L56232 34897
L56260 34953
L56288 34981
L56344 35009
L56569 35009
" />
<path d="M56035 34700
L55641 34700
L55894 35290
" />
<path d="M51794 34757
L51766 34729
L51709 34701
L51569 34701
L51512 34729
L51484 34757
L51456 34814
L51456 34870
L51484 34954
L51822 35292
L51456 35292
" />
<path d="M51231 34757
L51203 34729
L51147 34701
L51006 34701
L50950 34729
L50922 34757
L50894 34814
L50894 34870
L50922 34954
L51259 35292
L50894 35292
" />
<path d="M50528 34701
L50472 34701
L50416 34729
L50388 34757
L50359 34814
L50331 34926
L50331 35067
L50359 35179
L50388 35235
L50416 35264
L50472 35292
L50528 35292
L50584 35264
L50613 35235
L50641 35179
L50669 35067
L50669 34926
L50641 34814
L50613 34757
L50584 34729
L50528 34701
" />
<path d="M56198 34417
L56395 34135
" />
<path d="M56535 34417
L56535 33826
L56310 33826
L56254 33854
L56226 33882
L56198 33939
L56198 34023
L56226 34079
L56254 34107
L56310 34135
L56535 34135
" />
<path d="M55692 33826
L55804 33826
L55860 33854
L55889 33882
L55945 33967
L55973 34079
L55973 34304
L55945 34360
L55917 34389
L55860 34417
L55748 34417
L55692 34389
L55664 34360
L55635 34304
L55635 34164
L55664 34107
L55692 34079
L55748 34051
L55860 34051
L55917 34079
L55945 34107
L55973 34164
" />
<path d="M51794 33757
L51766 33729
L51709 33701
L51569 33701
L51512 33729
L51484 33757
L51456 33814
L51456 33870
L51484 33954
L51822 34292
L51456 34292
" />
<path d="M51231 33757
L51203 33729
L51147 33701
L51006 33701
L50950 33729
L50922 33757
L50894 33814
L50894 33870
L50922 33954
L51259 34292
L50894 34292
" />
<path d="M50528 33701
L50472 33701
L50416 33729
L50388 33757
L50359 33814
L50331 33926
L50331 34067
L50359 34179
L50388 34235
L50416 34264
L50472 34292
L50528 34292
L50584 34264
L50613 34235
L50641 34179
L50669 34067
L50669 33926
L50641 33814
L50613 33757
L50584 33729
L50528 33701
" />
<path d="M56137 33417
L56334 33135
" />
<path d="M56475 33417
L56475 32826
L56250 32826
L56194 32854
L56165 32882
L56137 32939
L56137 33023
L56165 33079
L56194 33107
L56250 33135
L56475 33135
" />
<path d="M55603 32826
L55884 32826
L55912 33107
L55884 33079
L55828 33051
L55687 33051
L55631 33079
L55603 33107
L55575 33164
L55575 33304
L55603 33360
L55631 33389
L55687 33417
L55828 33417
L55884 33389
L55912 33360
" />
<path d="M51794 32782
L51766 32754
L51709 32726
L51569 32726
L51512 32754
L51484 32782
L51456 32839
L51456 32895
L51484 32979
L51822 33317
L51456 33317
" />
<path d="M51231 32782
L51203 32754
L51147 32726
L51006 32726
L50950 32754
L50922 32782
L50894 32839
L50894 32895
L50922 32979
L51259 33317
L50894 33317
" />
<path d="M50528 32726
L50472 32726
L50416 32754
L50388 32782
L50359 32839
L50331 32951
L50331 33092
L50359 33204
L50388 33260
L50416 33289
L50472 33317
L50528 33317
L50584 33289
L50613 33260
L50641 33204
L50669 33092
L50669 32951
L50641 32839
L50613 32782
L50584 32754
L50528 32726
" />
<path d="M43204 51570
L43401 51289
" />
<path d="M43542 51570
L43542 50979
L43317 50979
L43260 51007
L43232 51035
L43204 51092
L43204 51176
L43232 51232
L43260 51260
L43317 51289
L43542 51289
" />
<path d="M42698 51176
L42698 51570
" />
<path d="M42839 50951
L42979 51373
L42614 51373
" />
<path d="M45631 51832
L45603 51804
L45546 51776
L45406 51776
L45349 51804
L45321 51832
L45293 51889
L45293 51945
L45321 52029
L45659 52367
L45293 52367
" />
<path d="M45068 51832
L45040 51804
L44984 51776
L44843 51776
L44787 51804
L44759 51832
L44731 51889
L44731 51945
L44759 52029
L45096 52367
L44731 52367
" />
<path d="M44365 51776
L44309 51776
L44253 51804
L44225 51832
L44196 51889
L44168 52001
L44168 52142
L44196 52254
L44225 52310
L44253 52339
L44309 52367
L44365 52367
L44421 52339
L44450 52310
L44478 52254
L44506 52142
L44506 52001
L44478 51889
L44450 51832
L44421 51804
L44365 51776
" />
<path d="M43681 43826
L43877 43544
" />
<path d="M44018 43826
L44018 43235
L43793 43235
L43737 43263
L43709 43291
L43681 43348
L43681 43432
L43709 43488
L43737 43516
L43793 43544
L44018 43544
" />
<path d="M43484 43235
L43118 43235
L43315 43460
L43231 43460
L43174 43488
L43146 43516
L43118 43573
L43118 43713
L43146 43769
L43174 43798
L43231 43826
L43399 43826
L43456 43798
L43484 43769
" />
<path d="M42333 44173
L42305 44145
L42249 44117
L42108 44117
L42052 44145
L42024 44173
L41996 44230
L41996 44286
L42024 44370
L42361 44708
L41996 44708
" />
<path d="M41771 44173
L41742 44145
L41686 44117
L41546 44117
L41489 44145
L41461 44173
L41433 44230
L41433 44286
L41461 44370
L41799 44708
L41433 44708
" />
<path d="M41068 44117
L41011 44117
L40955 44145
L40927 44173
L40899 44230
L40871 44342
L40871 44483
L40899 44595
L40927 44651
L40955 44679
L41011 44708
L41068 44708
L41124 44679
L41152 44651
L41180 44595
L41208 44483
L41208 44342
L41180 44230
L41152 44173
L41124 44145
L41068 44117
" />
<path d="M43728 41589
L43925 41308
" />
<path d="M44065 41589
L44065 40999
L43840 40999
L43784 41027
L43756 41055
L43728 41111
L43728 41196
L43756 41252
L43784 41280
L43840 41308
L44065 41308
" />
<path d="M43503 41055
L43475 41027
L43419 40999
L43278 40999
L43222 41027
L43194 41055
L43165 41111
L43165 41168
L43194 41252
L43531 41589
L43165 41589
" />
<path d="M42372 41953
L42344 41925
L42288 41897
L42147 41897
L42091 41925
L42063 41953
L42035 42009
L42035 42065
L42063 42150
L42401 42487
L42035 42487
" />
<path d="M41810 41953
L41782 41925
L41726 41897
L41585 41897
L41529 41925
L41501 41953
L41473 42009
L41473 42065
L41501 42150
L41838 42487
L41473 42487
" />
<path d="M41107 41897
L41051 41897
L40994 41925
L40966 41953
L40938 42009
L40910 42122
L40910 42262
L40938 42375
L40966 42431
L40994 42459
L41051 42487
L41107 42487
L41163 42459
L41191 42431
L41219 42375
L41248 42262
L41248 42122
L41219 42009
L41191 41953
L41163 41925
L41107 41897
" />
<path d="M62201 29993
L62229 30021
L62314 30049
L62370 30049
L62454 30021
L62511 29965
L62539 29909
L62567 29796
L62567 29712
L62539 29600
L62511 29543
L62454 29487
L62370 29459
L62314 29459
L62229 29487
L62201 29515
" />
<path d="M62004 29459
L61639 29459
L61836 29684
L61751 29684
L61695 29712
L61667 29740
L61639 29796
L61639 29937
L61667 29993
L61695 30021
L61751 30049
L61920 30049
L61976 30021
L62004 29993
" />
<path d="M57567 29999
L57904 29999
" />
<path d="M57736 29999
L57736 29409
L57792 29493
L57848 29550
L57904 29578
" />
<path d="M57201 29409
L57145 29409
L57089 29437
L57061 29465
L57033 29521
L57004 29634
L57004 29774
L57033 29887
L57061 29943
L57089 29971
L57145 29999
L57201 29999
L57257 29971
L57286 29943
L57314 29887
L57342 29774
L57342 29634
L57314 29521
L57286 29465
L57257 29437
L57201 29409
" />
<path d="M56639 29409
L56583 29409
L56526 29437
L56498 29465
L56470 29521
L56442 29634
L56442 29774
L56470 29887
L56498 29943
L56526 29971
L56583 29999
L56639 29999
L56695 29971
L56723 29943
L56751 29887
L56779 29774
L56779 29634
L56751 29521
L56723 29465
L56695 29437
L56639 29409
" />
<path d="M56189 29606
L56189 29999
" />
<path d="M56189 29662
L56161 29634
L56104 29606
L56020 29606
L55964 29634
L55936 29690
L55936 29999
" />
<path d="M55458 29690
L55655 29690
" />
<path d="M55655 29999
L55655 29409
L55373 29409
" />
<path d="M45462 20330
L45491 20302
L45519 20218
L45519 20161
L45491 20077
L45434 20021
L45378 19993
L45266 19965
L45181 19965
L45069 19993
L45012 20021
L44956 20077
L44928 20161
L44928 20218
L44956 20302
L44984 20330
" />
<path d="M44984 20555
L44956 20583
L44928 20640
L44928 20780
L44956 20836
L44984 20865
L45041 20893
L45097 20893
L45181 20865
L45519 20527
L45519 20893
" />
<path d="M45578 13877
L45578 13540
" />
<path d="M45578 13709
L44987 13709
L45071 13652
L45128 13596
L45156 13540
" />
<path d="M44987 14243
L44987 14299
L45015 14356
L45043 14384
L45100 14412
L45212 14440
L45353 14440
L45465 14412
L45521 14384
L45550 14356
L45578 14299
L45578 14243
L45550 14187
L45521 14159
L45465 14131
L45353 14102
L45212 14102
L45100 14131
L45043 14159
L45015 14187
L44987 14243
" />
<path d="M44987 14805
L44987 14862
L45015 14918
L45043 14946
L45100 14974
L45212 15002
L45353 15002
L45465 14974
L45521 14946
L45550 14918
L45578 14862
L45578 14805
L45550 14749
L45521 14721
L45465 14693
L45353 14665
L45212 14665
L45100 14693
L45043 14721
L45015 14749
L44987 14805
" />
<path d="M45184 15255
L45578 15255
" />
<path d="M45240 15255
L45212 15284
L45184 15340
L45184 15424
L45212 15480
L45268 15508
L45578 15508
" />
<path d="M45268 15987
L45268 15790
" />
<path d="M45578 15790
L44987 15790
L44987 16071
" />
<path d="M45803 16915
L45775 16886
L45690 16830
L45634 16802
L45550 16774
L45409 16746
L45296 16746
L45156 16774
L45071 16802
L45015 16830
L44931 16886
L44903 16915
" />
<path d="M44987 17252
L44987 17308
L45015 17365
L45043 17393
L45100 17421
L45212 17449
L45353 17449
L45465 17421
L45521 17393
L45550 17365
L45578 17308
L45578 17252
L45550 17196
L45521 17168
L45465 17140
L45353 17111
L45212 17111
L45100 17140
L45043 17168
L45015 17196
L44987 17252
" />
<path d="M45521 17702
L45550 17730
L45578 17702
L45550 17674
L45521 17702
L45578 17702
" />
<path d="M45578 18293
L45578 17955
" />
<path d="M45578 18124
L44987 18124
L45071 18068
L45128 18011
L45156 17955
" />
<path d="M45184 18799
L45578 18799
" />
<path d="M45184 18546
L45493 18546
L45550 18574
L45578 18630
L45578 18714
L45550 18771
L45521 18799
" />
<path d="M45268 19277
L45268 19080
" />
<path d="M45578 19080
L44987 19080
L44987 19361
" />
<path d="M45803 19530
L45775 19558
L45690 19614
L45634 19642
L45550 19670
L45409 19699
L45296 19699
L45156 19670
L45071 19642
L45015 19614
L44931 19558
L44903 19530
" />
<path d="M44307 25266
L44335 25294
L44419 25322
L44475 25322
L44560 25294
L44616 25237
L44644 25181
L44672 25069
L44672 24984
L44644 24872
L44616 24816
L44560 24759
L44475 24731
L44419 24731
L44335 24759
L44307 24787
" />
<path d="M43744 25322
L44082 25322
" />
<path d="M43913 25322
L43913 24731
L43969 24816
L44025 24872
L44082 24900
" />
<path d="M48597 25369
L48934 25369
" />
<path d="M48766 25369
L48766 24778
L48822 24863
L48878 24919
L48934 24947
" />
<path d="M48231 24778
L48175 24778
L48119 24807
L48091 24835
L48062 24891
L48034 25003
L48034 25144
L48062 25257
L48091 25313
L48119 25341
L48175 25369
L48231 25369
L48287 25341
L48316 25313
L48344 25257
L48372 25144
L48372 25003
L48344 24891
L48316 24835
L48287 24807
L48231 24778
" />
<path d="M47528 24975
L47528 25369
" />
<path d="M47781 24975
L47781 25285
L47753 25341
L47697 25369
L47613 25369
L47556 25341
L47528 25313
" />
<path d="M47050 25060
L47247 25060
" />
<path d="M47247 25369
L47247 24778
L46966 24778
" />
<path d="M55948 32467
L56145 32185
" />
<path d="M56285 32467
L56285 31876
L56060 31876
L56004 31904
L55976 31932
L55948 31989
L55948 32073
L55976 32129
L56004 32157
L56060 32185
L56285 32185
" />
<path d="M55385 32467
L55723 32467
" />
<path d="M55554 32467
L55554 31876
L55610 31960
L55667 32017
L55723 32045
" />
<path d="M51794 31740
L51766 31712
L51709 31684
L51569 31684
L51512 31712
L51484 31740
L51456 31796
L51456 31853
L51484 31937
L51822 32275
L51456 32275
" />
<path d="M51231 31740
L51203 31712
L51147 31684
L51006 31684
L50950 31712
L50922 31740
L50894 31796
L50894 31853
L50922 31937
L51259 32275
L50894 32275
" />
<path d="M50528 31684
L50472 31684
L50416 31712
L50388 31740
L50359 31796
L50331 31909
L50331 32050
L50359 32162
L50388 32218
L50416 32246
L50472 32275
L50528 32275
L50584 32246
L50613 32218
L50641 32162
L50669 32050
L50669 31909
L50641 31796
L50613 31740
L50584 31712
L50528 31684
" />
</g> 
</svg>
