<svg version="1.1" viewBox="0.0 0.0 524.0 371.0" fill="none" stroke="none" stroke-linecap="square" stroke-miterlimit="10" width="524" height="371" xmlns:xlink="http://www.w3.org/1999/xlink" xmlns="http://www.w3.org/2000/svg"><path fill="#ffffff" d="M0 0L524.0 0L524.0 371.0L0 371.0L0 0Z" fill-rule="nonzero"/><path fill="#ffffff" d="M0 0L524.0 0L524.0 371.0L0 371.0L0 0Z" fill-rule="nonzero"/><path fill="#db4437" d="M262.0 54.916668C275.57672 54.916668 289.08957 56.775185 302.16217 60.44046L262.0 203.68333Z" fill-rule="nonzero"/><path fill="#ffffff" d="M276.31232 78.15032L276.31232 79.21282L276.07794 79.21282Q274.59357 79.24407 273.71857 80.08782Q272.84357 80.93157 272.70294 82.47845Q273.49982 81.5722 274.8592 81.5722Q276.15607 81.5722 276.9217 82.49407Q277.70294 83.40032 277.70294 84.85345Q277.70294 86.40032 276.8592 87.3222Q276.03107 88.24407 274.62482 88.24407Q273.20294 88.24407 272.31232 87.15032Q271.4217 86.04095 271.4217 84.3222L271.4217 83.83782Q271.4217 81.08782 272.59357 79.6347Q273.76544 78.18157 276.07794 78.15032L276.31232 78.15032ZM274.64044 82.6347Q273.99982 82.6347 273.45294 83.02532Q272.90607 83.40032 272.68732 83.99407L272.68732 84.46282Q272.68732 85.6972 273.2342 86.4472Q273.7967 87.1972 274.62482 87.1972Q275.4842 87.1972 275.96857 86.5722Q276.45294 85.93157 276.45294 84.91595Q276.45294 83.8847 275.95294 83.2597Q275.46857 82.6347 274.64044 82.6347ZM285.76544 78.85345L281.64044 88.10345L280.32794 88.10345L284.4217 79.18157L279.0467 79.18157L279.0467 78.15032L285.76544 78.15032L285.76544 78.85345Z" fill-rule="nonzero"/><path fill="#f4b400" d="M302.16217 60.44046C320.92392 65.70084 338.4695 74.59573 353.80234 86.61987L262.0 203.68333Z" fill-rule="nonzero"/><path fill="#000000" d="M312.68756 99.232376Q312.29694 99.701126 311.73444 99.998Q311.18756 100.27925 310.5313 100.27925Q309.67194 100.27925 309.0313 99.857376Q308.3907 99.4355 308.04694 98.669876Q307.7032 97.888626 307.7032 96.96675Q307.7032 95.96675 308.0782 95.169876Q308.4532 94.357376 309.1563 93.9355Q309.85944 93.513626 310.7813 93.513626Q312.2657 93.513626 313.10944 94.623Q313.9688 95.732376 313.9688 97.638626L313.9688 97.998Q313.9688 100.90425 312.81256 102.248Q311.67194 103.576126 309.3438 103.607376L309.0938 103.607376L309.0938 102.544876L309.37506 102.544876Q310.93756 102.513626 311.7657 101.732376Q312.60944 100.9355 312.68756 99.232376ZM310.73444 99.232376Q311.37506 99.232376 311.9063 98.84175Q312.4532 98.451126 312.7032 97.873L312.7032 97.373Q312.7032 96.123 312.1563 95.357376Q311.60944 94.576126 310.79694 94.576126Q309.9532 94.576126 309.43756 95.21675Q308.93756 95.84175 308.93756 96.888626Q308.93756 97.919876 309.42194 98.576126Q309.92194 99.232376 310.73444 99.232376ZM320.81256 93.65425L320.81256 94.71675L320.5782 94.71675Q319.0938 94.748 318.2188 95.59175Q317.3438 96.4355 317.2032 97.982376Q318.00006 97.076126 319.35944 97.076126Q320.6563 97.076126 321.42194 97.998Q322.2032 98.90425 322.2032 100.357376Q322.2032 101.90425 321.35944 102.826126Q320.5313 103.748 319.12506 103.748Q317.7032 103.748 316.81256 102.65425Q315.92194 101.544876 315.92194 99.826126L315.92194 99.34175Q315.92194 96.59175 317.0938 95.138626Q318.2657 93.6855 320.5782 93.65425L320.81256 93.65425ZM319.1407 98.138626Q318.50006 98.138626 317.9532 98.52925Q317.4063 98.90425 317.18756 99.498L317.18756 99.96675Q317.18756 101.201126 317.73444 101.951126Q318.29694 102.701126 319.12506 102.701126Q319.98444 102.701126 320.4688 102.076126Q320.9532 101.4355 320.9532 100.419876Q320.9532 99.388626 320.4532 98.763626Q319.9688 98.138626 319.1407 98.138626Z" fill-rule="nonzero"/><path fill="#0f9d58" d="M353.80234 86.61987C361.60992 92.74267 368.7854 99.631195 375.22156 107.18255L262.0 203.68333Z" fill-rule="nonzero"/><path fill="#ff6d00" d="M375.22156 107.18255C420.53915 160.35237 422.7543 237.8928 380.54602 293.56305C338.3377 349.2333 263.07837 368.03378 199.6485 338.753C136.21861 309.47217 101.708435 239.99934 116.69793 171.76422C131.68742 103.5291 192.13788 54.916668 262.0 54.916668L262.0 203.68333Z" fill-rule="nonzero"/><path fill="#000000" d="M202.25931 310.48517L200.99368 310.48517L200.99368 302.0633L198.43118 302.98517L198.43118 301.84454L202.05618 300.48517L202.25931 300.48517L202.25931 310.48517ZM206.19681 312.46954L205.47806 311.96954Q206.11868 311.07892 206.14993 310.1258L206.14993 308.98517L207.38431 308.98517L207.38431 309.98517Q207.38431 310.67267 207.04056 311.36017Q206.69681 312.04767 206.19681 312.46954ZM210.94681 304.89142L211.88431 304.89142Q212.79056 304.8758 213.29056 304.42267Q213.80618 303.96954 213.80618 303.1883Q213.80618 301.4383 212.07181 301.4383Q211.24368 301.4383 210.75931 301.90704Q210.27493 302.3758 210.27493 303.14142L209.00931 303.14142Q209.00931 301.95392 209.86868 301.17267Q210.74368 300.39142 212.07181 300.39142Q213.47806 300.39142 214.27493 301.14142Q215.07181 301.89142 215.07181 303.20392Q215.07181 303.86017 214.64993 304.46954Q214.24368 305.07892 213.50931 305.3758Q214.33743 305.64142 214.77493 306.2508Q215.22806 306.84454 215.22806 307.70392Q215.22806 309.04767 214.35306 309.84454Q213.47806 310.6258 212.07181 310.6258Q210.68118 310.6258 209.79056 309.8758Q208.91556 309.11017 208.91556 307.86017L210.19681 307.86017Q210.19681 308.64142 210.69681 309.1258Q211.21243 309.59454 212.07181 309.59454Q212.99368 309.59454 213.47806 309.11017Q213.96243 308.6258 213.96243 307.73517Q213.96243 306.8758 213.43118 306.40704Q212.89993 305.9383 211.88431 305.92267L210.94681 305.92267L210.94681 304.89142ZM223.61868 310.48517L217.10306 310.48517L217.10306 309.57892L220.54056 305.7508Q221.30618 304.8758 221.60306 304.34454Q221.89993 303.79767 221.89993 303.20392Q221.89993 302.4383 221.41556 301.9383Q220.94681 301.4383 220.16556 301.4383Q219.22806 301.4383 218.69681 301.96954Q218.18118 302.5008 218.18118 303.46954L216.91556 303.46954Q216.91556 302.09454 217.79056 301.2508Q218.68118 300.39142 220.16556 300.39142Q221.55618 300.39142 222.35306 301.1258Q223.16556 301.84454 223.16556 303.0633Q223.16556 304.53204 221.29056 306.5633L218.63431 309.45392L223.61868 309.45392L223.61868 310.48517ZM231.13431 303.1258Q231.13431 303.8758 230.74368 304.45392Q230.35306 305.03204 229.68118 305.36017Q230.46243 305.70392 230.91556 306.34454Q231.36868 306.98517 231.36868 307.79767Q231.36868 309.09454 230.49368 309.86017Q229.63431 310.6258 228.21243 310.6258Q226.77493 310.6258 225.89993 309.86017Q225.04056 309.07892 225.04056 307.79767Q225.04056 306.98517 225.47806 306.34454Q225.91556 305.6883 226.69681 305.36017Q226.04056 305.03204 225.64993 304.45392Q225.27493 303.86017 225.27493 303.1258Q225.27493 301.8758 226.07181 301.14142Q226.88431 300.39142 228.21243 300.39142Q229.52493 300.39142 230.32181 301.14142Q231.13431 301.8758 231.13431 303.1258ZM230.10306 307.76642Q230.10306 306.9383 229.57181 306.42267Q229.04056 305.89142 228.18118 305.89142Q227.33743 305.89142 226.82181 306.40704Q226.30618 306.92267 226.30618 307.78204Q226.30618 308.6258 226.80618 309.11017Q227.30618 309.59454 228.21243 309.59454Q229.08743 309.59454 229.58743 309.11017Q230.10306 308.61017 230.10306 307.76642ZM228.21243 301.4383Q227.46243 301.4383 226.99368 301.90704Q226.54056 302.36017 226.54056 303.15704Q226.54056 303.90704 226.99368 304.3758Q227.44681 304.84454 228.19681 304.84454Q228.96243 304.84454 229.41556 304.3758Q229.86868 303.90704 229.86868 303.15704Q229.86868 302.39142 229.39993 301.92267Q228.93118 301.4383 228.21243 301.4383Z" fill-rule="nonzero"/><path fill="#757575" d="M20.9875 318.96826L23.784374 325.9214L26.565624 318.96826L28.034374 318.96826L28.034374 327.4995L26.909374 327.4995L26.909374 324.1714L27.01875 320.59326L24.20625 327.4995L23.346874 327.4995L20.55 320.6089L20.659374 324.1714L20.659374 327.4995L19.534374 327.4995L19.534374 318.96826L20.9875 318.96826ZM30.55 327.4995L29.471874 327.4995L29.471874 321.15576L30.55 321.15576L30.55 327.4995ZM29.378124 319.4839Q29.378124 319.21826 29.534374 319.03076Q29.70625 318.84326 30.01875 318.84326Q30.33125 318.84326 30.4875 319.03076Q30.659374 319.21826 30.659374 319.4839Q30.659374 319.7339 30.4875 319.9214Q30.33125 320.09326 30.01875 320.09326Q29.70625 320.09326 29.534374 319.9214Q29.378124 319.7339 29.378124 319.4839ZM33.55 327.4995L32.471874 327.4995L32.471874 318.4995L33.55 318.4995L33.55 327.4995ZM36.55 327.4995L35.471874 327.4995L35.471874 318.4995L36.55 318.4995L36.55 327.4995ZM39.55 327.4995L38.471874 327.4995L38.471874 321.15576L39.55 321.15576L39.55 327.4995ZM38.378124 319.4839Q38.378124 319.21826 38.534374 319.03076Q38.70625 318.84326 39.01875 318.84326Q39.33125 318.84326 39.4875 319.03076Q39.659374 319.21826 39.659374 319.4839Q39.659374 319.7339 39.4875 319.9214Q39.33125 320.09326 39.01875 320.09326Q38.70625 320.09326 38.534374 319.9214Q38.378124 319.7339 38.378124 319.4839ZM42.39375 321.15576L42.425 321.95264Q43.159374 321.0464 44.33125 321.0464Q46.346874 321.0464 46.3625 323.312L46.3625 327.4995L45.26875 327.4995L45.26875 323.2964Q45.26875 322.6245 44.95625 322.2964Q44.659374 321.96826 44.003124 321.96826Q43.471874 321.96826 43.065624 322.2495Q42.675 322.53076 42.45625 322.9839L42.45625 327.4995L41.378124 327.4995L41.378124 321.15576L42.39375 321.15576ZM48.1125 324.28076Q48.1125 322.7964 48.8 321.9214Q49.4875 321.0464 50.6125 321.0464Q51.76875 321.0464 52.425 321.8589L52.471874 321.15576L53.471874 321.15576L53.471874 327.34326Q53.471874 328.57764 52.7375 329.28076Q52.003124 329.9995 50.784374 329.9995Q50.096874 329.9995 49.440624 329.70264Q48.784374 329.40576 48.440624 328.90576L49.003124 328.2495Q49.690624 329.1089 50.70625 329.1089Q51.4875 329.1089 51.925 328.65576Q52.378124 328.21826 52.378124 327.40576L52.378124 326.8589Q51.721874 327.6245 50.596874 327.6245Q49.4875 327.6245 48.8 326.7339Q48.1125 325.82764 48.1125 324.28076ZM49.20625 324.40576Q49.20625 325.46826 49.64375 326.09326Q50.08125 326.70264 50.878124 326.70264Q51.89375 326.70264 52.378124 325.76514L52.378124 322.8745Q51.878124 321.96826 50.878124 321.96826Q50.096874 321.96826 49.64375 322.57764Q49.20625 323.187 49.20625 324.40576ZM63.7375 324.40576Q63.7375 325.8589 63.065624 326.7495Q62.409374 327.6245 61.284374 327.6245Q60.08125 327.6245 59.425 326.76514L59.3625 327.4995L58.378124 327.4995L58.378124 318.4995L59.45625 318.4995L59.45625 321.8589Q60.1125 321.0464 61.26875 321.0464Q62.425 321.0464 63.08125 321.9214Q63.7375 322.78076 63.7375 324.312L63.7375 324.40576ZM62.659374 324.28076Q62.659374 323.1714 62.221874 322.57764Q61.8 321.96826 61.003124 321.96826Q59.925 321.96826 59.45625 322.95264L59.45625 325.70264Q59.95625 326.70264 61.003124 326.70264Q61.784374 326.70264 62.221874 326.09326Q62.659374 325.4839 62.659374 324.28076ZM66.55 327.4995L65.47188 327.4995L65.47188 321.15576L66.55 321.15576L66.55 327.4995ZM65.37813 319.4839Q65.37813 319.21826 65.53438 319.03076Q65.70625 318.84326 66.01875 318.84326Q66.33125 318.84326 66.4875 319.03076Q66.65938 319.21826 66.65938 319.4839Q66.65938 319.7339 66.4875 319.9214Q66.33125 320.09326 66.01875 320.09326Q65.70625 320.09326 65.53438 319.9214Q65.37813 319.7339 65.37813 319.4839ZM69.84688 319.6245L69.84688 321.15576L71.01875 321.15576L71.01875 321.9995L69.84688 321.9995L69.84688 325.9214Q69.84688 326.312 70.00313 326.4995Q70.15938 326.687 70.53438 326.687Q70.72188 326.687 71.05 326.6245L71.05 327.4995Q70.62813 327.6245 70.22188 327.6245Q69.50313 327.6245 69.12813 327.187Q68.75313 326.7339 68.75313 325.9214L68.75313 321.9995L67.59688 321.9995L67.59688 321.15576L68.75313 321.15576L68.75313 319.6245L69.84688 319.6245ZM76.06563 325.812Q76.06563 325.3745 75.72188 325.14014Q75.39375 324.89014 74.56563 324.71826Q73.75313 324.5464 73.26875 324.2964Q72.78438 324.0464 72.55 323.71826Q72.33125 323.3745 72.33125 322.90576Q72.33125 322.1245 72.9875 321.59326Q73.64375 321.0464 74.675 321.0464Q75.75313 321.0464 76.40938 321.6089Q77.08125 322.15576 77.08125 323.01514L76.00313 323.01514Q76.00313 322.57764 75.6125 322.26514Q75.2375 321.937 74.675 321.937Q74.08125 321.937 73.7375 322.20264Q73.40938 322.45264 73.40938 322.8589Q73.40938 323.2495 73.72188 323.45264Q74.03438 323.65576 74.84688 323.84326Q75.65938 324.01514 76.15938 324.26514Q76.65938 324.51514 76.89375 324.8745Q77.14375 325.2339 77.14375 325.7339Q77.14375 326.59326 76.45625 327.1089Q75.78438 327.6245 74.70625 327.6245Q73.94063 327.6245 73.34688 327.3589Q72.76875 327.07764 72.44063 326.59326Q72.1125 326.1089 72.1125 325.5464L73.19063 325.5464Q73.22188 326.09326 73.62813 326.4214Q74.03438 326.7339 74.70625 326.7339Q75.31563 326.7339 75.69063 326.4839Q76.06563 326.2339 76.06563 325.812Z" fill-rule="nonzero"/><path fill="#9e9e9e" d="M24.440624 339.187Q24.440624 339.82764 24.096874 340.32764Q23.753124 340.82764 23.190624 341.1089Q23.846874 341.39014 24.2375 341.95264Q24.628124 342.4995 24.628124 343.20264Q24.628124 344.2964 23.878124 344.96826Q23.14375 345.6245 21.925 345.6245Q20.690624 345.6245 19.940624 344.96826Q19.20625 344.2964 19.20625 343.20264Q19.20625 342.4995 19.58125 341.95264Q19.95625 341.39014 20.628124 341.1089Q20.065624 340.82764 19.7375 340.32764Q19.409374 339.82764 19.409374 339.187Q19.409374 338.1089 20.096874 337.4839Q20.784374 336.84326 21.925 336.84326Q23.05 336.84326 23.7375 337.4839Q24.440624 338.1089 24.440624 339.187ZM23.55 343.1714Q23.55 342.45264 23.096874 342.01514Q22.64375 341.562 21.909374 341.562Q21.175 341.562 20.721874 342.01514Q20.284374 342.45264 20.284374 343.187Q20.284374 343.90576 20.721874 344.32764Q21.159374 344.7339 21.925 344.7339Q22.675 344.7339 23.1125 344.312Q23.55 343.89014 23.55 343.1714ZM21.925 337.7339Q21.284374 337.7339 20.878124 338.14014Q20.4875 338.53076 20.4875 339.21826Q20.4875 339.8589 20.878124 340.26514Q21.26875 340.6714 21.909374 340.6714Q22.565624 340.6714 22.95625 340.26514Q23.346874 339.8589 23.346874 339.21826Q23.346874 338.562 22.940624 338.15576Q22.534374 337.7339 21.925 337.7339ZM30.51875 336.96826L30.51875 337.8745L30.315624 337.8745Q29.05 337.90576 28.3 338.64014Q27.55 339.3589 27.425 340.6714Q28.1125 339.90576 29.26875 339.90576Q30.378124 339.90576 31.05 340.687Q31.721874 341.46826 31.721874 342.71826Q31.721874 344.03076 31.003124 344.82764Q30.284374 345.6245 29.065624 345.6245Q27.846874 345.6245 27.08125 344.687Q26.33125 343.7339 26.33125 342.2495L26.33125 341.84326Q26.33125 339.4839 27.33125 338.2339Q28.33125 336.9839 30.315624 336.96826L30.51875 336.96826ZM29.096874 340.812Q28.534374 340.812 28.065624 341.14014Q27.596874 341.46826 27.409374 341.9839L27.409374 342.3745Q27.409374 343.437 27.878124 344.07764Q28.3625 344.71826 29.065624 344.71826Q29.8 344.71826 30.221874 344.187Q30.64375 343.64014 30.64375 342.76514Q30.64375 341.89014 30.221874 341.3589Q29.8 340.812 29.096874 340.812ZM33.33125 347.20264L32.721874 346.78076Q33.26875 346.01514 33.3 345.187L33.3 344.21826L34.3625 344.21826L34.3625 345.062Q34.3625 345.65576 34.065624 346.2495Q33.76875 346.84326 33.33125 347.20264ZM40.846874 345.4995L35.253124 345.4995L35.253124 344.71826L38.20625 341.437Q38.8625 340.687 39.1125 340.2339Q39.3625 339.76514 39.3625 339.26514Q39.3625 338.59326 38.95625 338.1714Q38.565624 337.7339 37.878124 337.7339Q37.08125 337.7339 36.628124 338.20264Q36.175 338.65576 36.175 339.4839L35.096874 339.4839Q35.096874 338.2964 35.846874 337.57764Q36.6125 336.84326 37.878124 336.84326Q39.08125 336.84326 39.76875 337.46826Q40.45625 338.09326 40.45625 339.14014Q40.45625 340.39014 38.846874 342.14014L36.565624 344.6089L40.846874 344.6089L40.846874 345.4995ZM42.159374 338.6089Q42.159374 337.84326 42.64375 337.34326Q43.14375 336.84326 43.909374 336.84326Q44.690624 336.84326 45.175 337.34326Q45.659374 337.84326 45.659374 338.64014L45.659374 339.062Q45.659374 339.82764 45.159374 340.32764Q44.675 340.812 43.925 340.812Q43.159374 340.812 42.659374 340.32764Q42.159374 339.82764 42.159374 339.01514L42.159374 338.6089ZM42.971874 339.062Q42.971874 339.51514 43.221874 339.812Q43.4875 340.1089 43.925 340.1089Q44.346874 340.1089 44.596874 339.82764Q44.846874 339.53076 44.846874 339.03076L44.846874 338.6089Q44.846874 338.15576 44.596874 337.8589Q44.346874 337.5464 43.909374 337.5464Q43.471874 337.5464 43.221874 337.8589Q42.971874 338.15576 42.971874 338.6245L42.971874 339.062ZM46.315624 343.40576Q46.315624 342.64014 46.8 342.15576Q47.3 341.65576 48.065624 341.65576Q48.83125 341.65576 49.315624 342.15576Q49.815624 342.64014 49.815624 343.45264L49.815624 343.8589Q49.815624 344.6245 49.33125 345.1245Q48.846874 345.6245 48.08125 345.6245Q47.315624 345.6245 46.815624 345.14014Q46.315624 344.64014 46.315624 343.82764L46.315624 343.40576ZM47.128124 343.8589Q47.128124 344.32764 47.378124 344.6245Q47.64375 344.9214 48.08125 344.9214Q48.503124 344.9214 48.753124 344.64014Q49.003124 344.34326 49.003124 343.84326L49.003124 343.40576Q49.003124 342.937 48.7375 342.65576Q48.4875 342.3589 48.065624 342.3589Q47.64375 342.3589 47.378124 342.65576Q47.128124 342.937 47.128124 343.437L47.128124 343.8589ZM44.175 344.8589L43.55 344.46826L47.721874 337.7964L48.33125 338.187L44.175 344.8589Z" fill-rule="nonzero"/><path stroke="#757575" stroke-width="1.0" stroke-linecap="butt" d="M18.55 331.9995L107.23333 331.9995L202.76607 331.9995" fill-rule="nonzero"/><path fill="#9e9e9e" d="M204.76607 331.9995C204.76607 330.89493 203.87064 329.9995 202.76607 329.9995C201.6615 329.9995 200.76607 330.89493 200.76607 331.9995C200.76607 333.10406 201.6615 333.9995 202.76607 333.9995C203.87064 333.9995 204.76607 333.10406 204.76607 331.9995" fill-rule="nonzero"/><path fill="#757575" d="M462.4344 66.916664L462.4344 58.385414L464.85626 58.385414Q465.96564 58.385414 466.8094 58.885414Q467.66876 59.36979 468.1375 60.27604Q468.60626 61.18229 468.60626 62.36979L468.60626 62.90104Q468.60626 64.11979 468.1375 65.02604Q467.6844 65.93229 466.8094 66.416664Q465.95 66.90104 464.8094 66.916664L462.4344 66.916664ZM463.5594 59.30729L463.5594 65.99479L464.7469 65.99479Q466.04376 65.99479 466.7625 65.197914Q467.4969 64.385414 467.4969 62.885414L467.4969 62.385414Q467.4969 60.93229 466.8094 60.135414Q466.1375 59.322914 464.8719 59.30729L463.5594 59.30729ZM473.34064 61.541664Q473.09064 61.510414 472.8094 61.510414Q471.73126 61.510414 471.35626 62.416664L471.35626 66.916664L470.27814 66.916664L470.27814 60.572914L471.325 60.572914L471.34064 61.30729Q471.8719 60.46354 472.85626 60.46354Q473.16876 60.46354 473.34064 60.541664L473.34064 61.541664ZM475.45 66.916664L474.3719 66.916664L474.3719 60.572914L475.45 60.572914L475.45 66.916664ZM474.27814 58.90104Q474.27814 58.635414 474.4344 58.447914Q474.60626 58.260414 474.91876 58.260414Q475.23126 58.260414 475.3875 58.447914Q475.5594 58.635414 475.5594 58.90104Q475.5594 59.15104 475.3875 59.33854Q475.23126 59.510414 474.91876 59.510414Q474.60626 59.510414 474.4344 59.33854Q474.27814 59.15104 474.27814 58.90104ZM478.45 66.916664L477.3719 66.916664L477.3719 57.916664L478.45 57.916664L478.45 66.916664ZM481.45 66.916664L480.3719 66.916664L480.3719 57.916664L481.45 57.916664L481.45 66.916664ZM491.6375 63.822914Q491.6375 65.27604 490.96564 66.166664Q490.3094 67.041664 489.1844 67.041664Q487.98126 67.041664 487.325 66.18229L487.2625 66.916664L486.27814 66.916664L486.27814 57.916664L487.35626 57.916664L487.35626 61.27604Q488.0125 60.46354 489.16876 60.46354Q490.325 60.46354 490.98126 61.33854Q491.6375 62.197914 491.6375 63.729164L491.6375 63.822914ZM490.5594 63.697914Q490.5594 62.58854 490.1219 61.99479Q489.7 61.385414 488.90314 61.385414Q487.825 61.385414 487.35626 62.36979L487.35626 65.11979Q487.85626 66.11979 488.90314 66.11979Q489.6844 66.11979 490.1219 65.510414Q490.5594 64.90104 490.5594 63.697914ZM494.45 66.916664L493.3719 66.916664L493.3719 60.572914L494.45 60.572914L494.45 66.916664ZM493.27814 58.90104Q493.27814 58.635414 493.4344 58.447914Q493.60626 58.260414 493.91876 58.260414Q494.23126 58.260414 494.3875 58.447914Q494.5594 58.635414 494.5594 58.90104Q494.5594 59.15104 494.3875 59.33854Q494.23126 59.510414 493.91876 59.510414Q493.60626 59.510414 493.4344 59.33854Q493.27814 59.15104 493.27814 58.90104ZM497.7469 59.041664L497.7469 60.572914L498.91876 60.572914L498.91876 61.416664L497.7469 61.416664L497.7469 65.33854Q497.7469 65.729164 497.90314 65.916664Q498.0594 66.104164 498.4344 66.104164Q498.6219 66.104164 498.95 66.041664L498.95 66.916664Q498.52814 67.041664 498.1219 67.041664Q497.40314 67.041664 497.02814 66.604164Q496.65314 66.15104 496.65314 65.33854L496.65314 61.416664L495.4969 61.416664L495.4969 60.572914L496.65314 60.572914L496.65314 59.041664L497.7469 59.041664ZM503.96564 65.229164Q503.96564 64.791664 503.6219 64.55729Q503.29376 64.30729 502.46564 64.135414Q501.65314 63.96354 501.16876 63.71354Q500.6844 63.46354 500.45 63.135414Q500.23126 62.791664 500.23126 62.322914Q500.23126 61.541664 500.8875 61.010414Q501.54376 60.46354 502.575 60.46354Q503.65314 60.46354 504.3094 61.02604Q504.98126 61.572914 504.98126 62.43229L503.90314 62.43229Q503.90314 61.99479 503.5125 61.68229Q503.1375 61.354164 502.575 61.354164Q501.98126 61.354164 501.6375 61.61979Q501.3094 61.86979 501.3094 62.27604Q501.3094 62.666664 501.6219 62.86979Q501.9344 63.072914 502.7469 63.260414Q503.5594 63.43229 504.0594 63.68229Q504.5594 63.93229 504.79376 64.291664Q505.04376 64.65104 505.04376 65.15104Q505.04376 66.010414 504.35626 66.52604Q503.6844 67.041664 502.60626 67.041664Q501.84064 67.041664 501.2469 66.77604Q500.66876 66.49479 500.34064 66.010414Q500.0125 65.52604 500.0125 64.96354L501.09064 64.96354Q501.1219 65.510414 501.52814 65.83854Q501.9344 66.15104 502.60626 66.15104Q503.21564 66.15104 503.59064 65.90104Q503.96564 65.65104 503.96564 65.229164Z" fill-rule="nonzero"/><path fill="#9e9e9e" d="M485.73126 82.05729L486.91876 82.05729L486.91876 82.93229L485.73126 82.93229L485.73126 84.916664L484.65314 84.916664L484.65314 82.93229L480.7625 82.93229L480.7625 82.291664L484.575 76.385414L485.73126 76.385414L485.73126 82.05729ZM481.9969 82.05729L484.65314 82.05729L484.65314 77.86979L484.5125 78.104164L481.9969 82.05729ZM488.23126 86.61979L487.6219 86.197914Q488.16876 85.43229 488.2 84.604164L488.2 83.635414L489.2625 83.635414L489.2625 84.479164Q489.2625 85.072914 488.96564 85.666664Q488.66876 86.260414 488.23126 86.61979ZM494.73126 82.05729L495.91876 82.05729L495.91876 82.93229L494.73126 82.93229L494.73126 84.916664L493.65314 84.916664L493.65314 82.93229L489.7625 82.93229L489.7625 82.291664L493.575 76.385414L494.73126 76.385414L494.73126 82.05729ZM490.9969 82.05729L493.65314 82.05729L493.65314 77.86979L493.5125 78.104164L490.9969 82.05729ZM497.0594 78.02604Q497.0594 77.260414 497.54376 76.760414Q498.04376 76.260414 498.8094 76.260414Q499.59064 76.260414 500.075 76.760414Q500.5594 77.260414 500.5594 78.05729L500.5594 78.479164Q500.5594 79.24479 500.0594 79.74479Q499.575 80.229164 498.825 80.229164Q498.0594 80.229164 497.5594 79.74479Q497.0594 79.24479 497.0594 78.43229L497.0594 78.02604ZM497.8719 78.479164Q497.8719 78.93229 498.1219 79.229164Q498.3875 79.52604 498.825 79.52604Q499.2469 79.52604 499.4969 79.24479Q499.7469 78.947914 499.7469 78.447914L499.7469 78.02604Q499.7469 77.572914 499.4969 77.27604Q499.2469 76.96354 498.8094 76.96354Q498.3719 76.96354 498.1219 77.27604Q497.8719 77.572914 497.8719 78.041664L497.8719 78.479164ZM501.21564 82.822914Q501.21564 82.05729 501.7 81.572914Q502.2 81.072914 502.96564 81.072914Q503.73126 81.072914 504.21564 81.572914Q504.71564 82.05729 504.71564 82.86979L504.71564 83.27604Q504.71564 84.041664 504.23126 84.541664Q503.7469 85.041664 502.98126 85.041664Q502.21564 85.041664 501.71564 84.55729Q501.21564 84.05729 501.21564 83.24479L501.21564 82.822914ZM502.02814 83.27604Q502.02814 83.74479 502.27814 84.041664Q502.54376 84.33854 502.98126 84.33854Q503.40314 84.33854 503.65314 84.05729Q503.90314 83.760414 503.90314 83.260414L503.90314 82.822914Q503.90314 82.354164 503.6375 82.072914Q503.3875 81.77604 502.96564 81.77604Q502.54376 81.77604 502.27814 82.072914Q502.02814 82.354164 502.02814 82.854164L502.02814 83.27604ZM499.075 84.27604L498.45 83.885414L502.6219 77.21354L503.23126 77.604164L499.075 84.27604Z" fill-rule="nonzero"/><path stroke="#757575" stroke-width="1.0" stroke-linecap="butt" d="M505.45 71.416664L416.76666 71.416664L281.25662 63.673046" fill-rule="nonzero"/><path fill="#9e9e9e" d="M283.25662 63.673046C283.25662 62.568478 282.3612 61.673046 281.25662 61.673046C280.15207 61.673046 279.25662 62.568478 279.25662 63.673046C279.25662 64.77762 280.15207 65.67305 281.25662 65.67305C282.3612 65.67305 283.25662 64.77762 283.25662 63.673046" fill-rule="nonzero"/><path fill="#757575" d="M452.9969 99.916664L451.8719 99.916664L451.8719 95.979164L447.5594 95.979164L447.5594 99.916664L446.4344 99.916664L446.4344 91.385414L447.5594 91.385414L447.5594 95.05729L451.8719 95.05729L451.8719 91.385414L452.9969 91.385414L452.9969 99.916664ZM459.1844 99.916664Q459.09064 99.729164 459.02814 99.24479Q458.27814 100.041664 457.23126 100.041664Q456.29376 100.041664 455.6844 99.510414Q455.09064 98.979164 455.09064 98.15104Q455.09064 97.166664 455.84064 96.61979Q456.59064 96.072914 457.96564 96.072914L459.0125 96.072914L459.0125 95.572914Q459.0125 95.010414 458.66876 94.68229Q458.34064 94.33854 457.66876 94.33854Q457.09064 94.33854 456.7 94.635414Q456.3094 94.916664 456.3094 95.33854L455.21564 95.33854Q455.21564 94.854164 455.54376 94.416664Q455.8875 93.979164 456.46564 93.729164Q457.04376 93.46354 457.73126 93.46354Q458.84064 93.46354 459.45 94.010414Q460.075 94.55729 460.10626 95.510414L460.10626 98.43229Q460.10626 99.30729 460.325 99.822914L460.325 99.916664L459.1844 99.916664ZM457.3875 99.08854Q457.90314 99.08854 458.35626 98.822914Q458.8094 98.55729 459.0125 98.135414L459.0125 96.83854L458.16876 96.83854Q456.16876 96.83854 456.16876 98.010414Q456.16876 98.510414 456.5125 98.80729Q456.85626 99.08854 457.3875 99.08854ZM463.29376 93.572914L463.325 94.36979Q464.0594 93.46354 465.23126 93.46354Q467.2469 93.46354 467.2625 95.729164L467.2625 99.916664L466.16876 99.916664L466.16876 95.71354Q466.16876 95.041664 465.85626 94.71354Q465.5594 94.385414 464.90314 94.385414Q464.3719 94.385414 463.96564 94.666664Q463.575 94.947914 463.35626 95.40104L463.35626 99.916664L462.27814 99.916664L462.27814 93.572914L463.29376 93.572914ZM469.0125 96.697914Q469.0125 95.229164 469.7 94.354164Q470.3875 93.46354 471.5125 93.46354Q472.6219 93.46354 473.27814 94.21354L473.27814 90.916664L474.35626 90.916664L474.35626 99.916664L473.35626 99.916664L473.3094 99.229164Q472.65314 100.041664 471.4969 100.041664Q470.40314 100.041664 469.7 99.135414Q469.0125 98.229164 469.0125 96.77604L469.0125 96.697914ZM470.09064 96.822914Q470.09064 97.90104 470.52814 98.510414Q470.98126 99.11979 471.7625 99.11979Q472.79376 99.11979 473.27814 98.18229L473.27814 95.27604Q472.79376 94.385414 471.77814 94.385414Q470.98126 94.385414 470.52814 94.99479Q470.09064 95.604164 470.09064 96.822914ZM480.7469 92.041664L480.7469 93.572914L481.91876 93.572914L481.91876 94.416664L480.7469 94.416664L480.7469 98.33854Q480.7469 98.729164 480.90314 98.916664Q481.0594 99.104164 481.4344 99.104164Q481.6219 99.104164 481.95 99.041664L481.95 99.916664Q481.52814 100.041664 481.1219 100.041664Q480.40314 100.041664 480.02814 99.604164Q479.65314 99.15104 479.65314 98.33854L479.65314 94.416664L478.4969 94.416664L478.4969 93.572914L479.65314 93.572914L479.65314 92.041664L480.7469 92.041664ZM482.98126 96.68229Q482.98126 95.760414 483.34064 95.010414Q483.71564 94.260414 484.3719 93.86979Q485.02814 93.46354 485.85626 93.46354Q487.15314 93.46354 487.95 94.354164Q488.7625 95.24479 488.7625 96.74479L488.7625 96.822914Q488.7625 97.74479 488.40314 98.479164Q488.04376 99.21354 487.3875 99.635414Q486.73126 100.041664 485.8719 100.041664Q484.59064 100.041664 483.77814 99.15104Q482.98126 98.24479 482.98126 96.760414L482.98126 96.68229ZM484.075 96.822914Q484.075 97.86979 484.5594 98.510414Q485.0594 99.15104 485.8719 99.15104Q486.7 99.15104 487.1844 98.510414Q487.66876 97.854164 487.66876 96.68229Q487.66876 95.65104 487.16876 95.010414Q486.6844 94.354164 485.85626 94.354164Q485.0594 94.354164 484.5594 94.99479Q484.075 95.61979 484.075 96.822914ZM489.98126 96.68229Q489.98126 95.760414 490.34064 95.010414Q490.71564 94.260414 491.3719 93.86979Q492.02814 93.46354 492.85626 93.46354Q494.15314 93.46354 494.95 94.354164Q495.7625 95.24479 495.7625 96.74479L495.7625 96.822914Q495.7625 97.74479 495.40314 98.479164Q495.04376 99.21354 494.3875 99.635414Q493.73126 100.041664 492.8719 100.041664Q491.59064 100.041664 490.77814 99.15104Q489.98126 98.24479 489.98126 96.760414L489.98126 96.68229ZM491.075 96.822914Q491.075 97.86979 491.5594 98.510414Q492.0594 99.15104 492.8719 99.15104Q493.7 99.15104 494.1844 98.510414Q494.66876 97.854164 494.66876 96.68229Q494.66876 95.65104 494.16876 95.010414Q493.6844 94.354164 492.85626 94.354164Q492.0594 94.354164 491.5594 94.99479Q491.075 95.61979 491.075 96.822914ZM498.45 99.916664L497.3719 99.916664L497.3719 90.916664L498.45 90.916664L498.45 99.916664ZM503.96564 98.229164Q503.96564 97.791664 503.6219 97.55729Q503.29376 97.30729 502.46564 97.135414Q501.65314 96.96354 501.16876 96.71354Q500.6844 96.46354 500.45 96.135414Q500.23126 95.791664 500.23126 95.322914Q500.23126 94.541664 500.8875 94.010414Q501.54376 93.46354 502.575 93.46354Q503.65314 93.46354 504.3094 94.02604Q504.98126 94.572914 504.98126 95.43229L503.90314 95.43229Q503.90314 94.99479 503.5125 94.68229Q503.1375 94.354164 502.575 94.354164Q501.98126 94.354164 501.6375 94.61979Q501.3094 94.86979 501.3094 95.27604Q501.3094 95.666664 501.6219 95.86979Q501.9344 96.072914 502.7469 96.260414Q503.5594 96.43229 504.0594 96.68229Q504.5594 96.93229 504.79376 97.291664Q505.04376 97.65104 505.04376 98.15104Q505.04376 99.010414 504.35626 99.52604Q503.6844 100.041664 502.60626 100.041664Q501.84064 100.041664 501.2469 99.77604Q500.66876 99.49479 500.34064 99.010414Q500.0125 98.52604 500.0125 97.96354L501.09064 97.96354Q501.1219 98.510414 501.52814 98.83854Q501.9344 99.15104 502.60626 99.15104Q503.21564 99.15104 503.59064 98.90104Q503.96564 98.65104 503.96564 98.229164Z" fill-rule="nonzero"/><path fill="#9e9e9e" d="M485.41876 109.385414L485.41876 110.291664L485.21564 110.291664Q483.95 110.322914 483.2 111.05729Q482.45 111.77604 482.325 113.08854Q483.0125 112.322914 484.16876 112.322914Q485.27814 112.322914 485.95 113.104164Q486.6219 113.885414 486.6219 115.135414Q486.6219 116.447914 485.90314 117.24479Q485.1844 118.041664 483.96564 118.041664Q482.7469 118.041664 481.98126 117.104164Q481.23126 116.15104 481.23126 114.666664L481.23126 114.260414Q481.23126 111.90104 482.23126 110.65104Q483.23126 109.40104 485.21564 109.385414L485.41876 109.385414ZM483.9969 113.229164Q483.4344 113.229164 482.96564 113.55729Q482.4969 113.885414 482.3094 114.40104L482.3094 114.791664Q482.3094 115.854164 482.77814 116.49479Q483.2625 117.135414 483.96564 117.135414Q484.7 117.135414 485.1219 116.604164Q485.54376 116.05729 485.54376 115.18229Q485.54376 114.30729 485.1219 113.77604Q484.7 113.229164 483.9969 113.229164ZM488.23126 119.61979L487.6219 119.197914Q488.16876 118.43229 488.2 117.604164L488.2 116.635414L489.2625 116.635414L489.2625 117.479164Q489.2625 118.072914 488.96564 118.666664Q488.66876 119.260414 488.23126 119.61979ZM495.7469 117.916664L490.15314 117.916664L490.15314 117.135414L493.10626 113.854164Q493.7625 113.104164 494.0125 112.65104Q494.2625 112.18229 494.2625 111.68229Q494.2625 111.010414 493.85626 110.58854Q493.46564 110.15104 492.77814 110.15104Q491.98126 110.15104 491.52814 110.61979Q491.075 111.072914 491.075 111.90104L489.9969 111.90104Q489.9969 110.71354 490.7469 109.99479Q491.5125 109.260414 492.77814 109.260414Q493.98126 109.260414 494.66876 109.885414Q495.35626 110.510414 495.35626 111.55729Q495.35626 112.80729 493.7469 114.55729L491.46564 117.02604L495.7469 117.02604L495.7469 117.916664ZM497.0594 111.02604Q497.0594 110.260414 497.54376 109.760414Q498.04376 109.260414 498.8094 109.260414Q499.59064 109.260414 500.075 109.760414Q500.5594 110.260414 500.5594 111.05729L500.5594 111.479164Q500.5594 112.24479 500.0594 112.74479Q499.575 113.229164 498.825 113.229164Q498.0594 113.229164 497.5594 112.74479Q497.0594 112.24479 497.0594 111.43229L497.0594 111.02604ZM497.8719 111.479164Q497.8719 111.93229 498.1219 112.229164Q498.3875 112.52604 498.825 112.52604Q499.2469 112.52604 499.4969 112.24479Q499.7469 111.947914 499.7469 111.447914L499.7469 111.02604Q499.7469 110.572914 499.4969 110.27604Q499.2469 109.96354 498.8094 109.96354Q498.3719 109.96354 498.1219 110.27604Q497.8719 110.572914 497.8719 111.041664L497.8719 111.479164ZM501.21564 115.822914Q501.21564 115.05729 501.7 114.572914Q502.2 114.072914 502.96564 114.072914Q503.73126 114.072914 504.21564 114.572914Q504.71564 115.05729 504.71564 115.86979L504.71564 116.27604Q504.71564 117.041664 504.23126 117.541664Q503.7469 118.041664 502.98126 118.041664Q502.21564 118.041664 501.71564 117.55729Q501.21564 117.05729 501.21564 116.24479L501.21564 115.822914ZM502.02814 116.27604Q502.02814 116.74479 502.27814 117.041664Q502.54376 117.33854 502.98126 117.33854Q503.40314 117.33854 503.65314 117.05729Q503.90314 116.760414 503.90314 116.260414L503.90314 115.822914Q503.90314 115.354164 503.6375 115.072914Q503.3875 114.77604 502.96564 114.77604Q502.54376 114.77604 502.27814 115.072914Q502.02814 115.354164 502.02814 115.854164L502.02814 116.27604ZM499.075 117.27604L498.45 116.885414L502.6219 110.21354L503.23126 110.604164L499.075 117.27604Z" fill-rule="nonzero"/><path stroke="#757575" stroke-width="1.0" stroke-linecap="butt" d="M505.45 104.416664L416.76666 104.416664L325.9047 77.62824" fill-rule="nonzero"/><path fill="#9e9e9e" d="M327.9047 77.62824C327.9047 76.52367 327.00928 75.62824 325.9047 75.62824C324.80014 75.62824 323.9047 76.52367 323.9047 77.62824C323.9047 78.73281 324.80014 79.62824 325.9047 79.62824C327.00928 79.62824 327.9047 78.73281 327.9047 77.62824" fill-rule="nonzero"/><path fill="#757575" d="M456.575 131.9948L460.6219 131.9948L460.6219 132.91667L455.4344 132.91667L455.4344 124.38542L456.575 124.38542L456.575 131.9948ZM465.1844 132.29167Q464.5594 133.04167 463.325 133.04167Q462.3094 133.04167 461.77814 132.44792Q461.2469 131.85417 461.2469 130.69792L461.2469 126.57292L462.325 126.57292L462.325 130.66667Q462.325 132.1198 463.4969 132.1198Q464.7469 132.1198 465.15314 131.1823L465.15314 126.57292L466.2469 126.57292L466.2469 132.91667L465.21564 132.91667L465.1844 132.29167ZM473.6375 129.82292Q473.6375 131.27605 472.96564 132.16667Q472.3094 133.04167 471.1844 133.04167Q469.98126 133.04167 469.325 132.1823L469.2625 132.91667L468.27814 132.91667L468.27814 123.91667L469.35626 123.91667L469.35626 127.27605Q470.0125 126.46355 471.16876 126.46355Q472.325 126.46355 472.98126 127.33855Q473.6375 128.19792 473.6375 129.72917L473.6375 129.82292ZM472.5594 129.69792Q472.5594 128.58855 472.1219 127.9948Q471.7 127.38542 470.90314 127.38542Q469.825 127.38542 469.35626 128.3698L469.35626 131.1198Q469.85626 132.1198 470.90314 132.1198Q471.6844 132.1198 472.1219 131.51042Q472.5594 130.90105 472.5594 129.69792ZM478.34064 127.54167Q478.09064 127.51042 477.8094 127.51042Q476.73126 127.51042 476.35626 128.41667L476.35626 132.91667L475.27814 132.91667L475.27814 126.57292L476.325 126.57292L476.34064 127.3073Q476.8719 126.46355 477.85626 126.46355Q478.16876 126.46355 478.34064 126.54167L478.34064 127.54167ZM480.45 132.91667L479.3719 132.91667L479.3719 126.57292L480.45 126.57292L480.45 132.91667ZM479.27814 124.90105Q479.27814 124.63542 479.4344 124.44792Q479.60626 124.26042 479.91876 124.26042Q480.23126 124.26042 480.3875 124.44792Q480.5594 124.63542 480.5594 124.90105Q480.5594 125.15105 480.3875 125.33855Q480.23126 125.51042 479.91876 125.51042Q479.60626 125.51042 479.4344 125.33855Q479.27814 125.15105 479.27814 124.90105ZM484.8094 132.15105Q485.3875 132.15105 485.825 131.8073Q486.2625 131.44792 486.3094 130.91667L487.34064 130.91667Q487.3094 131.46355 486.95 131.96355Q486.60626 132.44792 486.02814 132.7448Q485.46564 133.04167 484.8094 133.04167Q483.5125 133.04167 482.7469 132.1823Q481.9969 131.3073 481.9969 129.8073L481.9969 129.6198Q481.9969 128.69792 482.325 127.97917Q482.66876 127.26042 483.29376 126.8698Q483.9344 126.46355 484.8094 126.46355Q485.8719 126.46355 486.575 127.10417Q487.29376 127.72917 487.34064 128.76042L486.3094 128.76042Q486.2625 128.13542 485.84064 127.7448Q485.41876 127.35417 484.8094 127.35417Q483.98126 127.35417 483.52814 127.94792Q483.075 128.54167 483.075 129.66667L483.075 129.8698Q483.075 130.96355 483.52814 131.5573Q483.98126 132.15105 484.8094 132.15105ZM492.1844 132.91667Q492.09064 132.72917 492.02814 132.2448Q491.27814 133.04167 490.23126 133.04167Q489.29376 133.04167 488.6844 132.51042Q488.09064 131.97917 488.09064 131.15105Q488.09064 130.16667 488.84064 129.6198Q489.59064 129.07292 490.96564 129.07292L492.0125 129.07292L492.0125 128.57292Q492.0125 128.01042 491.66876 127.6823Q491.34064 127.33855 490.66876 127.33855Q490.09064 127.33855 489.7 127.63542Q489.3094 127.91667 489.3094 128.33855L488.21564 128.33855Q488.21564 127.85417 488.54376 127.41667Q488.8875 126.97917 489.46564 126.72917Q490.04376 126.46355 490.73126 126.46355Q491.84064 126.46355 492.45 127.01042Q493.075 127.5573 493.10626 128.51042L493.10626 131.4323Q493.10626 132.3073 493.325 132.82292L493.325 132.91667L492.1844 132.91667ZM490.3875 132.08855Q490.90314 132.08855 491.35626 131.82292Q491.8094 131.5573 492.0125 131.13542L492.0125 129.83855L491.16876 129.83855Q489.16876 129.83855 489.16876 131.01042Q489.16876 131.51042 489.5125 131.8073Q489.85626 132.08855 490.3875 132.08855ZM496.29376 126.57292L496.325 127.3698Q497.0594 126.46355 498.23126 126.46355Q500.2469 126.46355 500.2625 128.72917L500.2625 132.91667L499.16876 132.91667L499.16876 128.71355Q499.16876 128.04167 498.85626 127.71355Q498.5594 127.38542 497.90314 127.38542Q497.3719 127.38542 496.96564 127.66667Q496.575 127.94792 496.35626 128.40105L496.35626 132.91667L495.27814 132.91667L495.27814 126.57292L496.29376 126.57292ZM503.7469 125.04167L503.7469 126.57292L504.91876 126.57292L504.91876 127.41667L503.7469 127.41667L503.7469 131.33855Q503.7469 131.72917 503.90314 131.91667Q504.0594 132.10417 504.4344 132.10417Q504.6219 132.10417 504.95 132.04167L504.95 132.91667Q504.52814 133.04167 504.1219 133.04167Q503.40314 133.04167 503.02814 132.60417Q502.65314 132.15105 502.65314 131.33855L502.65314 127.41667L501.4969 127.41667L501.4969 126.57292L502.65314 126.57292L502.65314 125.04167L503.7469 125.04167Z" fill-rule="nonzero"/><path fill="#9e9e9e" d="M482.73126 146.1198L483.54376 146.1198Q484.325 146.10417 484.7625 145.71355Q485.2 145.32292 485.2 144.65105Q485.2 143.15105 483.7 143.15105Q482.9969 143.15105 482.575 143.5573Q482.16876 143.96355 482.16876 144.6198L481.075 144.6198Q481.075 143.60417 481.8094 142.9323Q482.5594 142.26042 483.7 142.26042Q484.90314 142.26042 485.59064 142.90105Q486.27814 143.54167 486.27814 144.6823Q486.27814 145.2448 485.91876 145.76042Q485.5594 146.27605 484.9344 146.54167Q485.6375 146.76042 486.0125 147.27605Q486.40314 147.79167 486.40314 148.54167Q486.40314 149.6823 485.65314 150.3698Q484.90314 151.04167 483.7 151.04167Q482.5125 151.04167 481.7469 150.38542Q480.9969 149.72917 480.9969 148.66667L482.09064 148.66667Q482.09064 149.33855 482.52814 149.7448Q482.96564 150.15105 483.71564 150.15105Q484.4969 150.15105 484.90314 149.7448Q485.325 149.32292 485.325 148.5573Q485.325 147.82292 484.8719 147.4323Q484.41876 147.02605 483.54376 147.01042L482.73126 147.01042L482.73126 146.1198ZM488.23126 152.6198L487.6219 152.19792Q488.16876 151.4323 488.2 150.60417L488.2 149.63542L489.2625 149.63542L489.2625 150.47917Q489.2625 151.07292 488.96564 151.66667Q488.66876 152.26042 488.23126 152.6198ZM495.7469 150.91667L490.15314 150.91667L490.15314 150.13542L493.10626 146.85417Q493.7625 146.10417 494.0125 145.65105Q494.2625 145.1823 494.2625 144.6823Q494.2625 144.01042 493.85626 143.58855Q493.46564 143.15105 492.77814 143.15105Q491.98126 143.15105 491.52814 143.6198Q491.075 144.07292 491.075 144.90105L489.9969 144.90105Q489.9969 143.71355 490.7469 142.9948Q491.5125 142.26042 492.77814 142.26042Q493.98126 142.26042 494.66876 142.88542Q495.35626 143.51042 495.35626 144.5573Q495.35626 145.8073 493.7469 147.5573L491.46564 150.02605L495.7469 150.02605L495.7469 150.91667ZM497.0594 144.02605Q497.0594 143.26042 497.54376 142.76042Q498.04376 142.26042 498.8094 142.26042Q499.59064 142.26042 500.075 142.76042Q500.5594 143.26042 500.5594 144.0573L500.5594 144.47917Q500.5594 145.2448 500.0594 145.7448Q499.575 146.22917 498.825 146.22917Q498.0594 146.22917 497.5594 145.7448Q497.0594 145.2448 497.0594 144.4323L497.0594 144.02605ZM497.8719 144.47917Q497.8719 144.9323 498.1219 145.22917Q498.3875 145.52605 498.825 145.52605Q499.2469 145.52605 499.4969 145.2448Q499.7469 144.94792 499.7469 144.44792L499.7469 144.02605Q499.7469 143.57292 499.4969 143.27605Q499.2469 142.96355 498.8094 142.96355Q498.3719 142.96355 498.1219 143.27605Q497.8719 143.57292 497.8719 144.04167L497.8719 144.47917ZM501.21564 148.82292Q501.21564 148.0573 501.7 147.57292Q502.2 147.07292 502.96564 147.07292Q503.73126 147.07292 504.21564 147.57292Q504.71564 148.0573 504.71564 148.8698L504.71564 149.27605Q504.71564 150.04167 504.23126 150.54167Q503.7469 151.04167 502.98126 151.04167Q502.21564 151.04167 501.71564 150.5573Q501.21564 150.0573 501.21564 149.2448L501.21564 148.82292ZM502.02814 149.27605Q502.02814 149.7448 502.27814 150.04167Q502.54376 150.33855 502.98126 150.33855Q503.40314 150.33855 503.65314 150.0573Q503.90314 149.76042 503.90314 149.26042L503.90314 148.82292Q503.90314 148.35417 503.6375 148.07292Q503.3875 147.77605 502.96564 147.77605Q502.54376 147.77605 502.27814 148.07292Q502.02814 148.35417 502.02814 148.85417L502.02814 149.27605ZM499.075 150.27605L498.45 149.88542L502.6219 143.21355L503.23126 143.60417L499.075 150.27605Z" fill-rule="nonzero"/><path stroke="#757575" stroke-width="1.0" stroke-linecap="butt" d="M505.45 137.41667L416.76666 137.41667L359.8749 101.73139" fill-rule="nonzero"/><path fill="#9e9e9e" d="M361.8749 101.73139C361.8749 100.62682 360.9795 99.73139 359.8749 99.73139C358.77036 99.73139 357.8749 100.62682 357.8749 101.73139C357.8749 102.83596 358.77036 103.73139 359.8749 103.73139C360.9795 103.73139 361.8749 102.83596 361.8749 101.73139" fill-rule="nonzero"/><path fill="#757575" d="M20.20625 37.55L20.20625 23.33125L24.221874 23.33125Q26.065624 23.33125 27.4875 24.159374Q28.925 24.971874 29.690624 26.4875Q30.471874 28.003124 30.4875 29.95625L30.4875 30.8625Q30.4875 32.878124 29.70625 34.39375Q28.925 35.909374 27.4875 36.721874Q26.05 37.534374 24.14375 37.55L20.20625 37.55ZM22.08125 24.878124L22.08125 36.01875L24.05 36.01875Q26.221874 36.01875 27.425 34.675Q28.628124 33.315624 28.628124 30.83125L28.628124 30.003124Q28.628124 27.58125 27.4875 26.2375Q26.346874 24.89375 24.26875 24.878124L22.08125 24.878124ZM34.878124 37.55L33.08125 37.55L33.08125 26.9875L34.878124 26.9875L34.878124 37.55ZM32.925 24.175Q32.925 23.7375 33.190624 23.440624Q33.471874 23.128124 33.9875 23.128124Q34.51875 23.128124 34.784374 23.440624Q35.065624 23.7375 35.065624 24.175Q35.065624 24.6125 34.784374 24.909374Q34.51875 25.20625 33.9875 25.20625Q33.471874 25.20625 33.190624 24.909374Q32.925 24.6125 32.925 24.175ZM44.065624 34.753124Q44.065624 34.01875 43.51875 33.6125Q42.971874 33.20625 41.596874 32.909374Q40.221874 32.6125 39.409374 32.20625Q38.6125 31.8 38.221874 31.2375Q37.846874 30.659374 37.846874 29.878124Q37.846874 28.58125 38.940624 27.690624Q40.034374 26.784374 41.753124 26.784374Q43.55 26.784374 44.659374 27.721874Q45.784374 28.64375 45.784374 30.08125L43.95625 30.08125Q43.95625 29.346874 43.33125 28.815624Q42.70625 28.26875 41.753124 28.26875Q40.753124 28.26875 40.190624 28.70625Q39.64375 29.128124 39.64375 29.83125Q39.64375 30.471874 40.159374 30.815624Q40.675 31.14375 42.034374 31.45625Q43.39375 31.753124 44.221874 32.175Q45.065624 32.58125 45.471874 33.175Q45.878124 33.76875 45.878124 34.6125Q45.878124 36.034374 44.7375 36.89375Q43.6125 37.753124 41.8 37.753124Q40.534374 37.753124 39.55 37.3Q38.58125 36.846874 38.01875 36.05Q37.471874 35.2375 37.471874 34.3L39.284374 34.3Q39.33125 35.20625 40.003124 35.7375Q40.690624 36.26875 41.8 36.26875Q42.83125 36.26875 43.440624 35.8625Q44.065624 35.440624 44.065624 34.753124ZM50.3625 24.425L50.3625 26.9875L52.346874 26.9875L52.346874 28.378124L50.3625 28.378124L50.3625 34.925Q50.3625 35.565624 50.628124 35.89375Q50.89375 36.20625 51.534374 36.20625Q51.846874 36.20625 52.39375 36.08125L52.39375 37.55Q51.675 37.753124 51.003124 37.753124Q49.8 37.753124 49.175 37.01875Q48.565624 36.284374 48.565624 34.925L48.565624 28.378124L46.64375 28.378124L46.64375 26.9875L48.565624 26.9875L48.565624 24.425L50.3625 24.425ZM60.01875 28.596874Q59.6125 28.534374 59.14375 28.534374Q57.3625 28.534374 56.721874 30.05L56.721874 37.55L54.925 37.55L54.925 26.9875L56.675 26.9875L56.70625 28.20625Q57.596874 26.784374 59.221874 26.784374Q59.753124 26.784374 60.01875 26.925L60.01875 28.596874ZM63.878124 37.55L62.08125 37.55L62.08125 26.9875L63.878124 26.9875L63.878124 37.55ZM61.925 24.175Q61.925 23.7375 62.190624 23.440624Q62.471874 23.128124 62.9875 23.128124Q63.51875 23.128124 63.784374 23.440624Q64.06563 23.7375 64.06563 24.175Q64.06563 24.6125 63.784374 24.909374Q63.51875 25.20625 62.9875 25.20625Q62.471874 25.20625 62.190624 24.909374Q61.925 24.6125 61.925 24.175ZM75.8625 32.378124Q75.8625 34.8 74.75313 36.284374Q73.64375 37.753124 71.76875 37.753124Q69.75313 37.753124 68.65938 36.33125L68.58125 37.55L66.925 37.55L66.925 22.55L68.72188 22.55L68.72188 28.14375Q69.81563 26.784374 71.7375 26.784374Q73.65938 26.784374 74.75313 28.2375Q75.8625 29.690624 75.8625 32.221874L75.8625 32.378124ZM74.05 32.175Q74.05 30.33125 73.33125 29.33125Q72.62813 28.315624 71.3 28.315624Q69.50313 28.315624 68.72188 29.9875L68.72188 34.55Q69.55 36.20625 71.31563 36.20625Q72.6125 36.20625 73.33125 35.20625Q74.05 34.20625 74.05 32.175ZM84.44063 36.503124Q83.39375 37.753124 81.34688 37.753124Q79.65938 37.753124 78.76875 36.76875Q77.89375 35.784374 77.87813 33.8625L77.87813 26.9875L79.69063 26.9875L79.69063 33.815624Q79.69063 36.20625 81.64375 36.20625Q83.70625 36.20625 84.39375 34.675L84.39375 26.9875L86.20625 26.9875L86.20625 37.55L84.4875 37.55L84.44063 36.503124ZM91.3625 24.425L91.3625 26.9875L93.34688 26.9875L93.34688 28.378124L91.3625 28.378124L91.3625 34.925Q91.3625 35.565624 91.62813 35.89375Q91.89375 36.20625 92.53438 36.20625Q92.84688 36.20625 93.39375 36.08125L93.39375 37.55Q92.675 37.753124 92.00313 37.753124Q90.8 37.753124 90.175 37.01875Q89.56563 36.284374 89.56563 34.925L89.56563 28.378124L87.64375 28.378124L87.64375 26.9875L89.56563 26.9875L89.56563 24.425L91.3625 24.425ZM97.87813 37.55L96.08125 37.55L96.08125 26.9875L97.87813 26.9875L97.87813 37.55ZM95.925 24.175Q95.925 23.7375 96.19063 23.440624Q96.47188 23.128124 96.9875 23.128124Q97.51875 23.128124 97.78438 23.440624Q98.06563 23.7375 98.06563 24.175Q98.06563 24.6125 97.78438 24.909374Q97.51875 25.20625 96.9875 25.20625Q96.47188 25.20625 96.19063 24.909374Q95.925 24.6125 95.925 24.175ZM100.44063 32.175Q100.44063 30.6125 101.05 29.378124Q101.65938 28.128124 102.7375 27.45625Q103.83125 26.784374 105.2375 26.784374Q107.39375 26.784374 108.72188 28.284374Q110.06563 29.76875 110.06563 32.253124L110.06563 32.378124Q110.06563 33.925 109.47188 35.159374Q108.87813 36.378124 107.76875 37.065624Q106.675 37.753124 105.25313 37.753124Q103.1125 37.753124 101.76875 36.253124Q100.44063 34.753124 100.44063 32.3L100.44063 32.175ZM102.25313 32.378124Q102.25313 34.14375 103.06563 35.20625Q103.89375 36.26875 105.25313 36.26875Q106.62813 36.26875 107.44063 35.190624Q108.25313 34.1125 108.25313 32.175Q108.25313 30.425 107.425 29.346874Q106.59688 28.26875 105.2375 28.26875Q103.89375 28.26875 103.06563 29.33125Q102.25313 30.39375 102.25313 32.378124ZM113.62813 26.9875L113.69063 28.315624Q114.89375 26.784374 116.84688 26.784374Q120.20625 26.784374 120.22188 30.565624L120.22188 37.55L118.425 37.55L118.425 30.55Q118.40938 29.409374 117.89375 28.8625Q117.39375 28.315624 116.3 28.315624Q115.425 28.315624 114.75313 28.784374Q114.09688 29.253124 113.72188 30.01875L113.72188 37.55L111.925 37.55L111.925 26.9875L113.62813 26.9875ZM129.87813 37.55L128.08125 37.55L128.08125 26.9875L129.87813 26.9875L129.87813 37.55ZM127.925 24.175Q127.925 23.7375 128.19063 23.440624Q128.47188 23.128124 128.9875 23.128124Q129.51875 23.128124 129.78438 23.440624Q130.06563 23.7375 130.06563 24.175Q130.06563 24.6125 129.78438 24.909374Q129.51875 25.20625 128.9875 25.20625Q128.47188 25.20625 128.19063 24.909374Q127.925 24.6125 127.925 24.175ZM134.62813 26.9875L134.69063 28.315624Q135.89375 26.784374 137.84688 26.784374Q141.20625 26.784374 141.22188 30.565624L141.22188 37.55L139.425 37.55L139.425 30.55Q139.40938 29.409374 138.89375 28.8625Q138.39375 28.315624 137.3 28.315624Q136.425 28.315624 135.75313 28.784374Q135.09688 29.253124 134.72188 30.01875L134.72188 37.55L132.925 37.55L132.925 26.9875L134.62813 26.9875ZM155.06563 34.753124Q155.06563 34.01875 154.51875 33.6125Q153.97188 33.20625 152.59688 32.909374Q151.22188 32.6125 150.40938 32.20625Q149.6125 31.8 149.22188 31.2375Q148.84688 30.659374 148.84688 29.878124Q148.84688 28.58125 149.94063 27.690624Q151.03438 26.784374 152.75313 26.784374Q154.55 26.784374 155.65938 27.721874Q156.78438 28.64375 156.78438 30.08125L154.95625 30.08125Q154.95625 29.346874 154.33125 28.815624Q153.70625 28.26875 152.75313 28.26875Q151.75313 28.26875 151.19063 28.70625Q150.64375 29.128124 150.64375 29.83125Q150.64375 30.471874 151.15938 30.815624Q151.675 31.14375 153.03438 31.45625Q154.39375 31.753124 155.22188 32.175Q156.06563 32.58125 156.47188 33.175Q156.87813 33.76875 156.87813 34.6125Q156.87813 36.034374 155.7375 36.89375Q154.6125 37.753124 152.8 37.753124Q151.53438 37.753124 150.55 37.3Q149.58125 36.846874 149.01875 36.05Q148.47188 35.2375 148.47188 34.3L150.28438 34.3Q150.33125 35.20625 151.00313 35.7375Q151.69063 36.26875 152.8 36.26875Q153.83125 36.26875 154.44063 35.8625Q155.06563 35.440624 155.06563 34.753124ZM163.3 37.753124Q161.15938 37.753124 159.8 36.346874Q158.45625 34.925 158.45625 32.565624L158.45625 32.221874Q158.45625 30.659374 159.05 29.425Q159.65938 28.190624 160.7375 27.4875Q161.81563 26.784374 163.08125 26.784374Q165.14375 26.784374 166.28438 28.14375Q167.425 29.503124 167.425 32.034374L167.425 32.784374L160.26875 32.784374Q160.3 34.346874 161.175 35.315624Q162.05 36.26875 163.39375 36.26875Q164.3625 36.26875 165.01875 35.878124Q165.69063 35.4875 166.19063 34.846874L167.28438 35.70625Q165.95625 37.753124 163.3 37.753124ZM163.08125 28.26875Q161.9875 28.26875 161.2375 29.065624Q160.50313 29.8625 160.33125 31.3L165.6125 31.3L165.6125 31.159374Q165.53438 29.784374 164.8625 29.034374Q164.20625 28.26875 163.08125 28.26875ZM171.87813 37.55L170.08125 37.55L170.08125 22.55L171.87813 22.55L171.87813 37.55ZM179.3 37.753124Q177.15938 37.753124 175.8 36.346874Q174.45625 34.925 174.45625 32.565624L174.45625 32.221874Q174.45625 30.659374 175.05 29.425Q175.65938 28.190624 176.7375 27.4875Q177.81563 26.784374 179.08125 26.784374Q181.14375 26.784374 182.28438 28.14375Q183.425 29.503124 183.425 32.034374L183.425 32.784374L176.26875 32.784374Q176.3 34.346874 177.175 35.315624Q178.05 36.26875 179.39375 36.26875Q180.3625 36.26875 181.01875 35.878124Q181.69063 35.4875 182.19063 34.846874L183.28438 35.70625Q181.95625 37.753124 179.3 37.753124ZM179.08125 28.26875Q177.9875 28.26875 177.2375 29.065624Q176.50313 29.8625 176.33125 31.3L181.6125 31.3L181.6125 31.159374Q181.53438 29.784374 180.8625 29.034374Q180.20625 28.26875 179.08125 28.26875ZM190.15938 36.26875Q191.12813 36.26875 191.84688 35.690624Q192.56563 35.096874 192.64375 34.221874L194.3625 34.221874Q194.3 35.128124 193.72188 35.95625Q193.15938 36.76875 192.19063 37.26875Q191.2375 37.753124 190.15938 37.753124Q188.00313 37.753124 186.72188 36.315624Q185.45625 34.8625 185.45625 32.3625L185.45625 32.065624Q185.45625 30.51875 186.01875 29.315624Q186.58125 28.1125 187.64375 27.45625Q188.70625 26.784374 190.14375 26.784374Q191.925 26.784374 193.09688 27.846874Q194.28438 28.909374 194.3625 30.6125L192.64375 30.6125Q192.56563 29.596874 191.8625 28.940624Q191.175 28.26875 190.14375 28.26875Q188.76875 28.26875 188.00313 29.26875Q187.25313 30.253124 187.25313 32.128124L187.25313 32.471874Q187.25313 34.3 188.00313 35.284374Q188.75313 36.26875 190.15938 36.26875ZM198.3625 24.425L198.3625 26.9875L200.34688 26.9875L200.34688 28.378124L198.3625 28.378124L198.3625 34.925Q198.3625 35.565624 198.62813 35.89375Q198.89375 36.20625 199.53438 36.20625Q199.84688 36.20625 200.39375 36.08125L200.39375 37.55Q199.675 37.753124 199.00313 37.753124Q197.8 37.753124 197.175 37.01875Q196.56563 36.284374 196.56563 34.925L196.56563 28.378124L194.64375 28.378124L194.64375 26.9875L196.56563 26.9875L196.56563 24.425L198.3625 24.425ZM207.3 37.753124Q205.15938 37.753124 203.8 36.346874Q202.45625 34.925 202.45625 32.565624L202.45625 32.221874Q202.45625 30.659374 203.05 29.425Q203.65938 28.190624 204.7375 27.4875Q205.81563 26.784374 207.08125 26.784374Q209.14375 26.784374 210.28438 28.14375Q211.425 29.503124 211.425 32.034374L211.425 32.784374L204.26875 32.784374Q204.3 34.346874 205.175 35.315624Q206.05 36.26875 207.39375 36.26875Q208.3625 36.26875 209.01875 35.878124Q209.69063 35.4875 210.19063 34.846874L211.28438 35.70625Q209.95625 37.753124 207.3 37.753124ZM207.08125 28.26875Q205.9875 28.26875 205.2375 29.065624Q204.50313 29.8625 204.33125 31.3L209.6125 31.3L209.6125 31.159374Q209.53438 29.784374 208.8625 29.034374Q208.20625 28.26875 207.08125 28.26875ZM213.47188 32.175Q213.47188 29.753124 214.62813 28.26875Q215.78438 26.784374 217.64375 26.784374Q219.50313 26.784374 220.58125 28.05L220.58125 22.55L222.39375 22.55L222.39375 37.55L220.7375 37.55L220.64375 36.409374Q219.56563 37.753124 217.62813 37.753124Q215.8 37.753124 214.62813 36.253124Q213.47188 34.7375 213.47188 32.315624L213.47188 32.175ZM215.28438 32.378124Q215.28438 34.175 216.01875 35.190624Q216.76875 36.20625 218.08125 36.20625Q219.8 36.20625 220.58125 34.675L220.58125 29.815624Q219.78438 28.315624 218.09688 28.315624Q216.76875 28.315624 216.01875 29.346874Q215.28438 30.378124 215.28438 32.378124ZM234.15938 36.26875Q235.12813 36.26875 235.84688 35.690624Q236.56563 35.096874 236.64375 34.221874L238.3625 34.221874Q238.3 35.128124 237.72188 35.95625Q237.15938 36.76875 236.19063 37.26875Q235.2375 37.753124 234.15938 37.753124Q232.00313 37.753124 230.72188 36.315624Q229.45625 34.8625 229.45625 32.3625L229.45625 32.065624Q229.45625 30.51875 230.01875 29.315624Q230.58125 28.1125 231.64375 27.45625Q232.70625 26.784374 234.14375 26.784374Q235.925 26.784374 237.09688 27.846874Q238.28438 28.909374 238.3625 30.6125L236.64375 30.6125Q236.56563 29.596874 235.8625 28.940624Q235.175 28.26875 234.14375 28.26875Q232.76875 28.26875 232.00313 29.26875Q231.25313 30.253124 231.25313 32.128124L231.25313 32.471874Q231.25313 34.3 232.00313 35.284374Q232.75313 36.26875 234.15938 36.26875ZM246.44063 37.55Q246.28438 37.2375 246.19063 36.440624Q244.925 37.753124 243.175 37.753124Q241.6125 37.753124 240.6125 36.8625Q239.6125 35.971874 239.6125 34.6125Q239.6125 32.971874 240.8625 32.065624Q242.12813 31.14375 244.39375 31.14375L246.15938 31.14375L246.15938 30.315624Q246.15938 29.3625 245.58125 28.8Q245.01875 28.2375 243.925 28.2375Q242.95625 28.2375 242.3 28.7375Q241.64375 29.221874 241.64375 29.909374L239.83125 29.909374Q239.83125 29.128124 240.39375 28.39375Q240.95625 27.64375 241.90938 27.221874Q242.87813 26.784374 244.03438 26.784374Q245.8625 26.784374 246.89375 27.70625Q247.925 28.6125 247.97188 30.221874L247.97188 35.08125Q247.97188 36.534374 248.33125 37.39375L248.33125 37.55L246.44063 37.55ZM243.44063 36.175Q244.3 36.175 245.05 35.7375Q245.81563 35.3 246.15938 34.596874L246.15938 32.425L244.7375 32.425Q241.425 32.425 241.425 34.3625Q241.425 35.221874 241.9875 35.70625Q242.55 36.175 243.44063 36.175ZM253.3625 24.425L253.3625 26.9875L255.34688 26.9875L255.34688 28.378124L253.3625 28.378124L253.3625 34.925Q253.3625 35.565624 253.62813 35.89375Q253.89375 36.20625 254.53438 36.20625Q254.84688 36.20625 255.39375 36.08125L255.39375 37.55Q254.675 37.753124 254.00313 37.753124Q252.8 37.753124 252.175 37.01875Q251.56563 36.284374 251.56563 34.925L251.56563 28.378124L249.64375 28.378124L249.64375 26.9875L251.56563 26.9875L251.56563 24.425L253.3625 24.425ZM262.3 37.753124Q260.15936 37.753124 258.8 36.346874Q257.45624 34.925 257.45624 32.565624L257.45624 32.221874Q257.45624 30.659374 258.05 29.425Q258.65936 28.190624 259.7375 27.4875Q260.8156 26.784374 262.08124 26.784374Q264.14374 26.784374 265.28436 28.14375Q266.425 29.503124 266.425 32.034374L266.425 32.784374L259.26874 32.784374Q259.3 34.346874 260.175 35.315624Q261.05 36.26875 262.39374 36.26875Q263.3625 36.26875 264.01874 35.878124Q264.6906 35.4875 265.1906 34.846874L266.28436 35.70625Q264.95624 37.753124 262.3 37.753124ZM262.08124 28.26875Q260.9875 28.26875 260.2375 29.065624Q259.5031 29.8625 259.33124 31.3L264.6125 31.3L264.6125 31.159374Q264.53436 29.784374 263.8625 29.034374Q263.20624 28.26875 262.08124 28.26875ZM268.4875 32.175Q268.4875 29.70625 269.6281 28.253124Q270.76874 26.784374 272.65936 26.784374Q274.59686 26.784374 275.675 28.159374L275.76874 26.9875L277.40936 26.9875L277.40936 37.3Q277.40936 39.346874 276.1906 40.51875Q274.9875 41.70625 272.925 41.70625Q271.78436 41.70625 270.6906 41.221874Q269.59686 40.7375 269.01874 39.878124L269.95624 38.8Q271.1281 40.2375 272.8 40.2375Q274.1281 40.2375 274.8625 39.4875Q275.59686 38.753124 275.59686 37.409374L275.59686 36.4875Q274.51874 37.753124 272.64374 37.753124Q270.78436 37.753124 269.6281 36.253124Q268.4875 34.753124 268.4875 32.175ZM270.3 32.378124Q270.3 34.175 271.03436 35.190624Q271.76874 36.20625 273.08124 36.20625Q274.8 36.20625 275.59686 34.659374L275.59686 29.83125Q274.76874 28.315624 273.1125 28.315624Q271.78436 28.315624 271.03436 29.346874Q270.3 30.378124 270.3 32.378124ZM279.4406 32.175Q279.4406 30.6125 280.05 29.378124Q280.65936 28.128124 281.7375 27.45625Q282.83124 26.784374 284.2375 26.784374Q286.39374 26.784374 287.72186 28.284374Q289.0656 29.76875 289.0656 32.253124L289.0656 32.378124Q289.0656 33.925 288.47186 35.159374Q287.8781 36.378124 286.76874 37.065624Q285.675 37.753124 284.2531 37.753124Q282.1125 37.753124 280.76874 36.253124Q279.4406 34.753124 279.4406 32.3L279.4406 32.175ZM281.2531 32.378124Q281.2531 34.14375 282.0656 35.20625Q282.89374 36.26875 284.2531 36.26875Q285.6281 36.26875 286.4406 35.190624Q287.2531 34.1125 287.2531 32.175Q287.2531 30.425 286.425 29.346874Q285.59686 28.26875 284.2375 28.26875Q282.89374 28.26875 282.0656 29.33125Q281.2531 30.39375 281.2531 32.378124ZM296.01874 28.596874Q295.6125 28.534374 295.14374 28.534374Q293.3625 28.534374 292.72186 30.05L292.72186 37.55L290.925 37.55L290.925 26.9875L292.675 26.9875L292.70624 28.20625Q293.59686 26.784374 295.22186 26.784374Q295.7531 26.784374 296.01874 26.925L296.01874 28.596874ZM301.3781 34.909374L303.83124 26.9875L305.76874 26.9875L301.51874 39.175Q300.53436 41.815624 298.39374 41.815624L298.05 41.784374L297.3781 41.659374L297.3781 40.190624L297.8625 40.2375Q298.78436 40.2375 299.28436 39.8625Q299.8 39.4875 300.1281 38.503124L300.53436 37.425L296.76874 26.9875L298.7375 26.9875L301.3781 34.909374Z" fill-rule="nonzero"/></svg>