<svg version="1.1" viewBox="0.0 0.0 524.0 371.0" fill="none" stroke="none" stroke-linecap="square" stroke-miterlimit="10" width="524" height="371" xmlns:xlink="http://www.w3.org/1999/xlink" xmlns="http://www.w3.org/2000/svg"><path fill="#ffffff" d="M0 0L524.0 0L524.0 371.0L0 371.0L0 0Z" fill-rule="nonzero"/><path fill="#ffffff" d="M0 0L524.0 0L524.0 371.0L0 371.0L0 0Z" fill-rule="nonzero"/><path fill="#db4437" d="M262.0 54.916668C322.23758 54.916668 376.52994 91.24231 399.5129 146.9231C422.49588 202.6039 409.63278 266.6488 366.93295 309.13754L262.0 203.68333Z" fill-rule="nonzero"/><path fill="#ffffff" d="M362.07513 161.12665L363.45013 161.12665L363.45013 162.1579L362.07513 162.1579L362.07513 164.4704L360.79388 164.4704L360.79388 162.1579L356.26263 162.1579L356.26263 161.4079L360.71576 154.51727L362.07513 154.51727L362.07513 161.12665ZM357.70013 161.12665L360.79388 161.12665L360.79388 156.25165L360.65326 156.51727L357.70013 161.12665ZM371.15326 155.2204L367.02826 164.4704L365.71576 164.4704L369.8095 155.54852L364.4345 155.54852L364.4345 154.51727L371.15326 154.51727L371.15326 155.2204ZM377.70013 154.51727L377.70013 155.57977L377.46576 155.57977Q375.98138 155.61102 375.10638 156.45477Q374.23138 157.29852 374.09076 158.8454Q374.88763 157.93915 376.247 157.93915Q377.54388 157.93915 378.3095 158.86102Q379.09076 159.76727 379.09076 161.2204Q379.09076 162.76727 378.247 163.68915Q377.41888 164.61102 376.01263 164.61102Q374.59076 164.61102 373.70013 163.51727Q372.8095 162.4079 372.8095 160.68915L372.8095 160.20477Q372.8095 157.45477 373.98138 156.00165Q375.15326 154.54852 377.46576 154.51727L377.70013 154.51727ZM376.02826 159.00165Q375.38763 159.00165 374.84076 159.39227Q374.29388 159.76727 374.07513 160.36102L374.07513 160.82977Q374.07513 162.06415 374.622 162.81415Q375.1845 163.56415 376.01263 163.56415Q376.872 163.56415 377.35638 162.93915Q377.84076 162.29852 377.84076 161.2829Q377.84076 160.25165 377.34076 159.62665Q376.85638 159.00165 376.02826 159.00165Z" fill-rule="nonzero"/><path fill="#f4b400" d="M366.93295 309.13754C364.1457 311.91107 361.24954 314.57297 358.25137 317.117L262.0 203.68333Z" fill-rule="nonzero"/><path fill="#0f9d58" d="M358.25137 317.117C300.4875 366.1311 215.11632 363.9097 159.97964 311.95782C104.84298 260.00598 97.55212 174.9177 143.04686 114.34313L262.0 203.68333Z" fill-rule="nonzero"/><path fill="#ffffff" d="M173.72203 285.64545L174.23766 280.6767L179.3314 280.6767L179.3314 281.84857L175.30016 281.84857L175.00328 284.5517Q175.73766 284.12982 176.65953 284.12982Q178.0189 284.12982 178.81578 285.03607Q179.62828 285.9267 179.62828 287.45795Q179.62828 288.9892 178.78453 289.87982Q177.9564 290.77045 176.47203 290.77045Q175.15953 290.77045 174.31578 290.03607Q173.48766 289.3017 173.36266 288.00482L174.56578 288.00482Q174.67516 288.8642 175.15953 289.3017Q175.65953 289.7392 176.47203 289.7392Q177.34703 289.7392 177.84703 289.14545Q178.36266 288.53607 178.36266 287.47357Q178.36266 286.47357 177.81578 285.87982Q177.2689 285.27045 176.36266 285.27045Q175.55016 285.27045 175.06578 285.62982L174.73766 285.89545L173.72203 285.64545ZM187.17516 283.27045Q187.17516 284.02045 186.78453 284.59857Q186.3939 285.1767 185.72203 285.50482Q186.50328 285.84857 186.9564 286.4892Q187.40953 287.12982 187.40953 287.94232Q187.40953 289.2392 186.53453 290.00482Q185.67516 290.77045 184.25328 290.77045Q182.81578 290.77045 181.94078 290.00482Q181.0814 289.22357 181.0814 287.94232Q181.0814 287.12982 181.5189 286.4892Q181.9564 285.83295 182.73766 285.50482Q182.0814 285.1767 181.69078 284.59857Q181.31578 284.00482 181.31578 283.27045Q181.31578 282.02045 182.11266 281.28607Q182.92516 280.53607 184.25328 280.53607Q185.56578 280.53607 186.36266 281.28607Q187.17516 282.02045 187.17516 283.27045ZM186.1439 287.91107Q186.1439 287.08295 185.61266 286.56732Q185.0814 286.03607 184.22203 286.03607Q183.37828 286.03607 182.86266 286.5517Q182.34703 287.06732 182.34703 287.9267Q182.34703 288.77045 182.84703 289.25482Q183.34703 289.7392 184.25328 289.7392Q185.12828 289.7392 185.62828 289.25482Q186.1439 288.75482 186.1439 287.91107ZM184.25328 281.58295Q183.50328 281.58295 183.03453 282.0517Q182.5814 282.50482 182.5814 283.3017Q182.5814 284.0517 183.03453 284.52045Q183.48766 284.9892 184.23766 284.9892Q185.00328 284.9892 185.4564 284.52045Q185.90953 284.0517 185.90953 283.3017Q185.90953 282.53607 185.44078 282.06732Q184.97203 281.58295 184.25328 281.58295ZM193.98766 286.25482Q193.59703 286.72357 193.03453 287.02045Q192.48766 287.3017 191.8314 287.3017Q190.97203 287.3017 190.3314 286.87982Q189.69078 286.45795 189.34703 285.69232Q189.00328 284.91107 189.00328 283.9892Q189.00328 282.9892 189.37828 282.19232Q189.75328 281.37982 190.4564 280.95795Q191.15953 280.53607 192.0814 280.53607Q193.56578 280.53607 194.40953 281.64545Q195.2689 282.75482 195.2689 284.66107L195.2689 285.02045Q195.2689 287.9267 194.11266 289.27045Q192.97203 290.59857 190.6439 290.62982L190.3939 290.62982L190.3939 289.56732L190.67516 289.56732Q192.23766 289.53607 193.06578 288.75482Q193.90953 287.95795 193.98766 286.25482ZM192.03453 286.25482Q192.67516 286.25482 193.2064 285.8642Q193.75328 285.47357 194.00328 284.89545L194.00328 284.39545Q194.00328 283.14545 193.4564 282.37982Q192.90953 281.59857 192.09703 281.59857Q191.25328 281.59857 190.73766 282.2392Q190.23766 282.8642 190.23766 283.91107Q190.23766 284.94232 190.72203 285.59857Q191.22203 286.25482 192.03453 286.25482Z" fill-rule="nonzero"/><path fill="#ff6d00" d="M143.04686 114.34313C155.48734 97.7791 171.25006 83.99581 189.32553 73.87601L262.0 203.68333Z" fill-rule="nonzero"/><path fill="#000000" d="M184.43633 113.42568Q184.43633 114.17568 184.0457 114.75381Q183.65508 115.33193 182.9832 115.66006Q183.76445 116.00381 184.21758 116.64443Q184.6707 117.28506 184.6707 118.09756Q184.6707 119.39443 183.7957 120.16006Q182.93633 120.92568 181.51445 120.92568Q180.07695 120.92568 179.20195 120.16006Q178.34258 119.37881 178.34258 118.09756Q178.34258 117.28506 178.78008 116.64443Q179.21758 115.98818 179.99883 115.66006Q179.34258 115.33193 178.95195 114.75381Q178.57695 114.16006 178.57695 113.42568Q178.57695 112.17568 179.37383 111.44131Q180.18633 110.69131 181.51445 110.69131Q182.82695 110.69131 183.62383 111.44131Q184.43633 112.17568 184.43633 113.42568ZM183.40508 118.06631Q183.40508 117.23818 182.87383 116.72256Q182.34258 116.19131 181.4832 116.19131Q180.63945 116.19131 180.12383 116.70693Q179.6082 117.22256 179.6082 118.08193Q179.6082 118.92568 180.1082 119.41006Q180.6082 119.89443 181.51445 119.89443Q182.38945 119.89443 182.88945 119.41006Q183.40508 118.91006 183.40508 118.06631ZM181.51445 111.73818Q180.76445 111.73818 180.2957 112.20693Q179.84258 112.66006 179.84258 113.45693Q179.84258 114.20693 180.2957 114.67568Q180.74883 115.14443 181.49883 115.14443Q182.26445 115.14443 182.71758 114.67568Q183.1707 114.20693 183.1707 113.45693Q183.1707 112.69131 182.70195 112.22256Q182.2332 111.73818 181.51445 111.73818ZM191.74883 117.44131L193.12383 117.44131L193.12383 118.47256L191.74883 118.47256L191.74883 120.78506L190.46758 120.78506L190.46758 118.47256L185.93633 118.47256L185.93633 117.72256L190.38945 110.83193L191.74883 110.83193L191.74883 117.44131ZM187.37383 117.44131L190.46758 117.44131L190.46758 112.56631L190.32695 112.83193L187.37383 117.44131Z" fill-rule="nonzero"/><path fill="#46bdc6" d="M189.32553 73.87601C211.53006 61.444485 236.55232 54.916668 262.0 54.916668L262.0 203.68333Z" fill-rule="nonzero"/><path fill="#000000" d="M225.19801 94.00702L223.93239 94.00702L223.93239 85.585144L221.36989 86.50702L221.36989 85.366394L224.99489 84.00702L225.19801 84.00702L225.19801 94.00702ZM235.27614 89.75702Q235.27614 91.97577 234.51051 93.06952Q233.76051 94.147644 232.15114 94.147644Q230.55739 94.147644 229.79176 93.10077Q229.02614 92.03827 228.99489 89.928894L228.99489 88.241394Q228.99489 86.053894 229.74489 84.991394Q230.51051 83.91327 232.13551 83.91327Q233.74489 83.91327 234.49489 84.94452Q235.26051 85.97577 235.27614 88.116394L235.27614 89.75702ZM234.01051 88.03827Q234.01051 86.428894 233.55739 85.69452Q233.11989 84.960144 232.13551 84.960144Q231.16676 84.960144 230.71364 85.69452Q230.27614 86.41327 230.26051 87.928894L230.26051 89.960144Q230.26051 91.56952 230.72926 92.35077Q231.19801 93.116394 232.15114 93.116394Q233.08864 93.116394 233.54176 92.397644Q233.99489 91.66327 234.01051 90.10077L234.01051 88.03827ZM238.88551 88.41327L239.82301 88.41327Q240.72926 88.397644 241.22926 87.94452Q241.74489 87.491394 241.74489 86.710144Q241.74489 84.960144 240.01051 84.960144Q239.18239 84.960144 238.69801 85.428894Q238.21364 85.897644 238.21364 86.66327L236.94801 86.66327Q236.94801 85.47577 237.80739 84.69452Q238.68239 83.91327 240.01051 83.91327Q241.41676 83.91327 242.21364 84.66327Q243.01051 85.41327 243.01051 86.72577Q243.01051 87.38202 242.58864 87.991394Q242.18239 88.60077 241.44801 88.897644Q242.27614 89.16327 242.71364 89.772644Q243.16676 90.366394 243.16676 91.22577Q243.16676 92.56952 242.29176 93.366394Q241.41676 94.147644 240.01051 94.147644Q238.61989 94.147644 237.72926 93.397644Q236.85426 92.63202 236.85426 91.38202L238.13551 91.38202Q238.13551 92.16327 238.63551 92.647644Q239.15114 93.116394 240.01051 93.116394Q240.93239 93.116394 241.41676 92.63202Q241.90114 92.147644 241.90114 91.25702Q241.90114 90.397644 241.36989 89.928894Q240.83864 89.460144 239.82301 89.44452L238.88551 89.44452L238.88551 88.41327Z" fill-rule="nonzero"/><path fill="#757575" d="M22.05 63.11979Q20.6125 62.697914 19.940624 62.08854Q19.284374 61.479164 19.284374 60.58854Q19.284374 59.58854 20.08125 58.93229Q20.89375 58.260414 22.190624 58.260414Q23.065624 58.260414 23.753124 58.604164Q24.440624 58.947914 24.815624 59.541664Q25.20625 60.135414 25.20625 60.854164L24.065624 60.854164Q24.065624 60.072914 23.565624 59.635414Q23.08125 59.197914 22.190624 59.197914Q21.3625 59.197914 20.89375 59.572914Q20.425 59.93229 20.425 60.572914Q20.425 61.104164 20.8625 61.46354Q21.315624 61.822914 22.378124 62.11979Q23.440624 62.416664 24.034374 62.77604Q24.64375 63.135414 24.925 63.61979Q25.221874 64.104164 25.221874 64.74479Q25.221874 65.791664 24.409374 66.416664Q23.596874 67.041664 22.253124 67.041664Q21.3625 67.041664 20.596874 66.697914Q19.846874 66.354164 19.425 65.77604Q19.01875 65.18229 19.01875 64.447914L20.14375 64.447914Q20.14375 65.21354 20.721874 65.666664Q21.3 66.11979 22.253124 66.11979Q23.14375 66.11979 23.6125 65.760414Q24.08125 65.385414 24.08125 64.760414Q24.08125 64.135414 23.64375 63.791664Q23.20625 63.447914 22.05 63.11979ZM31.9875 65.416664L33.20625 60.572914L34.284374 60.572914L32.440624 66.916664L31.565624 66.916664L30.01875 62.104164L28.51875 66.916664L27.64375 66.916664L25.8 60.572914L26.878124 60.572914L28.128124 65.322914L29.6125 60.572914L30.471874 60.572914L31.9875 65.416664ZM36.55 66.916664L35.471874 66.916664L35.471874 60.572914L36.55 60.572914L36.55 66.916664ZM35.378124 58.90104Q35.378124 58.635414 35.534374 58.447914Q35.70625 58.260414 36.01875 58.260414Q36.33125 58.260414 36.4875 58.447914Q36.659374 58.635414 36.659374 58.90104Q36.659374 59.15104 36.4875 59.33854Q36.33125 59.510414 36.01875 59.510414Q35.70625 59.510414 35.534374 59.33854Q35.378124 59.15104 35.378124 58.90104ZM39.846874 59.041664L39.846874 60.572914L41.01875 60.572914L41.01875 61.416664L39.846874 61.416664L39.846874 65.33854Q39.846874 65.729164 40.003124 65.916664Q40.159374 66.104164 40.534374 66.104164Q40.721874 66.104164 41.05 66.041664L41.05 66.916664Q40.628124 67.041664 40.221874 67.041664Q39.503124 67.041664 39.128124 66.604164Q38.753124 66.15104 38.753124 65.33854L38.753124 61.416664L37.596874 61.416664L37.596874 60.572914L38.753124 60.572914L38.753124 59.041664L39.846874 59.041664ZM44.909374 66.15104Q45.4875 66.15104 45.925 65.80729Q46.3625 65.447914 46.409374 64.916664L47.440624 64.916664Q47.409374 65.46354 47.05 65.96354Q46.70625 66.447914 46.128124 66.74479Q45.565624 67.041664 44.909374 67.041664Q43.6125 67.041664 42.846874 66.18229Q42.096874 65.30729 42.096874 63.80729L42.096874 63.61979Q42.096874 62.697914 42.425 61.979164Q42.76875 61.260414 43.39375 60.86979Q44.034374 60.46354 44.909374 60.46354Q45.971874 60.46354 46.675 61.104164Q47.39375 61.729164 47.440624 62.760414L46.409374 62.760414Q46.3625 62.135414 45.940624 61.74479Q45.51875 61.354164 44.909374 61.354164Q44.08125 61.354164 43.628124 61.947914Q43.175 62.541664 43.175 63.666664L43.175 63.86979Q43.175 64.96354 43.628124 65.55729Q44.08125 66.15104 44.909374 66.15104ZM49.45625 61.33854Q50.175 60.46354 51.33125 60.46354Q53.346874 60.46354 53.3625 62.729164L53.3625 66.916664L52.26875 66.916664L52.26875 62.71354Q52.26875 62.041664 51.95625 61.71354Q51.659374 61.385414 51.003124 61.385414Q50.471874 61.385414 50.065624 61.666664Q49.675 61.947914 49.45625 62.40104L49.45625 66.916664L48.378124 66.916664L48.378124 57.916664L49.45625 57.916664L49.45625 61.33854ZM58.003124 67.041664Q56.70625 67.041664 55.89375 66.197914Q55.096874 65.33854 55.096874 63.916664L55.096874 63.729164Q55.096874 62.77604 55.45625 62.041664Q55.815624 61.291664 56.45625 60.885414Q57.1125 60.46354 57.8625 60.46354Q59.096874 60.46354 59.784374 61.27604Q60.471874 62.08854 60.471874 63.604164L60.471874 64.05729L56.175 64.05729Q56.20625 64.99479 56.721874 65.572914Q57.253124 66.15104 58.065624 66.15104Q58.628124 66.15104 59.01875 65.916664Q59.425 65.68229 59.7375 65.291664L60.39375 65.80729Q59.596874 67.041664 58.003124 67.041664ZM57.8625 61.354164Q57.20625 61.354164 56.753124 61.83854Q56.315624 62.30729 56.221874 63.166664L59.39375 63.166664L59.39375 63.08854Q59.346874 62.260414 58.940624 61.80729Q58.55 61.354164 57.8625 61.354164ZM65.06563 65.229164Q65.06563 64.791664 64.72188 64.55729Q64.39375 64.30729 63.565624 64.135414Q62.753124 63.96354 62.26875 63.71354Q61.784374 63.46354 61.55 63.135414Q61.33125 62.791664 61.33125 62.322914Q61.33125 61.541664 61.9875 61.010414Q62.64375 60.46354 63.675 60.46354Q64.75313 60.46354 65.40938 61.02604Q66.08125 61.572914 66.08125 62.43229L65.00313 62.43229Q65.00313 61.99479 64.6125 61.68229Q64.2375 61.354164 63.675 61.354164Q63.08125 61.354164 62.7375 61.61979Q62.409374 61.86979 62.409374 62.27604Q62.409374 62.666664 62.721874 62.86979Q63.034374 63.072914 63.846874 63.260414Q64.65938 63.43229 65.15938 63.68229Q65.65938 63.93229 65.89375 64.291664Q66.14375 64.65104 66.14375 65.15104Q66.14375 66.010414 65.45625 66.52604Q64.78438 67.041664 63.70625 67.041664Q62.940624 67.041664 62.346874 66.77604Q61.76875 66.49479 61.440624 66.010414Q61.1125 65.52604 61.1125 64.96354L62.190624 64.96354Q62.221874 65.510414 62.628124 65.83854Q63.034374 66.15104 63.70625 66.15104Q64.31563 66.15104 64.69063 65.90104Q65.06563 65.65104 65.06563 65.229164Z" fill-rule="nonzero"/><path fill="#9e9e9e" d="M24.440624 78.604164Q24.440624 79.24479 24.096874 79.74479Q23.753124 80.24479 23.190624 80.52604Q23.846874 80.80729 24.2375 81.36979Q24.628124 81.916664 24.628124 82.61979Q24.628124 83.71354 23.878124 84.385414Q23.14375 85.041664 21.925 85.041664Q20.690624 85.041664 19.940624 84.385414Q19.20625 83.71354 19.20625 82.61979Q19.20625 81.916664 19.58125 81.36979Q19.95625 80.80729 20.628124 80.52604Q20.065624 80.24479 19.7375 79.74479Q19.409374 79.24479 19.409374 78.604164Q19.409374 77.52604 20.096874 76.90104Q20.784374 76.260414 21.925 76.260414Q23.05 76.260414 23.7375 76.90104Q24.440624 77.52604 24.440624 78.604164ZM23.55 82.58854Q23.55 81.86979 23.096874 81.43229Q22.64375 80.979164 21.909374 80.979164Q21.175 80.979164 20.721874 81.43229Q20.284374 81.86979 20.284374 82.604164Q20.284374 83.322914 20.721874 83.74479Q21.159374 84.15104 21.925 84.15104Q22.675 84.15104 23.1125 83.729164Q23.55 83.30729 23.55 82.58854ZM21.925 77.15104Q21.284374 77.15104 20.878124 77.55729Q20.4875 77.947914 20.4875 78.635414Q20.4875 79.27604 20.878124 79.68229Q21.26875 80.08854 21.909374 80.08854Q22.565624 80.08854 22.95625 79.68229Q23.346874 79.27604 23.346874 78.635414Q23.346874 77.979164 22.940624 77.572914Q22.534374 77.15104 21.925 77.15104ZM26.33125 86.61979L25.721874 86.197914Q26.26875 85.43229 26.3 84.604164L26.3 83.635414L27.3625 83.635414L27.3625 84.479164Q27.3625 85.072914 27.065624 85.666664Q26.76875 86.260414 26.33125 86.61979ZM31.815624 84.916664L30.7375 84.916664L30.7375 77.697914L28.55 78.49479L28.55 77.510414L31.659374 76.33854L31.815624 76.33854L31.815624 84.916664ZM35.159374 78.02604Q35.159374 77.260414 35.64375 76.760414Q36.14375 76.260414 36.909374 76.260414Q37.690624 76.260414 38.175 76.760414Q38.659374 77.260414 38.659374 78.05729L38.659374 78.479164Q38.659374 79.24479 38.159374 79.74479Q37.675 80.229164 36.925 80.229164Q36.159374 80.229164 35.659374 79.74479Q35.159374 79.24479 35.159374 78.43229L35.159374 78.02604ZM35.971874 78.479164Q35.971874 78.93229 36.221874 79.229164Q36.4875 79.52604 36.925 79.52604Q37.346874 79.52604 37.596874 79.24479Q37.846874 78.947914 37.846874 78.447914L37.846874 78.02604Q37.846874 77.572914 37.596874 77.27604Q37.346874 76.96354 36.909374 76.96354Q36.471874 76.96354 36.221874 77.27604Q35.971874 77.572914 35.971874 78.041664L35.971874 78.479164ZM39.315624 82.822914Q39.315624 82.05729 39.8 81.572914Q40.3 81.072914 41.065624 81.072914Q41.83125 81.072914 42.315624 81.572914Q42.815624 82.05729 42.815624 82.86979L42.815624 83.27604Q42.815624 84.041664 42.33125 84.541664Q41.846874 85.041664 41.08125 85.041664Q40.315624 85.041664 39.815624 84.55729Q39.315624 84.05729 39.315624 83.24479L39.315624 82.822914ZM40.128124 83.27604Q40.128124 83.74479 40.378124 84.041664Q40.64375 84.33854 41.08125 84.33854Q41.503124 84.33854 41.753124 84.05729Q42.003124 83.760414 42.003124 83.260414L42.003124 82.822914Q42.003124 82.354164 41.7375 82.072914Q41.4875 81.77604 41.065624 81.77604Q40.64375 81.77604 40.378124 82.072914Q40.128124 82.354164 40.128124 82.854164L40.128124 83.27604ZM37.175 84.27604L36.55 83.885414L40.721874 77.21354L41.33125 77.604164L37.175 84.27604Z" fill-rule="nonzero"/><path stroke="#757575" stroke-width="1.0" stroke-linecap="butt" d="M18.55 71.416664L107.23333 71.416664L226.32425 66.93195" fill-rule="nonzero"/><path fill="#9e9e9e" d="M228.32425 66.93195C228.32425 65.827385 227.42883 64.93195 226.32425 64.93195C225.21968 64.93195 224.32425 65.827385 224.32425 66.93195C224.32425 68.03653 225.21968 68.93195 226.32425 68.93195C227.42883 68.93195 228.32425 68.03653 228.32425 66.93195" fill-rule="nonzero"/><path fill="#757575" d="M22.05 96.11979Q20.6125 95.697914 19.940624 95.08854Q19.284374 94.479164 19.284374 93.58854Q19.284374 92.58854 20.08125 91.93229Q20.89375 91.260414 22.190624 91.260414Q23.065624 91.260414 23.753124 91.604164Q24.440624 91.947914 24.815624 92.541664Q25.20625 93.135414 25.20625 93.854164L24.065624 93.854164Q24.065624 93.072914 23.565624 92.635414Q23.08125 92.197914 22.190624 92.197914Q21.3625 92.197914 20.89375 92.572914Q20.425 92.93229 20.425 93.572914Q20.425 94.104164 20.8625 94.46354Q21.315624 94.822914 22.378124 95.11979Q23.440624 95.416664 24.034374 95.77604Q24.64375 96.135414 24.925 96.61979Q25.221874 97.104164 25.221874 97.74479Q25.221874 98.791664 24.409374 99.416664Q23.596874 100.041664 22.253124 100.041664Q21.3625 100.041664 20.596874 99.697914Q19.846874 99.354164 19.425 98.77604Q19.01875 98.18229 19.01875 97.447914L20.14375 97.447914Q20.14375 98.21354 20.721874 98.666664Q21.3 99.11979 22.253124 99.11979Q23.14375 99.11979 23.6125 98.760414Q24.08125 98.385414 24.08125 97.760414Q24.08125 97.135414 23.64375 96.791664Q23.20625 96.447914 22.05 96.11979ZM29.003124 100.041664Q27.70625 100.041664 26.89375 99.197914Q26.096874 98.33854 26.096874 96.916664L26.096874 96.729164Q26.096874 95.77604 26.45625 95.041664Q26.815624 94.291664 27.45625 93.885414Q28.1125 93.46354 28.8625 93.46354Q30.096874 93.46354 30.784374 94.27604Q31.471874 95.08854 31.471874 96.604164L31.471874 97.05729L27.175 97.05729Q27.20625 97.99479 27.721874 98.572914Q28.253124 99.15104 29.065624 99.15104Q29.628124 99.15104 30.01875 98.916664Q30.425 98.68229 30.7375 98.291664L31.39375 98.80729Q30.596874 100.041664 29.003124 100.041664ZM28.8625 94.354164Q28.20625 94.354164 27.753124 94.83854Q27.315624 95.30729 27.221874 96.166664L30.39375 96.166664L30.39375 96.08854Q30.346874 95.260414 29.940624 94.80729Q29.55 94.354164 28.8625 94.354164ZM33.39375 93.572914L33.425 94.36979Q34.159374 93.46354 35.33125 93.46354Q37.346874 93.46354 37.3625 95.729164L37.3625 99.916664L36.26875 99.916664L36.26875 95.71354Q36.26875 95.041664 35.95625 94.71354Q35.659374 94.385414 35.003124 94.385414Q34.471874 94.385414 34.065624 94.666664Q33.675 94.947914 33.45625 95.40104L33.45625 99.916664L32.378124 99.916664L32.378124 93.572914L33.39375 93.572914ZM43.065624 98.229164Q43.065624 97.791664 42.721874 97.55729Q42.39375 97.30729 41.565624 97.135414Q40.753124 96.96354 40.26875 96.71354Q39.784374 96.46354 39.55 96.135414Q39.33125 95.791664 39.33125 95.322914Q39.33125 94.541664 39.9875 94.010414Q40.64375 93.46354 41.675 93.46354Q42.753124 93.46354 43.409374 94.02604Q44.08125 94.572914 44.08125 95.43229L43.003124 95.43229Q43.003124 94.99479 42.6125 94.68229Q42.2375 94.354164 41.675 94.354164Q41.08125 94.354164 40.7375 94.61979Q40.409374 94.86979 40.409374 95.27604Q40.409374 95.666664 40.721874 95.86979Q41.034374 96.072914 41.846874 96.260414Q42.659374 96.43229 43.159374 96.68229Q43.659374 96.93229 43.89375 97.291664Q44.14375 97.65104 44.14375 98.15104Q44.14375 99.010414 43.45625 99.52604Q42.784374 100.041664 41.70625 100.041664Q40.940624 100.041664 40.346874 99.77604Q39.76875 99.49479 39.440624 99.010414Q39.1125 98.52604 39.1125 97.96354L40.190624 97.96354Q40.221874 98.510414 40.628124 98.83854Q41.034374 99.15104 41.70625 99.15104Q42.315624 99.15104 42.690624 98.90104Q43.065624 98.65104 43.065624 98.229164ZM45.08125 96.68229Q45.08125 95.760414 45.440624 95.010414Q45.815624 94.260414 46.471874 93.86979Q47.128124 93.46354 47.95625 93.46354Q49.253124 93.46354 50.05 94.354164Q50.8625 95.24479 50.8625 96.74479L50.8625 96.822914Q50.8625 97.74479 50.503124 98.479164Q50.14375 99.21354 49.4875 99.635414Q48.83125 100.041664 47.971874 100.041664Q46.690624 100.041664 45.878124 99.15104Q45.08125 98.24479 45.08125 96.760414L45.08125 96.68229ZM46.175 96.822914Q46.175 97.86979 46.659374 98.510414Q47.159374 99.15104 47.971874 99.15104Q48.8 99.15104 49.284374 98.510414Q49.76875 97.854164 49.76875 96.68229Q49.76875 95.65104 49.26875 95.010414Q48.784374 94.354164 47.95625 94.354164Q47.159374 94.354164 46.659374 94.99479Q46.175 95.61979 46.175 96.822914ZM55.440624 94.541664Q55.190624 94.510414 54.909374 94.510414Q53.83125 94.510414 53.45625 95.416664L53.45625 99.916664L52.378124 99.916664L52.378124 93.572914L53.425 93.572914L53.440624 94.30729Q53.971874 93.46354 54.95625 93.46354Q55.26875 93.46354 55.440624 93.541664L55.440624 94.541664ZM60.065624 98.229164Q60.065624 97.791664 59.721874 97.55729Q59.39375 97.30729 58.565624 97.135414Q57.753124 96.96354 57.26875 96.71354Q56.784374 96.46354 56.55 96.135414Q56.33125 95.791664 56.33125 95.322914Q56.33125 94.541664 56.9875 94.010414Q57.64375 93.46354 58.675 93.46354Q59.753124 93.46354 60.409374 94.02604Q61.08125 94.572914 61.08125 95.43229L60.003124 95.43229Q60.003124 94.99479 59.6125 94.68229Q59.2375 94.354164 58.675 94.354164Q58.08125 94.354164 57.7375 94.61979Q57.409374 94.86979 57.409374 95.27604Q57.409374 95.666664 57.721874 95.86979Q58.034374 96.072914 58.846874 96.260414Q59.659374 96.43229 60.159374 96.68229Q60.659374 96.93229 60.89375 97.291664Q61.14375 97.65104 61.14375 98.15104Q61.14375 99.010414 60.45625 99.52604Q59.784374 100.041664 58.70625 100.041664Q57.940624 100.041664 57.346874 99.77604Q56.76875 99.49479 56.440624 99.010414Q56.1125 98.52604 56.1125 97.96354L57.190624 97.96354Q57.221874 98.510414 57.628124 98.83854Q58.034374 99.15104 58.70625 99.15104Q59.315624 99.15104 59.690624 98.90104Q60.065624 98.65104 60.065624 98.229164Z" fill-rule="nonzero"/><path fill="#9e9e9e" d="M23.51875 109.385414L23.51875 110.291664L23.315624 110.291664Q22.05 110.322914 21.3 111.05729Q20.55 111.77604 20.425 113.08854Q21.1125 112.322914 22.26875 112.322914Q23.378124 112.322914 24.05 113.104164Q24.721874 113.885414 24.721874 115.135414Q24.721874 116.447914 24.003124 117.24479Q23.284374 118.041664 22.065624 118.041664Q20.846874 118.041664 20.08125 117.104164Q19.33125 116.15104 19.33125 114.666664L19.33125 114.260414Q19.33125 111.90104 20.33125 110.65104Q21.33125 109.40104 23.315624 109.385414L23.51875 109.385414ZM22.096874 113.229164Q21.534374 113.229164 21.065624 113.55729Q20.596874 113.885414 20.409374 114.40104L20.409374 114.791664Q20.409374 115.854164 20.878124 116.49479Q21.3625 117.135414 22.065624 117.135414Q22.8 117.135414 23.221874 116.604164Q23.64375 116.05729 23.64375 115.18229Q23.64375 114.30729 23.221874 113.77604Q22.8 113.229164 22.096874 113.229164ZM26.33125 119.61979L25.721874 119.197914Q26.26875 118.43229 26.3 117.604164L26.3 116.635414L27.3625 116.635414L27.3625 117.479164Q27.3625 118.072914 27.065624 118.666664Q26.76875 119.260414 26.33125 119.61979ZM32.51875 109.385414L32.51875 110.291664L32.315624 110.291664Q31.05 110.322914 30.3 111.05729Q29.55 111.77604 29.425 113.08854Q30.1125 112.322914 31.26875 112.322914Q32.378124 112.322914 33.05 113.104164Q33.721874 113.885414 33.721874 115.135414Q33.721874 116.447914 33.003124 117.24479Q32.284374 118.041664 31.065624 118.041664Q29.846874 118.041664 29.08125 117.104164Q28.33125 116.15104 28.33125 114.666664L28.33125 114.260414Q28.33125 111.90104 29.33125 110.65104Q30.33125 109.40104 32.315624 109.385414L32.51875 109.385414ZM31.096874 113.229164Q30.534374 113.229164 30.065624 113.55729Q29.596874 113.885414 29.409374 114.40104L29.409374 114.791664Q29.409374 115.854164 29.878124 116.49479Q30.3625 117.135414 31.065624 117.135414Q31.8 117.135414 32.221874 116.604164Q32.64375 116.05729 32.64375 115.18229Q32.64375 114.30729 32.221874 113.77604Q31.8 113.229164 31.096874 113.229164ZM35.159374 111.02604Q35.159374 110.260414 35.64375 109.760414Q36.14375 109.260414 36.909374 109.260414Q37.690624 109.260414 38.175 109.760414Q38.659374 110.260414 38.659374 111.05729L38.659374 111.479164Q38.659374 112.24479 38.159374 112.74479Q37.675 113.229164 36.925 113.229164Q36.159374 113.229164 35.659374 112.74479Q35.159374 112.24479 35.159374 111.43229L35.159374 111.02604ZM35.971874 111.479164Q35.971874 111.93229 36.221874 112.229164Q36.4875 112.52604 36.925 112.52604Q37.346874 112.52604 37.596874 112.24479Q37.846874 111.947914 37.846874 111.447914L37.846874 111.02604Q37.846874 110.572914 37.596874 110.27604Q37.346874 109.96354 36.909374 109.96354Q36.471874 109.96354 36.221874 110.27604Q35.971874 110.572914 35.971874 111.041664L35.971874 111.479164ZM39.315624 115.822914Q39.315624 115.05729 39.8 114.572914Q40.3 114.072914 41.065624 114.072914Q41.83125 114.072914 42.315624 114.572914Q42.815624 115.05729 42.815624 115.86979L42.815624 116.27604Q42.815624 117.041664 42.33125 117.541664Q41.846874 118.041664 41.08125 118.041664Q40.315624 118.041664 39.815624 117.55729Q39.315624 117.05729 39.315624 116.24479L39.315624 115.822914ZM40.128124 116.27604Q40.128124 116.74479 40.378124 117.041664Q40.64375 117.33854 41.08125 117.33854Q41.503124 117.33854 41.753124 117.05729Q42.003124 116.760414 42.003124 116.260414L42.003124 115.822914Q42.003124 115.354164 41.7375 115.072914Q41.4875 114.77604 41.065624 114.77604Q40.64375 114.77604 40.378124 115.072914Q40.128124 115.354164 40.128124 115.854164L40.128124 116.27604ZM37.175 117.27604L36.55 116.885414L40.721874 110.21354L41.33125 110.604164L37.175 117.27604Z" fill-rule="nonzero"/><path stroke="#757575" stroke-width="1.0" stroke-linecap="butt" d="M18.55 104.416664L107.23333 104.416664L168.96942 97.2925" fill-rule="nonzero"/><path fill="#9e9e9e" d="M170.96942 97.2925C170.96942 96.187935 170.07399 95.2925 168.96942 95.2925C167.86485 95.2925 166.96942 96.187935 166.96942 97.2925C166.96942 98.39707 167.86485 99.2925 168.96942 99.2925C170.07399 99.2925 170.96942 98.39707 170.96942 97.2925" fill-rule="nonzero"/><path fill="#757575" d="M25.815624 299.341Q25.659374 300.68475 24.815624 301.43475Q23.971874 302.16913 22.58125 302.16913Q21.065624 302.16913 20.159374 301.091Q19.253124 299.99725 19.253124 298.16913L19.253124 297.35663Q19.253124 296.16913 19.675 295.26288Q20.096874 294.35663 20.878124 293.87225Q21.659374 293.38788 22.675 293.38788Q24.034374 293.38788 24.846874 294.1535Q25.675 294.91913 25.815624 296.24725L24.690624 296.24725Q24.534374 295.23163 24.05 294.7785Q23.565624 294.32538 22.675 294.32538Q21.596874 294.32538 20.9875 295.12225Q20.378124 295.91913 20.378124 297.38788L20.378124 298.216Q20.378124 299.60663 20.95625 300.43475Q21.534374 301.24725 22.58125 301.24725Q23.51875 301.24725 24.01875 300.82538Q24.51875 300.38788 24.690624 299.341L25.815624 299.341ZM27.08125 298.80975Q27.08125 297.88788 27.440624 297.13788Q27.815624 296.38788 28.471874 295.99725Q29.128124 295.591 29.95625 295.591Q31.253124 295.591 32.05 296.48163Q32.8625 297.37225 32.8625 298.87225L32.8625 298.95038Q32.8625 299.87225 32.503124 300.60663Q32.14375 301.341 31.4875 301.76288Q30.83125 302.16913 29.971874 302.16913Q28.690624 302.16913 27.878124 301.2785Q27.08125 300.37225 27.08125 298.88788L27.08125 298.80975ZM28.175 298.95038Q28.175 299.99725 28.659374 300.63788Q29.159374 301.2785 29.971874 301.2785Q30.8 301.2785 31.284374 300.63788Q31.76875 299.98163 31.76875 298.80975Q31.76875 297.7785 31.26875 297.13788Q30.784374 296.48163 29.95625 296.48163Q29.159374 296.48163 28.659374 297.12225Q28.175 297.74725 28.175 298.95038ZM35.39375 295.70038L35.425 296.49725Q36.159374 295.591 37.33125 295.591Q39.346874 295.591 39.3625 297.85663L39.3625 302.04413L38.26875 302.04413L38.26875 297.841Q38.26875 297.16913 37.95625 296.841Q37.659374 296.51288 37.003124 296.51288Q36.471874 296.51288 36.065624 296.79413Q35.675 297.07538 35.45625 297.5285L35.45625 302.04413L34.378124 302.04413L34.378124 295.70038L35.39375 295.70038ZM42.846874 294.16913L42.846874 295.70038L44.01875 295.70038L44.01875 296.54413L42.846874 296.54413L42.846874 300.466Q42.846874 300.85663 43.003124 301.04413Q43.159374 301.23163 43.534374 301.23163Q43.721874 301.23163 44.05 301.16913L44.05 302.04413Q43.628124 302.16913 43.221874 302.16913Q42.503124 302.16913 42.128124 301.73163Q41.753124 301.2785 41.753124 300.466L41.753124 296.54413L40.596874 296.54413L40.596874 295.70038L41.753124 295.70038L41.753124 294.16913L42.846874 294.16913ZM48.440624 296.66913Q48.190624 296.63788 47.909374 296.63788Q46.83125 296.63788 46.45625 297.54413L46.45625 302.04413L45.378124 302.04413L45.378124 295.70038L46.425 295.70038L46.440624 296.43475Q46.971874 295.591 47.95625 295.591Q48.26875 295.591 48.440624 295.66913L48.440624 296.66913ZM49.08125 298.80975Q49.08125 297.88788 49.440624 297.13788Q49.815624 296.38788 50.471874 295.99725Q51.128124 295.591 51.95625 295.591Q53.253124 295.591 54.05 296.48163Q54.8625 297.37225 54.8625 298.87225L54.8625 298.95038Q54.8625 299.87225 54.503124 300.60663Q54.14375 301.341 53.4875 301.76288Q52.83125 302.16913 51.971874 302.16913Q50.690624 302.16913 49.878124 301.2785Q49.08125 300.37225 49.08125 298.88788L49.08125 298.80975ZM50.175 298.95038Q50.175 299.99725 50.659374 300.63788Q51.159374 301.2785 51.971874 301.2785Q52.8 301.2785 53.284374 300.63788Q53.76875 299.98163 53.76875 298.80975Q53.76875 297.7785 53.26875 297.13788Q52.784374 296.48163 51.95625 296.48163Q51.159374 296.48163 50.659374 297.12225Q50.175 297.74725 50.175 298.95038ZM57.55 302.04413L56.471874 302.04413L56.471874 293.04413L57.55 293.04413L57.55 302.04413ZM60.55 302.04413L59.471874 302.04413L59.471874 293.04413L60.55 293.04413L60.55 302.04413ZM65.00313 302.16913Q63.70625 302.16913 62.89375 301.32538Q62.096874 300.466 62.096874 299.04413L62.096874 298.85663Q62.096874 297.9035 62.45625 297.16913Q62.815624 296.41913 63.45625 296.01288Q64.1125 295.591 64.8625 295.591Q66.09688 295.591 66.78438 296.4035Q67.47188 297.216 67.47188 298.73163L67.47188 299.18475L63.175 299.18475Q63.20625 300.12225 63.721874 300.70038Q64.25313 301.2785 65.06563 301.2785Q65.62813 301.2785 66.01875 301.04413Q66.425 300.80975 66.7375 300.41913L67.39375 300.93475Q66.59688 302.16913 65.00313 302.16913ZM64.8625 296.48163Q64.20625 296.48163 63.753124 296.966Q63.315624 297.43475 63.221874 298.29413L66.39375 298.29413L66.39375 298.216Q66.34688 297.38788 65.94063 296.93475Q65.55 296.48163 64.8625 296.48163ZM71.44063 296.66913Q71.19063 296.63788 70.90938 296.63788Q69.83125 296.63788 69.45625 297.54413L69.45625 302.04413L68.37813 302.04413L68.37813 295.70038L69.425 295.70038L69.44063 296.43475Q69.97188 295.591 70.95625 295.591Q71.26875 295.591 71.44063 295.66913L71.44063 296.66913Z" fill-rule="nonzero"/><path fill="#9e9e9e" d="M23.83125 317.18475L25.01875 317.18475L25.01875 318.05975L23.83125 318.05975L23.83125 320.04413L22.753124 320.04413L22.753124 318.05975L18.8625 318.05975L18.8625 317.41913L22.675 311.51288L23.83125 311.51288L23.83125 317.18475ZM20.096874 317.18475L22.753124 317.18475L22.753124 312.99725L22.6125 313.23163L20.096874 317.18475ZM30.51875 311.51288L30.51875 312.41913L30.315624 312.41913Q29.05 312.45038 28.3 313.18475Q27.55 313.9035 27.425 315.216Q28.1125 314.45038 29.26875 314.45038Q30.378124 314.45038 31.05 315.23163Q31.721874 316.01288 31.721874 317.26288Q31.721874 318.57538 31.003124 319.37225Q30.284374 320.16913 29.065624 320.16913Q27.846874 320.16913 27.08125 319.23163Q26.33125 318.2785 26.33125 316.79413L26.33125 316.38788Q26.33125 314.0285 27.33125 312.7785Q28.33125 311.5285 30.315624 311.51288L30.51875 311.51288ZM29.096874 315.35663Q28.534374 315.35663 28.065624 315.68475Q27.596874 316.01288 27.409374 316.5285L27.409374 316.91913Q27.409374 317.98163 27.878124 318.62225Q28.3625 319.26288 29.065624 319.26288Q29.8 319.26288 30.221874 318.73163Q30.64375 318.18475 30.64375 317.30975Q30.64375 316.43475 30.221874 315.9035Q29.8 315.35663 29.096874 315.35663ZM33.33125 321.74725L32.721874 321.32538Q33.26875 320.55975 33.3 319.73163L33.3 318.76288L34.3625 318.76288L34.3625 319.60663Q34.3625 320.20038 34.065624 320.79413Q33.76875 321.38788 33.33125 321.74725ZM35.753124 315.76288L36.190624 311.51288L40.565624 311.51288L40.565624 312.51288L37.1125 312.51288L36.846874 314.841Q37.4875 314.466 38.284374 314.466Q39.440624 314.466 40.128124 315.24725Q40.815624 316.01288 40.815624 317.32538Q40.815624 318.63788 40.096874 319.4035Q39.39375 320.16913 38.1125 320.16913Q36.9875 320.16913 36.26875 319.54413Q35.55 318.9035 35.45625 317.79413L36.471874 317.79413Q36.58125 318.5285 37.003124 318.9035Q37.425 319.2785 38.1125 319.2785Q38.8625 319.2785 39.3 318.76288Q39.7375 318.24725 39.7375 317.341Q39.7375 316.48163 39.26875 315.966Q38.8 315.45038 38.01875 315.45038Q37.315624 315.45038 36.909374 315.74725L36.628124 315.98163L35.753124 315.76288ZM42.159374 313.1535Q42.159374 312.38788 42.64375 311.88788Q43.14375 311.38788 43.909374 311.38788Q44.690624 311.38788 45.175 311.88788Q45.659374 312.38788 45.659374 313.18475L45.659374 313.60663Q45.659374 314.37225 45.159374 314.87225Q44.675 315.35663 43.925 315.35663Q43.159374 315.35663 42.659374 314.87225Q42.159374 314.37225 42.159374 313.55975L42.159374 313.1535ZM42.971874 313.60663Q42.971874 314.05975 43.221874 314.35663Q43.4875 314.6535 43.925 314.6535Q44.346874 314.6535 44.596874 314.37225Q44.846874 314.07538 44.846874 313.57538L44.846874 313.1535Q44.846874 312.70038 44.596874 312.4035Q44.346874 312.091 43.909374 312.091Q43.471874 312.091 43.221874 312.4035Q42.971874 312.70038 42.971874 313.16913L42.971874 313.60663ZM46.315624 317.95038Q46.315624 317.18475 46.8 316.70038Q47.3 316.20038 48.065624 316.20038Q48.83125 316.20038 49.315624 316.70038Q49.815624 317.18475 49.815624 317.99725L49.815624 318.4035Q49.815624 319.16913 49.33125 319.66913Q48.846874 320.16913 48.08125 320.16913Q47.315624 320.16913 46.815624 319.68475Q46.315624 319.18475 46.315624 318.37225L46.315624 317.95038ZM47.128124 318.4035Q47.128124 318.87225 47.378124 319.16913Q47.64375 319.466 48.08125 319.466Q48.503124 319.466 48.753124 319.18475Q49.003124 318.88788 49.003124 318.38788L49.003124 317.95038Q49.003124 317.48163 48.7375 317.20038Q48.4875 316.9035 48.065624 316.9035Q47.64375 316.9035 47.378124 317.20038Q47.128124 317.48163 47.128124 317.98163L47.128124 318.4035ZM44.175 319.4035L43.55 319.01288L47.721874 312.341L48.33125 312.73163L44.175 319.4035Z" fill-rule="nonzero"/><path stroke="#757575" stroke-width="1.0" stroke-linecap="butt" d="M18.55 306.54413L107.23333 306.54413L165.08066 306.54413" fill-rule="nonzero"/><path fill="#9e9e9e" d="M167.08066 306.54413C167.08066 305.43954 166.18524 304.54413 165.08066 304.54413C163.97609 304.54413 163.08066 305.43954 163.08066 306.54413C163.08066 307.64868 163.97609 308.54413 165.08066 308.54413C166.18524 308.54413 167.08066 307.64868 167.08066 306.54413" fill-rule="nonzero"/><path fill="#757575" d="M481.71564 142.55798Q481.5594 143.90173 480.71564 144.65173Q479.8719 145.38611 478.48126 145.38611Q476.96564 145.38611 476.0594 144.30798Q475.15314 143.21423 475.15314 141.38611L475.15314 140.57361Q475.15314 139.38611 475.575 138.47986Q475.9969 137.57361 476.77814 137.08923Q477.5594 136.60486 478.575 136.60486Q479.9344 136.60486 480.7469 137.37048Q481.575 138.13611 481.71564 139.46423L480.59064 139.46423Q480.4344 138.44861 479.95 137.99548Q479.46564 137.54236 478.575 137.54236Q477.4969 137.54236 476.8875 138.33923Q476.27814 139.13611 476.27814 140.60486L476.27814 141.43298Q476.27814 142.82361 476.85626 143.65173Q477.4344 144.46423 478.48126 144.46423Q479.41876 144.46423 479.91876 144.04236Q480.41876 143.60486 480.59064 142.55798L481.71564 142.55798ZM487.1844 145.26111Q487.09064 145.07361 487.02814 144.58923Q486.27814 145.38611 485.23126 145.38611Q484.29376 145.38611 483.6844 144.85486Q483.09064 144.32361 483.09064 143.49548Q483.09064 142.51111 483.84064 141.96423Q484.59064 141.41736 485.96564 141.41736L487.0125 141.41736L487.0125 140.91736Q487.0125 140.35486 486.66876 140.02673Q486.34064 139.68298 485.66876 139.68298Q485.09064 139.68298 484.7 139.97986Q484.3094 140.26111 484.3094 140.68298L483.21564 140.68298Q483.21564 140.19861 483.54376 139.76111Q483.8875 139.32361 484.46564 139.07361Q485.04376 138.80798 485.73126 138.80798Q486.84064 138.80798 487.45 139.35486Q488.075 139.90173 488.10626 140.85486L488.10626 143.77673Q488.10626 144.65173 488.325 145.16736L488.325 145.26111L487.1844 145.26111ZM485.3875 144.43298Q485.90314 144.43298 486.35626 144.16736Q486.8094 143.90173 487.0125 143.47986L487.0125 142.18298L486.16876 142.18298Q484.16876 142.18298 484.16876 143.35486Q484.16876 143.85486 484.5125 144.15173Q484.85626 144.43298 485.3875 144.43298ZM495.6375 142.16736Q495.6375 143.62048 494.96564 144.51111Q494.3094 145.38611 493.1844 145.38611Q491.98126 145.38611 491.325 144.52673L491.2625 145.26111L490.27814 145.26111L490.27814 136.26111L491.35626 136.26111L491.35626 139.62048Q492.0125 138.80798 493.16876 138.80798Q494.325 138.80798 494.98126 139.68298Q495.6375 140.54236 495.6375 142.07361L495.6375 142.16736ZM494.5594 142.04236Q494.5594 140.93298 494.1219 140.33923Q493.7 139.72986 492.90314 139.72986Q491.825 139.72986 491.35626 140.71423L491.35626 143.46423Q491.85626 144.46423 492.90314 144.46423Q493.6844 144.46423 494.1219 143.85486Q494.5594 143.24548 494.5594 142.04236ZM498.45 145.26111L497.3719 145.26111L497.3719 136.26111L498.45 136.26111L498.45 145.26111ZM502.90314 145.38611Q501.60626 145.38611 500.79376 144.54236Q499.9969 143.68298 499.9969 142.26111L499.9969 142.07361Q499.9969 141.12048 500.35626 140.38611Q500.71564 139.63611 501.35626 139.22986Q502.0125 138.80798 502.7625 138.80798Q503.9969 138.80798 504.6844 139.62048Q505.3719 140.43298 505.3719 141.94861L505.3719 142.40173L501.075 142.40173Q501.10626 143.33923 501.6219 143.91736Q502.15314 144.49548 502.96564 144.49548Q503.52814 144.49548 503.91876 144.26111Q504.325 144.02673 504.6375 143.63611L505.29376 144.15173Q504.4969 145.38611 502.90314 145.38611ZM502.7625 139.69861Q502.10626 139.69861 501.65314 140.18298Q501.21564 140.65173 501.1219 141.51111L504.29376 141.51111L504.29376 141.43298Q504.2469 140.60486 503.84064 140.15173Q503.45 139.69861 502.7625 139.69861Z" fill-rule="nonzero"/><path fill="#9e9e9e" d="M475.73126 158.46423L476.54376 158.46423Q477.325 158.44861 477.7625 158.05798Q478.2 157.66736 478.2 156.99548Q478.2 155.49548 476.7 155.49548Q475.9969 155.49548 475.575 155.90173Q475.16876 156.30798 475.16876 156.96423L474.075 156.96423Q474.075 155.94861 474.8094 155.27673Q475.5594 154.60486 476.7 154.60486Q477.90314 154.60486 478.59064 155.24548Q479.27814 155.88611 479.27814 157.02673Q479.27814 157.58923 478.91876 158.10486Q478.5594 158.62048 477.9344 158.88611Q478.6375 159.10486 479.0125 159.62048Q479.40314 160.13611 479.40314 160.88611Q479.40314 162.02673 478.65314 162.71423Q477.90314 163.38611 476.7 163.38611Q475.5125 163.38611 474.7469 162.72986Q473.9969 162.07361 473.9969 161.01111L475.09064 161.01111Q475.09064 161.68298 475.52814 162.08923Q475.96564 162.49548 476.71564 162.49548Q477.4969 162.49548 477.90314 162.08923Q478.325 161.66736 478.325 160.90173Q478.325 160.16736 477.8719 159.77673Q477.41876 159.37048 476.54376 159.35486L475.73126 159.35486L475.73126 158.46423ZM486.66876 155.33923L483.1375 163.26111L481.9969 163.26111L485.5125 155.62048L480.90314 155.62048L480.90314 154.72986L486.66876 154.72986L486.66876 155.33923ZM488.23126 164.96423L487.6219 164.54236Q488.16876 163.77673 488.2 162.94861L488.2 161.97986L489.2625 161.97986L489.2625 162.82361Q489.2625 163.41736 488.96564 164.01111Q488.66876 164.60486 488.23126 164.96423ZM490.65314 158.97986L491.09064 154.72986L495.46564 154.72986L495.46564 155.72986L492.0125 155.72986L491.7469 158.05798Q492.3875 157.68298 493.1844 157.68298Q494.34064 157.68298 495.02814 158.46423Q495.71564 159.22986 495.71564 160.54236Q495.71564 161.85486 494.9969 162.62048Q494.29376 163.38611 493.0125 163.38611Q491.8875 163.38611 491.16876 162.76111Q490.45 162.12048 490.35626 161.01111L491.3719 161.01111Q491.48126 161.74548 491.90314 162.12048Q492.325 162.49548 493.0125 162.49548Q493.7625 162.49548 494.2 161.97986Q494.6375 161.46423 494.6375 160.55798Q494.6375 159.69861 494.16876 159.18298Q493.7 158.66736 492.91876 158.66736Q492.21564 158.66736 491.8094 158.96423L491.52814 159.19861L490.65314 158.97986ZM497.0594 156.37048Q497.0594 155.60486 497.54376 155.10486Q498.04376 154.60486 498.8094 154.60486Q499.59064 154.60486 500.075 155.10486Q500.5594 155.60486 500.5594 156.40173L500.5594 156.82361Q500.5594 157.58923 500.0594 158.08923Q499.575 158.57361 498.825 158.57361Q498.0594 158.57361 497.5594 158.08923Q497.0594 157.58923 497.0594 156.77673L497.0594 156.37048ZM497.8719 156.82361Q497.8719 157.27673 498.1219 157.57361Q498.3875 157.87048 498.825 157.87048Q499.2469 157.87048 499.4969 157.58923Q499.7469 157.29236 499.7469 156.79236L499.7469 156.37048Q499.7469 155.91736 499.4969 155.62048Q499.2469 155.30798 498.8094 155.30798Q498.3719 155.30798 498.1219 155.62048Q497.8719 155.91736 497.8719 156.38611L497.8719 156.82361ZM501.21564 161.16736Q501.21564 160.40173 501.7 159.91736Q502.2 159.41736 502.96564 159.41736Q503.73126 159.41736 504.21564 159.91736Q504.71564 160.40173 504.71564 161.21423L504.71564 161.62048Q504.71564 162.38611 504.23126 162.88611Q503.7469 163.38611 502.98126 163.38611Q502.21564 163.38611 501.71564 162.90173Q501.21564 162.40173 501.21564 161.58923L501.21564 161.16736ZM502.02814 161.62048Q502.02814 162.08923 502.27814 162.38611Q502.54376 162.68298 502.98126 162.68298Q503.40314 162.68298 503.65314 162.40173Q503.90314 162.10486 503.90314 161.60486L503.90314 161.16736Q503.90314 160.69861 503.6375 160.41736Q503.3875 160.12048 502.96564 160.12048Q502.54376 160.12048 502.27814 160.41736Q502.02814 160.69861 502.02814 161.19861L502.02814 161.62048ZM499.075 162.62048L498.45 162.22986L502.6219 155.55798L503.23126 155.94861L499.075 162.62048Z" fill-rule="nonzero"/><path stroke="#757575" stroke-width="1.0" stroke-linecap="butt" d="M505.45 149.76111L416.76666 149.76111L392.63727 149.76111" fill-rule="nonzero"/><path fill="#9e9e9e" d="M394.63727 149.76111C394.63727 148.65654 393.74182 147.76111 392.63727 147.76111C391.53268 147.76111 390.63727 148.65654 390.63727 149.76111C390.63727 150.86568 391.53268 151.76111 392.63727 151.76111C393.74182 151.76111 394.63727 150.86568 394.63727 149.76111" fill-rule="nonzero"/><path fill="#757575" d="M450.71564 300.5337Q450.5594 301.87744 449.71564 302.62744Q448.8719 303.36182 447.48126 303.36182Q445.96564 303.36182 445.0594 302.2837Q444.15314 301.18994 444.15314 299.36182L444.15314 298.54932Q444.15314 297.36182 444.575 296.45557Q444.9969 295.54932 445.77814 295.06494Q446.5594 294.58057 447.575 294.58057Q448.9344 294.58057 449.7469 295.3462Q450.575 296.11182 450.71564 297.43994L449.59064 297.43994Q449.4344 296.42432 448.95 295.9712Q448.46564 295.51807 447.575 295.51807Q446.4969 295.51807 445.8875 296.31494Q445.27814 297.11182 445.27814 298.58057L445.27814 299.4087Q445.27814 300.79932 445.85626 301.62744Q446.4344 302.43994 447.48126 302.43994Q448.41876 302.43994 448.91876 302.01807Q449.41876 301.58057 449.59064 300.5337L450.71564 300.5337ZM451.98126 300.00244Q451.98126 299.08057 452.34064 298.33057Q452.71564 297.58057 453.3719 297.18994Q454.02814 296.7837 454.85626 296.7837Q456.15314 296.7837 456.95 297.67432Q457.7625 298.56494 457.7625 300.06494L457.7625 300.14307Q457.7625 301.06494 457.40314 301.79932Q457.04376 302.5337 456.3875 302.95557Q455.73126 303.36182 454.8719 303.36182Q453.59064 303.36182 452.77814 302.4712Q451.98126 301.56494 451.98126 300.08057L451.98126 300.00244ZM453.075 300.14307Q453.075 301.18994 453.5594 301.83057Q454.0594 302.4712 454.8719 302.4712Q455.7 302.4712 456.1844 301.83057Q456.66876 301.17432 456.66876 300.00244Q456.66876 298.9712 456.16876 298.33057Q455.6844 297.67432 454.85626 297.67432Q454.0594 297.67432 453.5594 298.31494Q453.075 298.93994 453.075 300.14307ZM460.29376 296.89307L460.325 297.68994Q461.0594 296.7837 462.23126 296.7837Q464.2469 296.7837 464.2625 299.04932L464.2625 303.23682L463.16876 303.23682L463.16876 299.0337Q463.16876 298.36182 462.85626 298.0337Q462.5594 297.70557 461.90314 297.70557Q461.3719 297.70557 460.96564 297.98682Q460.575 298.26807 460.35626 298.7212L460.35626 303.23682L459.27814 303.23682L459.27814 296.89307L460.29376 296.89307ZM467.29376 296.89307L467.325 297.68994Q468.0594 296.7837 469.23126 296.7837Q471.2469 296.7837 471.2625 299.04932L471.2625 303.23682L470.16876 303.23682L470.16876 299.0337Q470.16876 298.36182 469.85626 298.0337Q469.5594 297.70557 468.90314 297.70557Q468.3719 297.70557 467.96564 297.98682Q467.575 298.26807 467.35626 298.7212L467.35626 303.23682L466.27814 303.23682L466.27814 296.89307L467.29376 296.89307ZM475.90314 303.36182Q474.60626 303.36182 473.79376 302.51807Q472.9969 301.6587 472.9969 300.23682L472.9969 300.04932Q472.9969 299.0962 473.35626 298.36182Q473.71564 297.61182 474.35626 297.20557Q475.0125 296.7837 475.7625 296.7837Q476.9969 296.7837 477.6844 297.5962Q478.3719 298.4087 478.3719 299.92432L478.3719 300.37744L474.075 300.37744Q474.10626 301.31494 474.6219 301.89307Q475.15314 302.4712 475.96564 302.4712Q476.52814 302.4712 476.91876 302.23682Q477.325 302.00244 477.6375 301.61182L478.29376 302.12744Q477.4969 303.36182 475.90314 303.36182ZM475.7625 297.67432Q475.10626 297.67432 474.65314 298.1587Q474.21564 298.62744 474.1219 299.48682L477.29376 299.48682L477.29376 299.4087Q477.2469 298.58057 476.84064 298.12744Q476.45 297.67432 475.7625 297.67432ZM481.8094 302.4712Q482.3875 302.4712 482.825 302.12744Q483.2625 301.76807 483.3094 301.23682L484.34064 301.23682Q484.3094 301.7837 483.95 302.2837Q483.60626 302.76807 483.02814 303.06494Q482.46564 303.36182 481.8094 303.36182Q480.5125 303.36182 479.7469 302.50244Q478.9969 301.62744 478.9969 300.12744L478.9969 299.93994Q478.9969 299.01807 479.325 298.29932Q479.66876 297.58057 480.29376 297.18994Q480.9344 296.7837 481.8094 296.7837Q482.8719 296.7837 483.575 297.42432Q484.29376 298.04932 484.34064 299.08057L483.3094 299.08057Q483.2625 298.45557 482.84064 298.06494Q482.41876 297.67432 481.8094 297.67432Q480.98126 297.67432 480.52814 298.26807Q480.075 298.86182 480.075 299.98682L480.075 300.18994Q480.075 301.2837 480.52814 301.87744Q480.98126 302.4712 481.8094 302.4712ZM486.7469 295.36182L486.7469 296.89307L487.91876 296.89307L487.91876 297.73682L486.7469 297.73682L486.7469 301.6587Q486.7469 302.04932 486.90314 302.23682Q487.0594 302.42432 487.4344 302.42432Q487.6219 302.42432 487.95 302.36182L487.95 303.23682Q487.52814 303.36182 487.1219 303.36182Q486.40314 303.36182 486.02814 302.92432Q485.65314 302.4712 485.65314 301.6587L485.65314 297.73682L484.4969 297.73682L484.4969 296.89307L485.65314 296.89307L485.65314 295.36182L486.7469 295.36182ZM488.98126 300.00244Q488.98126 299.08057 489.34064 298.33057Q489.71564 297.58057 490.3719 297.18994Q491.02814 296.7837 491.85626 296.7837Q493.15314 296.7837 493.95 297.67432Q494.7625 298.56494 494.7625 300.06494L494.7625 300.14307Q494.7625 301.06494 494.40314 301.79932Q494.04376 302.5337 493.3875 302.95557Q492.73126 303.36182 491.8719 303.36182Q490.59064 303.36182 489.77814 302.4712Q488.98126 301.56494 488.98126 300.08057L488.98126 300.00244ZM490.075 300.14307Q490.075 301.18994 490.5594 301.83057Q491.0594 302.4712 491.8719 302.4712Q492.7 302.4712 493.1844 301.83057Q493.66876 301.17432 493.66876 300.00244Q493.66876 298.9712 493.16876 298.33057Q492.6844 297.67432 491.85626 297.67432Q491.0594 297.67432 490.5594 298.31494Q490.075 298.93994 490.075 300.14307ZM499.34064 297.86182Q499.09064 297.83057 498.8094 297.83057Q497.73126 297.83057 497.35626 298.73682L497.35626 303.23682L496.27814 303.23682L496.27814 296.89307L497.325 296.89307L497.34064 297.62744Q497.8719 296.7837 498.85626 296.7837Q499.16876 296.7837 499.34064 296.86182L499.34064 297.86182ZM503.96564 301.54932Q503.96564 301.11182 503.6219 300.87744Q503.29376 300.62744 502.46564 300.45557Q501.65314 300.2837 501.16876 300.0337Q500.6844 299.7837 500.45 299.45557Q500.23126 299.11182 500.23126 298.64307Q500.23126 297.86182 500.8875 297.33057Q501.54376 296.7837 502.575 296.7837Q503.65314 296.7837 504.3094 297.3462Q504.98126 297.89307 504.98126 298.75244L503.90314 298.75244Q503.90314 298.31494 503.5125 298.00244Q503.1375 297.67432 502.575 297.67432Q501.98126 297.67432 501.6375 297.93994Q501.3094 298.18994 501.3094 298.5962Q501.3094 298.98682 501.6219 299.18994Q501.9344 299.39307 502.7469 299.58057Q503.5594 299.75244 504.0594 300.00244Q504.5594 300.25244 504.79376 300.61182Q505.04376 300.9712 505.04376 301.4712Q505.04376 302.33057 504.35626 302.8462Q503.6844 303.36182 502.60626 303.36182Q501.84064 303.36182 501.2469 303.0962Q500.66876 302.81494 500.34064 302.33057Q500.0125 301.8462 500.0125 301.2837L501.09064 301.2837Q501.1219 301.83057 501.52814 302.1587Q501.9344 302.4712 502.60626 302.4712Q503.21564 302.4712 503.59064 302.2212Q503.96564 301.9712 503.96564 301.54932Z" fill-rule="nonzero"/><path fill="#9e9e9e" d="M484.71564 321.23682L483.6375 321.23682L483.6375 314.01807L481.45 314.81494L481.45 313.83057L484.5594 312.6587L484.71564 312.6587L484.71564 321.23682ZM488.23126 322.93994L487.6219 322.51807Q488.16876 321.75244 488.2 320.92432L488.2 319.95557L489.2625 319.95557L489.2625 320.79932Q489.2625 321.39307 488.96564 321.98682Q488.66876 322.58057 488.23126 322.93994ZM491.73126 316.43994L492.54376 316.43994Q493.325 316.42432 493.7625 316.0337Q494.2 315.64307 494.2 314.9712Q494.2 313.4712 492.7 313.4712Q491.9969 313.4712 491.575 313.87744Q491.16876 314.2837 491.16876 314.93994L490.075 314.93994Q490.075 313.92432 490.8094 313.25244Q491.5594 312.58057 492.7 312.58057Q493.90314 312.58057 494.59064 313.2212Q495.27814 313.86182 495.27814 315.00244Q495.27814 315.56494 494.91876 316.08057Q494.5594 316.5962 493.9344 316.86182Q494.6375 317.08057 495.0125 317.5962Q495.40314 318.11182 495.40314 318.86182Q495.40314 320.00244 494.65314 320.68994Q493.90314 321.36182 492.7 321.36182Q491.5125 321.36182 490.7469 320.70557Q489.9969 320.04932 489.9969 318.98682L491.09064 318.98682Q491.09064 319.6587 491.52814 320.06494Q491.96564 320.4712 492.71564 320.4712Q493.4969 320.4712 493.90314 320.06494Q494.325 319.64307 494.325 318.87744Q494.325 318.14307 493.8719 317.75244Q493.41876 317.3462 492.54376 317.33057L491.73126 317.33057L491.73126 316.43994ZM497.0594 314.3462Q497.0594 313.58057 497.54376 313.08057Q498.04376 312.58057 498.8094 312.58057Q499.59064 312.58057 500.075 313.08057Q500.5594 313.58057 500.5594 314.37744L500.5594 314.79932Q500.5594 315.56494 500.0594 316.06494Q499.575 316.54932 498.825 316.54932Q498.0594 316.54932 497.5594 316.06494Q497.0594 315.56494 497.0594 314.75244L497.0594 314.3462ZM497.8719 314.79932Q497.8719 315.25244 498.1219 315.54932Q498.3875 315.8462 498.825 315.8462Q499.2469 315.8462 499.4969 315.56494Q499.7469 315.26807 499.7469 314.76807L499.7469 314.3462Q499.7469 313.89307 499.4969 313.5962Q499.2469 313.2837 498.8094 313.2837Q498.3719 313.2837 498.1219 313.5962Q497.8719 313.89307 497.8719 314.36182L497.8719 314.79932ZM501.21564 319.14307Q501.21564 318.37744 501.7 317.89307Q502.2 317.39307 502.96564 317.39307Q503.73126 317.39307 504.21564 317.89307Q504.71564 318.37744 504.71564 319.18994L504.71564 319.5962Q504.71564 320.36182 504.23126 320.86182Q503.7469 321.36182 502.98126 321.36182Q502.21564 321.36182 501.71564 320.87744Q501.21564 320.37744 501.21564 319.56494L501.21564 319.14307ZM502.02814 319.5962Q502.02814 320.06494 502.27814 320.36182Q502.54376 320.6587 502.98126 320.6587Q503.40314 320.6587 503.65314 320.37744Q503.90314 320.08057 503.90314 319.58057L503.90314 319.14307Q503.90314 318.67432 503.6375 318.39307Q503.3875 318.0962 502.96564 318.0962Q502.54376 318.0962 502.27814 318.39307Q502.02814 318.67432 502.02814 319.17432L502.02814 319.5962ZM499.075 320.5962L498.45 320.20557L502.6219 313.5337L503.23126 313.92432L499.075 320.5962Z" fill-rule="nonzero"/><path stroke="#757575" stroke-width="1.0" stroke-linecap="butt" d="M505.45 307.73682L416.76666 307.73682L357.6377 307.73682" fill-rule="nonzero"/><path fill="#9e9e9e" d="M359.6377 307.73682C359.6377 306.63226 358.74225 305.73682 357.6377 305.73682C356.5331 305.73682 355.6377 306.63226 355.6377 307.73682C355.6377 308.8414 356.5331 309.73682 357.6377 309.73682C358.74225 309.73682 359.6377 308.8414 359.6377 307.73682" fill-rule="nonzero"/><path fill="#757575" d="M20.20625 37.55L20.20625 23.33125L24.221874 23.33125Q26.065624 23.33125 27.4875 24.159374Q28.925 24.971874 29.690624 26.4875Q30.471874 28.003124 30.4875 29.95625L30.4875 30.8625Q30.4875 32.878124 29.70625 34.39375Q28.925 35.909374 27.4875 36.721874Q26.05 37.534374 24.14375 37.55L20.20625 37.55ZM22.08125 24.878124L22.08125 36.01875L24.05 36.01875Q26.221874 36.01875 27.425 34.675Q28.628124 33.315624 28.628124 30.83125L28.628124 30.003124Q28.628124 27.58125 27.4875 26.2375Q26.346874 24.89375 24.26875 24.878124L22.08125 24.878124ZM34.878124 37.55L33.08125 37.55L33.08125 26.9875L34.878124 26.9875L34.878124 37.55ZM32.925 24.175Q32.925 23.7375 33.190624 23.440624Q33.471874 23.128124 33.9875 23.128124Q34.51875 23.128124 34.784374 23.440624Q35.065624 23.7375 35.065624 24.175Q35.065624 24.6125 34.784374 24.909374Q34.51875 25.20625 33.9875 25.20625Q33.471874 25.20625 33.190624 24.909374Q32.925 24.6125 32.925 24.175ZM44.065624 34.753124Q44.065624 34.01875 43.51875 33.6125Q42.971874 33.20625 41.596874 32.909374Q40.221874 32.6125 39.409374 32.20625Q38.6125 31.8 38.221874 31.2375Q37.846874 30.659374 37.846874 29.878124Q37.846874 28.58125 38.940624 27.690624Q40.034374 26.784374 41.753124 26.784374Q43.55 26.784374 44.659374 27.721874Q45.784374 28.64375 45.784374 30.08125L43.95625 30.08125Q43.95625 29.346874 43.33125 28.815624Q42.70625 28.26875 41.753124 28.26875Q40.753124 28.26875 40.190624 28.70625Q39.64375 29.128124 39.64375 29.83125Q39.64375 30.471874 40.159374 30.815624Q40.675 31.14375 42.034374 31.45625Q43.39375 31.753124 44.221874 32.175Q45.065624 32.58125 45.471874 33.175Q45.878124 33.76875 45.878124 34.6125Q45.878124 36.034374 44.7375 36.89375Q43.6125 37.753124 41.8 37.753124Q40.534374 37.753124 39.55 37.3Q38.58125 36.846874 38.01875 36.05Q37.471874 35.2375 37.471874 34.3L39.284374 34.3Q39.33125 35.20625 40.003124 35.7375Q40.690624 36.26875 41.8 36.26875Q42.83125 36.26875 43.440624 35.8625Q44.065624 35.440624 44.065624 34.753124ZM50.3625 24.425L50.3625 26.9875L52.346874 26.9875L52.346874 28.378124L50.3625 28.378124L50.3625 34.925Q50.3625 35.565624 50.628124 35.89375Q50.89375 36.20625 51.534374 36.20625Q51.846874 36.20625 52.39375 36.08125L52.39375 37.55Q51.675 37.753124 51.003124 37.753124Q49.8 37.753124 49.175 37.01875Q48.565624 36.284374 48.565624 34.925L48.565624 28.378124L46.64375 28.378124L46.64375 26.9875L48.565624 26.9875L48.565624 24.425L50.3625 24.425ZM60.01875 28.596874Q59.6125 28.534374 59.14375 28.534374Q57.3625 28.534374 56.721874 30.05L56.721874 37.55L54.925 37.55L54.925 26.9875L56.675 26.9875L56.70625 28.20625Q57.596874 26.784374 59.221874 26.784374Q59.753124 26.784374 60.01875 26.925L60.01875 28.596874ZM63.878124 37.55L62.08125 37.55L62.08125 26.9875L63.878124 26.9875L63.878124 37.55ZM61.925 24.175Q61.925 23.7375 62.190624 23.440624Q62.471874 23.128124 62.9875 23.128124Q63.51875 23.128124 63.784374 23.440624Q64.06563 23.7375 64.06563 24.175Q64.06563 24.6125 63.784374 24.909374Q63.51875 25.20625 62.9875 25.20625Q62.471874 25.20625 62.190624 24.909374Q61.925 24.6125 61.925 24.175ZM75.8625 32.378124Q75.8625 34.8 74.75313 36.284374Q73.64375 37.753124 71.76875 37.753124Q69.75313 37.753124 68.65938 36.33125L68.58125 37.55L66.925 37.55L66.925 22.55L68.72188 22.55L68.72188 28.14375Q69.81563 26.784374 71.7375 26.784374Q73.65938 26.784374 74.75313 28.2375Q75.8625 29.690624 75.8625 32.221874L75.8625 32.378124ZM74.05 32.175Q74.05 30.33125 73.33125 29.33125Q72.62813 28.315624 71.3 28.315624Q69.50313 28.315624 68.72188 29.9875L68.72188 34.55Q69.55 36.20625 71.31563 36.20625Q72.6125 36.20625 73.33125 35.20625Q74.05 34.20625 74.05 32.175ZM84.44063 36.503124Q83.39375 37.753124 81.34688 37.753124Q79.65938 37.753124 78.76875 36.76875Q77.89375 35.784374 77.87813 33.8625L77.87813 26.9875L79.69063 26.9875L79.69063 33.815624Q79.69063 36.20625 81.64375 36.20625Q83.70625 36.20625 84.39375 34.675L84.39375 26.9875L86.20625 26.9875L86.20625 37.55L84.4875 37.55L84.44063 36.503124ZM91.3625 24.425L91.3625 26.9875L93.34688 26.9875L93.34688 28.378124L91.3625 28.378124L91.3625 34.925Q91.3625 35.565624 91.62813 35.89375Q91.89375 36.20625 92.53438 36.20625Q92.84688 36.20625 93.39375 36.08125L93.39375 37.55Q92.675 37.753124 92.00313 37.753124Q90.8 37.753124 90.175 37.01875Q89.56563 36.284374 89.56563 34.925L89.56563 28.378124L87.64375 28.378124L87.64375 26.9875L89.56563 26.9875L89.56563 24.425L91.3625 24.425ZM97.87813 37.55L96.08125 37.55L96.08125 26.9875L97.87813 26.9875L97.87813 37.55ZM95.925 24.175Q95.925 23.7375 96.19063 23.440624Q96.47188 23.128124 96.9875 23.128124Q97.51875 23.128124 97.78438 23.440624Q98.06563 23.7375 98.06563 24.175Q98.06563 24.6125 97.78438 24.909374Q97.51875 25.20625 96.9875 25.20625Q96.47188 25.20625 96.19063 24.909374Q95.925 24.6125 95.925 24.175ZM100.44063 32.175Q100.44063 30.6125 101.05 29.378124Q101.65938 28.128124 102.7375 27.45625Q103.83125 26.784374 105.2375 26.784374Q107.39375 26.784374 108.72188 28.284374Q110.06563 29.76875 110.06563 32.253124L110.06563 32.378124Q110.06563 33.925 109.47188 35.159374Q108.87813 36.378124 107.76875 37.065624Q106.675 37.753124 105.25313 37.753124Q103.1125 37.753124 101.76875 36.253124Q100.44063 34.753124 100.44063 32.3L100.44063 32.175ZM102.25313 32.378124Q102.25313 34.14375 103.06563 35.20625Q103.89375 36.26875 105.25313 36.26875Q106.62813 36.26875 107.44063 35.190624Q108.25313 34.1125 108.25313 32.175Q108.25313 30.425 107.425 29.346874Q106.59688 28.26875 105.2375 28.26875Q103.89375 28.26875 103.06563 29.33125Q102.25313 30.39375 102.25313 32.378124ZM113.62813 26.9875L113.69063 28.315624Q114.89375 26.784374 116.84688 26.784374Q120.20625 26.784374 120.22188 30.565624L120.22188 37.55L118.425 37.55L118.425 30.55Q118.40938 29.409374 117.89375 28.8625Q117.39375 28.315624 116.3 28.315624Q115.425 28.315624 114.75313 28.784374Q114.09688 29.253124 113.72188 30.01875L113.72188 37.55L111.925 37.55L111.925 26.9875L113.62813 26.9875ZM129.87813 37.55L128.08125 37.55L128.08125 26.9875L129.87813 26.9875L129.87813 37.55ZM127.925 24.175Q127.925 23.7375 128.19063 23.440624Q128.47188 23.128124 128.9875 23.128124Q129.51875 23.128124 129.78438 23.440624Q130.06563 23.7375 130.06563 24.175Q130.06563 24.6125 129.78438 24.909374Q129.51875 25.20625 128.9875 25.20625Q128.47188 25.20625 128.19063 24.909374Q127.925 24.6125 127.925 24.175ZM134.62813 26.9875L134.69063 28.315624Q135.89375 26.784374 137.84688 26.784374Q141.20625 26.784374 141.22188 30.565624L141.22188 37.55L139.425 37.55L139.425 30.55Q139.40938 29.409374 138.89375 28.8625Q138.39375 28.315624 137.3 28.315624Q136.425 28.315624 135.75313 28.784374Q135.09688 29.253124 134.72188 30.01875L134.72188 37.55L132.925 37.55L132.925 26.9875L134.62813 26.9875ZM155.06563 34.753124Q155.06563 34.01875 154.51875 33.6125Q153.97188 33.20625 152.59688 32.909374Q151.22188 32.6125 150.40938 32.20625Q149.6125 31.8 149.22188 31.2375Q148.84688 30.659374 148.84688 29.878124Q148.84688 28.58125 149.94063 27.690624Q151.03438 26.784374 152.75313 26.784374Q154.55 26.784374 155.65938 27.721874Q156.78438 28.64375 156.78438 30.08125L154.95625 30.08125Q154.95625 29.346874 154.33125 28.815624Q153.70625 28.26875 152.75313 28.26875Q151.75313 28.26875 151.19063 28.70625Q150.64375 29.128124 150.64375 29.83125Q150.64375 30.471874 151.15938 30.815624Q151.675 31.14375 153.03438 31.45625Q154.39375 31.753124 155.22188 32.175Q156.06563 32.58125 156.47188 33.175Q156.87813 33.76875 156.87813 34.6125Q156.87813 36.034374 155.7375 36.89375Q154.6125 37.753124 152.8 37.753124Q151.53438 37.753124 150.55 37.3Q149.58125 36.846874 149.01875 36.05Q148.47188 35.2375 148.47188 34.3L150.28438 34.3Q150.33125 35.20625 151.00313 35.7375Q151.69063 36.26875 152.8 36.26875Q153.83125 36.26875 154.44063 35.8625Q155.06563 35.440624 155.06563 34.753124ZM163.3 37.753124Q161.15938 37.753124 159.8 36.346874Q158.45625 34.925 158.45625 32.565624L158.45625 32.221874Q158.45625 30.659374 159.05 29.425Q159.65938 28.190624 160.7375 27.4875Q161.81563 26.784374 163.08125 26.784374Q165.14375 26.784374 166.28438 28.14375Q167.425 29.503124 167.425 32.034374L167.425 32.784374L160.26875 32.784374Q160.3 34.346874 161.175 35.315624Q162.05 36.26875 163.39375 36.26875Q164.3625 36.26875 165.01875 35.878124Q165.69063 35.4875 166.19063 34.846874L167.28438 35.70625Q165.95625 37.753124 163.3 37.753124ZM163.08125 28.26875Q161.9875 28.26875 161.2375 29.065624Q160.50313 29.8625 160.33125 31.3L165.6125 31.3L165.6125 31.159374Q165.53438 29.784374 164.8625 29.034374Q164.20625 28.26875 163.08125 28.26875ZM171.87813 37.55L170.08125 37.55L170.08125 22.55L171.87813 22.55L171.87813 37.55ZM179.3 37.753124Q177.15938 37.753124 175.8 36.346874Q174.45625 34.925 174.45625 32.565624L174.45625 32.221874Q174.45625 30.659374 175.05 29.425Q175.65938 28.190624 176.7375 27.4875Q177.81563 26.784374 179.08125 26.784374Q181.14375 26.784374 182.28438 28.14375Q183.425 29.503124 183.425 32.034374L183.425 32.784374L176.26875 32.784374Q176.3 34.346874 177.175 35.315624Q178.05 36.26875 179.39375 36.26875Q180.3625 36.26875 181.01875 35.878124Q181.69063 35.4875 182.19063 34.846874L183.28438 35.70625Q181.95625 37.753124 179.3 37.753124ZM179.08125 28.26875Q177.9875 28.26875 177.2375 29.065624Q176.50313 29.8625 176.33125 31.3L181.6125 31.3L181.6125 31.159374Q181.53438 29.784374 180.8625 29.034374Q180.20625 28.26875 179.08125 28.26875ZM190.15938 36.26875Q191.12813 36.26875 191.84688 35.690624Q192.56563 35.096874 192.64375 34.221874L194.3625 34.221874Q194.3 35.128124 193.72188 35.95625Q193.15938 36.76875 192.19063 37.26875Q191.2375 37.753124 190.15938 37.753124Q188.00313 37.753124 186.72188 36.315624Q185.45625 34.8625 185.45625 32.3625L185.45625 32.065624Q185.45625 30.51875 186.01875 29.315624Q186.58125 28.1125 187.64375 27.45625Q188.70625 26.784374 190.14375 26.784374Q191.925 26.784374 193.09688 27.846874Q194.28438 28.909374 194.3625 30.6125L192.64375 30.6125Q192.56563 29.596874 191.8625 28.940624Q191.175 28.26875 190.14375 28.26875Q188.76875 28.26875 188.00313 29.26875Q187.25313 30.253124 187.25313 32.128124L187.25313 32.471874Q187.25313 34.3 188.00313 35.284374Q188.75313 36.26875 190.15938 36.26875ZM198.3625 24.425L198.3625 26.9875L200.34688 26.9875L200.34688 28.378124L198.3625 28.378124L198.3625 34.925Q198.3625 35.565624 198.62813 35.89375Q198.89375 36.20625 199.53438 36.20625Q199.84688 36.20625 200.39375 36.08125L200.39375 37.55Q199.675 37.753124 199.00313 37.753124Q197.8 37.753124 197.175 37.01875Q196.56563 36.284374 196.56563 34.925L196.56563 28.378124L194.64375 28.378124L194.64375 26.9875L196.56563 26.9875L196.56563 24.425L198.3625 24.425ZM207.3 37.753124Q205.15938 37.753124 203.8 36.346874Q202.45625 34.925 202.45625 32.565624L202.45625 32.221874Q202.45625 30.659374 203.05 29.425Q203.65938 28.190624 204.7375 27.4875Q205.81563 26.784374 207.08125 26.784374Q209.14375 26.784374 210.28438 28.14375Q211.425 29.503124 211.425 32.034374L211.425 32.784374L204.26875 32.784374Q204.3 34.346874 205.175 35.315624Q206.05 36.26875 207.39375 36.26875Q208.3625 36.26875 209.01875 35.878124Q209.69063 35.4875 210.19063 34.846874L211.28438 35.70625Q209.95625 37.753124 207.3 37.753124ZM207.08125 28.26875Q205.9875 28.26875 205.2375 29.065624Q204.50313 29.8625 204.33125 31.3L209.6125 31.3L209.6125 31.159374Q209.53438 29.784374 208.8625 29.034374Q208.20625 28.26875 207.08125 28.26875ZM213.47188 32.175Q213.47188 29.753124 214.62813 28.26875Q215.78438 26.784374 217.64375 26.784374Q219.50313 26.784374 220.58125 28.05L220.58125 22.55L222.39375 22.55L222.39375 37.55L220.7375 37.55L220.64375 36.409374Q219.56563 37.753124 217.62813 37.753124Q215.8 37.753124 214.62813 36.253124Q213.47188 34.7375 213.47188 32.315624L213.47188 32.175ZM215.28438 32.378124Q215.28438 34.175 216.01875 35.190624Q216.76875 36.20625 218.08125 36.20625Q219.8 36.20625 220.58125 34.675L220.58125 29.815624Q219.78438 28.315624 218.09688 28.315624Q216.76875 28.315624 216.01875 29.346874Q215.28438 30.378124 215.28438 32.378124ZM234.15938 36.26875Q235.12813 36.26875 235.84688 35.690624Q236.56563 35.096874 236.64375 34.221874L238.3625 34.221874Q238.3 35.128124 237.72188 35.95625Q237.15938 36.76875 236.19063 37.26875Q235.2375 37.753124 234.15938 37.753124Q232.00313 37.753124 230.72188 36.315624Q229.45625 34.8625 229.45625 32.3625L229.45625 32.065624Q229.45625 30.51875 230.01875 29.315624Q230.58125 28.1125 231.64375 27.45625Q232.70625 26.784374 234.14375 26.784374Q235.925 26.784374 237.09688 27.846874Q238.28438 28.909374 238.3625 30.6125L236.64375 30.6125Q236.56563 29.596874 235.8625 28.940624Q235.175 28.26875 234.14375 28.26875Q232.76875 28.26875 232.00313 29.26875Q231.25313 30.253124 231.25313 32.128124L231.25313 32.471874Q231.25313 34.3 232.00313 35.284374Q232.75313 36.26875 234.15938 36.26875ZM246.44063 37.55Q246.28438 37.2375 246.19063 36.440624Q244.925 37.753124 243.175 37.753124Q241.6125 37.753124 240.6125 36.8625Q239.6125 35.971874 239.6125 34.6125Q239.6125 32.971874 240.8625 32.065624Q242.12813 31.14375 244.39375 31.14375L246.15938 31.14375L246.15938 30.315624Q246.15938 29.3625 245.58125 28.8Q245.01875 28.2375 243.925 28.2375Q242.95625 28.2375 242.3 28.7375Q241.64375 29.221874 241.64375 29.909374L239.83125 29.909374Q239.83125 29.128124 240.39375 28.39375Q240.95625 27.64375 241.90938 27.221874Q242.87813 26.784374 244.03438 26.784374Q245.8625 26.784374 246.89375 27.70625Q247.925 28.6125 247.97188 30.221874L247.97188 35.08125Q247.97188 36.534374 248.33125 37.39375L248.33125 37.55L246.44063 37.55ZM243.44063 36.175Q244.3 36.175 245.05 35.7375Q245.81563 35.3 246.15938 34.596874L246.15938 32.425L244.7375 32.425Q241.425 32.425 241.425 34.3625Q241.425 35.221874 241.9875 35.70625Q242.55 36.175 243.44063 36.175ZM253.3625 24.425L253.3625 26.9875L255.34688 26.9875L255.34688 28.378124L253.3625 28.378124L253.3625 34.925Q253.3625 35.565624 253.62813 35.89375Q253.89375 36.20625 254.53438 36.20625Q254.84688 36.20625 255.39375 36.08125L255.39375 37.55Q254.675 37.753124 254.00313 37.753124Q252.8 37.753124 252.175 37.01875Q251.56563 36.284374 251.56563 34.925L251.56563 28.378124L249.64375 28.378124L249.64375 26.9875L251.56563 26.9875L251.56563 24.425L253.3625 24.425ZM262.3 37.753124Q260.15936 37.753124 258.8 36.346874Q257.45624 34.925 257.45624 32.565624L257.45624 32.221874Q257.45624 30.659374 258.05 29.425Q258.65936 28.190624 259.7375 27.4875Q260.8156 26.784374 262.08124 26.784374Q264.14374 26.784374 265.28436 28.14375Q266.425 29.503124 266.425 32.034374L266.425 32.784374L259.26874 32.784374Q259.3 34.346874 260.175 35.315624Q261.05 36.26875 262.39374 36.26875Q263.3625 36.26875 264.01874 35.878124Q264.6906 35.4875 265.1906 34.846874L266.28436 35.70625Q264.95624 37.753124 262.3 37.753124ZM262.08124 28.26875Q260.9875 28.26875 260.2375 29.065624Q259.5031 29.8625 259.33124 31.3L264.6125 31.3L264.6125 31.159374Q264.53436 29.784374 263.8625 29.034374Q263.20624 28.26875 262.08124 28.26875ZM268.4875 32.175Q268.4875 29.70625 269.6281 28.253124Q270.76874 26.784374 272.65936 26.784374Q274.59686 26.784374 275.675 28.159374L275.76874 26.9875L277.40936 26.9875L277.40936 37.3Q277.40936 39.346874 276.1906 40.51875Q274.9875 41.70625 272.925 41.70625Q271.78436 41.70625 270.6906 41.221874Q269.59686 40.7375 269.01874 39.878124L269.95624 38.8Q271.1281 40.2375 272.8 40.2375Q274.1281 40.2375 274.8625 39.4875Q275.59686 38.753124 275.59686 37.409374L275.59686 36.4875Q274.51874 37.753124 272.64374 37.753124Q270.78436 37.753124 269.6281 36.253124Q268.4875 34.753124 268.4875 32.175ZM270.3 32.378124Q270.3 34.175 271.03436 35.190624Q271.76874 36.20625 273.08124 36.20625Q274.8 36.20625 275.59686 34.659374L275.59686 29.83125Q274.76874 28.315624 273.1125 28.315624Q271.78436 28.315624 271.03436 29.346874Q270.3 30.378124 270.3 32.378124ZM279.4406 32.175Q279.4406 30.6125 280.05 29.378124Q280.65936 28.128124 281.7375 27.45625Q282.83124 26.784374 284.2375 26.784374Q286.39374 26.784374 287.72186 28.284374Q289.0656 29.76875 289.0656 32.253124L289.0656 32.378124Q289.0656 33.925 288.47186 35.159374Q287.8781 36.378124 286.76874 37.065624Q285.675 37.753124 284.2531 37.753124Q282.1125 37.753124 280.76874 36.253124Q279.4406 34.753124 279.4406 32.3L279.4406 32.175ZM281.2531 32.378124Q281.2531 34.14375 282.0656 35.20625Q282.89374 36.26875 284.2531 36.26875Q285.6281 36.26875 286.4406 35.190624Q287.2531 34.1125 287.2531 32.175Q287.2531 30.425 286.425 29.346874Q285.59686 28.26875 284.2375 28.26875Q282.89374 28.26875 282.0656 29.33125Q281.2531 30.39375 281.2531 32.378124ZM296.01874 28.596874Q295.6125 28.534374 295.14374 28.534374Q293.3625 28.534374 292.72186 30.05L292.72186 37.55L290.925 37.55L290.925 26.9875L292.675 26.9875L292.70624 28.20625Q293.59686 26.784374 295.22186 26.784374Q295.7531 26.784374 296.01874 26.925L296.01874 28.596874ZM301.3781 34.909374L303.83124 26.9875L305.76874 26.9875L301.51874 39.175Q300.53436 41.815624 298.39374 41.815624L298.05 41.784374L297.3781 41.659374L297.3781 40.190624L297.8625 40.2375Q298.78436 40.2375 299.28436 39.8625Q299.8 39.4875 300.1281 38.503124L300.53436 37.425L296.76874 26.9875L298.7375 26.9875L301.3781 34.909374Z" fill-rule="nonzero"/></svg>