<svg version="1.1" viewBox="0.0 0.0 524.0 371.0" fill="none" stroke="none" stroke-linecap="square" stroke-miterlimit="10" width="524" height="371" xmlns:xlink="http://www.w3.org/1999/xlink" xmlns="http://www.w3.org/2000/svg"><path fill="#ffffff" d="M0 0L524.0 0L524.0 371.0L0 371.0L0 0Z" fill-rule="nonzero"/><path fill="#ffffff" d="M0 0L524.0 0L524.0 371.0L0 371.0L0 0Z" fill-rule="nonzero"/><path fill="#db4437" d="M262.0 54.916668C274.6779 54.916668 287.3038 56.537254 299.57074 59.739037L262.0 203.68333Z" fill-rule="nonzero"/><path fill="#ffffff" d="M276.30917 80.455696Q276.30917 81.205696 275.91855 81.78382Q275.52792 82.361946 274.85605 82.69007Q275.6373 83.03382 276.09042 83.674446Q276.54355 84.31507 276.54355 85.12757Q276.54355 86.424446 275.66855 87.19007Q274.80917 87.955696 273.3873 87.955696Q271.9498 87.955696 271.0748 87.19007Q270.21542 86.40882 270.21542 85.12757Q270.21542 84.31507 270.65292 83.674446Q271.09042 83.018196 271.87167 82.69007Q271.21542 82.361946 270.8248 81.78382Q270.4498 81.19007 270.4498 80.455696Q270.4498 79.205696 271.24667 78.47132Q272.05917 77.72132 273.3873 77.72132Q274.6998 77.72132 275.49667 78.47132Q276.30917 79.205696 276.30917 80.455696ZM275.27792 85.09632Q275.27792 84.268196 274.74667 83.75257Q274.21542 83.22132 273.35605 83.22132Q272.5123 83.22132 271.99667 83.736946Q271.48105 84.25257 271.48105 85.111946Q271.48105 85.955696 271.98105 86.44007Q272.48105 86.924446 273.3873 86.924446Q274.2623 86.924446 274.7623 86.44007Q275.27792 85.94007 275.27792 85.09632ZM273.3873 78.768196Q272.6373 78.768196 272.16855 79.236946Q271.71542 79.69007 271.71542 80.486946Q271.71542 81.236946 272.16855 81.705696Q272.62167 82.174446 273.37167 82.174446Q274.1373 82.174446 274.59042 81.705696Q275.04355 81.236946 275.04355 80.486946Q275.04355 79.72132 274.5748 79.25257Q274.10605 78.768196 273.3873 78.768196ZM284.79355 87.81507L278.27792 87.81507L278.27792 86.90882L281.71542 83.080696Q282.48105 82.205696 282.77792 81.674446Q283.0748 81.12757 283.0748 80.53382Q283.0748 79.768196 282.59042 79.268196Q282.12167 78.768196 281.34042 78.768196Q280.40292 78.768196 279.87167 79.299446Q279.35605 79.830696 279.35605 80.799446L278.09042 80.799446Q278.09042 79.424446 278.96542 78.580696Q279.85605 77.72132 281.34042 77.72132Q282.73105 77.72132 283.52792 78.455696Q284.34042 79.174446 284.34042 80.393196Q284.34042 81.861946 282.46542 83.893196L279.80917 86.78382L284.79355 86.78382L284.79355 87.81507Z" fill-rule="nonzero"/><path fill="#f4b400" d="M299.57074 59.739037C311.38773 62.823376 322.77994 67.35111 333.49023 73.22005L262.0 203.68333Z" fill-rule="nonzero"/><path fill="#000000" d="M304.85315 89.22373L300.72815 98.47373L299.41565 98.47373L303.5094 89.55186L298.1344 89.55186L298.1344 88.52061L304.85315 88.52061L304.85315 89.22373ZM311.27502 94.09873Q310.8844 94.56748 310.3219 94.86436Q309.77502 95.14561 309.11877 95.14561Q308.2594 95.14561 307.61877 94.72373Q306.97815 94.30186 306.6344 93.53623Q306.29065 92.75498 306.29065 91.83311Q306.29065 90.83311 306.66565 90.03623Q307.04065 89.22373 307.74377 88.80186Q308.4469 88.37998 309.36877 88.37998Q310.85315 88.37998 311.6969 89.48936Q312.55627 90.59873 312.55627 92.50498L312.55627 92.86436Q312.55627 95.77061 311.40002 97.11436Q310.2594 98.44248 307.93127 98.47373L307.68127 98.47373L307.68127 97.41123L307.96252 97.41123Q309.52502 97.37998 310.35315 96.59873Q311.1969 95.80186 311.27502 94.09873ZM309.3219 94.09873Q309.96252 94.09873 310.49377 93.70811Q311.04065 93.31748 311.29065 92.73936L311.29065 92.23936Q311.29065 90.98936 310.74377 90.22373Q310.1969 89.44248 309.3844 89.44248Q308.54065 89.44248 308.02502 90.08311Q307.52502 90.70811 307.52502 91.75498Q307.52502 92.78623 308.0094 93.44248Q308.5094 94.09873 309.3219 94.09873Z" fill-rule="nonzero"/><path fill="#0f9d58" d="M333.49023 73.22005C398.0028 108.57113 426.99106 185.76573 401.69345 254.84251C376.39584 323.91928 304.40924 364.1344 232.32431 349.46014C160.23938 334.78586 109.703316 269.62885 113.423706 196.15962C117.1441 122.69038 174.00371 62.97177 247.20226 55.654457L262.0 203.68333Z" fill-rule="nonzero"/><path fill="#ffffff" d="M226.16158 322.75262L224.89595 322.75262L224.89595 314.33075L222.33345 315.25262L222.33345 314.112L225.95845 312.75262L226.16158 312.75262L226.16158 322.75262ZM230.09908 324.737L229.38033 324.237Q230.02095 323.34637 230.0522 322.39325L230.0522 321.25262L231.28658 321.25262L231.28658 322.25262Q231.28658 322.94012 230.94283 323.62762Q230.59908 324.31512 230.09908 324.737ZM239.03658 315.39325Q239.03658 316.14325 238.64595 316.72137Q238.25533 317.2995 237.58345 317.62762Q238.3647 317.97137 238.81783 318.612Q239.27095 319.25262 239.27095 320.06512Q239.27095 321.362 238.39595 322.12762Q237.53658 322.89325 236.1147 322.89325Q234.6772 322.89325 233.8022 322.12762Q232.94283 321.34637 232.94283 320.06512Q232.94283 319.25262 233.38033 318.612Q233.81783 317.95575 234.59908 317.62762Q233.94283 317.2995 233.5522 316.72137Q233.1772 316.12762 233.1772 315.39325Q233.1772 314.14325 233.97408 313.40887Q234.78658 312.65887 236.1147 312.65887Q237.4272 312.65887 238.22408 313.40887Q239.03658 314.14325 239.03658 315.39325ZM238.00533 320.03387Q238.00533 319.20575 237.47408 318.69012Q236.94283 318.15887 236.08345 318.15887Q235.2397 318.15887 234.72408 318.6745Q234.20845 319.19012 234.20845 320.0495Q234.20845 320.89325 234.70845 321.37762Q235.20845 321.862 236.1147 321.862Q236.9897 321.862 237.4897 321.37762Q238.00533 320.87762 238.00533 320.03387ZM236.1147 313.70575Q235.3647 313.70575 234.89595 314.1745Q234.44283 314.62762 234.44283 315.4245Q234.44283 316.1745 234.89595 316.64325Q235.34908 317.112 236.09908 317.112Q236.8647 317.112 237.31783 316.64325Q237.77095 316.1745 237.77095 315.4245Q237.77095 314.65887 237.3022 314.19012Q236.83345 313.70575 236.1147 313.70575ZM247.52095 322.75262L241.00533 322.75262L241.00533 321.84637L244.44283 318.01825Q245.20845 317.14325 245.50533 316.612Q245.8022 316.06512 245.8022 315.47137Q245.8022 314.70575 245.31783 314.20575Q244.84908 313.70575 244.06783 313.70575Q243.13033 313.70575 242.59908 314.237Q242.08345 314.76825 242.08345 315.737L240.81783 315.737Q240.81783 314.362 241.69283 313.51825Q242.58345 312.65887 244.06783 312.65887Q245.45845 312.65887 246.25533 313.39325Q247.06783 314.112 247.06783 315.33075Q247.06783 316.7995 245.19283 318.83075L242.53658 321.72137L247.52095 321.72137L247.52095 322.75262ZM249.58345 317.76825L250.09908 312.7995L255.19283 312.7995L255.19283 313.97137L251.16158 313.97137L250.8647 316.6745Q251.59908 316.25262 252.52095 316.25262Q253.88033 316.25262 254.6772 317.15887Q255.4897 318.0495 255.4897 319.58075Q255.4897 321.112 254.64595 322.00262Q253.81783 322.89325 252.33345 322.89325Q251.02095 322.89325 250.1772 322.15887Q249.34908 321.4245 249.22408 320.12762L250.4272 320.12762Q250.53658 320.987 251.02095 321.4245Q251.52095 321.862 252.33345 321.862Q253.20845 321.862 253.70845 321.26825Q254.22408 320.65887 254.22408 319.59637Q254.22408 318.59637 253.6772 318.00262Q253.13033 317.39325 252.22408 317.39325Q251.41158 317.39325 250.9272 317.75262L250.59908 318.01825L249.58345 317.76825Z" fill-rule="nonzero"/><path fill="#ff6d00" d="M247.20226 55.654457C252.11952 55.162903 257.05823 54.916668 262.0 54.916668L262.0 203.68333Z" fill-rule="nonzero"/><path fill="#757575" d="M20.378124 65.99479L25.26875 65.99479L25.26875 66.916664L19.05 66.916664L19.05 66.072914L23.7375 59.30729L19.128124 59.30729L19.128124 58.385414L25.08125 58.385414L25.08125 59.21354L20.378124 65.99479ZM27.55 66.916664L26.471874 66.916664L26.471874 60.572914L27.55 60.572914L27.55 66.916664ZM26.378124 58.90104Q26.378124 58.635414 26.534374 58.447914Q26.70625 58.260414 27.01875 58.260414Q27.33125 58.260414 27.4875 58.447914Q27.659374 58.635414 27.659374 58.90104Q27.659374 59.15104 27.4875 59.33854Q27.33125 59.510414 27.01875 59.510414Q26.70625 59.510414 26.534374 59.33854Q26.378124 59.15104 26.378124 58.90104ZM34.721874 63.822914Q34.721874 65.260414 34.065624 66.15104Q33.409374 67.041664 32.26875 67.041664Q31.1125 67.041664 30.45625 66.30729L30.45625 69.354164L29.378124 69.354164L29.378124 60.572914L30.3625 60.572914L30.409374 61.27604Q31.08125 60.46354 32.253124 60.46354Q33.39375 60.46354 34.05 61.322914Q34.721874 62.18229 34.721874 63.71354L34.721874 63.822914ZM33.64375 63.697914Q33.64375 62.61979 33.175 62.010414Q32.721874 61.385414 31.925 61.385414Q30.940624 61.385414 30.45625 62.24479L30.45625 65.27604Q30.940624 66.15104 31.940624 66.15104Q32.721874 66.15104 33.175 65.541664Q33.64375 64.916664 33.64375 63.697914ZM40.846874 59.041664L40.846874 60.572914L42.01875 60.572914L42.01875 61.416664L40.846874 61.416664L40.846874 65.33854Q40.846874 65.729164 41.003124 65.916664Q41.159374 66.104164 41.534374 66.104164Q41.721874 66.104164 42.05 66.041664L42.05 66.916664Q41.628124 67.041664 41.221874 67.041664Q40.503124 67.041664 40.128124 66.604164Q39.753124 66.15104 39.753124 65.33854L39.753124 61.416664L38.596874 61.416664L38.596874 60.572914L39.753124 60.572914L39.753124 59.041664L40.846874 59.041664ZM44.55 66.916664L43.471874 66.916664L43.471874 60.572914L44.55 60.572914L44.55 66.916664ZM43.378124 58.90104Q43.378124 58.635414 43.534374 58.447914Q43.70625 58.260414 44.01875 58.260414Q44.33125 58.260414 44.4875 58.447914Q44.659374 58.635414 44.659374 58.90104Q44.659374 59.15104 44.4875 59.33854Q44.33125 59.510414 44.01875 59.510414Q43.70625 59.510414 43.534374 59.33854Q43.378124 59.15104 43.378124 58.90104ZM49.003124 67.041664Q47.70625 67.041664 46.89375 66.197914Q46.096874 65.33854 46.096874 63.916664L46.096874 63.729164Q46.096874 62.77604 46.45625 62.041664Q46.815624 61.291664 47.45625 60.885414Q48.1125 60.46354 48.8625 60.46354Q50.096874 60.46354 50.784374 61.27604Q51.471874 62.08854 51.471874 63.604164L51.471874 64.05729L47.175 64.05729Q47.20625 64.99479 47.721874 65.572914Q48.253124 66.15104 49.065624 66.15104Q49.628124 66.15104 50.01875 65.916664Q50.425 65.68229 50.7375 65.291664L51.39375 65.80729Q50.596874 67.041664 49.003124 67.041664ZM48.8625 61.354164Q48.20625 61.354164 47.753124 61.83854Q47.315624 62.30729 47.221874 63.166664L50.39375 63.166664L50.39375 63.08854Q50.346874 62.260414 49.940624 61.80729Q49.55 61.354164 48.8625 61.354164ZM56.065624 65.229164Q56.065624 64.791664 55.721874 64.55729Q55.39375 64.30729 54.565624 64.135414Q53.753124 63.96354 53.26875 63.71354Q52.784374 63.46354 52.55 63.135414Q52.33125 62.791664 52.33125 62.322914Q52.33125 61.541664 52.9875 61.010414Q53.64375 60.46354 54.675 60.46354Q55.753124 60.46354 56.409374 61.02604Q57.08125 61.572914 57.08125 62.43229L56.003124 62.43229Q56.003124 61.99479 55.6125 61.68229Q55.2375 61.354164 54.675 61.354164Q54.08125 61.354164 53.7375 61.61979Q53.409374 61.86979 53.409374 62.27604Q53.409374 62.666664 53.721874 62.86979Q54.034374 63.072914 54.846874 63.260414Q55.659374 63.43229 56.159374 63.68229Q56.659374 63.93229 56.89375 64.291664Q57.14375 64.65104 57.14375 65.15104Q57.14375 66.010414 56.45625 66.52604Q55.784374 67.041664 54.70625 67.041664Q53.940624 67.041664 53.346874 66.77604Q52.76875 66.49479 52.440624 66.010414Q52.1125 65.52604 52.1125 64.96354L53.190624 64.96354Q53.221874 65.510414 53.628124 65.83854Q54.034374 66.15104 54.70625 66.15104Q55.315624 66.15104 55.690624 65.90104Q56.065624 65.65104 56.065624 65.229164Z" fill-rule="nonzero"/><path fill="#9e9e9e" d="M22.815624 84.916664L21.7375 84.916664L21.7375 77.697914L19.55 78.49479L19.55 77.510414L22.659374 76.33854L22.815624 76.33854L22.815624 84.916664ZM26.33125 86.61979L25.721874 86.197914Q26.26875 85.43229 26.3 84.604164L26.3 83.635414L27.3625 83.635414L27.3625 84.479164Q27.3625 85.072914 27.065624 85.666664Q26.76875 86.260414 26.33125 86.61979ZM32.51875 76.385414L32.51875 77.291664L32.315624 77.291664Q31.05 77.322914 30.3 78.05729Q29.55 78.77604 29.425 80.08854Q30.1125 79.322914 31.26875 79.322914Q32.378124 79.322914 33.05 80.104164Q33.721874 80.885414 33.721874 82.135414Q33.721874 83.447914 33.003124 84.24479Q32.284374 85.041664 31.065624 85.041664Q29.846874 85.041664 29.08125 84.104164Q28.33125 83.15104 28.33125 81.666664L28.33125 81.260414Q28.33125 78.90104 29.33125 77.65104Q30.33125 76.40104 32.315624 76.385414L32.51875 76.385414ZM31.096874 80.229164Q30.534374 80.229164 30.065624 80.55729Q29.596874 80.885414 29.409374 81.40104L29.409374 81.791664Q29.409374 82.854164 29.878124 83.49479Q30.3625 84.135414 31.065624 84.135414Q31.8 84.135414 32.221874 83.604164Q32.64375 83.05729 32.64375 82.18229Q32.64375 81.30729 32.221874 80.77604Q31.8 80.229164 31.096874 80.229164ZM35.159374 78.02604Q35.159374 77.260414 35.64375 76.760414Q36.14375 76.260414 36.909374 76.260414Q37.690624 76.260414 38.175 76.760414Q38.659374 77.260414 38.659374 78.05729L38.659374 78.479164Q38.659374 79.24479 38.159374 79.74479Q37.675 80.229164 36.925 80.229164Q36.159374 80.229164 35.659374 79.74479Q35.159374 79.24479 35.159374 78.43229L35.159374 78.02604ZM35.971874 78.479164Q35.971874 78.93229 36.221874 79.229164Q36.4875 79.52604 36.925 79.52604Q37.346874 79.52604 37.596874 79.24479Q37.846874 78.947914 37.846874 78.447914L37.846874 78.02604Q37.846874 77.572914 37.596874 77.27604Q37.346874 76.96354 36.909374 76.96354Q36.471874 76.96354 36.221874 77.27604Q35.971874 77.572914 35.971874 78.041664L35.971874 78.479164ZM39.315624 82.822914Q39.315624 82.05729 39.8 81.572914Q40.3 81.072914 41.065624 81.072914Q41.83125 81.072914 42.315624 81.572914Q42.815624 82.05729 42.815624 82.86979L42.815624 83.27604Q42.815624 84.041664 42.33125 84.541664Q41.846874 85.041664 41.08125 85.041664Q40.315624 85.041664 39.815624 84.55729Q39.315624 84.05729 39.315624 83.24479L39.315624 82.822914ZM40.128124 83.27604Q40.128124 83.74479 40.378124 84.041664Q40.64375 84.33854 41.08125 84.33854Q41.503124 84.33854 41.753124 84.05729Q42.003124 83.760414 42.003124 83.260414L42.003124 82.822914Q42.003124 82.354164 41.7375 82.072914Q41.4875 81.77604 41.065624 81.77604Q40.64375 81.77604 40.378124 82.072914Q40.128124 82.354164 40.128124 82.854164L40.128124 83.27604ZM37.175 84.27604L36.55 83.885414L40.721874 77.21354L41.33125 77.604164L37.175 84.27604Z" fill-rule="nonzero"/><path stroke="#757575" stroke-width="1.0" stroke-linecap="butt" d="M18.55 71.416664L107.23333 71.416664L254.96234 62.530334" fill-rule="nonzero"/><path fill="#9e9e9e" d="M256.96234 62.530334C256.96234 61.425766 256.0669 60.530334 254.96234 60.530334C253.85777 60.530334 252.96234 61.425766 252.96234 62.530334C252.96234 63.634903 253.85777 64.530334 254.96234 64.530334C256.0669 64.530334 256.96234 63.634903 256.96234 62.530334" fill-rule="nonzero"/><path fill="#757575" d="M22.05 327.65314Q20.6125 327.23126 19.940624 326.6219Q19.284374 326.0125 19.284374 325.1219Q19.284374 324.1219 20.08125 323.46564Q20.89375 322.79376 22.190624 322.79376Q23.065624 322.79376 23.753124 323.1375Q24.440624 323.48126 24.815624 324.075Q25.20625 324.66876 25.20625 325.3875L24.065624 325.3875Q24.065624 324.60626 23.565624 324.16876Q23.08125 323.73126 22.190624 323.73126Q21.3625 323.73126 20.89375 324.10626Q20.425 324.46564 20.425 325.10626Q20.425 325.6375 20.8625 325.9969Q21.315624 326.35626 22.378124 326.65314Q23.440624 326.95 24.034374 327.3094Q24.64375 327.66876 24.925 328.15314Q25.221874 328.6375 25.221874 329.27814Q25.221874 330.325 24.409374 330.95Q23.596874 331.575 22.253124 331.575Q21.3625 331.575 20.596874 331.23126Q19.846874 330.8875 19.425 330.3094Q19.01875 329.71564 19.01875 328.98126L20.14375 328.98126Q20.14375 329.7469 20.721874 330.2Q21.3 330.65314 22.253124 330.65314Q23.14375 330.65314 23.6125 330.29376Q24.08125 329.91876 24.08125 329.29376Q24.08125 328.66876 23.64375 328.325Q23.20625 327.98126 22.05 327.65314ZM28.909374 330.6844Q29.4875 330.6844 29.925 330.34064Q30.3625 329.98126 30.409374 329.45L31.440624 329.45Q31.409374 329.9969 31.05 330.4969Q30.70625 330.98126 30.128124 331.27814Q29.565624 331.575 28.909374 331.575Q27.6125 331.575 26.846874 330.71564Q26.096874 329.84064 26.096874 328.34064L26.096874 328.15314Q26.096874 327.23126 26.425 326.5125Q26.76875 325.79376 27.39375 325.40314Q28.034374 324.9969 28.909374 324.9969Q29.971874 324.9969 30.675 325.6375Q31.39375 326.2625 31.440624 327.29376L30.409374 327.29376Q30.3625 326.66876 29.940624 326.27814Q29.51875 325.8875 28.909374 325.8875Q28.08125 325.8875 27.628124 326.48126Q27.175 327.075 27.175 328.2L27.175 328.40314Q27.175 329.4969 27.628124 330.09064Q28.08125 330.6844 28.909374 330.6844ZM35.440624 326.075Q35.190624 326.04376 34.909374 326.04376Q33.83125 326.04376 33.45625 326.95L33.45625 331.45L32.378124 331.45L32.378124 325.10626L33.425 325.10626L33.440624 325.84064Q33.971874 324.9969 34.95625 324.9969Q35.26875 324.9969 35.440624 325.075L35.440624 326.075ZM39.003124 331.575Q37.70625 331.575 36.89375 330.73126Q36.096874 329.8719 36.096874 328.45L36.096874 328.2625Q36.096874 327.3094 36.45625 326.575Q36.815624 325.825 37.45625 325.41876Q38.1125 324.9969 38.8625 324.9969Q40.096874 324.9969 40.784374 325.8094Q41.471874 326.6219 41.471874 328.1375L41.471874 328.59064L37.175 328.59064Q37.20625 329.52814 37.721874 330.10626Q38.253124 330.6844 39.065624 330.6844Q39.628124 330.6844 40.01875 330.45Q40.425 330.21564 40.7375 329.825L41.39375 330.34064Q40.596874 331.575 39.003124 331.575ZM38.8625 325.8875Q38.20625 325.8875 37.753124 326.3719Q37.315624 326.84064 37.221874 327.7L40.39375 327.7L40.39375 327.6219Q40.346874 326.79376 39.940624 326.34064Q39.55 325.8875 38.8625 325.8875ZM47.9875 329.95L49.20625 325.10626L50.284374 325.10626L48.440624 331.45L47.565624 331.45L46.01875 326.6375L44.51875 331.45L43.64375 331.45L41.8 325.10626L42.878124 325.10626L44.128124 329.85626L45.6125 325.10626L46.471874 325.10626L47.9875 329.95ZM55.065624 329.7625Q55.065624 329.325 54.721874 329.09064Q54.39375 328.84064 53.565624 328.66876Q52.753124 328.4969 52.26875 328.2469Q51.784374 327.9969 51.55 327.66876Q51.33125 327.325 51.33125 326.85626Q51.33125 326.075 51.9875 325.54376Q52.64375 324.9969 53.675 324.9969Q54.753124 324.9969 55.409374 325.5594Q56.08125 326.10626 56.08125 326.96564L55.003124 326.96564Q55.003124 326.52814 54.6125 326.21564Q54.2375 325.8875 53.675 325.8875Q53.08125 325.8875 52.7375 326.15314Q52.409374 326.40314 52.409374 326.8094Q52.409374 327.2 52.721874 327.40314Q53.034374 327.60626 53.846874 327.79376Q54.659374 327.96564 55.159374 328.21564Q55.659374 328.46564 55.89375 328.825Q56.14375 329.1844 56.14375 329.6844Q56.14375 330.54376 55.45625 331.0594Q54.784374 331.575 53.70625 331.575Q52.940624 331.575 52.346874 331.3094Q51.76875 331.02814 51.440624 330.54376Q51.1125 330.0594 51.1125 329.4969L52.190624 329.4969Q52.221874 330.04376 52.628124 330.3719Q53.034374 330.6844 53.70625 330.6844Q54.315624 330.6844 54.690624 330.4344Q55.065624 330.1844 55.065624 329.7625ZM57.33125 333.15314L56.721874 332.73126Q57.26875 331.96564 57.3 331.1375L57.3 330.16876L58.3625 330.16876L58.3625 331.0125Q58.3625 331.60626 58.065624 332.2Q57.76875 332.79376 57.33125 333.15314ZM63.39375 325.10626L63.425 325.90314Q64.15938 324.9969 65.33125 324.9969Q67.34688 324.9969 67.3625 327.2625L67.3625 331.45L66.26875 331.45L66.26875 327.2469Q66.26875 326.575 65.95625 326.2469Q65.65938 325.91876 65.00313 325.91876Q64.47188 325.91876 64.06563 326.2Q63.675 326.48126 63.45625 326.9344L63.45625 331.45L62.378124 331.45L62.378124 325.10626L63.39375 325.10626ZM73.28438 330.825Q72.65938 331.575 71.425 331.575Q70.40938 331.575 69.87813 330.98126Q69.34688 330.3875 69.34688 329.23126L69.34688 325.10626L70.425 325.10626L70.425 329.2Q70.425 330.65314 71.59688 330.65314Q72.84688 330.65314 73.25313 329.71564L73.25313 325.10626L74.34688 325.10626L74.34688 331.45L73.31563 331.45L73.28438 330.825ZM77.84688 323.575L77.84688 325.10626L79.01875 325.10626L79.01875 325.95L77.84688 325.95L77.84688 329.8719Q77.84688 330.2625 78.00313 330.45Q78.15938 330.6375 78.53438 330.6375Q78.72188 330.6375 79.05 330.575L79.05 331.45Q78.62813 331.575 78.22188 331.575Q77.50313 331.575 77.12813 331.1375Q76.75313 330.6844 76.75313 329.8719L76.75313 325.95L75.59688 325.95L75.59688 325.10626L76.75313 325.10626L76.75313 323.575L77.84688 323.575ZM84.06563 329.7625Q84.06563 329.325 83.72188 329.09064Q83.39375 328.84064 82.56563 328.66876Q81.75313 328.4969 81.26875 328.2469Q80.78438 327.9969 80.55 327.66876Q80.33125 327.325 80.33125 326.85626Q80.33125 326.075 80.9875 325.54376Q81.64375 324.9969 82.675 324.9969Q83.75313 324.9969 84.40938 325.5594Q85.08125 326.10626 85.08125 326.96564L84.00313 326.96564Q84.00313 326.52814 83.6125 326.21564Q83.2375 325.8875 82.675 325.8875Q82.08125 325.8875 81.7375 326.15314Q81.40938 326.40314 81.40938 326.8094Q81.40938 327.2 81.72188 327.40314Q82.03438 327.60626 82.84688 327.79376Q83.65938 327.96564 84.15938 328.21564Q84.65938 328.46564 84.89375 328.825Q85.14375 329.1844 85.14375 329.6844Q85.14375 330.54376 84.45625 331.0594Q83.78438 331.575 82.70625 331.575Q81.94063 331.575 81.34688 331.3094Q80.76875 331.02814 80.44063 330.54376Q80.1125 330.0594 80.1125 329.4969L81.19063 329.4969Q81.22188 330.04376 81.62813 330.3719Q82.03438 330.6844 82.70625 330.6844Q83.31563 330.6844 83.69063 330.4344Q84.06563 330.1844 84.06563 329.7625ZM86.33125 333.15314L85.72188 332.73126Q86.26875 331.96564 86.3 331.1375L86.3 330.16876L87.3625 330.16876L87.3625 331.0125Q87.3625 331.60626 87.06563 332.2Q86.76875 332.79376 86.33125 333.15314Z" fill-rule="nonzero"/><path fill="#9e9e9e" d="M23.409374 345.7Q23.08125 346.10626 22.596874 346.35626Q22.128124 346.59064 21.565624 346.59064Q20.83125 346.59064 20.284374 346.23126Q19.7375 345.8719 19.440624 345.21564Q19.14375 344.54376 19.14375 343.7469Q19.14375 342.90314 19.45625 342.21564Q19.784374 341.52814 20.378124 341.16876Q20.9875 340.79376 21.784374 340.79376Q23.05 340.79376 23.76875 341.7469Q24.503124 342.7 24.503124 344.325L24.503124 344.6375Q24.503124 347.1375 23.51875 348.27814Q22.534374 349.41876 20.55 349.45L20.33125 349.45L20.33125 348.54376L20.565624 348.54376Q21.909374 348.5125 22.628124 347.84064Q23.346874 347.16876 23.409374 345.7ZM21.7375 345.7Q22.284374 345.7 22.7375 345.3719Q23.20625 345.02814 23.425 344.54376L23.425 344.10626Q23.425 343.04376 22.95625 342.3719Q22.4875 341.7 21.784374 341.7Q21.065624 341.7 20.628124 342.2469Q20.20625 342.79376 20.20625 343.7Q20.20625 344.575 20.6125 345.1375Q21.034374 345.7 21.7375 345.7ZM31.6125 345.8094Q31.6125 347.71564 30.95625 348.65314Q30.315624 349.575 28.925 349.575Q27.565624 349.575 26.909374 348.66876Q26.253124 347.7625 26.221874 345.95L26.221874 344.5125Q26.221874 342.6219 26.8625 341.71564Q27.51875 340.79376 28.909374 340.79376Q30.284374 340.79376 30.940624 341.6844Q31.596874 342.5594 31.6125 344.40314L31.6125 345.8094ZM30.51875 344.325Q30.51875 342.95 30.128124 342.325Q29.753124 341.6844 28.909374 341.6844Q28.08125 341.6844 27.690624 342.325Q27.315624 342.95 27.315624 344.2469L27.315624 345.98126Q27.315624 347.35626 27.70625 348.02814Q28.1125 348.6844 28.925 348.6844Q29.721874 348.6844 30.1125 348.0594Q30.503124 347.4344 30.51875 346.10626L30.51875 344.325ZM33.33125 351.15314L32.721874 350.73126Q33.26875 349.96564 33.3 349.1375L33.3 348.16876L34.3625 348.16876L34.3625 349.0125Q34.3625 349.60626 34.065624 350.2Q33.76875 350.79376 33.33125 351.15314ZM39.83125 346.59064L41.01875 346.59064L41.01875 347.46564L39.83125 347.46564L39.83125 349.45L38.753124 349.45L38.753124 347.46564L34.8625 347.46564L34.8625 346.825L38.675 340.91876L39.83125 340.91876L39.83125 346.59064ZM36.096874 346.59064L38.753124 346.59064L38.753124 342.40314L38.6125 342.6375L36.096874 346.59064ZM42.159374 342.5594Q42.159374 341.79376 42.64375 341.29376Q43.14375 340.79376 43.909374 340.79376Q44.690624 340.79376 45.175 341.29376Q45.659374 341.79376 45.659374 342.59064L45.659374 343.0125Q45.659374 343.77814 45.159374 344.27814Q44.675 344.7625 43.925 344.7625Q43.159374 344.7625 42.659374 344.27814Q42.159374 343.77814 42.159374 342.96564L42.159374 342.5594ZM42.971874 343.0125Q42.971874 343.46564 43.221874 343.7625Q43.4875 344.0594 43.925 344.0594Q44.346874 344.0594 44.596874 343.77814Q44.846874 343.48126 44.846874 342.98126L44.846874 342.5594Q44.846874 342.10626 44.596874 341.8094Q44.346874 341.4969 43.909374 341.4969Q43.471874 341.4969 43.221874 341.8094Q42.971874 342.10626 42.971874 342.575L42.971874 343.0125ZM46.315624 347.35626Q46.315624 346.59064 46.8 346.10626Q47.3 345.60626 48.065624 345.60626Q48.83125 345.60626 49.315624 346.10626Q49.815624 346.59064 49.815624 347.40314L49.815624 347.8094Q49.815624 348.575 49.33125 349.075Q48.846874 349.575 48.08125 349.575Q47.315624 349.575 46.815624 349.09064Q46.315624 348.59064 46.315624 347.77814L46.315624 347.35626ZM47.128124 347.8094Q47.128124 348.27814 47.378124 348.575Q47.64375 348.8719 48.08125 348.8719Q48.503124 348.8719 48.753124 348.59064Q49.003124 348.29376 49.003124 347.79376L49.003124 347.35626Q49.003124 346.8875 48.7375 346.60626Q48.4875 346.3094 48.065624 346.3094Q47.64375 346.3094 47.378124 346.60626Q47.128124 346.8875 47.128124 347.3875L47.128124 347.8094ZM44.175 348.8094L43.55 348.41876L47.721874 341.7469L48.33125 342.1375L44.175 348.8094Z" fill-rule="nonzero"/><path stroke="#757575" stroke-width="1.0" stroke-linecap="butt" d="M18.55 335.95L107.23333 335.95L233.80809 342.1713" fill-rule="nonzero"/><path fill="#9e9e9e" d="M235.80809 342.1713C235.80809 341.0667 234.91266 340.1713 233.80809 340.1713C232.70352 340.1713 231.80809 341.0667 231.80809 342.1713C231.80809 343.27585 232.70352 344.1713 233.80809 344.1713C234.91266 344.1713 235.80809 343.27585 235.80809 342.1713" fill-rule="nonzero"/><path fill="#757575" d="M488.7469 65.791664Q488.3094 66.416664 487.52814 66.729164Q486.7469 67.041664 485.71564 67.041664Q484.6844 67.041664 483.8719 66.55729Q483.0594 66.05729 482.6219 65.15104Q482.1844 64.24479 482.16876 63.05729L482.16876 62.322914Q482.16876 60.385414 483.0594 59.322914Q483.96564 58.260414 485.59064 58.260414Q486.9344 58.260414 487.7469 58.947914Q488.5594 59.635414 488.7469 60.885414L487.6219 60.885414Q487.29376 59.197914 485.60626 59.197914Q484.46564 59.197914 483.8875 59.99479Q483.3094 60.77604 483.29376 62.291664L483.29376 62.979164Q483.29376 64.416664 483.95 65.27604Q484.60626 66.11979 485.73126 66.11979Q486.35626 66.11979 486.825 65.979164Q487.3094 65.83854 487.6219 65.49479L487.6219 63.58854L485.65314 63.58854L485.65314 62.666664L488.7469 62.666664L488.7469 65.791664ZM491.45 66.916664L490.3719 66.916664L490.3719 57.916664L491.45 57.916664L491.45 66.916664ZM497.1844 66.291664Q496.5594 67.041664 495.325 67.041664Q494.3094 67.041664 493.77814 66.447914Q493.2469 65.854164 493.2469 64.697914L493.2469 60.572914L494.325 60.572914L494.325 64.666664Q494.325 66.11979 495.4969 66.11979Q496.7469 66.11979 497.15314 65.18229L497.15314 60.572914L498.2469 60.572914L498.2469 66.916664L497.21564 66.916664L497.1844 66.291664ZM502.90314 67.041664Q501.60626 67.041664 500.79376 66.197914Q499.9969 65.33854 499.9969 63.916664L499.9969 63.729164Q499.9969 62.77604 500.35626 62.041664Q500.71564 61.291664 501.35626 60.885414Q502.0125 60.46354 502.7625 60.46354Q503.9969 60.46354 504.6844 61.27604Q505.3719 62.08854 505.3719 63.604164L505.3719 64.05729L501.075 64.05729Q501.10626 64.99479 501.6219 65.572914Q502.15314 66.15104 502.96564 66.15104Q503.52814 66.15104 503.91876 65.916664Q504.325 65.68229 504.6375 65.291664L505.29376 65.80729Q504.4969 67.041664 502.90314 67.041664ZM502.7625 61.354164Q502.10626 61.354164 501.65314 61.83854Q501.21564 62.30729 501.1219 63.166664L504.29376 63.166664L504.29376 63.08854Q504.2469 62.260414 503.84064 61.80729Q503.45 61.354164 502.7625 61.354164Z" fill-rule="nonzero"/><path fill="#9e9e9e" d="M485.73126 82.05729L486.91876 82.05729L486.91876 82.93229L485.73126 82.93229L485.73126 84.916664L484.65314 84.916664L484.65314 82.93229L480.7625 82.93229L480.7625 82.291664L484.575 76.385414L485.73126 76.385414L485.73126 82.05729ZM481.9969 82.05729L484.65314 82.05729L484.65314 77.86979L484.5125 78.104164L481.9969 82.05729ZM488.23126 86.61979L487.6219 86.197914Q488.16876 85.43229 488.2 84.604164L488.2 83.635414L489.2625 83.635414L489.2625 84.479164Q489.2625 85.072914 488.96564 85.666664Q488.66876 86.260414 488.23126 86.61979ZM493.71564 84.916664L492.6375 84.916664L492.6375 77.697914L490.45 78.49479L490.45 77.510414L493.5594 76.33854L493.71564 76.33854L493.71564 84.916664ZM497.0594 78.02604Q497.0594 77.260414 497.54376 76.760414Q498.04376 76.260414 498.8094 76.260414Q499.59064 76.260414 500.075 76.760414Q500.5594 77.260414 500.5594 78.05729L500.5594 78.479164Q500.5594 79.24479 500.0594 79.74479Q499.575 80.229164 498.825 80.229164Q498.0594 80.229164 497.5594 79.74479Q497.0594 79.24479 497.0594 78.43229L497.0594 78.02604ZM497.8719 78.479164Q497.8719 78.93229 498.1219 79.229164Q498.3875 79.52604 498.825 79.52604Q499.2469 79.52604 499.4969 79.24479Q499.7469 78.947914 499.7469 78.447914L499.7469 78.02604Q499.7469 77.572914 499.4969 77.27604Q499.2469 76.96354 498.8094 76.96354Q498.3719 76.96354 498.1219 77.27604Q497.8719 77.572914 497.8719 78.041664L497.8719 78.479164ZM501.21564 82.822914Q501.21564 82.05729 501.7 81.572914Q502.2 81.072914 502.96564 81.072914Q503.73126 81.072914 504.21564 81.572914Q504.71564 82.05729 504.71564 82.86979L504.71564 83.27604Q504.71564 84.041664 504.23126 84.541664Q503.7469 85.041664 502.98126 85.041664Q502.21564 85.041664 501.71564 84.55729Q501.21564 84.05729 501.21564 83.24479L501.21564 82.822914ZM502.02814 83.27604Q502.02814 83.74479 502.27814 84.041664Q502.54376 84.33854 502.98126 84.33854Q503.40314 84.33854 503.65314 84.05729Q503.90314 83.760414 503.90314 83.260414L503.90314 82.822914Q503.90314 82.354164 503.6375 82.072914Q503.3875 81.77604 502.96564 81.77604Q502.54376 81.77604 502.27814 82.072914Q502.02814 82.354164 502.02814 82.854164L502.02814 83.27604ZM499.075 84.27604L498.45 83.885414L502.6219 77.21354L503.23126 77.604164L499.075 84.27604Z" fill-rule="nonzero"/><path stroke="#757575" stroke-width="1.0" stroke-linecap="butt" d="M505.45 71.416664L416.76666 71.416664L279.9925 63.50499" fill-rule="nonzero"/><path fill="#9e9e9e" d="M281.9925 63.50499C281.9925 62.40042 281.09708 61.50499 279.9925 61.50499C278.88794 61.50499 277.9925 62.40042 277.9925 63.50499C277.9925 64.60956 278.88794 65.50499 279.9925 65.50499C281.09708 65.50499 281.9925 64.60956 281.9925 63.50499" fill-rule="nonzero"/><path fill="#757575" d="M460.8875 91.385414L463.6844 98.33854L466.46564 91.385414L467.9344 91.385414L467.9344 99.916664L466.8094 99.916664L466.8094 96.58854L466.91876 93.010414L464.10626 99.916664L463.2469 99.916664L460.45 93.02604L460.5594 96.58854L460.5594 99.916664L459.4344 99.916664L459.4344 91.385414L460.8875 91.385414ZM473.1844 99.916664Q473.09064 99.729164 473.02814 99.24479Q472.27814 100.041664 471.23126 100.041664Q470.29376 100.041664 469.6844 99.510414Q469.09064 98.979164 469.09064 98.15104Q469.09064 97.166664 469.84064 96.61979Q470.59064 96.072914 471.96564 96.072914L473.0125 96.072914L473.0125 95.572914Q473.0125 95.010414 472.66876 94.68229Q472.34064 94.33854 471.66876 94.33854Q471.09064 94.33854 470.7 94.635414Q470.3094 94.916664 470.3094 95.33854L469.21564 95.33854Q469.21564 94.854164 469.54376 94.416664Q469.8875 93.979164 470.46564 93.729164Q471.04376 93.46354 471.73126 93.46354Q472.84064 93.46354 473.45 94.010414Q474.075 94.55729 474.10626 95.510414L474.10626 98.43229Q474.10626 99.30729 474.325 99.822914L474.325 99.916664L473.1844 99.916664ZM471.3875 99.08854Q471.90314 99.08854 472.35626 98.822914Q472.8094 98.55729 473.0125 98.135414L473.0125 96.83854L472.16876 96.83854Q470.16876 96.83854 470.16876 98.010414Q470.16876 98.510414 470.5125 98.80729Q470.85626 99.08854 471.3875 99.08854ZM476.0125 96.697914Q476.0125 95.21354 476.7 94.33854Q477.3875 93.46354 478.5125 93.46354Q479.66876 93.46354 480.325 94.27604L480.3719 93.572914L481.3719 93.572914L481.3719 99.760414Q481.3719 100.99479 480.6375 101.697914Q479.90314 102.416664 478.6844 102.416664Q477.9969 102.416664 477.34064 102.11979Q476.6844 101.822914 476.34064 101.322914L476.90314 100.666664Q477.59064 101.52604 478.60626 101.52604Q479.3875 101.52604 479.825 101.072914Q480.27814 100.635414 480.27814 99.822914L480.27814 99.27604Q479.6219 100.041664 478.4969 100.041664Q477.3875 100.041664 476.7 99.15104Q476.0125 98.24479 476.0125 96.697914ZM477.10626 96.822914Q477.10626 97.885414 477.54376 98.510414Q477.98126 99.11979 478.77814 99.11979Q479.79376 99.11979 480.27814 98.18229L480.27814 95.291664Q479.77814 94.385414 478.77814 94.385414Q477.9969 94.385414 477.54376 94.99479Q477.10626 95.604164 477.10626 96.822914ZM484.29376 93.572914L484.325 94.36979Q485.0594 93.46354 486.23126 93.46354Q488.2469 93.46354 488.2625 95.729164L488.2625 99.916664L487.16876 99.916664L487.16876 95.71354Q487.16876 95.041664 486.85626 94.71354Q486.5594 94.385414 485.90314 94.385414Q485.3719 94.385414 484.96564 94.666664Q484.575 94.947914 484.35626 95.40104L484.35626 99.916664L483.27814 99.916664L483.27814 93.572914L484.29376 93.572914ZM492.90314 100.041664Q491.60626 100.041664 490.79376 99.197914Q489.9969 98.33854 489.9969 96.916664L489.9969 96.729164Q489.9969 95.77604 490.35626 95.041664Q490.71564 94.291664 491.35626 93.885414Q492.0125 93.46354 492.7625 93.46354Q493.9969 93.46354 494.6844 94.27604Q495.3719 95.08854 495.3719 96.604164L495.3719 97.05729L491.075 97.05729Q491.10626 97.99479 491.6219 98.572914Q492.15314 99.15104 492.96564 99.15104Q493.52814 99.15104 493.91876 98.916664Q494.325 98.68229 494.6375 98.291664L495.29376 98.80729Q494.4969 100.041664 492.90314 100.041664ZM492.7625 94.354164Q492.10626 94.354164 491.65314 94.83854Q491.21564 95.30729 491.1219 96.166664L494.29376 96.166664L494.29376 96.08854Q494.2469 95.260414 493.84064 94.80729Q493.45 94.354164 492.7625 94.354164ZM497.7469 92.041664L497.7469 93.572914L498.91876 93.572914L498.91876 94.416664L497.7469 94.416664L497.7469 98.33854Q497.7469 98.729164 497.90314 98.916664Q498.0594 99.104164 498.4344 99.104164Q498.6219 99.104164 498.95 99.041664L498.95 99.916664Q498.52814 100.041664 498.1219 100.041664Q497.40314 100.041664 497.02814 99.604164Q496.65314 99.15104 496.65314 98.33854L496.65314 94.416664L495.4969 94.416664L495.4969 93.572914L496.65314 93.572914L496.65314 92.041664L497.7469 92.041664ZM503.96564 98.229164Q503.96564 97.791664 503.6219 97.55729Q503.29376 97.30729 502.46564 97.135414Q501.65314 96.96354 501.16876 96.71354Q500.6844 96.46354 500.45 96.135414Q500.23126 95.791664 500.23126 95.322914Q500.23126 94.541664 500.8875 94.010414Q501.54376 93.46354 502.575 93.46354Q503.65314 93.46354 504.3094 94.02604Q504.98126 94.572914 504.98126 95.43229L503.90314 95.43229Q503.90314 94.99479 503.5125 94.68229Q503.1375 94.354164 502.575 94.354164Q501.98126 94.354164 501.6375 94.61979Q501.3094 94.86979 501.3094 95.27604Q501.3094 95.666664 501.6219 95.86979Q501.9344 96.072914 502.7469 96.260414Q503.5594 96.43229 504.0594 96.68229Q504.5594 96.93229 504.79376 97.291664Q505.04376 97.65104 505.04376 98.15104Q505.04376 99.010414 504.35626 99.52604Q503.6844 100.041664 502.60626 100.041664Q501.84064 100.041664 501.2469 99.77604Q500.66876 99.49479 500.34064 99.010414Q500.0125 98.52604 500.0125 97.96354L501.09064 97.96354Q501.1219 98.510414 501.52814 98.83854Q501.9344 99.15104 502.60626 99.15104Q503.21564 99.15104 503.59064 98.90104Q503.96564 98.65104 503.96564 98.229164Z" fill-rule="nonzero"/><path fill="#9e9e9e" d="M482.73126 113.11979L483.54376 113.11979Q484.325 113.104164 484.7625 112.71354Q485.2 112.322914 485.2 111.65104Q485.2 110.15104 483.7 110.15104Q482.9969 110.15104 482.575 110.55729Q482.16876 110.96354 482.16876 111.61979L481.075 111.61979Q481.075 110.604164 481.8094 109.93229Q482.5594 109.260414 483.7 109.260414Q484.90314 109.260414 485.59064 109.90104Q486.27814 110.541664 486.27814 111.68229Q486.27814 112.24479 485.91876 112.760414Q485.5594 113.27604 484.9344 113.541664Q485.6375 113.760414 486.0125 114.27604Q486.40314 114.791664 486.40314 115.541664Q486.40314 116.68229 485.65314 117.36979Q484.90314 118.041664 483.7 118.041664Q482.5125 118.041664 481.7469 117.385414Q480.9969 116.729164 480.9969 115.666664L482.09064 115.666664Q482.09064 116.33854 482.52814 116.74479Q482.96564 117.15104 483.71564 117.15104Q484.4969 117.15104 484.90314 116.74479Q485.325 116.322914 485.325 115.55729Q485.325 114.822914 484.8719 114.43229Q484.41876 114.02604 483.54376 114.010414L482.73126 114.010414L482.73126 113.11979ZM488.23126 119.61979L487.6219 119.197914Q488.16876 118.43229 488.2 117.604164L488.2 116.635414L489.2625 116.635414L489.2625 117.479164Q489.2625 118.072914 488.96564 118.666664Q488.66876 119.260414 488.23126 119.61979ZM494.3094 114.166664Q493.98126 114.572914 493.4969 114.822914Q493.02814 115.05729 492.46564 115.05729Q491.73126 115.05729 491.1844 114.697914Q490.6375 114.33854 490.34064 113.68229Q490.04376 113.010414 490.04376 112.21354Q490.04376 111.36979 490.35626 110.68229Q490.6844 109.99479 491.27814 109.635414Q491.8875 109.260414 492.6844 109.260414Q493.95 109.260414 494.66876 110.21354Q495.40314 111.166664 495.40314 112.791664L495.40314 113.104164Q495.40314 115.604164 494.41876 116.74479Q493.4344 117.885414 491.45 117.916664L491.23126 117.916664L491.23126 117.010414L491.46564 117.010414Q492.8094 116.979164 493.52814 116.30729Q494.2469 115.635414 494.3094 114.166664ZM492.6375 114.166664Q493.1844 114.166664 493.6375 113.83854Q494.10626 113.49479 494.325 113.010414L494.325 112.572914Q494.325 111.510414 493.85626 110.83854Q493.3875 110.166664 492.6844 110.166664Q491.96564 110.166664 491.52814 110.71354Q491.10626 111.260414 491.10626 112.166664Q491.10626 113.041664 491.5125 113.604164Q491.9344 114.166664 492.6375 114.166664ZM497.0594 111.02604Q497.0594 110.260414 497.54376 109.760414Q498.04376 109.260414 498.8094 109.260414Q499.59064 109.260414 500.075 109.760414Q500.5594 110.260414 500.5594 111.05729L500.5594 111.479164Q500.5594 112.24479 500.0594 112.74479Q499.575 113.229164 498.825 113.229164Q498.0594 113.229164 497.5594 112.74479Q497.0594 112.24479 497.0594 111.43229L497.0594 111.02604ZM497.8719 111.479164Q497.8719 111.93229 498.1219 112.229164Q498.3875 112.52604 498.825 112.52604Q499.2469 112.52604 499.4969 112.24479Q499.7469 111.947914 499.7469 111.447914L499.7469 111.02604Q499.7469 110.572914 499.4969 110.27604Q499.2469 109.96354 498.8094 109.96354Q498.3719 109.96354 498.1219 110.27604Q497.8719 110.572914 497.8719 111.041664L497.8719 111.479164ZM501.21564 115.822914Q501.21564 115.05729 501.7 114.572914Q502.2 114.072914 502.96564 114.072914Q503.73126 114.072914 504.21564 114.572914Q504.71564 115.05729 504.71564 115.86979L504.71564 116.27604Q504.71564 117.041664 504.23126 117.541664Q503.7469 118.041664 502.98126 118.041664Q502.21564 118.041664 501.71564 117.55729Q501.21564 117.05729 501.21564 116.24479L501.21564 115.822914ZM502.02814 116.27604Q502.02814 116.74479 502.27814 117.041664Q502.54376 117.33854 502.98126 117.33854Q503.40314 117.33854 503.65314 117.05729Q503.90314 116.760414 503.90314 116.260414L503.90314 115.822914Q503.90314 115.354164 503.6375 115.072914Q503.3875 114.77604 502.96564 114.77604Q502.54376 114.77604 502.27814 115.072914Q502.02814 115.354164 502.02814 115.854164L502.02814 116.27604ZM499.075 117.27604L498.45 116.885414L502.6219 110.21354L503.23126 110.604164L499.075 117.27604Z" fill-rule="nonzero"/><path stroke="#757575" stroke-width="1.0" stroke-linecap="butt" d="M505.45 104.416664L416.76666 104.416664L314.1982 72.34772" fill-rule="nonzero"/><path fill="#9e9e9e" d="M316.1982 72.34772C316.1982 71.24315 315.3028 70.34772 314.1982 70.34772C313.09366 70.34772 312.1982 71.24315 312.1982 72.34772C312.1982 73.452286 313.09366 74.34772 314.1982 74.34772C315.3028 74.34772 316.1982 73.452286 316.1982 72.34772" fill-rule="nonzero"/><path fill="#757575" d="M20.20625 37.55L20.20625 23.33125L24.221874 23.33125Q26.065624 23.33125 27.4875 24.159374Q28.925 24.971874 29.690624 26.4875Q30.471874 28.003124 30.4875 29.95625L30.4875 30.8625Q30.4875 32.878124 29.70625 34.39375Q28.925 35.909374 27.4875 36.721874Q26.05 37.534374 24.14375 37.55L20.20625 37.55ZM22.08125 24.878124L22.08125 36.01875L24.05 36.01875Q26.221874 36.01875 27.425 34.675Q28.628124 33.315624 28.628124 30.83125L28.628124 30.003124Q28.628124 27.58125 27.4875 26.2375Q26.346874 24.89375 24.26875 24.878124L22.08125 24.878124ZM34.878124 37.55L33.08125 37.55L33.08125 26.9875L34.878124 26.9875L34.878124 37.55ZM32.925 24.175Q32.925 23.7375 33.190624 23.440624Q33.471874 23.128124 33.9875 23.128124Q34.51875 23.128124 34.784374 23.440624Q35.065624 23.7375 35.065624 24.175Q35.065624 24.6125 34.784374 24.909374Q34.51875 25.20625 33.9875 25.20625Q33.471874 25.20625 33.190624 24.909374Q32.925 24.6125 32.925 24.175ZM44.065624 34.753124Q44.065624 34.01875 43.51875 33.6125Q42.971874 33.20625 41.596874 32.909374Q40.221874 32.6125 39.409374 32.20625Q38.6125 31.8 38.221874 31.2375Q37.846874 30.659374 37.846874 29.878124Q37.846874 28.58125 38.940624 27.690624Q40.034374 26.784374 41.753124 26.784374Q43.55 26.784374 44.659374 27.721874Q45.784374 28.64375 45.784374 30.08125L43.95625 30.08125Q43.95625 29.346874 43.33125 28.815624Q42.70625 28.26875 41.753124 28.26875Q40.753124 28.26875 40.190624 28.70625Q39.64375 29.128124 39.64375 29.83125Q39.64375 30.471874 40.159374 30.815624Q40.675 31.14375 42.034374 31.45625Q43.39375 31.753124 44.221874 32.175Q45.065624 32.58125 45.471874 33.175Q45.878124 33.76875 45.878124 34.6125Q45.878124 36.034374 44.7375 36.89375Q43.6125 37.753124 41.8 37.753124Q40.534374 37.753124 39.55 37.3Q38.58125 36.846874 38.01875 36.05Q37.471874 35.2375 37.471874 34.3L39.284374 34.3Q39.33125 35.20625 40.003124 35.7375Q40.690624 36.26875 41.8 36.26875Q42.83125 36.26875 43.440624 35.8625Q44.065624 35.440624 44.065624 34.753124ZM50.3625 24.425L50.3625 26.9875L52.346874 26.9875L52.346874 28.378124L50.3625 28.378124L50.3625 34.925Q50.3625 35.565624 50.628124 35.89375Q50.89375 36.20625 51.534374 36.20625Q51.846874 36.20625 52.39375 36.08125L52.39375 37.55Q51.675 37.753124 51.003124 37.753124Q49.8 37.753124 49.175 37.01875Q48.565624 36.284374 48.565624 34.925L48.565624 28.378124L46.64375 28.378124L46.64375 26.9875L48.565624 26.9875L48.565624 24.425L50.3625 24.425ZM60.01875 28.596874Q59.6125 28.534374 59.14375 28.534374Q57.3625 28.534374 56.721874 30.05L56.721874 37.55L54.925 37.55L54.925 26.9875L56.675 26.9875L56.70625 28.20625Q57.596874 26.784374 59.221874 26.784374Q59.753124 26.784374 60.01875 26.925L60.01875 28.596874ZM63.878124 37.55L62.08125 37.55L62.08125 26.9875L63.878124 26.9875L63.878124 37.55ZM61.925 24.175Q61.925 23.7375 62.190624 23.440624Q62.471874 23.128124 62.9875 23.128124Q63.51875 23.128124 63.784374 23.440624Q64.06563 23.7375 64.06563 24.175Q64.06563 24.6125 63.784374 24.909374Q63.51875 25.20625 62.9875 25.20625Q62.471874 25.20625 62.190624 24.909374Q61.925 24.6125 61.925 24.175ZM75.8625 32.378124Q75.8625 34.8 74.75313 36.284374Q73.64375 37.753124 71.76875 37.753124Q69.75313 37.753124 68.65938 36.33125L68.58125 37.55L66.925 37.55L66.925 22.55L68.72188 22.55L68.72188 28.14375Q69.81563 26.784374 71.7375 26.784374Q73.65938 26.784374 74.75313 28.2375Q75.8625 29.690624 75.8625 32.221874L75.8625 32.378124ZM74.05 32.175Q74.05 30.33125 73.33125 29.33125Q72.62813 28.315624 71.3 28.315624Q69.50313 28.315624 68.72188 29.9875L68.72188 34.55Q69.55 36.20625 71.31563 36.20625Q72.6125 36.20625 73.33125 35.20625Q74.05 34.20625 74.05 32.175ZM84.44063 36.503124Q83.39375 37.753124 81.34688 37.753124Q79.65938 37.753124 78.76875 36.76875Q77.89375 35.784374 77.87813 33.8625L77.87813 26.9875L79.69063 26.9875L79.69063 33.815624Q79.69063 36.20625 81.64375 36.20625Q83.70625 36.20625 84.39375 34.675L84.39375 26.9875L86.20625 26.9875L86.20625 37.55L84.4875 37.55L84.44063 36.503124ZM91.3625 24.425L91.3625 26.9875L93.34688 26.9875L93.34688 28.378124L91.3625 28.378124L91.3625 34.925Q91.3625 35.565624 91.62813 35.89375Q91.89375 36.20625 92.53438 36.20625Q92.84688 36.20625 93.39375 36.08125L93.39375 37.55Q92.675 37.753124 92.00313 37.753124Q90.8 37.753124 90.175 37.01875Q89.56563 36.284374 89.56563 34.925L89.56563 28.378124L87.64375 28.378124L87.64375 26.9875L89.56563 26.9875L89.56563 24.425L91.3625 24.425ZM97.87813 37.55L96.08125 37.55L96.08125 26.9875L97.87813 26.9875L97.87813 37.55ZM95.925 24.175Q95.925 23.7375 96.19063 23.440624Q96.47188 23.128124 96.9875 23.128124Q97.51875 23.128124 97.78438 23.440624Q98.06563 23.7375 98.06563 24.175Q98.06563 24.6125 97.78438 24.909374Q97.51875 25.20625 96.9875 25.20625Q96.47188 25.20625 96.19063 24.909374Q95.925 24.6125 95.925 24.175ZM100.44063 32.175Q100.44063 30.6125 101.05 29.378124Q101.65938 28.128124 102.7375 27.45625Q103.83125 26.784374 105.2375 26.784374Q107.39375 26.784374 108.72188 28.284374Q110.06563 29.76875 110.06563 32.253124L110.06563 32.378124Q110.06563 33.925 109.47188 35.159374Q108.87813 36.378124 107.76875 37.065624Q106.675 37.753124 105.25313 37.753124Q103.1125 37.753124 101.76875 36.253124Q100.44063 34.753124 100.44063 32.3L100.44063 32.175ZM102.25313 32.378124Q102.25313 34.14375 103.06563 35.20625Q103.89375 36.26875 105.25313 36.26875Q106.62813 36.26875 107.44063 35.190624Q108.25313 34.1125 108.25313 32.175Q108.25313 30.425 107.425 29.346874Q106.59688 28.26875 105.2375 28.26875Q103.89375 28.26875 103.06563 29.33125Q102.25313 30.39375 102.25313 32.378124ZM113.62813 26.9875L113.69063 28.315624Q114.89375 26.784374 116.84688 26.784374Q120.20625 26.784374 120.22188 30.565624L120.22188 37.55L118.425 37.55L118.425 30.55Q118.40938 29.409374 117.89375 28.8625Q117.39375 28.315624 116.3 28.315624Q115.425 28.315624 114.75313 28.784374Q114.09688 29.253124 113.72188 30.01875L113.72188 37.55L111.925 37.55L111.925 26.9875L113.62813 26.9875ZM129.87813 37.55L128.08125 37.55L128.08125 26.9875L129.87813 26.9875L129.87813 37.55ZM127.925 24.175Q127.925 23.7375 128.19063 23.440624Q128.47188 23.128124 128.9875 23.128124Q129.51875 23.128124 129.78438 23.440624Q130.06563 23.7375 130.06563 24.175Q130.06563 24.6125 129.78438 24.909374Q129.51875 25.20625 128.9875 25.20625Q128.47188 25.20625 128.19063 24.909374Q127.925 24.6125 127.925 24.175ZM134.62813 26.9875L134.69063 28.315624Q135.89375 26.784374 137.84688 26.784374Q141.20625 26.784374 141.22188 30.565624L141.22188 37.55L139.425 37.55L139.425 30.55Q139.40938 29.409374 138.89375 28.8625Q138.39375 28.315624 137.3 28.315624Q136.425 28.315624 135.75313 28.784374Q135.09688 29.253124 134.72188 30.01875L134.72188 37.55L132.925 37.55L132.925 26.9875L134.62813 26.9875ZM155.06563 34.753124Q155.06563 34.01875 154.51875 33.6125Q153.97188 33.20625 152.59688 32.909374Q151.22188 32.6125 150.40938 32.20625Q149.6125 31.8 149.22188 31.2375Q148.84688 30.659374 148.84688 29.878124Q148.84688 28.58125 149.94063 27.690624Q151.03438 26.784374 152.75313 26.784374Q154.55 26.784374 155.65938 27.721874Q156.78438 28.64375 156.78438 30.08125L154.95625 30.08125Q154.95625 29.346874 154.33125 28.815624Q153.70625 28.26875 152.75313 28.26875Q151.75313 28.26875 151.19063 28.70625Q150.64375 29.128124 150.64375 29.83125Q150.64375 30.471874 151.15938 30.815624Q151.675 31.14375 153.03438 31.45625Q154.39375 31.753124 155.22188 32.175Q156.06563 32.58125 156.47188 33.175Q156.87813 33.76875 156.87813 34.6125Q156.87813 36.034374 155.7375 36.89375Q154.6125 37.753124 152.8 37.753124Q151.53438 37.753124 150.55 37.3Q149.58125 36.846874 149.01875 36.05Q148.47188 35.2375 148.47188 34.3L150.28438 34.3Q150.33125 35.20625 151.00313 35.7375Q151.69063 36.26875 152.8 36.26875Q153.83125 36.26875 154.44063 35.8625Q155.06563 35.440624 155.06563 34.753124ZM163.3 37.753124Q161.15938 37.753124 159.8 36.346874Q158.45625 34.925 158.45625 32.565624L158.45625 32.221874Q158.45625 30.659374 159.05 29.425Q159.65938 28.190624 160.7375 27.4875Q161.81563 26.784374 163.08125 26.784374Q165.14375 26.784374 166.28438 28.14375Q167.425 29.503124 167.425 32.034374L167.425 32.784374L160.26875 32.784374Q160.3 34.346874 161.175 35.315624Q162.05 36.26875 163.39375 36.26875Q164.3625 36.26875 165.01875 35.878124Q165.69063 35.4875 166.19063 34.846874L167.28438 35.70625Q165.95625 37.753124 163.3 37.753124ZM163.08125 28.26875Q161.9875 28.26875 161.2375 29.065624Q160.50313 29.8625 160.33125 31.3L165.6125 31.3L165.6125 31.159374Q165.53438 29.784374 164.8625 29.034374Q164.20625 28.26875 163.08125 28.26875ZM171.87813 37.55L170.08125 37.55L170.08125 22.55L171.87813 22.55L171.87813 37.55ZM179.3 37.753124Q177.15938 37.753124 175.8 36.346874Q174.45625 34.925 174.45625 32.565624L174.45625 32.221874Q174.45625 30.659374 175.05 29.425Q175.65938 28.190624 176.7375 27.4875Q177.81563 26.784374 179.08125 26.784374Q181.14375 26.784374 182.28438 28.14375Q183.425 29.503124 183.425 32.034374L183.425 32.784374L176.26875 32.784374Q176.3 34.346874 177.175 35.315624Q178.05 36.26875 179.39375 36.26875Q180.3625 36.26875 181.01875 35.878124Q181.69063 35.4875 182.19063 34.846874L183.28438 35.70625Q181.95625 37.753124 179.3 37.753124ZM179.08125 28.26875Q177.9875 28.26875 177.2375 29.065624Q176.50313 29.8625 176.33125 31.3L181.6125 31.3L181.6125 31.159374Q181.53438 29.784374 180.8625 29.034374Q180.20625 28.26875 179.08125 28.26875ZM190.15938 36.26875Q191.12813 36.26875 191.84688 35.690624Q192.56563 35.096874 192.64375 34.221874L194.3625 34.221874Q194.3 35.128124 193.72188 35.95625Q193.15938 36.76875 192.19063 37.26875Q191.2375 37.753124 190.15938 37.753124Q188.00313 37.753124 186.72188 36.315624Q185.45625 34.8625 185.45625 32.3625L185.45625 32.065624Q185.45625 30.51875 186.01875 29.315624Q186.58125 28.1125 187.64375 27.45625Q188.70625 26.784374 190.14375 26.784374Q191.925 26.784374 193.09688 27.846874Q194.28438 28.909374 194.3625 30.6125L192.64375 30.6125Q192.56563 29.596874 191.8625 28.940624Q191.175 28.26875 190.14375 28.26875Q188.76875 28.26875 188.00313 29.26875Q187.25313 30.253124 187.25313 32.128124L187.25313 32.471874Q187.25313 34.3 188.00313 35.284374Q188.75313 36.26875 190.15938 36.26875ZM198.3625 24.425L198.3625 26.9875L200.34688 26.9875L200.34688 28.378124L198.3625 28.378124L198.3625 34.925Q198.3625 35.565624 198.62813 35.89375Q198.89375 36.20625 199.53438 36.20625Q199.84688 36.20625 200.39375 36.08125L200.39375 37.55Q199.675 37.753124 199.00313 37.753124Q197.8 37.753124 197.175 37.01875Q196.56563 36.284374 196.56563 34.925L196.56563 28.378124L194.64375 28.378124L194.64375 26.9875L196.56563 26.9875L196.56563 24.425L198.3625 24.425ZM207.3 37.753124Q205.15938 37.753124 203.8 36.346874Q202.45625 34.925 202.45625 32.565624L202.45625 32.221874Q202.45625 30.659374 203.05 29.425Q203.65938 28.190624 204.7375 27.4875Q205.81563 26.784374 207.08125 26.784374Q209.14375 26.784374 210.28438 28.14375Q211.425 29.503124 211.425 32.034374L211.425 32.784374L204.26875 32.784374Q204.3 34.346874 205.175 35.315624Q206.05 36.26875 207.39375 36.26875Q208.3625 36.26875 209.01875 35.878124Q209.69063 35.4875 210.19063 34.846874L211.28438 35.70625Q209.95625 37.753124 207.3 37.753124ZM207.08125 28.26875Q205.9875 28.26875 205.2375 29.065624Q204.50313 29.8625 204.33125 31.3L209.6125 31.3L209.6125 31.159374Q209.53438 29.784374 208.8625 29.034374Q208.20625 28.26875 207.08125 28.26875ZM213.47188 32.175Q213.47188 29.753124 214.62813 28.26875Q215.78438 26.784374 217.64375 26.784374Q219.50313 26.784374 220.58125 28.05L220.58125 22.55L222.39375 22.55L222.39375 37.55L220.7375 37.55L220.64375 36.409374Q219.56563 37.753124 217.62813 37.753124Q215.8 37.753124 214.62813 36.253124Q213.47188 34.7375 213.47188 32.315624L213.47188 32.175ZM215.28438 32.378124Q215.28438 34.175 216.01875 35.190624Q216.76875 36.20625 218.08125 36.20625Q219.8 36.20625 220.58125 34.675L220.58125 29.815624Q219.78438 28.315624 218.09688 28.315624Q216.76875 28.315624 216.01875 29.346874Q215.28438 30.378124 215.28438 32.378124ZM234.15938 36.26875Q235.12813 36.26875 235.84688 35.690624Q236.56563 35.096874 236.64375 34.221874L238.3625 34.221874Q238.3 35.128124 237.72188 35.95625Q237.15938 36.76875 236.19063 37.26875Q235.2375 37.753124 234.15938 37.753124Q232.00313 37.753124 230.72188 36.315624Q229.45625 34.8625 229.45625 32.3625L229.45625 32.065624Q229.45625 30.51875 230.01875 29.315624Q230.58125 28.1125 231.64375 27.45625Q232.70625 26.784374 234.14375 26.784374Q235.925 26.784374 237.09688 27.846874Q238.28438 28.909374 238.3625 30.6125L236.64375 30.6125Q236.56563 29.596874 235.8625 28.940624Q235.175 28.26875 234.14375 28.26875Q232.76875 28.26875 232.00313 29.26875Q231.25313 30.253124 231.25313 32.128124L231.25313 32.471874Q231.25313 34.3 232.00313 35.284374Q232.75313 36.26875 234.15938 36.26875ZM246.44063 37.55Q246.28438 37.2375 246.19063 36.440624Q244.925 37.753124 243.175 37.753124Q241.6125 37.753124 240.6125 36.8625Q239.6125 35.971874 239.6125 34.6125Q239.6125 32.971874 240.8625 32.065624Q242.12813 31.14375 244.39375 31.14375L246.15938 31.14375L246.15938 30.315624Q246.15938 29.3625 245.58125 28.8Q245.01875 28.2375 243.925 28.2375Q242.95625 28.2375 242.3 28.7375Q241.64375 29.221874 241.64375 29.909374L239.83125 29.909374Q239.83125 29.128124 240.39375 28.39375Q240.95625 27.64375 241.90938 27.221874Q242.87813 26.784374 244.03438 26.784374Q245.8625 26.784374 246.89375 27.70625Q247.925 28.6125 247.97188 30.221874L247.97188 35.08125Q247.97188 36.534374 248.33125 37.39375L248.33125 37.55L246.44063 37.55ZM243.44063 36.175Q244.3 36.175 245.05 35.7375Q245.81563 35.3 246.15938 34.596874L246.15938 32.425L244.7375 32.425Q241.425 32.425 241.425 34.3625Q241.425 35.221874 241.9875 35.70625Q242.55 36.175 243.44063 36.175ZM253.3625 24.425L253.3625 26.9875L255.34688 26.9875L255.34688 28.378124L253.3625 28.378124L253.3625 34.925Q253.3625 35.565624 253.62813 35.89375Q253.89375 36.20625 254.53438 36.20625Q254.84688 36.20625 255.39375 36.08125L255.39375 37.55Q254.675 37.753124 254.00313 37.753124Q252.8 37.753124 252.175 37.01875Q251.56563 36.284374 251.56563 34.925L251.56563 28.378124L249.64375 28.378124L249.64375 26.9875L251.56563 26.9875L251.56563 24.425L253.3625 24.425ZM262.3 37.753124Q260.15936 37.753124 258.8 36.346874Q257.45624 34.925 257.45624 32.565624L257.45624 32.221874Q257.45624 30.659374 258.05 29.425Q258.65936 28.190624 259.7375 27.4875Q260.8156 26.784374 262.08124 26.784374Q264.14374 26.784374 265.28436 28.14375Q266.425 29.503124 266.425 32.034374L266.425 32.784374L259.26874 32.784374Q259.3 34.346874 260.175 35.315624Q261.05 36.26875 262.39374 36.26875Q263.3625 36.26875 264.01874 35.878124Q264.6906 35.4875 265.1906 34.846874L266.28436 35.70625Q264.95624 37.753124 262.3 37.753124ZM262.08124 28.26875Q260.9875 28.26875 260.2375 29.065624Q259.5031 29.8625 259.33124 31.3L264.6125 31.3L264.6125 31.159374Q264.53436 29.784374 263.8625 29.034374Q263.20624 28.26875 262.08124 28.26875ZM268.4875 32.175Q268.4875 29.70625 269.6281 28.253124Q270.76874 26.784374 272.65936 26.784374Q274.59686 26.784374 275.675 28.159374L275.76874 26.9875L277.40936 26.9875L277.40936 37.3Q277.40936 39.346874 276.1906 40.51875Q274.9875 41.70625 272.925 41.70625Q271.78436 41.70625 270.6906 41.221874Q269.59686 40.7375 269.01874 39.878124L269.95624 38.8Q271.1281 40.2375 272.8 40.2375Q274.1281 40.2375 274.8625 39.4875Q275.59686 38.753124 275.59686 37.409374L275.59686 36.4875Q274.51874 37.753124 272.64374 37.753124Q270.78436 37.753124 269.6281 36.253124Q268.4875 34.753124 268.4875 32.175ZM270.3 32.378124Q270.3 34.175 271.03436 35.190624Q271.76874 36.20625 273.08124 36.20625Q274.8 36.20625 275.59686 34.659374L275.59686 29.83125Q274.76874 28.315624 273.1125 28.315624Q271.78436 28.315624 271.03436 29.346874Q270.3 30.378124 270.3 32.378124ZM279.4406 32.175Q279.4406 30.6125 280.05 29.378124Q280.65936 28.128124 281.7375 27.45625Q282.83124 26.784374 284.2375 26.784374Q286.39374 26.784374 287.72186 28.284374Q289.0656 29.76875 289.0656 32.253124L289.0656 32.378124Q289.0656 33.925 288.47186 35.159374Q287.8781 36.378124 286.76874 37.065624Q285.675 37.753124 284.2531 37.753124Q282.1125 37.753124 280.76874 36.253124Q279.4406 34.753124 279.4406 32.3L279.4406 32.175ZM281.2531 32.378124Q281.2531 34.14375 282.0656 35.20625Q282.89374 36.26875 284.2531 36.26875Q285.6281 36.26875 286.4406 35.190624Q287.2531 34.1125 287.2531 32.175Q287.2531 30.425 286.425 29.346874Q285.59686 28.26875 284.2375 28.26875Q282.89374 28.26875 282.0656 29.33125Q281.2531 30.39375 281.2531 32.378124ZM296.01874 28.596874Q295.6125 28.534374 295.14374 28.534374Q293.3625 28.534374 292.72186 30.05L292.72186 37.55L290.925 37.55L290.925 26.9875L292.675 26.9875L292.70624 28.20625Q293.59686 26.784374 295.22186 26.784374Q295.7531 26.784374 296.01874 26.925L296.01874 28.596874ZM301.3781 34.909374L303.83124 26.9875L305.76874 26.9875L301.51874 39.175Q300.53436 41.815624 298.39374 41.815624L298.05 41.784374L297.3781 41.659374L297.3781 40.190624L297.8625 40.2375Q298.78436 40.2375 299.28436 39.8625Q299.8 39.4875 300.1281 38.503124L300.53436 37.425L296.76874 26.9875L298.7375 26.9875L301.3781 34.909374Z" fill-rule="nonzero"/></svg>