<svg version="1.1" viewBox="0.0 0.0 524.0 371.0" fill="none" stroke="none" stroke-linecap="square" stroke-miterlimit="10" width="524" height="371" xmlns:xlink="http://www.w3.org/1999/xlink" xmlns="http://www.w3.org/2000/svg"><path fill="#ffffff" d="M0 0L524.0 0L524.0 371.0L0 371.0L0 0Z" fill-rule="nonzero"/><path fill="#ffffff" d="M0 0L524.0 0L524.0 371.0L0 371.0L0 0Z" fill-rule="nonzero"/><path fill="#db4437" d="M262.0 54.916668C336.92087 54.916668 400.15192 110.63116 409.58322 184.95604C419.01456 259.2809 371.703 329.0225 299.15662 347.73508L262.0 203.68333Z" fill-rule="nonzero"/><path fill="#ffffff" d="M361.87384 184.07187L361.87384 185.13437L361.63947 185.13437Q360.1551 185.16562 359.2801 186.00937Q358.4051 186.85312 358.26447 188.4Q359.06134 187.49374 360.42072 187.49374Q361.7176 187.49374 362.48322 188.41562Q363.26447 189.32187 363.26447 190.775Q363.26447 192.32187 362.42072 193.24374Q361.5926 194.16562 360.18634 194.16562Q358.76447 194.16562 357.87384 193.07187Q356.98322 191.9625 356.98322 190.24374L356.98322 189.75937Q356.98322 187.00937 358.1551 185.55624Q359.32697 184.10312 361.63947 184.07187L361.87384 184.07187ZM360.20197 188.55624Q359.56134 188.55624 359.01447 188.94687Q358.4676 189.32187 358.24884 189.91562L358.24884 190.38437Q358.24884 191.61874 358.79572 192.36874Q359.35822 193.11874 360.18634 193.11874Q361.04572 193.11874 361.5301 192.49374Q362.01447 191.85312 362.01447 190.8375Q362.01447 189.80624 361.51447 189.18124Q361.0301 188.55624 360.20197 188.55624ZM364.99884 196.00937L364.2801 195.50937Q364.92072 194.61874 364.95197 193.66562L364.95197 192.525L366.18634 192.525L366.18634 193.525Q366.18634 194.2125 365.8426 194.9Q365.49884 195.5875 364.99884 196.00937ZM374.42072 194.025L367.9051 194.025L367.9051 193.11874L371.3426 189.29062Q372.10822 188.41562 372.4051 187.88437Q372.70197 187.3375 372.70197 186.74374Q372.70197 185.97812 372.2176 185.47812Q371.74884 184.97812 370.9676 184.97812Q370.0301 184.97812 369.49884 185.50937Q368.98322 186.04062 368.98322 187.00937L367.7176 187.00937Q367.7176 185.63437 368.5926 184.79062Q369.48322 183.93124 370.9676 183.93124Q372.35822 183.93124 373.1551 184.66562Q373.9676 185.38437 373.9676 186.60312Q373.9676 188.07187 372.0926 190.10312L369.43634 192.99374L374.42072 192.99374L374.42072 194.025ZM381.24884 190.68124L382.62384 190.68124L382.62384 191.7125L381.24884 191.7125L381.24884 194.025L379.9676 194.025L379.9676 191.7125L375.43634 191.7125L375.43634 190.9625L379.88947 184.07187L381.24884 184.07187L381.24884 190.68124ZM376.87384 190.68124L379.9676 190.68124L379.9676 185.80624L379.82697 186.07187L376.87384 190.68124ZM388.74884 189.65Q388.35822 190.11874 387.79572 190.41562Q387.24884 190.69687 386.5926 190.69687Q385.73322 190.69687 385.0926 190.275Q384.45197 189.85312 384.10822 189.0875Q383.76447 188.30624 383.76447 187.38437Q383.76447 186.38437 384.13947 185.5875Q384.51447 184.775 385.2176 184.35312Q385.92072 183.93124 386.8426 183.93124Q388.32697 183.93124 389.17072 185.04062Q390.0301 186.15 390.0301 188.05624L390.0301 188.41562Q390.0301 191.32187 388.87384 192.66562Q387.73322 193.99374 385.4051 194.025L385.1551 194.025L385.1551 192.9625L385.43634 192.9625Q386.99884 192.93124 387.82697 192.15Q388.67072 191.35312 388.74884 189.65ZM386.79572 189.65Q387.43634 189.65 387.9676 189.25937Q388.51447 188.86874 388.76447 188.29062L388.76447 187.79062Q388.76447 186.54062 388.2176 185.775Q387.67072 184.99374 386.85822 184.99374Q386.01447 184.99374 385.49884 185.63437Q384.99884 186.25937 384.99884 187.30624Q384.99884 188.3375 385.48322 188.99374Q385.98322 189.65 386.79572 189.65Z" fill-rule="nonzero"/><path fill="#f4b400" d="M299.15662 347.73508C297.38055 348.1932 295.59616 348.61844 293.80438 349.01056L262.0 203.68333Z" fill-rule="nonzero"/><path fill="#0f9d58" d="M293.80438 349.01056C293.33405 349.1135 292.86322 349.21414 292.3919 349.3125L262.0 203.68333Z" fill-rule="nonzero"/><path fill="#ff6d00" d="M292.3919 349.3125C288.93527 350.03387 285.45404 350.63196 281.95483 351.1056L262.0 203.68333Z" fill-rule="nonzero"/><path fill="#46bdc6" d="M281.95483 351.1056C226.91667 358.55548 172.31177 334.72623 140.34496 289.30792C108.37814 243.88963 104.373344 184.44646 129.95909 135.15073C155.54483 85.854996 206.45993 54.916668 262.0 54.916668L262.0 203.68333Z" fill-rule="nonzero"/><path fill="#000000" d="M138.62534 206.55476L134.50034 215.80476L133.18784 215.80476L137.28159 206.88289L131.90659 206.88289L131.90659 205.85164L138.62534 205.85164L138.62534 206.55476ZM140.29721 217.78914L139.57846 217.28914Q140.21909 216.39851 140.25034 215.44539L140.25034 214.30476L141.48471 214.30476L141.48471 215.30476Q141.48471 215.99226 141.14096 216.67976Q140.79721 217.36726 140.29721 217.78914ZM149.43784 211.55476Q149.43784 213.77351 148.67221 214.86726Q147.92221 215.94539 146.31284 215.94539Q144.71909 215.94539 143.95346 214.89851Q143.18784 213.83601 143.15659 211.72664L143.15659 210.03914Q143.15659 207.85164 143.90659 206.78914Q144.67221 205.71101 146.29721 205.71101Q147.90659 205.71101 148.65659 206.74226Q149.42221 207.77351 149.43784 209.91414L149.43784 211.55476ZM148.17221 209.83601Q148.17221 208.22664 147.71909 207.49226Q147.28159 206.75789 146.29721 206.75789Q145.32846 206.75789 144.87534 207.49226Q144.43784 208.21101 144.42221 209.72664L144.42221 211.75789Q144.42221 213.36726 144.89096 214.14851Q145.35971 214.91414 146.31284 214.91414Q147.25034 214.91414 147.70346 214.19539Q148.15659 213.46101 148.17221 211.89851L148.17221 209.83601ZM157.23471 208.44539Q157.23471 209.19539 156.84409 209.77351Q156.45346 210.35164 155.78159 210.67976Q156.56284 211.02351 157.01596 211.66414Q157.46909 212.30476 157.46909 213.11726Q157.46909 214.41414 156.59409 215.17976Q155.73471 215.94539 154.31284 215.94539Q152.87534 215.94539 152.00034 215.17976Q151.14096 214.39851 151.14096 213.11726Q151.14096 212.30476 151.57846 211.66414Q152.01596 211.00789 152.79721 210.67976Q152.14096 210.35164 151.75034 209.77351Q151.37534 209.17976 151.37534 208.44539Q151.37534 207.19539 152.17221 206.46101Q152.98471 205.71101 154.31284 205.71101Q155.62534 205.71101 156.42221 206.46101Q157.23471 207.19539 157.23471 208.44539ZM156.20346 213.08601Q156.20346 212.25789 155.67221 211.74226Q155.14096 211.21101 154.28159 211.21101Q153.43784 211.21101 152.92221 211.72664Q152.40659 212.24226 152.40659 213.10164Q152.40659 213.94539 152.90659 214.42976Q153.40659 214.91414 154.31284 214.91414Q155.18784 214.91414 155.68784 214.42976Q156.20346 213.92976 156.20346 213.08601ZM154.31284 206.75789Q153.56284 206.75789 153.09409 207.22664Q152.64096 207.67976 152.64096 208.47664Q152.64096 209.22664 153.09409 209.69539Q153.54721 210.16414 154.29721 210.16414Q155.06284 210.16414 155.51596 209.69539Q155.96909 209.22664 155.96909 208.47664Q155.96909 207.71101 155.50034 207.24226Q155.03159 206.75789 154.31284 206.75789ZM164.17221 205.85164L164.17221 206.91414L163.93784 206.91414Q162.45346 206.94539 161.57846 207.78914Q160.70346 208.63289 160.56284 210.17976Q161.35971 209.27351 162.71909 209.27351Q164.01596 209.27351 164.78159 210.19539Q165.56284 211.10164 165.56284 212.55476Q165.56284 214.10164 164.71909 215.02351Q163.89096 215.94539 162.48471 215.94539Q161.06284 215.94539 160.17221 214.85164Q159.28159 213.74226 159.28159 212.02351L159.28159 211.53914Q159.28159 208.78914 160.45346 207.33601Q161.62534 205.88289 163.93784 205.85164L164.17221 205.85164ZM162.50034 210.33601Q161.85971 210.33601 161.31284 210.72664Q160.76596 211.10164 160.54721 211.69539L160.54721 212.16414Q160.54721 213.39851 161.09409 214.14851Q161.65659 214.89851 162.48471 214.89851Q163.34409 214.89851 163.82846 214.27351Q164.31284 213.63289 164.31284 212.61726Q164.31284 211.58601 163.81284 210.96101Q163.32846 210.33601 162.50034 210.33601Z" fill-rule="nonzero"/><path fill="#757575" d="M22.3625 207.18336L24.8 200.15211L26.034374 200.15211L22.8625 208.68336L21.878124 208.68336L18.721874 200.15211L19.940624 200.15211L22.3625 207.18336ZM31.284374 208.68336Q31.190624 208.49586 31.128124 208.01149Q30.378124 208.80836 29.33125 208.80836Q28.39375 208.80836 27.784374 208.27711Q27.190624 207.74586 27.190624 206.91774Q27.190624 205.93336 27.940624 205.38649Q28.690624 204.83961 30.065624 204.83961L31.1125 204.83961L31.1125 204.33961Q31.1125 203.77711 30.76875 203.44899Q30.440624 203.10524 29.76875 203.10524Q29.190624 203.10524 28.8 203.40211Q28.409374 203.68336 28.409374 204.10524L27.315624 204.10524Q27.315624 203.62086 27.64375 203.18336Q27.9875 202.74586 28.565624 202.49586Q29.14375 202.23024 29.83125 202.23024Q30.940624 202.23024 31.55 202.77711Q32.175 203.32399 32.20625 204.27711L32.20625 207.19899Q32.20625 208.07399 32.425 208.58961L32.425 208.68336L31.284374 208.68336ZM29.4875 207.85524Q30.003124 207.85524 30.45625 207.58961Q30.909374 207.32399 31.1125 206.90211L31.1125 205.60524L30.26875 205.60524Q28.26875 205.60524 28.26875 206.77711Q28.26875 207.27711 28.6125 207.57399Q28.95625 207.85524 29.4875 207.85524ZM35.55 208.68336L34.471874 208.68336L34.471874 199.68336L35.55 199.68336L35.55 208.68336ZM39.909374 207.91774Q40.4875 207.91774 40.925 207.57399Q41.3625 207.21461 41.409374 206.68336L42.440624 206.68336Q42.409374 207.23024 42.05 207.73024Q41.70625 208.21461 41.128124 208.51149Q40.565624 208.80836 39.909374 208.80836Q38.6125 208.80836 37.846874 207.94899Q37.096874 207.07399 37.096874 205.57399L37.096874 205.38649Q37.096874 204.46461 37.425 203.74586Q37.76875 203.02711 38.39375 202.63649Q39.034374 202.23024 39.909374 202.23024Q40.971874 202.23024 41.675 202.87086Q42.39375 203.49586 42.440624 204.52711L41.409374 204.52711Q41.3625 203.90211 40.940624 203.51149Q40.51875 203.12086 39.909374 203.12086Q39.08125 203.12086 38.628124 203.71461Q38.175 204.30836 38.175 205.43336L38.175 205.63649Q38.175 206.73024 38.628124 207.32399Q39.08125 207.91774 39.909374 207.91774ZM44.45625 203.10524Q45.175 202.23024 46.33125 202.23024Q48.346874 202.23024 48.3625 204.49586L48.3625 208.68336L47.26875 208.68336L47.26875 204.48024Q47.26875 203.80836 46.95625 203.48024Q46.659374 203.15211 46.003124 203.15211Q45.471874 203.15211 45.065624 203.43336Q44.675 203.71461 44.45625 204.16774L44.45625 208.68336L43.378124 208.68336L43.378124 199.68336L44.45625 199.68336L44.45625 203.10524ZM53.440624 203.30836Q53.190624 203.27711 52.909374 203.27711Q51.83125 203.27711 51.45625 204.18336L51.45625 208.68336L50.378124 208.68336L50.378124 202.33961L51.425 202.33961L51.440624 203.07399Q51.971874 202.23024 52.95625 202.23024Q53.26875 202.23024 53.440624 202.30836L53.440624 203.30836ZM54.08125 205.44899Q54.08125 204.52711 54.440624 203.77711Q54.815624 203.02711 55.471874 202.63649Q56.128124 202.23024 56.95625 202.23024Q58.253124 202.23024 59.05 203.12086Q59.8625 204.01149 59.8625 205.51149L59.8625 205.58961Q59.8625 206.51149 59.503124 207.24586Q59.14375 207.98024 58.4875 208.40211Q57.83125 208.80836 56.971874 208.80836Q55.690624 208.80836 54.878124 207.91774Q54.08125 207.01149 54.08125 205.52711L54.08125 205.44899ZM55.175 205.58961Q55.175 206.63649 55.659374 207.27711Q56.159374 207.91774 56.971874 207.91774Q57.8 207.91774 58.284374 207.27711Q58.76875 206.62086 58.76875 205.44899Q58.76875 204.41774 58.26875 203.77711Q57.784374 203.12086 56.95625 203.12086Q56.159374 203.12086 55.659374 203.76149Q55.175 204.38649 55.175 205.58961ZM62.39375 202.33961L62.425 203.04274Q63.1125 202.23024 64.3 202.23024Q65.62813 202.23024 66.1125 203.24586Q66.425 202.79274 66.925 202.51149Q67.44063 202.23024 68.12813 202.23024Q70.22188 202.23024 70.25313 204.43336L70.25313 208.68336L69.175 208.68336L69.175 204.49586Q69.175 203.82399 68.8625 203.49586Q68.55 203.15211 67.81563 203.15211Q67.20625 203.15211 66.8 203.51149Q66.40938 203.87086 66.34688 204.48024L66.34688 208.68336L65.26875 208.68336L65.26875 204.52711Q65.26875 203.15211 63.909374 203.15211Q62.846874 203.15211 62.45625 204.05836L62.45625 208.68336L61.3625 208.68336L61.3625 202.33961L62.39375 202.33961ZM76.28438 208.68336Q76.19063 208.49586 76.12813 208.01149Q75.37813 208.80836 74.33125 208.80836Q73.39375 208.80836 72.78438 208.27711Q72.19063 207.74586 72.19063 206.91774Q72.19063 205.93336 72.94063 205.38649Q73.69063 204.83961 75.06563 204.83961L76.1125 204.83961L76.1125 204.33961Q76.1125 203.77711 75.76875 203.44899Q75.44063 203.10524 74.76875 203.10524Q74.19063 203.10524 73.8 203.40211Q73.40938 203.68336 73.40938 204.10524L72.31563 204.10524Q72.31563 203.62086 72.64375 203.18336Q72.9875 202.74586 73.56563 202.49586Q74.14375 202.23024 74.83125 202.23024Q75.94063 202.23024 76.55 202.77711Q77.175 203.32399 77.20625 204.27711L77.20625 207.19899Q77.20625 208.07399 77.425 208.58961L77.425 208.68336L76.28438 208.68336ZM74.4875 207.85524Q75.00313 207.85524 75.45625 207.58961Q75.90938 207.32399 76.1125 206.90211L76.1125 205.60524L75.26875 205.60524Q73.26875 205.60524 73.26875 206.77711Q73.26875 207.27711 73.6125 207.57399Q73.95625 207.85524 74.4875 207.85524ZM80.84688 200.80836L80.84688 202.33961L82.01875 202.33961L82.01875 203.18336L80.84688 203.18336L80.84688 207.10524Q80.84688 207.49586 81.00313 207.68336Q81.15938 207.87086 81.53438 207.87086Q81.72188 207.87086 82.05 207.80836L82.05 208.68336Q81.62813 208.80836 81.22188 208.80836Q80.50313 208.80836 80.12813 208.37086Q79.75313 207.91774 79.75313 207.10524L79.75313 203.18336L78.59688 203.18336L78.59688 202.33961L79.75313 202.33961L79.75313 200.80836L80.84688 200.80836Z" fill-rule="nonzero"/><path fill="#9e9e9e" d="M19.753124 222.40211L20.190624 218.15211L24.565624 218.15211L24.565624 219.15211L21.1125 219.15211L20.846874 221.48024Q21.4875 221.10524 22.284374 221.10524Q23.440624 221.10524 24.128124 221.88649Q24.815624 222.65211 24.815624 223.96461Q24.815624 225.27711 24.096874 226.04274Q23.39375 226.80836 22.1125 226.80836Q20.9875 226.80836 20.26875 226.18336Q19.55 225.54274 19.45625 224.43336L20.471874 224.43336Q20.58125 225.16774 21.003124 225.54274Q21.425 225.91774 22.1125 225.91774Q22.8625 225.91774 23.3 225.40211Q23.7375 224.88649 23.7375 223.98024Q23.7375 223.12086 23.26875 222.60524Q22.8 222.08961 22.01875 222.08961Q21.315624 222.08961 20.909374 222.38649L20.628124 222.62086L19.753124 222.40211ZM31.846874 226.68336L26.253124 226.68336L26.253124 225.90211L29.20625 222.62086Q29.8625 221.87086 30.1125 221.41774Q30.3625 220.94899 30.3625 220.44899Q30.3625 219.77711 29.95625 219.35524Q29.565624 218.91774 28.878124 218.91774Q28.08125 218.91774 27.628124 219.38649Q27.175 219.83961 27.175 220.66774L26.096874 220.66774Q26.096874 219.48024 26.846874 218.76149Q27.6125 218.02711 28.878124 218.02711Q30.08125 218.02711 30.76875 218.65211Q31.45625 219.27711 31.45625 220.32399Q31.45625 221.57399 29.846874 223.32399L27.565624 225.79274L31.846874 225.79274L31.846874 226.68336ZM33.33125 228.38649L32.721874 227.96461Q33.26875 227.19899 33.3 226.37086L33.3 225.40211L34.3625 225.40211L34.3625 226.24586Q34.3625 226.83961 34.065624 227.43336Q33.76875 228.02711 33.33125 228.38649ZM38.815624 226.68336L37.7375 226.68336L37.7375 219.46461L35.55 220.26149L35.55 219.27711L38.659374 218.10524L38.815624 218.10524L38.815624 226.68336ZM42.159374 219.79274Q42.159374 219.02711 42.64375 218.52711Q43.14375 218.02711 43.909374 218.02711Q44.690624 218.02711 45.175 218.52711Q45.659374 219.02711 45.659374 219.82399L45.659374 220.24586Q45.659374 221.01149 45.159374 221.51149Q44.675 221.99586 43.925 221.99586Q43.159374 221.99586 42.659374 221.51149Q42.159374 221.01149 42.159374 220.19899L42.159374 219.79274ZM42.971874 220.24586Q42.971874 220.69899 43.221874 220.99586Q43.4875 221.29274 43.925 221.29274Q44.346874 221.29274 44.596874 221.01149Q44.846874 220.71461 44.846874 220.21461L44.846874 219.79274Q44.846874 219.33961 44.596874 219.04274Q44.346874 218.73024 43.909374 218.73024Q43.471874 218.73024 43.221874 219.04274Q42.971874 219.33961 42.971874 219.80836L42.971874 220.24586ZM46.315624 224.58961Q46.315624 223.82399 46.8 223.33961Q47.3 222.83961 48.065624 222.83961Q48.83125 222.83961 49.315624 223.33961Q49.815624 223.82399 49.815624 224.63649L49.815624 225.04274Q49.815624 225.80836 49.33125 226.30836Q48.846874 226.80836 48.08125 226.80836Q47.315624 226.80836 46.815624 226.32399Q46.315624 225.82399 46.315624 225.01149L46.315624 224.58961ZM47.128124 225.04274Q47.128124 225.51149 47.378124 225.80836Q47.64375 226.10524 48.08125 226.10524Q48.503124 226.10524 48.753124 225.82399Q49.003124 225.52711 49.003124 225.02711L49.003124 224.58961Q49.003124 224.12086 48.7375 223.83961Q48.4875 223.54274 48.065624 223.54274Q47.64375 223.54274 47.378124 223.83961Q47.128124 224.12086 47.128124 224.62086L47.128124 225.04274ZM44.175 226.04274L43.55 225.65211L47.721874 218.98024L48.33125 219.37086L44.175 226.04274Z" fill-rule="nonzero"/><path stroke="#757575" stroke-width="1.0" stroke-linecap="butt" d="M18.55 213.18336L107.23333 213.18336L120.991325 213.18336" fill-rule="nonzero"/><path fill="#9e9e9e" d="M122.991325 213.18336C122.991325 212.0788 122.095894 211.18336 120.991325 211.18336C119.88675 211.18336 118.991325 212.0788 118.991325 213.18336C118.991325 214.28793 119.88675 215.18336 120.991325 215.18336C122.095894 215.18336 122.991325 214.28793 122.991325 213.18336" fill-rule="nonzero"/><path fill="#757575" d="M451.15314 179.15804L447.575 179.15804L446.77814 181.39241L445.6219 181.39241L448.8719 172.86116L449.85626 172.86116L453.1219 181.39241L451.96564 181.39241L451.15314 179.15804ZM447.91876 178.23616L450.825 178.23616L449.3719 174.25179L447.91876 178.23616ZM455.45 181.39241L454.3719 181.39241L454.3719 172.39241L455.45 172.39241L455.45 181.39241ZM461.1844 180.76741Q460.5594 181.51741 459.325 181.51741Q458.3094 181.51741 457.77814 180.92366Q457.2469 180.32991 457.2469 179.17366L457.2469 175.04866L458.325 175.04866L458.325 179.14241Q458.325 180.59554 459.4969 180.59554Q460.7469 180.59554 461.15314 179.65804L461.15314 175.04866L462.2469 175.04866L462.2469 181.39241L461.21564 181.39241L461.1844 180.76741ZM465.29376 175.04866L465.325 175.75179Q466.0125 174.93929 467.2 174.93929Q468.52814 174.93929 469.0125 175.95491Q469.325 175.50179 469.825 175.22054Q470.34064 174.93929 471.02814 174.93929Q473.1219 174.93929 473.15314 177.14241L473.15314 181.39241L472.075 181.39241L472.075 177.20491Q472.075 176.53304 471.7625 176.20491Q471.45 175.86116 470.71564 175.86116Q470.10626 175.86116 469.7 176.22054Q469.3094 176.57991 469.2469 177.18929L469.2469 181.39241L468.16876 181.39241L468.16876 177.23616Q468.16876 175.86116 466.8094 175.86116Q465.7469 175.86116 465.35626 176.76741L465.35626 181.39241L464.2625 181.39241L464.2625 175.04866L465.29376 175.04866ZM476.45 181.39241L475.3719 181.39241L475.3719 175.04866L476.45 175.04866L476.45 181.39241ZM475.27814 173.37679Q475.27814 173.11116 475.4344 172.92366Q475.60626 172.73616 475.91876 172.73616Q476.23126 172.73616 476.3875 172.92366Q476.5594 173.11116 476.5594 173.37679Q476.5594 173.62679 476.3875 173.81429Q476.23126 173.98616 475.91876 173.98616Q475.60626 173.98616 475.4344 173.81429Q475.27814 173.62679 475.27814 173.37679ZM479.29376 175.04866L479.325 175.84554Q480.0594 174.93929 481.23126 174.93929Q483.2469 174.93929 483.2625 177.20491L483.2625 181.39241L482.16876 181.39241L482.16876 177.18929Q482.16876 176.51741 481.85626 176.18929Q481.5594 175.86116 480.90314 175.86116Q480.3719 175.86116 479.96564 176.14241Q479.575 176.42366 479.35626 176.87679L479.35626 181.39241L478.27814 181.39241L478.27814 175.04866L479.29376 175.04866ZM486.45 181.39241L485.3719 181.39241L485.3719 175.04866L486.45 175.04866L486.45 181.39241ZM485.27814 173.37679Q485.27814 173.11116 485.4344 172.92366Q485.60626 172.73616 485.91876 172.73616Q486.23126 172.73616 486.3875 172.92366Q486.5594 173.11116 486.5594 173.37679Q486.5594 173.62679 486.3875 173.81429Q486.23126 173.98616 485.91876 173.98616Q485.60626 173.98616 485.4344 173.81429Q485.27814 173.62679 485.27814 173.37679ZM492.1844 180.76741Q491.5594 181.51741 490.325 181.51741Q489.3094 181.51741 488.77814 180.92366Q488.2469 180.32991 488.2469 179.17366L488.2469 175.04866L489.325 175.04866L489.325 179.14241Q489.325 180.59554 490.4969 180.59554Q491.7469 180.59554 492.15314 179.65804L492.15314 175.04866L493.2469 175.04866L493.2469 181.39241L492.21564 181.39241L492.1844 180.76741ZM496.29376 175.04866L496.325 175.75179Q497.0125 174.93929 498.2 174.93929Q499.52814 174.93929 500.0125 175.95491Q500.325 175.50179 500.825 175.22054Q501.34064 174.93929 502.02814 174.93929Q504.1219 174.93929 504.15314 177.14241L504.15314 181.39241L503.075 181.39241L503.075 177.20491Q503.075 176.53304 502.7625 176.20491Q502.45 175.86116 501.71564 175.86116Q501.10626 175.86116 500.7 176.22054Q500.3094 176.57991 500.2469 177.18929L500.2469 181.39241L499.16876 181.39241L499.16876 177.23616Q499.16876 175.86116 497.8094 175.86116Q496.7469 175.86116 496.35626 176.76741L496.35626 181.39241L495.2625 181.39241L495.2625 175.04866L496.29376 175.04866Z" fill-rule="nonzero"/><path fill="#9e9e9e" d="M478.73126 196.53304L479.91876 196.53304L479.91876 197.40804L478.73126 197.40804L478.73126 199.39241L477.65314 199.39241L477.65314 197.40804L473.7625 197.40804L473.7625 196.76741L477.575 190.86116L478.73126 190.86116L478.73126 196.53304ZM474.9969 196.53304L477.65314 196.53304L477.65314 192.34554L477.5125 192.57991L474.9969 196.53304ZM485.41876 190.86116L485.41876 191.76741L485.21564 191.76741Q483.95 191.79866 483.2 192.53304Q482.45 193.25179 482.325 194.56429Q483.0125 193.79866 484.16876 193.79866Q485.27814 193.79866 485.95 194.57991Q486.6219 195.36116 486.6219 196.61116Q486.6219 197.92366 485.90314 198.72054Q485.1844 199.51741 483.96564 199.51741Q482.7469 199.51741 481.98126 198.57991Q481.23126 197.62679 481.23126 196.14241L481.23126 195.73616Q481.23126 193.37679 482.23126 192.12679Q483.23126 190.87679 485.21564 190.86116L485.41876 190.86116ZM483.9969 194.70491Q483.4344 194.70491 482.96564 195.03304Q482.4969 195.36116 482.3094 195.87679L482.3094 196.26741Q482.3094 197.32991 482.77814 197.97054Q483.2625 198.61116 483.96564 198.61116Q484.7 198.61116 485.1219 198.07991Q485.54376 197.53304 485.54376 196.65804Q485.54376 195.78304 485.1219 195.25179Q484.7 194.70491 483.9969 194.70491ZM488.23126 201.09554L487.6219 200.67366Q488.16876 199.90804 488.2 199.07991L488.2 198.11116L489.2625 198.11116L489.2625 198.95491Q489.2625 199.54866 488.96564 200.14241Q488.66876 200.73616 488.23126 201.09554ZM495.5125 195.75179Q495.5125 197.65804 494.85626 198.59554Q494.21564 199.51741 492.825 199.51741Q491.46564 199.51741 490.8094 198.61116Q490.15314 197.70491 490.1219 195.89241L490.1219 194.45491Q490.1219 192.56429 490.7625 191.65804Q491.41876 190.73616 492.8094 190.73616Q494.1844 190.73616 494.84064 191.62679Q495.4969 192.50179 495.5125 194.34554L495.5125 195.75179ZM494.41876 194.26741Q494.41876 192.89241 494.02814 192.26741Q493.65314 191.62679 492.8094 191.62679Q491.98126 191.62679 491.59064 192.26741Q491.21564 192.89241 491.21564 194.18929L491.21564 195.92366Q491.21564 197.29866 491.60626 197.97054Q492.0125 198.62679 492.825 198.62679Q493.6219 198.62679 494.0125 198.00179Q494.40314 197.37679 494.41876 196.04866L494.41876 194.26741ZM497.0594 192.50179Q497.0594 191.73616 497.54376 191.23616Q498.04376 190.73616 498.8094 190.73616Q499.59064 190.73616 500.075 191.23616Q500.5594 191.73616 500.5594 192.53304L500.5594 192.95491Q500.5594 193.72054 500.0594 194.22054Q499.575 194.70491 498.825 194.70491Q498.0594 194.70491 497.5594 194.22054Q497.0594 193.72054 497.0594 192.90804L497.0594 192.50179ZM497.8719 192.95491Q497.8719 193.40804 498.1219 193.70491Q498.3875 194.00179 498.825 194.00179Q499.2469 194.00179 499.4969 193.72054Q499.7469 193.42366 499.7469 192.92366L499.7469 192.50179Q499.7469 192.04866 499.4969 191.75179Q499.2469 191.43929 498.8094 191.43929Q498.3719 191.43929 498.1219 191.75179Q497.8719 192.04866 497.8719 192.51741L497.8719 192.95491ZM501.21564 197.29866Q501.21564 196.53304 501.7 196.04866Q502.2 195.54866 502.96564 195.54866Q503.73126 195.54866 504.21564 196.04866Q504.71564 196.53304 504.71564 197.34554L504.71564 197.75179Q504.71564 198.51741 504.23126 199.01741Q503.7469 199.51741 502.98126 199.51741Q502.21564 199.51741 501.71564 199.03304Q501.21564 198.53304 501.21564 197.72054L501.21564 197.29866ZM502.02814 197.75179Q502.02814 198.22054 502.27814 198.51741Q502.54376 198.81429 502.98126 198.81429Q503.40314 198.81429 503.65314 198.53304Q503.90314 198.23616 503.90314 197.73616L503.90314 197.29866Q503.90314 196.82991 503.6375 196.54866Q503.3875 196.25179 502.96564 196.25179Q502.54376 196.25179 502.27814 196.54866Q502.02814 196.82991 502.02814 197.32991L502.02814 197.75179ZM499.075 198.75179L498.45 198.36116L502.6219 191.68929L503.23126 192.07991L499.075 198.75179Z" fill-rule="nonzero"/><path stroke="#757575" stroke-width="1.0" stroke-linecap="butt" d="M505.45 185.89241L416.76666 185.89241L402.20407 185.89241" fill-rule="nonzero"/><path fill="#9e9e9e" d="M404.20407 185.89241C404.20407 184.78784 403.30862 183.89241 402.20407 183.89241C401.0995 183.89241 400.20407 184.78784 400.20407 185.89241C400.20407 186.99698 401.0995 187.89241 402.20407 187.89241C403.30862 187.89241 404.20407 186.99698 404.20407 185.89241" fill-rule="nonzero"/><path fill="#757575" d="M470.5594 328.10626L470.5594 331.45L469.4344 331.45L469.4344 322.91876L472.59064 322.91876Q473.98126 322.91876 474.77814 323.6375Q475.575 324.34064 475.575 325.52814Q475.575 326.7625 474.79376 327.4344Q474.02814 328.10626 472.575 328.10626L470.5594 328.10626ZM470.5594 327.1844L472.59064 327.1844Q473.4969 327.1844 473.96564 326.7625Q474.45 326.34064 474.45 325.54376Q474.45 324.77814 473.96564 324.325Q473.4969 323.85626 472.65314 323.84064L470.5594 323.84064L470.5594 327.1844ZM478.45 331.45L477.3719 331.45L477.3719 322.45L478.45 322.45L478.45 331.45ZM484.1844 331.45Q484.09064 331.2625 484.02814 330.77814Q483.27814 331.575 482.23126 331.575Q481.29376 331.575 480.6844 331.04376Q480.09064 330.5125 480.09064 329.6844Q480.09064 328.7 480.84064 328.15314Q481.59064 327.60626 482.96564 327.60626L484.0125 327.60626L484.0125 327.10626Q484.0125 326.54376 483.66876 326.21564Q483.34064 325.8719 482.66876 325.8719Q482.09064 325.8719 481.7 326.16876Q481.3094 326.45 481.3094 326.8719L480.21564 326.8719Q480.21564 326.3875 480.54376 325.95Q480.8875 325.5125 481.46564 325.2625Q482.04376 324.9969 482.73126 324.9969Q483.84064 324.9969 484.45 325.54376Q485.075 326.09064 485.10626 327.04376L485.10626 329.96564Q485.10626 330.84064 485.325 331.35626L485.325 331.45L484.1844 331.45ZM482.3875 330.6219Q482.90314 330.6219 483.35626 330.35626Q483.8094 330.09064 484.0125 329.66876L484.0125 328.3719L483.16876 328.3719Q481.16876 328.3719 481.16876 329.54376Q481.16876 330.04376 481.5125 330.34064Q481.85626 330.6219 482.3875 330.6219ZM490.96564 329.7625Q490.96564 329.325 490.6219 329.09064Q490.29376 328.84064 489.46564 328.66876Q488.65314 328.4969 488.16876 328.2469Q487.6844 327.9969 487.45 327.66876Q487.23126 327.325 487.23126 326.85626Q487.23126 326.075 487.8875 325.54376Q488.54376 324.9969 489.575 324.9969Q490.65314 324.9969 491.3094 325.5594Q491.98126 326.10626 491.98126 326.96564L490.90314 326.96564Q490.90314 326.52814 490.5125 326.21564Q490.1375 325.8875 489.575 325.8875Q488.98126 325.8875 488.6375 326.15314Q488.3094 326.40314 488.3094 326.8094Q488.3094 327.2 488.6219 327.40314Q488.9344 327.60626 489.7469 327.79376Q490.5594 327.96564 491.0594 328.21564Q491.5594 328.46564 491.79376 328.825Q492.04376 329.1844 492.04376 329.6844Q492.04376 330.54376 491.35626 331.0594Q490.6844 331.575 489.60626 331.575Q488.84064 331.575 488.2469 331.3094Q487.66876 331.02814 487.34064 330.54376Q487.0125 330.0594 487.0125 329.4969L488.09064 329.4969Q488.1219 330.04376 488.52814 330.3719Q488.9344 330.6844 489.60626 330.6844Q490.21564 330.6844 490.59064 330.4344Q490.96564 330.1844 490.96564 329.7625ZM494.7469 323.575L494.7469 325.10626L495.91876 325.10626L495.91876 325.95L494.7469 325.95L494.7469 329.8719Q494.7469 330.2625 494.90314 330.45Q495.0594 330.6375 495.4344 330.6375Q495.6219 330.6375 495.95 330.575L495.95 331.45Q495.52814 331.575 495.1219 331.575Q494.40314 331.575 494.02814 331.1375Q493.65314 330.6844 493.65314 329.8719L493.65314 325.95L492.4969 325.95L492.4969 325.10626L493.65314 325.10626L493.65314 323.575L494.7469 323.575ZM498.45 331.45L497.3719 331.45L497.3719 325.10626L498.45 325.10626L498.45 331.45ZM497.27814 323.4344Q497.27814 323.16876 497.4344 322.98126Q497.60626 322.79376 497.91876 322.79376Q498.23126 322.79376 498.3875 322.98126Q498.5594 323.16876 498.5594 323.4344Q498.5594 323.6844 498.3875 323.8719Q498.23126 324.04376 497.91876 324.04376Q497.60626 324.04376 497.4344 323.8719Q497.27814 323.6844 497.27814 323.4344ZM502.8094 330.6844Q503.3875 330.6844 503.825 330.34064Q504.2625 329.98126 504.3094 329.45L505.34064 329.45Q505.3094 329.9969 504.95 330.4969Q504.60626 330.98126 504.02814 331.27814Q503.46564 331.575 502.8094 331.575Q501.5125 331.575 500.7469 330.71564Q499.9969 329.84064 499.9969 328.34064L499.9969 328.15314Q499.9969 327.23126 500.325 326.5125Q500.66876 325.79376 501.29376 325.40314Q501.9344 324.9969 502.8094 324.9969Q503.8719 324.9969 504.575 325.6375Q505.29376 326.2625 505.34064 327.29376L504.3094 327.29376Q504.2625 326.66876 503.84064 326.27814Q503.41876 325.8875 502.8094 325.8875Q501.98126 325.8875 501.52814 326.48126Q501.075 327.075 501.075 328.2L501.075 328.40314Q501.075 329.4969 501.52814 330.09064Q501.98126 330.6844 502.8094 330.6844Z" fill-rule="nonzero"/><path fill="#9e9e9e" d="M484.71564 349.45L483.6375 349.45L483.6375 342.23126L481.45 343.02814L481.45 342.04376L484.5594 340.8719L484.71564 340.8719L484.71564 349.45ZM488.23126 351.15314L487.6219 350.73126Q488.16876 349.96564 488.2 349.1375L488.2 348.16876L489.2625 348.16876L489.2625 349.0125Q489.2625 349.60626 488.96564 350.2Q488.66876 350.79376 488.23126 351.15314ZM493.71564 349.45L492.6375 349.45L492.6375 342.23126L490.45 343.02814L490.45 342.04376L493.5594 340.8719L493.71564 340.8719L493.71564 349.45ZM497.0594 342.5594Q497.0594 341.79376 497.54376 341.29376Q498.04376 340.79376 498.8094 340.79376Q499.59064 340.79376 500.075 341.29376Q500.5594 341.79376 500.5594 342.59064L500.5594 343.0125Q500.5594 343.77814 500.0594 344.27814Q499.575 344.7625 498.825 344.7625Q498.0594 344.7625 497.5594 344.27814Q497.0594 343.77814 497.0594 342.96564L497.0594 342.5594ZM497.8719 343.0125Q497.8719 343.46564 498.1219 343.7625Q498.3875 344.0594 498.825 344.0594Q499.2469 344.0594 499.4969 343.77814Q499.7469 343.48126 499.7469 342.98126L499.7469 342.5594Q499.7469 342.10626 499.4969 341.8094Q499.2469 341.4969 498.8094 341.4969Q498.3719 341.4969 498.1219 341.8094Q497.8719 342.10626 497.8719 342.575L497.8719 343.0125ZM501.21564 347.35626Q501.21564 346.59064 501.7 346.10626Q502.2 345.60626 502.96564 345.60626Q503.73126 345.60626 504.21564 346.10626Q504.71564 346.59064 504.71564 347.40314L504.71564 347.8094Q504.71564 348.575 504.23126 349.075Q503.7469 349.575 502.98126 349.575Q502.21564 349.575 501.71564 349.09064Q501.21564 348.59064 501.21564 347.77814L501.21564 347.35626ZM502.02814 347.8094Q502.02814 348.27814 502.27814 348.575Q502.54376 348.8719 502.98126 348.8719Q503.40314 348.8719 503.65314 348.59064Q503.90314 348.29376 503.90314 347.79376L503.90314 347.35626Q503.90314 346.8875 503.6375 346.60626Q503.3875 346.3094 502.96564 346.3094Q502.54376 346.3094 502.27814 346.60626Q502.02814 346.8875 502.02814 347.3875L502.02814 347.8094ZM499.075 348.8094L498.45 348.41876L502.6219 341.7469L503.23126 342.1375L499.075 348.8094Z" fill-rule="nonzero"/><path stroke="#757575" stroke-width="1.0" stroke-linecap="butt" d="M505.45 335.95L416.76666 335.95L285.92987 342.971" fill-rule="nonzero"/><path fill="#9e9e9e" d="M287.92987 342.971C287.92987 341.86646 287.03442 340.971 285.92987 340.971C284.8253 340.971 283.92987 341.86646 283.92987 342.971C283.92987 344.0756 284.8253 344.971 285.92987 344.971C287.03442 344.971 287.92987 344.0756 287.92987 342.971" fill-rule="nonzero"/><path fill="#757575" d="M20.20625 37.55L20.20625 23.33125L24.221874 23.33125Q26.065624 23.33125 27.4875 24.159374Q28.925 24.971874 29.690624 26.4875Q30.471874 28.003124 30.4875 29.95625L30.4875 30.8625Q30.4875 32.878124 29.70625 34.39375Q28.925 35.909374 27.4875 36.721874Q26.05 37.534374 24.14375 37.55L20.20625 37.55ZM22.08125 24.878124L22.08125 36.01875L24.05 36.01875Q26.221874 36.01875 27.425 34.675Q28.628124 33.315624 28.628124 30.83125L28.628124 30.003124Q28.628124 27.58125 27.4875 26.2375Q26.346874 24.89375 24.26875 24.878124L22.08125 24.878124ZM34.878124 37.55L33.08125 37.55L33.08125 26.9875L34.878124 26.9875L34.878124 37.55ZM32.925 24.175Q32.925 23.7375 33.190624 23.440624Q33.471874 23.128124 33.9875 23.128124Q34.51875 23.128124 34.784374 23.440624Q35.065624 23.7375 35.065624 24.175Q35.065624 24.6125 34.784374 24.909374Q34.51875 25.20625 33.9875 25.20625Q33.471874 25.20625 33.190624 24.909374Q32.925 24.6125 32.925 24.175ZM44.065624 34.753124Q44.065624 34.01875 43.51875 33.6125Q42.971874 33.20625 41.596874 32.909374Q40.221874 32.6125 39.409374 32.20625Q38.6125 31.8 38.221874 31.2375Q37.846874 30.659374 37.846874 29.878124Q37.846874 28.58125 38.940624 27.690624Q40.034374 26.784374 41.753124 26.784374Q43.55 26.784374 44.659374 27.721874Q45.784374 28.64375 45.784374 30.08125L43.95625 30.08125Q43.95625 29.346874 43.33125 28.815624Q42.70625 28.26875 41.753124 28.26875Q40.753124 28.26875 40.190624 28.70625Q39.64375 29.128124 39.64375 29.83125Q39.64375 30.471874 40.159374 30.815624Q40.675 31.14375 42.034374 31.45625Q43.39375 31.753124 44.221874 32.175Q45.065624 32.58125 45.471874 33.175Q45.878124 33.76875 45.878124 34.6125Q45.878124 36.034374 44.7375 36.89375Q43.6125 37.753124 41.8 37.753124Q40.534374 37.753124 39.55 37.3Q38.58125 36.846874 38.01875 36.05Q37.471874 35.2375 37.471874 34.3L39.284374 34.3Q39.33125 35.20625 40.003124 35.7375Q40.690624 36.26875 41.8 36.26875Q42.83125 36.26875 43.440624 35.8625Q44.065624 35.440624 44.065624 34.753124ZM50.3625 24.425L50.3625 26.9875L52.346874 26.9875L52.346874 28.378124L50.3625 28.378124L50.3625 34.925Q50.3625 35.565624 50.628124 35.89375Q50.89375 36.20625 51.534374 36.20625Q51.846874 36.20625 52.39375 36.08125L52.39375 37.55Q51.675 37.753124 51.003124 37.753124Q49.8 37.753124 49.175 37.01875Q48.565624 36.284374 48.565624 34.925L48.565624 28.378124L46.64375 28.378124L46.64375 26.9875L48.565624 26.9875L48.565624 24.425L50.3625 24.425ZM60.01875 28.596874Q59.6125 28.534374 59.14375 28.534374Q57.3625 28.534374 56.721874 30.05L56.721874 37.55L54.925 37.55L54.925 26.9875L56.675 26.9875L56.70625 28.20625Q57.596874 26.784374 59.221874 26.784374Q59.753124 26.784374 60.01875 26.925L60.01875 28.596874ZM63.878124 37.55L62.08125 37.55L62.08125 26.9875L63.878124 26.9875L63.878124 37.55ZM61.925 24.175Q61.925 23.7375 62.190624 23.440624Q62.471874 23.128124 62.9875 23.128124Q63.51875 23.128124 63.784374 23.440624Q64.06563 23.7375 64.06563 24.175Q64.06563 24.6125 63.784374 24.909374Q63.51875 25.20625 62.9875 25.20625Q62.471874 25.20625 62.190624 24.909374Q61.925 24.6125 61.925 24.175ZM75.8625 32.378124Q75.8625 34.8 74.75313 36.284374Q73.64375 37.753124 71.76875 37.753124Q69.75313 37.753124 68.65938 36.33125L68.58125 37.55L66.925 37.55L66.925 22.55L68.72188 22.55L68.72188 28.14375Q69.81563 26.784374 71.7375 26.784374Q73.65938 26.784374 74.75313 28.2375Q75.8625 29.690624 75.8625 32.221874L75.8625 32.378124ZM74.05 32.175Q74.05 30.33125 73.33125 29.33125Q72.62813 28.315624 71.3 28.315624Q69.50313 28.315624 68.72188 29.9875L68.72188 34.55Q69.55 36.20625 71.31563 36.20625Q72.6125 36.20625 73.33125 35.20625Q74.05 34.20625 74.05 32.175ZM84.44063 36.503124Q83.39375 37.753124 81.34688 37.753124Q79.65938 37.753124 78.76875 36.76875Q77.89375 35.784374 77.87813 33.8625L77.87813 26.9875L79.69063 26.9875L79.69063 33.815624Q79.69063 36.20625 81.64375 36.20625Q83.70625 36.20625 84.39375 34.675L84.39375 26.9875L86.20625 26.9875L86.20625 37.55L84.4875 37.55L84.44063 36.503124ZM91.3625 24.425L91.3625 26.9875L93.34688 26.9875L93.34688 28.378124L91.3625 28.378124L91.3625 34.925Q91.3625 35.565624 91.62813 35.89375Q91.89375 36.20625 92.53438 36.20625Q92.84688 36.20625 93.39375 36.08125L93.39375 37.55Q92.675 37.753124 92.00313 37.753124Q90.8 37.753124 90.175 37.01875Q89.56563 36.284374 89.56563 34.925L89.56563 28.378124L87.64375 28.378124L87.64375 26.9875L89.56563 26.9875L89.56563 24.425L91.3625 24.425ZM97.87813 37.55L96.08125 37.55L96.08125 26.9875L97.87813 26.9875L97.87813 37.55ZM95.925 24.175Q95.925 23.7375 96.19063 23.440624Q96.47188 23.128124 96.9875 23.128124Q97.51875 23.128124 97.78438 23.440624Q98.06563 23.7375 98.06563 24.175Q98.06563 24.6125 97.78438 24.909374Q97.51875 25.20625 96.9875 25.20625Q96.47188 25.20625 96.19063 24.909374Q95.925 24.6125 95.925 24.175ZM100.44063 32.175Q100.44063 30.6125 101.05 29.378124Q101.65938 28.128124 102.7375 27.45625Q103.83125 26.784374 105.2375 26.784374Q107.39375 26.784374 108.72188 28.284374Q110.06563 29.76875 110.06563 32.253124L110.06563 32.378124Q110.06563 33.925 109.47188 35.159374Q108.87813 36.378124 107.76875 37.065624Q106.675 37.753124 105.25313 37.753124Q103.1125 37.753124 101.76875 36.253124Q100.44063 34.753124 100.44063 32.3L100.44063 32.175ZM102.25313 32.378124Q102.25313 34.14375 103.06563 35.20625Q103.89375 36.26875 105.25313 36.26875Q106.62813 36.26875 107.44063 35.190624Q108.25313 34.1125 108.25313 32.175Q108.25313 30.425 107.425 29.346874Q106.59688 28.26875 105.2375 28.26875Q103.89375 28.26875 103.06563 29.33125Q102.25313 30.39375 102.25313 32.378124ZM113.62813 26.9875L113.69063 28.315624Q114.89375 26.784374 116.84688 26.784374Q120.20625 26.784374 120.22188 30.565624L120.22188 37.55L118.425 37.55L118.425 30.55Q118.40938 29.409374 117.89375 28.8625Q117.39375 28.315624 116.3 28.315624Q115.425 28.315624 114.75313 28.784374Q114.09688 29.253124 113.72188 30.01875L113.72188 37.55L111.925 37.55L111.925 26.9875L113.62813 26.9875ZM129.87813 37.55L128.08125 37.55L128.08125 26.9875L129.87813 26.9875L129.87813 37.55ZM127.925 24.175Q127.925 23.7375 128.19063 23.440624Q128.47188 23.128124 128.9875 23.128124Q129.51875 23.128124 129.78438 23.440624Q130.06563 23.7375 130.06563 24.175Q130.06563 24.6125 129.78438 24.909374Q129.51875 25.20625 128.9875 25.20625Q128.47188 25.20625 128.19063 24.909374Q127.925 24.6125 127.925 24.175ZM134.62813 26.9875L134.69063 28.315624Q135.89375 26.784374 137.84688 26.784374Q141.20625 26.784374 141.22188 30.565624L141.22188 37.55L139.425 37.55L139.425 30.55Q139.40938 29.409374 138.89375 28.8625Q138.39375 28.315624 137.3 28.315624Q136.425 28.315624 135.75313 28.784374Q135.09688 29.253124 134.72188 30.01875L134.72188 37.55L132.925 37.55L132.925 26.9875L134.62813 26.9875ZM155.06563 34.753124Q155.06563 34.01875 154.51875 33.6125Q153.97188 33.20625 152.59688 32.909374Q151.22188 32.6125 150.40938 32.20625Q149.6125 31.8 149.22188 31.2375Q148.84688 30.659374 148.84688 29.878124Q148.84688 28.58125 149.94063 27.690624Q151.03438 26.784374 152.75313 26.784374Q154.55 26.784374 155.65938 27.721874Q156.78438 28.64375 156.78438 30.08125L154.95625 30.08125Q154.95625 29.346874 154.33125 28.815624Q153.70625 28.26875 152.75313 28.26875Q151.75313 28.26875 151.19063 28.70625Q150.64375 29.128124 150.64375 29.83125Q150.64375 30.471874 151.15938 30.815624Q151.675 31.14375 153.03438 31.45625Q154.39375 31.753124 155.22188 32.175Q156.06563 32.58125 156.47188 33.175Q156.87813 33.76875 156.87813 34.6125Q156.87813 36.034374 155.7375 36.89375Q154.6125 37.753124 152.8 37.753124Q151.53438 37.753124 150.55 37.3Q149.58125 36.846874 149.01875 36.05Q148.47188 35.2375 148.47188 34.3L150.28438 34.3Q150.33125 35.20625 151.00313 35.7375Q151.69063 36.26875 152.8 36.26875Q153.83125 36.26875 154.44063 35.8625Q155.06563 35.440624 155.06563 34.753124ZM163.3 37.753124Q161.15938 37.753124 159.8 36.346874Q158.45625 34.925 158.45625 32.565624L158.45625 32.221874Q158.45625 30.659374 159.05 29.425Q159.65938 28.190624 160.7375 27.4875Q161.81563 26.784374 163.08125 26.784374Q165.14375 26.784374 166.28438 28.14375Q167.425 29.503124 167.425 32.034374L167.425 32.784374L160.26875 32.784374Q160.3 34.346874 161.175 35.315624Q162.05 36.26875 163.39375 36.26875Q164.3625 36.26875 165.01875 35.878124Q165.69063 35.4875 166.19063 34.846874L167.28438 35.70625Q165.95625 37.753124 163.3 37.753124ZM163.08125 28.26875Q161.9875 28.26875 161.2375 29.065624Q160.50313 29.8625 160.33125 31.3L165.6125 31.3L165.6125 31.159374Q165.53438 29.784374 164.8625 29.034374Q164.20625 28.26875 163.08125 28.26875ZM171.87813 37.55L170.08125 37.55L170.08125 22.55L171.87813 22.55L171.87813 37.55ZM179.3 37.753124Q177.15938 37.753124 175.8 36.346874Q174.45625 34.925 174.45625 32.565624L174.45625 32.221874Q174.45625 30.659374 175.05 29.425Q175.65938 28.190624 176.7375 27.4875Q177.81563 26.784374 179.08125 26.784374Q181.14375 26.784374 182.28438 28.14375Q183.425 29.503124 183.425 32.034374L183.425 32.784374L176.26875 32.784374Q176.3 34.346874 177.175 35.315624Q178.05 36.26875 179.39375 36.26875Q180.3625 36.26875 181.01875 35.878124Q181.69063 35.4875 182.19063 34.846874L183.28438 35.70625Q181.95625 37.753124 179.3 37.753124ZM179.08125 28.26875Q177.9875 28.26875 177.2375 29.065624Q176.50313 29.8625 176.33125 31.3L181.6125 31.3L181.6125 31.159374Q181.53438 29.784374 180.8625 29.034374Q180.20625 28.26875 179.08125 28.26875ZM190.15938 36.26875Q191.12813 36.26875 191.84688 35.690624Q192.56563 35.096874 192.64375 34.221874L194.3625 34.221874Q194.3 35.128124 193.72188 35.95625Q193.15938 36.76875 192.19063 37.26875Q191.2375 37.753124 190.15938 37.753124Q188.00313 37.753124 186.72188 36.315624Q185.45625 34.8625 185.45625 32.3625L185.45625 32.065624Q185.45625 30.51875 186.01875 29.315624Q186.58125 28.1125 187.64375 27.45625Q188.70625 26.784374 190.14375 26.784374Q191.925 26.784374 193.09688 27.846874Q194.28438 28.909374 194.3625 30.6125L192.64375 30.6125Q192.56563 29.596874 191.8625 28.940624Q191.175 28.26875 190.14375 28.26875Q188.76875 28.26875 188.00313 29.26875Q187.25313 30.253124 187.25313 32.128124L187.25313 32.471874Q187.25313 34.3 188.00313 35.284374Q188.75313 36.26875 190.15938 36.26875ZM198.3625 24.425L198.3625 26.9875L200.34688 26.9875L200.34688 28.378124L198.3625 28.378124L198.3625 34.925Q198.3625 35.565624 198.62813 35.89375Q198.89375 36.20625 199.53438 36.20625Q199.84688 36.20625 200.39375 36.08125L200.39375 37.55Q199.675 37.753124 199.00313 37.753124Q197.8 37.753124 197.175 37.01875Q196.56563 36.284374 196.56563 34.925L196.56563 28.378124L194.64375 28.378124L194.64375 26.9875L196.56563 26.9875L196.56563 24.425L198.3625 24.425ZM207.3 37.753124Q205.15938 37.753124 203.8 36.346874Q202.45625 34.925 202.45625 32.565624L202.45625 32.221874Q202.45625 30.659374 203.05 29.425Q203.65938 28.190624 204.7375 27.4875Q205.81563 26.784374 207.08125 26.784374Q209.14375 26.784374 210.28438 28.14375Q211.425 29.503124 211.425 32.034374L211.425 32.784374L204.26875 32.784374Q204.3 34.346874 205.175 35.315624Q206.05 36.26875 207.39375 36.26875Q208.3625 36.26875 209.01875 35.878124Q209.69063 35.4875 210.19063 34.846874L211.28438 35.70625Q209.95625 37.753124 207.3 37.753124ZM207.08125 28.26875Q205.9875 28.26875 205.2375 29.065624Q204.50313 29.8625 204.33125 31.3L209.6125 31.3L209.6125 31.159374Q209.53438 29.784374 208.8625 29.034374Q208.20625 28.26875 207.08125 28.26875ZM213.47188 32.175Q213.47188 29.753124 214.62813 28.26875Q215.78438 26.784374 217.64375 26.784374Q219.50313 26.784374 220.58125 28.05L220.58125 22.55L222.39375 22.55L222.39375 37.55L220.7375 37.55L220.64375 36.409374Q219.56563 37.753124 217.62813 37.753124Q215.8 37.753124 214.62813 36.253124Q213.47188 34.7375 213.47188 32.315624L213.47188 32.175ZM215.28438 32.378124Q215.28438 34.175 216.01875 35.190624Q216.76875 36.20625 218.08125 36.20625Q219.8 36.20625 220.58125 34.675L220.58125 29.815624Q219.78438 28.315624 218.09688 28.315624Q216.76875 28.315624 216.01875 29.346874Q215.28438 30.378124 215.28438 32.378124ZM234.15938 36.26875Q235.12813 36.26875 235.84688 35.690624Q236.56563 35.096874 236.64375 34.221874L238.3625 34.221874Q238.3 35.128124 237.72188 35.95625Q237.15938 36.76875 236.19063 37.26875Q235.2375 37.753124 234.15938 37.753124Q232.00313 37.753124 230.72188 36.315624Q229.45625 34.8625 229.45625 32.3625L229.45625 32.065624Q229.45625 30.51875 230.01875 29.315624Q230.58125 28.1125 231.64375 27.45625Q232.70625 26.784374 234.14375 26.784374Q235.925 26.784374 237.09688 27.846874Q238.28438 28.909374 238.3625 30.6125L236.64375 30.6125Q236.56563 29.596874 235.8625 28.940624Q235.175 28.26875 234.14375 28.26875Q232.76875 28.26875 232.00313 29.26875Q231.25313 30.253124 231.25313 32.128124L231.25313 32.471874Q231.25313 34.3 232.00313 35.284374Q232.75313 36.26875 234.15938 36.26875ZM246.44063 37.55Q246.28438 37.2375 246.19063 36.440624Q244.925 37.753124 243.175 37.753124Q241.6125 37.753124 240.6125 36.8625Q239.6125 35.971874 239.6125 34.6125Q239.6125 32.971874 240.8625 32.065624Q242.12813 31.14375 244.39375 31.14375L246.15938 31.14375L246.15938 30.315624Q246.15938 29.3625 245.58125 28.8Q245.01875 28.2375 243.925 28.2375Q242.95625 28.2375 242.3 28.7375Q241.64375 29.221874 241.64375 29.909374L239.83125 29.909374Q239.83125 29.128124 240.39375 28.39375Q240.95625 27.64375 241.90938 27.221874Q242.87813 26.784374 244.03438 26.784374Q245.8625 26.784374 246.89375 27.70625Q247.925 28.6125 247.97188 30.221874L247.97188 35.08125Q247.97188 36.534374 248.33125 37.39375L248.33125 37.55L246.44063 37.55ZM243.44063 36.175Q244.3 36.175 245.05 35.7375Q245.81563 35.3 246.15938 34.596874L246.15938 32.425L244.7375 32.425Q241.425 32.425 241.425 34.3625Q241.425 35.221874 241.9875 35.70625Q242.55 36.175 243.44063 36.175ZM253.3625 24.425L253.3625 26.9875L255.34688 26.9875L255.34688 28.378124L253.3625 28.378124L253.3625 34.925Q253.3625 35.565624 253.62813 35.89375Q253.89375 36.20625 254.53438 36.20625Q254.84688 36.20625 255.39375 36.08125L255.39375 37.55Q254.675 37.753124 254.00313 37.753124Q252.8 37.753124 252.175 37.01875Q251.56563 36.284374 251.56563 34.925L251.56563 28.378124L249.64375 28.378124L249.64375 26.9875L251.56563 26.9875L251.56563 24.425L253.3625 24.425ZM262.3 37.753124Q260.15936 37.753124 258.8 36.346874Q257.45624 34.925 257.45624 32.565624L257.45624 32.221874Q257.45624 30.659374 258.05 29.425Q258.65936 28.190624 259.7375 27.4875Q260.8156 26.784374 262.08124 26.784374Q264.14374 26.784374 265.28436 28.14375Q266.425 29.503124 266.425 32.034374L266.425 32.784374L259.26874 32.784374Q259.3 34.346874 260.175 35.315624Q261.05 36.26875 262.39374 36.26875Q263.3625 36.26875 264.01874 35.878124Q264.6906 35.4875 265.1906 34.846874L266.28436 35.70625Q264.95624 37.753124 262.3 37.753124ZM262.08124 28.26875Q260.9875 28.26875 260.2375 29.065624Q259.5031 29.8625 259.33124 31.3L264.6125 31.3L264.6125 31.159374Q264.53436 29.784374 263.8625 29.034374Q263.20624 28.26875 262.08124 28.26875ZM268.4875 32.175Q268.4875 29.70625 269.6281 28.253124Q270.76874 26.784374 272.65936 26.784374Q274.59686 26.784374 275.675 28.159374L275.76874 26.9875L277.40936 26.9875L277.40936 37.3Q277.40936 39.346874 276.1906 40.51875Q274.9875 41.70625 272.925 41.70625Q271.78436 41.70625 270.6906 41.221874Q269.59686 40.7375 269.01874 39.878124L269.95624 38.8Q271.1281 40.2375 272.8 40.2375Q274.1281 40.2375 274.8625 39.4875Q275.59686 38.753124 275.59686 37.409374L275.59686 36.4875Q274.51874 37.753124 272.64374 37.753124Q270.78436 37.753124 269.6281 36.253124Q268.4875 34.753124 268.4875 32.175ZM270.3 32.378124Q270.3 34.175 271.03436 35.190624Q271.76874 36.20625 273.08124 36.20625Q274.8 36.20625 275.59686 34.659374L275.59686 29.83125Q274.76874 28.315624 273.1125 28.315624Q271.78436 28.315624 271.03436 29.346874Q270.3 30.378124 270.3 32.378124ZM279.4406 32.175Q279.4406 30.6125 280.05 29.378124Q280.65936 28.128124 281.7375 27.45625Q282.83124 26.784374 284.2375 26.784374Q286.39374 26.784374 287.72186 28.284374Q289.0656 29.76875 289.0656 32.253124L289.0656 32.378124Q289.0656 33.925 288.47186 35.159374Q287.8781 36.378124 286.76874 37.065624Q285.675 37.753124 284.2531 37.753124Q282.1125 37.753124 280.76874 36.253124Q279.4406 34.753124 279.4406 32.3L279.4406 32.175ZM281.2531 32.378124Q281.2531 34.14375 282.0656 35.20625Q282.89374 36.26875 284.2531 36.26875Q285.6281 36.26875 286.4406 35.190624Q287.2531 34.1125 287.2531 32.175Q287.2531 30.425 286.425 29.346874Q285.59686 28.26875 284.2375 28.26875Q282.89374 28.26875 282.0656 29.33125Q281.2531 30.39375 281.2531 32.378124ZM296.01874 28.596874Q295.6125 28.534374 295.14374 28.534374Q293.3625 28.534374 292.72186 30.05L292.72186 37.55L290.925 37.55L290.925 26.9875L292.675 26.9875L292.70624 28.20625Q293.59686 26.784374 295.22186 26.784374Q295.7531 26.784374 296.01874 26.925L296.01874 28.596874ZM301.3781 34.909374L303.83124 26.9875L305.76874 26.9875L301.51874 39.175Q300.53436 41.815624 298.39374 41.815624L298.05 41.784374L297.3781 41.659374L297.3781 40.190624L297.8625 40.2375Q298.78436 40.2375 299.28436 39.8625Q299.8 39.4875 300.1281 38.503124L300.53436 37.425L296.76874 26.9875L298.7375 26.9875L301.3781 34.909374Z" fill-rule="nonzero"/></svg>