<svg version="1.1" viewBox="0.0 0.0 524.0 371.0" fill="none" stroke="none" stroke-linecap="square" stroke-miterlimit="10" width="524" height="371" xmlns:xlink="http://www.w3.org/1999/xlink" xmlns="http://www.w3.org/2000/svg"><path fill="#ffffff" d="M0 0L524.0 0L524.0 371.0L0 371.0L0 0Z" fill-rule="nonzero"/><path fill="#ffffff" d="M0 0L524.0 0L524.0 371.0L0 371.0L0 0Z" fill-rule="nonzero"/><path fill="#db4437" d="M262.0 54.916668C284.16824 54.916668 306.05627 59.870968 326.06375 69.417336L262.0 203.68333Z" fill-rule="nonzero"/><path fill="#ffffff" d="M281.96527 82.6186L281.96527 83.6811L281.7309 83.6811Q280.24652 83.71235 279.37152 84.5561Q278.49652 85.39985 278.3559 86.946724Q279.15277 86.040474 280.51215 86.040474Q281.80902 86.040474 282.57465 86.96235Q283.3559 87.8686 283.3559 89.321724Q283.3559 90.8686 282.51215 91.790474Q281.68402 92.71235 280.27777 92.71235Q278.8559 92.71235 277.96527 91.6186Q277.07465 90.509224 277.07465 88.790474L277.07465 88.3061Q277.07465 85.5561 278.24652 84.102974Q279.4184 82.64985 281.7309 82.6186L281.96527 82.6186ZM280.2934 87.102974Q279.65277 87.102974 279.1059 87.4936Q278.55902 87.8686 278.34027 88.46235L278.34027 88.9311Q278.34027 90.165474 278.88715 90.915474Q279.44965 91.665474 280.27777 91.665474Q281.13715 91.665474 281.62152 91.040474Q282.1059 90.39985 282.1059 89.384224Q282.1059 88.352974 281.6059 87.727974Q281.12152 87.102974 280.2934 87.102974ZM286.84027 86.977974L287.77777 86.977974Q288.68402 86.96235 289.18402 86.509224Q289.69965 86.0561 289.69965 85.27485Q289.69965 83.52485 287.96527 83.52485Q287.13715 83.52485 286.65277 83.9936Q286.1684 84.46235 286.1684 85.227974L284.90277 85.227974Q284.90277 84.040474 285.76215 83.259224Q286.63715 82.477974 287.96527 82.477974Q289.37152 82.477974 290.1684 83.227974Q290.96527 83.977974 290.96527 85.290474Q290.96527 85.946724 290.5434 86.5561Q290.13715 87.165474 289.40277 87.46235Q290.2309 87.727974 290.6684 88.33735Q291.12152 88.9311 291.12152 89.790474Q291.12152 91.134224 290.24652 91.9311Q289.37152 92.71235 287.96527 92.71235Q286.57465 92.71235 285.68402 91.96235Q284.80902 91.196724 284.80902 89.946724L286.09027 89.946724Q286.09027 90.727974 286.59027 91.21235Q287.1059 91.6811 287.96527 91.6811Q288.88715 91.6811 289.37152 91.196724Q289.8559 90.71235 289.8559 89.821724Q289.8559 88.96235 289.32465 88.4936Q288.7934 88.02485 287.77777 88.009224L286.84027 88.009224L286.84027 86.977974ZM293.57465 87.58735L294.09027 82.6186L299.18402 82.6186L299.18402 83.790474L295.15277 83.790474L294.8559 86.4936Q295.59027 86.071724 296.51215 86.071724Q297.87152 86.071724 298.6684 86.977974Q299.4809 87.8686 299.4809 89.39985Q299.4809 90.9311 298.63715 91.821724Q297.80902 92.71235 296.32465 92.71235Q295.01215 92.71235 294.1684 91.977974Q293.34027 91.2436 293.21527 89.946724L294.4184 89.946724Q294.52777 90.8061 295.01215 91.2436Q295.51215 91.6811 296.32465 91.6811Q297.19965 91.6811 297.69965 91.08735Q298.21527 90.477974 298.21527 89.415474Q298.21527 88.415474 297.6684 87.821724Q297.12152 87.21235 296.21527 87.21235Q295.40277 87.21235 294.9184 87.571724L294.59027 87.83735L293.57465 87.58735Z" fill-rule="nonzero"/><path fill="#f4b400" d="M326.06375 69.417336C338.22552 75.220215 349.5425 82.64858 359.7042 91.49861L262.0 203.68333Z" fill-rule="nonzero"/><path fill="#000000" d="M315.31747 107.15007L316.25497 107.15007Q317.16122 107.134445 317.66122 106.68132Q318.17685 106.228195 318.17685 105.446945Q318.17685 103.696945 316.44247 103.696945Q315.61435 103.696945 315.12997 104.165695Q314.6456 104.634445 314.6456 105.40007L313.37997 105.40007Q313.37997 104.21257 314.23935 103.43132Q315.11435 102.65007 316.44247 102.65007Q317.84872 102.65007 318.6456 103.40007Q319.44247 104.15007 319.44247 105.46257Q319.44247 106.11882 319.0206 106.728195Q318.61435 107.33757 317.87997 107.634445Q318.7081 107.90007 319.1456 108.509445Q319.59872 109.103195 319.59872 109.96257Q319.59872 111.30632 318.72372 112.103195Q317.84872 112.884445 316.44247 112.884445Q315.05185 112.884445 314.16122 112.134445Q313.28622 111.36882 313.28622 110.11882L314.56747 110.11882Q314.56747 110.90007 315.06747 111.384445Q315.5831 111.853195 316.44247 111.853195Q317.36435 111.853195 317.84872 111.36882Q318.3331 110.884445 318.3331 109.99382Q318.3331 109.134445 317.80185 108.665695Q317.2706 108.196945 316.25497 108.18132L315.31747 108.18132L315.31747 107.15007ZM327.50497 105.384445Q327.50497 106.134445 327.11435 106.71257Q326.72372 107.290695 326.05185 107.61882Q326.8331 107.96257 327.28622 108.603195Q327.73935 109.24382 327.73935 110.05632Q327.73935 111.353195 326.86435 112.11882Q326.00497 112.884445 324.5831 112.884445Q323.1456 112.884445 322.2706 112.11882Q321.41122 111.33757 321.41122 110.05632Q321.41122 109.24382 321.84872 108.603195Q322.28622 107.946945 323.06747 107.61882Q322.41122 107.290695 322.0206 106.71257Q321.6456 106.11882 321.6456 105.384445Q321.6456 104.134445 322.44247 103.40007Q323.25497 102.65007 324.5831 102.65007Q325.8956 102.65007 326.69247 103.40007Q327.50497 104.134445 327.50497 105.384445ZM326.47372 110.02507Q326.47372 109.196945 325.94247 108.68132Q325.41122 108.15007 324.55185 108.15007Q323.7081 108.15007 323.19247 108.665695Q322.67685 109.18132 322.67685 110.040695Q322.67685 110.884445 323.17685 111.36882Q323.67685 111.853195 324.5831 111.853195Q325.4581 111.853195 325.9581 111.36882Q326.47372 110.86882 326.47372 110.02507ZM324.5831 103.696945Q323.8331 103.696945 323.36435 104.165695Q322.91122 104.61882 322.91122 105.415695Q322.91122 106.165695 323.36435 106.634445Q323.81747 107.103195 324.56747 107.103195Q325.3331 107.103195 325.78622 106.634445Q326.23935 106.165695 326.23935 105.415695Q326.23935 104.65007 325.7706 104.18132Q325.30185 103.696945 324.5831 103.696945ZM335.8956 103.49382L331.7706 112.74382L330.4581 112.74382L334.55185 103.821945L329.17685 103.821945L329.17685 102.790695L335.8956 102.790695L335.8956 103.49382Z" fill-rule="nonzero"/><path fill="#0f9d58" d="M359.7042 91.49861C408.71457 134.18285 424.34372 203.74156 398.3037 263.28885C372.2637 322.83615 310.5827 358.5872 245.96913 351.58374L262.0 203.68333Z" fill-rule="nonzero"/><path fill="#ffffff" d="M347.49503 246.46083L348.43253 246.46083Q349.33878 246.4452 349.83878 245.99208Q350.3544 245.53896 350.3544 244.7577Q350.3544 243.0077 348.62003 243.0077Q347.7919 243.0077 347.30753 243.47646Q346.82315 243.9452 346.82315 244.71083L345.55753 244.71083Q345.55753 243.52333 346.4169 242.74208Q347.2919 241.96083 348.62003 241.96083Q350.02628 241.96083 350.82315 242.71083Q351.62003 243.46083 351.62003 244.77333Q351.62003 245.42958 351.19815 246.03896Q350.7919 246.64833 350.05753 246.9452Q350.88565 247.21083 351.32315 247.8202Q351.77628 248.41396 351.77628 249.27333Q351.77628 250.61708 350.90128 251.41396Q350.02628 252.1952 348.62003 252.1952Q347.2294 252.1952 346.33878 251.4452Q345.46378 250.67958 345.46378 249.42958L346.74503 249.42958Q346.74503 250.21083 347.24503 250.6952Q347.76065 251.16396 348.62003 251.16396Q349.5419 251.16396 350.02628 250.67958Q350.51065 250.1952 350.51065 249.30458Q350.51065 248.4452 349.9794 247.97646Q349.44815 247.5077 348.43253 247.49208L347.49503 247.49208L347.49503 246.46083ZM353.74503 254.03896L353.02628 253.53896Q353.6669 252.64833 353.69815 251.6952L353.69815 250.55458L354.93253 250.55458L354.93253 251.55458Q354.93253 252.24208 354.58878 252.92958Q354.24503 253.61708 353.74503 254.03896ZM361.62003 242.10146L361.62003 243.16396L361.38565 243.16396Q359.90128 243.1952 359.02628 244.03896Q358.15128 244.8827 358.01065 246.42958Q358.80753 245.52333 360.1669 245.52333Q361.46378 245.52333 362.2294 246.4452Q363.01065 247.35146 363.01065 248.80458Q363.01065 250.35146 362.1669 251.27333Q361.33878 252.1952 359.93253 252.1952Q358.51065 252.1952 357.62003 251.10146Q356.7294 249.99208 356.7294 248.27333L356.7294 247.78896Q356.7294 245.03896 357.90128 243.58583Q359.07315 242.1327 361.38565 242.10146L361.62003 242.10146ZM359.94815 246.58583Q359.30753 246.58583 358.76065 246.97646Q358.21378 247.35146 357.99503 247.9452L357.99503 248.41396Q357.99503 249.64833 358.5419 250.39833Q359.1044 251.14833 359.93253 251.14833Q360.7919 251.14833 361.27628 250.52333Q361.76065 249.8827 361.76065 248.86708Q361.76065 247.83583 361.26065 247.21083Q360.77628 246.58583 359.94815 246.58583ZM368.80753 252.05458L367.5419 252.05458L367.5419 243.6327L364.9794 244.55458L364.9794 243.41396L368.6044 242.05458L368.80753 242.05458L368.80753 252.05458ZM374.49503 246.46083L375.43253 246.46083Q376.33878 246.4452 376.83878 245.99208Q377.3544 245.53896 377.3544 244.7577Q377.3544 243.0077 375.62003 243.0077Q374.7919 243.0077 374.30753 243.47646Q373.82315 243.9452 373.82315 244.71083L372.55753 244.71083Q372.55753 243.52333 373.4169 242.74208Q374.2919 241.96083 375.62003 241.96083Q377.02628 241.96083 377.82315 242.71083Q378.62003 243.46083 378.62003 244.77333Q378.62003 245.42958 378.19815 246.03896Q377.7919 246.64833 377.05753 246.9452Q377.88565 247.21083 378.32315 247.8202Q378.77628 248.41396 378.77628 249.27333Q378.77628 250.61708 377.90128 251.41396Q377.02628 252.1952 375.62003 252.1952Q374.2294 252.1952 373.33878 251.4452Q372.46378 250.67958 372.46378 249.42958L373.74503 249.42958Q373.74503 250.21083 374.24503 250.6952Q374.76065 251.16396 375.62003 251.16396Q376.5419 251.16396 377.02628 250.67958Q377.51065 250.1952 377.51065 249.30458Q377.51065 248.4452 376.9794 247.97646Q376.44815 247.5077 375.43253 247.49208L374.49503 247.49208L374.49503 246.46083Z" fill-rule="nonzero"/><path fill="#ff6d00" d="M245.96913 351.58374C234.44626 350.33478 223.10881 347.7435 212.18748 343.86264L262.0 203.68333Z" fill-rule="nonzero"/><path fill="#46bdc6" d="M212.18748 343.86264C143.9573 319.61713 103.09432 249.76704 115.3959 178.40968C127.697464 107.05233 189.59004 54.916668 262.0 54.916668L262.0 203.68333Z" fill-rule="nonzero"/><path fill="#000000" d="M136.94579 183.58728L137.88329 183.58728Q138.78954 183.57166 139.28954 183.11853Q139.80516 182.6654 139.80516 181.88416Q139.80516 180.13416 138.07079 180.13416Q137.24266 180.13416 136.75829 180.6029Q136.27391 181.07166 136.27391 181.83728L135.00829 181.83728Q135.00829 180.64978 135.86766 179.86853Q136.74266 179.08728 138.07079 179.08728Q139.47704 179.08728 140.27391 179.83728Q141.07079 180.58728 141.07079 181.89978Q141.07079 182.55603 140.64891 183.1654Q140.24266 183.77478 139.50829 184.07166Q140.33641 184.33728 140.77391 184.94666Q141.22704 185.5404 141.22704 186.39978Q141.22704 187.74353 140.35204 188.5404Q139.47704 189.32166 138.07079 189.32166Q136.68016 189.32166 135.78954 188.57166Q134.91454 187.80603 134.91454 186.55603L136.19579 186.55603Q136.19579 187.33728 136.69579 187.82166Q137.21141 188.2904 138.07079 188.2904Q138.99266 188.2904 139.47704 187.80603Q139.96141 187.32166 139.96141 186.43103Q139.96141 185.57166 139.43016 185.1029Q138.89891 184.63416 137.88329 184.61853L136.94579 184.61853L136.94579 183.58728ZM143.19579 191.1654L142.47704 190.6654Q143.11766 189.77478 143.14891 188.82166L143.14891 187.68103L144.38329 187.68103L144.38329 188.68103Q144.38329 189.36853 144.03954 190.05603Q143.69579 190.74353 143.19579 191.1654ZM150.94579 184.80603Q150.55516 185.27478 149.99266 185.57166Q149.44579 185.8529 148.78954 185.8529Q147.93016 185.8529 147.28954 185.43103Q146.64891 185.00916 146.30516 184.24353Q145.96141 183.46228 145.96141 182.5404Q145.96141 181.5404 146.33641 180.74353Q146.71141 179.93103 147.41454 179.50916Q148.11766 179.08728 149.03954 179.08728Q150.52391 179.08728 151.36766 180.19666Q152.22704 181.30603 152.22704 183.21228L152.22704 183.57166Q152.22704 186.4779 151.07079 187.82166Q149.93016 189.14978 147.60204 189.18103L147.35204 189.18103L147.35204 188.11853L147.63329 188.11853Q149.19579 188.08728 150.02391 187.30603Q150.86766 186.50916 150.94579 184.80603ZM148.99266 184.80603Q149.63329 184.80603 150.16454 184.4154Q150.71141 184.02478 150.96141 183.44666L150.96141 182.94666Q150.96141 181.69666 150.41454 180.93103Q149.86766 180.14978 149.05516 180.14978Q148.21141 180.14978 147.69579 180.7904Q147.19579 181.4154 147.19579 182.46228Q147.19579 183.49353 147.68016 184.14978Q148.18016 184.80603 148.99266 184.80603ZM158.94579 184.80603Q158.55516 185.27478 157.99266 185.57166Q157.44579 185.8529 156.78954 185.8529Q155.93016 185.8529 155.28954 185.43103Q154.64891 185.00916 154.30516 184.24353Q153.96141 183.46228 153.96141 182.5404Q153.96141 181.5404 154.33641 180.74353Q154.71141 179.93103 155.41454 179.50916Q156.11766 179.08728 157.03954 179.08728Q158.52391 179.08728 159.36766 180.19666Q160.22704 181.30603 160.22704 183.21228L160.22704 183.57166Q160.22704 186.4779 159.07079 187.82166Q157.93016 189.14978 155.60204 189.18103L155.35204 189.18103L155.35204 188.11853L155.63329 188.11853Q157.19579 188.08728 158.02391 187.30603Q158.86766 186.50916 158.94579 184.80603ZM156.99266 184.80603Q157.63329 184.80603 158.16454 184.4154Q158.71141 184.02478 158.96141 183.44666L158.96141 182.94666Q158.96141 181.69666 158.41454 180.93103Q157.86766 180.14978 157.05516 180.14978Q156.21141 180.14978 155.69579 180.7904Q155.19579 181.4154 155.19579 182.46228Q155.19579 183.49353 155.68016 184.14978Q156.18016 184.80603 156.99266 184.80603ZM167.44579 185.83728L168.82079 185.83728L168.82079 186.86853L167.44579 186.86853L167.44579 189.18103L166.16454 189.18103L166.16454 186.86853L161.63329 186.86853L161.63329 186.11853L166.08641 179.2279L167.44579 179.2279L167.44579 185.83728ZM163.07079 185.83728L166.16454 185.83728L166.16454 180.96228L166.02391 181.2279L163.07079 185.83728Z" fill-rule="nonzero"/><path fill="#757575" d="M22.05 171.3765Q20.6125 170.95462 19.940624 170.34525Q19.284374 169.73587 19.284374 168.84525Q19.284374 167.84525 20.08125 167.189Q20.89375 166.51712 22.190624 166.51712Q23.065624 166.51712 23.753124 166.86087Q24.440624 167.20462 24.815624 167.79837Q25.20625 168.39212 25.20625 169.11087L24.065624 169.11087Q24.065624 168.32962 23.565624 167.89212Q23.08125 167.45462 22.190624 167.45462Q21.3625 167.45462 20.89375 167.82962Q20.425 168.189 20.425 168.82962Q20.425 169.36087 20.8625 169.72025Q21.315624 170.07962 22.378124 170.3765Q23.440624 170.67337 24.034374 171.03275Q24.64375 171.39212 24.925 171.8765Q25.221874 172.36087 25.221874 173.0015Q25.221874 174.04837 24.409374 174.67337Q23.596874 175.29837 22.253124 175.29837Q21.3625 175.29837 20.596874 174.95462Q19.846874 174.61087 19.425 174.03275Q19.01875 173.439 19.01875 172.70462L20.14375 172.70462Q20.14375 173.47025 20.721874 173.92337Q21.3 174.3765 22.253124 174.3765Q23.14375 174.3765 23.6125 174.01712Q24.08125 173.64212 24.08125 173.01712Q24.08125 172.39212 23.64375 172.04837Q23.20625 171.70462 22.05 171.3765ZM31.721874 172.07962Q31.721874 173.51712 31.065624 174.40775Q30.409374 175.29837 29.26875 175.29837Q28.1125 175.29837 27.45625 174.564L27.45625 177.61087L26.378124 177.61087L26.378124 168.82962L27.3625 168.82962L27.409374 169.53275Q28.08125 168.72025 29.253124 168.72025Q30.39375 168.72025 31.05 169.57962Q31.721874 170.439 31.721874 171.97025L31.721874 172.07962ZM30.64375 171.95462Q30.64375 170.8765 30.175 170.26712Q29.721874 169.64212 28.925 169.64212Q27.940624 169.64212 27.45625 170.5015L27.45625 173.53275Q27.940624 174.40775 28.940624 174.40775Q29.721874 174.40775 30.175 173.79837Q30.64375 173.17337 30.64375 171.95462ZM34.55 175.17337L33.471874 175.17337L33.471874 168.82962L34.55 168.82962L34.55 175.17337ZM33.378124 167.15775Q33.378124 166.89212 33.534374 166.70462Q33.70625 166.51712 34.01875 166.51712Q34.33125 166.51712 34.4875 166.70462Q34.659374 166.89212 34.659374 167.15775Q34.659374 167.40775 34.4875 167.59525Q34.33125 167.76712 34.01875 167.76712Q33.70625 167.76712 33.534374 167.59525Q33.378124 167.40775 33.378124 167.15775ZM37.39375 168.82962L37.425 169.6265Q38.159374 168.72025 39.33125 168.72025Q41.346874 168.72025 41.3625 170.98587L41.3625 175.17337L40.26875 175.17337L40.26875 170.97025Q40.26875 170.29837 39.95625 169.97025Q39.659374 169.64212 39.003124 169.64212Q38.471874 169.64212 38.065624 169.92337Q37.675 170.20462 37.45625 170.65775L37.45625 175.17337L36.378124 175.17337L36.378124 168.82962L37.39375 168.82962ZM43.1125 171.95462Q43.1125 170.48587 43.8 169.61087Q44.4875 168.72025 45.6125 168.72025Q46.721874 168.72025 47.378124 169.47025L47.378124 166.17337L48.45625 166.17337L48.45625 175.17337L47.45625 175.17337L47.409374 174.48587Q46.753124 175.29837 45.596874 175.29837Q44.503124 175.29837 43.8 174.39212Q43.1125 173.48587 43.1125 172.03275L43.1125 171.95462ZM44.190624 172.07962Q44.190624 173.15775 44.628124 173.76712Q45.08125 174.3765 45.8625 174.3765Q46.89375 174.3765 47.378124 173.439L47.378124 170.53275Q46.89375 169.64212 45.878124 169.64212Q45.08125 169.64212 44.628124 170.2515Q44.190624 170.86087 44.190624 172.07962ZM51.55 175.17337L50.471874 175.17337L50.471874 166.17337L51.55 166.17337L51.55 175.17337ZM56.003124 175.29837Q54.70625 175.29837 53.89375 174.45462Q53.096874 173.59525 53.096874 172.17337L53.096874 171.98587Q53.096874 171.03275 53.45625 170.29837Q53.815624 169.54837 54.45625 169.14212Q55.1125 168.72025 55.8625 168.72025Q57.096874 168.72025 57.784374 169.53275Q58.471874 170.34525 58.471874 171.86087L58.471874 172.314L54.175 172.314Q54.20625 173.2515 54.721874 173.82962Q55.253124 174.40775 56.065624 174.40775Q56.628124 174.40775 57.01875 174.17337Q57.425 173.939 57.7375 173.54837L58.39375 174.064Q57.596874 175.29837 56.003124 175.29837ZM55.8625 169.61087Q55.20625 169.61087 54.753124 170.09525Q54.315624 170.564 54.221874 171.42337L57.39375 171.42337L57.39375 171.34525Q57.346874 170.51712 56.940624 170.064Q56.55 169.61087 55.8625 169.61087ZM62.14375 172.8765Q62.14375 172.26712 62.4875 171.7515Q62.83125 171.23587 63.8 170.54837Q63.221874 169.86087 63.034374 169.439Q62.846874 169.01712 62.846874 168.59525Q62.846874 167.6265 63.409374 167.07962Q63.9875 166.51712 64.97188 166.51712Q65.84688 166.51712 66.425 167.03275Q67.00313 167.54837 67.00313 168.32962Q67.00313 168.84525 66.7375 169.28275Q66.47188 169.72025 65.83125 170.20462L65.20625 170.65775L67.09688 172.92337Q67.50313 172.17337 67.50313 171.23587L68.47188 171.23587Q68.47188 172.73587 67.75313 173.72025L68.97188 175.17337L67.675 175.17337L67.1125 174.5015Q66.675 174.89212 66.08125 175.09525Q65.50313 175.29837 64.90938 175.29837Q63.659374 175.29837 62.89375 174.64212Q62.14375 173.97025 62.14375 172.8765ZM64.90938 174.40775Q65.76875 174.40775 66.47188 173.7515L64.39375 171.2515L64.20625 171.39212Q63.221874 172.1265 63.221874 172.8765Q63.221874 173.57962 63.675 174.0015Q64.12813 174.40775 64.90938 174.40775ZM63.925 168.564Q63.925 169.1265 64.6125 169.97025L65.3 169.48587Q65.70625 169.20462 65.84688 168.95462Q66.00313 168.689 66.00313 168.32962Q66.00313 167.939 65.70625 167.67337Q65.40938 167.40775 64.97188 167.40775Q64.4875 167.40775 64.20625 167.73587Q63.925 168.064 63.925 168.564ZM72.1125 171.95462Q72.1125 170.48587 72.8 169.61087Q73.4875 168.72025 74.6125 168.72025Q75.72188 168.72025 76.37813 169.47025L76.37813 166.17337L77.45625 166.17337L77.45625 175.17337L76.45625 175.17337L76.40938 174.48587Q75.75313 175.29837 74.59688 175.29837Q73.50313 175.29837 72.8 174.39212Q72.1125 173.48587 72.1125 172.03275L72.1125 171.95462ZM73.19063 172.07962Q73.19063 173.15775 73.62813 173.76712Q74.08125 174.3765 74.8625 174.3765Q75.89375 174.3765 76.37813 173.439L76.37813 170.53275Q75.89375 169.64212 74.87813 169.64212Q74.08125 169.64212 73.62813 170.2515Q73.19063 170.86087 73.19063 172.07962ZM82.44063 169.79837Q82.19063 169.76712 81.90938 169.76712Q80.83125 169.76712 80.45625 170.67337L80.45625 175.17337L79.37813 175.17337L79.37813 168.82962L80.425 168.82962L80.44063 169.564Q80.97188 168.72025 81.95625 168.72025Q82.26875 168.72025 82.44063 168.79837L82.44063 169.79837ZM84.55 175.17337L83.47188 175.17337L83.47188 168.82962L84.55 168.82962L84.55 175.17337ZM83.37813 167.15775Q83.37813 166.89212 83.53438 166.70462Q83.70625 166.51712 84.01875 166.51712Q84.33125 166.51712 84.4875 166.70462Q84.65938 166.89212 84.65938 167.15775Q84.65938 167.40775 84.4875 167.59525Q84.33125 167.76712 84.01875 167.76712Q83.70625 167.76712 83.53438 167.59525Q83.37813 167.40775 83.37813 167.15775ZM88.45625 173.70462L90.03438 168.82962L91.14375 168.82962L88.8625 175.17337L88.03438 175.17337L85.7375 168.82962L86.84688 168.82962L88.45625 173.70462ZM95.00313 175.29837Q93.70625 175.29837 92.89375 174.45462Q92.09688 173.59525 92.09688 172.17337L92.09688 171.98587Q92.09688 171.03275 92.45625 170.29837Q92.81563 169.54837 93.45625 169.14212Q94.1125 168.72025 94.8625 168.72025Q96.09688 168.72025 96.78438 169.53275Q97.47188 170.34525 97.47188 171.86087L97.47188 172.314L93.175 172.314Q93.20625 173.2515 93.72188 173.82962Q94.25313 174.40775 95.06563 174.40775Q95.62813 174.40775 96.01875 174.17337Q96.425 173.939 96.7375 173.54837L97.39375 174.064Q96.59688 175.29837 95.00313 175.29837ZM94.8625 169.61087Q94.20625 169.61087 93.75313 170.09525Q93.31563 170.564 93.22188 171.42337L96.39375 171.42337L96.39375 171.34525Q96.34688 170.51712 95.94063 170.064Q95.55 169.61087 94.8625 169.61087ZM101.44063 169.79837Q101.19063 169.76712 100.90938 169.76712Q99.83125 169.76712 99.45625 170.67337L99.45625 175.17337L98.37813 175.17337L98.37813 168.82962L99.425 168.82962L99.44063 169.564Q99.97188 168.72025 100.95625 168.72025Q101.26875 168.72025 101.44063 168.79837L101.44063 169.79837Z" fill-rule="nonzero"/><path fill="#9e9e9e" d="M23.83125 190.314L25.01875 190.314L25.01875 191.189L23.83125 191.189L23.83125 193.17337L22.753124 193.17337L22.753124 191.189L18.8625 191.189L18.8625 190.54837L22.675 184.64212L23.83125 184.64212L23.83125 190.314ZM20.096874 190.314L22.753124 190.314L22.753124 186.1265L22.6125 186.36087L20.096874 190.314ZM30.83125 190.314L32.01875 190.314L32.01875 191.189L30.83125 191.189L30.83125 193.17337L29.753124 193.17337L29.753124 191.189L25.8625 191.189L25.8625 190.54837L29.675 184.64212L30.83125 184.64212L30.83125 190.314ZM27.096874 190.314L29.753124 190.314L29.753124 186.1265L29.6125 186.36087L27.096874 190.314ZM33.33125 194.8765L32.721874 194.45462Q33.26875 193.689 33.3 192.86087L33.3 191.89212L34.3625 191.89212L34.3625 192.73587Q34.3625 193.32962 34.065624 193.92337Q33.76875 194.51712 33.33125 194.8765ZM39.51875 184.64212L39.51875 185.54837L39.315624 185.54837Q38.05 185.57962 37.3 186.314Q36.55 187.03275 36.425 188.34525Q37.1125 187.57962 38.26875 187.57962Q39.378124 187.57962 40.05 188.36087Q40.721874 189.14212 40.721874 190.39212Q40.721874 191.70462 40.003124 192.5015Q39.284374 193.29837 38.065624 193.29837Q36.846874 193.29837 36.08125 192.36087Q35.33125 191.40775 35.33125 189.92337L35.33125 189.51712Q35.33125 187.15775 36.33125 185.90775Q37.33125 184.65775 39.315624 184.64212L39.51875 184.64212ZM38.096874 188.48587Q37.534374 188.48587 37.065624 188.814Q36.596874 189.14212 36.409374 189.65775L36.409374 190.04837Q36.409374 191.11087 36.878124 191.7515Q37.3625 192.39212 38.065624 192.39212Q38.8 192.39212 39.221874 191.86087Q39.64375 191.314 39.64375 190.439Q39.64375 189.564 39.221874 189.03275Q38.8 188.48587 38.096874 188.48587ZM42.159374 186.28275Q42.159374 185.51712 42.64375 185.01712Q43.14375 184.51712 43.909374 184.51712Q44.690624 184.51712 45.175 185.01712Q45.659374 185.51712 45.659374 186.314L45.659374 186.73587Q45.659374 187.5015 45.159374 188.0015Q44.675 188.48587 43.925 188.48587Q43.159374 188.48587 42.659374 188.0015Q42.159374 187.5015 42.159374 186.689L42.159374 186.28275ZM42.971874 186.73587Q42.971874 187.189 43.221874 187.48587Q43.4875 187.78275 43.925 187.78275Q44.346874 187.78275 44.596874 187.5015Q44.846874 187.20462 44.846874 186.70462L44.846874 186.28275Q44.846874 185.82962 44.596874 185.53275Q44.346874 185.22025 43.909374 185.22025Q43.471874 185.22025 43.221874 185.53275Q42.971874 185.82962 42.971874 186.29837L42.971874 186.73587ZM46.315624 191.07962Q46.315624 190.314 46.8 189.82962Q47.3 189.32962 48.065624 189.32962Q48.83125 189.32962 49.315624 189.82962Q49.815624 190.314 49.815624 191.1265L49.815624 191.53275Q49.815624 192.29837 49.33125 192.79837Q48.846874 193.29837 48.08125 193.29837Q47.315624 193.29837 46.815624 192.814Q46.315624 192.314 46.315624 191.5015L46.315624 191.07962ZM47.128124 191.53275Q47.128124 192.0015 47.378124 192.29837Q47.64375 192.59525 48.08125 192.59525Q48.503124 192.59525 48.753124 192.314Q49.003124 192.01712 49.003124 191.51712L49.003124 191.07962Q49.003124 190.61087 48.7375 190.32962Q48.4875 190.03275 48.065624 190.03275Q47.64375 190.03275 47.378124 190.32962Q47.128124 190.61087 47.128124 191.11087L47.128124 191.53275ZM44.175 192.53275L43.55 192.14212L47.721874 185.47025L48.33125 185.86087L44.175 192.53275Z" fill-rule="nonzero"/><path stroke="#757575" stroke-width="1.0" stroke-linecap="butt" d="M18.55 179.67337L107.23333 179.67337L122.7261 179.67337" fill-rule="nonzero"/><path fill="#9e9e9e" d="M124.7261 179.67337C124.7261 178.5688 123.830666 177.67337 122.7261 177.67337C121.62153 177.67337 120.7261 178.5688 120.7261 179.67337C120.7261 180.77794 121.62153 181.67337 122.7261 181.67337C123.830666 181.67337 124.7261 180.77794 124.7261 179.67337" fill-rule="nonzero"/><path fill="#757575" d="M20.659374 328.10626L20.659374 331.45L19.534374 331.45L19.534374 322.91876L22.690624 322.91876Q24.08125 322.91876 24.878124 323.6375Q25.675 324.34064 25.675 325.52814Q25.675 326.7625 24.89375 327.4344Q24.128124 328.10626 22.675 328.10626L20.659374 328.10626ZM20.659374 327.1844L22.690624 327.1844Q23.596874 327.1844 24.065624 326.7625Q24.55 326.34064 24.55 325.54376Q24.55 324.77814 24.065624 324.325Q23.596874 323.85626 22.753124 323.84064L20.659374 323.84064L20.659374 327.1844ZM27.08125 328.21564Q27.08125 327.29376 27.440624 326.54376Q27.815624 325.79376 28.471874 325.40314Q29.128124 324.9969 29.95625 324.9969Q31.253124 324.9969 32.05 325.8875Q32.8625 326.77814 32.8625 328.27814L32.8625 328.35626Q32.8625 329.27814 32.503124 330.0125Q32.14375 330.7469 31.4875 331.16876Q30.83125 331.575 29.971874 331.575Q28.690624 331.575 27.878124 330.6844Q27.08125 329.77814 27.08125 328.29376L27.08125 328.21564ZM28.175 328.35626Q28.175 329.40314 28.659374 330.04376Q29.159374 330.6844 29.971874 330.6844Q30.8 330.6844 31.284374 330.04376Q31.76875 329.3875 31.76875 328.21564Q31.76875 327.1844 31.26875 326.54376Q30.784374 325.8875 29.95625 325.8875Q29.159374 325.8875 28.659374 326.52814Q28.175 327.15314 28.175 328.35626ZM39.9875 329.95L41.20625 325.10626L42.284374 325.10626L40.440624 331.45L39.565624 331.45L38.01875 326.6375L36.51875 331.45L35.64375 331.45L33.8 325.10626L34.878124 325.10626L36.128124 329.85626L37.6125 325.10626L38.471874 325.10626L39.9875 329.95ZM46.003124 331.575Q44.70625 331.575 43.89375 330.73126Q43.096874 329.8719 43.096874 328.45L43.096874 328.2625Q43.096874 327.3094 43.45625 326.575Q43.815624 325.825 44.45625 325.41876Q45.1125 324.9969 45.8625 324.9969Q47.096874 324.9969 47.784374 325.8094Q48.471874 326.6219 48.471874 328.1375L48.471874 328.59064L44.175 328.59064Q44.20625 329.52814 44.721874 330.10626Q45.253124 330.6844 46.065624 330.6844Q46.628124 330.6844 47.01875 330.45Q47.425 330.21564 47.7375 329.825L48.39375 330.34064Q47.596874 331.575 46.003124 331.575ZM45.8625 325.8875Q45.20625 325.8875 44.753124 326.3719Q44.315624 326.84064 44.221874 327.7L47.39375 327.7L47.39375 327.6219Q47.346874 326.79376 46.940624 326.34064Q46.55 325.8875 45.8625 325.8875ZM52.440624 326.075Q52.190624 326.04376 51.909374 326.04376Q50.83125 326.04376 50.45625 326.95L50.45625 331.45L49.378124 331.45L49.378124 325.10626L50.425 325.10626L50.440624 325.84064Q50.971874 324.9969 51.95625 324.9969Q52.26875 324.9969 52.440624 325.075L52.440624 326.075ZM60.065624 329.7625Q60.065624 329.325 59.721874 329.09064Q59.39375 328.84064 58.565624 328.66876Q57.753124 328.4969 57.26875 328.2469Q56.784374 327.9969 56.55 327.66876Q56.33125 327.325 56.33125 326.85626Q56.33125 326.075 56.9875 325.54376Q57.64375 324.9969 58.675 324.9969Q59.753124 324.9969 60.409374 325.5594Q61.08125 326.10626 61.08125 326.96564L60.003124 326.96564Q60.003124 326.52814 59.6125 326.21564Q59.2375 325.8875 58.675 325.8875Q58.08125 325.8875 57.7375 326.15314Q57.409374 326.40314 57.409374 326.8094Q57.409374 327.2 57.721874 327.40314Q58.034374 327.60626 58.846874 327.79376Q59.659374 327.96564 60.159374 328.21564Q60.659374 328.46564 60.89375 328.825Q61.14375 329.1844 61.14375 329.6844Q61.14375 330.54376 60.45625 331.0594Q59.784374 331.575 58.70625 331.575Q57.940624 331.575 57.346874 331.3094Q56.76875 331.02814 56.440624 330.54376Q56.1125 330.0594 56.1125 329.4969L57.190624 329.4969Q57.221874 330.04376 57.628124 330.3719Q58.034374 330.6844 58.70625 330.6844Q59.315624 330.6844 59.690624 330.4344Q60.065624 330.1844 60.065624 329.7625ZM66.28438 330.825Q65.65938 331.575 64.425 331.575Q63.409374 331.575 62.878124 330.98126Q62.346874 330.3875 62.346874 329.23126L62.346874 325.10626L63.425 325.10626L63.425 329.2Q63.425 330.65314 64.59688 330.65314Q65.84688 330.65314 66.25313 329.71564L66.25313 325.10626L67.34688 325.10626L67.34688 331.45L66.31563 331.45L66.28438 330.825ZM74.72188 328.35626Q74.72188 329.79376 74.06563 330.6844Q73.40938 331.575 72.26875 331.575Q71.1125 331.575 70.45625 330.84064L70.45625 333.8875L69.37813 333.8875L69.37813 325.10626L70.3625 325.10626L70.40938 325.8094Q71.08125 324.9969 72.25313 324.9969Q73.39375 324.9969 74.05 325.85626Q74.72188 326.71564 74.72188 328.2469L74.72188 328.35626ZM73.64375 328.23126Q73.64375 327.15314 73.175 326.54376Q72.72188 325.91876 71.925 325.91876Q70.94063 325.91876 70.45625 326.77814L70.45625 329.8094Q70.94063 330.6844 71.94063 330.6844Q72.72188 330.6844 73.175 330.075Q73.64375 329.45 73.64375 328.23126ZM81.72188 328.35626Q81.72188 329.79376 81.06563 330.6844Q80.40938 331.575 79.26875 331.575Q78.1125 331.575 77.45625 330.84064L77.45625 333.8875L76.37813 333.8875L76.37813 325.10626L77.3625 325.10626L77.40938 325.8094Q78.08125 324.9969 79.25313 324.9969Q80.39375 324.9969 81.05 325.85626Q81.72188 326.71564 81.72188 328.2469L81.72188 328.35626ZM80.64375 328.23126Q80.64375 327.15314 80.175 326.54376Q79.72188 325.91876 78.925 325.91876Q77.94063 325.91876 77.45625 326.77814L77.45625 329.8094Q77.94063 330.6844 78.94063 330.6844Q79.72188 330.6844 80.175 330.075Q80.64375 329.45 80.64375 328.23126ZM84.55 331.45L83.47188 331.45L83.47188 322.45L84.55 322.45L84.55 331.45ZM88.44063 329.85626L89.925 325.10626L91.08125 325.10626L88.53438 332.4344Q87.94063 334.0125 86.65938 334.0125L86.44063 333.9969L86.05 333.91876L86.05 333.04376L86.33125 333.0594Q86.89375 333.0594 87.19063 332.84064Q87.50313 332.6219 87.70625 332.02814L87.94063 331.3719L85.675 325.10626L86.8625 325.10626L88.44063 329.85626Z" fill-rule="nonzero"/><path fill="#9e9e9e" d="M20.83125 344.65314L21.64375 344.65314Q22.425 344.6375 22.8625 344.2469Q23.3 343.85626 23.3 343.1844Q23.3 341.6844 21.8 341.6844Q21.096874 341.6844 20.675 342.09064Q20.26875 342.4969 20.26875 343.15314L19.175 343.15314Q19.175 342.1375 19.909374 341.46564Q20.659374 340.79376 21.8 340.79376Q23.003124 340.79376 23.690624 341.4344Q24.378124 342.075 24.378124 343.21564Q24.378124 343.77814 24.01875 344.29376Q23.659374 344.8094 23.034374 345.075Q23.7375 345.29376 24.1125 345.8094Q24.503124 346.325 24.503124 347.075Q24.503124 348.21564 23.753124 348.90314Q23.003124 349.575 21.8 349.575Q20.6125 349.575 19.846874 348.91876Q19.096874 348.2625 19.096874 347.2L20.190624 347.2Q20.190624 347.8719 20.628124 348.27814Q21.065624 348.6844 21.815624 348.6844Q22.596874 348.6844 23.003124 348.27814Q23.425 347.85626 23.425 347.09064Q23.425 346.35626 22.971874 345.96564Q22.51875 345.5594 21.64375 345.54376L20.83125 345.54376L20.83125 344.65314ZM26.33125 351.15314L25.721874 350.73126Q26.26875 349.96564 26.3 349.1375L26.3 348.16876L27.3625 348.16876L27.3625 349.0125Q27.3625 349.60626 27.065624 350.2Q26.76875 350.79376 26.33125 351.15314ZM33.76875 341.52814L30.2375 349.45L29.096874 349.45L32.6125 341.8094L28.003124 341.8094L28.003124 340.91876L33.76875 340.91876L33.76875 341.52814ZM35.159374 342.5594Q35.159374 341.79376 35.64375 341.29376Q36.14375 340.79376 36.909374 340.79376Q37.690624 340.79376 38.175 341.29376Q38.659374 341.79376 38.659374 342.59064L38.659374 343.0125Q38.659374 343.77814 38.159374 344.27814Q37.675 344.7625 36.925 344.7625Q36.159374 344.7625 35.659374 344.27814Q35.159374 343.77814 35.159374 342.96564L35.159374 342.5594ZM35.971874 343.0125Q35.971874 343.46564 36.221874 343.7625Q36.4875 344.0594 36.925 344.0594Q37.346874 344.0594 37.596874 343.77814Q37.846874 343.48126 37.846874 342.98126L37.846874 342.5594Q37.846874 342.10626 37.596874 341.8094Q37.346874 341.4969 36.909374 341.4969Q36.471874 341.4969 36.221874 341.8094Q35.971874 342.10626 35.971874 342.575L35.971874 343.0125ZM39.315624 347.35626Q39.315624 346.59064 39.8 346.10626Q40.3 345.60626 41.065624 345.60626Q41.83125 345.60626 42.315624 346.10626Q42.815624 346.59064 42.815624 347.40314L42.815624 347.8094Q42.815624 348.575 42.33125 349.075Q41.846874 349.575 41.08125 349.575Q40.315624 349.575 39.815624 349.09064Q39.315624 348.59064 39.315624 347.77814L39.315624 347.35626ZM40.128124 347.8094Q40.128124 348.27814 40.378124 348.575Q40.64375 348.8719 41.08125 348.8719Q41.503124 348.8719 41.753124 348.59064Q42.003124 348.29376 42.003124 347.79376L42.003124 347.35626Q42.003124 346.8875 41.7375 346.60626Q41.4875 346.3094 41.065624 346.3094Q40.64375 346.3094 40.378124 346.60626Q40.128124 346.8875 40.128124 347.3875L40.128124 347.8094ZM37.175 348.8094L36.55 348.41876L40.721874 341.7469L41.33125 342.1375L37.175 348.8094Z" fill-rule="nonzero"/><path stroke="#757575" stroke-width="1.0" stroke-linecap="butt" d="M18.55 335.95L107.23333 335.95L230.51009 341.4588" fill-rule="nonzero"/><path fill="#9e9e9e" d="M232.51009 341.4588C232.51009 340.35425 231.61465 339.4588 230.51009 339.4588C229.40552 339.4588 228.51009 340.35425 228.51009 341.4588C228.51009 342.5634 229.40552 343.4588 230.51009 343.4588C231.61465 343.4588 232.51009 342.5634 232.51009 341.4588" fill-rule="nonzero"/><path fill="#757575" d="M459.4344 66.916664L459.4344 58.385414L462.23126 58.385414Q463.6219 58.385414 464.3094 58.96354Q465.0125 59.52604 465.0125 60.65104Q465.0125 61.260414 464.66876 61.729164Q464.34064 62.18229 463.7469 62.43229Q464.45 62.61979 464.84064 63.166664Q465.2469 63.697914 465.2469 64.447914Q465.2469 65.604164 464.4969 66.260414Q463.7625 66.916664 462.40314 66.916664L459.4344 66.916664ZM460.5594 62.93229L460.5594 65.99479L462.41876 65.99479Q463.21564 65.99479 463.66876 65.58854Q464.1219 65.18229 464.1219 64.46354Q464.1219 62.93229 462.4344 62.93229L460.5594 62.93229ZM460.5594 62.02604L462.2625 62.02604Q462.9969 62.02604 463.4344 61.666664Q463.8875 61.291664 463.8875 60.65104Q463.8875 59.947914 463.48126 59.635414Q463.075 59.30729 462.23126 59.30729L460.5594 59.30729L460.5594 62.02604ZM468.90314 67.041664Q467.60626 67.041664 466.79376 66.197914Q465.9969 65.33854 465.9969 63.916664L465.9969 63.729164Q465.9969 62.77604 466.35626 62.041664Q466.71564 61.291664 467.35626 60.885414Q468.0125 60.46354 468.7625 60.46354Q469.9969 60.46354 470.6844 61.27604Q471.3719 62.08854 471.3719 63.604164L471.3719 64.05729L467.075 64.05729Q467.10626 64.99479 467.6219 65.572914Q468.15314 66.15104 468.96564 66.15104Q469.52814 66.15104 469.91876 65.916664Q470.325 65.68229 470.6375 65.291664L471.29376 65.80729Q470.4969 67.041664 468.90314 67.041664ZM468.7625 61.354164Q468.10626 61.354164 467.65314 61.83854Q467.21564 62.30729 467.1219 63.166664L470.29376 63.166664L470.29376 63.08854Q470.2469 62.260414 469.84064 61.80729Q469.45 61.354164 468.7625 61.354164ZM476.1844 66.916664Q476.09064 66.729164 476.02814 66.24479Q475.27814 67.041664 474.23126 67.041664Q473.29376 67.041664 472.6844 66.510414Q472.09064 65.979164 472.09064 65.15104Q472.09064 64.166664 472.84064 63.61979Q473.59064 63.072914 474.96564 63.072914L476.0125 63.072914L476.0125 62.572914Q476.0125 62.010414 475.66876 61.68229Q475.34064 61.33854 474.66876 61.33854Q474.09064 61.33854 473.7 61.635414Q473.3094 61.916664 473.3094 62.33854L472.21564 62.33854Q472.21564 61.854164 472.54376 61.416664Q472.8875 60.979164 473.46564 60.729164Q474.04376 60.46354 474.73126 60.46354Q475.84064 60.46354 476.45 61.010414Q477.075 61.55729 477.10626 62.510414L477.10626 65.43229Q477.10626 66.30729 477.325 66.822914L477.325 66.916664L476.1844 66.916664ZM474.3875 66.08854Q474.90314 66.08854 475.35626 65.822914Q475.8094 65.55729 476.0125 65.135414L476.0125 63.83854L475.16876 63.83854Q473.16876 63.83854 473.16876 65.010414Q473.16876 65.510414 473.5125 65.80729Q473.85626 66.08854 474.3875 66.08854ZM482.34064 61.541664Q482.09064 61.510414 481.8094 61.510414Q480.73126 61.510414 480.35626 62.416664L480.35626 66.916664L479.27814 66.916664L479.27814 60.572914L480.325 60.572914L480.34064 61.30729Q480.8719 60.46354 481.85626 60.46354Q482.16876 60.46354 482.34064 60.541664L482.34064 61.541664ZM484.45 66.916664L483.3719 66.916664L483.3719 60.572914L484.45 60.572914L484.45 66.916664ZM483.27814 58.90104Q483.27814 58.635414 483.4344 58.447914Q483.60626 58.260414 483.91876 58.260414Q484.23126 58.260414 484.3875 58.447914Q484.5594 58.635414 484.5594 58.90104Q484.5594 59.15104 484.3875 59.33854Q484.23126 59.510414 483.91876 59.510414Q483.60626 59.510414 483.4344 59.33854Q483.27814 59.15104 483.27814 58.90104ZM487.29376 60.572914L487.325 61.36979Q488.0594 60.46354 489.23126 60.46354Q491.2469 60.46354 491.2625 62.729164L491.2625 66.916664L490.16876 66.916664L490.16876 62.71354Q490.16876 62.041664 489.85626 61.71354Q489.5594 61.385414 488.90314 61.385414Q488.3719 61.385414 487.96564 61.666664Q487.575 61.947914 487.35626 62.40104L487.35626 66.916664L486.27814 66.916664L486.27814 60.572914L487.29376 60.572914ZM493.0125 63.697914Q493.0125 62.21354 493.7 61.33854Q494.3875 60.46354 495.5125 60.46354Q496.66876 60.46354 497.325 61.27604L497.3719 60.572914L498.3719 60.572914L498.3719 66.760414Q498.3719 67.99479 497.6375 68.697914Q496.90314 69.416664 495.6844 69.416664Q494.9969 69.416664 494.34064 69.11979Q493.6844 68.822914 493.34064 68.322914L493.90314 67.666664Q494.59064 68.52604 495.60626 68.52604Q496.3875 68.52604 496.825 68.072914Q497.27814 67.635414 497.27814 66.822914L497.27814 66.27604Q496.6219 67.041664 495.4969 67.041664Q494.3875 67.041664 493.7 66.15104Q493.0125 65.24479 493.0125 63.697914ZM494.10626 63.822914Q494.10626 64.885414 494.54376 65.510414Q494.98126 66.11979 495.77814 66.11979Q496.79376 66.11979 497.27814 65.18229L497.27814 62.291664Q496.77814 61.385414 495.77814 61.385414Q494.9969 61.385414 494.54376 61.99479Q494.10626 62.604164 494.10626 63.822914ZM503.96564 65.229164Q503.96564 64.791664 503.6219 64.55729Q503.29376 64.30729 502.46564 64.135414Q501.65314 63.96354 501.16876 63.71354Q500.6844 63.46354 500.45 63.135414Q500.23126 62.791664 500.23126 62.322914Q500.23126 61.541664 500.8875 61.010414Q501.54376 60.46354 502.575 60.46354Q503.65314 60.46354 504.3094 61.02604Q504.98126 61.572914 504.98126 62.43229L503.90314 62.43229Q503.90314 61.99479 503.5125 61.68229Q503.1375 61.354164 502.575 61.354164Q501.98126 61.354164 501.6375 61.61979Q501.3094 61.86979 501.3094 62.27604Q501.3094 62.666664 501.6219 62.86979Q501.9344 63.072914 502.7469 63.260414Q503.5594 63.43229 504.0594 63.68229Q504.5594 63.93229 504.79376 64.291664Q505.04376 64.65104 505.04376 65.15104Q505.04376 66.010414 504.35626 66.52604Q503.6844 67.041664 502.60626 67.041664Q501.84064 67.041664 501.2469 66.77604Q500.66876 66.49479 500.34064 66.010414Q500.0125 65.52604 500.0125 64.96354L501.09064 64.96354Q501.1219 65.510414 501.52814 65.83854Q501.9344 66.15104 502.60626 66.15104Q503.21564 66.15104 503.59064 65.90104Q503.96564 65.65104 503.96564 65.229164Z" fill-rule="nonzero"/><path fill="#9e9e9e" d="M486.66876 76.99479L483.1375 84.916664L481.9969 84.916664L485.5125 77.27604L480.90314 77.27604L480.90314 76.385414L486.66876 76.385414L486.66876 76.99479ZM488.23126 86.61979L487.6219 86.197914Q488.16876 85.43229 488.2 84.604164L488.2 83.635414L489.2625 83.635414L489.2625 84.479164Q489.2625 85.072914 488.96564 85.666664Q488.66876 86.260414 488.23126 86.61979ZM493.71564 84.916664L492.6375 84.916664L492.6375 77.697914L490.45 78.49479L490.45 77.510414L493.5594 76.33854L493.71564 76.33854L493.71564 84.916664ZM497.0594 78.02604Q497.0594 77.260414 497.54376 76.760414Q498.04376 76.260414 498.8094 76.260414Q499.59064 76.260414 500.075 76.760414Q500.5594 77.260414 500.5594 78.05729L500.5594 78.479164Q500.5594 79.24479 500.0594 79.74479Q499.575 80.229164 498.825 80.229164Q498.0594 80.229164 497.5594 79.74479Q497.0594 79.24479 497.0594 78.43229L497.0594 78.02604ZM497.8719 78.479164Q497.8719 78.93229 498.1219 79.229164Q498.3875 79.52604 498.825 79.52604Q499.2469 79.52604 499.4969 79.24479Q499.7469 78.947914 499.7469 78.447914L499.7469 78.02604Q499.7469 77.572914 499.4969 77.27604Q499.2469 76.96354 498.8094 76.96354Q498.3719 76.96354 498.1219 77.27604Q497.8719 77.572914 497.8719 78.041664L497.8719 78.479164ZM501.21564 82.822914Q501.21564 82.05729 501.7 81.572914Q502.2 81.072914 502.96564 81.072914Q503.73126 81.072914 504.21564 81.572914Q504.71564 82.05729 504.71564 82.86979L504.71564 83.27604Q504.71564 84.041664 504.23126 84.541664Q503.7469 85.041664 502.98126 85.041664Q502.21564 85.041664 501.71564 84.55729Q501.21564 84.05729 501.21564 83.24479L501.21564 82.822914ZM502.02814 83.27604Q502.02814 83.74479 502.27814 84.041664Q502.54376 84.33854 502.98126 84.33854Q503.40314 84.33854 503.65314 84.05729Q503.90314 83.760414 503.90314 83.260414L503.90314 82.822914Q503.90314 82.354164 503.6375 82.072914Q503.3875 81.77604 502.96564 81.77604Q502.54376 81.77604 502.27814 82.072914Q502.02814 82.354164 502.02814 82.854164L502.02814 83.27604ZM499.075 84.27604L498.45 83.885414L502.6219 77.21354L503.23126 77.604164L499.075 84.27604Z" fill-rule="nonzero"/><path stroke="#757575" stroke-width="1.0" stroke-linecap="butt" d="M505.45 71.416664L416.76666 71.416664L293.20007 65.84193" fill-rule="nonzero"/><path fill="#9e9e9e" d="M295.20007 65.84193C295.20007 64.73736 294.30463 63.841927 293.20007 63.841927C292.0955 63.841927 291.20007 64.73736 291.20007 65.84193C291.20007 66.946495 292.0955 67.84193 293.20007 67.84193C294.30463 67.84193 295.20007 66.946495 295.20007 65.84193" fill-rule="nonzero"/><path fill="#757575" d="M481.71564 97.21354Q481.5594 98.55729 480.71564 99.30729Q479.8719 100.041664 478.48126 100.041664Q476.96564 100.041664 476.0594 98.96354Q475.15314 97.86979 475.15314 96.041664L475.15314 95.229164Q475.15314 94.041664 475.575 93.135414Q475.9969 92.229164 476.77814 91.74479Q477.5594 91.260414 478.575 91.260414Q479.9344 91.260414 480.7469 92.02604Q481.575 92.791664 481.71564 94.11979L480.59064 94.11979Q480.4344 93.104164 479.95 92.65104Q479.46564 92.197914 478.575 92.197914Q477.4969 92.197914 476.8875 92.99479Q476.27814 93.791664 476.27814 95.260414L476.27814 96.08854Q476.27814 97.479164 476.85626 98.30729Q477.4344 99.11979 478.48126 99.11979Q479.41876 99.11979 479.91876 98.697914Q480.41876 98.260414 480.59064 97.21354L481.71564 97.21354ZM487.1844 99.916664Q487.09064 99.729164 487.02814 99.24479Q486.27814 100.041664 485.23126 100.041664Q484.29376 100.041664 483.6844 99.510414Q483.09064 98.979164 483.09064 98.15104Q483.09064 97.166664 483.84064 96.61979Q484.59064 96.072914 485.96564 96.072914L487.0125 96.072914L487.0125 95.572914Q487.0125 95.010414 486.66876 94.68229Q486.34064 94.33854 485.66876 94.33854Q485.09064 94.33854 484.7 94.635414Q484.3094 94.916664 484.3094 95.33854L483.21564 95.33854Q483.21564 94.854164 483.54376 94.416664Q483.8875 93.979164 484.46564 93.729164Q485.04376 93.46354 485.73126 93.46354Q486.84064 93.46354 487.45 94.010414Q488.075 94.55729 488.10626 95.510414L488.10626 98.43229Q488.10626 99.30729 488.325 99.822914L488.325 99.916664L487.1844 99.916664ZM485.3875 99.08854Q485.90314 99.08854 486.35626 98.822914Q486.8094 98.55729 487.0125 98.135414L487.0125 96.83854L486.16876 96.83854Q484.16876 96.83854 484.16876 98.010414Q484.16876 98.510414 484.5125 98.80729Q484.85626 99.08854 485.3875 99.08854ZM495.6375 96.822914Q495.6375 98.27604 494.96564 99.166664Q494.3094 100.041664 493.1844 100.041664Q491.98126 100.041664 491.325 99.18229L491.2625 99.916664L490.27814 99.916664L490.27814 90.916664L491.35626 90.916664L491.35626 94.27604Q492.0125 93.46354 493.16876 93.46354Q494.325 93.46354 494.98126 94.33854Q495.6375 95.197914 495.6375 96.729164L495.6375 96.822914ZM494.5594 96.697914Q494.5594 95.58854 494.1219 94.99479Q493.7 94.385414 492.90314 94.385414Q491.825 94.385414 491.35626 95.36979L491.35626 98.11979Q491.85626 99.11979 492.90314 99.11979Q493.6844 99.11979 494.1219 98.510414Q494.5594 97.90104 494.5594 96.697914ZM498.45 99.916664L497.3719 99.916664L497.3719 90.916664L498.45 90.916664L498.45 99.916664ZM502.90314 100.041664Q501.60626 100.041664 500.79376 99.197914Q499.9969 98.33854 499.9969 96.916664L499.9969 96.729164Q499.9969 95.77604 500.35626 95.041664Q500.71564 94.291664 501.35626 93.885414Q502.0125 93.46354 502.7625 93.46354Q503.9969 93.46354 504.6844 94.27604Q505.3719 95.08854 505.3719 96.604164L505.3719 97.05729L501.075 97.05729Q501.10626 97.99479 501.6219 98.572914Q502.15314 99.15104 502.96564 99.15104Q503.52814 99.15104 503.91876 98.916664Q504.325 98.68229 504.6375 98.291664L505.29376 98.80729Q504.4969 100.041664 502.90314 100.041664ZM502.7625 94.354164Q502.10626 94.354164 501.65314 94.83854Q501.21564 95.30729 501.1219 96.166664L504.29376 96.166664L504.29376 96.08854Q504.2469 95.260414 503.84064 94.80729Q503.45 94.354164 502.7625 94.354164Z" fill-rule="nonzero"/><path fill="#9e9e9e" d="M485.73126 115.05729L486.91876 115.05729L486.91876 115.93229L485.73126 115.93229L485.73126 117.916664L484.65314 117.916664L484.65314 115.93229L480.7625 115.93229L480.7625 115.291664L484.575 109.385414L485.73126 109.385414L485.73126 115.05729ZM481.9969 115.05729L484.65314 115.05729L484.65314 110.86979L484.5125 111.104164L481.9969 115.05729ZM488.23126 119.61979L487.6219 119.197914Q488.16876 118.43229 488.2 117.604164L488.2 116.635414L489.2625 116.635414L489.2625 117.479164Q489.2625 118.072914 488.96564 118.666664Q488.66876 119.260414 488.23126 119.61979ZM491.73126 113.11979L492.54376 113.11979Q493.325 113.104164 493.7625 112.71354Q494.2 112.322914 494.2 111.65104Q494.2 110.15104 492.7 110.15104Q491.9969 110.15104 491.575 110.55729Q491.16876 110.96354 491.16876 111.61979L490.075 111.61979Q490.075 110.604164 490.8094 109.93229Q491.5594 109.260414 492.7 109.260414Q493.90314 109.260414 494.59064 109.90104Q495.27814 110.541664 495.27814 111.68229Q495.27814 112.24479 494.91876 112.760414Q494.5594 113.27604 493.9344 113.541664Q494.6375 113.760414 495.0125 114.27604Q495.40314 114.791664 495.40314 115.541664Q495.40314 116.68229 494.65314 117.36979Q493.90314 118.041664 492.7 118.041664Q491.5125 118.041664 490.7469 117.385414Q489.9969 116.729164 489.9969 115.666664L491.09064 115.666664Q491.09064 116.33854 491.52814 116.74479Q491.96564 117.15104 492.71564 117.15104Q493.4969 117.15104 493.90314 116.74479Q494.325 116.322914 494.325 115.55729Q494.325 114.822914 493.8719 114.43229Q493.41876 114.02604 492.54376 114.010414L491.73126 114.010414L491.73126 113.11979ZM497.0594 111.02604Q497.0594 110.260414 497.54376 109.760414Q498.04376 109.260414 498.8094 109.260414Q499.59064 109.260414 500.075 109.760414Q500.5594 110.260414 500.5594 111.05729L500.5594 111.479164Q500.5594 112.24479 500.0594 112.74479Q499.575 113.229164 498.825 113.229164Q498.0594 113.229164 497.5594 112.74479Q497.0594 112.24479 497.0594 111.43229L497.0594 111.02604ZM497.8719 111.479164Q497.8719 111.93229 498.1219 112.229164Q498.3875 112.52604 498.825 112.52604Q499.2469 112.52604 499.4969 112.24479Q499.7469 111.947914 499.7469 111.447914L499.7469 111.02604Q499.7469 110.572914 499.4969 110.27604Q499.2469 109.96354 498.8094 109.96354Q498.3719 109.96354 498.1219 110.27604Q497.8719 110.572914 497.8719 111.041664L497.8719 111.479164ZM501.21564 115.822914Q501.21564 115.05729 501.7 114.572914Q502.2 114.072914 502.96564 114.072914Q503.73126 114.072914 504.21564 114.572914Q504.71564 115.05729 504.71564 115.86979L504.71564 116.27604Q504.71564 117.041664 504.23126 117.541664Q503.7469 118.041664 502.98126 118.041664Q502.21564 118.041664 501.71564 117.55729Q501.21564 117.05729 501.21564 116.24479L501.21564 115.822914ZM502.02814 116.27604Q502.02814 116.74479 502.27814 117.041664Q502.54376 117.33854 502.98126 117.33854Q503.40314 117.33854 503.65314 117.05729Q503.90314 116.760414 503.90314 116.260414L503.90314 115.822914Q503.90314 115.354164 503.6375 115.072914Q503.3875 114.77604 502.96564 114.77604Q502.54376 114.77604 502.27814 115.072914Q502.02814 115.354164 502.02814 115.854164L502.02814 116.27604ZM499.075 117.27604L498.45 116.885414L502.6219 110.21354L503.23126 110.604164L499.075 117.27604Z" fill-rule="nonzero"/><path stroke="#757575" stroke-width="1.0" stroke-linecap="butt" d="M505.45 104.416664L416.76666 104.416664L339.5523 85.53369" fill-rule="nonzero"/><path fill="#9e9e9e" d="M341.5523 85.53369C341.5523 84.42912 340.6569 83.53369 339.5523 83.53369C338.44775 83.53369 337.5523 84.42912 337.5523 85.53369C337.5523 86.63827 338.44775 87.53369 339.5523 87.53369C340.6569 87.53369 341.5523 86.63827 341.5523 85.53369" fill-rule="nonzero"/><path fill="#757575" d="M420.8875 247.27733L423.6844 254.23045L426.46564 247.27733L427.9344 247.27733L427.9344 255.80858L426.8094 255.80858L426.8094 252.48045L426.91876 248.90233L424.10626 255.80858L423.2469 255.80858L420.45 248.91795L420.5594 252.48045L420.5594 255.80858L419.4344 255.80858L419.4344 247.27733L420.8875 247.27733ZM428.98126 252.5742Q428.98126 251.65233 429.34064 250.90233Q429.71564 250.15233 430.3719 249.7617Q431.02814 249.35545 431.85626 249.35545Q433.15314 249.35545 433.95 250.24608Q434.7625 251.1367 434.7625 252.6367L434.7625 252.71483Q434.7625 253.6367 434.40314 254.37108Q434.04376 255.10545 433.3875 255.52733Q432.73126 255.93358 431.8719 255.93358Q430.59064 255.93358 429.77814 255.04295Q428.98126 254.1367 428.98126 252.65233L428.98126 252.5742ZM430.075 252.71483Q430.075 253.7617 430.5594 254.40233Q431.0594 255.04295 431.8719 255.04295Q432.7 255.04295 433.1844 254.40233Q433.66876 253.74608 433.66876 252.5742Q433.66876 251.54295 433.16876 250.90233Q432.6844 250.24608 431.85626 250.24608Q431.0594 250.24608 430.5594 250.8867Q430.075 251.5117 430.075 252.71483ZM437.7469 247.93358L437.7469 249.46483L438.91876 249.46483L438.91876 250.30858L437.7469 250.30858L437.7469 254.23045Q437.7469 254.62108 437.90314 254.80858Q438.0594 254.99608 438.4344 254.99608Q438.6219 254.99608 438.95 254.93358L438.95 255.80858Q438.52814 255.93358 438.1219 255.93358Q437.40314 255.93358 437.02814 255.49608Q436.65314 255.04295 436.65314 254.23045L436.65314 250.30858L435.4969 250.30858L435.4969 249.46483L436.65314 249.46483L436.65314 247.93358L437.7469 247.93358ZM439.98126 252.5742Q439.98126 251.65233 440.34064 250.90233Q440.71564 250.15233 441.3719 249.7617Q442.02814 249.35545 442.85626 249.35545Q444.15314 249.35545 444.95 250.24608Q445.7625 251.1367 445.7625 252.6367L445.7625 252.71483Q445.7625 253.6367 445.40314 254.37108Q445.04376 255.10545 444.3875 255.52733Q443.73126 255.93358 442.8719 255.93358Q441.59064 255.93358 440.77814 255.04295Q439.98126 254.1367 439.98126 252.65233L439.98126 252.5742ZM441.075 252.71483Q441.075 253.7617 441.5594 254.40233Q442.0594 255.04295 442.8719 255.04295Q443.7 255.04295 444.1844 254.40233Q444.66876 253.74608 444.66876 252.5742Q444.66876 251.54295 444.16876 250.90233Q443.6844 250.24608 442.85626 250.24608Q442.0594 250.24608 441.5594 250.8867Q441.075 251.5117 441.075 252.71483ZM450.34064 250.43358Q450.09064 250.40233 449.8094 250.40233Q448.73126 250.40233 448.35626 251.30858L448.35626 255.80858L447.27814 255.80858L447.27814 249.46483L448.325 249.46483L448.34064 250.1992Q448.8719 249.35545 449.85626 249.35545Q450.16876 249.35545 450.34064 249.43358L450.34064 250.43358ZM454.96564 254.12108Q454.96564 253.68358 454.6219 253.4492Q454.29376 253.1992 453.46564 253.02733Q452.65314 252.85545 452.16876 252.60545Q451.6844 252.35545 451.45 252.02733Q451.23126 251.68358 451.23126 251.21483Q451.23126 250.43358 451.8875 249.90233Q452.54376 249.35545 453.575 249.35545Q454.65314 249.35545 455.3094 249.91795Q455.98126 250.46483 455.98126 251.3242L454.90314 251.3242Q454.90314 250.8867 454.5125 250.5742Q454.1375 250.24608 453.575 250.24608Q452.98126 250.24608 452.6375 250.5117Q452.3094 250.7617 452.3094 251.16795Q452.3094 251.55858 452.6219 251.7617Q452.9344 251.96483 453.7469 252.15233Q454.5594 252.3242 455.0594 252.5742Q455.5594 252.8242 455.79376 253.18358Q456.04376 253.54295 456.04376 254.04295Q456.04376 254.90233 455.35626 255.41795Q454.6844 255.93358 453.60626 255.93358Q452.84064 255.93358 452.2469 255.66795Q451.66876 255.3867 451.34064 254.90233Q451.0125 254.41795 451.0125 253.85545L452.09064 253.85545Q452.1219 254.40233 452.52814 254.73045Q452.9344 255.04295 453.60626 255.04295Q454.21564 255.04295 454.59064 254.79295Q454.96564 254.54295 454.96564 254.12108ZM460.04376 253.5117Q460.04376 252.90233 460.3875 252.3867Q460.73126 251.87108 461.7 251.18358Q461.1219 250.49608 460.9344 250.0742Q460.7469 249.65233 460.7469 249.23045Q460.7469 248.2617 461.3094 247.71483Q461.8875 247.15233 462.8719 247.15233Q463.7469 247.15233 464.325 247.66795Q464.90314 248.18358 464.90314 248.96483Q464.90314 249.48045 464.6375 249.91795Q464.3719 250.35545 463.73126 250.83983L463.10626 251.29295L464.9969 253.55858Q465.40314 252.80858 465.40314 251.87108L466.3719 251.87108Q466.3719 253.37108 465.65314 254.35545L466.8719 255.80858L465.575 255.80858L465.0125 255.1367Q464.575 255.52733 463.98126 255.73045Q463.40314 255.93358 462.8094 255.93358Q461.5594 255.93358 460.79376 255.27733Q460.04376 254.60545 460.04376 253.5117ZM462.8094 255.04295Q463.66876 255.04295 464.3719 254.3867L462.29376 251.8867L462.10626 252.02733Q461.1219 252.7617 461.1219 253.5117Q461.1219 254.21483 461.575 254.6367Q462.02814 255.04295 462.8094 255.04295ZM461.825 249.1992Q461.825 249.7617 462.5125 250.60545L463.2 250.12108Q463.60626 249.83983 463.7469 249.58983Q463.90314 249.3242 463.90314 248.96483Q463.90314 248.5742 463.60626 248.30858Q463.3094 248.04295 462.8719 248.04295Q462.3875 248.04295 462.10626 248.37108Q461.825 248.6992 461.825 249.1992ZM470.0125 252.58983Q470.0125 251.12108 470.7 250.24608Q471.3875 249.35545 472.5125 249.35545Q473.6219 249.35545 474.27814 250.10545L474.27814 246.80858L475.35626 246.80858L475.35626 255.80858L474.35626 255.80858L474.3094 255.12108Q473.65314 255.93358 472.4969 255.93358Q471.40314 255.93358 470.7 255.02733Q470.0125 254.12108 470.0125 252.66795L470.0125 252.58983ZM471.09064 252.71483Q471.09064 253.79295 471.52814 254.40233Q471.98126 255.0117 472.7625 255.0117Q473.79376 255.0117 474.27814 254.0742L474.27814 251.16795Q473.79376 250.27733 472.77814 250.27733Q471.98126 250.27733 471.52814 250.8867Q471.09064 251.49608 471.09064 252.71483ZM480.34064 250.43358Q480.09064 250.40233 479.8094 250.40233Q478.73126 250.40233 478.35626 251.30858L478.35626 255.80858L477.27814 255.80858L477.27814 249.46483L478.325 249.46483L478.34064 250.1992Q478.8719 249.35545 479.85626 249.35545Q480.16876 249.35545 480.34064 249.43358L480.34064 250.43358ZM482.45 255.80858L481.3719 255.80858L481.3719 249.46483L482.45 249.46483L482.45 255.80858ZM481.27814 247.79295Q481.27814 247.52733 481.4344 247.33983Q481.60626 247.15233 481.91876 247.15233Q482.23126 247.15233 482.3875 247.33983Q482.5594 247.52733 482.5594 247.79295Q482.5594 248.04295 482.3875 248.23045Q482.23126 248.40233 481.91876 248.40233Q481.60626 248.40233 481.4344 248.23045Q481.27814 248.04295 481.27814 247.79295ZM486.35626 254.33983L487.9344 249.46483L489.04376 249.46483L486.7625 255.80858L485.9344 255.80858L483.6375 249.46483L484.7469 249.46483L486.35626 254.33983ZM492.90314 255.93358Q491.60626 255.93358 490.79376 255.08983Q489.9969 254.23045 489.9969 252.80858L489.9969 252.62108Q489.9969 251.66795 490.35626 250.93358Q490.71564 250.18358 491.35626 249.77733Q492.0125 249.35545 492.7625 249.35545Q493.9969 249.35545 494.6844 250.16795Q495.3719 250.98045 495.3719 252.49608L495.3719 252.9492L491.075 252.9492Q491.10626 253.8867 491.6219 254.46483Q492.15314 255.04295 492.96564 255.04295Q493.52814 255.04295 493.91876 254.80858Q494.325 254.5742 494.6375 254.18358L495.29376 254.6992Q494.4969 255.93358 492.90314 255.93358ZM492.7625 250.24608Q492.10626 250.24608 491.65314 250.73045Q491.21564 251.1992 491.1219 252.05858L494.29376 252.05858L494.29376 251.98045Q494.2469 251.15233 493.84064 250.6992Q493.45 250.24608 492.7625 250.24608ZM499.34064 250.43358Q499.09064 250.40233 498.8094 250.40233Q497.73126 250.40233 497.35626 251.30858L497.35626 255.80858L496.27814 255.80858L496.27814 249.46483L497.325 249.46483L497.34064 250.1992Q497.8719 249.35545 498.85626 249.35545Q499.16876 249.35545 499.34064 249.43358L499.34064 250.43358ZM503.96564 254.12108Q503.96564 253.68358 503.6219 253.4492Q503.29376 253.1992 502.46564 253.02733Q501.65314 252.85545 501.16876 252.60545Q500.6844 252.35545 500.45 252.02733Q500.23126 251.68358 500.23126 251.21483Q500.23126 250.43358 500.8875 249.90233Q501.54376 249.35545 502.575 249.35545Q503.65314 249.35545 504.3094 249.91795Q504.98126 250.46483 504.98126 251.3242L503.90314 251.3242Q503.90314 250.8867 503.5125 250.5742Q503.1375 250.24608 502.575 250.24608Q501.98126 250.24608 501.6375 250.5117Q501.3094 250.7617 501.3094 251.16795Q501.3094 251.55858 501.6219 251.7617Q501.9344 251.96483 502.7469 252.15233Q503.5594 252.3242 504.0594 252.5742Q504.5594 252.8242 504.79376 253.18358Q505.04376 253.54295 505.04376 254.04295Q505.04376 254.90233 504.35626 255.41795Q503.6844 255.93358 502.60626 255.93358Q501.84064 255.93358 501.2469 255.66795Q500.66876 255.3867 500.34064 254.90233Q500.0125 254.41795 500.0125 253.85545L501.09064 253.85545Q501.1219 254.40233 501.52814 254.73045Q501.9344 255.04295 502.60626 255.04295Q503.21564 255.04295 503.59064 254.79295Q503.96564 254.54295 503.96564 254.12108Z" fill-rule="nonzero"/><path fill="#9e9e9e" d="M478.73126 270.94922L479.91876 270.94922L479.91876 271.82422L478.73126 271.82422L478.73126 273.8086L477.65314 273.8086L477.65314 271.82422L473.7625 271.82422L473.7625 271.1836L477.575 265.27734L478.73126 265.27734L478.73126 270.94922ZM474.9969 270.94922L477.65314 270.94922L477.65314 266.76172L477.5125 266.9961L474.9969 270.94922ZM486.5125 270.16797Q486.5125 272.07422 485.85626 273.01172Q485.21564 273.9336 483.825 273.9336Q482.46564 273.9336 481.8094 273.02734Q481.15314 272.1211 481.1219 270.3086L481.1219 268.8711Q481.1219 266.98047 481.7625 266.07422Q482.41876 265.15234 483.8094 265.15234Q485.1844 265.15234 485.84064 266.04297Q486.4969 266.91797 486.5125 268.76172L486.5125 270.16797ZM485.41876 268.6836Q485.41876 267.3086 485.02814 266.6836Q484.65314 266.04297 483.8094 266.04297Q482.98126 266.04297 482.59064 266.6836Q482.21564 267.3086 482.21564 268.60547L482.21564 270.33984Q482.21564 271.71484 482.60626 272.38672Q483.0125 273.04297 483.825 273.04297Q484.6219 273.04297 485.0125 272.41797Q485.40314 271.79297 485.41876 270.46484L485.41876 268.6836ZM488.23126 275.51172L487.6219 275.08984Q488.16876 274.32422 488.2 273.4961L488.2 272.52734L489.2625 272.52734L489.2625 273.3711Q489.2625 273.96484 488.96564 274.5586Q488.66876 275.15234 488.23126 275.51172ZM491.73126 269.01172L492.54376 269.01172Q493.325 268.9961 493.7625 268.60547Q494.2 268.21484 494.2 267.54297Q494.2 266.04297 492.7 266.04297Q491.9969 266.04297 491.575 266.44922Q491.16876 266.85547 491.16876 267.51172L490.075 267.51172Q490.075 266.4961 490.8094 265.82422Q491.5594 265.15234 492.7 265.15234Q493.90314 265.15234 494.59064 265.79297Q495.27814 266.4336 495.27814 267.57422Q495.27814 268.13672 494.91876 268.65234Q494.5594 269.16797 493.9344 269.4336Q494.6375 269.65234 495.0125 270.16797Q495.40314 270.6836 495.40314 271.4336Q495.40314 272.57422 494.65314 273.26172Q493.90314 273.9336 492.7 273.9336Q491.5125 273.9336 490.7469 273.27734Q489.9969 272.6211 489.9969 271.5586L491.09064 271.5586Q491.09064 272.23047 491.52814 272.63672Q491.96564 273.04297 492.71564 273.04297Q493.4969 273.04297 493.90314 272.63672Q494.325 272.21484 494.325 271.44922Q494.325 270.71484 493.8719 270.32422Q493.41876 269.91797 492.54376 269.90234L491.73126 269.90234L491.73126 269.01172ZM497.0594 266.91797Q497.0594 266.15234 497.54376 265.65234Q498.04376 265.15234 498.8094 265.15234Q499.59064 265.15234 500.075 265.65234Q500.5594 266.15234 500.5594 266.94922L500.5594 267.3711Q500.5594 268.13672 500.0594 268.63672Q499.575 269.1211 498.825 269.1211Q498.0594 269.1211 497.5594 268.63672Q497.0594 268.13672 497.0594 267.32422L497.0594 266.91797ZM497.8719 267.3711Q497.8719 267.82422 498.1219 268.1211Q498.3875 268.41797 498.825 268.41797Q499.2469 268.41797 499.4969 268.13672Q499.7469 267.83984 499.7469 267.33984L499.7469 266.91797Q499.7469 266.46484 499.4969 266.16797Q499.2469 265.85547 498.8094 265.85547Q498.3719 265.85547 498.1219 266.16797Q497.8719 266.46484 497.8719 266.9336L497.8719 267.3711ZM501.21564 271.71484Q501.21564 270.94922 501.7 270.46484Q502.2 269.96484 502.96564 269.96484Q503.73126 269.96484 504.21564 270.46484Q504.71564 270.94922 504.71564 271.76172L504.71564 272.16797Q504.71564 272.9336 504.23126 273.4336Q503.7469 273.9336 502.98126 273.9336Q502.21564 273.9336 501.71564 273.44922Q501.21564 272.94922 501.21564 272.13672L501.21564 271.71484ZM502.02814 272.16797Q502.02814 272.63672 502.27814 272.9336Q502.54376 273.23047 502.98126 273.23047Q503.40314 273.23047 503.65314 272.94922Q503.90314 272.65234 503.90314 272.15234L503.90314 271.71484Q503.90314 271.2461 503.6375 270.96484Q503.3875 270.66797 502.96564 270.66797Q502.54376 270.66797 502.27814 270.96484Q502.02814 271.2461 502.02814 271.7461L502.02814 272.16797ZM499.075 273.16797L498.45 272.77734L502.6219 266.10547L503.23126 266.4961L499.075 273.16797Z" fill-rule="nonzero"/><path stroke="#757575" stroke-width="1.0" stroke-linecap="butt" d="M505.45 260.3086L416.76666 260.3086L391.48853 260.3086" fill-rule="nonzero"/><path fill="#9e9e9e" d="M393.48853 260.3086C393.48853 259.204 392.5931 258.3086 391.48853 258.3086C390.38397 258.3086 389.48853 259.204 389.48853 260.3086C389.48853 261.41315 390.38397 262.3086 391.48853 262.3086C392.5931 262.3086 393.48853 261.41315 393.48853 260.3086" fill-rule="nonzero"/><path fill="#757575" d="M20.20625 37.55L20.20625 23.33125L24.221874 23.33125Q26.065624 23.33125 27.4875 24.159374Q28.925 24.971874 29.690624 26.4875Q30.471874 28.003124 30.4875 29.95625L30.4875 30.8625Q30.4875 32.878124 29.70625 34.39375Q28.925 35.909374 27.4875 36.721874Q26.05 37.534374 24.14375 37.55L20.20625 37.55ZM22.08125 24.878124L22.08125 36.01875L24.05 36.01875Q26.221874 36.01875 27.425 34.675Q28.628124 33.315624 28.628124 30.83125L28.628124 30.003124Q28.628124 27.58125 27.4875 26.2375Q26.346874 24.89375 24.26875 24.878124L22.08125 24.878124ZM34.878124 37.55L33.08125 37.55L33.08125 26.9875L34.878124 26.9875L34.878124 37.55ZM32.925 24.175Q32.925 23.7375 33.190624 23.440624Q33.471874 23.128124 33.9875 23.128124Q34.51875 23.128124 34.784374 23.440624Q35.065624 23.7375 35.065624 24.175Q35.065624 24.6125 34.784374 24.909374Q34.51875 25.20625 33.9875 25.20625Q33.471874 25.20625 33.190624 24.909374Q32.925 24.6125 32.925 24.175ZM44.065624 34.753124Q44.065624 34.01875 43.51875 33.6125Q42.971874 33.20625 41.596874 32.909374Q40.221874 32.6125 39.409374 32.20625Q38.6125 31.8 38.221874 31.2375Q37.846874 30.659374 37.846874 29.878124Q37.846874 28.58125 38.940624 27.690624Q40.034374 26.784374 41.753124 26.784374Q43.55 26.784374 44.659374 27.721874Q45.784374 28.64375 45.784374 30.08125L43.95625 30.08125Q43.95625 29.346874 43.33125 28.815624Q42.70625 28.26875 41.753124 28.26875Q40.753124 28.26875 40.190624 28.70625Q39.64375 29.128124 39.64375 29.83125Q39.64375 30.471874 40.159374 30.815624Q40.675 31.14375 42.034374 31.45625Q43.39375 31.753124 44.221874 32.175Q45.065624 32.58125 45.471874 33.175Q45.878124 33.76875 45.878124 34.6125Q45.878124 36.034374 44.7375 36.89375Q43.6125 37.753124 41.8 37.753124Q40.534374 37.753124 39.55 37.3Q38.58125 36.846874 38.01875 36.05Q37.471874 35.2375 37.471874 34.3L39.284374 34.3Q39.33125 35.20625 40.003124 35.7375Q40.690624 36.26875 41.8 36.26875Q42.83125 36.26875 43.440624 35.8625Q44.065624 35.440624 44.065624 34.753124ZM50.3625 24.425L50.3625 26.9875L52.346874 26.9875L52.346874 28.378124L50.3625 28.378124L50.3625 34.925Q50.3625 35.565624 50.628124 35.89375Q50.89375 36.20625 51.534374 36.20625Q51.846874 36.20625 52.39375 36.08125L52.39375 37.55Q51.675 37.753124 51.003124 37.753124Q49.8 37.753124 49.175 37.01875Q48.565624 36.284374 48.565624 34.925L48.565624 28.378124L46.64375 28.378124L46.64375 26.9875L48.565624 26.9875L48.565624 24.425L50.3625 24.425ZM60.01875 28.596874Q59.6125 28.534374 59.14375 28.534374Q57.3625 28.534374 56.721874 30.05L56.721874 37.55L54.925 37.55L54.925 26.9875L56.675 26.9875L56.70625 28.20625Q57.596874 26.784374 59.221874 26.784374Q59.753124 26.784374 60.01875 26.925L60.01875 28.596874ZM63.878124 37.55L62.08125 37.55L62.08125 26.9875L63.878124 26.9875L63.878124 37.55ZM61.925 24.175Q61.925 23.7375 62.190624 23.440624Q62.471874 23.128124 62.9875 23.128124Q63.51875 23.128124 63.784374 23.440624Q64.06563 23.7375 64.06563 24.175Q64.06563 24.6125 63.784374 24.909374Q63.51875 25.20625 62.9875 25.20625Q62.471874 25.20625 62.190624 24.909374Q61.925 24.6125 61.925 24.175ZM75.8625 32.378124Q75.8625 34.8 74.75313 36.284374Q73.64375 37.753124 71.76875 37.753124Q69.75313 37.753124 68.65938 36.33125L68.58125 37.55L66.925 37.55L66.925 22.55L68.72188 22.55L68.72188 28.14375Q69.81563 26.784374 71.7375 26.784374Q73.65938 26.784374 74.75313 28.2375Q75.8625 29.690624 75.8625 32.221874L75.8625 32.378124ZM74.05 32.175Q74.05 30.33125 73.33125 29.33125Q72.62813 28.315624 71.3 28.315624Q69.50313 28.315624 68.72188 29.9875L68.72188 34.55Q69.55 36.20625 71.31563 36.20625Q72.6125 36.20625 73.33125 35.20625Q74.05 34.20625 74.05 32.175ZM84.44063 36.503124Q83.39375 37.753124 81.34688 37.753124Q79.65938 37.753124 78.76875 36.76875Q77.89375 35.784374 77.87813 33.8625L77.87813 26.9875L79.69063 26.9875L79.69063 33.815624Q79.69063 36.20625 81.64375 36.20625Q83.70625 36.20625 84.39375 34.675L84.39375 26.9875L86.20625 26.9875L86.20625 37.55L84.4875 37.55L84.44063 36.503124ZM91.3625 24.425L91.3625 26.9875L93.34688 26.9875L93.34688 28.378124L91.3625 28.378124L91.3625 34.925Q91.3625 35.565624 91.62813 35.89375Q91.89375 36.20625 92.53438 36.20625Q92.84688 36.20625 93.39375 36.08125L93.39375 37.55Q92.675 37.753124 92.00313 37.753124Q90.8 37.753124 90.175 37.01875Q89.56563 36.284374 89.56563 34.925L89.56563 28.378124L87.64375 28.378124L87.64375 26.9875L89.56563 26.9875L89.56563 24.425L91.3625 24.425ZM97.87813 37.55L96.08125 37.55L96.08125 26.9875L97.87813 26.9875L97.87813 37.55ZM95.925 24.175Q95.925 23.7375 96.19063 23.440624Q96.47188 23.128124 96.9875 23.128124Q97.51875 23.128124 97.78438 23.440624Q98.06563 23.7375 98.06563 24.175Q98.06563 24.6125 97.78438 24.909374Q97.51875 25.20625 96.9875 25.20625Q96.47188 25.20625 96.19063 24.909374Q95.925 24.6125 95.925 24.175ZM100.44063 32.175Q100.44063 30.6125 101.05 29.378124Q101.65938 28.128124 102.7375 27.45625Q103.83125 26.784374 105.2375 26.784374Q107.39375 26.784374 108.72188 28.284374Q110.06563 29.76875 110.06563 32.253124L110.06563 32.378124Q110.06563 33.925 109.47188 35.159374Q108.87813 36.378124 107.76875 37.065624Q106.675 37.753124 105.25313 37.753124Q103.1125 37.753124 101.76875 36.253124Q100.44063 34.753124 100.44063 32.3L100.44063 32.175ZM102.25313 32.378124Q102.25313 34.14375 103.06563 35.20625Q103.89375 36.26875 105.25313 36.26875Q106.62813 36.26875 107.44063 35.190624Q108.25313 34.1125 108.25313 32.175Q108.25313 30.425 107.425 29.346874Q106.59688 28.26875 105.2375 28.26875Q103.89375 28.26875 103.06563 29.33125Q102.25313 30.39375 102.25313 32.378124ZM113.62813 26.9875L113.69063 28.315624Q114.89375 26.784374 116.84688 26.784374Q120.20625 26.784374 120.22188 30.565624L120.22188 37.55L118.425 37.55L118.425 30.55Q118.40938 29.409374 117.89375 28.8625Q117.39375 28.315624 116.3 28.315624Q115.425 28.315624 114.75313 28.784374Q114.09688 29.253124 113.72188 30.01875L113.72188 37.55L111.925 37.55L111.925 26.9875L113.62813 26.9875ZM129.87813 37.55L128.08125 37.55L128.08125 26.9875L129.87813 26.9875L129.87813 37.55ZM127.925 24.175Q127.925 23.7375 128.19063 23.440624Q128.47188 23.128124 128.9875 23.128124Q129.51875 23.128124 129.78438 23.440624Q130.06563 23.7375 130.06563 24.175Q130.06563 24.6125 129.78438 24.909374Q129.51875 25.20625 128.9875 25.20625Q128.47188 25.20625 128.19063 24.909374Q127.925 24.6125 127.925 24.175ZM134.62813 26.9875L134.69063 28.315624Q135.89375 26.784374 137.84688 26.784374Q141.20625 26.784374 141.22188 30.565624L141.22188 37.55L139.425 37.55L139.425 30.55Q139.40938 29.409374 138.89375 28.8625Q138.39375 28.315624 137.3 28.315624Q136.425 28.315624 135.75313 28.784374Q135.09688 29.253124 134.72188 30.01875L134.72188 37.55L132.925 37.55L132.925 26.9875L134.62813 26.9875ZM155.06563 34.753124Q155.06563 34.01875 154.51875 33.6125Q153.97188 33.20625 152.59688 32.909374Q151.22188 32.6125 150.40938 32.20625Q149.6125 31.8 149.22188 31.2375Q148.84688 30.659374 148.84688 29.878124Q148.84688 28.58125 149.94063 27.690624Q151.03438 26.784374 152.75313 26.784374Q154.55 26.784374 155.65938 27.721874Q156.78438 28.64375 156.78438 30.08125L154.95625 30.08125Q154.95625 29.346874 154.33125 28.815624Q153.70625 28.26875 152.75313 28.26875Q151.75313 28.26875 151.19063 28.70625Q150.64375 29.128124 150.64375 29.83125Q150.64375 30.471874 151.15938 30.815624Q151.675 31.14375 153.03438 31.45625Q154.39375 31.753124 155.22188 32.175Q156.06563 32.58125 156.47188 33.175Q156.87813 33.76875 156.87813 34.6125Q156.87813 36.034374 155.7375 36.89375Q154.6125 37.753124 152.8 37.753124Q151.53438 37.753124 150.55 37.3Q149.58125 36.846874 149.01875 36.05Q148.47188 35.2375 148.47188 34.3L150.28438 34.3Q150.33125 35.20625 151.00313 35.7375Q151.69063 36.26875 152.8 36.26875Q153.83125 36.26875 154.44063 35.8625Q155.06563 35.440624 155.06563 34.753124ZM163.3 37.753124Q161.15938 37.753124 159.8 36.346874Q158.45625 34.925 158.45625 32.565624L158.45625 32.221874Q158.45625 30.659374 159.05 29.425Q159.65938 28.190624 160.7375 27.4875Q161.81563 26.784374 163.08125 26.784374Q165.14375 26.784374 166.28438 28.14375Q167.425 29.503124 167.425 32.034374L167.425 32.784374L160.26875 32.784374Q160.3 34.346874 161.175 35.315624Q162.05 36.26875 163.39375 36.26875Q164.3625 36.26875 165.01875 35.878124Q165.69063 35.4875 166.19063 34.846874L167.28438 35.70625Q165.95625 37.753124 163.3 37.753124ZM163.08125 28.26875Q161.9875 28.26875 161.2375 29.065624Q160.50313 29.8625 160.33125 31.3L165.6125 31.3L165.6125 31.159374Q165.53438 29.784374 164.8625 29.034374Q164.20625 28.26875 163.08125 28.26875ZM171.87813 37.55L170.08125 37.55L170.08125 22.55L171.87813 22.55L171.87813 37.55ZM179.3 37.753124Q177.15938 37.753124 175.8 36.346874Q174.45625 34.925 174.45625 32.565624L174.45625 32.221874Q174.45625 30.659374 175.05 29.425Q175.65938 28.190624 176.7375 27.4875Q177.81563 26.784374 179.08125 26.784374Q181.14375 26.784374 182.28438 28.14375Q183.425 29.503124 183.425 32.034374L183.425 32.784374L176.26875 32.784374Q176.3 34.346874 177.175 35.315624Q178.05 36.26875 179.39375 36.26875Q180.3625 36.26875 181.01875 35.878124Q181.69063 35.4875 182.19063 34.846874L183.28438 35.70625Q181.95625 37.753124 179.3 37.753124ZM179.08125 28.26875Q177.9875 28.26875 177.2375 29.065624Q176.50313 29.8625 176.33125 31.3L181.6125 31.3L181.6125 31.159374Q181.53438 29.784374 180.8625 29.034374Q180.20625 28.26875 179.08125 28.26875ZM190.15938 36.26875Q191.12813 36.26875 191.84688 35.690624Q192.56563 35.096874 192.64375 34.221874L194.3625 34.221874Q194.3 35.128124 193.72188 35.95625Q193.15938 36.76875 192.19063 37.26875Q191.2375 37.753124 190.15938 37.753124Q188.00313 37.753124 186.72188 36.315624Q185.45625 34.8625 185.45625 32.3625L185.45625 32.065624Q185.45625 30.51875 186.01875 29.315624Q186.58125 28.1125 187.64375 27.45625Q188.70625 26.784374 190.14375 26.784374Q191.925 26.784374 193.09688 27.846874Q194.28438 28.909374 194.3625 30.6125L192.64375 30.6125Q192.56563 29.596874 191.8625 28.940624Q191.175 28.26875 190.14375 28.26875Q188.76875 28.26875 188.00313 29.26875Q187.25313 30.253124 187.25313 32.128124L187.25313 32.471874Q187.25313 34.3 188.00313 35.284374Q188.75313 36.26875 190.15938 36.26875ZM198.3625 24.425L198.3625 26.9875L200.34688 26.9875L200.34688 28.378124L198.3625 28.378124L198.3625 34.925Q198.3625 35.565624 198.62813 35.89375Q198.89375 36.20625 199.53438 36.20625Q199.84688 36.20625 200.39375 36.08125L200.39375 37.55Q199.675 37.753124 199.00313 37.753124Q197.8 37.753124 197.175 37.01875Q196.56563 36.284374 196.56563 34.925L196.56563 28.378124L194.64375 28.378124L194.64375 26.9875L196.56563 26.9875L196.56563 24.425L198.3625 24.425ZM207.3 37.753124Q205.15938 37.753124 203.8 36.346874Q202.45625 34.925 202.45625 32.565624L202.45625 32.221874Q202.45625 30.659374 203.05 29.425Q203.65938 28.190624 204.7375 27.4875Q205.81563 26.784374 207.08125 26.784374Q209.14375 26.784374 210.28438 28.14375Q211.425 29.503124 211.425 32.034374L211.425 32.784374L204.26875 32.784374Q204.3 34.346874 205.175 35.315624Q206.05 36.26875 207.39375 36.26875Q208.3625 36.26875 209.01875 35.878124Q209.69063 35.4875 210.19063 34.846874L211.28438 35.70625Q209.95625 37.753124 207.3 37.753124ZM207.08125 28.26875Q205.9875 28.26875 205.2375 29.065624Q204.50313 29.8625 204.33125 31.3L209.6125 31.3L209.6125 31.159374Q209.53438 29.784374 208.8625 29.034374Q208.20625 28.26875 207.08125 28.26875ZM213.47188 32.175Q213.47188 29.753124 214.62813 28.26875Q215.78438 26.784374 217.64375 26.784374Q219.50313 26.784374 220.58125 28.05L220.58125 22.55L222.39375 22.55L222.39375 37.55L220.7375 37.55L220.64375 36.409374Q219.56563 37.753124 217.62813 37.753124Q215.8 37.753124 214.62813 36.253124Q213.47188 34.7375 213.47188 32.315624L213.47188 32.175ZM215.28438 32.378124Q215.28438 34.175 216.01875 35.190624Q216.76875 36.20625 218.08125 36.20625Q219.8 36.20625 220.58125 34.675L220.58125 29.815624Q219.78438 28.315624 218.09688 28.315624Q216.76875 28.315624 216.01875 29.346874Q215.28438 30.378124 215.28438 32.378124ZM234.15938 36.26875Q235.12813 36.26875 235.84688 35.690624Q236.56563 35.096874 236.64375 34.221874L238.3625 34.221874Q238.3 35.128124 237.72188 35.95625Q237.15938 36.76875 236.19063 37.26875Q235.2375 37.753124 234.15938 37.753124Q232.00313 37.753124 230.72188 36.315624Q229.45625 34.8625 229.45625 32.3625L229.45625 32.065624Q229.45625 30.51875 230.01875 29.315624Q230.58125 28.1125 231.64375 27.45625Q232.70625 26.784374 234.14375 26.784374Q235.925 26.784374 237.09688 27.846874Q238.28438 28.909374 238.3625 30.6125L236.64375 30.6125Q236.56563 29.596874 235.8625 28.940624Q235.175 28.26875 234.14375 28.26875Q232.76875 28.26875 232.00313 29.26875Q231.25313 30.253124 231.25313 32.128124L231.25313 32.471874Q231.25313 34.3 232.00313 35.284374Q232.75313 36.26875 234.15938 36.26875ZM246.44063 37.55Q246.28438 37.2375 246.19063 36.440624Q244.925 37.753124 243.175 37.753124Q241.6125 37.753124 240.6125 36.8625Q239.6125 35.971874 239.6125 34.6125Q239.6125 32.971874 240.8625 32.065624Q242.12813 31.14375 244.39375 31.14375L246.15938 31.14375L246.15938 30.315624Q246.15938 29.3625 245.58125 28.8Q245.01875 28.2375 243.925 28.2375Q242.95625 28.2375 242.3 28.7375Q241.64375 29.221874 241.64375 29.909374L239.83125 29.909374Q239.83125 29.128124 240.39375 28.39375Q240.95625 27.64375 241.90938 27.221874Q242.87813 26.784374 244.03438 26.784374Q245.8625 26.784374 246.89375 27.70625Q247.925 28.6125 247.97188 30.221874L247.97188 35.08125Q247.97188 36.534374 248.33125 37.39375L248.33125 37.55L246.44063 37.55ZM243.44063 36.175Q244.3 36.175 245.05 35.7375Q245.81563 35.3 246.15938 34.596874L246.15938 32.425L244.7375 32.425Q241.425 32.425 241.425 34.3625Q241.425 35.221874 241.9875 35.70625Q242.55 36.175 243.44063 36.175ZM253.3625 24.425L253.3625 26.9875L255.34688 26.9875L255.34688 28.378124L253.3625 28.378124L253.3625 34.925Q253.3625 35.565624 253.62813 35.89375Q253.89375 36.20625 254.53438 36.20625Q254.84688 36.20625 255.39375 36.08125L255.39375 37.55Q254.675 37.753124 254.00313 37.753124Q252.8 37.753124 252.175 37.01875Q251.56563 36.284374 251.56563 34.925L251.56563 28.378124L249.64375 28.378124L249.64375 26.9875L251.56563 26.9875L251.56563 24.425L253.3625 24.425ZM262.3 37.753124Q260.15936 37.753124 258.8 36.346874Q257.45624 34.925 257.45624 32.565624L257.45624 32.221874Q257.45624 30.659374 258.05 29.425Q258.65936 28.190624 259.7375 27.4875Q260.8156 26.784374 262.08124 26.784374Q264.14374 26.784374 265.28436 28.14375Q266.425 29.503124 266.425 32.034374L266.425 32.784374L259.26874 32.784374Q259.3 34.346874 260.175 35.315624Q261.05 36.26875 262.39374 36.26875Q263.3625 36.26875 264.01874 35.878124Q264.6906 35.4875 265.1906 34.846874L266.28436 35.70625Q264.95624 37.753124 262.3 37.753124ZM262.08124 28.26875Q260.9875 28.26875 260.2375 29.065624Q259.5031 29.8625 259.33124 31.3L264.6125 31.3L264.6125 31.159374Q264.53436 29.784374 263.8625 29.034374Q263.20624 28.26875 262.08124 28.26875ZM268.4875 32.175Q268.4875 29.70625 269.6281 28.253124Q270.76874 26.784374 272.65936 26.784374Q274.59686 26.784374 275.675 28.159374L275.76874 26.9875L277.40936 26.9875L277.40936 37.3Q277.40936 39.346874 276.1906 40.51875Q274.9875 41.70625 272.925 41.70625Q271.78436 41.70625 270.6906 41.221874Q269.59686 40.7375 269.01874 39.878124L269.95624 38.8Q271.1281 40.2375 272.8 40.2375Q274.1281 40.2375 274.8625 39.4875Q275.59686 38.753124 275.59686 37.409374L275.59686 36.4875Q274.51874 37.753124 272.64374 37.753124Q270.78436 37.753124 269.6281 36.253124Q268.4875 34.753124 268.4875 32.175ZM270.3 32.378124Q270.3 34.175 271.03436 35.190624Q271.76874 36.20625 273.08124 36.20625Q274.8 36.20625 275.59686 34.659374L275.59686 29.83125Q274.76874 28.315624 273.1125 28.315624Q271.78436 28.315624 271.03436 29.346874Q270.3 30.378124 270.3 32.378124ZM279.4406 32.175Q279.4406 30.6125 280.05 29.378124Q280.65936 28.128124 281.7375 27.45625Q282.83124 26.784374 284.2375 26.784374Q286.39374 26.784374 287.72186 28.284374Q289.0656 29.76875 289.0656 32.253124L289.0656 32.378124Q289.0656 33.925 288.47186 35.159374Q287.8781 36.378124 286.76874 37.065624Q285.675 37.753124 284.2531 37.753124Q282.1125 37.753124 280.76874 36.253124Q279.4406 34.753124 279.4406 32.3L279.4406 32.175ZM281.2531 32.378124Q281.2531 34.14375 282.0656 35.20625Q282.89374 36.26875 284.2531 36.26875Q285.6281 36.26875 286.4406 35.190624Q287.2531 34.1125 287.2531 32.175Q287.2531 30.425 286.425 29.346874Q285.59686 28.26875 284.2375 28.26875Q282.89374 28.26875 282.0656 29.33125Q281.2531 30.39375 281.2531 32.378124ZM296.01874 28.596874Q295.6125 28.534374 295.14374 28.534374Q293.3625 28.534374 292.72186 30.05L292.72186 37.55L290.925 37.55L290.925 26.9875L292.675 26.9875L292.70624 28.20625Q293.59686 26.784374 295.22186 26.784374Q295.7531 26.784374 296.01874 26.925L296.01874 28.596874ZM301.3781 34.909374L303.83124 26.9875L305.76874 26.9875L301.51874 39.175Q300.53436 41.815624 298.39374 41.815624L298.05 41.784374L297.3781 41.659374L297.3781 40.190624L297.8625 40.2375Q298.78436 40.2375 299.28436 39.8625Q299.8 39.4875 300.1281 38.503124L300.53436 37.425L296.76874 26.9875L298.7375 26.9875L301.3781 34.909374Z" fill-rule="nonzero"/></svg>