<svg version="1.1" viewBox="0.0 0.0 524.0 371.0" fill="none" stroke="none" stroke-linecap="square" stroke-miterlimit="10" width="524" height="371" xmlns:xlink="http://www.w3.org/1999/xlink" xmlns="http://www.w3.org/2000/svg"><path fill="#ffffff" d="M0 0L524.0 0L524.0 371.0L0 371.0L0 0Z" fill-rule="nonzero"/><path fill="#ffffff" d="M0 0L524.0 0L524.0 371.0L0 371.0L0 0Z" fill-rule="nonzero"/><path fill="#db4437" d="M262.0 54.916668C294.20575 54.916668 325.5418 65.36786 351.29993 84.69996L262.0 203.68333Z" fill-rule="nonzero"/><path fill="#ffffff" d="M291.99603 97.21044L290.7304 97.21044L290.7304 88.78857L288.1679 89.71044L288.1679 88.56982L291.7929 87.21044L291.99603 87.21044L291.99603 97.21044ZM300.68353 92.83544Q300.2929 93.30419 299.7304 93.60107Q299.18353 93.88232 298.52728 93.88232Q297.6679 93.88232 297.02728 93.46044Q296.38666 93.03857 296.0429 92.27294Q295.69916 91.49169 295.69916 90.56982Q295.69916 89.56982 296.07416 88.77294Q296.44916 87.96044 297.15228 87.53857Q297.8554 87.11669 298.77728 87.11669Q300.26166 87.11669 301.1054 88.22607Q301.96478 89.33544 301.96478 91.24169L301.96478 91.60107Q301.96478 94.50732 300.80853 95.85107Q299.6679 97.17919 297.33978 97.21044L297.08978 97.21044L297.08978 96.14794L297.37103 96.14794Q298.93353 96.11669 299.76166 95.33544Q300.6054 94.53857 300.68353 92.83544ZM298.7304 92.83544Q299.37103 92.83544 299.90228 92.44482Q300.44916 92.05419 300.69916 91.47607L300.69916 90.97607Q300.69916 89.72607 300.15228 88.96044Q299.6054 88.17919 298.7929 88.17919Q297.94916 88.17919 297.43353 88.81982Q296.93353 89.44482 296.93353 90.49169Q296.93353 91.52294 297.4179 92.17919Q297.9179 92.83544 298.7304 92.83544ZM304.4179 92.22607L304.93353 87.25732L310.02728 87.25732L310.02728 88.42919L305.99603 88.42919L305.69916 91.13232Q306.43353 90.71044 307.3554 90.71044Q308.71478 90.71044 309.51166 91.61669Q310.32416 92.50732 310.32416 94.03857Q310.32416 95.56982 309.4804 96.46044Q308.65228 97.35107 307.1679 97.35107Q305.8554 97.35107 305.01166 96.61669Q304.18353 95.88232 304.05853 94.58544L305.26166 94.58544Q305.37103 95.44482 305.8554 95.88232Q306.3554 96.31982 307.1679 96.31982Q308.0429 96.31982 308.5429 95.72607Q309.05853 95.11669 309.05853 94.05419Q309.05853 93.05419 308.51166 92.46044Q307.96478 91.85107 307.05853 91.85107Q306.24603 91.85107 305.76166 92.21044L305.43353 92.47607L304.4179 92.22607Z" fill-rule="nonzero"/><path fill="#f4b400" d="M351.29993 84.69996C384.64694 109.7277 405.96066 147.60074 410.04956 189.09401L262.0 203.68333Z" fill-rule="nonzero"/><path fill="#000000" d="M356.43542 152.41771L349.9198 152.41771L349.9198 151.51146L353.3573 147.68333Q354.12292 146.80833 354.4198 146.27708Q354.71667 145.73021 354.71667 145.13646Q354.71667 144.37083 354.2323 143.87083Q353.76355 143.37083 352.9823 143.37083Q352.0448 143.37083 351.51355 143.90208Q350.99792 144.43333 350.99792 145.40208L349.7323 145.40208Q349.7323 144.02708 350.6073 143.18333Q351.49792 142.32396 352.9823 142.32396Q354.37292 142.32396 355.1698 143.05833Q355.9823 143.77708 355.9823 144.99583Q355.9823 146.46458 354.1073 148.49583L351.45105 151.38646L356.43542 151.38646L356.43542 152.41771ZM358.49792 147.43333L359.01355 142.46458L364.1073 142.46458L364.1073 143.63646L360.07605 143.63646L359.77917 146.33958Q360.51355 145.91771 361.43542 145.91771Q362.7948 145.91771 363.59167 146.82396Q364.40417 147.71458 364.40417 149.24583Q364.40417 150.77708 363.56042 151.66771Q362.7323 152.55833 361.24792 152.55833Q359.93542 152.55833 359.09167 151.82396Q358.26355 151.08958 358.13855 149.79271L359.34167 149.79271Q359.45105 150.65208 359.93542 151.08958Q360.43542 151.52708 361.24792 151.52708Q362.12292 151.52708 362.62292 150.93333Q363.13855 150.32396 363.13855 149.26146Q363.13855 148.26146 362.59167 147.66771Q362.0448 147.05833 361.13855 147.05833Q360.32605 147.05833 359.84167 147.41771L359.51355 147.68333L358.49792 147.43333ZM370.07605 152.41771L368.81042 152.41771L368.81042 143.99583L366.24792 144.91771L366.24792 143.77708L369.87292 142.41771L370.07605 142.41771L370.07605 152.41771Z" fill-rule="nonzero"/><path fill="#0f9d58" d="M410.04956 189.09401C417.3263 262.9368 369.077 330.8515 296.95374 348.2854C224.83044 365.7193 150.88771 327.34128 123.63269 258.3277C96.37767 189.31415 124.14467 110.768654 188.71826 74.217865L262.0 203.68333Z" fill-rule="nonzero"/><path fill="#ffffff" d="M197.88275 307.60394L196.61713 307.60394L196.61713 299.18207L194.05463 300.10394L194.05463 298.96332L197.67963 297.60394L197.88275 297.60394L197.88275 307.60394ZM201.82025 309.58832L201.1015 309.08832Q201.74213 308.1977 201.77338 307.24457L201.77338 306.10394L203.00775 306.10394L203.00775 307.10394Q203.00775 307.79144 202.664 308.47894Q202.32025 309.16644 201.82025 309.58832ZM206.57025 302.0102L207.50775 302.0102Q208.414 301.99457 208.914 301.54144Q209.42963 301.08832 209.42963 300.30707Q209.42963 298.55707 207.69525 298.55707Q206.86713 298.55707 206.38275 299.02582Q205.89838 299.49457 205.89838 300.2602L204.63275 300.2602Q204.63275 299.0727 205.49213 298.29144Q206.36713 297.5102 207.69525 297.5102Q209.1015 297.5102 209.89838 298.2602Q210.69525 299.0102 210.69525 300.3227Q210.69525 300.97894 210.27338 301.58832Q209.86713 302.1977 209.13275 302.49457Q209.96088 302.7602 210.39838 303.36957Q210.8515 303.96332 210.8515 304.8227Q210.8515 306.16644 209.9765 306.96332Q209.1015 307.74457 207.69525 307.74457Q206.30463 307.74457 205.414 306.99457Q204.539 306.22894 204.539 304.97894L205.82025 304.97894Q205.82025 305.7602 206.32025 306.24457Q206.83588 306.71332 207.69525 306.71332Q208.61713 306.71332 209.1015 306.22894Q209.58588 305.74457 209.58588 304.85394Q209.58588 303.99457 209.05463 303.52582Q208.52338 303.05707 207.50775 303.04144L206.57025 303.04144L206.57025 302.0102ZM218.96088 303.35394Q218.96088 305.5727 218.19525 306.66644Q217.44525 307.74457 215.83588 307.74457Q214.24213 307.74457 213.4765 306.6977Q212.71088 305.6352 212.67963 303.52582L212.67963 301.83832Q212.67963 299.65082 213.42963 298.58832Q214.19525 297.5102 215.82025 297.5102Q217.42963 297.5102 218.17963 298.54144Q218.94525 299.5727 218.96088 301.71332L218.96088 303.35394ZM217.69525 301.6352Q217.69525 300.02582 217.24213 299.29144Q216.80463 298.55707 215.82025 298.55707Q214.8515 298.55707 214.39838 299.29144Q213.96088 300.0102 213.94525 301.52582L213.94525 303.55707Q213.94525 305.16644 214.414 305.9477Q214.88275 306.71332 215.83588 306.71332Q216.77338 306.71332 217.2265 305.99457Q217.67963 305.2602 217.69525 303.6977L217.69525 301.6352ZM224.88275 307.60394L223.61713 307.60394L223.61713 299.18207L221.05463 300.10394L221.05463 298.96332L224.67963 297.60394L224.88275 297.60394L224.88275 307.60394Z" fill-rule="nonzero"/><path fill="#ff6d00" d="M188.71826 74.217865C200.13377 67.7563 212.35376 62.832924 225.06033 59.575798L262.0 203.68333Z" fill-rule="nonzero"/><path fill="#000000" d="M216.75848 91.36416Q216.75848 92.11416 216.36786 92.69228Q215.97723 93.27041 215.30536 93.59853Q216.08661 93.94228 216.53973 94.58291Q216.99286 95.22353 216.99286 96.03603Q216.99286 97.33291 216.11786 98.09853Q215.25848 98.86416 213.83661 98.86416Q212.39911 98.86416 211.52411 98.09853Q210.66473 97.31728 210.66473 96.03603Q210.66473 95.22353 211.10223 94.58291Q211.53973 93.92666 212.32098 93.59853Q211.66473 93.27041 211.27411 92.69228Q210.89911 92.09853 210.89911 91.36416Q210.89911 90.11416 211.69598 89.37978Q212.50848 88.62978 213.83661 88.62978Q215.14911 88.62978 215.94598 89.37978Q216.75848 90.11416 216.75848 91.36416ZM215.72723 96.00478Q215.72723 95.17666 215.19598 94.66103Q214.66473 94.12978 213.80536 94.12978Q212.96161 94.12978 212.44598 94.64541Q211.93036 95.16103 211.93036 96.02041Q211.93036 96.86416 212.43036 97.34853Q212.93036 97.83291 213.83661 97.83291Q214.71161 97.83291 215.21161 97.34853Q215.72723 96.84853 215.72723 96.00478ZM213.83661 89.67666Q213.08661 89.67666 212.61786 90.14541Q212.16473 90.59853 212.16473 91.39541Q212.16473 92.14541 212.61786 92.61416Q213.07098 93.08291 213.82098 93.08291Q214.58661 93.08291 215.03973 92.61416Q215.49286 92.14541 215.49286 91.39541Q215.49286 90.62978 215.02411 90.16103Q214.55536 89.67666 213.83661 89.67666ZM224.96161 94.47353Q224.96161 96.69228 224.19598 97.78603Q223.44598 98.86416 221.83661 98.86416Q220.24286 98.86416 219.47723 97.81728Q218.71161 96.75478 218.68036 94.64541L218.68036 92.95791Q218.68036 90.77041 219.43036 89.70791Q220.19598 88.62978 221.82098 88.62978Q223.43036 88.62978 224.18036 89.66103Q224.94598 90.69228 224.96161 92.83291L224.96161 94.47353ZM223.69598 92.75478Q223.69598 91.14541 223.24286 90.41103Q222.80536 89.67666 221.82098 89.67666Q220.85223 89.67666 220.39911 90.41103Q219.96161 91.12978 219.94598 92.64541L219.94598 94.67666Q219.94598 96.28603 220.41473 97.06728Q220.88348 97.83291 221.83661 97.83291Q222.77411 97.83291 223.22723 97.11416Q223.68036 96.37978 223.69598 94.81728L223.69598 92.75478Z" fill-rule="nonzero"/><path fill="#46bdc6" d="M225.06033 59.575798C237.12985 56.481968 249.54025 54.916668 262.0 54.916668L262.0 203.68333Z" fill-rule="nonzero"/><path fill="#000000" d="M246.0595 78.49619L241.9345 87.74619L240.622 87.74619L244.71574 78.82432L239.34074 78.82432L239.34074 77.79307L246.0595 77.79307L246.0595 78.49619ZM252.60637 77.79307L252.60637 78.85557L252.372 78.85557Q250.88762 78.88682 250.01262 79.73057Q249.13762 80.57432 248.997 82.12119Q249.79387 81.21494 251.15324 81.21494Q252.45012 81.21494 253.21574 82.13682Q253.997 83.04307 253.997 84.49619Q253.997 86.04307 253.15324 86.96494Q252.32512 87.88682 250.91887 87.88682Q249.497 87.88682 248.60637 86.79307Q247.71574 85.68369 247.71574 83.96494L247.71574 83.48057Q247.71574 80.73057 248.88762 79.27744Q250.0595 77.82432 252.372 77.79307L252.60637 77.79307ZM250.9345 82.27744Q250.29387 82.27744 249.747 82.66807Q249.20012 83.04307 248.98137 83.63682L248.98137 84.10557Q248.98137 85.33994 249.52824 86.08994Q250.09074 86.83994 250.91887 86.83994Q251.77824 86.83994 252.26262 86.21494Q252.747 85.57432 252.747 84.55869Q252.747 83.52744 252.247 82.90244Q251.76262 82.27744 250.9345 82.27744Z" fill-rule="nonzero"/><path fill="#757575" d="M22.05 63.11979Q20.6125 62.697914 19.940624 62.08854Q19.284374 61.479164 19.284374 60.58854Q19.284374 59.58854 20.08125 58.93229Q20.89375 58.260414 22.190624 58.260414Q23.065624 58.260414 23.753124 58.604164Q24.440624 58.947914 24.815624 59.541664Q25.20625 60.135414 25.20625 60.854164L24.065624 60.854164Q24.065624 60.072914 23.565624 59.635414Q23.08125 59.197914 22.190624 59.197914Q21.3625 59.197914 20.89375 59.572914Q20.425 59.93229 20.425 60.572914Q20.425 61.104164 20.8625 61.46354Q21.315624 61.822914 22.378124 62.11979Q23.440624 62.416664 24.034374 62.77604Q24.64375 63.135414 24.925 63.61979Q25.221874 64.104164 25.221874 64.74479Q25.221874 65.791664 24.409374 66.416664Q23.596874 67.041664 22.253124 67.041664Q21.3625 67.041664 20.596874 66.697914Q19.846874 66.354164 19.425 65.77604Q19.01875 65.18229 19.01875 64.447914L20.14375 64.447914Q20.14375 65.21354 20.721874 65.666664Q21.3 66.11979 22.253124 66.11979Q23.14375 66.11979 23.6125 65.760414Q24.08125 65.385414 24.08125 64.760414Q24.08125 64.135414 23.64375 63.791664Q23.20625 63.447914 22.05 63.11979ZM27.846874 59.041664L27.846874 60.572914L29.01875 60.572914L29.01875 61.416664L27.846874 61.416664L27.846874 65.33854Q27.846874 65.729164 28.003124 65.916664Q28.159374 66.104164 28.534374 66.104164Q28.721874 66.104164 29.05 66.041664L29.05 66.916664Q28.628124 67.041664 28.221874 67.041664Q27.503124 67.041664 27.128124 66.604164Q26.753124 66.15104 26.753124 65.33854L26.753124 61.416664L25.596874 61.416664L25.596874 60.572914L26.753124 60.572914L26.753124 59.041664L27.846874 59.041664ZM30.08125 63.68229Q30.08125 62.760414 30.440624 62.010414Q30.815624 61.260414 31.471874 60.86979Q32.128124 60.46354 32.95625 60.46354Q34.253124 60.46354 35.05 61.354164Q35.8625 62.24479 35.8625 63.74479L35.8625 63.822914Q35.8625 64.74479 35.503124 65.479164Q35.14375 66.21354 34.4875 66.635414Q33.83125 67.041664 32.971874 67.041664Q31.690624 67.041664 30.878124 66.15104Q30.08125 65.24479 30.08125 63.760414L30.08125 63.68229ZM31.175 63.822914Q31.175 64.86979 31.659374 65.510414Q32.159374 66.15104 32.971874 66.15104Q33.8 66.15104 34.284374 65.510414Q34.76875 64.854164 34.76875 63.68229Q34.76875 62.65104 34.26875 62.010414Q33.784374 61.354164 32.95625 61.354164Q32.159374 61.354164 31.659374 61.99479Q31.175 62.61979 31.175 63.822914ZM40.440624 61.541664Q40.190624 61.510414 39.909374 61.510414Q38.83125 61.510414 38.45625 62.416664L38.45625 66.916664L37.378124 66.916664L37.378124 60.572914L38.425 60.572914L38.440624 61.30729Q38.971874 60.46354 39.95625 60.46354Q40.26875 60.46354 40.440624 60.541664L40.440624 61.541664ZM45.284374 66.916664Q45.190624 66.729164 45.128124 66.24479Q44.378124 67.041664 43.33125 67.041664Q42.39375 67.041664 41.784374 66.510414Q41.190624 65.979164 41.190624 65.15104Q41.190624 64.166664 41.940624 63.61979Q42.690624 63.072914 44.065624 63.072914L45.1125 63.072914L45.1125 62.572914Q45.1125 62.010414 44.76875 61.68229Q44.440624 61.33854 43.76875 61.33854Q43.190624 61.33854 42.8 61.635414Q42.409374 61.916664 42.409374 62.33854L41.315624 62.33854Q41.315624 61.854164 41.64375 61.416664Q41.9875 60.979164 42.565624 60.729164Q43.14375 60.46354 43.83125 60.46354Q44.940624 60.46354 45.55 61.010414Q46.175 61.55729 46.20625 62.510414L46.20625 65.43229Q46.20625 66.30729 46.425 66.822914L46.425 66.916664L45.284374 66.916664ZM43.4875 66.08854Q44.003124 66.08854 44.45625 65.822914Q44.909374 65.55729 45.1125 65.135414L45.1125 63.83854L44.26875 63.83854Q42.26875 63.83854 42.26875 65.010414Q42.26875 65.510414 42.6125 65.80729Q42.95625 66.08854 43.4875 66.08854ZM48.1125 63.697914Q48.1125 62.21354 48.8 61.33854Q49.4875 60.46354 50.6125 60.46354Q51.76875 60.46354 52.425 61.27604L52.471874 60.572914L53.471874 60.572914L53.471874 66.760414Q53.471874 67.99479 52.7375 68.697914Q52.003124 69.416664 50.784374 69.416664Q50.096874 69.416664 49.440624 69.11979Q48.784374 68.822914 48.440624 68.322914L49.003124 67.666664Q49.690624 68.52604 50.70625 68.52604Q51.4875 68.52604 51.925 68.072914Q52.378124 67.635414 52.378124 66.822914L52.378124 66.27604Q51.721874 67.041664 50.596874 67.041664Q49.4875 67.041664 48.8 66.15104Q48.1125 65.24479 48.1125 63.697914ZM49.20625 63.822914Q49.20625 64.885414 49.64375 65.510414Q50.08125 66.11979 50.878124 66.11979Q51.89375 66.11979 52.378124 65.18229L52.378124 62.291664Q51.878124 61.385414 50.878124 61.385414Q50.096874 61.385414 49.64375 61.99479Q49.20625 62.604164 49.20625 63.822914ZM58.003124 67.041664Q56.70625 67.041664 55.89375 66.197914Q55.096874 65.33854 55.096874 63.916664L55.096874 63.729164Q55.096874 62.77604 55.45625 62.041664Q55.815624 61.291664 56.45625 60.885414Q57.1125 60.46354 57.8625 60.46354Q59.096874 60.46354 59.784374 61.27604Q60.471874 62.08854 60.471874 63.604164L60.471874 64.05729L56.175 64.05729Q56.20625 64.99479 56.721874 65.572914Q57.253124 66.15104 58.065624 66.15104Q58.628124 66.15104 59.01875 65.916664Q59.425 65.68229 59.7375 65.291664L60.39375 65.80729Q59.596874 67.041664 58.003124 67.041664ZM57.8625 61.354164Q57.20625 61.354164 56.753124 61.83854Q56.315624 62.30729 56.221874 63.166664L59.39375 63.166664L59.39375 63.08854Q59.346874 62.260414 58.940624 61.80729Q58.55 61.354164 57.8625 61.354164Z" fill-rule="nonzero"/><path fill="#9e9e9e" d="M23.83125 82.05729L25.01875 82.05729L25.01875 82.93229L23.83125 82.93229L23.83125 84.916664L22.753124 84.916664L22.753124 82.93229L18.8625 82.93229L18.8625 82.291664L22.675 76.385414L23.83125 76.385414L23.83125 82.05729ZM20.096874 82.05729L22.753124 82.05729L22.753124 77.86979L22.6125 78.104164L20.096874 82.05729ZM26.33125 86.61979L25.721874 86.197914Q26.26875 85.43229 26.3 84.604164L26.3 83.635414L27.3625 83.635414L27.3625 84.479164Q27.3625 85.072914 27.065624 85.666664Q26.76875 86.260414 26.33125 86.61979ZM33.6125 81.27604Q33.6125 83.18229 32.95625 84.11979Q32.315624 85.041664 30.925 85.041664Q29.565624 85.041664 28.909374 84.135414Q28.253124 83.229164 28.221874 81.416664L28.221874 79.979164Q28.221874 78.08854 28.8625 77.18229Q29.51875 76.260414 30.909374 76.260414Q32.284374 76.260414 32.940624 77.15104Q33.596874 78.02604 33.6125 79.86979L33.6125 81.27604ZM32.51875 79.791664Q32.51875 78.416664 32.128124 77.791664Q31.753124 77.15104 30.909374 77.15104Q30.08125 77.15104 29.690624 77.791664Q29.315624 78.416664 29.315624 79.71354L29.315624 81.447914Q29.315624 82.822914 29.70625 83.49479Q30.1125 84.15104 30.925 84.15104Q31.721874 84.15104 32.1125 83.52604Q32.503124 82.90104 32.51875 81.572914L32.51875 79.791664ZM35.159374 78.02604Q35.159374 77.260414 35.64375 76.760414Q36.14375 76.260414 36.909374 76.260414Q37.690624 76.260414 38.175 76.760414Q38.659374 77.260414 38.659374 78.05729L38.659374 78.479164Q38.659374 79.24479 38.159374 79.74479Q37.675 80.229164 36.925 80.229164Q36.159374 80.229164 35.659374 79.74479Q35.159374 79.24479 35.159374 78.43229L35.159374 78.02604ZM35.971874 78.479164Q35.971874 78.93229 36.221874 79.229164Q36.4875 79.52604 36.925 79.52604Q37.346874 79.52604 37.596874 79.24479Q37.846874 78.947914 37.846874 78.447914L37.846874 78.02604Q37.846874 77.572914 37.596874 77.27604Q37.346874 76.96354 36.909374 76.96354Q36.471874 76.96354 36.221874 77.27604Q35.971874 77.572914 35.971874 78.041664L35.971874 78.479164ZM39.315624 82.822914Q39.315624 82.05729 39.8 81.572914Q40.3 81.072914 41.065624 81.072914Q41.83125 81.072914 42.315624 81.572914Q42.815624 82.05729 42.815624 82.86979L42.815624 83.27604Q42.815624 84.041664 42.33125 84.541664Q41.846874 85.041664 41.08125 85.041664Q40.315624 85.041664 39.815624 84.55729Q39.315624 84.05729 39.315624 83.24479L39.315624 82.822914ZM40.128124 83.27604Q40.128124 83.74479 40.378124 84.041664Q40.64375 84.33854 41.08125 84.33854Q41.503124 84.33854 41.753124 84.05729Q42.003124 83.760414 42.003124 83.260414L42.003124 82.822914Q42.003124 82.354164 41.7375 82.072914Q41.4875 81.77604 41.065624 81.77604Q40.64375 81.77604 40.378124 82.072914Q40.128124 82.354164 40.128124 82.854164L40.128124 83.27604ZM37.175 84.27604L36.55 83.885414L40.721874 77.21354L41.33125 77.604164L37.175 84.27604Z" fill-rule="nonzero"/><path stroke="#757575" stroke-width="1.0" stroke-linecap="butt" d="M18.55 71.416664L107.23333 71.416664L244.31464 63.465908" fill-rule="nonzero"/><path fill="#9e9e9e" d="M246.31464 63.465908C246.31464 62.36134 245.4192 61.465908 244.31464 61.465908C243.21007 61.465908 242.31464 62.36134 242.31464 63.465908C242.31464 64.57048 243.21007 65.46591 244.31464 65.46591C245.4192 65.46591 246.31464 64.57048 246.31464 63.465908" fill-rule="nonzero"/><path fill="#757575" d="M22.05 96.11979Q20.6125 95.697914 19.940624 95.08854Q19.284374 94.479164 19.284374 93.58854Q19.284374 92.58854 20.08125 91.93229Q20.89375 91.260414 22.190624 91.260414Q23.065624 91.260414 23.753124 91.604164Q24.440624 91.947914 24.815624 92.541664Q25.20625 93.135414 25.20625 93.854164L24.065624 93.854164Q24.065624 93.072914 23.565624 92.635414Q23.08125 92.197914 22.190624 92.197914Q21.3625 92.197914 20.89375 92.572914Q20.425 92.93229 20.425 93.572914Q20.425 94.104164 20.8625 94.46354Q21.315624 94.822914 22.378124 95.11979Q23.440624 95.416664 24.034374 95.77604Q24.64375 96.135414 24.925 96.61979Q25.221874 97.104164 25.221874 97.74479Q25.221874 98.791664 24.409374 99.416664Q23.596874 100.041664 22.253124 100.041664Q21.3625 100.041664 20.596874 99.697914Q19.846874 99.354164 19.425 98.77604Q19.01875 98.18229 19.01875 97.447914L20.14375 97.447914Q20.14375 98.21354 20.721874 98.666664Q21.3 99.11979 22.253124 99.11979Q23.14375 99.11979 23.6125 98.760414Q24.08125 98.385414 24.08125 97.760414Q24.08125 97.135414 23.64375 96.791664Q23.20625 96.447914 22.05 96.11979ZM30.284374 99.916664Q30.190624 99.729164 30.128124 99.24479Q29.378124 100.041664 28.33125 100.041664Q27.39375 100.041664 26.784374 99.510414Q26.190624 98.979164 26.190624 98.15104Q26.190624 97.166664 26.940624 96.61979Q27.690624 96.072914 29.065624 96.072914L30.1125 96.072914L30.1125 95.572914Q30.1125 95.010414 29.76875 94.68229Q29.440624 94.33854 28.76875 94.33854Q28.190624 94.33854 27.8 94.635414Q27.409374 94.916664 27.409374 95.33854L26.315624 95.33854Q26.315624 94.854164 26.64375 94.416664Q26.9875 93.979164 27.565624 93.729164Q28.14375 93.46354 28.83125 93.46354Q29.940624 93.46354 30.55 94.010414Q31.175 94.55729 31.20625 95.510414L31.20625 98.43229Q31.20625 99.30729 31.425 99.822914L31.425 99.916664L30.284374 99.916664ZM28.4875 99.08854Q29.003124 99.08854 29.45625 98.822914Q29.909374 98.55729 30.1125 98.135414L30.1125 96.83854L29.26875 96.83854Q27.26875 96.83854 27.26875 98.010414Q27.26875 98.510414 27.6125 98.80729Q27.95625 99.08854 28.4875 99.08854ZM33.909374 99.916664L33.909374 94.416664L32.909374 94.416664L32.909374 93.572914L33.909374 93.572914L33.909374 92.93229Q33.909374 91.90104 34.440624 91.354164Q34.9875 90.791664 35.9875 90.791664Q36.3625 90.791664 36.7375 90.885414L36.675 91.77604Q36.39375 91.71354 36.096874 91.71354Q35.565624 91.71354 35.26875 92.02604Q34.9875 92.33854 34.9875 92.90104L34.9875 93.572914L36.346874 93.572914L36.346874 94.416664L34.9875 94.416664L34.9875 99.916664L33.909374 99.916664ZM40.003124 100.041664Q38.70625 100.041664 37.89375 99.197914Q37.096874 98.33854 37.096874 96.916664L37.096874 96.729164Q37.096874 95.77604 37.45625 95.041664Q37.815624 94.291664 38.45625 93.885414Q39.1125 93.46354 39.8625 93.46354Q41.096874 93.46354 41.784374 94.27604Q42.471874 95.08854 42.471874 96.604164L42.471874 97.05729L38.175 97.05729Q38.20625 97.99479 38.721874 98.572914Q39.253124 99.15104 40.065624 99.15104Q40.628124 99.15104 41.01875 98.916664Q41.425 98.68229 41.7375 98.291664L42.39375 98.80729Q41.596874 100.041664 40.003124 100.041664ZM39.8625 94.354164Q39.20625 94.354164 38.753124 94.83854Q38.315624 95.30729 38.221874 96.166664L41.39375 96.166664L41.39375 96.08854Q41.346874 95.260414 40.940624 94.80729Q40.55 94.354164 39.8625 94.354164ZM44.846874 92.041664L44.846874 93.572914L46.01875 93.572914L46.01875 94.416664L44.846874 94.416664L44.846874 98.33854Q44.846874 98.729164 45.003124 98.916664Q45.159374 99.104164 45.534374 99.104164Q45.721874 99.104164 46.05 99.041664L46.05 99.916664Q45.628124 100.041664 45.221874 100.041664Q44.503124 100.041664 44.128124 99.604164Q43.753124 99.15104 43.753124 98.33854L43.753124 94.416664L42.596874 94.416664L42.596874 93.572914L43.753124 93.572914L43.753124 92.041664L44.846874 92.041664ZM49.440624 98.322914L50.925 93.572914L52.08125 93.572914L49.534374 100.90104Q48.940624 102.479164 47.659374 102.479164L47.440624 102.46354L47.05 102.385414L47.05 101.510414L47.33125 101.52604Q47.89375 101.52604 48.190624 101.30729Q48.503124 101.08854 48.70625 100.49479L48.940624 99.83854L46.675 93.572914L47.8625 93.572914L49.440624 98.322914Z" fill-rule="nonzero"/><path fill="#9e9e9e" d="M23.83125 115.05729L25.01875 115.05729L25.01875 115.93229L23.83125 115.93229L23.83125 117.916664L22.753124 117.916664L22.753124 115.93229L18.8625 115.93229L18.8625 115.291664L22.675 109.385414L23.83125 109.385414L23.83125 115.05729ZM20.096874 115.05729L22.753124 115.05729L22.753124 110.86979L22.6125 111.104164L20.096874 115.05729ZM26.33125 119.61979L25.721874 119.197914Q26.26875 118.43229 26.3 117.604164L26.3 116.635414L27.3625 116.635414L27.3625 117.479164Q27.3625 118.072914 27.065624 118.666664Q26.76875 119.260414 26.33125 119.61979ZM33.846874 117.916664L28.253124 117.916664L28.253124 117.135414L31.20625 113.854164Q31.8625 113.104164 32.1125 112.65104Q32.3625 112.18229 32.3625 111.68229Q32.3625 111.010414 31.95625 110.58854Q31.565624 110.15104 30.878124 110.15104Q30.08125 110.15104 29.628124 110.61979Q29.175 111.072914 29.175 111.90104L28.096874 111.90104Q28.096874 110.71354 28.846874 109.99479Q29.6125 109.260414 30.878124 109.260414Q32.08125 109.260414 32.76875 109.885414Q33.45625 110.510414 33.45625 111.55729Q33.45625 112.80729 31.846874 114.55729L29.565624 117.02604L33.846874 117.02604L33.846874 117.916664ZM35.159374 111.02604Q35.159374 110.260414 35.64375 109.760414Q36.14375 109.260414 36.909374 109.260414Q37.690624 109.260414 38.175 109.760414Q38.659374 110.260414 38.659374 111.05729L38.659374 111.479164Q38.659374 112.24479 38.159374 112.74479Q37.675 113.229164 36.925 113.229164Q36.159374 113.229164 35.659374 112.74479Q35.159374 112.24479 35.159374 111.43229L35.159374 111.02604ZM35.971874 111.479164Q35.971874 111.93229 36.221874 112.229164Q36.4875 112.52604 36.925 112.52604Q37.346874 112.52604 37.596874 112.24479Q37.846874 111.947914 37.846874 111.447914L37.846874 111.02604Q37.846874 110.572914 37.596874 110.27604Q37.346874 109.96354 36.909374 109.96354Q36.471874 109.96354 36.221874 110.27604Q35.971874 110.572914 35.971874 111.041664L35.971874 111.479164ZM39.315624 115.822914Q39.315624 115.05729 39.8 114.572914Q40.3 114.072914 41.065624 114.072914Q41.83125 114.072914 42.315624 114.572914Q42.815624 115.05729 42.815624 115.86979L42.815624 116.27604Q42.815624 117.041664 42.33125 117.541664Q41.846874 118.041664 41.08125 118.041664Q40.315624 118.041664 39.815624 117.55729Q39.315624 117.05729 39.315624 116.24479L39.315624 115.822914ZM40.128124 116.27604Q40.128124 116.74479 40.378124 117.041664Q40.64375 117.33854 41.08125 117.33854Q41.503124 117.33854 41.753124 117.05729Q42.003124 116.760414 42.003124 116.260414L42.003124 115.822914Q42.003124 115.354164 41.7375 115.072914Q41.4875 114.77604 41.065624 114.77604Q40.64375 114.77604 40.378124 115.072914Q40.128124 115.354164 40.128124 115.854164L40.128124 116.27604ZM37.175 117.27604L36.55 116.885414L40.721874 110.21354L41.33125 110.604164L37.175 117.27604Z" fill-rule="nonzero"/><path stroke="#757575" stroke-width="1.0" stroke-linecap="butt" d="M18.55 104.416664L107.23333 104.416664L209.18489 72.594574" fill-rule="nonzero"/><path fill="#9e9e9e" d="M211.18489 72.594574C211.18489 71.490005 210.28946 70.594574 209.18489 70.594574C208.08032 70.594574 207.18489 71.490005 207.18489 72.594574C207.18489 73.69915 208.08032 74.594574 209.18489 74.594574C210.28946 74.594574 211.18489 73.69915 211.18489 72.594574" fill-rule="nonzero"/><path fill="#757575" d="M20.9875 316.09106L23.784374 323.0442L26.565624 316.09106L28.034374 316.09106L28.034374 324.6223L26.909374 324.6223L26.909374 321.2942L27.01875 317.71606L24.20625 324.6223L23.346874 324.6223L20.55 317.7317L20.659374 321.2942L20.659374 324.6223L19.534374 324.6223L19.534374 316.09106L20.9875 316.09106ZM30.55 324.6223L29.471874 324.6223L29.471874 318.27856L30.55 318.27856L30.55 324.6223ZM29.378124 316.6067Q29.378124 316.34106 29.534374 316.15356Q29.70625 315.96606 30.01875 315.96606Q30.33125 315.96606 30.4875 316.15356Q30.659374 316.34106 30.659374 316.6067Q30.659374 316.8567 30.4875 317.0442Q30.33125 317.21606 30.01875 317.21606Q29.70625 317.21606 29.534374 317.0442Q29.378124 316.8567 29.378124 316.6067ZM33.55 324.6223L32.471874 324.6223L32.471874 315.6223L33.55 315.6223L33.55 324.6223ZM36.55 324.6223L35.471874 324.6223L35.471874 315.6223L36.55 315.6223L36.55 324.6223ZM39.55 324.6223L38.471874 324.6223L38.471874 318.27856L39.55 318.27856L39.55 324.6223ZM38.378124 316.6067Q38.378124 316.34106 38.534374 316.15356Q38.70625 315.96606 39.01875 315.96606Q39.33125 315.96606 39.4875 316.15356Q39.659374 316.34106 39.659374 316.6067Q39.659374 316.8567 39.4875 317.0442Q39.33125 317.21606 39.01875 317.21606Q38.70625 317.21606 38.534374 317.0442Q38.378124 316.8567 38.378124 316.6067ZM42.39375 318.27856L42.425 319.07544Q43.159374 318.1692 44.33125 318.1692Q46.346874 318.1692 46.3625 320.4348L46.3625 324.6223L45.26875 324.6223L45.26875 320.4192Q45.26875 319.7473 44.95625 319.4192Q44.659374 319.09106 44.003124 319.09106Q43.471874 319.09106 43.065624 319.3723Q42.675 319.65356 42.45625 320.1067L42.45625 324.6223L41.378124 324.6223L41.378124 318.27856L42.39375 318.27856ZM48.1125 321.40356Q48.1125 319.9192 48.8 319.0442Q49.4875 318.1692 50.6125 318.1692Q51.76875 318.1692 52.425 318.9817L52.471874 318.27856L53.471874 318.27856L53.471874 324.46606Q53.471874 325.70044 52.7375 326.40356Q52.003124 327.1223 50.784374 327.1223Q50.096874 327.1223 49.440624 326.82544Q48.784374 326.52856 48.440624 326.02856L49.003124 325.3723Q49.690624 326.2317 50.70625 326.2317Q51.4875 326.2317 51.925 325.77856Q52.378124 325.34106 52.378124 324.52856L52.378124 323.9817Q51.721874 324.7473 50.596874 324.7473Q49.4875 324.7473 48.8 323.8567Q48.1125 322.95044 48.1125 321.40356ZM49.20625 321.52856Q49.20625 322.59106 49.64375 323.21606Q50.08125 323.82544 50.878124 323.82544Q51.89375 323.82544 52.378124 322.88794L52.378124 319.9973Q51.878124 319.09106 50.878124 319.09106Q50.096874 319.09106 49.64375 319.70044Q49.20625 320.3098 49.20625 321.52856ZM63.7375 321.52856Q63.7375 322.9817 63.065624 323.8723Q62.409374 324.7473 61.284374 324.7473Q60.08125 324.7473 59.425 323.88794L59.3625 324.6223L58.378124 324.6223L58.378124 315.6223L59.45625 315.6223L59.45625 318.9817Q60.1125 318.1692 61.26875 318.1692Q62.425 318.1692 63.08125 319.0442Q63.7375 319.90356 63.7375 321.4348L63.7375 321.52856ZM62.659374 321.40356Q62.659374 320.2942 62.221874 319.70044Q61.8 319.09106 61.003124 319.09106Q59.925 319.09106 59.45625 320.07544L59.45625 322.82544Q59.95625 323.82544 61.003124 323.82544Q61.784374 323.82544 62.221874 323.21606Q62.659374 322.6067 62.659374 321.40356ZM66.55 324.6223L65.47188 324.6223L65.47188 318.27856L66.55 318.27856L66.55 324.6223ZM65.37813 316.6067Q65.37813 316.34106 65.53438 316.15356Q65.70625 315.96606 66.01875 315.96606Q66.33125 315.96606 66.4875 316.15356Q66.65938 316.34106 66.65938 316.6067Q66.65938 316.8567 66.4875 317.0442Q66.33125 317.21606 66.01875 317.21606Q65.70625 317.21606 65.53438 317.0442Q65.37813 316.8567 65.37813 316.6067ZM69.84688 316.7473L69.84688 318.27856L71.01875 318.27856L71.01875 319.1223L69.84688 319.1223L69.84688 323.0442Q69.84688 323.4348 70.00313 323.6223Q70.15938 323.8098 70.53438 323.8098Q70.72188 323.8098 71.05 323.7473L71.05 324.6223Q70.62813 324.7473 70.22188 324.7473Q69.50313 324.7473 69.12813 324.3098Q68.75313 323.8567 68.75313 323.0442L68.75313 319.1223L67.59688 319.1223L67.59688 318.27856L68.75313 318.27856L68.75313 316.7473L69.84688 316.7473ZM76.06563 322.9348Q76.06563 322.4973 75.72188 322.26294Q75.39375 322.01294 74.56563 321.84106Q73.75313 321.6692 73.26875 321.4192Q72.78438 321.1692 72.55 320.84106Q72.33125 320.4973 72.33125 320.02856Q72.33125 319.2473 72.9875 318.71606Q73.64375 318.1692 74.675 318.1692Q75.75313 318.1692 76.40938 318.7317Q77.08125 319.27856 77.08125 320.13794L76.00313 320.13794Q76.00313 319.70044 75.6125 319.38794Q75.2375 319.0598 74.675 319.0598Q74.08125 319.0598 73.7375 319.32544Q73.40938 319.57544 73.40938 319.9817Q73.40938 320.3723 73.72188 320.57544Q74.03438 320.77856 74.84688 320.96606Q75.65938 321.13794 76.15938 321.38794Q76.65938 321.63794 76.89375 321.9973Q77.14375 322.3567 77.14375 322.8567Q77.14375 323.71606 76.45625 324.2317Q75.78438 324.7473 74.70625 324.7473Q73.94063 324.7473 73.34688 324.4817Q72.76875 324.20044 72.44063 323.71606Q72.1125 323.2317 72.1125 322.6692L73.19063 322.6692Q73.22188 323.21606 73.62813 323.5442Q74.03438 323.8567 74.70625 323.8567Q75.31563 323.8567 75.69063 323.6067Q76.06563 323.3567 76.06563 322.9348Z" fill-rule="nonzero"/><path fill="#9e9e9e" d="M23.51875 334.09106L23.51875 334.9973L23.315624 334.9973Q22.05 335.02856 21.3 335.76294Q20.55 336.4817 20.425 337.7942Q21.1125 337.02856 22.26875 337.02856Q23.378124 337.02856 24.05 337.8098Q24.721874 338.59106 24.721874 339.84106Q24.721874 341.15356 24.003124 341.95044Q23.284374 342.7473 22.065624 342.7473Q20.846874 342.7473 20.08125 341.8098Q19.33125 340.8567 19.33125 339.3723L19.33125 338.96606Q19.33125 336.6067 20.33125 335.3567Q21.33125 334.1067 23.315624 334.09106L23.51875 334.09106ZM22.096874 337.9348Q21.534374 337.9348 21.065624 338.26294Q20.596874 338.59106 20.409374 339.1067L20.409374 339.4973Q20.409374 340.5598 20.878124 341.20044Q21.3625 341.84106 22.065624 341.84106Q22.8 341.84106 23.221874 341.3098Q23.64375 340.76294 23.64375 339.88794Q23.64375 339.01294 23.221874 338.4817Q22.8 337.9348 22.096874 337.9348ZM31.440624 336.3098Q31.440624 336.95044 31.096874 337.45044Q30.753124 337.95044 30.190624 338.2317Q30.846874 338.51294 31.2375 339.07544Q31.628124 339.6223 31.628124 340.32544Q31.628124 341.4192 30.878124 342.09106Q30.14375 342.7473 28.925 342.7473Q27.690624 342.7473 26.940624 342.09106Q26.20625 341.4192 26.20625 340.32544Q26.20625 339.6223 26.58125 339.07544Q26.95625 338.51294 27.628124 338.2317Q27.065624 337.95044 26.7375 337.45044Q26.409374 336.95044 26.409374 336.3098Q26.409374 335.2317 27.096874 334.6067Q27.784374 333.96606 28.925 333.96606Q30.05 333.96606 30.7375 334.6067Q31.440624 335.2317 31.440624 336.3098ZM30.55 340.2942Q30.55 339.57544 30.096874 339.13794Q29.64375 338.6848 28.909374 338.6848Q28.175 338.6848 27.721874 339.13794Q27.284374 339.57544 27.284374 340.3098Q27.284374 341.02856 27.721874 341.45044Q28.159374 341.8567 28.925 341.8567Q29.675 341.8567 30.1125 341.4348Q30.55 341.01294 30.55 340.2942ZM28.925 334.8567Q28.284374 334.8567 27.878124 335.26294Q27.4875 335.65356 27.4875 336.34106Q27.4875 336.9817 27.878124 337.38794Q28.26875 337.7942 28.909374 337.7942Q29.565624 337.7942 29.95625 337.38794Q30.346874 336.9817 30.346874 336.34106Q30.346874 335.6848 29.940624 335.27856Q29.534374 334.8567 28.925 334.8567ZM33.33125 344.32544L32.721874 343.90356Q33.26875 343.13794 33.3 342.3098L33.3 341.34106L34.3625 341.34106L34.3625 342.1848Q34.3625 342.77856 34.065624 343.3723Q33.76875 343.96606 33.33125 344.32544ZM39.83125 339.76294L41.01875 339.76294L41.01875 340.63794L39.83125 340.63794L39.83125 342.6223L38.753124 342.6223L38.753124 340.63794L34.8625 340.63794L34.8625 339.9973L38.675 334.09106L39.83125 334.09106L39.83125 339.76294ZM36.096874 339.76294L38.753124 339.76294L38.753124 335.57544L38.6125 335.8098L36.096874 339.76294ZM42.159374 335.7317Q42.159374 334.96606 42.64375 334.46606Q43.14375 333.96606 43.909374 333.96606Q44.690624 333.96606 45.175 334.46606Q45.659374 334.96606 45.659374 335.76294L45.659374 336.1848Q45.659374 336.95044 45.159374 337.45044Q44.675 337.9348 43.925 337.9348Q43.159374 337.9348 42.659374 337.45044Q42.159374 336.95044 42.159374 336.13794L42.159374 335.7317ZM42.971874 336.1848Q42.971874 336.63794 43.221874 336.9348Q43.4875 337.2317 43.925 337.2317Q44.346874 337.2317 44.596874 336.95044Q44.846874 336.65356 44.846874 336.15356L44.846874 335.7317Q44.846874 335.27856 44.596874 334.9817Q44.346874 334.6692 43.909374 334.6692Q43.471874 334.6692 43.221874 334.9817Q42.971874 335.27856 42.971874 335.7473L42.971874 336.1848ZM46.315624 340.52856Q46.315624 339.76294 46.8 339.27856Q47.3 338.77856 48.065624 338.77856Q48.83125 338.77856 49.315624 339.27856Q49.815624 339.76294 49.815624 340.57544L49.815624 340.9817Q49.815624 341.7473 49.33125 342.2473Q48.846874 342.7473 48.08125 342.7473Q47.315624 342.7473 46.815624 342.26294Q46.315624 341.76294 46.315624 340.95044L46.315624 340.52856ZM47.128124 340.9817Q47.128124 341.45044 47.378124 341.7473Q47.64375 342.0442 48.08125 342.0442Q48.503124 342.0442 48.753124 341.76294Q49.003124 341.46606 49.003124 340.96606L49.003124 340.52856Q49.003124 340.0598 48.7375 339.77856Q48.4875 339.4817 48.065624 339.4817Q47.64375 339.4817 47.378124 339.77856Q47.128124 340.0598 47.128124 340.5598L47.128124 340.9817ZM44.175 341.9817L43.55 341.59106L47.721874 334.9192L48.33125 335.3098L44.175 341.9817Z" fill-rule="nonzero"/><path stroke="#757575" stroke-width="1.0" stroke-linecap="butt" d="M18.55 329.1223L107.23333 329.1223L196.89423 329.1223" fill-rule="nonzero"/><path fill="#9e9e9e" d="M198.89423 329.1223C198.89423 328.01773 197.9988 327.1223 196.89423 327.1223C195.78966 327.1223 194.89423 328.01773 194.89423 329.1223C194.89423 330.22687 195.78966 331.1223 196.89423 331.1223C197.9988 331.1223 198.89423 330.22687 198.89423 329.1223" fill-rule="nonzero"/><path fill="#757575" d="M475.71564 64.21354Q475.5594 65.55729 474.71564 66.30729Q473.8719 67.041664 472.48126 67.041664Q470.96564 67.041664 470.0594 65.96354Q469.15314 64.86979 469.15314 63.041664L469.15314 62.229164Q469.15314 61.041664 469.575 60.135414Q469.9969 59.229164 470.77814 58.74479Q471.5594 58.260414 472.575 58.260414Q473.9344 58.260414 474.7469 59.02604Q475.575 59.791664 475.71564 61.11979L474.59064 61.11979Q474.4344 60.104164 473.95 59.65104Q473.46564 59.197914 472.575 59.197914Q471.4969 59.197914 470.8875 59.99479Q470.27814 60.791664 470.27814 62.260414L470.27814 63.08854Q470.27814 64.479164 470.85626 65.30729Q471.4344 66.11979 472.48126 66.11979Q473.41876 66.11979 473.91876 65.697914Q474.41876 65.260414 474.59064 64.21354L475.71564 64.21354ZM476.98126 63.68229Q476.98126 62.760414 477.34064 62.010414Q477.71564 61.260414 478.3719 60.86979Q479.02814 60.46354 479.85626 60.46354Q481.15314 60.46354 481.95 61.354164Q482.7625 62.24479 482.7625 63.74479L482.7625 63.822914Q482.7625 64.74479 482.40314 65.479164Q482.04376 66.21354 481.3875 66.635414Q480.73126 67.041664 479.8719 67.041664Q478.59064 67.041664 477.77814 66.15104Q476.98126 65.24479 476.98126 63.760414L476.98126 63.68229ZM478.075 63.822914Q478.075 64.86979 478.5594 65.510414Q479.0594 66.15104 479.8719 66.15104Q480.7 66.15104 481.1844 65.510414Q481.66876 64.854164 481.66876 63.68229Q481.66876 62.65104 481.16876 62.010414Q480.6844 61.354164 479.85626 61.354164Q479.0594 61.354164 478.5594 61.99479Q478.075 62.61979 478.075 63.822914ZM485.45 66.916664L484.3719 66.916664L484.3719 57.916664L485.45 57.916664L485.45 66.916664ZM488.45 66.916664L487.3719 66.916664L487.3719 57.916664L488.45 57.916664L488.45 66.916664ZM492.90314 67.041664Q491.60626 67.041664 490.79376 66.197914Q489.9969 65.33854 489.9969 63.916664L489.9969 63.729164Q489.9969 62.77604 490.35626 62.041664Q490.71564 61.291664 491.35626 60.885414Q492.0125 60.46354 492.7625 60.46354Q493.9969 60.46354 494.6844 61.27604Q495.3719 62.08854 495.3719 63.604164L495.3719 64.05729L491.075 64.05729Q491.10626 64.99479 491.6219 65.572914Q492.15314 66.15104 492.96564 66.15104Q493.52814 66.15104 493.91876 65.916664Q494.325 65.68229 494.6375 65.291664L495.29376 65.80729Q494.4969 67.041664 492.90314 67.041664ZM492.7625 61.354164Q492.10626 61.354164 491.65314 61.83854Q491.21564 62.30729 491.1219 63.166664L494.29376 63.166664L494.29376 63.08854Q494.2469 62.260414 493.84064 61.80729Q493.45 61.354164 492.7625 61.354164ZM497.7469 59.041664L497.7469 60.572914L498.91876 60.572914L498.91876 61.416664L497.7469 61.416664L497.7469 65.33854Q497.7469 65.729164 497.90314 65.916664Q498.0594 66.104164 498.4344 66.104164Q498.6219 66.104164 498.95 66.041664L498.95 66.916664Q498.52814 67.041664 498.1219 67.041664Q497.40314 67.041664 497.02814 66.604164Q496.65314 66.15104 496.65314 65.33854L496.65314 61.416664L495.4969 61.416664L495.4969 60.572914L496.65314 60.572914L496.65314 59.041664L497.7469 59.041664ZM503.96564 65.229164Q503.96564 64.791664 503.6219 64.55729Q503.29376 64.30729 502.46564 64.135414Q501.65314 63.96354 501.16876 63.71354Q500.6844 63.46354 500.45 63.135414Q500.23126 62.791664 500.23126 62.322914Q500.23126 61.541664 500.8875 61.010414Q501.54376 60.46354 502.575 60.46354Q503.65314 60.46354 504.3094 61.02604Q504.98126 61.572914 504.98126 62.43229L503.90314 62.43229Q503.90314 61.99479 503.5125 61.68229Q503.1375 61.354164 502.575 61.354164Q501.98126 61.354164 501.6375 61.61979Q501.3094 61.86979 501.3094 62.27604Q501.3094 62.666664 501.6219 62.86979Q501.9344 63.072914 502.7469 63.260414Q503.5594 63.43229 504.0594 63.68229Q504.5594 63.93229 504.79376 64.291664Q505.04376 64.65104 505.04376 65.15104Q505.04376 66.010414 504.35626 66.52604Q503.6844 67.041664 502.60626 67.041664Q501.84064 67.041664 501.2469 66.77604Q500.66876 66.49479 500.34064 66.010414Q500.0125 65.52604 500.0125 64.96354L501.09064 64.96354Q501.1219 65.510414 501.52814 65.83854Q501.9344 66.15104 502.60626 66.15104Q503.21564 66.15104 503.59064 65.90104Q503.96564 65.65104 503.96564 65.229164Z" fill-rule="nonzero"/><path fill="#9e9e9e" d="M477.71564 84.916664L476.6375 84.916664L476.6375 77.697914L474.45 78.49479L474.45 77.510414L477.5594 76.33854L477.71564 76.33854L477.71564 84.916664ZM486.5125 81.27604Q486.5125 83.18229 485.85626 84.11979Q485.21564 85.041664 483.825 85.041664Q482.46564 85.041664 481.8094 84.135414Q481.15314 83.229164 481.1219 81.416664L481.1219 79.979164Q481.1219 78.08854 481.7625 77.18229Q482.41876 76.260414 483.8094 76.260414Q485.1844 76.260414 485.84064 77.15104Q486.4969 78.02604 486.5125 79.86979L486.5125 81.27604ZM485.41876 79.791664Q485.41876 78.416664 485.02814 77.791664Q484.65314 77.15104 483.8094 77.15104Q482.98126 77.15104 482.59064 77.791664Q482.21564 78.416664 482.21564 79.71354L482.21564 81.447914Q482.21564 82.822914 482.60626 83.49479Q483.0125 84.15104 483.825 84.15104Q484.6219 84.15104 485.0125 83.52604Q485.40314 82.90104 485.41876 81.572914L485.41876 79.791664ZM488.23126 86.61979L487.6219 86.197914Q488.16876 85.43229 488.2 84.604164L488.2 83.635414L489.2625 83.635414L489.2625 84.479164Q489.2625 85.072914 488.96564 85.666664Q488.66876 86.260414 488.23126 86.61979ZM495.7469 84.916664L490.15314 84.916664L490.15314 84.135414L493.10626 80.854164Q493.7625 80.104164 494.0125 79.65104Q494.2625 79.18229 494.2625 78.68229Q494.2625 78.010414 493.85626 77.58854Q493.46564 77.15104 492.77814 77.15104Q491.98126 77.15104 491.52814 77.61979Q491.075 78.072914 491.075 78.90104L489.9969 78.90104Q489.9969 77.71354 490.7469 76.99479Q491.5125 76.260414 492.77814 76.260414Q493.98126 76.260414 494.66876 76.885414Q495.35626 77.510414 495.35626 78.55729Q495.35626 79.80729 493.7469 81.55729L491.46564 84.02604L495.7469 84.02604L495.7469 84.916664ZM497.0594 78.02604Q497.0594 77.260414 497.54376 76.760414Q498.04376 76.260414 498.8094 76.260414Q499.59064 76.260414 500.075 76.760414Q500.5594 77.260414 500.5594 78.05729L500.5594 78.479164Q500.5594 79.24479 500.0594 79.74479Q499.575 80.229164 498.825 80.229164Q498.0594 80.229164 497.5594 79.74479Q497.0594 79.24479 497.0594 78.43229L497.0594 78.02604ZM497.8719 78.479164Q497.8719 78.93229 498.1219 79.229164Q498.3875 79.52604 498.825 79.52604Q499.2469 79.52604 499.4969 79.24479Q499.7469 78.947914 499.7469 78.447914L499.7469 78.02604Q499.7469 77.572914 499.4969 77.27604Q499.2469 76.96354 498.8094 76.96354Q498.3719 76.96354 498.1219 77.27604Q497.8719 77.572914 497.8719 78.041664L497.8719 78.479164ZM501.21564 82.822914Q501.21564 82.05729 501.7 81.572914Q502.2 81.072914 502.96564 81.072914Q503.73126 81.072914 504.21564 81.572914Q504.71564 82.05729 504.71564 82.86979L504.71564 83.27604Q504.71564 84.041664 504.23126 84.541664Q503.7469 85.041664 502.98126 85.041664Q502.21564 85.041664 501.71564 84.55729Q501.21564 84.05729 501.21564 83.24479L501.21564 82.822914ZM502.02814 83.27604Q502.02814 83.74479 502.27814 84.041664Q502.54376 84.33854 502.98126 84.33854Q503.40314 84.33854 503.65314 84.05729Q503.90314 83.760414 503.90314 83.260414L503.90314 82.822914Q503.90314 82.354164 503.6375 82.072914Q503.3875 81.77604 502.96564 81.77604Q502.54376 81.77604 502.27814 82.072914Q502.02814 82.354164 502.02814 82.854164L502.02814 83.27604ZM499.075 84.27604L498.45 83.885414L502.6219 77.21354L503.23126 77.604164L499.075 84.27604Z" fill-rule="nonzero"/><path stroke="#757575" stroke-width="1.0" stroke-linecap="butt" d="M505.45 71.416664L416.76666 71.416664L306.71445 69.615005" fill-rule="nonzero"/><path fill="#9e9e9e" d="M308.71445 69.615005C308.71445 68.51044 307.819 67.615005 306.71445 67.615005C305.60986 67.615005 304.71445 68.51044 304.71445 69.615005C304.71445 70.719574 305.60986 71.615005 306.71445 71.615005C307.819 71.615005 308.71445 70.719574 308.71445 69.615005" fill-rule="nonzero"/><path fill="#757575" d="M452.9969 129.87045L451.8719 129.87045L451.8719 125.93295L447.5594 125.93295L447.5594 129.87045L446.4344 129.87045L446.4344 121.3392L447.5594 121.3392L447.5594 125.01108L451.8719 125.01108L451.8719 121.3392L452.9969 121.3392L452.9969 129.87045ZM459.1844 129.87045Q459.09064 129.68295 459.02814 129.19858Q458.27814 129.99545 457.23126 129.99545Q456.29376 129.99545 455.6844 129.4642Q455.09064 128.93295 455.09064 128.10483Q455.09064 127.12045 455.84064 126.57358Q456.59064 126.0267 457.96564 126.0267L459.0125 126.0267L459.0125 125.5267Q459.0125 124.9642 458.66876 124.63608Q458.34064 124.29233 457.66876 124.29233Q457.09064 124.29233 456.7 124.5892Q456.3094 124.87045 456.3094 125.29233L455.21564 125.29233Q455.21564 124.80795 455.54376 124.37045Q455.8875 123.93295 456.46564 123.68295Q457.04376 123.41733 457.73126 123.41733Q458.84064 123.41733 459.45 123.9642Q460.075 124.51108 460.10626 125.4642L460.10626 128.38608Q460.10626 129.26108 460.325 129.7767L460.325 129.87045L459.1844 129.87045ZM457.3875 129.04233Q457.90314 129.04233 458.35626 128.7767Q458.8094 128.51108 459.0125 128.0892L459.0125 126.79233L458.16876 126.79233Q456.16876 126.79233 456.16876 127.9642Q456.16876 128.4642 456.5125 128.76108Q456.85626 129.04233 457.3875 129.04233ZM463.29376 123.5267L463.325 124.32358Q464.0594 123.41733 465.23126 123.41733Q467.2469 123.41733 467.2625 125.68295L467.2625 129.87045L466.16876 129.87045L466.16876 125.66733Q466.16876 124.99545 465.85626 124.66733Q465.5594 124.3392 464.90314 124.3392Q464.3719 124.3392 463.96564 124.62045Q463.575 124.9017 463.35626 125.35483L463.35626 129.87045L462.27814 129.87045L462.27814 123.5267L463.29376 123.5267ZM469.0125 126.6517Q469.0125 125.18295 469.7 124.30795Q470.3875 123.41733 471.5125 123.41733Q472.6219 123.41733 473.27814 124.16733L473.27814 120.87045L474.35626 120.87045L474.35626 129.87045L473.35626 129.87045L473.3094 129.18295Q472.65314 129.99545 471.4969 129.99545Q470.40314 129.99545 469.7 129.0892Q469.0125 128.18295 469.0125 126.72983L469.0125 126.6517ZM470.09064 126.7767Q470.09064 127.85483 470.52814 128.4642Q470.98126 129.07358 471.7625 129.07358Q472.79376 129.07358 473.27814 128.13608L473.27814 125.22983Q472.79376 124.3392 471.77814 124.3392Q470.98126 124.3392 470.52814 124.94858Q470.09064 125.55795 470.09064 126.7767ZM480.7469 121.99545L480.7469 123.5267L481.91876 123.5267L481.91876 124.37045L480.7469 124.37045L480.7469 128.29233Q480.7469 128.68295 480.90314 128.87045Q481.0594 129.05795 481.4344 129.05795Q481.6219 129.05795 481.95 128.99545L481.95 129.87045Q481.52814 129.99545 481.1219 129.99545Q480.40314 129.99545 480.02814 129.55795Q479.65314 129.10483 479.65314 128.29233L479.65314 124.37045L478.4969 124.37045L478.4969 123.5267L479.65314 123.5267L479.65314 121.99545L480.7469 121.99545ZM482.98126 126.63608Q482.98126 125.7142 483.34064 124.9642Q483.71564 124.2142 484.3719 123.82358Q485.02814 123.41733 485.85626 123.41733Q487.15314 123.41733 487.95 124.30795Q488.7625 125.19858 488.7625 126.69858L488.7625 126.7767Q488.7625 127.69858 488.40314 128.43295Q488.04376 129.16733 487.3875 129.5892Q486.73126 129.99545 485.8719 129.99545Q484.59064 129.99545 483.77814 129.10483Q482.98126 128.19858 482.98126 126.7142L482.98126 126.63608ZM484.075 126.7767Q484.075 127.82358 484.5594 128.4642Q485.0594 129.10483 485.8719 129.10483Q486.7 129.10483 487.1844 128.4642Q487.66876 127.80795 487.66876 126.63608Q487.66876 125.60483 487.16876 124.9642Q486.6844 124.30795 485.85626 124.30795Q485.0594 124.30795 484.5594 124.94858Q484.075 125.57358 484.075 126.7767ZM489.98126 126.63608Q489.98126 125.7142 490.34064 124.9642Q490.71564 124.2142 491.3719 123.82358Q492.02814 123.41733 492.85626 123.41733Q494.15314 123.41733 494.95 124.30795Q495.7625 125.19858 495.7625 126.69858L495.7625 126.7767Q495.7625 127.69858 495.40314 128.43295Q495.04376 129.16733 494.3875 129.5892Q493.73126 129.99545 492.8719 129.99545Q491.59064 129.99545 490.77814 129.10483Q489.98126 128.19858 489.98126 126.7142L489.98126 126.63608ZM491.075 126.7767Q491.075 127.82358 491.5594 128.4642Q492.0594 129.10483 492.8719 129.10483Q493.7 129.10483 494.1844 128.4642Q494.66876 127.80795 494.66876 126.63608Q494.66876 125.60483 494.16876 124.9642Q493.6844 124.30795 492.85626 124.30795Q492.0594 124.30795 491.5594 124.94858Q491.075 125.57358 491.075 126.7767ZM498.45 129.87045L497.3719 129.87045L497.3719 120.87045L498.45 120.87045L498.45 129.87045ZM503.96564 128.18295Q503.96564 127.74545 503.6219 127.51108Q503.29376 127.26108 502.46564 127.0892Q501.65314 126.91733 501.16876 126.66733Q500.6844 126.41733 500.45 126.0892Q500.23126 125.74545 500.23126 125.2767Q500.23126 124.49545 500.8875 123.9642Q501.54376 123.41733 502.575 123.41733Q503.65314 123.41733 504.3094 123.97983Q504.98126 124.5267 504.98126 125.38608L503.90314 125.38608Q503.90314 124.94858 503.5125 124.63608Q503.1375 124.30795 502.575 124.30795Q501.98126 124.30795 501.6375 124.57358Q501.3094 124.82358 501.3094 125.22983Q501.3094 125.62045 501.6219 125.82358Q501.9344 126.0267 502.7469 126.2142Q503.5594 126.38608 504.0594 126.63608Q504.5594 126.88608 504.79376 127.24545Q505.04376 127.60483 505.04376 128.10483Q505.04376 128.9642 504.35626 129.47983Q503.6844 129.99545 502.60626 129.99545Q501.84064 129.99545 501.2469 129.72983Q500.66876 129.44858 500.34064 128.9642Q500.0125 128.47983 500.0125 127.91733L501.09064 127.91733Q501.1219 128.4642 501.52814 128.79233Q501.9344 129.10483 502.60626 129.10483Q503.21564 129.10483 503.59064 128.85483Q503.96564 128.60483 503.96564 128.18295Z" fill-rule="nonzero"/><path fill="#9e9e9e" d="M477.71564 147.87045L476.6375 147.87045L476.6375 140.6517L474.45 141.44858L474.45 140.4642L477.5594 139.29233L477.71564 139.29233L477.71564 147.87045ZM482.73126 143.07358L483.54376 143.07358Q484.325 143.05795 484.7625 142.66733Q485.2 142.2767 485.2 141.60483Q485.2 140.10483 483.7 140.10483Q482.9969 140.10483 482.575 140.51108Q482.16876 140.91733 482.16876 141.57358L481.075 141.57358Q481.075 140.55795 481.8094 139.88608Q482.5594 139.2142 483.7 139.2142Q484.90314 139.2142 485.59064 139.85483Q486.27814 140.49545 486.27814 141.63608Q486.27814 142.19858 485.91876 142.7142Q485.5594 143.22983 484.9344 143.49545Q485.6375 143.7142 486.0125 144.22983Q486.40314 144.74545 486.40314 145.49545Q486.40314 146.63608 485.65314 147.32358Q484.90314 147.99545 483.7 147.99545Q482.5125 147.99545 481.7469 147.3392Q480.9969 146.68295 480.9969 145.62045L482.09064 145.62045Q482.09064 146.29233 482.52814 146.69858Q482.96564 147.10483 483.71564 147.10483Q484.4969 147.10483 484.90314 146.69858Q485.325 146.2767 485.325 145.51108Q485.325 144.7767 484.8719 144.38608Q484.41876 143.97983 483.54376 143.9642L482.73126 143.9642L482.73126 143.07358ZM488.23126 149.57358L487.6219 149.1517Q488.16876 148.38608 488.2 147.55795L488.2 146.5892L489.2625 146.5892L489.2625 147.43295Q489.2625 148.0267 488.96564 148.62045Q488.66876 149.2142 488.23126 149.57358ZM495.7469 147.87045L490.15314 147.87045L490.15314 147.0892L493.10626 143.80795Q493.7625 143.05795 494.0125 142.60483Q494.2625 142.13608 494.2625 141.63608Q494.2625 140.9642 493.85626 140.54233Q493.46564 140.10483 492.77814 140.10483Q491.98126 140.10483 491.52814 140.57358Q491.075 141.0267 491.075 141.85483L489.9969 141.85483Q489.9969 140.66733 490.7469 139.94858Q491.5125 139.2142 492.77814 139.2142Q493.98126 139.2142 494.66876 139.8392Q495.35626 140.4642 495.35626 141.51108Q495.35626 142.76108 493.7469 144.51108L491.46564 146.97983L495.7469 146.97983L495.7469 147.87045ZM497.0594 140.97983Q497.0594 140.2142 497.54376 139.7142Q498.04376 139.2142 498.8094 139.2142Q499.59064 139.2142 500.075 139.7142Q500.5594 140.2142 500.5594 141.01108L500.5594 141.43295Q500.5594 142.19858 500.0594 142.69858Q499.575 143.18295 498.825 143.18295Q498.0594 143.18295 497.5594 142.69858Q497.0594 142.19858 497.0594 141.38608L497.0594 140.97983ZM497.8719 141.43295Q497.8719 141.88608 498.1219 142.18295Q498.3875 142.47983 498.825 142.47983Q499.2469 142.47983 499.4969 142.19858Q499.7469 141.9017 499.7469 141.4017L499.7469 140.97983Q499.7469 140.5267 499.4969 140.22983Q499.2469 139.91733 498.8094 139.91733Q498.3719 139.91733 498.1219 140.22983Q497.8719 140.5267 497.8719 140.99545L497.8719 141.43295ZM501.21564 145.7767Q501.21564 145.01108 501.7 144.5267Q502.2 144.0267 502.96564 144.0267Q503.73126 144.0267 504.21564 144.5267Q504.71564 145.01108 504.71564 145.82358L504.71564 146.22983Q504.71564 146.99545 504.23126 147.49545Q503.7469 147.99545 502.98126 147.99545Q502.21564 147.99545 501.71564 147.51108Q501.21564 147.01108 501.21564 146.19858L501.21564 145.7767ZM502.02814 146.22983Q502.02814 146.69858 502.27814 146.99545Q502.54376 147.29233 502.98126 147.29233Q503.40314 147.29233 503.65314 147.01108Q503.90314 146.7142 503.90314 146.2142L503.90314 145.7767Q503.90314 145.30795 503.6375 145.0267Q503.3875 144.72983 502.96564 144.72983Q502.54376 144.72983 502.27814 145.0267Q502.02814 145.30795 502.02814 145.80795L502.02814 146.22983ZM499.075 147.22983L498.45 146.8392L502.6219 140.16733L503.23126 140.55795L499.075 147.22983Z" fill-rule="nonzero"/><path stroke="#757575" stroke-width="1.0" stroke-linecap="butt" d="M505.45 134.37045L416.76666 134.37045L385.1642 134.37045" fill-rule="nonzero"/><path fill="#9e9e9e" d="M387.1642 134.37045C387.1642 133.26588 386.26877 132.37045 385.1642 132.37045C384.05963 132.37045 383.1642 133.26588 383.1642 134.37045C383.1642 135.47502 384.05963 136.37045 385.1642 136.37045C386.26877 136.37045 387.1642 135.47502 387.1642 134.37045" fill-rule="nonzero"/><path fill="#757575" d="M20.20625 37.55L20.20625 23.33125L24.221874 23.33125Q26.065624 23.33125 27.4875 24.159374Q28.925 24.971874 29.690624 26.4875Q30.471874 28.003124 30.4875 29.95625L30.4875 30.8625Q30.4875 32.878124 29.70625 34.39375Q28.925 35.909374 27.4875 36.721874Q26.05 37.534374 24.14375 37.55L20.20625 37.55ZM22.08125 24.878124L22.08125 36.01875L24.05 36.01875Q26.221874 36.01875 27.425 34.675Q28.628124 33.315624 28.628124 30.83125L28.628124 30.003124Q28.628124 27.58125 27.4875 26.2375Q26.346874 24.89375 24.26875 24.878124L22.08125 24.878124ZM34.878124 37.55L33.08125 37.55L33.08125 26.9875L34.878124 26.9875L34.878124 37.55ZM32.925 24.175Q32.925 23.7375 33.190624 23.440624Q33.471874 23.128124 33.9875 23.128124Q34.51875 23.128124 34.784374 23.440624Q35.065624 23.7375 35.065624 24.175Q35.065624 24.6125 34.784374 24.909374Q34.51875 25.20625 33.9875 25.20625Q33.471874 25.20625 33.190624 24.909374Q32.925 24.6125 32.925 24.175ZM44.065624 34.753124Q44.065624 34.01875 43.51875 33.6125Q42.971874 33.20625 41.596874 32.909374Q40.221874 32.6125 39.409374 32.20625Q38.6125 31.8 38.221874 31.2375Q37.846874 30.659374 37.846874 29.878124Q37.846874 28.58125 38.940624 27.690624Q40.034374 26.784374 41.753124 26.784374Q43.55 26.784374 44.659374 27.721874Q45.784374 28.64375 45.784374 30.08125L43.95625 30.08125Q43.95625 29.346874 43.33125 28.815624Q42.70625 28.26875 41.753124 28.26875Q40.753124 28.26875 40.190624 28.70625Q39.64375 29.128124 39.64375 29.83125Q39.64375 30.471874 40.159374 30.815624Q40.675 31.14375 42.034374 31.45625Q43.39375 31.753124 44.221874 32.175Q45.065624 32.58125 45.471874 33.175Q45.878124 33.76875 45.878124 34.6125Q45.878124 36.034374 44.7375 36.89375Q43.6125 37.753124 41.8 37.753124Q40.534374 37.753124 39.55 37.3Q38.58125 36.846874 38.01875 36.05Q37.471874 35.2375 37.471874 34.3L39.284374 34.3Q39.33125 35.20625 40.003124 35.7375Q40.690624 36.26875 41.8 36.26875Q42.83125 36.26875 43.440624 35.8625Q44.065624 35.440624 44.065624 34.753124ZM50.3625 24.425L50.3625 26.9875L52.346874 26.9875L52.346874 28.378124L50.3625 28.378124L50.3625 34.925Q50.3625 35.565624 50.628124 35.89375Q50.89375 36.20625 51.534374 36.20625Q51.846874 36.20625 52.39375 36.08125L52.39375 37.55Q51.675 37.753124 51.003124 37.753124Q49.8 37.753124 49.175 37.01875Q48.565624 36.284374 48.565624 34.925L48.565624 28.378124L46.64375 28.378124L46.64375 26.9875L48.565624 26.9875L48.565624 24.425L50.3625 24.425ZM60.01875 28.596874Q59.6125 28.534374 59.14375 28.534374Q57.3625 28.534374 56.721874 30.05L56.721874 37.55L54.925 37.55L54.925 26.9875L56.675 26.9875L56.70625 28.20625Q57.596874 26.784374 59.221874 26.784374Q59.753124 26.784374 60.01875 26.925L60.01875 28.596874ZM63.878124 37.55L62.08125 37.55L62.08125 26.9875L63.878124 26.9875L63.878124 37.55ZM61.925 24.175Q61.925 23.7375 62.190624 23.440624Q62.471874 23.128124 62.9875 23.128124Q63.51875 23.128124 63.784374 23.440624Q64.06563 23.7375 64.06563 24.175Q64.06563 24.6125 63.784374 24.909374Q63.51875 25.20625 62.9875 25.20625Q62.471874 25.20625 62.190624 24.909374Q61.925 24.6125 61.925 24.175ZM75.8625 32.378124Q75.8625 34.8 74.75313 36.284374Q73.64375 37.753124 71.76875 37.753124Q69.75313 37.753124 68.65938 36.33125L68.58125 37.55L66.925 37.55L66.925 22.55L68.72188 22.55L68.72188 28.14375Q69.81563 26.784374 71.7375 26.784374Q73.65938 26.784374 74.75313 28.2375Q75.8625 29.690624 75.8625 32.221874L75.8625 32.378124ZM74.05 32.175Q74.05 30.33125 73.33125 29.33125Q72.62813 28.315624 71.3 28.315624Q69.50313 28.315624 68.72188 29.9875L68.72188 34.55Q69.55 36.20625 71.31563 36.20625Q72.6125 36.20625 73.33125 35.20625Q74.05 34.20625 74.05 32.175ZM84.44063 36.503124Q83.39375 37.753124 81.34688 37.753124Q79.65938 37.753124 78.76875 36.76875Q77.89375 35.784374 77.87813 33.8625L77.87813 26.9875L79.69063 26.9875L79.69063 33.815624Q79.69063 36.20625 81.64375 36.20625Q83.70625 36.20625 84.39375 34.675L84.39375 26.9875L86.20625 26.9875L86.20625 37.55L84.4875 37.55L84.44063 36.503124ZM91.3625 24.425L91.3625 26.9875L93.34688 26.9875L93.34688 28.378124L91.3625 28.378124L91.3625 34.925Q91.3625 35.565624 91.62813 35.89375Q91.89375 36.20625 92.53438 36.20625Q92.84688 36.20625 93.39375 36.08125L93.39375 37.55Q92.675 37.753124 92.00313 37.753124Q90.8 37.753124 90.175 37.01875Q89.56563 36.284374 89.56563 34.925L89.56563 28.378124L87.64375 28.378124L87.64375 26.9875L89.56563 26.9875L89.56563 24.425L91.3625 24.425ZM97.87813 37.55L96.08125 37.55L96.08125 26.9875L97.87813 26.9875L97.87813 37.55ZM95.925 24.175Q95.925 23.7375 96.19063 23.440624Q96.47188 23.128124 96.9875 23.128124Q97.51875 23.128124 97.78438 23.440624Q98.06563 23.7375 98.06563 24.175Q98.06563 24.6125 97.78438 24.909374Q97.51875 25.20625 96.9875 25.20625Q96.47188 25.20625 96.19063 24.909374Q95.925 24.6125 95.925 24.175ZM100.44063 32.175Q100.44063 30.6125 101.05 29.378124Q101.65938 28.128124 102.7375 27.45625Q103.83125 26.784374 105.2375 26.784374Q107.39375 26.784374 108.72188 28.284374Q110.06563 29.76875 110.06563 32.253124L110.06563 32.378124Q110.06563 33.925 109.47188 35.159374Q108.87813 36.378124 107.76875 37.065624Q106.675 37.753124 105.25313 37.753124Q103.1125 37.753124 101.76875 36.253124Q100.44063 34.753124 100.44063 32.3L100.44063 32.175ZM102.25313 32.378124Q102.25313 34.14375 103.06563 35.20625Q103.89375 36.26875 105.25313 36.26875Q106.62813 36.26875 107.44063 35.190624Q108.25313 34.1125 108.25313 32.175Q108.25313 30.425 107.425 29.346874Q106.59688 28.26875 105.2375 28.26875Q103.89375 28.26875 103.06563 29.33125Q102.25313 30.39375 102.25313 32.378124ZM113.62813 26.9875L113.69063 28.315624Q114.89375 26.784374 116.84688 26.784374Q120.20625 26.784374 120.22188 30.565624L120.22188 37.55L118.425 37.55L118.425 30.55Q118.40938 29.409374 117.89375 28.8625Q117.39375 28.315624 116.3 28.315624Q115.425 28.315624 114.75313 28.784374Q114.09688 29.253124 113.72188 30.01875L113.72188 37.55L111.925 37.55L111.925 26.9875L113.62813 26.9875ZM129.87813 37.55L128.08125 37.55L128.08125 26.9875L129.87813 26.9875L129.87813 37.55ZM127.925 24.175Q127.925 23.7375 128.19063 23.440624Q128.47188 23.128124 128.9875 23.128124Q129.51875 23.128124 129.78438 23.440624Q130.06563 23.7375 130.06563 24.175Q130.06563 24.6125 129.78438 24.909374Q129.51875 25.20625 128.9875 25.20625Q128.47188 25.20625 128.19063 24.909374Q127.925 24.6125 127.925 24.175ZM134.62813 26.9875L134.69063 28.315624Q135.89375 26.784374 137.84688 26.784374Q141.20625 26.784374 141.22188 30.565624L141.22188 37.55L139.425 37.55L139.425 30.55Q139.40938 29.409374 138.89375 28.8625Q138.39375 28.315624 137.3 28.315624Q136.425 28.315624 135.75313 28.784374Q135.09688 29.253124 134.72188 30.01875L134.72188 37.55L132.925 37.55L132.925 26.9875L134.62813 26.9875ZM155.06563 34.753124Q155.06563 34.01875 154.51875 33.6125Q153.97188 33.20625 152.59688 32.909374Q151.22188 32.6125 150.40938 32.20625Q149.6125 31.8 149.22188 31.2375Q148.84688 30.659374 148.84688 29.878124Q148.84688 28.58125 149.94063 27.690624Q151.03438 26.784374 152.75313 26.784374Q154.55 26.784374 155.65938 27.721874Q156.78438 28.64375 156.78438 30.08125L154.95625 30.08125Q154.95625 29.346874 154.33125 28.815624Q153.70625 28.26875 152.75313 28.26875Q151.75313 28.26875 151.19063 28.70625Q150.64375 29.128124 150.64375 29.83125Q150.64375 30.471874 151.15938 30.815624Q151.675 31.14375 153.03438 31.45625Q154.39375 31.753124 155.22188 32.175Q156.06563 32.58125 156.47188 33.175Q156.87813 33.76875 156.87813 34.6125Q156.87813 36.034374 155.7375 36.89375Q154.6125 37.753124 152.8 37.753124Q151.53438 37.753124 150.55 37.3Q149.58125 36.846874 149.01875 36.05Q148.47188 35.2375 148.47188 34.3L150.28438 34.3Q150.33125 35.20625 151.00313 35.7375Q151.69063 36.26875 152.8 36.26875Q153.83125 36.26875 154.44063 35.8625Q155.06563 35.440624 155.06563 34.753124ZM163.3 37.753124Q161.15938 37.753124 159.8 36.346874Q158.45625 34.925 158.45625 32.565624L158.45625 32.221874Q158.45625 30.659374 159.05 29.425Q159.65938 28.190624 160.7375 27.4875Q161.81563 26.784374 163.08125 26.784374Q165.14375 26.784374 166.28438 28.14375Q167.425 29.503124 167.425 32.034374L167.425 32.784374L160.26875 32.784374Q160.3 34.346874 161.175 35.315624Q162.05 36.26875 163.39375 36.26875Q164.3625 36.26875 165.01875 35.878124Q165.69063 35.4875 166.19063 34.846874L167.28438 35.70625Q165.95625 37.753124 163.3 37.753124ZM163.08125 28.26875Q161.9875 28.26875 161.2375 29.065624Q160.50313 29.8625 160.33125 31.3L165.6125 31.3L165.6125 31.159374Q165.53438 29.784374 164.8625 29.034374Q164.20625 28.26875 163.08125 28.26875ZM171.87813 37.55L170.08125 37.55L170.08125 22.55L171.87813 22.55L171.87813 37.55ZM179.3 37.753124Q177.15938 37.753124 175.8 36.346874Q174.45625 34.925 174.45625 32.565624L174.45625 32.221874Q174.45625 30.659374 175.05 29.425Q175.65938 28.190624 176.7375 27.4875Q177.81563 26.784374 179.08125 26.784374Q181.14375 26.784374 182.28438 28.14375Q183.425 29.503124 183.425 32.034374L183.425 32.784374L176.26875 32.784374Q176.3 34.346874 177.175 35.315624Q178.05 36.26875 179.39375 36.26875Q180.3625 36.26875 181.01875 35.878124Q181.69063 35.4875 182.19063 34.846874L183.28438 35.70625Q181.95625 37.753124 179.3 37.753124ZM179.08125 28.26875Q177.9875 28.26875 177.2375 29.065624Q176.50313 29.8625 176.33125 31.3L181.6125 31.3L181.6125 31.159374Q181.53438 29.784374 180.8625 29.034374Q180.20625 28.26875 179.08125 28.26875ZM190.15938 36.26875Q191.12813 36.26875 191.84688 35.690624Q192.56563 35.096874 192.64375 34.221874L194.3625 34.221874Q194.3 35.128124 193.72188 35.95625Q193.15938 36.76875 192.19063 37.26875Q191.2375 37.753124 190.15938 37.753124Q188.00313 37.753124 186.72188 36.315624Q185.45625 34.8625 185.45625 32.3625L185.45625 32.065624Q185.45625 30.51875 186.01875 29.315624Q186.58125 28.1125 187.64375 27.45625Q188.70625 26.784374 190.14375 26.784374Q191.925 26.784374 193.09688 27.846874Q194.28438 28.909374 194.3625 30.6125L192.64375 30.6125Q192.56563 29.596874 191.8625 28.940624Q191.175 28.26875 190.14375 28.26875Q188.76875 28.26875 188.00313 29.26875Q187.25313 30.253124 187.25313 32.128124L187.25313 32.471874Q187.25313 34.3 188.00313 35.284374Q188.75313 36.26875 190.15938 36.26875ZM198.3625 24.425L198.3625 26.9875L200.34688 26.9875L200.34688 28.378124L198.3625 28.378124L198.3625 34.925Q198.3625 35.565624 198.62813 35.89375Q198.89375 36.20625 199.53438 36.20625Q199.84688 36.20625 200.39375 36.08125L200.39375 37.55Q199.675 37.753124 199.00313 37.753124Q197.8 37.753124 197.175 37.01875Q196.56563 36.284374 196.56563 34.925L196.56563 28.378124L194.64375 28.378124L194.64375 26.9875L196.56563 26.9875L196.56563 24.425L198.3625 24.425ZM207.3 37.753124Q205.15938 37.753124 203.8 36.346874Q202.45625 34.925 202.45625 32.565624L202.45625 32.221874Q202.45625 30.659374 203.05 29.425Q203.65938 28.190624 204.7375 27.4875Q205.81563 26.784374 207.08125 26.784374Q209.14375 26.784374 210.28438 28.14375Q211.425 29.503124 211.425 32.034374L211.425 32.784374L204.26875 32.784374Q204.3 34.346874 205.175 35.315624Q206.05 36.26875 207.39375 36.26875Q208.3625 36.26875 209.01875 35.878124Q209.69063 35.4875 210.19063 34.846874L211.28438 35.70625Q209.95625 37.753124 207.3 37.753124ZM207.08125 28.26875Q205.9875 28.26875 205.2375 29.065624Q204.50313 29.8625 204.33125 31.3L209.6125 31.3L209.6125 31.159374Q209.53438 29.784374 208.8625 29.034374Q208.20625 28.26875 207.08125 28.26875ZM213.47188 32.175Q213.47188 29.753124 214.62813 28.26875Q215.78438 26.784374 217.64375 26.784374Q219.50313 26.784374 220.58125 28.05L220.58125 22.55L222.39375 22.55L222.39375 37.55L220.7375 37.55L220.64375 36.409374Q219.56563 37.753124 217.62813 37.753124Q215.8 37.753124 214.62813 36.253124Q213.47188 34.7375 213.47188 32.315624L213.47188 32.175ZM215.28438 32.378124Q215.28438 34.175 216.01875 35.190624Q216.76875 36.20625 218.08125 36.20625Q219.8 36.20625 220.58125 34.675L220.58125 29.815624Q219.78438 28.315624 218.09688 28.315624Q216.76875 28.315624 216.01875 29.346874Q215.28438 30.378124 215.28438 32.378124ZM234.15938 36.26875Q235.12813 36.26875 235.84688 35.690624Q236.56563 35.096874 236.64375 34.221874L238.3625 34.221874Q238.3 35.128124 237.72188 35.95625Q237.15938 36.76875 236.19063 37.26875Q235.2375 37.753124 234.15938 37.753124Q232.00313 37.753124 230.72188 36.315624Q229.45625 34.8625 229.45625 32.3625L229.45625 32.065624Q229.45625 30.51875 230.01875 29.315624Q230.58125 28.1125 231.64375 27.45625Q232.70625 26.784374 234.14375 26.784374Q235.925 26.784374 237.09688 27.846874Q238.28438 28.909374 238.3625 30.6125L236.64375 30.6125Q236.56563 29.596874 235.8625 28.940624Q235.175 28.26875 234.14375 28.26875Q232.76875 28.26875 232.00313 29.26875Q231.25313 30.253124 231.25313 32.128124L231.25313 32.471874Q231.25313 34.3 232.00313 35.284374Q232.75313 36.26875 234.15938 36.26875ZM246.44063 37.55Q246.28438 37.2375 246.19063 36.440624Q244.925 37.753124 243.175 37.753124Q241.6125 37.753124 240.6125 36.8625Q239.6125 35.971874 239.6125 34.6125Q239.6125 32.971874 240.8625 32.065624Q242.12813 31.14375 244.39375 31.14375L246.15938 31.14375L246.15938 30.315624Q246.15938 29.3625 245.58125 28.8Q245.01875 28.2375 243.925 28.2375Q242.95625 28.2375 242.3 28.7375Q241.64375 29.221874 241.64375 29.909374L239.83125 29.909374Q239.83125 29.128124 240.39375 28.39375Q240.95625 27.64375 241.90938 27.221874Q242.87813 26.784374 244.03438 26.784374Q245.8625 26.784374 246.89375 27.70625Q247.925 28.6125 247.97188 30.221874L247.97188 35.08125Q247.97188 36.534374 248.33125 37.39375L248.33125 37.55L246.44063 37.55ZM243.44063 36.175Q244.3 36.175 245.05 35.7375Q245.81563 35.3 246.15938 34.596874L246.15938 32.425L244.7375 32.425Q241.425 32.425 241.425 34.3625Q241.425 35.221874 241.9875 35.70625Q242.55 36.175 243.44063 36.175ZM253.3625 24.425L253.3625 26.9875L255.34688 26.9875L255.34688 28.378124L253.3625 28.378124L253.3625 34.925Q253.3625 35.565624 253.62813 35.89375Q253.89375 36.20625 254.53438 36.20625Q254.84688 36.20625 255.39375 36.08125L255.39375 37.55Q254.675 37.753124 254.00313 37.753124Q252.8 37.753124 252.175 37.01875Q251.56563 36.284374 251.56563 34.925L251.56563 28.378124L249.64375 28.378124L249.64375 26.9875L251.56563 26.9875L251.56563 24.425L253.3625 24.425ZM262.3 37.753124Q260.15936 37.753124 258.8 36.346874Q257.45624 34.925 257.45624 32.565624L257.45624 32.221874Q257.45624 30.659374 258.05 29.425Q258.65936 28.190624 259.7375 27.4875Q260.8156 26.784374 262.08124 26.784374Q264.14374 26.784374 265.28436 28.14375Q266.425 29.503124 266.425 32.034374L266.425 32.784374L259.26874 32.784374Q259.3 34.346874 260.175 35.315624Q261.05 36.26875 262.39374 36.26875Q263.3625 36.26875 264.01874 35.878124Q264.6906 35.4875 265.1906 34.846874L266.28436 35.70625Q264.95624 37.753124 262.3 37.753124ZM262.08124 28.26875Q260.9875 28.26875 260.2375 29.065624Q259.5031 29.8625 259.33124 31.3L264.6125 31.3L264.6125 31.159374Q264.53436 29.784374 263.8625 29.034374Q263.20624 28.26875 262.08124 28.26875ZM268.4875 32.175Q268.4875 29.70625 269.6281 28.253124Q270.76874 26.784374 272.65936 26.784374Q274.59686 26.784374 275.675 28.159374L275.76874 26.9875L277.40936 26.9875L277.40936 37.3Q277.40936 39.346874 276.1906 40.51875Q274.9875 41.70625 272.925 41.70625Q271.78436 41.70625 270.6906 41.221874Q269.59686 40.7375 269.01874 39.878124L269.95624 38.8Q271.1281 40.2375 272.8 40.2375Q274.1281 40.2375 274.8625 39.4875Q275.59686 38.753124 275.59686 37.409374L275.59686 36.4875Q274.51874 37.753124 272.64374 37.753124Q270.78436 37.753124 269.6281 36.253124Q268.4875 34.753124 268.4875 32.175ZM270.3 32.378124Q270.3 34.175 271.03436 35.190624Q271.76874 36.20625 273.08124 36.20625Q274.8 36.20625 275.59686 34.659374L275.59686 29.83125Q274.76874 28.315624 273.1125 28.315624Q271.78436 28.315624 271.03436 29.346874Q270.3 30.378124 270.3 32.378124ZM279.4406 32.175Q279.4406 30.6125 280.05 29.378124Q280.65936 28.128124 281.7375 27.45625Q282.83124 26.784374 284.2375 26.784374Q286.39374 26.784374 287.72186 28.284374Q289.0656 29.76875 289.0656 32.253124L289.0656 32.378124Q289.0656 33.925 288.47186 35.159374Q287.8781 36.378124 286.76874 37.065624Q285.675 37.753124 284.2531 37.753124Q282.1125 37.753124 280.76874 36.253124Q279.4406 34.753124 279.4406 32.3L279.4406 32.175ZM281.2531 32.378124Q281.2531 34.14375 282.0656 35.20625Q282.89374 36.26875 284.2531 36.26875Q285.6281 36.26875 286.4406 35.190624Q287.2531 34.1125 287.2531 32.175Q287.2531 30.425 286.425 29.346874Q285.59686 28.26875 284.2375 28.26875Q282.89374 28.26875 282.0656 29.33125Q281.2531 30.39375 281.2531 32.378124ZM296.01874 28.596874Q295.6125 28.534374 295.14374 28.534374Q293.3625 28.534374 292.72186 30.05L292.72186 37.55L290.925 37.55L290.925 26.9875L292.675 26.9875L292.70624 28.20625Q293.59686 26.784374 295.22186 26.784374Q295.7531 26.784374 296.01874 26.925L296.01874 28.596874ZM301.3781 34.909374L303.83124 26.9875L305.76874 26.9875L301.51874 39.175Q300.53436 41.815624 298.39374 41.815624L298.05 41.784374L297.3781 41.659374L297.3781 40.190624L297.8625 40.2375Q298.78436 40.2375 299.28436 39.8625Q299.8 39.4875 300.1281 38.503124L300.53436 37.425L296.76874 26.9875L298.7375 26.9875L301.3781 34.909374Z" fill-rule="nonzero"/></svg>