  0
SECTION
  2
HEADER
  9
$ACADVER
  1
AC1009
  9
$DWGCODEPAGE
  3
ansi_1252
  9
$INSBASE
 10
0.0
 20
0.0
 30
0.0
  9
$EXTMIN
 10
1.000000000000000E+20
 20
1.000000000000000E+20
 30
1.000000000000000E+20
  9
$EXTMAX
 10
-1.000000000000000E+20
 20
-1.000000000000000E+20
 30
-1.000000000000000E+20
  9
$LIMMIN
 10
0.0
 20
0.0
  9
$LIMMAX
 10
12.0
 20
9.0
  9
$ORTHOMODE
 70
     0
  9
$REGENMODE
 70
     1
  9
$FILLMODE
 70
     1
  9
$QTEXTMODE
 70
     0
  9
$MIRRTEXT
 70
     1
  9
$DRAGMODE
 70
     2
  9
$LTSCALE
 40
1.0
  9
$OSMODE
 70
    37
  9
$ATTMODE
 70
     1
  9
$TEXTSIZE
 40
0.2
  9
$TRACEWID
 40
0.05
  9
$TEXTSTYLE
  7
STANDARD
  9
$CLAYER
  8
DEFAULT
  9
$CELTYPE
  6
BYLAYER
  9
$CECOLOR
 62
   256
  9
$DIMSCALE
 40
1.0
  9
$DIMASZ
 40
0.18
  9
$DIMEXO
 40
0.0625
  9
$DIMDLI
 40
0.38
  9
$DIMRND
 40
0.0
  9
$DIMDLE
 40
0.0
  9
$DIMEXE
 40
0.18
  9
$DIMTP
 40
0.0
  9
$DIMTM
 40
0.0
  9
$DIMTXT
 40
0.18
  9
$DIMCEN
 40
0.09
  9
$DIMTSZ
 40
0.0
  9
$DIMTOL
 70
     0
  9
$DIMLIM
 70
     0
  9
$DIMTIH
 70
     1
  9
$DIMTOH
 70
     1
  9
$DIMSE1
 70
     0
  9
$DIMSE2
 70
     0
  9
$DIMTAD
 70
     0
  9
$DIMZIN
 70
     0
  9
$DIMBLK
  1

  9
$DIMASO
 70
     1
  9
$DIMSHO
 70
     1
  9
$DIMPOST
  1

  9
$DIMAPOST
  1

  9
$DIMALT
 70
     0
  9
$DIMALTD
 70
     2
  9
$DIMALTF
 40
25.4
  9
$DIMLFAC
 40
1.0
  9
$DIMTOFL
 70
     0
  9
$DIMTVP
 40
0.0
  9
$DIMTIX
 70
     0
  9
$DIMSOXD
 70
     0
  9
$DIMSAH
 70
     0
  9
$DIMBLK1
  1

  9
$DIMBLK2
  1

  9
$DIMSTYLE
  2
STANDARD_ACAD
  9
$DIMCLRD
 70
     0
  9
$DIMCLRE
 70
     0
  9
$DIMCLRT
 70
     0
  9
$DIMTFAC
 40
1.0
  9
$DIMGAP
 40
0.09
  9
$LUNITS
 70
     2
  9
$LUPREC
 70
     3
  9
$SKETCHINC
 40
0.1
  9
$FILLETRAD
 40
0.5
  9
$AUNITS
 70
     0
  9
$AUPREC
 70
     0
  9
$MENU
  1
.
  9
$ELEVATION
 40
0.0
  9
$PELEVATION
 40
0.0
  9
$THICKNESS
 40
0.0
  9
$LIMCHECK
 70
     0
  9
$CHAMFERA
 40
0.0
  9
$CHAMFERB
 40
0.0
  9
$SKPOLY
 70
     0
  9
$TDCREATE
 40
2458568.670566389
  9
$TDUPDATE
 40
2458568.670583287
  9
$TDINDWG
 40
0.0000000116
  9
$TDUSRTIMER
 40
0.0000000116
  9
$USRTIMER
 70
     1
  9
$ANGBASE
 50
0.0
  9
$ANGDIR
 70
     0
  9
$PDMODE
 70
     0
  9
$PDSIZE
 40
0.0
  9
$PLINEWID
 40
0.0
  9
$COORDS
 70
     1
  9
$SPLFRAME
 70
     0
  9
$SPLINETYPE
 70
     6
  9
$SPLINESEGS
 70
     8
  9
$ATTDIA
 70
     0
  9
$ATTREQ
 70
     1
  9
$HANDLING
 70
     1
  9
$HANDSEED
  5
C1
  9
$SURFTAB1
 70
     6
  9
$SURFTAB2
 70
     6
  9
$SURFTYPE
 70
     6
  9
$SURFU
 70
     6
  9
$SURFV
 70
     6
  9
$UCSNAME
  2

  9
$UCSORG
 10
0.0
 20
0.0
 30
0.0
  9
$UCSXDIR
 10
1.0
 20
0.0
 30
0.0
  9
$UCSYDIR
 10
0.0
 20
1.0
 30
0.0
  9
$PUCSNAME
  2

  9
$PUCSORG
 10
0.0
 20
0.0
 30
0.0
  9
$PUCSXDIR
 10
1.0
 20
0.0
 30
0.0
  9
$PUCSYDIR
 10
0.0
 20
1.0
 30
0.0
  9
$USERI1
 70
     0
  9
$USERI2
 70
     0
  9
$USERI3
 70
     0
  9
$USERI4
 70
     0
  9
$USERI5
 70
     0
  9
$USERR1
 40
0.0
  9
$USERR2
 40
0.0
  9
$USERR3
 40
0.0
  9
$USERR4
 40
0.0
  9
$USERR5
 40
0.0
  9
$WORLDVIEW
 70
     1
  9
$SHADEDGE
 70
     3
  9
$SHADEDIF
 70
    70
  9
$TILEMODE
 70
     1
  9
$MAXACTVP
 70
    64
  9
$PLIMCHECK
 70
     0
  9
$PEXTMIN
 10
1.000000000000000E+20
 20
1.000000000000000E+20
 30
1.000000000000000E+20
  9
$PEXTMAX
 10
-1.000000000000000E+20
 20
-1.000000000000000E+20
 30
-1.000000000000000E+20
  9
$PLIMMIN
 10
0.0
 20
0.0
  9
$PLIMMAX
 10
12.0
 20
9.0
  9
$UNITMODE
 70
     0
  9
$VISRETAIN
 70
     1
  9
$PLINEGEN
 70
     0
  9
$PSLTSCALE
 70
     1
  0
ENDSEC
  0
SECTION
  2
TABLES
  0
TABLE
  2
VPORT
 70
     1
  0
VPORT
  2
*ACTIVE
 70
     0
 10
0.0
 20
0.0
 11
1.0
 21
1.0
 12
10.42990654205607
 22
4.5
 13
0.0
 23
0.0
 14
0.5
 24
0.5
 15
0.5
 25
0.5
 16
0.0
 26
0.0
 36
1.0
 17
0.0
 27
0.0
 37
0.0
 40
9.0
 41
1.972972972850329
 42
50.0
 43
0.0
 44
0.0
 50
0.0
 51
0.0
 71
     0
 72
   100
 73
     1
 74
     3
 75
     0
 76
     0
 77
     0
 78
     0
  0
ENDTAB
  0
TABLE
  2
LTYPE
 70
     1
  0
LTYPE
  2
CONTINUOUS
 70
     0
  3
Solid line
 72
    65
 73
     0
 40
0.0
  0
ENDTAB
  0
TABLE
  2
LAYER
 70
     2
  0
LAYER
  2
0
 70
     0
 62
     7
  6
CONTINUOUS
  0
LAYER
  2
DEFAULT
 70
     0
 62
     7
  6
CONTINUOUS
  0
ENDTAB
  0
TABLE
  2
STYLE
 70
     1
  0
STYLE
  2
STANDARD
 70
     0
 40
0.0
 41
1.0
 50
0.0
 71
     0
 42
0.2
  3
txt
  4

  0
ENDTAB
  0
TABLE
  2
VIEW
 70
     0
  0
ENDTAB
  0
TABLE
  2
UCS
 70
     0
  0
ENDTAB
  0
TABLE
  2
APPID
 70
     1
  0
APPID
  2
ACAD
 70
     0
  0
ENDTAB
  0
TABLE
  2
DIMSTYLE
 70
     1
  0
DIMSTYLE
  2
STANDARD_ACAD
 70
     0
  3

  4

  5

  6

  7

 40
1.0
 41
0.18
 42
0.0625
 43
0.38
 44
0.18
 45
0.0
 46
0.0
 47
0.0
 48
0.0
140
0.18
141
0.09
142
0.0
143
25.4
144
1.0
145
0.0
146
1.0
147
0.09
 71
     0
 72
     0
 73
     1
 74
     1
 75
     0
 76
     0
 77
     0
 78
     0
170
     0
171
     2
172
     0
173
     0
174
     0
175
     0
176
     0
177
     0
178
     0
  0
ENDTAB
  0
ENDSEC
  0
SECTION
  2
BLOCKS
  0
BLOCK
  8
0
  2
$MODEL_SPACE
 70
     0
 10
0.0
 20
0.0
 30
0.0
  3
$MODEL_SPACE
  1

  0
ENDBLK
  5
21
  8
0
  0
BLOCK
 67
     1
  8
0
  2
$PAPER_SPACE
 70
     0
 10
0.0
 20
0.0
 30
0.0
  3
$PAPER_SPACE
  1

  0
ENDBLK
  5
1D
 67
     1
  8
0
  0
ENDSEC
  0
SECTION
  2
ENTITIES
  0
CIRCLE
  5
6F
  8
DEFAULT
 10
-0.0000000000000018
 20
6.366197723675806
 30
0.0
 40
15.50000000000001
  0
CIRCLE
  5
70
  8
DEFAULT
 10
-0.0000000000000018
 20
6.366197723675805
 30
0.0
 40
15.00000000000001
  0
POLYLINE
  5
71
  8
DEFAULT
 66
     1
 10
0.0
 20
0.0
 30
0.0
 70
     1
  0
VERTEX
  5
72
  8
DEFAULT
 10
3.500000000000002
 20
4.429706050572104
 30
0.0
 42
-3.872983346207413
  0
VERTEX
  5
73
  8
DEFAULT
 10
3.500000000000002
 20
8.302689396779527
 30
0.0
  0
SEQEND
  5
74
  8
DEFAULT
  0
POLYLINE
  5
75
  8
DEFAULT
 66
     1
 10
0.0
 20
0.0
 30
0.0
 70
     1
  0
VERTEX
  5
76
  8
DEFAULT
 10
7.440474556964187
 20
5.301976605412266
 30
0.0
 42
0.0711536027730622
  0
VERTEX
  5
77
  8
DEFAULT
 10
7.440474556964192
 20
7.430418841939336
 30
0.0
 42
0.2290838924109151
  0
VERTEX
  5
78
  8
DEFAULT
 10
7.197387613011015
 20
7.791547985143834
 30
0.0
 42
0.2907366095118675
  0
VERTEX
  5
79
  8
DEFAULT
 10
5.429354588124484
 20
7.724441052159471
 30
0.0
 42
-0.2745136059784796
  0
VERTEX
  5
7A
  8
DEFAULT
 10
4.66529309633426
 20
7.672418133844605
 30
0.0
 42
-0.3836588784964849
  0
VERTEX
  5
7B
  8
DEFAULT
 10
4.229115229450706
 20
8.762445362507028
 30
0.0
 42
-0.2665867866205595
  0
VERTEX
  5
7C
  8
DEFAULT
 10
4.799085315234358
 20
9.244821656218775
 30
0.0
 42
0.2908153320545328
  0
VERTEX
  5
7D
  8
DEFAULT
 10
6.097196423438216
 20
10.44764447621389
 30
0.0
 42
0.2290838924109057
  0
VERTEX
  5
7E
  8
DEFAULT
 10
6.013727983881416
 20
10.87488976874507
 30
0.0
 42
0.0711536027730656
  0
VERTEX
  5
7F
  8
DEFAULT
 10
4.508692045069285
 20
12.37992570755724
 30
0.0
 42
0.2290838924109244
  0
VERTEX
  5
80
  8
DEFAULT
 10
4.081446752538094
 20
12.46339414711401
 30
0.0
 42
0.2907366095118688
  0
VERTEX
  5
81
  8
DEFAULT
 10
2.878710378656939
 20
11.16575423847711
 30
0.0
 42
-0.2745136059784797
  0
VERTEX
  5
82
  8
DEFAULT
 10
2.375223074886117
 20
10.58869541807118
 30
0.0
 42
-0.3836588784964796
  0
VERTEX
  5
83
  8
DEFAULT
 10
1.296033102344098
 20
11.05103673565951
 30
0.0
 42
-0.2665867866205666
  0
VERTEX
  5
84
  8
DEFAULT
 10
1.357971266707982
 20
11.79515799675782
 30
0.0
 42
0.2908153320545322
  0
VERTEX
  5
85
  8
DEFAULT
 10
1.425350261468042
 20
13.56358533668683
 30
0.0
 42
0.2290838924108959
  0
VERTEX
  5
86
  8
DEFAULT
 10
1.064221118263546
 20
13.80667228063998
 30
0.0
 42
0.0711536027730668
  0
VERTEX
  5
87
  8
DEFAULT
 10
-1.064221118263524
 20
13.80667228064001
 30
0.0
 42
0.2290838924109204
  0
VERTEX
  5
88
  8
DEFAULT
 10
-1.425350261468016
 20
13.56358533668683
 30
0.0
 42
0.2907366095118687
  0
VERTEX
  5
89
  8
DEFAULT
 10
-1.358243328483652
 20
11.7955523118003
 30
0.0
 42
-0.2745136059784773
  0
VERTEX
  5
8A
  8
DEFAULT
 10
-1.306220410168781
 20
11.03149082001007
 30
0.0
 42
-0.383658878496482
  0
VERTEX
  5
8B
  8
DEFAULT
 10
-2.396247638831221
 20
10.59531295312653
 30
0.0
 42
-0.2665867866205594
  0
VERTEX
  5
8C
  8
DEFAULT
 10
-2.87862393254296
 20
11.16528303891018
 30
0.0
 42
0.2908153320545326
  0
VERTEX
  5
8D
  8
DEFAULT
 10
-4.081446752538072
 20
12.46339414711403
 30
0.0
 42
0.2290838924109139
  0
VERTEX
  5
8E
  8
DEFAULT
 10
-4.508692045069251
 20
12.37992570755724
 30
0.0
 42
0.071153602773069
  0
VERTEX
  5
8F
  8
DEFAULT
 10
-6.013727983881418
 20
10.8748897687451
 30
0.0
 42
0.2290838924109209
  0
VERTEX
  5
90
  8
DEFAULT
 10
-6.0971964234382
 20
10.44764447621391
 30
0.0
 42
0.2907366095118673
  0
VERTEX
  5
91
  8
DEFAULT
 10
-4.79955651480129
 20
9.244908102332758
 30
0.0
 42
-0.2745136059784858
  0
VERTEX
  5
92
  8
DEFAULT
 10
-4.22249769439536
 20
8.741420798561935
 30
0.0
 42
-0.3836588784964693
  0
VERTEX
  5
93
  8
DEFAULT
 10
-4.684839011983679
 20
7.662230826019922
 30
0.0
 42
-0.2665867866205741
  0
VERTEX
  5
94
  8
DEFAULT
 10
-5.428960273082006
 20
7.724168990383799
 30
0.0
 42
0.290815332054532
  0
VERTEX
  5
95
  8
DEFAULT
 10
-7.19738761301101
 20
7.791547985143858
 30
0.0
 42
0.2290838924109171
  0
VERTEX
  5
96
  8
DEFAULT
 10
-7.440474556964188
 20
7.430418841939368
 30
0.0
 42
0.0711536027730633
  0
VERTEX
  5
97
  8
DEFAULT
 10
-7.440474556964194
 20
5.301976605412294
 30
0.0
 42
0.2290838924109206
  0
VERTEX
  5
98
  8
DEFAULT
 10
-7.197387613011015
 20
4.940847462207803
 30
0.0
 42
0.2907366095118684
  0
VERTEX
  5
99
  8
DEFAULT
 10
-5.429354588124485
 20
5.007954395192168
 30
0.0
 42
-0.2745136059784897
  0
VERTEX
  5
9A
  8
DEFAULT
 10
-4.665293096334254
 20
5.059977313507031
 30
0.0
 42
-0.3836588784964812
  0
VERTEX
  5
9B
  8
DEFAULT
 10
-4.22911522945071
 20
3.9699500848446
 30
0.0
 42
-0.2665867866205584
  0
VERTEX
  5
9C
  8
DEFAULT
 10
-4.799085315234359
 20
3.487573791132858
 30
0.0
 42
0.2908153320545351
  0
VERTEX
  5
9D
  8
DEFAULT
 10
-6.097196423438215
 20
2.284750971137747
 30
0.0
 42
0.2290838924108921
  0
VERTEX
  5
9E
  8
DEFAULT
 10
-6.013727983881419
 20
1.857505678606568
 30
0.0
 42
0.071153602773067
  0
VERTEX
  5
9F
  8
DEFAULT
 10
-4.508692045069289
 20
0.3524697397944033
 30
0.0
 42
0.2290838924109227
  0
VERTEX
  5
A0
  8
DEFAULT
 10
-4.081446752538096
 20
0.2690013002376177
 30
0.0
 42
0.2907366095118671
  0
VERTEX
  5
A1
  8
DEFAULT
 10
-2.878710378656939
 20
1.566641208874523
 30
0.0
 42
-0.2745136059784862
  0
VERTEX
  5
A2
  8
DEFAULT
 10
-2.375223074886114
 20
2.143700029280457
 30
0.0
 42
-0.3836588784965121
  0
VERTEX
  5
A3
  8
DEFAULT
 10
-1.296033102344059
 20
1.681358711692039
 30
0.0
 42
-0.2665867866205373
  0
VERTEX
  5
A4
  8
DEFAULT
 10
-1.357971266707969
 20
0.9372374505937959
 30
0.0
 42
0.2908153320545402
  0
VERTEX
  5
A5
  8
DEFAULT
 10
-1.425350261468033
 20
-0.8311898893352085
 30
0.0
 42
0.2290838924108993
  0
VERTEX
  5
A6
  8
DEFAULT
 10
-1.064221118263525
 20
-1.074276833288374
 30
0.0
 42
0.0711536027730619
  0
VERTEX
  5
A7
  8
DEFAULT
 10
1.064221118263518
 20
-1.074276833288375
 30
0.0
 42
0.2290838924109223
  0
VERTEX
  5
A8
  8
DEFAULT
 10
1.425350261468016
 20
-0.8311898893351987
 30
0.0
 42
0.2907366095118675
  0
VERTEX
  5
A9
  8
DEFAULT
 10
1.358243328483651
 20
0.9368431355513344
 30
0.0
 42
-0.2745136059784846
  0
VERTEX
  5
AA
  8
DEFAULT
 10
1.306220410168787
 20
1.700904627341563
 30
0.0
 42
-0.3836588784964812
  0
VERTEX
  5
AB
  8
DEFAULT
 10
2.396247638831206
 20
2.137082494225112
 30
0.0
 42
-0.2665867866205638
  0
VERTEX
  5
AC
  8
DEFAULT
 10
2.878623932542959
 20
1.567112408441459
 30
0.0
 42
0.2908153320545326
  0
VERTEX
  5
AD
  8
DEFAULT
 10
4.081446752538072
 20
0.2690013002376025
 30
0.0
 42
0.2290838924109196
  0
VERTEX
  5
AE
  8
DEFAULT
 10
4.508692045069266
 20
0.3524697397943819
 30
0.0
 42
0.0711536027730626
  0
VERTEX
  5
AF
  8
DEFAULT
 10
6.01372798388142
 20
1.857505678606531
 30
0.0
 42
0.2290838924109176
  0
VERTEX
  5
B0
  8
DEFAULT
 10
6.097196423438203
 20
2.284750971137722
 30
0.0
 42
0.2907366095118677
  0
VERTEX
  5
B1
  8
DEFAULT
 10
4.799556514801294
 20
3.487487345018876
 30
0.0
 42
-0.2745136059784822
  0
VERTEX
  5
B2
  8
DEFAULT
 10
4.22249769439536
 20
3.990974648789704
 30
0.0
 42
-0.3836588784964797
  0
VERTEX
  5
B3
  8
DEFAULT
 10
4.684839011983696
 20
5.070164621331721
 30
0.0
 42
-0.2665867866205628
  0
VERTEX
  5
B4
  8
DEFAULT
 10
5.428960273082007
 20
5.008226456967837
 30
0.0
 42
0.2908153320545342
  0
VERTEX
  5
B5
  8
DEFAULT
 10
7.19738761301101
 20
4.940847462207774
 30
0.0
 42
0.2290838924109106
  0
SEQEND
  5
B6
  8
DEFAULT
  0
CIRCLE
  5
B7
  8
DEFAULT
 10
-7.950000000000001
 20
-7.403606196496762
 30
0.0
 40
2.100000000000014
  0
CIRCLE
  5
B8
  8
DEFAULT
 10
-7.950000000000001
 20
20.13600164384839
 30
0.0
 40
2.1
  0
CIRCLE
  5
B9
  8
DEFAULT
 10
15.9
 20
6.366197723675817
 30
0.0
 40
2.1
  0
ENDSEC
  0
EOF
