0
SECTION
2
HEADER
9
$INSUNITS
70
4
9
$ACADVER
1
AC1014
9
$HANDSEED
5
FFFF
0
ENDSEC
0
SECTION
2
TABLES
0
TABLE
2
VPORT
5
8
100
AcDbSymbolTable
0
ENDTAB
0
TABLE
2
LTYPE
5
5
100
AcDbSymbolTable
0
LTYPE
5
14
100
AcDbSymbolTableRecord
100
AcDbLinetypeTableRecord
2
BYBLOCK
70
0
0
LTYPE
5
15
100
AcDbSymbolTableRecord
100
AcDbLinetypeTableRecord
2
BYLAYER
70
0
0
ENDTAB
0
TABLE
2
LAYER
5
2
100
AcDbSymbolTable
70
2
0
LAYER
5
50
100
AcDbSymbolTableRecord
100
AcDbLayerTableRecord
2
0
70
0
6
CONTINUOUS
0
ENDTAB
0
TABLE
2
STYLE
5
3
100
AcDbSymbolTable
70
1
0
STYLE
5
11
100
AcDbSymbolTableRecord
100
AcDbTextStyleTableRecord
2
STANDARD
70
0
0
ENDTAB
0
TABLE
2
VIEW
5
6
100
AcDbSymbolTable
70
0
0
ENDTAB
0
TABLE
2
UCS
5
7
100
AcDbSymbolTable
70
0
0
ENDTAB
0
TABLE
2
APPID
5
9
100
AcDbSymbolTable
70
2
0
APPID
5
12
100
AcDbSymbolTableRecord
100
AcDbRegAppTableRecord
2
ACAD
70
0
0
ENDTAB
0
TABLE
2
DIMSTYLE
5
A
100
AcDbSymbolTable
70
1
0
ENDTAB
0
TABLE
2
BLOCK_RECORD
5
1
100
AcDbSymbolTable
70
1
0
BLOCK_RECORD
5
1F
100
AcDbSymbolTableRecord
100
AcDbBlockTableRecord
2
*MODEL_SPACE
0
BLOCK_RECORD
5
1B
100
AcDbSymbolTableRecord
100
AcDbBlockTableRecord
2
*PAPER_SPACE
0
ENDTAB
0
ENDSEC
0
SECTION
2
BLOCKS
0
BLOCK
5
20
100
AcDbEntity
100
AcDbBlockBegin
2
*MODEL_SPACE
0
ENDBLK
5
21
100
AcDbEntity
100
AcDbBlockEnd
0
BLOCK
5
1C
100
AcDbEntity
100
AcDbBlockBegin
2
*PAPER_SPACE
0
ENDBLK
5
1D
100
AcDbEntity
100
AcDbBlockEnd
0
ENDSEC
0
SECTION
2
ENTITIES
0
ARC
5
100
100
AcDbEntity
8
0
100
AcDbCircle
10
256
20
-24.751406828972662
30
-4.9303806576313247e-31
40
3.9999999999999947
100
AcDbArc
50
-90
51
0
0
LINE
5
101
100
AcDbEntity
8
0
100
AcDbLine
10
260
20
-24.751406828972655
30
-4.4723267651649699e-31
11
259.99999999999994
21
-3.1499999999999995
31
-4.9303806576313238e-31
0
ARC
5
102
100
AcDbEntity
8
0
100
AcDbCircle
10
260
20
9.080445725270845e-31
30
-2.7369110631344083e-46
40
3.1500000000000168
100
AcDbArc
50
182.02715293876113
51
269.99999999999898
0
SPLINE
5
103
100
AcDbEntity
8
0
100
AcDbSpline
70
1064
71
3
72
17
73
13
74
0
42
0.000000001
43
0.0000000001
44
0.0000000001
40
-0.65102182461369074
40
-0.65102182461369074
40
-0.65102182461369074
40
-0.65102182461369074
40
-0.64827176828064959
40
-0.64827176828064959
40
-0.64827176828064959
40
-0.38705389762040265
40
-0.38705389762040265
40
-0.38705389762040265
40
-0.27201695990356217
40
-0.27201695990356217
40
-0.27201695990356217
40
-0.16510627306353459
40
-0.16510627306353459
40
-0.16510627306353459
40
-0.16510627306353459
10
255.51885078127484
20
3.2378926826298797
30
0
10
255.52379911824596
20
3.2293720177387102
30
0
10
255.52873526661241
20
3.2208541082794335
30
0
10
255.533659240058
20
3.2123389639059896
30
0
10
256.0013696077292
20
2.4035163027585735
30
0
10
256.3266717454382
20
1.6801023240371749
30
0
10
256.55472466336124
20
1.030790042443148
30
0
10
256.655156189156
20
0.74484139617436484
30
0
10
256.71829796235272
20
0.53615553778899427
30
0
10
256.76320861603222
20
0.34847099919384145
30
0
10
256.80494676489639
20
0.17404456427037401
30
0
10
256.84441920592161
20
-0.058242598679268502
30
0
10
256.85197134674479
20
-0.11142530360850686
30
0
0
SPLINE
5
104
100
AcDbEntity
8
0
100
AcDbSpline
70
1064
71
3
72
10
73
6
74
0
42
0.000000001
43
0.0000000001
44
0.0000000001
40
0
40
0
40
0
40
0
40
0.33333333333333331
40
0.66666666666666663
40
1
40
1
40
1
40
1
10
254.48114921872516
20
3.2378926826298797
30
0
10
254.55109936167534
20
3.3583415790264937
30
0
10
254.77797840264583
20
3.5479685013785889
30
0
10
255.22202159735417
20
3.5479685013785893
30
0
10
255.44890063832466
20
3.3583415790264932
30
0
10
255.51885078127484
20
3.2378926826298793
30
0
0
SPLINE
5
105
100
AcDbEntity
8
0
100
AcDbSpline
70
1064
71
3
72
17
73
13
74
0
42
0.000000001
43
0.0000000001
44
0.0000000001
40
0.1651062730635337
40
0.1651062730635337
40
0.1651062730635337
40
0.1651062730635337
40
0.27201695990356217
40
0.27201695990356217
40
0.27201695990356217
40
0.38705389762040265
40
0.38705389762040265
40
0.38705389762040265
40
0.64827176828064959
40
0.64827176828064959
40
0.64827176828064959
40
0.65102182461369085
40
0.65102182461369085
40
0.65102182461369085
40
0.65102182461369085
10
253.14802865325521
20
-0.11142530360850819
30
0
10
253.15558079407839
20
-0.058242598679272353
30
0
10
253.19505323510361
20
0.17404456427037257
30
0
10
253.23679138396781
20
0.34847099919384145
30
0
10
253.28170203764728
20
0.53615553778899427
30
0
10
253.344843810844
20
0.74484139617436484
30
0
10
253.44527533663876
20
1.030790042443148
30
0
10
253.67332825456177
20
1.6801023240371749
30
0
10
253.9986303922708
20
2.4035163027585735
30
0
10
254.466340759942
20
3.2123389639059896
30
0
10
254.47126473338759
20
3.220854108279434
30
0
10
254.47620088175404
20
3.2293720177387115
30
0
10
254.48114921872516
20
3.2378926826298815
30
0
0
ARC
5
106
100
AcDbEntity
8
0
100
AcDbCircle
10
250
20
9.080445725270845e-31
30
-2.7369110631344083e-46
40
3.1500000000000168
100
AcDbArc
50
182.02715293876113
51
357.97284706123884
0
SPLINE
5
107
100
AcDbEntity
8
0
100
AcDbSpline
70
1064
71
3
72
17
73
13
74
0
42
0.000000001
43
0.0000000001
44
0.0000000001
40
-0.65102182461369074
40
-0.65102182461369074
40
-0.65102182461369074
40
-0.65102182461369074
40
-0.64827176828064959
40
-0.64827176828064959
40
-0.64827176828064959
40
-0.38705389762040265
40
-0.38705389762040265
40
-0.38705389762040265
40
-0.27201695990356217
40
-0.27201695990356217
40
-0.27201695990356217
40
-0.16510627306353459
40
-0.16510627306353459
40
-0.16510627306353459
40
-0.16510627306353459
10
245.51885078127484
20
3.2378926826298797
30
0
10
245.52379911824596
20
3.2293720177387102
30
0
10
245.52873526661241
20
3.2208541082794335
30
1.2325951644078309e-31
10
245.533659240058
20
3.2123389639059896
30
1.2325951644078309e-31
10
246.0013696077292
20
2.4035163027585735
30
0
10
246.32667174543823
20
1.6801023240371749
30
6.1629758220391547e-32
10
246.55472466336124
20
1.030790042443148
30
6.1629758220391547e-32
10
246.655156189156
20
0.74484139617436484
30
1.2325951644078309e-31
10
246.71829796235272
20
0.53615553778899427
30
6.1629758220391547e-32
10
246.76320861603219
20
0.34847099919384145
30
-3.0814879110195774e-32
10
246.80494676489639
20
0.17404456427037401
30
1.5407439555097887e-32
10
246.84441920592161
20
-0.058242598679268502
30
0
10
246.85197134674479
20
-0.11142530360850686
30
6.1629758220391547e-32
0
SPLINE
5
108
100
AcDbEntity
8
0
100
AcDbSpline
70
1064
71
3
72
10
73
6
74
0
42
0.000000001
43
0.0000000001
44
0.0000000001
40
0
40
0
40
0
40
0
40
0.33333333333333331
40
0.66666666666666663
40
1
40
1
40
1
40
1
10
244.48114921872516
20
3.2378926826298797
30
0
10
244.55109936167534
20
3.3583415790264937
30
0
10
244.77797840264583
20
3.5479685013785889
30
0
10
245.22202159735417
20
3.5479685013785893
30
0
10
245.44890063832466
20
3.3583415790264932
30
0
10
245.51885078127484
20
3.2378926826298793
30
0
0
SPLINE
5
109
100
AcDbEntity
8
0
100
AcDbSpline
70
1064
71
3
72
17
73
13
74
0
42
0.000000001
43
0.0000000001
44
0.0000000001
40
0.1651062730635337
40
0.1651062730635337
40
0.1651062730635337
40
0.1651062730635337
40
0.27201695990356217
40
0.27201695990356217
40
0.27201695990356217
40
0.38705389762040265
40
0.38705389762040265
40
0.38705389762040265
40
0.64827176828064959
40
0.64827176828064959
40
0.64827176828064959
40
0.65102182461369085
40
0.65102182461369085
40
0.65102182461369085
40
0.65102182461369085
10
243.14802865325521
20
-0.11142530360850819
30
0
10
243.15558079407845
20
-0.058242598679272353
30
0
10
243.19505323510359
20
0.17404456427037257
30
0
10
243.23679138396781
20
0.34847099919384145
30
0
10
243.28170203764728
20
0.53615553778899427
30
0
10
243.344843810844
20
0.74484139617436484
30
0
10
243.44527533663876
20
1.030790042443148
30
0
10
243.67332825456177
20
1.6801023240371749
30
0
10
243.9986303922708
20
2.4035163027585735
30
0
10
244.466340759942
20
3.2123389639059896
30
0
10
244.47126473338759
20
3.220854108279434
30
0
10
244.47620088175404
20
3.2293720177387115
30
0
10
244.48114921872514
20
3.2378926826298815
30
0
0
ARC
5
110
100
AcDbEntity
8
0
100
AcDbCircle
10
240
20
9.080445725270845e-31
30
-2.7369110631344083e-46
40
3.1500000000000168
100
AcDbArc
50
182.02715293876113
51
357.97284706123884
0
SPLINE
5
111
100
AcDbEntity
8
0
100
AcDbSpline
70
1064
71
3
72
17
73
13
74
0
42
0.000000001
43
0.0000000001
44
0.0000000001
40
-0.65102182461369074
40
-0.65102182461369074
40
-0.65102182461369074
40
-0.65102182461369074
40
-0.64827176828064959
40
-0.64827176828064959
40
-0.64827176828064959
40
-0.38705389762040265
40
-0.38705389762040265
40
-0.38705389762040265
40
-0.27201695990356217
40
-0.27201695990356217
40
-0.27201695990356217
40
-0.16510627306353459
40
-0.16510627306353459
40
-0.16510627306353459
40
-0.16510627306353459
10
235.51885078127484
20
3.2378926826298797
30
0
10
235.52379911824596
20
3.2293720177387102
30
0
10
235.52873526661241
20
3.2208541082794335
30
1.2325951644078309e-31
10
235.533659240058
20
3.2123389639059896
30
1.2325951644078309e-31
10
236.0013696077292
20
2.4035163027585735
30
0
10
236.32667174543823
20
1.6801023240371749
30
6.1629758220391547e-32
10
236.55472466336124
20
1.030790042443148
30
6.1629758220391547e-32
10
236.655156189156
20
0.74484139617436484
30
1.2325951644078309e-31
10
236.71829796235272
20
0.53615553778899427
30
6.1629758220391547e-32
10
236.76320861603219
20
0.34847099919384145
30
-3.0814879110195774e-32
10
236.80494676489639
20
0.17404456427037401
30
1.5407439555097887e-32
10
236.84441920592161
20
-0.058242598679268502
30
0
10
236.85197134674479
20
-0.11142530360850686
30
6.1629758220391547e-32
0
SPLINE
5
112
100
AcDbEntity
8
0
100
AcDbSpline
70
1064
71
3
72
10
73
6
74
0
42
0.000000001
43
0.0000000001
44
0.0000000001
40
0
40
0
40
0
40
0
40
0.33333333333333331
40
0.66666666666666663
40
1
40
1
40
1
40
1
10
234.48114921872516
20
3.2378926826298797
30
0
10
234.55109936167534
20
3.3583415790264937
30
0
10
234.77797840264583
20
3.5479685013785889
30
0
10
235.22202159735417
20
3.5479685013785893
30
0
10
235.44890063832466
20
3.3583415790264932
30
0
10
235.51885078127484
20
3.2378926826298793
30
0
0
SPLINE
5
113
100
AcDbEntity
8
0
100
AcDbSpline
70
1064
71
3
72
17
73
13
74
0
42
0.000000001
43
0.0000000001
44
0.0000000001
40
0.1651062730635337
40
0.1651062730635337
40
0.1651062730635337
40
0.1651062730635337
40
0.27201695990356217
40
0.27201695990356217
40
0.27201695990356217
40
0.38705389762040265
40
0.38705389762040265
40
0.38705389762040265
40
0.64827176828064959
40
0.64827176828064959
40
0.64827176828064959
40
0.65102182461369085
40
0.65102182461369085
40
0.65102182461369085
40
0.65102182461369085
10
233.14802865325521
20
-0.11142530360850819
30
0
10
233.15558079407836
20
-0.058242598679272353
30
0
10
233.19505323510361
20
0.17404456427037257
30
0
10
233.23679138396781
20
0.34847099919384145
30
0
10
233.28170203764728
20
0.53615553778899427
30
0
10
233.344843810844
20
0.74484139617436484
30
0
10
233.44527533663876
20
1.030790042443148
30
0
10
233.67332825456177
20
1.6801023240371749
30
0
10
233.9986303922708
20
2.4035163027585735
30
0
10
234.466340759942
20
3.2123389639059896
30
0
10
234.47126473338759
20
3.220854108279434
30
0
10
234.47620088175404
20
3.2293720177387115
30
0
10
234.48114921872514
20
3.2378926826298815
30
0
0
ARC
5
114
100
AcDbEntity
8
0
100
AcDbCircle
10
230
20
9.080445725270845e-31
30
-2.7369110631344083e-46
40
3.1500000000000168
100
AcDbArc
50
182.02715293876113
51
357.97284706123884
0
SPLINE
5
115
100
AcDbEntity
8
0
100
AcDbSpline
70
1064
71
3
72
17
73
13
74
0
42
0.000000001
43
0.0000000001
44
0.0000000001
40
-0.65102182461369074
40
-0.65102182461369074
40
-0.65102182461369074
40
-0.65102182461369074
40
-0.64827176828064959
40
-0.64827176828064959
40
-0.64827176828064959
40
-0.38705389762040265
40
-0.38705389762040265
40
-0.38705389762040265
40
-0.27201695990356217
40
-0.27201695990356217
40
-0.27201695990356217
40
-0.16510627306353459
40
-0.16510627306353459
40
-0.16510627306353459
40
-0.16510627306353459
10
225.51885078127484
20
3.2378926826298797
30
0
10
225.52379911824596
20
3.2293720177387102
30
0
10
225.52873526661241
20
3.2208541082794335
30
1.2325951644078309e-31
10
225.533659240058
20
3.2123389639059896
30
1.2325951644078309e-31
10
226.0013696077292
20
2.4035163027585735
30
0
10
226.32667174543823
20
1.6801023240371749
30
6.1629758220391547e-32
10
226.55472466336124
20
1.030790042443148
30
6.1629758220391547e-32
10
226.655156189156
20
0.74484139617436484
30
1.2325951644078309e-31
10
226.71829796235272
20
0.53615553778899427
30
6.1629758220391547e-32
10
226.76320861603219
20
0.34847099919384145
30
-3.0814879110195774e-32
10
226.80494676489639
20
0.17404456427037401
30
1.5407439555097887e-32
10
226.84441920592161
20
-0.058242598679268502
30
0
10
226.85197134674479
20
-0.11142530360850686
30
6.1629758220391547e-32
0
SPLINE
5
116
100
AcDbEntity
8
0
100
AcDbSpline
70
1064
71
3
72
10
73
6
74
0
42
0.000000001
43
0.0000000001
44
0.0000000001
40
0
40
0
40
0
40
0
40
0.33333333333333331
40
0.66666666666666663
40
1
40
1
40
1
40
1
10
224.48114921872516
20
3.2378926826298797
30
0
10
224.55109936167534
20
3.3583415790264937
30
0
10
224.77797840264583
20
3.5479685013785889
30
0
10
225.22202159735417
20
3.5479685013785893
30
0
10
225.44890063832466
20
3.3583415790264932
30
0
10
225.51885078127484
20
3.2378926826298793
30
0
0
SPLINE
5
117
100
AcDbEntity
8
0
100
AcDbSpline
70
1064
71
3
72
17
73
13
74
0
42
0.000000001
43
0.0000000001
44
0.0000000001
40
0.1651062730635337
40
0.1651062730635337
40
0.1651062730635337
40
0.1651062730635337
40
0.27201695990356217
40
0.27201695990356217
40
0.27201695990356217
40
0.38705389762040265
40
0.38705389762040265
40
0.38705389762040265
40
0.64827176828064959
40
0.64827176828064959
40
0.64827176828064959
40
0.65102182461369085
40
0.65102182461369085
40
0.65102182461369085
40
0.65102182461369085
10
223.14802865325521
20
-0.11142530360850819
30
0
10
223.15558079407839
20
-0.058242598679272353
30
0
10
223.19505323510361
20
0.17404456427037257
30
0
10
223.23679138396781
20
0.34847099919384145
30
0
10
223.28170203764728
20
0.53615553778899427
30
0
10
223.344843810844
20
0.74484139617436484
30
0
10
223.44527533663876
20
1.030790042443148
30
0
10
223.67332825456177
20
1.6801023240371749
30
0
10
223.9986303922708
20
2.4035163027585735
30
0
10
224.466340759942
20
3.2123389639059896
30
0
10
224.47126473338759
20
3.220854108279434
30
0
10
224.47620088175404
20
3.2293720177387115
30
0
10
224.48114921872516
20
3.2378926826298815
30
0
0
ARC
5
118
100
AcDbEntity
8
0
100
AcDbCircle
10
220
20
9.080445725270845e-31
30
-2.7369110631344083e-46
40
3.1500000000000168
100
AcDbArc
50
182.02715293876113
51
357.97284706123884
0
SPLINE
5
119
100
AcDbEntity
8
0
100
AcDbSpline
70
1064
71
3
72
17
73
13
74
0
42
0.000000001
43
0.0000000001
44
0.0000000001
40
-0.65102182461369074
40
-0.65102182461369074
40
-0.65102182461369074
40
-0.65102182461369074
40
-0.64827176828064959
40
-0.64827176828064959
40
-0.64827176828064959
40
-0.38705389762040265
40
-0.38705389762040265
40
-0.38705389762040265
40
-0.27201695990356217
40
-0.27201695990356217
40
-0.27201695990356217
40
-0.16510627306353459
40
-0.16510627306353459
40
-0.16510627306353459
40
-0.16510627306353459
10
215.51885078127492
20
3.2378926826298797
30
0
10
215.52379911824599
20
3.2293720177387102
30
0
10
215.52873526661244
20
3.2208541082794335
30
1.2325951644078309e-31
10
215.533659240058
20
3.2123389639059896
30
1.2325951644078309e-31
10
216.0013696077292
20
2.4035163027585735
30
0
10
216.32667174543823
20
1.6801023240371749
30
6.1629758220391547e-32
10
216.55472466336124
20
1.030790042443148
30
6.1629758220391547e-32
10
216.655156189156
20
0.74484139617436484
30
1.2325951644078309e-31
10
216.71829796235272
20
0.53615553778899427
30
6.1629758220391547e-32
10
216.76320861603219
20
0.34847099919384145
30
-3.0814879110195774e-32
10
216.80494676489639
20
0.17404456427037401
30
1.5407439555097887e-32
10
216.84441920592161
20
-0.058242598679268502
30
0
10
216.85197134674479
20
-0.11142530360850686
30
6.1629758220391547e-32
0
SPLINE
5
120
100
AcDbEntity
8
0
100
AcDbSpline
70
1064
71
3
72
10
73
6
74
0
42
0.000000001
43
0.0000000001
44
0.0000000001
40
0
40
0
40
0
40
0
40
0.33333333333333331
40
0.66666666666666663
40
1
40
1
40
1
40
1
10
214.48114921872516
20
3.2378926826298797
30
0
10
214.55109936167534
20
3.3583415790264937
30
0
10
214.77797840264583
20
3.5479685013785889
30
0
10
215.22202159735417
20
3.5479685013785893
30
0
10
215.44890063832466
20
3.3583415790264932
30
0
10
215.51885078127484
20
3.2378926826298793
30
0
0
SPLINE
5
121
100
AcDbEntity
8
0
100
AcDbSpline
70
1064
71
3
72
17
73
13
74
0
42
0.000000001
43
0.0000000001
44
0.0000000001
40
0.1651062730635337
40
0.1651062730635337
40
0.1651062730635337
40
0.1651062730635337
40
0.27201695990356217
40
0.27201695990356217
40
0.27201695990356217
40
0.38705389762040265
40
0.38705389762040265
40
0.38705389762040265
40
0.64827176828064959
40
0.64827176828064959
40
0.64827176828064959
40
0.65102182461369085
40
0.65102182461369085
40
0.65102182461369085
40
0.65102182461369085
10
213.14802865325521
20
-0.11142530360850819
30
0
10
213.15558079407845
20
-0.058242598679272353
30
0
10
213.19505323510359
20
0.17404456427037257
30
0
10
213.23679138396781
20
0.34847099919384145
30
0
10
213.28170203764728
20
0.53615553778899427
30
0
10
213.344843810844
20
0.74484139617436484
30
0
10
213.44527533663876
20
1.030790042443148
30
0
10
213.67332825456177
20
1.6801023240371749
30
0
10
213.9986303922708
20
2.4035163027585735
30
0
10
214.466340759942
20
3.2123389639059896
30
0
10
214.47126473338759
20
3.220854108279434
30
0
10
214.47620088175404
20
3.2293720177387115
30
0
10
214.48114921872516
20
3.2378926826298815
30
0
0
ARC
5
122
100
AcDbEntity
8
0
100
AcDbCircle
10
210
20
9.080445725270845e-31
30
-2.7369110631344083e-46
40
3.1500000000000168
100
AcDbArc
50
182.02715293876113
51
357.97284706123884
0
SPLINE
5
123
100
AcDbEntity
8
0
100
AcDbSpline
70
1064
71
3
72
17
73
13
74
0
42
0.000000001
43
0.0000000001
44
0.0000000001
40
-0.65102182461369074
40
-0.65102182461369074
40
-0.65102182461369074
40
-0.65102182461369074
40
-0.64827176828064959
40
-0.64827176828064959
40
-0.64827176828064959
40
-0.38705389762040265
40
-0.38705389762040265
40
-0.38705389762040265
40
-0.27201695990356217
40
-0.27201695990356217
40
-0.27201695990356217
40
-0.16510627306353459
40
-0.16510627306353459
40
-0.16510627306353459
40
-0.16510627306353459
10
205.51885078127492
20
3.2378926826298797
30
0
10
205.52379911824599
20
3.2293720177387102
30
0
10
205.52873526661244
20
3.2208541082794335
30
1.2325951644078309e-31
10
205.533659240058
20
3.2123389639059896
30
1.2325951644078309e-31
10
206.0013696077292
20
2.4035163027585735
30
0
10
206.32667174543823
20
1.6801023240371749
30
6.1629758220391547e-32
10
206.55472466336124
20
1.030790042443148
30
6.1629758220391547e-32
10
206.655156189156
20
0.74484139617436484
30
1.2325951644078309e-31
10
206.71829796235272
20
0.53615553778899427
30
6.1629758220391547e-32
10
206.76320861603219
20
0.34847099919384145
30
-3.0814879110195774e-32
10
206.80494676489639
20
0.17404456427037401
30
1.5407439555097887e-32
10
206.84441920592161
20
-0.058242598679268502
30
0
10
206.85197134674479
20
-0.11142530360850686
30
6.1629758220391547e-32
0
SPLINE
5
124
100
AcDbEntity
8
0
100
AcDbSpline
70
1064
71
3
72
10
73
6
74
0
42
0.000000001
43
0.0000000001
44
0.0000000001
40
0
40
0
40
0
40
0
40
0.33333333333333331
40
0.66666666666666663
40
1
40
1
40
1
40
1
10
204.48114921872516
20
3.2378926826298797
30
0
10
204.55109936167534
20
3.3583415790264937
30
0
10
204.77797840264583
20
3.5479685013785889
30
0
10
205.22202159735417
20
3.5479685013785893
30
0
10
205.44890063832466
20
3.3583415790264932
30
0
10
205.51885078127484
20
3.2378926826298793
30
0
0
SPLINE
5
125
100
AcDbEntity
8
0
100
AcDbSpline
70
1064
71
3
72
17
73
13
74
0
42
0.000000001
43
0.0000000001
44
0.0000000001
40
0.1651062730635337
40
0.1651062730635337
40
0.1651062730635337
40
0.1651062730635337
40
0.27201695990356217
40
0.27201695990356217
40
0.27201695990356217
40
0.38705389762040265
40
0.38705389762040265
40
0.38705389762040265
40
0.64827176828064959
40
0.64827176828064959
40
0.64827176828064959
40
0.65102182461369085
40
0.65102182461369085
40
0.65102182461369085
40
0.65102182461369085
10
203.14802865325521
20
-0.11142530360850819
30
0
10
203.15558079407836
20
-0.058242598679272353
30
0
10
203.19505323510361
20
0.17404456427037257
30
0
10
203.23679138396781
20
0.34847099919384145
30
0
10
203.28170203764728
20
0.53615553778899427
30
0
10
203.344843810844
20
0.74484139617436484
30
0
10
203.44527533663876
20
1.030790042443148
30
0
10
203.67332825456177
20
1.6801023240371749
30
0
10
203.9986303922708
20
2.4035163027585735
30
0
10
204.466340759942
20
3.2123389639059896
30
0
10
204.47126473338759
20
3.220854108279434
30
0
10
204.47620088175401
20
3.2293720177387115
30
0
10
204.48114921872514
20
3.2378926826298815
30
0
0
ARC
5
126
100
AcDbEntity
8
0
100
AcDbCircle
10
200
20
9.080445725270845e-31
30
-2.7369110631344083e-46
40
3.1500000000000168
100
AcDbArc
50
182.02715293876113
51
357.97284706123884
0
SPLINE
5
127
100
AcDbEntity
8
0
100
AcDbSpline
70
1064
71
3
72
17
73
13
74
0
42
0.000000001
43
0.0000000001
44
0.0000000001
40
-0.65102182461369074
40
-0.65102182461369074
40
-0.65102182461369074
40
-0.65102182461369074
40
-0.64827176828064959
40
-0.64827176828064959
40
-0.64827176828064959
40
-0.38705389762040265
40
-0.38705389762040265
40
-0.38705389762040265
40
-0.27201695990356217
40
-0.27201695990356217
40
-0.27201695990356217
40
-0.16510627306353459
40
-0.16510627306353459
40
-0.16510627306353459
40
-0.16510627306353459
10
195.51885078127486
20
3.2378926826298797
30
0
10
195.52379911824596
20
3.2293720177387102
30
0
10
195.52873526661241
20
3.2208541082794335
30
1.2325951644078309e-31
10
195.533659240058
20
3.2123389639059896
30
1.2325951644078309e-31
10
196.0013696077292
20
2.4035163027585735
30
0
10
196.32667174543823
20
1.6801023240371749
30
6.1629758220391547e-32
10
196.55472466336124
20
1.030790042443148
30
6.1629758220391547e-32
10
196.655156189156
20
0.74484139617436484
30
1.2325951644078309e-31
10
196.71829796235272
20
0.53615553778899427
30
6.1629758220391547e-32
10
196.76320861603219
20
0.34847099919384145
30
-3.0814879110195774e-32
10
196.80494676489639
20
0.17404456427037401
30
1.5407439555097887e-32
10
196.84441920592161
20
-0.058242598679268502
30
0
10
196.85197134674479
20
-0.11142530360850686
30
6.1629758220391547e-32
0
SPLINE
5
128
100
AcDbEntity
8
0
100
AcDbSpline
70
1064
71
3
72
10
73
6
74
0
42
0.000000001
43
0.0000000001
44
0.0000000001
40
0
40
0
40
0
40
0
40
0.33333333333333331
40
0.66666666666666663
40
1
40
1
40
1
40
1
10
194.48114921872516
20
3.2378926826298797
30
0
10
194.55109936167534
20
3.3583415790264937
30
0
10
194.77797840264583
20
3.5479685013785889
30
0
10
195.22202159735417
20
3.5479685013785893
30
0
10
195.44890063832466
20
3.3583415790264932
30
0
10
195.51885078127484
20
3.2378926826298793
30
0
0
SPLINE
5
129
100
AcDbEntity
8
0
100
AcDbSpline
70
1064
71
3
72
17
73
13
74
0
42
0.000000001
43
0.0000000001
44
0.0000000001
40
0.1651062730635337
40
0.1651062730635337
40
0.1651062730635337
40
0.1651062730635337
40
0.27201695990356217
40
0.27201695990356217
40
0.27201695990356217
40
0.38705389762040265
40
0.38705389762040265
40
0.38705389762040265
40
0.64827176828064959
40
0.64827176828064959
40
0.64827176828064959
40
0.65102182461369085
40
0.65102182461369085
40
0.65102182461369085
40
0.65102182461369085
10
193.14802865325521
20
-0.11142530360850819
30
0
10
193.15558079407839
20
-0.058242598679272353
30
0
10
193.19505323510361
20
0.17404456427037257
30
0
10
193.23679138396781
20
0.34847099919384145
30
0
10
193.28170203764728
20
0.53615553778899427
30
0
10
193.344843810844
20
0.74484139617436484
30
0
10
193.44527533663876
20
1.030790042443148
30
0
10
193.67332825456177
20
1.6801023240371749
30
0
10
193.9986303922708
20
2.4035163027585735
30
0
10
194.466340759942
20
3.2123389639059896
30
0
10
194.47126473338759
20
3.220854108279434
30
0
10
194.47620088175404
20
3.2293720177387115
30
0
10
194.48114921872516
20
3.2378926826298815
30
0
0
ARC
5
130
100
AcDbEntity
8
0
100
AcDbCircle
10
190
20
9.080445725270845e-31
30
-2.7369110631344083e-46
40
3.1500000000000168
100
AcDbArc
50
182.02715293876113
51
357.97284706123884
0
SPLINE
5
131
100
AcDbEntity
8
0
100
AcDbSpline
70
1064
71
3
72
17
73
13
74
0
42
0.000000001
43
0.0000000001
44
0.0000000001
40
-0.65102182461369074
40
-0.65102182461369074
40
-0.65102182461369074
40
-0.65102182461369074
40
-0.64827176828064959
40
-0.64827176828064959
40
-0.64827176828064959
40
-0.38705389762040265
40
-0.38705389762040265
40
-0.38705389762040265
40
-0.27201695990356217
40
-0.27201695990356217
40
-0.27201695990356217
40
-0.16510627306353459
40
-0.16510627306353459
40
-0.16510627306353459
40
-0.16510627306353459
10
185.51885078127486
20
3.2378926826298797
30
0
10
185.52379911824596
20
3.2293720177387102
30
0
10
185.52873526661241
20
3.2208541082794335
30
1.2325951644078309e-31
10
185.533659240058
20
3.2123389639059896
30
1.2325951644078309e-31
10
186.0013696077292
20
2.4035163027585735
30
0
10
186.32667174543823
20
1.6801023240371749
30
6.1629758220391547e-32
10
186.55472466336124
20
1.030790042443148
30
6.1629758220391547e-32
10
186.655156189156
20
0.74484139617436484
30
1.2325951644078309e-31
10
186.71829796235272
20
0.53615553778899427
30
6.1629758220391547e-32
10
186.76320861603219
20
0.34847099919384145
30
-3.0814879110195774e-32
10
186.80494676489639
20
0.17404456427037401
30
1.5407439555097887e-32
10
186.84441920592161
20
-0.058242598679268502
30
0
10
186.85197134674479
20
-0.11142530360850686
30
6.1629758220391547e-32
0
SPLINE
5
132
100
AcDbEntity
8
0
100
AcDbSpline
70
1064
71
3
72
10
73
6
74
0
42
0.000000001
43
0.0000000001
44
0.0000000001
40
0
40
0
40
0
40
0
40
0.33333333333333331
40
0.66666666666666663
40
1
40
1
40
1
40
1
10
184.48114921872516
20
3.2378926826298797
30
0
10
184.55109936167534
20
3.3583415790264937
30
0
10
184.77797840264583
20
3.5479685013785889
30
0
10
185.22202159735417
20
3.5479685013785893
30
0
10
185.44890063832466
20
3.3583415790264932
30
0
10
185.51885078127484
20
3.2378926826298793
30
0
0
SPLINE
5
133
100
AcDbEntity
8
0
100
AcDbSpline
70
1064
71
3
72
17
73
13
74
0
42
0.000000001
43
0.0000000001
44
0.0000000001
40
0.1651062730635337
40
0.1651062730635337
40
0.1651062730635337
40
0.1651062730635337
40
0.27201695990356217
40
0.27201695990356217
40
0.27201695990356217
40
0.38705389762040265
40
0.38705389762040265
40
0.38705389762040265
40
0.64827176828064959
40
0.64827176828064959
40
0.64827176828064959
40
0.65102182461369085
40
0.65102182461369085
40
0.65102182461369085
40
0.65102182461369085
10
183.14802865325518
20
-0.11142530360850819
30
0
10
183.15558079407845
20
-0.058242598679272353
30
0
10
183.19505323510359
20
0.17404456427037257
30
0
10
183.23679138396781
20
0.34847099919384145
30
0
10
183.28170203764728
20
0.53615553778899427
30
0
10
183.344843810844
20
0.74484139617436484
30
0
10
183.44527533663876
20
1.030790042443148
30
0
10
183.67332825456177
20
1.6801023240371749
30
0
10
183.9986303922708
20
2.4035163027585735
30
0
10
184.466340759942
20
3.2123389639059896
30
0
10
184.47126473338759
20
3.220854108279434
30
0
10
184.47620088175404
20
3.2293720177387115
30
0
10
184.48114921872516
20
3.2378926826298815
30
0
0
ARC
5
134
100
AcDbEntity
8
0
100
AcDbCircle
10
180
20
9.080445725270845e-31
30
-2.7369110631344083e-46
40
3.1500000000000168
100
AcDbArc
50
182.02715293876113
51
357.97284706123867
0
SPLINE
5
135
100
AcDbEntity
8
0
100
AcDbSpline
70
1064
71
3
72
17
73
13
74
0
42
0.000000001
43
0.0000000001
44
0.0000000001
40
-0.65102182461369074
40
-0.65102182461369074
40
-0.65102182461369074
40
-0.65102182461369074
40
-0.64827176828064959
40
-0.64827176828064959
40
-0.64827176828064959
40
-0.38705389762040265
40
-0.38705389762040265
40
-0.38705389762040265
40
-0.27201695990356217
40
-0.27201695990356217
40
-0.27201695990356217
40
-0.16510627306353459
40
-0.16510627306353459
40
-0.16510627306353459
40
-0.16510627306353459
10
175.51885078127486
20
3.2378926826298797
30
0
10
175.52379911824596
20
3.2293720177387102
30
0
10
175.52873526661241
20
3.2208541082794335
30
1.2325951644078309e-31
10
175.533659240058
20
3.2123389639059896
30
1.2325951644078309e-31
10
176.0013696077292
20
2.4035163027585735
30
0
10
176.32667174543823
20
1.6801023240371749
30
6.1629758220391547e-32
10
176.55472466336124
20
1.030790042443148
30
6.1629758220391547e-32
10
176.655156189156
20
0.74484139617436484
30
1.2325951644078309e-31
10
176.71829796235272
20
0.53615553778899427
30
6.1629758220391547e-32
10
176.76320861603219
20
0.34847099919384145
30
-3.0814879110195774e-32
10
176.80494676489639
20
0.17404456427037401
30
1.5407439555097887e-32
10
176.84441920592161
20
-0.058242598679268502
30
0
10
176.85197134674479
20
-0.11142530360850686
30
6.1629758220391547e-32
0
SPLINE
5
136
100
AcDbEntity
8
0
100
AcDbSpline
70
1064
71
3
72
10
73
6
74
0
42
0.000000001
43
0.0000000001
44
0.0000000001
40
0
40
0
40
0
40
0
40
0.33333333333333331
40
0.66666666666666663
40
1
40
1
40
1
40
1
10
174.48114921872516
20
3.2378926826298797
30
0
10
174.55109936167534
20
3.3583415790264937
30
0
10
174.77797840264583
20
3.5479685013785889
30
0
10
175.22202159735417
20
3.5479685013785893
30
0
10
175.44890063832466
20
3.3583415790264932
30
0
10
175.51885078127484
20
3.2378926826298793
30
0
0
SPLINE
5
137
100
AcDbEntity
8
0
100
AcDbSpline
70
1064
71
3
72
17
73
13
74
0
42
0.000000001
43
0.0000000001
44
0.0000000001
40
0.1651062730635337
40
0.1651062730635337
40
0.1651062730635337
40
0.1651062730635337
40
0.27201695990356217
40
0.27201695990356217
40
0.27201695990356217
40
0.38705389762040265
40
0.38705389762040265
40
0.38705389762040265
40
0.64827176828064959
40
0.64827176828064959
40
0.64827176828064959
40
0.65102182461369085
40
0.65102182461369085
40
0.65102182461369085
40
0.65102182461369085
10
173.14802865325518
20
-0.11142530360850819
30
0
10
173.15558079407839
20
-0.058242598679272353
30
0
10
173.19505323510361
20
0.17404456427037257
30
0
10
173.23679138396781
20
0.34847099919384145
30
0
10
173.28170203764728
20
0.53615553778899427
30
0
10
173.344843810844
20
0.74484139617436484
30
0
10
173.44527533663876
20
1.030790042443148
30
0
10
173.67332825456177
20
1.6801023240371749
30
0
10
173.9986303922708
20
2.4035163027585735
30
0
10
174.466340759942
20
3.2123389639059896
30
0
10
174.47126473338759
20
3.220854108279434
30
0
10
174.47620088175404
20
3.2293720177387115
30
0
10
174.48114921872514
20
3.2378926826298815
30
0
0
ARC
5
138
100
AcDbEntity
8
0
100
AcDbCircle
10
170
20
9.080445725270845e-31
30
-2.7369110631344083e-46
40
3.1500000000000168
100
AcDbArc
50
182.02715293876113
51
357.97284706123867
0
SPLINE
5
139
100
AcDbEntity
8
0
100
AcDbSpline
70
1064
71
3
72
17
73
13
74
0
42
0.000000001
43
0.0000000001
44
0.0000000001
40
-0.65102182461369074
40
-0.65102182461369074
40
-0.65102182461369074
40
-0.65102182461369074
40
-0.64827176828064959
40
-0.64827176828064959
40
-0.64827176828064959
40
-0.38705389762040265
40
-0.38705389762040265
40
-0.38705389762040265
40
-0.27201695990356217
40
-0.27201695990356217
40
-0.27201695990356217
40
-0.16510627306353459
40
-0.16510627306353459
40
-0.16510627306353459
40
-0.16510627306353459
10
165.51885078127484
20
3.2378926826298797
30
0
10
165.52379911824596
20
3.2293720177387102
30
0
10
165.52873526661241
20
3.2208541082794335
30
1.2325951644078309e-31
10
165.533659240058
20
3.2123389639059896
30
1.2325951644078309e-31
10
166.0013696077292
20
2.4035163027585735
30
0
10
166.32667174543823
20
1.6801023240371749
30
6.1629758220391547e-32
10
166.55472466336124
20
1.030790042443148
30
6.1629758220391547e-32
10
166.655156189156
20
0.74484139617436484
30
1.2325951644078309e-31
10
166.71829796235272
20
0.53615553778899427
30
6.1629758220391547e-32
10
166.76320861603219
20
0.34847099919384145
30
-3.0814879110195774e-32
10
166.80494676489639
20
0.17404456427037401
30
1.5407439555097887e-32
10
166.84441920592155
20
-0.058242598679268502
30
0
10
166.85197134674479
20
-0.11142530360850686
30
6.1629758220391547e-32
0
SPLINE
5
140
100
AcDbEntity
8
0
100
AcDbSpline
70
1064
71
3
72
10
73
6
74
0
42
0.000000001
43
0.0000000001
44
0.0000000001
40
0
40
0
40
0
40
0
40
0.33333333333333331
40
0.66666666666666663
40
1
40
1
40
1
40
1
10
164.48114921872516
20
3.2378926826298797
30
0
10
164.55109936167534
20
3.3583415790264937
30
0
10
164.77797840264583
20
3.5479685013785889
30
0
10
165.22202159735417
20
3.5479685013785893
30
0
10
165.44890063832466
20
3.3583415790264932
30
0
10
165.51885078127484
20
3.2378926826298793
30
0
0
SPLINE
5
141
100
AcDbEntity
8
0
100
AcDbSpline
70
1064
71
3
72
17
73
13
74
0
42
0.000000001
43
0.0000000001
44
0.0000000001
40
0.1651062730635337
40
0.1651062730635337
40
0.1651062730635337
40
0.1651062730635337
40
0.27201695990356217
40
0.27201695990356217
40
0.27201695990356217
40
0.38705389762040265
40
0.38705389762040265
40
0.38705389762040265
40
0.64827176828064959
40
0.64827176828064959
40
0.64827176828064959
40
0.65102182461369085
40
0.65102182461369085
40
0.65102182461369085
40
0.65102182461369085
10
163.14802865325521
20
-0.11142530360850819
30
0
10
163.15558079407839
20
-0.058242598679272353
30
0
10
163.19505323510361
20
0.17404456427037257
30
0
10
163.23679138396781
20
0.34847099919384145
30
0
10
163.28170203764728
20
0.53615553778899427
30
0
10
163.344843810844
20
0.74484139617436484
30
0
10
163.44527533663876
20
1.030790042443148
30
0
10
163.67332825456177
20
1.6801023240371749
30
0
10
163.9986303922708
20
2.4035163027585735
30
0
10
164.466340759942
20
3.2123389639059896
30
0
10
164.47126473338759
20
3.220854108279434
30
0
10
164.47620088175404
20
3.2293720177387115
30
0
10
164.48114921872516
20
3.2378926826298815
30
0
0
ARC
5
142
100
AcDbEntity
8
0
100
AcDbCircle
10
160
20
9.080445725270845e-31
30
-2.7369110631344083e-46
40
3.1499999999999999
100
AcDbArc
50
270
51
357.97284706123884
0
LINE
5
143
100
AcDbEntity
8
0
100
AcDbLine
10
160
20
-3.1499999999999999
30
-2.7369110631344083e-46
11
160
21
-24.751406828972655
31
0
0
ARC
5
144
100
AcDbEntity
8
0
100
AcDbCircle
10
164
20
-24.751406828972652
30
-4.9303806576313238e-31
40
3.9999999999999858
100
AcDbArc
50
180
51
270
0
LINE
5
145
100
AcDbEntity
8
0
100
AcDbLine
10
164
20
-28.751406828972655
30
-4.9303806576313238e-31
11
256
21
-28.751406828972659
31
-4.9303806576313238e-31
0
CIRCLE
5
146
100
AcDbEntity
8
0
100
AcDbCircle
10
179.99999999999997
20
-15.950703414486249
30
4.9303806576313238e-31
40
3.0000000000000071
0
CIRCLE
5
147
100
AcDbEntity
8
0
100
AcDbCircle
10
209.99999999999997
20
-15.950703414486272
30
-4.9303806576313238e-31
40
3.0000000000000071
0
CIRCLE
5
148
100
AcDbEntity
8
0
100
AcDbCircle
10
239.99999999999997
20
-15.950703414486306
30
4.9303806576313238e-31
40
3.0000000000000071
0
ARC
5
149
100
AcDbEntity
8
0
100
AcDbCircle
10
675.67354866618052
20
218.74219079053799
30
-1.0041608333825008e-16
40
4.0000000000000568
100
AcDbArc
50
180
51
270.00000000000324
0
LINE
5
150
100
AcDbEntity
8
0
100
AcDbLine
10
675.67354866618075
20
214.74219079053793
30
-1.0041608333825008e-16
11
697.27495549515368
21
214.74219079054021
31
8.0370694798248378e-17
0
ARC
5
151
100
AcDbEntity
8
0
100
AcDbCircle
10
700.42495549515365
20
214.74219079054052
30
8.0370694797396396e-17
40
3.1499999999999932
100
AcDbArc
50
92.027152938767145
51
180
0
SPLINE
5
152
100
AcDbEntity
8
0
100
AcDbSpline
70
1064
71
3
72
17
73
13
74
0
42
0.000000001
43
0.0000000001
44
0.0000000001
40
-0.65102182461369074
40
-0.65102182461369074
40
-0.65102182461369074
40
-0.65102182461369074
40
-0.64827176828064959
40
-0.64827176828064959
40
-0.64827176828064959
40
-0.38705389762040265
40
-0.38705389762040265
40
-0.38705389762040265
40
-0.27201695990356217
40
-0.27201695990356217
40
-0.27201695990356217
40
-0.16510627306353459
40
-0.16510627306353459
40
-0.16510627306353459
40
-0.16510627306353459
10
703.66284817778308
20
219.22334000926608
30
-2.5570817283054219e-16
10
703.65432751289188
20
219.21839167229496
30
-2.5411108494627384e-16
10
703.64580960343255
20
219.2134555239285
30
-2.5251793096402795e-16
10
703.63729445905915
20
219.20853155048292
30
-2.5092870646732729e-16
10
702.82847179791179
20
218.7408211828116
30
-9.9974039088092263e-17
10
702.10505781919039
20
218.41551904510251
30
5.0180230723387932e-18
10
701.45574553759639
20
218.18746612717942
30
7.8622661219120925e-17
10
701.16979689132768
20
218.08703460138463
30
1.1103718229596343e-16
10
700.96111103294231
20
218.02389282818791
30
1.3141634433614144e-16
10
700.77342649434718
20
217.97898217450839
30
1.4591136787331471e-16
10
700.5990000594237
20
217.93724402564422
30
1.5938245770651125e-16
10
700.36671289647404
20
217.89777158461897
30
1.7212228478214424e-16
10
700.31353019154483
20
217.89021944379579
30
1.7455975674078465e-16
0
SPLINE
5
153
100
AcDbEntity
8
0
100
AcDbSpline
70
1064
71
3
72
10
73
6
74
0
42
0.000000001
43
0.0000000001
44
0.0000000001
40
0
40
0
40
0
40
0
40
0.33333333333333331
40
0.66666666666666663
40
1
40
1
40
1
40
1
10
703.66284817778296
20
220.26104157181575
30
-3.5517382916139916e-17
10
703.78329707417959
20
220.19109142886555
30
-1.2940802852826444e-17
10
703.97292399653168
20
219.96421238789512
30
6.0284963630680705e-17
10
703.97292399653168
20
219.52016919318677
30
2.0360099293519969e-16
10
703.78329707417959
20
219.29329015221626
30
2.7682675941872261e-16
10
703.66284817778308
20
219.22334000926608
30
-2.5570817283054219e-16
0
SPLINE
5
154
100
AcDbEntity
8
0
100
AcDbSpline
70
1064
71
3
72
17
73
13
74
0
42
0.000000001
43
0.0000000001
44
0.0000000001
40
0.1651062730635337
40
0.1651062730635337
40
0.1651062730635337
40
0.1651062730635337
40
0.27201695990356217
40
0.27201695990356217
40
0.27201695990356217
40
0.38705389762040265
40
0.38705389762040265
40
0.38705389762040265
40
0.64827176828064959
40
0.64827176828064959
40
0.64827176828064959
40
0.65102182461369085
40
0.65102182461369085
40
0.65102182461369085
40
0.65102182461369085
10
700.31353019154437
20
221.59416213728534
30
8.9326199825340287e-17
10
700.36671289647359
20
221.58660999646216
30
9.176367178398859e-17
10
700.59900005942325
20
221.54713755543696
30
1.0450349885959791e-16
10
700.77342649434672
20
221.50539940657279
30
1.1797458869279445e-16
10
700.96111103294197
20
221.46048875289335
30
1.3246961222993616e-16
10
701.16979689132734
20
221.39734697969661
30
1.5284877427012995e-16
10
701.45574553759604
20
221.2969154539019
30
1.8526329534693301e-16
10
702.10505781919005
20
221.06886253597895
30
2.588679334936757e-16
10
702.82847179791156
20
220.74356039827001
30
-1.9125151665851095e-16
10
703.63729445905904
20
220.27585003059892
30
-4.0296849279354815e-17
10
703.64580960343244
20
220.2709260571533
30
-3.8707624782654153e-17
10
703.65432751289177
20
220.26598990878685
30
-3.7114470800400372e-17
10
703.66284817778296
20
220.26104157181575
30
-3.5517382916139916e-17
0
ARC
5
155
100
AcDbEntity
8
0
100
AcDbCircle
10
700.42495549515252
20
224.74219079054055
30
1.8351526176873643e-16
40
3.1500000000000288
100
AcDbArc
50
92.027152938767088
51
267.97284706124532
0
SPLINE
5
156
100
AcDbEntity
8
0
100
AcDbSpline
70
1064
71
3
72
17
73
13
74
0
42
0.000000001
43
0.0000000001
44
0.0000000001
40
-0.65102182461369074
40
-0.65102182461369074
40
-0.65102182461369074
40
-0.65102182461369074
40
-0.64827176828064959
40
-0.64827176828064959
40
-0.64827176828064959
40
-0.38705389762040265
40
-0.38705389762040265
40
-0.38705389762040265
40
-0.27201695990356217
40
-0.27201695990356217
40
-0.27201695990356217
40
-0.16510627306353459
40
-0.16510627306353459
40
-0.16510627306353459
40
-0.16510627306353459
10
703.66284817778194
20
229.22334000926611
30
-1.5256360585920215e-16
10
703.65432751289075
20
229.21839167229501
30
-1.5096651797492592e-16
10
703.64580960343142
20
229.21345552392853
30
-1.4937336399268792e-16
10
703.63729445905801
20
229.20853155048295
30
-1.4778413949598725e-16
10
702.82847179791077
20
228.74082118281163
30
3.1705278832477714e-18
10
702.10505781918937
20
228.41551904510254
30
1.0816259004368672e-16
10
701.45574553759525
20
228.18746612717945
30
1.8176722819046096e-16
10
701.16979689132665
20
228.08703460138469
30
2.1418174926729558e-16
10
700.96111103294118
20
228.02389282818794
30
2.3456091130748937e-16
10
700.77342649434615
20
227.97898217450842
30
2.4905593484466263e-16
10
700.59900005942256
20
227.93724402564425
30
2.625270246778434e-16
10
700.36671289647302
20
227.89777158461899
30
2.7526685175348427e-16
10
700.31353019154369
20
227.89021944379581
30
-2.774071886004457e-16
0
SPLINE
5
157
100
AcDbEntity
8
0
100
AcDbSpline
70
1064
71
3
72
10
73
6
74
0
42
0.000000001
43
0.0000000001
44
0.0000000001
40
0
40
0
40
0
40
0
40
0.33333333333333331
40
0.66666666666666663
40
1
40
1
40
1
40
1
10
703.66284817778194
20
230.26104157181578
30
6.7627184055200118e-17
10
703.78329707417845
20
230.1910914288656
30
9.020376411851359e-17
10
703.97292399653065
20
229.96421238789515
30
1.6342953060201285e-16
10
703.97292399653065
20
229.5201691931868
30
-2.4836595240603066e-16
10
703.78329707417856
20
229.29329015221629
30
-1.7514018592251562e-16
10
703.66284817778194
20
229.22334000926611
30
-1.5256360585920215e-16
0
SPLINE
5
158
100
AcDbEntity
8
0
100
AcDbSpline
70
1064
71
3
72
17
73
13
74
0
42
0.000000001
43
0.0000000001
44
0.0000000001
40
0.1651062730635337
40
0.1651062730635337
40
0.1651062730635337
40
0.1651062730635337
40
0.27201695990356217
40
0.27201695990356217
40
0.27201695990356217
40
0.38705389762040265
40
0.38705389762040265
40
0.38705389762040265
40
0.64827176828064959
40
0.64827176828064959
40
0.64827176828064959
40
0.65102182461369085
40
0.65102182461369085
40
0.65102182461369085
40
0.65102182461369085
10
700.31353019154335
20
231.59416213728537
30
1.9247076679668032e-16
10
700.36671289647256
20
231.58660999646216
30
1.9490823875532862e-16
10
700.59900005942222
20
231.54713755543702
30
2.0764806583092217e-16
10
700.7734264943457
20
231.50539940657282
30
2.2111915566413449e-16
10
700.96111103294083
20
231.46048875289338
30
2.356141792012762e-16
10
701.1697968913262
20
231.39734697969664
30
2.5599334124146998e-16
10
701.45574553759502
20
231.29691545390193
30
-2.6670364999428944e-16
10
702.10505781918914
20
231.06886253597901
30
-1.9309901184756253e-16
10
702.82847179791042
20
230.74356039827006
30
-8.810694968717092e-17
10
703.63729445905801
20
230.27585003059895
30
6.2847717691985219e-17
10
703.64580960343142
20
230.27092605715336
30
6.4436942188685881e-17
10
703.65432751289063
20
230.26598990878688
30
6.6030096170939662e-17
10
703.66284817778194
20
230.26104157181581
30
6.7627184055200118e-17
0
ARC
5
159
100
AcDbEntity
8
0
100
AcDbCircle
10
700.42495549515149
20
234.74219079054058
30
-2.6845168357250181e-16
40
3.1499999999999932
100
AcDbArc
50
92.027152938767131
51
267.97284706124532
0
SPLINE
5
160
100
AcDbEntity
8
0
100
AcDbSpline
70
1064
71
3
72
17
73
13
74
0
42
0.000000001
43
0.0000000001
44
0.0000000001
40
-0.65102182461369074
40
-0.65102182461369074
40
-0.65102182461369074
40
-0.65102182461369074
40
-0.64827176828064959
40
-0.64827176828064959
40
-0.64827176828064959
40
-0.38705389762040265
40
-0.38705389762040265
40
-0.38705389762040265
40
-0.27201695990356217
40
-0.27201695990356217
40
-0.27201695990356217
40
-0.16510627306353459
40
-0.16510627306353459
40
-0.16510627306353459
40
-0.16510627306353459
10
703.66284817778092
20
239.22334000926614
30
-4.9419038887862119e-17
10
703.65432751288972
20
239.21839167229504
30
-4.7821951003585885e-17
10
703.64580960343051
20
239.21345552392859
30
-4.6228797021347881e-17
10
703.6372944590571
20
239.20853155048297
30
-4.4639572524647219e-17
10
702.82847179790963
20
238.74082118281166
30
1.0631509485458781e-16
10
702.10505781918823
20
238.41551904510257
30
2.1130715701502675e-16
10
701.45574553759434
20
238.18746612717948
30
-2.7019971715077728e-16
10
701.16979689132552
20
238.08703460138472
30
-2.3778519607392688e-16
10
700.96111103294015
20
238.02389282818797
30
-2.1740603403374887e-16
10
700.77342649434502
20
237.97898217450847
30
-2.0291101049657561e-16
10
700.59900005942154
20
237.9372440256443
30
-1.8943992066337906e-16
10
700.36671289647188
20
237.89777158461902
30
-1.7670009358775397e-16
10
700.31353019154267
20
237.89021944379584
30
-1.7426262162910566e-16
0
SPLINE
5
161
100
AcDbEntity
8
0
100
AcDbSpline
70
1064
71
3
72
10
73
6
74
0
42
0.000000001
43
0.0000000001
44
0.0000000001
40
0
40
0
40
0
40
0
40
0.33333333333333331
40
0.66666666666666663
40
1
40
1
40
1
40
1
10
703.6628481777808
20
240.26104157181581
30
1.7077175102654015e-16
10
703.78329707417743
20
240.19109142886563
30
1.933483310898694e-16
10
703.97292399652952
20
239.9642123878952
30
2.6657409757336866e-16
10
703.97292399652952
20
239.52016919318683
30
-1.4522138543469063e-16
10
703.78329707417743
20
239.29329015221634
30
-7.199561895117559e-17
10
703.66284817778092
20
239.22334000926614
30
-4.9419038887862119e-17
0
SPLINE
5
162
100
AcDbEntity
8
0
100
AcDbSpline
70
1064
71
3
72
17
73
13
74
0
42
0.000000001
43
0.0000000001
44
0.0000000001
40
0.1651062730635337
40
0.1651062730635337
40
0.1651062730635337
40
0.1651062730635337
40
0.27201695990356217
40
0.27201695990356217
40
0.27201695990356217
40
0.38705389762040265
40
0.38705389762040265
40
0.38705389762040265
40
0.64827176828064959
40
0.64827176828064959
40
0.64827176828064959
40
0.65102182461369085
40
0.65102182461369085
40
0.65102182461369085
40
0.65102182461369085
10
700.31353019154221
20
241.59416213728542
30
-2.5949617854455791e-16
10
700.36671289647143
20
241.58660999646227
30
-2.5705870658592539e-16
10
700.59900005942109
20
241.54713755543702
30
-2.4431887951030029e-16
10
700.77342649434456
20
241.50539940657285
30
-2.3084778967710375e-16
10
700.96111103293981
20
241.46048875289341
30
-2.1635276613996204e-16
10
701.16979689132518
20
241.39734697969669
30
-1.9597360409976825e-16
10
701.455745537594
20
241.29691545390199
30
-1.6355908302294941e-16
10
702.105057819188
20
241.06886253597904
30
-8.9954444876222498e-17
10
702.82847179790951
20
240.74356039827009
30
1.5037617284169115e-17
10
703.63729445905687
20
240.27585003059897
30
1.6599228466334103e-16
10
703.64580960343028
20
240.27092605715339
30
1.6758150916002592e-16
10
703.65432751288961
20
240.26598990878693
30
1.691746631422797e-16
10
703.6628481777808
20
240.26104157181584
30
1.7077175102654015e-16
0
ARC
5
163
100
AcDbEntity
8
0
100
AcDbCircle
10
700.42495549515036
20
244.74219079054066
30
-1.6530711660116177e-16
40
3.1499999999999932
100
AcDbArc
50
92.027152938767145
51
267.97284706124532
0
SPLINE
5
164
100
AcDbEntity
8
0
100
AcDbSpline
70
1064
71
3
72
17
73
13
74
0
42
0.000000001
43
0.0000000001
44
0.0000000001
40
-0.65102182461369074
40
-0.65102182461369074
40
-0.65102182461369074
40
-0.65102182461369074
40
-0.64827176828064959
40
-0.64827176828064959
40
-0.64827176828064959
40
-0.38705389762040265
40
-0.38705389762040265
40
-0.38705389762040265
40
-0.27201695990356217
40
-0.27201695990356217
40
-0.27201695990356217
40
-0.16510627306353459
40
-0.16510627306353459
40
-0.16510627306353459
40
-0.16510627306353459
10
703.66284817777978
20
249.22334000926617
30
5.3725528083493693e-17
10
703.65432751288859
20
249.21839167229507
30
5.5322615967754149e-17
10
703.64580960342948
20
249.21345552392862
30
5.691576995000793e-17
10
703.63729445905597
20
249.20853155048303
30
5.8504994446692815e-17
10
702.82847179790861
20
248.74082118281169
30
2.0945966182592784e-16
10
702.10505781918732
20
248.4155190451026
30
-2.4065978832621149e-16
10
701.4557455375932
20
248.1874661271795
30
-1.6705515017943724e-16
10
701.16979689132449
20
248.08703460138474
30
-1.3464062910258684e-16
10
700.96111103293902
20
248.02389282818802
30
-1.1426146706240884e-16
10
700.77342649434399
20
247.9789821745085
30
-9.9766443525235573e-17
10
700.59900005942052
20
247.93724402564433
30
-8.6295353692039027e-17
10
700.36671289647086
20
247.89777158461905
30
-7.3555526616398155e-17
10
700.31353019154164
20
247.89021944379587
30
-7.1118054657765629e-17
0
SPLINE
5
165
100
AcDbEntity
8
0
100
AcDbSpline
70
1064
71
3
72
10
73
6
74
0
42
0.000000001
43
0.0000000001
44
0.0000000001
40
0
40
0
40
0
40
0
40
0.33333333333333331
40
0.66666666666666663
40
1
40
1
40
1
40
1
10
703.66284817777978
20
250.26104157181584
30
2.7391631799789596e-16
10
703.78329707417629
20
250.19109142886566
30
-2.5861861425136883e-16
10
703.97292399652861
20
249.96421238789523
30
-1.8539284776786957e-16
10
703.97292399652861
20
249.52016919318686
30
-4.2076818463350594e-17
10
703.78329707417652
20
249.29329015221637
30
3.1148948020164444e-17
10
703.66284817777978
20
249.22334000926617
30
5.3725528083493693e-17
0
SPLINE
5
166
100
AcDbEntity
8
0
100
AcDbSpline
70
1064
71
3
72
17
73
13
74
0
42
0.000000001
43
0.0000000001
44
0.0000000001
40
0.1651062730635337
40
0.1651062730635337
40
0.1651062730635337
40
0.1651062730635337
40
0.27201695990356217
40
0.27201695990356217
40
0.27201695990356217
40
0.38705389762040265
40
0.38705389762040265
40
0.38705389762040265
40
0.64827176828064959
40
0.64827176828064959
40
0.64827176828064959
40
0.65102182461369085
40
0.65102182461369085
40
0.65102182461369085
40
0.65102182461369085
10
700.3135301915413
20
251.59416213728545
30
-1.563516115732021e-16
10
700.36671289647052
20
251.58660999646227
30
-1.5391413961456958e-16
10
700.59900005942018
20
251.54713755543708
30
-1.4117431253896026e-16
10
700.77342649434354
20
251.50539940657291
30
-1.2770322270576371e-16
10
700.96111103293879
20
251.46048875289347
30
-1.1320819916860623e-16
10
701.16979689132404
20
251.39734697969672
30
-9.2829037128428219e-17
10
701.45574553759286
20
251.29691545390202
30
-6.0414516051609376e-17
10
702.10505781918698
20
251.06886253597906
30
1.3190122095117536e-17
10
702.82847179790838
20
250.74356039827012
30
1.1818218425550915e-16
10
703.63729445905597
20
250.275850030599
30
2.6913685163468106e-16
10
703.64580960342937
20
250.27092605715342
30
2.7072607613138173e-16
10
703.65432751288859
20
250.26598990878696
30
2.7231923011361973e-16
10
703.66284817777978
20
250.26104157181584
30
2.7391631799789596e-16
0
ARC
5
167
100
AcDbEntity
8
0
100
AcDbCircle
10
700.42495549514933
20
254.74219079054069
30
-6.2162549629821738e-17
40
3.1500000000000288
100
AcDbArc
50
92.027152938767131
51
267.97284706124736
0
SPLINE
5
168
100
AcDbEntity
8
0
100
AcDbSpline
70
1064
71
3
72
17
73
13
74
0
42
0.000000001
43
0.0000000001
44
0.0000000001
40
-0.65102182461369074
40
-0.65102182461369074
40
-0.65102182461369074
40
-0.65102182461369074
40
-0.64827176828064959
40
-0.64827176828064959
40
-0.64827176828064959
40
-0.38705389762040265
40
-0.38705389762040265
40
-0.38705389762040265
40
-0.27201695990356217
40
-0.27201695990356217
40
-0.27201695990356217
40
-0.16510627306353459
40
-0.16510627306353459
40
-0.16510627306353459
40
-0.16510627306353459
10
703.66284817777887
20
259.22334000926617
30
1.568700950548495e-16
10
703.65432751288768
20
259.21839167229507
30
1.5846718293910996e-16
10
703.64580960342835
20
259.21345552392859
30
1.6006033692134796e-16
10
703.63729445905494
20
259.20853155048303
30
1.6164956141804863e-16
10
702.82847179790747
20
258.74082118281171
30
-2.4250728351529462e-16
10
702.10505781918619
20
258.41551904510266
30
-1.3751522135487145e-16
10
701.45574553759218
20
258.18746612717956
30
-6.3910583208081431e-17
10
701.16979689132336
20
258.0870346013848
30
-3.149606213124681e-17
10
700.96111103293811
20
258.02389282818802
30
-1.1116900091068802e-17
10
700.77342649434286
20
257.97898217450853
30
3.3781234461044612e-18
10
700.59900005941938
20
257.93724402564436
30
1.6849213279301007e-17
10
700.36671289646972
20
257.89777158461908
30
2.9589040354941879e-17
10
700.31353019154051
20
257.8902194437959
30
3.2026512313574405e-17
0
SPLINE
5
169
100
AcDbEntity
8
0
100
AcDbSpline
70
1064
71
3
72
10
73
6
74
0
42
0.000000001
43
0.0000000001
44
0.0000000001
40
0
40
0
40
0
40
0
40
0.33333333333333331
40
0.66666666666666663
40
1
40
1
40
1
40
1
10
703.66284817777864
20
260.26104157181589
30
-1.7805062734334227e-16
10
703.78329707417538
20
260.19109142886572
30
-1.554740472800288e-16
10
703.97292399652747
20
259.96421238789526
30
-8.224828079652954e-17
10
703.97292399652747
20
259.52016919318692
30
6.1067748507989441e-17
10
703.78329707417538
20
259.2932901522164
30
1.3429351499152026e-16
10
703.66284817777887
20
259.22334000926622
30
1.5687009505483373e-16
0
SPLINE
5
170
100
AcDbEntity
8
0
100
AcDbSpline
70
1064
71
3
72
17
73
13
74
0
42
0.000000001
43
0.0000000001
44
0.0000000001
40
0.1651062730635337
40
0.1651062730635337
40
0.1651062730635337
40
0.1651062730635337
40
0.27201695990356217
40
0.27201695990356217
40
0.27201695990356217
40
0.38705389762040265
40
0.38705389762040265
40
0.38705389762040265
40
0.64827176828064959
40
0.64827176828064959
40
0.64827176828064959
40
0.65102182461369085
40
0.65102182461369085
40
0.65102182461369085
40
0.65102182461369085
10
700.31353019154017
20
261.59416213728548
30
-5.3207044601862069e-17
10
700.36671289646938
20
261.58660999646224
30
-5.0769572643213766e-17
10
700.59900005941904
20
261.54713755543713
30
-3.8029745567620225e-17
10
700.77342649434263
20
261.50539940657291
30
-2.4558655734423679e-17
10
700.96111103293765
20
261.46048875289347
30
-1.0063632197266193e-17
10
701.16979689132313
20
261.39734697969675
30
1.0315529842911815e-17
10
701.45574553759184
20
261.29691545390205
30
4.2730050919730658e-17
10
702.10505781918584
20
261.06886253597912
30
1.1633468906645757e-16
10
702.82847179790735
20
260.74356039827018
30
2.2132675122684918e-16
10
703.63729445905483
20
260.27585003059903
30
-1.8283009370655717e-16
10
703.64580960342823
20
260.27092605715347
30
-1.8124086920985651e-16
10
703.65432751288745
20
260.26598990878699
30
-1.7964771522761851e-16
10
703.66284817777864
20
260.26104157181589
30
-1.7805062734334227e-16
0
ARC
5
171
100
AcDbEntity
8
0
100
AcDbCircle
10
700.42495549514842
20
264.74219079054075
30
4.0982017341518297e-17
40
3.1499999999999932
100
AcDbArc
50
92.02715293876922
51
267.97284706124321
0
SPLINE
5
172
100
AcDbEntity
8
0
100
AcDbSpline
70
1064
71
3
72
17
73
13
74
0
42
0.000000001
43
0.0000000001
44
0.0000000001
40
-0.65102182461369074
40
-0.65102182461369074
40
-0.65102182461369074
40
-0.65102182461369074
40
-0.64827176828064959
40
-0.64827176828064959
40
-0.64827176828064959
40
-0.38705389762040265
40
-0.38705389762040265
40
-0.38705389762040265
40
-0.27201695990356217
40
-0.27201695990356217
40
-0.27201695990356217
40
-0.16510627306353459
40
-0.16510627306353459
40
-0.16510627306353459
40
-0.16510627306353459
10
703.66284817777773
20
269.22334000926617
30
2.6001466202618954e-16
10
703.65432751288654
20
269.21839167229513
30
2.6161174991044999e-16
10
703.64580960342732
20
269.21345552392864
30
2.6320490389270378e-16
10
703.63729445905392
20
269.20853155048309
30
2.6479412838938866e-16
10
702.82847179790656
20
268.74082118281177
30
-1.3936271654395458e-16
10
702.10505781918516
20
268.41551904510266
30
-3.4370654383531417e-17
10
701.45574553759116
20
268.18746612717962
30
3.9233983763258603e-17
10
701.16979689132233
20
268.0870346013848
30
7.1648504840093224e-17
10
700.96111103293697
20
268.02389282818808
30
9.2027666880271232e-17
10
700.77342649434183
20
267.97898217450859
30
1.065226904174445e-16
10
700.59900005941836
20
267.93724402564442
30
1.1999378025064104e-16
10
700.3667128964687
20
267.89777158461914
30
1.3273360732628191e-16
10
700.31353019153948
20
267.89021944379596
30
1.3517107928491444e-16
0
SPLINE
5
173
100
AcDbEntity
8
0
100
AcDbSpline
70
1064
71
3
72
10
73
6
74
0
42
0.000000001
43
0.0000000001
44
0.0000000001
40
0
40
0
40
0
40
0
40
0.33333333333333331
40
0.66666666666666663
40
1
40
1
40
1
40
1
10
703.66284817777773
20
270.26104157181589
30
-7.4906060372002238e-17
10
703.78329707417424
20
270.19109142886572
30
-5.2329480308688766e-17
10
703.97292399652645
20
269.96421238789532
30
2.0896286174810494e-17
10
703.97292399652645
20
269.52016919318692
30
1.6421231547932947e-16
10
703.78329707417436
20
269.29329015221646
30
2.3743808196286029e-16
10
703.66284817777773
20
269.22334000926628
30
2.6001466202617376e-16
0
SPLINE
5
174
100
AcDbEntity
8
0
100
AcDbSpline
70
1064
71
3
72
17
73
13
74
0
42
0.000000001
43
0.0000000001
44
0.0000000001
40
0.1651062730635337
40
0.1651062730635337
40
0.1651062730635337
40
0.1651062730635337
40
0.27201695990356217
40
0.27201695990356217
40
0.27201695990356217
40
0.38705389762040265
40
0.38705389762040265
40
0.38705389762040265
40
0.64827176828064959
40
0.64827176828064959
40
0.64827176828064959
40
0.65102182461369085
40
0.65102182461369085
40
0.65102182461369085
40
0.65102182461369085
10
700.31353019153914
20
271.59416213728554
30
4.9937522369477965e-17
10
700.36671289646836
20
271.58660999646236
30
5.2374994328110491e-17
10
700.59900005941802
20
271.54713755543713
30
6.5114821403735586e-17
10
700.77342649434149
20
271.50539940657296
30
7.8585911236932132e-17
10
700.96111103293663
20
271.46048875289353
30
9.3080934774073841e-17
10
701.16979689132199
20
271.39734697969681
30
1.1346009681425185e-16
10
701.4557455375907
20
271.2969154539021
30
1.4587461789107069e-16
10
702.10505781918482
20
271.06886253597912
30
2.1947925603781338e-16
10
702.82847179790622
20
270.74356039827018
30
-2.3064019411438905e-16
10
703.63729445905381
20
270.27585003059909
30
-7.9685526735217137e-17
10
703.64580960342721
20
270.27092605715347
30
-7.8096302238516475e-17
10
703.65432751288654
20
270.26598990878705
30
-7.6503148256278471e-17
10
703.66284817777773
20
270.26104157181595
30
-7.4906060372018015e-17
0
ARC
5
175
100
AcDbEntity
8
0
100
AcDbCircle
10
700.42495549514729
20
274.74219079054075
30
1.4412658431285833e-16
40
3.1500000000000288
100
AcDbArc
50
92.027152938769149
51
267.97284706124532
0
SPLINE
5
176
100
AcDbEntity
8
0
100
AcDbSpline
70
1064
71
3
72
17
73
13
74
0
42
0.000000001
43
0.0000000001
44
0.0000000001
40
-0.65102182461369074
40
-0.65102182461369074
40
-0.65102182461369074
40
-0.65102182461369074
40
-0.64827176828064959
40
-0.64827176828064959
40
-0.64827176828064959
40
-0.38705389762040265
40
-0.38705389762040265
40
-0.38705389762040265
40
-0.27201695990356217
40
-0.27201695990356217
40
-0.27201695990356217
40
-0.16510627306353459
40
-0.16510627306353459
40
-0.16510627306353459
40
-0.16510627306353459
10
703.66284817777671
20
279.22334000926628
30
-1.919522833150487e-16
10
703.65432751288552
20
279.21839167229518
30
-1.9035519543080402e-16
10
703.64580960342619
20
279.2134555239287
30
-1.8876204144855024e-16
10
703.63729445905278
20
279.20853155048314
30
-1.8717281695184958e-16
10
702.82847179790542
20
278.74082118281183
30
-3.621814957261455e-17
10
702.10505781918403
20
278.41551904510271
30
6.8773912587824394e-17
10
701.45574553759002
20
278.18746612717962
30
1.4237855073459864e-16
10
701.1697968913212
20
278.08703460138486
30
1.7479307181143326e-16
10
700.96111103293595
20
278.02389282818814
30
1.9517223385162704e-16
10
700.7734264943407
20
277.97898217450859
30
2.0966725738878453e-16
10
700.59900005941722
20
277.93724402564442
30
2.2313834722198108e-16
10
700.36671289646756
20
277.89777158461914
30
2.3587817429762195e-16
10
700.31353019153835
20
277.89021944379601
30
2.3831564625627025e-16
0
SPLINE
5
177
100
AcDbEntity
8
0
100
AcDbSpline
70
1064
71
3
72
10
73
6
74
0
42
0.000000001
43
0.0000000001
44
0.0000000001
40
0
40
0
40
0
40
0
40
0.33333333333333331
40
0.66666666666666663
40
1
40
1
40
1
40
1
10
703.6628481777766
20
280.26104157181595
30
2.8238506599337797e-17
10
703.78329707417322
20
280.19109142886578
30
5.0815086662651269e-17
10
703.97292399652531
20
279.96421238789532
30
1.2404085314615053e-16
10
703.97292399652542
20
279.52016919318697
30
2.6735688245066951e-16
10
703.78329707417333
20
279.29329015221646
30
-2.1452886337837795e-16
10
703.66284817777671
20
279.22334000926628
30
-1.9195228331506447e-16
0
SPLINE
5
178
100
AcDbEntity
8
0
100
AcDbSpline
70
1064
71
3
72
17
73
13
74
0
42
0.000000001
43
0.0000000001
44
0.0000000001
40
0.1651062730635337
40
0.1651062730635337
40
0.1651062730635337
40
0.1651062730635337
40
0.27201695990356217
40
0.27201695990356217
40
0.27201695990356217
40
0.38705389762040265
40
0.38705389762040265
40
0.38705389762040265
40
0.64827176828064959
40
0.64827176828064959
40
0.64827176828064959
40
0.65102182461369085
40
0.65102182461369085
40
0.65102182461369085
40
0.65102182461369085
10
700.31353019153801
20
281.59416213728554
30
1.53082089340818e-16
10
700.36671289646733
20
281.58660999646236
30
1.5551956129945053e-16
10
700.59900005941688
20
281.54713755543719
30
1.6825938837507562e-16
10
700.77342649434047
20
281.50539940657302
30
1.8173047820827217e-16
10
700.96111103293549
20
281.46048875289358
30
1.9622550174541388e-16
10
701.16979689132097
20
281.39734697969681
30
2.1660466378559188e-16
10
701.45574553758979
20
281.2969154539021
30
2.4901918486241073e-16
10
702.10505781918368
20
281.06886253597918
30
-2.3248768930342485e-16
10
702.82847179790519
20
280.74356039827023
30
-1.2749562714303324e-16
10
703.63729445905267
20
280.27585003059914
30
2.3459040236122897e-17
10
703.64580960342607
20
280.27092605715353
30
2.5048264732823559e-17
10
703.6543275128854
20
280.26598990878705
30
2.6641418715077341e-17
10
703.6628481777766
20
280.26104157181595
30
2.8238506599337797e-17
0
ARC
5
179
100
AcDbEntity
8
0
100
AcDbCircle
10
700.42495549514626
20
284.7421907905408
30
2.4727115128419837e-16
40
3.1499999999999932
100
AcDbArc
50
92.027152938767131
51
267.97284706124321
0
SPLINE
5
180
100
AcDbEntity
8
0
100
AcDbSpline
70
1064
71
3
72
17
73
13
74
0
42
0.000000001
43
0.0000000001
44
0.0000000001
40
-0.65102182461369074
40
-0.65102182461369074
40
-0.65102182461369074
40
-0.65102182461369074
40
-0.64827176828064959
40
-0.64827176828064959
40
-0.64827176828064959
40
-0.38705389762040265
40
-0.38705389762040265
40
-0.38705389762040265
40
-0.27201695990356217
40
-0.27201695990356217
40
-0.27201695990356217
40
-0.16510627306353459
40
-0.16510627306353459
40
-0.16510627306353459
40
-0.16510627306353459
10
703.66284817777569
20
289.22334000926628
30
-8.8807716343708663e-17
10
703.65432751288449
20
289.21839167229518
30
-8.7210628459448207e-17
10
703.64580960342528
20
289.21345552392876
30
-8.5617474477210203e-17
10
703.63729445905176
20
289.20853155048314
30
-8.4028249980509541e-17
10
702.8284717979044
20
288.74082118281183
30
6.6926417398725484e-17
10
702.105057819183
20
288.41551904510277
30
1.7191847955916443e-16
10
701.45574553758911
20
288.18746612717968
30
2.4552311770593867e-16
10
701.16979689132017
20
288.08703460138486
30
-2.7717387352980498e-16
10
700.96111103293481
20
288.02389282818814
30
-2.5679471148961119e-16
10
700.77342649433967
20
287.97898217450864
30
-2.4229968795243793e-16
10
700.59900005941631
20
287.93724402564447
30
-2.2882859811925716e-16
10
700.36671289646665
20
287.89777158461919
30
-2.1608877104361629e-16
10
700.31353019153744
20
287.89021944379601
30
-2.1365129908496798e-16
0
SPLINE
5
181
100
AcDbEntity
8
0
100
AcDbSpline
70
1064
71
3
72
10
73
6
74
0
42
0.000000001
43
0.0000000001
44
0.0000000001
40
0
40
0
40
0
40
0
40
0.33333333333333331
40
0.66666666666666663
40
1
40
1
40
1
40
1
10
703.66284817777557
20
290.26104157181601
30
1.3138307357067783e-16
10
703.78329707417208
20
290.19109142886583
30
1.539596536339913e-16
10
703.97292399652429
20
289.96421238789537
30
2.2718542011749056e-16
10
703.97292399652429
20
289.52016919318703
30
-1.8461006289055295e-16
10
703.7832970741722
20
289.29329015221651
30
-1.1138429640703791e-16
10
703.66284817777569
20
289.22334000926634
30
-8.880771634372444e-17
0
SPLINE
5
182
100
AcDbEntity
8
0
100
AcDbSpline
70
1064
71
3
72
17
73
13
74
0
42
0.000000001
43
0.0000000001
44
0.0000000001
40
0.1651062730635337
40
0.1651062730635337
40
0.1651062730635337
40
0.1651062730635337
40
0.27201695990356217
40
0.27201695990356217
40
0.27201695990356217
40
0.38705389762040265
40
0.38705389762040265
40
0.38705389762040265
40
0.64827176828064959
40
0.64827176828064959
40
0.64827176828064959
40
0.65102182461369085
40
0.65102182461369085
40
0.65102182461369085
40
0.65102182461369085
10
700.31353019153698
20
291.59416213728565
30
2.5622665631214226e-16
10
700.3667128964662
20
291.58660999646241
30
2.5866412827080634e-16
10
700.59900005941586
20
291.5471375554373
30
2.7140395534639988e-16
10
700.77342649433933
20
291.50539940657308
30
-2.7023646713298185e-16
10
700.96111103293447
20
291.46048875289364
30
-2.5574144359584014e-16
10
701.16979689131983
20
291.39734697969692
30
-2.3536228155564635e-16
10
701.45574553758865
20
291.29691545390222
30
-2.0294776047882751e-16
10
702.10505781918278
20
291.06886253597918
30
-1.2934312233208482e-16
10
702.82847179790406
20
290.74356039827029
30
-2.4351060171693207e-17
10
703.63729445905165
20
290.27585003059914
30
1.2660360720746293e-16
10
703.64580960342505
20
290.27092605715359
30
1.2819283170416359e-16
10
703.65432751288438
20
290.26598990878711
30
1.2978598568641737e-16
10
703.66284817777557
20
290.26104157181601
30
1.3138307357067783e-16
0
ARC
5
183
100
AcDbEntity
8
0
100
AcDbCircle
10
700.42495549514513
20
294.74219079054086
30
-2.0469579405702409e-16
40
3.1500000000000288
100
AcDbArc
50
92.027152938767131
51
267.97284706124532
0
SPLINE
5
184
100
AcDbEntity
8
0
100
AcDbSpline
70
1064
71
3
72
17
73
13
74
0
42
0.000000001
43
0.0000000001
44
0.0000000001
40
-0.65102182461369074
40
-0.65102182461369074
40
-0.65102182461369074
40
-0.65102182461369074
40
-0.64827176828064959
40
-0.64827176828064959
40
-0.64827176828064959
40
-0.38705389762040265
40
-0.38705389762040265
40
-0.38705389762040265
40
-0.27201695990356217
40
-0.27201695990356217
40
-0.27201695990356217
40
-0.16510627306353459
40
-0.16510627306353459
40
-0.16510627306353459
40
-0.16510627306353459
10
703.66284817777455
20
299.22334000926634
30
1.4336850627631371e-17
10
703.65432751288336
20
299.21839167229524
30
1.5933938511891827e-17
10
703.64580960342414
20
299.21345552392881
30
1.7527092494129831e-17
10
703.63729445905062
20
299.2085315504832
30
1.9116316990830493e-17
10
702.82847179790338
20
298.74082118281189
30
1.7007098437006552e-16
10
702.10505781918198
20
298.41551904510277
30
2.7506304653050446e-16
10
701.45574553758797
20
298.18746612717968
30
-2.0644382763529956e-16
10
701.16979689131904
20
298.08703460138491
30
-1.7402930655844917e-16
10
700.96111103293379
20
298.0238928281882
30
-1.5365014451827116e-16
10
700.77342649433854
20
297.9789821745087
30
-1.3915512098109789e-16
10
700.59900005941518
20
297.93724402564453
30
-1.2568403114790135e-16
10
700.36671289646551
20
297.89777158461925
30
-1.1294420407227625e-16
10
700.3135301915363
20
297.89021944379607
30
-1.1050673211362795e-16
0
SPLINE
5
185
100
AcDbEntity
8
0
100
AcDbSpline
70
1064
71
3
72
10
73
6
74
0
42
0.000000001
43
0.0000000001
44
0.0000000001
40
0
40
0
40
0
40
0
40
0.33333333333333331
40
0.66666666666666663
40
1
40
1
40
1
40
1
10
703.66284817777444
20
300.26104157181601
30
2.3452764054201787e-16
10
703.78329707417106
20
300.19109142886583
30
2.5710422060533134e-16
10
703.97292399652315
20
299.96421238789543
30
-2.2478152522374767e-16
10
703.97292399652326
20
299.52016919318703
30
-8.1465495919212915e-17
10
703.78329707417129
20
299.29329015221651
30
-8.239729435697878e-18
10
703.66284817777455
20
299.22334000926634
30
1.4336850627615594e-17
0
SPLINE
5
186
100
AcDbEntity
8
0
100
AcDbSpline
70
1064
71
3
72
17
73
13
74
0
42
0.000000001
43
0.0000000001
44
0.0000000001
40
0.1651062730635337
40
0.1651062730635337
40
0.1651062730635337
40
0.1651062730635337
40
0.27201695990356217
40
0.27201695990356217
40
0.27201695990356217
40
0.38705389762040265
40
0.38705389762040265
40
0.38705389762040265
40
0.64827176828064959
40
0.64827176828064959
40
0.64827176828064959
40
0.65102182461369085
40
0.65102182461369085
40
0.65102182461369085
40
0.65102182461369085
10
700.31353019153585
20
301.59416213728571
30
-1.9574028902909598e-16
10
700.36671289646517
20
301.58660999646247
30
-1.9330281707044768e-16
10
700.59900005941483
20
301.5471375554373
30
-1.8056298999483836e-16
10
700.77342649433831
20
301.50539940657313
30
-1.6709190016164181e-16
10
700.96111103293333
20
301.46048875289364
30
-1.5259687662448433e-16
10
701.16979689131881
20
301.39734697969692
30
-1.3221771458430632e-16
10
701.45574553758763
20
301.29691545390222
30
-9.9803193507487475e-17
10
702.10505781918175
20
301.06886253597929
30
-2.6198555360760563e-17
10
702.82847179790315
20
300.74356039827035
30
7.879350679963105e-17
10
703.63729445905051
20
300.2758500305992
30
2.2974817417880297e-16
10
703.64580960342391
20
300.27092605715359
30
2.3133739867550363e-16
10
703.65432751288324
20
300.26598990878716
30
2.3293055265775741e-16
10
703.66284817777444
20
300.26104157181607
30
2.3452764054201787e-16
0
ARC
5
187
100
AcDbEntity
8
0
100
AcDbCircle
10
700.4249554951441
20
304.74219079054086
30
-1.0155122708568406e-16
40
3.1499999999999932
100
AcDbArc
50
92.027152938767131
51
267.97284706124321
0
SPLINE
5
188
100
AcDbEntity
8
0
100
AcDbSpline
70
1064
71
3
72
17
73
13
74
0
42
0.000000001
43
0.0000000001
44
0.0000000001
40
-0.65102182461369074
40
-0.65102182461369074
40
-0.65102182461369074
40
-0.65102182461369074
40
-0.64827176828064959
40
-0.64827176828064959
40
-0.64827176828064959
40
-0.38705389762040265
40
-0.38705389762040265
40
-0.38705389762040265
40
-0.27201695990356217
40
-0.27201695990356217
40
-0.27201695990356217
40
-0.16510627306353459
40
-0.16510627306353459
40
-0.16510627306353459
40
-0.16510627306353459
10
703.66284817777353
20
309.22334000926639
30
1.1748141759895563e-16
10
703.65432751288245
20
309.2183916722953
30
1.1907850548323186e-16
10
703.64580960342312
20
309.21345552392881
30
1.2067165946546987e-16
10
703.6372944590496
20
309.20853155048326
30
1.2226088396217053e-16
10
702.82847179790224
20
308.74082118281189
30
2.7321555134140555e-16
10
702.10505781918084
20
308.41551904510283
30
-1.7690389881073377e-16
10
701.45574553758695
20
308.18746612717973
30
-1.0329926066395953e-16
10
701.16979689131813
20
308.08703460138497
30
-7.0884739587109132e-17
10
700.96111103293265
20
308.0238928281882
30
-5.0505577546931124e-17
10
700.77342649433763
20
307.9789821745087
30
-3.6010554009757861e-17
10
700.59900005941415
20
307.93724402564453
30
-2.2539464176561315e-17
10
700.36671289646449
20
307.89777158461931
30
-9.7996371009362199e-18
10
700.31353019153528
20
307.89021944379607
30
-7.3621651422879163e-18
0
SPLINE
5
189
100
AcDbEntity
8
0
100
AcDbSpline
70
1064
71
3
72
10
73
6
74
0
42
0.000000001
43
0.0000000001
44
0.0000000001
40
0
40
0
40
0
40
0
40
0.33333333333333331
40
0.66666666666666663
40
1
40
1
40
1
40
1
10
703.66284817777341
20
310.26104157181612
30
-2.1743930479922037e-16
10
703.78329707416992
20
310.19109142886589
30
-1.948627247359069e-16
10
703.97292399652213
20
309.96421238789543
30
-1.2163695825239186e-16
10
703.97292399652213
20
309.52016919318709
30
2.1679071052127119e-17
10
703.78329707417015
20
309.29329015221657
30
9.4904837535642156e-17
10
703.66284817777353
20
309.22334000926639
30
1.1748141759895563e-16
0
SPLINE
5
190
100
AcDbEntity
8
0
100
AcDbSpline
70
1064
71
3
72
17
73
13
74
0
42
0.000000001
43
0.0000000001
44
0.0000000001
40
0.1651062730635337
40
0.1651062730635337
40
0.1651062730635337
40
0.1651062730635337
40
0.27201695990356217
40
0.27201695990356217
40
0.27201695990356217
40
0.38705389762040265
40
0.38705389762040265
40
0.38705389762040265
40
0.64827176828064959
40
0.64827176828064959
40
0.64827176828064959
40
0.65102182461369085
40
0.65102182461369085
40
0.65102182461369085
40
0.65102182461369085
10
700.31353019153482
20
311.59416213728571
30
-9.2595722057740168e-17
10
700.36671289646404
20
311.58660999646253
30
-9.0158250099107642e-17
10
700.5990000594137
20
311.5471375554373
30
-7.7418423023482547e-17
10
700.77342649433717
20
311.50539940657313
30
-6.3947333190301778e-17
10
700.96111103293242
20
311.4604887528937
30
-4.9452309653144292e-17
10
701.16979689131779
20
311.39734697969698
30
-2.9073147612966284e-17
10
701.45574553758649
20
311.29691545390227
30
3.3413734638525595e-18
10
702.10505781918062
20
311.06886253597929
30
7.6946011610579471e-17
10
702.82847179790213
20
310.74356039827035
30
1.8193807377097108e-16
10
703.63729445904949
20
310.27585003059926
30
-2.2221877116243527e-16
10
703.645809603423
20
310.2709260571537
30
-2.2062954666573461e-16
10
703.65432751288222
20
310.26598990878722
30
-2.190363926834966e-16
10
703.66284817777341
20
310.26104157181612
30
-2.1743930479922037e-16
0
ARC
5
191
100
AcDbEntity
8
0
100
AcDbCircle
10
700.42495549514297
20
314.74219079054092
30
1.5933398856559749e-18
40
3.1499999999999773
100
AcDbArc
50
180
51
267.97284706124532
0
LINE
5
192
100
AcDbEntity
8
0
100
AcDbLine
10
697.27495549514299
20
314.74219079054058
30
1.5933398856559739e-18
11
675.67354866617029
21
314.7421907905383
31
1.5933398857504986e-18
0
ARC
5
193
100
AcDbEntity
8
0
100
AcDbCircle
10
675.67354866617075
20
310.74219079053819
30
1.8238011802299059e-16
40
4.0000000000001279
100
AcDbArc
50
90.000000000006523
51
180
0
LINE
5
194
100
AcDbEntity
8
0
100
AcDbLine
10
671.67354866617075
20
310.74219079053785
30
1.8238011802299064e-16
11
671.67354866618041
21
218.74219079053748
31
-1.0041608333825008e-16
0
CIRCLE
5
195
100
AcDbEntity
8
0
100
AcDbCircle
10
684.47425208065874
20
294.74219079053915
30
-2.0469579405648767e-16
40
3.0000000000000182
0
CIRCLE
5
196
100
AcDbEntity
8
0
100
AcDbCircle
10
684.47425208066193
20
264.74219079053904
30
4.0982017342054722e-17
40
3.0000000000000182
0
CIRCLE
5
197
100
AcDbEntity
8
0
100
AcDbCircle
10
684.47425208066522
20
234.74219079053896
30
-2.6845168357196538e-16
40
3.0000000000000182
0
ENDSEC
0
SECTION
2
OBJECTS
0
DICTIONARY
5
C
100
AcDbDictionary
3
ACAD_GROUP
350
D
3
ACAD_MLINESTYLE
350
17
0
DICTIONARY
5
D
100
AcDbDictionary
0
DICTIONARY
5
1A
330
C
100
AcDbDictionary
0
DICTIONARY
5
17
100
AcDbDictionary
0
ENDSEC
0
EOF
