0
SECTION
2
HEADER
9
$INSUNITS
70
4
9
$ACADVER
1
AC1014
9
$HANDSEED
5
FFFF
0
ENDSEC
0
SECTION
2
TABLES
0
TABLE
2
VPORT
5
8
100
AcDbSymbolTable
0
ENDTAB
0
TABLE
2
LTYPE
5
5
100
AcDbSymbolTable
0
LTYPE
5
14
100
AcDbSymbolTableRecord
100
AcDbLinetypeTableRecord
2
BYBLOCK
70
0
0
LTYPE
5
15
100
AcDbSymbolTableRecord
100
AcDbLinetypeTableRecord
2
BYLAYER
70
0
0
ENDTAB
0
TABLE
2
LAYER
5
2
100
AcDbSymbolTable
70
2
0
LAYER
5
50
100
AcDbSymbolTableRecord
100
AcDbLayerTableRecord
2
0
70
0
6
CONTINUOUS
0
ENDTAB
0
TABLE
2
STYLE
5
3
100
AcDbSymbolTable
70
1
0
STYLE
5
11
100
AcDbSymbolTableRecord
100
AcDbTextStyleTableRecord
2
STANDARD
70
0
0
ENDTAB
0
TABLE
2
VIEW
5
6
100
AcDbSymbolTable
70
0
0
ENDTAB
0
TABLE
2
UCS
5
7
100
AcDbSymbolTable
70
0
0
ENDTAB
0
TABLE
2
APPID
5
9
100
AcDbSymbolTable
70
2
0
APPID
5
12
100
AcDbSymbolTableRecord
100
AcDbRegAppTableRecord
2
ACAD
70
0
0
ENDTAB
0
TABLE
2
DIMSTYLE
5
A
100
AcDbSymbolTable
70
1
0
ENDTAB
0
TABLE
2
BLOCK_RECORD
5
1
100
AcDbSymbolTable
70
1
0
BLOCK_RECORD
5
1F
100
AcDbSymbolTableRecord
100
AcDbBlockTableRecord
2
*MODEL_SPACE
0
BLOCK_RECORD
5
1B
100
AcDbSymbolTableRecord
100
AcDbBlockTableRecord
2
*PAPER_SPACE
0
ENDTAB
0
ENDSEC
0
SECTION
2
BLOCKS
0
BLOCK
5
20
100
AcDbEntity
100
AcDbBlockBegin
2
*MODEL_SPACE
0
ENDBLK
5
21
100
AcDbEntity
100
AcDbBlockEnd
0
BLOCK
5
1C
100
AcDbEntity
100
AcDbBlockBegin
2
*PAPER_SPACE
0
ENDBLK
5
1D
100
AcDbEntity
100
AcDbBlockEnd
0
ENDSEC
0
SECTION
2
ENTITIES
0
LWPOLYLINE
5
100
100
AcDbEntity
8
0
100
AcDbPolyline
90
116
70
1
43
0.0
10
-571.12190502145552
20
135.99109915160616
42
-0.41421356237309503
10
-570.1219050214554
20
136.99109915160622
10
-69.121905021437584
20
136.99109915160588
42
-0.41421356237310542
10
-68.121905021437485
20
135.99109915160579
10
-68.121905021437044
20
95.9910991516048
42
-0.41421356237309892
10
-70.121905021437072
20
93.991099151604729
10
-92.12190502143784
20
93.991099151604658
42
-0.41421356237309243
10
-94.121905021437883
20
95.991099151604686
10
-94.121905021438181
20
120.99109915160537
10
-94.621905021438209
20
120.99109915160534
10
-94.621905021437897
20
95.991099151604772
42
-0.41421356237308982
10
-96.621905021437954
20
93.991099151604715
10
-118.62190502143872
20
93.991099151604573
42
-0.41421356237309764
10
-120.62190502143879
20
95.991099151604601
10
-120.62190502143909
20
120.99109915160527
10
-121.12190502143912
20
120.99109915160525
10
-121.12190502143883
20
95.991099151604672
42
-0.4142135623730846
10
-123.12190502143889
20
93.991099151604629
10
-145.12190502143963
20
93.991099151604487
42
-0.41421356237309243
10
-147.12190502143966
20
95.991099151604516
10
-147.12190502143997
20
120.99109915160517
10
-147.62190502144
20
120.99109915160517
10
-147.62190502143969
20
95.991099151604573
42
-0.41421356237308721
10
-149.62190502143974
20
93.99109915160453
10
-171.62190502144043
20
93.991099151604359
42
-0.41421356237309243
10
-173.62190502144051
20
95.991099151604402
10
-173.6219050214408
20
120.99109915160508
10
-174.12190502144082
20
120.99109915160508
10
-174.12190502144057
20
95.991099151604487
42
-0.4142135623730846
10
-176.1219050214406
20
93.991099151604445
10
-198.12190502144134
20
93.99109915160426
42
-0.41421356237308721
10
-200.12190502144136
20
95.991099151604317
10
-200.12190502144168
20
120.99109915160498
10
-200.62190502144171
20
120.99109915160497
10
-200.62190502144142
20
95.991099151604402
42
-0.41421356237308721
10
-202.62190502144142
20
93.991099151604345
10
-224.62190502144216
20
93.991099151604203
42
-0.41421356237310025
10
-226.62190502144225
20
95.991099151604232
10
-226.62190502144256
20
120.9910991516049
10
-227.12190502144256
20
120.99109915160489
10
-227.12190502144225
20
95.991099151604317
42
-0.41421356237308721
10
-229.1219050214423
20
93.991099151604246
10
-251.12190502144301
20
93.991099151604089
42
-0.41421356237309243
10
-253.12190502144313
20
95.991099151604132
10
-253.12190502144344
20
120.9910991516048
10
-253.62190502144344
20
120.9910991516048
10
-253.62190502144315
20
95.991099151604118
42
-0.41421356237308204
10
-255.62190502144318
20
93.991099151604089
10
-277.62190502144392
20
93.991099151604018
42
-0.41421356237310025
10
-279.62190502144398
20
95.991099151604047
10
-279.62190502144432
20
120.99109915160683
10
-280.12190502144574
20
120.99109915160683
10
-280.12190502144551
20
95.99109915160625
42
-0.4142135623730846
10
-282.12190502144557
20
93.991099151606207
10
-304.12190502144631
20
93.991099151606051
42
-0.41421356237309503
10
-306.12190502144631
20
95.991099151606079
10
-306.12190502144665
20
120.99109915160675
10
-306.62190502144665
20
120.99109915160675
10
-306.62190502144631
20
95.991099151606164
42
-0.4142135623730846
10
-308.62190502144637
20
93.991099151606107
10
-330.62190502144716
20
93.991099151605951
42
-0.41421356237309503
10
-332.62190502144722
20
95.99109915160598
10
-332.62190502144745
20
120.99109915160666
10
-333.1219050214475
20
120.99109915160665
10
-333.12190502144733
20
95.991099151606051
42
-0.41421356237311846
10
-335.12190502144733
20
93.991099151606008
10
-357.12190502144801
20
93.99109915160588
42
-0.41421356237310281
10
-359.12190502144813
20
95.991099151605894
10
-359.12190502144836
20
120.99109915160656
10
-359.62190502144841
20
120.99109915160656
10
-359.62190502144813
20
95.99109915160598
42
-0.41421356237312101
10
-361.62190502144819
20
93.991099151605923
10
-383.62190502144892
20
93.991099151605781
42
-0.41421356237307422
10
-385.62190502144892
20
95.991099151605809
10
-385.62190502144927
20
120.99109915160646
10
-386.12190502144932
20
120.99109915160646
10
-386.12190502144898
20
95.99109915160588
42
-0.41421356237311585
10
-388.12190502144904
20
93.991099151605852
10
-410.12190502144972
20
93.991099151605709
42
-0.41421356237309243
10
-412.12190502144978
20
95.991099151605709
10
-412.12190502145012
20
120.99109915160638
10
-412.62190502145017
20
120.99109915160636
10
-412.62190502144989
20
95.991099151605795
42
-0.41421356237311846
10
-414.62190502144995
20
93.991099151605738
10
-436.62190502145063
20
93.991099151605596
42
-0.41421356237309243
10
-438.62190502145069
20
95.99109915160561
10
-438.62190502145097
20
120.99109915160628
10
-439.12190502145103
20
120.99109915160628
10
-439.1219050214508
20
95.99109915160561
42
-0.41421356237311846
10
-441.12190502145086
20
93.991099151605567
10
-463.12190502145143
20
93.991099151605496
42
-0.41421356237311585
10
-465.1219050214516
20
95.991099151605525
10
-465.12190502145177
20
120.99109915160616
10
-465.62190502145177
20
120.99109915160616
10
-465.62190502145154
20
95.991099151605553
42
-0.41421356237311846
10
-467.6219050214516
20
93.991099151605511
10
-489.62190502145233
20
93.991099151605383
42
-0.41421356237309503
10
-491.62190502145233
20
95.991099151605411
10
-491.62190502145268
20
120.99109915160608
10
-492.12190502145268
20
120.99109915160608
10
-492.12190502145245
20
95.991099151605482
42
-0.41421356237312101
10
-494.12190502145251
20
93.991099151605425
10
-516.12190502145313
20
93.991099151605312
42
-0.41421356237310542
10
-518.12190502145324
20
95.99109915160534
10
-518.12190502145347
20
120.99109915160597
10
-518.62190502145359
20
120.99109915160597
10
-518.62190502145336
20
95.991099151605383
42
-0.41421356237311846
10
-520.62190502145336
20
93.99109915160534
10
-542.62190502145404
20
93.991099151605212
42
-0.4142135623730846
10
-544.62190502145415
20
95.991099151605241
10
-544.62190502145438
20
120.99109915160589
10
-545.12190502145449
20
120.99109915160588
10
-545.12190502145415
20
95.991099151605226
42
-0.41421356237311846
10
-547.12190502145415
20
93.991099151605169
10
-569.12190502145495
20
93.991099151605098
42
-0.41421356237309243
10
-571.12190502145495
20
95.991099151605113
0
CIRCLE
5
101
100
AcDbEntity
8
0
100
AcDbCircle
10
-478.62190502145239
20
132.99109915160648
30
0
40
1.5000000000000346
0
CIRCLE
5
102
100
AcDbEntity
8
0
100
AcDbCircle
10
-505.1219050214533
20
132.99109915160639
30
0
40
1.5000000000000346
0
CIRCLE
5
103
100
AcDbEntity
8
0
100
AcDbCircle
10
-558.12190502145495
20
132.99109915160619
30
0
40
1.5000000000000346
0
CIRCLE
5
104
100
AcDbEntity
8
0
100
AcDbCircle
10
-531.62190502145415
20
132.99109915160628
30
0
40
1.5000000000000346
0
CIRCLE
5
105
100
AcDbEntity
8
0
100
AcDbCircle
10
-372.62190502144898
20
132.99109915160687
30
0
40
1.5000000000000346
0
CIRCLE
5
106
100
AcDbEntity
8
0
100
AcDbCircle
10
-399.12190502144983
20
132.99109915160676
30
0
40
1.5000000000000346
0
CIRCLE
5
107
100
AcDbEntity
8
0
100
AcDbCircle
10
-425.62190502145074
20
132.99109915160668
30
0
40
1.5000000000000346
0
CIRCLE
5
108
100
AcDbEntity
8
0
100
AcDbCircle
10
-452.12190502145165
20
132.99109915160659
30
0
40
1.5000000000000346
0
CIRCLE
5
109
100
AcDbEntity
8
0
100
AcDbCircle
10
-240.12190502144313
20
132.9910991516052
30
0
40
1.5000000000000346
0
CIRCLE
5
110
100
AcDbEntity
8
0
100
AcDbCircle
10
-213.62190502144227
20
132.99109915160528
30
0
40
1.5000000000000346
0
CIRCLE
5
111
100
AcDbEntity
8
0
100
AcDbCircle
10
-187.12190502144139
20
132.9910991516054
30
0
40
1.5000000000000346
0
CIRCLE
5
112
100
AcDbEntity
8
0
100
AcDbCircle
10
-160.62190502144057
20
132.99109915160545
30
0
40
1.5000000000000346
0
CIRCLE
5
113
100
AcDbEntity
8
0
100
AcDbCircle
10
-134.12190502143969
20
132.99109915160557
30
0
40
1.5000000000000346
0
CIRCLE
5
114
100
AcDbEntity
8
0
100
AcDbCircle
10
-107.62190502143881
20
132.99109915160565
30
0
40
1.5000000000000346
0
CIRCLE
5
115
100
AcDbEntity
8
0
100
AcDbCircle
10
-81.121905021437897
20
132.99109915160574
30
0
40
1.5000000000000346
0
CIRCLE
5
116
100
AcDbEntity
8
0
100
AcDbCircle
10
-266.62190502144404
20
132.99109915160511
30
0
40
1.5000000000000346
0
CIRCLE
5
117
100
AcDbEntity
8
0
100
AcDbCircle
10
-293.12190502144637
20
132.99109915160713
30
-8.8817841970012523e-15
40
1.5000000000000346
0
CIRCLE
5
118
100
AcDbEntity
8
0
100
AcDbCircle
10
-319.62190502144722
20
132.99109915160705
30
0
40
1.5000000000000346
0
CIRCLE
5
119
100
AcDbEntity
8
0
100
AcDbCircle
10
-346.12190502144813
20
132.99109915160696
30
0
40
1.5000000000000346
0
ARC
5
120
100
AcDbEntity
8
0
100
AcDbCircle
10
-377.4897616292148
20
84.653306869226697
30
-8.8817841970012523e-15
40
1.4999999999999796
100
AcDbArc
50
-80.405931773040336
51
80.405931773132608
0
ARC
5
121
100
AcDbEntity
8
0
100
AcDbCircle
10
-350.98976162921394
20
84.653306869226782
30
0
40
1.4999999999999973
100
AcDbArc
50
-80.405931773042582
51
80.405931773132778
0
ARC
5
122
100
AcDbEntity
8
0
100
AcDbCircle
10
-324.48976162921321
20
84.65330686922691
30
0
40
1.4999999999999856
100
AcDbArc
50
-80.405931773042582
51
80.405931773128316
0
ARC
5
123
100
AcDbEntity
8
0
100
AcDbCircle
10
-297.98976162921241
20
84.653306869226981
30
0
40
1.4999999999999913
100
AcDbArc
50
-80.405931773040436
51
80.405931773128401
0
ARC
5
124
100
AcDbEntity
8
0
100
AcDbCircle
10
-271.48976162921156
20
84.653306869227094
30
0
40
1.4999999999999856
100
AcDbArc
50
-80.405931773044813
51
80.405931773128316
0
LWPOLYLINE
5
125
100
AcDbEntity
8
0
100
AcDbPolyline
90
116
70
1
43
0.0
10
-568.48976162922077
20
87.653306869225901
42
-0.41421356237309503
10
-567.48976162922065
20
88.653306869225958
10
-80.98976162920323
20
88.653306869228118
42
-0.41421356237310542
10
-79.989761629203144
20
87.653306869228075
10
-79.989761629202818
20
73.653306869228203
42
-0.41421356237308721
10
-80.989761629202803
20
72.653306869228174
10
-85.989761629202945
20
72.65330686922816
10
-85.98976162920232
20
47.653306869228231
42
-0.41421356237310936
10
-87.98976162920232
20
45.653306869228246
10
-109.98976162920299
20
45.653306869228174
42
-0.41421356237307549
10
-111.98976162920306
20
47.653306869228125
10
-111.98976162920376
20
72.653306869228032
10
-112.48976162920377
20
72.653306869228061
10
-112.48976162920313
20
47.653306869228217
42
-0.41421356237310936
10
-114.48976162920312
20
45.653306869228231
10
-136.48976162920377
20
45.653306869228075
42
-0.41421356237307944
10
-138.48976162920385
20
47.653306869228018
10
-138.48976162920454
20
72.653306869227947
10
-138.98976162920457
20
72.653306869227961
10
-138.98976162920391
20
47.653306869228125
42
-0.41421356237311713
10
-140.98976162920391
20
45.653306869228125
10
-162.98976162920457
20
45.653306869227997
42
-0.41421356237307549
10
-164.98976162920462
20
47.653306869227933
10
-164.9897616292053
20
72.653306869227833
10
-165.48976162920536
20
72.653306869227862
10
-165.48976162920468
20
47.653306869228018
42
-0.41421356237311713
10
-167.48976162920471
20
45.653306869228032
10
-189.48976162920536
20
45.653306869227876
42
-0.41421356237306772
10
-191.48976162920545
20
47.653306869227819
10
-191.4897616292061
20
72.653306869227748
10
-191.98976162920613
20
72.653306869227777
10
-191.98976162920545
20
47.653306869227933
42
-0.41421356237311974
10
-193.9897616292055
20
45.653306869227926
10
-215.98976162920616
20
45.653306869227805
42
-0.41421356237308071
10
-217.98976162920624
20
47.653306869227734
10
-217.9897616292069
20
72.653306869227649
10
-218.4897616292069
20
72.653306869227663
10
-218.48976162920621
20
47.653306869227819
42
-0.41421356237311713
10
-220.48976162920627
20
45.653306869227841
10
-242.48976162920695
20
45.653306869227698
42
-0.41421356237307549
10
-244.48976162920701
20
47.653306869227627
10
-244.48976162920769
20
72.653306869227549
10
-244.98976162920772
20
72.653306869227578
10
-244.98976162920715
20
47.653306869227627
42
-0.41421356237308982
10
-246.98976162920707
20
45.653306869227663
10
-268.98976162920769
20
45.653306869227578
42
-0.41421356237310281
10
-270.98976162920786
20
47.653306869227627
10
-270.98976162920849
20
72.653306869227464
10
-271.48976162920849
20
72.653306869227464
10
-271.48976162920798
20
47.653306869227521
42
-0.41421356237308721
10
-273.48976162920786
20
45.653306869227571
10
-295.48976162920849
20
45.653306869227478
42
-0.41421356237310281
10
-297.48976162920866
20
47.653306869227521
10
-297.48976162920928
20
72.653306869227364
10
-297.98976162920928
20
72.653306869227379
10
-297.98976162920872
20
47.653306869227436
42
-0.41421356237308721
10
-299.98976162920866
20
45.653306869227485
10
-321.98976162920928
20
45.653306869227421
42
-0.41421356237310281
10
-323.9897616292094
20
47.653306869227436
10
-323.98976162921008
20
72.653306869227265
10
-324.48976162921008
20
72.653306869227293
10
-324.48976162920951
20
47.653306869227343
42
-0.4142135623730846
10
-326.4897616292094
20
45.653306869227379
10
-348.48976162921014
20
45.653306869227336
42
-0.41421356237310281
10
-350.48976162921019
20
47.653306869227343
10
-350.48976162921088
20
72.653306869227166
10
-350.98976162921088
20
72.65330686922718
10
-350.98976162921031
20
47.653306869227237
42
-0.41421356237308204
10
-352.98976162921019
20
45.653306869227286
10
-374.98976162921088
20
45.653306869227222
42
-0.41421356237310281
10
-376.98976162921099
20
47.653306869227237
10
-376.98976162921167
20
72.65330686922708
10
-377.48976162921167
20
72.653306869227094
10
-377.4897616292111
20
47.653306869227151
42
-0.4142135623730846
10
-379.48976162921099
20
45.65330686922718
10
-401.48976162921173
20
45.653306869227066
42
-0.41421356237309243
10
-403.48976162921178
20
47.65330686922708
10
-403.48976162921247
20
72.653306869226981
10
-403.98976162921531
20
72.65330686922664
10
-403.98976162921457
20
47.653306869226704
42
-0.4142135623730846
10
-405.98976162921468
20
45.653306869226505
10
-427.98976162921525
20
45.653306869226604
42
-0.41421356237310542
10
-429.98976162921542
20
47.653306869226704
10
-429.9897616292161
20
72.653306869226526
10
-430.48976162921605
20
72.653306869226526
10
-430.48976162921531
20
47.653306869226583
42
-0.4142135623730846
10
-432.48976162921542
20
45.653306869226419
10
-454.48976162921605
20
45.653306869226512
42
-0.41421356237310542
10
-456.48976162921622
20
47.653306869226611
10
-456.48976162921684
20
72.653306869226412
10
-456.9897616292169
20
72.653306869226441
10
-456.9897616292161
20
47.653306869226512
42
-0.4142135623730846
10
-458.98976162921622
20
45.653306869226327
10
-480.98976162921696
20
45.653306869226569
42
-0.41421356237310281
10
-482.98976162921696
20
47.653306869226512
10
-482.9897616292177
20
72.653306869226327
10
-483.48976162921764
20
72.653306869226356
10
-483.4897616292169
20
47.653306869226398
42
-0.41421356237309503
10
-485.48976162921701
20
45.65330686922622
10
-507.4897616292177
20
45.65330686922632
42
-0.41421356237310542
10
-509.48976162921787
20
47.653306869226419
10
-509.48976162921844
20
72.653306869226228
10
-509.98976162921849
20
72.653306869226228
10
-509.98976162921781
20
47.653306869226299
42
-0.41421356237307422
10
-511.98976162921781
20
45.653306869226149
10
-533.98976162921849
20
45.653306869226249
42
-0.41421356237310281
10
-535.98976162921861
20
47.653306869226327
10
-535.98976162921917
20
72.653306869226128
10
-536.48976162921929
20
72.653306869226157
10
-536.48976162921872
20
47.653306869226228
42
-0.4142135623730846
10
-538.48976162921861
20
45.65330686922622
10
-560.48976162921929
20
45.653306869226057
42
-0.41421356237310542
10
-562.4897616292194
20
47.653306869226157
10
-562.48976162922008
20
72.653306869226043
10
-567.4897616292202
20
72.653306869225986
42
-0.41421356237299617
10
-568.48976162922031
20
73.653306869226014
0
CIRCLE
5
126
100
AcDbEntity
8
0
100
AcDbCircle
10
-562.48976162922042
20
84.653306869226014
30
0
40
1.5000000000000304
0
CIRCLE
5
127
100
AcDbEntity
8
0
100
AcDbCircle
10
-535.98976162921963
20
84.653306869226128
30
0
40
1.5000000000000304
0
CIRCLE
5
128
100
AcDbEntity
8
0
100
AcDbCircle
10
-509.48976162921883
20
84.653306869226213
30
0
40
1.5000000000000304
0
CIRCLE
5
129
100
AcDbEntity
8
0
100
AcDbCircle
10
-482.98976162921804
20
84.653306869226327
30
0
40
1.5000000000000304
0
CIRCLE
5
130
100
AcDbEntity
8
0
100
AcDbCircle
10
-456.48976162921718
20
84.653306869226412
30
0
40
1.5000000000000304
0
CIRCLE
5
131
100
AcDbEntity
8
0
100
AcDbCircle
10
-429.98976162921633
20
84.653306869226498
30
0
40
1.5000000000000304
0
ARC
5
132
100
AcDbEntity
8
0
100
AcDbCircle
10
-403.98976162921554
20
84.653306869226611
30
0
40
1.4999999999999856
100
AcDbArc
50
-80.405931773139358
51
80.405931773143678
0
ARC
5
133
100
AcDbEntity
8
0
100
AcDbCircle
10
-403.48976162921281
20
84.653306869226967
30
0
40
1.500000000000097
100
AcDbArc
50
99.59406822696991
51
260.4059317730389
0
ARC
5
134
100
AcDbEntity
8
0
100
AcDbCircle
10
-376.98976162921207
20
84.653306869227066
30
-3.4211388289180104e-48
40
1.4999999999999796
100
AcDbArc
50
99.594068226959678
51
260.40593177313258
0
ARC
5
135
100
AcDbEntity
8
0
100
AcDbCircle
10
-323.98976162921059
20
84.653306869227279
30
5.6448790677147172e-46
40
1.499999999999944
100
AcDbArc
50
99.594068226951109
51
260.40593177313485
0
ARC
5
136
100
AcDbEntity
8
0
100
AcDbCircle
10
-270.98976162920894
20
84.653306869227464
30
-3.1132363343153895e-46
40
1.4999999999999503
100
AcDbArc
50
99.594068226951109
51
260.40593177313275
0
ARC
5
137
100
AcDbEntity
8
0
100
AcDbCircle
10
-244.48976162920812
20
84.653306869227549
30
1.1631872018321235e-46
40
1.4999999999999678
100
AcDbArc
50
99.594068226858468
51
260.4059317731448
0
ARC
5
138
100
AcDbEntity
8
0
100
AcDbCircle
10
-244.98976162920798
20
84.653306869227549
30
0
40
1.4999999999999913
100
AcDbArc
50
-80.405931773139471
51
80.405931773142584
0
ARC
5
139
100
AcDbEntity
8
0
100
AcDbCircle
10
-297.48976162920968
20
84.65330686922735
30
-1.3684555315672042e-46
40
1.4999999999999856
100
AcDbArc
50
99.594068226955315
51
260.40593177313269
0
ARC
5
140
100
AcDbEntity
8
0
100
AcDbCircle
10
-350.48976162921133
20
84.653306869227151
30
-2.2237402387967068e-46
40
1.4999999999999736
100
AcDbArc
50
99.594068226955216
51
260.40593177313485
0
CIRCLE
5
141
100
AcDbEntity
8
0
100
AcDbCircle
10
-112.48976162920403
20
84.653306869228032
30
0
40
1.5000000000000304
0
CIRCLE
5
142
100
AcDbEntity
8
0
100
AcDbCircle
10
-138.98976162920482
20
84.653306869227947
30
0
40
1.5000000000000304
0
CIRCLE
5
143
100
AcDbEntity
8
0
100
AcDbCircle
10
-165.48976162920559
20
84.653306869227833
30
0
40
1.5000000000000304
0
CIRCLE
5
144
100
AcDbEntity
8
0
100
AcDbCircle
10
-191.98976162920641
20
84.653306869227748
30
0
40
1.5000000000000304
0
CIRCLE
5
145
100
AcDbEntity
8
0
100
AcDbCircle
10
-218.48976162920721
20
84.653306869227634
30
0
40
1.5000000000000304
0
CIRCLE
5
146
100
AcDbEntity
8
0
100
AcDbCircle
10
-85.98976162920323
20
84.653306869228118
30
0
40
1.5000000000000304
0
LWPOLYLINE
5
147
100
AcDbEntity
8
0
100
AcDbPolyline
90
36
70
1
43
0.0
10
-439.70244488533098
20
-7.3585883546191422
42
-0.41421356237309537
10
-440.70244488533092
20
-6.358588354619199
10
-440.70244488533092
20
35.641411645380785
10
-324.70244488533126
20
35.641411645380771
10
-324.7024448853312
20
-6.3585883546192212
42
-0.41421356237309664
10
-325.7024448853312
20
-7.3585883546192266
10
-343.70244488533115
20
-7.3585883546191644
42
-0.41421356237311618
10
-344.7024448853312
20
-6.3585883546192212
10
-344.70244488533126
20
17.641411645380806
10
-345.20244488533115
20
17.641411645380799
10
-345.20244488533115
20
-6.3585883546192212
42
-0.4142135623730947
10
-346.20244488533115
20
-7.3585883546192203
10
-363.70244488533115
20
-7.358588354619231
42
-0.4142135623730947
10
-364.7024448853312
20
-6.3585883546192168
10
-364.70244488533115
20
17.641411645380806
10
-365.20244488533115
20
17.641411645380803
10
-365.20244488533115
20
-6.3585883546192168
42
-0.41421356237309537
10
-366.20244488533115
20
-7.3585883546192186
10
-383.70244488533109
20
-7.3585883546191564
42
-0.41421356237309537
10
-384.70244488533103
20
-6.3585883546192123
10
-384.70244488533115
20
17.64141164538081
10
-385.20244488533115
20
17.641411645380806
10
-385.20244488533115
20
-6.3585883546192123
42
-0.4142135623730957
10
-386.20244488533115
20
-7.3585883546192141
10
-403.70244488533103
20
-7.3585883546191511
42
-0.41421356237309537
10
-404.70244488533098
20
-6.3585883546192079
10
-404.70244488533115
20
17.641411645380813
10
-405.20244488533115
20
17.641411645380806
10
-405.20244488533115
20
-6.3585883546192079
42
-0.4142135623730947
10
-406.20244488533115
20
-7.3585883546192061
10
-423.70244488533103
20
-7.3585883546191457
42
-0.41421356237309537
10
-424.70244488533098
20
-6.3585883546192008
10
-424.70244488533103
20
17.641411645380817
10
-425.20244488533109
20
17.641411645380817
10
-425.20244488533103
20
-6.3585883546192035
42
-0.41421356237311552
10
-426.20244488533109
20
-7.3585883546192026
0
CIRCLE
5
148
100
AcDbEntity
8
0
100
AcDbCircle
10
-430.70244488533092
20
27.141411645380764
30
-2.5311869554659491e-15
40
2.9999999999999654
0
CIRCLE
5
149
100
AcDbEntity
8
0
100
AcDbCircle
10
-334.70244488533126
20
27.141411645380767
30
5.4624188218350864e-15
40
2.9999999999999654
0
CIRCLE
5
150
100
AcDbEntity
8
0
100
AcDbCircle
10
-349.7024448853312
20
27.141411645380764
30
6.051930891000739e-16
40
2.9999999999999654
0
CIRCLE
5
151
100
AcDbEntity
8
0
100
AcDbCircle
10
-415.70244488533098
20
27.141411645380764
30
2.3260387772691107e-15
40
2.9999999999999654
0
LWPOLYLINE
5
152
100
AcDbEntity
8
0
100
AcDbPolyline
90
42
70
1
43
0.0
10
-551.34530702511711
20
-3.9715368838843417
42
-0.41421356237309492
10
-552.34530702511711
20
-4.9715368838843359
10
-560.84530702511699
20
-4.9715368838842791
42
-0.4142135623730952
10
-561.84530702511688
20
-3.9715368838843368
10
-561.84530702511688
20
38.02846311611539
10
-445.84530702511751
20
38.02846311611534
10
-445.84530702511751
20
-3.9715368838843901
42
-0.41421356237309698
10
-446.84530702511751
20
-4.9715368838843919
10
-454.84530702511745
20
-4.9715368838843323
42
-0.41421356237309553
10
-455.84530702511745
20
-3.9715368838843856
10
-455.84530702511751
20
20.028463116115557
10
-456.34530702511745
20
20.02846311611551
10
-456.34530702511745
20
-3.9715368838843368
42
-0.41421356237310969
10
-457.34530702511745
20
-4.9715368838843821
10
-474.84530702511739
20
-4.9715368838843226
42
-0.41421356237307411
10
-475.84530702511728
20
-3.9715368838843812
10
-475.84530702511745
20
20.02846311611556
10
-476.34530702511745
20
20.028463116115518
10
-476.34530702511745
20
-3.9715368838843323
42
-0.41421356237310902
10
-477.34530702511745
20
-4.971536883884375
10
-494.84530702511734
20
-4.9715368838843137
42
-0.41421356237309553
10
-495.84530702511728
20
-3.9715368838843679
10
-495.84530702511728
20
20.028463116115567
10
-496.34530702511734
20
20.028463116115528
10
-496.34530702511734
20
-3.9715368838843235
42
-0.41421356237310869
10
-497.34530702511734
20
-4.9715368838843652
10
-514.84530702511722
20
-4.9715368838843021
42
-0.4142135623730952
10
-515.84530702511711
20
-3.971536883884359
10
-515.84530702511722
20
20.028463116115581
10
-516.34530702511722
20
20.028463116115532
10
-516.34530702511722
20
-3.9715368838843146
42
-0.41421356237310769
10
-517.34530702511722
20
-4.9715368838843528
10
-534.84530702511711
20
-4.9715368838842924
42
-0.41421356237309553
10
-535.84530702511711
20
-3.9715368838843457
10
-535.84530702511711
20
20.028463116115542
10
-536.34530702511722
20
20.028463116115553
10
-536.34530702511722
20
-3.9715368838843457
42
-0.4142135623730957
10
-537.34530702511722
20
-4.971536883884343
10
-549.84530702511711
20
-4.9715368838842844
42
-0.4142135623730962
10
-550.84530702511699
20
-3.9715368838843368
10
-550.84530702511711
20
20.028463116115553
10
-551.34530702511711
20
20.028463116115546
0
CIRCLE
5
153
100
AcDbEntity
8
0
100
AcDbCircle
10
-551.84530702511699
20
29.528463116115404
30
3.0531133177191805e-15
40
2.9999999999999591
0
CIRCLE
5
154
100
AcDbEntity
8
0
100
AcDbCircle
10
-455.84530702511751
20
29.528463116115375
30
1.9428902930940239e-15
40
2.9999999999999591
0
CIRCLE
5
155
100
AcDbEntity
8
0
100
AcDbCircle
10
-470.84530702511745
20
29.528463116115383
30
2.7755575615628914e-16
40
2.9999999999999591
0
CIRCLE
5
156
100
AcDbEntity
8
0
100
AcDbCircle
10
-536.84530702511711
20
29.528463116115404
30
4.7184478546569153e-15
40
2.9999999999999591
0
ENDSEC
0
SECTION
2
OBJECTS
0
DICTIONARY
5
C
100
AcDbDictionary
3
ACAD_GROUP
350
D
3
ACAD_MLINESTYLE
350
17
0
DICTIONARY
5
D
100
AcDbDictionary
0
DICTIONARY
5
1A
330
C
100
AcDbDictionary
0
DICTIONARY
5
17
100
AcDbDictionary
0
ENDSEC
0
EOF
