0
SECTION
2
HEADER
9
$INSUNITS
70
4
0
ENDSEC
0
SECTION
2
ENTITIES
0
CIRCLE
8
0
10
3.819718634205488
20
3.819718634205488
40
1.5
0
ARC
8
0
10
7.236697206733043
20
3.0893781613413336
40
0.15
50
-1.6962958301138717e-13
51
82.56859202882721
0
ARC
8
0
10
7.344972281168886
20
4.234161082106461
40
1
50
-114.37698324006244
51
-95.09884377611844
0
ARC
8
0
10
7.180437268410976
20
3.819718634205488
40
0.555
50
180
51
-116.56505117707793
0
ARC
8
0
10
7.180437268410976
20
3.819718634205488
40
0.555
50
116.56505117707793
51
180
0
ARC
8
0
10
7.344972281168888
20
3.4052761863045165
40
1
50
95.09884377611858
51
114.37698324006256
0
ARC
8
0
10
7.236697206733043
20
4.550059107069643
40
0.15
50
-82.56859202882754
51
0
0
ARC
8
0
10
3.892548375226674
20
3.839233304497082
40
3.565718634205488
50
11.498947987354647
51
18.501052012645378
0
ARC
8
0
10
7.144079118633517
20
4.895714517556967
40
0.15
50
30.000000000000487
51
112.56859202882752
0
ARC
8
0
10
6.665456623309046
20
5.941263145976038
40
1
50
-84.37698324006261
51
-65.09884377611857
0
ARC
8
0
10
6.730186346399183
20
5.500077951308231
40
0.555
50
-150.00000000000003
51
-86.56505117707802
0
ARC
8
0
10
6.730186346399183
20
5.500077951308232
40
0.555
50
146.56505117707812
51
-149.99999999999991
0
ARC
8
0
10
7.079899071210018
20
5.223427769398339
40
1
50
125.09884377611867
51
144.3769832400627
0
ARC
8
0
10
6.41373864576936
20
6.160701323381563
40
0.15
50
-52.56859202882728
51
30.000000000000025
0
ARC
8
0
10
3.873033704935076
20
3.8730337049350814
40
3.565718634205488
50
41.49894798735458
51
48.50105201264528
0
ARC
8
0
10
6.160701323381564
20
6.41373864576936
40
0.15
50
59.999999999999986
51
142.56859202882728
0
ARC
8
0
10
5.22342776939834
20
7.079899071210018
40
1
50
-54.37698324006269
51
-35.09884377611866
0
ARC
8
0
10
5.500077951308233
20
6.730186346399183
40
0.555
50
-120.00000000000006
51
-56.56505117707812
0
ARC
8
0
10
5.500077951308232
20
6.730186346399183
40
0.555
50
176.56505117707803
51
-120.00000000000001
0
ARC
8
0
10
5.9412631459760386
20
6.665456623309047
40
1
50
155.0988437761187
51
174.37698324006269
0
ARC
8
0
10
4.895714517556968
20
7.144079118633516
40
0.15
50
-22.568592028827652
51
59.999999999999986
0
ARC
8
0
10
3.839233304497078
20
3.892548375226675
40
3.565718634205488
50
71.49894798735455
51
78.50105201264529
0
ARC
8
0
10
4.550059107069643
20
7.2366972067330435
40
0.15
50
90
51
172.56859202882757
0
ARC
8
0
10
3.4052761863045165
20
7.344972281168888
40
1
50
-24.376983240062543
51
-5.0988437761185335
0
ARC
8
0
10
3.819718634205488
20
7.180437268410976
40
0.555
50
-90
51
-26.56505117707795
0
ARC
8
0
10
3.819718634205488
20
7.180437268410976
40
0.555
50
-153.43494882292208
51
-90
0
ARC
8
0
10
4.23416108210646
20
7.344972281168887
40
1
50
-174.90115622388151
51
-155.6230167599375
0
ARC
8
0
10
3.089378161341333
20
7.2366972067330435
40
0.15
50
7.431407971172442
51
90
0
ARC
8
0
10
3.8002039639139014
20
3.892548375226676
40
3.565718634205488
50
101.49894798735478
51
108.5010520126455
0
ARC
8
0
10
2.743722750854009
20
7.144079118633516
40
0.15
50
120.00000000000001
51
-157.43140797117272
0
ARC
8
0
10
1.698174122434939
20
6.665456623309046
40
1
50
5.6230167599373875
51
24.901156223881426
0
ARC
8
0
10
2.1393593171027447
20
6.730186346399183
40
0.555
50
-60.00000000000001
51
3.4349488229219727
0
ARC
8
0
10
2.139359317102744
20
6.730186346399183
40
0.555
50
-123.43494882292191
51
-59.99999999999993
0
ARC
8
0
10
2.4160094990126395
20
7.079899071210016
40
1
50
-144.90115622388146
51
-125.6230167599375
0
ARC
8
0
10
1.4787359450294142
20
6.41373864576936
40
0.15
50
37.431407971172725
51
120.00000000000001
0
ARC
8
0
10
3.766403563475895
20
3.873033704935076
40
3.565718634205488
50
131.49894798735457
51
138.50105201264532
0
ARC
8
0
10
1.225698622641615
20
6.160701323381562
40
0.15
50
149.99999999999991
51
-127.4314079711726
0
ARC
8
0
10
0.559538197200958
20
5.223427769398338
40
1
50
35.62301675993737
51
54.901156223881344
0
ARC
8
0
10
0.9092509220117927
20
5.500077951308231
40
0.555
50
-29.999999999999964
51
33.434948822921974
0
ARC
8
0
10
0.9092509220117928
20
5.500077951308231
40
0.555
50
-93.434948822922
51
-29.99999999999997
0
ARC
8
0
10
0.9739806451019317
20
5.941263145976037
40
1
50
-114.90115622388153
51
-95.62301675993751
0
ARC
8
0
10
0.4953581497774595
20
4.895714517556968
40
0.15
50
67.43140797117235
51
149.9999999999999
0
ARC
8
0
10
3.7468888931843027
20
3.8392333044970837
40
3.565718634205488
50
161.49894798735465
51
168.50105201264535
0
ARC
8
0
10
0.4027400616779333
20
4.550059107069644
40
0.15
50
180
51
-97.43140797117256
0
ARC
8
0
10
0.2944649872420859
20
3.405276186304518
40
1
50
65.62301675993729
51
84.90115622388129
0
ARC
8
0
10
0.4590000000000002
20
3.819718634205488
40
0.555
50
4.5845833246320954e-14
51
63.43494882292201
0
ARC
8
0
10
0.4590000000000002
20
3.819718634205489
40
0.555
50
-63.43494882292203
51
-4.5845833246320954e-14
0
ARC
8
0
10
0.29446498724208875
20
4.234161082106461
40
1
50
-84.90115622388143
51
-65.62301675993747
0
ARC
8
0
10
0.4027400616779335
20
3.0893781613413336
40
0.15
50
97.43140797117255
51
-179.99999999999986
0
ARC
8
0
10
3.746888893184303
20
3.800203963913894
40
3.565718634205488
50
-168.50105201264535
51
-161.49894798735465
0
ARC
8
0
10
0.49535814977746034
20
2.7437227508540083
40
0.15
50
-149.99999999999991
51
-67.43140797117248
0
ARC
8
0
10
0.9739806451019308
20
1.698174122434938
40
1
50
95.62301675993744
51
114.90115622388143
0
ARC
8
0
10
0.9092509220117934
20
2.139359317102744
40
0.555
50
29.99999999999998
51
93.43494882292202
0
ARC
8
0
10
0.9092509220117931
20
2.1393593171027443
40
0.555
50
-33.43494882292204
51
29.99999999999993
0
ARC
8
0
10
0.559538197200959
20
2.4160094990126377
40
1
50
-54.90115622388138
51
-35.62301675993742
0
ARC
8
0
10
1.2256986226416156
20
1.4787359450294129
40
0.15
50
127.43140797117252
51
-150.00000000000003
0
ARC
8
0
10
3.7664035634758983
20
3.7664035634758966
40
3.565718634205488
50
-138.50105201264537
51
-131.49894798735468
0
ARC
8
0
10
1.4787359450294117
20
1.2256986226416162
40
0.15
50
-120.00000000000001
51
-37.43140797117254
0
ARC
8
0
10
2.4160094990126364
20
0.5595381972009591
40
1
50
125.62301675993743
51
144.90115622388134
0
ARC
8
0
10
2.1393593171027425
20
0.9092509220117937
40
0.555
50
59.99999999999997
51
123.43494882292202
0
ARC
8
0
10
2.1393593171027425
20
0.9092509220117935
40
0.555
50
-3.4349488229219727
51
59.999999999999986
0
ARC
8
0
10
1.6981741224349367
20
0.973980645101931
40
1
50
-24.901156223881408
51
-5.623016759937425
0
ARC
8
0
10
2.743722750854007
20
0.4953581497774609
40
0.15
50
157.43140797117252
51
-120.0000000000001
0
ARC
8
0
10
3.800203963913892
20
3.7468888931843036
40
3.565718634205488
50
-108.50105201264537
51
-101.49894798735461
0
ARC
8
0
10
3.0893781613413336
20
0.40274006167793386
40
0.15
50
-90.00000000000018
51
-7.431407971172549
0
ARC
8
0
10
4.23416108210646
20
0.2944649872420904
40
1
50
155.62301675993757
51
174.90115622388151
0
ARC
8
0
10
3.8197186342054876
20
0.45900000000000024
40
0.555
50
90
51
153.43494882292202
0
ARC
8
0
10
3.819718634205487
20
0.4590000000000002
40
0.555
50
26.56505117707799
51
89.99999999999997
0
ARC
8
0
10
3.405276186304517
20
0.294464987242086
40
1
50
5.098843776118716
51
24.37698324006272
0
ARC
8
0
10
4.550059107069643
20
0.40274006167793336
40
0.15
50
-172.56859202882748
51
-90
0
ARC
8
0
10
3.83923330449708
20
3.7468888931843027
40
3.565718634205488
50
-78.50105201264533
51
-71.4989479873546
0
ARC
8
0
10
4.895714517556968
20
0.4953581497774604
40
0.15
50
-59.99999999999989
51
22.568592028827652
0
ARC
8
0
10
5.941263145976038
20
0.97398064510193
40
1
50
-174.3769832400626
51
-155.09884377611866
0
ARC
8
0
10
5.500077951308232
20
0.9092509220117934
40
0.555
50
119.99999999999999
51
-176.56505117707795
0
ARC
8
0
10
5.500077951308231
20
0.9092509220117933
40
0.555
50
56.56505117707794
51
119.99999999999991
0
ARC
8
0
10
5.22342776939834
20
0.5595381972009577
40
1
50
35.098843776118684
51
54.3769832400627
0
ARC
8
0
10
6.160701323381564
20
1.2256986226416153
40
0.15
50
-142.56859202882742
51
-59.99999999999993
0
ARC
8
0
10
3.8730337049350805
20
3.7664035634758983
40
3.565718634205488
50
-48.50105201264538
51
-41.49894798735469
0
ARC
8
0
10
6.41373864576936
20
1.478735945029411
40
0.15
50
-29.999999999999876
51
52.56859202882771
0
ARC
8
0
10
7.079899071210016
20
2.416009499012637
40
1
50
-144.37698324006254
51
-125.09884377611857
0
ARC
8
0
10
6.730186346399182
20
2.139359317102742
40
0.555
50
149.99999999999991
51
-146.56505117707806
0
ARC
8
0
10
6.730186346399182
20
2.1393593171027425
40
0.555
50
86.56505117707793
51
149.99999999999997
0
ARC
8
0
10
6.665456623309044
20
1.6981741224349367
40
1
50
65.09884377611857
51
84.3769832400625
0
ARC
8
0
10
7.144079118633515
20
2.743722750854007
40
0.15
50
-112.5685920288276
51
-30.00000000000034
0
ARC
8
0
10
3.8925483752266756
20
3.800203963913904
40
3.565718634205488
50
-18.50105201264557
51
-11.498947987354821
0
ENDSEC
0
EOF