0
SECTION
2
HEADER
9
$INSUNITS
70
4
0
ENDSEC
0
SECTION
2
ENTITIES
0
CIRCLE
8
0
10
25.464790894703256
20
25.464790894703256
40
1.5
0
ARC
8
0
10
50.52684172772858
20
24.7344504218391
40
0.15
50
1.3570366640911133e-12
51
82.5685920288269
0
ARC
8
0
10
50.635116802164426
20
25.879233342604227
40
1
50
-114.37698324006291
51
-95.0988437761185
0
ARC
8
0
10
50.47058178940651
20
25.46479089470326
40
0.555
50
-179.99999999999963
51
-116.56505117707799
0
ARC
8
0
10
50.47058178940651
20
25.464790894703253
40
0.555
50
116.56505117707799
51
179.99999999999963
0
ARC
8
0
10
50.635116802164426
20
25.050348446802285
40
1
50
95.0988437761185
51
114.37698324006291
0
ARC
8
0
10
50.52684172772858
20
26.195131367567413
40
0.15
50
-82.5685920288269
51
-1.3570366640911133e-12
0
ARC
8
0
10
25.476618337948004
20
25.465255596214032
40
25.210790894703255
50
1.6589977453579186
51
2.8410022546417926
0
ARC
8
0
10
50.50688564212135
20
26.70304766322258
40
0.15
50
4.499999999999724
51
87.06859202882798
0
ARC
8
0
10
50.52500830786977
20
27.852796764725078
40
1
50
-109.87698324006242
51
-90.59884377611844
0
ARC
8
0
10
50.393497281338945
20
27.426722636261253
40
0.555
50
-175.49999999999983
51
-112.06505117707734
0
ARC
8
0
10
50.393497281338945
20
27.426722636261253
40
0.555
50
121.06505117707783
51
-175.49999999999983
0
ARC
8
0
10
50.59004186725685
20
27.02646704443054
40
1
50
99.59884377611816
51
118.8769832400623
0
ARC
8
0
10
50.392281935972605
20
28.15922581707283
40
0.15
50
-78.06859202882676
51
4.499999999999724
0
ARC
8
0
10
25.47654541782741
20
25.466182134195748
40
25.210790894703255
50
6.158997745358761
51
7.34100225464264
0
ARC
8
0
10
50.33253671505475
20
28.66401063986598
40
0.15
50
8.999999999999506
51
91.56859202882549
0
ARC
8
0
10
50.26039523985502
20
29.811637336564708
40
1
50
-105.37698324006253
51
-86.0988437761184
0
ARC
8
0
10
50.16271900876172
20
29.376558416224036
40
0.555
50
-171.00000000000014
51
-107.56505117707867
0
ARC
8
0
10
50.16271900876172
20
29.37655841622404
40
0.555
50
125.56505117707913
51
-170.99999999999977
0
ARC
8
0
10
50.39006140510972
20
28.992957389285706
40
1
50
104.09884377611789
51
123.37698324006229
0
ARC
8
0
10
50.104035872715286
20
30.10670817929131
40
0.15
50
-73.56859202882586
51
8.999999999999506
0
ARC
8
0
10
25.47640002716286
20
25.46710009472428
40
25.210790894703255
50
10.658997745357484
51
11.841002254641356
0
ARC
8
0
10
50.004869865641076
20
30.60524936293193
40
0.15
50
13.50000000000027
51
96.0685920288272
0
ARC
8
0
10
49.84290902567728
20
31.743678154617136
40
1
50
-100.8769832400629
51
-81.59884377611907
0
ARC
8
0
10
49.779669796466806
20
31.302276848621943
40
0.555
50
-166.5000000000001
51
-103.06505117707788
0
ARC
8
0
10
49.779669796466806
20
31.30227684862194
40
0.555
50
130.06505117707772
51
-166.50000000000045
0
ARC
8
0
10
50.03640836177243
20
30.937695414467367
40
1
50
108.59884377611905
51
127.87698324006304
0
ARC
8
0
10
49.663880670788146
20
32.02557157785617
40
0.15
50
-69.06859202882718
51
13.499999999998952
0
ARC
8
0
10
25.47618306233646
20
25.468003818265814
40
25.210790894703255
50
15.158997745358484
51
16.341002254642344
0
ARC
8
0
10
49.52590526896723
20
32.514795450165344
40
0.15
50
17.999999999999154
51
100.56859202882653
0
ARC
8
0
10
49.27512360667519
20
33.637007544770306
40
1
50
-96.3769832400635
51
-77.09884377611947
0
ARC
8
0
10
49.2467112702248
20
33.19200523895288
40
0.555
50
-162.00000000000043
51
-98.56505117707734
0
ARC
8
0
10
49.2467112702248
20
33.19200523895288
40
0.555
50
134.5650511770773
51
-162.00000000000043
0
ARC
8
0
10
49.53126312585867
20
32.848691163359234
40
1
50
113.09884377611786
51
132.37698324006192
0
ARC
8
0
10
49.07453003337751
20
33.90398558182842
40
0.15
50
-64.56859202882593
51
17.999999999999154
0
ARC
8
0
10
25.475895861008123
20
25.468887733065902
40
25.210790894703255
50
19.65899774535777
51
20.841002254641666
0
ARC
8
0
10
48.89859590104359
20
34.38087591494994
40
0.15
50
22.500000000000426
51
105.06859202882745
0
ARC
8
0
10
48.56053956876467
20
35.479952501738026
40
1
50
-91.87698324006246
51
-72.59884377611824
0
ARC
8
0
10
48.56712929657669
20
35.03409278329201
40
0.555
50
-157.49999999999977
51
-94.0650511770783
0
ARC
8
0
10
48.56712929657669
20
35.03409278329201
40
0.555
50
139.06505117707812
51
-157.49999999999977
0
ARC
8
0
10
48.87774008572575
20
34.71416271169886
40
1
50
117.5988437761189
51
136.87698324006308
0
ARC
8
0
10
48.339617503142
20
35.73036914423756
40
0.15
50
-60.068592028828725
51
22.500000000000426
0
ARC
8
0
10
25.475540193870124
20
25.469746389494198
40
25.210790894703255
50
24.15899774535942
51
25.3410022546433
0
ARC
8
0
10
48.126809332724946
20
36.19198575068556
40
0.15
50
27.000000000003695
51
109.56859202882667
0
ARC
8
0
10
47.70356256016282
20
37.26115065701918
40
1
50
-87.3769832400636
51
-68.09884377611948
0
ARC
8
0
10
47.74511372437394
20
36.81718239937219
40
0.555
50
-152.99999999999977
51
-89.56505117707846
0
ARC
8
0
10
47.74511372437394
20
36.81718239937219
40
0.555
50
143.56505117707812
51
-152.99999999999977
0
ARC
8
0
10
48.07986842823449
20
36.52260880705844
40
1
50
122.09884377611824
51
141.37698324006215
0
ARC
8
0
10
47.46367406021372
20
37.493462003087124
40
0.15
50
-55.5685920288285
51
27.00000000000128
0
ARC
8
0
10
25.475118253727565
20
25.4705744936507
40
25.210790894703255
50
28.65899774535736
51
29.84100225464123
0
ARC
8
0
10
47.21530388485007
20
37.9369588629798
40
0.15
50
31.500000000000572
51
114.06859202882866
0
ARC
8
0
10
46.70947612910138
20
38.96962033167797
40
1
50
-82.87698324006213
51
-63.598843776118116
0
ARC
8
0
10
46.785732552967104
20
38.530280746772846
40
0.555
50
-148.50000000000017
51
-85.06505117707808
0
ARC
8
0
10
46.785732552967104
20
38.53028074677285
40
0.555
50
148.06505117707908
51
-148.49999999999957
0
ARC
8
0
10
47.14256729747263
20
38.262879777890774
40
1
50
126.59884377611836
51
145.8769832400625
0
ARC
8
0
10
46.4521001871991
20
39.182394104614474
40
0.15
50
-51.068592028830544
51
31.500000000000572
0
ARC
8
0
10
25.474632641983163
20
25.471366939995093
40
25.210790894703255
50
33.15899774535881
51
34.34100225464268
0
ARC
8
0
10
46.16969929161141
20
39.6050369123329
40
0.15
50
35.999999999998195
51
118.56859202883031
0
ARC
8
0
10
45.58440914899516
20
40.59482824204632
40
1
50
-78.37698324006168
51
-59.09884377611762
0
ARC
8
0
10
45.694900686304514
20
40.16282600451923
40
0.555
50
-144.0000000000008
51
-80.56505117707901
0
ARC
8
0
10
45.69490068630451
20
40.16282600451924
40
0.555
50
152.5650511770788
51
-143.99999999999977
0
ARC
8
0
10
46.07161546659554
20
39.924246274961845
40
1
50
131.09884377611843
51
150.37698324006257
0
ARC
8
0
10
45.31113257340769
20
40.78675262078677
40
0.15
50
-46.5685920288307
51
35.999999999998195
0
ARC
8
0
10
25.474086352593698
20
25.472118842834135
40
25.210790894703255
50
37.658997745358604
51
38.841002254642476
0
ARC
8
0
10
44.996442053025106
20
41.18593564287835
40
0.15
50
40.500000000000874
51
123.06859202882866
0
ARC
8
0
10
44.33529803189928
20
42.126754440920344
40
1
50
-73.87698324006338
51
-54.598843776119075
0
ARC
8
0
10
44.479343465582545
20
41.70475298822096
40
0.555
50
-139.5000000000002
51
-76.06505117707863
0
ARC
8
0
10
44.479343465582545
20
41.70475298822096
40
0.555
50
157.06505117707852
51
-139.5000000000002
0
ARC
8
0
10
44.8736157097682
20
41.496465421356774
40
1
50
135.59884377611758
51
154.87698324006192
0
ARC
8
0
10
44.04780566358877
20
42.29664614784845
40
0.15
50
-42.068592028825655
51
40.500000000000874
0
ARC
8
0
10
25.47348275361524
20
25.472825566436182
40
25.210790894703255
50
42.158997745358306
51
43.34100225464219
0
ARC
8
0
10
43.702765690114646
20
42.66990828824019
40
0.15
50
44.99999999999808
51
127.56859202882369
0
ARC
8
0
10
42.96984396322214
20
43.5559540938668
40
1
50
-69.37698324006188
51
-50.09884377611725
0
ARC
8
0
10
43.146555205280755
20
43.14655520528075
40
0.555
50
-135.0000000000005
51
-71.56505117707916
0
ARC
8
0
10
43.14655520528075
20
43.146555205280755
40
0.555
50
161.56505117707917
51
-134.9999999999995
0
ARC
8
0
10
43.5559540938668
20
42.96984396322214
40
1
50
140.09884377611723
51
159.37698324006186
0
ARC
8
0
10
42.66990828824019
20
43.702765690114646
40
0.15
50
-37.56859202882369
51
45.00000000000192
0
ARC
8
0
10
25.47282556643619
20
25.47348275361523
40
25.210790894703255
50
46.65899774535785
51
47.84100225464173
0
ARC
8
0
10
42.29664614784845
20
44.04780566358877
40
0.15
50
49.499999999999126
51
132.06859202882563
0
ARC
8
0
10
41.496465421356774
20
44.8736157097682
40
1
50
-64.87698324006192
51
-45.598843776117555
0
ARC
8
0
10
41.70475298822096
20
44.479343465582545
40
0.555
50
-130.50000000000085
51
-67.0650511770785
0
ARC
8
0
10
41.70475298822097
20
44.479343465582545
40
0.555
50
166.06505117707863
51
-130.5000000000014
0
ARC
8
0
10
42.12675444092036
20
44.33529803189929
40
1
50
144.59884377612022
51
163.87698324006428
0
ARC
8
0
10
41.18593564287835
20
44.996442053025106
40
0.15
50
-33.06859202882866
51
49.499999999999126
0
ARC
8
0
10
25.47211884283412
20
25.47408635259371
40
25.210790894703255
50
51.15899774535748
51
52.34100225464135
0
ARC
8
0
10
40.78675262078677
20
45.31113257340769
40
0.15
50
54.00000000000182
51
136.56859202883072
0
ARC
8
0
10
39.924246274961845
20
46.07161546659554
40
1
50
-60.37698324006257
51
-41.098843776118436
0
ARC
8
0
10
40.16282600451924
20
45.69490068630451
40
0.555
50
-126.00000000000023
51
-62.56505117707881
0
ARC
8
0
10
40.16282600451923
20
45.694900686304514
40
0.555
50
170.565051177079
51
-125.9999999999992
0
ARC
8
0
10
40.59482824204632
20
45.58440914899516
40
1
50
149.09884377611763
51
168.3769832400617
0
ARC
8
0
10
39.60503691233289
20
46.1696992916114
40
0.15
50
-28.568592028826625
51
53.999999999999616
0
ARC
8
0
10
25.471366939994873
20
25.474632641983312
40
25.210790894703255
50
55.65899774535671
51
56.8410022546406
0
ARC
8
0
10
39.182394104614474
20
46.4521001871991
40
0.15
50
58.49999999999943
51
141.06859202883055
0
ARC
8
0
10
38.262879777890774
20
47.14256729747263
40
1
50
-55.87698324006249
51
-36.59884377611836
0
ARC
8
0
10
38.530280746772846
20
46.785732552967104
40
0.555
50
-121.49999999999945
51
-58.065051177078466
0
ARC
8
0
10
38.530280746772846
20
46.7857325529671
40
0.555
50
175.06505117707735
51
-121.49999999999983
0
ARC
8
0
10
38.96962033167797
20
46.70947612910138
40
1
50
153.59884377611814
51
172.87698324006215
0
ARC
8
0
10
37.9369588629798
20
47.21530388485007
40
0.15
50
-24.068592028828647
51
58.49999999999943
0
ARC
8
0
10
25.470574493650695
20
25.47511825372757
40
25.210790894703255
50
60.158997745358754
51
61.34100225464264
0
ARC
8
0
10
37.493462003087124
20
47.46367406021372
40
0.15
50
62.99999999999873
51
145.5685920288285
0
ARC
8
0
10
36.52260880705844
20
48.07986842823449
40
1
50
-51.37698324006214
51
-32.09884377611823
0
ARC
8
0
10
36.81718239937219
20
47.74511372437394
40
0.555
50
-117.00000000000026
51
-53.56505117707812
0
ARC
8
0
10
36.81718239937219
20
47.74511372437394
40
0.555
50
179.56505117707846
51
-117.00000000000026
0
ARC
8
0
10
37.26115065701918
20
47.70356256016282
40
1
50
158.09884377611948
51
177.3769832400636
0
ARC
8
0
10
36.19198575068556
20
48.126809332724946
40
0.15
50
-19.56859202882665
51
62.99999999999631
0
ARC
8
0
10
25.469746389494198
20
25.475540193870124
40
25.210790894703255
50
64.65899774535671
51
65.84100225464059
0
ARC
8
0
10
35.73036914423756
20
48.339617503142
40
0.15
50
67.49999999999959
51
150.06859202882873
0
ARC
8
0
10
34.71416271169886
20
48.87774008572575
40
1
50
-46.87698324006305
51
-27.59884377611887
0
ARC
8
0
10
35.03409278329201
20
48.56712929657669
40
0.555
50
-112.50000000000023
51
-49.065051177078125
0
ARC
8
0
10
35.03409278329201
20
48.56712929657669
40
0.555
50
-175.9349488229217
51
-112.50000000000023
0
ARC
8
0
10
35.479952501738026
20
48.56053956876467
40
1
50
162.59884377611826
51
-178.12301675993757
0
ARC
8
0
10
34.38087591494994
20
48.89859590104359
40
0.15
50
-15.068592028827442
51
67.49999999999959
0
ARC
8
0
10
25.468887733065927
20
25.475895861008112
40
25.210790894703255
50
69.15899774535839
51
70.3410022546423
0
ARC
8
0
10
33.90398558182842
20
49.07453003337751
40
0.15
50
72.00000000000085
51
154.56859202882595
0
ARC
8
0
10
32.848691163359234
20
49.53126312585867
40
1
50
-42.37698324006192
51
-23.098843776117842
0
ARC
8
0
10
33.19200523895288
20
49.2467112702248
40
0.555
50
-107.99999999999957
51
-44.565051177077315
0
ARC
8
0
10
33.19200523895288
20
49.2467112702248
40
0.555
50
-171.43494882292265
51
-107.99999999999957
0
ARC
8
0
10
33.637007544770306
20
49.27512360667519
40
1
50
167.09884377611945
51
-173.62301675993655
0
ARC
8
0
10
32.514795450165344
20
49.52590526896723
40
0.15
50
-10.568592028826531
51
72.00000000000085
0
ARC
8
0
10
25.468003818265814
20
25.476183062336457
40
25.210790894703255
50
73.65899774535765
51
74.84100225464152
0
ARC
8
0
10
32.02557157785617
20
49.663880670788146
40
0.15
50
76.50000000000105
51
159.0685920288272
0
ARC
8
0
10
30.937695414467367
20
50.03640836177243
40
1
50
-37.87698324006304
51
-18.59884377611904
0
ARC
8
0
10
31.30227684862194
20
49.779669796466806
40
0.555
50
-103.49999999999956
51
-40.06505117707771
0
ARC
8
0
10
31.302276848621943
20
49.779669796466806
40
0.555
50
-166.93494882292214
51
-103.49999999999991
0
ARC
8
0
10
31.743678154617136
20
49.84290902567728
40
1
50
171.59884377611908
51
-169.12301675993712
0
ARC
8
0
10
30.60524936293193
20
50.004869865641076
40
0.15
50
-6.0685920288272
51
76.49999999999973
0
ARC
8
0
10
25.467100094724263
20
25.476400027162864
40
25.210790894703255
50
78.1589977453586
51
79.34100225464248
0
ARC
8
0
10
30.10670817929131
20
50.104035872715286
40
0.15
50
81.0000000000005
51
163.56859202882586
0
ARC
8
0
10
28.992957389285706
20
50.39006140510972
40
1
50
-33.37698324006228
51
-14.098843776117876
0
ARC
8
0
10
29.37655841622404
20
50.16271900876172
40
0.555
50
-99.00000000000023
51
-35.56505117707909
0
ARC
8
0
10
29.376558416224036
20
50.16271900876172
40
0.555
50
-162.43494882292134
51
-98.99999999999989
0
ARC
8
0
10
29.811637336564708
20
50.26039523985502
40
1
50
176.09884377611843
51
-164.62301675993749
0
ARC
8
0
10
28.66401063986598
20
50.33253671505475
40
0.15
50
-1.5685920288254998
51
81.0000000000005
0
ARC
8
0
10
25.46618213419577
20
25.476545417827406
40
25.210790894703255
50
82.65899774535742
51
83.8410022546413
0
ARC
8
0
10
28.15922581707283
20
50.392281935972605
40
0.15
50
85.50000000000027
51
168.06859202882674
0
ARC
8
0
10
27.02646704443054
20
50.59004186725685
40
1
50
-28.876983240062284
51
-9.598843776118144
0
ARC
8
0
10
27.426722636261253
20
50.393497281338945
40
0.555
50
-94.49999999999984
51
-31.065051177077827
0
ARC
8
0
10
27.426722636261253
20
50.393497281338945
40
0.555
50
-157.93494882292268
51
-94.49999999999984
0
ARC
8
0
10
27.852796764725078
20
50.52500830786977
40
1
50
-179.40115622388157
51
-160.1230167599376
0
ARC
8
0
10
26.70304766322258
20
50.50688564212135
40
0.15
50
2.931407971172032
51
85.50000000000027
0
ARC
8
0
10
25.46525559621403
20
25.476618337948008
40
25.210790894703255
50
87.15899774535819
51
88.34100225464208
0
ARC
8
0
10
26.195131367567413
20
50.52684172772858
40
0.15
50
90.00000000000136
51
172.5685920288269
0
ARC
8
0
10
25.050348446802285
20
50.635116802164426
40
1
50
-24.37698324006291
51
-5.098843776118483
0
ARC
8
0
10
25.464790894703253
20
50.47058178940651
40
0.555
50
-89.99999999999962
51
-26.56505117707799
0
ARC
8
0
10
25.46479089470326
20
50.47058178940651
40
0.555
50
-153.43494882292202
51
-90.00000000000038
0
ARC
8
0
10
25.879233342604227
20
50.63511680216443
40
1
50
-174.90115622388115
51
-155.62301675993675
0
ARC
8
0
10
24.7344504218391
20
50.52684172772858
40
0.15
50
7.431407971173092
51
89.99999999999865
0
ARC
8
0
10
25.464326193192488
20
25.476618337948004
40
25.210790894703255
50
91.65899774535795
51
92.84100225464181
0
ARC
8
0
10
24.226534126183935
20
50.50688564212135
40
0.15
50
94.49999999999973
51
177.06859202882796
0
ARC
8
0
10
23.07678502468144
20
50.52500830786977
40
1
50
-19.87698324006241
51
-0.5988437761184247
0
ARC
8
0
10
23.502859153145263
20
50.393497281338945
40
0.555
50
-85.50000000000018
51
-22.06505117707734
0
ARC
8
0
10
23.502859153145263
20
50.393497281338945
40
0.555
50
-148.9349488229222
51
-85.50000000000018
0
ARC
8
0
10
23.903114744975976
20
50.59004186725685
40
1
50
-170.40115622388186
51
-151.1230167599377
0
ARC
8
0
10
22.770355972333686
20
50.392281935972605
40
0.15
50
11.931407971173254
51
94.50000000000107
0
ARC
8
0
10
25.463399655210743
20
25.47654541782741
40
25.210790894703255
50
96.15899774535872
51
97.3410022546426
0
ARC
8
0
10
22.26557114954053
20
50.33253671505475
40
0.15
50
99.00000000000085
51
-178.4314079711745
0
ARC
8
0
10
21.117944452841805
20
50.26039523985503
40
1
50
-15.37698324006296
51
3.9011562238811917
0
ARC
8
0
10
21.553023373182473
20
50.16271900876172
40
0.555
50
-81.00000000000014
51
-17.565051177078672
0
ARC
8
0
10
21.55302337318247
20
50.16271900876172
40
0.555
50
-144.43494882292092
51
-80.99999999999977
0
ARC
8
0
10
21.936624400120802
20
50.39006140510972
40
1
50
-165.9011562238821
51
-146.6230167599377
0
ARC
8
0
10
20.8228736101152
20
50.104035872715286
40
0.15
50
16.43140797117414
51
98.99999999999952
0
ARC
8
0
10
25.462481694682324
20
25.47640002716288
40
25.210790894703255
50
100.65899774535772
51
101.84100225464155
0
ARC
8
0
10
20.32433242647459
20
50.004869865641076
40
0.15
50
103.50000000000028
51
-173.9314079711728
0
ARC
8
0
10
19.185903634789383
20
49.84290902567728
40
1
50
-10.876983240062888
51
8.401156223880939
0
ARC
8
0
10
19.627304940784576
20
49.77966979646681
40
0.555
50
-76.5000000000001
51
-13.065051177078587
0
ARC
8
0
10
19.627304940784573
20
49.77966979646681
40
0.555
50
-139.93494882292126
51
-76.49999999999973
0
ARC
8
0
10
19.991886374939153
20
50.03640836177243
40
1
50
-161.40115622388097
51
-142.12301675993695
0
ARC
8
0
10
18.90401021155035
20
49.663880670788146
40
0.15
50
20.931407971172828
51
103.50000000000028
0
ARC
8
0
10
25.461577971140567
20
25.47618306233642
40
25.210790894703255
50
105.15899774535818
51
106.34100225464206
0
ARC
8
0
10
18.414786339241164
20
49.52590526896723
40
0.15
50
108.00000000000045
51
-169.43140797117348
0
ARC
8
0
10
17.292574244636207
20
49.275123606675166
40
1
50
-6.3769832400622555
51
12.90115622388177
0
ARC
8
0
10
17.737576550453632
20
49.24671127022481
40
0.555
50
-72.00000000000007
51
-8.565051177077994
0
ARC
8
0
10
17.737576550453632
20
49.24671127022481
40
0.555
50
-135.4349488229219
51
-72.00000000000007
0
ARC
8
0
10
18.08089062604727
20
49.53126312585868
40
1
50
-156.90115622388166
51
-137.62301675993737
0
ARC
8
0
10
17.02559620757809
20
49.07453003337751
40
0.15
50
25.43140797117406
51
108.00000000000045
0
ARC
8
0
10
25.460694056340714
20
25.475895861008162
40
25.210790894703255
50
109.65899774535805
51
110.84100225464192
0
ARC
8
0
10
16.548705874456576
20
48.89859590104359
40
0.15
50
112.50000000000043
51
-164.93140797117223
0
ARC
8
0
10
15.449629287668495
20
48.56053956876467
40
1
50
-1.876983240062453
51
17.401156223881785
0
ARC
8
0
10
15.89548900611451
20
48.56712929657669
40
0.555
50
-67.50000000000045
51
-4.065051177078292
0
ARC
8
0
10
15.89548900611451
20
48.56712929657669
40
0.555
50
-130.93494882292202
51
-67.50000000000045
0
ARC
8
0
10
16.215419077707658
20
48.87774008572575
40
1
50
-152.4011562238812
51
-133.12301675993703
0
ARC
8
0
10
15.19921264516896
20
48.339617503142
40
0.15
50
29.931407971170938
51
112.49999999999916
0
ARC
8
0
10
25.45983539991231
20
25.475540193870117
40
25.210790894703255
50
114.15899774535941
51
115.34100225464329
0
ARC
8
0
10
14.737596038720948
20
48.126809332724946
40
0.15
50
117.00000000000007
51
-160.43140797117312
0
ARC
8
0
10
13.668431132387338
20
47.70356256016281
40
1
50
2.623016759937232
51
21.901156223881436
0
ARC
8
0
10
14.11239939003432
20
47.74511372437394
40
0.555
50
-62.99999999999994
51
0.434948822921542
0
ARC
8
0
10
14.112399390034318
20
47.74511372437394
40
0.555
50
-126.4349488229216
51
-62.999999999999766
0
ARC
8
0
10
14.406972982348062
20
48.0798684282345
40
1
50
-147.90115622388123
51
-128.62301675993706
0
ARC
8
0
10
13.436119786319388
20
47.46367406021372
40
0.15
50
34.43140797117228
51
117.00000000000007
0
ARC
8
0
10
25.459007295755782
20
25.475118253727544
40
25.210790894703255
50
118.65899774535725
51
119.84100225464115
0
ARC
8
0
10
12.992622926426714
20
47.21530388485007
40
0.15
50
121.50000000000058
51
-155.93140797117135
0
ARC
8
0
10
11.95996145772854
20
46.70947612910138
40
1
50
7.123016759937854
51
26.401156223881838
0
ARC
8
0
10
12.399301042633665
20
46.785732552967104
40
0.555
50
-58.49999999999987
51
4.934948822921888
0
ARC
8
0
10
12.399301042633661
20
46.785732552967104
40
0.555
50
-121.9349488229214
51
-58.49999999999956
0
ARC
8
0
10
12.666702011515731
20
47.14256729747263
40
1
50
-143.40115622388157
51
-124.12301675993734
0
ARC
8
0
10
11.747187684792035
20
46.45210018719909
40
0.15
50
38.931407971172
51
121.49999999999801
0
ARC
8
0
10
25.45821484941145
20
25.474632641983185
40
25.210790894703255
50
123.15899774535889
51
124.34100225464279
0
ARC
8
0
10
11.324544877073619
20
46.16969929161141
40
0.15
50
125.99999999999929
51
-151.43140797117036
0
ARC
8
0
10
10.334753547360187
20
45.584409148995164
40
1
50
11.623016759937865
51
30.901156223881777
0
ARC
8
0
10
10.76675578488728
20
45.69490068630451
40
0.555
50
-53.999999999999915
51
9.434948822921749
0
ARC
8
0
10
10.766755784887279
20
45.69490068630451
40
0.555
50
-117.4349488229217
51
-53.99999999999977
0
ARC
8
0
10
11.005335514444665
20
46.07161546659554
40
1
50
-138.9011562238815
51
-119.62301675993736
0
ARC
8
0
10
10.142829168619745
20
45.31113257340769
40
0.15
50
43.43140797117024
51
125.99999999999872
0
ARC
8
0
10
25.457462946572292
20
25.47408635259363
40
25.210790894703255
50
127.65899774535836
51
128.84100225464223
0
ARC
8
0
10
9.743646146528162
20
44.996442053025106
40
0.15
50
130.5000000000009
51
-146.93140797117172
0
ARC
8
0
10
8.802827348486169
20
44.33529803189927
40
1
50
16.123016759937013
51
35.40115622388137
0
ARC
8
0
10
9.224828801185556
20
44.479343465582545
40
0.555
50
-49.500000000000206
51
13.934948822921465
0
ARC
8
0
10
9.224828801185556
20
44.479343465582545
40
0.555
50
-112.93494882292187
51
-49.500000000000206
0
ARC
8
0
10
9.433116368049738
20
44.8736157097682
40
1
50
-134.40115622388237
51
-115.1230167599381
0
ARC
8
0
10
8.632935641558065
20
44.04780566358877
40
0.15
50
47.931407971174345
51
130.5000000000019
0
ARC
8
0
10
25.456756222970256
20
25.473482753615176
40
25.210790894703255
50
132.15899774535808
51
133.34100225464198
0
ARC
8
0
10
8.259673501166324
20
43.70276569011465
40
0.15
50
135.00000000000097
51
-142.43140797117334
0
ARC
8
0
10
7.373627695539694
20
42.96984396322216
40
1
50
20.623016759936803
51
39.90115622388116
0
ARC
8
0
10
7.783026584125759
20
43.14655520528075
40
0.555
50
-44.99999999999961
51
18.43494882292161
0
ARC
8
0
10
7.783026584125756
20
43.14655520528075
40
0.555
50
-108.4349488229213
51
-44.999999999999424
0
ARC
8
0
10
7.959737826184376
20
43.5559540938668
40
1
50
-129.90115622388296
51
-110.62301675993857
0
ARC
8
0
10
7.2268160992918595
20
42.66990828824019
40
0.15
50
52.4314079711747
51
135.00000000000145
0
ARC
8
0
10
25.45609903579136
20
25.472825566436278
40
25.210790894703255
50
136.65899774535814
51
137.841002254642
0
ARC
8
0
10
6.881776125817747
20
42.29664614784845
40
0.15
50
139.50000000000023
51
-137.93140797117388
0
ARC
8
0
10
6.055966079638303
20
41.49646542135679
40
1
50
25.12301675993719
51
44.4011562238814
0
ARC
8
0
10
6.4502383238239664
20
41.70475298822096
40
0.555
50
-40.49999999999974
51
22.934948822921505
0
ARC
8
0
10
6.450238323823966
20
41.70475298822096
40
0.555
50
-103.93494882292157
51
-40.49999999999968
0
ARC
8
0
10
6.5942837575072355
20
42.126754440920344
40
1
50
-125.401156223881
51
-106.12301675993686
0
ARC
8
0
10
5.933139736381406
20
41.18593564287835
40
0.15
50
56.93140797117163
51
139.49999999999957
0
ARC
8
0
10
25.455495436812825
20
25.47211884283415
40
25.210790894703255
50
141.15899774535757
51
142.3410022546414
0
ARC
8
0
10
5.618449215998827
20
40.78675262078677
40
0.15
50
143.99999999999963
51
-133.43140797117263
0
ARC
8
0
10
4.857966322810974
20
39.92424627496185
40
1
50
29.623016759937432
51
48.9011562238816
0
ARC
8
0
10
5.234681103102005
20
40.16282600451924
40
0.555
50
-36.000000000000234
51
27.434948822921843
0
ARC
8
0
10
5.234681103102004
20
40.16282600451924
40
0.555
50
-99.43494882292164
51
-36.00000000000018
0
ARC
8
0
10
5.345172640411347
20
40.59482824204633
40
1
50
-120.90115622388205
51
-101.62301675993777
0
ARC
8
0
10
4.759882497795104
20
39.6050369123329
40
0.15
50
61.43140797117308
51
143.99999999999963
0
ARC
8
0
10
25.454949147423587
20
25.471366939995452
40
25.210790894703255
50
145.65899774535828
51
146.84100225464218
0
ARC
8
0
10
4.477481602207418
20
39.182394104614474
40
0.15
50
148.49999999999963
51
-128.93140797117078
0
ARC
8
0
10
3.7870144919338826
20
38.262879777890774
40
1
50
34.1230167599375
51
53.401156223881635
0
ARC
8
0
10
4.143849236439411
20
38.530280746772846
40
0.555
50
-31.499999999999574
51
31.934948822921594
0
ARC
8
0
10
4.143849236439413
20
38.530280746772846
40
0.555
50
-94.93494882292201
51
-31.499999999999723
0
ARC
8
0
10
4.220105660305128
20
38.96962033167797
40
1
50
-116.40115622388171
51
-97.12301675993753
0
ARC
8
0
10
3.7142779045564436
20
37.9369588629798
40
0.15
50
65.93140797117229
51
148.4999999999999
0
ARC
8
0
10
25.45446353567877
20
25.470574493650386
40
25.210790894703255
50
150.15899774535794
51
151.34100225464184
0
ARC
8
0
10
3.4659077291927898
20
37.49346200308713
40
0.15
50
152.99999999999864
51
-124.43140797117124
0
ARC
8
0
10
2.8497133611720242
20
36.52260880705845
40
1
50
38.623016759937954
51
57.901156223882005
0
ARC
8
0
10
3.1844680650325747
20
36.8171823993722
40
0.555
50
-27.00000000000019
51
36.43494882292184
0
ARC
8
0
10
3.1844680650325747
20
36.8171823993722
40
0.555
50
-90.43494882292168
51
-27.00000000000019
0
ARC
8
0
10
3.2260192292436916
20
37.261150657019186
40
1
50
-111.90115622388073
51
-92.62301675993663
0
ARC
8
0
10
2.8027724566815597
20
36.19198575068557
40
0.15
50
70.4314079711716
51
152.99999999999602
0
ARC
8
0
10
25.454041595536633
20
25.46974638949473
40
25.210790894703255
50
154.65899774535802
51
155.84100225464192
0
ARC
8
0
10
2.589964286264515
20
35.73036914423756
40
0.15
50
157.49999999999946
51
-119.9314079711723
0
ARC
8
0
10
2.051841703680771
20
34.71416271169886
40
1
50
43.12301675993713
51
62.401156223881415
0
ARC
8
0
10
2.362452492829825
20
35.03409278329201
40
0.555
50
-22.50000000000026
51
40.93494882292183
0
ARC
8
0
10
2.3624524928298265
20
35.03409278329201
40
0.555
50
-85.93494882292202
51
-22.50000000000031
0
ARC
8
0
10
2.3690422206418438
20
35.479952501738026
40
1
50
-107.40115622388174
51
-88.12301675993756
0
ARC
8
0
10
2.0309858883629204
20
34.38087591494994
40
0.15
50
74.93140797117273
51
157.49999999999955
0
ARC
8
0
10
25.453685928398365
20
25.468887733065834
40
25.210790894703255
50
159.1589977453582
51
160.34100225464206
0
ARC
8
0
10
1.8550517560290023
20
33.90398558182843
40
0.15
50
162.00000000000117
51
-115.4314079711733
0
ARC
8
0
10
1.3983186635478433
20
32.84869116335924
40
1
50
47.62301675993797
51
66.90115622388203
0
ARC
8
0
10
1.682870519181712
20
33.19200523895289
40
0.555
50
-18.000000000000266
51
45.43494882292225
0
ARC
8
0
10
1.6828705191817128
20
33.19200523895289
40
0.555
50
-81.43494882292218
51
-18.00000000000029
0
ARC
8
0
10
1.6544581827313283
20
33.63700754477031
40
1
50
-102.90115622388059
51
-83.62301675993638
0
ARC
8
0
10
1.403676520439284
20
32.51479545016535
40
0.15
50
79.4314079711728
51
162.0000000000011
0
ARC
8
0
10
25.453398727070145
20
25.46800381826614
40
25.210790894703255
50
163.65899774535842
51
164.8410022546423
0
ARC
8
0
10
1.2657011186183706
20
32.02557157785618
40
0.15
50
166.50000000000372
51
-110.93140797117275
0
ARC
8
0
10
0.8931734276340942
20
30.93769541446737
40
1
50
52.12301675993724
51
71.40115622388147
0
ARC
8
0
10
1.149911992939709
20
31.30227684862195
40
0.555
50
-13.500000000000323
51
49.9349488229215
0
ARC
8
0
10
1.1499119929397081
20
31.302276848621947
40
0.555
50
-76.93494882292156
51
-13.499999999999945
0
ARC
8
0
10
1.0866727637292377
20
31.74367815461714
40
1
50
-98.40115622388119
51
-79.12301675993699
0
ARC
8
0
10
0.9247119237654351
20
30.605249362931932
40
0.15
50
83.93140797117229
51
166.49999999999963
0
ARC
8
0
10
25.453181762243585
20
25.46710009472396
40
25.210790894703255
50
168.15899774535788
51
169.34100225464178
0
ARC
8
0
10
0.8255459166912216
20
30.106708179291314
40
0.15
50
171.00000000000063
51
-106.43140797117269
0
ARC
8
0
10
0.5395203842967841
20
28.992957389285714
40
1
50
56.623016759937414
51
75.9011562238816
0
ARC
8
0
10
0.7668627806447981
20
29.37655841622404
40
0.555
50
-9.00000000000025
51
54.43494882292196
0
ARC
8
0
10
0.7668627806447987
20
29.376558416224043
40
0.555
50
-72.43494882292207
51
-9.000000000000624
0
ARC
8
0
10
0.6691865495514819
20
29.811637336564708
40
1
50
-93.90115622388124
51
-74.623016759937
0
ARC
8
0
10
0.5970450743517544
20
28.66401063986598
40
0.15
50
88.43140797117252
51
170.99999999999923
0
ARC
8
0
10
25.45303637157913
20
25.466182134196014
40
25.210790894703255
50
172.65899774535796
51
173.84100225464186
0
ARC
8
0
10
0.5372998534339016
20
28.159225817072834
40
0.15
50
175.49999999999883
51
-101.93140797117248
0
ARC
8
0
10
0.3395399221496569
20
27.026467044430543
40
1
50
61.123016759937606
51
80.4011562238818
0
ARC
8
0
10
0.5360845080675614
20
27.426722636261257
40
0.555
50
-4.500000000000173
51
58.93494882292188
0
ARC
8
0
10
0.5360845080675612
20
27.426722636261257
40
0.555
50
-67.93494882292194
51
-4.500000000000172
0
ARC
8
0
10
0.40457348153674677
20
27.85279676472508
40
1
50
-89.40115622388184
51
-70.12301675993767
0
ARC
8
0
10
0.4226961472851653
20
26.703047663222584
40
0.15
50
92.93140797117258
51
175.50000000000023
0
ARC
8
0
10
25.45296345145851
20
25.465255596214003
40
25.210790894703255
50
177.15899774535814
51
178.341002254642
0
ARC
8
0
10
0.40274006167793497
20
26.195131367567416
40
0.15
50
-179.99999999999866
51
-97.4314079711725
0
ARC
8
0
10
0.29446498724208425
20
25.05034844680229
40
1
50
65.62301675993689
51
84.9011562238811
0
ARC
8
0
10
0.4590000000000027
20
25.46479089470326
40
0.555
50
0
51
63.43494882292167
0
ARC
8
0
10
0.45900000000000285
20
25.46479089470326
40
0.555
50
-63.434948822921676
51
0
0
ARC
8
0
10
0.29446498724208403
20
25.87923334260423
40
1
50
-84.90115622388109
51
-65.62301675993687
0
ARC
8
0
10
0.40274006167793486
20
24.734450421839103
40
0.15
50
97.43140797117249
51
179.99999999999866
0
ARC
8
0
10
25.452963451458505
20
25.464326193192516
40
25.210790894703255
50
-178.341002254642
51
-177.15899774535814
0
ARC
8
0
10
0.42269614728516514
20
24.226534126183935
40
0.15
50
-175.50000000000023
51
-92.93140797117256
0
ARC
8
0
10
0.40457348153674594
20
23.07678502468144
40
1
50
70.12301675993761
51
89.4011562238818
0
ARC
8
0
10
0.5360845080675611
20
23.502859153145263
40
0.555
50
4.500000000000172
51
67.93494882292194
0
ARC
8
0
10
0.5360845080675612
20
23.502859153145263
40
0.555
50
-58.934948822921854
51
4.500000000000172
0
ARC
8
0
10
0.3395399221496578
20
23.90311474497598
40
1
50
-80.40115622388187
51
-61.12301675993775
0
ARC
8
0
10
0.5372998534339017
20
22.770355972333686
40
0.15
50
101.93140797117248
51
-175.49999999999883
0
ARC
8
0
10
25.453036371579127
20
25.46339965521049
40
25.210790894703255
50
-173.84100225464186
51
-172.658997745358
0
ARC
8
0
10
0.5970450743517544
20
22.265571149540538
40
0.15
50
-170.99999999999923
51
-88.43140797117248
0
ARC
8
0
10
0.6691865495514818
20
21.11794445284181
40
1
50
74.623016759937
51
93.90115622388123
0
ARC
8
0
10
0.7668627806447942
20
21.55302337318248
40
0.555
50
8.999999999999881
51
72.43494882292153
0
ARC
8
0
10
0.7668627806447945
20
21.553023373182477
40
0.555
50
-54.434948822921434
51
9.00000000000025
0
ARC
8
0
10
0.5395203842967848
20
21.936624400120806
40
1
50
-75.90115622388167
51
-56.62301675993744
0
ARC
8
0
10
0.8255459166912213
20
20.822873610115206
40
0.15
50
106.43140797117269
51
-171.00000000000063
0
ARC
8
0
10
25.453181762243595
20
25.462481694682495
40
25.210790894703255
50
-169.34100225464192
51
-168.15899774535802
0
ARC
8
0
10
0.9247119237654355
20
20.324332426474577
40
0.15
50
-166.49999999999963
51
-83.93140797117229
0
ARC
8
0
10
1.0866727637292377
20
19.18590363478937
40
1
50
79.123016759937
51
98.40115622388117
0
ARC
8
0
10
1.1499119929397081
20
19.627304940784562
40
0.555
50
13.499999999999945
51
76.93494882292157
0
ARC
8
0
10
1.1499119929397088
20
19.62730494078456
40
0.555
50
-49.934948822921484
51
13.500000000000318
0
ARC
8
0
10
0.8931734276340941
20
19.99188637493914
40
1
50
-71.40115622388146
51
-52.12301675993724
0
ARC
8
0
10
1.2657011186183695
20
18.904010211550336
40
0.15
50
110.93140797117275
51
-166.49999999999966
0
ARC
8
0
10
25.453398727070148
20
25.461577971140354
40
25.210790894703255
50
-164.8410022546423
51
-163.65899774535842
0
ARC
8
0
10
1.403676520439283
20
18.414786339241154
40
0.15
50
-161.99999999999972
51
-79.43140797117239
0
ARC
8
0
10
1.6544581827313494
20
17.292574244636196
40
1
50
83.62301675993761
51
102.90115622388181
0
ARC
8
0
10
1.6828705191817102
20
17.73757655045362
40
0.555
50
17.99999999999986
51
81.43494882292198
0
ARC
8
0
10
1.6828705191817102
20
17.737576550453625
40
0.555
50
-45.434948822922124
51
17.99999999999951
0
ARC
8
0
10
1.3983186635478357
20
18.08089062604726
40
1
50
-66.90115622388146
51
-47.62301675993724
0
ARC
8
0
10
1.8550517560290016
20
17.025596207578076
40
0.15
50
115.43140797117245
51
-162.00000000000105
0
ARC
8
0
10
25.453685928398336
20
25.460694056340742
40
25.210790894703255
50
-160.3410022546419
51
-159.15899774535805
0
ARC
8
0
10
2.0309858883629133
20
16.548705874456587
40
0.15
50
-157.5000000000008
51
-74.93140797117238
0
ARC
8
0
10
2.369042220641837
20
15.449629287668506
40
1
50
88.12301675993757
51
107.4011562238818
0
ARC
8
0
10
2.362452492829818
20
15.89548900611452
40
0.555
50
22.49999999999992
51
85.9349488229219
0
ARC
8
0
10
2.362452492829817
20
15.89548900611452
40
0.555
50
-40.93494882292176
51
22.499999999999883
0
ARC
8
0
10
2.0518417036807666
20
16.215419077707672
40
1
50
-62.401156223881586
51
-43.12301675993738
0
ARC
8
0
10
2.589964286264508
20
15.199212645168975
40
0.15
50
119.9314079711723
51
-157.50000000000014
0
ARC
8
0
10
25.45404159553657
20
25.45983539991192
40
25.210790894703255
50
-155.8410022546416
51
-154.65899774535777
0
ARC
8
0
10
2.8027724566815566
20
14.73759603872096
40
0.15
50
-153.0000000000003
51
-70.4314079711728
0
ARC
8
0
10
3.226019229243694
20
13.66843113238735
40
1
50
92.62301675993722
51
111.9011562238814
0
ARC
8
0
10
3.184468065032566
20
14.112399390034332
40
0.555
50
26.999999999999943
51
90.4349488229215
0
ARC
8
0
10
3.1844680650325667
20
14.11239939003433
40
0.555
50
-36.434948822921484
51
27.00000000000015
0
ARC
8
0
10
2.849713361172011
20
14.40697298234808
40
1
50
-57.90115622388159
51
-38.62301675993742
0
ARC
8
0
10
3.465907729192785
20
13.4361197863194
40
0.15
50
124.43140797117218
51
-153.00000000000026
0
ARC
8
0
10
25.454463535678837
20
25.459007295756017
40
25.210790894703255
50
-151.34100225464218
51
-150.15899774535825
0
ARC
8
0
10
3.7142779045564427
20
12.992622926426717
40
0.15
50
-148.4999999999999
51
-65.93140797117229
0
ARC
8
0
10
4.220105660305127
20
11.959961457728543
40
1
50
97.12301675993746
51
116.40115622388169
0
ARC
8
0
10
4.143849236439409
20
12.399301042633669
40
0.555
50
31.49999999999999
51
94.93494882292154
0
ARC
8
0
10
4.143849236439411
20
12.399301042633667
40
0.555
50
-31.934948822921594
51
31.500000000000238
0
ARC
8
0
10
3.7870144919338804
20
12.666702011515735
40
1
50
-53.40115622388147
51
-34.12301675993726
0
ARC
8
0
10
4.47748160220742
20
11.74718768479204
40
0.15
50
128.93140797117218
51
-148.50000000000054
0
ARC
8
0
10
25.454949147423577
20
25.45821484941108
40
25.210790894703255
50
-146.84100225464212
51
-145.65899774535825
0
ARC
8
0
10
4.7598824977951
20
11.32454487707362
40
0.15
50
-144.00000000000017
51
-61.43140797117275
0
ARC
8
0
10
5.345172640411335
20
10.334753547360185
40
1
50
101.62301675993734
51
120.90115622388157
0
ARC
8
0
10
5.234681103102001
20
10.76675578488728
40
0.555
50
36.00000000000003
51
99.43494882292174
0
ARC
8
0
10
5.234681103102002
20
10.766755784887279
40
0.555
50
-27.434948822921687
51
36.000000000000234
0
ARC
8
0
10
4.85796632281097
20
11.005335514444667
40
1
50
-48.9011562238816
51
-29.623016759937432
0
ARC
8
0
10
5.618449215998823
20
10.142829168619748
40
0.15
50
133.43140797117263
51
-144.00000000000017
0
ARC
8
0
10
25.455495436813035
20
25.4574629465721
40
25.210790894703255
50
-142.3410022546422
51
-141.15899774535833
0
ARC
8
0
10
5.933139736381404
20
9.743646146528162
40
0.15
50
-139.4999999999998
51
-56.93140797117229
0
ARC
8
0
10
6.594283757507241
20
8.802827348486169
40
1
50
106.12301675993737
51
125.40115622388153
0
ARC
8
0
10
6.450238323823965
20
9.224828801185556
40
0.555
50
40.49999999999986
51
103.93494882292191
0
ARC
8
0
10
6.450238323823964
20
9.224828801185556
40
0.555
50
-22.934948822921882
51
40.4999999999998
0
ARC
8
0
10
6.055966079638301
20
9.433116368049728
40
1
50
-44.40115622388154
51
-25.123016759937418
0
ARC
8
0
10
6.881776125817742
20
8.632935641558062
40
0.15
50
137.93140797117266
51
-139.50000000000003
0
ARC
8
0
10
25.45609903579139
20
25.4567562229702
40
25.210790894703255
50
-137.84100225464212
51
-136.65899774535822
0
ARC
8
0
10
7.226816099291853
20
8.259673501166324
40
0.15
50
-135.00000000000026
51
-52.43140797117307
0
ARC
8
0
10
7.9597378261843525
20
7.373627695539696
40
1
50
110.62301675993737
51
129.90115622388151
0
ARC
8
0
10
7.783026584125758
20
7.783026584125761
40
0.555
50
45.000000000000064
51
108.43494882292192
0
ARC
8
0
10
7.783026584125757
20
7.7830265841257615
40
0.555
50
-18.434948822921925
51
44.999999999999936
0
ARC
8
0
10
7.373627695539692
20
7.959737826184356
40
1
50
-39.9011562238815
51
-20.62301675993736
0
ARC
8
0
10
8.259673501166318
20
7.226816099291856
40
0.15
50
142.43140797117238
51
-135
0
ARC
8
0
10
25.456756222970228
20
25.456099035791354
40
25.210790894703255
50
-133.3410022546419
51
-132.15899774535805
0
ARC
8
0
10
8.632935641558047
20
6.881776125817753
40
0.15
50
-130.5
51
-47.93140797117265
0
ARC
8
0
10
9.433116368049713
20
6.055966079638312
40
1
50
115.12301675993744
51
134.40115622388154
0
ARC
8
0
10
9.224828801185541
20
6.450238323823974
40
0.555
50
49.500000000000206
51
112.9349488229219
0
ARC
8
0
10
9.224828801185541
20
6.450238323823975
40
0.555
50
-13.93494882292191
51
49.50000000000015
0
ARC
8
0
10
8.802827348486156
20
6.594283757507253
40
1
50
-35.40115622388164
51
-16.12301675993748
0
ARC
8
0
10
9.743646146528148
20
5.933139736381414
40
0.15
50
146.931407971172
51
-130.50000000000023
0
ARC
8
0
10
25.457462946572086
20
25.455495436813045
40
25.210790894703255
50
-128.84100225464167
51
-127.65899774535777
0
ARC
8
0
10
10.142829168619743
20
5.618449215998827
40
0.15
50
-125.99999999999984
51
-43.431407971172646
0
ARC
8
0
10
11.005335514444662
20
4.857966322810974
40
1
50
119.62301675993746
51
138.9011562238816
0
ARC
8
0
10
10.766755784887273
20
5.234681103102004
40
0.555
50
53.99999999999997
51
117.43494882292164
0
ARC
8
0
10
10.766755784887273
20
5.2346811031020035
40
0.555
50
-9.434948822921628
51
54.00000000000003
0
ARC
8
0
10
10.33475354736018
20
5.34517264041134
40
1
50
-30.90115622388155
51
-11.623016759937395
0
ARC
8
0
10
11.324544877073615
20
4.759882497795105
40
0.15
50
151.43140797117277
51
-125.99999999999984
0
ARC
8
0
10
25.458214849411178
20
25.45494914742351
40
25.210790894703255
50
-124.34100225464205
51
-123.15899774535815
0
ARC
8
0
10
11.747187684792042
20
4.477481602207416
40
0.15
50
-121.49999999999946
51
-38.931407971172156
0
ARC
8
0
10
12.666702011515737
20
3.7870144919338764
40
1
50
124.12301675993724
51
143.40115622388146
0
ARC
8
0
10
12.399301042633669
20
4.143849236439407
40
0.555
50
58.49999999999977
51
121.9349488229216
0
ARC
8
0
10
12.39930104263367
20
4.143849236439405
40
0.555
50
-4.934948822921522
51
58.50000000000003
0
ARC
8
0
10
11.959961457728545
20
4.220105660305124
40
1
50
-26.401156223881678
51
-7.123016759937449
0
ARC
8
0
10
12.99262292642672
20
3.714277904556439
40
0.15
50
155.9314079711723
51
-121.50000000000013
0
ARC
8
0
10
25.45900729575601
20
25.454463535678833
40
25.210790894703255
50
-119.84100225464175
51
-118.65899774535788
0
ARC
8
0
10
13.436119786319383
20
3.465907729192792
40
0.15
50
-116.99999999999977
51
-34.43140797117217
0
ARC
8
0
10
14.406972982348062
20
2.8497133611720185
40
1
50
128.62301675993743
51
147.90115622388163
0
ARC
8
0
10
14.112399390034312
20
3.184468065032574
40
0.555
50
62.99999999999986
51
126.43494882292151
0
ARC
8
0
10
14.112399390034314
20
3.184468065032573
40
0.555
50
-0.434948822921542
51
63.000000000000064
0
ARC
8
0
10
13.668431132387333
20
3.226019229243701
40
1
50
-21.90115622388139
51
-2.6230167599372067
0
ARC
8
0
10
14.737596038720943
20
2.802772456681563
40
0.15
50
160.43140797117263
51
-116.99999999999969
0
ARC
8
0
10
25.459835399911796
20
25.45404159553663
40
25.210790894703255
50
-115.341002254642
51
-114.1589977453581
0
ARC
8
0
10
15.199212645168968
20
2.589964286264512
40
0.15
50
-112.49999999999987
51
-29.93140797117231
0
ARC
8
0
10
16.215419077707665
20
2.05184170368077
40
1
50
133.1230167599374
51
152.40115622388157
0
ARC
8
0
10
15.895489006114513
20
2.362452492829821
40
0.555
50
67.5000000000001
51
130.9349488229218
0
ARC
8
0
10
15.895489006114513
20
2.362452492829821
40
0.555
50
4.065051177078155
51
67.5000000000001
0
ARC
8
0
10
15.449629287668499
20
2.3690422206418407
40
1
50
-17.401156223881785
51
1.8769832400624276
0
ARC
8
0
10
16.54870587445658
20
2.030985888362917
40
0.15
50
164.93140797117238
51
-112.4999999999992
0
ARC
8
0
10
25.460694056340778
20
25.45368592839833
40
25.210790894703255
50
-110.84100225464205
51
-109.6589977453582
0
ARC
8
0
10
17.02559620757808
20
1.8550517560290014
40
0.15
50
-107.99999999999896
51
-25.431407971172412
0
ARC
8
0
10
18.080890626047264
20
1.3983186635478362
40
1
50
137.62301675993726
51
156.9011562238815
0
ARC
8
0
10
17.73757655045363
20
1.682870519181711
40
0.555
50
72.00000000000011
51
135.4349488229222
0
ARC
8
0
10
17.737576550453625
20
1.6828705191817117
40
0.555
50
8.565051177077857
51
71.99999999999974
0
ARC
8
0
10
17.2925742446362
20
1.6544581827313494
40
1
50
-12.90115622388182
51
6.376983240062393
0
ARC
8
0
10
18.414786339241157
20
1.4036765204392827
40
0.15
50
169.43140797117238
51
-108.00000000000033
0
ARC
8
0
10
25.461577971140347
20
25.453398727070148
40
25.210790894703255
50
-106.34100225464154
51
-105.15899774535767
0
ARC
8
0
10
18.90401021155035
20
1.2657011186183662
40
0.15
50
-103.50000000000036
51
-20.93140797117267
0
ARC
8
0
10
19.991886374939153
20
0.8931734276340902
40
1
50
142.1230167599372
51
161.4011562238814
0
ARC
8
0
10
19.627304940784573
20
1.1499119929397053
40
0.555
50
76.49999999999969
51
139.93494882292148
0
ARC
8
0
10
19.627304940784576
20
1.1499119929397046
40
0.555
50
13.065051177078429
51
76.50000000000007
0
ARC
8
0
10
19.185903634789383
20
1.0866727637292342
40
1
50
-8.401156223881172
51
10.876983240063002
0
ARC
8
0
10
20.32433242647459
20
0.9247119237654318
40
0.15
50
173.93140797117226
51
-103.50000000000038
0
ARC
8
0
10
25.46248169468251
20
25.45318176224359
40
25.210790894703255
50
-101.84100225464199
51
-100.65899774535815
0
ARC
8
0
10
20.8228736101152
20
0.8255459166912216
40
0.15
50
-98.99999999999942
51
-16.431407971172675
0
ARC
8
0
10
21.9366244001208
20
0.5395203842967842
40
1
50
146.62301675993743
51
165.9011562238816
0
ARC
8
0
10
21.553023373182473
20
0.7668627806447978
40
0.555
50
81.00000000000013
51
144.43494882292194
0
ARC
8
0
10
21.55302337318247
20
0.7668627806447981
40
0.555
50
17.565051177077994
51
80.99999999999976
0
ARC
8
0
10
21.117944452841805
20
0.6691865495514822
40
1
50
-3.90115622388123
51
15.376983240062984
0
ARC
8
0
10
22.26557114954053
20
0.5970450743517546
40
0.15
50
178.43140797117246
51
-99.00000000000077
0
ARC
8
0
10
25.463399655210566
20
25.45303637157912
40
25.210790894703255
50
-97.3410022546422
51
-96.15899774535835
0
ARC
8
0
10
22.770355972333668
20
0.5372998534339017
40
0.15
50
-94.4999999999998
51
-11.93140797117259
0
ARC
8
0
10
23.90311474497596
20
0.3395399221496573
40
1
50
151.12301675993766
51
170.40115622388183
0
ARC
8
0
10
23.502859153145245
20
0.5360845080675614
40
0.555
50
85.49999999999984
51
148.93494882292188
0
ARC
8
0
10
23.502859153145245
20
0.5360845080675612
40
0.555
50
22.06505117707805
51
85.49999999999984
0
ARC
8
0
10
23.07678502468142
20
0.40457348153674616
40
1
50
0.5988437761182178
51
19.87698324006236
0
ARC
8
0
10
24.226534126183918
20
0.4226961472851656
40
0.15
50
-177.06859202882745
51
-94.4999999999998
0
ARC
8
0
10
25.464326193192502
20
25.45296345145851
40
25.210790894703255
50
-92.84100225464188
51
-91.65899774535798
0
ARC
8
0
10
24.734450421839096
20
0.40274006167793475
40
0.15
50
-89.99999999999865
51
-7.431407971172503
0
ARC
8
0
10
25.879233342604223
20
0.29446498724208414
40
1
50
155.6230167599369
51
174.90115622388112
0
ARC
8
0
10
25.464790894703253
20
0.45900000000000263
40
0.555
50
90
51
153.43494882292168
0
ARC
8
0
10
25.464790894703253
20
0.45900000000000285
40
0.555
50
26.565051177078306
51
90
0
ARC
8
0
10
25.050348446802282
20
0.2944649872420843
40
1
50
5.098843776118894
51
24.376983240063108
0
ARC
8
0
10
26.19513136756741
20
0.4027400616779348
40
0.15
50
-172.56859202882757
51
-90.00000000000136
0
ARC
8
0
10
25.465255596214142
20
25.45296345145851
40
25.210790894703255
50
-88.34100225464235
51
-87.1589977453585
0
ARC
8
0
10
26.703047663222563
20
0.4226961472851616
40
0.15
50
-85.5000000000002
51
-2.931407971172519
0
ARC
8
0
10
27.85279676472506
20
0.4045734815367428
40
1
50
160.12301675993763
51
179.4011562238818
0
ARC
8
0
10
27.426722636261236
20
0.5360845080675576
40
0.555
50
94.4999999999998
51
157.93494882292194
0
ARC
8
0
10
27.426722636261236
20
0.5360845080675575
40
0.555
50
31.065051177078143
51
94.4999999999998
0
ARC
8
0
10
27.026467044430518
20
0.339539922149654
40
1
50
9.598843776118144
51
28.876983240062255
0
ARC
8
0
10
28.159225817072812
20
0.5372998534338982
40
0.15
50
-168.06859202882757
51
-85.49999999999883
0
ARC
8
0
10
25.466182134195883
20
25.45303637157911
40
25.210790894703255
50
-83.84100225464158
51
-82.6589977453577
0
ARC
8
0
10
28.664010639865975
20
0.597045074351755
40
0.15
50
-81.00000000000061
51
1.5685920288273225
0
ARC
8
0
10
29.8116373365647
20
0.6691865495514923
40
1
50
164.62301675993763
51
-176.09884377611817
0
ARC
8
0
10
29.37655841622403
20
0.7668627806447943
40
0.555
50
98.99999999999989
51
162.43494882292154
0
ARC
8
0
10
29.376558416224032
20
0.7668627806447945
40
0.555
50
35.56505117707855
51
99.00000000000026
0
ARC
8
0
10
28.992957389285703
20
0.5395203842967835
40
1
50
14.09884377611844
51
33.37698324006262
0
ARC
8
0
10
30.106708179291303
20
0.8255459166912216
40
0.15
50
-163.56859202882737
51
-81.00000000000061
0
ARC
8
0
10
25.46710009472422
20
25.453181762243634
40
25.210790894703255
50
-79.3410022546424
51
-78.15899774535853
0
ARC
8
0
10
30.605249362931914
20
0.924711923765428
40
0.15
50
-76.49999999999962
51
6.068592028827748
0
ARC
8
0
10
31.743678154617122
20
1.0866727637292302
40
1
50
169.12301675993697
51
-171.59884377611885
0
ARC
8
0
10
31.30227684862193
20
1.149911992939701
40
0.555
50
103.49999999999996
51
166.93494882292154
0
ARC
8
0
10
31.302276848621933
20
1.1499119929397017
40
0.555
50
40.0650511770785
51
103.50000000000034
0
ARC
8
0
10
30.937695414467353
20
0.8931734276340866
40
1
50
18.598843776118557
51
37.87698324006278
0
ARC
8
0
10
32.025571577856155
20
1.2657011186183629
40
0.15
50
-159.06859202882703
51
-76.50000000000105
0
ARC
8
0
10
25.468003818265963
20
25.453398727070095
40
25.210790894703255
50
-74.84100225464191
51
-73.658997745358
0
ARC
8
0
10
32.51479545016535
20
1.4036765204392843
40
0.15
50
-72.00000000000112
51
10.568592028827197
0
ARC
8
0
10
33.63700754477031
20
1.6544581827313496
40
1
50
173.62301675993763
51
-167.09884377611823
0
ARC
8
0
10
33.19200523895288
20
1.682870519181709
40
0.555
50
108.00000000000028
51
171.4349488229218
0
ARC
8
0
10
33.19200523895288
20
1.6828705191817093
40
0.555
50
44.56505117707795
51
108.0000000000003
0
ARC
8
0
10
32.848691163359234
20
1.3983186635478435
40
1
50
23.098843776117974
51
42.376983240062025
0
ARC
8
0
10
33.90398558182842
20
1.8550517560290023
40
0.15
50
-154.56859202882669
51
-72.00000000000117
0
ARC
8
0
10
25.468887733065795
20
25.45368592839835
40
25.210790894703255
50
-70.34100225464198
51
-69.15899774535808
0
ARC
8
0
10
34.38087591494994
20
2.0309858883629235
40
0.15
50
-67.49999999999955
51
15.068592028827277
0
ARC
8
0
10
35.479952501738026
20
2.369042220641847
40
1
50
178.1230167599375
51
-162.5988437761183
0
ARC
8
0
10
35.03409278329201
20
2.3624524928298234
40
0.555
50
112.49999999999952
51
175.93494882292137
0
ARC
8
0
10
35.03409278329201
20
2.3624524928298247
40
0.555
50
49.06505117707845
51
112.49999999999956
0
ARC
8
0
10
34.71416271169886
20
2.051841703680774
40
1
50
27.59884377611865
51
46.8769832400629
0
ARC
8
0
10
35.73036914423756
20
2.5899642862645185
40
0.15
50
-150.06859202882785
51
-67.49999999999943
0
ARC
8
0
10
25.469746389495022
20
25.454041595536765
40
25.210790894703255
50
-65.84100225464263
51
-64.65899774535876
0
ARC
8
0
10
36.19198575068556
20
2.8027724566815526
40
0.15
50
-62.99999999999599
51
19.568592028828412
0
ARC
8
0
10
37.26115065701918
20
3.2260192292436844
40
1
50
-177.37698324006334
51
-158.09884377611928
0
ARC
8
0
10
36.81718239937219
20
3.184468065032571
40
0.555
50
117.0000000000002
51
-179.56505117707792
0
ARC
8
0
10
36.81718239937219
20
3.18446806503257
40
0.555
50
53.565051177078026
51
117.00000000000014
0
ARC
8
0
10
36.52260880705844
20
2.8497133611720167
40
1
50
32.09884377611803
51
51.37698324006206
0
ARC
8
0
10
37.493462003087124
20
3.4659077291927827
40
0.15
50
-145.5685920288289
51
-62.99999999999866
0
ARC
8
0
10
25.470574493650297
20
25.454463535678716
40
25.210790894703255
50
-61.3410022546416
51
-60.1589977453577
0
ARC
8
0
10
37.93695886297981
20
3.7142779045564467
40
0.15
50
-58.49999999999987
51
24.06859202882772
0
ARC
8
0
10
38.96962033167798
20
4.220105660305131
40
1
50
-172.87698324006254
51
-153.59884377611831
0
ARC
8
0
10
38.53028074677285
20
4.143849236439416
40
0.555
50
121.49999999999967
51
-175.0650511770781
0
ARC
8
0
10
38.53028074677285
20
4.143849236439414
40
0.555
50
58.06505117707841
51
121.49999999999959
0
ARC
8
0
10
38.26287977789078
20
3.7870144919338857
40
1
50
36.5988437761184
51
55.87698324006252
0
ARC
8
0
10
39.18239410461448
20
4.477481602207422
40
0.15
50
-141.06859202882922
51
-58.4999999999996
0
ARC
8
0
10
25.471366939995484
20
25.454949147423605
40
25.210790894703255
50
-56.841002254642234
51
-55.658997745358384
0
ARC
8
0
10
39.60503691233289
20
4.759882497795098
40
0.15
50
-53.999999999999815
51
28.568592028826924
0
ARC
8
0
10
40.594828242046326
20
5.3451726404113415
40
1
50
-168.37698324006212
51
-149.0988437761179
0
ARC
8
0
10
40.16282600451923
20
5.234681103102001
40
0.555
50
126.00000000000017
51
-170.56505117707792
0
ARC
8
0
10
40.16282600451923
20
5.234681103102
40
0.555
50
62.56505117707807
51
126.00000000000013
0
ARC
8
0
10
39.924246274961845
20
4.857966322810967
40
1
50
41.0988437761184
51
60.37698324006257
0
ARC
8
0
10
40.786752620786764
20
5.61844921599882
40
0.15
50
-136.56859202882734
51
-53.999999999999616
0
ARC
8
0
10
25.472118842834178
20
25.455495436812846
40
25.210790894703255
50
-52.341002254641516
51
-51.15899774535763
0
ARC
8
0
10
41.185935642878356
20
5.93313973638141
40
0.15
50
-49.49999999999957
51
33.06859202882866
0
ARC
8
0
10
42.12675444092035
20
6.594283757507241
40
1
50
-163.87698324006305
51
-144.59884377611894
0
ARC
8
0
10
41.70475298822097
20
6.4502383238239664
40
0.555
50
130.49999999999974
51
-166.06505117707874
0
ARC
8
0
10
41.70475298822097
20
6.450238323823969
40
0.555
50
67.06505117707853
51
130.49999999999991
0
ARC
8
0
10
41.496465421356795
20
6.055966079638307
40
1
50
45.598843776118564
51
64.87698324006278
0
ARC
8
0
10
42.29664614784846
20
6.881776125817748
40
0.15
50
-132.06859202882882
51
-49.49999999999957
0
ARC
8
0
10
25.47282556643614
20
25.45609903579122
40
25.210790894703255
50
-47.84100225464152
51
-46.658997745357674
0
ARC
8
0
10
42.66990828824019
20
7.226816099291856
40
0.15
50
-45.00000000000144
51
37.5685920288253
0
ARC
8
0
10
43.5559540938668
20
7.959737826184371
40
1
50
-159.37698324006152
51
-140.0988437761171
0
ARC
8
0
10
43.14655520528075
20
7.783026584125753
40
0.555
50
134.9999999999994
51
-161.56505117707871
0
ARC
8
0
10
43.14655520528075
20
7.783026584125755
40
0.555
50
71.5650511770784
51
134.9999999999996
0
ARC
8
0
10
42.96984396322216
20
7.373627695539691
40
1
50
50.09884377611884
51
69.37698324006321
0
ARC
8
0
10
43.70276569011465
20
8.259673501166322
40
0.15
50
-127.56859202882625
51
-45.00000000000096
0
ARC
8
0
10
25.473482753615098
20
25.456756222970178
40
25.210790894703255
50
-43.34100225464172
51
-42.15899774535788
0
ARC
8
0
10
44.047805663588754
20
8.632935641558051
40
0.15
50
-40.500000000001904
51
42.068592028825655
0
ARC
8
0
10
44.87361570976819
20
9.433116368049724
40
1
50
-154.87698324006192
51
-135.5988437761176
0
ARC
8
0
10
44.47934346558253
20
9.224828801185536
40
0.555
50
139.49999999999932
51
-157.06505117707866
0
ARC
8
0
10
44.47934346558254
20
9.22482880118554
40
0.555
50
76.06505117707928
51
139.50000000000006
0
ARC
8
0
10
44.335298031899256
20
8.802827348486154
40
1
50
54.59884377611863
51
73.87698324006298
0
ARC
8
0
10
44.99644205302509
20
9.743646146528148
40
0.15
50
-123.0685920288283
51
-40.500000000000874
0
ARC
8
0
10
25.474086352593847
20
25.457462946572562
40
25.210790894703255
50
-38.84100225464307
51
-37.658997745359166
0
ARC
8
0
10
45.31113257340769
20
10.142829168619736
40
0.15
50
-35.99999999999874
51
46.56859202882978
0
ARC
8
0
10
46.07161546659554
20
11.005335514444656
40
1
50
-150.37698324006266
51
-131.0988437761185
0
ARC
8
0
10
45.69490068630451
20
10.76675578488727
40
0.555
50
143.99999999999977
51
-152.56505117707832
0
ARC
8
0
10
45.69490068630451
20
10.766755784887271
40
0.555
50
80.56505117707826
51
143.99999999999991
0
ARC
8
0
10
45.584409148995164
20
10.334753547360178
40
1
50
59.09884377611822
51
78.37698324006215
0
ARC
8
0
10
46.16969929161141
20
11.32454487707361
40
0.15
50
-118.56859202882966
51
-35.99999999999929
0
ARC
8
0
10
25.47463264198299
20
25.458214849411153
40
25.210790894703255
50
-34.34100225464198
51
-33.15899774535808
0
ARC
8
0
10
46.45210018719909
20
11.747187684792038
40
0.15
50
-31.499999999997996
51
51.068592028828014
0
ARC
8
0
10
47.14256729747263
20
12.666702011515735
40
1
50
-145.87698324006266
51
-126.59884377611841
0
ARC
8
0
10
46.785732552967104
20
12.399301042633667
40
0.555
50
148.49999999999972
51
-148.0650511770785
0
ARC
8
0
10
46.785732552967104
20
12.399301042633669
40
0.555
50
85.06505117707812
51
148.4999999999999
0
ARC
8
0
10
46.70947612910138
20
11.959961457728545
40
1
50
63.598843776118116
51
82.87698324006213
0
ARC
8
0
10
47.21530388485007
20
12.992622926426717
40
0.15
50
-114.06859202882866
51
-31.500000000000572
0
ARC
8
0
10
25.475118253727672
20
25.459007295756006
40
25.210790894703255
50
-29.841002254641722
51
-28.658997745357873
0
ARC
8
0
10
47.46367406021372
20
13.436119786319383
40
0.15
50
-27.00000000000068
51
55.56859202882772
0
ARC
8
0
10
48.0798684282345
20
14.406972982348059
40
1
50
-141.37698324006277
51
-122.09884377611876
0
ARC
8
0
10
47.74511372437394
20
14.11239939003431
40
0.555
50
152.99999999999963
51
-143.5650511770784
0
ARC
8
0
10
47.74511372437394
20
14.112399390034312
40
0.555
50
89.56505117707846
51
152.99999999999977
0
ARC
8
0
10
47.70356256016281
20
13.668431132387331
40
1
50
68.09884377611856
51
87.37698324006277
0
ARC
8
0
10
48.126809332724946
20
14.737596038720941
40
0.15
50
-109.56859202882688
51
-27.00000000000007
0
ARC
8
0
10
25.47554019387016
20
25.459835399912386
40
25.210790894703255
50
-25.34100225464348
51
-24.158997745359574
0
ARC
8
0
10
48.33961750314201
20
15.199212645168963
40
0.15
50
-22.499999999999172
51
60.068592028829066
0
ARC
8
0
10
48.877740085725755
20
16.21541907770766
40
1
50
-136.87698324006297
51
-117.59884377611884
0
ARC
8
0
10
48.567129296576695
20
15.895489006114515
40
0.555
50
157.50000000000028
51
-139.06505117707783
0
ARC
8
0
10
48.567129296576695
20
15.895489006114513
40
0.555
50
94.0650511770783
51
157.50000000000014
0
ARC
8
0
10
48.560539568764675
20
15.449629287668499
40
1
50
72.59884377611822
51
91.87698324006246
0
ARC
8
0
10
48.8985959010436
20
16.54870587445658
40
0.15
50
-105.06859202882781
51
-22.500000000000426
0
ARC
8
0
10
25.475895861008116
20
25.46069405634058
40
25.210790894703255
50
-20.84100225464157
51
-19.658997745357716
0
ARC
8
0
10
49.07453003337751
20
17.025596207578083
40
0.15
50
-18.00000000000044
51
64.56859202882593
0
ARC
8
0
10
49.53126312585868
20
18.080890626047264
40
1
50
-132.37698324006263
51
-113.09884377611839
0
ARC
8
0
10
49.2467112702248
20
17.737576550453632
40
0.555
50
162.0000000000008
51
-134.56505117707704
0
ARC
8
0
10
49.2467112702248
20
17.737576550453625
40
0.555
50
98.56505117707728
51
162.00000000000009
0
ARC
8
0
10
49.275123606675166
20
17.2925742446362
40
1
50
77.09884377611823
51
96.37698324006227
0
ARC
8
0
10
49.52590526896723
20
18.414786339241157
40
0.15
50
-100.56859202882653
51
-18.00000000000044
0
ARC
8
0
10
25.476183062336485
20
25.461577971140777
40
25.210790894703255
50
-16.341002254642564
51
-15.158997745358715
0
ARC
8
0
10
49.663880670788146
20
18.904010211550325
40
0.15
50
-13.50000000000027
51
69.06859202882718
0
ARC
8
0
10
50.03640836177243
20
19.991886374939128
40
1
50
-127.87698324006304
51
-108.59884377611905
0
ARC
8
0
10
49.7796697964668
20
19.62730494078456
40
0.555
50
166.50000000000045
51
-130.06505117707692
0
ARC
8
0
10
49.7796697964668
20
19.627304940784548
40
0.555
50
103.06505117707708
51
166.49999999999937
0
ARC
8
0
10
49.84290902567728
20
19.18590363478936
40
1
50
81.59884377611907
51
100.8769832400629
0
ARC
8
0
10
50.004869865641076
20
20.324332426474566
40
0.15
50
-96.0685920288272
51
-13.50000000000027
0
ARC
8
0
10
25.476400027162843
20
25.46248169468212
40
25.210790894703255
50
-11.841002254641134
51
-10.65899774535724
0
ARC
8
0
10
50.104035872715286
20
20.822873610115195
40
0.15
50
-8.999999999999506
51
73.56859202882586
0
ARC
8
0
10
50.39006140510972
20
21.9366244001208
40
1
50
-123.37698324006229
51
-104.09884377611789
0
ARC
8
0
10
50.16271900876172
20
21.553023373182466
40
0.555
50
170.99999999999943
51
-125.56505117707913
0
ARC
8
0
10
50.16271900876172
20
21.55302337318247
40
0.555
50
107.56505117707867
51
170.99999999999977
0
ARC
8
0
10
50.26039523985502
20
21.117944452841797
40
1
50
86.0988437761184
51
105.37698324006253
0
ARC
8
0
10
50.33253671505475
20
22.265571149540524
40
0.15
50
-91.56859202882549
51
-8.999999999999506
0
ARC
8
0
10
25.476545417827413
20
25.4633996552108
40
25.210790894703255
50
-7.341002254642737
51
-6.1589977453588745
0
ARC
8
0
10
50.392281935972605
20
22.770355972333668
40
0.15
50
-4.499999999999724
51
78.06859202882676
0
ARC
8
0
10
50.59004186725685
20
23.90311474497596
40
1
50
-118.8769832400623
51
-99.59884377611816
0
ARC
8
0
10
50.393497281338945
20
23.502859153145245
40
0.555
50
175.50000000000017
51
-121.06505117707783
0
ARC
8
0
10
50.393497281338945
20
23.502859153145245
40
0.555
50
112.06505117707734
51
175.50000000000017
0
ARC
8
0
10
50.52500830786977
20
23.07678502468142
40
1
50
90.59884377611844
51
109.87698324006242
0
ARC
8
0
10
50.50688564212135
20
24.226534126183918
40
0.15
50
-87.06859202882798
51
-4.499999999999724
0
ARC
8
0
10
25.476618337948008
20
25.46432619319245
40
25.210790894703255
50
-2.841002254641752
51
-1.6589977453578626
0
ENDSEC
0
EOF