0
SECTION
2
HEADER
9
$INSUNITS
70
4
0
ENDSEC
0
SECTION
2
ENTITIES
0
CIRCLE
8
0
10
4.45633840657307
20
4.45633840657307
40
1.5
0
ARC
8
0
10
8.509936751468206
20
3.725997933708915
40
0.15
50
0
51
82.56859202882757
0
ARC
8
0
10
8.61821182590405
20
4.870780854474042
40
1
50
-114.37698324006246
51
-95.0988437761185
0
ARC
8
0
10
8.45367681314614
20
4.45633840657307
40
0.555
50
180
51
-116.56505117707805
0
ARC
8
0
10
8.45367681314614
20
4.45633840657307
40
0.555
50
116.56505117707805
51
180
0
ARC
8
0
10
8.618211825904051
20
4.041895958672098
40
1
50
95.09884377611858
51
114.37698324006256
0
ARC
8
0
10
8.509936751468206
20
5.186678879437225
40
0.15
50
-82.56859202882754
51
0
0
ARC
8
0
10
4.519048793519721
20
4.4706516431701235
40
4.20233840657307
50
9.810367883879012
51
15.903917830406716
0
ARC
8
0
10
8.425387173499546
20
5.557114784317181
40
0.15
50
25.71428571428561
51
108.28287774311319
0
ARC
8
0
10
8.026236950596568
20
6.635507350582419
40
1
50
-88.66269752577686
51
-69.3845580618329
0
ARC
8
0
10
8.057815865366068
20
6.190718540935215
40
0.555
50
-154.2857142857143
51
-90.85076546279221
0
ARC
8
0
10
8.057815865366068
20
6.190718540935215
40
0.555
50
142.2793368913636
51
-154.2857142857143
0
ARC
8
0
10
8.385876628485182
20
5.8887078643903275
40
1
50
120.81312949040439
51
140.09126895434824
0
ARC
8
0
10
7.791621463109175
20
6.873142842356652
40
0.15
50
-56.85430631454187
51
25.71428571428561
0
ARC
8
0
10
4.506628232292511
20
4.4964432043158595
40
4.20233840657307
50
35.5246535981647
51
41.61820354469242
0
ARC
8
0
10
7.554718810052412
20
7.170209373176901
40
0.15
50
51.4285714285715
51
133.99716345739887
0
ARC
8
0
10
6.727199886712777
20
7.968622711576524
40
1
50
-62.94841181149105
51
-43.67027234754711
0
ARC
8
0
10
6.94863813764962
20
7.581583418910485
40
0.555
50
-128.57142857142856
51
-65.13647974850663
0
ARC
8
0
10
6.948638137649619
20
7.581583418910486
40
0.555
50
167.99362260564948
51
-128.5714285714284
0
ARC
8
0
10
7.375248193592968
20
7.451821432129273
40
1
50
146.52741520468993
51
165.80555466863387
0
ARC
8
0
10
6.412712460840844
20
8.08092904660787
40
0.15
50
-31.14002060025545
51
51.4285714285715
0
ARC
8
0
10
4.484247154317322
20
4.51429151841557
40
4.20233840657307
50
61.23893931245032
51
67.33248925897801
0
ARC
8
0
10
6.070378208554241
20
8.245788533657553
40
0.15
50
77.14285714285687
51
159.71144917168417
0
ARC
8
0
10
4.97839085639894
20
8.606087090624515
40
1
50
-37.23412609720526
51
-17.95598663326128
0
ARC
8
0
10
5.345829882143156
20
8.35345519357757
40
0.555
50
-102.85714285714296
51
-39.422194034220816
0
ARC
8
0
10
5.345829882143154
20
8.353455193577572
40
0.555
50
-166.29209168006477
51
-102.85714285714275
0
ARC
8
0
10
5.786493877302179
20
8.421642849468382
40
1
50
172.2417009189756
51
-168.48015961708055
0
ARC
8
0
10
4.64631958377157
20
8.570820621913208
40
0.15
50
-5.42573488597046
51
77.1428571428572
0
ARC
8
0
10
4.456338406573069
20
4.5206615079665955
40
4.20233840657307
50
86.95322502673613
51
93.04677497326385
0
ARC
8
0
10
4.26635722937457
20
8.570820621913208
40
0.15
50
102.85714285714282
51
-174.57426511402957
0
ARC
8
0
10
3.1261829358439615
20
8.421642849468384
40
1
50
-11.519840382919549
51
7.758299081024312
0
ARC
8
0
10
3.5668469310029858
20
8.353455193577572
40
0.555
50
-77.14285714285722
51
-13.707908319935225
0
ARC
8
0
10
3.566846931002985
20
8.35345519357757
40
0.555
50
-140.57780596577925
51
-77.1428571428571
0
ARC
8
0
10
3.934285956747199
20
8.606087090624516
40
1
50
-162.04401336673862
51
-142.76587390279462
0
ARC
8
0
10
2.842298604591898
20
8.245788533657553
40
0.15
50
20.288550828315778
51
102.857142857143
0
ARC
8
0
10
4.428429658828812
20
4.514291518415568
40
4.20233840657307
50
112.66751074102193
51
118.76106068754963
0
ARC
8
0
10
2.499964352305294
20
8.08092904660787
40
0.15
50
128.57142857142836
51
-148.8599793997437
0
ARC
8
0
10
1.53742861955317
20
7.451821432129273
40
1
50
14.194445331366085
51
33.47258479530998
0
ARC
8
0
10
1.96403867549652
20
7.581583418910484
40
0.555
50
-51.428571428571416
51
12.006377394350633
0
ARC
8
0
10
1.9640386754965207
20
7.581583418910484
40
0.555
50
-114.86352025149353
51
-51.428571428571466
0
ARC
8
0
10
2.1854769264333602
20
7.968622711576525
40
1
50
-136.3297276524527
51
-117.0515881885088
0
ARC
8
0
10
1.3579580030937262
20
7.170209373176899
40
0.15
50
46.002836542600974
51
128.57142857142844
0
ARC
8
0
10
4.406048580853624
20
4.496443204315852
40
4.20233840657307
50
138.38179645530752
51
144.4753464018352
0
ARC
8
0
10
1.1210553500369638
20
6.873142842356652
40
0.15
50
154.28571428571436
51
-123.1456936854582
0
ARC
8
0
10
0.5268001846609568
20
5.888707864390328
40
1
50
39.908731045651656
51
59.186870509595614
0
ARC
8
0
10
0.8548609477800708
20
6.190718540935214
40
0.555
50
-25.714285714285772
51
37.72066310863638
0
ARC
8
0
10
0.8548609477800707
20
6.190718540935214
40
0.555
50
-89.14923453720772
51
-25.71428571428577
0
ARC
8
0
10
0.8864398625495729
20
6.635507350582418
40
1
50
-110.61544193816712
51
-91.3373024742232
0
ARC
8
0
10
0.487289639646594
20
5.55711478431718
40
0.15
50
71.71712225688674
51
154.28571428571433
0
ARC
8
0
10
4.393628019626418
20
4.470651643170121
40
4.20233840657307
50
164.09608216959325
51
170.189632116121
0
ARC
8
0
10
0.4027400616779332
20
5.186678879437222
40
0.15
50
180
51
-97.43140797117248
0
ARC
8
0
10
0.29446498724208714
20
4.041895958672096
40
1
50
65.62301675993741
51
84.90115622388136
0
ARC
8
0
10
0.4590000000000003
20
4.456338406573067
40
0.555
50
0
51
63.434948822922095
0
ARC
8
0
10
0.4590000000000002
20
4.456338406573067
40
0.555
50
-63.43494882292202
51
0
0
ARC
8
0
10
0.29446498724208864
20
4.870780854474039
40
1
50
-84.90115622388139
51
-65.62301675993746
0
ARC
8
0
10
0.4027400616779343
20
3.725997933708913
40
0.15
50
97.43140797117256
51
-179.99999999999986
0
ARC
8
0
10
4.393628019626419
20
4.442025169976016
40
4.20233840657307
50
-170.18963211612098
51
-164.09608216959327
0
ARC
8
0
10
0.4872896396465947
20
3.3555620288289574
40
0.15
50
-154.2857142857142
51
-71.71712225688681
0
ARC
8
0
10
0.8864398625495731
20
2.27716946256372
40
1
50
91.3373024742232
51
110.61544193816711
0
ARC
8
0
10
0.8548609477800717
20
2.7219582722109235
40
0.555
50
25.714285714285733
51
89.14923453720782
0
ARC
8
0
10
0.8548609477800715
20
2.721958272210924
40
0.555
50
-37.72066310863631
51
25.71428571428568
0
ARC
8
0
10
0.5268001846609579
20
3.023968948755811
40
1
50
-59.186870509595614
51
-39.90873104565168
0
ARC
8
0
10
1.1210553500369655
20
2.039533970789487
40
0.15
50
123.14569368545835
51
-154.28571428571445
0
ARC
8
0
10
4.40604858085363
20
4.416233608830278
40
4.20233840657307
50
-144.4753464018353
51
-138.3817964553076
0
ARC
8
0
10
1.3579580030937288
20
1.742467439969237
40
0.15
50
-128.57142857142844
51
-46.002836542600974
0
ARC
8
0
10
2.185476926433365
20
0.9440541015696139
40
1
50
117.05158818850894
51
136.3297276524529
0
ARC
8
0
10
1.9640386754965233
20
1.331093394235653
40
0.555
50
51.42857142857143
51
114.86352025149348
0
ARC
8
0
10
1.9640386754965231
20
1.3310933942356533
40
0.555
50
-12.0063773943506
51
51.428571428571395
0
ARC
8
0
10
1.537428619553173
20
1.4608553810168639
40
1
50
-33.47258479530991
51
-14.194445331366003
0
ARC
8
0
10
2.4999643523052986
20
0.8317477665382671
40
0.15
50
148.85997939974402
51
-128.57142857142853
0
ARC
8
0
10
4.428429658828815
20
4.39838529473057
40
4.20233840657307
50
-118.76106068754963
51
-112.66751074102193
0
ARC
8
0
10
2.8422986045919
20
0.6668882794885863
40
0.15
50
-102.85714285714279
51
-20.288550828315362
0
ARC
8
0
10
3.934285956747201
20
0.3065897225216228
40
1
50
142.76587390279462
51
162.04401336673854
0
ARC
8
0
10
3.5668469310029876
20
0.5592216195685689
40
0.555
50
77.14285714285717
51
140.5778059657792
0
ARC
8
0
10
3.566846931002987
20
0.5592216195685689
40
0.555
50
13.707908319935145
51
77.14285714285712
0
ARC
8
0
10
3.1261829358439646
20
0.49103396367775154
40
1
50
-7.758299081024127
51
11.519840382919833
0
ARC
8
0
10
4.266357229374574
20
0.3418561912329308
40
0.15
50
174.57426511402974
51
-102.85714285714279
0
ARC
8
0
10
4.456338406573074
20
4.392015305179544
40
4.20233840657307
50
-93.04677497326387
51
-86.9532250267362
0
ARC
8
0
10
4.646319583771569
20
0.34185619123293065
40
0.15
50
-77.14285714285722
51
5.425734885970334
0
ARC
8
0
10
5.786493877302178
20
0.4910339636777541
40
1
50
168.48015961708032
51
-172.2417009189757
0
ARC
8
0
10
5.345829882143155
20
0.5592216195685695
40
0.555
50
102.85714285714295
51
166.29209168006497
0
ARC
8
0
10
5.345829882143154
20
0.5592216195685692
40
0.555
50
39.422194034220894
51
102.85714285714283
0
ARC
8
0
10
4.97839085639894
20
0.30658972252162275
40
1
50
17.955986633261507
51
37.234126097205454
0
ARC
8
0
10
6.070378208554241
20
0.6668882794885874
40
0.15
50
-159.71144917168462
51
-77.14285714285722
0
ARC
8
0
10
4.484247154317335
20
4.398385294730574
40
4.20233840657307
50
-67.33248925897821
51
-61.23893931245047
0
ARC
8
0
10
6.412712460840846
20
0.8317477665382693
40
0.15
50
-51.42857142857148
51
31.14002060025603
0
ARC
8
0
10
7.37524819359297
20
1.4608553810168683
40
1
50
-165.8055546686339
51
-146.52741520468993
0
ARC
8
0
10
6.9486381376496205
20
1.331093394235656
40
0.555
50
128.57142857142856
51
-167.99362260564945
0
ARC
8
0
10
6.9486381376496205
20
1.3310933942356566
40
0.555
50
65.13647974850655
51
128.5714285714286
0
ARC
8
0
10
6.727199886712779
20
0.9440541015696171
40
1
50
43.67027234754721
51
62.948411811491134
0
ARC
8
0
10
7.554718810052414
20
1.7424674399692421
40
0.15
50
-133.99716345739878
51
-51.4285714285715
0
ARC
8
0
10
4.506628232292528
20
4.416233608830301
40
4.20233840657307
50
-41.61820354469275
51
-35.524653598165074
0
ARC
8
0
10
7.791621463109177
20
2.0395339707894866
40
0.15
50
-25.714285714285534
51
56.85430631454196
0
ARC
8
0
10
8.385876628485182
20
3.023968948755812
40
1
50
-140.09126895434824
51
-120.81312949040426
0
ARC
8
0
10
8.057815865366068
20
2.721958272210924
40
0.555
50
154.2857142857143
51
-142.27933689136364
0
ARC
8
0
10
8.057815865366068
20
2.721958272210924
40
0.555
50
90.8507654627924
51
154.2857142857143
0
ARC
8
0
10
8.026236950596568
20
2.2771694625637204
40
1
50
69.38455806183299
51
88.66269752577695
0
ARC
8
0
10
8.425387173499544
20
3.3555620288289583
40
0.15
50
-108.28287774311313
51
-25.714285714285765
0
ARC
8
0
10
4.519048793519724
20
4.442025169976036
40
4.20233840657307
50
-15.903917830407005
51
-9.81036788387919
0
ENDSEC
0
EOF