0
SECTION
2
HEADER
9
$INSUNITS
70
4
0
ENDSEC
0
SECTION
2
ENTITIES
0
CIRCLE
8
0
10
20.371832715762604
20
20.371832715762604
40
1.5
0
ARC
8
0
10
40.34092536984728
20
19.641492242898448
40
0.15
50
1.3570366640911133e-12
51
82.5685920288269
0
ARC
8
0
10
40.44920044428312
20
20.786275163663575
40
1
50
-114.37698324006291
51
-95.0988437761185
0
ARC
8
0
10
40.284665431525205
20
20.371832715762608
40
0.555
50
-179.99999999999963
51
-116.56505117707799
0
ARC
8
0
10
40.284665431525205
20
20.3718327157626
40
0.555
50
116.56505117707799
51
179.99999999999963
0
ARC
8
0
10
40.44920044428312
20
19.957390267861634
40
1
50
95.0988437761185
51
114.37698324006291
0
ARC
8
0
10
40.34092536984728
20
21.10217318862676
40
0.15
50
-82.5685920288269
51
-1.3570366640911133e-12
0
ARC
8
0
10
20.38632799442876
20
20.37254482313986
40
20.117832715762603
50
2.078444362667989
51
3.5465556373328093
0
ARC
8
0
10
40.316354615226714
20
21.602322388827062
40
0.15
50
5.624999999999773
51
88.19359202882683
0
ARC
8
0
10
40.31189996739304
20
22.752205680092874
40
1
50
-108.75198324006271
51
-89.47384377611824
0
ARC
8
0
10
40.18877969926799
20
22.323631634422572
40
0.555
50
-174.37500000000003
51
-110.94005117707857
0
ARC
8
0
10
40.18877969926799
20
22.323631634422572
40
0.555
50
122.19005117707839
51
-174.37500000000003
0
ARC
8
0
10
40.39314489454192
20
21.92731209162151
40
1
50
100.72384377611877
51
120.00198324006313
0
ARC
8
0
10
40.17318284599255
20
23.055969756556976
40
0.15
50
-76.94359202882775
51
5.624999999999773
0
ARC
8
0
10
20.386188396971278
20
20.373962179911462
40
20.117832715762603
50
7.703444362667636
51
9.171555637332462
0
ARC
8
0
10
40.099707211929605
20
23.551302246549987
40
0.15
50
11.250000000000522
51
93.81859202882812
0
ARC
8
0
10
39.98256574252021
20
24.69521190363145
40
1
50
-103.12698324006266
51
-83.84884377611836
0
ARC
8
0
10
39.90204593451445
20
24.256633662534025
40
0.555
50
-168.75000000000006
51
-105.31505117707854
0
ARC
8
0
10
39.90204593451445
20
24.256633662534025
40
0.555
50
127.8150511770783
51
-168.75000000000006
0
ARC
8
0
10
40.14427316375653
20
23.882253798680342
40
1
50
106.34884377611941
51
125.62698324006342
0
ARC
8
0
10
39.81474249586464
20
24.983916617485786
40
0.15
50
-71.31859202882757
51
11.249999999999194
0
ARC
8
0
10
20.38591054645619
20
20.375359028778885
40
20.117832715762603
50
13.328444362668277
51
14.796555637333089
0
ARC
8
0
10
39.69306959288121
20
25.469662074616583
40
0.15
50
16.87500000000023
51
99.44359202882801
0
ARC
8
0
10
39.464369438282546
20
26.596581622191373
40
1
50
-97.50198324006237
51
-78.2238437761184
0
ARC
8
0
10
39.42722554016378
20
26.152222933879848
40
0.555
50
-163.12500000000017
51
-99.69005117707898
0
ARC
8
0
10
39.42722554016378
20
26.152222933879855
40
0.555
50
133.4400511770794
51
-163.12499999999946
0
ARC
8
0
10
39.70498202274151
20
25.803388231719296
40
1
50
111.97384377611796
51
131.25198324006223
0
ARC
8
0
10
39.26905629597873
20
26.86744658921947
40
0.15
50
-65.69359202882778
51
16.87500000000023
0
ARC
8
0
10
20.385497118735643
20
20.37672191732489
40
20.117832715762603
50
18.953444362667092
51
20.421555637331917
0
ARC
8
0
10
39.100357900643715
20
27.33892701920042
40
0.15
50
22.500000000000426
51
105.06859202882781
0
ARC
8
0
10
38.7623015683648
20
28.438003605988506
40
1
50
-91.87698324006286
51
-72.59884377611871
0
ARC
8
0
10
38.76889129617682
20
27.99214388754249
40
0.555
50
-157.49999999999977
51
-94.06505117707903
0
ARC
8
0
10
38.76889129617682
20
27.992143887542493
40
0.555
50
139.06505117707889
51
-157.49999999999946
0
ARC
8
0
10
39.07950208532587
20
27.67221381594934
40
1
50
117.5988437761189
51
136.87698324006308
0
ARC
8
0
10
38.541379502742124
20
28.688420248488036
40
0.15
50
-60.068592028828725
51
22.499999999999172
0
ARC
8
0
10
20.384952095345025
20
20.378037720186345
40
20.117832715762603
50
24.578444362668343
51
26.04655563733318
0
ARC
8
0
10
38.32728027282252
20
29.14109503704099
40
0.15
50
28.12500000000108
51
110.69359202882958
0
ARC
8
0
10
37.88312343014357
20
30.20174395469522
40
1
50
-86.25198324006242
51
-66.97384377611844
0
ARC
8
0
10
37.93338332120524
20
29.758677078935065
40
0.555
50
-151.87499999999966
51
-88.44005117707826
0
ARC
8
0
10
37.93338332120524
20
29.75867707893507
40
0.555
50
144.6900511770785
51
-151.87499999999932
0
ARC
8
0
10
38.27385706522896
20
29.47073273939031
40
1
50
123.22384377611802
51
142.50198324006212
0
ARC
8
0
10
37.638720041462285
20
30.429300623507253
40
0.15
50
-54.44359202882968
51
28.124999999999886
0
ARC
8
0
10
20.384280725156852
20
20.37929376546402
40
20.117832715762603
50
30.203444362666996
51
31.671555637331807
0
ARC
8
0
10
37.381281869580775
20
30.858810264961235
40
0.15
50
33.749999999999744
51
116.31859202882802
0
ARC
8
0
10
36.83530198969763
20
31.870816884594927
40
1
50
-80.62698324006269
51
-61.34884377611861
0
ARC
8
0
10
36.92874801378317
20
31.43480982773919
40
0.555
50
-146.24999999999986
51
-82.81505117707775
0
ARC
8
0
10
36.92874801378318
20
31.434809827739187
40
0.555
50
150.31505117707817
51
-146.25000000000057
0
ARC
8
0
10
37.29580576440475
20
31.181624281639046
40
1
50
128.84884377611826
51
148.12698324006266
0
ARC
8
0
10
36.569771016195205
20
32.07332208460367
40
0.15
50
-48.81859202882641
51
33.749999999998614
0
ARC
8
0
10
20.383489473833716
20
20.380477956753914
40
20.117832715762603
50
35.828444362667334
51
37.29655563733214
0
ARC
8
0
10
36.27147317267702
20
32.47553016631763
40
0.15
50
39.374999999997684
51
121.94359202882914
0
ARC
8
0
10
35.62892834029591
20
33.429148310964614
40
1
50
-75.00198324006232
51
-55.723843776118144
0
ARC
8
0
10
35.76466056111059
20
33.004400059316524
40
0.555
50
-140.62499999999994
51
-77.1900511770776
0
ARC
8
0
10
35.764660561110595
20
33.00440005931652
40
0.555
50
155.9400511770772
51
-140.62500000000097
0
ARC
8
0
10
36.15476735153736
20
32.78841162187524
40
1
50
134.47384377611942
51
153.75198324006325
0
ARC
8
0
10
35.344826990401174
20
33.604651806393385
40
0.15
50
-43.1935920288288
51
39.37499999999979
0
ARC
8
0
10
20.382585961558235
20
20.38157888964701
40
20.117832715762603
50
41.45344436266808
51
42.921555637332894
0
ARC
8
0
10
35.008542246545574
20
33.975684844671115
40
0.15
50
44.99999999999808
51
127.56859202882369
0
ARC
8
0
10
34.27562051965307
20
34.86173065029773
40
1
50
-69.37698324006188
51
-50.09884377611725
0
ARC
8
0
10
34.45233176171168
20
34.452331761711676
40
0.555
50
-135.0000000000005
51
-71.56505117707916
0
ARC
8
0
10
34.452331761711676
20
34.45233176171168
40
0.555
50
161.56505117707917
51
-134.9999999999995
0
ARC
8
0
10
34.86173065029773
20
34.27562051965307
40
1
50
140.09884377611723
51
159.37698324006186
0
ARC
8
0
10
33.975684844671115
20
35.008542246545574
40
0.15
50
-37.56859202882369
51
45.00000000000192
0
ARC
8
0
10
20.381578889647166
20
20.38258596155809
40
20.117832715762603
50
47.07844436266772
51
48.54655563733251
0
ARC
8
0
10
33.604651806393385
20
35.34482699040117
40
0.15
50
50.62500000000022
51
133.19359202882882
0
ARC
8
0
10
32.78841162187524
20
36.15476735153735
40
1
50
-63.75198324006326
51
-44.473843776119416
0
ARC
8
0
10
33.00440005931653
20
35.764660561110595
40
0.555
50
-129.37499999999963
51
-65.94005117707884
0
ARC
8
0
10
33.004400059316524
20
35.764660561110595
40
0.555
50
167.19005117707906
51
-129.37499999999903
0
ARC
8
0
10
33.429148310964614
20
35.6289283402959
40
1
50
145.72384377611814
51
165.00198324006232
0
ARC
8
0
10
32.47553016631763
20
36.27147317267701
40
0.15
50
-31.943592028829126
51
50.62500000000232
0
ARC
8
0
10
20.3804779567536
20
20.383489473833947
40
20.117832715762603
50
52.70344436266674
51
54.17155563733155
0
ARC
8
0
10
32.07332208460367
20
36.569771016195205
40
0.15
50
56.24999999999913
51
138.81859202882552
0
ARC
8
0
10
31.18162428163905
20
37.29580576440475
40
1
50
-58.12698324006264
51
-38.848843776118244
0
ARC
8
0
10
31.43480982773919
20
36.92874801378317
40
0.555
50
-123.75000000000013
51
-60.315051177077834
0
ARC
8
0
10
31.434809827739194
20
36.92874801378317
40
0.555
50
172.81505117707775
51
-123.75000000000044
0
ARC
8
0
10
31.87081688459493
20
36.83530198969763
40
1
50
151.34884377611863
51
170.6269832400627
0
ARC
8
0
10
30.85881026496124
20
37.381281869580775
40
0.15
50
-26.318592028828025
51
56.25000000000027
0
ARC
8
0
10
20.379293765464144
20
20.384280725156778
40
20.117832715762603
50
58.3284443626686
51
59.79655563733343
0
ARC
8
0
10
30.42930062350725
20
37.638720041462285
40
0.15
50
61.87500000000012
51
144.4435920288297
0
ARC
8
0
10
29.470732739390307
20
38.27385706522896
40
1
50
-52.5019832400621
51
-33.223843776117995
0
ARC
8
0
10
29.758677078935065
20
37.93338332120524
40
0.555
50
-118.12500000000036
51
-54.69005117707847
0
ARC
8
0
10
29.75867707893506
20
37.93338332120524
40
0.555
50
178.44005117707823
51
-118.12500000000003
0
ARC
8
0
10
30.201743954695218
20
37.88312343014357
40
1
50
156.97384377611846
51
176.25198324006243
0
ARC
8
0
10
29.141095037040987
20
38.32728027282252
40
0.15
50
-20.693592028829578
51
61.87499999999893
0
ARC
8
0
10
20.37803772018632
20
20.384952095345035
40
20.117832715762603
50
63.953444362666744
51
65.4215556373316
0
ARC
8
0
10
28.688420248488036
20
38.541379502742124
40
0.15
50
67.50000000000084
51
150.06859202882873
0
ARC
8
0
10
27.67221381594934
20
39.07950208532587
40
1
50
-46.87698324006305
51
-27.59884377611887
0
ARC
8
0
10
27.992143887542493
20
38.76889129617682
40
0.555
50
-112.50000000000023
51
-49.06505117707887
0
ARC
8
0
10
27.99214388754249
20
38.76889129617682
40
0.555
50
-175.934948822921
51
-112.49999999999989
0
ARC
8
0
10
28.438003605988506
20
38.762301568364805
40
1
50
162.5988437761191
51
-178.12301675993672
0
ARC
8
0
10
27.33892701920042
20
39.100357900643715
40
0.15
50
-15.068592028827796
51
67.49999999999959
0
ARC
8
0
10
20.376721917324666
20
20.385497118735724
40
20.117832715762603
50
69.5784443626674
51
71.04655563733225
0
ARC
8
0
10
26.86744658921947
20
39.269056295978736
40
0.15
50
73.12499999999977
51
155.69359202882777
0
ARC
8
0
10
25.803388231719296
20
39.70498202274152
40
1
50
-41.251983240062245
51
-21.97384377611794
0
ARC
8
0
10
26.152222933879848
20
39.42722554016378
40
0.555
50
-106.87499999999983
51
-43.44005117707837
0
ARC
8
0
10
26.152222933879848
20
39.42722554016378
40
0.555
50
-170.30994882292177
51
-106.87499999999983
0
ARC
8
0
10
26.596581622191373
20
39.46436943828255
40
1
50
168.2238437761184
51
-172.49801675993766
0
ARC
8
0
10
25.469662074616583
20
39.693069592881216
40
0.15
50
-9.443592028827988
51
73.12499999999977
0
ARC
8
0
10
20.375359028779148
20
20.38591054645613
40
20.117832715762603
50
75.2034443626677
51
76.67155563733249
0
ARC
8
0
10
24.983916617485786
20
39.81474249586464
40
0.15
50
78.75000000000082
51
161.3185920288276
0
ARC
8
0
10
23.882253798680342
20
40.14427316375653
40
1
50
-35.62698324006343
51
-16.348843776119388
0
ARC
8
0
10
24.256633662534025
20
39.90204593451445
40
0.555
50
-101.24999999999996
51
-37.8150511770783
0
ARC
8
0
10
24.256633662534025
20
39.90204593451445
40
0.555
50
-164.68494882292148
51
-101.24999999999996
0
ARC
8
0
10
24.69521190363145
20
39.98256574252021
40
1
50
173.84884377611837
51
-166.87301675993734
0
ARC
8
0
10
23.551302246549987
20
40.099707211929605
40
0.15
50
-3.818592028828111
51
78.74999999999947
0
ARC
8
0
10
20.37396217991145
20
20.386188396971278
40
20.117832715762603
50
80.82844436266751
51
82.29655563733235
0
ARC
8
0
10
23.055969756556976
20
40.17318284599255
40
0.15
50
84.37500000000024
51
166.94359202882777
0
ARC
8
0
10
21.92731209162151
20
40.39314489454192
40
1
50
-30.001983240063108
51
-10.723843776118752
0
ARC
8
0
10
22.323631634422572
20
40.18877969926799
40
0.555
50
-95.625
51
-32.19005117707839
0
ARC
8
0
10
22.323631634422572
20
40.18877969926799
40
0.555
50
-159.05994882292143
51
-95.625
0
ARC
8
0
10
22.752205680092874
20
40.311899967393046
40
1
50
179.47384377611866
51
-161.24801675993692
0
ARC
8
0
10
21.602322388827062
20
40.316354615226714
40
0.15
50
1.8064079711731729
51
84.37500000000024
0
ARC
8
0
10
20.37254482313988
20
20.38632799442876
40
20.117832715762603
50
86.45344436266724
51
87.92155563733206
0
ARC
8
0
10
21.10217318862676
20
40.34092536984728
40
0.15
50
90.00000000000136
51
172.5685920288269
0
ARC
8
0
10
19.957390267861634
20
40.44920044428312
40
1
50
-24.37698324006291
51
-5.098843776118483
0
ARC
8
0
10
20.3718327157626
20
40.284665431525205
40
0.555
50
-89.99999999999962
51
-26.56505117707799
0
ARC
8
0
10
20.371832715762608
20
40.284665431525205
40
0.555
50
-153.43494882292202
51
-90.00000000000038
0
ARC
8
0
10
20.786275163663575
20
40.44920044428313
40
1
50
-174.90115622388115
51
-155.62301675993675
0
ARC
8
0
10
19.641492242898448
20
40.34092536984728
40
0.15
50
7.431407971173092
51
89.99999999999865
0
ARC
8
0
10
20.37112060838534
20
20.38632799442876
40
20.117832715762603
50
92.07844436266798
51
93.54655563733279
0
ARC
8
0
10
19.14134304269815
20
40.316354615226714
40
0.15
50
95.62499999999977
51
178.19359202882686
0
ARC
8
0
10
17.991459751432338
20
40.311899967393046
40
1
50
-18.7519832400631
51
0.526156223881346
0
ARC
8
0
10
18.42003379710264
20
40.18877969926799
40
0.555
50
-84.37500000000003
51
-20.940051177078576
0
ARC
8
0
10
18.42003379710264
20
40.18877969926799
40
0.555
50
-147.80994882292163
51
-84.37500000000003
0
ARC
8
0
10
18.816353339903703
20
40.39314489454192
40
1
50
-169.27615622388123
51
-149.9980167599369
0
ARC
8
0
10
17.687695674968236
20
40.17318284599255
40
0.15
50
13.056407971172248
51
95.62499999999977
0
ARC
8
0
10
20.369703251613767
20
20.386188396971278
40
20.117832715762603
50
97.7034443626677
51
99.17155563733252
0
ARC
8
0
10
17.19236318497523
20
40.099707211929605
40
0.15
50
101.25000000000054
51
-176.1814079711719
0
ARC
8
0
10
16.048453527893766
20
39.98256574252021
40
1
50
-13.126983240062655
51
6.151156223881639
0
ARC
8
0
10
16.48703176899119
20
39.90204593451445
40
0.555
50
-78.75000000000004
51
-15.315051177078544
0
ARC
8
0
10
16.48703176899119
20
39.90204593451445
40
0.555
50
-142.18494882292168
51
-78.75000000000004
0
ARC
8
0
10
16.861411632844874
20
40.14427316375652
40
1
50
-163.65115622388097
51
-144.3730167599369
0
ARC
8
0
10
15.759748814039433
20
39.81474249586464
40
0.15
50
18.681407971172654
51
101.25000000000054
0
ARC
8
0
10
20.36830640274625
20
20.38591054645617
40
20.117832715762603
50
103.32844436266804
51
104.79655563733287
0
ARC
8
0
10
15.274003356908624
20
39.69306959288121
40
0.15
50
106.87500000000024
51
-170.55640797117212
0
ARC
8
0
10
14.147083809333832
20
39.464369438282546
40
1
50
-7.501983240062369
51
11.776156223881612
0
ARC
8
0
10
14.591442497645357
20
39.42722554016378
40
0.555
50
-73.12499999999983
51
-9.690051177078962
0
ARC
8
0
10
14.591442497645351
20
39.427225540163775
40
0.555
50
-136.55994882292126
51
-73.12499999999909
0
ARC
8
0
10
14.940277199805903
20
39.70498202274151
40
1
50
-158.026156223882
51
-138.74801675993757
0
ARC
8
0
10
13.876218842305734
20
39.26905629597873
40
0.15
50
24.306407971172227
51
106.87500000000024
0
ARC
8
0
10
20.366943514200397
20
20.38549711873567
40
20.117832715762603
50
108.95344436266734
51
110.42155563733216
0
ARC
8
0
10
13.404738412324791
20
39.100357900643715
40
0.15
50
112.50000000000043
51
-164.93140797117238
0
ARC
8
0
10
12.305661825536706
20
38.7623015683648
40
1
50
-1.8769832400628603
51
17.401156223881365
0
ARC
8
0
10
12.75152154398272
20
38.76889129617682
40
0.555
50
-67.49999999999996
51
-4.065051177079024
0
ARC
8
0
10
12.751521543982719
20
38.76889129617682
40
0.555
50
-130.93494882292129
51
-67.49999999999979
0
ARC
8
0
10
13.071451615575873
20
39.07950208532586
40
1
50
-152.40115622388154
51
-133.1230167599374
0
ARC
8
0
10
12.055245183037174
20
38.541379502742124
40
0.15
50
29.931407971170938
51
112.49999999999916
0
ARC
8
0
10
20.36562771133857
20
20.38495209534489
40
20.117832715762603
50
114.57844436266741
51
116.04655563733222
0
ARC
8
0
10
11.60257039448423
20
38.327280272822534
40
0.15
50
118.12500000000048
51
-159.30640797117042
0
ARC
8
0
10
10.541921476829998
20
37.883123430143584
40
1
50
3.7480167599375767
51
23.026156223881518
0
ARC
8
0
10
10.984988352590154
20
37.93338332120525
40
0.555
50
-61.874999999999986
51
1.5599488229224878
0
ARC
8
0
10
10.984988352590157
20
37.933383321205255
40
0.555
50
-125.30994882292201
51
-61.875000000000654
0
ARC
8
0
10
11.272932692134903
20
38.27385706522898
40
1
50
-146.77615622388154
51
-127.49801675993734
0
ARC
8
0
10
10.314364808017967
20
37.63872004146229
40
0.15
50
35.556407971172916
51
118.12499999999864
0
ARC
8
0
10
20.364371666061615
20
20.384280725157108
40
20.117832715762603
50
120.20344436266838
51
121.67155563733324
0
ARC
8
0
10
9.88485516656397
20
37.38128186958077
40
0.15
50
123.74999999999918
51
-153.681407971172
0
ARC
8
0
10
8.872848546930282
20
36.835301989697626
40
1
50
9.373016759937318
51
28.651156223881486
0
ARC
8
0
10
9.308855603786014
20
36.92874801378317
40
0.555
50
-56.24999999999971
51
7.1849488229215055
0
ARC
8
0
10
9.30885560378601
20
36.92874801378317
40
0.555
50
-119.68494882292117
51
-56.24999999999941
0
ARC
8
0
10
9.562041149886163
20
37.29580576440474
40
1
50
-141.15115622388183
51
-121.87301675993753
0
ARC
8
0
10
8.670343346921541
20
36.5697710161952
40
0.15
50
41.18140797117403
51
123.7500000000003
0
ARC
8
0
10
20.363187474771173
20
20.383489473833627
40
20.117832715762603
50
125.82844436266693
51
127.29655563733172
0
ARC
8
0
10
8.26813526520758
20
36.27147317267702
40
0.15
50
129.37499999999926
51
-148.05640797117087
0
ARC
8
0
10
7.3145171205605966
20
35.628928340295914
40
1
50
14.9980167599373
51
34.276156223881465
0
ARC
8
0
10
7.739265372208687
20
35.764660561110595
40
0.555
50
-50.62499999999993
51
12.809948822921685
0
ARC
8
0
10
7.739265372208688
20
35.764660561110595
40
0.555
50
-114.05994882292205
51
-50.625000000000085
0
ARC
8
0
10
7.955253809649965
20
36.15476735153736
40
1
50
-135.52615622388038
51
-116.24801675993638
0
ARC
8
0
10
7.139013625131827
20
35.344826990401174
40
0.15
50
46.8064079711712
51
129.37499999999875
0
ARC
8
0
10
20.362086541878103
20
20.38258596155815
40
20.117832715762603
50
131.4534443626677
51
132.92155563733255
0
ARC
8
0
10
6.767980586854098
20
35.00854224654558
40
0.15
50
135.00000000000097
51
-142.43140797117354
0
ARC
8
0
10
5.881934781227469
20
34.27562051965308
40
1
50
20.62301675993718
51
39.90115622388151
0
ARC
8
0
10
6.291333669813533
20
34.452331761711676
40
0.555
50
-44.99999999999967
51
18.43494882292161
0
ARC
8
0
10
6.29133366981353
20
34.452331761711676
40
0.555
50
-108.4349488229213
51
-44.999999999999424
0
ARC
8
0
10
6.468044911872149
20
34.86173065029773
40
1
50
-129.90115622388296
51
-110.62301675993857
0
ARC
8
0
10
5.735123184979633
20
33.975684844671115
40
0.15
50
52.4314079711747
51
135.00000000000145
0
ARC
8
0
10
20.36107946996701
20
20.381578889647052
40
20.117832715762603
50
137.07844436266726
51
138.5465556373321
0
ARC
8
0
10
5.398838441124033
20
33.604651806393385
40
0.15
50
140.62499999999937
51
-136.80640797117144
0
ARC
8
0
10
4.588898079987862
20
32.78841162187523
40
1
50
26.24801675993764
51
45.526156223881785
0
ARC
8
0
10
4.979004870414616
20
33.004400059316524
40
0.555
50
-39.37500000000001
51
24.059948822922017
0
ARC
8
0
10
4.979004870414615
20
33.004400059316524
40
0.555
50
-102.8099488229218
51
-39.37499999999995
0
ARC
8
0
10
5.1147370912292995
20
33.429148310964614
40
1
50
-124.27615622388177
51
-104.99801675993756
0
ARC
8
0
10
4.472192258848194
20
32.475530166317625
40
0.15
50
58.056407971174025
51
140.62500000000026
0
ARC
8
0
10
20.360175957691425
20
20.38047795675382
40
20.117832715762603
50
142.7034443626675
51
144.17155563733235
0
ARC
8
0
10
4.173894415330006
20
32.07332208460367
40
0.15
50
146.2500000000014
51
-131.1814079711731
0
ARC
8
0
10
3.4478596671204644
20
31.181624281639046
40
1
50
31.8730167599376
51
51.15115622388174
0
ARC
8
0
10
3.8149174177420333
20
31.434809827739194
40
0.555
50
-33.75000000000039
51
29.684948822921587
0
ARC
8
0
10
3.814917417742032
20
31.43480982773919
40
0.555
50
-97.18494882292158
51
-33.750000000000014
0
ARC
8
0
10
3.908363441827573
20
31.870816884594927
40
1
50
-118.65115622388132
51
-99.37301675993713
0
ARC
8
0
10
3.3623835619444327
20
30.858810264961235
40
0.15
50
63.68140797117182
51
146.24999999999972
0
ARC
8
0
10
20.35938470636828
20
20.379293765463892
40
20.117832715762603
50
148.32844436266777
51
149.79655563733257
0
ARC
8
0
10
3.104945390062923
20
30.42930062350725
40
0.15
50
151.8749999999994
51
-125.55640797117249
0
ARC
8
0
10
2.4698083662962413
20
29.47073273939031
40
1
50
37.49801675993782
51
56.77615622388185
0
ARC
8
0
10
2.810282110319965
20
29.758677078935065
40
0.555
50
-28.124999999999908
51
35.30994882292202
0
ARC
8
0
10
2.810282110319965
20
29.758677078935065
40
0.555
50
-91.55994882292195
51
-28.124999999999908
0
ARC
8
0
10
2.860542001381633
20
30.20174395469522
40
1
50
-113.02615622388171
51
-93.74801675993751
0
ARC
8
0
10
2.4163851587026848
20
29.14109503704099
40
0.15
50
69.306407971172
51
151.87499999999932
0
ARC
8
0
10
20.358713336180355
20
20.378037720186708
40
20.117832715762603
50
153.953444362668
51
155.4215556373328
0
ARC
8
0
10
2.202285928783089
20
28.688420248488036
40
0.15
50
157.50000000000085
51
-119.9314079711726
0
ARC
8
0
10
1.6641633461993441
20
27.67221381594934
40
1
50
43.12301675993713
51
62.401156223881415
0
ARC
8
0
10
1.9747741353483952
20
27.992143887542493
40
0.555
50
-22.500000000000274
51
40.934948822921335
0
ARC
8
0
10
1.9747741353483943
20
27.99214388754249
40
0.555
50
-85.93494882292148
51
-22.4999999999999
0
ARC
8
0
10
1.9813638631604062
20
28.438003605988506
40
1
50
-107.40115622388109
51
-88.12301675993695
0
ARC
8
0
10
1.6433075308814926
20
27.33892701920042
40
0.15
50
74.93140797117196
51
157.4999999999994
0
ARC
8
0
10
20.35816831278951
20
20.37672191732474
40
20.117832715762603
50
159.57844436266765
51
161.04655563733243
0
ARC
8
0
10
1.474609135546479
20
26.867446589219472
40
0.15
50
163.12500000000003
51
-114.30640797117255
0
ARC
8
0
10
1.0386834087836907
20
25.803388231719303
40
1
50
48.748016759937585
51
68.02615622388173
0
ARC
8
0
10
1.316439891361429
20
26.15222293387985
40
0.555
50
-16.875000000000256
51
46.55994882292174
0
ARC
8
0
10
1.316439891361429
20
26.15222293387985
40
0.555
50
-80.3099488229217
51
-16.875000000000256
0
ARC
8
0
10
1.2792959932426533
20
26.596581622191376
40
1
50
-101.77615622388151
51
-82.49801675993733
0
ARC
8
0
10
1.0505958386439933
20
25.469662074616586
40
0.15
50
80.55640797117235
51
163.12499999999997
0
ARC
8
0
10
20.35775488506907
20
20.375359028779116
40
20.117832715762603
50
165.2034443626676
51
166.67155563733243
0
ARC
8
0
10
0.9289229356605622
20
24.983916617485782
40
0.15
50
168.75000000000085
51
-108.68140797117249
0
ARC
8
0
10
0.5993922677686836
20
23.88225379868034
40
1
50
54.37301675993683
51
73.65115622388112
0
ARC
8
0
10
0.8416194970107618
20
24.25663366253402
40
0.555
50
-11.249999999999968
51
52.18494882292177
0
ARC
8
0
10
0.8416194970107621
20
24.25663366253402
40
0.555
50
-74.68494882292188
51
-11.249999999999975
0
ARC
8
0
10
0.7610996890049984
20
24.695211903631446
40
1
50
-96.15115622388164
51
-76.87301675993741
0
ARC
8
0
10
0.643958219595603
20
23.551302246549984
40
0.15
50
86.18140797117239
51
168.74999999999946
0
ARC
8
0
10
20.357477034553945
20
20.37396217991153
40
20.117832715762603
50
170.82844436266777
51
172.29655563733257
0
ARC
8
0
10
0.5704825855326637
20
23.05596975655698
40
0.15
50
174.3750000000003
51
-103.05640797117272
0
ARC
8
0
10
0.35052053698329133
20
21.927312091621513
40
1
50
59.998016759936895
51
79.27615622388116
0
ARC
8
0
10
0.55488573225722
20
22.323631634422576
40
0.555
50
-5.6249999999999885
51
57.809948822921555
0
ARC
8
0
10
0.5548857322572198
20
22.323631634422576
40
0.555
50
-69.05994882292146
51
-5.624999999999987
0
ARC
8
0
10
0.43176546413216593
20
22.752205680092878
40
1
50
-90.52615622388129
51
-71.24801675993707
0
ARC
8
0
10
0.427310816298497
20
21.602322388827066
40
0.15
50
91.8064079711726
51
174.3750000000003
0
ARC
8
0
10
20.35733743709645
20
20.372544823139908
40
20.117832715762603
50
176.45344436266734
51
177.92155563733212
0
ARC
8
0
10
0.40274006167793497
20
21.102173188626764
40
0.15
50
-179.99999999999866
51
-97.4314079711725
0
ARC
8
0
10
0.29446498724208425
20
19.957390267861637
40
1
50
65.62301675993689
51
84.9011562238811
0
ARC
8
0
10
0.4590000000000027
20
20.371832715762608
40
0.555
50
0
51
63.43494882292167
0
ARC
8
0
10
0.45900000000000285
20
20.371832715762608
40
0.555
50
-63.434948822921676
51
0
0
ARC
8
0
10
0.29446498724208403
20
20.78627516366358
40
1
50
-84.90115622388109
51
-65.62301675993687
0
ARC
8
0
10
0.40274006167793486
20
19.64149224289845
40
0.15
50
97.43140797117249
51
179.99999999999866
0
ARC
8
0
10
20.357337437096454
20
20.371120608385183
40
20.117832715762603
50
-177.9215556373325
51
-176.45344436266765
0
ARC
8
0
10
0.42731081629849366
20
19.141343042698146
40
0.15
50
-174.3750000000003
51
-91.80640797117256
0
ARC
8
0
10
0.43176546413216255
20
17.991459751432334
40
1
50
71.2480167599371
51
90.52615622388129
0
ARC
8
0
10
0.55488573225722
20
18.420033797102633
40
0.555
50
5.625000000000354
51
69.05994882292198
0
ARC
8
0
10
0.5548857322572197
20
18.420033797102636
40
0.555
50
-57.809948822921825
51
5.624999999999986
0
ARC
8
0
10
0.350520536983288
20
18.8163533399037
40
1
50
-79.27615622388117
51
-59.998016759936895
0
ARC
8
0
10
0.5704825855326603
20
17.687695674968232
40
0.15
50
103.05640797117276
51
-174.3750000000003
0
ARC
8
0
10
20.357477034553945
20
20.369703251613664
40
20.117832715762603
50
-172.2965556373326
51
-170.8284443626678
0
ARC
8
0
10
0.6439582195955992
20
17.19236318497523
40
0.15
50
-168.74999999999946
51
-86.18140797117239
0
ARC
8
0
10
0.7610996890049941
20
16.048453527893766
40
1
50
76.87301675993739
51
96.1511562238816
0
ARC
8
0
10
0.8416194970107586
20
16.48703176899119
40
0.555
50
11.249999999999975
51
74.68494882292191
0
ARC
8
0
10
0.8416194970107582
20
16.487031768991194
40
0.555
50
-52.184948822921996
51
11.24999999999961
0
ARC
8
0
10
0.5993922677686837
20
16.861411632844877
40
1
50
-73.65115622388134
51
-54.37301675993712
0
ARC
8
0
10
0.9289229356605584
20
15.759748814039433
40
0.15
50
108.68140797117253
51
-168.74999999999946
0
ARC
8
0
10
20.357754885069056
20
20.368306402746143
40
20.117832715762603
50
-166.6715556373323
51
-165.20344436266745
0
ARC
8
0
10
1.0505958386439904
20
15.274003356908631
40
0.15
50
-163.12500000000009
51
-80.55640797117272
0
ARC
8
0
10
1.2792959932426506
20
14.14708380933384
40
1
50
82.49801675993737
51
101.77615622388156
0
ARC
8
0
10
1.316439891361428
20
14.591442497645364
40
0.555
50
16.874999999999872
51
80.30994882292195
0
ARC
8
0
10
1.3164398913614273
20
14.591442497645366
40
0.555
50
-46.55994882292199
51
16.874999999999677
0
ARC
8
0
10
1.0386834087836834
20
14.940277199805909
40
1
50
-68.02615622388149
51
-48.748016759937286
0
ARC
8
0
10
1.4746091355464754
20
13.876218842305741
40
0.15
50
114.30640797117255
51
-163.12500000000003
0
ARC
8
0
10
20.358168312789513
20
20.366943514200464
40
20.117832715762603
50
-161.0465556373325
51
-159.57844436266768
0
ARC
8
0
10
1.643307530881487
20
13.404738412324802
40
0.15
50
-157.5000000000002
51
-74.93140797117263
0
ARC
8
0
10
1.9813638631604054
20
12.305661825536717
40
1
50
88.12301675993729
51
107.40115622388147
0
ARC
8
0
10
1.9747741353483912
20
12.751521543982731
40
0.555
50
22.49999999999992
51
85.9349488229219
0
ARC
8
0
10
1.9747741353483905
20
12.751521543982731
40
0.555
50
-40.93494882292178
51
22.499999999999893
0
ARC
8
0
10
1.6641633461993397
20
13.071451615575885
40
1
50
-62.401156223881635
51
-43.12301675993746
0
ARC
8
0
10
2.202285928783081
20
12.055245183037187
40
0.15
50
119.9314079711723
51
-157.50000000000014
0
ARC
8
0
10
20.35871333618028
20
20.36562771133866
40
20.117832715762603
50
-155.42155563733235
51
-153.95344436266748
0
ARC
8
0
10
2.416385158702685
20
11.602570394484221
40
0.15
50
-151.875
51
-69.30640797117218
0
ARC
8
0
10
2.8605420013816283
20
10.54192147682999
40
1
50
93.74801675993723
51
113.0261562238814
0
ARC
8
0
10
2.810282110319963
20
10.984988352590145
40
0.555
50
28.125000000000135
51
91.55994882292173
0
ARC
8
0
10
2.810282110319963
20
10.984988352590145
40
0.555
50
-35.30994882292173
51
28.125000000000135
0
ARC
8
0
10
2.4698083662962365
20
11.272932692134892
40
1
50
-56.77615622388145
51
-37.498016759937244
0
ARC
8
0
10
3.1049453900629236
20
10.31436480801796
40
0.15
50
125.55640797117265
51
-151.87500000000009
0
ARC
8
0
10
20.35938470636831
20
20.364371666061263
40
20.117832715762603
50
-149.79655563733277
51
-148.32844436266797
0
ARC
8
0
10
3.3623835619444336
20
9.884855166563971
40
0.15
50
-146.2499999999999
51
-63.68140797117242
0
ARC
8
0
10
3.9083634418275777
20
8.872848546930282
40
1
50
99.37301675993744
51
118.65115622388166
0
ARC
8
0
10
3.8149174177420355
20
9.308855603786016
40
0.555
50
33.750000000000014
51
97.18494882292194
0
ARC
8
0
10
3.8149174177420346
20
9.308855603786016
40
0.555
50
-29.684948822921807
51
33.749999999999964
0
ARC
8
0
10
3.447859667120462
20
9.56204114988616
40
1
50
-51.15115622388158
51
-31.873016759937364
0
ARC
8
0
10
4.173894415330004
20
8.67034334692154
40
0.15
50
131.18140797117258
51
-146.2499999999999
0
ARC
8
0
10
20.360175957691382
20
20.363187474771436
40
20.117832715762603
50
-144.17155563733215
51
-142.70344436266734
0
ARC
8
0
10
4.472192258848189
20
8.268135265207585
40
0.15
50
-140.62499999999883
51
-58.05640797117216
0
ARC
8
0
10
5.114737091229293
20
7.314517120560597
40
1
50
104.99801675993729
51
124.27615622388149
0
ARC
8
0
10
4.979004870414611
20
7.739265372208688
40
0.555
50
39.37499999999995
51
102.80994882292161
0
ARC
8
0
10
4.979004870414613
20
7.739265372208687
40
0.555
50
-24.059948822921648
51
39.37500000000021
0
ARC
8
0
10
4.588898079987859
20
7.955253809649983
40
1
50
-45.526156223881635
51
-26.24801675993744
0
ARC
8
0
10
5.398838441124033
20
7.139013625131831
40
0.15
50
136.80640797117263
51
-140.62500000000006
0
ARC
8
0
10
20.36107946996715
20
20.362086541878003
40
20.117832715762603
50
-138.5465556373327
51
-137.07844436266785
0
ARC
8
0
10
5.735123184979626
20
6.767980586854097
40
0.15
50
-135
51
-52.43140797117258
0
ARC
8
0
10
6.468044911872126
20
5.8819347812274705
40
1
50
110.62301675993737
51
129.90115622388151
0
ARC
8
0
10
6.291333669813532
20
6.291333669813535
40
0.555
50
45
51
108.43494882292192
0
ARC
8
0
10
6.291333669813531
20
6.291333669813534
40
0.555
50
-18.434948822921807
51
45
0
ARC
8
0
10
5.881934781227468
20
6.4680449118721315
40
1
50
-39.90115622388165
51
-20.62301675993747
0
ARC
8
0
10
6.767980586854093
20
5.73512318497963
40
0.15
50
142.43140797117258
51
-135
0
ARC
8
0
10
20.362086541878025
20
20.36107946996713
40
20.117832715762603
50
-132.92155563733223
51
-131.4534443626674
0
ARC
8
0
10
7.139013625131833
20
5.398838441124029
40
0.15
50
-129.37499999999994
51
-46.80640797117264
0
ARC
8
0
10
7.955253809649984
20
4.588898079987856
40
1
50
116.2480167599374
51
135.5261562238816
0
ARC
8
0
10
7.73926537220869
20
4.9790048704146095
40
0.555
50
50.62500000000006
51
114.05994882292181
0
ARC
8
0
10
7.739265372208691
20
4.9790048704146095
40
0.555
50
-12.809948822921793
51
50.62500000000013
0
ARC
8
0
10
7.314517120560599
20
5.11473709122929
40
1
50
-34.27615622388148
51
-14.998016759937284
0
ARC
8
0
10
8.268135265207587
20
4.472192258848186
40
0.15
50
148.05640797117246
51
-129.37500000000097
0
ARC
8
0
10
20.363187474771394
20
20.360175957691418
40
20.117832715762603
50
-127.29655563733247
51
-125.82844436266774
0
ARC
8
0
10
8.670343346921525
20
4.173894415330015
40
0.15
50
-123.75000000000011
51
-41.18140797117257
0
ARC
8
0
10
9.562041149886145
20
3.447859667120473
40
1
50
121.87301675993739
51
141.15115622388157
0
ARC
8
0
10
9.308855603786
20
3.814917417742044
40
0.555
50
56.24999999999961
51
119.6849488229216
0
ARC
8
0
10
9.308855603786002
20
3.8149174177420435
40
0.555
50
-7.184948822921664
51
56.249999999999794
0
ARC
8
0
10
8.872848546930266
20
3.9083634418275888
40
1
50
-28.651156223881593
51
-9.373016759937428
0
ARC
8
0
10
9.884855166563957
20
3.362383561944445
40
0.15
50
153.68140797117258
51
-123.75000000000011
0
ARC
8
0
10
20.364371666061388
20
20.35938470636824
40
20.117832715762603
50
-121.67155563733253
51
-120.20344436266765
0
ARC
8
0
10
10.314364808017956
20
3.1049453900629236
40
0.15
50
-118.12499999999994
51
-35.556407971172625
0
ARC
8
0
10
11.272932692134889
20
2.4698083662962365
40
1
50
127.49801675993727
51
146.77615622388146
0
ARC
8
0
10
10.984988352590143
20
2.8102821103199647
40
0.555
50
61.87500000000028
51
125.30994882292201
0
ARC
8
0
10
10.984988352590142
20
2.8102821103199656
40
0.555
50
-1.5599488229219838
51
61.875000000000064
0
ARC
8
0
10
10.541921476829986
20
2.8605420013816283
40
1
50
-23.0261562238814
51
-3.748016759937221
0
ARC
8
0
10
11.602570394484218
20
2.416385158702685
40
0.15
50
159.30640797117218
51
-118.12500000000001
0
ARC
8
0
10
20.36562771133853
20
20.35871333618034
40
20.117832715762603
50
-116.0465556373321
51
-114.57844436266728
0
ARC
8
0
10
12.055245183037181
20
2.202285928783085
40
0.15
50
-112.49999999999987
51
-29.93140797117231
0
ARC
8
0
10
13.07145161557588
20
1.6641633461993433
40
1
50
133.12301675993746
51
152.4011562238816
0
ARC
8
0
10
12.751521543982726
20
1.974774135348394
40
0.555
50
67.50000000000011
51
130.93494882292177
0
ARC
8
0
10
12.751521543982726
20
1.9747741353483943
40
0.555
50
4.065051177078155
51
67.5000000000001
0
ARC
8
0
10
12.305661825536712
20
1.9813638631604082
40
1
50
-17.40115622388145
51
1.8769832400627455
0
ARC
8
0
10
13.404738412324797
20
1.6433075308814902
40
0.15
50
164.93140797117266
51
-112.49999999999982
0
ARC
8
0
10
20.36694351420048
20
20.358168312789505
40
20.117832715762603
50
-110.42155563733239
51
-108.9534443626676
0
ARC
8
0
10
13.876218842305734
20
1.4746091355464792
40
0.15
50
-106.87499999999999
51
-24.306407971172618
0
ARC
8
0
10
14.940277199805902
20
1.038683408783687
40
1
50
138.7480167599373
51
158.0261562238815
0
ARC
8
0
10
14.591442497645355
20
1.3164398913614281
40
0.555
50
73.12499999999996
51
136.55994882292157
0
ARC
8
0
10
14.591442497645357
20
1.3164398913614277
40
0.555
50
9.690051177078441
51
73.12500000000014
0
ARC
8
0
10
14.147083809333832
20
1.279295993242654
40
1
50
-11.776156223881536
51
7.501983240062646
0
ARC
8
0
10
15.274003356908624
20
1.050595838643994
40
0.15
50
170.55640797117263
51
-106.87499999999997
0
ARC
8
0
10
20.36830640274607
20
20.357754885069077
40
20.117832715762603
50
-104.79655563733236
51
-103.32844436266757
0
ARC
8
0
10
15.759748814039419
20
0.9289229356605657
40
0.15
50
-101.25000000000054
51
-18.681407971172575
0
ARC
8
0
10
16.861411632844863
20
0.5993922677686915
40
1
50
144.37301675993717
51
163.65115622388137
0
ARC
8
0
10
16.487031768991177
20
0.8416194970107621
40
0.555
50
78.75000000000003
51
142.1849488229215
0
ARC
8
0
10
16.487031768991177
20
0.841619497010762
40
0.555
50
15.315051177078475
51
78.75000000000003
0
ARC
8
0
10
16.048453527893752
20
0.761099689005001
40
1
50
-6.151156223881576
51
13.126983240062632
0
ARC
8
0
10
17.192363184975214
20
0.6439582195956066
40
0.15
50
176.1814079711724
51
-101.25000000000055
0
ARC
8
0
10
20.36970325161382
20
20.357477034553924
40
20.117832715762603
50
-99.1715556373327
51
-97.70344436266784
0
ARC
8
0
10
17.687695674968236
20
0.5704825855326606
40
0.15
50
-95.6249999999997
51
-13.056407971172703
0
ARC
8
0
10
18.816353339903703
20
0.35052053698328767
40
1
50
149.9980167599369
51
169.27615622388115
0
ARC
8
0
10
18.42003379710264
20
0.5548857322572197
40
0.555
50
84.37500000000003
51
147.80994882292183
0
ARC
8
0
10
18.420033797102636
20
0.55488573225722
40
0.555
50
20.94005117707803
51
84.37499999999964
0
ARC
8
0
10
17.991459751432338
20
0.4317654641321623
40
1
50
-0.5261562238812951
51
18.75198324006293
0
ARC
8
0
10
19.14134304269815
20
0.42731081629849316
40
0.15
50
-178.19359202882745
51
-95.6249999999997
0
ARC
8
0
10
20.37112060838518
20
20.357337437096454
40
20.117832715762603
50
-93.54655563733233
51
-92.07844436266754
0
ARC
8
0
10
19.641492242898444
20
0.40274006167793475
40
0.15
50
-89.99999999999865
51
-7.431407971172503
0
ARC
8
0
10
20.78627516366357
20
0.29446498724208414
40
1
50
155.6230167599369
51
174.90115622388112
0
ARC
8
0
10
20.3718327157626
20
0.45900000000000263
40
0.555
50
90
51
153.43494882292168
0
ARC
8
0
10
20.3718327157626
20
0.45900000000000285
40
0.555
50
26.565051177078306
51
90
0
ARC
8
0
10
19.95739026786163
20
0.2944649872420843
40
1
50
5.098843776118894
51
24.376983240063108
0
ARC
8
0
10
21.102173188626757
20
0.4027400616779348
40
0.15
50
-172.56859202882757
51
-90.00000000000136
0
ARC
8
0
10
20.372544823140036
20
20.357337437096454
40
20.117832715762603
50
-87.92155563733252
51
-86.45344436266771
0
ARC
8
0
10
21.60232238882705
20
0.4273108162984932
40
0.15
50
-84.37500000000031
51
-1.8064079711725372
0
ARC
8
0
10
22.752205680092864
20
0.4317654641321628
40
1
50
161.2480167599371
51
-179.4738437761187
0
ARC
8
0
10
22.323631634422565
20
0.55488573225722
40
0.555
50
95.62500000000036
51
159.05994882292197
0
ARC
8
0
10
22.32363163442256
20
0.5548857322572197
40
0.555
50
32.19005117707816
51
95.625
0
ARC
8
0
10
21.9273120916215
20
0.3505205369832879
40
1
50
10.72384377611884
51
30.00198324006309
0
ARC
8
0
10
23.055969756556966
20
0.5704825855326603
40
0.15
50
-166.94359202882728
51
-84.37500000000031
0
ARC
8
0
10
20.373962179911473
20
20.357477034553934
40
20.117832715762603
50
-82.29655563733243
51
-80.82844436266757
0
ARC
8
0
10
23.551302246549987
20
0.643958219595603
40
0.15
50
-78.74999999999946
51
3.8185920288276023
0
ARC
8
0
10
24.69521190363145
20
0.7610996890049981
40
1
50
166.8730167599374
51
-173.8488437761184
0
ARC
8
0
10
24.256633662534025
20
0.8416194970107621
40
0.555
50
101.24999999999999
51
164.68494882292188
0
ARC
8
0
10
24.25663366253402
20
0.8416194970107618
40
0.555
50
37.815051177078
51
101.24999999999962
0
ARC
8
0
10
23.882253798680342
20
0.5993922677686828
40
1
50
16.348843776118944
51
35.6269832400632
0
ARC
8
0
10
24.983916617485786
20
0.9289229356605623
40
0.15
50
-161.3185920288276
51
-78.75000000000082
0
ARC
8
0
10
20.37535902877915
20
20.357754885069077
40
20.117832715762603
50
-76.6715556373325
51
-75.20344436266772
0
ARC
8
0
10
25.46966207461658
20
1.05059583864399
40
0.15
50
-73.12499999999999
51
9.443592028827654
0
ARC
8
0
10
26.59658162219137
20
1.2792959932426509
40
1
50
172.49801675993737
51
-168.22384377611846
0
ARC
8
0
10
26.152222933879845
20
1.3164398913614277
40
0.555
50
106.87499999999987
51
170.30994882292188
0
ARC
8
0
10
26.152222933879845
20
1.3164398913614273
40
0.555
50
43.44005117707814
51
106.87499999999986
0
ARC
8
0
10
25.803388231719296
20
1.0386834087836871
40
1
50
21.973843776118283
51
41.251983240062415
0
ARC
8
0
10
26.867446589219465
20
1.4746091355464757
40
0.15
50
-155.69359202882745
51
-73.12500000000001
0
ARC
8
0
10
20.376721917324755
20
20.358168312789516
40
20.117832715762603
50
-71.04655563733252
51
-69.57844436266767
0
ARC
8
0
10
27.338927019200423
20
1.6433075308814922
40
0.15
50
-67.49999999999939
51
15.068592028828043
0
ARC
8
0
10
28.43800360598851
20
1.9813638631604067
40
1
50
178.12301675993697
51
-162.5988437761189
0
ARC
8
0
10
27.992143887542493
20
1.974774135348398
40
0.555
50
112.49999999999991
51
175.93494882292185
0
ARC
8
0
10
27.992143887542493
20
1.9747741353483979
40
0.555
50
49.0650511770782
51
112.49999999999991
0
ARC
8
0
10
27.672213815949345
20
1.6641633461993437
40
1
50
27.59884377611865
51
46.8769832400629
0
ARC
8
0
10
28.68842024848804
20
2.2022859287830894
40
0.15
50
-150.06859202882742
51
-67.5000000000009
0
ARC
8
0
10
20.378037720186587
20
20.358713336180298
40
20.117832715762603
50
-65.42155563733242
51
-63.95344436266759
0
ARC
8
0
10
29.141095037040987
20
2.4163851587026848
40
0.15
50
-61.87499999999924
51
20.69359202882799
0
ARC
8
0
10
30.201743954695218
20
2.8605420013816336
40
1
50
-176.25198324006246
51
-156.9738437761183
0
ARC
8
0
10
29.75867707893506
20
2.8102821103199616
40
0.555
50
118.1249999999999
51
-178.44005117707846
0
ARC
8
0
10
29.758677078935065
20
2.810282110319963
40
0.555
50
54.690051177078416
51
118.12500000000031
0
ARC
8
0
10
29.470732739390307
20
2.469808366296242
40
1
50
33.22384377611813
51
52.50198324006217
0
ARC
8
0
10
30.429300623507245
20
3.104945390062923
40
0.15
50
-144.4435920288275
51
-61.874999999999396
0
ARC
8
0
10
20.379293765463906
20
20.35938470636829
40
20.117832715762603
50
-59.79655563733265
51
-58.32844436266784
0
ARC
8
0
10
30.858810264961228
20
3.3623835619444296
40
0.15
50
-56.2499999999997
51
26.318592028828178
0
ARC
8
0
10
31.87081688459492
20
3.90836344182757
40
1
50
-170.62698324006283
51
-151.34884377611868
0
ARC
8
0
10
31.434809827739183
20
3.8149174177420315
40
0.555
50
123.74999999999999
51
-172.81505117707812
0
ARC
8
0
10
31.434809827739183
20
3.8149174177420315
40
0.555
50
60.315051177078004
51
123.74999999999999
0
ARC
8
0
10
31.18162428163904
20
3.4478596671204613
40
1
50
38.848843776118244
51
58.12698324006238
0
ARC
8
0
10
32.07332208460366
20
4.173894415330002
40
0.15
50
-138.8185920288269
51
-56.25000000000139
0
ARC
8
0
10
20.380477956753836
20
20.360175957691432
40
20.117832715762603
50
-54.17155563733241
51
-52.70344436266756
0
ARC
8
0
10
32.475530166317625
20
4.472192258848195
40
0.15
50
-50.62500000000022
51
31.943592028826256
0
ARC
8
0
10
33.429148310964614
20
5.114737091229301
40
1
50
-165.00198324006246
51
-145.72384377611826
0
ARC
8
0
10
33.004400059316524
20
4.979004870414611
40
0.555
50
129.37499999999903
51
-167.19005117707877
0
ARC
8
0
10
33.00440005931653
20
4.979004870414616
40
0.555
50
65.94005117707871
51
129.3749999999999
0
ARC
8
0
10
32.78841162187523
20
4.588898079987864
40
1
50
44.47384377611823
51
63.75198324006236
0
ARC
8
0
10
33.604651806393385
20
5.398838441124035
40
0.15
50
-133.19359202882856
51
-50.62499999999936
0
ARC
8
0
10
20.381578889647038
20
20.361079469967002
40
20.117832715762603
50
-48.54655563733203
51
-47.07844436266724
0
ARC
8
0
10
33.97568484467111
20
5.73512318497963
40
0.15
50
-45.00000000000144
51
37.5685920288253
0
ARC
8
0
10
34.86173065029772
20
6.468044911872145
40
1
50
-159.37698324006152
51
-140.0988437761171
0
ARC
8
0
10
34.45233176171167
20
6.291333669813526
40
0.555
50
134.9999999999994
51
-161.56505117707871
0
ARC
8
0
10
34.45233176171167
20
6.29133366981353
40
0.555
50
71.5650511770784
51
134.9999999999997
0
ARC
8
0
10
34.275620519653074
20
5.881934781227466
40
1
50
50.09884377611846
51
69.37698324006281
0
ARC
8
0
10
35.008542246545574
20
6.767980586854095
40
0.15
50
-127.56859202882647
51
-45.00000000000096
0
ARC
8
0
10
20.38258596155826
20
20.36208654187823
40
20.117832715762603
50
-42.921555637333036
51
-41.453444362668215
0
ARC
8
0
10
35.34482699040117
20
7.139013625131816
40
0.15
50
-39.374999999998735
51
43.1935920288288
0
ARC
8
0
10
36.15476735153735
20
7.955253809649955
40
1
50
-153.7519832400636
51
-134.4738437761196
0
ARC
8
0
10
35.76466056111059
20
7.739265372208678
40
0.555
50
140.62500000000009
51
-155.94005117707795
0
ARC
8
0
10
35.76466056111059
20
7.739265372208676
40
0.555
50
77.19005117707832
51
140.62499999999994
0
ARC
8
0
10
35.62892834029591
20
7.314517120560586
40
1
50
55.723843776118535
51
75.00198324006271
0
ARC
8
0
10
36.27147317267701
20
8.268135265207569
40
0.15
50
-121.94359202882914
51
-39.374999999999254
0
ARC
8
0
10
20.38348947383372
20
20.363187474771294
40
20.117832715762603
50
-37.2965556373322
51
-35.82844436266735
0
ARC
8
0
10
36.569771016195205
20
8.670343346921543
40
0.15
50
-33.750000000000306
51
48.81859202882596
0
ARC
8
0
10
37.29580576440475
20
9.562041149886165
40
1
50
-148.12698324006246
51
-128.84884377611817
0
ARC
8
0
10
36.92874801378318
20
9.30885560378602
40
0.555
50
146.25000000000043
51
-150.31505117707817
0
ARC
8
0
10
36.92874801378317
20
9.308855603786018
40
0.555
50
82.81505117707775
51
146.24999999999986
0
ARC
8
0
10
36.835301989697626
20
8.872848546930284
40
1
50
61.34884377611816
51
80.62698324006227
0
ARC
8
0
10
37.381281869580775
20
9.884855166563971
40
0.15
50
-116.31859202882802
51
-33.74999999999917
0
ARC
8
0
10
20.3842807251569
20
20.364371666061267
40
20.117832715762603
50
-31.67155563733206
51
-30.20344436266727
0
ARC
8
0
10
37.63872004146228
20
10.314364808017952
40
0.15
50
-28.124999999998607
51
54.443592028827084
0
ARC
8
0
10
38.27385706522897
20
11.272932692134889
40
1
50
-142.50198324006269
51
-123.22384377611847
0
ARC
8
0
10
37.93338332120524
20
10.984988352590138
40
0.555
50
151.87499999999966
51
-144.6900511770785
0
ARC
8
0
10
37.93338332120524
20
10.98498835259014
40
0.555
50
88.44005117707826
51
151.8749999999998
0
ARC
8
0
10
37.88312343014357
20
10.541921476829984
40
1
50
66.97384377611849
51
86.25198324006242
0
ARC
8
0
10
38.32728027282252
20
11.602570394484216
40
0.15
50
-110.69359202882958
51
-28.125000000000483
0
ARC
8
0
10
20.38495209534508
20
20.36562771133898
40
20.117832715762603
50
-26.046555637333547
51
-24.57844436266869
0
ARC
8
0
10
38.54137950274213
20
12.055245183037178
40
0.15
50
-22.499999999999172
51
60.068592028829066
0
ARC
8
0
10
39.07950208532587
20
13.071451615575876
40
1
50
-136.87698324006263
51
-117.5988437761185
0
ARC
8
0
10
38.76889129617682
20
12.751521543982728
40
0.555
50
157.50000000000028
51
-139.06505117707783
0
ARC
8
0
10
38.76889129617682
20
12.751521543982724
40
0.555
50
94.0650511770783
51
157.49999999999994
0
ARC
8
0
10
38.762301568364805
20
12.30566182553671
40
1
50
72.59884377611864
51
91.87698324006288
0
ARC
8
0
10
39.10035790064372
20
13.404738412324795
40
0.15
50
-105.06859202882762
51
-22.4999999999998
0
ARC
8
0
10
20.385497118735692
20
20.36694351420045
40
20.117832715762603
50
-20.421555637332293
51
-18.953444362667554
0
ARC
8
0
10
39.26905629597873
20
13.876218842305716
40
0.15
50
-16.87500000000023
51
65.69359202882778
0
ARC
8
0
10
39.70498202274151
20
14.940277199805886
40
1
50
-131.25198324006243
51
-111.97384377611803
0
ARC
8
0
10
39.427225540163775
20
14.591442497645334
40
0.555
50
163.1249999999993
51
-133.44005117707874
0
ARC
8
0
10
39.42722554016378
20
14.591442497645339
40
0.555
50
99.69005117707898
51
163.125
0
ARC
8
0
10
39.464369438282546
20
14.147083809333814
40
1
50
78.2238437761184
51
97.50198324006237
0
ARC
8
0
10
39.69306959288121
20
15.274003356908606
40
0.15
50
-99.44359202882788
51
-16.87500000000023
0
ARC
8
0
10
20.38591054645616
20
20.36830640274619
40
20.117832715762603
50
-14.796555637332748
51
-13.328444362667899
0
ARC
8
0
10
39.81474249586464
20
15.759748814039419
40
0.15
50
-11.250000000000522
51
71.31859202882735
0
ARC
8
0
10
40.14427316375652
20
16.86141163284486
40
1
50
-125.6269832400631
51
-106.34884377611903
0
ARC
8
0
10
39.90204593451445
20
16.487031768991177
40
0.555
50
168.75000000000006
51
-127.8150511770783
0
ARC
8
0
10
39.90204593451445
20
16.487031768991177
40
0.555
50
105.31505117707854
51
168.75000000000006
0
ARC
8
0
10
39.98256574252021
20
16.048453527893752
40
1
50
83.84884377611836
51
103.12698324006266
0
ARC
8
0
10
40.099707211929605
20
17.192363184975214
40
0.15
50
-93.81859202882812
51
-11.250000000000522
0
ARC
8
0
10
20.386188396971267
20
20.369703251613693
40
20.117832715762603
50
-9.171555637332327
51
-7.703444362667481
0
ARC
8
0
10
40.17318284599255
20
17.687695674968232
40
0.15
50
-5.624999999999773
51
76.94359202882775
0
ARC
8
0
10
40.39314489454192
20
18.8163533399037
40
1
50
-120.00198324006313
51
-100.72384377611877
0
ARC
8
0
10
40.18877969926799
20
18.420033797102636
40
0.555
50
174.37500000000003
51
-122.19005117707839
0
ARC
8
0
10
40.18877969926799
20
18.420033797102636
40
0.555
50
110.94005117707857
51
174.37500000000003
0
ARC
8
0
10
40.311899967393046
20
17.991459751432334
40
1
50
89.47384377611867
51
108.75198324006311
0
ARC
8
0
10
40.316354615226714
20
19.141343042698146
40
0.15
50
-88.19359202882683
51
-5.624999999999773
0
ARC
8
0
10
20.38632799442876
20
20.371120608385347
40
20.117832715762603
50
-3.5465556373328093
51
-2.0784443626679994
0
ENDSEC
0
EOF