0
SECTION
2
HEADER
9
$INSUNITS
70
4
0
ENDSEC
0
SECTION
2
ENTITIES
0
CIRCLE
8
0
10
4.138028520389279
20
4.138028520389279
40
1.5
0
ARC
8
0
10
7.873316979100624
20
3.407688047525124
40
0.15
50
-1.6962958301138717e-13
51
82.56859202882721
0
ARC
8
0
10
7.981592053536467
20
4.552470968290251
40
1
50
-114.37698324006244
51
-95.09884377611844
0
ARC
8
0
10
7.817057040778557
20
4.138028520389279
40
0.555
50
180
51
-116.56505117707793
0
ARC
8
0
10
7.817057040778557
20
4.138028520389279
40
0.555
50
116.56505117707793
51
180
0
ARC
8
0
10
7.981592053536469
20
3.723586072488307
40
1
50
95.09884377611858
51
114.37698324006256
0
ARC
8
0
10
7.873316979100624
20
4.8683689932534335
40
0.15
50
-82.56859202882754
51
0
0
ARC
8
0
10
4.205428795952544
20
4.154641196277876
40
3.8840285203892786
50
10.588827014628988
51
17.10348067767876
0
ARC
8
0
10
7.784868334929507
20
5.227219248944113
40
0.15
50
27.692307692307704
51
110.26089972113533
0
ARC
8
0
10
7.348734001777277
20
6.291192120245578
40
1
50
-86.68467554775498
51
-67.40653608381102
0
ARC
8
0
10
7.3956464923179785
20
5.847758324424077
40
0.555
50
-152.3076923076923
51
-88.8727434847703
0
ARC
8
0
10
7.3956464923179785
20
5.847758324424077
40
0.555
50
144.25735886938568
51
-152.3076923076923
0
ARC
8
0
10
7.733936019813523
20
5.557250994684813
40
1
50
122.79115146842625
51
142.06929093237025
0
ARC
8
0
10
7.106056052486754
20
6.520587993896075
40
0.15
50
-54.87628433651954
51
27.692307692308002
0
ARC
8
0
10
4.189988205082368
20
4.184060784213455
40
3.8840285203892786
50
38.281134706936534
51
44.795788369986305
0
ARC
8
0
10
6.860972638431293
20
6.797229980622411
40
0.15
50
55.38461538461578
51
137.95320741344298
0
ARC
8
0
10
5.980342017427673
20
7.536649439908141
40
1
50
-58.992367855447235
51
-39.71422839150323
0
ARC
8
0
10
6.227954925040912
20
7.165809634832265
40
0.555
50
-124.61538461538456
51
-61.18043579246242
0
ARC
8
0
10
6.227954925040914
20
7.165809634832264
40
0.555
50
171.94966656169322
51
-124.61538461538476
0
ARC
8
0
10
6.662500913355617
20
7.06578915150513
40
1
50
150.48345916073404
51
169.76159862467802
0
ARC
8
0
10
5.658855786878606
20
7.626991332112588
40
0.15
50
-27.183976644212215
51
55.38461538461549
0
ARC
8
0
10
4.1626442766311
20
4.202934935255817
40
3.8840285203892786
50
65.97344239924439
51
72.48809606229415
0
ARC
8
0
10
5.313283259523583
20
7.758049704612926
40
0.15
50
83.07692307692312
51
165.64551510575058
0
ARC
8
0
10
4.189898213191048
20
8.00352366473104
40
1
50
-31.300060163139616
51
-12.021920699195622
0
ARC
8
0
10
4.581486404801655
20
7.790232780639548
40
0.555
50
-96.92307692307685
51
-33.48812810015478
0
ARC
8
0
10
4.581486404801656
20
7.790232780639548
40
0.555
50
-160.358025745999
51
-96.92307692307693
0
ARC
8
0
10
5.012739604859477
20
7.903612631077291
40
1
50
178.1757668530416
51
-162.5460936830144
0
ARC
8
0
10
3.863252322473152
20
7.934115336723221
40
0.15
50
0.5083310480958889
51
83.07692307692312
0
ARC
8
0
10
4.129661175076831
20
4.206939808859355
40
3.8840285203892786
50
93.66575009155189
51
100.18040375460167
0
ARC
8
0
10
3.4963571832351863
20
7.889566201282341
40
0.15
50
110.76923076923082
51
-166.6621772019416
0
ARC
8
0
10
2.3875716874310977
20
7.584859536251688
40
1
50
-3.6077524708318975
51
15.670386993112102
0
ARC
8
0
10
2.8334270274903712
20
7.577979944256143
40
0.555
50
-69.2307692307692
51
-5.795820407847197
0
ARC
8
0
10
2.8334270274903712
20
7.577979944256143
40
0.555
50
-132.66571805369122
51
-69.2307692307692
0
ARC
8
0
10
3.1625925283225205
20
7.8787861710988
40
1
50
-154.13192545465049
51
-134.85378599070654
0
ARC
8
0
10
2.130596773598123
20
7.371601599517168
40
0.15
50
28.200638740403136
51
110.76923076923082
0
ARC
8
0
10
4.098594931496219
20
4.19515793674545
40
3.8840285203892786
50
121.35805778385969
51
127.87271144690945
0
ARC
8
0
10
1.8264302773108876
20
7.161650626189292
40
0.15
50
138.4615384615383
51
-138.96986950963387
0
ARC
8
0
10
0.9862537268101996
20
6.376567960855006
40
1
50
24.084555221475924
51
43.362694685419896
0
ARC
8
0
10
1.3842361300498802
20
6.577675692573516
40
0.555
50
-41.53846153846151
51
21.896487284460413
0
ARC
8
0
10
1.38423613004988
20
6.577675692573516
40
0.555
50
-104.97341036138351
51
-41.5384615384615
0
ARC
8
0
10
1.5359060822900283
20
6.996997214359444
40
1
50
-126.43961776234295
51
-107.16147829839896
0
ARC
8
0
10
0.8578196457378521
20
6.068315238662923
40
0.15
50
55.89294643271087
51
138.4615384615383
0
ARC
8
0
10
4.07656244790474
20
4.170288403828454
40
3.8840285203892786
50
149.05036547616746
51
155.56501913921718
0
ARC
8
0
10
0.6860626710971034
20
5.741059665253958
40
0.15
50
166.15384615384625
51
-111.27756181732651
0
ARC
8
0
10
0.3069693883944643
20
4.655453976972361
40
1
50
51.77686291378348
51
71.05500237772749
0
ARC
8
0
10
0.5659058824402341
20
5.01847767467911
40
0.555
50
-13.846153846153777
51
49.588794976768185
0
ARC
8
0
10
0.5659058824402341
20
5.018477674679111
40
0.555
50
-77.2811026690759
51
-13.846153846153864
0
ARC
8
0
10
0.5053345278512308
20
5.460252984139303
40
1
50
-98.74731007003528
51
-79.46917060609128
0
ARC
8
0
10
0.3364988402579547
20
4.322823453128908
40
0.15
50
83.58525412501872
51
166.15384615384625
0
ARC
8
0
10
4.068611100772992
20
4.138028520389281
40
3.8840285203892786
50
176.74267316847514
51
-176.7426731684751
0
ARC
8
0
10
0.33649884025795496
20
3.953233587649651
40
0.15
50
-166.15384615384644
51
-83.58525412501878
0
ARC
8
0
10
0.5053345278512312
20
2.8158040566392564
40
1
50
79.46917060609134
51
98.74731007003528
0
ARC
8
0
10
0.5659058824402332
20
3.2575793660994488
40
0.555
50
13.84615384615382
51
77.28110266907582
0
ARC
8
0
10
0.5659058824402331
20
3.2575793660994488
40
0.555
50
-49.58879497676817
51
13.846153846153818
0
ARC
8
0
10
0.3069693883944655
20
3.6206030638061986
40
1
50
-71.05500237772763
51
-51.77686291378362
0
ARC
8
0
10
0.686062671097102
20
2.5349973755246014
40
0.15
50
111.27756181732633
51
-166.15384615384625
0
ARC
8
0
10
4.07656244790474
20
4.1057686369501045
40
3.8840285203892786
50
-155.5650191392172
51
-149.05036547616749
0
ARC
8
0
10
0.8578196457378503
20
2.2077418021156365
40
0.15
50
-138.4615384615385
51
-55.89294643271098
0
ARC
8
0
10
1.5359060822900261
20
1.2790598264191155
40
1
50
107.16147829839893
51
126.43961776234295
0
ARC
8
0
10
1.384236130049878
20
1.6983813482050438
40
0.555
50
41.53846153846151
51
104.97341036138347
0
ARC
8
0
10
1.3842361300498778
20
1.698381348205044
40
0.555
50
-21.896487284460523
51
41.53846153846148
0
ARC
8
0
10
0.9862537268101973
20
1.899489079923553
40
1
50
-43.36269468541992
51
-24.084555221475927
0
ARC
8
0
10
1.8264302773108851
20
1.114406414589267
40
0.15
50
138.969869509634
51
-138.4615384615386
0
ARC
8
0
10
4.098594931496221
20
4.080899104033106
40
3.8840285203892786
50
-127.87271144690956
51
-121.35805778385976
0
ARC
8
0
10
2.1305967735981204
20
0.9044554412613909
40
0.15
50
-110.76923076923076
51
-28.200638740403438
0
ARC
8
0
10
3.162592528322518
20
0.39727086967975944
40
1
50
134.85378599070657
51
154.13192545465054
0
ARC
8
0
10
2.833427027490368
20
0.6980770965224159
40
0.555
50
69.2307692307692
51
132.6657180536912
0
ARC
8
0
10
2.833427027490368
20
0.6980770965224159
40
0.555
50
5.795820407847174
51
69.2307692307692
0
ARC
8
0
10
2.387571687431094
20
0.6911975045268742
40
1
50
-15.670386993112333
51
3.6077524708316604
0
ARC
8
0
10
3.496357183235182
20
0.38649083949621765
40
0.15
50
166.66217720194177
51
-110.76923076923059
0
ARC
8
0
10
4.129661175076846
20
4.069117231919201
40
3.8840285203892786
50
-100.18040375460197
51
-93.66575009155223
0
ARC
8
0
10
3.863252322473144
20
0.34194170405533547
40
0.15
50
-83.07692307692311
51
-0.5083310480956555
0
ARC
8
0
10
5.012739604859469
20
0.37244440970126436
40
1
50
162.54609368301425
51
-178.17576685304172
0
ARC
8
0
10
4.581486404801649
20
0.4858242601390079
40
0.555
50
96.92307692307685
51
160.35802574599884
0
ARC
8
0
10
4.581486404801649
20
0.48582426013900804
40
0.555
50
33.488128100154796
51
96.92307692307685
0
ARC
8
0
10
4.1898982131910385
20
0.27253337604752226
40
1
50
12.0219206991953
51
31.300060163139243
0
ARC
8
0
10
5.313283259523575
20
0.5180073361656303
40
0.15
50
-165.64551510575063
51
-83.07692307692312
0
ARC
8
0
10
4.162644276631106
20
4.073122105522745
40
3.8840285203892786
50
-72.48809606229437
51
-65.97344239924462
0
ARC
8
0
10
5.658855786878598
20
0.6490657086659659
40
0.15
50
-55.38461538461537
51
27.18397664421218
0
ARC
8
0
10
6.6625009133556095
20
1.2102678892734224
40
1
50
-169.76159862467813
51
-150.48345916073416
0
ARC
8
0
10
6.2279549250409065
20
1.1102474059462875
40
0.555
50
124.61538461538451
51
-171.94966656169345
0
ARC
8
0
10
6.2279549250409065
20
1.1102474059462872
40
0.555
50
61.1804357924625
51
124.61538461538451
0
ARC
8
0
10
5.980342017427665
20
0.7394076008704135
40
1
50
39.714228391503134
51
58.99236785544709
0
ARC
8
0
10
6.860972638431286
20
1.478827060156142
40
0.15
50
-137.95320741344304
51
-55.38461538461578
0
ARC
8
0
10
4.189988205082383
20
4.091996256565119
40
3.8840285203892786
50
-44.79578836998676
51
-38.28113470693694
0
ARC
8
0
10
7.1060560524867515
20
1.7554690468824772
40
0.15
50
-27.692307692307853
51
54.87628433651992
0
ARC
8
0
10
7.7339360198135205
20
2.718806046093738
40
1
50
-142.06929093237034
51
-122.79115146842635
0
ARC
8
0
10
7.395646492317976
20
2.4282987163544756
40
0.555
50
152.30769230769224
51
-144.25735886938583
0
ARC
8
0
10
7.395646492317976
20
2.4282987163544756
40
0.555
50
88.8727434847702
51
152.30769230769224
0
ARC
8
0
10
7.348734001777271
20
1.9848649205329754
40
1
50
67.40653608381074
51
86.68467554775472
0
ARC
8
0
10
7.784868334929505
20
3.048837791834438
40
0.15
50
-110.26089972113533
51
-27.692307692307853
0
ARC
8
0
10
4.20542879595255
20
4.121415844500697
40
3.8840285203892786
50
-17.103480677679116
51
-10.588827014629402
0
ENDSEC
0
EOF