0
SECTION
2
HEADER
9
$INSUNITS
70
4
0
ENDSEC
0
SECTION
2
ENTITIES
0
CIRCLE
8
0
10
5.092958178940651
20
5.092958178940651
40
1.5
0
ARC
8
0
10
9.783176296203367
20
4.362617706076496
40
0.15
50
0
51
82.56859202882754
0
ARC
8
0
10
9.891451370639212
20
5.507400626841623
40
1
50
-114.37698324006256
51
-95.09884377611858
0
ARC
8
0
10
9.7269163578813
20
5.09295817894065
40
0.555
50
179.99999999999994
51
-116.5650511770781
0
ARC
8
0
10
9.7269163578813
20
5.092958178940651
40
0.555
50
116.56505117707805
51
180
0
ARC
8
0
10
9.891451370639212
20
4.678515731039679
40
1
50
95.09884377611858
51
114.37698324006256
0
ARC
8
0
10
9.783176296203367
20
5.823298651804806
40
0.15
50
-82.56859202882754
51
0
0
ARC
8
0
10
5.147991958686489
20
5.103905078355774
40
4.838958178940651
50
8.54968729144021
51
13.950312708559164
0
ARC
8
0
10
9.705643899444096
20
6.213080331951869
40
0.15
50
22.50000000000011
51
105.06859202882762
0
ARC
8
0
10
9.367587567165177
20
7.312156918739955
40
1
50
-91.87698324006246
51
-72.59884377611856
0
ARC
8
0
10
9.374177294977192
20
6.86629720029394
40
0.555
50
-157.49999999999997
51
-94.06505117707775
0
ARC
8
0
10
9.374177294977194
20
6.866297200293939
40
0.555
50
139.06505117707792
51
-157.50000000000014
0
ARC
8
0
10
9.684788084126247
20
6.54636712870079
40
1
50
117.59884377611858
51
136.87698324006263
0
ARC
8
0
10
9.146665501542502
20
7.562573561239485
40
0.15
50
-60.068592028827375
51
22.50000000000011
0
ARC
8
0
10
5.139613564602654
20
5.124132310983869
40
4.838958178940651
50
31.0496872914407
51
36.45031270855965
0
ARC
8
0
10
8.925871915838355
20
7.8930145139638865
40
0.15
50
45
51
127.56859202882742
0
ARC
8
0
10
8.192950188945858
20
8.779060319590515
40
1
50
-69.3769832400627
51
-50.09884377611868
0
ARC
8
0
10
8.36966143100445
20
8.36966143100445
40
0.555
50
-135
51
-71.56505117707799
0
ARC
8
0
10
8.36966143100445
20
8.36966143100445
40
0.555
50
161.56505117707798
51
-135
0
ARC
8
0
10
8.779060319590515
20
8.192950188945858
40
1
50
140.09884377611868
51
159.37698324006269
0
ARC
8
0
10
7.893014513963886
20
8.925871915838355
40
0.15
50
-37.568592028827204
51
45
0
ARC
8
0
10
5.124132310983859
20
5.139613564602662
40
4.838958178940651
50
53.54968729144021
51
58.95031270855913
0
ARC
8
0
10
7.562573561239485
20
9.146665501542502
40
0.15
50
67.49999999999959
51
150.06859202882737
0
ARC
8
0
10
6.546367128700789
20
9.684788084126245
40
1
50
-46.87698324006247
51
-27.59884377611846
0
ARC
8
0
10
6.866297200293939
20
9.374177294977194
40
0.555
50
-112.49999999999989
51
-49.06505117707784
0
ARC
8
0
10
6.866297200293941
20
9.374177294977192
40
0.555
50
-175.93494882292225
51
-112.50000000000014
0
ARC
8
0
10
7.312156918739955
20
9.36758756716518
40
1
50
162.59884377611854
51
-178.12301675993746
0
ARC
8
0
10
6.21308033195187
20
9.705643899444096
40
0.15
50
-15.068592028826966
51
67.49999999999989
0
ARC
8
0
10
5.1039050783557744
20
5.147991958686489
40
4.838958178940651
50
76.04968729144085
51
81.4503127085598
0
ARC
8
0
10
5.823298651804806
20
9.783176296203367
40
0.15
50
90
51
172.56859202882757
0
ARC
8
0
10
4.678515731039679
20
9.891451370639212
40
1
50
-24.376983240062543
51
-5.098843776118583
0
ARC
8
0
10
5.092958178940652
20
9.7269163578813
40
0.555
50
-90.0000000000001
51
-26.56505117707807
0
ARC
8
0
10
5.09295817894065
20
9.7269163578813
40
0.555
50
-153.4349488229219
51
-89.99999999999991
0
ARC
8
0
10
5.507400626841623
20
9.891451370639212
40
1
50
-174.90115622388143
51
-155.62301675993749
0
ARC
8
0
10
4.362617706076496
20
9.783176296203367
40
0.15
50
7.431407971172463
51
90
0
ARC
8
0
10
5.082011279525528
20
5.147991958686489
40
4.838958178940651
50
98.54968729144021
51
103.95031270855917
0
ARC
8
0
10
3.972836025929433
20
9.705643899444096
40
0.15
50
112.49999999999996
51
-164.93140797117306
0
ARC
8
0
10
2.873759439141348
20
9.36758756716518
40
1
50
-1.8769832400625546
51
17.40115622388146
0
ARC
8
0
10
3.3196191575873617
20
9.374177294977192
40
0.555
50
-67.49999999999993
51
-4.06505117707774
0
ARC
8
0
10
3.319619157587363
20
9.374177294977194
40
0.555
50
-130.93494882292208
51
-67.50000000000013
0
ARC
8
0
10
3.639549229180514
20
9.684788084126247
40
1
50
-152.40115622388146
51
-133.12301675993743
0
ARC
8
0
10
2.623342796641818
20
9.146665501542502
40
0.15
50
29.93140797117262
51
112.49999999999996
0
ARC
8
0
10
5.061784046897426
20
5.139613564602651
40
4.838958178940651
50
121.0496872914406
51
126.45031270855955
0
ARC
8
0
10
2.292901843917416
20
8.925871915838355
40
0.15
50
135.0000000000001
51
-142.43140797117258
0
ARC
8
0
10
1.4068560382907884
20
8.192950188945856
40
1
50
20.62301675993742
51
39.901156223881436
0
ARC
8
0
10
1.8162549268768526
20
8.36966143100445
40
0.555
50
-45.00000000000005
51
18.43494882292202
0
ARC
8
0
10
1.8162549268768524
20
8.36966143100445
40
0.555
50
-108.43494882292202
51
-45.00000000000003
0
ARC
8
0
10
1.992966168935447
20
8.779060319590515
40
1
50
-129.90115622388134
51
-110.62301675993741
0
ARC
8
0
10
1.2600444420429495
20
7.8930145139638865
40
0.15
50
52.431407971172796
51
135.00000000000048
0
ARC
8
0
10
5.046302793278647
20
5.124132310983865
40
4.838958178940651
50
143.54968729144028
51
148.95031270855924
0
ARC
8
0
10
1.0392508563388017
20
7.5625735612394855
40
0.15
50
157.4999999999999
51
-119.9314079711726
0
ARC
8
0
10
0.5011282737550562
20
6.5463671287007905
40
1
50
43.12301675993735
51
62.40115622388136
0
ARC
8
0
10
0.8117390629041088
20
6.866297200293941
40
0.555
50
-22.500000000000004
51
40.93494882292198
0
ARC
8
0
10
0.8117390629041089
20
6.866297200293941
40
0.555
50
-85.93494882292201
51
-22.50000000000001
0
ARC
8
0
10
0.8183287907161251
20
7.312156918739955
40
1
50
-107.40115622388144
51
-88.12301675993747
0
ARC
8
0
10
0.48027245843720673
20
6.21308033195187
40
0.15
50
74.93140797117248
51
157.49999999999986
0
ARC
8
0
10
5.037924399194809
20
5.103905078355746
40
4.838958178940651
50
166.04968729144048
51
171.45031270855944
0
ARC
8
0
10
0.40274006167793375
20
5.823298651804807
40
0.15
50
180
51
-97.43140797117256
0
ARC
8
0
10
0.29446498724208897
20
4.67851573103968
40
1
50
65.62301675993744
51
84.90115622388146
0
ARC
8
0
10
0.4590000000000004
20
5.092958178940652
40
0.555
50
0
51
63.434948822921996
0
ARC
8
0
10
0.4590000000000002
20
5.092958178940652
40
0.555
50
-63.43494882292197
51
0
0
ARC
8
0
10
0.2944649872420892
20
5.507400626841624
40
1
50
-84.90115622388143
51
-65.62301675993746
0
ARC
8
0
10
0.4027400616779339
20
4.362617706076497
40
0.15
50
97.4314079711725
51
180
0
ARC
8
0
10
5.037924399194809
20
5.082011279525552
40
4.838958178940651
50
-171.45031270855952
51
-166.0496872914406
0
ARC
8
0
10
0.4802724584372059
20
3.972836025929436
40
0.15
50
-157.49999999999986
51
-74.9314079711725
0
ARC
8
0
10
0.8183287907161227
20
2.87375943914135
40
1
50
88.12301675993741
51
107.40115622388136
0
ARC
8
0
10
0.8117390629041076
20
3.319619157587365
40
0.555
50
22.499999999999904
51
85.934948822922
0
ARC
8
0
10
0.8117390629041077
20
3.3196191575873644
40
0.555
50
-40.93494882292193
51
22.49999999999995
0
ARC
8
0
10
0.5011282737550563
20
3.6395492291805165
40
1
50
-62.40115622388145
51
-43.12301675993744
0
ARC
8
0
10
1.0392508563388003
20
2.62334279664182
40
0.15
50
119.9314079711724
51
-157.49999999999997
0
ARC
8
0
10
5.046302793278656
20
5.061784046897423
40
4.838958178940651
50
-148.95031270855947
51
-143.5496872914405
0
ARC
8
0
10
1.2600444420429482
20
2.2929018439174165
40
0.15
50
-135.0000000000001
51
-52.43140797117267
0
ARC
8
0
10
1.9929661689354465
20
1.4068560382907886
40
1
50
110.62301675993747
51
129.9011562238814
0
ARC
8
0
10
1.8162549268768513
20
1.8162549268768524
40
0.555
50
44.999999999999986
51
108.43494882292201
0
ARC
8
0
10
1.8162549268768515
20
1.8162549268768524
40
0.555
50
-18.434948822921992
51
45
0
ARC
8
0
10
1.4068560382907878
20
1.9929661689354479
40
1
50
-39.90115622388145
51
-20.62301675993746
0
ARC
8
0
10
2.2929018439174147
20
1.2600444420429482
40
0.15
50
142.43140797117235
51
-135.00000000000017
0
ARC
8
0
10
5.061784046897413
20
5.046302793278662
40
4.838958178940651
50
-126.4503127085594
51
-121.04968729144042
0
ARC
8
0
10
2.623342796641819
20
1.0392508563388017
40
0.15
50
-112.5
51
-29.93140797117251
0
ARC
8
0
10
3.639549229180514
20
0.5011282737550562
40
1
50
133.12301675993737
51
152.40115622388134
0
ARC
8
0
10
3.319619157587363
20
0.8117390629041085
40
0.555
50
67.5
51
130.93494882292197
0
ARC
8
0
10
3.319619157587363
20
0.8117390629041084
40
0.555
50
4.065051177078051
51
67.5
0
ARC
8
0
10
2.8737594391413483
20
0.8183287907161244
40
1
50
-17.40115622388141
51
1.8769832400625666
0
ARC
8
0
10
3.9728360259294337
20
0.4802724584372067
40
0.15
50
164.93140797117255
51
-112.5
0
ARC
8
0
10
5.082011279525551
20
5.037924399194809
40
4.838958178940651
50
-103.95031270855944
51
-98.54968729144049
0
ARC
8
0
10
4.362617706076495
20
0.4027400616779343
40
0.15
50
-90
51
-7.431407971172549
0
ARC
8
0
10
5.507400626841622
20
0.29446498724208864
40
1
50
155.62301675993743
51
174.9011562238814
0
ARC
8
0
10
5.09295817894065
20
0.4590000000000001
40
0.555
50
90
51
153.43494882292197
0
ARC
8
0
10
5.09295817894065
20
0.4590000000000002
40
0.555
50
26.565051177078033
51
90
0
ARC
8
0
10
4.6785157310396785
20
0.29446498724208925
40
1
50
5.098843776118551
51
24.37698324006254
0
ARC
8
0
10
5.823298651804805
20
0.4027400616779338
40
0.15
50
-172.56859202882748
51
-90
0
ARC
8
0
10
5.103905078355742
20
5.037924399194808
40
4.838958178940651
50
-81.45031270855942
51
-76.04968729144045
0
ARC
8
0
10
6.21308033195187
20
0.48027245843720756
40
0.15
50
-67.49999999999983
51
15.068592028827497
0
ARC
8
0
10
7.312156918739955
20
0.818328790716126
40
1
50
178.12301675993749
51
-162.59884377611857
0
ARC
8
0
10
6.866297200293941
20
0.8117390629041095
40
0.555
50
112.50000000000003
51
175.93494882292197
0
ARC
8
0
10
6.866297200293941
20
0.8117390629041094
40
0.555
50
49.06505117707804
51
112.50000000000001
0
ARC
8
0
10
6.546367128700789
20
0.5011282737550584
40
1
50
27.598843776118553
51
46.876983240062536
0
ARC
8
0
10
7.562573561239485
20
1.039250856338802
40
0.15
50
-150.0685920288276
51
-67.49999999999949
0
ARC
8
0
10
5.124132310983869
20
5.046302793278649
40
4.838958178940651
50
-58.95031270855929
51
-53.54968729144038
0
ARC
8
0
10
7.893014513963885
20
1.2600444420429486
40
0.15
50
-45.00000000000048
51
37.56859202882721
0
ARC
8
0
10
8.779060319590512
20
1.9929661689354465
40
1
50
-159.37698324006251
51
-140.09884377611857
0
ARC
8
0
10
8.369661431004449
20
1.816254926876851
40
0.555
50
134.99999999999994
51
-161.56505117707803
0
ARC
8
0
10
8.369661431004449
20
1.8162549268768515
40
0.555
50
71.56505117707799
51
134.99999999999997
0
ARC
8
0
10
8.192950188945856
20
1.4068560382907869
40
1
50
50.09884377611868
51
69.3769832400627
0
ARC
8
0
10
8.925871915838353
20
2.292901843917415
40
0.15
50
-127.56859202882751
51
-45.00000000000012
0
ARC
8
0
10
5.1396135646026515
20
5.061784046897431
40
4.838958178940651
50
-36.450312708559636
51
-31.04968729144065
0
ARC
8
0
10
9.146665501542502
20
2.623342796641819
40
0.15
50
-22.499999999999954
51
60.068592028827375
0
ARC
8
0
10
9.684788084126247
20
3.639549229180515
40
1
50
-136.87698324006251
51
-117.59884377611854
0
ARC
8
0
10
9.374177294977194
20
3.319619157587364
40
0.555
50
157.50000000000014
51
-139.06505117707786
0
ARC
8
0
10
9.374177294977192
20
3.319619157587363
40
0.555
50
94.06505117707775
51
157.49999999999997
0
ARC
8
0
10
9.36758756716518
20
2.8737594391413483
40
1
50
72.59884377611866
51
91.87698324006257
0
ARC
8
0
10
9.705643899444096
20
3.9728360259294337
40
0.15
50
-105.06859202882768
51
-22.499999999999954
0
ARC
8
0
10
5.1479919586864895
20
5.082011279525533
40
4.838958178940651
50
-13.950312708559201
51
-8.549687291440272
0
ENDSEC
0
EOF