0
SECTION
2
HEADER
9
$INSUNITS
70
4
9
$ACADVER
1
AC1014
9
$HANDSEED
5
FFFF
0
ENDSEC
0
SECTION
2
TABLES
0
TABLE
2
VPORT
5
8
100
AcDbSymbolTable
0
ENDTAB
0
TABLE
2
LTYPE
5
5
100
AcDbSymbolTable
0
LTYPE
5
14
100
AcDbSymbolTableRecord
100
AcDbLinetypeTableRecord
2
BYBLOCK
70
0
0
LTYPE
5
15
100
AcDbSymbolTableRecord
100
AcDbLinetypeTableRecord
2
BYLAYER
70
0
0
ENDTAB
0
TABLE
2
LAYER
5
2
100
AcDbSymbolTable
70
2
0
LAYER
5
50
100
AcDbSymbolTableRecord
100
AcDbLayerTableRecord
2
0
70
0
6
CONTINUOUS
0
ENDTAB
0
TABLE
2
STYLE
5
3
100
AcDbSymbolTable
70
1
0
STYLE
5
11
100
AcDbSymbolTableRecord
100
AcDbTextStyleTableRecord
2
STANDARD
70
0
0
ENDTAB
0
TABLE
2
VIEW
5
6
100
AcDbSymbolTable
70
0
0
ENDTAB
0
TABLE
2
UCS
5
7
100
AcDbSymbolTable
70
0
0
ENDTAB
0
TABLE
2
APPID
5
9
100
AcDbSymbolTable
70
2
0
APPID
5
12
100
AcDbSymbolTableRecord
100
AcDbRegAppTableRecord
2
ACAD
70
0
0
ENDTAB
0
TABLE
2
DIMSTYLE
5
A
100
AcDbSymbolTable
70
1
0
ENDTAB
0
TABLE
2
BLOCK_RECORD
5
1
100
AcDbSymbolTable
70
1
0
BLOCK_RECORD
5
1F
100
AcDbSymbolTableRecord
100
AcDbBlockTableRecord
2
*MODEL_SPACE
0
BLOCK_RECORD
5
1B
100
AcDbSymbolTableRecord
100
AcDbBlockTableRecord
2
*PAPER_SPACE
0
ENDTAB
0
ENDSEC
0
SECTION
2
BLOCKS
0
BLOCK
5
20
100
AcDbEntity
100
AcDbBlockBegin
2
*MODEL_SPACE
0
ENDBLK
5
21
100
AcDbEntity
100
AcDbBlockEnd
0
BLOCK
5
1C
100
AcDbEntity
100
AcDbBlockBegin
2
*PAPER_SPACE
0
ENDBLK
5
1D
100
AcDbEntity
100
AcDbBlockEnd
0
ENDSEC
0
SECTION
2
ENTITIES
0
CIRCLE
5
100
100
AcDbEntity
8
0
100
AcDbCircle
10
0.86602540378443893
20
-0.49999999999999994
30
0
40
2.4999999999999996
0
LWPOLYLINE
5
101
100
AcDbEntity
8
0
100
AcDbPolyline
90
14
70
1
43
0.0
10
7.2711810380047233
20
-5.1286924190127667
42
-0.20156585822383136
10
7.0369226978829236
20
-5.4372307861107121
10
0.24999999999999306
20
-9.3556624327025943
42
-0.26794919243112264
10
-0.25000000000000688
20
-9.3556624327025943
10
-7.9772413359521721
20
-4.8943375672974039
42
-0.26794919243112192
10
-8.2272413359521721
20
-4.4613248654051842
10
-8.2272413359521668
20
4.4613248654051922
42
-0.26794919243112236
10
-7.9772413359521668
20
4.8943375672974101
10
-0.24999999999999689
20
9.3556624327025943
42
-0.26794919243112297
10
0.25000000000000355
20
9.3556624327025943
10
7.9772413359521703
20
4.8943375672974039
42
-0.2679491924311232
10
8.2272413359521721
20
4.4613248654051834
10
8.227241335952165
20
-3.375538427778598
42
-0.20156585822383274
10
8.0771684420640764
20
-3.7326812849214281
42
0.13684686363816151
0
CIRCLE
5
102
100
AcDbEntity
8
0
100
AcDbCircle
10
2.7755575615628914e-16
20
0
30
0
40
6.2000000000000011
0
CIRCLE
5
103
100
AcDbEntity
8
0
100
AcDbCircle
10
2.7755575615628914e-16
20
0
30
0
40
4
0
LWPOLYLINE
5
104
100
AcDbEntity
8
0
100
AcDbPolyline
90
14
70
1
43
0.0
10
10.799999999999997
20
-27.655662432702599
10
17.586922697882926
20
-23.737230786110715
42
0.20156585822383238
10
17.821181038004724
20
-23.428692419012766
42
-0.13684686363816148
10
18.627168442064075
20
-22.032681284921427
42
0.20156585822383299
10
18.777241335952166
20
-21.675538427778598
10
18.777241335952173
20
-13.838675134594817
42
0.2679491924311232
10
18.527241335952173
20
-13.405662432702597
10
10.800000000000004
20
-8.9443375672974064
42
0.26794919243112303
10
10.300000000000004
20
-8.9443375672974064
10
2.5727586640478348
20
-13.40566243270259
42
0.26794919243112264
10
2.3227586640478357
20
-13.838675134594808
10
2.3227586640478304
20
-22.761324865405186
42
0.26794919243112142
10
2.5727586640478295
20
-23.194337567297403
10
10.299999999999995
20
-27.655662432702599
42
0.26794919243112181
0
CIRCLE
5
105
100
AcDbEntity
8
0
100
AcDbCircle
10
10.550000000000001
20
-18.300000000000001
30
0
40
6.2000000000000011
0
CIRCLE
5
106
100
AcDbEntity
8
0
100
AcDbCircle
10
10.550000000000001
20
-18.300000000000001
30
0
40
4
0
CIRCLE
5
107
100
AcDbEntity
8
0
100
AcDbCircle
10
11.41602540378444
20
-18.800000000000001
30
0
40
2.4999999999999996
0
CIRCLE
5
108
100
AcDbEntity
8
0
100
AcDbCircle
10
21.100000000000001
20
0
30
0
40
6.2000000000000011
0
LWPOLYLINE
5
109
100
AcDbEntity
8
0
100
AcDbPolyline
90
14
70
1
43
0.0
10
29.32724133595217
20
-3.375538427778598
42
-0.20156585822383402
10
29.17716844206408
20
-3.7326812849214273
42
0.13684686363816145
10
28.371181038004728
20
-5.1286924190127667
42
-0.20156585822383077
10
28.136922697882927
20
-5.4372307861107121
10
21.349999999999998
20
-9.3556624327025961
42
-0.2679491924311237
10
20.849999999999994
20
-9.3556624327025943
10
13.122758664047831
20
-4.8943375672974039
42
-0.26794919243112192
10
12.872758664047833
20
-4.4613248654051842
10
12.872758664047836
20
4.4613248654051922
42
-0.26794919243112181
10
13.122758664047836
20
4.8943375672974101
10
20.850000000000009
20
9.3556624327025943
42
-0.26794919243112192
10
21.350000000000009
20
9.3556624327025943
10
29.077241335952174
20
4.8943375672974039
42
-0.26794919243112164
10
29.327241335952174
20
4.4613248654051834
0
CIRCLE
5
110
100
AcDbEntity
8
0
100
AcDbCircle
10
21.100000000000001
20
0
30
0
40
4
0
CIRCLE
5
111
100
AcDbEntity
8
0
100
AcDbCircle
10
21.966025403784442
20
-0.49999999999999994
30
0
40
2.4999999999999996
0
LWPOLYLINE
5
112
100
AcDbEntity
8
0
100
AcDbPolyline
90
14
70
1
43
0.0
10
39.877241335952164
20
-21.675538427778598
42
-0.20156585822383216
10
39.727168442064084
20
-22.032681284921427
42
0.13684686363816126
10
38.921181038004732
20
-23.428692419012766
42
-0.20156585822383311
10
38.686922697882927
20
-23.737230786110715
10
31.899999999999999
20
-27.655662432702599
42
-0.26794919243112286
10
31.399999999999999
20
-27.655662432702599
10
23.672758664047834
20
-23.194337567297403
42
-0.26794919243112247
10
23.422758664047834
20
-22.761324865405186
10
23.422758664047841
20
-13.838675134594808
42
-0.26794919243112097
10
23.672758664047837
20
-13.40566243270259
10
31.400000000000006
20
-8.9443375672974099
42
-0.26794919243112403
10
31.900000000000009
20
-8.9443375672974064
10
39.627241335952171
20
-13.405662432702597
42
-0.26794919243112431
10
39.877241335952178
20
-13.838675134594817
0
CIRCLE
5
113
100
AcDbEntity
8
0
100
AcDbCircle
10
31.650000000000006
20
-18.300000000000001
30
0
40
4
0
CIRCLE
5
114
100
AcDbEntity
8
0
100
AcDbCircle
10
31.650000000000006
20
-18.300000000000001
30
0
40
6.2000000000000011
0
CIRCLE
5
115
100
AcDbEntity
8
0
100
AcDbCircle
10
32.51602540378444
20
-18.800000000000001
30
0
40
2.4999999999999996
0
CIRCLE
5
116
100
AcDbEntity
8
0
100
AcDbCircle
10
42.200000000000003
20
0
30
0
40
6.2000000000000011
0
LWPOLYLINE
5
117
100
AcDbEntity
8
0
100
AcDbPolyline
90
14
70
1
43
0.0
10
50.427241335952175
20
-3.375538427778598
42
-0.20156585822383241
10
50.277168442064088
20
-3.7326812849214273
42
0.13684686363816173
10
49.47118103800473
20
-5.1286924190127667
42
-0.20156585822383022
10
49.236922697882932
20
-5.4372307861107121
10
42.449999999999989
20
-9.3556624327025908
42
-0.26794919243112164
10
41.950000000000003
20
-9.3556624327025943
10
34.222758664047831
20
-4.8943375672974039
42
-0.26794919243112081
10
33.972758664047838
20
-4.4613248654051842
10
33.972758664047838
20
4.4613248654051922
42
-0.26794919243112286
10
34.222758664047838
20
4.8943375672974101
10
41.95000000000001
20
9.3556624327025979
42
-0.26794919243112192
10
42.45000000000001
20
9.3556624327025943
10
50.177241335952175
20
4.8943375672974083
42
-0.26794919243112164
10
50.427241335952182
20
4.4613248654051834
0
CIRCLE
5
118
100
AcDbEntity
8
0
100
AcDbCircle
10
42.200000000000003
20
0
30
0
40
4
0
CIRCLE
5
119
100
AcDbEntity
8
0
100
AcDbCircle
10
43.066025403784451
20
-0.49999999999999994
30
0
40
2.4999999999999996
0
LWPOLYLINE
5
120
100
AcDbEntity
8
0
100
AcDbPolyline
90
14
70
1
43
0.0
10
60.977241335952172
20
-21.675538427778598
42
-0.20156585822383216
10
60.827168442064085
20
-22.032681284921427
42
0.13684686363816168
10
60.021181038004741
20
-23.428692419012769
42
-0.20156585822383113
10
59.786922697882936
20
-23.737230786110715
10
53.000000000000007
20
-27.655662432702599
42
-0.26794919243112497
10
52.5
20
-27.655662432702599
10
44.772758664047828
20
-23.194337567297403
42
-0.26794919243112048
10
44.522758664047835
20
-22.761324865405186
10
44.522758664047842
20
-13.838675134594808
42
-0.26794919243112097
10
44.772758664047842
20
-13.40566243270259
10
52.500000000000014
20
-8.9443375672974099
42
-0.26794919243112192
10
53.000000000000007
20
-8.9443375672974064
10
60.727241335952172
20
-13.405662432702595
42
-0.2679491924311263
10
60.977241335952179
20
-13.838675134594817
0
CIRCLE
5
121
100
AcDbEntity
8
0
100
AcDbCircle
10
52.75
20
-18.300000000000001
30
0
40
4
0
CIRCLE
5
122
100
AcDbEntity
8
0
100
AcDbCircle
10
52.75
20
-18.300000000000001
30
0
40
6.2000000000000011
0
CIRCLE
5
123
100
AcDbEntity
8
0
100
AcDbCircle
10
53.616025403784448
20
-18.800000000000001
30
0
40
2.4999999999999996
0
CIRCLE
5
124
100
AcDbEntity
8
0
100
AcDbCircle
10
63.300000000000011
20
0
30
0
40
6.2000000000000011
0
LWPOLYLINE
5
125
100
AcDbEntity
8
0
100
AcDbPolyline
90
14
70
1
43
0.0
10
71.527241335952169
20
-3.375538427778598
42
-0.20156585822383241
10
71.37716844206409
20
-3.7326812849214273
42
0.13684686363816173
10
70.571181038004738
20
-5.1286924190127667
42
-0.20156585822383022
10
70.336922697882926
20
-5.4372307861107121
10
63.549999999999997
20
-9.3556624327025908
42
-0.26794919243112164
10
63.050000000000004
20
-9.3556624327025943
10
55.322758664047839
20
-4.8943375672974012
42
-0.26794919243112097
10
55.072758664047839
20
-4.4613248654051842
10
55.072758664047839
20
4.4613248654051922
42
-0.26794919243112486
10
55.322758664047846
20
4.8943375672974101
10
63.050000000000011
20
9.3556624327025979
42
-0.26794919243112192
10
63.550000000000011
20
9.3556624327025943
10
71.277241335952183
20
4.8943375672974003
42
-0.26794919243112164
10
71.527241335952169
20
4.4613248654051834
0
CIRCLE
5
126
100
AcDbEntity
8
0
100
AcDbCircle
10
63.300000000000011
20
0
30
0
40
4
0
CIRCLE
5
127
100
AcDbEntity
8
0
100
AcDbCircle
10
64.16602540378446
20
-0.49999999999999994
30
0
40
2.4999999999999996
0
LWPOLYLINE
5
128
100
AcDbEntity
8
0
100
AcDbPolyline
90
14
70
1
43
0.0
10
82.077241335952181
20
-21.675538427778598
42
-0.20156585822383552
10
81.927168442064087
20
-22.032681284921427
42
0.13684686363816151
10
81.121181038004721
20
-23.428692419012769
42
-0.20156585822383113
10
80.886922697882937
20
-23.737230786110715
10
74.099999999999994
20
-27.655662432702602
42
-0.2679491924311207
10
73.600000000000009
20
-27.655662432702599
10
65.872758664047836
20
-23.194337567297406
42
-0.26794919243112453
10
65.622758664047836
20
-22.761324865405186
10
65.622758664047851
20
-13.838675134594808
42
-0.26794919243112097
10
65.872758664047836
20
-13.40566243270259
10
73.600000000000009
20
-8.9443375672974064
42
-0.26794919243112608
10
74.100000000000023
20
-8.9443375672974064
10
81.827241335952181
20
-13.405662432702607
42
-0.26794919243112214
10
82.077241335952181
20
-13.838675134594817
0
CIRCLE
5
129
100
AcDbEntity
8
0
100
AcDbCircle
10
73.850000000000023
20
-18.300000000000001
30
0
40
4
0
CIRCLE
5
130
100
AcDbEntity
8
0
100
AcDbCircle
10
73.850000000000023
20
-18.300000000000001
30
0
40
6.2000000000000011
0
CIRCLE
5
131
100
AcDbEntity
8
0
100
AcDbCircle
10
74.716025403784442
20
-18.800000000000001
30
0
40
2.4999999999999996
0
CIRCLE
5
132
100
AcDbEntity
8
0
100
AcDbCircle
10
84.400000000000006
20
0
30
0
40
6.2000000000000011
0
LWPOLYLINE
5
133
100
AcDbEntity
8
0
100
AcDbPolyline
90
14
70
1
43
0.0
10
92.627241335952164
20
-3.375538427778598
42
-0.20156585822383574
10
92.477168442064084
20
-3.7326812849214273
42
0.13684686363816101
10
91.671181038004747
20
-5.128692419012765
42
-0.2015658582238383
10
91.43692269788292
20
-5.4372307861107121
10
84.650000000000006
20
-9.3556624327026032
42
-0.26794919243111748
10
84.150000000000006
20
-9.3556624327025943
10
76.422758664047848
20
-4.8943375672974083
42
-0.26794919243112081
10
76.172758664047834
20
-4.4613248654051842
10
76.172758664047848
20
4.4613248654051922
42
-0.26794919243112486
10
76.422758664047848
20
4.8943375672974101
10
84.150000000000006
20
9.3556624327025943
42
-0.26794919243112608
10
84.65000000000002
20
9.3556624327025943
10
92.377241335952192
20
4.8943375672974083
42
-0.26794919243112164
10
92.627241335952192
20
4.4613248654051834
0
CIRCLE
5
134
100
AcDbEntity
8
0
100
AcDbCircle
10
84.400000000000006
20
0
30
0
40
4
0
CIRCLE
5
135
100
AcDbEntity
8
0
100
AcDbCircle
10
85.266025403784454
20
-0.49999999999999994
30
0
40
2.4999999999999996
0
LWPOLYLINE
5
136
100
AcDbEntity
8
0
100
AcDbPolyline
90
14
70
1
43
0.0
10
103.17724133595217
20
-21.675538427778598
42
-0.20156585822383552
10
103.02716844206408
20
-22.032681284921427
42
0.13684686363816106
10
102.22118103800474
20
-23.428692419012769
42
-0.20156585822383113
10
101.98692269788295
20
-23.737230786110715
10
95.200000000000017
20
-27.655662432702599
42
-0.26794919243112497
10
94.700000000000003
20
-27.655662432702599
10
86.972758664047831
20
-23.194337567297396
42
-0.26794919243112048
10
86.722758664047859
20
-22.761324865405186
10
86.722758664047859
20
-13.838675134594808
42
-0.2679491924311293
10
86.972758664047859
20
-13.40566243270259
10
94.700000000000017
20
-8.9443375672973993
42
-0.26794919243111787
10
95.200000000000017
20
-8.9443375672974064
10
102.92724133595217
20
-13.405662432702592
42
-0.26794919243112214
10
103.17724133595219
20
-13.838675134594817
0
CIRCLE
5
137
100
AcDbEntity
8
0
100
AcDbCircle
10
94.950000000000017
20
-18.300000000000001
30
0
40
4
0
CIRCLE
5
138
100
AcDbEntity
8
0
100
AcDbCircle
10
94.950000000000017
20
-18.300000000000001
30
0
40
6.2000000000000011
0
CIRCLE
5
139
100
AcDbEntity
8
0
100
AcDbCircle
10
95.816025403784437
20
-18.800000000000001
30
0
40
2.4999999999999996
0
CIRCLE
5
140
100
AcDbEntity
8
0
100
AcDbCircle
10
105.5
20
0
30
0
40
6.2000000000000011
0
LWPOLYLINE
5
141
100
AcDbEntity
8
0
100
AcDbPolyline
90
14
70
1
43
0.0
10
113.72724133595216
20
-3.375538427778598
42
-0.20156585822383574
10
113.57716844206408
20
-3.7326812849214273
42
0.13684686363816101
10
112.77118103800474
20
-5.128692419012765
42
-0.2015658582238383
10
112.53692269788291
20
-5.4372307861107121
10
105.75
20
-9.3556624327026032
42
-0.26794919243111748
10
105.25
20
-9.3556624327025943
10
97.522758664047842
20
-4.8943375672974083
42
-0.26794919243112081
10
97.272758664047828
20
-4.4613248654051842
10
97.272758664047828
20
4.4613248654051922
42
-0.2679491924311207
10
97.522758664047842
20
4.8943375672974101
10
105.25
20
9.3556624327025943
42
-0.26794919243112608
10
105.75000000000001
20
9.3556624327025943
10
113.47724133595219
20
4.8943375672974083
42
-0.26794919243112164
10
113.72724133595219
20
4.4613248654051834
0
CIRCLE
5
142
100
AcDbEntity
8
0
100
AcDbCircle
10
105.5
20
0
30
0
40
4
0
CIRCLE
5
143
100
AcDbEntity
8
0
100
AcDbCircle
10
106.36602540378445
20
-0.49999999999999994
30
0
40
2.4999999999999996
0
LWPOLYLINE
5
144
100
AcDbEntity
8
0
100
AcDbPolyline
90
14
70
1
43
0.0
10
124.27724133595217
20
-21.675538427778598
42
-0.20156585822383552
10
124.12716844206408
20
-22.032681284921427
42
0.13684686363816106
10
123.32118103800474
20
-23.428692419012769
42
-0.20156585822383113
10
123.08692269788294
20
-23.737230786110715
10
116.30000000000001
20
-27.655662432702599
42
-0.26794919243112497
10
115.8
20
-27.655662432702599
10
108.07275866404783
20
-23.194337567297396
42
-0.26794919243112048
10
107.82275866404785
20
-22.761324865405186
10
107.82275866404785
20
-13.838675134594808
42
-0.2679491924311293
10
108.07275866404785
20
-13.40566243270259
10
115.80000000000001
20
-8.9443375672973993
42
-0.26794919243111787
10
116.30000000000001
20
-8.9443375672974064
10
124.02724133595217
20
-13.405662432702592
42
-0.26794919243112214
10
124.27724133595218
20
-13.838675134594817
0
CIRCLE
5
145
100
AcDbEntity
8
0
100
AcDbCircle
10
116.05000000000001
20
-18.300000000000001
30
0
40
4
0
CIRCLE
5
146
100
AcDbEntity
8
0
100
AcDbCircle
10
116.05000000000001
20
-18.300000000000001
30
0
40
6.2000000000000011
0
CIRCLE
5
147
100
AcDbEntity
8
0
100
AcDbCircle
10
116.91602540378443
20
-18.800000000000001
30
0
40
2.4999999999999996
0
CIRCLE
5
148
100
AcDbEntity
8
0
100
AcDbCircle
10
126.60000000000002
20
0
30
0
40
6.2000000000000011
0
LWPOLYLINE
5
149
100
AcDbEntity
8
0
100
AcDbPolyline
90
14
70
1
43
0.0
10
134.82724133595218
20
-3.375538427778598
42
-0.20156585822383574
10
134.6771684420641
20
-3.7326812849214273
42
0.13684686363816101
10
133.87118103800475
20
-5.1286924190127667
42
-0.20156585822383022
10
133.63692269788294
20
-5.4372307861107121
10
126.85000000000001
20
-9.3556624327026032
42
-0.26794919243111748
10
126.35000000000002
20
-9.3556624327025943
10
118.62275866404785
20
-4.8943375672974083
42
-0.26794919243112081
10
118.37275866404784
20
-4.4613248654051842
10
118.37275866404784
20
4.4613248654051922
42
-0.2679491924311207
10
118.62275866404785
20
4.8943375672974101
10
126.35000000000002
20
9.3556624327025943
42
-0.26794919243112608
10
126.85000000000002
20
9.3556624327025943
10
134.57724133595218
20
4.8943375672974083
42
-0.26794919243112164
10
134.82724133595218
20
4.4613248654051834
0
CIRCLE
5
150
100
AcDbEntity
8
0
100
AcDbCircle
10
126.60000000000002
20
0
30
0
40
4
0
CIRCLE
5
151
100
AcDbEntity
8
0
100
AcDbCircle
10
127.46602540378446
20
-0.49999999999999994
30
0
40
2.4999999999999996
0
LWPOLYLINE
5
152
100
AcDbEntity
8
0
100
AcDbPolyline
90
14
70
1
43
0.0
10
145.37724133595219
20
-21.675538427778598
42
-0.20156585822382883
10
145.22716844206411
20
-22.032681284921427
42
0.1368468636381622
10
144.42118103800476
20
-23.428692419012769
42
-0.20156585822383113
10
144.18692269788295
20
-23.737230786110715
10
137.40000000000003
20
-27.655662432702599
42
-0.26794919243112497
10
136.90000000000001
20
-27.655662432702599
10
129.17275866404785
20
-23.194337567297406
42
-0.26794919243112048
10
128.92275866404785
20
-22.761324865405186
10
128.92275866404785
20
-13.838675134594808
42
-0.2679491924311293
10
129.17275866404788
20
-13.40566243270259
10
136.90000000000003
20
-8.9443375672974152
42
-0.26794919243111787
10
137.40000000000003
20
-8.9443375672974064
10
145.12724133595219
20
-13.405662432702592
42
-0.26794919243112214
10
145.37724133595219
20
-13.838675134594817
0
CIRCLE
5
153
100
AcDbEntity
8
0
100
AcDbCircle
10
137.15000000000001
20
-18.300000000000001
30
0
40
4
0
CIRCLE
5
154
100
AcDbEntity
8
0
100
AcDbCircle
10
137.15000000000001
20
-18.300000000000001
30
0
40
6.2000000000000011
0
CIRCLE
5
155
100
AcDbEntity
8
0
100
AcDbCircle
10
138.01602540378445
20
-18.800000000000001
30
0
40
2.4999999999999996
0
CIRCLE
5
156
100
AcDbEntity
8
0
100
AcDbCircle
10
147.70000000000005
20
0
30
0
40
6.2000000000000011
0
LWPOLYLINE
5
157
100
AcDbEntity
8
0
100
AcDbPolyline
90
14
70
1
43
0.0
10
155.9272413359522
20
-3.375538427778598
42
-0.20156585822383574
10
155.7771684420641
20
-3.7326812849214273
42
0.13684686363816101
10
154.97118103800477
20
-5.128692419012765
42
-0.2015658582238383
10
154.73692269788296
20
-5.4372307861107121
10
147.95000000000002
20
-9.3556624327026032
42
-0.26794919243111748
10
147.45000000000002
20
-9.3556624327025943
10
139.72275866404786
20
-4.8943375672974083
42
-0.26794919243112081
10
139.47275866404786
20
-4.4613248654051842
10
139.47275866404786
20
4.4613248654051922
42
-0.2679491924311207
10
139.72275866404786
20
4.8943375672974101
10
147.45000000000002
20
9.3556624327025943
42
-0.26794919243112608
10
147.95000000000005
20
9.3556624327025943
10
155.6772413359522
20
4.8943375672974083
42
-0.26794919243112164
10
155.9272413359522
20
4.4613248654051834
0
CIRCLE
5
158
100
AcDbEntity
8
0
100
AcDbCircle
10
147.70000000000005
20
0
30
0
40
4
0
CIRCLE
5
159
100
AcDbEntity
8
0
100
AcDbCircle
10
148.56602540378447
20
-0.49999999999999994
30
0
40
2.4999999999999996
0
LWPOLYLINE
5
160
100
AcDbEntity
8
0
100
AcDbPolyline
90
14
70
1
43
0.0
10
166.47724133595221
20
-21.675538427778598
42
-0.2015658582238421
10
166.32716844206411
20
-22.032681284921427
42
0.13684686363816084
10
165.52118103800478
20
-23.428692419012769
42
-0.2015658582238368
10
165.28692269788294
20
-23.737230786110715
10
158.50000000000003
20
-27.655662432702599
42
-0.26794919243112497
10
158.00000000000003
20
-27.655662432702599
10
150.27275866404784
20
-23.194337567297396
42
-0.26794919243112048
10
150.02275866404787
20
-22.761324865405186
10
150.02275866404787
20
-13.838675134594808
42
-0.2679491924311293
10
150.27275866404787
20
-13.40566243270259
10
158.00000000000006
20
-8.9443375672973993
42
-0.26794919243111787
10
158.50000000000003
20
-8.9443375672974064
10
166.22724133595221
20
-13.405662432702615
42
-0.26794919243113047
10
166.47724133595219
20
-13.838675134594817
0
CIRCLE
5
161
100
AcDbEntity
8
0
100
AcDbCircle
10
158.25000000000003
20
-18.300000000000001
30
0
40
4
0
CIRCLE
5
162
100
AcDbEntity
8
0
100
AcDbCircle
10
158.25000000000003
20
-18.300000000000001
30
0
40
6.2000000000000011
0
CIRCLE
5
163
100
AcDbEntity
8
0
100
AcDbCircle
10
159.11602540378448
20
-18.800000000000001
30
0
40
2.4999999999999996
0
CIRCLE
5
164
100
AcDbEntity
8
0
100
AcDbCircle
10
168.80000000000001
20
0
30
0
40
6.2000000000000011
0
LWPOLYLINE
5
165
100
AcDbEntity
8
0
100
AcDbPolyline
90
14
70
1
43
0.0
10
177.02724133595217
20
-3.375538427778598
42
-0.20156585822382916
10
176.87716844206409
20
-3.7326812849214281
42
0.13684686363816068
10
176.07118103800477
20
-5.1286924190127694
42
-0.20156585822383588
10
175.83692269788293
20
-5.4372307861107121
10
169.05000000000004
20
-9.3556624327026086
42
-0.26794919243112569
10
168.55000000000001
20
-9.3556624327025943
10
160.82275866404785
20
-4.8943375672973843
42
-0.26794919243112902
10
160.57275866404785
20
-4.4613248654051842
10
160.57275866404785
20
4.4613248654051922
42
-0.26794919243111248
10
160.82275866404785
20
4.8943375672974101
10
168.55000000000004
20
9.3556624327025943
42
-0.26794919243110954
10
169.05000000000001
20
9.3556624327025943
10
176.7772413359522
20
4.8943375672973852
42
-0.26794919243112986
10
177.02724133595217
20
4.4613248654051834
0
CIRCLE
5
166
100
AcDbEntity
8
0
100
AcDbCircle
10
168.80000000000001
20
0
30
0
40
4
0
CIRCLE
5
167
100
AcDbEntity
8
0
100
AcDbCircle
10
169.66602540378446
20
-0.49999999999999994
30
0
40
2.4999999999999996
0
LWPOLYLINE
5
168
100
AcDbEntity
8
0
100
AcDbPolyline
90
14
70
1
43
0.0
10
187.57724133595221
20
-21.675538427778598
42
-0.2015658582238421
10
187.4271684420641
20
-22.032681284921427
42
0.13684686363816084
10
186.62118103800478
20
-23.428692419012769
42
-0.2015658582238368
10
186.38692269788294
20
-23.737230786110715
10
179.60000000000002
20
-27.655662432702599
42
-0.26794919243110832
10
179.10000000000002
20
-27.655662432702599
10
171.37275866404786
20
-23.194337567297403
42
-0.26794919243111215
10
171.12275866404786
20
-22.761324865405186
10
171.12275866404786
20
-13.838675134594808
42
-0.26794919243111287
10
171.37275866404786
20
-13.40566243270259
10
179.09999999999999
20
-8.9443375672973922
42
-0.26794919243112608
10
179.60000000000005
20
-8.9443375672974064
10
187.32724133595218
20
-13.405662432702615
42
-0.26794919243113047
10
187.57724133595218
20
-13.838675134594817
0
CIRCLE
5
169
100
AcDbEntity
8
0
100
AcDbCircle
10
179.35000000000002
20
-18.300000000000001
30
0
40
4
0
CIRCLE
5
170
100
AcDbEntity
8
0
100
AcDbCircle
10
179.35000000000002
20
-18.300000000000001
30
0
40
6.2000000000000011
0
CIRCLE
5
171
100
AcDbEntity
8
0
100
AcDbCircle
10
180.21602540378444
20
-18.800000000000001
30
0
40
2.4999999999999996
0
CIRCLE
5
172
100
AcDbEntity
8
0
100
AcDbCircle
10
189.90000000000003
20
0
30
0
40
6.2000000000000011
0
LWPOLYLINE
5
173
100
AcDbEntity
8
0
100
AcDbPolyline
90
14
70
1
43
0.0
10
198.12724133595219
20
-3.375538427778598
42
-0.20156585822382916
10
197.97716844206408
20
-3.7326812849214281
42
0.13684686363816068
10
197.17118103800476
20
-5.1286924190127694
42
-0.20156585822383588
10
196.93692269788295
20
-5.4372307861107121
10
190.15000000000003
20
-9.3556624327026086
42
-0.26794919243112569
10
189.65000000000001
20
-9.3556624327025943
10
181.92275866404785
20
-4.8943375672973843
42
-0.26794919243112902
10
181.67275866404788
20
-4.4613248654051842
10
181.67275866404788
20
4.4613248654051922
42
-0.26794919243111248
10
181.92275866404785
20
4.8943375672974101
10
189.65000000000003
20
9.3556624327025943
42
-0.26794919243110954
10
190.15000000000001
20
9.3556624327025943
10
197.87724133595219
20
4.8943375672973852
42
-0.26794919243112986
10
198.12724133595219
20
4.4613248654051834
0
CIRCLE
5
174
100
AcDbEntity
8
0
100
AcDbCircle
10
189.90000000000003
20
0
30
0
40
4
0
CIRCLE
5
175
100
AcDbEntity
8
0
100
AcDbCircle
10
190.76602540378445
20
-0.49999999999999994
30
0
40
2.4999999999999996
0
LWPOLYLINE
5
176
100
AcDbEntity
8
0
100
AcDbPolyline
90
14
70
1
43
0.0
10
208.6772413359522
20
-21.675538427778598
42
-0.2015658582238421
10
208.5271684420641
20
-22.032681284921427
42
0.13684686363816084
10
207.72118103800477
20
-23.428692419012769
42
-0.2015658582238368
10
207.48692269788293
20
-23.737230786110715
10
200.69999999999999
20
-27.655662432702599
42
-0.26794919243110832
10
200.20000000000005
20
-27.655662432702599
10
192.47275866404783
20
-23.194337567297403
42
-0.26794919243111215
10
192.22275866404786
20
-22.761324865405186
10
192.22275866404786
20
-13.838675134594808
42
-0.26794919243111287
10
192.47275866404783
20
-13.40566243270259
10
200.19999999999999
20
-8.9443375672973922
42
-0.26794919243112608
10
200.70000000000005
20
-8.9443375672974064
10
208.4272413359522
20
-13.405662432702615
42
-0.26794919243113047
10
208.67724133595217
20
-13.838675134594817
0
CIRCLE
5
177
100
AcDbEntity
8
0
100
AcDbCircle
10
200.45000000000002
20
-18.300000000000001
30
0
40
4
0
CIRCLE
5
178
100
AcDbEntity
8
0
100
AcDbCircle
10
200.45000000000002
20
-18.300000000000001
30
0
40
6.2000000000000011
0
CIRCLE
5
179
100
AcDbEntity
8
0
100
AcDbCircle
10
201.31602540378447
20
-18.800000000000001
30
0
40
2.4999999999999996
0
CIRCLE
5
180
100
AcDbEntity
8
0
100
AcDbCircle
10
211
20
0
30
0
40
6.2000000000000011
0
LWPOLYLINE
5
181
100
AcDbEntity
8
0
100
AcDbPolyline
90
14
70
1
43
0.0
10
219.22724133595216
20
-3.375538427778598
42
-0.20156585822382916
10
219.07716844206408
20
-3.7326812849214281
42
0.13684686363816068
10
218.27118103800476
20
-5.1286924190127694
42
-0.20156585822383588
10
218.03692269788291
20
-5.4372307861107121
10
211.25000000000003
20
-9.3556624327026086
42
-0.26794919243112569
10
210.75
20
-9.3556624327025943
10
203.02275866404784
20
-4.8943375672973843
42
-0.26794919243112902
10
202.77275866404784
20
-4.4613248654051842
10
202.77275866404784
20
4.4613248654051922
42
-0.26794919243111248
10
203.02275866404784
20
4.8943375672974101
10
210.75000000000003
20
9.3556624327025943
42
-0.26794919243110954
10
211.25
20
9.3556624327025943
10
218.97724133595219
20
4.8943375672973852
42
-0.26794919243112986
10
219.22724133595216
20
4.4613248654051834
0
CIRCLE
5
182
100
AcDbEntity
8
0
100
AcDbCircle
10
211
20
0
30
0
40
4
0
CIRCLE
5
183
100
AcDbEntity
8
0
100
AcDbCircle
10
211.86602540378445
20
-0.49999999999999994
30
0
40
2.4999999999999996
0
LWPOLYLINE
5
184
100
AcDbEntity
8
0
100
AcDbPolyline
90
14
70
1
43
0.0
10
229.7772413359522
20
-21.675538427778598
42
-0.2015658582238421
10
229.62716844206409
20
-22.032681284921427
42
0.13684686363816084
10
228.82118103800477
20
-23.428692419012769
42
-0.2015658582238368
10
228.58692269788293
20
-23.737230786110715
10
221.80000000000001
20
-27.655662432702599
42
-0.26794919243110832
10
221.30000000000001
20
-27.655662432702599
10
213.57275866404785
20
-23.194337567297403
42
-0.26794919243111215
10
213.32275866404785
20
-22.761324865405186
10
213.32275866404785
20
-13.838675134594808
42
-0.26794919243111287
10
213.57275866404785
20
-13.40566243270259
10
221.29999999999998
20
-8.9443375672973922
42
-0.26794919243112608
10
221.80000000000004
20
-8.9443375672974064
10
229.52724133595217
20
-13.405662432702615
42
-0.26794919243113047
10
229.77724133595217
20
-13.838675134594817
0
CIRCLE
5
185
100
AcDbEntity
8
0
100
AcDbCircle
10
221.55000000000001
20
-18.300000000000001
30
0
40
4
0
CIRCLE
5
186
100
AcDbEntity
8
0
100
AcDbCircle
10
221.55000000000001
20
-18.300000000000001
30
0
40
6.2000000000000011
0
CIRCLE
5
187
100
AcDbEntity
8
0
100
AcDbCircle
10
222.41602540378443
20
-18.800000000000001
30
0
40
2.4999999999999996
0
CIRCLE
5
188
100
AcDbEntity
8
0
100
AcDbCircle
10
232.10000000000005
20
0
30
0
40
6.2000000000000011
0
LWPOLYLINE
5
189
100
AcDbEntity
8
0
100
AcDbPolyline
90
14
70
1
43
0.0
10
240.32724133595221
20
-3.375538427778598
42
-0.20156585822382916
10
240.1771684420641
20
-3.7326812849214281
42
0.13684686363816209
10
239.37118103800481
20
-5.1286924190127694
42
-0.20156585822383588
10
239.13692269788297
20
-5.4372307861107121
10
232.35000000000008
20
-9.3556624327026086
42
-0.26794919243112569
10
231.85000000000002
20
-9.3556624327025943
10
224.12275866404786
20
-4.8943375672973843
42
-0.26794919243112902
10
223.87275866404789
20
-4.4613248654051842
10
223.87275866404789
20
4.4613248654051922
42
-0.26794919243111248
10
224.12275866404786
20
4.8943375672974101
10
231.85000000000005
20
9.3556624327025943
42
-0.26794919243110954
10
232.35000000000002
20
9.3556624327025943
10
240.07724133595221
20
4.8943375672973852
42
-0.26794919243112986
10
240.32724133595221
20
4.4613248654051834
0
CIRCLE
5
190
100
AcDbEntity
8
0
100
AcDbCircle
10
232.10000000000005
20
0
30
0
40
4
0
CIRCLE
5
191
100
AcDbEntity
8
0
100
AcDbCircle
10
232.96602540378447
20
-0.49999999999999994
30
0
40
2.4999999999999996
0
LWPOLYLINE
5
192
100
AcDbEntity
8
0
100
AcDbPolyline
90
14
70
1
43
0.0
10
250.87724133595225
20
-21.675538427778598
42
-0.2015658582238421
10
250.72716844206411
20
-22.032681284921427
42
0.13684686363816004
10
249.92118103800476
20
-23.428692419012762
42
-0.2015658582238414
10
249.68692269788295
20
-23.737230786110715
10
242.90000000000003
20
-27.655662432702599
42
-0.26794919243110832
10
242.40000000000006
20
-27.655662432702599
10
234.67275866404788
20
-23.194337567297403
42
-0.26794919243111215
10
234.42275866404788
20
-22.761324865405186
10
234.42275866404788
20
-13.838675134594808
42
-0.26794919243111287
10
234.67275866404788
20
-13.40566243270259
10
242.40000000000003
20
-8.9443375672973922
42
-0.26794919243112608
10
242.90000000000006
20
-8.9443375672974064
10
250.62724133595222
20
-13.405662432702583
42
-0.26794919243113047
10
250.87724133595225
20
-13.838675134594817
0
CIRCLE
5
193
100
AcDbEntity
8
0
100
AcDbCircle
10
242.65000000000003
20
-18.300000000000001
30
0
40
4
0
CIRCLE
5
194
100
AcDbEntity
8
0
100
AcDbCircle
10
242.65000000000003
20
-18.300000000000001
30
0
40
6.2000000000000011
0
CIRCLE
5
195
100
AcDbEntity
8
0
100
AcDbCircle
10
243.51602540378448
20
-18.800000000000001
30
0
40
2.4999999999999996
0
ENDSEC
0
SECTION
2
OBJECTS
0
DICTIONARY
5
C
100
AcDbDictionary
3
ACAD_GROUP
350
D
3
ACAD_MLINESTYLE
350
17
0
DICTIONARY
5
D
100
AcDbDictionary
0
DICTIONARY
5
1A
330
C
100
AcDbDictionary
0
DICTIONARY
5
17
100
AcDbDictionary
0
ENDSEC
0
EOF
